<svg version="1.1" xmlns="http://www.w3.org/2000/svg" viewBox="0 0 288 560" style="width: 6.15%;">
	<style type="text/css">
	</style>
	<g class="attic-boxes">
		<polyline style="fill:#804528;" class="st0" points="153.7,240.9 95.6,240.9 95.6,244.9 95.6,245.2 95.6,245.4 95.4,260.2 95.4,262.3 95.2,277.8 
			95.2,279.9 95,293.2 95,295.3 94.8,310.1 94.7,312.2 94.7,318.5 94.7,318.9 153.7,318.9 153.7,318.5 153.7,243.3 153.7,240.9 
									"/>
		<path style="fill:#B16238;" class="st1" d="M174.7,271.9c-1.1,0-2-0.9-2-2v-11c0-1.1,0.9-2,2-2h34c1.1,0,2,0.9,2,2v11c0,1.1-0.9,2-2,2H174.7
				M229.7,240.9L229.7,240.9h-76v2.4v75.6h76v-0.5v-6.3v-2.1v-14.8v-2.1v-13.4v-2.1v-15.5v-2.1v-14.7v-2.1V240.9"/>
		<path style="fill:#D3C7C2;" class="st2" d="M180.7,265.9c-1.1,0-2-0.9-2-2c0-1.1,0.9-2,2-2h23c1.1,0,2,0.9,2,2c0,1.1-0.9,2-2,2H180.7 M208.7,256.9
			h-34c-1.1,0-2,0.9-2,2v11c0,1.1,0.9,2,2,2h34c1.1,0,2-0.9,2-2v-11C210.7,257.8,209.8,256.9,208.7,256.9"/>
		<path style="fill:#372D3A;" class="st3" d="M203.7,261.9h-23c-1.1,0-2,0.9-2,2c0,1.1,0.9,2,2,2h23c1.1,0,2-0.9,2-2
			C205.7,262.8,204.8,261.9,203.7,261.9"/>
		<polyline style="fill:#B16238;" class="st1" points="147.7,169.8 95.6,169.8 95.6,240.9 147.7,240.9 147.7,232.1 147.7,211.3 147.7,210.9 						"/>
		<path style="fill:#D3C7C2;" class="st2" d="M177.6,203.9c-0.9,0-1.8-0.7-2-1.7c-0.2-1.1,0.5-2.1,1.6-2.3l0.1,0l22.7-3.7c0.1,0,0.2,0,0.3,0
			c1,0,1.8,0.7,2,1.7c0.2,1.1-0.6,2.1-1.7,2.3l-22.7,3.7C177.8,203.9,177.7,203.9,177.6,203.9 M204.5,190.5c-0.1,0-0.2,0-0.3,0
			l-33.3,5.4l-0.2,0c-0.6,0.1-1.2,0.5-1.5,1.1c-0.2,0.4-0.3,0.8-0.2,1.2l1.8,10.9c0.2,1,1,1.7,2,1.7c0.1,0,0.2,0,0.3,0l33.6-5.4
			c1.1-0.2,1.8-1.2,1.7-2.3l-1.8-10.9l0,0C206.3,191.1,205.4,190.5,204.5,190.5"/>
		<path style="fill:#372D3A;" class="st3" d="M200.3,196.2c-0.1,0-0.2,0-0.3,0l-22.7,3.7l-0.1,0c-1.1,0.2-1.8,1.2-1.6,2.3c0.2,1,1,1.7,2,1.7
			c0.1,0,0.2,0,0.4,0l22.7-3.7c1.1-0.2,1.8-1.2,1.7-2.3C202.1,196.9,201.3,196.2,200.3,196.2"/>
		<path style="fill:#C67245;" class="st4" d="M212.6,169.8h-1.5h-63.4v41.6v20.8v8.9h6h61v-1v-7.9v-2.1v-15.5v-2.1v-14.8v-2.1v-18.3v-2.1v-5.4H212.6z
				M206.5,205.3l-33.6,5.4c-0.1,0-0.2,0-0.3,0c-1,0-1.8-0.7-2-1.7l-1.8-10.9c-0.1-0.4,0-0.9,0.2-1.2c0.4-0.7,1-1,1.8-1.2
			l-0.1,0.1l1.8-0.3c0.2,0,0.5-0.1,0.7-0.1l0.1,0l30.8-5c0.1,0,0.2,0,0.3,0c1,0,1.8,0.7,2,1.7l0,0l1.8,10.9
			C208.4,204.1,207.6,205.1,206.5,205.3z"/>
	</g>
	<g>
		<path style="fill:transparent;" class="outline" d="M229.7,319.9H89l1-78.5l9-5.2l44.3-29.5l21-13.7c0.7-0.8,1.6-1.4,2.6-1.7l40.4-26.3l7.3,1.8v69.4h15V319.9z
			M94.7,314.2H224v-72.3h-15v-70.6l-0.7-0.2l-39.3,25.6l-0.4,0.1l-0.2,0.3l-22.1,14.4l-45.7,30.5h-0.2l-4.9,2.8L94.7,314.2z"/>
	</g>
</svg>
