<svg id="Слой_1" data-name="Слой 1" xmlns="http://www.w3.org/2000/svg" viewBox="0 0 140.7 154.88" style="width: 2.89%">
	<g class="attic-boxes">
		<polyline points="62.52 74 11.39 74 7.3 76.37 4.47 78 4.47 78.21 4.46 78.47 4.28 93.22 4.25 95.34 4.05 110.81 4.02 112.91 3.85 126.28 3.82 128.38 3.63 143.16 3.61 145.25 3.53 151.53 3.52 152 62.52 152 62.52 151.53 62.52 76.38 62.52 74" style="fill:#804528"/>
		<polyline points="138.52 73 123.52 73 123.52 74 62.52 74 62.52 76.38 62.52 74 138.52 74 138.52 73" style="fill:#b16238"/>
		<path d="M80,102a2,2,0,0,1-2-2V89a2,2,0,0,1,2-2h34a2,2,0,0,1,2,2v11a2,2,0,0,1-2,2H80m55-31H59v78h76V71" transform="translate(3.52 3)" style="fill:#b16238"/>
		<path d="M86,96a2,2,0,0,1,0-4h23a2,2,0,0,1,0,4H86m28-9H80a2,2,0,0,0-2,2v11a2,2,0,0,0,2,2h34a2,2,0,0,0,2-2V89a2,2,0,0,0-2-2" transform="translate(3.52 3)" style="fill:#d3c7c2"/>
		<path d="M109,92H86a2,2,0,0,0,0,4h23a2,2,0,0,0,0-4" transform="translate(3.52 3)" style="fill:#372d3a"/>
		<polyline points="56.52 44 34.66 58.57 28.02 63 24.83 65.13 11.52 74 56.52 74 56.52 65.13 56.52 44.36 56.52 44" style="fill:#b16238"/>
		<path d="M116,0,76.15,25.93l33.34-5.4h.33a2,2,0,0,1,2,1.67h0l1.76,10.86a2,2,0,0,1-1.65,2.29L78.36,40.79H78a2,2,0,0,1-2-1.68L74.28,28.25a2,2,0,0,1,.2-1.23L53,41V71h67V1L116.44.11,116,0" transform="translate(3.52 3)" style="fill:#c67245"/>
		<path d="M82.94,33.93a2,2,0,1,1-.35-4h.06l22.7-3.68h.32a2,2,0,1,1,.32,4l-22.7,3.67h-.35M109.82,20.5h-.33L76.15,25.9h-.22A2,2,0,0,0,74.47,27a2,2,0,0,0-.2,1.23L76,39.12a2,2,0,0,0,2,1.68h.32l33.57-5.44a2,2,0,0,0,1.65-2.29l-1.76-10.86h0a2,2,0,0,0-2-1.67" transform="translate(3.52 3)" style="fill:#d3c7c2"/>
		<path d="M105.67,26.24h-.32L82.65,30h-.06a2,2,0,1,0,.35,4h.35L106,30.33a2,2,0,1,0-.32-4" transform="translate(3.52 3)" style="fill:#372d3a"/>
	</g>
    <path class="outline" d="M137.19,151.88H-3.52l1-78.48,9-5.18L50.78,38.69,71.8,25a4.82,4.82,0,0,1,2.62-1.7L114.84-3l7.35,1.83V68.22h15Zm-135-5.66h129.3V73.88h-15V3.26l-.66-.16L76.55,28.69l-.4.06-.16.3L53.9,43.42,8.21,73.88H8L3.12,76.7Z" transform="translate(3.52 3)" style="fill: transparent"/>
</svg>