<svg id="Слой_1" data-name="Слой 1" xmlns="http://www.w3.org/2000/svg" viewBox="0 0 175.73 189.23" style="width: 3.74%">
    <g class="balalaika">
        <polyline points="27.02 5.37 20.55 11.01 5.15 24.43 17.27 35.34 29.23 46.1 36.26 46.83 39.07 47.12 45.28 42.06 45.35 39.44 45.52 32.85 32.47 13.46 27.02 5.37" style="fill:#ccb584"/>
        <polyline points="93.36 94.61 111 114.94 99.37 124.41 80.59 101.31 83.04 184.68 146.58 135.15 170.58 115.14 93.36 94.61" style="fill:#8c4f1d"/>
        <polyline points="45.41 39.38 45.35 39.44 45.28 42.06 39.07 47.12 36.26 46.83 52.73 67.06 80.59 101.31 99.37 124.41 111 114.94 93.36 94.61 67.84 65.22 61.54 57.97 45.41 39.38" style="fill:#ccb584"/>
    </g>
    <path class="outline" d="M74.34,183.86l-2.59-88-43-52.82L22,42.35-5.15,17.92,21.55-5.36l20.8,30.9-.16,6.27L88.91,85.62l81.67,21.71-28.21,23.51ZM24.41,36.9l7.29.75L77.36,93.79l0,1,2.29,77.77,59.13-46.09L158.53,110,85.77,90.65,39.05,36.85,36.39,39l.1-6.16.15-5.68L20.44,3.13,3.4,18Z" transform="translate(5.15 5.36)" style="fill: transparent"/>
</svg>