<svg id="Слой_1" data-name="Слой 1" xmlns="http://www.w3.org/2000/svg" viewBox="0 0 215.64 148.45" style="width: 4.59%">
    <g class="bear">
        <path d="M127.85,279.07c-1.54,1-13,12.05-5.85,24.93,6.63,11.87,17.27,23.74,25.62,23.74A7.75,7.75,0,0,0,151,327c8.65-4.09,6.13-29.55-1-43h0c-.78,1.88-1.32,2.75-1.84,3.1,4.54,16.88,2.66,24.06,1.26,24.06-.64,0-1.18-1.48-1-4.21.59-7.7-2.68-17.24-3.69-20-3-.27-15.13-5.1-16.76-7a1,1,0,0,1-.15-.93" transform="translate(-32.64 -250.62)" style="fill:#cd7f6a"/>
        <path d="M144.76,287c1,2.72,4.28,12.26,3.69,20-.21,2.73.33,4.21,1,4.21,1.4,0,3.28-7.18-1.26-24.06a1.22,1.22,0,0,1-.74.23c-.6,0-1.32-.33-2.42-.33h-.24m-39.26-7a5.5,5.5,0,1,0,5.5,5.5,5.5,5.5,0,0,0-5.5-5.5m11.5-2a3,3,0,1,0,3,3,3,3,0,0,0-3-3" transform="translate(-32.64 -250.62)" style="fill:#86584c"/>
        <path d="M142.28,269.85a12.11,12.11,0,0,0-2.46.27,20.1,20.1,0,0,0-11.38,7.63,4.21,4.21,0,0,0-.59,1.32,1,1,0,0,0,.15.93c1.63,1.89,13.72,6.72,16.76,7H145c1.1,0,1.82.33,2.42.33a1.22,1.22,0,0,0,.74-.23c.52-.35,1.06-1.22,1.84-3.1h0a14.8,14.8,0,0,0,.63-1.88c1.25-4.72.43-10.85-6.63-12.12a9.91,9.91,0,0,0-1.72-.15" transform="translate(-32.64 -250.62)" style="fill:#351d16"/>
        <path d="M235,282a7.86,7.86,0,0,0-6.21-2.87c-5,0-9.79,3.87-9.79,3.87s-.88.16-2-1-1.64-2.44-4-4a3.31,3.31,0,0,0-1.68-.74,1.54,1.54,0,0,0-.43.06c-4.57,2.34-1.77,11-1.72,11.53s-3.17,3.21-6,5.21c-1.74,1.21-5,3.55-7.36,5.2l-.07-.06-1.15.76-2.14,1.4L164,320h0s-.11-.05-4-4c.12-32.44-9-34-9-34l-.37.12A14.8,14.8,0,0,1,150,284c7.13,13.45,9.65,38.91,1,43a7.75,7.75,0,0,1-3.38.74c-8.35,0-19-11.87-25.62-23.74-7.19-12.88,4.31-23.92,5.85-24.93a4.21,4.21,0,0,1,.59-1.32A1.86,1.86,0,0,1,128,277c-1.75-4.69-7-7-7-7s.83-10.62-5-13a10.91,10.91,0,0,0-4.1-.71c-6,0-13.6,3.72-13.9,10.71-1.26-.12-2.54-.18-3.81-.18C76.82,266.82,58.87,277.24,53,281c-1.87-3.59-4.06-5-6.27-5-5.24,0-10.56,8-11.73,14-1.67,8.51,4.14,10.93,9,11-.31,6.79,2.29,19.84,4,27.57.41,1.82.76,3.35,1,4.43,1.32,5.64,6.9,25.42,3,35s-7,31-7,31,50.6.06,94.16.06c21.77,0,41.79,0,52.84-.06-5.63-10.94-4.66-16-3-17,16.47-17.25,32.69-37.47,38-46a28.05,28.05,0,0,1,4.15-5.08l0-.05c3.3-3.73,7.9-8.23,8.8-9.11l.05.06a25.11,25.11,0,0,0,4-9.82C246.66,298.49,241,289,235,282Zm-129.5,9a5.5,5.5,0,1,1,5.5-5.5A5.5,5.5,0,0,1,105.5,291Zm11.5-7a3,3,0,1,1,3-3A3,3,0,0,1,117,284Z" transform="translate(-32.64 -250.62)" style="fill:#53261c"/>
        <path d="M133.85,272.68a18.49,18.49,0,0,1,6-2.56A9.06,9.06,0,0,0,133.85,272.68Z" transform="translate(-32.64 -250.62)" style="fill:#53261c"/>
    </g>
    <path class="outline" d="M139.92,399.06c-43.55,0-94.16-.06-94.16-.06H42.49l.47-3.24c.13-.89,3.2-21.88,7.18-31.66,3.17-7.79-1-24.8-2.62-31.2-.21-.82-.38-1.52-.51-2.09-.26-1.09-.61-2.63-1-4.47-1.77-8-3.8-18.56-4.05-25.6a11.48,11.48,0,0,1-7-3.88c-2.1-2.59-2.74-6-1.91-10.24,1.3-6.66,7.22-16.3,14.51-16.3,2,0,4.71.76,7.16,4,7.36-4.41,24-13.13,40.3-13.13l1.44,0c1.91-6.67,9.28-10.56,16.27-10.56a13.7,13.7,0,0,1,5.17.92c6,2.46,6.79,10.26,6.81,14a18.16,18.16,0,0,1,5.06,4.54,24.8,24.8,0,0,1,3.19-2.47,11.86,11.86,0,0,1,7.36-3.12,13.45,13.45,0,0,1,5-.08,11,11,0,0,1,7.69,4.81,12.81,12.81,0,0,1,1.66,8.24c3.43,2.41,8.9,10.09,9,34.57l1.53,1.54,31.6-20.74h0l5.55-3.91a47.89,47.89,0,0,0,4.58-3.59c-1.51-6.88-.33-11.37,3.5-13.34l.28-.14.3-.08a4.48,4.48,0,0,1,1.15-.15,5.76,5.76,0,0,1,3.24,1.21,14.32,14.32,0,0,1,3.74,3.52l.45.56c2.06-1.33,5.94-3.42,10-3.42a10.76,10.76,0,0,1,8.36,3.85h0c5.59,6.5,12.68,16.93,9.63,32.4a28,28,0,0,1-4.5,10.9l-2.1,3-.44-.52c-1.39,1.38-3.2,3.23-4.9,5.06l.08.1-1.78,1.85a25.52,25.52,0,0,0-3.74,4.57c-5.41,8.7-21.61,28.93-38.35,46.46l-.34.33c-.41,1-.47,5.11,3.81,13.42L197.4,399l-4.62,0C183,399,165.22,399.06,139.92,399.06Zm-90.84-5.73c11.92,0,53.91.06,90.84.06,21.83,0,38.06,0,48.38,0-4.77-11.14-2-15.09-.4-16.33,15.91-16.69,32.19-36.89,37.46-45.35a29.64,29.64,0,0,1,3.94-5l.45-.54c3.38-3.82,8.05-8.39,9-9.27l0,0a22.61,22.61,0,0,0,3.24-8.24c2.54-12.91-3.14-21.53-8.37-27.61h0a5.05,5.05,0,0,0-4.06-1.88c-3.86,0-8,3.21-8,3.25l-.56.45-.72.13a5.16,5.16,0,0,1-4.53-1.82,16.9,16.9,0,0,1-1.11-1.31,9,9,0,0,0-2.26-2.2c-.49.87-.86,2.83.21,7.2a5.09,5.09,0,0,1,.19,1c.09,1.08.2,2.56-7.25,7.75-1.74,1.21-5,3.54-7.34,5.18L196.32,300l-.12-.11L165,320.43l-1.46-.73c-.51-.26-.53-.27-4.75-4.55l-.82-.83v-1.17c.09-23.74-4.79-29.63-6.39-30.92l-4.22,1.41,1.34-5.08a8.29,8.29,0,0,0-.48-6.33,5.44,5.44,0,0,0-3.91-2.27,8,8,0,0,0-3.1.1l-.26.05h-.27a6.21,6.21,0,0,0-4.13,1.84l-.36.27a15.48,15.48,0,0,0-4.54,4.19l-1.79,2.86L127.31,277a4.62,4.62,0,0,1-1.2-1.87c-1.29-3.47-5.44-5.37-5.48-5.39l-1.84-.81.15-2c.21-2.79-.31-8.95-3.24-10.15a8.21,8.21,0,0,0-3-.5c-4.32,0-10.83,2.54-11.07,8l-.13,3-3-.28c-1.15-.11-2.34-.17-3.54-.17-16.94,0-34.64,10.51-39.66,13.73l-2.62,1.68-1.43-2.76c-.82-1.58-2.14-3.48-3.75-3.48-3.17,0-7.85,6.14-9,11.72-.49,2.48-.23,4.36.75,5.58,1.46,1.79,4.34,2,5.51,2l2.92,0-.13,2.92c-.22,4.83,1.18,14.35,3.93,26.83.4,1.81.75,3.33,1,4.4.13.54.29,1.22.49,2,2,8.18,6.24,25.2,2.37,34.69C52.56,373.21,50.1,387.05,49.08,393.33Z" transform="translate(-32.64 -250.62)" style="fill: transparent"/>
</svg>