<svg xmlns="http://www.w3.org/2000/svg" viewBox="0 0 465.35 352.7" style="width: 9.6%">
    <g class="bed">
        <polyline points="3.36 352.68 3.28 352.69 3.35 352.69 3.36 352.68" style="fill:#ab7d49"/>
        <line x1="465.35" y1="332.2" x2="465.35" y2="331.2" style="fill:none"/>
        <path d="M462.07,319.5" transform="translate(3.28 5.7)" style="fill:#76512b"/>
        <line x1="302.11" y1="172.52" x2="302.11" y2="172.52" style="fill:none"/>
        <line x1="364.78" y1="172.52" x2="364.78" y2="172.52" style="fill:none"/>
        <line x1="39.11" y1="26.14" x2="39.11" y2="26.14" style="fill:none"/>
        <line x1="198.72" y1="26.14" x2="198.72" y2="26.14" style="fill:none"/>
        <line x1="39.11" y1="26.14" x2="39.11" y2="26.14" style="fill:none"/>
        <path d="M425.07,315h-5v.83l5-.83m-62-8.76-124,18.93h0V344l-7,2.94V347H215.13V318.64H25V344l-6.94,3h-17v-1.73l-1,1.7H233.14l32.93-5.49,6-1,36-6,6-1,42-7,6-1,9-1.5h-8V306.24m45-6.86-33,5v18.95l17-2.83,6-1,15-2.5h-5V299.43" transform="translate(3.28 5.7)" style="fill:#4a3828"/>
        <path d="M375.07,188.71V193c13.45,2.55,25,5.5,33,7.76v-4.9l-1.77-.46c-8.58-2.2-19.31-4.64-31.23-6.66m-47.52-4.35c-7.59,0-15.19.4-22.61,1.07-9.48.86-18.67,2.17-27.19,3.67-10.81,1.91-20.56,4.14-28.5,6.17-3.84,1-7.26,1.91-10.18,2.74v1.08c18.91-5,50.19-11.73,81.48-11.73a279.08,279.08,0,0,1,42.52,3.53v-4c-7.89-1-16.13-1.86-24.47-2.25-3.67-.18-7.36-.27-11.05-.27M443.07,125h-7V314.94l5.81-2.44,1.19-.5V125M219.38,12.65a7.25,7.25,0,0,1-1.6,1.37V15.5h1.6V12.65M434.08,1h0a7,7,0,0,0-4,1.27A7.05,7.05,0,0,1,431.89,15v2.5h4.25V125h7V13.51h-4.57A7,7,0,0,0,436,1.25,6.77,6.77,0,0,0,434.13,1m-214,0h0a7.06,7.06,0,0,0-3,.66,6.72,6.72,0,0,1,1.53,1A7,7,0,0,1,220.53,1h-.39" transform="translate(3.28 5.7)" style="fill:#916f4e"/>
        <path d="M375.07,193v13.46c18.43,3.46,31,7.22,31,7.22v15.48l2-.3v-28.1c-8-2.26-19.55-5.21-33-7.76m-54.52-5.61c-31.29,0-62.57,6.74-81.48,11.73v12.78c13.8-3.56,47-11.12,80.16-11.12a291.27,291.27,0,0,1,43.84,3.68V190.89a279.08,279.08,0,0,0-42.52-3.53" transform="translate(3.28 5.7)" style="fill:#a67c52"/>
        <path d="M375.07,206.43V234l31-4.83V213.69s-12.61-3.76-31-7.22m-55.84-5.72c-33.18,0-66.36,7.56-80.16,11.12V235.6l9.14-.14c18.79-.27,43.66-.53,68.63-.53,15.88,0,31.81.1,46.23.39V204.43a290.06,290.06,0,0,0-43.84-3.66" transform="translate(3.28 5.7)" style="fill:#bd8e5e"/>
        <path d="M215.13,117.64h-1.19V149h0v-31.4h-8.87V228.09c3.38.89,6.36,1.73,8.87,2.46V186.43h0v44.13l1.19.35V117.64M214,1h-.09V26.21h0V1a7,7,0,0,0-7,7v.05h0a7,7,0,0,0,2.31,5.18v3.24H205V27.34c6.12,1.47,9.8,2.46,9.8,2.46V35l.26.09V15.5h2.63V14a7.25,7.25,0,0,0,1.6-1.37v-.36A7,7,0,0,1,217,7.06h0a7.06,7.06,0,0,1,1.54-4.41,6.72,6.72,0,0,0-1.53-1A7.06,7.06,0,0,0,214,1" transform="translate(3.28 5.7)" style="fill:#a57c53"/>
        <path d="M424.16,166.82h0M428.06,2h0a7,7,0,0,0-7,7v.05h0a7.08,7.08,0,0,0,2.34,5.23v3.21h-4.22V35.9a3.3,3.3,0,0,1,.43.19c2.37,1.24,3.24,4.79,3.52,8l.66-.1V96l-3.67.55V237.43c2,1.45,2.75,4.71,3,7.67l.66-.1v52l-3.67.56V315h16V17.5h-4.25V15A7,7,0,0,0,428.1,2" transform="translate(3.28 5.7)" style="fill:#bd8e5e"/>
        <path d="M408.07,241l-33,4.6v6.85l33-5V241m12-3.56v8.13l3-.46c-.26-3-1-6.22-3-7.67m-103.23-2.54c-25,0-49.84.26-68.63.53l-9.14.14v37.56h.16l123.84-18.89v-19c-14.42-.29-30.35-.39-46.23-.39" transform="translate(3.28 5.7)" style="fill:#f5e0ff"/>
        <path d="M25,318.64H18V347h.06L25,344V318.64m188.93-88.09v5.13l1.19.39V230.9l-1.19-.35m-90.39-14.19q-6.09,0-12.14.32c-7.66.4-15.23,1.13-22.51,2.09-6.25.82-12.29,1.79-18,2.85-8.33,1.54-16,3.25-22.55,4.87-9.6,2.37-17,4.57-20.93,5.82l-2.4.76V227l-6.94,3H18v6.09c7-2.29,52.76-16.71,98.54-16.71,43.69,0,87.41,13.13,97.39,16.32v-5.13c-2.51-.73-5.49-1.57-8.87-2.46-4.28-1.13-9.19-2.35-14.6-3.56-6.1-1.37-12.84-2.72-20-3.92-5.29-.89-10.81-1.7-16.48-2.37-8.4-1-17.12-1.66-25.88-1.83-1.52,0-3.05-.05-4.57-.05m112.61-49.54h0M230.06,1h0a7.32,7.32,0,0,0-1.62.19l-.32.08a7,7,0,0,1,3,5.76h0a7,7,0,0,1-3.28,6v2.5h4.25V346.94l7-2.94V325.17l-1.86.28v-52l1.86-.29V124l-.56-34.09-.44.09.18-15.64V72.45h.06l.41-37.83h.39V13.51h-4.57A7,7,0,0,0,230.12,1" transform="translate(3.28 5.7)" style="fill:#c99a6c"/>
        <path d="M28.38,305.91V245.69s43.41-12.94,86.83-12.94,86.87,12.94,86.87,12.94v60.22H28.38m88.14-86.55C70.74,219.36,25,233.78,18,236.07v82.57H215.13V236.07l-1.19-.39v36.65h0V235.68c-10-3.19-53.7-16.32-97.39-16.32" transform="translate(3.28 5.7)" style="fill:#a67c52"/>
        <path d="M195.44,266.56h0m-159.61,0h0m38.85,0h0m38.85,0h0m43.07,0h0m-41.36-33.81c-43.42,0-86.86,12.94-86.86,12.94v60.22h173.7V245.69s-43.44-12.94-86.87-12.94" transform="translate(3.28 5.7)" style="fill:#bd8e5e"/>
        <polyline points="4.35 222.2 4.35 222.2 4.35 350.97 4.35 352.7 21.29 352.7 21.29 352.68 21.29 324.34 21.29 241.77 21.29 238.7 4.35 238.7 4.35 222.2" style="fill:#bd8e5e"/>
        <path d="M232.07,15.5h-4.25v2.84h-8.44V15.5h-4.23V35.07l.93.31v82.26h-.93V347h16.94V15.5M217,7.05h0a7,7,0,0,0,2.35,5.23v2.29h0V12.28A7,7,0,0,1,217,7.05h0" transform="translate(3.28 5.7)" style="fill:#bd8e5e"/>
        <path d="M408.07,298l-33,4.6v1.85l33-5V298m-45-43.73L239.23,273.14h-.16l-1.86.29v52l1.86-.28h0l124-18.93v-52m45-6.87-33,5v38.59l33-4.6V247.43M423.74,245l-.66.1-3,.46v52l3.67-.56V245" transform="translate(3.28 5.7)" style="fill:#dec1ec"/>
        <path d="M238.25,74.36,238.07,90l.44-.09-.26-15.55M321,34.06H301.12c-9.43,0-18.55.09-26.76.15-18.74.15-32.8.32-35.29.35h-.39l-.41,37.87,2-.3c19.4-3,171.55-26.32,182.85-28-.28-3.2-1.15-6.75-3.52-8a3.3,3.3,0,0,0-.43-.19c-2.6-1-9.25-1-19.56-1-6.86,0-15.35,0-25.33-.3-3.24-.09-6.77-.17-10.55-.24-8-.14-17.11-.22-26.63-.26H321" transform="translate(3.28 5.7)" style="fill:#f5e0ff"/>
        <path d="M25,117.64H18V230h.06L25,227V117.64M156.6,20.43h0m-33-5.08q-4.8,0-9.59.2c-5.44.23-10.84.63-16.14,1.17h0c-8,.81-15.76,1.93-23,3.19h0q-8.49,1.5-16,3.15h0C50,25,42.34,27,36.5,28.64c-5.69,1.6-9.65,2.87-11.35,3.42h0C31.29,30.06,67.29,18.7,107,16l-2.38,2.71h.28c3.93-.19,7.88-.3,11.83-.3,45.22,0,90.46,14.06,98.32,16.62V29.83s-3.68-1-9.8-2.46c-2.74-.66-6-1.41-9.59-2.21-4.76-1.06-10.18-2.2-16-3.31-7.24-1.42-15-2.71-22.86-3.81-5.28-.74-10.61-1.37-15.84-1.84-1.63-.14-3.24-.27-4.85-.38l-1-.07c-3.95-.25-7.81-.39-11.52-.39" transform="translate(3.28 5.7)" style="fill:#c99a6c"/>
        <path d="M74.68,20.43h0M16,0h0a7.06,7.06,0,0,0-3,.66A7,7,0,0,1,17,7h0a7,7,0,0,1-3.31,6v2.48H18V35.05l2.84-.9a71.36,71.36,0,0,1-1-11.67,71.36,71.36,0,0,0,1,11.67,383.17,383.17,0,0,1,50-11.72h.09a305.67,305.67,0,0,1,33.46-3.71L106.77,16C67.1,18.76,31.1,30.11,25,32.12h0V12.51H20.48A7,7,0,0,0,23.07,7h0a7,7,0,0,0-7-7" transform="translate(3.28 5.7)" style="fill:#b6b5b3"/>
        <path d="M20.85,34.17l-2.84.9h0l2.84-.9h0m50-11.76a384.49,384.49,0,0,0-50,11.76h0a383.89,383.89,0,0,1,50-11.74m.14,0h0m42.55-2h0m3-2.08c-4,0-7.9.11-11.83.3-.16.2-5.09,5.78-12.53,14.18,7.52-.68,15.28-1.09,23-1.09C158.6,31.74,202,44.68,202,44.68V104.9H28.38v-.05c-5,5.69-8.76,9.89-10.4,11.74v1h196V64h0v53.61h2.12V35.43l-.93-.31-.26-.09c-7.86-2.56-53.1-16.62-98.32-16.62" transform="translate(3.28 5.7)" style="fill:#a67c52"/>
        <path d="M20.85,34.17l-2.84.9V116.6c1.64-1.85,5.37-6,10.4-11.74V58a96.94,96.94,0,0,1-7.56-23.86m83.87-15.51h-.28A305.8,305.8,0,0,0,71,22.43h-.09a384.49,384.49,0,0,0-50,11.76A96.77,96.77,0,0,0,28.38,58V44.69h0s7.45-2.22,19.25-4.82q8.44-1.87,17-3.34c8.25-1.44,17.45-2.76,27.05-3.64h0l.5,0c7.44-8.4,12.37-14,12.53-14.18h0" transform="translate(3.28 5.7)" style="fill:#8c8e8d"/>
        <path d="M47.66,39.87c-11.8,2.56-19.28,4.82-19.28,4.82Q37.95,42,47.63,39.87m44-7c-9.6.88-18.8,2.2-27,3.64q13.44-2.32,27.05-3.64h0m23.56-1.14c-7.77,0-15.53.41-23,1.09l-.5,0h0c-1,.57-63.27,72-63.27,72V58h0v46.88h173.7V44.69S158.73,31.75,115.3,31.75" transform="translate(3.28 5.7)" style="fill:#bd8e5e"/>
        <path d="M91.68,32.89q-13.59,1.3-27,3.64-8.52,1.47-17,3.34Q38,42,28.43,44.69h0v60.22s62.32-71.45,63.27-72m0,0h0" transform="translate(3.28 5.7)" style="fill:#a9a8a3"/>
        <path d="M1.07,15.5h0V233H18V117.19L1.61,136l-.54.62V15.5M3,7.05H3a7,7,0,0,0,2.3,5.18h0A7,7,0,0,1,3,7.05H3" transform="translate(3.28 5.7)" style="fill:#bd8e5e"/>
        <path d="M10,0h0A7,7,0,0,0,3,7v0H3a7,7,0,0,0,2.3,5.18v3.24H1.65V41h0V15.5H1.11V136.62l.54-.62h0l16.4-18.81V35.07h0V15.5H13.8V13a7,7,0,0,0,3.31-6h0a7,7,0,0,0-7-7" transform="translate(3.28 5.7)" style="fill:#a9a8a3"/>
        <path d="M224.06,0h0a7,7,0,0,0-7,7.05h0a7,7,0,0,0,2.35,5.23v3.21h0v2.84h8.46V15.49h0V13a7,7,0,0,0,3.28-6h0a7,7,0,0,0-7-7" transform="translate(3.28 5.7)" style="fill:#bd8e5e"/>
        <path d="M413.07,294.7l-2,.28v2.58l-3,.42v19h5v-22.3m0-197.09-5,.75v14.33l1-.13v2.28l2-.28v9l-3,.42v42.89l2-.31v3.14l1-.14v9l-3,.42v49.89l2-.31v3.14l1-.14v9l-3,.42v45.47l5-.7V97.61" transform="translate(3.28 5.7)" style="fill:#af7e4b"/>
        <polyline points="423.35 102.25 416.35 103.31 416.35 291.4 417.35 291.26 417.35 300.26 416.35 300.4 416.35 322.7 418.35 322.7 423.35 322.7 423.35 321.53 423.35 320.7 423.35 303.25 423.35 251.25 423.35 243.12 423.35 102.25" style="fill:#c69459"/>
        <path d="M414.07,285.56l-1,.14-5,.7-33,4.6v2.58l36-5V295l2-.28,1-.14v-9m-4-57-2,.31-2,.3-31,4.83v2.58l35-4.88v-3.14m0-62-2,.31-9.64,1.5L375.07,172v2.58l35-4.88v-3.14m-1-54-1,.13-22.83,3L375.07,117v2.58l34-4.74V112.6" transform="translate(3.28 5.7)" style="fill:#b88142"/>
        <path d="M411.07,288.56l-36,5v9l33-4.6,3-.42v-9m0-57-1,.14-35,4.88v9l33-4.6,3-.42v-9m0-62-1,.14-35,4.88v9l24.81-3.46,8.19-1.14,3-.42v-9m0-55-2,.28-34,4.74v9l6.16-.86L408.07,124l3-.42v-9" transform="translate(3.28 5.7)" style="fill:#ce9b53"/>
        <polyline points="371.35 110.14 366.35 110.89 366.35 164.29 366.35 182.8 366.35 192.58 366.35 196.6 366.35 210.11 366.35 241.02 366.35 259.95 366.35 311.95 366.35 329.7 373.35 329.7 371.35 329.7 371.35 110.14" style="fill:#af7e4b"/>
        <polyline points="378.35 109.07 371.35 110.14 371.35 329.7 373.35 329.7 374.35 329.7 376.74 329.7 378.35 329.7 378.35 329.4 378.35 329.03 378.35 310.12 378.35 308.28 378.35 299.28 378.35 296.7 378.35 258.12 378.35 251.28 378.35 242.28 378.35 239.7 378.35 212.17 378.35 198.67 378.35 194.41 378.35 189.28 378.35 180.28 378.35 177.7 378.35 144.38 378.35 134.28 378.35 125.28 378.35 122.7 378.35 109.07" style="fill:#c69459"/>
        <path d="M423.74,44l-.66.1c-11.3,1.73-163.45,25.09-182.85,28.05l-2,.3h-.06v1.91l.26,15.55L239,124,258.43,121l37.58-5.7,27.17-4.12,37.18-5.64,2.63-.4,5-.76,7-1.06,10.81-1.64L408,98.35l5-.75,7-1.07,3.67-.55V44" transform="translate(3.28 5.7)" style="fill:#dec1ec"/>
    </g>
    <path class="outline" d="M234.49,347H-3.28L-1,342.78,1.21,344v0l-2.15-1.25.6-1.05V9.8H3.33A9.88,9.88,0,0,1,4.44-2.79a9.78,9.78,0,0,1,7-2.91h0a9.8,9.8,0,0,1,3,.46A9.9,9.9,0,0,1,27.33,4.13,10.37,10.37,0,0,1,27,6.81h2.29V25.34l8.86-2.59c1-.28,2-.57,3.15-.86l13.63-3.4,4.92-1.11L63,16.7l5.34-1.07,1.93-.37,1.8-.34,2-.36,2.12-.37,4.25-.71,1.46-.23q2.31-.36,4.65-.69l1.36-.19,4.28-.56,1-.12c1.65-.2,3.3-.38,5-.55l3.41-.34,2.22-.2,1.39-.11.27,0,2.23-.17L114,9.85l-.06.07,1.34-.05c3.3-.14,6.57-.21,9.71-.21,3.63,0,7.57.13,11.71.4l1,.07c1.63.11,3.26.24,4.91.38,5,.45,10.37,1.07,16,1.86,7.18,1,14.88,2.29,22.87,3.83,5.24,1,10.64,2.12,16.06,3.33,2.05.45,4.11.92,6.15,1.4V10.8h3.67a9.87,9.87,0,0,1,8-15.5h.11a9.68,9.68,0,0,1,3,.46,10.18,10.18,0,0,1,2.69-.46,9.93,9.93,0,0,1,4.33-1A9.86,9.86,0,0,1,230-4.59a9.73,9.73,0,0,1,1.43-.11,9.89,9.89,0,0,1,9.9,9.86A10.14,10.14,0,0,1,241,7.81h2.32V28.87c5.29-.06,17.38-.2,32.43-.32,8.22-.06,17.34-.12,26.77-.15,11.88,0,24.25-.06,36,0,10.2,0,19.17.13,26.67.26,3.79.07,7.33.15,10.58.24,9.82.28,18.23.29,25,.3H401c8,0,13.26,0,16.73.41V11.8h3.64a9.87,9.87,0,0,1,8.1-15.5,10.28,10.28,0,0,1,1.47.11,9.7,9.7,0,0,1,4.53-1.11,10,10,0,0,1,2.62.35,9.89,9.89,0,0,1,7.28,9.51h0A10.14,10.14,0,0,1,445,7.81h2.32V311l-7,2.94v1l-3,.06H426.73l-2.4.4V317h-9.6l-35.4,5.9V324h-6.6ZM6.2,341.3H234.26l138-23h1.4v-.23l40.83-6.77h4.17v-.73l7.83-1.27h10.29l4.88-2.05V13.48H432l6.18-5a4.21,4.21,0,0,0,1.55-3.28h0a4.21,4.21,0,0,0-3.1-4,4.22,4.22,0,0,0-3.53.61L432,2.51l-1.3-.38a4.21,4.21,0,0,0-4,7.18l.94.85v7.31h-4.22V37.16l-3.85-1.47c-2.14-.81-9.74-.82-18.55-.83h-.26c-6.8,0-15.26,0-25.15-.3-3.23-.09-6.75-.17-10.51-.24-7.48-.13-16.43-.22-26.6-.26-11.7-.05-24.05,0-35.91,0-9.43,0-18.55.09-26.76.15-19.92.16-34.65.35-35.27.35l-2.87,0V13.48H228l6.19-5A4.21,4.21,0,0,0,231.48,1a4.62,4.62,0,0,0-1,.11L229,1.51,227.89.73A4.15,4.15,0,0,0,225.48,0a4.23,4.23,0,0,0-2.18.6l-.74.45-.88,0h-.23a4,4,0,0,0-1.8.4l-1.21.56-1.2-.56a4.07,4.07,0,0,0-1.79-.4,4.21,4.21,0,0,0-2.83,7.33l.93.84v7.33h-4.22V28.1l-3.49-.84c-3.14-.75-6.36-1.49-9.55-2.2-5.37-1.19-10.73-2.3-15.91-3.29-7.9-1.52-15.5-2.8-22.59-3.79-5.52-.77-10.81-1.39-15.7-1.82-1.61-.14-3.21-.27-4.79-.38l-1-.06c-4-.26-7.83-.39-11.34-.39-3.06,0-6.25.07-9.47.2-2.19.09-4.5.22-7.06.4l-.94.06-1.61.13-.27,0-1.35.11-2.19.19-3.34.33c-1.64.17-3.27.35-4.88.55l-1,.12-4.2.55-1.33.18-4.58.68-1.43.23-4.18.69-2.09.37-2,.36-1.78.33-1.9.36-5.26,1.06c-1,.22-2.09.44-3.11.67l-11.56,2.7-6.73,1.74-3.12.85L27.4,31.87l-3.71,1.21-.09-3.87V12.48H13.93l6.18-5a4.2,4.2,0,0,0,1.55-3.29A4.14,4.14,0,0,0,21,1.89,4.2,4.2,0,0,0,17.45,0a4.16,4.16,0,0,0-1.8.39L14.44.93,13.24.37A4.07,4.07,0,0,0,11.45,0h0a4.15,4.15,0,0,0-3,1.24,4.17,4.17,0,0,0-1.22,3A4.23,4.23,0,0,0,8.62,7.3l.93.84v7.33H5.33V341.29H6.2ZM23.6,234.12V111.94H209.33v117l-3.56-.94c-4.77-1.26-9.64-2.45-14.5-3.54-6.67-1.49-13.34-2.8-19.84-3.89-5.54-.94-11-1.72-16.34-2.34-8.88-1-17.5-1.66-25.61-1.82-1.5,0-3,0-4.51,0-3.87,0-7.91.11-12,.32-7.12.36-14.62,1.06-22.28,2.06-5.81.77-11.82,1.72-17.86,2.83-7.4,1.37-14.94,3-22.39,4.84-9.24,2.28-16.39,4.39-20.76,5.77l-2.36.75Zm5.67-116.51V226.34c4.5-1.39,11.28-3.36,19.81-5.46C56.64,219,64.29,217.36,71.8,216c6.14-1.13,12.24-2.1,18.15-2.88,7.82-1,15.46-1.73,22.73-2.1,4.18-.22,8.32-.33,12.29-.33,1.55,0,3.09,0,4.63.05,8.29.17,17.09.79,26.15,1.86,5.39.63,11,1.43,16.62,2.38,6.6,1.11,13.37,2.44,20.14,4,3.72.84,7.46,1.73,11.15,2.67v-104Zm208.39,81.3V118.7L367.33,99v88.23l-3.21-.43c-8.36-1.12-16.51-1.87-24.23-2.24-3.71-.17-7.38-.26-10.91-.26-7.09,0-14.61.36-22.36,1.06-8.62.78-17.7,2-27,3.64s-18.85,3.71-28.29,6.12c-3.43.88-6.83,1.79-10.1,2.73Zm5.67-75.34v67.84c2.18-.59,4.41-1.18,6.64-1.75,9.57-2.45,19.23-4.54,28.7-6.21s18.65-2.91,27.44-3.71c7.92-.72,15.61-1.08,22.87-1.08,3.61,0,7.38.09,11.18.27,6.89.33,14.11.95,21.5,1.87V105.62Zm169,73.07-3.56-.93-1.76-.46c-10.36-2.65-20.79-4.88-31-6.61l-2.36-.4v-10l38.67-5.39Zm-33-13.18c9,1.59,18.19,3.56,27.33,5.85v-9.94l-27.33,3.81Zm-5.67-11V123.25l38.67-5.39v48.57Zm5.67-44.26v37.64l27.33-4.24V124.37Zm-5.67-10.82V98.07l38.67-5.87v20.11Zm5.67-14.42v8l27.33-3.57V98.8ZM93.11,32.86v0Zm0-2.83V27.19H96V30Z" transform="translate(3.28 5.7)" style="fill: transparent"/>
</svg>