<svg id="Слой_1" data-name="Слой 1" xmlns="http://www.w3.org/2000/svg" viewBox="0 0 489.01 41.09" style="width: 10.4%">
    <g class="bedroom-floor">
        <polyline points="452.13 27.7 452.12 27.7 452.12 29.75 452.13 29.75 452.13 27.7" style="fill:#765836"/>
        <polyline points="452.12 37.8 449.73 38.24 452.12 38.24 452.12 37.8" style="fill:#ab7d49"/>
        <path d="M13.82,37.76l26.93-5" transform="translate(0 0)" style="fill:#ab7d49"/>
        <polyline points="40.77 32.75 32.94 32.75 0 38.24" style="fill:#ab7d49"/>
        <polyline points="452.12 27.7 441.11 29.75 452.12 29.75 452.12 27.7" style="fill:#ab7d49"/>
        <path d="M140.33,15.25h-2.39l-9,1.5h3.34l8.06-1.5m18.81-3.5h-.21l-17,2.84v.33l17.2-3.21" transform="translate(0 0)" style="fill:#926b3e"/>
        <polyline points="228.94 11.75 199.94 11.75 199.94 11.75 164.61 11.75 137.73 16.75 220.94 16.75 220.94 16.75 228.94 16.75 228.94 11.75" style="fill:#926b3e"/>
        <polyline points="164.61 11.75 159.14 11.75 141.94 14.95 141.94 15.25 140.33 15.25 132.26 16.75 137.73 16.75 164.61 11.75" style="fill:#76512b"/>
        <polyline points="486.14 11.75 419.94 11.75 412.29 11.75 402.72 16.75 432.94 16.75 459.26 16.75 486.14 11.75" style="fill:#a27849"/>
        <path d="M486.14,11.75l-26.88,5h5.47L489,12.25" transform="translate(0 0)" style="fill:#76512b"/>
        <polyline points="238.14 25.75 174.94 25.75 174.94 25.75 139.61 25.75 118.11 29.75 164.94 29.75 216.65 29.75 238.14 25.75" style="fill:#926b3e"/>
        <polyline points="134.14 25.75 74.93 25.75 38.93 31.75 46.14 31.75 56.84 29.76 56.94 29.75 112.64 29.75 134.14 25.75" style="fill:#a2784a"/>
        <path d="M46.14,31.75H38.93l-6,1h7.89l5.37-1m93.47-6h-5.47l-21.5,4h5.47l21.5-4" transform="translate(0 0)" style="fill:#76512b"/>
        <polyline points="345.14 25.75 286.94 25.75 243.61 25.75 222.11 29.75 271.94 29.75 323.64 29.75 345.14 25.75" style="fill:#926b3e"/>
        <polyline points="243.61 25.75 238.14 25.75 216.65 29.75 222.11 29.75 243.61 25.75" style="fill:#76512b"/>
        <polyline points="457.14 25.75 394.94 25.75 350.61 25.75 329.11 29.75 377.94 29.75 435.64 29.75 457.14 25.75" style="fill:#926b3e"/>
        <path d="M350.61,25.75h-5.47l-21.49,4h5.46l21.5-4m112,0h-5.47l-21.5,4h5.47l11-2h0l10.48-2" transform="translate(0 0)" style="fill:#76512b"/>
        <polyline points="159.51 30.75 56.98 30.75 19.36 37.75 121.89 37.75 159.51 30.75" style="fill:#926b3e"/>
        <path d="M13.94,38.75h108a.49.49,0,0,1-.5-.45.5.5,0,0,1,.41-.54H19.36l37.62-7H159.51l5.34-1h.09" transform="translate(0 0)" style="fill:#76512b"/>
        <path d="M164.94,29.75H56.82l-10.7,2-5.37,1-26.93,5" transform="translate(0 0)" style="fill:#76512b"/>
        <polyline points="266.51 30.75 164.98 30.75 127.36 37.75 228.89 37.75 266.51 30.75" style="fill:#926b3e"/>
        <path d="M271.94,29.75H164.82l-5.34,1-37.62,7h0a.5.5,0,0,0-.41.54.49.49,0,0,0,.5.45H229a.49.49,0,0,1-.5-.45.5.5,0,0,1,.4-.54H127.36l37.62-7H266.51l5.34-1h.09" transform="translate(0 0)" style="fill:#76512b"/>
        <polyline points="372.51 30.75 271.98 30.75 234.36 37.75 334.89 37.75 372.51 30.75" style="fill:#a98052"/>
        <path d="M377.94,29.75H271.82l-5.34,1-37.62,7h0a.5.5,0,0,0-.4.54.49.49,0,0,0,.5.45H335a.49.49,0,0,1-.5-.45.5.5,0,0,1,.41-.54H234.36l37.62-7H372.51l5.34-1h.09" transform="translate(0 0)" style="fill:#76512b"/>
        <polyline points="484.52 30.75 377.98 30.75 340.36 37.75 446.89 37.75 484.52 30.75" style="fill:#926b3e"/>
        <polyline points="377.98 30.75 452.43 30.75 452.36 36.74 446.89 37.75 340.36 37.75 377.98 30.75" style="fill:#76512b"/>
        <path d="M489,29.75H377.82l-5.34,1-37.62,7h0a.5.5,0,0,0-.41.54.49.49,0,0,0,.5.45H447l2.7-.51,2.39-.44.37-.07s36.51-7.58,36.51-8" transform="translate(0 0)" style="fill:#76512b"/>
        <polyline points="228.94 17.75 220.98 17.75 183.35 24.75 282.88 24.75 290.95 23.25 228.94 23.25 228.94 17.75" style="fill:#aa8051"/>
        <path d="M282.88,24.76H183.35l-5.32,1H282.94a.49.49,0,0,1-.5-.45.5.5,0,0,1,.41-.54h0m-53.94-8h-8a.51.51,0,0,1,.09,1h7.91v-1" transform="translate(0 0)" style="fill:#76512b"/>
        <polyline points="427.51 17.75 400.81 17.75 390.29 23.25 390.28 23.25 390.28 23.25 296.42 23.25 288.36 24.75 389.88 24.75 427.51 17.75" style="fill:#926b3e"/>
        <path d="M296.42,23.25H291l-8.07,1.51h0a.5.5,0,0,0-.41.54.49.49,0,0,0,.5.45H390a.49.49,0,0,1-.5-.45.5.5,0,0,1,.41-.54H288.36l8.06-1.51m136.52-6.5H402.72l-1.91,1h26.7l5.34-1h.09" transform="translate(0 0)" style="fill:#76512b"/>
        <polyline points="215.51 17.75 122.94 17.75 80.93 24.75 177.89 24.75 215.51 17.75" style="fill:#926b3e"/>
        <path d="M220.94,16.75h-92l-6,1h92.58l-37.63,7h-97l-6,1H178l5.32-1,37.63-7H221a.51.51,0,0,0-.09-1h0" transform="translate(0 0)" style="fill:#76512b"/>
        <polyline points="228.94 6.92 208.35 10.75 228.94 10.75 228.94 6.92" style="fill:#a2794a"/>
        <polyline points="228.94 10.75 208.35 10.75 203.03 11.74 202.94 11.75 199.94 11.75 199.94 11.75 228.94 11.75 228.94 10.75" style="fill:#76512b"/>
        <polyline points="452.52 3.75 427.59 3.75 414.2 10.75 414.88 10.75 452.52 3.75" style="fill:#926b3e"/>
        <path d="M414.88,10.75h-.68l-1.91,1h2.65a.51.51,0,0,1-.55-.46.5.5,0,0,1,.46-.54h0m43.06-8H452.1v.09h-3.28l.09.13h0L428,3v.54l-.35.18h24.88l5.33-1h.09" transform="translate(0 0)" style="fill:#76512b"/>
        <path d="M488.89,3.75H458l-37.63,7H489" transform="translate(0 0)" style="fill:#926b3e"/>
        <path d="M489,10.75H420.36l37.63-7h30.9" transform="translate(0 0)" style="fill:#76512b"/>
        <path d="M488.87,2.75H457.82l-5.33,1-37.64,7h0a.49.49,0,0,0-.45.54.5.5,0,0,0,.54.46h71.2" transform="translate(0 0)" style="fill:#76512b"/>
        <polyline points="228.94 3.75 208.75 3.75 202.94 6.19 202.94 6.25 202.8 6.25 191.94 6.25 186.94 7.09 186.94 8.25 181.94 8.25 179.93 8.25 164.93 10.75 202.89 10.75 228.94 5.91 228.94 3.75" style="fill:#926b3e"/>
        <path d="M228.94,5.92l-26.05,4.84h-38l-6,1H203l5.32-1,20.63-3.84v-1m0-3.07h-19v.41l-1.19.5h20.19V2.85" transform="translate(0 0)" style="fill:#76512b"/>
        <path d="M489,17.75H433l-37.62,7H489" transform="translate(0 0)" style="fill:#926b3e"/>
        <path d="M489,24.76H395.36l37.62-7h56" transform="translate(0 0)" style="fill:#76512b"/>
        <path d="M489,16.75H432.82l-5.34,1-37.63,7h0a.5.5,0,0,0-.41.54.49.49,0,0,0,.5.45H489" transform="translate(0 0)" style="fill:#76512b"/>
        <path d="M448.82,2.84h3.36" transform="translate(0 0)" style="fill:#7cc576"/>
        <line x1="209.94" y1="2.84" x2="228.94" y2="2.84" style="fill:none"/>
        <path d="M448.82,3l-.09-.13" transform="translate(0 0)" style="fill:#6bb466"/>
        <polyline points="191.94 6.25 186.94 6.25 186.94 7.09 191.94 6.25" style="fill:#4a3828"/>
        <polyline points="0 38.24 32.94 32.75 38.93 31.75 74.93 25.75 80.93 24.75 122.94 17.75 128.93 16.75 137.94 15.25 136.94 15.25 129.94 15.25" style="fill:#4a3828"/>
        <polyline points="141.94 14.59 158.93 11.75 164.93 10.75 179.93 8.25 174.94 8.25" style="fill:#4a3828"/>
        <polyline points="202.94 6.19 208.75 3.75 209.94 3.25 209.94 2.84" style="fill:#916f4e"/>
        <polyline points="186.94 6.25 191.94 6.25 202.8 6.25 202.94 6.25 202.94 6.19" style="fill:#bd8e5e"/>
        <polyline points="174.94 8.25 179.93 8.25 181.94 8.25 179.94 8.25" style="fill:#af7e4b"/>
        <polyline points="179.94 8.25 181.94 8.25 186.94 8.25 186.94 7.09 186.94 6.25" style="fill:#c69459"/>
        <polyline points="129.94 15.25 136.94 15.25 134.94 15.25" style="fill:#af7e4b"/>
        <polyline points="134.94 15.25 136.94 15.25 137.94 15.25 140.33 15.25 141.94 15.25 141.94 14.95 141.94 14.59" style="fill:#c69459"/>
        <path d="M394.94,15.25" transform="translate(0 0)" style="fill:#777675"/>
        <path d="M236.94,14.25" transform="translate(0 0)" style="fill:#8e8e8e"/>
        <path d="M489,12.25l-24.23,4.5H489" transform="translate(0 0)" style="fill:#755735"/>
        <path d="M489,25.75H462.61l-10.48,2v2H489" transform="translate(0 0)" style="fill:#755735"/>
        <path d="M489,30.92,452.12,37.8v.44h-2.39l-2.7.51H13.94" transform="translate(0 0)" style="fill:#755735"/>
        <rect x="454.92" width="34.04" height="41.08" style="fill:#755735"/>
    </g>
    <path class="outline" d="M32.82,41.09a5.67,5.67,0,0,1-.94-11.26h0L188.44,3.56l13.9-.13L210.09.06,231.82,0V20.42H389.58L427.25.73l28.14.21-.47,40.14ZM188.94,9.23,32.87,35.41H449.32l.33-28.84-21-.16L391,26.09H226.1V5.69H211.28L203.54,9Z" transform="translate(0 0)" style="fill: transparent"/>
</svg>