<svg id="Слой_1" data-name="Слой 1" xmlns="http://www.w3.org/2000/svg" viewBox="0 0 402.75 189.47" style="width: 8.57%;">
    <g class="boat">
        <path d="M233.9,177.25c-10.31.82-20.85,1.64-30.9,2.42h34.35l-3.46-2.42" transform="translate(1.77 2.33)" style="fill:#28686f"/>
        <polyline points="134.05 118.58 131.34 118.97 131.67 119.4 134.61 119.31 134.05 118.58" style="fill:#285e64"/>
        <path d="M225.35,113.8l-20,.83h-5l-13.73.65,39.18-1.2-.5-.32" transform="translate(1.77 2.33)" style="fill:#285e64"/>
        <path d="M235.06,113.47l-1.92,0,.14.08,1.78-.13" transform="translate(1.77 2.33)" style="fill:#285e64"/>
        <path d="M100,78.37l-3.24.3h3.47l-.23-.3" transform="translate(1.77 2.33)" style="fill:#285e64"/>
        <path d="M127.82,76.29h-.19l29.72,39.38-10.55.88L158,116.2,127.82,76.29" transform="translate(1.77 2.33)" style="fill:#285e64"/>
        <path d="M338.77,157.93c-5.14,4.35-9.11,7.82-12.4,9.74,2.41-.92,7.34-5.08,12.4-9.74m-84.58-5.87a28.58,28.58,0,0,1-2.12,8.91h.35a18.79,18.79,0,0,0,.93-2.28,20,20,0,0,0,.84-6.61m101.08-10.76h-.13c-.18.39-.39.8-.62,1.23a2.29,2.29,0,0,0,.75-1.24m-31.81-5.56h-.6a44.12,44.12,0,0,1,1.5,7.89c1,10.31-.8,16.59-3.55,20.49a16.72,16.72,0,0,0,5.55-9.49c.72-4.69-.24-11.75-2.9-18.93M306,113a39.65,39.65,0,0,1,14.68,16.86h.22c-3.42-6.72-8.38-13-14.9-16.84m-.63-1.36-20.77.64c12.16.09,20.77.36,20.77.36h0c3.25,1.21,7.22,2.52,11.48,4l-11.48-5M150.93,72.19,125.86,74l1.77,2.35h.19l-.46-.62,19-.93-1-.07a54.29,54.29,0,0,0,5.57-2.48m13.91-1h-.37a50.88,50.88,0,0,1-5.11,2.44c-1,.23-2,.42-3,.58l4-.2c1-.57,2.57-1.55,4.4-2.84m61.4-1.56-24,1.8L227,70.65l-.84-1M272,30.41q3,1.89,6,4a4,4,0,0,0-.63-.73A40.85,40.85,0,0,0,272,30.42M171.44,25.79h-.34l1,1.33c-.22-.46-.45-.92-.68-1.37M242,21.88a48.49,48.49,0,0,1,4.32,8.76c4.47,12.06,5.17,20.27,1.88,25.16l.73,0c.39-.9.85-1.93,1.38-3.11,2.94-6.56-2.85-22-6.44-30.36l-1.87-.4m-171.12,91a6.3,6.3,0,0,1-1.56-.2c-2.6-.68-14.78-34.36-20-43s-31-28-31-28-1.47-3,3.55-3h.48c5.55.18,23.17,13,30,23s20.83,30.88,23,41c1.79,8.37-1.71,10.2-4.44,10.2m80-101.52c-16.68.42-33.93.91-49.47,1.45-7.9.28-15.35.57-22.07.87-55.37,2.48-72,11.09-78,26s7.17,65.6,50,107c19,18.35,37.37,27.7,53,32.45l1.92.57a110.18,110.18,0,0,0,30.64,4.13c3.6,0,6.47-.13,8.47-.13,2.42,0,11-.55,23-1.4,9.77-.7,21.8-1.61,34.64-2.6,10-.78,20.59-1.6,30.9-2.42,36.12-2.85,69.46-5.58,69.46-5.58s2.23-.23,5.37-.63c.93-.11,1.95-.25,3-.4h-1.37c-4.92,1.18-65.59,5.3-74.83,5.92l-.17.08c-2.5.13-5,.19-7.5.2s-5-.07-7.5-.2a69.71,69.71,0,0,0,8.12-3.42c-30.15,1.28-60.08,2.31-72.12,2.42-6.3.06-13,.24-19.85.24-22,0-45.87-1.92-65.15-16.24-25.31-18.79-71.83-83.13-69-113,0,0,5.44,19.49,11,31s35.16,58.13,62,73c20.24,11.23,44.07,13.46,76.52,13.46,10.52,0,22-.24,34.46-.48,17-.33,37.62-1.22,57.48-2.26a16.64,16.64,0,0,0,1.52-2.74c1.8-4.21,1.62-10.37-.2-16.91l-54.51,4.19a3.88,3.88,0,0,1-2.29,3.72c-2.77.82-11,1-11,1a23.22,23.22,0,0,0,2.36-3.88l-24.37,1.9-1-5,26.42-2.19a3.86,3.86,0,0,0-2.43-2.81c9.37-1,10-1,10-1h0a26,26,0,0,1,1.31,3.07l53.62-4.44a55.24,55.24,0,0,0-3-6.1c-30.24,1.79-79.62,4.51-100.09,4.51h-3.89c-25.19-.63-37.89-15-44-22s-16.34-28.06-30-46-21-21-21-21-3.22-1.67,1-2h.11c4.47,0,25.1,18.37,30.89,27s19.45,37.76,32,47c9.59,7.06,27.67,8.17,47.89,8.17,6.23,0,12.66-.1,19.1-.17,15.43-.16,39.92-2,62.24-3.76a40.73,40.73,0,0,0-8.78-7.79l-39.18,1.2-28.26,1.31-.35-.47-11.19.35-13.46,1.12-.53-.69-2.94.09.47.6h-21s-20.68-28.32-26-38c1.91-.77,9-1,13.43-1l3.24-.3-1.89-2.46-10.78.76-3-8,10.84-.85.16-.15L99,67.52l65.36-5.11a22.27,22.27,0,0,0,5.05-8.74c2.6-9.3-.75-21.58-7.68-31L99.54,25.24a1.39,1.39,0,0,1-.14.42c-1.42,3.43-3,4-3,4H85.35a24.57,24.57,0,0,0,2.17-3.92l-22.17.93,1-4,22.24-1.06a5.78,5.78,0,0,0-.24-1.94c-.66-2,1.35-2.5,3.51-2.5a25.09,25.09,0,0,1,4.49.5,15.46,15.46,0,0,1,2.44,3.46L158,18.32a35.16,35.16,0,0,0-8.65-6.64c.54-.13,1.06-.24,1.55-.32m9.24-.23-4.67.12a8.77,8.77,0,0,1,1.89.43s3,2.52,6.79,6.34l2.58-.12c-.37-.52-.74-1-1.12-1.5a6.24,6.24,0,0,0-1.25-.72l.55-.14a21.5,21.5,0,0,0-4.77-4.41m70.21-1.46a30.9,30.9,0,0,1,5.23,4.24l2.55-.85-.78-.39-7-3" transform="translate(1.77 2.33)" style="fill:#93ad50"/>
        <path d="M252.42,161h-.35a25.45,25.45,0,0,1-1.63,3.21,22,22,0,0,0,2-3.23M2.35,46.67c-2.83,29.87,43.69,94.21,69,113,19.28,14.32,43.16,16.24,65.15,16.24,6.86,0,13.55-.18,19.85-.24,12-.11,42-1.14,72.12-2.42,5.29-2.61,11.83-6.63,15.36-11.84-19.86,1-40.45,1.93-57.48,2.26-12.51.24-23.94.48-34.46.48-32.44,0-56.27-2.25-76.54-13.48-26.84-14.87-56.44-61.49-62-73s-11-31-11-31" transform="translate(1.77 2.33)" style="fill:#72843c"/>
        <path d="M101.44,75.68l-3.31.23L100,78.37l.23.3h.1l29.21,38,2.72-.39-30.84-40.6m-6.08-8h0l-.16.15h.26l-.1-.13" transform="translate(1.77 2.33)" style="fill:#62702e"/>
        <path d="M166.07,71.13l-1.23.09c-1.83,1.29-3.41,2.27-4.4,2.84l7.65-.37-2-2.56m58-4.09-30.25,2.09,1.94,2.5,6.44-.21,24-1.8L224.08,67m10.09-47.35h-.63a7.77,7.77,0,0,1-2.2,3c-3.83,1-11,1-11,1a11.36,11.36,0,0,0,3.5-3.57l-47.7,2c-1.76,3.59-3.81,3.59-3.81,3.59l-.89.11c.23.45.46.91.68,1.37,2.8,3.74,5.19,7.75,6.21,11.52,2,7.46,2.15,15.66-2.69,22.85l72.58-5.69c3.29-4.89,2.59-13.1-1.88-25.16A48.49,48.49,0,0,0,242,21.91q-3.83-.77-7.68-1.24l-.17-1m-68.58-3.29c.38.48.75,1,1.12,1.5h.15a4.15,4.15,0,0,0-1.27-1.49m64.76-6.72s-19.48.32-39.72.6c-11.27.16-22.78.32-31.28.4.26.13.52.29.78.45a21.5,21.5,0,0,1,4.77,4.41,32,32,0,0,1,7.43-.88h1a9.07,9.07,0,0,1,2.7,2.78l47.19-2.25a9,9,0,0,0-1.9-1.53c3.19-1,9.51-1,10-1h0A8.73,8.73,0,0,1,233,14.71h.36l2.23-.76a30.9,30.9,0,0,0-5.23-4.24h0" transform="translate(1.77 2.33)" style="fill:#c3dc68"/>
        <path d="M243.91,22.31c3.59,8.37,9.38,23.8,6.44,30.36-.53,1.18-1,2.21-1.38,3.11l1.38-.11-3.54,5.06,1.55-.06,4.43,5.65c2-1.6,10.23-8.38,16.57-14.65a56.28,56.28,0,0,0,8-10c2.11-3.59,3.55-5.31,1-7L278,34.4q-2.91-2.1-6-4-3.27-2-6.67-3.74l-.93-.44c-6.46-.07-9.67-1-15.07-2.56-1.81-.5-3.62-1-5.45-1.36" transform="translate(1.77 2.33)" style="fill:#62702f"/>
        <path d="M291.8,0c-10.2,0-23.45.57-27.44,1.67-3.73,1-8.82,3.65-13.41,6a72.83,72.83,0,0,1-8.59,4c-1.52.49-3,1-4.22,1.39l-2.55.85-2.23.76h1v5h-.17l.17,1q3.85.48,7.68,1.24l1.87.4c1.83.4,3.64.86,5.45,1.36,5.4,1.52,8.61,2.49,15.07,2.56h.7c.93,0,1.93,0,3-.06,2.32-.07,5-.24,8.21-.5,15.84-1.29,32.32-4.91,32-6-.19-.65-.6-6.85-1.48-12-.6-3.5-1.41-6.53-2.52-7S298.12,0,291.78,0" transform="translate(1.77 2.33)" style="fill:#95ae54"/>
        <path d="M165.64,70.57l-1.17.66h.37l1.23-.09-.43-.55M95.46,67.82H95.2l-10.85.85,3,8,10.77-.76,3.31-.23-6-7.88m68.92-5.39L99,67.52l21.31-.85,5.5,7.28,25.07-1.76a47.12,47.12,0,0,0,13.43-9.78m86-6.74-1.38.11-.73,0-72.58,5.69a26.31,26.31,0,0,1-3.24,3.9l17.94-.75,3.48,4.49L224.1,67l-2.75-3.36,2.35-1.56-.34-.44,23.45-.94,3.54-5.06" transform="translate(1.77 2.33)" style="fill:#72843c"/>
        <path d="M248.35,60.67l-1.55.06-23.45.94.34.44.65-.44,41.73,50.67h6.85l15.43-.62L252.78,66.37l-4.43-5.7" transform="translate(1.77 2.33)" style="fill:#444c20"/>
        <path d="M224.35,61.67l-.65.44-2.35,1.56L224.1,67l2.14,2.62.84,1h.27l33.8,41.74,4.93-.07L224.35,61.67" transform="translate(1.77 2.33)" style="fill:#62712f"/>
        <path d="M250.09,141.38l-4.93.38c1.82,6.54,2,12.7.2,16.91a16.64,16.64,0,0,1-1.52,2.74c-3.53,5.21-10.07,9.23-15.36,11.84a69.71,69.71,0,0,1-8.12,3.42c2.49.13,5,.2,7.5.2s5-.07,7.5-.2l.17-.08-1.17.08s10.35-4.66,16.08-12.49a25.45,25.45,0,0,0,1.63-3.21,28.58,28.58,0,0,0,2.12-8.91,42.2,42.2,0,0,0-.74-7l-6.1.61a9.41,9.41,0,0,0,2.74-4.29m-1.91-11.65-7.84.47a55.24,55.24,0,0,1,2.95,6.1l5.85-.48a9.23,9.23,0,0,0-1.79-2.15s.66-.1,2.54-.29c-.52-1.24-1.09-2.46-1.71-3.65m-15-16.21-4.78.15-3,.13.5.32a40.73,40.73,0,0,1,8.78,7.79l8-.64a25.25,25.25,0,0,0-10.26-7.6l.92-.07-.14-.08" transform="translate(1.77 2.33)" style="fill:#62702e"/>
        <path d="M324.18,135c.06.22.11.44.18.66l-.9.07c2.66,7.18,3.62,14.24,2.9,18.93a16.72,16.72,0,0,1-5.55,9.49c-3.17,4.49-7.61,5.82-10.45,6.51h1.37c2.72-.08,8.82-.44,12.62-2a16.22,16.22,0,0,0,2-1c3.29-1.92,7.26-5.39,12.4-9.74,2.29-1.94,4.8-4,7.59-6.26a31.53,31.53,0,0,0,8.16-9.13c.23-.43.44-.84.62-1.23a43.16,43.16,0,0,1-4.54.36h-.23c-5.81-.15-6.6-2.59-9-3s-12,0-14-1a11.15,11.15,0,0,1-3.18-2.66m-18.82-22.34.63.36c6.52,3.86,11.48,10.12,14.9,16.84l2.47-.2a2.41,2.41,0,0,1,0,1,5.46,5.46,0,0,0,.12.88c1.51-1.53,4.68-3.24,10.88-4.88a10.5,10.5,0,0,0,3.12-1.42c-1-.54-2.08-1.07-3.12-1.58a164.39,164.39,0,0,0-17.52-7c-4.26-1.49-8.23-2.8-11.48-4" transform="translate(1.77 2.33)" style="fill:#62702f"/>
        <polyline points="122.13 69 100.77 69.85 97.13 70 97.23 70.13 103.22 78 134.05 118.58 134.61 119.31 135.13 120 148.59 118.88 159.13 118 129.4 78.63 127.63 76.28 122.13 69" style="fill:#444c20"/>
        <path d="M322.86,135.78l-2.79.22a5.92,5.92,0,0,1-3.72,5.67h-10s2.93-2.14,3.79-4.91l-49.93,3.84a13.21,13.21,0,0,1-2.86,4.07l-3.91.39a42.2,42.2,0,0,1,.74,7,20,20,0,0,1-.84,6.61,18.79,18.79,0,0,1-.93,2.28,22,22,0,0,1-2,3.23c-5.73,7.83-16.08,12.49-16.08,12.49l1.17-.08c9.24-.62,69.91-4.74,74.83-5.92h0c2.84-.69,7.28-2,10.45-6.51,2.75-3.9,4.55-10.18,3.55-20.49a44.12,44.12,0,0,0-1.5-7.89m-46.08-23.5h-10.7l-4.93.07.21.26-26.3.8-1.78.13-.92.07a25.25,25.25,0,0,1,10.26,7.6c14.15-1.08,26.75-2.08,34.75-2.54,3.64-.2,6.82-.29,9.6-.29,13.74,0,17.57,2.23,18.4,4.29,1,2.48-40,6-40,6s-6.73.43-17.18,1.06c.62,1.19,1.19,2.41,1.71,3.65,1.55-.17,3.93-.4,7.47-.71a8.69,8.69,0,0,1,2.46,2.26l48-4-.41-.29c9.08-1.34,10-2,10-2a16,16,0,0,1,.88,1.42l2.43-.2A39.65,39.65,0,0,0,306,113l-.63-.36h0s-8.61-.27-20.77-.36h-7.81" transform="translate(1.77 2.33)" style="fill:#c3dc68"/>
        <path d="M21.91,38.66c-5,0-3.55,3-3.55,3s25.78,19.36,31,28,17.4,42.32,20,43a6.3,6.3,0,0,0,1.56.2c2.73,0,6.23-1.83,4.44-10.2-2.17-10.12-16.18-31-23-41s-24.45-22.82-30-23h-.45" transform="translate(1.77 2.33)" style="fill:#c3dd67"/>
        <path d="M166.78,22.47l-5.1.21c6.93,9.41,10.28,21.69,7.68,31a22.27,22.27,0,0,1-5.05,8.74,47.22,47.22,0,0,1-13.38,9.78,54.37,54.37,0,0,1-5.58,2.47l1,.07,10.06-.49c1-.16,2-.35,3-.58a50.88,50.88,0,0,0,5.11-2.44l1.17-.66-2.28-2.9,3-2,6.06-.25a26.31,26.31,0,0,0,3.24-3.9c4.79-7.19,4.64-15.39,2.64-22.85-1-3.77-3.41-7.78-6.21-11.52l-1-1.33-6.76.85a16.58,16.58,0,0,0,2.42-4.2M153.64,11.13a16.79,16.79,0,0,0-2.74.23c-.49.08-1,.19-1.55.32A35.16,35.16,0,0,1,158,18.32l6.15-.3c-3.77-3.82-6.79-6.34-6.79-6.34a8.77,8.77,0,0,0-1.89-.43,14.06,14.06,0,0,0-1.83-.12" transform="translate(1.77 2.33)" style="fill:#606e2c"/>
        <path d="M391.81,113.37c-7.76,0-30.8,2.72-40.35,3.91l-3.1.39c-5.64.73-7.16,5-10.88,7.58a10.5,10.5,0,0,1-3.12,1.42c-6.2,1.64-9.37,3.35-10.88,4.88a34.19,34.19,0,0,0,.7,3.46,11.15,11.15,0,0,0,3.18,2.66c2,1,11.6.59,14,1s3.19,2.85,9,3h.24a43.16,43.16,0,0,0,4.54-.36h.13c1.29-.15,2.75-.34,4.33-.56,11.1-1.56,27.89-4.54,32.76-5.07,6.71-.73,4.59-6.21,4-12s-.37-8.51-2-10a5.62,5.62,0,0,0-2.54-.3" transform="translate(1.77 2.33)" style="fill:#94ad52"/>
        <polyline points="192.13 67 174.19 67.75 168.13 68 207.1 116.96 227.08 116.12 230.13 116 197.13 74 197.55 73.99 195.61 71.49 192.13 67" style="fill:#444c20"/>
        <polyline points="168.13 68 165.13 70 167.41 72.89 167.85 73.45 169.86 76.01 170.13 76 202.13 117 206.13 117 207.13 117 207.1 116.96 168.13 68" style="fill:#647330"/>
        <path d="M42.47,43.66h-.12c-4.22.33-1,2-1,2s7.33,3.06,21,21,23.88,39,30,46,18.81,21.37,44,22h3.89c20.47,0,69.85-2.72,100.09-4.51l7.84-.47c10.45-.63,17.18-1.06,17.18-1.06s41-3.52,40-6c-.83-2.06-4.66-4.29-18.4-4.29-2.78,0-6,.09-9.6.29-8,.44-20.61,1.47-34.74,2.6l-8,.64c-22.32,1.78-46.81,3.6-62.24,3.76-6.44.07-12.87.17-19.1.17-20.22,0-38.3-1.11-47.89-8.17-12.55-9.24-26.16-38.28-32-47s-26.42-27-30.89-27" transform="translate(1.77 2.33)" style="fill:#b7c888"/>
        <path d="M180.78,141.48l-26.43,2.19,1,5,24.37-1.88a8.76,8.76,0,0,0,1.06-5.31m68.36-5.66-5.85.48-53.62,4.44a14.32,14.32,0,0,1,1,5.21l54.51-4.19,4.93-.38a7,7,0,0,0-1-5.56M307.74,131l-48,4a5.7,5.7,0,0,1,.4,5.67l49.93-3.84c.56-1.81.24-3.88-2.38-5.8m15.66-1.32-2.47.2h-.22l-2.43.2a13.15,13.15,0,0,1,1.83,5.91l2.79-.22h.6l.9-.07c-.07-.22-.12-.44-.18-.66a34.19,34.19,0,0,1-.7-3.46c-.05-.3-.09-.59-.12-.88a2.41,2.41,0,0,0,0-1" transform="translate(1.77 2.33)" style="fill:#5e6564"/>
        <path d="M188.35,137.67s-.64,0-10,1a3.86,3.86,0,0,1,2.43,2.81,8.76,8.76,0,0,1-1.06,5.31,23.22,23.22,0,0,1-2.36,3.88s8.23-.18,11-1a3.88,3.88,0,0,0,2.29-3.72,14.32,14.32,0,0,0-1-5.21,26,26,0,0,0-1.31-3.07h0" transform="translate(1.77 2.33)" style="fill:#353939"/>
        <path d="M88.6,21.61,66.35,22.67l-1,4,22.17-.92a12.18,12.18,0,0,0,1.07-4.14m78.28-3.73h-.15l-2.58.12-6.15.3-59.2,2.83a6,6,0,0,1,.71,4.13l62.18-2.57,5.1-.21a5.77,5.77,0,0,0,.1-4.59m56.37-2.68-47.19,2.25a4.43,4.43,0,0,1,.3,4.22c-.07.14-.13.28-.2.41l47.7-2a3.94,3.94,0,0,0-.61-4.9m11.11-.53H233a5.57,5.57,0,0,1,.53,5h.79v-5" transform="translate(1.77 2.33)" style="fill:#5d6365"/>
        <path d="M91.87,17.13c-2.16,0-4.17.5-3.51,2.5a5.78,5.78,0,0,1,.24,1.94,12.18,12.18,0,0,1-1.07,4.14,23.83,23.83,0,0,1-2.18,4h11s1.58-.57,3-4c.05-.14.1-.28.14-.42a6,6,0,0,0-.71-4.13,15.93,15.93,0,0,0-2.43-3.45,25.09,25.09,0,0,0-4.49-.5" transform="translate(1.77 2.33)" style="fill:#35383e"/>
        <path d="M172.35,14.65a32,32,0,0,0-7.43.88l-.55.14a6.24,6.24,0,0,1,1.25.72,4.15,4.15,0,0,1,1.27,1.49,5.77,5.77,0,0,1-.1,4.59,16.58,16.58,0,0,1-2.42,4.2l6.76-.85h.34l.89-.11s2,0,3.81-3.59c.07-.13.13-.27.2-.41a4.43,4.43,0,0,0-.3-4.22,9.07,9.07,0,0,0-2.7-2.78h-1" transform="translate(1.77 2.33)" style="fill:#36393a"/>
        <path d="M231.35,12.67c-.47,0-6.79,0-10,1a9,9,0,0,1,1.9,1.53,3.94,3.94,0,0,1,.61,4.9,11.36,11.36,0,0,1-3.5,3.57s7.17-.05,11-1a7.77,7.77,0,0,0,2.2-3,5.57,5.57,0,0,0-.53-5,8.73,8.73,0,0,0-1.67-2.06h0" transform="translate(1.77 2.33)" style="fill:#36393a"/>
        <path d="M257.35,132.67c-3.54.31-5.92.54-7.47.71-1.88.19-2.54.29-2.54.29a9.23,9.23,0,0,1,1.79,2.15,7,7,0,0,1,1,5.56,9.41,9.41,0,0,1-2.74,4.29l6.1-.61,3.91-.39a13.21,13.21,0,0,0,2.86-4.07,5.7,5.7,0,0,0-.4-5.67,8.69,8.69,0,0,0-2.46-2.26" transform="translate(1.77 2.33)" style="fill:#353939"/>
        <path d="M317.35,128.67s-.92.66-10,2l.41.29c2.62,1.92,2.94,4,2.38,5.8-.86,2.77-3.79,4.91-3.79,4.91h10a5.92,5.92,0,0,0,3.72-5.67,13.15,13.15,0,0,0-1.83-5.91,16,16,0,0,0-.88-1.42" transform="translate(1.77 2.33)" style="fill:#353839"/>
        <path d="M98.89,78.66H96.78c-4.4,0-11.52.23-13.43,1,5.32,9.68,26,38,26,38h21l-.47-.6-.33-.43-29.2-38H98.89m69.47-5h-.27l-7.65.37-4,.2-10.09.5-19,.93.46.62L158,116.2l.35.47,28.28-1.35,13.73-.65-32-41m59-3h-.27l-24.86.77-6.44.21h-.43l33,42,4.78-.15,1.92,0,26.3-.8-.21-.26L227.35,70.67" transform="translate(1.77 2.33)" style="fill:#c2c0b7"/>
        <path d="M136.75,120.84H108.56l-.85-1.17c-.85-1.16-20.86-28.58-26.2-38.31L80,78.57l3-1.2c.74-.3,2.71-1.1,14.45-1.2h3.53l1.49,0,.84,1.06Zm-25.31-5.67h13.8L99.6,81.83H97.44c-4,0-6.91.16-8.87.31C94.77,92.11,108,110.39,111.44,115.17Zm46.2,4.73L122.5,73.43l47.83-2.34,36.27,46.48ZM133.5,78.57l26.86,35.53,35-1.67L167.67,76.9Zm94.16,38.31L190.31,69.35l39-1.23,38.5,47.54Zm-26-42.22,28.65,36.46,25.86-.78L226.68,73.88Z" transform="translate(1.77 2.33)" style="fill:#fff"/>
    </g>
    <path class="outline" d="M137.9,187.14a114,114,0,0,1-31.42-4.24l-2-.58c-19.21-5.82-37.42-17-54.12-33.11C5.55,105.85-6.43,54.49-.27,39.12c7.18-17.95,29-25.48,80.5-27.78,6.37-.29,13.8-.58,22.11-.87,13.59-.47,29.69-1,47.88-1.41L149,8.44l11.29-.11c7.45-.07,18-.2,31.27-.39,20.24-.29,39.71-.61,39.72-.61h.6l7.42,3.18,3.15-1a74.61,74.61,0,0,0,8.17-3.82L251,5.5c4.56-2.34,9.73-5,13.66-6.07,4.73-1.29,19.45-1.76,28.2-1.76,11.56,0,13.08.64,13.66.89,2.09.89,3.23,3.36,4.21,9.13.58,3.38.95,7.12,1.2,9.6.09.91.19,1.93.24,2.22a3,3,0,0,1-.46,2.4c-.61.88-1.36,2-12.37,4.1a208.67,208.67,0,0,1-21.7,3l-1.91.15a27.89,27.89,0,0,1,4.58,2.92,7.28,7.28,0,0,1,.76.81c4.42,3,2,7,.4,9.71l-.62,1a58.82,58.82,0,0,1-8.44,10.58c-5,5-11.13,10.17-14.63,13.07l33.38,42.55,15.8-.48,12,5.21a167.24,167.24,0,0,1,17.72,7.09l1.54.77c.54-.49,1.05-1,1.58-1.6,2-2.15,4.57-4.82,9.28-5.43l3.12-.4c5.25-.65,31.93-3.92,40.7-3.92,2.2,0,3.5.16,4.46,1,2.08,1.91,2.29,4.49,2.6,8.41.08,1,.17,2.12.3,3.39.09.9.22,1.79.35,2.66.5,3.42,1,7-1,9.61a8.1,8.1,0,0,1-5.82,2.84c-2.38.26-7.8,1.14-14.08,2.16-6.13,1-13.07,2.12-18.6,2.89-1,.14-2,.28-2.9.39a3.27,3.27,0,0,1-.3.35,34.81,34.81,0,0,1-8.66,9.6c-2.77,2.21-5.23,4.27-7.47,6.17-8.24,7.58-11.42,9.49-13.05,10.17a19.18,19.18,0,0,1-2.19,1.08c-4,1.63-10.09,2.06-13.44,2.17l-2.89.39c-3.14.39-5.35.62-5.44.63-.36,0-29,2.38-61.65,5L204.11,183c-14,1.08-25.57,1.95-34.55,2.59-13.27.95-20.86,1.41-23.2,1.41-.83,0-1.82,0-3,.06C141.81,187.09,140,187.14,137.9,187.14ZM154.65,14.46a14.14,14.14,0,0,0-2.29.19l-.38,0c-18.83.47-35.47,1-49.45,1.45-8.28.29-15.7.58-22,.86C24.7,19.5,10.24,28.12,5,41.22,2.53,47.38,3.65,62.58,11.7,82.68,20.64,105,35.78,127.2,54.33,145.13c16,15.52,33.49,26.2,51.82,31.76l1.88.55a108.12,108.12,0,0,0,29.87,4c2,0,3.84,0,5.37-.08,1.19,0,2.22-.06,3.09-.06,2.18,0,9.85-.47,22.8-1.39,9-.65,20.63-1.52,34.62-2.6H204l22.82-1.78,7.87-.62c35.69-2.83,69.11-5.56,69.44-5.59h0s2.2-.22,5.25-.61l3-.4.31,0c4.92-.15,9.27-.81,11.64-1.77a13.4,13.4,0,0,0,1.65-.83l.41-.19c.79-.31,3.5-1.8,11.5-9.18l.09-.08c2.29-1.94,4.81-4,7.64-6.31a28.86,28.86,0,0,0,7.45-8.28l.25-.44.26-.23.37-1.78,2-.24c1.27-.15,2.71-.34,4.26-.55,5.46-.77,12.37-1.89,18.47-2.88,6.36-1,11.84-1.92,14.38-2.2a3.15,3.15,0,0,0,1.95-.67c.58-.75.21-3.28-.09-5.32-.14-.94-.28-1.92-.38-2.9h0c-.13-1.33-.23-2.49-.31-3.52a23.06,23.06,0,0,0-.54-4.22h-.87c-6.54,0-25.64,2.09-40,3.88l-3.09.39c-2.71.35-4,1.76-5.89,3.71a23,23,0,0,1-3.77,3.4l-1.4.95-1.49-.78c-1-.52-2-1-3.07-1.55a164,164,0,0,0-17.2-6.86l-.2-.08L305.81,115l-20.23.62c-3.61,0-7.53,0-11.64,0l-.12-5.67,9.89-.39L249.84,66.38,252,64.62c1.62-1.32,10-8.21,16.36-14.46a53.57,53.57,0,0,0,7.59-9.5l.6-1a24.49,24.49,0,0,0,1.2-2.15l-.85-.62-.28-.43a1.37,1.37,0,0,0-.16-.18,37.75,37.75,0,0,0-4.81-2.89l-.12-.06c-2.1-1.3-4.28-2.52-6.47-3.64l-12.42-5.91,13.48.11c.9,0,1.87,0,2.92-.05,2.28-.08,4.92-.24,8.08-.5,13-1.06,25.05-3.51,29.18-4.78,0-.21-.05-.45-.07-.71-.24-2.4-.6-6-1.15-9.2a22.16,22.16,0,0,0-1.22-4.92,100.76,100.76,0,0,0-11.06-.39c-11.77,0-23.5.68-26.7,1.56-3.37.93-8.26,3.43-12.58,5.65l-.28.14a72.06,72.06,0,0,1-9,4.17L240,16.25l-1.11.36-1.76-.87L230.8,13c-3.44.06-21,.34-39.11.6L170,13.9l.53.33-14.22.35-.22,0A11.29,11.29,0,0,0,154.65,14.46Zm157.44,4.93s0,.07,0,.1A.44.44,0,0,1,312.09,19.39Zm-8.41-16Z" transform="translate(1.77 2.33)" style="fill: transparent"/>
</svg>