<svg id="Слой_1" data-name="Слой 1" xmlns="http://www.w3.org/2000/svg" viewBox="0 0 620.7 41.67" style="width: 13.21%">
    <g class="car-floor">
        <path d="M123.4,2.21,119,2.92,122,5l1.4-2.79M200,1H137.25C130.51,14.79,126,24,126,24l-6-7V13L109.6,4.41,106,5,91.65,7.26A17.66,17.66,0,0,1,90,10c-1.13.67-6.73.9-9,1a1.19,1.19,0,0,1-.89.52A1.84,1.84,0,0,1,79,11a10.72,10.72,0,0,1-1.14-1.55L-87,35.68-89,36l413.07.68A56.67,56.67,0,0,1,361.58,9H200V1M382,1H366V8.24a57.17,57.17,0,0,1,16,.15V1M528,1h-6V9H385.35A56.68,56.68,0,0,1,423,36.84L523,37l2.46-17.68L526.89,9,528,1" transform="translate(90.45 1.83)" style="fill:#444442"/>
        <path d="M524.47,39.84l-104.18-.17-.81-1.45a53.81,53.81,0,0,0-35.72-26.45l-26.25-5.6H518.17v-8h12.09ZM423.59,34l95.94.15,3.1-22.32H400.33A59.4,59.4,0,0,1,423.59,34Z" transform="translate(90.45 1.83)" style="fill:#fff"/>
        <polygon points="212.53 11.01 200.9 3.07 217.84 0.38 212.53 11.01" style="fill:#fff"/>
        <path d="M324.72,39.51h-1.66L-90,38.83l-.45-5.63L78.22,6.37l1,1.52c.08.1.14.2.2.29l.47,0a55.81,55.81,0,0,0,7.32-.55c.2-.34.5-.87,1-1.69l.66-1.22,20.59-3.27,12.42,10.25V16l2.52,2.93L133.71-.24l.77-1.59h67.35v8H387.42l-26.25,5.6a53.82,53.82,0,0,0-35.63,26.29ZM-54.51,33.22l376,.62a59.47,59.47,0,0,1,23.16-22H196.17v-8H138L127.55,25.25l-1.9,3.87-9.48-11.07V14.33l-8.39-6.92L92.46,9.84c-1,1.79-1.38,2.23-2,2.61s-1.77,1-9.39,1.33a3.75,3.75,0,0,1-2,.56,4.52,4.52,0,0,1-2.83-1.1,3.91,3.91,0,0,1-.69-.71ZM80,9Z" transform="translate(90.45 1.83)" style="fill:#fff"/>
    </g>
    <path class="outline" d="M383.83,11.69l-3.25-.5a55,55,0,0,0-15.21-.14l-3.21.42V-1.83h21.67ZM372.46,4.92c1.91,0,3.81.09,5.71.27V3.84H367.83V5.1C369.37,5,370.92,4.92,372.46,4.92Z" transform="translate(90.45 1.83)" style="fill: transparent"/>
</svg>