<svg id="Слой_1" data-name="Слой 1" xmlns="http://www.w3.org/2000/svg" viewBox="0 0 327.67 263.67" style="width: 6.98%">
    <g class="car-boxes">
        <path d="M166,129H123V258h38.59c1.45-.32,2.92-.57,4.41-.77V129" transform="translate(3.86 1.81)" style="fill:#9f662b"/>
        <polyline points="126.86 130.81 121.48 130.81 3.85 130.81 3.85 251.81 3.85 259.81 46.85 259.81 126.86 259.81 126.86 130.81" style="fill:#b87938"/>
        <path d="M199,129H182V257.4c1.12.17,2.24.37,3.34.61H199V129" transform="translate(3.86 1.81)" style="fill:#9f662b"/>
        <polyline points="325.86 130.81 202.85 130.81 202.85 259.81 254.41 259.81 308.86 259.81 325.86 259.81 325.86 251.81 325.86 130.81" style="fill:#b87938"/>
        <polyline points="110.86 1.81 93.86 1.81 93.86 67.81 93.86 74.81 93.86 130.81 121.48 130.81 216.85 130.81 110.86 130.81 110.86 1.81" style="fill:#d2985d"/>
        <polyline points="233.85 1.81 110.86 1.81 110.86 130.81 216.85 130.81 233.85 130.81 233.85 74.81 233.85 65.04 233.85 1.81" style="fill:#b87938"/>
    </g>
    <path class="outline" d="M323.82,261.86H184l-.29-.07c-1.07-.22-2.14-.42-3.18-.58l-2.42-.36v-128H167.81V260.75l-2.46.32c-1.41.19-2.82.43-4.2.72l-.29.07H-3.86V127.19h90v-129H231.82v129h92Zm-139.2-5.67H318.15V132.86h-92V3.86H91.81v129h-90V256.19H160.26c.62-.13,1.25-.25,1.88-.36V127.19h21.67V256Z" transform="translate(3.86 1.81)" style="fill: transparent"/>
</svg>