<svg id="Слой_1" data-name="Слой 1" xmlns="http://www.w3.org/2000/svg" viewBox="0 0 204.67 182.11" style="width: 4.36%">
    <g class="chest">
        <path d="M166,168V80h28v72.25L166,168m33-94H161.34V176h0l10.53-5.5,1.91-1,9.56-5,1.92-1,13.39-7,.34-.18v-.54h0V74" transform="translate(2.83 1.83)" style="fill:#777675"/>
        <polyline points="196.83 81.83 168.83 81.83 168.83 169.84 196.83 154.09 196.83 81.83" style="fill:#1f1f1f"/>
        <polyline points="188.83 1.83 155.48 1.83 128.65 1.83 124.33 1.83 92.82 1.83 65.98 1.83 56.83 1.83 51.83 3.83 184.83 3.83 196.83 75.83 177.51 75.83 177.51 75.83 201.83 75.83 194.74 35.47 194.74 35.47 190.19 9.57 190.19 9.57 188.83 1.83" style="fill:#605f5c"/>
        <path d="M87.43,10.87h0m62.66,0h0M182,2.05H49l12,72H86a33.49,33.49,0,0,0,4.72-3.58c.79-.77,1.6-1.57,2.33-2.32.33-.36.64-.73,1-1.1,3.28-4.16-1-7-1-7s2.51-.7,6.44-3.82a34.32,34.32,0,0,1,7.56-6.18,7.37,7.37,0,0,1,3.62-.88,10.32,10.32,0,0,1,1.92.18,15,15,0,0,1,4.46.7l7.3-6.82L141,26.87a1.22,1.22,0,0,0-.79-.82c-1-.32-4.29-1.4-2.9-2.94,1.09-1.21,1-2.21,1.4-2.21a1.08,1.08,0,0,1,.54.25c1.17.78,1.37,3.65,1.93,3.92a9.16,9.16,0,0,1,.89.76l2.84-2.78a1.32,1.32,0,0,0-.83-.92c-1-.32-4.29-1.4-2.9-2.94,1.09-1.21.94-2.22,1.39-2.22a1.08,1.08,0,0,1,.54.25c1.17.78,1.38,3.66,1.94,3.93a10.23,10.23,0,0,1,1.18,1l.25.21L148,21h1.24c1.48,0,3.86-.14,4.76-1-2-3.08,1.35-6.24,3-7a1.64,1.64,0,0,1,.69-.14c1.85,0,4.94,2.2,6.31,3.14,1.56,1.07.24,5.29-1,8-.81,1.78-5.29,2.08-8.28,2.08-1.23,0-2.21-.05-2.57-.07a9,9,0,0,1,.85,1c.27.58,3.2.79,4,2s-.43.56-2,2a1.11,1.11,0,0,1-.76.35c-1.16,0-2-2.46-2.24-3.35a1.37,1.37,0,0,0-1.07-.89L148.15,30a10.19,10.19,0,0,1,.85,1c.27.58,3.2.79,4,2s-.43.56-2,2a1.15,1.15,0,0,1-.76.35c-1.16,0-2-2.46-2.24-3.35a1.34,1.34,0,0,0-1-.86L125,54q1.74,2.28,3.32,4.68L157,30h2l7-1s-.08-1.13,0-4,4-3.89,5-4h0c1.08,0,5.2,3.17,6,6s-3.4,5.7-6,6-5.86,1.59-6,2,.69.85,2,1,1.12,2,0,3a.66.66,0,0,1-.45.17c-1.16,0-2.85-2.72-3.55-3.17a.56.56,0,0,0-.31-.09c-.85,0-2.18,1.53-2.69,2.09s.65.31,1,1a.52.52,0,0,0,.51.33c.38,0,.88-.26,1.49-.33h.1c.91,0,1.36,1.63.9,4-.14.77-.56,1.08-1.07,1.08-1.13,0-2.71-1.52-2.93-3.08-.25-1.83-.74-2-.93-2H159s-20.63,20.37-21,22,.3,2.19,3,6a16,16,0,0,1,3,7h50L182,2" transform="translate(2.83 1.83)" style="fill:#4d4b46"/>
        <path d="M8,167V82H153v85H8M161.34,74H98.73l-.38.36L98,74H95.73l-.38.36L95,74H0V176H161.34V74" transform="translate(2.83 1.83)" style="fill:#8e8e8e"/>
        <polyline points="155.83 83.83 10.83 83.83 10.83 168.84 155.83 168.84 155.83 83.83" style="fill:#1f1f1f"/>
        <path d="M171.05,21h0c-1,.11-4.92,1.13-5,4s0,4,0,4l-7,1h-2L128.37,58.67q1.41,2.11,2.68,4.32c2,3.78,0,11,0,11h13a16,16,0,0,0-3-7c-2.7-3.81-3.37-4.37-3-6s21-22,21-22h.07c.19,0,.68.18.93,2,.22,1.56,1.8,3.08,2.93,3.08.51,0,.93-.31,1.07-1.08.46-2.38,0-4-.9-4h-.1c-.61.07-1.11.33-1.49.33a.52.52,0,0,1-.51-.33c-.35-.69-1.58-.37-1-1s1.84-2.09,2.69-2.09a.56.56,0,0,1,.31.09c.7.45,2.39,3.17,3.55,3.17a.66.66,0,0,0,.45-.17c1.12-1,1.31-2.85,0-3s-2.14-.59-2-1,3.4-1.7,6-2,6.77-3.11,6-6-4.87-6-6-6" transform="translate(2.83 1.83)" style="fill:#37352f"/>
        <path d="M90.72,70.42A33.49,33.49,0,0,1,86,74h1s1.78-1.67,3.72-3.58m8.72-14.24C95.51,59.3,93,60,93,60s4.28,2.84,1,7a12.59,12.59,0,0,1-1,1.1c.78-.8,1.47-1.54,2-2.1,2.07-2.42-1.55-5.1-1-6a14.35,14.35,0,0,0,5.44-3.82m24.86-13L117,50a15,15,0,0,0-4.46-.7,17.4,17.4,0,0,1,4.09,1.36l7.67-7.48m21.82-12.42-24,23.4A32.4,32.4,0,0,1,127,62c1.48,3.92-4,12-4,12h8s2-7.22,0-11c-.85-1.47-1.75-2.91-2.68-4.32Q126.73,56.28,125,54l22-22.86a3.06,3.06,0,0,0-1-.14h-.08l.12-.24M149.93,27l-2.52,2.46c.22.18.43.38.64.59l2.78-2.89A3.48,3.48,0,0,0,150,27h-.08m7.79-14.13A1.64,1.64,0,0,0,157,13c-1.65.76-5,3.92-3,7-.9.89-3.28,1-4.76,1H148l-1.5,1.4.77.61.38-.37.7.72-.29.28.84.68,1.75-1.68.7.72L149.7,25l1,.76.35-.71a9.93,9.93,0,0,1,1.15,1c.36,0,1.34.07,2.57.07,3,0,7.47-.3,8.28-2.08,1.24-2.71,2.56-6.93,1-8-1.37-.94-4.46-3.14-6.31-3.14" transform="translate(2.83 1.83)" style="fill:#c17120"/>
        <path d="M147.51,29.41l-1.39,1.35L146,31h.08a3.06,3.06,0,0,1,1,.14,1.34,1.34,0,0,1,1,.86c.28.89,1.08,3.35,2.24,3.35a1.15,1.15,0,0,0,.76-.35c1.57-1.44,2.8-.79,2-2s-3.73-1.42-4-2a10.19,10.19,0,0,0-.85-1c-.21-.21-.42-.41-.64-.59" transform="translate(2.83 1.83)" style="fill:#955e1a"/>
        <path d="M151,25l-.35.71L151,26l-1,1h.08a3.48,3.48,0,0,1,.85.11A1.37,1.37,0,0,1,152,28c.28.89,1.08,3.35,2.24,3.35A1.11,1.11,0,0,0,155,31c1.57-1.44,2.8-.79,2-2s-3.73-1.42-4-2a9,9,0,0,0-.85-1A9.93,9.93,0,0,0,151,25" transform="translate(2.83 1.83)" style="fill:#955e1a"/>
        <path d="M138.73,20.87c-.45,0-.31,1-1.4,2.21-1.39,1.54,1.85,2.62,2.9,2.94a1.22,1.22,0,0,1,.79.82l1.07-1a9.16,9.16,0,0,0-.89-.76c-.56-.27-.76-3.14-1.93-3.92a1.08,1.08,0,0,0-.54-.25" transform="translate(2.83 1.83)" style="fill:#955e1a"/>
        <path d="M142.6,17c-.45,0-.3,1-1.39,2.22-1.39,1.54,1.85,2.62,2.9,2.94a1.32,1.32,0,0,1,.83.92L146,22l.25.19a10.23,10.23,0,0,0-1.18-1c-.56-.27-.77-3.15-1.94-3.93a1.08,1.08,0,0,0-.54-.25" transform="translate(2.83 1.83)" style="fill:#955e1a"/>
        <path d="M106.75,63.39,95.75,74H98l-.35-.36,9.93-9.57-.84-.68m15.39-9.23L110,66l-1.61-1.3L98.73,74H123s5.48-8.08,4-12a32.4,32.4,0,0,0-4.86-7.84m-11.52-5A7.37,7.37,0,0,0,107,50a34.32,34.32,0,0,0-7.56,6.18A14.35,14.35,0,0,1,94,60c-.55.9,3.07,3.58,1,6-.48.56-1.17,1.3-2,2.1s-1.54,1.55-2.33,2.32C88.73,72.37,87,74,87,74h8l-.35-.36L105.91,62.8l-1-.76L116.6,50.66a17.4,17.4,0,0,0-4.09-1.36,10.32,10.32,0,0,0-1.92-.18" transform="translate(2.83 1.83)" style="fill:#de8225"/>
        <path d="M149.7,25,108.39,64.7,110,66l12.14-11.84,24-23.4,1.39-1.35L150.05,27l1-1-.35-.29-1-.76m-1.64-1.31L106.75,63.34l.84.68L148.9,24.27l-.84-.68M146,22l-1.07,1-2.84,2.92-1.07,1L124.3,43.18l-7.7,7.48L105,62l1,.76L147.31,23l-.77-.61-.25-.21L146,22" transform="translate(2.83 1.83)"/>
        <path d="M147.65,22.64l-.38.37L106,62.76,94.65,73.64,95,74l.35.36.38-.36,11-10.61L148,23.64l.29-.28-.7-.72m3,0-1.75,1.68L107.6,64.07l-9.94,9.57L98,74l.35.36.38-.36,9.66-9.3L149.71,25l1.65-1.59-.7-.72" transform="translate(2.83 1.83)" style="fill:#cbcbcb"/>
    </g>
    <path class="outline" d="M161.21,180.27l-.68-.43H-2.83V72.17H57.65L45.83,1.22l7.62-3H188.38l6.32,36-2.79.49,2.79-.49,7.13,40.61V159l-37.66,19.69v1.11h-2.12ZM2.83,174.17H158.51v-2.33l3,1.89,34.68-18.13V75.25L183.62,3.84H54.55l-2.38,1L64.35,77.84H2.83Z" transform="translate(2.83 1.83)" style="fill: transparent"/>
</svg>