<svg id="Слой_1" data-name="Слой 1" xmlns="http://www.w3.org/2000/svg" viewBox="0 0 259.67 218.89"
    style="width: 5.6%;">
    <g class="chimney">
        <polyline points="165.83 156.83 90.83 156.83 90.83 176.9 165.83 176.9 165.83 156.83" style="fill:#a88063"/>
        <polyline points="168.83 112.83 64.83 112.83 20.83 112.83 20.83 176.9 90.83 176.9 90.83 156.83 165.83 156.83 165.83 176.9 168.83 176.9 168.83 112.83" style="fill:#957055"/>
        <path d="M235,109H166v64.07h16.09c10.88,0,13.31,1.39,18.46,6.34L235,209.78V109" transform="translate(2.83 3.83)" style="fill:#5d453b"/>
        <polyline points="256.83 3.83 247.44 3.83 184.05 3.83 181.83 3.83 181.83 112.83 64.83 112.83 168.83 112.83 237.83 112.83 256.83 112.83 256.83 6.83 256.83 3.83" style="fill:#5d453b"/>
        <polyline points="181.83 3.83 85.47 3.83 23.1 3.83 2.83 3.83 2.83 25.73 2.83 112.83 20.83 112.83 64.83 112.83 181.83 112.83 181.83 3.83" style="fill:#805c42"/>
    </g>
    <path class="outline" d="M237.84,215.06l-39.25-34.61c-4.58-4.39-6.21-5.54-16.5-5.54H15.17V110.83h-18V-3.83H256.83V110.83h-19Zm-35.37-38.74,29.7,26.18V105.16h19V1.83H2.83V105.16h18v64.08H182.09C193.44,169.24,196.65,170.75,202.47,176.32Z" transform="translate(2.83 3.83)" style="fill: transparent"/>
</svg>