<svg id="Слой_1" data-name="Слой 1" xmlns="http://www.w3.org/2000/svg" viewBox="0 0 289.97 307.9" style="width: 6.02%">
    <g class="deer">
        <path d="M155.07,87.79l-1,1.33C154.39,88.68,154.73,88.24,155.07,87.79Z" transform="translate(2.93 1.59)" style="fill:#02263c"/>
        <path d="M283.79,95.19a3.43,3.43,0,0,0-1.53-1.64,2.91,2.91,0,0,0-1.26-.26,7,7,0,0,0-1.37.17l-.9.19a4.13,4.13,0,0,1-1.11.15,4.19,4.19,0,0,1-2.28-.67c-1-.6-1.92-1.21-2.9-1.78-.29-.18-.58-.34-.88-.5-7.84-4.32-15.36-8.91-20.48-16.56A15.52,15.52,0,0,0,248,71.08c-4.16-3.36-6.68-7-3.51-12.52.58-1,.34-3.69-.3-4-4.57-2.18-1.64-4.8-.86-7.46,1-3.24,1.83-6.52,2.74-9.78a8.29,8.29,0,0,0,.36-1.2,8.55,8.55,0,0,1,.1-1.59,45.56,45.56,0,0,0,.29-4.57c0-3.05-.21-6-.43-9-.34-4.8-.45-9.56-1.22-14.28-.15-1-.33-1.89-.55-2.83-.35-1.55-.94-3.35-2.58-3.73h-.88c-1.31,0-1.71.63-1.6,2.16s.69,3,.78,4.48c.11,1.73.3,3.45.46,5.18.08.89.22,1.81.21,2.71a8.41,8.41,0,0,1-.32,1.57c-.22,1.8-.36,3.61-.4,5.42s-.26,3.68-.3,5.53a12.77,12.77,0,0,1-.28,1.94c-.22,1.3-.2,2.62-.34,3.93-.17,1.58-.54,3.11-.84,4.66-.49,2.52-.12,5.19-2.61,6.81a.54.54,0,0,1-.25.06c-.7,0-2.12-1-3-1.63a21.88,21.88,0,0,1-6.85-8.21A15.18,15.18,0,0,1,224,29.91c-.25-2-1.32-3.94-1.66-6a7,7,0,0,0-.11-.78c-.18-1.6-.35-3.16-.68-4.74a12.66,12.66,0,0,1-.28-3.93c.11-1.16,1.68-7.2-.85-7.2h-.09c-1.14.06-1.64,1.62-2,2.45-.88,2-1.81,3.56-1.95,5.77a37.83,37.83,0,0,0,.31,5.53,22.05,22.05,0,0,0,1,4.54,11.16,11.16,0,0,1,.64,2.11c0,.52-.07,1.07-.07,1.6,0,1.58,0,5.21-1.73,6a11.18,11.18,0,0,1-4.34.91,5.56,5.56,0,0,1-3-.73,27.09,27.09,0,0,1-6.72-5.86,32.73,32.73,0,0,1-3.69-6.28c-.67-1.47-1.28-3-2.09-4.42-.33-.57-.74-2.18-1.59-2.18h0a2.47,2.47,0,0,0-1.14.82,3.94,3.94,0,0,0-.51,2.15,11.37,11.37,0,0,0,.46,4.26,52,52,0,0,0,1.69,5.22c.53,1.41,1.36,2.5,1.64,4,2.72,3.54,8.64,7.17,11.16,8.61.54-.21,1.07-.42,1.58-.65-.19,2.67-1.07,5.22-.26,6,1.08,1,3.18,1.24,5,1.24h.47A19.5,19.5,0,0,0,220.48,47a10.71,10.71,0,0,1,3.23-.53A6.9,6.9,0,0,1,229,48.74a16.86,16.86,0,0,1,3.12,7.33,12.87,12.87,0,0,1,.27,3.5h0a16.24,16.24,0,0,0-4-5.26,26.86,26.86,0,0,1-4.38-4.66c-.58-.8-.41-1.17-.67-1.17a3.44,3.44,0,0,0-.77.24c-3.31,1.2-4.25,8.1-3.69,10.81a9.85,9.85,0,0,0,6.46,7.08c.24,5.53-3.45,10.31-5.24,15.24-1.52,4.16-1.6,8.63-2,13-.15,1.38-.16,4-.89,5.84-1.38,7.32-5.3,15.62-9.33,21.63a49,49,0,0,1-4.92,9.31,21.34,21.34,0,0,1-4.36,4.54,16.67,16.67,0,0,1-2.06,1.36h0c-9.38,5.36-18.94,10.42-28.48,15.51a58.76,58.76,0,0,1-7.09,3.79c-8.78,3.63-26.09,8.38-52.34,13.5-15.41,3-19.19.8-29.5,4.06-5.29,1.68-17.58,10-18.79,12.33a7,7,0,0,0-3.1-.69c-4.53,0-9.62,3.69-11.53,7.26h.06c3.32,0,4.89,2.27,6.14,4.81,1.35,2.76,4.08,3.72,7,3.78h.26c2,0,2.73-.61,4.12-1.86,1.82,4.69-.81,12.1-2.44,16.5a50.61,50.61,0,0,1-9,15.33c-4.08,4.76-8.13,10.21-13.43,13.11-5.9,3.15-10.25,6.48-12.25,12.9a15.36,15.36,0,0,1-2.52,4.89c-5.3,6.69-10.34,13.8-16.65,19.52-.89.81-2.2,1.45-2.63,2.37-.27.57,0,1.14-.3,1.72a3.74,3.74,0,0,1-1.35,1.08C.31,288.87-.17,289.6.05,292.8s.18,6.4.66,9.41H1c2.73,0,4.47-2,6.43-3.88a13.46,13.46,0,0,0,3.42-5.52c.62-1.73,2.54-2.67,3.81-3.89,2.14-2,4-4.5,6-6.73,4-4.57,7.89-9.19,11.81-13.79,2.8-3.27,5.58-4.87,9.29-4.87a19.67,19.67,0,0,1,5.59.94,32.48,32.48,0,0,1-3,4c-3.89,3.93-8,7.72-11.76,11.76-1.34,1.44-1.7,2.6-3.65,3.29-1.54.54-2.7.58-2.94,2.53-.18,1.41.46,1.33-.93,2-.74.38-1.42.15-2.05.87-1,1.15-.54,3.44-.54,4.81s-.64,5.43.2,6.53a1.28,1.28,0,0,0,1.06.47c2.07,0,5.68-3.27,6.62-4.38,1.39-1.61,2.28-3.59,3.66-5.2,1.24-1.43,3-2.44,4.39-3.76,3.54-3.3,7-6.64,10.72-9.77a27.61,27.61,0,0,1,8.62-4.61c6.76-2.37,13.7-4.2,20.5-6.47,11.26-3.76,18.12-12.86,25.39-21.37,6.09-7.12,11.79-14.58,18-21.59,1.56-1.76,4.36-3.49,6.58-3.49h.14c13.34.45,26.66,1.71,40,2.2h2.48c14.72,0,28.21-4.79,40.68-12.59,8.33-5.22,17.92-3.84,26.89-5.68a5.71,5.71,0,0,1,1,1.39s-8.93,8.36-9.77,9.09a18.92,18.92,0,0,1-4.79,3c-1.62.77-2.58,2.45-4.12,3.33a2.48,2.48,0,0,1-1.21.39c-1.52,0-2-2.25-4-2.6a2.75,2.75,0,0,0-.57,0c-1.92,0-4.16,1.47-5.56,2.49-1.73,1.26-6.3,4.78-6.51,7-.39,4,7.3,6.35,10.19,6.38a25.93,25.93,0,0,0,14.64-4.67,14,14,0,0,1,7.32-2.12c6.7-.14,18.41-6.87,20.35-13.25,3.74-12.25,7.83-24.56,9.72-37.15,1.29-8.59-1.34-12.59-7.89-12.59a24.93,24.93,0,0,0-5.09.61,18.31,18.31,0,0,0-1.93.52,7.43,7.43,0,0,1-2.19.4c-2.24,0-3.08-1.71-3-4.6.09-3.84.11-7.67.19-11.5.22-10.13.33-20.26.77-30.38.18-4,2.4-6.88,6.77-7.41s8.58-1.13,12.88-1.51l2.15-.16a22.68,22.68,0,0,0,7.61-1.35,6.58,6.58,0,0,0,.84-.42,9.31,9.31,0,0,0,3.29-3.07,11.6,11.6,0,0,0,1-2.25,2.3,2.3,0,0,1,.23-.4l.45-.44a10.28,10.28,0,0,1,1.11-.86A5.77,5.77,0,0,0,283.79,95.19ZM250.9,180h0a3.94,3.94,0,0,1,.77-.08,3.52,3.52,0,0,1,1.46.32c.2,2.88.6,5.84.09,8.63-.16.91-2.47,2.14-3.84,2.14h-.22c-4.76-.58-9.45-1.72-14.16-2.65-.06-.36-.11-.72-.17-1.08Q242.83,183.65,250.9,180Z" transform="translate(2.93 1.59)" style="fill:#02263c"/>
        <path d="M173.16,64.25l-.07.08.13-.09Z" transform="translate(2.93 1.59)" style="fill:#02263c"/>
    </g>
    <path class="outline" d="M.91,306.3H.47l-2.3-.11-.36-2.27a55.42,55.42,0,0,1-.53-6.55c0-1.05-.09-2.09-.16-3.1-.29-4.18.62-6,4-8l.18-.1a3.76,3.76,0,0,1,.38-1.48A7.24,7.24,0,0,1,4.24,282c.29-.21.57-.41.76-.58,4.88-4.43,9.11-9.88,13.19-15.16,1-1.35,2.09-2.7,3.14-4a12.68,12.68,0,0,0,2-4c2.2-7.2,7-11,13.54-14.6,4-2.2,7.45-6.29,10.76-10.24.63-.75,1.25-1.5,1.87-2.22a47.4,47.4,0,0,0,8.54-14.48c.88-2.37,2.64-7.13,2.86-11a9.55,9.55,0,0,1-1.89.18h-.31c-5.76-.13-8.36-3-9.53-5.37-1.34-2.72-2.26-3.22-3.59-3.22H40.9l2.16-4.17c2.24-4.21,8.25-8.76,14-8.76a10.23,10.23,0,0,1,2.23.24c4.17-4,14.31-10.32,18.8-11.74a50.87,50.87,0,0,1,14.23-2.3,99.52,99.52,0,0,0,15.58-1.85c23.86-4.65,42.26-9.39,51.8-13.33a56.64,56.64,0,0,0,6.72-3.61l.13-.07,2.12-1.13c8.67-4.62,17.63-9.4,26.28-14.33l.43-.25a15.32,15.32,0,0,0,1.32-.9,18,18,0,0,0,3.77-3.94,45.24,45.24,0,0,0,4.62-8.77l.26-.46c4.3-6.44,7.71-14.32,8.89-20.58l0-.28.11-.26A15.62,15.62,0,0,0,215,97c0-.45.06-.85.1-1.19.09-.87.16-1.76.24-2.65a42.05,42.05,0,0,1,2-11c.62-1.69,1.42-3.32,2.19-4.91a25.5,25.5,0,0,0,2.8-7.54A12.57,12.57,0,0,1,216,61.4a18.51,18.51,0,0,1,1-9.25c-.57.11-1.14.19-1.72.26h-.8c-3.22,0-5.48-.66-6.91-2s-1.33-3.22-1.06-5.1c-3.26-1.89-8.86-5.47-11.72-9.19l-.41-.53-.13-.66a6.72,6.72,0,0,0-.7-1.74c-.26-.52-.55-1.11-.81-1.78-.59-1.58-1.14-3.26-1.76-5.44a14,14,0,0,1-.57-5.09,6.65,6.65,0,0,1,.89-3.51l.23-.35A5.45,5.45,0,0,1,194,15.29l.36-.13.63,0c2.52,0,3.51,2.34,3.93,3.33,0,.12.09.22.13.3a36.39,36.39,0,0,1,1.7,3.5c.16.37.33.75.5,1.12a29,29,0,0,0,3.34,5.71,24.33,24.33,0,0,0,6,5.2,2.9,2.9,0,0,0,1.43.26,8.53,8.53,0,0,0,2.9-.54,10.09,10.09,0,0,0,.34-3.54c0-.32,0-.63.06-.94,0-.11,0-.22,0-.32a8.59,8.59,0,0,0-.43-1.39l-.07-.17a23.92,23.92,0,0,1-1.12-5.15,40.75,40.75,0,0,1-.33-5.88v-.13a15.37,15.37,0,0,1,1.77-5.84c.14-.29.28-.6.42-.91l.14-.31c.47-1.1,1.57-3.66,4.32-3.81h.23A4,4,0,0,1,223.36,7c1.64,2,1.24,5.12.7,8.19-.06.3-.1.54-.12.69a9.72,9.72,0,0,0,.22,3c.36,1.71.54,3.34.72,4.9V24c0,.2.06.44.1.66a15.39,15.39,0,0,0,.69,2.36,18.76,18.76,0,0,1,1,3.59,12.35,12.35,0,0,0,1.45,3.8l.11.2a19.19,19.19,0,0,0,6,7.16l.79.54a11.57,11.57,0,0,0,.37-2.09c.07-.62.14-1.26.27-1.94.08-.42.17-.83.25-1.24.23-1.11.45-2.15.56-3.19.05-.48.08-1,.1-1.44a23.25,23.25,0,0,1,.26-2.65l0-.16a8.59,8.59,0,0,0,.21-1.45c0-1.87.18-3.74.31-5.55s.18-3.72.41-5.62l.11-.47a5.89,5.89,0,0,0,.19-.91c0-.45-.06-.95-.11-1.48,0-.28-.06-.55-.08-.82l-.14-1.4c-.12-1.28-.25-2.56-.33-3.85a13.45,13.45,0,0,0-.33-1.89,18.42,18.42,0,0,1-.45-2.52,5.14,5.14,0,0,1,1.09-3.93A4.35,4.35,0,0,1,241-1.59a8.15,8.15,0,0,1,.82,0q.36,0,.69.12c3.58.81,4.43,4.61,4.71,5.86.22,1,.42,2,.59,3a106.91,106.91,0,0,1,1,10.83c.07,1.23.15,2.47.24,3.71l0,.58c.2,2.81.41,5.72.39,8.69,0,1.43-.11,3-.3,4.85,0,.18,0,.4,0,.62s0,.64-.06.95l-.05.32a10.65,10.65,0,0,1-.44,1.49c-.27,1-.53,1.94-.8,2.91-.61,2.23-1.24,4.53-1.92,6.8A14.8,14.8,0,0,1,245,51.4a9.56,9.56,0,0,0-.57,1.34,3.56,3.56,0,0,0,.85.51,3.67,3.67,0,0,1,1.9,2.36,7.87,7.87,0,0,1-.36,5.61c-2,3.42-1.27,5.58,2.84,8.9a17.77,17.77,0,0,1,3.63,3.76c4.87,7.28,12,11.59,19.54,15.72.33.18.64.36.95.55.73.42,1.45.87,2.16,1.31l.8.5a1.33,1.33,0,0,0,1.15.2l.47-.1.62-.14a10,10,0,0,1,1.92-.22,5.73,5.73,0,0,1,2.47.53l.13.06a6.33,6.33,0,0,1,2.78,3,8.64,8.64,0,0,1-2.18,10.06l-.29.22a6.36,6.36,0,0,0-.77.6l0,0a14.48,14.48,0,0,1-1.13,2.39l-.07.12a12.21,12.21,0,0,1-4.28,4c-.36.2-.72.38-1.09.54a24.4,24.4,0,0,1-8.32,1.57l-.41,0c-.64,0-1.27.08-1.92.14-3.09.27-6.26.67-9.32,1.06l-3.46.44c-2.79.34-4.15,1.84-4.28,4.72-.33,7.58-.48,15.32-.62,22.81-.05,2.5-.09,5-.15,7.5,0,1.75-.06,3.49-.08,5.24,0,2.09-.06,4.18-.11,6.27a5,5,0,0,0,.17,1.7,5.21,5.21,0,0,0,1.33-.27c.72-.23,1.47-.43,2.22-.59a27.21,27.21,0,0,1,5.66-.67c3.74,0,6.6,1.12,8.5,3.34,2.34,2.71,3.06,6.8,2.2,12.51-1.68,11.21-5.09,22.24-8.39,32.91-.47,1.55-.95,3.1-1.42,4.64-2.29,7.52-15.11,15.1-23,15.26a11.12,11.12,0,0,0-5.82,1.65A28.59,28.59,0,0,1,213,238.63c-2.55,0-8.42-1.42-11.32-4.66a6.16,6.16,0,0,1-1.71-4.83c.08-.9.35-3.66,7.66-9,1.8-1.3,4.5-3,7.22-3a6.15,6.15,0,0,1,1.06.09,6.58,6.58,0,0,1,3.76,2.25c.29-.23.59-.53.91-.84a10.85,10.85,0,0,1,3-2.3,16.13,16.13,0,0,0,4.16-2.59c.43-.37,2.8-2.56,5.07-4.67l-3.18.28c-6,.52-11.66,1-16.69,4.15-14.85,9.29-29.41,13.54-44.77,13-6.57-.24-13.24-.68-19.68-1.09-6.66-.44-13.56-.88-20.32-1.11h0c-1.22,0-3.3,1.18-4.5,2.53-3.5,3.95-6.91,8.14-10.2,12.18-2.52,3.09-5.12,6.29-7.77,9.38-.67.78-1.33,1.57-2,2.36-6.72,8-13.67,16.19-24.65,19.85-3.08,1-6.23,2-9.27,2.9-3.69,1.12-7.51,2.27-11.18,3.56a24.72,24.72,0,0,0-7.8,4.16c-2.88,2.44-5.78,5.15-8.58,7.78l-2,1.84a25.14,25.14,0,0,1-2,1.68,15.79,15.79,0,0,0-2.14,1.86,19.33,19.33,0,0,0-1.57,2.26,25.23,25.23,0,0,1-2.08,2.94c0,.05-4.84,5.36-8.78,5.36a4.07,4.07,0,0,1-3.3-1.58c-1.2-1.56-1.12-3.91-.87-7.06,0-.5.08-.92.08-1.2s0-.54,0-.85c-.1-1.61-.26-4.05,1.28-5.82A4.64,4.64,0,0,1,23.11,287c.43-3.44,2.9-4.22,4.23-4.64l.57-.19c.61-.21.77-.39,1.41-1.22.29-.37.66-.83,1.12-1.33,2.38-2.55,4.91-5,7.35-7.4,1.47-1.44,2.94-2.88,4.39-4.34l.17-.21c-3.13-.2-5.31.86-7.86,3.84l-1.79,2.12c-3.27,3.84-6.65,7.81-10,11.69-.54.62-1.08,1.26-1.61,1.91a62.45,62.45,0,0,1-4.53,5,16.83,16.83,0,0,1-1.5,1.25c-.68.52-1.45,1.12-1.6,1.55a16.44,16.44,0,0,1-4.11,6.59l-.46.46C7,304,4.58,306.3.91,306.3Zm3-15.11a4.41,4.41,0,0,0-1.14.82,5,5,0,0,0,0,1.85c.07,1.06.12,2.16.16,3.26,0,.86.08,1.73.13,2.59A24.11,24.11,0,0,0,4.88,298l.48-.47a10.79,10.79,0,0,0,2.7-4.37A9.31,9.31,0,0,1,11.57,289a13.32,13.32,0,0,0,1-.85,58.4,58.4,0,0,0,4.1-4.56c.56-.67,1.11-1.34,1.68-2,3.36-3.86,6.73-7.82,10-11.65l1.8-2.11c3.46-4.06,7-5.87,11.45-5.87A22.5,22.5,0,0,1,48,263l3.55,1.05-1.94,3.15a35.35,35.35,0,0,1-3.21,4.4l-.14.16c-1.49,1.51-3,3-4.53,4.48-2.4,2.34-4.87,4.77-7.17,7.22-.32.34-.56.66-.8,1a8.14,8.14,0,0,1-4,3.07l-.75.24-.33.11a2.18,2.18,0,0,0,0,.24,3.7,3.7,0,0,1-2.46,3.83,5,5,0,0,1-1.13.42,12.41,12.41,0,0,0,0,1.51c0,.44.05.86.05,1.22s0,1-.09,1.65c0,.42-.09,1.12-.12,1.8a17.84,17.84,0,0,0,3.1-2.67,18.23,18.23,0,0,0,1.6-2.28,24.13,24.13,0,0,1,2.07-2.92,18.57,18.57,0,0,1,3-2.64c.59-.46,1.15-.9,1.63-1.34l2-1.84c2.85-2.67,5.8-5.44,8.86-8a30.52,30.52,0,0,1,9.57-5.14c3.73-1.31,7.61-2.48,11.36-3.62,3-.9,6.11-1.84,9.12-2.85,9.46-3.15,15.61-10.43,22.11-18.13.67-.8,1.35-1.59,2-2.38,2.6-3.05,5.19-6.22,7.68-9.28,3.34-4.09,6.78-8.32,10.36-12.35,1.89-2.14,5.42-4.45,8.7-4.45h.23c6.85.23,13.79.68,20.5,1.12,6.4.41,13,.84,19.52,1.08,14.17.52,27.69-3.45,41.55-12.12,6.19-3.87,12.81-4.44,19.22-5a74.72,74.72,0,0,0,8.61-1.07l1.49-.3,1.07,1.07a8.64,8.64,0,0,1,1.45,1.89c1.29,1.94-.25,3.38-1.87,4.91l-3.17,3c-2.2,2-4.79,4.44-5.28,4.86a21.9,21.9,0,0,1-5.52,3.46,6.82,6.82,0,0,0-1.36,1.17,11.55,11.55,0,0,1-2.48,2,5.2,5.2,0,0,1-2.62.76,5.15,5.15,0,0,1-3.86-2,4.37,4.37,0,0,0-.65-.62h0c-.55,0-1.66.27-4,1.95-3.37,2.45-5,4.31-5.34,5a1.06,1.06,0,0,0,.28.43c1.43,1.6,5.47,2.76,7.11,2.78a22.84,22.84,0,0,0,13-4.16l.12-.08a16.76,16.76,0,0,1,8.82-2.55c5.62-.12,16.1-6.17,17.64-11.24l1.44-4.66c3.23-10.47,6.58-21.3,8.19-32.08.58-3.87.28-6.63-.88-8-.29-.34-1.18-1.37-4.21-1.37a21.66,21.66,0,0,0-4.49.55,15.41,15.41,0,0,0-1.65.44,10.09,10.09,0,0,1-3.06.54,5.45,5.45,0,0,1-4-1.6c-1.28-1.31-1.87-3.25-1.81-5.91,0-2.07.08-4.14.11-6.21,0-1.76.05-3.52.08-5.28.06-2.5.11-5,.15-7.49.14-7.52.29-15.29.63-22.95.25-5.65,3.71-9.42,9.25-10.1l3.43-.43c3.12-.4,6.34-.81,9.55-1.09l2-.15.42,0a19.29,19.29,0,0,0,6.42-1.11l.61-.29a6.68,6.68,0,0,0,2.25-2.08,9.7,9.7,0,0,0,.74-1.65l.1-.28a4.58,4.58,0,0,1,.56-.94l.21-.25c.19-.2.39-.39.59-.58a12.29,12.29,0,0,1,1.26-1,3,3,0,0,0,.64-3.34l0,0a.62.62,0,0,0-.15-.21,4.61,4.61,0,0,0-.85.11l-.8.17a7,7,0,0,1-5.6-.9l-.76-.47-2-1.25-.81-.46c-7.83-4.3-15.94-9.2-21.47-17.46a12.65,12.65,0,0,0-2.48-2.54c-2.56-2.06-9.18-7.41-4.32-16a3,3,0,0,0,0-.69A6.2,6.2,0,0,1,239,54.62c-.78-2.22.17-4.22.87-5.68a11.13,11.13,0,0,0,.6-1.38c.66-2.22,1.28-4.49,1.88-6.69.28-1,.56-2,.85-3.06l.09-.28a5.26,5.26,0,0,0,.19-.6l0-.5c0-.3,0-.61,0-.91a42.11,42.11,0,0,0,.28-4.33c0-2.74-.17-5.42-.38-8.24l0-.58c-.08-1.11-.15-2.22-.21-3.32-.12,1.26-.2,2.53-.23,3.78V23c-.12,1.81-.25,3.63-.29,5.39v.13a17.45,17.45,0,0,1-.33,2.3c-.1.6-.13,1.27-.18,2s-.06,1.15-.12,1.72c-.15,1.31-.4,2.54-.64,3.72-.08.39-.17.78-.24,1.18s-.15,1-.21,1.51c-.25,2.17-.59,5.15-3.64,7.13a3.33,3.33,0,0,1-1.79.52c-1.48,0-2.93-.93-4.66-2.14a24.89,24.89,0,0,1-7.73-9.2,17.89,17.89,0,0,1-2.08-5.56l0-.2a4.2,4.2,0,0,0-.12-.66c0,2.37-.11,6.77-3.38,8.28a14.1,14.1,0,0,1-4.7,1.14l-.17,2.36c-.07,1-.22,2-.36,2.83-.06.36-.12.78-.17,1.15a10.28,10.28,0,0,0,2.41.23h.32a16.79,16.79,0,0,0,4.43-1.14l.21-.07a13.44,13.44,0,0,1,4.09-.66,9.66,9.66,0,0,1,7.44,3.2l.16.19a19.74,19.74,0,0,1,3.63,8.49,15.93,15.93,0,0,1,.32,4.19l-3-.08L229.75,62a13.38,13.38,0,0,0-3.32-4.36,29,29,0,0,1-3.89-3.94,12.72,12.72,0,0,0-1,6.45,7,7,0,0,0,4.58,5l1.85.62.09,1.95c.19,4.51-1.75,8.48-3.46,12a44.82,44.82,0,0,0-2,4.35A36.83,36.83,0,0,0,221,93.59c-.08.92-.16,1.85-.25,2.76,0,.29-.06.63-.08,1a20.16,20.16,0,0,1-.9,5.33c-1.59,8.14-5.93,16.74-9.56,22.21a49.85,49.85,0,0,1-5.13,9.62,23.7,23.7,0,0,1-4.94,5.13,22.1,22.1,0,0,1-2.37,1.57l-4.24,2.42v0c-7.37,4.13-14.88,8.13-22.18,12l-2.06,1.1a60.64,60.64,0,0,1-7.41,3.95c-9.88,4.08-28.66,8.93-52.88,13.66a106.44,106.44,0,0,1-16.36,1.94,45.8,45.8,0,0,0-12.83,2c-5,1.57-16,9.31-17.18,11l-1.28,2.45-2.43-1.3a4.1,4.1,0,0,0-1.86-.4,11.16,11.16,0,0,0-6.72,3,12.15,12.15,0,0,1,3.94,5c.45.91,1.41,2.12,4.57,2.19h.18c1,0,1,0,2.23-1.14l3.06-2.75,1.48,3.84c2,5.13,0,11.93-2.42,18.5a53.33,53.33,0,0,1-9.55,16.2L52,237.07c-3.65,4.37-7.42,8.88-12.39,11.59-5.48,3-9.2,5.9-10.84,11.27a18.13,18.13,0,0,1-3,5.79l-3.13,4c-4.23,5.47-8.61,11.13-13.86,15.88a13.84,13.84,0,0,1-1.23,1c-.18.12-.41.3-.59.44a4.23,4.23,0,0,1-.59,2.05l-.2.28A6.56,6.56,0,0,1,4,291.19ZM25.2,292ZM241.81,58.59Zm.09-.2h0Zm.91,0,.05,0Zm-18.95-5.91Zm.4-1.86-.35.28.37-.27ZM199.7,33.11a38.6,38.6,0,0,0,8.78,6.74l.18-.08.15-.07a6.15,6.15,0,0,1-1.26-.62,29.7,29.7,0,0,1-7.37-6.43l-.08-.11c-.61-.81-1.19-1.66-1.73-2.52.1.21.2.42.32.64A14.14,14.14,0,0,1,199.7,33.11Zm49.57,162a5.35,5.35,0,0,1-.58,0c-3.58-.44-7.13-1.18-10.56-1.9-1.27-.27-2.53-.54-3.8-.79L232.4,192l-.84-5.15,2-.9,4.29-2c3.31-1.51,6.72-3.07,10.13-4.58V179l2.21-.51a6.32,6.32,0,0,1,4.06.44l1.51.7.12,1.67c0,.5.07,1,.11,1.52a29.64,29.64,0,0,1-.06,7.81C255.4,193.54,251.26,195.12,249.27,195.12Zm1.06-5.5v0Zm-1-.16Zm-7.17-1.22c2.36.48,4.74.92,7.09,1.21a3.49,3.49,0,0,0,1.13-.46,23.64,23.64,0,0,0,0-4.45C247.68,185.75,244.92,187,242.21,188.24Z" transform="translate(2.93 1.59)" style="fill: transparent"/> 
</svg>