<svg id="Слой_1" data-name="Слой 1" xmlns="http://www.w3.org/2000/svg" viewBox="0 0 284.31 302.23"><defs><style>.cls-1{fill:#02263c;}</style></defs><title>5</title><path class="cls-1" d="M156.91,196.35l-1,1.33C156.23,197.24,156.57,196.8,156.91,196.35Z" transform="translate(-1.84 -108.56)"/><path class="cls-1" d="M285.63,203.75a3.43,3.43,0,0,0-1.53-1.64,2.88,2.88,0,0,0-1.26-.26,7.23,7.23,0,0,0-1.37.17l-.9.19a4.18,4.18,0,0,1-1.11.15,4.24,4.24,0,0,1-2.28-.67c-1-.6-1.92-1.21-2.9-1.78-.29-.18-.58-.34-.88-.5-7.84-4.32-15.36-8.91-20.48-16.56a15.51,15.51,0,0,0-3.11-3.21c-4.16-3.36-6.68-7-3.51-12.52.58-1,.34-3.69-.3-4-4.57-2.18-1.64-4.8-.86-7.46,1-3.24,1.83-6.52,2.74-9.78a8.29,8.29,0,0,0,.36-1.2c0-.52,0-1.06.1-1.59.16-1.51.28-3,.29-4.57,0-3.05-.21-6-.43-9.05-.34-4.8-.45-9.56-1.22-14.28-.15-1-.33-1.89-.55-2.83-.35-1.55-.94-3.35-2.58-3.73l-.34,0-.54,0c-1.31,0-1.71.63-1.6,2.16s.69,3,.78,4.48c.11,1.73.3,3.45.46,5.18.08.89.22,1.81.21,2.71a8.41,8.41,0,0,1-.32,1.57c-.22,1.8-.36,3.61-.4,5.42s-.26,3.68-.3,5.53a12.77,12.77,0,0,1-.28,1.94c-.22,1.3-.2,2.62-.34,3.93-.17,1.58-.54,3.11-.84,4.66-.49,2.52-.12,5.19-2.61,6.81a.46.46,0,0,1-.25.06c-.7,0-2.12-1-3-1.63a21.88,21.88,0,0,1-6.85-8.21,15.18,15.18,0,0,1-1.81-4.77c-.25-2-1.32-3.94-1.66-6,0-.26-.08-.52-.11-.78-.18-1.6-.35-3.16-.68-4.74a12.66,12.66,0,0,1-.28-3.93c.11-1.16,1.68-7.2-.85-7.2h-.09c-1.14.06-1.64,1.62-2,2.45-.88,2-1.81,3.56-1.95,5.77a37.83,37.83,0,0,0,.31,5.53,21.89,21.89,0,0,0,1,4.54,11.16,11.16,0,0,1,.64,2.11c0,.52-.07,1.07-.07,1.6,0,1.58,0,5.21-1.73,6a11.21,11.21,0,0,1-4.34.91A5.56,5.56,0,0,1,211,144a27.09,27.09,0,0,1-6.72-5.86,32.73,32.73,0,0,1-3.69-6.28c-.67-1.47-1.28-3-2.09-4.42-.33-.57-.74-2.18-1.59-2.18h0a2.52,2.52,0,0,0-1.14.82,3.94,3.94,0,0,0-.51,2.15,11.37,11.37,0,0,0,.46,4.26c.5,1.76,1,3.5,1.69,5.22.53,1.41,1.36,2.5,1.64,4,2.72,3.54,8.64,7.17,11.16,8.61.54-.21,1.07-.42,1.58-.65-.19,2.67-1.07,5.22-.26,6,1.08,1,3.18,1.24,5,1.24H217a19.5,19.5,0,0,0,5.32-1.33,10.66,10.66,0,0,1,3.23-.53,6.91,6.91,0,0,1,5.33,2.25,16.86,16.86,0,0,1,3.12,7.33,12.81,12.81,0,0,1,.27,3.5h0a16.29,16.29,0,0,0-4-5.26,26.86,26.86,0,0,1-4.38-4.66c-.58-.8-.41-1.17-.67-1.17a3.38,3.38,0,0,0-.77.24c-3.31,1.2-4.25,8.1-3.69,10.81a9.85,9.85,0,0,0,6.46,7.08c.24,5.53-3.45,10.31-5.24,15.24-1.52,4.16-1.6,8.63-2.05,13-.15,1.38-.16,4-.89,5.84-1.38,7.32-5.3,15.62-9.33,21.63a48.42,48.42,0,0,1-4.92,9.31,21.09,21.09,0,0,1-4.36,4.54,17.48,17.48,0,0,1-2.06,1.36h0c-9.38,5.36-18.94,10.42-28.48,15.51a58.36,58.36,0,0,1-7.09,3.79c-8.78,3.63-26.09,8.38-52.34,13.5-15.41,3-19.19.8-29.5,4.06-5.29,1.68-17.58,10-18.79,12.33a6.92,6.92,0,0,0-3.1-.69c-4.53,0-9.62,3.69-11.53,7.26h.06c3.32,0,4.89,2.27,6.14,4.81,1.35,2.76,4.08,3.72,7,3.78H61c2,0,2.73-.61,4.12-1.86,1.82,4.69-.81,12.1-2.44,16.5a50.52,50.52,0,0,1-9,15.33c-4.08,4.76-8.13,10.21-13.43,13.11C34.35,356.67,30,360,28,366.42a15.36,15.36,0,0,1-2.52,4.89c-5.3,6.69-10.34,13.8-16.65,19.52-.89.81-2.2,1.45-2.63,2.37-.27.57,0,1.14-.3,1.72A3.65,3.65,0,0,1,4.55,396c-2.4,1.43-2.88,2.16-2.66,5.36s.18,6.4.66,9.41h.3c2.73,0,4.47-2,6.43-3.88a13.46,13.46,0,0,0,3.42-5.52c.62-1.73,2.54-2.67,3.81-3.89,2.14-2,4-4.5,6-6.73,4-4.57,7.89-9.19,11.81-13.79,2.8-3.27,5.58-4.87,9.29-4.87a19.89,19.89,0,0,1,5.59.94,32.48,32.48,0,0,1-2.95,4.05c-3.89,3.93-8,7.72-11.76,11.76-1.34,1.44-1.7,2.6-3.65,3.29-1.54.54-2.7.58-2.94,2.53-.18,1.41.46,1.33-.93,2-.74.38-1.42.15-2.05.87-1,1.15-.54,3.44-.54,4.81s-.64,5.43.2,6.53a1.28,1.28,0,0,0,1.06.47c2.07,0,5.68-3.27,6.62-4.38,1.39-1.61,2.28-3.59,3.66-5.2,1.24-1.43,3-2.44,4.39-3.76,3.54-3.3,7-6.64,10.72-9.77a27.61,27.61,0,0,1,8.62-4.61c6.76-2.37,13.7-4.2,20.5-6.47,11.26-3.76,18.12-12.86,25.39-21.37,6.09-7.12,11.79-14.58,18-21.59,1.56-1.76,4.36-3.49,6.58-3.49h.14c13.34.45,26.66,1.71,40,2.2.83,0,1.66,0,2.48,0,14.72,0,28.21-4.79,40.68-12.59,8.33-5.22,17.92-3.84,26.89-5.68a5.83,5.83,0,0,1,1,1.39s-8.93,8.36-9.77,9.09a18.92,18.92,0,0,1-4.79,3c-1.62.77-2.58,2.45-4.12,3.33a2.49,2.49,0,0,1-1.21.39c-1.52,0-2-2.25-4-2.6a2.75,2.75,0,0,0-.57-.05c-1.92,0-4.16,1.47-5.56,2.49-1.73,1.26-6.3,4.78-6.51,7-.39,4,7.3,6.35,10.19,6.38a25.9,25.9,0,0,0,14.64-4.67,14,14,0,0,1,7.32-2.12c6.7-.14,18.41-6.87,20.35-13.25,3.74-12.25,7.83-24.56,9.72-37.15,1.29-8.59-1.34-12.59-7.89-12.59a25,25,0,0,0-5.09.61,19,19,0,0,0-1.93.52,7.29,7.29,0,0,1-2.19.4c-2.24,0-3.08-1.71-3-4.6.09-3.84.11-7.67.19-11.5.22-10.13.33-20.26.77-30.38.18-4,2.4-6.88,6.77-7.41s8.58-1.13,12.88-1.51l2.15-.16a22.79,22.79,0,0,0,7.61-1.35,8.22,8.22,0,0,0,.84-.42,9.31,9.31,0,0,0,3.29-3.07,11.41,11.41,0,0,0,1-2.25,2.3,2.3,0,0,1,.23-.4l.45-.44a10.28,10.28,0,0,1,1.11-.86A5.77,5.77,0,0,0,285.63,203.75ZM252.74,288.6h0a3.94,3.94,0,0,1,.77-.08,3.52,3.52,0,0,1,1.46.32c.2,2.88.6,5.84.09,8.63-.16.91-2.47,2.14-3.84,2.14H251c-4.76-.58-9.45-1.72-14.16-2.65-.06-.36-.11-.72-.17-1.08C242,293.43,247.35,291,252.74,288.6Z" transform="translate(-1.84 -108.56)"/><path class="cls-1" d="M175,172.81l-.07.08.13-.09Z" transform="translate(-1.84 -108.56)"/></svg>