<svg id="Слой_1" data-name="Слой 1" xmlns="http://www.w3.org/2000/svg" viewBox="0 0 207.01 284"><defs><style>.cls-1{fill:#abc7d6;}.cls-2{fill:#f4bf8d;}.cls-3{fill:#417c31;}.cls-4{fill:#663d21;}.cls-5{fill:#972d29;}.cls-6{fill:#1a613f;}.cls-7{fill:#3e772f;}.cls-8{fill:#e19917;}.cls-9{fill:#8b90be;}.cls-10{fill:#1498ca;}.cls-11{fill:#f0e069;}.cls-12{fill:#1e6945;}.cls-13{fill:#674c20;}.cls-14{fill:#448034;}.cls-15{fill:#63491f;}.cls-16{fill:#b12e3b;}.cls-17{fill:#fff;}.cls-18{fill:#1d6844;}.cls-19{fill:#3f7931;}.cls-20{fill:#185f3d;}.cls-21{fill:#e59b2f;}.cls-22{fill:#f6c292;}.cls-23{fill:#1f6b46;}</style></defs><title>1</title><path class="cls-1" d="M125.32,399.9l-1.14.09c-.7.83-2.13,2.17-3.26,2.17a1.2,1.2,0,0,1-.64-.17,3.34,3.34,0,0,1-1.15-1.55c-2.1.21-4.12.46-6,.72a8.26,8.26,0,0,0,.55,2.29c1.28,3.09,2,3.23,5.54,3.68a9.89,9.89,0,0,0,1.29.09c2.76,0,4.43-1.25,4.62-2.66.22-1.63.75-3.82.37-4.42,0-.08-.09-.16-.13-.24m17.17-.59c-4.74,0-9.33.13-13.71.37a19.15,19.15,0,0,1,.37,8.19c-.62,2.73-2.21,4.44-8.05,4.44l-1.19,0c-6.1-.22-13.35-2.07-15.66-9.6-9.74,2.08-15.76,4.95-15.76,8.12,0,6.35,24.18,11.5,54,11.5s54-5.15,54-11.5a3.43,3.43,0,0,0-1.16-2.38,48.74,48.74,0,0,1-7.07,2.39,13,13,0,0,1-3.19.45c-3.91,0-4.47-2.69-4.56-4.13a7.9,7.9,0,0,0-1.06-3.24,5.82,5.82,0,0,1-1.9,2.5l-.11,0c-.43,0-.41-1.13-1-4.55a206.71,206.71,0,0,0-34-2.56" transform="translate(-41.49 -138.31)"/><path class="cls-2" d="M153.44,275.09c-14.71,0-29.26-18.31-18.38-22.09a1.07,1.07,0,0,1,.32-.05c.84,0,2.25.79,3.94,1.85.1-.21.17-.33.17-.33s3.34,3.8,13.3,5.89a24.87,24.87,0,0,0,5.09.54,24.4,24.4,0,0,0,9-1.76c.7-.29,1.42-.62,2.15-1,3.65-1.81,6.31-2.72,7.95-2.72,2.67,0,2.65,2.39-.19,7.14-4.38,7.32-11,11.95-22.54,12.5-.28,0-.55,0-.83,0m-9.06-25.33c-5.43,0-10.77-4.49-12.67-11.12-2.21-7.72,1.06-15.42,7.31-17.19a9.68,9.68,0,0,1,2.65-.37c5.44,0,10.77,4.49,12.67,11.12,2.21,7.72-1.06,15.41-7.31,17.19a9.63,9.63,0,0,1-2.65.37m32.18-11.95c-4.46,0-8.75-3.82-10.07-9.29-1.49-6.21,1.4-12.21,6.45-13.4a7.73,7.73,0,0,1,1.78-.21c4.47,0,8.77,3.81,10.09,9.29.05.21.1.42.14.64a7,7,0,0,1,.36,2.23,7.35,7.35,0,0,1-.14,1.42c-.34,4.48-2.95,8.2-6.82,9.11a7.75,7.75,0,0,1-1.79.21m-46.3-20.12a17.42,17.42,0,0,1-.37-5.89,20.49,20.49,0,0,1,15.26-6.94,17.14,17.14,0,0,1,5.06.69s.47,4.84-.37,7.72a16.46,16.46,0,0,0-4.58-.62c-7.9,0-15,5-15,5m35.47-6.26a35.51,35.51,0,0,1-1.85-5.88,12.66,12.66,0,0,1,8.57-3,13.37,13.37,0,0,1,5.84,1.11c1.09.76,2.55,2.68,2.22,6.25a12.67,12.67,0,0,0-5.38-1.13,20.43,20.43,0,0,0-9.4,2.6m-22.59-19.61a81.9,81.9,0,0,0-14.73,6.37c-4.53,2.54-8.82,4.92-12.9,7.31,1.25,13.72-8.22,41.67-12.22,49-4-6.54-20.85-13-24.71-14.43l0,.09h0A59.18,59.18,0,0,0,64.94,238c-2.24,0-3.51.35-3.41,1,.25,1.57,9,16.6,18.11,25.38,6.26,6,11.45,9.75,18.42,9.75a29.45,29.45,0,0,0,10.77-2.39,60.58,60.58,0,0,0,14.16,8.5l.25,0a57.71,57.71,0,0,0,24.23,5.11,67.06,67.06,0,0,0,16.7-2.11c.88-.27,1.75-.55,2.59-.83l.08-3.27,5.52,1.14c8.3-3.52,14.22-8,17.71-13.86a238,238,0,0,1-1.81-31.79,21.75,21.75,0,0,1,2.49-.08c-1.59-3.56-4.45-8-5.07-11.32-.76-4.11-2.15-17.67-5.17-24.65-.75.16-1.74.36-2.93.54a51.78,51.78,0,0,1-9.66.94c-10.84,0-18.18-3.73-21.89-6.24-1-.6-1.94-1.26-2.89-2" transform="translate(-41.49 -138.31)"/><path class="cls-3" d="M164.37,187.35a107.51,107.51,0,0,0-19,3.79l.34-.07a143.73,143.73,0,0,1,18.7-3.72m12.27-5.89c.05.27.11.55.16.83a1,1,0,0,1,.08-.14c0-.05,0-.1-.07-.14s-.11-.37-.17-.55M68.7,147.92C65,150,61.9,152,59.32,153.68s-4.62,3.06-6.54,4.45c5.35-3.69,11.61-7.61,15.92-10.21m52.43-7.71c3.08.89,6.27,1.63,8.76,2.43q2.82.92,5.17,1.75a98.82,98.82,0,0,0-13.93-4.18m-16.94-1.9a70.53,70.53,0,0,0-33.5,8.54c-5,9.31-5.46,22.28-5.46,22.28l-.9.08,7.55-.08q-.81,5.69-1.38,11.39c3-4.67,20.63-30,50.09-40.43a79.2,79.2,0,0,0-16.4-1.78" transform="translate(-41.49 -138.31)"/><path class="cls-4" d="M182.68,159.9c-.55,0-1,0-1.44,0-3.29.16,3.32,9.41-4.36,22.22a1,1,0,0,0-.08.14v.09c.15,1.5-2.95,4.41-2.95,4.41h-.31c-.74,0-2.75,0-5.67.24-6.9,1-17.46,3.09-22.21,4l-.34.07-2,.6A20.64,20.64,0,0,0,146,193.8c3.71,2.51,11.05,6.24,21.89,6.24a51.78,51.78,0,0,0,9.66-.94c.84-.16,1.69-.34,2.56-.54,24.38-5.71,27.73-19.42,21.43-29.06-5.6-8.58-14.44-9.6-18.89-9.6" transform="translate(-41.49 -138.31)"/><path class="cls-4" d="M145.15,204.86a20.49,20.49,0,0,0-15.26,6.94,17.42,17.42,0,0,0,.37,5.89s7.1-5,15-5a16.46,16.46,0,0,1,4.58.62c.84-2.88.37-7.72.37-7.72a17.14,17.14,0,0,0-5.06-.69" transform="translate(-41.49 -138.31)"/><path class="cls-4" d="M172.45,202.6a12.66,12.66,0,0,0-8.57,3,35.51,35.51,0,0,0,1.85,5.88,20.43,20.43,0,0,1,9.4-2.6,12.67,12.67,0,0,1,5.38,1.13c.33-3.57-1.13-5.49-2.22-6.25a13.37,13.37,0,0,0-5.84-1.11" transform="translate(-41.49 -138.31)"/><path class="cls-5" d="M135.38,253a1.07,1.07,0,0,0-.32.05c-10.88,3.78,3.67,22.09,18.38,22.09.28,0,.55,0,.83,0,11.53-.55,18.16-5.18,22.54-12.5,2.84-4.75,2.86-7.14.19-7.14-1.64,0-4.3.91-7.95,2.72-.73.37-1.45.7-2.15,1,2-.79,3.39-1.58,4-1.72.22,1.41,3.94,5.57-6.65,8.09a27.1,27.1,0,0,1-6.3.69c-8.9,0-17.66-3.58-19.2-5.11s0-5.18.57-6.29c-1.69-1.06-3.1-1.85-3.94-1.85" transform="translate(-41.49 -138.31)"/><path class="cls-4" d="M77.92,239.56l-.13.2.53.19c-.1-.09-.24-.22-.4-.39m37.59-34.06C100.68,214.18,88.72,223,78.58,240c3.86,1.42,20.73,7.89,24.71,14.43,4-7.3,13.47-35.25,12.22-49" transform="translate(-41.49 -138.31)"/><path class="cls-6" d="M123.24,372.55h0m2.21-4.41a17.93,17.93,0,0,1-2.21,4.42h0a45.59,45.59,0,0,0,7.38,3.31c-.08.21-.19.43-.31.67a11.38,11.38,0,0,0,2.89-7.3,1,1,0,0,1-.34,0,24.86,24.86,0,0,1-3.34-.47c-1.14-.16-2.17-.34-3.11-.54-.36-.06-.69-.1-1-.13" transform="translate(-41.49 -138.31)"/><path class="cls-7" d="M123.24,372.56h0l-2.22,2.2-.37.37h0l-1.85,2.58s-.37.52,2.59,2.21c2.69,1.53,3.23,2.6,3.59,2.6a.19.19,0,0,0,.1,0c.37-.24,3-2.94,3-2.94l.1.14a19.79,19.79,0,0,0,2.18-3.15c.12-.24.23-.46.31-.67a45.59,45.59,0,0,1-7.38-3.31h0" transform="translate(-41.49 -138.31)"/><path class="cls-8" d="M225.46,202.93c-.45,2-1.33,12.93-1.73,16.24s-2,15.09-2.19,16.43c4.49.37,10.14.88,15.11,1.48,1.6-3.43,3.09-23.62,2.6-30.06-1-.77-4.34-2-8.71-3a10.79,10.79,0,0,1-2.81-.63c-.74-.16-1.5-.31-2.27-.45m-13-1.31a39.31,39.31,0,0,0-4.58.25c-2.24,5.2-5.25,20.69-5.54,22.07s-1.92,5,.36,5.89a104.69,104.69,0,0,0,14.73,5.44l3.06.24-6.33-1.27s3.13-15.87,5.17-32c-1.05-.21-2.11-.38-3.18-.5q-1.87-.12-3.69-.12" transform="translate(-41.49 -138.31)"/><path class="cls-9" d="M213.38,188.59c-3.76,0-5.5,5.4-5.16,7.4.41,2.42,4.06,5.52,4.06,5.52a37.69,37.69,0,0,1,3.84.23c1.07.12,2.13.29,3.18.5-2,16.13-5.17,32-5.17,32l6.33,1.27,1.08.09c.18-1.34,1.78-13,2.19-16.43s1.28-14.23,1.73-16.24c0-.19.09-.31.12-.32h0a17.4,17.4,0,0,1,1.95.71l.17.06a10.79,10.79,0,0,0,2.81.63h.39a4.27,4.27,0,0,0,1.67-.31c2.68-1.12,3.76-.82,7-2.57s2.06-3.43-1.48-5.15a4.78,4.78,0,0,0-2.14-.47c-3.23,0-7.06,2.7-10.05,5.62-2.67-3.64-4.42-8.61-10-11.77a5.19,5.19,0,0,0-2.6-.78" transform="translate(-41.49 -138.31)"/><path class="cls-10" d="M191.06,234.53h-.31a21.75,21.75,0,0,0-2.49.08,238,238,0,0,0,1.81,31.79c1.25,9.64,2.89,16.22,4.08,19.4a5.27,5.27,0,0,0,1.13,2.15,5.44,5.44,0,0,0,1.44.42c13.55,1,13.71,1.05,13.71,1.05l0,.32.78.05h0C212.66,277.15,213,235,213,235s11.75.68,12.93,1.47c.44,21.42-3.48,49.82-4.34,53.08,7.61-.22,16.7-.53,17.27-.85a6.74,6.74,0,0,0,1.36-2.82c3.34-10.27,8-44,8.25-46.1.12-.95-5.26-1.89-11.84-2.68-5-.6-10.62-1.11-15.11-1.48l-1.08-.09-3.06-.24c-2.45-.19-4-.29-4-.29s-15.72-.45-22.33-.45" transform="translate(-41.49 -138.31)"/><path class="cls-11" d="M213,235s-.36,42.17-1.85,54.81h0a27.1,27.1,0,0,0,6.72.73c1.83,0,3.38-.19,3.63-.73a1.81,1.81,0,0,0,.09-.26c.86-3.26,4.78-31.66,4.34-53.08C224.77,235.66,213,235,213,235" transform="translate(-41.49 -138.31)"/><path class="cls-12" d="M123.24,280.22l-.25,0c-1.72.33-12,2.66-17.49,12.46a24.27,24.27,0,0,0,6.4,1.67,28.65,28.65,0,0,0,3.34.2A38.8,38.8,0,0,0,131,290.89a33.29,33.29,0,0,0-.73,9.22c4.63,8.09,7.39,12.86,8.42,12.86h.06c1-.2,8.41-5.8,11.09-18.39,7.15,5.42,14,8.22,18,8.45l.07-8.08-1.47-.74.29-11.74c-.27.09-1.17.39-2.59.76a67.06,67.06,0,0,1-16.7,2.11,57.71,57.71,0,0,1-24.23-5.11m55.42-2.94-5.84,3.08,7.34,1.52,3.3.55s-.94-1.1-2.22-2.57a31.41,31.41,0,0,0-2.58-2.58" transform="translate(-41.49 -138.31)"/><path class="cls-13" d="M167.71,347.46l-.09.05c.09.69.29,2.25.35,3.34h9.58l0-.08a47.16,47.16,0,0,1-9.81-3.31" transform="translate(-41.49 -138.31)"/><path class="cls-14" d="M149.84,294.57c-2.68,12.59-10.11,18.19-11.09,18.39h-.06c-1,0-3.79-4.77-8.42-12.86v0c-3.95,12.74-5.16,42.94-5.18,43.4H130c6.15,0,16.41,0,21,.38a.44.44,0,0,1,.25.09h0c.12-.82.46-1.44,1.22-1.56,1.79-.29,5.91-.36,5.91-.36.43.29.86.58,1.29.85a69.3,69.3,0,0,1-15.33-14.1,86.84,86.84,0,0,1,7-7.71c4.11,6,10.17,10.57,16.26,14l.29-32c-4-.23-10.88-3-18-8.45" transform="translate(-41.49 -138.31)"/><path class="cls-15" d="M107.92,379.47l-.2.07s-1.46.4-2.59.74-2.66,9.52-1.48,19.5a17.38,17.38,0,0,0,.6,2.91c2.31,7.53,9.56,9.38,15.66,9.6l1.19,0c5.84,0,7.43-1.71,8.05-4.44a19.15,19.15,0,0,0-.37-8.19,12.18,12.18,0,0,0-1.11-2.84,3.88,3.88,0,0,0-3.51-2.15,6.92,6.92,0,0,0-3.88,1.41,3.51,3.51,0,0,0-1.15,4.34,3.34,3.34,0,0,0,1.15,1.55,1.2,1.2,0,0,0,.64.17c1.13,0,2.56-1.34,3.26-2.17l.17-.21c.25-.33.42-.46.54-.46s.27.27.43.58c0,.08.08.16.13.24.38.6-.15,2.79-.37,4.42-.19,1.41-1.86,2.66-4.62,2.66a9.89,9.89,0,0,1-1.29-.09c-3.52-.45-4.26-.59-5.54-3.68a8.26,8.26,0,0,1-.55-2.29,16.94,16.94,0,0,1,.92-7.27c.7-1.66,2.16-6.06,2.22-6.25a16.61,16.61,0,0,1-4.44,1.1c-.87.06-1.49.15-1.93.15-.63,0-.9-.18-1-.89-.2-1.18,1-3.19,2.21-4.41s1.66-2.21,1.49-2.21h0a9.47,9.47,0,0,1-3.32-.73,8,8,0,0,1-1.28-1.18" transform="translate(-41.49 -138.31)"/><path class="cls-15" d="M201.42,379.17a4.74,4.74,0,0,0-4.29,2.22,3.92,3.92,0,0,0,3.13,5.95,2.12,2.12,0,0,0,.57-.07c2.34-.57,3.63-1.58,2.58-3.31-.62-1-.32-1.56.22-1.56a1.68,1.68,0,0,1,1.26.83c.93,1.35,1.86,10.39-3.32,12.87-2.85,1.37-4.25,1.68-4.92,1.68s-.63-.21-.63-.21l-.28,0a2.9,2.9,0,0,1-1.12.21,4.13,4.13,0,0,1-1.18-.18c-2.42-.7-5.54-1.84-5.54-1.84s1.8,6.16.36,7.73a1.66,1.66,0,0,1-1.26.59c-1.2,0-2.52-1.28-3.54-2.43a35.58,35.58,0,0,0-3-2.94,28.8,28.8,0,0,1-.74,4.41,7.54,7.54,0,0,1-.32.81,7.9,7.9,0,0,1,1.06,3.24c.09,1.44.65,4.13,4.56,4.13a13,13,0,0,0,3.19-.45,48.74,48.74,0,0,0,7.07-2.39C201,406,206.88,402,209.69,395.36c4.07-9.52.49-12.92-2.95-14.71a12.12,12.12,0,0,0-5.32-1.48" transform="translate(-41.49 -138.31)"/><path class="cls-16" d="M210.49,290.13h-.15c-.12.87-.34,2.5-.63,4.65-1.07,12.18-3.42,26-5.11,35-.77,4.57-1.45,8.15-1.93,9.69h0l.08.07.29-.06a6.66,6.66,0,0,1,1.43-.16,4.84,4.84,0,0,1,4.86,3.47c.4,1.82-6.29,3.31-6.29,3.31a7,7,0,0,0,3,4.41,10.64,10.64,0,0,0,5.39,1.18h.14l1.12-.08H213v0a41.35,41.35,0,0,1,5.54.71l13.3-44.87h1.48l3.7-11s-16.57-5.51-17.37-5.52a27.59,27.59,0,0,0-4.06-.36h-.4a21.4,21.4,0,0,1-2.43-.21c-.87-.1-1.72-.2-2.29-.2" transform="translate(-41.49 -138.31)"/><path class="cls-17" d="M196,288.32h0c0,.21-2,38.47-7,53.71a2.93,2.93,0,0,1-.47.12,4.11,4.11,0,0,1-.24.54,6.32,6.32,0,0,0,.94.08h.14c2.94-.17,9.55-2.36,13.27-3.22l0-.1h0c.48-1.54,1.16-5.12,1.93-9.69,1.77-10.65,4-26.69,5.11-35,.29-2.15.51-3.78.63-4.65l0-.39,0-.32s-.16,0-13.71-1.05l-.7-.05" transform="translate(-41.49 -138.31)"/><path class="cls-18" d="M183.46,380.48a1.28,1.28,0,0,0-.71.12c1,1.92,1.82,3.36,1.82,3.36a8,8,0,0,1-4.8,3.68,17.66,17.66,0,0,1-3.53.5A7,7,0,0,1,175,388l-1.16-2.88a11.94,11.94,0,0,0-2.16,2.88c-.27,1,.11,2.16,1.11,4a33,33,0,0,1,3.69,9.57c0,.09,0,.17,0,.25.55,3.42.53,4.55,1,4.55l.11,0a5.82,5.82,0,0,0,1.9-2.5,7.54,7.54,0,0,0,.32-.81,28.8,28.8,0,0,0,.74-4.41,35.58,35.58,0,0,1,3,2.94c1,1.15,2.34,2.43,3.54,2.43a1.66,1.66,0,0,0,1.26-.59c1.44-1.57-.36-7.73-.36-7.73s3.12,1.14,5.54,1.84a4.13,4.13,0,0,0,1.18.18,2.9,2.9,0,0,0,1.12-.21,2.35,2.35,0,0,0,1.39-1.44c.15-.63-2.06-1.33-2.58-1.84a9.89,9.89,0,0,1-2.22-3.31,50.64,50.64,0,0,0-3.33-7.72c-1.21-2.11-4.16-2.75-5.54-2.75" transform="translate(-41.49 -138.31)"/><path class="cls-18" d="M118.39,372.92c-.72,0-4.14,3-6.24,3.68s-5.65.1-5.54.74a7.64,7.64,0,0,0,1.31,2.13,8,8,0,0,0,1.28,1.18,9.47,9.47,0,0,0,3.32.73h0c.17,0-.32,1-1.49,2.21s-2.41,3.23-2.21,4.41c.12.71.39.89,1,.89.44,0,1.06-.09,1.93-.15a16.61,16.61,0,0,0,4.44-1.1h0a5.17,5.17,0,0,1,0,1.47c-.09,1.24,1.89,4.55,2.21,4.78a.22.22,0,0,0,.12.06c.2,0,.26-.64,1-2.26a19.7,19.7,0,0,1,5.17-5.89c1.79-1.38,5.15-2.76,4.81-3.68a19.45,19.45,0,0,0-1.38-2.43l-.1-.14s-2.59,2.7-3,2.94a.19.19,0,0,1-.1,0c-.36,0-.9-1.07-3.59-2.6-3-1.69-2.59-2.21-2.59-2.21l1.85-2.58h0s-1.59-2.09-2.22-2.21h0" transform="translate(-41.49 -138.31)"/><path class="cls-19" d="M170.53,377h0m8.5-3.68c-.14.16-.3.31-.45.45-1.06.95-3.07,2.26-7.68,3.23l0-.05-.34.05s0,0,.74,1.84c.43,1.1,1.61,4.05,2.53,6.32L175,388a7,7,0,0,0,1.28.13,17.66,17.66,0,0,0,3.53-.5,8,8,0,0,0,4.8-3.68s-.79-1.44-1.82-3.36c-1.24-2.3-2.8-5.29-3.72-7.31" transform="translate(-41.49 -138.31)"/><path class="cls-20" d="M174.29,364.39a82.83,82.83,0,0,1-10.88,2.46c2.05,1.51,5.63,6.77,7.46,10.07l0,.05c4.61-1,6.62-2.28,7.68-3.23l.45-.45a53.21,53.21,0,0,0-4.74-8.9" transform="translate(-41.49 -138.31)"/><path class="cls-14" d="M125.45,350.49l-7.76,14s2,2.36,8.73,3.81c.94.2,2,.38,3.11.54a65.33,65.33,0,0,0,8.9.56,112.56,112.56,0,0,0,13.26-.86c4.62-.55,8.48-1.1,11.72-1.66a82.83,82.83,0,0,0,10.88-2.46c5.59-1.76,5.76-3.18,5.85-3.6.15-.72-2.19-9.82-2.22-9.93h-9.61l-.34,0a3.65,3.65,0,0,1,0,1.08c-.22.55-1.33,1.45-6.65,2.21a41.4,41.4,0,0,1-5.69.44c-2,0-3.18-.22-3.17-.44s-.17-1.08-.39-2.21l-23.63-1.1h-.23a6.49,6.49,0,0,1-2.32-.35l-.41,0" transform="translate(-41.49 -138.31)"/><path class="cls-13" d="M130,343.48h-4.91v.36c-.29.18-.53,3.67.37,6.26a.78.78,0,0,0,.41.39,6.49,6.49,0,0,0,2.32.35h.23L152,352c-.29-1.49-.65-3.37-.72-4.41a18.54,18.54,0,0,1-.12-3.58h0a.44.44,0,0,0-.25-.09c-4.55-.33-14.81-.38-21-.38" transform="translate(-41.49 -138.31)"/><path class="cls-13" d="M161.4,344c-.44.33-5.87,0-6.39.93s-.67,1.73.74,1.84,2.64.3,2.59,1.1a2,2,0,0,1-1.48,1.84h-.15a2.87,2.87,0,0,1-.86-.18,2.82,2.82,0,0,0-.67-.18c-.16,0-.23.09-.17.35a2.3,2.3,0,0,0,1.85,1.84h1c2.17,0,6.88-.14,6.78-2.2a26.94,26.94,0,0,1,0-3.48c-1.11-.6-2.18-1.22-3.21-1.87" transform="translate(-41.49 -138.31)"/><path class="cls-21" d="M158.34,342s-4.12.07-5.91.36c-.76.12-1.1.74-1.22,1.56h0a18.54,18.54,0,0,0,.12,3.58c.07,1,.43,2.92.72,4.41.22,1.13.4,2,.39,2.21s1.16.44,3.17.44a41.4,41.4,0,0,0,5.69-.44c5.32-.76,6.43-1.66,6.65-2.21a3.65,3.65,0,0,0,0-1.08v0c-.06-1.09-.26-2.65-.35-3.34l0-.11c-1-.47-2-1-3-1.5a26.94,26.94,0,0,0,0,3.48c.1,2.06-4.61,2.2-6.78,2.2h-1a2.3,2.3,0,0,1-1.85-1.84c-.06-.26,0-.35.17-.35a2.82,2.82,0,0,1,.67.18,2.87,2.87,0,0,0,.86.18h.15a2,2,0,0,0,1.48-1.84c0-.8-1.18-1-2.59-1.1S154.42,346,155,345s6-.6,6.39-.93c-.6-.37-1.19-.76-1.77-1.15-.43-.27-.86-.56-1.29-.85" transform="translate(-41.49 -138.31)"/><path class="cls-22" d="M151.32,321.07a86.84,86.84,0,0,0-7,7.71,69.3,69.3,0,0,0,15.33,14.1c.58.39,1.17.78,1.77,1.15,1,.65,2.1,1.27,3.21,1.87s2,1,3,1.5l.11.06a47.16,47.16,0,0,0,9.81,3.31l.4.08h0a41.66,41.66,0,0,0,8.31.85c1,0,2.08,0,3.14-.12,2.46,2.71,7.38,6.65,9.35,6.65a1.09,1.09,0,0,0,.26,0,7.54,7.54,0,0,0,2.22-.74s.39,0,.94,0c1.1,0,2.87-.11,3.49-.76a12.8,12.8,0,0,1,1.11-1.1s4.58-.23,5.54-1.47a3.52,3.52,0,0,0,.74-2.56v0h-.11c-.21,0-.72.06-1.38.07h-.14a10.64,10.64,0,0,1-5.39-1.18,7,7,0,0,1-3-4.41s6.69-1.49,6.29-3.31a4.84,4.84,0,0,0-4.86-3.47,6.66,6.66,0,0,0-1.43.16l-.29.06-.11,0c-3.72.86-10.33,3.05-13.27,3.22h-.14a6.32,6.32,0,0,1-.94-.08,32.33,32.33,0,0,1-3.57-.74c-6.69-1.27-17.15-6.18-17.15-6.18V335c-6.09-3.4-12.15-8-16.26-14" transform="translate(-41.49 -138.31)"/><path class="cls-16" d="M166.84,279.12l-.08,3.27v.07l-.29,11.74,1.47.74-.07,8.08-.29,32v.73S178,340.68,184.72,342a14.73,14.73,0,0,0,2.69.29,6.35,6.35,0,0,0,1.12-.09A2.93,2.93,0,0,0,189,342c5.07-15.24,7-53.5,7-53.71h0a8.89,8.89,0,0,1-1.1-.37,5.68,5.68,0,0,1-1.08-2.15c-.23-.63-.4-1.16-.4-1.16l-13.28-2.76-7.34-1.52-.46-.1-5.52-1.14" transform="translate(-41.49 -138.31)"/><path class="cls-17" d="M143.31,234.68a2.94,2.94,0,0,0,2.1-.81c1.71-1.5-1.09-3.17-.23-3.77a5.64,5.64,0,0,1,3.18-1c3.47,0,6.28,3.3,6.28,7.36s-2.81,7.36-6.28,7.36-6.28-3.3-6.28-7.36a9.57,9.57,0,0,1,.11-1.41c.06-.32.26-.37.58-.37h.54m-1.64-13.6a9.68,9.68,0,0,0-2.65.37c-6.25,1.77-9.52,9.47-7.31,17.19,1.9,6.63,7.24,11.12,12.67,11.12a9.63,9.63,0,0,0,2.65-.37c6.25-1.78,9.52-9.47,7.31-17.19-1.9-6.63-7.23-11.12-12.67-11.12" transform="translate(-41.49 -138.31)"/><path class="cls-17" d="M174.72,214.91a7.73,7.73,0,0,0-1.78.21c-5.05,1.19-7.94,7.19-6.45,13.4,1.32,5.47,5.61,9.29,10.07,9.29a7.75,7.75,0,0,0,1.79-.21c3.87-.91,6.48-4.63,6.82-9.11a5.43,5.43,0,0,1-5,4.65c-2.85,0-5.18-2.72-5.18-6.07a7.57,7.57,0,0,1,.1-1.16c.12-.75,1.74,0,2.86-1.23s-1-2.47-.22-3a4.59,4.59,0,0,1,2.44-.71,5.27,5.27,0,0,1,4.81,3.84c0-.22-.09-.43-.14-.64-1.32-5.48-5.62-9.29-10.09-9.29" transform="translate(-41.49 -138.31)"/><path d="M148.36,229.09a5.64,5.64,0,0,0-3.18,1c-.86.6,1.94,2.27.23,3.77a2.94,2.94,0,0,1-2.1.81h-.54c-.32,0-.52.05-.58.37a9.57,9.57,0,0,0-.11,1.41c0,4.06,2.81,7.36,6.28,7.36s6.28-3.3,6.28-7.36-2.81-7.36-6.28-7.36" transform="translate(-41.49 -138.31)"/><path d="M180.14,221a4.59,4.59,0,0,0-2.44.71c-.79.5,1.34,1.72.22,3s-2.74.48-2.86,1.23a7.57,7.57,0,0,0-.1,1.16c0,3.35,2.33,6.07,5.18,6.07a5.43,5.43,0,0,0,5-4.65,7.35,7.35,0,0,0,.14-1.42,7,7,0,0,0-.36-2.23,5.27,5.27,0,0,0-4.81-3.84" transform="translate(-41.49 -138.31)"/><path class="cls-23" d="M120.65,140.07l-.06,0c-29.46,10.39-47,35.76-50.09,40.43l-.47.75s-1.15,19.45-.64,30c4.06-7.31,19.54-35.74,42.39-48.45,17.47-9.7,31.63-11.81,38.63-11.88-.87-.54-5-3-15.35-6.6q-2.35-.84-5.17-1.75c-2.49-.8-5.68-1.54-8.76-2.43l-.48-.14" transform="translate(-41.49 -138.31)"/><path class="cls-23" d="M70.77,146.69l-2.07,1.23c-4.31,2.6-10.57,6.52-15.92,10.21-4.32,3-8.06,5.82-9.72,7.69-3,3.38-1.53,3.66,2.79,3.66h2.89c.87,0,1.82,0,2.82,0,1.29,0,2.59.07,3.88.07q4.45,0,8.89-.36l.9-.08s.5-13,5.46-22.28l.08-.16" transform="translate(-41.49 -138.31)"/><path class="cls-17" d="M150.73,151h-.32c-7,.07-21.16,2.18-38.63,11.88C88.93,175.58,73.45,204,69.39,211.32c-.18.33-.33.61-.47.85,1.42,18.19,7.11,25.45,9,27.39.16.17.3.3.4.39l.21.18h0l0-.09c10.14-17.09,22.1-25.86,36.93-34.54,4.08-2.39,8.37-4.77,12.9-7.31a81.9,81.9,0,0,1,14.73-6.37l.24-.08,2-.6a107.51,107.51,0,0,1,19-3.79c1.28-.14,2.45-.24,3.51-.32,2.92-.22,4.93-.24,5.67-.24h.31s3.1-2.91,2.95-4.41v-.09c-.05-.28-.11-.56-.16-.83-4.26-21.85-20-29.05-21.63-30a11.81,11.81,0,0,0-4.28-.49" transform="translate(-41.49 -138.31)"/><path class="cls-17" d="M139.49,254.47s-.07.12-.17.33c-.55,1.11-2.17,4.7-.57,6.29s10.3,5.11,19.2,5.11a27.1,27.1,0,0,0,6.3-.69c10.59-2.52,6.87-6.68,6.65-8.09-.61.14-2,.93-4,1.72a24.4,24.4,0,0,1-9,1.76,24.87,24.87,0,0,1-5.09-.54c-10-2.09-13.3-5.89-13.3-5.89" transform="translate(-41.49 -138.31)"/></svg>