<svg id="Слой_1" data-name="Слой 1" xmlns="http://www.w3.org/2000/svg" viewBox="0 0 212.48 287.1" style="width: 4.52%">
    <g class="elf">
        <path d="M82.8,261.6l-1.1.1c-.7.8-2.1,2.2-3.3,2.2a1.42,1.42,0,0,1-.6-.2,3.27,3.27,0,0,1-1.1-1.5c-2.1.2-4.1.5-6,.7a8.65,8.65,0,0,0,.6,2.3c1.3,3.1,2,3.2,5.5,3.7a5.7,5.7,0,0,0,1.3.1c2.8,0,4.4-1.2,4.6-2.7s.8-3.8.4-4.4c-.1-.2-.2-.2-.3-.3m17.3-.6c-4.7,0-9.3.1-13.7.4a20.65,20.65,0,0,1,.4,8.2c-.6,2.7-2.2,4.4-8.1,4.4H77.5c-6.1-.2-13.3-2.1-15.7-9.6-9.7,2.1-15.8,5-15.8,8.1,0,6.4,24.2,11.5,54,11.5s54-5.1,54-11.5a3.7,3.7,0,0,0-1.2-2.4,45.64,45.64,0,0,1-7.1,2.4,16.45,16.45,0,0,1-3.2.5c-3.9,0-4.5-2.7-4.6-4.1a7.65,7.65,0,0,0-1.1-3.2,5.25,5.25,0,0,1-1.9,2.5h.1c-.4,0-.4-1.1-1-4.5a193,193,0,0,0-33.9-2.7" transform="translate(2.02 3.1)" style="fill:#abc7d6"/>
        <path d="M110.9,136.8c-14.7,0-29.3-18.3-18.4-22.1a.37.37,0,0,0,.3-.1c.8,0,2.2.8,3.9,1.9a1.24,1.24,0,0,1,.2-.3s3.3,3.8,13.3,5.9a22.06,22.06,0,0,0,5.1.5,23.32,23.32,0,0,0,9-1.8,20,20,0,0,0,2.1-1c3.6-1.8,6.3-2.7,7.9-2.7,2.7,0,2.6,2.4-.2,7.1-4.4,7.3-11,12-22.5,12.5-.1.1-.4.1-.7.1m-9-25.4c-5.4,0-10.8-4.5-12.7-11.1-2.2-7.7,1.1-15.4,7.3-17.2a12.66,12.66,0,0,1,2.6-.4c5.4,0,10.8,4.5,12.7,11.1,2.2,7.7-1.1,15.4-7.3,17.2a7.46,7.46,0,0,1-2.6.4m32.2-11.9c-4.5,0-8.8-3.8-10.1-9.3-1.5-6.2,1.4-12.2,6.4-13.4a11,11,0,0,1,1.8-.2c4.5,0,8.8,3.8,10.1,9.3a1.27,1.27,0,0,1,.1.6,8.51,8.51,0,0,1,.4,2.2,6.15,6.15,0,0,1-.1,1.4c-.3,4.5-2.9,8.2-6.8,9.1a5.66,5.66,0,0,1-1.8.3M87.7,79.4a16.66,16.66,0,0,1-.4-5.9,20.33,20.33,0,0,1,15.3-6.9,17.92,17.92,0,0,1,5.1.7s.5,4.8-.4,7.7a17.59,17.59,0,0,0-4.6-.6c-7.9-.1-15,4.9-15,5m35.5-6.3a40.56,40.56,0,0,1-1.9-5.9,14.54,14.54,0,0,1,14.4-1.9c1.1.8,2.6,2.7,2.2,6.2a11.15,11.15,0,0,0-5.4-1.1,19.59,19.59,0,0,0-9.3,2.7M100.6,53.4a79.79,79.79,0,0,0-14.7,6.4c-4.5,2.5-8.8,4.9-12.9,7.3,1.2,13.7-8.2,41.7-12.2,49-4-6.5-20.8-13-24.7-14.4v.1h0a56.58,56.58,0,0,0-13.6-2c-2.2,0-3.5.4-3.4,1,.2,1.6,9,16.6,18.1,25.4,6.3,6,11.4,9.8,18.4,9.8a28.77,28.77,0,0,0,10.8-2.4,60.1,60.1,0,0,0,14.2,8.5h.2a57.79,57.79,0,0,0,24.2,5.1,67.64,67.64,0,0,0,16.7-2.1c.9-.3,1.8-.5,2.6-.8l.1-3.3,5.5,1.1c8.3-3.5,14.2-8,17.7-13.9a241.22,241.22,0,0,1-1.8-31.8,20.9,20.9,0,0,1,2.5-.1c-1.6-3.6-4.4-8-5.1-11.3-.8-4.1-2.1-17.7-5.2-24.6a17.21,17.21,0,0,1-2.9.5,52.26,52.26,0,0,1-9.7.9c-10.8,0-18.2-3.7-21.9-6.2-1-.6-1.9-1.3-2.9-2" transform="translate(2.02 3.1)" style="fill:#f4bf8d"/>
        <path d="M121.9,49a112.16,112.16,0,0,0-19,3.8l.3-.1A171.68,171.68,0,0,1,121.9,49m12.3-5.9c.1.3.1.6.2.8a.1.1,0,0,1,.1-.1c0-.1,0-.1-.1-.1s-.2-.4-.2-.6M26.2,9.6c-3.7,2.1-6.8,4.1-9.4,5.8s-4.6,3.1-6.5,4.4c5.3-3.7,11.6-7.6,15.9-10.2M78.6,1.9c3.1.9,6.3,1.6,8.8,2.4,1.9.6,3.6,1.2,5.2,1.8a86.61,86.61,0,0,0-14-4.2M61.7,0A71.22,71.22,0,0,0,28.2,8.5c-5,9.3-5.5,22.3-5.5,22.3l-.9.1,7.6-.1c-.5,3.8-1,7.6-1.4,11.4,3-4.7,20.6-30,50.1-40.4A75.6,75.6,0,0,0,61.7,0" transform="translate(2.02 3.1)" style="fill:#417c31"/>
        <path d="M140.2,21.6h-1.4c-3.3.2,3.3,9.4-4.4,22.2l-.1.1V44c.1,1.5-2.9,4.4-2.9,4.4H131c-.7,0-2.8,0-5.7.2-6.9,1-17.5,3.1-22.2,4l-.3.1-2,.6a14,14,0,0,0,2.7,2.1c3.7,2.5,11.1,6.2,21.9,6.2a53.06,53.06,0,0,0,9.7-.9c.8-.2,1.7-.3,2.6-.5,24.4-5.7,27.7-19.4,21.4-29.1-5.7-8.5-14.5-9.5-18.9-9.5" transform="translate(2.02 3.1)" style="fill:#663d21"/>
        <path d="M102.7,66.5a20.86,20.86,0,0,0-15.3,6.9,16.66,16.66,0,0,0,.4,5.9s7.1-5,15-5a18.16,18.16,0,0,1,4.6.6,28.21,28.21,0,0,0,.4-7.7,29.78,29.78,0,0,0-5.1-.7" transform="translate(2.02 3.1)" style="fill:#663d21"/>
        <path d="M130,64.3a12.91,12.91,0,0,0-8.6,3,31.21,31.21,0,0,0,1.9,5.9,20.72,20.72,0,0,1,9.4-2.6,14.08,14.08,0,0,1,5.4,1.1c.3-3.6-1.1-5.5-2.2-6.2a13.57,13.57,0,0,0-5.9-1.2" transform="translate(2.02 3.1)" style="fill:#663d21"/>
        <path d="M92.9,114.7a.37.37,0,0,0-.3.1c-10.9,3.8,3.7,22.1,18.4,22.1h.8c11.5-.5,18.2-5.2,22.5-12.5,2.8-4.8,2.9-7.1.2-7.1-1.6,0-4.3.9-7.9,2.7a20,20,0,0,1-2.1,1c2-.8,3.4-1.6,4-1.7.2,1.4,3.9,5.6-6.6,8.1a27,27,0,0,1-6.3.7c-8.9,0-17.7-3.6-19.2-5.1s0-5.2.6-6.3c-1.9-1.2-3.3-2-4.1-2" transform="translate(2.02 3.1)" style="fill:#972d29"/>
        <path d="M35.4,101.2l-.1.2.5.2-.4-.4M73,67.2c-14.8,8.7-26.8,17.5-36.9,34.5,3.9,1.4,20.7,7.9,24.7,14.4,4-7.3,13.5-35.2,12.2-48.9" transform="translate(2.02 3.1)" style="fill:#663d21"/>
        <path d="M80.8,234.2h0m2.2-4.4a16.49,16.49,0,0,1-2.2,4.4h0a49.06,49.06,0,0,0,7.4,3.3,4.88,4.88,0,0,0-.3.7,11.53,11.53,0,0,0,2.9-7.3h-.3a18.81,18.81,0,0,1-3.3-.5c-1.1-.2-2.2-.3-3.1-.5-.5,0-.9-.1-1.1-.1" transform="translate(2.02 3.1)" style="fill:#1a613f"/>
        <path d="M80.8,234.2h0l-2.2,2.2-.4.4h0l-1.8,2.6s-.4.5,2.6,2.2c2.7,1.5,3.2,2.6,3.6,2.6h.1c.4-.2,3-2.9,3-2.9l.1.1a21.84,21.84,0,0,0,2.2-3.1c.1-.2.2-.5.3-.7a39.13,39.13,0,0,1-7.5-3.4h0" transform="translate(2.02 3.1)" style="fill:#3e772f"/>
        <path d="M183,64.6c-.4,2-1.3,12.9-1.7,16.2s-2,15.1-2.2,16.4c4.5.4,10.1.9,15.1,1.5,1.6-3.4,3.1-23.6,2.6-30.1-1-.8-4.3-2-8.7-3a12.66,12.66,0,0,1-2.8-.6,15.72,15.72,0,0,1-2.3-.4m-13-1.3c-1.5,0-3.1.1-4.6.2-2.2,5.2-5.2,20.7-5.5,22.1s-1.9,5,.4,5.9A99.86,99.86,0,0,0,175,96.9l3.1.2-6.3-1.3s3.1-15.9,5.2-32c-1.1-.2-2.1-.4-3.2-.5-1.4.1-2.6,0-3.8,0" transform="translate(2.02 3.1)" style="fill:#e19917"/>
        <path d="M170.9,50.3c-3.8,0-5.5,5.4-5.2,7.4.4,2.4,4.1,5.5,4.1,5.5,1.3,0,2.6.1,3.8.2s2.1.3,3.2.5c-2,16.1-5.2,32-5.2,32l6.3,1.3,1.1.1c.2-1.3,1.8-13,2.2-16.4s1.3-14.2,1.7-16.2a.44.44,0,0,1,.1-.3h0a10.66,10.66,0,0,1,1.9.7l.2.1a12.66,12.66,0,0,0,2.8.6h.4a5.08,5.08,0,0,0,1.7-.3c2.7-1.1,3.8-.8,7-2.6s2.1-3.4-1.5-5.1a5.37,5.37,0,0,0-2.1-.5c-3.2,0-7.1,2.7-10.1,5.6-2.7-3.6-4.4-8.6-10-11.8a4.31,4.31,0,0,0-2.4-.8" transform="translate(2.02 3.1)" style="fill:#8b90be"/>
        <path d="M148.6,96.2h-.3a20.9,20.9,0,0,0-2.5.1,242.19,242.19,0,0,0,1.8,31.8c1.2,9.6,2.9,16.2,4.1,19.4a5.29,5.29,0,0,0,1.1,2.1,7.37,7.37,0,0,0,1.4.4l13.7,1v.3h.8c1.4-12.6,1.8-54.8,1.8-54.8s11.8.7,12.9,1.5c.4,21.4-3.5,49.8-4.3,53.1,7.6-.2,16.7-.5,17.3-.9a7.39,7.39,0,0,0,1.4-2.8c3.3-10.3,8-44,8.2-46.1.1-.9-5.3-1.9-11.8-2.7-5-.6-10.6-1.1-15.1-1.5L178,97l-3.1-.2c-2.4-.2-4-.3-4-.3s-15.7-.3-22.3-.3" transform="translate(2.02 3.1)" style="fill:#1498ca"/>
        <path d="M170.5,96.7s-.4,42.2-1.9,54.8h0a25.46,25.46,0,0,0,6.7.7c1.8,0,3.4-.2,3.6-.7,0-.1.1-.2.1-.3.9-3.3,4.8-31.7,4.3-53.1-1-.8-12.8-1.4-12.8-1.4" transform="translate(2.02 3.1)" style="fill:#f0e069"/>
        <path d="M80.8,141.9h-.2c-1.7.3-12,2.7-17.5,12.5a27.44,27.44,0,0,0,6.4,1.7c1.1.1,2.2.2,3.3.2a37.74,37.74,0,0,0,15.8-3.7,31.53,31.53,0,0,0-.7,9.2c4.6,8.1,7.4,12.9,8.4,12.9h.1c1-.2,8.4-5.8,11.1-18.4,7.1,5.4,14,8.2,18,8.5l.1-8.1-1.5-.7.3-11.7c-.3.1-1.2.4-2.6.8a67.64,67.64,0,0,1-16.7,2.1,59,59,0,0,1-24.3-5.3m55.3-2.9-5.8,3.1,7.3,1.5,3.3.5s-.9-1.1-2.2-2.6c-.8-.8-1.7-1.7-2.6-2.5" transform="translate(2.02 3.1)" style="fill:#1e6945"/>
        <path d="M125.2,209.1h0c0,.7.2,2.3.3,3.4h9.6v-.1a44.3,44.3,0,0,1-9.9-3.3" transform="translate(2.02 3.1)" style="fill:#674c20"/>
        <path d="M107.3,156.3c-2.7,12.6-10.1,18.2-11.1,18.4h-.1c-1,0-3.8-4.8-8.4-12.9h0c-3.9,12.7-5.2,42.9-5.2,43.4h4.9c6.1,0,16.4,0,21,.4.1,0,.2,0,.2.1h0a1.74,1.74,0,0,1,1.2-1.6c1.8-.3,5.9-.4,5.9-.4.4.3.9.6,1.3.9a68.48,68.48,0,0,1-15.3-14.1,85.26,85.26,0,0,1,7-7.7c4.1,6,10.2,10.6,16.3,14l.3-32c-3.9-.2-10.8-3-18-8.5" transform="translate(2.02 3.1)" style="fill:#448034"/>
        <path d="M65.4,241.2l-.2.1-2.6.7c-1.1.3-2.7,9.5-1.5,19.5a13.56,13.56,0,0,0,.6,2.9c2.3,7.5,9.6,9.4,15.7,9.6h1.2c5.8,0,7.4-1.7,8.1-4.4a19,19,0,0,0-.4-8.2,9.61,9.61,0,0,0-1.1-2.8,3.75,3.75,0,0,0-3.5-2.1,7.67,7.67,0,0,0-3.9,1.4,3.33,3.33,0,0,0-1.1,4.3,2.83,2.83,0,0,0,1.1,1.5,1.42,1.42,0,0,0,.6.2c1.1,0,2.6-1.3,3.3-2.2l.2-.2c.2-.3.4-.5.5-.5s.3.3.4.6a.35.35,0,0,0,.1.2c.4.6-.1,2.8-.4,4.4-.2,1.4-1.9,2.7-4.6,2.7a5.7,5.7,0,0,1-1.3-.1c-3.5-.5-4.3-.6-5.5-3.7a8.65,8.65,0,0,1-.6-2.3,18.14,18.14,0,0,1,.9-7.3c.7-1.7,2.2-6.1,2.2-6.2a16.71,16.71,0,0,1-4.4,1.1,15.77,15.77,0,0,1-1.9.1c-.6,0-.9-.2-1-.9-.2-1.2,1-3.2,2.2-4.4S70.2,243,70,243h0a9.28,9.28,0,0,1-3.3-.7,12.67,12.67,0,0,1-1.3-1.1" transform="translate(2.02 3.1)" style="fill:#63491f"/>
        <path d="M158.9,240.9a4.89,4.89,0,0,0-4.3,2.2,4,4,0,0,0,1.3,5.4,6.36,6.36,0,0,0,1.8.6,1.27,1.27,0,0,0,.6-.1c2.3-.6,3.6-1.6,2.6-3.3-.6-1-.3-1.6.2-1.6a2.22,2.22,0,0,1,1.3.8c.9,1.4,1.9,10.4-3.3,12.9-2.9,1.4-4.2,1.7-4.9,1.7s-.6-.2-.6-.2h-.3a4.25,4.25,0,0,1-1.1.2,5,5,0,0,1-1.2-.2c-2.4-.7-5.5-1.8-5.5-1.8s1.8,6.2.4,7.7a1.61,1.61,0,0,1-1.3.6c-1.2,0-2.5-1.3-3.5-2.4a27.55,27.55,0,0,0-3-2.9,31.07,31.07,0,0,1-.7,4.4c-.1.3-.2.5-.3.8a9.37,9.37,0,0,1,1.1,3.2c.1,1.4.6,4.1,4.6,4.1a11.85,11.85,0,0,0,3.2-.5,45.64,45.64,0,0,0,7.1-2.4c5.7-2.5,11.6-6.5,14.4-13.1,4.1-9.5.5-12.9-2.9-14.7a13.65,13.65,0,0,0-5.7-1.4" transform="translate(2.02 3.1)" style="fill:#63491f"/>
        <path d="M168,151.8h-.1c-.1.9-.3,2.5-.6,4.6-1.1,12.2-3.4,26-5.1,35-.8,4.6-1.4,8.1-1.9,9.7h0l.1.1.3-.1a6.75,6.75,0,0,1,1.4-.2,4.92,4.92,0,0,1,4.9,3.5c.4,1.8-6.3,3.3-6.3,3.3a7.21,7.21,0,0,0,3,4.4,10.2,10.2,0,0,0,5.4,1.2h.1l1.1-.1h.3a33.09,33.09,0,0,1,5.5.7L189.4,169h1.5l3.7-11s-16.6-5.5-17.4-5.5c-1.3-.2-2.7-.3-4.1-.4h-.4a19.42,19.42,0,0,1-2.4-.2,8.27,8.27,0,0,1-2.3-.1" transform="translate(2.02 3.1)" style="fill:#b12e3b"/>
        <path d="M153.5,150h0c0,.2-2,38.5-7,53.7a.9.9,0,0,1-.5.1c-.1.2-.1.4-.2.5a2.77,2.77,0,0,0,.9.1h.1c2.9-.2,9.6-2.4,13.3-3.2v-.1h0a77.12,77.12,0,0,0,1.9-9.7c1.8-10.6,4-26.7,5.1-35,.3-2.1.5-3.8.6-4.6v-.7s-.2,0-13.7-1h-.7" transform="translate(2.02 3.1)" style="fill:#fff"/>
        <path d="M141,242.2a1.7,1.7,0,0,0-.7.1c1,1.9,1.8,3.4,1.8,3.4a8.44,8.44,0,0,1-4.8,3.7,14.08,14.08,0,0,1-3.5.5c-.4,0-.8-.1-1.2-.1l-1.2-2.9a10.59,10.59,0,0,0-2.2,2.9c-.3,1,.1,2.2,1.1,4a33,33,0,0,1,3.7,9.6v.2c.6,3.4.5,4.5,1,4.5h.1a5.25,5.25,0,0,0,1.9-2.5c.1-.3.2-.5.3-.8a21.27,21.27,0,0,0,.7-4.4,27.55,27.55,0,0,1,3,2.9c1,1.1,2.3,2.4,3.5,2.4a1.76,1.76,0,0,0,1.3-.6c1.4-1.6-.4-7.7-.4-7.7s3.1,1.1,5.5,1.8a5,5,0,0,0,1.2.2,3.59,3.59,0,0,0,1.1-.2,2.17,2.17,0,0,0,1.4-1.4c.1-.6-2.1-1.3-2.6-1.8a9.11,9.11,0,0,1-2.2-3.3,52.48,52.48,0,0,0-3.3-7.7c-1.1-2.2-4.1-2.9-5.5-2.8" transform="translate(2.02 3.1)" style="fill:#1d6844"/>
        <path d="M75.9,234.6c-.7,0-4.1,3-6.2,3.7s-5.7.1-5.5.7a7.43,7.43,0,0,0,1.3,2.1,15.38,15.38,0,0,0,1.3,1.2,9.76,9.76,0,0,0,3.3.7h0c.2,0-.3,1-1.5,2.2s-2.4,3.2-2.2,4.4c.1.7.4.9,1,.9.4,0,1.1-.1,1.9-.1a16.71,16.71,0,0,0,4.4-1.1h0a3.79,3.79,0,0,1,0,1.5c-.1,1.2,1.9,4.5,2.2,4.8l.1.1c.2,0,.3-.6,1-2.3a19.59,19.59,0,0,1,5.2-5.9c1.8-1.4,5.1-2.8,4.8-3.7a18.84,18.84,0,0,0-1.4-2.4l-.1-.1s-2.6,2.7-3,2.9h-.1c-.4,0-.9-1.1-3.6-2.6-3-1.7-2.6-2.2-2.6-2.2l1.8-2.6h0c.1,0-1.5-2.1-2.1-2.2h0" transform="translate(2.02 3.1)" style="fill:#1d6844"/>
        <path d="M128,238.7h0m8.5-3.7c-.1.2-.3.3-.4.5-1.1,1-3.1,2.3-7.7,3.2h-.3l.7,1.8c.4,1.1,1.6,4,2.5,6.3l1.2,2.8a5.7,5.7,0,0,0,1.3.1,13.45,13.45,0,0,0,3.5-.5,8.44,8.44,0,0,0,4.8-3.7s-.8-1.4-1.8-3.4c-1.2-2.1-2.8-5.1-3.8-7.1" transform="translate(2.02 3.1)" style="fill:#3f7931"/>
        <path d="M131.8,226.1a81.88,81.88,0,0,1-10.9,2.5c2.1,1.5,5.6,6.8,7.5,10.1h0c4.6-1,6.6-2.3,7.7-3.2l.4-.5a58.1,58.1,0,0,0-4.7-8.9" transform="translate(2.02 3.1)" style="fill:#185f3d"/>
        <path d="M83,212.2l-7.8,14s2,2.4,8.7,3.8a25.15,25.15,0,0,0,3.1.5,66.53,66.53,0,0,0,8.9.6,99.06,99.06,0,0,0,13.3-.9c4.6-.5,8.5-1.1,11.7-1.7a81.88,81.88,0,0,0,10.9-2.5c5.6-1.8,5.8-3.2,5.9-3.6.1-.7-2.2-9.8-2.2-9.9h-9.9a2.05,2.05,0,0,1,0,1.1c-.2.5-1.3,1.5-6.6,2.2a36.42,36.42,0,0,1-5.7.4c-2,0-3.2-.2-3.2-.4s-.2-1.1-.4-2.2l-23.6-1.1h-.2a5.87,5.87,0,0,1-2.3-.4l-.6.1" transform="translate(2.02 3.1)" style="fill:#448034"/>
        <path d="M87.5,205.2H82.6v.4c-.3.2-.5,3.7.4,6.3a.78.78,0,0,0,.4.4,5.87,5.87,0,0,0,2.3.4h.2l23.6,1.2c-.3-1.5-.6-3.4-.7-4.4a14.47,14.47,0,0,1-.1-3.6h0a.31.31,0,0,0-.2-.1c-4.6-.5-14.9-.6-21-.6" transform="translate(2.02 3.1)" style="fill:#674c20"/>
        <path d="M118.9,205.7c-.4.3-5.9,0-6.4.9s-.7,1.7.7,1.8,2.6.3,2.6,1.1a1.82,1.82,0,0,1-1.5,1.8h-.1a2.92,2.92,0,0,1-.9-.2,6.37,6.37,0,0,0-.7-.2c-.2,0-.2.1-.2.4a2.23,2.23,0,0,0,1.9,1.8h1c2.2,0,6.9-.1,6.8-2.2a20.45,20.45,0,0,1,0-3.5c-1.1-.5-2.1-1.1-3.2-1.7" transform="translate(2.02 3.1)" style="fill:#674c20"/>
        <path d="M115.8,203.7s-4.1.1-5.9.4c-.8.1-1.1.7-1.2,1.6h0a21.66,21.66,0,0,0,.1,3.6c.1,1,.4,2.9.7,4.4.2,1.1.4,2,.4,2.2s1.2.4,3.2.4a54.59,54.59,0,0,0,5.7-.4c5.3-.8,6.4-1.7,6.6-2.2a2.05,2.05,0,0,0,0-1.1h0c-.1-1.1-.3-2.6-.4-3.3v-.1l-3-1.5a20.45,20.45,0,0,0,0,3.5c.1,2.1-4.6,2.2-6.8,2.2h-1a2.49,2.49,0,0,1-1.9-1.8c-.1-.3,0-.4.2-.4a1.85,1.85,0,0,1,.7.2,2.92,2.92,0,0,0,.9.2h.1a2.16,2.16,0,0,0,1.5-1.8c0-.8-1.2-1-2.6-1.1s-1.3-.8-.7-1.8,6-.6,6.4-.9a17.39,17.39,0,0,0-1.8-1.1,3.45,3.45,0,0,0-1.2-1.2" transform="translate(2.02 3.1)" style="fill:#e59b2f"/>
        <path d="M108.8,182.8a85.26,85.26,0,0,0-7,7.7,70.71,70.71,0,0,0,15.3,14.1,17.39,17.39,0,0,0,1.8,1.1c1,.6,2.1,1.3,3.2,1.9s2,1,3,1.5l.1.1a41.9,41.9,0,0,0,9.8,3.3l.4.1h0a45.84,45.84,0,0,0,8.3.9c1,0,2.1,0,3.1-.1,2.5,2.7,7.4,6.6,9.4,6.6h.3a8.08,8.08,0,0,0,2.2-.7h.9c1.1,0,2.9-.1,3.5-.8a5.73,5.73,0,0,1,1.1-1.1s4.6-.2,5.5-1.5a3.34,3.34,0,0,0,.7-2.6h-.1c-.2,0-.7.1-1.4.1h-.1a10.2,10.2,0,0,1-5.4-1.2,7.21,7.21,0,0,1-3-4.4s6.7-1.5,6.3-3.3a4.87,4.87,0,0,0-4.9-3.5,5.9,5.9,0,0,0-1.4.2l-.3.1H160c-3.7.9-10.3,3-13.3,3.2h-.1a2.77,2.77,0,0,1-.9-.1c-1.2-.2-2.4-.4-3.6-.7-6.7-1.3-17.1-6.2-17.1-6.2v-.7c-6-3.5-12.1-8.1-16.2-14" transform="translate(2.02 3.1)" style="fill:#f6c292"/>
        <path d="M124.3,140.8l-.1,3.3v.1l-.3,11.7,1.5.7-.1,8.1-.3,32v.7s10.4,4.9,17.1,6.3a12.41,12.41,0,0,0,2.7.3,3.75,3.75,0,0,0,1.1-.1c.2-.1.3-.1.5-.2,5.1-15.2,7-53.5,7-53.7h0a4.87,4.87,0,0,1-1.1-.4,6.06,6.06,0,0,1-1.1-2.1l-.4-1.2-13.3-2.8-7.3-1.5-.5-.1-5.4-1.1" transform="translate(2.02 3.1)" style="fill:#b12e3b"/>
        <path d="M100.8,96.4a3.23,3.23,0,0,0,2.1-.8c1.7-1.5-1.1-3.2-.2-3.8a5.78,5.78,0,0,1,3.2-1c3.5,0,6.3,3.3,6.3,7.4s-2.8,7.4-6.3,7.4-6.3-3.3-6.3-7.4a6.6,6.6,0,0,1,.1-1.4.55.55,0,0,1,.6-.4h.5M99.2,82.8a7.46,7.46,0,0,0-2.6.4c-6.2,1.8-9.5,9.5-7.3,17.2,1.9,6.6,7.2,11.1,12.7,11.1a7.46,7.46,0,0,0,2.6-.4c6.2-1.8,9.5-9.5,7.3-17.2-2-6.6-7.3-11.1-12.7-11.1" transform="translate(2.02 3.1)" style="fill:#fff"/>
        <path d="M132.2,76.6a11,11,0,0,0-1.8.2c-5.1,1.2-7.9,7.2-6.4,13.4,1.3,5.5,5.6,9.3,10.1,9.3a11,11,0,0,0,1.8-.2c3.9-.9,6.5-4.6,6.8-9.1a5.34,5.34,0,0,1-5,4.6c-2.9,0-5.2-2.7-5.2-6.1a4.87,4.87,0,0,1,.1-1.2c.1-.8,1.7,0,2.9-1.2s-1-2.5-.2-3a4.2,4.2,0,0,1,2.4-.7,5.25,5.25,0,0,1,4.8,3.8c0-.2-.1-.4-.1-.6-1.4-5.4-5.7-9.2-10.2-9.2" transform="translate(2.02 3.1)" style="fill:#fff"/>
        <path d="M105.9,90.8a6.33,6.33,0,0,0-3.2,1c-.9.6,1.9,2.3.2,3.8a3.23,3.23,0,0,1-2.1.8h-.5a.55.55,0,0,0-.6.4,6.6,6.6,0,0,0-.1,1.4c0,4.1,2.8,7.4,6.3,7.4s6.3-3.3,6.3-7.4-2.9-7.4-6.3-7.4" transform="translate(2.02 3.1)"/>
        <path d="M137.6,82.7a4,4,0,0,0-2.4.7c-.8.5,1.3,1.7.2,3s-2.7.5-2.9,1.2a4.87,4.87,0,0,0-.1,1.2c0,3.4,2.3,6.1,5.2,6.1a5.43,5.43,0,0,0,5-4.6,6.6,6.6,0,0,0,.1-1.4,5.38,5.38,0,0,0-.4-2.2,5,5,0,0,0-4.7-4" transform="translate(2.02 3.1)"/>
        <path d="M78.2,1.8h0C48.6,12.1,31.1,37.5,28,42.2l-.5.8s-1.2,19.4-.6,30C31,65.7,46.4,37.3,69.3,24.6c17.5-9.7,31.6-11.8,38.6-11.9-.9-.5-5-3-15.4-6.6-1.6-.6-3.3-1.1-5.2-1.8-2.5-.8-5.7-1.5-8.8-2.4l-.3-.1" transform="translate(2.02 3.1)" style="fill:#1f6b46"/>
        <path d="M28.3,8.4,26.2,9.6c-4.3,2.6-10.6,6.5-15.9,10.2C6,22.8,2.2,25.6.6,27.5c-3,3.4-1.5,3.7,2.8,3.7H9.1c1.3,0,2.6.1,3.9.1a88.33,88.33,0,0,0,8.9-.4l.9-.1s.5-13,5.5-22.3V8.4" transform="translate(2.02 3.1)" style="fill:#1f6b46"/>
        <path d="M108.2,12.7h-.3c-7,.1-21.2,2.2-38.6,11.9C46.4,37.3,31,65.7,26.9,73c-.2.3-.3.6-.5.9,1.4,18.2,7.1,25.4,9,27.4l.4.4.2.2h0v-.1C46.2,84.6,58.1,75.9,73,67.2c4.1-2.4,8.4-4.8,12.9-7.3a87.19,87.19,0,0,1,14.7-6.4l.2-.1,2-.6a112.16,112.16,0,0,1,19-3.8c1.3-.1,2.4-.2,3.5-.3,2.9-.2,4.9-.2,5.7-.2h.3s3.1-2.9,2.9-4.4V44c-.1-.3-.1-.6-.2-.8-4.3-21.9-20-29.1-21.6-30a9.74,9.74,0,0,0-4.2-.5" transform="translate(2.02 3.1)" style="fill:#fff"/>
        <path d="M97,116.2a1.24,1.24,0,0,0-.2.3c-.6,1.1-2.2,4.7-.6,6.3s10.3,5.1,19.2,5.1a27,27,0,0,0,6.3-.7c10.6-2.5,6.9-6.7,6.6-8.1-.6.1-2,.9-4,1.7a25.33,25.33,0,0,1-9,1.8,29.37,29.37,0,0,1-5.1-.5c-9.9-2.1-13.2-5.9-13.2-5.9" transform="translate(2.02 3.1)" style="fill:#fff"/>
        <path d="M80.4,276.6H79.1c-12.3-.4-16.7-6.5-18.3-11.6a18.63,18.63,0,0,1-.7-3.4,64.76,64.76,0,0,1-.1-14c.6-5.8,1.6-7.7,3.1-8.4a3.1,3.1,0,0,1,.7-2.4c1-1.2,2.4-1.2,4-1.2a8.31,8.31,0,0,0,2.8-.3,20.75,20.75,0,0,0,3.3-2c1.7-1.2,2.6-1.8,3.8-1.8H78l.3.1a4.22,4.22,0,0,1,1.5.6v-1.4a14.08,14.08,0,0,1-4.9-3.1l-1.2-1.5,8.2-14.8c-.3-1.6-.8-4.5-.3-6.5v-.1c.1-1.2,1.3-30.4,5.1-43.6a22.88,22.88,0,0,1,.1-4.5,37.34,37.34,0,0,1-15.9,1.9,25.53,25.53,0,0,1-7.2-1.9l-2.9-1.2,1.5-2.8a28.4,28.4,0,0,1,12.6-11.6,53.94,53.94,0,0,1-7.3-4.8,31.69,31.69,0,0,1-10.3,2c-7.9,0-13.6-4-20.4-10.5-8.9-8.6-18.5-24.2-18.9-27a3,3,0,0,1,.8-2.7c1-1.1,2.6-1.6,5.5-1.6a39.23,39.23,0,0,1,7,.7c-2.4-4.6-4.9-12-5.8-23.4l-.1-.8.5-.9c-.4-10.8.6-28.8.7-29.5v-.7l.4-.6a.31.31,0,0,1,.1-.2c.3-2.5.5-5,.9-7.6H23.8c-4.3.3-8.7.4-13,.3H5.2c-2.8,0-5.8,0-6.9-2.5s.9-4.7,2-5.9c1.7-1.9,5-4.5,10.2-8.1,2-1.4,4.2-3,6.6-4.5l.9-.6c2.4-1.5,5.3-3.4,8.6-5.3.7-.4,1.4-.8,2-1.2L37.5.5l-.9,1.6A71.14,71.14,0,0,1,63.5-3.1,82.6,82.6,0,0,1,79.7-1.4l.2-.1,1.2.4A103.77,103.77,0,0,1,95.3,3.2a100.12,100.12,0,0,1,15.1,6.4c3.8,0,4.9.7,5.2.9.1,0,.2.1.3.2A43.66,43.66,0,0,1,136.6,35a25.62,25.62,0,0,0,.2-9.5c-.3-2.3-.5-4.1.8-5.6a3.87,3.87,0,0,1,2.7-1.3h1.6c9.1,0,16.7,3.9,21.3,10.9,3.5,5.3,4.2,11.2,2,16.6-2,5.1-7.5,11.8-21.7,15.9,1.8,5.7,2.9,13.2,3.7,18.4.2,1.6.4,3,.6,3.9.3,1.8,1.7,4.3,2.9,6.8a22.56,22.56,0,0,1,1.1,2.2c2.2,0,5.1.1,7.9.1-2.8-2.1-1.6-6.3-1.1-7.8a2.54,2.54,0,0,0,.2-.7l.1-.6c2.3-11.3,4.1-18.6,5.6-22l.6-1.5.6-.1a10.24,10.24,0,0,1-1.1-2.7,11.44,11.44,0,0,1,2.5-8,7.12,7.12,0,0,1,5.4-2.7h0a8.62,8.62,0,0,1,4,1.1c4.7,2.7,7.1,6.6,9,9.7a.35.35,0,0,0,.1.2c2.7-2.2,6.1-4.1,9.5-4.1a7.73,7.73,0,0,1,3.4.8c2.3,1.1,4.9,2.7,5,5.5,0,1.9-1.1,3.4-3.4,4.7a9.25,9.25,0,0,1-1,.5,8.79,8.79,0,0,1,1,.6l1,.8.1,1.3c.4,5-.5,20.3-1.9,27.9,8.3,1.1,9.6,2,10.5,3.1a2.81,2.81,0,0,1,.6,2.3c0,.3-4.8,35.8-8.4,46.6-.7,2.3-1.4,3.5-2.3,4.2l-.4.3c-.6.3-1,.5-7.5.8,1.5.5,3.3,1.1,5.2,1.7l2.7.9-5.2,15.7h-1.4l-13.4,45.3-2.5-.5a25.12,25.12,0,0,0-2.7-.4,9.13,9.13,0,0,1-.8,1.3c-1.2,1.6-4.1,2.2-6.5,2.5-.1.1-.1.2-.2.2-1.1,1.2-2.9,1.7-5.6,1.7H161a18.66,18.66,0,0,1-2.2.7,2.2,2.2,0,0,1-.8.1c-3.2,0-8.2-4.3-10.5-6.6a46.59,46.59,0,0,1-6.5-.2c1.4,5.9,1.3,6.5,1.2,7-.4,1.8-1.7,3.2-4.4,4.5a47.69,47.69,0,0,1,3.2,6.4c.7,1.5,1.8,3.6,2.8,5.5,2.1.2,5.4,1.3,7,4.1a56.62,56.62,0,0,1,3.5,8.1,7.44,7.44,0,0,0,1.4,2.2.76.76,0,0,0,.5.2,6.68,6.68,0,0,1,2.4,1.7,9.74,9.74,0,0,0,1.1-.5c1.3-.6,1.9-2.2,2.2-3.8-.4.1-.8.2-1.1.3a4.87,4.87,0,0,1-1.2.1,6.65,6.65,0,0,1-5.7-3.6,6.46,6.46,0,0,1,.2-6.7,7.56,7.56,0,0,1,6.7-3.6,14.28,14.28,0,0,1,6.6,1.8c6.6,3.4,8,9.6,4.2,18.3-2.7,6.3-8,11.2-15.8,14.6a44,44,0,0,1-7.5,2.5,13.92,13.92,0,0,1-3.9.5c-3.6,0-6.2-1.8-7.1-4.9-.2,0-.4.1-.6.1-2.8,0-3.2-2.7-3.4-4.5-.1-.6-.2-1.4-.4-2.4v-.2a29.74,29.74,0,0,0-3.4-8.7l-.1-.1c-1.2-2.3-1.9-4.2-1.3-6.1l.1-.3.1-.3c.4-.7.9-1.4,1.4-2.1-.8-1.9-1.6-3.9-1.9-4.7a6.51,6.51,0,0,0-.7-1.6l.3-.1a57.19,57.19,0,0,0-5.7-8.2c-3.1.5-6.7,1-10.5,1.5a105.49,105.49,0,0,1-16.3.8,13.63,13.63,0,0,1-3,6c-.3.5-.7,1.1-1.1,1.7a4.67,4.67,0,0,1,.5,1l.1.2c1.1,2.8-1.8,4.5-3.8,5.7-.7.4-1.4.9-1.9,1.2a17.8,17.8,0,0,0-3.8,4,7.72,7.72,0,0,1,1.5-.2,6.79,6.79,0,0,1,6,3.6,16,16,0,0,1,1.4,3.5,22.14,22.14,0,0,1,.4,9.5C89.9,275.9,84.8,276.6,80.4,276.6Zm4.9-6.9a10.47,10.47,0,0,1-1.1.8A2,2,0,0,0,85.3,269.7Zm53.2-10.4,2.7,4.6a9.9,9.9,0,0,1,1.4,4.4v.1c.1,1.1.2,1.5,1.7,1.5a8.55,8.55,0,0,0,2.5-.4,56.71,56.71,0,0,0,6.6-2.2c6.5-2.8,10.8-6.7,12.9-11.6,1.7-4,1.9-6.5,1.3-8.1a18.74,18.74,0,0,1-.5,5.8,9.68,9.68,0,0,1-5.1,6.7c-3.7,1.8-5.3,2-6.1,2a4.15,4.15,0,0,1-1.6-.3l-10.5-1.3,7.6-3.1a12.38,12.38,0,0,1-2.5-3.9l-.1-.2a47.06,47.06,0,0,0-3.1-7.3,4,4,0,0,0-2.5-1.2l-2,1.9-1.8-3.3c-1.2-2.2-2.8-5.4-3.8-7.5l-.1-.3a47.68,47.68,0,0,0-4.5-8.3l-2-3.1,3.5-1.1a17.63,17.63,0,0,0,3.8-1.6c-.3-1.5-1.1-4.8-2-8.5l-1.1-4.4,4.4.9a38.35,38.35,0,0,0,10.7.7l1.4-.1.9,1c2.4,2.7,6,5.3,7.3,5.7a5.64,5.64,0,0,0,1.2-.4l.7-.4.8.1h.7c.9,0,1.4-.1,1.7-.1a11,11,0,0,1,1.1-1l.7-.6h1a14.86,14.86,0,0,0,3.6-.6c0-.1.1-.2,0-.3l-.3-3.3,3.3.2,3.4.3L189,166.2h1.6l2.1-6.4c-5.9-1.9-12.9-4.2-14.1-4.5h-.1a21.59,21.59,0,0,0-3.5-.3,19.47,19.47,0,0,1-3.2-.2c-.8-.1-1.6-.2-2-.2l-3.4.1.8-6.4,4,.3.4.2a28.64,28.64,0,0,0,5.6.5h1.3l.2-.8,2.1-.1c10-.3,14-.5,15.6-.6.1-.3.2-.6.4-1.1,2.8-8.5,6.7-35.4,7.9-43.6a90.88,90.88,0,0,0-9.1-1.4l-3.9-.5,1.6-3.5c1.1-2.5,2.6-19.5,2.4-27.1a51.62,51.62,0,0,0-6.6-2l.8-5.6a2,2,0,0,0,.8-.1,21.51,21.51,0,0,1,3.1-1,19.66,19.66,0,0,0,3.1-1.1,5.94,5.94,0,0,0-.8-.4c-1.7-.8-5.3,1.1-8.9,4.6l-.1.4h-.2l-.5,1.5c.1-.1.3-.2.4-.3l-.4,1.5c-.7-.1-1.4-.3-2.2-.4l-2.9-.5.6-2.9c.1-.2.1-.4.2-.6a23.92,23.92,0,0,1-1.3-2.1c-1.8-3-3.5-5.7-7-7.7a2.38,2.38,0,0,0-1.2-.4c-.1,0-.5,0-1,.6a5.61,5.61,0,0,0-1.3,3.5,9.89,9.89,0,0,0,2.4,3.2c1,0,2,.1,3,.2l-.5,5.6a41.34,41.34,0,0,0-6.1,0c-.9,2.6-2.4,8.1-4.7,19.3l-.1.7c-.1.3-.2.7-.3,1.1a8,8,0,0,0-.4,1.8c.2.1.3.2.5.2a84.19,84.19,0,0,0,13.3,4.8l-1,5.6c-2.2-.2-3.6-.3-3.9-.3-1,0-15.9-.4-22.2-.4h-2.2l-.8-1.7q-.75-1.65-1.8-3.6c-1.5-2.8-3-5.7-3.5-8.4-.2-1-.4-2.3-.6-4.1-.7-4.9-1.8-12.6-3.6-17.8-.2,0-.5.1-.7.1l-1-5.6c.8-.2,1.6-.3,2.4-.5,11.3-2.6,18.8-7.4,21.2-13.3,1.5-3.6.9-7.7-1.5-11.4-4.3-6.6-11-8.2-16-8.3a1.27,1.27,0,0,0,.1.6,29.39,29.39,0,0,1-3.9,20.3l-2.7,4.6L133.2,45l-.2-.8c-2.4-12.4-9.4-22.3-19.8-27.8-.1-.1-.2-.1-.3-.2a14.31,14.31,0,0,0-3.1-.2h-1.1l-.7-.4c-.7-.4-4.6-2.8-14.8-6.3A95.05,95.05,0,0,0,79.6,5.2l-.5-.1A44.69,44.69,0,0,0,63.5,2.6a67.9,67.9,0,0,0-32.2,8.2l-1.5.8c-.1.1-.2.1-.3.2-3.3,1.8-6,3.6-8.4,5.1l-.9.6c-2.3,1.5-4.5,3-6.4,4.4a75.82,75.82,0,0,0-8.2,6.2H11a104.35,104.35,0,0,0,12.5-.3h.2c4.3,0,7.5-.1,7.5-.1h3.3L34,31c-.5,3.7-1,7.5-1.4,11.3V43l-.4.6a.1.1,0,0,1-.1.1c-.2,3.6-1,19.8-.6,29v.8l-.4.8C32.6,91,37.7,97.5,39.3,99l.3.3,11.2,8.5-13.6-3.5a59.75,59.75,0,0,0-12.3-2c2.7,4.8,9.1,14.8,16.1,21.5,5.9,5.7,10.4,9,16.4,9a26.12,26.12,0,0,0,9.7-2.2l1.6-.6,1.3,1.1a58.11,58.11,0,0,0,13.5,8.1l8.4,3.7-9,1.7a25.3,25.3,0,0,0-13.6,8.1,15.72,15.72,0,0,0,2.3.4,34,34,0,0,0,17.6-3.3l4.9-2.2-.9,5.3c-.6,3.4-1,6.1-.7,8.4L94.1,176l-3.4-6.4c-2,11.1-3.1,27-3.4,35.4v1.9l-.3.2a13.22,13.22,0,0,0,.2,2.7l11.4,5.6-12.2-.5-5.7,10.2a21.94,21.94,0,0,0,5.6,1.9l-.5,3,1.7.6a19.68,19.68,0,0,1-2.1,4.4v.3l-.6.6L83,238.5l-.4-.4-2.8,2.8-2-2.4a2.18,2.18,0,0,0-.4-.5c-.1.1-.2.1-.3.2a22.64,22.64,0,0,1-4.7,2.7c-.4.1-.8.2-1.3.3l1,1.1-4.3,1.5s-.7.2-1.5.4c-.7,2.3-1.4,9.2-.5,16.8a14.43,14.43,0,0,0,.5,2.4c.4,1.4,1.5,4.8,6.7,6.6a8.85,8.85,0,0,1-2.7-3.9,12.73,12.73,0,0,1-.8-3.1,20.6,20.6,0,0,1,1.1-8.7c.6-1.4,1.8-5.1,2.1-6l.4-1.4,1.2-.4,3.4-1.7.5,3.9v.1a26.94,26.94,0,0,1,3.9-3.8c.8-.6,1.7-1.1,2.5-1.6.2-.1.3-.2.5-.3-.1-.1-.1-.2-.2-.3L83.7,241l1.4-1.6a12.65,12.65,0,0,0,1.8-2.7l.2-.3.2-.3a7.67,7.67,0,0,0,1.7-2.9,2.92,2.92,0,0,1-.9-.2l.9-5.6a31.63,31.63,0,0,0,3.2.3l3-.8v1a104,104,0,0,0,15.2-.8c4.3-.5,8.2-1.1,11.6-1.6l1.2-.2,1,.7c2.8,2,6.8,8.3,8.3,11l1.9,3.5-.8.1c.5,1.4,1.3,3.3,2,4.9l.7,1.8-1.3,1.3a11.51,11.51,0,0,0-1.4,1.7,14.46,14.46,0,0,0,.8,1.8,34.64,34.64,0,0,1,3.4,8.2Zm-62.8-2a15.74,15.74,0,0,0-.5,5.1,5.41,5.41,0,0,0,.4,1.5c.6,1.4.7,1.6,2.2,1.8a7.07,7.07,0,0,1-2-2.7,6.35,6.35,0,0,1,.1-5.4C75.9,257.5,75.8,257.4,75.7,257.3Zm59.6,8.2Zm-54-4.3Zm-1.4-.4Zm0-7.3Zm81.9-7.4Zm-2.1-2.4a1.85,1.85,0,0,0-.8.7.77.77,0,0,0-.1.9,1.68,1.68,0,0,0,.8.7.37.37,0,0,0,.3-.1A2.94,2.94,0,0,1,159.7,243.7Zm-23-21.4Zm21.5-5.4Zm11.2-3Zm.3-.3Zm9.2-58.4Zm-7.2-6.5Zm-14.5,15.7-5.6-.5h0c.1-.8.1-1.6.2-2.4l5.7.4A19,19,0,0,0,157.2,164.4Zm.4-5.6-5.7-.4h0c.1-1.1.2-2.2.2-3.1l5.7.4h0C157.8,156.6,157.7,157.6,157.6,158.8Zm.3-4.5-5.7-.4v-.6c.1-1.6.2-2.7.2-3.3h-1.3l-.6-1.5-11.7-2.4.4-2a8.74,8.74,0,0,1-.8-1c-.3-.3-.6-.7-.9-1l-4.9,2.6-3.7-.8v1.8l-1.9.7c-.3.1-1.3.4-2.8.8l-1.3-4.6-.7-.1.6-.2-.1-.4c.9-.3,1.7-.5,2.5-.8l2.9-1,2.5-1.1c8-3.4,13.3-7.5,16.4-12.7l4.2-7.1,1.1,8.2c1.2,9.3,2.8,15.8,3.9,18.8l1.3,3.6h.7C158.2,150.2,158.1,151.8,157.9,154.3Zm-13.4-12.8,4.7,1c-.5-2.3-1.1-4.8-1.5-7.6a32.16,32.16,0,0,1-5.2,4.3l.3.3C143.4,140.3,144.1,141,144.5,141.5ZM103.9,57.7c-1.1-.7-2.1-1.4-3.1-2.1l-4.3-3.3,7-2.2,1.1,1-.3-1.3A143.44,143.44,0,0,1,123.4,46c1.4-.1,2.6-.3,3.7-.3l.6,5.6c-6.9,1-17.8,3.2-22.1,4v-.2Z" transform="translate(2.02 3.1)" style="fill:#fff"/>
    </g>
    <path class="outline" d="M130.9,238.4Z" transform="translate(2.02 3.1)" style="fill: transparent"/>
</svg>