<svg id="Слой_1" data-name="Слой 1" xmlns="http://www.w3.org/2000/svg" viewBox="0 0 276.44 459.52" style="width: 5.93%">
    <g class="fir">
        <path d="M93.39,276.71a4,4,0,1,1,4-4,4,4,0,0,1-4,4m-3-11a9,9,0,1,0,9,9,9,9,0,0,0-9-9" transform="translate(3.22 6.12)" style="fill:#ff7800"/>
        <path d="M93.39,268.71a4,4,0,1,0,4,4,4,4,0,0,0-4-4" transform="translate(3.22 6.12)" style="fill:#ffebfd"/>
        <path d="M202.39,300.71a4,4,0,1,1,4-4,4,4,0,0,1-4,4m-3-11a9,9,0,1,0,9,9,9,9,0,0,0-9-9" transform="translate(3.22 6.12)" style="fill:#00f0ff"/>
        <path d="M202.39,292.71a4,4,0,1,0,4,4,4,4,0,0,0-4-4" transform="translate(3.22 6.12)" style="fill:#ffebfd"/>
        <path d="M157.39,383.71a4,4,0,1,1,4-4,4,4,0,0,1-4,4m-3-11a9,9,0,1,0,9,9,9,9,0,0,0-9-9" transform="translate(3.22 6.12)" style="fill:#00f0ff"/>
        <path d="M157.39,375.71a4,4,0,1,0,4,4,4,4,0,0,0-4-4" transform="translate(3.22 6.12)" style="fill:#ffebfd"/>
        <path d="M90.39,421.46h-12a9,9,0,0,0,11.9,0m-3-4.75a4,4,0,1,1,4-4,4,4,0,0,1-4,4m-3-11a9,9,0,0,0-6,15.75h12a9,9,0,0,0-6-15.75" transform="translate(3.22 6.12)" style="fill:#ff7800"/>
        <path d="M87.39,408.71a4,4,0,1,0,4,4,4,4,0,0,0-4-4" transform="translate(3.22 6.12)" style="fill:#ffebfd"/>
        <path d="M232.39,375.71a4,4,0,1,1,4-4,4,4,0,0,1-4,4m-3-11a9,9,0,1,0,9,9,9,9,0,0,0-9-9" transform="translate(3.22 6.12)" style="fill:#b856b0"/>
        <path d="M232.39,367.71a4,4,0,1,0,4,4,4,4,0,0,0-4-4" transform="translate(3.22 6.12)" style="fill:#e092da"/>
        <path d="M26.39,390.71a4,4,0,1,1,4-4,4,4,0,0,1-4,4m-3-11A9,9,0,0,0,15.7,384l-.21.35a9,9,0,1,0,7.9-4.68" transform="translate(3.22 6.12)" style="fill:#b856b0"/>
        <path d="M26.39,382.71a4,4,0,1,0,4,4,4,4,0,0,0-4-4" transform="translate(3.22 6.12)" style="fill:#e092da"/>
        <path d="M261.51,421.46H120.13L119.3,444l-98.12,1.6,6.3-24.13H9.26L.92,435.91A6.91,6.91,0,0,0,2,444.26a7.55,7.55,0,0,0,1.46,1.12,6.89,6.89,0,0,0,5.79.49H261l-.07-.23a7.06,7.06,0,0,0,3,.66,6.86,6.86,0,0,0,3.45-.92h0a6.9,6.9,0,0,0,2.51-9.43h0l-8.34-14.45M154.39,390.71a9,9,0,1,1,9-9,9,9,0,0,1-9,9m75-8a9,9,0,1,1,9-9,9,9,0,0,1-9,9m-30-75a9,9,0,1,1,9-9,9,9,0,0,1-9,9m-15-88a9,9,0,1,1,9-9,9,9,0,0,1-9,9m-16-87a9,9,0,1,1,9-9,9,9,0,0,1-9,9M135.39,0l-5.94,20.9-.14.48a7.12,7.12,0,0,0-.9,2.3l-2.08,3.65L94.22,83.62a6.92,6.92,0,0,0,2.53,9.44,6.77,6.77,0,0,0,3.4.91,7.07,7.07,0,0,0,1.3-.13L81.39,128.66a6.9,6.9,0,0,0,8,10l-.72,1.25L85,146.35,70.09,172.09a6.89,6.89,0,0,0,7.51,10.18l-1.92,3.33L55.62,220.35a6.9,6.9,0,0,0,6,10.37h.51L51.39,249.33l-1,1.63-6.48,11.3-2.77,4.79a6.9,6.9,0,0,0-.75,4.81,7.52,7.52,0,0,0,.5,1.52A6.89,6.89,0,0,0,50,276.73h0l-10.85,18.8-7.72,13.31a6.87,6.87,0,0,0,5.9,10.34h0l-8.86,15.35L20.15,349A6.9,6.9,0,0,0,31,357.36l-2.49,4.31L15.7,384a8.45,8.45,0,1,1-.21.35l-4,6.95L9,395.69a6.9,6.9,0,0,0,9.9,9.13l-7.39,12.8-2.22,3.84H27.48L115.6,83.87a9,9,0,0,1,3.79-17.16h.68L135.39,8,120.13,421.46H261.51l-9.61-16.64a6.9,6.9,0,0,0,9.91-9.13l-22.13-38.33A6.9,6.9,0,0,0,250.55,349L233.3,319.17h.09a6.87,6.87,0,0,0,5.93-10.34l-14.15-24.47-4.41-7.64a6.8,6.8,0,0,0,2.91.65,6.89,6.89,0,0,0,6-10.37l-2.8-4.74L220.39,251l-.94-1.63L208.69,230.7h.52a6.79,6.79,0,0,0,3.46-.94,6.89,6.89,0,0,0,2.51-9.42h0l-15.33-26.56-6.66-11.51a6.77,6.77,0,0,0,1.55.18,6.89,6.89,0,0,0,6-10.36l-13.19-22.82-1.64-2.84L182.13,140l-.72-1.25a6.79,6.79,0,0,0,2,.31,6.9,6.9,0,0,0,6-10.36l-20.1-34.82a7.07,7.07,0,0,0,1.3.13,6.77,6.77,0,0,0,3.4-.91h0a6.91,6.91,0,0,0,2.52-9.44l-2-3.52-8.85-15.53L144.45,27.33l-2.06-3.7a6.81,6.81,0,0,0-1-2.37l-.1-.35L135.39,0" transform="translate(3.22 6.12)" style="fill:#9da544"/>
        <path d="M120.13,421.46H90.39a9,9,0,0,1-11.9,0h-51l-6.3,24.13,98.12-1.6.83-22.53M90.39,283.71a9,9,0,1,1,9-9,9,9,0,0,1-9,9m12-81a9,9,0,1,1,9-9,9,9,0,0,1-9,9M135.39,8l-15.32,58.7a9,9,0,1,1-4.47,17.13L27.48,421.46h51a9,9,0,1,1,12.7-.8,10.06,10.06,0,0,1-.8.8h29.79L135.39,8" transform="translate(3.22 6.12)" style="fill:#70762b"/>
        <path d="M171.39,125.71a4,4,0,1,1,4-4,4,4,0,0,1-4,4m-3-11a9,9,0,1,0,9,9,9,9,0,0,0-9-9" transform="translate(3.22 6.12)" style="fill:#b856b0"/>
        <path d="M171.39,117.71a4,4,0,1,0,4,4,4,4,0,0,0-4-4" transform="translate(3.22 6.12)" style="fill:#e092da"/>
        <path d="M122.39,77.71a4,4,0,1,1,4-4,4,4,0,0,1-4,4m-3-11a9,9,0,0,0-3.79,17.16,8.88,8.88,0,0,0,3.79.84,9,9,0,1,0,.68-18h-.68" transform="translate(3.22 6.12)" style="fill:#00f0ff"/>
        <path d="M122.39,69.71a4,4,0,1,0,4,4,4,4,0,0,0-4-4" transform="translate(3.22 6.12)" style="fill:#ffebfd"/>
        <path d="M105.39,195.71a4,4,0,1,1,4-4,4,4,0,0,1-4,4m-3-11a9,9,0,1,0,9,9,9,9,0,0,0-9-9" transform="translate(3.22 6.12)" style="fill:#00f0ff"/>
        <path d="M105.39,187.71a4,4,0,1,0,4,4,4,4,0,0,0-4-4" transform="translate(3.22 6.12)" style="fill:#ffebfd"/>
        <path d="M187.39,212.71a4,4,0,1,1,4-4,4,4,0,0,1-4,4m-3-11a9,9,0,1,0,9,9,9,9,0,0,0-9-9" transform="translate(3.22 6.12)" style="fill:#ff7800"/>
        <path d="M187.39,204.71a4,4,0,1,0,4,4,4,4,0,0,0-4-4" transform="translate(3.22 6.12)" style="fill:#ffebfd"/>
    </g>
    <path class="outline" d="M263.48,453.4a9.72,9.72,0,0,1-2.88-.44H9.32a9.77,9.77,0,0,1-7.66-.86,10.08,10.08,0,0,1-2.07-1.59,9.79,9.79,0,0,1-1.52-11.72L12.94,413A9.74,9.74,0,0,1,6.55,409a9.76,9.76,0,0,1-.42-10.42l18.53-32.1a9.62,9.62,0,0,1-5.7-2.75,9.72,9.72,0,0,1-1.57-11.8l15.36-26.62a9.69,9.69,0,0,1-4.1-13.6L44.5,284.23a9.73,9.73,0,0,1-6.61-5.37,10,10,0,0,1-.71-2.14,9.7,9.7,0,0,1,1.12-6.85l19-32.86a9.74,9.74,0,0,1-4.48-13.8L72.5,189.05l0,0a9.68,9.68,0,0,1-6.27-7,9.66,9.66,0,0,1,1.07-7.1l16.87-29.21a9.73,9.73,0,0,1-5.61-14.21l17.91-31a9.5,9.5,0,0,1-1.48-.7,9.76,9.76,0,0,1-3.57-13.31l34-59.56a9.76,9.76,0,0,1,.94-2.38L135-6.12,143.6,24.4a10.22,10.22,0,0,1,1,2.47l34,59.64a9.73,9.73,0,0,1-3.57,13.29l-.36.2a11.23,11.23,0,0,1-1.12.5l17.91,31a9.72,9.72,0,0,1-3.54,13.3,10,10,0,0,1-2.07.9L202.74,175a9.73,9.73,0,0,1-3.5,13.29,10.14,10.14,0,0,1-1.74.8l19.72,34.17a9.71,9.71,0,0,1-3.52,13.3,8.89,8.89,0,0,1-1,.5l19,32.85a9.72,9.72,0,0,1-3.53,13.3,9.49,9.49,0,0,1-2.67,1.06l15.85,27.47A9.71,9.71,0,0,1,237.87,325c-.2.12-.41.23-.62.33l15.37,26.61a9.75,9.75,0,0,1-3.54,13.3,9.58,9.58,0,0,1-3.74,1.25l18.54,32.1a9.74,9.74,0,0,1-3.53,13.3,9.57,9.57,0,0,1-3.29,1.19l14.85,25.73a9.74,9.74,0,0,1-8.43,14.62ZM256,444.62l5.73,2.72a4.14,4.14,0,0,0,3.78-.16,4.07,4.07,0,0,0,1.5-5.56h0l-24.3-42.1,10.43,7.26a4.13,4.13,0,0,0,4.37.18A4.07,4.07,0,0,0,259,401.4L225.84,344l15.46,15.62a4.13,4.13,0,0,0,4.93.66,4.08,4.08,0,0,0,1.48-5.56l-19.85-34.37,5.18.25a4.12,4.12,0,0,0,2-.56,4,4,0,0,0,1.44-5.52l-23-39.9,8.15,3.79a4.08,4.08,0,0,0,3.75-.17,4.07,4.07,0,0,0,1.48-5.55l-23.66-41,5.37.42a4.07,4.07,0,0,0,4.23-3,4.12,4.12,0,0,0-.42-3.09l-25.24-43.72,6.35,1.46a4.05,4.05,0,0,0,2.95-.45,4,4,0,0,0,1.46-5.54L175,138.16l6.91,2.13a4.09,4.09,0,0,0,3.23-.36,4.07,4.07,0,0,0,1.49-5.56L163.37,94.16l6.1,1.19a4,4,0,0,0,2.74-.46l.12-.06a4.09,4.09,0,0,0,1.38-5.5l-34.45-60.4-.09-.45a4.11,4.11,0,0,0-.57-1.41l-.24-.36L135,14.7l-3.45,12.12-.21.34a4.1,4.1,0,0,0-.53,1.36l-.09.45L96.29,89.31a4.08,4.08,0,0,0,1.49,5.58,4,4,0,0,0,2.74.46l6.1-1.19-23.2,40.21a4.06,4.06,0,0,0,3.51,6.11,3.87,3.87,0,0,0,1.21-.19l6.93-2.16L72.15,177.8a4.06,4.06,0,0,0,4.42,6l6.35-1.47L57.69,226.06a4.06,4.06,0,0,0,3.8,6.1l5.34-.39L43.21,272.71a4,4,0,0,0-.47,2.87,4.21,4.21,0,0,0,.29.89,4.06,4.06,0,0,0,5.4,2l8.15-3.8-23,39.9a4.13,4.13,0,0,0-.56,2.08,4.05,4.05,0,0,0,4,4l5.16-.28L22.3,354.75a4,4,0,0,0,.65,4.93,4.08,4.08,0,0,0,4.28.92,3.88,3.88,0,0,0,1.46-1L44.16,344,11,401.4a4.09,4.09,0,0,0,.18,4.35,3.92,3.92,0,0,0,1.3,1.2,4.11,4.11,0,0,0,4.36-.17l10.37-7.18L3,441.62a4.07,4.07,0,0,0,.63,4.9,4.38,4.38,0,0,0,.87.67,4.06,4.06,0,0,0,3.39.28l.47-.18H256.79Z" transform="translate(3.22 6.12)" style="fill: transparent"/>
</svg>