<svg id="Слой_1" data-name="Слой 1" xmlns="http://www.w3.org/2000/svg" viewBox="0 0 695.29 274.67" style="width: 14.95%">
    <g class="formwork">
        <path d="M629.36,165.89c-9.88,1.63-19.84,2.83-29.82,3.61h0c10-.78,19.94-2,29.82-3.61m14.1-3.19a82.79,82.79,0,0,1-13,3l-.53.08.53-.08a82.79,82.79,0,0,0,13-3h0m-412-9.2h-162v.38L36,167.27l-4.57,2.23h200v-16m7,0h0v0m249,0h-138v.38L316,167.27l-4.58,2.23h-7v0H487a106.19,106.19,0,0,1,.47-16" transform="translate(51.83 12.83)" style="fill:#c9c9c9"/>
        <path d="M487,230.75l-.7.38.7-.38m76-12.53h0m-.8,0c-32.27,0-58.88,4-86.44,31.21,27.56-27.22,54.17-31.2,86.44-31.21m.07,0h0m45.85-3.56.78.12-.78-.12m-37-2.73c-29.41,0-59.27,5.39-84,18.75,24.72-13.36,54.58-18.74,84-18.75m.08,0h0m1.37-13.6h0m70.91-6.11c-19.39,4.34-47,5.89-66.69,6.08,19.7-.19,47.3-1.74,66.69-6.08h0M572,170.57h0M487,169.5H304.46v9h-66v-9h-214v9h-66v80H450.79a121.69,121.69,0,0,1,16.83-18.4,133.06,133.06,0,0,1,34.2-21.87c23.29-10.47,50.79-15.79,80.42-15.79,21,0,41.73,1.78,61.22,6.1h0c-19.49-4.32-40.26-6.1-61.22-6.1-29.63,0-57.13,5.32-80.42,15.79,0,0-5.8-6.21-11.74-28.68A96,96,0,0,1,487,169.5m57.75,0h0c1.7.15,3.4.27,5.09.38l1.93.11-1.93-.11c-1.69-.11-3.39-.23-5.09-.38m54.76,0h0q-13.71,1.06-27.47,1.07,13.75,0,27.47-1.07" transform="translate(51.83 12.83)" style="fill:#a1a1a1"/>
        <polyline points="71.29 24.33 63.29 24.33 63.29 40.33 71.29 40.33 71.29 24.33" style="fill:#636363"/>
        <polyline points="35.29 2.33 27.29 2.33 27.29 40.33 35.29 40.33 35.29 2.33" style="fill:#636363"/>
        <polyline points="99.29 14.33 91.29 14.33 91.29 40.33 99.29 40.33 99.29 14.33" style="fill:#636363"/>
        <polyline points="352.29 24.33 344.29 24.33 344.29 40.33 352.29 40.33 352.29 24.33" style="fill:#636363"/>
        <polyline points="316.29 2.33 308.29 2.33 308.29 40.33 316.29 40.33 316.29 2.33" style="fill:#636363"/>
        <polyline points="380.29 14.33 372.29 14.33 372.29 40.33 380.29 40.33 380.29 14.33" style="fill:#636363"/>
        <polyline points="115.33 101.08 113.29 101.1 76.29 101.33 76.29 182.33 83.29 182.33 87.87 180.1 82.29 182.33 82.29 101.33 115.33 101.12 115.33 101.08" style="fill:#99846b"/>
        <polyline points="121.32 101.08 115.33 101.12 82.29 101.33 82.29 182.33 87.87 180.1 121.32 166.71 121.32 166.33 121.32 139.89 121.32 101.08" style="fill:#c0a88b"/>
        <polyline points="76.29 40.33 71.29 40.33 63.29 40.33 35.29 40.33 27.29 40.33 10.29 40.33 10.29 101.33 10.29 191.33 76.29 191.33 76.29 182.33 76.29 101.33 76.29 40.33" style="fill:#a1a1a1"/>
        <polyline points="393.29 40.33 380.29 40.33 372.29 40.33 356.29 40.33 356.29 171.01 356.29 171.01 356.29 101.33 393.29 101.1 393.29 40.33" style="fill:#818181"/>
        <polyline points="395.33 101.08 393.29 101.1 356.29 101.33 356.29 171.01 356.29 181.13 356.29 182.33 363.29 182.33 367.87 180.1 362.29 182.33 362.29 101.33 395.33 101.12 395.33 101.08" style="fill:#99846b"/>
        <polyline points="401.33 101.08 395.33 101.12 362.29 101.33 362.29 182.33 367.87 180.1 401.33 166.71 401.33 166.33 401.33 101.08" style="fill:#c0a88b"/>
        <polyline points="290.26 101.28 283.29 101.33 283.29 163.19 283.29 166.33 283.29 182.33 290.29 182.33 290.29 166.33 290.29 164.08 290.26 101.28" style="fill:#99846b"/>
        <polyline points="10.26 101.3 8.11 101.33 10.26 101.33 10.26 101.3" style="fill:#99846b"/>
        <polyline points="10.29 101.33 10.29 101.33 10.26 101.33 8.11 101.33 3.29 101.33 3.29 101.4 3.29 271.33 10.29 271.33 10.29 191.33 10.29 101.33" style="fill:#99846b"/>
        <path d="M30,57.5a5.5,5.5,0,1,0,5.5,5.5A5.5,5.5,0,0,0,30,57.5" transform="translate(51.83 12.83)" style="fill:#fff"/>
        <path d="M265,157.5a5.5,5.5,0,1,0,5.5,5.5,5.5,5.5,0,0,0-5.5-5.5" transform="translate(51.83 12.83)" style="fill:#fff"/>
        <polygon points="352.29 40.33 344.29 40.33 316.29 40.33 308.29 40.33 290.29 40.33 290.29 164.08 290.29 166.33 290.29 182.33 290.29 191.33 356.29 191.33 356.29 182.33 356.29 181.13 356.29 171.01 356.29 40.33 352.29 40.33" style="fill:#a1a1a1"/>
        <path d="M47.49,27.5h-23V54.07h0V75.86h0V88.5l37-.24V27.5Z" transform="translate(51.83 12.83)" style="fill:#818181"/>
    </g>
    <path class="outline" d="M451.76,261.83H-51.83V86.23l2.83-.07h4.17v-61h17v-38h13.67v38H8.17v-16H21.83v16H36.17v-26H49.84v26h14V85.91h2v0l6,0v65.26h156.3v-65l7,0v-61h18v-38h13.66v38h22.34v-16h13.67v16h14.33v-26h13.67v26h13V85.91h2v0l6,0v65.26H490.19l-.33,3.13a104.48,104.48,0,0,0-.46,15.58,93.16,93.16,0,0,0,3,19.46h0c5.6,21.15,11,27.42,11.1,27.49L506,219.7l-3.5,1.61A130.83,130.83,0,0,0,469,242.71a119.5,119.5,0,0,0-16.43,18Zm-497.92-5.67H448.92a125.28,125.28,0,0,1,16.35-17.68,135.28,135.28,0,0,1,31.85-20.91c-2.36-3.89-6.31-11.94-10.24-26.79a99.05,99.05,0,0,1-3.14-20.65,107.64,107.64,0,0,1,.2-13.3H346.2V91.6l-6,0v0l-2,0V30.84h-13v-26h-2.33v26H297.17v-16h-2.33v16H261.17v-38h-2.33v38h-18v126h-5.66v-5.09l0-59.94h-1.29v65H66.2V91.6l-6,0v0l-2,0V30.84h-14v-26H41.84v26H16.17v-16H13.83v16H-19.83v-38h-2.33v38h-17v61h-7Z" transform="translate(51.83 12.83)" style="fill: transparent"/>
</svg>