<svg id="Слой_1" data-name="Слой 1" xmlns="http://www.w3.org/2000/svg" viewBox="0 0 700.74 336.67" style="width: 14.94%">
    <g class="gorka">
        <path d="M419.63,0h-5c6.48,0,11.73,7.16,11.73,16L488,315c0,4.95-3,9.37-7.79,12.31v0h-.18a26.64,26.64,0,0,1-13.64,3.59h5c11.93,0,21.6-7.16,21.6-16l-1.64-8-31.77-154h0l-10.25-49.66-4.49-21.77-.13-.63L431.36,16a21.5,21.5,0,0,0-.43-4.31C429.55,5,425,0,419.63,0" transform="translate(207.71 0.33)" style="fill:#7e5c38"/>
        <path d="M469.72,326h-62.6a25.58,25.58,0,0,1-15.69,5h75a26.63,26.63,0,0,0,13.63-3.59l-9.6,2.07-.75-3.48m-5.63-26H409.94L413,315a12.31,12.31,0,0,1-1.07,5h56.46l-4.33-20m-5.2-24H405l3.71,18h54.09l-3.9-18m-5.63-26H399.62l4.13,20h53.84l-4.33-20M447,221H393.64l4.75,23H452l-5-23m-5.63-26H388.28l4.13,20h53.27l-4.33-20m-5.84-27h-52.8L387,189h53l-4.55-21m-5.63-26H377.35l4.12,20h52.74l-4.33-20m-6.28-29H371.37l4.74,23h52.47l-5-23M418,87H366.06l4.12,20h52.17L418,87M414.68,0h-75c6.48,0,11.73,7.16,11.73,16l13.41,65h61.24v1.33l1.11-.24,53.07,245.24C485,324.39,488,320,488,315L426.36,16c0-8.84-5.25-16-11.73-16h0" transform="translate(207.71 0.33)" style="fill:#af9d3f"/>
        <path d="M426.06,81H364.77L366,87h52l4.33,20H370.13l1.24,6H423.6l5,23H376.11l1.24,6h52.53l4.33,20H381.47l1.24,6h52.8l4.55,21h-53l1.24,6h53.07l4.33,20H392.41l1.23,6H447l5,23H398.39l1.23,6h53.64l4.33,20H403.75l1.24,6h53.9l3.9,18H408.7l1.24,6h54.12l4.33,20H412a16.05,16.05,0,0,1-4.84,6h62.6l.75,3.48,9.6-2.07h.18v-.08L427.15,82.14l-1.09.19V81" transform="translate(207.71 0.33)" style="fill:#7e5c38"/>
        <path d="M339.63,0h-5c6.48,0,11.73,7.16,11.73,16L408,315c0,8.84-9.67,16-21.6,16h5a25.58,25.58,0,0,0,15.69-5,16.05,16.05,0,0,0,4.84-6,12.31,12.31,0,0,0,1.07-5l-3.09-15-1.24-6L405,276l-1.24-6-4.13-20-1.23-6-4.75-23-1.23-6-4.13-20L387,189l-4.33-21-1.24-6-4.12-20-1.24-6-4.74-23-1.24-6L366,87l-1.24-6L351.36,16c0-8.84-5.25-16-11.73-16h0" transform="translate(207.71 0.33)" style="fill:#7e5c38"/>
        <path d="M334.63,0H211.43C205,0,199.7,7.16,199.7,16l-2.34,11.33-.3,1.33-8.48,41.1-.65,3.15L185.4,85.18l-1.07,5.21-14.1,68.36L170,160,139,310.33,138,315c0,8,7.92,14.62,18.26,15.81Q187.6,329.06,219,329h1.74c24.5,0,49.52.71,75,2H386.4c11.93,0,21.6-7.16,21.6-16L346.33,16c0-8.84-5.25-16-11.73-16h0" transform="translate(207.71 0.33)" style="fill:#ceb85f"/>
        <path d="M236.66,51.18h35.69l5.58-26.85H238.57s-7.91,3.6-8.87,6.43-2.34,6-2,8.34S236.66,51.18,236.66,51.18Z" transform="translate(207.71 0.33)" style="fill:#fff"/>
        <path d="M234.67,51.48S224.92,48,225,37.8s9.25-13.47,13.69-13.47,1,.06,1,.06-7.25,1.27-9.75,10.81,7.93,15.5,9.68,15.94S234.67,51.48,234.67,51.48Z" transform="translate(207.71 0.33)" style="fill:#81572e"/>
        <path d="M277.91,24.39l-5.63,26.94,42.26.17.49-1.71s-7.46-7.63-7.46-9.88,3.29-10,3.29-10l5.08-5.25Z" transform="translate(207.71 0.33)" style="fill:#b8a535"/>
        <path d="M313.27,51.33a10.71,10.71,0,0,0,8.25-4.54c3.21-4.59,7.5-15.17-5.71-22.09a58.59,58.59,0,0,0-8,6.92,25.09,25.09,0,0,0,.38,7.08c.79,3,.75,4.84,1.91,6.25S313.27,51.33,313.27,51.33Z" transform="translate(207.71 0.33)" style="fill:#fff"/>
        <path d="M314.42,51.48s-9.75-3.5-9.69-13.68c0-8,5.79-11.81,10.39-13a3.13,3.13,0,0,1,1.6.67c-2.33,1.28-5.55,4-7,9.76-1.93,7.33,3.79,12.55,7.33,14.77C317.11,50.68,314.42,51.48,314.42,51.48Z" transform="translate(207.71 0.33)" style="fill:#81572e"/>
        <path d="M358.63,51.49l35.87-.06s10.37-3.25,10.06-14.13-9.5-13-11.19-13c-1.51.09-40.31,0-40.31,0Z" transform="translate(207.71 0.33)" style="fill:#fff"/>
        <path d="M16,298.51c-11.47,4.92-26.39,7.69-47,7.69H-169l-28.11,12.33H-62.8c35.74,0,60.39-7.22,78.76-20M156,120.24h-22.3C108,150.93,87.85,197,65.33,251.28c-17.08,41.18-43.63,61-67.77,70.32a172.49,172.49,0,0,0,31-11.16c26.29-12.5,53-34.12,68.52-71.49C109.41,209.24,121,182,133.22,158.39l.72-1.38.72-1.38A312.4,312.4,0,0,1,156,120.24m29.67-36.57c-20.23,6-37,18.69-52,36.57H156q2.16-3,4.36-5.94a145.66,145.66,0,0,1,24.24-25.43l1.07-5.2m3.18-15.42a150,150,0,0,0-14,6.85,83,83,0,0,1,13.32-3.7l.65-3.15" transform="translate(207.71 0.33)" style="fill:#736357"/>
        <path d="M133.65,120.24H116.52a205.38,205.38,0,0,0-21.6,35.39L94.26,157c-.2.41-.4.83-.59,1.24q-1,2.2-2.06,4.48C65,222.17,53.76,272.17,16,298.51c-18.37,12.8-43,20-78.76,20h-138l3,9.31.25.77H-58.42a85.82,85.82,0,0,0,13.22.87A119.91,119.91,0,0,0-2.44,321.6c24.14-9.32,50.69-29.14,67.77-70.32C87.85,197,108,150.93,133.65,120.24m54.5-48.84a83,83,0,0,0-13.32,3.7,105.59,105.59,0,0,0-14.52,6.58,120.43,120.43,0,0,0-10.56,6.48,134.08,134.08,0,0,0-17.16,14,159.58,159.58,0,0,0-16.07,18h17.13c14.94-17.88,31.74-30.54,52-36.57l2.53-12.27" transform="translate(207.71 0.33)" style="fill:#a1a1a1"/>
    </g>
    <path class="outline" d="M468.59,336.33H292.78c-26-1.32-51.24-2-74.84-2H216.2c-20.21,0-41.27.63-62.59,1.8h-.24l-.24,0c-12-1.39-20.77-9.22-20.77-18.63v-.29l1-4.93,43.68-211.8A151.84,151.84,0,0,0,159.54,120c-1.44,1.88-2.88,3.85-4.3,5.86A308.87,308.87,0,0,0,134.14,161l-1.43,2.75c-12.67,24.52-24.74,53.13-36,80.34-13.62,32.83-37.14,57.38-69.92,73A175.18,175.18,0,0,1-4.6,328.31a123.05,123.05,0,0,1-43.63,8,91.47,91.47,0,0,1-13.44-.87h-140.9l-5.14-15.75h7l28.11-12.33H-34.07c19,0,34-2.41,45.62-7.35,27.72-19.45,40.67-51.81,57.06-92.74C74,193.93,79.48,180.13,86,165.58c.69-1.54,1.38-3,2.08-4.53l1.27-2.65a209.06,209.06,0,0,1,21.89-35.87,163.91,163.91,0,0,1,16.36-18.37,138.89,138.89,0,0,1,17.52-14.33,124,124,0,0,1,10.81-6.63,108.94,108.94,0,0,1,14.69-6.68c4.12-2.28,8.37-4.39,12.68-6.27L194,18.2C194.15,8,200.64-.33,208.59-.33h208.2c6.61,0,12.4,5.74,14.08,14a23.86,23.86,0,0,1,.49,4.57l61.67,299v.29C493,327.89,482.07,336.33,468.59,336.33ZM293,330.67H468.59c10.22,0,18.56-5.76,18.77-12.9l-61.67-299V18.5a19.28,19.28,0,0,0-.37-3.74c-1.14-5.55-4.64-9.43-8.53-9.43H208.59c-4.82,0-8.89,6-8.89,13.17v.29l-11.45,55.5-1.36.58a149.78,149.78,0,0,0-13.71,6.71l-.41.19a104.14,104.14,0,0,0-14.13,6.41,119,119,0,0,0-10.31,6.33,133.1,133.1,0,0,0-16.8,13.74A158.12,158.12,0,0,0,115.74,126a203.69,203.69,0,0,0-21.29,34.9l-1.24,2.59c-.69,1.45-1.36,2.92-2,4.43-6.47,14.44-12,28.19-17.3,41.49-16.12,40.28-30,75.06-59.32,95.46l-.24.16-.26.12c-12.43,5.33-28.17,7.92-48.12,7.92H-171.45l-28.11,12.33h-.34l1.44,4.41H-61.2l.24,0a83.84,83.84,0,0,0,12.73.83A117.29,117.29,0,0,0-6.48,323l.31-.1a169.21,169.21,0,0,0,30.5-11c31.47-15,54.05-38.52,67.12-70,11.33-27.32,23.45-56,36.22-80.78l1.45-2.77a314.2,314.2,0,0,1,21.49-35.72c1.46-2.06,2.94-4.08,4.42-6a147,147,0,0,1,24.72-25.91l6.14-4.94L138,317.77c.19,6.21,6.78,11.61,15.51,12.7,21.34-1.17,42.42-1.78,62.65-1.8h1.75C241.62,328.67,266.87,329.34,293,330.67Z" transform="translate(207.71 0.33)" style="fill: transparent"/>
</svg>