<svg xmlns="http://www.w3.org/2000/svg" viewBox="0 0 356.09 322.2" style="width: 7.58%">
    <g class="horse">
        <path d="M341.5,68.36a6.57,6.57,0,1,0,6.32,4.74,6.56,6.56,0,0,0-6.32-4.74" transform="translate(3.83 2.19)" style="fill:#fff"/>
        <path d="M299.8,174a5.5,5.5,0,1,0,5.5,5.5h0a5.5,5.5,0,0,0-5.5-5.5" transform="translate(3.83 2.19)" style="fill:#fff"/>
        <path d="M15.44,235.7a14.92,14.92,0,0,0-6.85,1.56,4.81,4.81,0,0,1,1.07-.12c1.78,0,4,.89,7.4,2.93,6.49,3.89,16.25,10.38,16.25,10.38a22.2,22.2,0,0,0,4.47-3.67c-3.33-2.19-9.29-6.06-13.72-8.71a16.64,16.64,0,0,0-8.62-2.37m322.73-.79a21.27,21.27,0,0,0-6,2.08,10.61,10.61,0,0,1,7.59,4.88c2.18,3.58,3.82,34.54-.46,37.46a276.64,276.64,0,0,1-60,36.63l2.27.07a277,277,0,0,0,64.72-38.7c4.28-2.92,2.64-33.88.46-37.46a10.62,10.62,0,0,0-8.58-5h0M143.91,168.76s-1.4,2.29-5.87,8.57S110.6,192.7,98.59,199c-17.39,9.1-22.06,26.58-23.29,40.61A54.59,54.59,0,0,1,66.73,264s45.71,28.23,111.93,29.79h3.51c19.41,0,38-3.72,54-8.58a182.52,182.52,0,0,1-47,6.58h-3.51C119.44,290.22,73.73,262,73.73,262a54.59,54.59,0,0,0,8.57-24.37c1.23-14,5.9-31.47,23.29-40.61,12-6.31,35-15.42,39.45-21.68,1.37-1.92,2.45-3.47,3.29-4.69-2.82-1.09-4.42-1.88-4.42-1.88M219.28,167s-3.47,2.52-11,5.05a74.35,74.35,0,0,0,12.34-4c-.85-.68-1.3-1-1.3-1M78.08,116.46c-6.24,0-17.91,7.34-16.32,25.67-.23.16-.49.31-.76.46,3.33-.51,6.08-1.31,7.76-2.46-1.12-12.91,4.34-20.37,9.85-23.65a4.69,4.69,0,0,0-.53,0M61.81,93.22a42.06,42.06,0,0,0-12,1.78c-1.06.31-2.08.65-3.06,1a41.1,41.1,0,0,1,8.06-.8c18.29,0,29.52,12.61,29.52,12.61a32.75,32.75,0,0,1,3.85-4.92A42,42,0,0,0,61.81,93.2m63.37-5.63a39.78,39.78,0,0,0-14.59,2.7,40.22,40.22,0,0,1,7.59-.7c1.31,0,2.67.06,4.06.19,25.62,2.31,42.35,6.77,52.2,6.77h.16a45.11,45.11,0,0,0,13.73-2.83,33.85,33.85,0,0,1-6.73.83h-.16c-9.85,0-26.59-4.46-52.2-6.77-1.39-.13-2.75-.19-4.06-.19M272.54,79c-2.76,0-5.87,1.78-8.13,8.54-3.68,11,1.76,26-6.32,41.52s-9.92,26.59-9,29.34c.42,1.31,12.36,24.68,26.63,46,15.7,23.51,33.85,45.14,33.85,45.14s2.41-1.6,5.63-3.66c-4.51-5.47-19.35-23.82-32.48-43.48-14.27-21.35-26.21-44.72-26.63-46-.9-2.75.94-13.87,9-29.34s2.64-30.54,6.32-41.52a17.38,17.38,0,0,1,3.29-6.21,7.91,7.91,0,0,0-2.16-.33m36.1-16.28S307.13,74,305,78s-1.67,10.16-1.8,16.25c-.11,4.93.85,11.73-6,15.27l.81-.12c13.55-2.15,12.06-11.06,12.19-17.15S309.93,80,312,76c1.54-2.94,2.76-9.81,3.3-13.27-1.51,0-2.69.07-3.62.07a17.5,17.5,0,0,1-3.07-.14m15.53-.43h-.47l.3.06.17-.09m-1.4-6a57.25,57.25,0,0,1,1.67,5.89A16.34,16.34,0,0,1,327.21,61a15.53,15.53,0,0,1-4.42-4.71M290.44,13.11h-7.36a58,58,0,0,1,12.77,4.29,56,56,0,0,1-5.41-4.29M275.07,9.35c-1.81,0-3.62.09-5.42.27a55.1,55.1,0,0,0-13.16,3,55,55,0,0,1,11.58-1.23,57.51,57.51,0,0,1,6.29.35,80.37,80.37,0,0,1,8.72,1.41h7.36a17.25,17.25,0,0,1-2-2.35q-3.1-.62-6.7-1h-.35a57.51,57.51,0,0,0-6.29-.35" transform="translate(3.83 2.19)" style="fill:#88643f"/>
        <path d="M208.24,172c7.57-2.53,11-5.05,11-5.05s.45.33,1.3,1c3.43,2.76,13.34,11.28,26.23,27,16.08,19.59,16.79,19.83,21.21,32.49s8,16.14,9,16.7,9.93,19,9.93,19a232.05,232.05,0,0,1-50.81,22.15c-16,4.86-34.59,8.58-54,8.58h-3.51C112.44,292.22,66.73,264,66.73,264a54.59,54.59,0,0,0,8.57-24.37c1.23-14,5.9-31.47,23.29-40.61,12-6.31,35-15.42,39.45-21.68s5.87-8.57,5.87-8.57,1.6.79,4.42,1.88a90.13,90.13,0,0,0,31.46,6.14q3.51,0,7-.35A99.59,99.59,0,0,0,208.25,172M268.06,11.35a55.33,55.33,0,0,0-11.62,1.23,57.94,57.94,0,0,0-12.6,4.33c-8.44,4-16.11,10-23.11,17.11h0q-1.2,1.21-2.37,2.49a44.93,44.93,0,0,0-3.7,4.56c-11.3,15.9-10.81,36.31-10.3,43.73-2.49,2.88-9.07,6.46-16.05,8.91a45.11,45.11,0,0,1-13.73,2.83h-.14c-9.85,0-26.58-4.46-52.2-6.77-1.39-.13-2.75-.19-4.06-.19a40.19,40.19,0,0,0-30,13.32,33.26,33.26,0,0,0-3.85,4.92S73.1,95.22,54.81,95.22a41.1,41.1,0,0,0-8.06.8,39.27,39.27,0,0,0-3.94,1C17.55,104.45,15,130.08,17.08,141.25c3,2.29,15,4.06,26.05,4.06,7.35,0,14.28-.78,17.87-2.7.27-.15.53-.3.76-.46-1.59-18.33,10.08-25.67,16.32-25.67a4.69,4.69,0,0,1,.53,0,5,5,0,0,1,1.66.38c-6.34,19.64,4.57,45.84,5,48.29s-20,22.69-23.92,27.08-4.76,8-4.51,15.34-.19,5.17-6.4,10.84-7.41,10.7-8.08,19a15.73,15.73,0,0,1-4.56,9.42,22.2,22.2,0,0,1-4.47,3.67S23.57,244,17.08,240.07c-3.39-2-5.62-2.93-7.4-2.93a4.81,4.81,0,0,0-1.07.12,7.35,7.35,0,0,0-3.26,1.91c-3,2.69-6.52,36.73-5,37.91a288,288,0,0,0,63.79,39.44Q81.66,316,99,315.36c25-1,49.6-1.35,73.77-1.35,36.78,0,72.48.89,106.57,2a276.64,276.64,0,0,0,60-36.63c4.28-2.92,2.64-33.88.46-37.46a10.61,10.61,0,0,0-7.59-4.88c-.33,0-.66-.07-1-.08h0c-1.65,0-10.17,5.25-16,9-3.22,2.06-5.63,3.66-5.63,3.66s-18.11-21.7-33.85-45.21c-14.27-21.35-26.21-44.72-26.63-46-.9-2.75.94-13.87,9-29.34s2.64-30.54,6.32-41.52c2.26-6.76,5.37-8.54,8.13-8.54a7.91,7.91,0,0,1,2.16.33,13.49,13.49,0,0,1,2.35,1c3.06,1.6,1.62,9.17,1.81,16.7.17,6.76-1.07,14.76,8.49,14.76a24,24,0,0,0,3.69-.32,20.64,20.64,0,0,0,6.19-1.88c6.85-3.54,5.89-10.34,6-15.27.13-6.09-.3-12.24,1.8-16.25s3.61-15.34,3.61-15.34a17.5,17.5,0,0,0,3.07.14c.93,0,2.11,0,3.62-.07,2.1-.08,4.83-.22,8.37-.47h.74v-.12a59.21,59.21,0,0,0-1.65-5.86c-3.84-5.66-8-15-13.41-23.78-5.21-8.47-9.75-12.26-13.53-15.09a58.23,58.23,0,0,0-12.77-4.38h0a80.37,80.37,0,0,0-8.72-1.41,57.51,57.51,0,0,0-6.29-.35" transform="translate(3.83 2.19)" style="fill:#dd5227"/>
        <path d="M335.24,13.11H317.79q1.69,1.94,3.36,4.22c10,13.74,16,25,15.78,33.39a4.64,4.64,0,0,1,.07.64c.29,5.88.22,10.49,1,14a10.31,10.31,0,0,0,1.68,3.26,6.56,6.56,0,0,1,1.82-.26,6.76,6.76,0,0,1,1.84.26c1.93-2.24,4.18-8.45,6.42-22.68.08-.52.16-1,.24-1.58a33.61,33.61,0,0,0-.11-11.45,26.46,26.46,0,0,0-1.7-5.56c-2.67-6.24-7.45-10.82-12.95-14.24M307,3.85a44.89,44.89,0,0,1,10.83,9.26h17.45a54.36,54.36,0,0,0-8.71-4.33,83.41,83.41,0,0,0-17.16-4.57c-.86-.14-1.67-.26-2.41-.36" transform="translate(3.83 2.19)" style="fill:#dd5227"/>
        <path d="M317.79,13.11H290.44a56,56,0,0,0,5.41,4.29c3.78,2.83,8.32,6.62,13.53,15.09,5.44,8.83,9.57,18.12,13.41,23.78A15.53,15.53,0,0,0,327.21,61a4.46,4.46,0,0,0,2.27.68,5.56,5.56,0,0,0,3.89-2A12.58,12.58,0,0,0,337,50.73c.17-8.35-5.77-19.65-15.78-33.39q-1.67-2.28-3.36-4.22M294.62,0C288.15,0,284.55,4,287.3,9a16.36,16.36,0,0,0,1.11,1.77,17.25,17.25,0,0,0,2,2.35h27.37A44.89,44.89,0,0,0,307,3.87c-1.06-.62-2.1-1.16-3.12-1.63a25.88,25.88,0,0,0-5-1.71A18.91,18.91,0,0,0,294.59,0" transform="translate(3.83 2.19)" style="fill:#fff"/>
    </g>
    <path class="outline" d="M62.61,320l-.59-.26A291.07,291.07,0,0,1-2.4,279.92c-1.2-.9-1.35-2.47-1.42-4.12-.18-5.06,2-34.33,6.29-38.11a10.62,10.62,0,0,1,4.13-2.45,17.87,17.87,0,0,1,7.86-1.73,19.67,19.67,0,0,1,10.08,2.77c3.67,2.2,8.35,5.21,11.7,7.39a11.66,11.66,0,0,0,2.29-5.9c.73-9,2.33-14.65,9-20.81,1.63-1.49,2.89-2.47,3.8-3.19a7.25,7.25,0,0,0,1.51-1.34,19,19,0,0,0,.1-4.12c-.26-7.53.46-12.05,5.23-17.34,1-1.08,2.83-3,5.17-5.43,4.87-5.06,16-16.58,17.9-19.85-.14-.44-.34-1.07-.55-1.69-2.36-7.2-8.18-24.91-5.65-41-2.69,3.21-5.25,8.67-4.49,17.54l.15,1.64-1.37.94c-1.89,1.3-4.67,2.23-8.48,2.85-4.75,2.32-12.77,2.81-18.75,2.81-10.55,0-23.87-1.63-27.78-4.66l-.86-.66-.2-1.06c-2.7-14.4,2.43-40,27.72-47.47,1.32-.39,2.65-.72,4-1,1-.36,2-.7,3-1A45.26,45.26,0,0,1,60.81,91a44.52,44.52,0,0,1,26.1,8.74A43.21,43.21,0,0,1,108.8,88.19a43.74,43.74,0,0,1,19.7-2.59c13.37,1.21,24.34,3,33.15,4.43,8,1.3,14.27,2.32,18.79,2.32h.11a29.93,29.93,0,0,0,6-.72c6.47-2.29,11.59-5.21,13.91-7.27-.57-10.62.28-29.33,10.9-44.28a48.65,48.65,0,0,1,3.93-4.85q1.17-1.26,2.37-2.49l.07-.07c7.69-7.84,15.74-13.79,23.91-17.67a60.48,60.48,0,0,1,13-4.51,58,58,0,0,1,13.65-3,59.54,59.54,0,0,1,12.3.08l.35,0,1.63.2a7.65,7.65,0,0,1,.94-5.29c1.76-3,5.41-4.66,10-4.66a22.06,22.06,0,0,1,4.87.58A28.19,28.19,0,0,1,304,.29c1,.43,1.93.93,2.89,1.47l1.92.29a87.31,87.31,0,0,1,17.75,4.74,57.49,57.49,0,0,1,9.16,4.55c6.69,4.16,11.42,9.39,14.06,15.53A29.91,29.91,0,0,1,351.67,33h0a36.51,36.51,0,0,1,.13,12.41l-.24,1.6c-1.89,12-3.72,18-5.24,21.19a9.33,9.33,0,1,1-11.56-.07,10.33,10.33,0,0,1-.53-1.54,29.63,29.63,0,0,1-.54-3.67,7.39,7.39,0,0,1-6.91,2l.1.44-2.86.32-.55.3-1-.18c-2.1.14-4,.26-5.76.34-.76,4.33-1.85,9.24-3.22,11.85s-1.42,7-1.44,11.67c0,1.1,0,2.22,0,3.33q0,.86,0,1.77c0,5.91.06,15.8-14.58,18.12l-.41.06a23.81,23.81,0,0,1-6.59,1.94,26.23,26.23,0,0,1-4.13.36c-11.29,0-11.3-9.53-11.3-15.22,0-.77,0-1.55,0-2.31-.06-2.15,0-4.24.08-6.26.1-2.82.24-7.06-.43-8a20.19,20.19,0,0,0-1.58,3.63c-1.34,4-1.34,8.91-1.34,14.12,0,8.42,0,18-5.16,27.81-8.08,15.47-9.32,25.46-8.83,27.16a438.53,438.53,0,0,0,26.29,45.32c11.8,17.68,25.08,34.38,30.72,41.33,12.82-8.08,14.37-8.08,15.42-8.08h.12l.4,0c1.94-.87,4.82-2,6.47-2h.13A13.45,13.45,0,0,1,348.19,239c2.31,3.8,2.61,19.76,2.63,20.44.31,18-2.74,20.09-3.89,20.87-.23.16-.9.69-1.68,1.3a280.44,280.44,0,0,1-63.52,37.67l-.58.24-2.9-.09c-30.86-1-67.65-1.94-106.48-1.94-26.17,0-50.26.44-73.66,1.34-11.48.45-23.21.84-34.86,1.17ZM1.85,276.08a286.47,286.47,0,0,0,61.89,38.23c11.42-.32,22.9-.71,34.15-1.14,23.47-.91,47.64-1.35,73.88-1.35,38.91,0,75.75,1,106.66,1.95l1.65.05a275,275,0,0,0,61.66-36.66c.89-.7,1.47-1.16,1.85-1.43,2.5-3.51,1.79-29.7-.25-33.79a7.71,7.71,0,0,0-6.15-3.55,24.93,24.93,0,0,0-4.8,1.82l-.75.35-.82-.12-.44,0c-.66.22-3.66,1.49-14.67,8.53l-2.12,1.35-1.6-1.94c-4.3-5.24-19.39-23.86-32.65-43.72-14.31-21.41-26.44-45.09-27-46.73-1.35-4.14,1.41-16.6,9.21-31.52,4.5-8.62,4.5-17,4.51-25.19,0-5.69,0-11.06,1.63-15.92a20.25,20.25,0,0,1,3.87-7.2l1.2-1.33,1.71.51a15.33,15.33,0,0,1,2.86,1.19c3.8,2,3.62,7.19,3.42,13.22-.07,1.93-.14,3.93-.09,5.92,0,.8,0,1.62,0,2.45,0,7.21.44,9.55,5.63,9.55a21.31,21.31,0,0,0,3.25-.29,18,18,0,0,0,5.33-1.6l.44-.23.49-.06.74-.11c9.83-1.56,9.81-6.63,9.79-12.5,0-.66,0-1.3,0-1.91,0-1.08,0-2.17,0-3.24,0-5.33.05-10.37,2.09-14.27,1-1.82,2.08-6.46,3-12.39l.37-2.31,2.33-.08c2.28-.08,5-.24,8.14-.46a20.17,20.17,0,0,1,3-1.2l1.19-.37,1.08.63a1.79,1.79,0,0,0,.84.29,3.17,3.17,0,0,0,1.86-1.16,9.82,9.82,0,0,0,2.78-7l5.64-.37a7.72,7.72,0,0,1,.09.92c.08,1.55.13,3,.18,4.39a54.37,54.37,0,0,0,.76,9.14,8.67,8.67,0,0,0,.75,1.59c1.06-1.59,3.17-6.42,5.44-20.84l.24-1.56a31.15,31.15,0,0,0-.09-10.49,24.58,24.58,0,0,0-1.53-5c-2.17-5.06-6.16-9.42-11.84-12.95a51.16,51.16,0,0,0-8.25-4.1,81.28,81.28,0,0,0-16.57-4.41c-.84-.14-1.62-.25-2.34-.34L305,7.23l-.49-.29a31.19,31.19,0,0,0-2.85-1.49,23.88,23.88,0,0,0-4.46-1.54,16.8,16.8,0,0,0-3.61-.43c-3,0-4.62,1-5.16,1.88a3.06,3.06,0,0,0,.33,2.91,15.6,15.6,0,0,0,.92,1.49l4.15,5.8-7-1.38c-2.07-.4-4.25-.73-6.47-1l-.34,0a53.73,53.73,0,0,0-11.12-.08,52.87,52.87,0,0,0-12.48,2.81l-.36.11a54.85,54.85,0,0,0-12,4.12c-7.55,3.59-15,9.13-22.25,16.47l-.06.06c-.78.8-1.56,1.61-2.32,2.44A43.66,43.66,0,0,0,216,43.36c-10.05,14.14-10.44,32.32-9.78,41.89l.08,1.17-.76.88C202.15,91.21,194.12,95,188.26,97l-.33.09a36.16,36.16,0,0,1-7.32.89h-.17c-5,0-11.47-1-19.7-2.4C152,94.2,141.16,92.43,128,91.24a38,38,0,0,0-17.36,2.33l-.51.15a37.87,37.87,0,0,0-20.85,11.75l-1.81,2-2.07-1.7a39.26,39.26,0,0,0-24.57-9,39.84,39.84,0,0,0-11.2,1.66c-1,.29-1.94.61-2.85,1l-.45.13c-1.22.24-2.47.55-3.7.91-23.38,6.88-25.3,29.9-23.95,39.73,3.18,1.36,12.64,3,23.47,3,7.7,0,13.72-.86,16.53-2.37l.43-.23.48-.07a24.13,24.13,0,0,0,5.24-1.3c-.66-15.51,7.63-22.23,11.34-24.44l.77-.46.89.06a8.13,8.13,0,0,1,2.6.61l2.35,1L82,118.37c-5.09,15.77,1.61,36.18,4.14,43.86a23.9,23.9,0,0,1,.92,3.11c.38,2.42-1.13,5-19.57,24.13-2.22,2.3-4.14,4.29-5,5.3-3.24,3.59-4,6.34-3.78,13.34.2,5.93-.06,7.22-3.78,10.12-.88.7-2,1.57-3.45,2.91-5.42,5-6.57,9.12-7.22,17.09a18.42,18.42,0,0,1-5.32,11.14l-1.63,1.73-2-1.31c-3.18-2.08-9.18-6-13.63-8.65a14,14,0,0,0-7.16-2,12,12,0,0,0-5.52,1.23l-.34.18-.37.08a4.7,4.7,0,0,0-1.86,1.14C4.29,245.29,1.34,270.8,1.85,276.08Zm.09.55Zm-.84-1.16.12.09ZM340.51,71.68l-1,.3a3.66,3.66,0,1,0,2.07,0ZM188.17,295.3c-1.19,0-2.38,0-3.58-.05C118.32,293.69,71.7,265.33,71.24,265l-2.47-1.53,1.58-2.43A51.91,51.91,0,0,0,78.48,238c1.81-20.72,10.16-35.15,24.79-42.84,3.5-1.84,7.86-3.88,12.47-6,10.36-4.86,23.25-10.91,26-14.76,1.36-1.91,2.43-3.44,3.26-4.65l1.27-1.85,2.09.81a87.55,87.55,0,0,0,30.44,6,66.93,66.93,0,0,0,6.7-.34A97.38,97.38,0,0,0,206.34,170l.24-.07A72.2,72.2,0,0,0,218.45,166l1.57-.69,1.34,1.08c3.69,3,13.69,11.61,26.64,27.38l3.5,4.26c12.9,15.67,13.95,17,18.2,29.1,4.46,12.77,7.77,15.17,7.8,15.2.81.45,1.7,1,11,20.15l1.11,2.29-2.16,1.35c-.86.54-21.5,13.37-51.49,22.47l-.09,0A185.37,185.37,0,0,1,188.17,295.3ZM76.67,261.62c10.28,5.68,51.9,26.64,108.06,28,1.14,0,2.29,0,3.44,0a179.42,179.42,0,0,0,46.22-6.47,239,239,0,0,0,47.9-20.53c-3.46-7-7.11-14.18-8.15-15.73-1.6-1.21-5.37-5.21-9.8-17.89-3.9-11.2-4.66-12.11-17.21-27.36l-3.51-4.27c-11.31-13.78-20.23-21.9-24.52-25.5A79.81,79.81,0,0,1,208,175.37a102.63,102.63,0,0,1-22,4.52,72.55,72.55,0,0,1-7.28.37,92.64,92.64,0,0,1-30.39-5.55l-2.05,2.9c-3.6,5.07-16.11,10.94-28.2,16.62-4.55,2.13-8.85,4.15-12.24,5.93-13,6.83-20.12,19.37-21.79,38.35A57.66,57.66,0,0,1,76.67,261.62Z" transform="translate(3.83 2.19)" style="fill: transparent"/>
</svg>