<svg id="Слой_1" data-name="Слой 1" xmlns="http://www.w3.org/2000/svg" viewBox="0 0 162.11 226.67" style="width: 3.45%">
    <g class="molbert">
        <polyline points="158.84 213.84 158.56 213.84 158.54 213.84 37.84 213.84 37.84 221.84 25.84 221.84 25.84 213.84 20.84 213.84 6.83 225.84 158.54 225.84 158.56 225.84 158.84 225.84 158.84 213.84" style="fill:#736357"/>
        <polyline points="37.84 211.84 25.84 211.84 25.84 213.44 25.84 213.84 25.84 221.84 37.84 221.84 37.84 213.84 37.84 213.44 37.84 211.84" style="fill:#3e371f"/>
        <path d="M156.39,134a8.49,8.49,0,0,1-8.48,8H8v59a10,10,0,0,0,10,10H146.44a10,10,0,0,0,10-10V134" transform="translate(2.83 0.83)" style="fill:#c69c6d"/>
        <polyline points="117.83 120.83 108.83 120.83 90.81 120.83 66.83 120.83 66.83 125.83 117.83 125.83 117.83 120.83" style="fill:#c69c6d"/>
        <polyline points="58.84 13.84 47.84 13.84 47.84 17.09 47.84 17.18 47.84 25.09 47.84 64.69 47.84 125.83 58.84 125.83 58.84 47.56 58.84 25.16 58.84 17.18 58.84 17.16 58.84 13.84" style="fill:#c69c6d"/>
        <path d="M96,92H85v28H96V92m0-79H85V72h6v5H85V87H96V13" transform="translate(2.83 0.83)" style="fill:#a87b47"/>
        <polyline points="117.83 87.83 108.67 87.83 98.83 87.83 87.83 87.83 66.83 87.83 66.83 92.83 66.83 88.83 71.83 88.83 71.83 92.83 87.83 92.83 98.83 92.83 108.67 92.83 112.83 92.83 112.83 88.83 117.83 88.83 117.83 87.83" style="fill:#cea46c"/>
        <polyline points="93.83 72.83 87.83 72.83 67.83 72.83 67.83 77.83 87.83 77.83 93.83 77.83 93.83 72.83" style="fill:#cea46c"/>
        <polyline points="71.83 88.83 66.83 88.83 66.83 92.83 66.83 120.83 71.83 120.83 71.83 92.83 71.83 88.83" style="fill:#cea46c"/>
        <polyline points="117.83 88.83 117.83 88.83 112.83 88.83 112.83 92.83 112.83 120.83 117.83 120.83 117.83 88.83" style="fill:#cea46c"/>
        <polyline points="135.84 13.84 124.83 13.84 124.83 17.18 124.83 25.23 124.83 69.28 124.83 122.8 124.83 125.83 135.84 125.83 135.84 106.14 135.84 52.62 135.84 25.23 135.84 17.18 135.84 13.84" style="fill:#c69c6d"/>
        <path d="M147.91,125H8.5a8.5,8.5,0,0,0-1.75,16.81A7.52,7.52,0,0,0,8,142H147.91a8.49,8.49,0,0,0,8.48-8v-.53a8.51,8.51,0,0,0-.62-3.19v-.07a8.5,8.5,0,0,0-7.85-5.23" transform="translate(2.83 0.83)" style="fill:#9f794f"/>
        <polyline points="140.84 0.83 118.33 0.83 108.69 0.83 88.88 0.83 49.52 0.83 42.84 0.83 42.84 11.23 42.84 13.84 80.52 13.84 87.83 13.84 98.83 13.84 108.69 13.84 118.33 13.84 140.84 13.84 140.84 0.83" style="fill:#a87b47"/>
    </g>
    <path class="outline" d="M37.83,225.84H20.17v-10H18A12.84,12.84,0,0,1,5.17,203V146.34A11.34,11.34,0,0,1,8.5,124.17H42.17V17.84h-5V-.83H140.83V17.84h-5V124.17h12.08a11.32,11.32,0,0,1,10.47,7l0,.11a11.11,11.11,0,0,1,.82,4.24c0,.16,0,.32,0,.48,0,.34,0,.68,0,1v66a12.81,12.81,0,0,1-12.83,12.83H37.83Zm-12-5.67h6.34v-10H146.44A7.14,7.14,0,0,0,153.6,203V137q0-.36,0-.69l0-.24v-.23c0-.11,0-.23,0-.34a5.53,5.53,0,0,0-.41-2.13,5.67,5.67,0,0,0-5.25-3.53H130.17V12.17h5V4.84H42.83v7.33h5V129.84H8.5a5.66,5.66,0,0,0-.34,11.31l2.67.16V203A7.17,7.17,0,0,0,18,210.16h7.83Zm99-90.33H112.17v-5h-19V12.17h31.67Zm-7-5.67h1.33V17.84H98.83V86.16h19Zm-19-5h8.34V96.84H98.83Zm-32,10.67H53.17V12.17H87.84V124.84h-21Zm-8-5.67h2.33v-38h21V81.84h-20V71.17h20V17.84H58.84Zm13-5H82.17V96.84H71.83Z" transform="translate(2.83 0.83)" style="fill: transparent"/>
</svg>