<svg id="Слой_1" data-name="Слой 1" xmlns="http://www.w3.org/2000/svg" viewBox="0 0 155.67 291.47" style="width: 3.32%">
    <g class="nightstand">
        <path d="M20,262.19v-49H130v49H20m0-57v-49H130v49H20m124-60H6v128H144v-128" transform="translate(0.83 -0.05)" style="fill:#c78240"/>
        <path d="M62,183.19a3,3,0,0,1,0-6H88a3,3,0,1,1,0,6H62m68-27H20v49H130v-49" transform="translate(0.83 -0.05)" style="fill:#994e1e"/>
        <path d="M62,239.19a3,3,0,0,1,0-6H89a3,3,0,1,1,0,6H62m68-26H20v49H130v-49" transform="translate(0.83 -0.05)" style="fill:#994e1e"/>
        <polyline points="144.84 273.14 144.84 273.14 6.83 273.14 6.83 275.14 6.83 277.74 6.83 281.14 9.84 281.14 36.84 281.14 114.83 281.14 141.84 281.14 144.84 281.14 144.84 273.14" style="fill:#602b11"/>
        <polyline points="150.84 130.14 133.66 130.14 133.84 131.14 92.83 130.14 74.92 130.14 74.83 131.14 31.84 130.14 0.83 130.14 0.83 145.14 6.83 145.14 144.84 145.14 150.84 145.14 150.84 130.14" style="fill:#994e1e"/>
        <polyline points="36.84 281.14 9.84 281.14 9.84 288.26 9.84 289.14 36.84 289.14 36.84 281.14" style="fill:#341b0f"/>
        <polyline points="141.84 281.14 114.83 281.14 114.83 289.14 141.84 289.14 141.84 281.14" style="fill:#341b0f"/>
        <path d="M88,177.19H62a3,3,0,0,0,0,6H88a3,3,0,1,0,0-6" transform="translate(0.83 -0.05)" style="fill:#d4c8c1"/>
        <path d="M89,233.19H62a3,3,0,0,0,0,6H89a3,3,0,0,0,0-6" transform="translate(0.83 -0.05)" style="fill:#d3c7bf"/>
        <path d="M56,57.19s-.34,4.16-1,5a.29.29,0,0,1-.26.11c-1.07,0-4.25-3.4-4.74-4.11a3.4,3.4,0,0,0-1-1l.91,23h8l-.83-10L56,57.19" transform="translate(0.83 -0.05)" style="fill:#603723"/>
        <path d="M39.52.05c-.41,0,.2,1.05.68,2.1s.82,2.09-.12,2.09h-.23c-2.34,0-6.86,3-6.86,3s-1.28-.3-5-1a2.62,2.62,0,0,0-.56,0c-1.46,0-2,1.27-2.3,2.54s-.41,2.54-1,2.54h-.41c-1.41,0-2.9,3.53-2.74,5s4,4,4,4a42,42,0,0,0-4,4c-.57.91,1,2.88,1,4s-3.86,2.43-5,3,3,2,3,2-2.6,2.81-3,4c-.14.4.37.53,1.11.53A24.26,24.26,0,0,0,22,37.32a5.87,5.87,0,0,0,0,3c.43,1.5,2.92,4.56,3,6s-1.91,1.61-2,2c0,.16.91.22,2.07.22A27.18,27.18,0,0,0,29,48.32h0c.25,0-2,5-2,5s1.47-.16,2.65-.16a3.63,3.63,0,0,1,1.35.16c.64.35-.42,4,.73,4a.86.86,0,0,0,.27,0c1.51-.56,4.06-4,5.82-4H38c1.76.25,3.87,6,6,7a1.69,1.69,0,0,0,.7.15c2,0,4.3-3.15,4.3-3.15h0a3.4,3.4,0,0,1,1,1c.49.71,3.67,4.11,4.74,4.11a.29.29,0,0,0,.26-.11c.65-.84,1-5,1-5h0s2.7,3.34,4,4a2.16,2.16,0,0,0,.88.31c.42,0,.52-.46,1.11-1.31.88-1.25-1-6-1-6s3.44,2.79,5,3h.21c1.61,0,4.73-3.47,4.87-4,0-.11.14-.17.32-.17.7,0,2.48.82,4.68,2.17a3.11,3.11,0,0,0,1.4.59c.88,0,.18-1.62-.4-2.59a6.36,6.36,0,0,0-2-2,14.72,14.72,0,0,0,2.2.17,7,7,0,0,0,3-.54,2.31,2.31,0,0,0,.82-.63c.69-.87,0-1.86-.95-2.64l-.2-.16a12.46,12.46,0,0,0-1.85-1.2,36.13,36.13,0,0,0,7-6c2.39-2.92-2.27-6-.39-6h.81c2.3,0,1.2-3.21-.42-5a29.57,29.57,0,0,0,6.54,1c4.72,0,3.42-2.73,2.47-4-1.26-1.62-9-5-9-5s5.56-1.4,6-3c.25-.91-2.23-1.1-4.67-1.1-.89,0-1.77,0-2.51.05s-1.35,0-1.71,0h-.12c-1.4,0-.24-1.37,0-4s-6.24-5.63-10-6-3.16-.12-4-3c-.28-1-.6-1.28-.9-1.28-.59,0-1.1,1.28-1.1,1.28s.15-1.22-2-3A2,2,0,0,0,62.71.79c-2,0-4.38,2.41-5.64,2.48h-.25c-1.14,0-.19-.63-2.54-1.9l-.21-.11A4,4,0,0,0,52.25.85c-2.43,0-5.15,1.8-7.18,2.41a3,3,0,0,1-.89.14c-1.78,0-2.22-2-4.11-3.14a1.18,1.18,0,0,0-.48-.19" transform="translate(0.83 -0.05)" style="fill:#52b320"/>
        <polyline points="77.83 95.14 60.7 95.14 28.84 95.14 31.84 130.14 74.83 131.14 74.92 130.14 77.83 95.14" style="fill:#c9bda2"/>
        <polyline points="81.83 80.14 58.76 80.14 50.8 80.14 24.84 80.14 24.84 95.14 60.7 95.14 81.83 95.14 81.83 80.14" style="fill:#efead7"/>
        <path d="M126,127.19l-29-1-6-36,29,1,6,36m-1-43H84l8,46,41,1-.17-1-7.84-46" transform="translate(0.83 -0.05)" style="fill:#42230c"/>
        <polyline points="91.83 90.14 97.83 126.14 126.83 127.14 120.83 91.14 91.83 90.14" style="fill:#f2eede"/>
    </g>
    <path class="outline" d="M145.83,291.52H113.17v-8H40.83v8H8.17v-8h-3v-136h-6V126.86H33l40.4.93.08-.93H94l37.63.91-.16-.91h23.36v20.66h-6v136h-3Zm-27-5.67h21.33v-8h3v-136h6v-9.32h-11l.18,1.08-44.44-1.09H78.69l-.09,1.06-45.67-1.07H4.83v9.32h6v136h3v8H35.16v-8h83.68Z" transform="translate(0.83 -0.05)" style="fill: transparent"/>
</svg>