<svg id="Слой_1" data-name="Слой 1" xmlns="http://www.w3.org/2000/svg" viewBox="0 0 305.6 220.45" style="width: 6.37%">
    <g class="owl">
        <path d="M196.46,377.2c-8,0-10.89,3.85,5.54,15.8,21,15.27,40,27,40,27s-16.54-5-23.76-5c-1.76,0-3,.3-3.24,1-1.43,3.79,4.79,15.3,31,28a73.75,73.75,0,0,0-12-1.31c-8.55,0-6.64,3.73,1,8.31,10.12,6.09,25,13,25,13s-27.83,4.73,28,16.79c0-.94,0-1.87,0-2.79,0-.39,0-.77,0-1.15a152.94,152.94,0,0,1-21-6.28c-11.74-4.45,8-8.57,8-8.57s-15.2-3.29-22-8c-4.8-3.32-3.14-4.64,5.14-4.64,3.46,0,8.08.23,13.86.64-23.65-10.67-34.55-17.76-28-20a5.59,5.59,0,0,1,1.84-.26C254.21,429.74,275,441,275,441l.1,0a33.8,33.8,0,0,1-2.29-4.18C253.08,422.73,247.47,412.66,250,410a2,2,0,0,1,1.48-.47c4.81,0,17.52,7.47,17.52,7.47l.15.37c.05-1.25.14-2.49.28-3.73C263.67,410,215.67,380.18,204,378a42,42,0,0,0-7.54-.8" transform="translate(-189.31 -337.27)" style="fill:#527c7e"/>
        <path d="M251.48,409.53A2,2,0,0,0,250,410c-2.53,2.66,3.08,12.73,22.81,26.86a43.15,43.15,0,0,1-3.66-19.49L269,417s-12.71-7.47-17.52-7.47" transform="translate(-189.31 -337.27)" style="fill:#3f6266"/>
        <path d="M303,513.19V531l-.84,1.08c-1.25,1.58-2.55,3.1-3.91,4.58q-1.1,1.19-2.25,2.34c-3.37,3.27-5,6.54-5,8a2.4,2.4,0,0,0,2.59,2.43c1.55,0,3.57-1,5.41-3.43,1.19-1.56,2.11-2.22,2.79-2.22,1.4,0,1.76,2.78,1.21,6.22-.61,3.87,1.78,6.78,4,6.78,1.34,0,2.61-1.1,3-3.78,1.35-8.38.32-10,1.77-10H312c1.47.12,2.46,9.38,5.67,9.38A3.41,3.41,0,0,0,320,551c3-3.33-1.33-9.68-5.43-14.34-1.32-1.5-2.61-2.83-3.62-3.82C309.78,531.7,309,531,309,531V515.94a50.48,50.48,0,0,1-6-2.75" transform="translate(-189.31 -337.27)" style="fill:#ffbc58"/>
        <path d="M345,515.59a39.57,39.57,0,0,1-6,2.36v12q-2,2.57-4.11,5c-.52.57-1.05,1.14-1.58,1.7s-.87.9-1.31,1.34c-3.37,3.27-5,6.54-5,8a2.4,2.4,0,0,0,2.59,2.43c1.55,0,3.57-1,5.41-3.43,1.19-1.56,2.11-2.22,2.79-2.22,1.4,0,1.76,2.78,1.21,6.22-.61,3.87,1.78,6.78,4,6.78,1.35,0,2.61-1.1,3-3.78,1.35-8.38.32-10,1.78-10H348c1.47.12,2.46,9.38,5.67,9.38A3.41,3.41,0,0,0,356,550c2.82-3.09-.76-8.81-4.57-13.34l-.19-.23A72.62,72.62,0,0,0,345,530V515.59" transform="translate(-189.31 -337.27)" style="fill:#ffbc58"/>
        <path d="M245.84,429.74A5.59,5.59,0,0,0,244,430c-6.55,2.24,4.35,9.33,28,20-5.78-.41-10.4-.64-13.86-.64-8.28,0-9.94,1.32-5.14,4.64,6.8,4.71,22,8,22,8s-19.78,4.12-8,8.57a152.94,152.94,0,0,0,21,6.28,63.51,63.51,0,0,1,5.33-23.39A27.77,27.77,0,0,1,275.1,441l-.1,0s-20.79-11.26-29.16-11.26" transform="translate(-189.31 -337.27)" style="fill:#406367"/>
        <path d="M483.54,377.2a42,42,0,0,0-7.54.8c-12.42,2.32-66,36-66,36l-.66,0a45.7,45.7,0,0,1,.65,5.57c.59-1.58,1-2.6,1-2.6s12.71-7.47,17.52-7.47A2,2,0,0,1,430,410c2.49,2.62-2.91,12.43-21.91,26.22-.39,1.33-.82,2.61-1.3,3.84,5.22-2.71,20.49-10.32,27.37-10.32A5.59,5.59,0,0,1,436,430c6.55,2.24-4.35,9.33-28,20,5.78-.41,10.4-.64,13.86-.64,8.28,0,9.94,1.32,5.14,4.64-6.8,4.71-22,8-22,8s19.78,4.12,8,8.57c-10.37,3.93-23.86,7.58-30.88,7.58A13.8,13.8,0,0,1,380,478c-1.36-.22-2-1.72-2.09-3.92-1.16,2.89-2.51,6-4.05,9.1h.33A83.48,83.48,0,0,0,391,481c57.16-12.22,29-17,29-17s14.88-6.91,25-13c7.62-4.58,9.53-8.31,1-8.31A73.75,73.75,0,0,0,434,444c26.21-12.7,32.43-24.21,31-28-.28-.74-1.48-1-3.24-1-7.22,0-23.76,5-23.76,5s19-11.73,40-27c16.43-11.95,13.53-15.8,5.54-15.8" transform="translate(-189.31 -337.27)" style="fill:#527c7e"/>
        <path d="M428.52,409.53C423.71,409.53,411,417,411,417s-.42,1-1,2.6a50.53,50.53,0,0,1-1.9,16.62c19-13.79,24.4-23.6,21.91-26.22a2,2,0,0,0-1.48-.47" transform="translate(-189.31 -337.27)" style="fill:#3f6266"/>
        <path d="M434.16,429.74c-6.88,0-22.15,7.61-27.37,10.32A37.55,37.55,0,0,1,405,444c-4.38,8.31-11.85,12.15-21.26,12.65a160.87,160.87,0,0,1-5.83,17.43c.13,2.2.73,3.7,2.09,3.92a13.8,13.8,0,0,0,2.16.15c7,0,20.51-3.65,30.88-7.58,11.74-4.45-8-8.57-8-8.57s15.2-3.29,22-8c4.8-3.32,3.14-4.64-5.14-4.64-3.46,0-8.08.23-13.86.64,23.65-10.67,34.55-17.76,28-20a5.59,5.59,0,0,0-1.84-.26" transform="translate(-189.31 -337.27)" style="fill:#406367"/>
        <path d="M335.11,496.52c-9.13,0-16.79-3.59-21.11-8.52-6.95-7.93-11.91-21.71,1-28a9.4,9.4,0,0,1,4.16-1.09c5.28,0,7.84,6,15.84,6.09h.27a52.83,52.83,0,0,0,10.43-1.4,50.17,50.17,0,0,1,9.45-1.4c2.81,0,5.18.7,6.85,2.8,5.05,6.36,7.43,18.6-9,27a39.27,39.27,0,0,1-17.89,4.52m2.4-47.65c-8.37.74-16.75,3.76-33.51,5.13-1.22.1-2.39.15-3.54.15a35.72,35.72,0,0,1-7.13-.69A63.51,63.51,0,0,0,288,476.85c0,.38,0,.76,0,1.15,0,.92,0,1.85,0,2.79,0,11.32-.36,24,15,32.4a50.48,50.48,0,0,0,6,2.75c1,.36,2,.72,3,1.06a49.73,49.73,0,0,0,15.48,2.63,39.44,39.44,0,0,0,17.52-4c11.77-5.73,20.38-16.78,26.47-27.83.84-1.53,1.64-3.07,2.39-4.58,1.54-3.14,2.89-6.21,4.05-9.1a160.87,160.87,0,0,0,5.83-17.43c-.7,0-1.42.05-2.15.05-7,0-15-1.71-23.59-4.7a64.29,64.29,0,0,0-9.14-2.54c-2.38,2.82-4.78,5.25-5.86,5.54l-.17,0c-1.16,0-3.27-2.85-5.32-6.15" transform="translate(-189.31 -337.27)" style="fill:#8ec0c5"/>
        <path d="M319.16,458.91A9.4,9.4,0,0,0,315,460c-12.91,6.29-7.95,20.07-1,28,4.32,4.93,12,8.52,21.11,8.52A39.27,39.27,0,0,0,353,492c16.43-8.4,14.05-20.64,9-27-1.67-2.1-4-2.8-6.85-2.8a50.17,50.17,0,0,0-9.45,1.4,52.83,52.83,0,0,1-10.43,1.4H335c-8-.08-10.56-6.09-15.84-6.09" transform="translate(-189.31 -337.27)" style="fill:#81d8d9"/>
        <path d="M275.28,373.54A4.8,4.8,0,0,0,273,374c-3.15,1.73,4,14.11,6.32,17.9A54.19,54.19,0,0,1,293.1,381a7.09,7.09,0,0,1-.36-1.13c-4.11-2.4-12.66-6.31-17.46-6.31" transform="translate(-189.31 -337.27)" style="fill:#8ec0c5"/>
        <path d="M409.72,380.54c-3.83,0-10,2.49-14.49,4.71a6.8,6.8,0,0,1-3.4,4.17A32.45,32.45,0,0,1,403.77,400H405s10.73-17,7-19a4.8,4.8,0,0,0-2.28-.46" transform="translate(-189.31 -337.27)" style="fill:#8ec0c5"/>
        <path d="M379.5,455A22.5,22.5,0,1,1,402,432.5,22.5,22.5,0,0,1,379.5,455m-74-4A22.5,22.5,0,1,1,328,428.5,22.5,22.5,0,0,1,305.5,451m-12.4-70a54.19,54.19,0,0,0-13.78,10.92A38.25,38.25,0,0,0,270,410c-.24,1.2-.43,2.42-.57,3.64s-.23,2.48-.28,3.73a43.15,43.15,0,0,0,3.66,19.49A33.8,33.8,0,0,0,275.1,441a27.77,27.77,0,0,0,18.23,12.42,35.72,35.72,0,0,0,7.13.69c1.15,0,2.32,0,3.54-.15,16.76-1.37,25.14-4.39,33.51-5.13C334.7,444.35,332,439,332,439s2.7-3,8.92-3l1.08,0c7,.38,12.28,2.57,13,4,.42.83-2.83,5.53-6.14,9.46A64.29,64.29,0,0,1,358,452c8.55,3,16.56,4.7,23.59,4.7.73,0,1.45,0,2.15-.05,9.41-.5,16.88-4.34,21.26-12.65a37.55,37.55,0,0,0,1.79-3.94c.48-1.23.91-2.51,1.3-3.84A50.53,50.53,0,0,0,410,419.6a45.7,45.7,0,0,0-.65-5.57,36.65,36.65,0,0,0-5.57-14,32.45,32.45,0,0,0-11.94-10.58c-2.95,1.76-7.91,2.84-15.5,2.84-2.71,0-5.76-.14-9.18-.43-30-2.59-64.52-4.44-69.89-6.86a7.82,7.82,0,0,1-4.16-4" transform="translate(-189.31 -337.27)" style="fill:#82d8d9"/>
        <path d="M305,439a6,6,0,1,1,6-6,6,6,0,0,1-6,6m.5-33A22.5,22.5,0,1,0,328,428.5,22.5,22.5,0,0,0,305.5,406" transform="translate(-189.31 -337.27)" style="fill:#e4f1f4"/>
        <path d="M305,427a6,6,0,1,0,6,6,6,6,0,0,0-6-6" transform="translate(-189.31 -337.27)"/>
        <path d="M379,443a6,6,0,1,1,6-6,6,6,0,0,1-6,6m.5-33A22.5,22.5,0,1,0,402,432.5,22.5,22.5,0,0,0,379.5,410" transform="translate(-189.31 -337.27)" style="fill:#e4f1f4"/>
        <path d="M379,431a6,6,0,1,0,6,6,6,6,0,0,0-6-6" transform="translate(-189.31 -337.27)"/>
        <path d="M313.88,343.23a8.6,8.6,0,0,0-6,14.72,34.46,34.46,0,0,1,13.06-11.08,8.59,8.59,0,0,0-7-3.64" transform="translate(-189.31 -337.27)" style="fill:#fff"/>
        <path d="M341.39,342a41.66,41.66,0,0,0-7.47.68,47.78,47.78,0,0,0-13,4.19A34.46,34.46,0,0,0,307.84,358a32.84,32.84,0,0,0-4,7.74c5.78-1.22,14.58-1.8,24.41-1.8,19.48,0,43,2.28,55.18,6.36-5-8.54-19.08-28.25-42-28.25" transform="translate(-189.31 -337.27)" style="fill:#c51515"/>
        <path d="M328.22,363.89c-9.83,0-18.63.58-24.41,1.8-3.27.69-5.57,1.59-6.55,2.71-4,4.55-5.19,8.47-4.52,11.45a7.09,7.09,0,0,0,.36,1.13,7.82,7.82,0,0,0,4.16,4c5.37,2.42,39.91,4.27,69.89,6.86,3.42.29,6.47.43,9.18.43,7.59,0,12.55-1.08,15.5-2.84a6.8,6.8,0,0,0,3.4-4.17c.84-3.33-1.23-7.39-4.6-11.14-1.28-1.42-3.81-2.71-7.23-3.86-12.17-4.08-35.7-6.36-55.18-6.36" transform="translate(-189.31 -337.27)" style="fill:#fff"/>
        <path d="M340.92,436c-6.22,0-8.92,3-8.92,3s2.7,5.35,5.51,9.87c2.05,3.3,4.16,6.15,5.32,6.15l.17,0c1.08-.29,3.48-2.72,5.86-5.54,3.31-3.93,6.56-8.63,6.14-9.46-.72-1.43-6-3.62-13-4l-1.08,0" transform="translate(-189.31 -337.27)" style="fill:#ffbb5a"/>
        <path d="M323.78,362.06l-1,1.34C323.1,363,323.44,362.51,323.78,362.06Z" transform="translate(-189.31 -337.27)" style="fill:#02263c"/>
        <path d="M341.82,338.52l-.07.09.13-.09Z" transform="translate(-189.31 -337.27)" style="fill:#02263c"/>
    </g>
    <path class="outline" d="M309.07,557.72a6.39,6.39,0,0,1-4.77-2.38,9.45,9.45,0,0,1-2-7.68c0-.24.07-.48.1-.7a9.46,9.46,0,0,1-6.71,3.41,5.24,5.24,0,0,1-5.43-5.2c0-2.64,2.25-6.6,5.87-10.1.7-.71,1.43-1.47,2.13-2.23,1.3-1.4,2.57-2.89,3.77-4.41l.23-.29V512.93c-14.31-8.62-15-21.19-15-31.76-32.34-7.16-35-11.65-34.94-15.31a5.1,5.1,0,0,1,2.5-4.1c-5.3-2.59-13.05-6.53-19.19-10.23s-8.66-6.78-7.83-9.79,4.42-3.63,6.82-3.75c-16.4-10.12-22.18-19.59-20.18-24.89,1.08-2.87,4.7-2.87,5.89-2.87a45.07,45.07,0,0,1,7.74.93c-7.13-4.72-16.22-10.9-25.65-17.76-10.37-7.54-14.22-12.53-12.87-16.66.92-2.84,4-4.27,9-4.27a45.06,45.06,0,0,1,8.06.85c10.77,2,48.84,25.14,62.79,33.77A40.4,40.4,0,0,1,278,389.71c-7.51-12.81-6.59-16.23-6.28-17.39a4.26,4.26,0,0,1,2.07-2.7,7.37,7.37,0,0,1,3.64-.81c4.35,0,10.51,2.47,14.83,4.56a21.51,21.51,0,0,1,5-8.74c1.21-1.38,3.32-2.43,6.58-3.26a35.5,35.5,0,0,1,2.62-5.14,11.32,11.32,0,0,1-1.89-6.3,11.43,11.43,0,0,1,19.16-8.42A52.76,52.76,0,0,1,335.53,338a45.16,45.16,0,0,1,8-.72c23.61,0,38.25,19.41,43.91,28.74,3.55,1.29,6,2.7,7.44,4.31A21.66,21.66,0,0,1,400,379c3.56-1.53,8.27-3.19,11.84-3.19a7.37,7.37,0,0,1,3.64.81,4.29,4.29,0,0,1,2.08,2.74c1.2,4.66-4.75,15-7.73,19.75a38.73,38.73,0,0,1,3.59,8.84c11.34-7,52.92-32.53,64.18-34.63a45,45,0,0,1,8.06-.85c5.05,0,8.08,1.43,9,4.27,1.35,4.13-2.5,9.12-12.88,16.66-9.43,6.86-18.51,13-25.64,17.76a45,45,0,0,1,7.74-.93c1.19,0,4.81,0,5.89,2.87,2,5.3-3.79,14.77-20.18,24.89,2.4.12,6,.71,6.82,3.75s-1.58,6-7.83,9.79-13.89,7.64-19.19,10.23a5.11,5.11,0,0,1,2.5,4.11c.08,3.78-2.8,8.44-38.18,16a92.54,92.54,0,0,1-16,2.21c-.55,1.06-1.1,2.11-1.67,3.14-7.37,13.37-16.15,22.84-26.12,28.2v11.43a76.11,76.11,0,0,1,5.57,5.84l.19.23c6.4,7.61,7.91,13.35,4.5,17.09a6.06,6.06,0,0,1-4.42,2.3c-2.16,0-3.61-1.37-4.66-3.16-.06.44-.13.91-.21,1.39-.73,4.55-3.5,6.17-5.84,6.17a6.39,6.39,0,0,1-4.77-2.38,9.45,9.45,0,0,1-2-7.68c0-.24.07-.48.1-.7a9.46,9.46,0,0,1-6.71,3.41,5.23,5.23,0,0,1-5.43-5.2c0-2.63,2.25-6.59,5.87-10.1l1.23-1.26c.51-.54,1-1.09,1.52-1.64,1.17-1.31,2.31-2.66,3.38-4v-7.45A48.25,48.25,0,0,1,313.94,518v9.83c.31.3.69.65,1.11,1.07,1.34,1.31,2.6,2.64,3.76,4,7.14,8.12,9,14.22,5.39,18.13a6.06,6.06,0,0,1-4.42,2.3c-2.16,0-3.61-1.37-4.66-3.16-.06.44-.13.91-.21,1.39C314.17,556.1,311.41,557.72,309.07,557.72Zm-5.17-18.67a3.77,3.77,0,0,1,2.92,1.37c1.33,1.55,1.7,4.29,1.09,8.13a3.55,3.55,0,0,0,1,3.41,4.19,4.19,0,0,0,.39-1.31,67.07,67.07,0,0,0,.78-7.24c.1-1.8.3-5.15,3.79-5.15l.47,0c2.44.21,3.23,2.55,4.15,5.27a28.38,28.38,0,0,0,1.46,3.7l.06-.06c.67-.73.39-3.89-5.47-10.55-1.07-1.22-2.24-2.45-3.47-3.67s-1.85-1.74-1.85-1.75l-1-.84V509.92l3.85,1.48c.92.35,1.88.69,2.87,1,9,3,17.55,3.27,25.3.93l3.65-1.1v16.82l-.58.76c-1.34,1.76-2.77,3.49-4.26,5.14-.53.59-1.08,1.18-1.63,1.76s-.9.93-1.36,1.39a17,17,0,0,0-4,5.51,5.76,5.76,0,0,0,2.77-2.23c1.09-1.44,2.8-3.34,5-3.34a3.79,3.79,0,0,1,2.92,1.36c1.33,1.56,1.7,4.3,1.09,8.14a3.55,3.55,0,0,0,1,3.41,4.09,4.09,0,0,0,.39-1.31,67,67,0,0,0,.78-7.23c.1-1.81.3-5.16,3.8-5.16l.46,0c2.44.21,3.23,2.56,4.15,5.27a29,29,0,0,0,1.46,3.7l.06-.06c.86-.94-.23-4.35-4.65-9.6l-.17-.2a71.86,71.86,0,0,0-6-6.17l-1-.84V511.93l1.6-.78c9.56-4.66,18-13.63,25.23-26.66.8-1.45,1.58-2.95,2.32-4.46l.79-1.6,2.09,0a80.87,80.87,0,0,0,16.22-2.12c24.65-5.27,31.35-8.75,33.17-10.18a16.36,16.36,0,0,0-4.06-1.25l-9-1.53,8.26-3.84c.15-.06,14.87-6.91,24.74-12.85a27.15,27.15,0,0,0,4.2-3c-.46,0-1-.07-1.76-.07a72.35,72.35,0,0,0-11.5,1.27l-19.82,3.42,18.1-8.77c23.1-11.19,28.78-20.65,29.52-23.64h-.52c-5.57,0-18.44,3.55-22.93,4.92L420,427.2l18.63-11.51c.19-.11,19.16-11.85,39.82-26.88,8.8-6.39,10.42-9.34,10.72-10.2a9.56,9.56,0,0,0-3.51-.47,40,40,0,0,0-7,.75c-9.75,1.82-50.24,26.33-65,35.62l-.67.42h-.8l-.5,0-2.54.19-.45-2.51a33.79,33.79,0,0,0-5.13-12.95l-3-4.42h5c3.41-5.59,6.14-11.41,6.5-13.79h-.2c-2.68,0-7.87,1.73-13.22,4.41l-5.53,2.77,1.51-6c.51-2-1-5.22-4-8.55-.51-.56-2-1.71-6-3.07l-1-.34-.54-.91c-4.74-8.07-18.09-26.85-39.56-26.85a39.61,39.61,0,0,0-7,.63,45.46,45.46,0,0,0-12.26,3.94l-2.17,1.09-1.41-2a5.76,5.76,0,0,0-10.47,3.32,5.69,5.69,0,0,0,1.72,4.1l1.7,1.69-1.37,2a29.8,29.8,0,0,0-3.68,7.08l-.54,1.48-1.54.33c-4.16.88-5,1.76-5,1.8-3,3.46-4.41,6.64-3.88,9l1.44,6.36-5.64-3.29c-4.09-2.39-12-5.92-16-5.92h-.19c.32,1.91,2.17,6.65,6.66,14.06l1.08,1.79-1.39,1.57a35.17,35.17,0,0,0-8.66,16.75c-.22,1.12-.4,2.27-.53,3.42l-.52,4.46-3.8-2.38c-19.67-12.3-55.39-33.56-64.45-35.26a40,40,0,0,0-7-.75,9.56,9.56,0,0,0-3.51.47c.3.86,1.92,3.81,10.72,10.2,20.67,15,39.63,26.77,39.82,26.88l18.63,11.51-21-6.38c-4.49-1.37-17.36-4.92-22.93-4.92h-.52c.73,3,6.39,12.44,29.52,23.64l18.09,8.77-19.81-3.42a72.35,72.35,0,0,0-11.5-1.27h0c-.73,0-1.3,0-1.76.07a27.15,27.15,0,0,0,4.2,3c9.87,5.94,24.58,12.79,24.73,12.85l8.27,3.84-9,1.53a16.74,16.74,0,0,0-4.05,1.24c1.79,1.42,8.33,4.83,32.18,10l2.25.48v2.93c0,11.22-.07,21.82,13.52,29.28l1.47.8v20.45l-.58.76-.87,1.13c-1.29,1.63-2.66,3.23-4.05,4.74-.75.81-1.53,1.63-2.33,2.42a17,17,0,0,0-4,5.51,5.76,5.76,0,0,0,2.77-2.23C299.94,541,301.65,539.05,303.9,539.05Zm36.61,4.54Z" transform="translate(-189.31 -337.27)" style="fill: transparent"/>
</svg>