<svg id="Слой_1" data-name="Слой 1" xmlns="http://www.w3.org/2000/svg" viewBox="0 0 376.5 276.17"><defs><style>.cls-1{fill:#02263c;}</style></defs><title>4</title><path class="cls-1" d="M42.05,420.35c-.44,0-1.08-.22-3-.54,4.33-2.8,7.52-4.76,10.61-6.87C66,401.77,79.32,387.4,91.76,372.32c8-9.66,17.66-14.33,29.77-15.15l1,0c3.08,0,5.32,1.11,6.6,4.29s3,6.34,4.14,9.62a8.69,8.69,0,0,1,.07,4.9c-1.08,3.79-4.17,5.71-8,5.71a12.52,12.52,0,0,1-1.35-.08,6.87,6.87,0,0,1-4.8-2.5c-.89-1.16-2-3.63-1.09-5a1.16,1.16,0,0,1,.2-.25,1.7,1.7,0,0,1,1.31-.57,5.16,5.16,0,0,1,.77.08,6.46,6.46,0,0,0,.78.07,2.06,2.06,0,0,0,.76-.13c1.16-.44,1.6-2.26,1.39-3.36-.49-2.59-2.1-3.59-4-3.59a9.1,9.1,0,0,0-7.49,4.94c-.73,1.78-.61,3.7-1,5.54a10.29,10.29,0,0,1-3.9,5.91c-1.82,1.35-4.35,1.23-6.48,2.05-3.88,1.5-8.15,4.32-9.56,8.44-1.34,3.94.08,9,4,10.76a6.05,6.05,0,0,0,2.54.55,6.17,6.17,0,0,0,2.38-.48c1-.49,2.88-1.38,3.47-2.34a3.1,3.1,0,0,0,.13-2.63,2.3,2.3,0,0,0-2.27-1.61,5.93,5.93,0,0,0-2.77.87c-.33-2.7,3.49-4.59,5.66-4.81h.26c1.65,0,4.77,1.26,5,3,.39,2.67.56,6.63-1,8.06a24.24,24.24,0,0,1-10.91,5.57C79,413.79,60.63,417,42.25,420.33l-.2,0m81.37-15.53a12,12,0,0,1-1.59-.09c4-3.72,7-6.73,10.26-9.59,10.23-9.1,14-20.35,11.76-33.82-1-6-.53-6.35,5.64-7.18,2.47-.33,4.92-.93,7.36-1.48a19.7,19.7,0,0,1,4.16-.6c3.24,0,4.47,1.81,5.8,6.65,1.46,5.37,1.34,10.21-3.9,13.29-2.29,1.34-4.39,2.27-5.26,5a11.69,11.69,0,0,0,.29,7.09,6.91,6.91,0,0,0,5.09,4.5,16.18,16.18,0,0,0,3,.3,6.89,6.89,0,0,0,3.71-.87,3.55,3.55,0,0,0,1.17-4.64,2.16,2.16,0,0,0-2.19-1h-1.06c-.79,0-1.48-.11-1.77-.88-.78-2,3.09-3.34,4.54-3.55a5.34,5.34,0,0,1,.69-.05c2.3,0,3.95,1.73,5.63,3.2,2.88,2.53,5.61,5.14,8.41,7.79-3.1,4-49.34,15.95-61.73,15.95M235,382.36c-20.71,0-55.11-17.6-59.56-33.08,4.46-1.08,8.9-2.24,13.39-3.21,4.12-.88,8.32-2.31,12.44-2.31h.82c4.61.23,9.83,1.21,13.5,3.73,4,2.78,7.31,7.31,9.67,11.74,3.88,7.29,9.27,13,15.49,18.13,1.21,1,2.43,2,3.87,3.15a22.17,22.17,0,0,1-9.62,1.84m-33.86-91.42a14.9,14.9,0,0,0-3.8-9.87c-1.49-1.69-3.3-2.51-5-3.59a11.11,11.11,0,0,1-1.47-1.08,6.2,6.2,0,0,1,1.05-.09c1.82,0,3.51.8,5.49.94a74,74,0,0,0,7.45.37H206c.93,0,1.95-.22,2.89-.22h.23c.74,0,.72,0,.85.75a7.71,7.71,0,0,1-.32,3,21.4,21.4,0,0,1-.77,2.85c-1.09,2.58-5,6.3-7.76,7m123,6.85s-23.57,3.36-35.4,4.61c-8.29.88-16.69.75-25,1.06h-.29c-3,0-4.24-1.79-4.25-4.67,0-5.69-.05-11.38,0-17.06,0-3.49,2.15-5,5.41-5.39,11.1-1.29,22.26-2.24,33.27-4,5.61-.93,26.21-5.17,26.21-5.17ZM324,262.26l-7.2,1.39c-8,1.54-16.1,2.81-24.16,4.13-10.34,1.7-20.68,3.43-31.06,4.86a2.6,2.6,0,0,1-.4,0c-1.49,0-3.71-.95-4.17-2-4.69-10.51-14.19-15.08-23.58-20a111.43,111.43,0,0,1-14.45-8.9c-3.22-2.36-4.06-5.87-1.73-9.38,2.32,1.59,4.25,3.64,6.59,4.39a12.39,12.39,0,0,0,3.88.63c5.55,0,10.32-3.91,11.75-9.88,1.7-7.14-4.12-17.07-10.54-18.33a21,21,0,0,0-4-.4,24.22,24.22,0,0,0-13.13,4.25c-5.86,3.74-10.8,9-12.86,15.77-2.22,7.34-.19,15.27,2.1,22.37,1.06,3.28,2.91,6.07,4.08,9.21a14.49,14.49,0,0,1-5,.83,43.41,43.41,0,0,1-7.71-1,53,53,0,0,0-5.44-.85,10.89,10.89,0,0,1-5.3-1.61c-1.62-1.17-2.28-3.94-3-5.73-.82-1.95-.29-3.54-.68-5.6-.54-2.75-2.95-9.36-6.82-9.36a3.49,3.49,0,0,0-1.2.21c-.2-1.2,1.59-2.54-.1-3.6a1,1,0,0,0-.53-.13,3.87,3.87,0,0,0-1.23.3,3.77,3.77,0,0,1-1,.3c-.22,0-.36-.11-.35-.42a1.83,1.83,0,0,0,1.76-1.9,1.88,1.88,0,0,0-.34-1c-1.4-2-5.18,0-6-2.48-.22-.63.13-1.28-.19-1.91a5.55,5.55,0,0,0-1.66-1.39,4.17,4.17,0,0,1-1.78-3.74c.21-1.37,1.41-2.11,1.52-3.55a4.09,4.09,0,0,0-1.39-3.77,6.83,6.83,0,0,0-7.6-1,29.93,29.93,0,0,1-2.88,1.46,39.79,39.79,0,0,1-7.93,1.51c-3.28.39-7.51,1.23-10.19,3.3-1.31,1-2.2,2.3-3.89,2.75a4.8,4.8,0,0,1-1.35.16c-.37,0-.74,0-1.1-.05s-.74-.05-1.11-.05a6,6,0,0,0-.73.05c-2.53.3-5,2.1-7.06,3.57-1.35,1-4.08,3.7-6.27,3.7a2.32,2.32,0,0,1-2-1.23c-.82-1.3-.09-3-1.06-4.33a5,5,0,0,0-4-2,5.25,5.25,0,0,0-.79.06c-4.26.48-8.24,4.6-6,8.73,1,1.76,2.55,3.25,4.57,3.25a4.51,4.51,0,0,0,1.22-.18c1.26-.36,1.82-1.21,3.17-1.21h.31a8,8,0,0,1,4.24,1.87c3.29,2.69,6.25,9.41,10.84,9.88a3,3,0,0,0,.43,0,12,12,0,0,0,1.9-.21,11.86,11.86,0,0,1,1.93-.21,3.19,3.19,0,0,1,1.45.29c1.46.74,1.56,2.53,2.5,3.7a2,2,0,0,0,1.6.92,4.54,4.54,0,0,0,1.22-.24,4.56,4.56,0,0,1,1.36-.25,1.77,1.77,0,0,1,.32,0c-1.69,1-3.14,2-4,3.82s-.89,4.67.66,6.17a10.12,10.12,0,0,0,4.82,2.44c.95.19,2.55,0,2.22,1a12.74,12.74,0,0,1-1.34,1.9,8.15,8.15,0,0,0-1,3.19c-.3,2.06-.33,4.15-.69,6.2a3.32,3.32,0,0,1-2.93,2.89,7.67,7.67,0,0,1-1.17.08c-2.17,0-4.5-.75-6.57-1.09a46.52,46.52,0,0,1-5.86-1.22c-4.75-1.38-5.7-3.87-6.36-8.49-.45-3.1-1.08-6.1-1.78-9.16-1.36-5.93-3.59-10.76-8.4-14.62a22.37,22.37,0,0,0-13.07-4.49,14.57,14.57,0,0,0-2.93.28c-2.49-2.77.1-9,1.56-11.67a19.37,19.37,0,0,1,4.73-5.43c.64-.53,2.83-1.44,3.15-2.2.72-1.7-1-2.28-2.5-3.28-1-.63-1.7-1.51-2.9-1.7a3.32,3.32,0,0,0-.65-.06c-.92,0-.76.52-1.69.84s-1.05.63-1.45.63a2.82,2.82,0,0,1-1.38-.68c-1.1-.75-1.32-1.68-2.67-2.06s-2.81,0-4.27-.65c-3.09,5.15.48,13,0,18.76-.92-1.11-1.13-2.54-1.78-3.86-1.36-2.75-3-5.61-4.56-8.28-1.35-2.31-2.1-3.44-1.56-6.1a17.75,17.75,0,0,0,.78-3.82,16.61,16.61,0,0,0-1.27-6c-2-5-6.12-9.43-10.19-12.36-4.72-3.39-9.66-2.21-15.06-2.78-4.55-.48-11.24.48-14.54-3.3-1.42-1.62-2.52-3.54-3.94-5.14-3.15-3.51-7.34-5.75-11.49-7.91-6.47-3.36-13.19-6.57-20.52-7.55a16.28,16.28,0,0,0-2.06-.13c-5,0-9.08,2.33-14,3.33,1.41,4,2.17,4.93.1,8.79-.95,1.78-1.57,2.41-.33,4.11.88,1.19,1.87.21,1.58,2.67a6.74,6.74,0,0,0,1.08.09c4.82,0,7.74-5.57,11.75-7.53a17.42,17.42,0,0,1,7.1-1.36,13.33,13.33,0,0,1,4.86.77,6.5,6.5,0,0,0,.51-2.85,2.7,2.7,0,0,1,.63-.07,2.79,2.79,0,0,1,.64.07c.19.93-.09,3.43.74,3.43.28,0,.7-.29,1.31-1,2.47,1.61-3.63,6.41-4.72,7.59A33.68,33.68,0,0,0-9,201.93c-.07,1-.1,2-.1,3.1,0,2,1,5.06.44,6.93-.38,1.38-2.28,2.26-3.56,3.06a37.47,37.47,0,0,1-5.61,3c-7.25,3-14.53,4.78-21.08,9.43-6.74,4.79-12.33,11.66-13.33,20.1-.82,6.84,1.06,17.39,6.8,21.9a15.67,15.67,0,0,0,7.38,3,8.19,8.19,0,0,0,1.29.1c2.5,0,4.42-1.14,6.83-2.07,7.79-3,10.24-12.1,2.89-17.42-2.63-1.91-7.51-3.33-8.09-7-.65-4,3.09-6.21,6.55-6.68a12.73,12.73,0,0,1,1.71-.12c5.66,0,9,4.1,12.69,7.7,14.76,14.34,26.75,30.66,32.09,50.67,3.94,14.75,8.12,29.11,16.45,42.11,7.13,11.15,15.45,20.52,28.71,24.34a59.13,59.13,0,0,1,9.35,3.59c4.18,2,5.15,5,2.79,9.07-2.75,4.73-6.28,9.09-11,11.87-2.87,1.68-6.31,4.23-9.75,4.23a6.45,6.45,0,0,1-4-1.34,13.76,13.76,0,0,1-4.57-7.39c-.42-2.13-.83-7.26,1.45-8.56a2.22,2.22,0,0,1,1.07-.25,4.37,4.37,0,0,1,2.78,1.14c1.18,1.16.73,2.3.69,3.75-.07,2.8,1.34,3.94,3.25,3.94a7.45,7.45,0,0,0,3-.72c5.81-2.58,6-9.78,1.84-14.2a15.65,15.65,0,0,0-22.12-.4l-.24.24C31,375.7,32,382.85,36.54,390.25a12.64,12.64,0,0,1,1.09,10.33c-1.1,4.05-4,5.95-7.2,8.2-3.59,2.53-7.3,4.92-11.12,7.11A109,109,0,0,1-4.84,426.2a26.77,26.77,0,0,1-7.48,1.06,26.8,26.8,0,0,1-4.81-.43c-3.11-.59-7.5-1.58-9.62-4.1a6.69,6.69,0,0,1,.43-9.46,7.33,7.33,0,0,1,.68-.54,4.6,4.6,0,0,1,2.58-.84c2.19,0,4,1.78,3,4.61-.9,2.54-5,3.05-1.46,5.93A7.2,7.2,0,0,0-17,423.92c5.14,0,11.15-4.14,12.39-8.34a12.22,12.22,0,0,0-5.06-13.9,18.12,18.12,0,0,0-10.09-3.11,25.09,25.09,0,0,0-9.27,2c-4.62,1.84-7.76,3.93-10.18,8.27a26.22,26.22,0,0,0-3.31,10.62c-.31,4.35,1.87,7,4.12,10.41,4.09,6.27,11.59,8.9,18.88,8.9a30.5,30.5,0,0,0,5.93-.58c9.65-1.92,19.39-3.4,29.1-5q26.94-4.55,53.88-9c15-2.47,30-4.76,45.06-7.27,13.82-2.32,27.59-4.94,41.41-7.24,15.66-2.62,31.37-4.95,47-7.56,16-2.66,32-5.19,47.87-8.4a309.66,309.66,0,0,0,35.86-9c17.21-5.67,25.87-20.25,23.22-38-1.58-10.53-5.77-20.07-15.53-25.7a29.57,29.57,0,0,0-14.81-4.11c-12.63,0-24.1,8.73-28,22.81-4.17,15,6.21,22.24,16.68,23.1.35,0,.69,0,1,0,4.8,0,7.92-2.91,8.87-7.41.63-3,.46-7.61-1.38-9.46a6.43,6.43,0,0,0-4.66-2c-2.4,0-4.91,1.26-7.13,3.05a20.43,20.43,0,0,1-2.13,1.21,30,30,0,0,1-.35-4.83c.73-7.85,7-14.61,14.19-15.47a19.41,19.41,0,0,1,2.29-.13c8.26,0,16.44,5.14,18.76,12.15,4.34,13.12-1.87,26.61-14.84,32.24a41.85,41.85,0,0,1-16.51,3.72c-9.82,0-18.07-4.45-22.76-13.1-3.78-7-6.18-14.71-9.38-22-1.66-3.78-.81-6.09,2.85-8.17,8.58-4.88,15.67-11.31,20.35-20.26a8.13,8.13,0,0,1,5.43-3.62c8.09-1.07,16.27-1.6,24.41-2.31,5.34-.47,10.71-.73,16-1.42q10.39-1.36,20.78-2.88C324,300.49,324,268.11,324,262.26Z" transform="translate(52.4 -162.62)"/></svg>