<svg xmlns="http://www.w3.org/2000/svg" viewBox="0 0 382.18 281.84" style="width: 7.7%">
    <g class="santa">
        <path d="M10 10 H 90 V 90 H 10 L 10 10" fill="transparent" />
        <path d="M94.45,257.73c-.44,0-1.08-.22-3-.54,4.33-2.8,7.52-4.76,10.61-6.87,16.34-11.17,29.66-25.54,42.1-40.62,8-9.66,17.66-14.33,29.77-15.15h1c3.08,0,5.32,1.11,6.6,4.29s3,6.34,4.14,9.62a8.69,8.69,0,0,1,.07,4.9c-1.08,3.79-4.17,5.71-8,5.71a12.22,12.22,0,0,1-1.35-.08,6.89,6.89,0,0,1-4.8-2.5c-.89-1.16-2-3.63-1.09-5a1,1,0,0,1,.2-.25,1.71,1.71,0,0,1,1.31-.57,4.9,4.9,0,0,1,.77.08,6.85,6.85,0,0,0,.78.07,2.17,2.17,0,0,0,.76-.13c1.16-.44,1.6-2.26,1.39-3.36-.49-2.59-2.1-3.59-4-3.59a9.1,9.1,0,0,0-7.49,4.94c-.73,1.78-.61,3.7-1,5.54a10.29,10.29,0,0,1-3.9,5.91c-1.82,1.35-4.35,1.23-6.48,2.05-3.88,1.5-8.15,4.32-9.56,8.44-1.34,3.94.08,9,4,10.76a6.14,6.14,0,0,0,4.92.07c1-.49,2.88-1.38,3.47-2.34a3.11,3.11,0,0,0,.13-2.63,2.3,2.3,0,0,0-2.27-1.61,5.93,5.93,0,0,0-2.77.87c-.33-2.7,3.49-4.59,5.66-4.81h.26c1.65,0,4.77,1.26,5,3,.39,2.67.56,6.63-1,8.06a24.24,24.24,0,0,1-10.91,5.57c-18.37,3.61-36.74,6.82-55.12,10.15h-.2m81.37-15.53a10.6,10.6,0,0,1-1.59-.09c4-3.72,7-6.73,10.26-9.59,10.23-9.1,14-20.35,11.76-33.82-1-6-.53-6.35,5.64-7.18,2.47-.33,4.92-.93,7.36-1.48a19.51,19.51,0,0,1,4.16-.6c3.24,0,4.47,1.81,5.8,6.65,1.46,5.37,1.34,10.21-3.9,13.29-2.29,1.34-4.39,2.27-5.26,5a11.68,11.68,0,0,0,.29,7.09,6.89,6.89,0,0,0,5.09,4.5,16.77,16.77,0,0,0,3,.3,7,7,0,0,0,3.71-.87,3.55,3.55,0,0,0,1.17-4.64,2.16,2.16,0,0,0-2.19-1h-1.06c-.79,0-1.48-.11-1.77-.88-.78-2,3.09-3.34,4.54-3.55a5.34,5.34,0,0,1,.69-.05c2.3,0,3.95,1.73,5.63,3.2,2.88,2.53,5.61,5.14,8.41,7.79-3.1,4-49.34,15.95-61.73,15.95M287.4,219.74c-20.71,0-55.11-17.6-59.56-33.08,4.46-1.08,8.9-2.24,13.39-3.21,4.12-.88,8.32-2.31,12.44-2.31h.82c4.61.23,9.83,1.21,13.5,3.73,4,2.78,7.31,7.31,9.67,11.74,3.88,7.29,9.27,13,15.49,18.13,1.21,1,2.43,2,3.87,3.15a22.25,22.25,0,0,1-9.62,1.84m-33.86-91.42a14.92,14.92,0,0,0-3.8-9.87c-1.49-1.69-3.3-2.51-5-3.59a11.11,11.11,0,0,1-1.47-1.08,6.2,6.2,0,0,1,1-.09c1.82,0,3.51.8,5.49.94a74.18,74.18,0,0,0,7.45.37h1.14c.93,0,2-.22,2.89-.22h.23c.74,0,.72,0,.85.75a7.81,7.81,0,0,1-.32,3,21.4,21.4,0,0,1-.77,2.85c-1.09,2.58-5,6.3-7.76,7m123,6.85s-23.57,3.36-35.4,4.61c-8.29.88-16.69.75-25,1.06h-.29c-3,0-4.24-1.79-4.25-4.67,0-5.69-.05-11.38,0-17.06,0-3.49,2.15-5,5.41-5.39,11.1-1.29,22.26-2.24,33.27-4,5.61-.93,26.21-5.17,26.21-5.17Zm-.12-35.58L369.2,101c-8,1.54-16.1,2.81-24.16,4.13-10.34,1.7-20.68,3.43-31.06,4.86a2.67,2.67,0,0,1-.4,0c-1.49,0-3.71-1-4.17-2-4.69-10.51-14.19-15.08-23.58-20a111.43,111.43,0,0,1-14.45-8.9c-3.22-2.36-4.06-5.87-1.73-9.38,2.32,1.59,4.25,3.64,6.59,4.39a12.18,12.18,0,0,0,3.88.63c5.55,0,10.32-3.91,11.75-9.88,1.7-7.14-4.12-17.07-10.54-18.33a21.53,21.53,0,0,0-4-.4A24.18,24.18,0,0,0,264.2,50.4c-5.86,3.74-10.8,9-12.86,15.77-2.22,7.34-.19,15.27,2.1,22.37,1.06,3.28,2.91,6.07,4.08,9.21a14.42,14.42,0,0,1-5,.83,43.52,43.52,0,0,1-7.71-1,52.57,52.57,0,0,0-5.44-.85,10.92,10.92,0,0,1-5.3-1.61c-1.62-1.17-2.28-3.94-3-5.73-.82-2-.29-3.54-.68-5.6-.54-2.75-2.95-9.36-6.82-9.36a3.48,3.48,0,0,0-1.2.21c-.2-1.2,1.59-2.54-.1-3.6a1,1,0,0,0-.53-.13,3.76,3.76,0,0,0-1.23.3,3.5,3.5,0,0,1-1,.3c-.22,0-.36-.11-.35-.42a1.83,1.83,0,0,0,1.76-1.9h0a1.88,1.88,0,0,0-.34-1c-1.4-2-5.18,0-6-2.48-.22-.63.13-1.28-.19-1.91a5.55,5.55,0,0,0-1.66-1.39A4.18,4.18,0,0,1,211,58.67c.21-1.37,1.41-2.11,1.52-3.55a4.09,4.09,0,0,0-1.39-3.77,6.83,6.83,0,0,0-7.6-1,27.77,27.77,0,0,1-2.88,1.46,39.66,39.66,0,0,1-7.93,1.51c-3.28.39-7.51,1.23-10.19,3.3-1.31,1-2.2,2.3-3.89,2.75a4.71,4.71,0,0,1-1.35.16,8,8,0,0,1-1.1-.05,8.17,8.17,0,0,0-1.11,0,6,6,0,0,0-.73,0c-2.53.3-5,2.1-7.06,3.57-1.35,1-4.08,3.7-6.27,3.7a2.32,2.32,0,0,1-2-1.23c-.82-1.3-.09-3-1.06-4.33a5,5,0,0,0-4-2,5.25,5.25,0,0,0-.79.06c-4.26.48-8.24,4.6-6,8.73,1,1.76,2.55,3.25,4.57,3.25a4.24,4.24,0,0,0,1.22-.18c1.26-.36,1.82-1.21,3.17-1.21h.31a8,8,0,0,1,4.24,1.87c3.29,2.69,6.25,9.41,10.84,9.88h.43a12.14,12.14,0,0,0,1.9-.21,12.52,12.52,0,0,1,1.93-.21,3.14,3.14,0,0,1,1.45.29c1.46.74,1.56,2.53,2.5,3.7a2,2,0,0,0,1.6.92,4.19,4.19,0,0,0,1.22-.24,4.54,4.54,0,0,1,1.36-.25,1.71,1.71,0,0,1,.32,0,9,9,0,0,0-4,3.82c-.86,1.82-.89,4.67.66,6.17A10.07,10.07,0,0,0,185.66,98c1,.19,2.55,0,2.22,1a13.27,13.27,0,0,1-1.34,1.9,8.15,8.15,0,0,0-1,3.19c-.3,2.06-.33,4.15-.69,6.2a3.32,3.32,0,0,1-2.93,2.89,7.67,7.67,0,0,1-1.17.08c-2.17,0-4.5-.75-6.57-1.09a46.89,46.89,0,0,1-5.86-1.22c-4.75-1.38-5.7-3.87-6.36-8.49-.45-3.1-1.08-6.1-1.78-9.16-1.36-5.93-3.59-10.76-8.4-14.62a22.36,22.36,0,0,0-13.07-4.49,14.41,14.41,0,0,0-2.93.28c-2.49-2.77.1-9,1.56-11.67a19.37,19.37,0,0,1,4.73-5.43c.64-.53,2.83-1.44,3.15-2.2.72-1.7-1-2.28-2.5-3.28-1-.63-1.7-1.51-2.9-1.7a3.49,3.49,0,0,0-.65-.06c-.92,0-.76.52-1.69.84s-1,.63-1.45.63a2.81,2.81,0,0,1-1.38-.68c-1.1-.75-1.32-1.68-2.67-2.06s-2.81,0-4.27-.65c-3.09,5.15.48,13,0,18.76-.92-1.11-1.13-2.54-1.78-3.86-1.36-2.75-3-5.61-4.56-8.28-1.35-2.31-2.1-3.44-1.56-6.1a17.75,17.75,0,0,0,.78-3.82,16.7,16.7,0,0,0-1.27-6c-2-5-6.12-9.43-10.19-12.36-4.72-3.39-9.66-2.21-15.06-2.78-4.55-.48-11.24.48-14.54-3.3C78.11,18.87,77,17,75.59,15.35,72.44,11.84,68.25,9.6,64.1,7.44,57.63,4.08,50.91.87,43.58-.11a15.72,15.72,0,0,0-2.06-.13c-5,0-9.08,2.33-14,3.33,1.41,4,2.17,4.93.1,8.79-.95,1.78-1.57,2.41-.33,4.11.88,1.19,1.87.21,1.58,2.67a6.56,6.56,0,0,0,1.08.09c4.82,0,7.74-5.57,11.75-7.53a17.47,17.47,0,0,1,7.1-1.36,13.21,13.21,0,0,1,4.86.77,6.47,6.47,0,0,0,.51-2.85,2.92,2.92,0,0,1,1.27,0c.19.93-.09,3.43.74,3.43.28,0,.7-.29,1.31-1,2.47,1.61-3.63,6.41-4.72,7.59A33.67,33.67,0,0,0,43.4,39.31c-.07,1-.1,2-.1,3.1,0,2,1,5.06.44,6.93-.38,1.38-2.28,2.26-3.56,3.06a37.3,37.3,0,0,1-5.61,3c-7.25,3-14.53,4.78-21.08,9.43C6.75,69.62,1.16,76.49.16,84.93c-.82,6.84,1.06,17.39,6.8,21.9a15.67,15.67,0,0,0,7.38,3,8,8,0,0,0,1.29.1c2.5,0,4.42-1.14,6.83-2.07,7.79-3,10.24-12.1,2.89-17.42-2.63-1.91-7.51-3.33-8.09-7-.65-4,3.09-6.21,6.55-6.68a12.29,12.29,0,0,1,1.71-.12c5.66,0,9,4.1,12.69,7.7C53,98.68,65,115,70.3,135c3.94,14.75,8.12,29.11,16.45,42.11,7.13,11.15,15.45,20.52,28.71,24.34a59.13,59.13,0,0,1,9.35,3.59c4.18,2,5.15,5,2.79,9.07-2.75,4.73-6.28,9.09-11,11.87-2.87,1.68-6.31,4.23-9.75,4.23a6.49,6.49,0,0,1-4-1.34,13.82,13.82,0,0,1-4.57-7.39c-.42-2.13-.83-7.26,1.45-8.56a2.22,2.22,0,0,1,1.07-.25,4.35,4.35,0,0,1,2.78,1.14c1.18,1.16.73,2.3.69,3.75-.07,2.8,1.34,3.94,3.25,3.94a7.43,7.43,0,0,0,3-.72c5.81-2.58,6-9.78,1.84-14.2a15.65,15.65,0,0,0-22.12-.4l-.24.24c-6.6,6.65-5.6,13.8-1.06,21.2A12.64,12.64,0,0,1,90,238c-1.1,4-4,5.95-7.2,8.2-3.59,2.53-7.3,4.92-11.12,7.11a108.85,108.85,0,0,1-24.15,10.31,27,27,0,0,1-12.29.63c-3.11-.59-7.5-1.58-9.62-4.1a6.69,6.69,0,0,1,.42-9.45h0c.22-.19.44-.37.68-.54a4.61,4.61,0,0,1,2.58-.84c2.19,0,4,1.78,3,4.61-.9,2.54-5,3.05-1.46,5.93a7.22,7.22,0,0,0,4.52,1.49c5.14,0,11.15-4.14,12.39-8.34a12.22,12.22,0,0,0-5.06-13.9A18.06,18.06,0,0,0,32.64,236a25,25,0,0,0-9.27,2c-4.62,1.84-7.76,3.93-10.18,8.27a26.18,26.18,0,0,0-3.31,10.62c-.31,4.35,1.87,7,4.12,10.41,4.09,6.27,11.59,8.9,18.88,8.9a30.26,30.26,0,0,0,5.93-.58c9.65-1.92,19.39-3.4,29.1-5q26.94-4.54,53.88-9c15-2.47,30-4.76,45.06-7.27,13.82-2.32,27.59-4.94,41.41-7.24,15.66-2.62,31.37-4.95,47-7.56,16-2.66,32-5.19,47.87-8.4a309.27,309.27,0,0,0,35.86-9c17.21-5.67,25.87-20.25,23.22-38-1.58-10.53-5.77-20.07-15.53-25.7a29.59,29.59,0,0,0-14.81-4.11c-12.63,0-24.1,8.73-28,22.81-4.17,15,6.21,22.24,16.68,23.1h1c4.8,0,7.92-2.91,8.87-7.41.63-3,.46-7.61-1.38-9.46a6.41,6.41,0,0,0-4.66-2c-2.4,0-4.91,1.26-7.13,3a20.43,20.43,0,0,1-2.13,1.21,30,30,0,0,1-.35-4.83c.73-7.85,7-14.61,14.19-15.47a19.41,19.41,0,0,1,2.29-.13c8.26,0,16.44,5.14,18.76,12.15,4.34,13.12-1.87,26.61-14.84,32.24a41.82,41.82,0,0,1-16.51,3.72c-9.82,0-18.07-4.45-22.76-13.1-3.78-7-6.18-14.71-9.38-22-1.66-3.78-.81-6.09,2.85-8.17,8.58-4.88,15.67-11.31,20.35-20.26a8.13,8.13,0,0,1,5.43-3.62c8.09-1.07,16.27-1.6,24.41-2.31,5.34-.47,10.71-.73,16-1.42q10.4-1.37,20.78-2.88C376.4,137.87,376.4,105.49,376.4,99.64Z" transform="translate(3.84 2)" style="fill:#02263c"/>
    </g>
    <path class="outline" d="M31.91,279.83c-9.27,0-17-3.71-21.25-10.18L9.9,268.5c-2.05-3.05-4.16-6.2-3.82-11a29.07,29.07,0,0,1,3.67-11.83c2.91-5.2,6.74-7.56,11.6-9.5A27.9,27.9,0,0,1,31.67,234h0a20.82,20.82,0,0,1,11.62,3.57,15.06,15.06,0,0,1,6.23,17.12c-.87,2.94-3.4,5.74-6.55,7.69a24.48,24.48,0,0,0,2.79-.64,105.93,105.93,0,0,0,23.52-10c3.63-2.08,7.29-4.42,10.9-7l.42-.29c2.84-2,4.9-3.45,5.69-6.34l0-.14a9.81,9.81,0,0,0-.85-8c-5.83-9.51-5.33-17.8,1.54-24.59l.23-.23a18.41,18.41,0,0,1,12.86-5.21,19.08,19.08,0,0,1,2.27.14c-8.51-5.39-14.32-13.14-19-20.46-8.46-13.23-12.77-27.85-16.8-42.91C62,119.43,51.74,103.28,35.25,87.26L33.88,85.9c-3.3-3.31-6.13-6.07-10.67-5.45a5.89,5.89,0,0,0-3.79,1.83,1.93,1.93,0,0,0-.34,1.59c.2,1.29,2.29,2.44,4.13,3.44A28.1,28.1,0,0,1,26,89c4.06,2.94,6.06,7.17,5.49,11.61a13.75,13.75,0,0,1-9,10.75c-.52.2-1,.42-1.51.63a15.56,15.56,0,0,1-6.34,1.64,11.28,11.28,0,0,1-1.72-.14A18.56,18.56,0,0,1,4.28,110c-6.45-5.07-8.88-16.4-7.92-24.5,1-8.29,6.14-16.14,14.51-22.09,5-3.57,10.45-5.55,15.69-7.47,2-.71,4-1.45,5.95-2.27a34.59,34.59,0,0,0,5.14-2.77c.29-.19.55-.34.82-.5a9.24,9.24,0,0,0,1.58-1.07,13.06,13.06,0,0,0-.25-3,21.48,21.48,0,0,1-.31-3c0-1.11,0-2.22.11-3.29a36.53,36.53,0,0,1,10-23c.22-.24.63-.62,1.13-1.09.29-.26.8-.73,1.34-1.26l-.58-.24a10.59,10.59,0,0,0-3.77-.56,14.78,14.78,0,0,0-5.86,1.07,17.23,17.23,0,0,0-3.64,2.88C35.76,20,33,22.66,28.87,22.66a8.89,8.89,0,0,1-1.54-.13l-2.67-.44.27-2.33a4.88,4.88,0,0,1-1-1c-2.17-3-1-5.07-.17-6.6l.29-.52c1.24-2.31,1.2-2.42.18-5.23-.14-.4-.3-.82-.46-1.29L22.69,2l3.18-.65a42.81,42.81,0,0,0,5-1.43,30.21,30.21,0,0,1,9.56-2,17.88,17.88,0,0,1,2.42.16C50.75-.79,57.79,2.61,64.32,6c3.87,2,8.7,4.52,12.29,8.54a32.29,32.29,0,0,1,2.19,2.84,28.46,28.46,0,0,0,1.77,2.31c1.71,2,5.56,2.07,9,2.16,1.32,0,2.56.07,3.75.2,1.37.14,2.77.17,4.12.19,4,.07,8.16.14,12.29,3.11A32.59,32.59,0,0,1,120.87,39a19.51,19.51,0,0,1,1.46,7v.14l0,.14a19.56,19.56,0,0,1-.85,4.28c-.26,1.37,0,1.77,1.07,3.65a12.81,12.81,0,0,1,1.67-6.34l1.27-2.11,2.26,1a4.38,4.38,0,0,0,1.44.2,10.74,10.74,0,0,1,2.49.33,6.08,6.08,0,0,1,3,2,4.8,4.8,0,0,0,.36.38l.31-.12a4.24,4.24,0,0,1,3.85-1,7.38,7.38,0,0,1,3.43,1.69,6.46,6.46,0,0,0,.59.44l.7.44c1.2.72,4.4,2.65,2.85,6.32-.59,1.39-1.95,2.15-3.27,2.89a6.76,6.76,0,0,0-.73.43,16.46,16.46,0,0,0-4,4.64,16.28,16.28,0,0,0-2.22,7.15,25,25,0,0,1,16,5.09c4.81,3.86,7.7,8.86,9.38,16.19.62,2.71,1.32,5.94,1.83,9.39.58,4.1,1.15,5.25,4.34,6.18a44.94,44.94,0,0,0,5.47,1.13c.83.14,1.61.31,2.37.48a14.7,14.7,0,0,0,4.55.53h.11A.5.5,0,0,0,181,111l0-.13c.17-1,.26-2,.36-3.15.08-.94.16-1.92.31-2.91a10.73,10.73,0,0,1,.91-3.38,13,13,0,0,1-4.71-2.74c-2.57-2.48-2.6-6.6-1.34-9.42.12-.27.26-.52.39-.76a6.14,6.14,0,0,1-.53-.59,9.33,9.33,0,0,1-1.2-2.12,7.6,7.6,0,0,0-.38-.8h-.15a11.46,11.46,0,0,0-1.47.17,12.15,12.15,0,0,1-3.09.22c-4.19-.43-7-4-9.38-7.13a22.68,22.68,0,0,0-3-3.38A5.14,5.14,0,0,0,155,73.64l-.43.25a8.31,8.31,0,0,1-1.93.86,7.22,7.22,0,0,1-2,.29c-2.83,0-5.4-1.72-7.05-4.71a7.7,7.7,0,0,1-.12-7.46,10.77,10.77,0,0,1,8.18-5.45,7.9,7.9,0,0,1,7.39,3,6.78,6.78,0,0,1,1.17,3.86c0,.15,0,.34,0,.49a16.19,16.19,0,0,0,3.11-2.16c.43-.36.82-.67,1.14-.91,2.15-1.56,5.08-3.69,8.39-4.09a12.3,12.3,0,0,1,2.35,0,5.83,5.83,0,0,0,1.54,0,4.38,4.38,0,0,0,1.6-1.14c.38-.35.81-.75,1.31-1.13,2.57-2,6.36-3.24,11.58-3.86a37,37,0,0,0,7.28-1.36A25.5,25.5,0,0,0,201,48.82l.14-.07a9.66,9.66,0,0,1,10.75,1.35,7,7,0,0,1,2.34,6.25,6.77,6.77,0,0,1-1.2,3c-.1.17-.25.4-.31.53a1.37,1.37,0,0,0,.49,1,8.28,8.28,0,0,1,2.33,2l.18.23.14.26a4.17,4.17,0,0,1,.44,1.76l.34,0c1.41.06,3.77.16,5.24,2.29a4.69,4.69,0,0,1,.79,2l.1.06a4,4,0,0,1,2.05,3.36c5.49,2,7.33,11.15,7.35,11.26a15.19,15.19,0,0,1,.23,2.84,5.47,5.47,0,0,0,.28,2.2c.19.44.37.94.56,1.46a9.88,9.88,0,0,0,1.46,3,8.07,8.07,0,0,0,3.8,1.12h.19c1.92.2,3.85.51,5.74.9l.71.13a35.64,35.64,0,0,0,6.41.8q.52,0,1,0l-.41-.83a39.82,39.82,0,0,1-2.37-5.48c-2.52-7.8-4.51-16.12-2.11-24,2.07-6.8,6.93-12.8,14.05-17.34a26.76,26.76,0,0,1,14.65-4.7,23.88,23.88,0,0,1,4.59.45c3.56.7,7.08,3.4,9.66,7.42,3,4.62,4.13,10,3.09,14.35-1.72,7.21-7.55,12.06-14.51,12.06a15.66,15.66,0,0,1-4.75-.76,14.21,14.21,0,0,1-4.09-2.28,4.44,4.44,0,0,0,1.78,2.28,108.48,108.48,0,0,0,14.07,8.67l1.29.67c9.12,4.76,18.55,9.67,23.47,20.43a3.81,3.81,0,0,0,1.7.57c9.43-1.3,19-2.87,28.24-4.4l7.09-1.16c6.49-1,13.2-2.15,19.75-3.4l7.19-1.39,3.37-.66v10l.07,31.37h-.07v4.35l-2.42.35c-6.93,1-13.94,2-20.82,2.89-3.65.47-7.35.75-10.93,1-1.74.13-3.48.26-5.21.41-2.13.19-4.26.36-6.39.53-5.87.48-11.94,1-17.83,1.75a5.38,5.38,0,0,0-3.42,2.26c-4.61,8.76-11.61,15.73-21.4,21.29-2.56,1.46-2.66,2.29-1.65,4.57,1.19,2.73,2.28,5.52,3.33,8.23a121.44,121.44,0,0,0,5.94,13.58c4.06,7.48,11.26,11.61,20.28,11.61a38.65,38.65,0,0,0,15.37-3.49c11.55-5,17.13-17.09,13.28-28.74-1.89-5.73-8.95-10.21-16.07-10.21a15.82,15.82,0,0,0-1.95.11c-5.74.69-10.9,6.26-11.66,12.53,4.93-3,10-2.77,13.41.69,3,3.07,2.73,9.22,2.14,12.05-1.25,6-5.71,9.66-11.63,9.66-.41,0-.83,0-1.26,0-7.32-.6-13.53-3.83-17-8.85-2.32-3.33-4.57-9.13-2.15-17.84,4.13-14.88,16.49-24.87,30.74-24.87h0a32.26,32.26,0,0,1,16.23,4.48c9.39,5.42,14.93,14.49,16.91,27.74,2.89,19.27-6.74,35-25.13,41.07a313.49,313.49,0,0,1-36.23,9.06c-13.27,2.68-26.86,4.93-40,7.1l-7.91,1.31c-7.82,1.31-15.78,2.56-23.48,3.77s-15.71,2.48-23.55,3.79c-7,1.17-14.14,2.44-21,3.67-6.67,1.19-13.57,2.43-20.38,3.57-8.23,1.38-16.6,2.71-24.69,4-6.8,1.08-13.59,2.16-20.38,3.28q-26.93,4.5-53.87,9l-7.62,1.26c-7,1.16-14.31,2.35-21.4,3.77A33.26,33.26,0,0,1,31.91,279.83Zm-.24-40.21a22.18,22.18,0,0,0-8.22,1.81c-4.6,1.83-6.89,3.67-8.76,7a23.5,23.5,0,0,0-3,9.5c-.2,2.82,1,4.64,2.88,7.41l.79,1.2c3.17,4.84,9.18,7.62,16.51,7.62a27.65,27.65,0,0,0,5.38-.53c7.17-1.43,14.5-2.64,21.58-3.8,2.53-.42,5.07-.83,7.6-1.26q26.94-4.54,53.88-9c6.81-1.12,13.61-2.2,20.42-3.28,8.08-1.29,16.44-2.62,24.64-4,6.78-1.14,13.66-2.37,20.32-3.56,6.91-1.23,14.05-2.51,21.09-3.68,7.87-1.32,15.87-2.58,23.61-3.8s15.63-2.46,23.42-3.76l7.93-1.31c13.09-2.17,26.64-4.4,39.85-7.07a307.21,307.21,0,0,0,35.57-8.9C353,215,361,202,358.47,185.36c-1.72-11.43-6.34-19.17-14.14-23.67a26.67,26.67,0,0,0-13.4-3.73c-11.68,0-21.84,8.33-25.28,20.73-1.47,5.29-1,9.69,1.34,13.07,2.53,3.64,7.21,6,12.84,6.45l.8,0c4.13,0,5.59-2.8,6.08-5.15.6-2.87.16-6.11-.61-6.88a3.57,3.57,0,0,0-2.64-1.17,9.31,9.31,0,0,0-5.36,2.42l-.23.17a22.21,22.21,0,0,1-2.45,1.39L312,190.68l-.57-3.8a33.35,33.35,0,0,1-.39-5.26l0-.24c.84-9.1,8.17-17,16.67-18a23.06,23.06,0,0,1,2.63-.15c9.57,0,18.79,6.06,21.45,14.1,4.8,14.5-2.1,29.52-16.4,35.73A44.46,44.46,0,0,1,317.74,217c-11.19,0-20.16-5.18-25.26-14.58a123.5,123.5,0,0,1-6.24-14.22c-1-2.66-2.1-5.4-3.25-8-2.23-5.09-.91-8.94,4.05-11.77,8.86-5,15.15-11.29,19.24-19.11l.12-.22a11.05,11.05,0,0,1,6.59-4.72c-3.3-.69-5.29-3.37-5.3-7.32,0-5.49-.06-11.34,0-17.11a7.66,7.66,0,0,1,3.07-6.43c-1.91-.46-4.1-1.58-4.92-3.45-4.07-9.12-12.3-13.41-21-18l-1.28-.67a113.82,113.82,0,0,1-14.8-9.12c-4.59-3.36-5.54-8.56-2.43-13.24l1.59-2.4,2.38,1.63c.82.56,1.56,1.15,2.28,1.72a13.28,13.28,0,0,0,3.57,2.31,9.67,9.67,0,0,0,3,.49c4.28,0,7.89-3.1,9-7.71.68-2.85-.21-6.67-2.33-10-1.73-2.68-4-4.52-6-4.91-5-1-9.89.12-15.1,3.45-4.16,2.66-9.56,7.28-11.68,14.22-2,6.43-.15,13.73,2.09,20.66a33.67,33.67,0,0,0,2.05,4.7,46.8,46.8,0,0,1,2,4.4l1,2.68-2.68,1a17.16,17.16,0,0,1-6,1,41,41,0,0,1-7.43-.89l-.78-.14a50.45,50.45,0,0,0-5.15-.82,13.62,13.62,0,0,1-6.58-2l-.17-.11c-2-1.41-2.83-3.81-3.53-5.73-.15-.42-.3-.83-.45-1.19a10.65,10.65,0,0,1-.73-4.35,9.63,9.63,0,0,0-.13-1.82c-.64-3.29-2.78-7.06-4-7.06a.8.8,0,0,0-.29,0l-3.16,1.09-.55-3.3a4,4,0,0,1-.06-.76,3.14,3.14,0,0,1-2.32-.93,3.2,3.2,0,0,1-.91-2.37V70.77a4.86,4.86,0,0,1-4.46-3.26,4.17,4.17,0,0,1-.23-1.54l-.29-.18-.27-.17a7.07,7.07,0,0,1-3-6.26l0-.23a6.85,6.85,0,0,1,1.16-2.76,5.36,5.36,0,0,0,.34-.6l0-.21a1.26,1.26,0,0,0-.42-1.16,4.05,4.05,0,0,0-4.43-.63,31.75,31.75,0,0,1-3.08,1.56l-.33.12a42.29,42.29,0,0,1-8.49,1.62c-5.05.6-7.53,1.81-8.71,2.72-.3.23-.6.51-.92.8a9.18,9.18,0,0,1-4,2.45,10.63,10.63,0,0,1-3.38.2,6.41,6.41,0,0,0-1.31,0c-1.85.22-4.09,1.85-5.73,3-.25.18-.54.42-.88.7-1.52,1.25-3.52,2.89-5.75,3.39l.23.18a26.76,26.76,0,0,1,3.78,4.25c1.74,2.25,3.71,4.79,5.5,5a6.42,6.42,0,0,0,1.57-.17,14.74,14.74,0,0,1,2.4-.25,6,6,0,0,1,2.72.59,6.59,6.59,0,0,1,3,3.58c.09.21.19.43.28.61a7,7,0,0,1,2.78-.32l8.26,1-7.13,4.28c-1.65,1-2.41,1.55-2.87,2.57a3.22,3.22,0,0,0,.05,2.95,7.39,7.39,0,0,0,3.41,1.7l.45,0A4.29,4.29,0,0,1,189.12,98a3.41,3.41,0,0,1,.4,3l-.09.29-.15.26a14.51,14.51,0,0,1-1.45,2.1,5.58,5.58,0,0,0-.54,1.87v.14c-.13.85-.2,1.71-.28,2.63-.1,1.16-.21,2.36-.42,3.58a6.13,6.13,0,0,1-5.36,5.28,11,11,0,0,1-1.54.1,23.55,23.55,0,0,1-5-.72c-.68-.15-1.35-.3-2-.4a52.35,52.35,0,0,1-6.16-1.29c-6.62-1.92-7.76-6.22-8.42-10.82-.47-3.24-1.14-6.33-1.73-8.93-1.4-6.09-3.62-10-7.41-13a19.68,19.68,0,0,0-11.3-3.87,11.45,11.45,0,0,0-2.35.22l-1.6.34-1.09-1.22c-4-4.44-.11-12.54,1.18-14.92a22.28,22.28,0,0,1,5.47-6.3,7.94,7.94,0,0,1,1.11-.72l-.28-.18c-.32-.21-.64-.45-1-.7s-.46-.35-.64-.47a4.9,4.9,0,0,1-1.15.58,1.39,1.39,0,0,0-.35.17,3.9,3.9,0,0,1-2,.62,5.35,5.35,0,0,1-3-1.18A8.46,8.46,0,0,1,130.5,53c-.12-.12-.28-.29-.33-.33a6.87,6.87,0,0,0-1.25-.14l-.51,0c-.48,2.25,0,5.15.42,8a33.64,33.64,0,0,1,.62,7.81l-.6,6.89-4.41-5.32a10.13,10.13,0,0,1-1.67-3.24c-.16-.43-.31-.84-.47-1.18-1.4-2.83-3.12-5.81-4.46-8.1l-.17-.27c-1.32-2.26-2.46-4.21-1.73-7.83l.09-.32a14.45,14.45,0,0,0,.63-3,13.87,13.87,0,0,0-1-4.82A27.18,27.18,0,0,0,106.39,30c-2.7-1.93-5.52-2-9.08-2-1.48,0-3-.05-4.63-.23-1-.1-2.1-.13-3.3-.16-4.34-.12-9.74-.27-13.08-4.09-.79-.9-1.46-1.85-2.12-2.76a26,26,0,0,0-1.8-2.36c-2.9-3.23-7-5.38-10.68-7.28-1-.51-2-1-3-1.52a3.91,3.91,0,0,1,1.08,2.43c.23,2.78-2.23,5.3-5.22,8.06-.36.33-.65.59-.81.76a30.71,30.71,0,0,0-8.53,19.59c-.06.94-.09,1.91-.09,2.89a15.88,15.88,0,0,0,.25,2.17A13.61,13.61,0,0,1,45.49,51c-.61,2.23-2.66,3.43-4.15,4.31l-.63.38a41,41,0,0,1-6,3.23c-2.13.87-4.2,1.63-6.21,2.36C23.4,63.1,18.57,64.87,14.15,68,7.1,73,2.79,79.45,2,86.14c-.77,6.52,1.2,15.76,5.74,19.33a13,13,0,0,0,6,2.42,6.48,6.48,0,0,0,.92.08,10.62,10.62,0,0,0,4.11-1.19c.55-.23,1.11-.47,1.7-.7a8.11,8.11,0,0,0,5.43-6.18c.31-2.36-.82-4.59-3.18-6.3a23.41,23.41,0,0,0-2.22-1.31c-2.69-1.47-6.37-3.49-7-7.52a7.58,7.58,0,0,1,1.39-5.87,11.25,11.25,0,0,1,7.58-4.07,16.67,16.67,0,0,1,2.09-.14c6.15,0,10,3.83,13.35,7.21l1.31,1.3c17.25,16.75,28,33.75,32.86,52,3.9,14.61,8.07,28.77,16.1,41.31,5.94,9.3,13.82,19.32,27.1,23.14a62.72,62.72,0,0,1,9.8,3.76c2.84,1.37,4.63,3.22,5.33,5.52s.26,4.82-1.32,7.53c-3.45,5.95-7.39,10.17-12,12.89-.46.27-.94.56-1.43.87-2.71,1.67-6.08,3.75-9.75,3.75a9.31,9.31,0,0,1-5.65-1.9l-.13-.1A16.72,16.72,0,0,1,94.58,223l0-.11c-.3-1.49-1.55-9.08,2.83-11.57a5,5,0,0,1,2.47-.62,7.09,7.09,0,0,1,4.76,2,5.77,5.77,0,0,1,1.59,5.15c0,.23,0,.46,0,.7a2.24,2.24,0,0,0,.14,1s.11,0,.29,0a4.54,4.54,0,0,0,1.8-.47,4.85,4.85,0,0,0,2.93-3.56,7.1,7.1,0,0,0-2-6.09,12.8,12.8,0,0,0-18.1-.32l-.21.21c-5,5-5.21,10.24-.66,17.65a15.53,15.53,0,0,1,1.39,12.63c-1.34,4.82-4.67,7.15-7.88,9.42l-.41.28c-3.75,2.65-7.57,5.1-11.34,7.25a111.29,111.29,0,0,1-24.77,10.58,29.88,29.88,0,0,1-13.59.69c-4.12-.78-8.65-2-11.24-5a9.47,9.47,0,0,1,1.61-14.18,7.38,7.38,0,0,1,4.22-1.36,6.1,6.1,0,0,1,5,2.49,6.3,6.3,0,0,1,.6,5.9,7.32,7.32,0,0,1-2.1,3,4.56,4.56,0,0,0,2.56.68c4.13,0,8.85-3.52,9.67-6.3a9.4,9.4,0,0,0-3.87-10.72,15.38,15.38,0,0,0-8.55-2.66Zm-3.32,13.32a1.74,1.74,0,0,0-1,.34,2.44,2.44,0,0,0-.37.3,3.91,3.91,0,0,0-1.19,3.64,6.56,6.56,0,0,1,1.94-2.51,5.09,5.09,0,0,0,.88-.94,1.32,1.32,0,0,0,.11-.74A.73.73,0,0,0,28.35,252.94Zm75.31-25.41a3.61,3.61,0,0,0,2.21.74c2.06,0,4.56-1.54,6.77-2.91l1.53-.93c3.78-2.21,7-5.76,10-10.85a4.34,4.34,0,0,0,.8-3c-.27-.9-1.44-1.62-2.37-2.07a57.87,57.87,0,0,0-8.91-3.42l-1-.31c.26.24.52.49.77.75a12.67,12.67,0,0,1,3.46,11.12,10.42,10.42,0,0,1-6.19,7.64c-3.36,1.49-6.54,1.2-8.45-.76a6.77,6.77,0,0,1-1.74-5.12c0-.38,0-.73.07-1.07s0-.46,0-.62a1.74,1.74,0,0,0-.45-.24,11.82,11.82,0,0,0,0,5.31A11,11,0,0,0,103.66,227.53ZM100.3,216.2ZM372.6,108.81c-6.11,1.25-18.66,3.79-22.92,4.49-7.95,1.31-16.08,2.18-23.93,3-3.16.34-6.32.68-9.47,1-2.67.32-2.89,1.28-2.9,2.6-.08,5.73-.05,11.55,0,17,0,1.86.47,1.86,1.41,1.86H315c2.56-.09,5.12-.15,7.68-.2,5.67-.12,11.52-.24,17.17-.84,9.39-1,26.42-3.36,32.8-4.25ZM311,107.72h0Zm-.21-.31ZM152.8,63l-.35,0-.13,0a5.17,5.17,0,0,0-3.84,2.43,2.07,2.07,0,0,0,0,2.11c.48.87,1.28,1.79,2.09,1.79a1.44,1.44,0,0,0,.44-.07,2.83,2.83,0,0,0,.66-.33,6,6,0,0,1,3.73-1v0a6.66,6.66,0,0,1-.91-3.41,4.21,4.21,0,0,0-.08-.8A2.15,2.15,0,0,0,152.8,63ZM40,49.42Zm.07-.18Zm-11.6-34a3.85,3.85,0,0,1,1.64,1.47,14.48,14.48,0,0,0,4.22-3.17,21.35,21.35,0,0,1,5-3.83A20.07,20.07,0,0,1,47.73,8.1a20.85,20.85,0,0,1,2.49.14L50.13,6.6l1.41-.31a41.47,41.47,0,0,0-9.42-2.51,13.54,13.54,0,0,0-1.68-.11,25.45,25.45,0,0,0-7.8,1.68c-.82.27-1.65.54-2.51.8.79,2.56.83,4.56-1.09,8.15l-.32.59Zm65,246.12a7.7,7.7,0,0,1-1.6-.23L90,260.82,82.8,259.6l6.12-4c1.48-1,2.83-1.82,4.09-2.62,2.39-1.53,4.46-2.85,6.46-4.22C116.54,237.14,130,222,141,208.73c8.26-10,18.65-15.29,31.77-16.17,5.16-.35,8.64,1.66,10.39,6,.51,1.27,1.09,2.51,1.69,3.83.88,1.9,1.78,3.86,2.5,5.92a11.48,11.48,0,0,1,.12,6.59c-1.52,5.36-6.26,8.35-12.42,7.69a9.74,9.74,0,0,1-6.69-3.53c-1.3-1.69-3.16-5.51-1.26-8.38a4.31,4.31,0,0,1,.51-.64,4.59,4.59,0,0,1,3.37-1.45,6.13,6.13,0,0,1,.91.07.07.07,0,0,0,0-.05c-.24-1.28-.7-1.28-1.18-1.28h0a6.43,6.43,0,0,0-4.87,3.18,10.06,10.06,0,0,0-.51,2.72,22.12,22.12,0,0,1-.31,2.3,13.14,13.14,0,0,1-5,7.64,11.71,11.71,0,0,1-5,1.87,14,14,0,0,0-2.13.54c-4,1.56-7,4.07-7.9,6.72-.84,2.46-.09,5.95,2.3,7.17l-.32-2.63a5.78,5.78,0,0,1,1.31-4.37,10.9,10.9,0,0,1,6.87-3.61l.56,0c2.52,0,7.29,1.79,7.82,5.37.76,5.19.12,8.75-1.9,10.58a27.1,27.1,0,0,1-12.21,6.25c-14.11,2.86-28.45,5.44-42.32,7.94l-12.88,2.32A3.42,3.42,0,0,1,93.45,261.4Zm80.46-63.21-.79,0c-11.64.78-20.47,5.27-27.77,14.12-11.2,13.57-25,29.08-42.68,41.15l-1.08.74,4.45-.8c13.82-2.49,28.12-5.07,42.11-7.9a9.37,9.37,0,0,1-3.07-.77c-5.56-2.5-7.19-9.35-5.51-14.26,2.07-6.07,8.54-9.14,11.22-10.18a18,18,0,0,1,3.07-.81,7.12,7.12,0,0,0,2.74-.87,7.45,7.45,0,0,0,2.83-4.28c.09-.45.15-1,.21-1.68a15.09,15.09,0,0,1,.91-4.29c1.48-3.63,6.12-6.69,10.11-6.69h0c3.48,0,6.07,2.25,6.75,5.89.46,2.38-.62,5.56-3.16,6.53a5,5,0,0,1-2.12.31,4.91,4.91,0,0,0,.63,1.14,4,4,0,0,0,2.77,1.4,10,10,0,0,0,1.13.07c2,0,4.46-.63,5.31-3.65a5.69,5.69,0,0,0,0-3.27c-.61-1.72-1.41-3.47-2.27-5.33-.6-1.32-1.23-2.69-1.8-4.08C177.12,198.82,176.12,198.19,173.91,198.19Zm-17.39,36.52a5.61,5.61,0,0,1,.88,1.53,5.88,5.88,0,0,1-.2,4.87l.57-.5c.19-.29.56-2,.14-5.21A4.73,4.73,0,0,0,156.52,234.71Zm-4.68,3.94a4.94,4.94,0,0,0-.72.34l-1.26.71.13,0,.22-.12C150.56,239.37,151.32,239,151.84,238.65Zm23,7.22a14.51,14.51,0,0,1-2-.12l-5.85-.83,4.31-4c1.27-1.19,2.44-2.31,3.56-3.37,2.44-2.31,4.54-4.3,6.76-6.28,9.42-8.38,13-18.6,10.85-31.22-.57-3.36-.83-5.7.58-7.61s4.14-2.4,7.47-2.85c2-.27,4-.72,6.09-1.21l1-.23a22,22,0,0,1,4.8-.67c5.66,0,7.32,4.32,8.52,8.74.78,2.86,3.15,11.57-5.19,16.48l-.76.43c-1.91,1.1-2.79,1.64-3.22,2.93a8.87,8.87,0,0,0,.23,5.32,4.11,4.11,0,0,0,3,2.69,13.77,13.77,0,0,0,2.41.24,4,4,0,0,0,2.15-.41.67.67,0,0,0,.3-.47h-.82c-2.8,0-3.95-1.46-4.42-2.69A4.23,4.23,0,0,1,215,217c1.72-2.93,6.42-3.64,6.47-3.65a8,8,0,0,1,1.09-.08c3.13,0,5.26,1.9,7,3.43l.53.47c2.66,2.34,5.24,4.78,7.73,7.14l2.61,2.48-1.55,2C234.53,234.39,186.51,245.87,174.83,245.87Zm22.84-50.05a21.61,21.61,0,0,0,.38,3.25c2.44,14.5-1.82,26.75-12.68,36.4-1.52,1.36-3,2.73-4.58,4.23,14.59-2,42.3-9.26,51.13-13.1-1.88-1.77-3.72-3.48-5.65-5.18l-.57-.5c-.38-.34-.72-.64-1-.9l.16.3a6.33,6.33,0,0,1-2.14,8.28,9.48,9.48,0,0,1-5.26,1.34,19.44,19.44,0,0,1-3.53-.35,9.82,9.82,0,0,1-7.24-6.36,14.42,14.42,0,0,1-.34-8.77l0-.11c1.11-3.48,3.62-4.91,5.82-6.18l.71-.4c2.76-1.63,4.26-4,2.59-10.1-1.24-4.56-1.92-4.56-3.05-4.56a17.09,17.09,0,0,0-3.54.53l-1,.23c-2.14.49-4.35,1-6.6,1.3A25.22,25.22,0,0,0,197.67,195.82Zm22.13,27.12h0Zm66.6.47c-21.55,0-57.4-18.17-62.28-35.13l-.82-2.85,2.88-.69,4-1c3.08-.76,6.26-1.55,9.43-2.23,1.09-.24,2.18-.51,3.28-.78,3.45-.86,7.05-1.76,10.72-1.58,4.32.21,10.43,1.11,15,4.22,4.93,3.39,8.47,8.8,10.57,12.74,3.28,6.16,8,11.65,14.8,17.28,1,.78,1.9,1.56,3,2.42l4.33,3.51-4,1.95A24.75,24.75,0,0,1,286.4,223.41Zm-55.68-33.95c7,12.9,36.47,28.28,55.68,28.28a29.3,29.3,0,0,0,3.64-.22c-7.25-6-12.3-12-15.88-18.73-1.8-3.39-4.79-8-8.78-10.74-2.67-1.83-6.95-3-12-3.23-2.88-.14-5.87.62-9.07,1.42-1.15.29-2.31.57-3.45.82-3.09.66-6.23,1.44-9.26,2.19Zm19-56.73v-3.57a11.19,11.19,0,0,0-6.15-10.26c-.45-.27-.89-.53-1.33-.82a14.71,14.71,0,0,1-1.78-1.3l-4.52-3.85,5.84-1.1a9.08,9.08,0,0,1,1.57-.14,14.78,14.78,0,0,1,3.53.54,13,13,0,0,0,2.16.41,71.39,71.39,0,0,0,8.35.35c.27,0,.63,0,1-.09a16.18,16.18,0,0,1,2.25-.12h.15a3.26,3.26,0,0,1,3.4,3.09l0,.22a10.08,10.08,0,0,1-.39,3.94,23.5,23.5,0,0,1-.84,3.09l-.07.17c-1.37,3.25-5.92,7.72-9.72,8.61Zm2.08-14.19a17.45,17.45,0,0,1,3,6.09,11.9,11.9,0,0,0,2.89-3.46,19.23,19.23,0,0,0,.63-2.37l0-.2-.79.06h-1.25C254.8,118.67,253.3,118.63,251.8,118.54Z" transform="translate(3.84 2)" style="fill: transparent"/>
</svg>