<svg id="Слой_1" data-name="Слой 1" xmlns="http://www.w3.org/2000/svg" viewBox="0 0 821.86 650.03"
    style="width: 17%;">
    <g class="ship">
        <path d="M663.94,149H651.32v91.47h1.56v74.1h-1.56v55.18h12.62V149m0-28.37H651.32V142.7h12.62V120.61m0-28.38H651.32v22.1h12.62V92.23m0-48.87H651.32V86h12.62V43.36" transform="translate(-148.88 -43.36)" style="fill:#ffd775"/>
        <polyline points="504 197.09 502.43 197.09 474.06 197.09 474.06 271.19 487.61 271.19 490.55 265.47 496.16 268.35 494.71 271.19 502.43 271.19 504 271.19 504 197.09" style="fill:#ffd775"/>
        <polyline points="490.55 265.47 487.61 271.19 459.31 326.37 466.4 326.37 494.71 271.19 496.16 268.35 490.55 265.47" style="fill:#ffd775"/>
        <path d="M881,566.8H812.19v4.75h-6.28V566.8h-32l2.45,4.75h96.41A35.4,35.4,0,0,1,881,566.8m71.61,0H914.75v.46a3.66,3.66,0,0,1,.55,1h0l.22-.11,1.59,3.45h35.48V566.8m-146.68-7.88H769.84l2.45,4.75h33.62v-4.75m102.5,0H812.19v4.75h82c1.35-.14,2.66-.23,3.94-.28h0c.7,0,1.39,0,2.06,0a45,45,0,0,1,5.52.32h2.72v-4.75m44.18,0H914.75v4.75h37.84v-4.75m-146.68-7.84H765.8l2.43,4.72h37.68v-4.72m102.5,0H812.19v4.72h96.22v-4.72m44.18,0H914.75v4.72h37.84v-4.72m-146.68-9.47h-45l3.24,6.28h41.75v-6.28m102.5,0H812.19v6.28h96.22v-6.28m44.18,0H914.75v6.28h37.84v-6.28M438.37,451.72l-11-42.57h14.2l11,42.57h-14.2m18.93,0-11-42.57h14.2l11,42.57H457.3m21.54,0-10.72-42.57h42.81v42.57H478.84m38.41,0V409.14h39.41v42.59H517.25m93,29.94V409.14h28.4v72.53h-28.4M645,436V404.39h50.46V436H645m55.21,0V404.39h50.47V436H700.22M768,395H411.56l23.66,56.76h-41v14.19l4.73,17.34-26.47,54.39L371.32,540h27.62V491.14h336l24.37,47.28H952.59V506.9h-20.5v0h-9.46v0H846.9V451.72H768V395" transform="translate(-148.88 -43.36)" style="fill:#c5ab52"/>
        <path d="M773.9,566.8H747l2.14,4.75h27.24l-2.45-4.75m-4.06-7.88H743.42l2.52,5.6v-.85h26.35l-2.45-4.75m-4-7.84H739.89L742,555.8h26.21l-2.43-4.72m-4.88-9.47H735.63l2.83,6.28h25.7l-3.24-6.28m-26-50.47h-336V540h336v-1.59h24.37l-24.37-47.28" transform="translate(-148.88 -43.36)" style="fill:#a6882e"/>
        <polyline points="603.38 326.37 515.06 326.37 502.43 326.37 466.4 326.37 459.31 326.37 276.88 326.37 262.68 351.6 619.15 351.6 603.38 326.37" style="fill:#be452d"/>
        <path d="M878,692.79a2.13,2.13,0,0,0-.9.21,2.13,2.13,0,0,1,.9-.21m0,0h0m-1.91-.71a6.09,6.09,0,0,1-2.33,1.23h0a6.09,6.09,0,0,0,2.33-1.23m-2-2,.49,0-.49,0m-.42,0a8.83,8.83,0,0,0-2.61.4,8.83,8.83,0,0,1,2.61-.4m.13,0h0m6.32-2,.77.08,1.3.15h0a22.21,22.21,0,0,1,9,2.61,11.35,11.35,0,0,1,1.64,1.24h0a9.05,9.05,0,0,1,1,1.14h0a9.05,9.05,0,0,0-1-1.14,11.35,11.35,0,0,0-1.64-1.24,22.21,22.21,0,0,0-9-2.61l-1.3-.15-.77-.08m-8.76-.38c-1.2,0-2.39,0-3.59,0,1.2,0,2.39,0,3.59,0m0,0h0m-12.61,0a1,1,0,0,0-.36.3,1,1,0,0,1,.36-.3m8-.05,0,.07,0-.07m-7.72,0h0m7.2-.34h0M893.61,633l-.85.25.85-.25m26.52-3.52A103.41,103.41,0,0,0,893.64,633a103.41,103.41,0,0,1,26.49-3.51m.39,0h0m8.61-.12c-1.73,0-3.51.06-5.35.19h0c1.84-.13,3.62-.19,5.35-.19m0,0h0M943,627.63l-.15.86-1.17-.19,1.17.19h0l.15-.86M924,627c-1.66,0-3.27,0-4.82.09,1.55-.06,3.16-.09,4.82-.09m0,0h0m6.35-2.32c-1.16,0-2.34,0-3.53.05,1.19,0,2.37-.05,3.53-.05m0,0h0m-54.83-41.17h0m8-.56a72.55,72.55,0,0,1-7.87.56,72.55,72.55,0,0,0,7.87-.56m.61-.08-.36,0,.36,0m30.7-11.3h0c-1.59,2.63-5.89,5.31-11.71,7.36h0a64.31,64.31,0,0,1-10.48,2.67c-2.77.46-5.44.88-7.95,1.2h0l6.73,47.9h0l.22,1.47.37,1.28h0l.59-.18-.59.18-.37-1.28-.22-1.47a110.29,110.29,0,0,1,26.67-5.43l.59,1.84h0l-.59-1.84c2.6-.25,5.31-.41,8.1-.51h0c-2.79.1-5.5.26-8.1.51h0a110.29,110.29,0,0,0-26.67,5.43l-6.73-47.9c2.51-.32,5.18-.74,7.95-1.2a64.31,64.31,0,0,0,10.48-2.67h0c5.82-2,10.12-4.73,11.71-7.36m54.84,0H917.11l24.76,53.71h0A84.55,84.55,0,0,1,969.68,633V571.55M734.91,540H154.46A370.93,370.93,0,0,0,156,610.26c4.34,34.41,15.55,70.82,42.7,82.1l1.49.59c17.81.32,163.74.43,350.48.43,87.52,0,184,0,280.39-.06a15.43,15.43,0,0,1-2.76-1.54c-.51-1.08.58-2.44,8.79-2.8h0c1.37-.07,2.95-.1,4.76-.1,1.16,0,2.34,0,3.51-.06h0c1.93-15.86,8.27-34.13,25.15-47.11L867,579.56h.12a3.56,3.56,0,0,0,0,.57h0a3.56,3.56,0,0,1,0-.57c0-2.26,2.08-5.24,5.6-8H749.11L747,566.8h-1v-2.28l-2.52-5.6h-2.2V555.8h.8l-2.13-4.72h-1.82v-3.19h.39l-2.83-6.28h-.72V540" transform="translate(-148.88 -43.36)" style="fill:#c73c23"/>
        <polyline points="407.78 365.78 368.37 365.78 368.37 408.37 407.78 408.37 407.78 365.78" style="fill:#6e8e9a"/>
        <polyline points="546.59 361.03 496.12 361.03 496.12 392.59 546.59 392.59 546.59 361.03" style="fill:#6e8e9a"/>
        <polyline points="601.81 361.03 551.34 361.03 551.34 392.59 601.81 392.59 601.81 361.03" style="fill:#6e8e9a"/>
        <polyline points="489.81 365.78 461.4 365.78 461.4 438.31 489.81 438.31 489.81 365.78" style="fill:#b78423"/>
        <polyline points="362.05 365.79 319.24 365.79 329.96 408.36 362.05 408.36 362.05 365.79" style="fill:#6e8e9a"/>
        <polyline points="311.57 365.79 297.37 365.79 308.42 408.36 322.61 408.36 311.57 365.79" style="fill:#6e8e9a"/>
        <polyline points="292.65 365.79 278.45 365.79 289.49 408.36 303.69 408.36 292.65 365.79" style="fill:#6e8e9a"/>
        <path d="M745.94,563.67h0m-4.72-7.87h0m-3.16-7.91h0m74.12,3.19h96.22v4.72H812.19v-4.72m0-9.47h96.22v6.28H812.19v-6.28m157.49-3.19H734.91v3.19h71v6.28H738.06v3.19h67.84v4.72H741.22v3.12h64.69v4.75h-60v3.13h60v4.75h6.28V566.8H881c.45-.19.91-.37,1.38-.55h0a39.8,39.8,0,0,1,7.37-2q2.26-.37,4.44-.6h-82v-4.75h96.22v4.75h-2.72c4.38.55,7.65,1.79,9.06,3.59v-.46h54.93v-3.13H914.75v-4.75h54.93V555.8H914.75v-4.72h54.93v-3.19H914.75v-6.28h54.93v-3.19" transform="translate(-148.88 -43.36)" style="fill:#fff"/>
        <path d="M909.47,547.89H807.58V535.94H909.47Zm-96.22-5.67H903.8v-.61H813.25Z" transform="translate(-148.88 -43.36)" style="fill:#fff"/>
        <path d="M953.66,547.89H910.14V535.94h43.52Zm-37.85-5.67H948v-.61H915.81Z" transform="translate(-148.88 -43.36)" style="fill:#fff"/>
        <rect x="761.26" y="509.89" width="43.51" height="10.42" style="fill:#fff"/>
        <rect x="761.26" y="502.05" width="43.51" height="10.39" style="fill:#fff"/>
        <rect x="658.7" y="502.05" width="101.89" height="10.39" style="fill:#fff"/>
        <path d="M909.47,563.67l-5.91,0a44.89,44.89,0,0,0-7.12-.27c-1.21,0-2.48.14-3.75.27l-.29,0H807.58V553.25H909.47Z" transform="translate(-148.88 -43.36)" style="fill:#fff"/>
        <path d="M899.21,631.3l-1.08-5.57a112.15,112.15,0,0,1,20.2-2h0l0,5.67A106,106,0,0,0,899.21,631.3Z" transform="translate(-148.88 -43.36)" style="fill:#fff"/>
        <path d="M897.71,631.61l-1.19-5.55,1.61-.33,1.09,5.57Z" transform="translate(-148.88 -43.36)" style="fill:#fff"/>
        <path d="M970.75,634.7l-4.08-2a81.65,81.65,0,0,0-26.88-7.48l-1.59-.18-25.82-56-.4.19-1.1-2.84a.65.65,0,0,0-.14-.23l-.6-.77v-4.27h43.52v4.75h17.09ZM942,619.8a89,89,0,0,1,23.07,6V571.55H948V566.8H917.58Z" transform="translate(-148.88 -43.36)" style="fill:#fff"/>
        <path d="M922.21,629.5l-.4-5.66c1.87-.13,3.74-.19,5.55-.19v5.67c-1.67,0-3.4.06-5.15.18Z" transform="translate(-148.88 -43.36)" style="fill:#fff"/>
        <path d="M876.3,692.06l-2.18-4.44h0a5.15,5.15,0,0,1,2-.48h.09Z" transform="translate(-148.88 -43.36)" style="fill:#fff"/>
        <path d="M892.64,632.85l-1.54-5.46c1.73-.49,3.5-.92,5.43-1.33l1.18,5.55C895.9,632,894.24,632.4,892.64,632.85Z" transform="translate(-148.88 -43.36)" style="fill:#fff"/>
        <path d="M879.32,583.2l-.52-5.65,2.62-.27.67,5.63C881.14,583,880.22,583.11,879.32,583.2Z" transform="translate(-148.88 -43.36)" style="fill:#fff"/>
        <path d="M873.89,583.49v-5.67c1.4,0,3-.09,4.92-.27l.52,5.65C877.24,583.39,875.46,583.48,873.89,583.49Z" transform="translate(-148.88 -43.36)" style="fill:#fff"/>
        <path d="M917.48,627.07h0l-.21-5.67c1.64-.06,3.29-.09,4.93-.09V627c-1.54,0-3.09,0-4.63.08Z" transform="translate(-148.88 -43.36)" style="fill:#fff"/>
        <path d="M872.79,693.21l-1.47-5.48a3.23,3.23,0,0,0,.65-.25l2.64,5h0l-.14.07h0a9,9,0,0,1-1.66.64Z" transform="translate(-148.88 -43.36)" style="fill:#fff"/>
        <path d="M870.24,690.31l-1.72-5.4a11.84,11.84,0,0,1,3.43-.53l.06,5.67A6.4,6.4,0,0,0,870.24,690.31Z" transform="translate(-148.88 -43.36)" style="fill:#fff"/>
    </g>
    <g>
        <path class="outline" style="fill: transparent" d="M548.91,693.38c-216.85,0-334.78-.14-350.53-.43h-.49l-.45-.17c-.54-.2-1.07-.41-1.6-.63-23.64-9.82-38.59-38.2-44.42-84.35-4.56-36.13-1.59-70.53-1.56-70.87l.23-2.58H367.77l26.38-54.21-4.55-16.68v-17.4h39.6l-22.56-54.11,15.69-27.88H752.06l17,27.25v54.74H848v55.18H923.7v0l30,0v37.19H807v27.46h.61v-4.75h85.77l-13.05,5.45a32.4,32.4,0,0,0-7.56,4.36c-3.31,2.61-4.52,4.89-4.52,5.78v2l3.44,61.44-1.19.92c-13.58,10.44-21.68,25.65-24.06,45.2l-.29,2.41-2.42.08c-2.87.1-5.76,0-8.24.16-1,0-1.8.09-2.52.16l8.4,4.18H829.29C732.88,693.36,636.43,693.38,548.91,693.38ZM199,687.29c17.55.28,135.26.42,349.94.42,85.83,0,180.24,0,274.79-.05a3.69,3.69,0,0,1,.43-1c1.25-2.08,4.36-3,11.07-3.3,1.82-.08,3.84-.09,5.91-.11,2.86-19.39,11.16-34.72,24.72-45.64l-3.56-63.67h.85a18.24,18.24,0,0,1,5.72-7.09H813.25v4.75h-12V566.8h-60v-7.88h-4.71v-7.84h-3.16v-8.86H801.3v-.61h-71v-8.86H948V506.9H842.29V451.72H763.43V392.94l-14.51-23.21H425.65l-12.71,22.58,16,38.47-7.08-27.3h39l12.51,48.24H395.27v11l4.91,18L371.32,540h-216c-.58,8.57-2,37.22,1.73,67.06,3.82,30.25,14,68.64,41,79.84ZM457.72,446.05h8.34l-9.57-36.9h-8.34Zm-18.93,0h8.34l-9.57-36.9h-8.34Zm201,35.62H605.68v-78.2h34.07ZM611.35,476h22.74V409.14H611.35Zm-53.63-24.27H512.65V403.47h45.07Zm-39.4-5.67h33.73V409.14H518.32ZM512,451.72H474.86l-12.15-48.24H512Zm-32.71-5.67h27v-36.9H470ZM751.75,436H640.4V398.72H751.75Zm-50.47-5.67h44.81V404.39H701.28Zm-55.21,0h44.8V404.39h-44.8Z" transform="translate(-148.88 -43.36)" />
    </g>
</svg>