<svg xmlns="http://www.w3.org/2000/svg" viewBox="0 0 821.86 653.24" style="width: 17.44%">
    <g class="ship">
        <path class="path20" d="M513.29,105.62H500.67v91.47h1.56v74.1h-1.56v55.18h12.62V105.62m0-28.37H500.67V99.34h12.62V77.25m0-28.38H500.67V71h12.62V48.87m0-48.87H500.67V42.59h12.62V0" transform="translate(2.83 0)" style="fill:#ffd775"/>
        <polyline points="505.06 197.09 503.5 197.09 475.12 197.09 475.12 271.19 488.68 271.19 491.61 265.47 497.23 268.35 495.77 271.19 503.5 271.19 505.06 271.19 505.06 197.09" style="fill:#ffd775"/>
        <polyline points="527.15 99.34 516.12 99.34 503.5 99.34 492.43 99.34 492.43 105.62 503.5 105.62 516.12 105.62 527.15 105.62 527.15 99.34" style="fill:#ffd775"/>
        <polyline points="527.15 70.97 516.12 70.97 503.5 70.97 492.43 70.97 492.43 77.25 503.5 77.25 516.12 77.25 527.15 77.25 527.15 70.97" style="fill:#ffd775"/>
        <polyline points="527.15 42.59 516.12 42.59 503.5 42.59 492.43 42.59 492.43 48.87 503.5 48.87 516.12 48.87 527.15 48.87 527.15 42.59" style="fill:#ffd775"/>
        <polyline points="491.61 265.47 488.68 271.19 460.37 326.37 467.46 326.37 495.77 271.19 497.23 268.35 491.61 265.47" style="fill:#ffd775"/>
        <path class="path16" d="M730.33,523.44H661.54v4.75h-6.28v-4.75h-32l2.45,4.75h96.41a35.4,35.4,0,0,1,8.22-4.75m71.61,0H764.1v.46a3.66,3.66,0,0,1,.55,1h0l.22-.1,1.59,3.44h35.48v-4.75m-146.68-7.88H619.19l2.45,4.75h33.62v-4.75m102.5,0H661.54v4.75h82c1.35-.14,2.66-.23,3.94-.28h0c.7,0,1.39,0,2.06,0a45,45,0,0,1,5.52.32h2.72v-4.75m44.18,0H764.1v4.75h37.84v-4.75m-146.68-7.84H615.15l2.43,4.72h37.68v-4.72m102.5,0H661.54v4.72h96.22v-4.72m44.18,0H764.1v4.72h37.84v-4.72m-146.68-9.47h-45l3.24,6.28h41.75v-6.28m102.5,0H661.54v6.28h96.22v-6.28m44.18,0H764.1v6.28h37.84v-6.28M287.72,408.36l-11-42.57h14.2l11,42.57h-14.2m18.93,0-11-42.57h14.2l11,42.57H306.65m21.54,0-10.72-42.57h42.81v42.57H328.19m38.41,0V365.78H406v42.59H366.6m93,29.94V365.78H488v72.53h-28.4m34.72-45.72V361h50.46v31.56H494.36m55.21,0V361H600v31.56H549.57m67.81-41H260.91l23.66,56.76h-41v14.19l4.73,17.34-26.47,54.39-1.15,2.37h27.62V447.78h336l24.37,47.28H801.94V463.54h-20.5v0H772v0H696.25V408.36H617.38V351.6" transform="translate(2.83 0)" style="fill:#c5ab52"/>
        <path class="path17" d="M819,523.44H801.94v4.75H819v-4.75m0-7.88H801.94v4.75H819v-4.75m0-7.84H801.94v4.72H819v-4.72m0-9.47H801.94v6.28H819v-6.28m0-52.06H801.94v48.87H819V446.19" transform="translate(2.83 0)" style="fill:#be452d"/>
        <path class="path18" d="M623.25,523.44H596.32l2.14,4.75H625.7l-2.45-4.75m-4.06-7.88H592.77l2.52,5.6v-.85h26.35l-2.45-4.75m-4-7.84H589.24l2.13,4.72h26.21l-2.43-4.72m-4.88-9.47H585l2.83,6.28h25.7l-3.24-6.28m-26-50.47h-336v48.87h336v-1.59h24.37l-24.37-47.28" transform="translate(2.83 0)" style="fill:#a6882e"/>
        <polyline points="604.44 326.37 516.12 326.37 503.5 326.37 467.46 326.37 460.37 326.37 277.94 326.37 263.74 351.6 620.21 351.6 604.44 326.37" style="fill:#be452d"/>
        <path class="path15" d="M727.42,649.43h0m-4.18-2.73h0m-2.44-2.35h0m-12.31-.07h0m61.38-58.2h0m8.61-.12h0m1.26-4.66h0m-54.83-41.17h0m8.58-.63-.36,0,.36,0M819,528.19H766.46l24.76,53.72h0A84.55,84.55,0,0,1,819,589.65V528.19M584.26,496.65H3.81a371,371,0,0,0,1.55,70.26c4.34,34.4,15.55,70.81,42.7,82.09.49.21,1,.4,1.49.59,17.81.33,163.74.44,350.48.44,87.52,0,184,0,280.39-.06a17,17,0,0,1-2.76-1.54c-.51-1.09.58-2.45,8.79-2.81h0c1.37-.06,2.95-.1,4.76-.1,1.16,0,2.34,0,3.51,0h0c1.93-15.86,8.27-34.14,25.15-47.11l-3.48-62.16h.12a3.48,3.48,0,0,0,0,.57h0a3.48,3.48,0,0,1,0-.57c0-2.26,2.08-5.24,5.6-8H598.46l-2.14-4.75h-1v-2.28l-2.52-5.6h-2.2v-3.12h.8l-2.13-4.72h-1.82v-3.19h.39L585,498.25h-.72v-1.6" transform="translate(2.83 0)" style="fill:#c73c23"/>
        <polyline points="408.84 365.78 369.43 365.78 369.43 408.37 408.84 408.37 408.84 365.78" style="fill:#6e8e9a"/>
        <polyline points="547.65 361.03 497.18 361.03 497.18 392.59 547.65 392.59 547.65 361.03" style="fill:#6e8e9a"/>
        <polyline points="602.87 361.03 552.4 361.03 552.4 392.59 602.87 392.59 602.87 361.03" style="fill:#6e8e9a"/>
        <polyline points="490.87 365.78 462.46 365.78 462.46 438.31 490.87 438.31 490.87 365.78" style="fill:#b78423"/>
        <polyline points="363.11 365.79 320.3 365.79 331.02 408.36 363.11 408.36 363.11 365.79" style="fill:#6e8e9a"/>
        <polyline points="312.63 365.79 298.44 365.79 309.48 408.36 323.67 408.36 312.63 365.79" style="fill:#6e8e9a"/>
        <polyline points="293.71 365.79 279.51 365.79 290.55 408.36 304.75 408.36 293.71 365.79" style="fill:#6e8e9a"/>
        <path class="path21" d="M595.29,520.31h0m-4.72-7.87h0m-3.16-7.91h0m74.12,3.19h96.22v4.72H661.54v-4.72m0-9.47h96.22v6.28H661.54v-6.28M819,495.06H584.26v3.19h71v6.28H587.41v3.19h67.84v4.72H590.57v3.12h64.69v4.75h-60v3.13h60v4.75h6.28v-4.75h68.79q.67-.29,1.38-.54h0a39.81,39.81,0,0,1,7.37-2q2.26-.37,4.44-.6h-82v-4.75h96.22v4.75H755c4.38.55,7.65,1.79,9.06,3.59v-.46H819v-3.13H764.1v-4.75H819v-3.12H764.1v-4.72H819v-3.19H764.1v-6.28H819v-3.19" transform="translate(2.83 0)" style="fill:#fff"/>
        <polyline points="784.27 406.78 774.81 406.78 774.81 463.54 774.81 463.56 784.27 463.56 784.27 463.54 784.27 406.78" style="fill:#fff"/>
        <path class="path13" d="M757.76,507.75H655.87V495.8H757.76Zm-96.22-5.67h90.55v-.61H661.54Z" transform="translate(2.83 0)" style="fill: transparent"/>
        <path class="path14" d="M801.94,507.75H758.43V495.8h43.51Zm-37.84-5.67h32.17v-.61H764.1Z" transform="translate(2.83 0)" style="fill: transparent"/>
        <rect x="761.26" y="513.11" width="43.51" height="10.42" style="fill: transparent"/>
        <rect x="761.26" y="505.27" width="43.51" height="10.39" style="fill: transparent"/>
        <rect x="658.7" y="505.27" width="101.89" height="10.39" style="fill: transparent"/>
        <path class="path1" d="M757.76,523.53l-5.91,0a46.18,46.18,0,0,0-7.12-.26c-1.21,0-2.48.14-3.75.27l-.29,0H655.87V513.11H757.76Z" transform="translate(2.83 0)" style="fill: transparent"/>
        <path class="path4" d="M819,594.56l-4.07-2a81.89,81.89,0,0,0-26.88-7.47l-1.6-.18-25.82-56-.39.19-1.1-2.85A1,1,0,0,0,759,526l-.6-.77V521h43.51v4.75H819Zm-28.73-14.9a88.88,88.88,0,0,1,23.06,6V531.41H796.27v-4.75H765.86Z" transform="translate(2.83 0)" style="fill: transparent"/>
        <path class="path5" d="M770.49,589.36l-.39-5.66c1.87-.13,3.74-.19,5.55-.19v5.67c-1.67,0-3.4.06-5.15.18Z" transform="translate(2.83 0)" style="fill:#fff"/>
        <path class="path11" d="M721.08,653.07l-1.48-5.48a3.09,3.09,0,0,0,.66-.25l2.63,5h0l-.14.07h0a9,9,0,0,1-1.66.64Z" transform="translate(2.83 0)" style="fill:#fff"/>
        <path class="path12" d="M718.53,650.17l-1.72-5.4a11.84,11.84,0,0,1,3.43-.53l.06,5.67A6.4,6.4,0,0,0,718.53,650.17Z" transform="translate(2.83 0)" style="fill: transparent"/>
    </g>
    <path class="outline" d="M397.2,653.24c-216.85,0-334.79-.14-350.53-.43h-.49l-.45-.17c-.54-.2-1.07-.41-1.6-.63C20.49,642.18,5.54,613.8-.29,567.64c-4.56-36.13-1.59-70.52-1.56-70.86l.23-2.58H216.06L242.44,440l-4.55-16.68v-17.4h39.59L254.93,351.8l15.69-27.88H600.35l17,27.25v54.74h78.87v55.18H772v0l30,0v37.19H655.26v27.46h.61V521h85.77l-13,5.45A32.4,32.4,0,0,0,721,530.8c-3.32,2.61-4.52,4.89-4.52,5.78v2L720,600.07l-1.19.92c-13.59,10.44-21.68,25.65-24.06,45.2l-.29,2.41-2.43.08c-2.86.1-5.75,0-8.23.15-1,0-1.8.1-2.52.17l8.4,4.18h-12C581.16,653.22,484.72,653.24,397.2,653.24ZM47.26,647.15c17.55.28,135.26.42,349.94.42,85.83,0,180.24,0,274.79-.06a3.75,3.75,0,0,1,.43-1c1.25-2.08,4.36-3,11.07-3.3,1.82-.08,3.84-.09,5.91-.11,2.86-19.39,11.16-34.72,24.72-45.64l-3.56-63.67h.85a18.15,18.15,0,0,1,5.72-7.09H661.54v4.75H649.59v-4.75h-60v-7.88H584.9v-7.84h-3.15v-8.86h67.84v-.61h-71v-8.86H796.27V466.76H690.58V411.58H611.71V352.8l-14.5-23.21H273.93l-12.71,22.58,16,38.47-7.08-27.3h39l12.5,48.24H243.56v11l4.91,18-28.86,59.32H3.61c-.58,8.57-2,37.22,1.73,67.06,3.82,30.24,14,68.64,41,79.83ZM306,405.91h8.34L304.78,369h-8.34Zm-18.93,0h8.34L285.85,369h-8.34Zm201,35.62H454v-78.2H488Zm-28.4-5.67h22.73V369H459.64ZM406,411.59H360.93V363.33H406Zm-39.41-5.67h33.74V369H366.6Zm-6.32,5.66H323.15L311,363.34h49.28Zm-32.72-5.67h27.05V369H318.27ZM600,395.81H488.69V358.58H600Zm-50.47-5.67h44.8V364.25h-44.8Zm-55.22,0h44.8V364.25h-44.8Z" transform="translate(2.83 0)" style="fill: transparent"/>
</svg>