<svg id="Слой_1" data-name="Слой 1" xmlns="http://www.w3.org/2000/svg" viewBox="0 0 253.27 90.67" style="width: 5.34%">
    <g class="socks">
        <path d="M3.11,34.31h0V52.84a2.54,2.54,0,0,0,.12.78,11.92,11.92,0,0,0,8.1,9.05l30.25,11,2.4.87a7.54,7.54,0,0,0,.82.2,10.81,10.81,0,0,0,2.12.21,8.82,8.82,0,0,0,8.15-5,10.49,10.49,0,0,0,1-8.16,10.43,10.43,0,0,1-1,2.39,9.65,9.65,0,0,1-2.88,3.4,8.64,8.64,0,0,1-1.75,1.26h-1a9.5,9.5,0,0,1-2.49.32A10,10,0,0,1,44,68.8L12.52,57.34A8.24,8.24,0,0,1,9,56c-.22-.16-.43-.33-.65-.51a12,12,0,0,1-5.26-8.42V34.31M28.44,18.22h0c0,2.26,0,4.64-.06,7.1v-7.1M31,9.58a6.71,6.71,0,0,1-2.57,2.86v5.78a6.7,6.7,0,0,0,3.23-5.75,6.45,6.45,0,0,0-.4-2.26C31.13,10,31,9.79,31,9.58M.6,9.58c-.1.21-.18.42-.26.63a6.68,6.68,0,0,0,2.6,7.85l.14.09V12.36A6.72,6.72,0,0,1,.63,9.58" transform="translate(2.86 2.83)" style="fill:#5f2c10"/>
        <path d="M56.12,56.15c.58,3.52-1.06,8.14-1.08,8.14h0c-1,1-1.69,2.25-2.85,3.33a9.65,9.65,0,0,0,2.88-3.4,10.43,10.43,0,0,0,1-2.39,10.6,10.6,0,0,0,.39-3.36,10.79,10.79,0,0,0-.37-2.32M29.31,37.68c.39.9,1.08,1.33,1.2,1.8L12.64,57.35h-.12L44,68.84a10,10,0,0,0,2.93.41,9.5,9.5,0,0,0,2.49-.32h-.69a17.39,17.39,0,0,1-8.69-2c5-5,10.24-10.24,14.13-14.11a3.89,3.89,0,0,1,.88.74,10.5,10.5,0,0,0-2.63-3c-.74-.54-3.92-1.88-7.62-3.5,1.07.53,1.82.91,1.81.93-4.54,4.56-15.86,15.86-15.86,15.86l-9.06-3.27L38.19,44.06C34.86,42.46,32,40.87,31,39.68c-.77-1-1.33-1.48-1.73-2.07m-.87-25.26-.2.11v4.59L3.34,42l-.23-8.44V47.07a12,12,0,0,0,5.26,8.42,21.13,21.13,0,0,1-3.09-3.11L27.8,29.89h0c.21,0,.39.19.54.52v-5.1c0-2.46,0-4.84.06-7.1V12.42M3.07,12.34V29.89L19.55,13.4H6.73a6.65,6.65,0,0,1-3.62-1.06" transform="translate(2.86 2.83)" style="fill:#dc0000"/>
        <path d="M54.15,52.85C50.26,56.72,45.06,61.94,40,67a17.39,17.39,0,0,0,8.69,2H50.4a8.64,8.64,0,0,0,1.75-1.26c1.16-1.08,1.8-2.29,2.85-3.33h0s1.66-4.62,1.08-8.14A5.23,5.23,0,0,0,55,53.7h0a3.89,3.89,0,0,0-.88-.74M38.47,44l-.29.28L21.67,60.65l9.06,3.27s11.32-11.3,15.86-15.86c0,0-.74-.4-1.81-.93-2.09-1-5.38-2.66-6.3-3.28m-10.68-14h0L5.3,52.38a21.13,21.13,0,0,0,3.09,3.11c.22.18.43.35.65.51a8.24,8.24,0,0,0,3.5,1.34h.12L30.53,39.47c-.12-.47-.81-.9-1.2-1.8A3.87,3.87,0,0,1,29,36V34.3a13.62,13.62,0,0,0-.63-3.8v-.1c-.15-.33-.33-.52-.54-.52m.44-17.36a6.47,6.47,0,0,1-3.3.87H19.59L3.11,29.89,3,30l.11,3.56L3.34,42,28.21,17.12V12.53" transform="translate(2.86 2.83)" style="fill:#008498"/>
        <path d="M24.94,0H6.73A6.7,6.7,0,0,0,3.11,12.34h0A6.65,6.65,0,0,0,6.73,13.4H24.94a6.47,6.47,0,0,0,3.3-.87l.2-.11A6.7,6.7,0,0,0,24.94,0" transform="translate(2.86 2.83)" style="fill:#fff"/>
        <path d="M194.21,53.27v5.57a11.92,11.92,0,0,0,8.22,9.83h0c.88.31,2,.71,3.21,1.17l21.67,7.9,7.77,2.84A10.09,10.09,0,0,0,238,81a8.77,8.77,0,0,0,6.24-2.42A9.93,9.93,0,0,0,246.17,76a10.49,10.49,0,0,0,1.3-6.89,11,11,0,0,0-.27-1.27,10.43,10.43,0,0,1-1,2.39,8.81,8.81,0,0,1-8.16,5,10,10,0,0,1-2.93-.41l-2.63-1-.14.14c-1.62-.64-2.94-1.19-4-1.66l-16-5.85a29.39,29.39,0,0,1-6.86-2.51l-3-1.09a11.91,11.91,0,0,1-7.74-7.68,10.89,10.89,0,0,1-.48-1.95m25.26-15.74h0v0m.07-13.32h0v.93h0v-.83m2.57-8.65a6.71,6.71,0,0,1-2.57,2.86v5.79a6.71,6.71,0,0,0,3.23-5.76,6.58,6.58,0,0,0-.66-2.89m-30.35,0a6.71,6.71,0,0,0,2.45,8.57V18.35a6.72,6.72,0,0,1-2.45-2.78" transform="translate(2.86 2.83)" style="fill:#5f2c10"/>
        <path d="M226.8,48.9c1.28.72,2.58,1.39,3.9,2-5.46,5.44-11.53,11.52-16.11,16.09h0s-1-.19-2.35-.53l16,5.85a30.72,30.72,0,0,1-4.46-2.19h0l15.27-15.28c4.46.66,7.19,5.13,7,5.3L232.36,73.83l2.63,1a10,10,0,0,0,2.93.41,8.81,8.81,0,0,0,8.16-5,10.43,10.43,0,0,0,1-2.39,8.82,8.82,0,0,0,.27-1.26,10.36,10.36,0,0,0,0-3.24,10.48,10.48,0,0,0-3.21-6.06c-.24-.22-.49-.43-.75-.64a69.53,69.53,0,0,0-6.5-3c-3.27-1.42-7.16-3.13-10.18-4.72m-7.38-11.35-22,22h0c-.3,0-1.89-1.76-2.78-4.29A11.91,11.91,0,0,0,202.29,63l3,1.09h0l17.5-17.49.16.11a5.31,5.31,0,0,1-.88-.83l-.4-.48c-1.66-1.95-2.18-2-2.28-6.83v-.89m.09-19.13a6.74,6.74,0,0,1-3.5,1h-3.11L194.1,38.25v12.3l25.29-25.29V18.54m-25.33-.08v7.45l6.39-6.39H197.8a6.7,6.7,0,0,1-3.61-1.06" transform="translate(2.86 2.83)" style="fill:#dc0000"/>
        <path d="M223.8,70.16h0m15.28-15.28L223.8,70.16a30.72,30.72,0,0,0,4.46,2.19c1.07.47,2.39,1,4,1.66l.14-.14,13.74-13.65c.16-.17-2.57-4.64-7-5.3m-16.25-8.41L205.39,64h.05a29.39,29.39,0,0,0,6.86,2.51c1.34.34,2.31.53,2.35.53h0c4.58-4.57,10.65-10.65,16.11-16.09-1.33-.67-2.63-1.33-3.9-2-.63-.36-1.25-.72-1.87-1.1s-1.3-.8-1.94-1.22l-.16-.11m-3.24-21.43-.08.09h0L194.28,50.47v.18h0a8.48,8.48,0,0,0,0,2.66,10.89,10.89,0,0,0,.48,1.95c.89,2.53,2.48,4.29,2.78,4.29h0l22-22h0l.1-.1s.07-1.33.15-3.12c.06-1.45.12-3.2.14-4.81a22.17,22.17,0,0,0-.24-4.46M213,19.42H200.6l-6.39,6.39h0l-.07.07V38.23l.09-.08L213,19.42" transform="translate(2.86 2.83)" style="fill:#889800"/>
        <path d="M216,6H197.8a6.7,6.7,0,0,0-3.61,12.34h0a6.7,6.7,0,0,0,3.61,1.06H216A6.7,6.7,0,1,0,216,6h0" transform="translate(2.86 2.83)" style="fill:#fff"/>
        <path d="M129.47,61.08v1.76a12,12,0,0,0,8.22,9.83l13.93,5.08,13.26,4.84,5.48,2a10,10,0,0,0,2.93.41,8.8,8.8,0,0,0,6.23-2.41,10.05,10.05,0,0,0,1.93-2.6,11,11,0,0,0,1-2.24,10.64,10.64,0,0,0,0-5.92,10.89,10.89,0,0,1-1,2.39,8.81,8.81,0,0,1-8.17,5,11.08,11.08,0,0,1-2.5-.28,4.82,4.82,0,0,1-.76,0,5,5,0,0,1-3.7-1.64L137.69,66.84a12,12,0,0,1-4.94-3.06A5,5,0,0,1,129.47,61M154.8,30.43v4.88c0,3.16-.05,5.44,0,7.13V41.08c0-2.34,0-4.61.06-6.77V30.43M127.08,19.56a6.72,6.72,0,0,0,2.44,8.57V22.34a6.7,6.7,0,0,1-2.44-2.78m30.35,0a6.73,6.73,0,0,1-2.63,2.86v5.1h0v.69a6.71,6.71,0,0,0,2.55-8.63" transform="translate(2.86 2.83)" style="fill:#5f2c10"/>
        <path d="M153,67a5,5,0,1,1,5-5,5,5,0,0,1-5,5m-7-17a5,5,0,1,1,5-5,5,5,0,0,1-5,5M129.46,22.34v8.59a5,5,0,1,1,0,4.15V56.93A5,5,0,1,1,134,64a5.54,5.54,0,0,1-1.28-.16,12,12,0,0,0,4.94,3.06l28.63,10.46a5,5,0,1,1,7.06.36,5.08,5.08,0,0,1-2.6,1.23,11.08,11.08,0,0,0,2.5.28,8.81,8.81,0,0,0,8.17-5,10.89,10.89,0,0,0,1-2.39,10.5,10.5,0,0,0-3.7-11.2,38.47,38.47,0,0,0-4.54-2.16l-.44-.19c.29.21.45.4.45.54A4.94,4.94,0,0,1,171,60h0a5,5,0,0,1-5-5,8.68,8.68,0,0,1,1,.27c-1.19-.54-2.37-1.1-3.47-1.65-2.88-1.42-5.25-2.81-6.11-3.87-2-2.45-2.57-2.09-2.68-7.31V33.68c0,.9-.05,1.81-.09,2.74h0a5,5,0,0,1,.13-8.88V22.43a6.74,6.74,0,0,1-3.5,1h-18.2a6.74,6.74,0,0,1-3.62-1.06" transform="translate(2.86 2.83)" style="fill:#dc0000"/>
        <path d="M170,69a5,5,0,0,0,0,10,4.82,4.82,0,0,0,.76,0A5,5,0,1,0,170,69M153,57a5,5,0,1,0,5,5,5,5,0,0,0-5-5m13-2a5,5,0,0,0,5,5h0a4.94,4.94,0,0,0,3.2-1.18c0-.14-.16-.33-.45-.54a33.81,33.81,0,0,0-6.8-3,8.68,8.68,0,0,0-1-.27m-32-1a5,5,0,0,0-4.56,2.93h0a5.18,5.18,0,0,0-.42,1.54,4.69,4.69,0,0,0,0,.53,5.12,5.12,0,0,0,.45,2.08,5,5,0,0,0,3.28,2.76A5.54,5.54,0,0,0,134,64a5,5,0,0,0,0-10m12-14a5,5,0,1,0,5,5,5,5,0,0,0-5-5M134,28a5,5,0,0,0-4.56,2.93h0a4.93,4.93,0,0,0-.27,3.38,5.41,5.41,0,0,0,.27.77h0A5,5,0,1,0,134,28m20.82-.5h0a5,5,0,0,0-.13,8.88h0c0-.93.07-1.84.09-2.74V27.48" transform="translate(2.86 2.83)" style="fill:#fff"/>
        <path d="M151.31,10H133.09a7,7,0,0,0-1.58.19,6.7,6.7,0,0,0-2,12.15h0a6.74,6.74,0,0,0,3.62,1.06h18.22a6.7,6.7,0,0,0,6.07-3.84A6.89,6.89,0,0,0,158,16.7a6.69,6.69,0,0,0-5.11-6.48,7.06,7.06,0,0,0-1.59-.19" transform="translate(2.86 2.83)" style="fill:#fff"/>
        <path d="M63.63,34.31h0V52.84a4.08,4.08,0,0,0,.12.78h0a12,12,0,0,0,8,9.05l10,3.64L85,67.48l19.47,7.11a10.09,10.09,0,0,0,2.94.41,8.82,8.82,0,0,0,8.15-5,10.45,10.45,0,0,0,1-8.16,9.84,9.84,0,0,1-1,2.39,8.81,8.81,0,0,1-8.16,5,10,10,0,0,1-2.93-.41S79.62,59.73,71.8,56.9a11.94,11.94,0,0,1-8.2-9.83V34.31M88.84,32h0v0m.06-7h0v5h0V25m0-6.82h0V19h0v-.77m2.55-8.57a6.69,6.69,0,0,1-2.55,2.82v5.75a6.7,6.7,0,0,0,2.79-8,5.89,5.89,0,0,0-.24-.58M61.13,9.6c-.1.21-.18.42-.26.63a6.7,6.7,0,0,0,2.71,7.94V12.38A6.72,6.72,0,0,1,61.13,9.6" transform="translate(2.86 2.83)" style="fill:#5f2c10"/>
        <path d="M81.8,58.47h0M63.63,12.34V47.07a11.94,11.94,0,0,0,8.2,9.83c7.79,2.83,32.67,11.93,32.67,11.93a10,10,0,0,0,2.93.41,8.81,8.81,0,0,0,8.16-5,9.84,9.84,0,0,0,1-2.39,10.05,10.05,0,0,0,.39-3.36,10.36,10.36,0,0,0-1.43-4.85,10.54,10.54,0,0,0-2.64-3c-.82-.59-4.51-2.12-8.63-3.93l-3.2-1.49c-4.28-2-8.34-4-9.53-5.5-1.71-2.11-2.38-2.14-2.6-5.44,0-.53-.06-1.14-.08-1.87V32H64V30H88.85V25H64V19H88.93V12.4a6.64,6.64,0,0,1-3.49,1H67.25a6.65,6.65,0,0,1-3.62-1.06" transform="translate(2.86 2.83)" style="fill:#dc0000"/>
        <path d="M89,30H64v2H89V30m0-11H64v6H89V19" transform="translate(2.86 2.83)" style="fill:#fff"/>
        <path d="M81.8,10.22h0M85.46,0H67.25a6.7,6.7,0,0,0-3.62,12.34h0a6.65,6.65,0,0,0,3.62,1.06H85.46a6.7,6.7,0,0,0,0-13.4h0" transform="translate(2.86 2.83)" style="fill:#fff"/>
    </g>
    <path class="outline" d="M46.9,77.83a14,14,0,0,1-2.67-.26,8.32,8.32,0,0,1-1.16-.29l-2.48-.9-30.21-11a14.77,14.77,0,0,1-10-11.18c-.06-.31-.12-.63-.16-1l0-.37V33.55l-.14-4.7.14-.13V19.51a9.52,9.52,0,0,1-2.65-10A9.42,9.42,0,0,1-2.83,6.7,9.53,9.53,0,0,1,6.7-2.83H24.92A9.53,9.53,0,0,1,34.45,6.7,9.42,9.42,0,0,1,34,9.55a9.38,9.38,0,0,1,.46,2.88,9.61,9.61,0,0,1-3.23,7.19c0,3,0,6.36-.05,9.91V30a18.34,18.34,0,0,1,.61,4.13c0,.7,0,1.37,0,1.94a1.93,1.93,0,0,0,0,.24c.11.14.25.3.41.48s.61.68,1,1.14c.13.15.86.92,4.38,2.72l.49-.48L40,41.49c.72.48,3.88,2,5.57,2.89l.37.18,1.7.74a46,46,0,0,1,6.39,3A13.37,13.37,0,0,1,57.33,52a8,8,0,0,1,1.54,3.59,13.94,13.94,0,0,1,.43,2.8h0A13.16,13.16,0,0,1,59,61.83a13.45,13.45,0,0,1-1.46,9.54A11.65,11.65,0,0,1,46.9,77.83Zm-2-5.93c.08,0,.24.07.46.11a8.42,8.42,0,0,0,1.58.15,6,6,0,0,0,5.65-3.5l.05-.1a7.6,7.6,0,0,0,.75-6l-.23-.78.23-.78a7.79,7.79,0,0,0,.28-2.45h0a7.09,7.09,0,0,0-.27-1.7l-.06-.29a2.58,2.58,0,0,0-.41-1.13l-.16-.17L52.57,55a7.37,7.37,0,0,0-1.86-2.11c-.59-.37-3.21-1.51-5.31-2.43l-2.33-1c-1.6-.8-3-1.51-4.13-2.09l-.19.19-1.81-.87C32.4,44.5,30,43,28.82,41.53c-.31-.37-.58-.68-.81-.94a13.7,13.7,0,0,1-1.07-1.32l-.25-.46a6.46,6.46,0,0,1-.52-2.93c0-.39,0-.9,0-1.43a11.26,11.26,0,0,0-.41-2.85l-.23-.54,0-1.53c0-2.25,0-4.41,0-6.44h0l0-6.81h1.67l-.3-.5a3.84,3.84,0,0,0,1.86-3.32,3.88,3.88,0,0,0-.23-1.31,2.75,2.75,0,0,0-.15-.36l-.59-1.22.58-1.22a3.86,3.86,0,0,0-3.5-5.51H6.7A3.86,3.86,0,0,0,3.2,8.35l.58,1.22-.59,1.22c0,.12-.11.24-.15.36a3.88,3.88,0,0,0,1.48,4.53l1.4.9V31.06l-.07.07.07,3.18V52.64c0,.15,0,.29.07.43A9.12,9.12,0,0,0,12.16,60l.11,0,30.26,11Z" transform="translate(2.86 2.83)" style="fill: transparent"/>
    <path class="outline" d="M238,83.83a13,13,0,0,1-3.83-.55l-7.86-2.87-21.66-7.9-3.16-1.15a14.85,14.85,0,0,1-10.12-12.15l0-.74v-5a11.2,11.2,0,0,1,0-3.06V38.13H193L191.28,38c0-.36,0-2.68,0-3.67l0-4.82c0-3.21,0-3.67,0-4v-.07a9.54,9.54,0,0,1-2.6-9.93,9.31,9.31,0,0,1-.43-2.84,9.53,9.53,0,0,1,9.53-9.54H216a9.53,9.53,0,0,1,9.1,12.39,9.28,9.28,0,0,1,.46,2.88,9.57,9.57,0,0,1-3,7,35.49,35.49,0,0,1,.13,4.09c0,1.37-.06,3-.15,4.9,0,.67-.06,1.27-.08,1.77l1.25,1.09-1.41,1.41c.07,3,.18,3.12,1.08,4.14.16.18.33.37.51.59a6.43,6.43,0,0,1,.45.54s.09.1.34.3c.58.38,1.16.75,1.75,1.11s1.19.71,1.79,1c2.78,1.46,6.43,3.07,9.92,4.59l.6.26c3.85,1.68,5.58,2.44,6.42,3.06a9.54,9.54,0,0,1,1,.86,13.37,13.37,0,0,1,4.08,7.69,13.55,13.55,0,0,1,0,4.12c0,.28-.1.55-.16.82s.12.55.16.83a13.49,13.49,0,0,1,0,4.11,14.87,14.87,0,0,1-4,7.85A11.55,11.55,0,0,1,238,83.83Zm-2-5.93a7.84,7.84,0,0,0,2,.26,5.9,5.9,0,0,0,4.27-1.62,7.44,7.44,0,0,0,1.38-1.88l0-.1a7.69,7.69,0,0,0,1-2.67,7.48,7.48,0,0,0-.21-3.29l-.22-.77.23-.78a9.4,9.4,0,0,0,.2-.92,7.85,7.85,0,0,0,0-2.37,7.72,7.72,0,0,0-2.34-4.41,6.4,6.4,0,0,0-.49-.42c-.61-.38-3.24-1.52-5.36-2.45l-.6-.26c-3.59-1.56-7.35-3.22-10.37-4.81-.73-.42-1.38-.8-2-1.19s-1.36-.84-2-1.27l-.18-.14a7.53,7.53,0,0,1-1.34-1.28c-.13-.15-.24-.29-.36-.42l-.45-.52c-1.88-2.13-2.41-3.38-2.51-8.09l0-2.16.14-.14c0-.53.06-1.23.1-2s.07-1.75.09-2.54l-.27.28V29.5l0,0,0-7.25h1.54l-.28-.42.45-.29a3.89,3.89,0,0,0,1.15-4.77l-.59-1.22.58-1.22a3.9,3.9,0,0,0,.37-1.65,4,4,0,0,0-.28-1.45A3.87,3.87,0,0,0,216,8.83H197.8a3.87,3.87,0,0,0-3.59,2.42,4,4,0,0,0-.28,1.45,3.9,3.9,0,0,0,.37,1.65l.58,1.22-.59,1.22a3.94,3.94,0,0,0-.38,1.69,3.82,3.82,0,0,0,1.79,3.25l1.32.84V27l-.1.1c0,.5,0,1.27,0,2.43v1.88l.09-.08L197,51a6.1,6.1,0,0,0,0,1.81l0,.41v5.38A9.12,9.12,0,0,0,203.26,66l.64.23,2.69,1,21.66,7.91Z" transform="translate(2.86 2.83)" style="fill: transparent"/>
    <path class="outline" d="M173.27,87.83a12.93,12.93,0,0,1-3.83-.55l-18.82-6.87-13.87-5.06a14.86,14.86,0,0,1-10.11-12.14l0-.37V61.62a7.76,7.76,0,0,1-.45-2.62,7.56,7.56,0,0,1,0-.83,7.38,7.38,0,0,1,.41-1.79V35.62q-.11-.28-.18-.57a7.9,7.9,0,0,1-.27-2,7.76,7.76,0,0,1,.45-2.62v-.87a9.53,9.53,0,0,1-2.65-10,9.31,9.31,0,0,1-.43-2.84,9.5,9.5,0,0,1,7.28-9.27,10,10,0,0,1,2.25-.26h18.22a10,10,0,0,1,2.25.26,9.5,9.5,0,0,1,7.28,9.27,9.31,9.31,0,0,1-.43,2.84,9.54,9.54,0,0,1-2.77,10.08v.84c0,1.21,0,2.52,0,3.86,0,2.17,0,4.44-.06,6.79v1.36c.07,3.21.17,3.32,1.09,4.37.28.32.6.68,1,1.13.08.09.87,1,5.16,3.11,1,.52,2.14,1,3.26,1.55a39.26,39.26,0,0,1,7.15,3.16l.19.09a31.76,31.76,0,0,1,5.07,2.46l.06,0a13.25,13.25,0,0,1,4.89,13.45,13.37,13.37,0,0,1-1.47,9.54,13.05,13.05,0,0,1-2.44,3.26A11.55,11.55,0,0,1,173.27,87.83Zm-2-5.93a7.84,7.84,0,0,0,2,.26,5.91,5.91,0,0,0,4.26-1.61,7.53,7.53,0,0,0,1.39-1.89l.05-.1a7.39,7.39,0,0,0,.71-1.63,7.65,7.65,0,0,0,0-4.32l-.23-.78.23-.78a7.6,7.6,0,0,0-2.64-8.12c-.56-.36-3.06-1.45-4-1.86l-.73-.32-.26-.19a32.76,32.76,0,0,0-6-2.59l-.31-.12c-1.22-.56-2.42-1.13-3.55-1.69-3.87-1.93-6-3.31-7-4.62-.31-.38-.58-.68-.81-.95-1.89-2.13-2.41-3.38-2.51-8.09l0-1.45c0-2.33,0-4.6.05-6.75V32.11h0l0-5.83h.55l.84-.52.09-.06-.34-.46.43-.27.25.49a3.89,3.89,0,0,0,1-4.68l-.59-1.22.58-1.22a3.89,3.89,0,0,0-2.58-5.41,4.05,4.05,0,0,0-.92-.1H133.07a4.05,4.05,0,0,0-.92.1,3.89,3.89,0,0,0-2.58,5.41l.58,1.22-.59,1.22a3.94,3.94,0,0,0-.38,1.69A3.82,3.82,0,0,0,131,25.73l1.31.84v5l-.25.56a2.16,2.16,0,0,0,0,1.8l.25.56V57.54l-.25.56a2,2,0,0,0-.18.67,1.79,1.79,0,0,0,0,.23,2.15,2.15,0,0,0,.2.9l.25.56v2.18A9.18,9.18,0,0,0,138.53,70l.11,0,13.93,5.08ZM153.51,25l.24.48Z" transform="translate(2.86 2.83)" style="fill: transparent"/>
    <path class="outline" d="M107.42,77.83a12.93,12.93,0,0,1-3.83-.55L70.89,65.35a14.72,14.72,0,0,1-7.26-5.17,15,15,0,0,1-2.68-6c-.07-.32-.12-.64-.16-1l0-.37V19.51a9.52,9.52,0,0,1-2.65-10,9.42,9.42,0,0,1-.43-2.85,9.53,9.53,0,0,1,9.53-9.53H85.44A9.56,9.56,0,0,1,94.52,9.63,9.6,9.6,0,0,1,95,12.5a9.46,9.46,0,0,1-3.12,7l0,15.31a2.64,2.64,0,0,0,1,2c.28.32.6.69,1,1.14s1.58,1.53,8.51,4.7c1.06.49,2.13,1,3.18,1.43l2.79,1.22a45.93,45.93,0,0,1,6.35,3,13.25,13.25,0,0,1,5.25,10h0a13.16,13.16,0,0,1-.3,3.49,13.21,13.21,0,0,1-1.46,9.54A11.65,11.65,0,0,1,107.42,77.83Zm-2-5.93a7.84,7.84,0,0,0,2,.26,6,6,0,0,0,5.65-3.5l.05-.09a7.63,7.63,0,0,0,.74-6l-.22-.78.22-.78a7.49,7.49,0,0,0,.29-2.45h0a7.65,7.65,0,0,0-2.91-5.67c-.6-.37-3.09-1.46-5.3-2.42l-2.8-1.22c-1.08-.47-2.17-1-3.26-1.46-6.16-2.83-9.22-4.65-10.55-6.3-.31-.37-.58-.67-.81-.94-1.48-1.68-2.21-2.82-2.43-6.09,0-.48,0-1-.07-1.66h0V32.5l0-3.34c0-1.42,0-2.82,0-4.17V23.48l-.1.07.1-7.28h1.56l-.3-.44.34-.23a3.83,3.83,0,0,0,1.6-3.12,4,4,0,0,0-.23-1.33c0-.11-.09-.22-.14-.33L88.33,9.6l.59-1.22a3.77,3.77,0,0,0,.39-1.68,3.87,3.87,0,0,0-3.87-3.86H67.22a3.86,3.86,0,0,0-3.5,5.51l.58,1.22-.59,1.22a2.75,2.75,0,0,0-.15.36,3.87,3.87,0,0,0,1.56,4.58l1.32.84V52.64c0,.15,0,.29.07.43A9.08,9.08,0,0,0,72.67,60l.11,0Z" transform="translate(2.86 2.83)" style="fill: transparent"/>
</svg>