<svg xmlns="http://www.w3.org/2000/svg" viewBox="0 0 1893.2876 547.24768" style="width: 41%">
    <g class="window">
        <path d="M3601.40454,1443.2959c-15.39941,10.0852-26.4043,36.81628-26.4043,68.20471h0c0,40.0398,17.908,72.49976,39.99927,72.49976a24.5207,24.5207,0,0,0,13.32471-4.12012,50.93313,50.93313,0,0,0-8.32349.12048c-22.09228,0-40.00122-32.46008-40.00122-72.49988h0c0-27.87365,8.678-52.07141,21.405-64.20495" transform="translate(-1846.18164 -1160.7522)" style="fill:#607d39"/>
        <path d="M3620.00073,1435.0011c-6.71362,0-13.042,2.99841-18.59619,8.2948h0c-12.727,12.13354-21.405,36.3313-21.405,64.20495h0c0,40.0398,17.90894,72.49988,40.00122,72.49988a22.6108,22.6108,0,0,0,2.99927-.20056c-20.69189-2.779-37-34.08752-37-72.29932h0c0-38.21362,16.30811-69.52014,37-72.29821a22.44864,22.44864,0,0,0-2.99927-.20154" transform="translate(-1846.18164 -1160.7522)" style="fill:#bfae96"/>
        <path d="M3624.3501,1445.12744l.09887-.01147.00977-.001.08887-.00989.01294-.001.08593-.00879.02271-.00305.0769-.00684.09986-.00989.01172-.001.08691-.00793.01782-.002.08106-.006.02466-.00293.074-.005.03174-.00293.06909-.00488.03857-.002.06617-.005.03833-.001.06421-.00293.0415-.004.06226-.00293.04541-.002.05737-.00293.05517-.002.04541-.00305.06226-.00195.04541-.002.0603-.002.04444-.001.05835-.00207.05029-.001.05444-.001.05127-.001.05835-.001.04639-.001h.08179l.02172-.001H3626.5a19.205,19.205,0,0,1,8.33838,1.95141h0l.00195-.00293c.10962.05433.21924.10865.32886.164h0a24.91436,24.91436,0,0,1,3.73608,2.31188h0q.58777.43709,1.15039.90369h0c4.304,3.55725,8.13282,8.75891,11.25464,15.17627h0q.1941.39405.38013.792h0c4.24658,9.02954,7.12256,20.36512,8.0144,32.867h0q.29334,4.02795.29615,8.07446v.26074h0v.00195h0c0,33.77454-14.36255,61.29371-32.31372,62.46-.28052.01879-.56495.03064-.84937.03564-.11255.00195-.22436.00293-.33789.00293h-.12744l-.03638-.001-.095-.001h-.03638l-.11059-.002-.01587-.0011c-.0918-.002-.18359-.00488-.27466-.00781h-.00293c-11.93286-.4563-22.33227-12.54834-28.07007-30.44433q-.54822-1.70508-1.02417-3.43286a100.327,100.327,0,0,1-2.64282-12.92359l-.00293.00488q-.197-1.4251-.35351-2.8551a115.40159,115.40159,0,0,1-.707-12.83472h0c0-32.98877,13.69483-60.00366,31.05738-62.33642l.001-.00012c.06495-.00879.12867-.01709.1941-.025l.011-.00146.08643-.01038m1.65014-10.12634a22.48781,22.48781,0,0,0-3.00024.20154h0c-20.69189,2.77807-37,34.08459-37,72.29821h0c0,38.2118,16.30811,69.52027,37,72.29932a22.51188,22.51188,0,0,0,5.32422.08008c21.00879-2.18359,37.67529-33.75476,37.67529-72.3794h0c0-40.04162-17.90869-72.49975-39.99927-72.49975" transform="translate(-1846.18164 -1160.7522)" style="fill:#d5caba"/>
        <path d="M3626.24121,1569.99744l.095.001-.095-.001m.59668-.001c-.11255.00195-.22436.00293-.33789.00293h0c.11353,0,.22534-.001.33789-.00293m-.74365-.001.11059.002-.11059-.002m-.29053-.00891c.09107.00293.18286.00586.27466.00781-.0918-.002-.18359-.00488-.27466-.00781m34.19727-62.48767h0c0,33.77942-14.36451,61.29566-32.31372,62.46192,17.95117-1.16626,32.31372-28.68543,32.31372-62.46h0v-.00195m-8.31055-41.20215q.52881,1.12592,1.0083,2.27344h0l-51.959,78.87866a81.25939,81.25939,0,0,1-3.009-7.90661c5.7378,17.896,16.13721,29.988,28.07007,30.44433-5.70727-.21924-11.06079-3.11682-15.73022-8.0271h0l48.35913-73.40942q.88879,5.27673,1.27514,10.61365c-.89184-12.50183-3.76782-23.83741-8.0144-32.867m-11.63477-15.96826q.64893.5407,1.26514,1.121h0l-47.25708,71.73633a100.327,100.327,0,0,0,2.64282,12.92359c-.16992-.61829-.33178-1.23548-.48584-1.85865h0l50.46851-76.619a58.90393,58.90393,0,0,1,4.62109,7.873c-3.12182-6.41736-6.95068-11.619-11.25464-15.17627m-4.88647-3.21557a26.33662,26.33662,0,0,1,3.73608,2.31188,24.91436,24.91436,0,0,0-3.73608-2.31188m-10.9165-1.97364c-.06543.00794-.12915.01624-.1941.025.06495-.00879.12891-.017.1941-.025m.09741-.01184-.08643.01038.08643-.01038m2.1499-.127a18.55694,18.55694,0,0,1,4.34937.53918h0l-37.74952,57.31958h0c1.22095-30.84436,14.42334-55.47143,30.95777-57.69482-17.36255,2.33276-31.05738,29.34765-31.05738,62.33642h0a115.40159,115.40159,0,0,0,.707,12.83472q-.55116-4.94622-.66675-9.92627h0l41.79785-63.4574a19.205,19.205,0,0,0-8.33838-1.95141" transform="translate(-1846.18164 -1160.7522)" style="fill:#223e4f"/>
        <path d="M3658.42969,1488.55005l-48.35913,73.40942h0c4.66943,4.91028,10.023,7.80786,15.73022,8.0271h.00293c.09107.00293.18286.00586.27466.00781l.01587.0011.11059.002h.03638l.095.001.03638.001H3626.5c.11353,0,.22534-.001.33789-.00293.28442-.005.56885-.01685.84937-.03564,17.94921-1.16626,32.31372-28.6825,32.31372-62.46192h0v-.26074q-.00294-4.04261-.29615-8.07446h0q-.38525-5.33295-1.27514-10.61365m-11.74048-30.91834-50.46851,76.619h0c.15406.62317.31592,1.24036.48584,1.85865q.47535,1.72722,1.02417,3.43286a81.25939,81.25939,0,0,0,3.009,7.90661l51.959-78.87866q-.47973-1.14807-1.0083-2.27344h0q-.18676-.39843-.38013-.792h0a58.90393,58.90393,0,0,0-4.62109-7.873m-11.84888-10.68274-.00195.00293-41.79785,63.4574h0q.11572,4.97461.66675,9.92627.15856,1.4295.35351,2.8551l.00293-.00488,47.25708-71.73633q-.61634-.5808-1.26514-1.121h0q-.56286-.46509-1.15039-.90369h0a26.33662,26.33662,0,0,0-3.73608-2.31188h0c-.10962-.0553-.21924-.10962-.32886-.164m-8.34033-1.94848h-.10767l-.02172.001h-.08179l-.04639.001-.05835.001-.05127.001-.05444.001-.05029.001-.05835.00207-.04444.001-.0603.002-.04541.002-.06226.00195-.04541.00305-.05517.002-.05737.00293-.04541.002-.06226.00293-.0415.004-.06421.00293-.03833.001-.06617.005-.03857.002-.06909.00488-.03174.00293-.074.005-.02466.00293-.08106.006-.01782.002-.08691.00793-.01172.001-.09986.00989-.0769.00684-.02271.00305-.08593.00879-.01294.001-.08887.00989-.00977.001-.09887.01147-.08643.01038-.011.00146c-.06519.00806-.12915.01624-.1941.025l-.001.00012c-16.53443,2.22339-29.73682,26.85046-30.95777,57.69482h0l37.74952-57.31958a18.55694,18.55694,0,0,0-4.34937-.53918h0" transform="translate(-1846.18164 -1160.7522)" style="fill:#4a7188"/>
        <polyline points="0.052 491.961 0 492.026 0 492.111 0.052 491.961" style="fill:#b8ccad"/>
        <path d="M3739.46021,1652.98932l-.00684-.0257c-.06128-.237-.12549-.48095-.1897-.72784-.03149-.11853-.062-.236-.09375-.35553-1.85766-7.18469-4.59717-18.35529-8.01709-32.59534-18.157-75.60278-55.39282-237.60266-80.5083-347.34131-5.25683-22.96142-9.98535-43.64843-13.89429-60.7633-.03759-.16492-.07495-.33081-.11352-.49573-4.74634-20.78674-8.272-36.25928-10.06348-44.12341-.84741-3.71631-1.30664-5.73291-1.32446-5.809-.00488.02466-.05322.2528-.14917.6676l-.001.00391c-.49463,2.15686-2.16967,9.48181-4.772,20.845q-.36146,1.57928-.74561,3.261c-17.417,76.13611-70.42089,307.84583-94.63549,413.69739q-1.511,6.601-2.865,12.52356c-1.00049,4.73938-2.04053,8.94855-3.14161,12.65887l-.01171.04548-3.05762,13.33337v48.98138a8.289,8.289,0,0,1-.0918,1.22956,8.04515,8.04515,0,0,1-7.94824,6.81036h-.0188v13.19025h206.18945l23.74756-18.99921.51148-.40985h1.21v-35.60254ZM3601.40454,1443.2959c5.5542-5.29639,11.88257-8.2948,18.59619-8.2948a22.4252,22.4252,0,0,0,5.99951,0c22.09058,0,39.99927,32.45813,39.99927,72.49975,0,38.62464-16.6665,70.19581-37.67529,72.3794a24.5207,24.5207,0,0,1-13.32471,4.12012c-22.09131,0-39.99927-32.46-39.99927-72.49976C3575.00024,1480.11218,3586.00513,1453.3811,3601.40454,1443.2959Z" transform="translate(-1846.18164 -1160.7522)" style="fill:#77984b"/>
        <path d="M3625.09863,1161.42371c-.49463,2.15686-2.16967,9.48181-4.772,20.845q-.36146,1.57928-.74561,3.261l107.16211,466.35059h12.42676c-1.85766-7.18469-4.59717-18.35529-8.01709-32.59534-18.157-75.60278-55.39282-237.60266-80.5083-347.34131-5.25683-22.96142-9.98535-43.64843-13.89429-60.7633-.03759-.16492-.07495-.33081-.11352-.49573h0l-11.53809-49.26086" transform="translate(-1846.18164 -1160.7522)" style="fill:#99794e"/>
        <path d="M3739.16992,1651.88025H3515.86963v34.88946h0a8.289,8.289,0,0,1-.0918,1.22956H3739l-.74072.59155h1.21v-35.60254l-.009.001-.00684-.0257c-.06128-.237-.12549-.48095-.1897-.72784-.03149-.11853-.062-.236-.09375-.35553" transform="translate(-1846.18164 -1160.7522)" style="fill:#a17c53"/>
        <path d="M3739,1687.99927H3515.77783a8.04515,8.04515,0,0,1-7.94824,6.81036h-.0188v13.19025h206.18945l23.74756-18.99921.51148-.40985.74072-.59155" transform="translate(-1846.18164 -1160.7522)" style="fill:#906a3f"/>
    </g>
    <path class="outline" d="M3730.30273,1654.7152H3513.03418v-17.24708l3.18359-13.86132c1.082-3.64258,2.0918-7.71289,3.08887-12.44336l100.26856-438.31836Zm-211.59863-5.66993h204.47949l-103.59668-450.831-94.74316,414.166c-1.01074,4.79688-2.0498,8.98536-3.165,12.75391l-2.97461,12.97559Zm96.2959-62.21c-11.76367,0-22.69043-8.0625-30.7666-22.70019-7.78223-14.10645-12.06836-32.79883-12.06836-52.63477,0-31.23047,11.03027-59.48242,27.46973-70.43262,7.04589-6.63476,15.22265-9.68554,23.36523-8.72265a25.56949,25.56949,0,0,1,3-.17871c11.76367,0,22.68945,8.06152,30.7666,22.70019,7.7832,14.10547,12.06934,32.79785,12.06934,52.63477,0,19.0791-4.00684,37.251-11.28321,51.168-7.34375,14.04785-17.35937,22.52539-28.26464,23.95215A27.0958,27.0958,0,0,1,3615,1586.83531Zm5.001-148.999c-5.81446,0-11.41309,2.52734-16.64063,7.51172l-.40332.31933c-15.02637,9.84082-25.12207,36.29688-25.12207,65.833,0,38.41406,16.67188,69.665,37.165,69.665a21.71279,21.71279,0,0,0,11.7959-3.67285l.5664-.36231.669-.06933c9.21191-.958,17.91211-8.42188,24.49805-21.01856,6.85937-13.12109,10.63672-30.35937,10.63672-48.541,0-38.41406-16.67286-69.665-37.166-69.665a19.73529,19.73529,0,0,0-2.62305.17578l-.37695.05078-.37695-.05078A19.70977,19.70977,0,0,0,3620.001,1437.83629Z" transform="translate(-1846.18164 -1160.7522)" style="fill: transparent" />
</svg>