<svg id="Слой_1" data-name="Слой 1" xmlns="http://www.w3.org/2000/svg" viewBox="0 0 226.65 502.62" style="width: 4.63%">
    <g class="window">
        <path d="M3.06,463.65A84.19,84.19,0,0,1,0,472.37V477l3.06-13.38" transform="translate(2.37 8.66)" style="fill:#558698"/>
        <path d="M107.13,274.45a23.14,23.14,0,0,1,3-.2c22.09,0,40,32.46,40,72.5,0,38.62-16.67,70.2-37.68,72.38a24.5,24.5,0,0,1-13.32,4.12c-22.1,0-40-32.46-40-72.5,0-31.39,11-58.12,26.4-68.21,5.56-5.29,11.88-8.29,18.6-8.29a23.14,23.14,0,0,1,3,.2M103.71,24.78C85.57,104.08,28.82,352.15,6.21,451c-1,4.74-2,8.94-3.15,12.66L0,477v14.09H210.87L103.71,24.78M109.38,0s-.06.22-.16.66l11.66,49.76C113.78,19.34,109.38,0,109.38,0" transform="translate(2.37 8.66)" style="fill:#77984b"/>
        <path d="M85.53,282.54c-15.4,10.09-26.4,36.82-26.4,68.21,0,40,17.9,72.5,40,72.5a24.5,24.5,0,0,0,13.32-4.12,22.53,22.53,0,0,1-2.32.12,23.14,23.14,0,0,1-3-.2,23.14,23.14,0,0,1-3,.2c-22.1,0-40-32.46-40-72.5,0-27.87,8.67-52.07,21.4-64.21" transform="translate(2.37 8.66)" style="fill:#607d39"/>
        <path d="M104.13,274.25c-6.72,0-13,3-18.6,8.29-12.73,12.11-21.4,36.34-21.4,64.21,0,40,17.9,72.5,40,72.5a23.14,23.14,0,0,0,3-.2c-20.7-2.78-37-34.09-37-72.3s16.3-69.52,37-72.3a23.14,23.14,0,0,0-3-.2" transform="translate(2.37 8.66)" style="fill:#bfae96"/>
        <path d="M110.52,284.25h.11A19.25,19.25,0,0,1,119,286.2h0l.32.16a25.26,25.26,0,0,1,3.74,2.31c.39.29.78.6,1.15.91,4.31,3.55,8.13,8.76,11.26,15.17l.38.8c4.24,9,7.12,20.36,8,32.86.2,2.77.3,5.56.3,8.34h0c0,33.77-14.37,61.29-32.32,62.46h-1.85c-11.94-.45-22.33-12.54-28.07-30.44-.37-1.14-.71-2.28-1-3.43a101.83,101.83,0,0,1-2.64-12.93h0c-.13-1-.25-1.9-.36-2.86a117,117,0,0,1-.7-12.83c0-33.49,14.11-60.82,31.84-62.43h1.55m-.39-10a23.14,23.14,0,0,0-3,.2c-20.7,2.78-37,34.09-37,72.3s16.3,69.52,37,72.3a23.14,23.14,0,0,0,3,.2,22.53,22.53,0,0,0,2.32-.12c21-2.18,37.68-33.76,37.68-72.38,0-40-17.91-72.5-40-72.5" transform="translate(2.37 8.66)" style="fill:#d5caba"/>
        <path d="M110.37,409.25h0m.59,0h0m-.74,0h0m-.29,0h0m34.2-62.48c0,33.78-14.37,61.29-32.32,62.46,17.95-1.17,32.32-28.69,32.32-62.46h0m-8.31-41.2c.35.75.69,1.5,1,2.27l-52,78.88a79.36,79.36,0,0,1-3-7.91c5.74,17.9,16.13,30,28.07,30.44-5.71-.21-11.06-3.11-15.73-8l48.36-73.41q.89,5.28,1.27,10.61c-.89-12.5-3.77-23.84-8-32.86m-11.64-16c.43.36.86.73,1.27,1.12L78.16,362.44a101.83,101.83,0,0,0,2.64,12.93q-.26-.93-.48-1.86l50.46-76.62a58.12,58.12,0,0,1,4.67,7.86,45.85,45.85,0,0,0-11.26-15.17m-4.89-3.22a27.05,27.05,0,0,1,3.74,2.31,25.26,25.26,0,0,0-3.74-2.31m-10.22-2h0m.1,0h0m.1,0h0m.1,0h0m.1,0h0m.11,0h0m.1,0h0m.1,0h0m.1,0h0m.11,0h0m.11,0h0m.1,0h0m.11,0h0m.1,0h0m.11,0h0m.11,0a18.71,18.71,0,0,1,4.35.54L77.24,342.22C78.48,310.88,92.08,286,109,284.43,91.25,286,77.14,313.37,77.14,346.86a117,117,0,0,0,.7,12.83c-.36-3.29-.59-6.61-.66-9.92L119,286.31a19.22,19.22,0,0,0-8.33-1.95" transform="translate(2.37 8.66)" style="fill:#223e4f"/>
        <path d="M142.56,327.8,94.2,401.21c4.67,4.91,10,7.81,15.73,8h1.85c17.95-1.17,32.32-28.68,32.32-62.46h0c0-2.78-.1-5.57-.3-8.34q-.39-5.32-1.27-10.61m-11.75-30.92L80.35,373.5q.23.93.48,1.86c.32,1.15.66,2.29,1,3.43a79.36,79.36,0,0,0,3,7.91l52-78.88c-.32-.77-.66-1.52-1-2.27l-.38-.8a58.59,58.59,0,0,0-4.63-7.87M119,286.2h0L77.17,349.65c.07,3.31.3,6.63.66,9.92.11,1,.23,1.91.36,2.86h0l47.26-71.73c-.41-.39-.84-.76-1.27-1.12s-.76-.62-1.15-.91a27.05,27.05,0,0,0-3.74-2.31l-.32-.16m-8.34-1.95H109c-16.9,1.54-30.5,26.45-31.74,57.79L115,284.72a18.71,18.71,0,0,0-4.35-.54h0" transform="translate(2.37 8.66)" style="fill:#4a7188"/>
        <path d="M109.22.65l-5.51,24.12L210.87,491.13H223.3C209.51,437.82,147,164.74,120.88,50.42L109.22.65" transform="translate(2.37 8.66)" style="fill:#99794e"/>
    </g>
</svg>