<svg id="Слой_1" data-name="Слой 1" xmlns="http://www.w3.org/2000/svg" viewBox="0 0 231.66 547.25" style="width: 4.87%">
    <g class="window">
        <path d="M39.29,467.41a84.6,84.6,0,0,1-3.06,8.68h0v4.65l3.06-13.33" transform="translate(-28.17 -3.7)" style="fill:#558698"/>
        <path d="M121.76,286.25c-15.39,10.08-26.4,36.81-26.4,68.2h0c0,40,17.91,72.5,40,72.5a24.49,24.49,0,0,0,13.32-4.12,22.39,22.39,0,0,1-2.32.12,23,23,0,0,1-3-.2,23,23,0,0,1-3,.2c-22.09,0-40-32.46-40-72.5h0c0-27.87,8.68-52.07,21.4-64.2" transform="translate(-28.17 -3.7)" style="fill:#d88b26"/>
        <path d="M140.36,278c-6.71,0-13,3-18.6,8.3h0c-12.72,12.13-21.4,36.33-21.4,64.2h0c0,40,17.91,72.5,40,72.5a23,23,0,0,0,3-.2c-20.69-2.78-37-34.09-37-72.3h0c0-38.21,16.31-69.52,37-72.3a23,23,0,0,0-3-.2" transform="translate(-28.17 -3.7)" style="fill:#bfae96"/>
        <path d="M144.71,288.08h2.15a19.28,19.28,0,0,1,8.34,1.95h0l.33.16h0a25.53,25.53,0,0,1,3.74,2.31h0l1.15.91h0c4.3,3.56,8.13,8.76,11.25,15.17h0c.13.27.26.53.38.8h0c4.25,9,7.12,20.36,8,32.86h0q.3,4,.3,8.08v.26h0c0,33.78-14.36,61.29-32.31,62.46l-.85,0h-1c-11.93-.46-22.33-12.55-28.07-30.45-.36-1.13-.71-2.28-1-3.43a100,100,0,0,1-2.65-12.92h0c-.13-.95-.25-1.9-.35-2.85a114.18,114.18,0,0,1-.71-12.84h0c0-33,13.7-60,31.06-62.34h0l.19,0h.1M146.36,278a23,23,0,0,0-3,.2h0c-20.69,2.78-37,34.09-37,72.3h0c0,38.21,16.31,69.52,37,72.3a23,23,0,0,0,3,.2,22.39,22.39,0,0,0,2.32-.12c21-2.18,37.68-33.75,37.68-72.38h0c0-40-17.91-72.5-40-72.5" transform="translate(-28.17 -3.7)" style="fill:#d5caba"/>
        <path d="M146.6,413h0m.6,0h0m-.75,0h0m-.29,0h0m34.2-62.49h0c0,33.78-14.36,61.29-32.31,62.46,17.95-1.17,32.31-28.68,32.31-62.46h0m-8.31-41.2c.35.75.69,1.5,1,2.27h0l-52,78.88a82,82,0,0,1-3-7.91c5.74,17.9,16.14,30,28.07,30.45-5.71-.22-11.06-3.12-15.73-8h0l48.36-73.41c.59,3.52,1,7.06,1.27,10.61-.89-12.5-3.76-23.83-8-32.86m-11.63-16c.43.36.85.73,1.26,1.12h0l-47.26,71.74a100,100,0,0,0,2.65,12.92c-.17-.62-.34-1.24-.49-1.86h0l50.47-76.62a59.15,59.15,0,0,1,4.62,7.87c-3.12-6.41-6.95-11.61-11.25-15.17m-4.89-3.22a27.05,27.05,0,0,1,3.74,2.31,25.53,25.53,0,0,0-3.74-2.31m-10.92-2-.19,0,.19,0m.1,0h0m2.15-.13a18.71,18.71,0,0,1,4.35.54h0l-37.75,57.32h0c1.22-30.85,14.42-55.47,31-57.7-17.36,2.34-31.06,29.35-31.06,62.34h0a114.18,114.18,0,0,0,.71,12.84q-.55-4.95-.67-9.93h0l41.8-63.46a19.28,19.28,0,0,0-8.34-1.95" transform="translate(-28.17 -3.7)" style="fill:#223e4f"/>
        <path d="M178.79,331.5l-48.36,73.41h0c4.67,4.91,10,7.81,15.73,8h1l.85,0c17.95-1.17,32.31-28.68,32.31-62.46h0v-.26q0-4.05-.3-8.08h0c-.25-3.55-.68-7.09-1.27-10.61m-11.74-30.92L116.58,377.2h0c.15.62.32,1.24.49,1.86.31,1.15.66,2.3,1,3.43a82,82,0,0,0,3,7.91l52-78.88c-.32-.77-.66-1.52-1-2.27h0c-.12-.27-.25-.53-.38-.8h0a59.15,59.15,0,0,0-4.62-7.87M155.2,289.9h0l-41.8,63.46h0q.12,5,.67,9.93c.1.95.22,1.9.35,2.85h0l47.26-71.74c-.41-.39-.83-.76-1.26-1.12h0l-1.15-.91h0a27.05,27.05,0,0,0-3.74-2.31h0l-.33-.16M146.86,288h-2.25l-.19,0h0c-16.54,2.23-29.74,26.85-31,57.7h0l37.75-57.32a18.71,18.71,0,0,0-4.35-.54h0" transform="translate(-28.17 -3.7)" style="fill:#4a7188"/>
        <path d="M259.82,495.94v0c-.06-.23-.12-.48-.19-.72l-.09-.36c-1.86-7.18-4.6-18.35-8-32.6-18.15-75.6-55.39-237.6-80.51-347.34-5.25-23-10-43.64-13.89-60.76,0-.16-.07-.33-.11-.5-4.75-20.78-8.28-36.25-10.07-44.12-.84-3.72-1.3-5.73-1.32-5.81s-.05.26-.15.67h0c-.5,2.16-2.17,9.49-4.77,20.85-.24,1.05-.49,2.14-.75,3.26-17.42,76.14-70.42,307.85-94.63,413.7q-1.52,6.6-2.87,12.52c-1,4.74-2,8.95-3.14,12.66v.05l-3.06,13.33v49a8.28,8.28,0,0,1-.09,1.23,8.05,8.05,0,0,1-7.95,6.81h0V551H234.36l23.75-19,.51-.41h1.21v-35.6ZM121.76,286.25c5.56-5.3,11.89-8.3,18.6-8.3a23,23,0,0,1,3,.2,23,23,0,0,1,3-.2c22.09,0,40,32.46,40,72.5,0,38.63-16.67,70.2-37.68,72.38A24.49,24.49,0,0,1,135.36,427c-22.09,0-40-32.46-40-72.5C95.36,323.06,106.37,296.33,121.76,286.25Z" transform="translate(-28.17 -3.7)" style="fill:#fff200"/>
        <path d="M145.46,4.37c-.5,2.16-2.17,9.49-4.77,20.85-.24,1.05-.49,2.14-.75,3.26L247.1,494.83h12.43c-1.86-7.18-4.6-18.35-8-32.6-18.15-75.6-55.39-237.6-80.51-347.34-5.25-23-10-43.64-13.89-60.76,0-.16-.07-.33-.11-.5h0L145.46,4.37" transform="translate(-28.17 -3.7)" style="fill:#99794e"/>
        <path d="M259.53,494.83H36.23v34.89h0a8.28,8.28,0,0,1-.09,1.23H259.36l-.74.59h1.21v-35.6h0v0c-.06-.23-.12-.48-.19-.72l-.09-.36" transform="translate(-28.17 -3.7)" style="fill:#a17c53"/>
        <path d="M259.36,531H36.14a8.05,8.05,0,0,1-7.95,6.81h0V551H234.36l23.75-19,.51-.41.74-.59" transform="translate(-28.17 -3.7)" style="fill:#906a3f"/>
        <path d="M151.5,146.38l-.16-2.27-2.45-2.62,1.56-1.55,0-2.26-1.06-1-2.2,2.9-1.49-1.78,1.48-1.9-1.5-2.07,1.52-1.86,2.19,2.72,1.08-1.09-.09-2.17L148.84,130l2.41-2.63.06-2.78-1.16-.51-2.42,2.68,0-3.41L146.9,122l-.81,1.51,0,5.38-1.48,1.79.06-3.94s-2,2.11-1.92,2,0-3.66,0-3.66l2.34-2.57,0-2.11-.89-.79s-1.63,2.09-1.59,1.73.08-5,.08-5l-.92-1.76-.91,1.53.06,5.31-1.63-1.79-1,1.07v2l2.62,2.54.1,3.62L139.37,127l.06,4-1.84-2,0-4.92-.72-1.55-.79,1.58.12,3-2.49-2.58-1.18,1.14.06,2.17s2.54,2.65,2.47,2.67-1.52,1.74-1.52,1.74v2.06l1.05.84,2.15-2.84,1.51,2.07-1.42,2,1.64,1.75-1.55,1.63-2.41-2.35-1,1.05.16,2.09,1.31,1.41-2.11,2.73-.12,2.84,1.16.3,2.38-2.48,0,3.05.92,1.57s.59-1.42.62-1.63-.33-5-.24-5.1,1.84-1.77,1.84-1.77l-.07,3.79,1.83-2.12,0,3.6-2.08,2.45-.23,2.35,1.06.73,1.32-1.69v5.31l.95,1.3s.8-1.48.82-1.6,0-5.19,0-5.19l1.43,1.79.93-1.22-.25-2.14L143,146.5l0-3.56s1.81,2.59,1.83,2.5-.11-4.15-.11-4.15l1.73,1.76v4.81l.79,1.47.75-1.89-.16-2.63,2.36,2.75ZM142,139.09c-.88,0-1.59-1.44-1.59-3.21s.71-3.22,1.59-3.22,1.6,1.44,1.6,3.22S142.9,139.09,142,139.09Z" transform="translate(-28.17 -3.7)" style="fill:#fff"/>
        <path d="M122.39,465.06l-.1-1.32-1.42-1.52.91-.91,0-1.31-.62-.56-1.28,1.68-.87-1,.86-1.1-.87-1.21.88-1.08,1.28,1.59.63-.64-.06-1.26-.91-.85,1.4-1.53,0-1.62-.67-.29-1.42,1.56,0-2-.46-.79-.47.88,0,3.13-.87,1,0-2.29s-1.15,1.23-1.12,1.15,0-2.13,0-2.13l1.36-1.5v-1.23l-.52-.46s-1,1.22-.92,1,0-2.89,0-2.89l-.53-1-.53.89,0,3.09-1-1-.59.62v1.16l1.52,1.48.06,2.1-1-1.07,0,2.32-1.07-1.18,0-2.86-.42-.9-.46.92.07,1.71-1.45-1.5-.69.66,0,1.27s1.48,1.54,1.44,1.55-.89,1-.89,1V458l.62.5,1.25-1.66.88,1.21-.83,1.18,1,1-.89.95-1.41-1.37-.57.62.1,1.21.76.82-1.23,1.59-.07,1.65.68.18,1.39-1.44,0,1.77.54.92s.34-.83.36-.95-.19-2.9-.14-3,1.07-1,1.07-1l0,2.2,1.06-1.23,0,2.1-1.21,1.42-.13,1.37.62.42.76-1v3.1l.55.75s.47-.86.48-.93,0-3,0-3l.83,1,.54-.71-.15-1.25-1.24-1.34v-2.07s1,1.51,1.06,1.46-.06-2.42-.06-2.42l1,1v2.8l.47.86.43-1.1-.09-1.53,1.37,1.6Zm-5.52-4.24c-.51,0-.93-.84-.93-1.87s.42-1.87.93-1.87.93.84.93,1.87S117.39,460.82,116.87,460.82Z" transform="translate(-28.17 -3.7)" style="fill:#fff"/>
        <path d="M126.35,214.55l-.17-2.27-2.44-2.62,1.55-1.56,0-2.25-1.06-1-2.21,2.9L120.58,206l1.48-1.89L120.55,202l1.53-1.85,2.19,2.72,1.07-1.09-.09-2.18-1.56-1.44,2.4-2.64.06-2.77-1.15-.52-2.43,2.68,0-3.4-.78-1.36-.81,1.51,0,5.38-1.49,1.79.06-3.94s-2,2.11-1.91,2,0-3.65,0-3.65l2.34-2.57v-2.11l-.88-.79s-1.63,2.09-1.59,1.72.08-4.95.08-4.95l-.92-1.76-.91,1.53.06,5.3-1.63-1.78-1,1.06v2l2.63,2.55L116,197l-1.73-1.84.06,4-1.85-2,0-4.93-.71-1.54-.8,1.57.12,2.95-2.49-2.57-1.18,1.13.07,2.18s2.54,2.64,2.47,2.67-1.52,1.74-1.52,1.74v2.05l1,.85,2.16-2.84,1.51,2.07-1.42,2,1.63,1.75-1.54,1.63-2.41-2.36-1,1.06.16,2.09,1.31,1.4-2.11,2.73-.13,2.84,1.17.31,2.38-2.48,0,3,.92,1.57s.59-1.42.62-1.63-.33-5-.24-5.11,1.84-1.76,1.84-1.76l-.07,3.79,1.83-2.12,0,3.6L114,217.32l-.22,2.36,1.06.73,1.32-1.69V224l.94,1.3s.81-1.48.83-1.6,0-5.19,0-5.19l1.44,1.79.93-1.22L120,217l-2.14-2.29,0-3.57s1.81,2.6,1.82,2.51-.1-4.15-.1-4.15l1.72,1.75V216l.8,1.47.74-1.9-.15-2.62,2.35,2.74Zm-9.48-7.29c-.88,0-1.59-1.44-1.59-3.22s.71-3.21,1.59-3.21,1.6,1.44,1.6,3.21S117.75,207.26,116.87,207.26Z" transform="translate(-28.17 -3.7)" style="fill:#82d400"/>
        <path d="M155.83,232.74l-.16-2.27-2.45-2.62,1.56-1.55,0-2.26-1.06-1-2.2,2.9-1.49-1.78,1.48-1.9-1.5-2.08,1.52-1.85,2.19,2.72,1.08-1.09-.09-2.17-1.56-1.45,2.4-2.63.06-2.78-1.16-.51-2.42,2.68-.05-3.41-.78-1.36-.8,1.51,0,5.38L149,217l.06-3.94s-2,2.11-1.92,2,.05-3.66.05-3.66l2.33-2.57,0-2.11-.89-.79s-1.63,2.09-1.58,1.73.07-5,.07-5l-.92-1.76-.91,1.53.06,5.31L143.73,206l-1,1.07v2l2.62,2.54.1,3.62-1.74-1.84.06,4-1.84-2,0-4.93-.72-1.54-.79,1.58.12,2.94-2.49-2.57L136.89,212l.07,2.17s2.53,2.65,2.47,2.67-1.53,1.74-1.53,1.74v2.05l1.05.85,2.16-2.84,1.5,2.07-1.41,2,1.63,1.75-1.54,1.63-2.42-2.35-1,1,.17,2.09,1.3,1.4L137.25,231l-.12,2.84,1.16.3,2.39-2.48-.05,3,.92,1.57s.59-1.42.62-1.63-.33-5-.24-5.1,1.84-1.77,1.84-1.77l-.07,3.79,1.83-2.12,0,3.6-2.08,2.45-.23,2.35,1.07.73,1.31-1.69v5.31l1,1.3s.81-1.48.82-1.6,0-5.19,0-5.19l1.44,1.79.92-1.22-.25-2.15-2.14-2.29v-3.57s1.81,2.6,1.83,2.51-.1-4.15-.1-4.15l1.72,1.76v4.81l.79,1.47.75-1.89-.15-2.63,2.35,2.75Zm-9.47-7.29c-.89,0-1.6-1.44-1.6-3.21s.71-3.22,1.6-3.22,1.59,1.44,1.59,3.22S147.24,225.45,146.36,225.45Z" transform="translate(-28.17 -3.7)" style="fill:#fff"/>
        <path d="M209.21,406.48l-.17-2.26-2.44-2.62,1.55-1.56,0-2.26-1.06-1-2.21,2.9-1.48-1.79,1.48-1.9L203.41,394l1.53-1.86,2.19,2.72,1.07-1.09-.09-2.17-1.56-1.45,2.4-2.63.06-2.78-1.15-.51-2.43,2.68,0-3.41-.78-1.36-.81,1.51,0,5.38-1.49,1.79.06-3.93s-2,2.1-1.91,2,0-3.65,0-3.65l2.34-2.57v-2.12l-.88-.78s-1.63,2.08-1.59,1.72.08-5,.08-5l-.92-1.77-.91,1.54.06,5.3-1.63-1.78-1,1.06v2l2.63,2.54.09,3.62-1.73-1.84.06,4-1.85-2,0-4.92-.71-1.54-.8,1.57.12,2.95-2.49-2.58-1.18,1.14.07,2.17s2.54,2.65,2.47,2.67-1.52,1.74-1.52,1.74v2.06l1,.84,2.16-2.84,1.51,2.07-1.42,2,1.63,1.75-1.54,1.64-2.41-2.36-1,1.06.16,2.08,1.31,1.41-2.11,2.73-.13,2.84,1.17.3,2.38-2.48,0,3.06.92,1.57s.59-1.42.62-1.64-.33-5-.24-5.1,1.84-1.76,1.84-1.76l-.07,3.78,1.83-2.11,0,3.59-2.08,2.45-.22,2.36,1.06.72,1.32-1.68V416l.94,1.3s.81-1.48.83-1.61-.05-5.19-.05-5.19l1.44,1.79.93-1.22-.26-2.14-2.14-2.3,0-3.56s1.81,2.6,1.82,2.51-.1-4.16-.1-4.16l1.72,1.76V408l.8,1.48.74-1.9-.15-2.62,2.36,2.74Zm-9.48-7.28c-.88,0-1.59-1.44-1.59-3.22s.71-3.22,1.59-3.22,1.6,1.44,1.6,3.22S200.61,399.2,199.73,399.2Z" transform="translate(-28.17 -3.7)" style="fill:#fff"/>
        <path d="M87.83,438.45l-.16-2.26-2.45-2.62L86.78,432l0-2.26-1.06-1-2.2,2.9-1.49-1.79,1.48-1.9L82,425.93l1.52-1.86,2.19,2.72,1.08-1.08-.09-2.18-1.56-1.45,2.4-2.63.06-2.78-1.16-.51-2.42,2.68,0-3.41-.78-1.35-.8,1.51,0,5.37L81,422.75l.06-3.93s-2,2.11-1.92,2,.05-3.65.05-3.65l2.33-2.57,0-2.12-.89-.78s-1.63,2.08-1.58,1.72.07-4.95.07-4.95l-.92-1.76-.91,1.53.06,5.3-1.63-1.78-1,1.06v2l2.62,2.54.1,3.62-1.74-1.84.06,4-1.84-2,0-4.92-.72-1.54-.79,1.57.12,2.95-2.49-2.57-1.18,1.13.07,2.17s2.53,2.65,2.47,2.67-1.53,1.75-1.53,1.75v2.05l1,.84,2.16-2.83,1.5,2.06-1.41,2,1.63,1.76-1.54,1.63-2.42-2.36-1,1.06.17,2.08,1.3,1.41-2.11,2.73-.12,2.84,1.16.3,2.39-2.48-.05,3.06.92,1.57s.59-1.42.62-1.63-.33-5-.24-5.11,1.84-1.76,1.84-1.76l-.07,3.78,1.83-2.11,0,3.59-2.08,2.45-.23,2.36,1.07.72,1.31-1.68v5.31l1,1.3s.81-1.48.82-1.6,0-5.2,0-5.2l1.44,1.79.92-1.22-.25-2.14-2.14-2.3V435s1.81,2.6,1.83,2.51-.1-4.15-.1-4.15l1.72,1.75v4.81l.79,1.48.75-1.9-.15-2.62,2.35,2.74Zm-9.47-7.28c-.89,0-1.6-1.44-1.6-3.22s.71-3.22,1.6-3.22S80,426.17,80,428,79.24,431.17,78.36,431.17Z" transform="translate(-28.17 -3.7)" style="fill:#82d400"/>
        <path d="M207.83,465l-.16-2.26-2.45-2.62,1.56-1.56,0-2.26-1.06-1-2.2,2.9-1.49-1.79,1.48-1.9-1.5-2.07,1.52-1.86,2.19,2.72,1.08-1.09-.09-2.17-1.56-1.45,2.4-2.63.06-2.78-1.15-.51-2.43,2.68-.05-3.41-.77-1.36-.81,1.52,0,5.37L201,449.25l.06-3.93s-2,2.11-1.92,2,.05-3.65.05-3.65l2.33-2.57,0-2.12-.89-.78s-1.63,2.08-1.58,1.72.07-4.95.07-4.95l-.91-1.77-.92,1.54.06,5.3-1.63-1.78-1,1.06v2l2.62,2.54.1,3.62-1.74-1.84.06,4-1.84-2,0-4.92-.72-1.54-.79,1.57.12,2.95L190.07,443l-1.18,1.14.07,2.17s2.53,2.65,2.47,2.67-1.53,1.74-1.53,1.74v2.06l1.05.84,2.16-2.83,1.5,2.06-1.41,2,1.63,1.76-1.54,1.63L190.86,456l-1,1.06.17,2.08,1.31,1.41-2.12,2.73-.12,2.84,1.17.3,2.38-2.48-.05,3.06.92,1.57s.59-1.42.62-1.63-.32-5-.24-5.11,1.84-1.76,1.84-1.76l-.07,3.78,1.83-2.11,0,3.59-2.08,2.45-.23,2.36,1.07.72,1.31-1.68v5.31l1,1.3s.81-1.48.82-1.6,0-5.2,0-5.2l1.44,1.79.92-1.22-.25-2.14-2.14-2.3v-3.56s1.81,2.6,1.83,2.51-.1-4.15-.1-4.15l1.72,1.75v4.81l.79,1.48.75-1.9-.15-2.62,2.35,2.74Zm-9.47-7.28c-.88,0-1.6-1.44-1.6-3.22s.72-3.22,1.6-3.22,1.59,1.44,1.59,3.22S199.24,457.67,198.36,457.67Z" transform="translate(-28.17 -3.7)" style="fill:#82d400"/>
        <path d="M173.89,263.66l-.11-1.55-1.68-1.8,1.06-1.07,0-1.55-.73-.66L171,259l-1-1.23,1-1.3-1-1.42,1.05-1.28,1.5,1.87.74-.75-.06-1.49-1.07-1,1.64-1.81,0-1.9-.79-.36-1.66,1.84,0-2.33-.54-.94-.55,1,0,3.69-1,1.23,0-2.7s-1.35,1.44-1.31,1.35,0-2.51,0-2.51l1.6-1.76v-1.46l-.6-.53s-1.12,1.43-1.09,1.18,0-3.4,0-3.4l-.63-1.21-.63,1.05.05,3.64-1.12-1.22-.7.73v1.36l1.8,1.75.07,2.48-1.2-1.27.05,2.74-1.27-1.39,0-3.38-.49-1.05-.55,1.07.09,2-1.71-1.77-.81.78.05,1.49s1.74,1.82,1.69,1.83-1,1.2-1,1.2v1.41l.72.58,1.48-1.95,1,1.42-1,1.4L165,258l-1.06,1.12-1.65-1.62-.67.73.11,1.43.9,1-1.45,1.88-.09,1.95.81.2,1.63-1.7,0,2.1.63,1.08s.41-1,.43-1.12-.23-3.42-.17-3.51,1.26-1.21,1.26-1.21l-.05,2.6,1.26-1.45,0,2.47-1.43,1.68-.15,1.61.73.5.9-1.16v3.65l.65.89s.55-1,.56-1.1,0-3.56,0-3.56l1,1.23.64-.84-.18-1.47-1.47-1.58V261.3s1.25,1.78,1.26,1.72-.07-2.85-.07-2.85l1.18,1.2v3.31l.54,1,.51-1.3-.1-1.8,1.61,1.88Zm-6.5-5c-.61,0-1.1-1-1.1-2.21s.49-2.2,1.1-2.2,1.09,1,1.09,2.2S168,258.66,167.39,258.66Z" transform="translate(-28.17 -3.7)" style="fill:#82d400"/>
    </g>
    <path class="outline" d="M252.68,499.6H35.41V482.35l3.19-13.86c1.08-3.64,2.09-7.71,3.09-12.44L142,17.73Zm-211.6-5.67H245.56L142,43.1,47.22,457.26c-1,4.8-2,9-3.16,12.76l-3,13Zm96.3-62.21c-11.77,0-22.69-8.07-30.77-22.7-7.78-14.11-12.07-32.8-12.07-52.64,0-31.23,11-59.48,27.47-70.43,7-6.63,15.23-9.69,23.37-8.72a25.16,25.16,0,0,1,3-.18c11.76,0,22.69,8.06,30.77,22.7,7.78,14.1,12.06,32.8,12.06,52.63,0,19.08-4,37.25-11.28,51.17s-17.36,22.53-28.26,23.95A27.09,27.09,0,0,1,137.38,431.72Zm5-149c-5.81,0-11.41,2.53-16.64,7.51l-.4.32c-15,9.84-25.13,36.3-25.13,65.83,0,38.42,16.68,69.67,37.17,69.67a21.66,21.66,0,0,0,11.79-3.68l.57-.36.67-.07c9.21-.95,17.91-8.42,24.5-21,6.86-13.12,10.63-30.35,10.63-48.54,0-38.41-16.67-69.66-37.16-69.66a21,21,0,0,0-2.62.17l-.38.06-.38-.06A21,21,0,0,0,142.38,282.72Z" transform="translate(-28.17 -3.7)" style="fill: transparent"/>
</svg>