<svg id="dbf51b27-a4c2-44a9-8f81-652116f89916" data-name="ПЕРЕВОД_не фанерные объекты_клик" xmlns="http://www.w3.org/2000/svg" viewBox="0 0 495.86719 533.72335"><title>sveza_ny_game-curves-узкая версия-eng-с украшенной желтой стеной</title><rect x="10.30974" y="6.27313" width="485.55745" height="527.45022" rx="12" ry="12" style="fill:#3a301f"/><rect width="485.55745" height="527.45022" rx="12" ry="12" style="fill:#fff"/><polyline points="215 427.001 156.906 427.001 156.95 431 156.948 431.206 156.944 431.469 156.755 446.219 156.728 448.344 156.529 463.812 156.502 465.906 156.33 479.281 156.303 481.375 156.113 496.161 156.086 498.249 156.005 504.53 156 505.001 215 505.001 215 504.53 215 429.375 215 427.001" style="fill:#804528"/><path d="M1496.99988,811.70119a2.00068,2.00068,0,0,1-2.00061-1.99878V798.702a2.001,2.001,0,0,1,2.00061-2.00049h34.00036a2.00093,2.00093,0,0,1,2.00049,2.00049v11.00037a2.00057,2.00057,0,0,1-2.00049,1.99878h-34.00036m54.99975-30.99866h-75.99926v77.99988h75.99926V780.70253" transform="translate(-1261 -353.70178)" style="fill:#b16238"/><path d="M1502.99976,805.70131a1.99964,1.99964,0,1,1,0-3.99927h23a1.99964,1.99964,0,1,1,0,3.99927h-23m28.00048-8.99976h-34.00036a2.001,2.001,0,0,0-2.00061,2.00049v11.00037a2.00068,2.00068,0,0,0,2.00061,1.99878h34.00036a2.00057,2.00057,0,0,0,2.00049-1.99878V798.702a2.00093,2.00093,0,0,0-2.00049-2.00049" transform="translate(-1261 -353.70178)" style="fill:#d3c7c2"/><path d="M1525.99976,801.702h-23a1.99964,1.99964,0,1,0,0,3.99927h23a1.99964,1.99964,0,1,0,0-3.99927" transform="translate(-1261 -353.70178)" style="fill:#372d3a"/><polyline points="209 355.807 156.906 355.807 156.906 427.001 209 427.001 209 418.125 209 397.359 209 397" style="fill:#b16238"/><path d="M1499.936,743.6277a2.00023,2.00023,0,0,1-.34607-3.9696l.05932-.009,22.70166-3.67749a2.00018,2.00018,0,0,1,.63989,3.94885l-22.70166,3.67579a2.00276,2.00276,0,0,1-.35314.03149m26.87927-13.41833a2.01454,2.01454,0,0,0-.32483.02648l-33.3396,5.39978-.22046.03577a2.01106,2.01106,0,0,0-1.66077,2.29529l1.76148,10.85828a1.998,1.998,0,0,0,2.28991,1.65368l33.569-5.43542a2.00082,2.00082,0,0,0,1.65-2.29358l-1.75964-10.85828-.00184-.01257a1.99178,1.99178,0,0,0-1.96325-1.66943" transform="translate(-1261 -353.70178)" style="fill:#d3c7c2"/><path d="M1522.67493,735.94508a2.00429,2.00429,0,0,0-.324.02649l-22.70166,3.67749-.05932.009a1.99985,1.99985,0,1,0,.69921,3.93811l22.70166-3.67579a2.00065,2.00065,0,0,0-.31591-3.97534" transform="translate(-1261 -353.70178)" style="fill:#372d3a"/><path d="M1534.95825,709.50844h-64.95776v71.19409H1537V709.50844ZM1528.89,745.04323l-33.569,5.43542a1.998,1.998,0,0,1-2.28991-1.65368l-1.76148-10.85828a1.99861,1.99861,0,0,1,.19471-1.21521,2.31482,2.31482,0,0,1,1.76306-1.166l-.07654.05017,1.77539-.28759c.23718-.02857.48071-.06043.73-.1l.08105-.03137,30.75318-4.98084a2.01454,2.01454,0,0,1,.32483-.02648,1.99178,1.99178,0,0,1,1.96325,1.66943l.00184.01257,1.75964,10.85828A2.00082,2.00082,0,0,1,1528.89,745.04323Z" transform="translate(-1261 -353.70178)" style="fill:#c67245"/><path d="M1369.67285,589.70166v-25.29h5.10645v9.9541h10.00586v-9.9541h5.10546v25.29h-5.10546V578.64355H1374.7793v11.05811Z" transform="translate(-1261 -353.70178)" style="fill:#7a923c"/><path d="M1405.74414,583.87061l4.83106.811a7.924,7.924,0,0,1-2.94141,4.04541,8.64271,8.64271,0,0,1-5.0293,1.38867q-4.77831,0-7.07226-3.12256a10.48638,10.48638,0,0,1-1.81153-6.314,10.1176,10.1176,0,0,1,2.38086-7.1333,7.84129,7.84129,0,0,1,6.02051-2.57861,8.13389,8.13389,0,0,1,6.45215,2.6997q2.36279,2.69971,2.25976,8.27149h-12.1455a4.90523,4.90523,0,0,0,1.17382,3.35547,3.66588,3.66588,0,0,0,2.79395,1.19921,2.96717,2.96717,0,0,0,1.915-.62109A3.83552,3.83552,0,0,0,1405.74414,583.87061Zm.27637-4.89893a4.664,4.664,0,0,0-1.08692-3.2002,3.49828,3.49828,0,0,0-5.14062.06055,4.46913,4.46913,0,0,0-1.01758,3.13965Z" transform="translate(-1261 -353.70178)" style="fill:#7a923c"/><path d="M1412.49023,571.38135h5.15723l4.38184,13.00683,4.27832-13.00683h5.0205l-6.46972,17.63037-1.15528,3.19141a13.01516,13.01516,0,0,1-1.21679,2.4497,5.29164,5.29164,0,0,1-1.32813,1.3711,5.80123,5.80123,0,0,1-1.8457.81982,9.5973,9.5973,0,0,1-2.47559.293,12.86032,12.86032,0,0,1-2.74316-.293l-.43066-3.79541a10.72881,10.72881,0,0,0,2.05273.22412,3.04111,3.04111,0,0,0,2.501-.9917,6.87361,6.87361,0,0,0,1.24218-2.52734Z" transform="translate(-1261 -353.70178)" style="fill:#7a923c"/><path d="M1431.69043,584.854h4.84766v3.46778a12.10075,12.10075,0,0,1-.36231,3.3208,4.96872,4.96872,0,0,1-1.37207,2.18213,7.06876,7.06876,0,0,1-2.56152,1.51806l-.94824-2.001a4.08811,4.08811,0,0,0,2.08691-1.32862,3.99016,3.99016,0,0,0,.65527-2.31152h-2.3457Z" transform="translate(-1261 -353.70178)" style="fill:#7a923c"/><path d="M1459.84375,571.38135v3.86377h-3.3125v7.38379a18.33115,18.33115,0,0,0,.09473,2.61328,1.06272,1.06272,0,0,0,.43164.6123,1.36377,1.36377,0,0,0,.81933.2417,6.2686,6.2686,0,0,0,1.94922-.46582l.41406,3.76074a9.63566,9.63566,0,0,1-3.8291.72461,6.074,6.074,0,0,1-2.36425-.43994,3.4543,3.4543,0,0,1-1.54395-1.13867,4.49429,4.49429,0,0,1-.68066-1.88867,23.49678,23.49678,0,0,1-.15528-3.416v-7.9873h-2.22558v-3.86377h2.22558v-3.64014l4.86426-2.8291v6.46924Z" transform="translate(-1261 -353.70178)" style="fill:#7a923c"/><path d="M1468.03809,564.41162V573.71a7.26311,7.26311,0,0,1,8.625-2.12158,4.93316,4.93316,0,0,1,2.02734,1.58691,5.75891,5.75891,0,0,1,.93164,2.13916,19.18592,19.18592,0,0,1,.25,3.63965v10.74756h-4.84766v-9.67773a14.29768,14.29768,0,0,0-.27636-3.65723,2.39691,2.39691,0,0,0-.97461-1.2334,3.1341,3.1341,0,0,0-1.751-.457,4.01685,4.01685,0,0,0-2.15625.58643,3.382,3.382,0,0,0-1.38867,1.76806,10.57086,10.57086,0,0,0-.43945,3.49317v9.17773h-4.84766v-25.29Z" transform="translate(-1261 -353.70178)" style="fill:#7a923c"/><path d="M1495.39746,583.87061l4.83106.811a7.924,7.924,0,0,1-2.94141,4.04541,8.64271,8.64271,0,0,1-5.0293,1.38867q-4.77831,0-7.07226-3.12256a10.48638,10.48638,0,0,1-1.81153-6.314,10.1176,10.1176,0,0,1,2.38086-7.1333,7.84129,7.84129,0,0,1,6.02051-2.57861,8.13389,8.13389,0,0,1,6.45215,2.6997q2.36279,2.69971,2.25976,8.27149h-12.1455a4.90523,4.90523,0,0,0,1.17382,3.35547,3.66588,3.66588,0,0,0,2.79395,1.19921,2.96717,2.96717,0,0,0,1.915-.62109A3.83552,3.83552,0,0,0,1495.39746,583.87061Zm.27637-4.89893a4.664,4.664,0,0,0-1.08692-3.2002,3.49828,3.49828,0,0,0-5.14062.06055,4.46913,4.46913,0,0,0-1.01758,3.13965Z" transform="translate(-1261 -353.70178)" style="fill:#7a923c"/><path d="M1502.14355,571.38135h5.15723l4.38184,13.00683,4.27832-13.00683h5.02051l-6.46973,17.63037-1.15527,3.19141a13.01571,13.01571,0,0,1-1.2168,2.4497,5.29164,5.29164,0,0,1-1.32813,1.3711,5.80123,5.80123,0,0,1-1.8457.81982,9.5973,9.5973,0,0,1-2.47559.293,12.86032,12.86032,0,0,1-2.74316-.293l-.43066-3.79541a10.72881,10.72881,0,0,0,2.05273.22412,3.04111,3.04111,0,0,0,2.501-.9917,6.87361,6.87361,0,0,0,1.24218-2.52734Z" transform="translate(-1261 -353.70178)" style="fill:#7a923c"/><path d="M1523.96582,564.481h4.84766v3.46728a12.09827,12.09827,0,0,1-.36231,3.3208,4.96867,4.96867,0,0,1-1.37207,2.18213,7.06206,7.06206,0,0,1-2.56152,1.51807l-.94824-2.001a4.08193,4.08193,0,0,0,2.08691-1.32861,3.98907,3.98907,0,0,0,.65527-2.31152h-2.3457Z" transform="translate(-1261 -353.70178)" style="fill:#7a923c"/><path d="M1538.542,589.70166h-4.84668V571.38135h4.502v2.60449a7.83039,7.83039,0,0,1,2.0791-2.43213,3.8217,3.8217,0,0,1,2.0957-.58642,6.15222,6.15222,0,0,1,3.19141.91406l-1.501,4.22656a4.25385,4.25385,0,0,0-2.27734-.79346,2.69045,2.69045,0,0,0-1.72461.56055,3.829,3.829,0,0,0-1.11231,2.02686,28.76164,28.76164,0,0,0-.40625,6.1416Z" transform="translate(-1261 -353.70178)" style="fill:#7a923c"/><path d="M1558.25977,583.87061l4.83105.811a7.92385,7.92385,0,0,1-2.94141,4.04541,8.6427,8.6427,0,0,1-5.02929,1.38867q-4.77833,0-7.07227-3.12256a10.48637,10.48637,0,0,1-1.81152-6.314,10.11755,10.11755,0,0,1,2.38086-7.1333,7.84128,7.84128,0,0,1,6.02051-2.57861,8.13388,8.13388,0,0,1,6.45214,2.6997q2.3628,2.69971,2.25977,8.27149H1551.2041a4.90523,4.90523,0,0,0,1.17383,3.35547,3.66585,3.66585,0,0,0,2.79395,1.19921,2.96714,2.96714,0,0,0,1.915-.62109A3.83553,3.83553,0,0,0,1558.25977,583.87061Zm.27636-4.89893a4.664,4.664,0,0,0-1.08691-3.2002,3.49829,3.49829,0,0,0-5.14063.06055,4.46913,4.46913,0,0,0-1.01757,3.13965Z" transform="translate(-1261 -353.70178)" style="fill:#7a923c"/><path d="M1574.99414,571.38135h2.69043V570.001a9.15981,9.15981,0,0,1,.49219-3.4502,3.88983,3.88983,0,0,1,1.81152-1.85449,6.95124,6.95124,0,0,1,3.33789-.71582,13.48977,13.48977,0,0,1,4.05371.62109l-.65527,3.38135a9.575,9.575,0,0,0-2.22559-.27637,1.98635,1.98635,0,0,0-1.50976.4917,2.849,2.849,0,0,0-.457,1.88916v1.29395h3.623v3.812h-3.623v14.5083h-4.84766v-14.5083h-2.69043Z" transform="translate(-1261 -353.70178)" style="fill:#7a923c"/><path d="M1593.52148,589.70166h-4.84765V571.38135h4.50293v2.60449a7.81757,7.81757,0,0,1,2.07812-2.43213,3.82506,3.82506,0,0,1,2.09668-.58642,6.15735,6.15735,0,0,1,3.19141.91406l-1.501,4.22656a4.25909,4.25909,0,0,0-2.27734-.79346,2.69322,2.69322,0,0,0-1.72559.56055,3.83556,3.83556,0,0,0-1.1123,2.02686,28.784,28.784,0,0,0-.40528,6.1416Z" transform="translate(-1261 -353.70178)" style="fill:#7a923c"/><path d="M1601.50879,580.28271a9.90822,9.90822,0,0,1,1.19043-4.67529,8.16788,8.16788,0,0,1,3.37207-3.45019,10.01025,10.01025,0,0,1,4.874-1.18994,9.14484,9.14484,0,0,1,6.81348,2.6997,9.32653,9.32653,0,0,1,2.65723,6.82276,9.44,9.44,0,0,1-2.68262,6.8916,9.06719,9.06719,0,0,1-6.75391,2.73437,10.63394,10.63394,0,0,1-4.80469-1.13867,7.80678,7.80678,0,0,1-3.47558-3.33789A11.11749,11.11749,0,0,1,1601.50879,580.28271Zm4.96777.25879a6.0712,6.0712,0,0,0,1.29395,4.17481,4.22986,4.22986,0,0,0,6.374,0,6.15086,6.15086,0,0,0,1.28516-4.20947,6.03741,6.03741,0,0,0-1.28516-4.14014,4.22892,4.22892,0,0,0-6.374,0A6.07119,6.07119,0,0,0,1606.47656,580.5415Z" transform="translate(-1261 -353.70178)" style="fill:#7a923c"/><path d="M1623.84863,571.38135h4.46778v2.501a7.18989,7.18989,0,0,1,5.71-2.915,6.1495,6.1495,0,0,1,3.05371.72412,5.57407,5.57407,0,0,1,2.12207,2.19091,8.46972,8.46972,0,0,1,2.60449-2.19091,6.3934,6.3934,0,0,1,2.98438-.72412,6.64714,6.64714,0,0,1,3.416.81933,5.02008,5.02008,0,0,1,2.08692,2.40625,10.42772,10.42772,0,0,1,.501,3.79541v11.71338h-4.84765V579.23047a7.80112,7.80112,0,0,0-.5-3.51953,2.29723,2.29723,0,0,0-2.07032-1.03467,3.30579,3.30579,0,0,0-1.915.62061,3.44882,3.44882,0,0,0-1.29394,1.82031,13.09182,13.09182,0,0,0-.39649,3.78662v8.79785h-4.84765v-10.04a13.90808,13.90808,0,0,0-.25879-3.45019,2.20225,2.20225,0,0,0-.80176-1.15577,2.53844,2.53844,0,0,0-1.47558-.37939,3.53687,3.53687,0,0,0-2.01856.60352,3.31586,3.31586,0,0,0-1.28516,1.74218,12.95713,12.95713,0,0,0-.38769,3.77832v8.90137h-4.84766Z" transform="translate(-1261 -353.70178)" style="fill:#7a923c"/><path d="M1436.33105,619.19385l-4.77832.86279a3.47008,3.47008,0,0,0-1.0957-2.15674,3.30935,3.30935,0,0,0-2.2168-.72412,3.62236,3.62236,0,0,0-2.88964,1.25049,6.40956,6.40956,0,0,0-1.07813,4.18311q0,3.26073,1.0957,4.60644a3.59481,3.59481,0,0,0,2.94141,1.34522,3.26685,3.26685,0,0,0,2.25977-.78467,4.72969,4.72969,0,0,0,1.24218-2.69971l4.76075.81055a8.44415,8.44415,0,0,1-2.84668,4.95117,8.80912,8.80912,0,0,1-5.64063,1.67334,8.38652,8.38652,0,0,1-6.40918-2.53613,11.55977,11.55977,0,0,1,.00879-14.08545,8.51736,8.51736,0,0,1,6.48633-2.52686,8.84953,8.84953,0,0,1,5.32226,1.44043A7.98459,7.98459,0,0,1,1436.33105,619.19385Z" transform="translate(-1261 -353.70178)" style="fill:#7a923c"/><path d="M1443.62793,619.36621l-4.39844-.79346a6.84728,6.84728,0,0,1,2.55274-3.9331,9.34366,9.34366,0,0,1,5.38183-1.27637,11.60659,11.60659,0,0,1,4.83106.76758,4.81567,4.81567,0,0,1,2.2334,1.94922,9.98971,9.98971,0,0,1,.64746,4.33887l-.05176,5.6582a19.646,19.646,0,0,0,.23242,3.562,10.38237,10.38237,0,0,0,.87109,2.4585h-4.79589q-.189-.48267-.46582-1.43164-.12012-.4314-.17188-.56934a8.73188,8.73188,0,0,1-2.65723,1.811,7.60027,7.60027,0,0,1-3.01855.604,6.24137,6.24137,0,0,1-4.459-1.53516,5.10433,5.10433,0,0,1-1.63086-3.88183,5.20358,5.20358,0,0,1,.74218-2.76856,4.842,4.842,0,0,1,2.0791-1.86328,16.24434,16.24434,0,0,1,3.85547-1.12988,26.36691,26.36691,0,0,0,4.709-1.19043v-.48291a2.514,2.514,0,0,0-.68946-1.99268,4.14148,4.14148,0,0,0-2.60546-.59472,3.47036,3.47036,0,0,0-2.01856.50878A3.54045,3.54045,0,0,0,1443.62793,619.36621Zm6.48633,3.93359a30.32518,30.32518,0,0,1-2.9502.7417,8.89558,8.89558,0,0,0-2.63867.84522,2.0222,2.0222,0,0,0-.94922,1.708,2.37656,2.37656,0,0,0,.75879,1.75927,2.65206,2.65206,0,0,0,1.93262.74219,4.19492,4.19492,0,0,0,2.501-.86279,3.03741,3.03741,0,0,0,1.15625-1.60449,9.60265,9.60265,0,0,0,.18946-2.36328Z" transform="translate(-1261 -353.70178)" style="fill:#7a923c"/><path d="M1464.29492,632.09766h-4.84765V613.77734h4.50293v2.6045a7.81757,7.81757,0,0,1,2.07812-2.43213,3.82493,3.82493,0,0,1,2.09668-.58643,6.15745,6.15745,0,0,1,3.19141.91406l-1.501,4.22657a4.25909,4.25909,0,0,0-2.27734-.79346,2.69322,2.69322,0,0,0-1.72559.56055,3.8355,3.8355,0,0,0-1.1123,2.02685,28.78411,28.78411,0,0,0-.40528,6.1416Z" transform="translate(-1261 -353.70178)" style="fill:#7a923c"/><path d="M1490.20605,632.09766h-4.50293v-2.69092a7.27931,7.27931,0,0,1-2.64746,2.3374,6.80592,6.80592,0,0,1-3.08007.76758,6.97858,6.97858,0,0,1-5.40821-2.54443,10.35477,10.35477,0,0,1-2.251-7.09913q0-4.65747,2.1914-7.08154a7.14179,7.14179,0,0,1,5.53711-2.42334,6.86087,6.86087,0,0,1,5.31348,2.55274v-9.1084h4.84765Zm-12.93847-9.55713a8.39206,8.39206,0,0,0,.81054,4.24365,3.66346,3.66346,0,0,0,3.27833,1.898,3.56751,3.56751,0,0,0,2.8457-1.42334,6.56745,6.56745,0,0,0,1.17383-4.25244,7.19029,7.19029,0,0,0-1.13868-4.54541,3.605,3.605,0,0,0-2.916-1.38867,3.64229,3.64229,0,0,0-2.88965,1.37109A6.19729,6.19729,0,0,0,1477.26758,622.54053Z" transform="translate(-1261 -353.70178)" style="fill:#7a923c"/><path d="M1494.77734,632.09766v-25.29h4.84668v9.1084a6.86087,6.86087,0,0,1,5.31348-2.55274,7.14524,7.14524,0,0,1,5.53809,2.42334q2.18994,2.42432,2.19043,6.96094,0,4.69263-2.2334,7.228a6.97341,6.97341,0,0,1-5.42578,2.53613,6.704,6.704,0,0,1-3.09668-.78516,7.40536,7.40536,0,0,1-2.63086-2.31982v2.69092Zm4.8125-9.55713a7.78709,7.78709,0,0,0,.89746,4.20947,3.83409,3.83409,0,0,0,3.34668,1.93213,3.43139,3.43139,0,0,0,2.73438-1.37158,6.75147,6.75147,0,0,0,1.12988-4.32129,7.15617,7.15617,0,0,0-1.13867-4.52832,3.605,3.605,0,0,0-2.916-1.38867,3.65028,3.65028,0,0,0-2.89746,1.354A6.21286,6.21286,0,0,0,1499.58984,622.54053Z" transform="translate(-1261 -353.70178)" style="fill:#7a923c"/><path d="M1515.44336,622.67871a9.9197,9.9197,0,0,1,1.19043-4.67529,8.17574,8.17574,0,0,1,3.373-3.4502,10.00655,10.00655,0,0,1,4.873-1.18994,9.14856,9.14856,0,0,1,6.81446,2.69971,9.32967,9.32967,0,0,1,2.65625,6.82275,9.44,9.44,0,0,1-2.68262,6.8916,9.06413,9.06413,0,0,1-6.75391,2.73438,10.633,10.633,0,0,1-4.80371-1.13867,7.80905,7.80905,0,0,1-3.47656-3.33789A11.12877,11.12877,0,0,1,1515.44336,622.67871Zm4.96875.25879a6.06635,6.06635,0,0,0,1.29394,4.1748,4.22985,4.22985,0,0,0,6.374,0,6.1558,6.1558,0,0,0,1.28515-4.20947,6.0423,6.0423,0,0,0-1.28515-4.14013,4.22893,4.22893,0,0,0-6.374,0A6.06637,6.06637,0,0,0,1520.41211,622.9375Z" transform="translate(-1261 -353.70178)" style="fill:#7a923c"/><path d="M1541.76855,619.36621l-4.39843-.79346a6.84727,6.84727,0,0,1,2.55273-3.9331,9.3437,9.3437,0,0,1,5.38184-1.27637,11.60651,11.60651,0,0,1,4.83105.76758,4.81557,4.81557,0,0,1,2.2334,1.94922,9.98971,9.98971,0,0,1,.64746,4.33887l-.05176,5.6582a19.64482,19.64482,0,0,0,.23243,3.562,10.38237,10.38237,0,0,0,.87109,2.4585h-4.7959q-.189-.48267-.46582-1.43164-.12012-.4314-.17187-.56934a8.732,8.732,0,0,1-2.65723,1.811,7.60032,7.60032,0,0,1-3.01856.604,6.24138,6.24138,0,0,1-4.459-1.53516,5.10436,5.10436,0,0,1-1.63086-3.88183,5.20349,5.20349,0,0,1,.74219-2.76856,4.842,4.842,0,0,1,2.0791-1.86328,16.244,16.244,0,0,1,3.85547-1.12988,26.36674,26.36674,0,0,0,4.709-1.19043v-.48291a2.514,2.514,0,0,0-.68945-1.99268,4.14152,4.14152,0,0,0-2.60547-.59472,3.47033,3.47033,0,0,0-2.01855.50878A3.54039,3.54039,0,0,0,1541.76855,619.36621Zm6.48633,3.93359a30.32481,30.32481,0,0,1-2.95019.7417,8.89547,8.89547,0,0,0-2.63867.84522,2.02217,2.02217,0,0,0-.94922,1.708,2.37656,2.37656,0,0,0,.75879,1.75927,2.652,2.652,0,0,0,1.93261.74219,4.195,4.195,0,0,0,2.501-.86279,3.03746,3.03746,0,0,0,1.15625-1.60449,9.6028,9.6028,0,0,0,.18945-2.36328Z" transform="translate(-1261 -353.70178)" style="fill:#7a923c"/><path d="M1562.43555,632.09766h-4.84766V613.77734h4.50293v2.6045a7.81744,7.81744,0,0,1,2.07813-2.43213,3.82492,3.82492,0,0,1,2.09667-.58643,6.15742,6.15742,0,0,1,3.19141.91406l-1.501,4.22657a4.25909,4.25909,0,0,0-2.27734-.79346,2.69322,2.69322,0,0,0-1.72559.56055,3.83564,3.83564,0,0,0-1.1123,2.02685,28.78434,28.78434,0,0,0-.40527,6.1416Z" transform="translate(-1261 -353.70178)" style="fill:#7a923c"/><path d="M1588.34668,632.09766h-4.50293v-2.69092a7.27939,7.27939,0,0,1-2.64746,2.3374,6.806,6.806,0,0,1-3.08008.76758,6.97856,6.97856,0,0,1-5.4082-2.54443,10.35477,10.35477,0,0,1-2.251-7.09913q0-4.65747,2.19141-7.08154a7.14177,7.14177,0,0,1,5.53711-2.42334,6.86085,6.86085,0,0,1,5.31347,2.55274v-9.1084h4.84766Zm-12.93848-9.55713a8.39193,8.39193,0,0,0,.81055,4.24365,3.66346,3.66346,0,0,0,3.27832,1.898,3.5675,3.5675,0,0,0,2.8457-1.42334,6.56745,6.56745,0,0,0,1.17383-4.25244,7.1903,7.1903,0,0,0-1.13867-4.54541,3.605,3.605,0,0,0-2.916-1.38867,3.64226,3.64226,0,0,0-2.88964,1.37109A6.19729,6.19729,0,0,0,1575.4082,622.54053Z" transform="translate(-1261 -353.70178)" style="fill:#7a923c"/><path d="M1595.02246,625.57666l-1.25879-12.83447v-5.93457h5.24414v5.93457l-1.24219,12.83447Zm-1.05176,6.521V627.25h4.84668v4.84766Z" transform="translate(-1261 -353.70178)" style="fill:#7a923c"/><path d="M1401.82031,674.49365v-25.29h5.10645v11.23047l10.3164-11.23047h6.86524l-9.52246,9.85059,10.04,15.43945h-6.60743l-6.95214-11.86865-4.13965,4.22656v7.64209Z" transform="translate(-1261 -353.70178)" style="fill:#7a923c"/><path d="M1437.83984,668.6626l4.83106.811a7.9239,7.9239,0,0,1-2.94141,4.04541,8.6427,8.6427,0,0,1-5.02929,1.38867q-4.77832,0-7.07227-3.12255a10.48641,10.48641,0,0,1-1.81152-6.314,10.11755,10.11755,0,0,1,2.38086-7.1333,7.84127,7.84127,0,0,1,6.0205-2.57861,8.13389,8.13389,0,0,1,6.45215,2.6997q2.3628,2.69971,2.25977,8.27149h-12.14551a4.90521,4.90521,0,0,0,1.17383,3.35547,3.66586,3.66586,0,0,0,2.79394,1.19922,2.96712,2.96712,0,0,0,1.915-.6211A3.83546,3.83546,0,0,0,1437.83984,668.6626Zm.27637-4.89893a4.664,4.664,0,0,0-1.08691-3.20019,3.49828,3.49828,0,0,0-5.14063.06054,4.46918,4.46918,0,0,0-1.01758,3.13965Z" transform="translate(-1261 -353.70178)" style="fill:#7a923c"/><path d="M1457.48926,668.6626l4.83008.811a7.924,7.924,0,0,1-2.94141,4.04541,8.63952,8.63952,0,0,1-5.02832,1.38867q-4.77832,0-7.07324-3.12255a10.49307,10.49307,0,0,1-1.81153-6.314,10.1176,10.1176,0,0,1,2.38086-7.1333,7.84129,7.84129,0,0,1,6.02051-2.57861,8.13389,8.13389,0,0,1,6.45215,2.6997q2.36279,2.69971,2.25976,8.27149h-12.14453a4.90481,4.90481,0,0,0,1.17286,3.35547,3.66938,3.66938,0,0,0,2.79492,1.19922,2.969,2.969,0,0,0,1.915-.6211A3.83559,3.83559,0,0,0,1457.48926,668.6626Zm.27636-4.89893a4.6735,4.6735,0,0,0-1.08691-3.20019,3.49827,3.49827,0,0,0-5.14062.06054,4.46952,4.46952,0,0,0-1.01856,3.13965Z" transform="translate(-1261 -353.70178)" style="fill:#7a923c"/><path d="M1466.39062,656.17334h4.51954v2.69092a6.7746,6.7746,0,0,1,2.38086-2.24268,6.56678,6.56678,0,0,1,3.33007-.8623,6.98549,6.98549,0,0,1,5.416,2.501,10.12227,10.12227,0,0,1,2.22559,6.96973q0,4.58862-2.24219,7.1333a6.98772,6.98772,0,0,1-5.43457,2.54443,6.16582,6.16582,0,0,1-2.751-.604,9.26657,9.26657,0,0,1-2.59668-2.06982v9.229h-4.84766Zm4.7959,8.84961a7.05853,7.05853,0,0,0,1.22461,4.563,3.74732,3.74732,0,0,0,2.98438,1.47461,3.50436,3.50436,0,0,0,2.8125-1.354,6.98045,6.98045,0,0,0,1.12109-4.44238,6.62042,6.62042,0,0,0-1.15625-4.27783,3.57433,3.57433,0,0,0-2.86328-1.39746,3.7193,3.7193,0,0,0-2.95019,1.37158A6.10305,6.10305,0,0,0,1471.18652,665.023Z" transform="translate(-1261 -353.70178)" style="fill:#7a923c"/><path d="M1497.92578,674.49365v-25.29h4.84668v25.29Z" transform="translate(-1261 -353.70178)" style="fill:#7a923c"/><path d="M1506.62012,665.07471a9.90823,9.90823,0,0,1,1.19043-4.6753,8.16794,8.16794,0,0,1,3.37207-3.45019,10.01025,10.01025,0,0,1,4.874-1.18994,9.14486,9.14486,0,0,1,6.81348,2.6997,9.32652,9.32652,0,0,1,2.65722,6.82276,9.44,9.44,0,0,1-2.68261,6.8916,9.06721,9.06721,0,0,1-6.75391,2.73437,10.63394,10.63394,0,0,1-4.80469-1.13867,7.80678,7.80678,0,0,1-3.47558-3.33789A11.11747,11.11747,0,0,1,1506.62012,665.07471Zm4.96777.25879a6.07119,6.07119,0,0,0,1.29395,4.1748,4.22986,4.22986,0,0,0,6.374,0,6.15086,6.15086,0,0,0,1.28516-4.20947,6.03741,6.03741,0,0,0-1.28516-4.14014,4.22892,4.22892,0,0,0-6.374,0A6.0712,6.0712,0,0,0,1511.58789,665.3335Z" transform="translate(-1261 -353.70178)" style="fill:#7a923c"/><path d="M1528.20117,665.07471a9.90835,9.90835,0,0,1,1.19043-4.6753,8.16794,8.16794,0,0,1,3.37207-3.45019,10.01026,10.01026,0,0,1,4.874-1.18994,9.14484,9.14484,0,0,1,6.81347,2.6997,9.32649,9.32649,0,0,1,2.65723,6.82276,9.43993,9.43993,0,0,1-2.68262,6.8916,9.06719,9.06719,0,0,1-6.7539,2.73437,10.63391,10.63391,0,0,1-4.80469-1.13867,7.80675,7.80675,0,0,1-3.47559-3.33789A11.11759,11.11759,0,0,1,1528.20117,665.07471Zm4.96778.25879a6.07124,6.07124,0,0,0,1.29394,4.1748,4.22986,4.22986,0,0,0,6.374,0,6.15081,6.15081,0,0,0,1.28516-4.20947,6.03736,6.03736,0,0,0-1.28516-4.14014,4.22892,4.22892,0,0,0-6.374,0A6.07125,6.07125,0,0,0,1533.169,665.3335Z" transform="translate(-1261 -353.70178)" style="fill:#7a923c"/><path d="M1550.73047,674.49365v-25.29h4.84765V662.625l5.67579-6.45166h5.96875l-6.26172,6.69336,6.71,11.62695h-5.22656l-4.60645-8.22851-2.25977,2.36328v5.86523Z" transform="translate(-1261 -353.70178)" style="fill:#7a923c"/><path d="M1570.55273,653.689v-4.48535h4.84668V653.689Zm0,20.80469V656.17334h4.84668v18.32031Z" transform="translate(-1261 -353.70178)" style="fill:#7a923c"/><path d="M1597.03223,674.49365h-4.84766v-9.3501a14.4519,14.4519,0,0,0-.31055-3.83837,2.69074,2.69074,0,0,0-1.00879-1.354,2.88652,2.88652,0,0,0-1.68261-.48291,3.88844,3.88844,0,0,0-2.25977.68994,3.4742,3.4742,0,0,0-1.37109,1.82862,15.76717,15.76717,0,0,0-.3711,4.209v8.29785H1580.333V656.17334h4.50293v2.69092a7.50935,7.50935,0,0,1,8.9707-2.52735,4.92824,4.92824,0,0,1,2.00977,1.4751,5.35069,5.35069,0,0,1,.94824,2.03565,15.10631,15.10631,0,0,1,.26758,3.26025Z" transform="translate(-1261 -353.70178)" style="fill:#7a923c"/><path d="M1601.5,675.70117l5.53809.67285a1.89051,1.89051,0,0,0,.63769,1.32813,3.64313,3.64313,0,0,0,2.17383.51758,5.6436,5.6436,0,0,0,2.84668-.56934,2.34947,2.34947,0,0,0,.96582-1.22461,7.363,7.363,0,0,0,.22461-2.22558v-2.67383a6.55972,6.55972,0,0,1-5.48633,2.96728,6.75194,6.75194,0,0,1-5.84766-3.12256,10.60609,10.60609,0,0,1-1.69043-6.14111q0-4.6062,2.2168-7.03857a7.15181,7.15181,0,0,1,5.51172-2.43213,6.7119,6.7119,0,0,1,5.60645,2.98437v-2.57031h4.53711v16.43994a16.38273,16.38273,0,0,1-.53516,4.84766,6.01365,6.01365,0,0,1-1.501,2.51855,6.64269,6.64269,0,0,1-2.5791,1.43164,13.571,13.571,0,0,1-4.08008.51758q-4.65674,0-6.60644-1.5957a5.00544,5.00544,0,0,1-1.94922-4.04541C1601.4834,676.12646,1601.48828,675.93115,1601.5,675.70117Zm4.33008-10.74707a6.60927,6.60927,0,0,0,1.12988,4.26953,3.49365,3.49365,0,0,0,2.78613,1.354,3.85319,3.85319,0,0,0,3.002-1.38868,6.05307,6.05307,0,0,0,1.22461-4.11425,6.4155,6.4155,0,0,0-1.17286-4.22657,3.72876,3.72876,0,0,0-2.96777-1.37988,3.578,3.578,0,0,0-2.87207,1.354A6.35352,6.35352,0,0,0,1605.83008,664.9541Z" transform="translate(-1261 -353.70178)" style="fill:#7a923c"/><path d="M1482.80734,549.71779l-1.02636,1.33911Q1482.30868,550.397,1482.80734,549.71779Z" transform="translate(-1261 -353.70178)" style="fill:#02263c"/><path d="M1500.85178,526.17751l-.0669.08716c.043-.02808.083-.0603.12622-.08789Z" transform="translate(-1261 -353.70178)" style="fill:#02263c"/><path d="M1364.43066,394.62012a12.39877,12.39877,0,0,0-5.1123-1.50977,12.11593,12.11593,0,0,0-5.30713.877,10.10723,10.10723,0,0,0-4.0415,3.35938,9.02174,9.02174,0,0,0-1.31446,5.84277,8.13834,8.13834,0,0,0,2.04493,5.06348,8.0172,8.0172,0,0,0,4.28466,2.43457,6.59478,6.59478,0,0,0,4.62549-.7793,7.89942,7.89942,0,0,0,3.35986-4.72265l-4.52832.09765.7793-5.502,11.53955-.09766a12.3423,12.3423,0,0,1,.53516,4.57715,19.71625,19.71625,0,0,1-.63281,4.57617,15.72637,15.72637,0,0,1-6.08643,8.52149,17.829,17.829,0,0,1-9.34814,3.165,15.58989,15.58989,0,0,1-4.89356-.585,18.37364,18.37364,0,0,1-4.74707-2.14258q-4.57764-2.87109-6.76807-9.44531a17.17357,17.17357,0,0,1,.04883-11.88086,21.17772,21.17772,0,0,1,2.72656-5.13672,20.29319,20.29319,0,0,1,3.895-4.0166,19.34426,19.34426,0,0,1,10.32227-4.041,15.37664,15.37664,0,0,1,11.00391,3.26172Z" transform="translate(-1261 -353.70178)" style="fill:#d86600"/><path d="M1374.21729,383.22656l13.97412.92481-.68164,35.98242-12.36768.38965Z" transform="translate(-1261 -353.70178)" style="fill:#d86600"/><path d="M1389.99219,383.22656l25.416,1.168.04883,10.41992-14.16894-.97363.48681,4.43066,6.8169-.04882.77881,8.91015-6.71924-.38867,1.12011,13.7793-11.53955-.97461Z" transform="translate(-1261 -353.70178)" style="fill:#d86600"/><path d="M1418.13477,385.125l33.54736-1.89844.58447,16.84668-12.80566-.68164,3.84668,21.13184-16.45752-1.75293,2.82422-18.98926-11.83155.34082Z" transform="translate(-1261 -353.70178)" style="fill:#d86600"/><path d="M1458.54688,405.86719a32.8392,32.8392,0,0,0,4.86914,1.65527,20.25312,20.25312,0,0,0,4.33349.73047q1.8003.09814,2.14209-.48633.438-.58447-1.65527-1.99707-2.24047-1.55712-4.38233-3.2373-2.14307-1.68018-4.23584-3.57911a9.21028,9.21028,0,0,1-3.06738-9.00781q1.02246-5.30566,5.11231-6.23242a18.04156,18.04156,0,0,1,8.959.34082,38.44322,38.44322,0,0,1,9.251,3.89551,29.12718,29.12718,0,0,1,6.13476,4.38183l-4.57666,7.10938a6.92421,6.92421,0,0,0-1.41211-1.04688q-.876-.51123-2.14209-1.14453a26.1915,26.1915,0,0,0-4.43115-1.65527q-1.89843-.438-2.23975.19434-.2915.58446,3.01905,3.31152a78.74172,78.74172,0,0,0,7.06006,5.16113q2.48291,1.55859,3.2622,6.08594a6.33047,6.33047,0,0,1-2.4834,6.57324,17.83914,17.83914,0,0,1-7.98486,3.21387,31.17052,31.17052,0,0,1-10.12744,0,21.18619,21.18619,0,0,1-8.813-3.165Z" transform="translate(-1261 -353.70178)" style="fill:#d86600"/><path d="M1515.26953,385.125l33.54736-1.89844.58448,16.84668-12.80567-.68164,3.84668,21.13184-16.45752-1.75293,2.82422-18.98926-11.83154.34082Z" transform="translate(-1261 -353.70178)" style="fill:#d86600"/><path d="M1552.27344,384.73633l11.34472-.68262v12.5625l8.32569-.14648V383.957l12.95166-.73047-1.7041,35.00782-11.24756,1.2666V406.208l-8.32569.19531v13.14551l-9.83545.97461Z" transform="translate(-1261 -353.70178)" style="fill:#d86600"/><path d="M1614.1582,383.22656l11.39356,33.10938-12.0752,4.1875-2.38574-7.30371h-9.34863l-2.19092,7.15722-11.88037-5.55078,12.12353-30.6748Zm-3.99267,22.34864-3.5542-8.61817-3.65186,8.47168Z" transform="translate(-1261 -353.70178)" style="fill:#d86600"/><path d="M1628.8623,385.125l33.54737-1.89844.58447,16.84668-12.80566-.68164,3.84668,21.13184-16.45752-1.75293,2.82422-18.98926-11.83155.34082Z" transform="translate(-1261 -353.70178)" style="fill:#d86600"/><path d="M1326.35547,442.62793l3.65185,16.84668,3.7002-11.832,6.37842-.09668,2.58056,11.05273,3.457-15.0459,14.89941-1.21679-10.71191,35.2998-9.93262,1.31543-3.94434-12.709-3.79736,13.09765-9.98145-1.60644-10.71191-36.0791Z" transform="translate(-1261 -353.70178)" style="fill:#d86600"/><path d="M1390.8208,441.6543l.29248,10.5166-13.6333-.19434.09717,3.89551,6.96289-.38965.04883,6.42676h-6.33008l.146,4.47949,13.14648-.77929.146,12.61132-25.02637.73047-2.09375-37.248Z" transform="translate(-1261 -353.70178)" style="fill:#d86600"/><path d="M1407.47217,477.92871l-11.53955-1.46094-1.75293-34.375a41.10781,41.10781,0,0,1,8.27734-.38965q2.43384.09814,4.74707.36524,2.31227.26807,4.6499.70605a39.07675,39.07675,0,0,1,8.18018,2.62891q3.65112,1.80175,4.62549,4.1875a6.8499,6.8499,0,0,1-.73047,6.52441,19.55743,19.55743,0,0,1-5.502,5.45313l13.6333,8.56934-11.73438,8.81347-10.95508-14.36426-2.43457-.04882Zm-1.21729-21.22949a11.03607,11.03607,0,0,0,4.96631-1.84961,4.73618,4.73618,0,0,0,2.14209-2.92188,2.73778,2.73778,0,0,0-1.46045-2.72656q-1.656-1.21581-5.7456-1.36328Z" transform="translate(-1261 -353.70178)" style="fill:#d86600"/><path d="M1461.32275,441.6543l.29248,10.5166-13.6333-.19434.09717,3.89551,6.96289-.38965.04883,6.42676h-6.33008l.146,4.47949,13.14648-.77929.146,12.61132-25.02637.73047-2.09375-37.248Z" transform="translate(-1261 -353.70178)" style="fill:#d86600"/><path d="M1491.02246,443.16406l11.34473-.68261V455.044l8.32568-.14649V442.38477l12.95166-.73047-1.7041,35.00781-11.24756,1.2666v-13.293l-8.32568.19531v13.14551l-9.83545.97461Z" transform="translate(-1261 -353.70178)" style="fill:#d86600"/><path d="M1526.41992,441.6543l13.97412.9248-.68164,35.98242-12.36767.38965Z" transform="translate(-1261 -353.70178)" style="fill:#d86600"/><path d="M1542.19482,443.69922q7.20484-2.48291,17.1875-1.7041a26.09076,26.09076,0,0,1,17.3335,8.27734,11.82481,11.82481,0,0,1,3.11621,6.13477,16.5214,16.5214,0,0,1,.21924,3.48144,14.0162,14.0162,0,0,1-.60889,3.53028,20.23,20.23,0,0,1-3.70019,6.71875,18.82353,18.82353,0,0,1-6.67041,4.96679,43.39158,43.39158,0,0,1-12.31885,3.40821,36.36069,36.36069,0,0,1-12.0752-.04883Zm15.77539,19.96289a7.20881,7.20881,0,0,0,3.06739-.53516,11.17,11.17,0,0,0,3.06738-1.85058,6.40152,6.40152,0,0,0,1.85059-2.72657,3.20635,3.20635,0,0,0-.53565-3.11621q-1.07153-1.46044-4.13867-1.85058a17.545,17.545,0,0,0-4.57715-.14551Z" transform="translate(-1261 -353.70178)" style="fill:#d86600"/><path d="M1583.4834,443.69922q7.20483-2.48291,17.1875-1.7041a26.09076,26.09076,0,0,1,17.33349,8.27734,11.82482,11.82482,0,0,1,3.11622,6.13477,16.52207,16.52207,0,0,1,.21923,3.48144,14.01618,14.01618,0,0,1-.60888,3.53028,20.22986,20.22986,0,0,1-3.7002,6.71875,18.82344,18.82344,0,0,1-6.67041,4.96679,43.39149,43.39149,0,0,1-12.31885,3.40821,36.36063,36.36063,0,0,1-12.07519-.04883Zm15.77539,19.96289a7.20874,7.20874,0,0,0,3.06738-.53516,11.17,11.17,0,0,0,3.06738-1.85058,6.40152,6.40152,0,0,0,1.85059-2.72657,3.20637,3.20637,0,0,0-.53564-3.11621q-1.07154-1.46044-4.13868-1.85058a17.545,17.545,0,0,0-4.57714-.14551Z" transform="translate(-1261 -353.70178)" style="fill:#d86600"/><path d="M1651.01611,441.6543l.29248,10.5166-13.6333-.19434.09717,3.89551,6.96289-.38965.04883,6.42676h-6.33008l.146,4.47949,13.14648-.77929.146,12.61132-25.02637.73047-2.09375-37.248Z" transform="translate(-1261 -353.70178)" style="fill:#d86600"/><path d="M1657.44238,441.6543l11.68555.97363,9.5918,17.042-1.65528-16.21387h11.14991l.73046,32.13477-13.00048,3.36035-9.5918-19.2334-.82764,17.72364-11.1499-2.62891,3.06738-32.52539Z" transform="translate(-1261 -353.70178)" style="fill:#d86600"/><path d="M1358.417,500.03418l1.55811,28.0459,12.41552-1.7041.29249,9.34765-24.29639,1.65625-3.94385-36.90722Z" transform="translate(-1261 -353.70178)" style="fill:#d86600"/><path d="M1401.65332,500.083l11.39356,33.10937-12.0752,4.1875-2.38574-7.30371h-9.34864l-2.19091,7.15723-11.88037-5.55078,12.12353-30.67481Zm-3.99268,22.34863-3.55419-8.61816-3.65186,8.47168Z" transform="translate(-1261 -353.70178)" style="fill:#d86600"/><path d="M1419.47363,522.72363a32.83959,32.83959,0,0,0,4.86914,1.65528,20.25383,20.25383,0,0,0,4.3335.73047q1.80029.09813,2.14209-.48633.438-.58448-1.65527-1.99707-2.24049-1.55714-4.38233-3.23731-2.14307-1.68018-4.23584-3.5791a9.21029,9.21029,0,0,1-3.06738-9.00781q1.02246-5.30566,5.1123-6.23242a18.0416,18.0416,0,0,1,8.959.34082,38.44351,38.44351,0,0,1,9.251,3.8955,29.127,29.127,0,0,1,6.13477,4.38184l-4.57666,7.10938a6.92375,6.92375,0,0,0-1.41211-1.04688q-.876-.51123-2.14209-1.14453a26.1915,26.1915,0,0,0-4.43115-1.65527q-1.89845-.438-2.23975.19433-.29149.58447,3.019,3.31152a78.74186,78.74186,0,0,0,7.06005,5.16114q2.48292,1.55859,3.26221,6.08594a6.33048,6.33048,0,0,1-2.4834,6.57324,17.83907,17.83907,0,0,1-7.98486,3.21386,31.17052,31.17052,0,0,1-10.12744,0,21.18618,21.18618,0,0,1-8.813-3.165Z" transform="translate(-1261 -353.70178)" style="fill:#d86600"/><path d="M1449.85547,501.98145l33.54736-1.89844.58447,16.84668-12.80566-.68164,3.84668,21.13183L1458.5708,535.627l2.82422-18.98925-11.83154.34082Z" transform="translate(-1261 -353.70178)" style="fill:#d86600"/><path d="M1513.2002,510.74609l8.32568-6.33007,6.81689,9.05664,5.4043-13.38965,11.39355,1.89844-18.8916,35.39843-8.37451-6.08691,6.86524-11.14942Z" transform="translate(-1261 -353.70178)" style="fill:#d86600"/><path d="M1574.11084,500.083l.29248,10.5166-13.6333-.19434.09717,3.89551,6.96289-.38965.04883,6.42676h-6.33008l.146,4.47949,13.14649-.77929.146,12.61132-25.02636.73047-2.09375-37.248Z" transform="translate(-1261 -353.70178)" style="fill:#d86600"/><path d="M1603.95752,500.083l11.39355,33.10937-12.07519,4.1875-2.38574-7.30371h-9.34864l-2.19091,7.15723-11.88038-5.55078,12.12354-30.67481Zm-3.99268,22.34863-3.5542-8.61816-3.65185,8.47168Z" transform="translate(-1261 -353.70178)" style="fill:#d86600"/><path d="M1631.66162,536.35742l-11.53955-1.46094-1.75293-34.375a41.10788,41.10788,0,0,1,8.27734-.38964q2.43384.09814,4.74707.36523,2.31227.26806,4.64991.70606a39.07685,39.07685,0,0,1,8.18017,2.6289q3.65112,1.80176,4.62549,4.1875a6.8499,6.8499,0,0,1-.73047,6.52442,19.55739,19.55739,0,0,1-5.50195,5.45312l13.6333,8.56934-11.73438,8.81347-10.95507-14.36425-2.43457-.04883Zm-1.21728-21.22949a11.036,11.036,0,0,0,4.9663-1.84961,4.73615,4.73615,0,0,0,2.14209-2.92187,2.73778,2.73778,0,0,0-1.46044-2.72657q-1.656-1.21581-5.74561-1.36328Z" transform="translate(-1261 -353.70178)" style="fill:#d86600"/></svg>