<svg id="4e1d48c6-346f-4af0-bdca-02e6bf9e9069" data-name="ПЕРЕВОД_не фанерные объекты_клик" xmlns="http://www.w3.org/2000/svg" viewBox="0 0 403.33333 410.10999"><title>sveza_ny_game-curves-узкая версия-eng-с украшенной желтой стеной</title><rect x="8.38584" y="4.82024" width="394.94749" height="405.28975" rx="12" ry="12" style="fill:#3a301f"/><rect width="394.94749" height="405.28975" rx="12" ry="12" style="fill:#fff"/><path d="M4171.81445,1734.87793h-5.55468l-2.207-5.74414h-10.10937l-2.08789,5.74414h-5.416l9.84961-25.29h5.40039Zm-9.40039-10.00488-3.48535-9.38477-3.415,9.38477Z" transform="translate(-4105 -1594.0918)" style="fill:#7a923c"/><path d="M4174.48926,1734.87793v-25.29h4.84668v25.29Z" transform="translate(-4105 -1594.0918)" style="fill:#7a923c"/><path d="M4184.30469,1734.87793v-25.29h4.84765v25.29Z" transform="translate(-4105 -1594.0918)" style="fill:#7a923c"/><path d="M4203.9375,1714.07324v-4.48535h4.84668v4.48535Zm0,20.80469v-18.32031h4.84668v18.32031Z" transform="translate(-4105 -1594.0918)" style="fill:#7a923c"/><path d="M4212.04492,1729.65137l4.86524-.74219a3.55968,3.55968,0,0,0,1.25879,2.14746,4.25256,4.25256,0,0,0,2.65722.7334,4.79518,4.79518,0,0,0,2.82813-.68945,1.54109,1.54109,0,0,0,.63867-1.29395,1.27744,1.27744,0,0,0-.34473-.915,3.86753,3.86753,0,0,0-1.62207-.63769q-5.86523-1.29346-7.43555-2.36329a4.72118,4.72118,0,0,1-2.17285-4.123,5.07947,5.07947,0,0,1,1.87989-4.002q1.88085-1.62157,5.831-1.62207a10.17187,10.17187,0,0,1,5.58887,1.22461,6.27021,6.27021,0,0,1,2.51953,3.623l-4.57227.8457a2.82692,2.82692,0,0,0-1.1123-1.63964,4.07137,4.07137,0,0,0-2.33692-.56934,5.27165,5.27165,0,0,0-2.74414.53516,1.14929,1.14929,0,0,0-.55078.98339,1.0702,1.0702,0,0,0,.48242.87989,18.16265,18.16265,0,0,0,4.52833,1.3623,13.49184,13.49184,0,0,1,5.4082,2.15625,4.48421,4.48421,0,0,1,1.51855,3.60547,5.53269,5.53269,0,0,1-2.10547,4.33008q-2.10351,1.812-6.22656,1.81152a10.21908,10.21908,0,0,1-5.92578-1.51758A6.99255,6.99255,0,0,1,4212.04492,1729.65137Z" transform="translate(-4105 -1594.0918)" style="fill:#7a923c"/><path d="M4259.88184,1734.87793h-4.84668v-9.34961a14.454,14.454,0,0,0-.31055-3.83887,2.69113,2.69113,0,0,0-1.00977-1.35351,2.88222,2.88222,0,0,0-1.68164-.4834,3.88448,3.88448,0,0,0-2.25976.69043,3.47167,3.47167,0,0,0-1.37207,1.82812,15.82147,15.82147,0,0,0-.37012,4.209v8.29785h-4.84766v-18.32031h4.502v2.6914a7.50718,7.50718,0,0,1,8.9707-2.52734,4.93169,4.93169,0,0,1,2.00977,1.47461,5.369,5.369,0,0,1,.94921,2.03613,15.1787,15.1787,0,0,1,.26661,3.25977Z" transform="translate(-4105 -1594.0918)" style="fill:#7a923c"/><path d="M4263.67773,1725.459a9.91809,9.91809,0,0,1,1.18946-4.6748,8.173,8.173,0,0,1,3.373-3.4502,10.00419,10.00419,0,0,1,4.873-1.19043,9.14893,9.14893,0,0,1,6.81445,2.7002,9.32537,9.32537,0,0,1,2.65625,6.82227,9.44234,9.44234,0,0,1-2.68164,6.8916,9.06719,9.06719,0,0,1-6.7539,2.73437,10.62758,10.62758,0,0,1-4.80469-1.13867,7.81134,7.81134,0,0,1-3.47656-3.33789A11.12745,11.12745,0,0,1,4263.67773,1725.459Zm4.96778.25879a6.06553,6.06553,0,0,0,1.29394,4.17481,4.22893,4.22893,0,0,0,6.374,0,6.15445,6.15445,0,0,0,1.28515-4.209,6.04366,6.04366,0,0,0-1.28515-4.14062,4.22893,4.22893,0,0,0-6.374,0A6.06721,6.06721,0,0,0,4268.64551,1725.71777Z" transform="translate(-4105 -1594.0918)" style="fill:#7a923c"/><path d="M4294.78125,1716.55762v3.86426h-3.3125v7.38378a18.33123,18.33123,0,0,0,.09473,2.61329,1.06856,1.06856,0,0,0,.43066.6123,1.36989,1.36989,0,0,0,.82031.24121,6.27458,6.27458,0,0,0,1.94922-.46582l.41406,3.76074a9.63194,9.63194,0,0,1-3.83007.72461,6.078,6.078,0,0,1-2.36328-.43945,3.45788,3.45788,0,0,1-1.544-1.13867,4.49685,4.49685,0,0,1-.68066-1.88867,23.44883,23.44883,0,0,1-.15625-3.416v-7.9873h-2.22461v-3.86426h2.22461V1712.918l4.86523-2.8291v6.46875Z" transform="translate(-4105 -1594.0918)" style="fill:#7a923c"/><path d="M4307.82227,1716.55762h4.51953v2.6914a6.78409,6.78409,0,0,1,2.38086-2.24316,6.57416,6.57416,0,0,1,3.33007-.86231,6.98407,6.98407,0,0,1,5.416,2.501,10.12258,10.12258,0,0,1,2.22656,6.96973q0,4.58935-2.24316,7.13379a6.98723,6.98723,0,0,1-5.43457,2.54394,6.17221,6.17221,0,0,1-2.751-.60351,9.26963,9.26963,0,0,1-2.59668-2.07032v9.2295h-4.84765Zm4.79687,8.84961a7.05421,7.05421,0,0,0,1.22461,4.56347,3.74738,3.74738,0,0,0,2.98437,1.47461,3.50024,3.50024,0,0,0,2.81153-1.35449,6.97857,6.97857,0,0,0,1.12109-4.44238,6.625,6.625,0,0,0-1.15527-4.27735,3.57753,3.57753,0,0,0-2.86426-1.39746,3.72031,3.72031,0,0,0-2.95019,1.3711A6.1084,6.1084,0,0,0,4312.61914,1725.40723Z" transform="translate(-4105 -1594.0918)" style="fill:#7a923c"/><path d="M4329.542,1734.87793v-25.29h4.84668v25.29Z" transform="translate(-4105 -1594.0918)" style="fill:#7a923c"/><path d="M4337.06348,1716.55762h5.15722l4.38282,13.00683,4.27734-13.00683h5.02051l-6.46973,17.63086-1.15527,3.1914a13.0591,13.0591,0,0,1-1.21582,2.44922,5.31557,5.31557,0,0,1-1.32813,1.3711,5.82128,5.82128,0,0,1-1.8457.82031,9.60509,9.60509,0,0,1-2.47656.293,12.84457,12.84457,0,0,1-2.74219-.293l-.43164-3.7959a10.74056,10.74056,0,0,0,2.05273.22461,3.04472,3.04472,0,0,0,2.502-.99219,6.90032,6.90032,0,0,0,1.24218-2.52734Z" transform="translate(-4105 -1594.0918)" style="fill:#7a923c"/><path d="M4362.42188,1734.87793l-5.7959-18.32031h4.71l3.43261,12.00683,3.15723-12.00683h4.67481l3.05371,12.00683,3.50195-12.00683h4.77734l-5.88183,18.32031h-4.65723l-3.1582-11.78223-3.10449,11.78223Z" transform="translate(-4105 -1594.0918)" style="fill:#7a923c"/><path d="M4385.36621,1725.459a9.91928,9.91928,0,0,1,1.19043-4.6748,8.16742,8.16742,0,0,1,3.37305-3.4502,9.99875,9.99875,0,0,1,4.873-1.19043,9.149,9.149,0,0,1,6.81446,2.7002,9.32928,9.32928,0,0,1,2.65625,6.82227,9.43916,9.43916,0,0,1-2.68262,6.8916,9.06568,9.06568,0,0,1-6.75391,2.73437,10.62654,10.62654,0,0,1-4.80371-1.13867,7.80151,7.80151,0,0,1-3.47656-3.33789A11.1274,11.1274,0,0,1,4385.36621,1725.459Zm4.96777.25879a6.06568,6.06568,0,0,0,1.29493,4.17481,4.22784,4.22784,0,0,0,6.373,0,6.14945,6.14945,0,0,0,1.28516-4.209,6.03871,6.03871,0,0,0-1.28516-4.14062,4.22784,4.22784,0,0,0-6.373,0A6.06737,6.06737,0,0,0,4390.334,1725.71777Z" transform="translate(-4105 -1594.0918)" style="fill:#7a923c"/><path d="M4406.94727,1725.459a9.90777,9.90777,0,0,1,1.19043-4.6748,8.17077,8.17077,0,0,1,3.37207-3.4502,10.00791,10.00791,0,0,1,4.874-1.19043,9.14524,9.14524,0,0,1,6.81348,2.7002,9.32615,9.32615,0,0,1,2.65722,6.82227,9.43919,9.43919,0,0,1-2.68261,6.8916,9.0657,9.0657,0,0,1-6.75391,2.73437,10.62758,10.62758,0,0,1-4.80469-1.13867,7.80907,7.80907,0,0,1-3.47558-3.33789A11.11615,11.11615,0,0,1,4406.94727,1725.459Zm4.96875.25879a6.0702,6.0702,0,0,0,1.293,4.17481,4.23,4.23,0,0,0,6.375,0,6.1544,6.1544,0,0,0,1.28516-4.209,6.04362,6.04362,0,0,0-1.28516-4.14062,4.23,4.23,0,0,0-6.375,0A6.07189,6.07189,0,0,0,4411.916,1725.71777Z" transform="translate(-4105 -1594.0918)" style="fill:#7a923c"/><path d="M4446.45215,1734.87793h-4.50293v-2.69043a7.2823,7.2823,0,0,1-2.64746,2.33691,6.79578,6.79578,0,0,1-3.0791.76758,6.97519,6.97519,0,0,1-5.40821-2.54394,10.35073,10.35073,0,0,1-2.25195-7.09961q0-4.65674,2.19141-7.08106a7.14505,7.14505,0,0,1,5.53711-2.42383,6.86241,6.86241,0,0,1,5.31347,2.55274v-9.1084h4.84766Zm-12.93848-9.55664a8.38978,8.38978,0,0,0,.81055,4.24316,3.6639,3.6639,0,0,0,3.27832,1.89844,3.56978,3.56978,0,0,0,2.84668-1.42383,6.57181,6.57181,0,0,0,1.17285-4.252,7.1919,7.1919,0,0,0-1.13867-4.5459,3.60315,3.60315,0,0,0-2.915-1.38867,3.64556,3.64556,0,0,0-2.89063,1.37109A6.20423,6.20423,0,0,0,4433.51367,1725.32129Z" transform="translate(-4105 -1594.0918)" style="fill:#7a923c"/><path d="M4179.91406,1758.9541v3.86328h-3.31152v7.38379a18.331,18.331,0,0,0,.09473,2.61328,1.05542,1.05542,0,0,0,.43164.61231,1.36072,1.36072,0,0,0,.81933.24219,6.26874,6.26874,0,0,0,1.94922-.46583l.41406,3.76075a9.64761,9.64761,0,0,1-3.8291.72461,6.06536,6.06536,0,0,1-2.36426-.44043,3.44532,3.44532,0,0,1-1.54394-1.13867,4.4917,4.4917,0,0,1-.68164-1.88868,23.54526,23.54526,0,0,1-.1543-3.416v-7.98731h-2.22656v-3.86328h2.22656v-3.64062l4.86426-2.8291v6.46972Z" transform="translate(-4105 -1594.0918)" style="fill:#7a923c"/><path d="M4188.10938,1751.98438v9.29785a7.26362,7.26362,0,0,1,8.625-2.1211,4.93173,4.93173,0,0,1,2.02734,1.58692,5.785,5.785,0,0,1,.93164,2.13867,19.18592,19.18592,0,0,1,.25,3.63965v10.748h-4.84766v-9.67773a14.295,14.295,0,0,0-.27636-3.65723,2.40184,2.40184,0,0,0-.97461-1.2334,3.13642,3.13642,0,0,0-1.751-.457,4.02091,4.02091,0,0,0-2.15625.58594,3.38328,3.38328,0,0,0-1.38867,1.76856,10.57076,10.57076,0,0,0-.43945,3.49316v9.17773h-4.84766v-25.29Z" transform="translate(-4105 -1594.0918)" style="fill:#7a923c"/><path d="M4208.48242,1764.543l-4.39844-.79395a6.846,6.846,0,0,1,2.55274-3.93261,9.33772,9.33772,0,0,1,5.38183-1.27637,11.60656,11.60656,0,0,1,4.83106.76758,4.813,4.813,0,0,1,2.2334,1.94922,10.0033,10.0033,0,0,1,.64746,4.33886l-.05274,5.65821a19.61928,19.61928,0,0,0,.2334,3.56152,10.37837,10.37837,0,0,0,.8711,2.459h-4.7959q-.19042-.48339-.46582-1.43164c-.08106-.28808-.1377-.47754-.17285-.56933a8.73523,8.73523,0,0,1-2.65625,1.81054,7.59578,7.59578,0,0,1-3.01856.6045,6.24548,6.24548,0,0,1-4.46-1.53516,5.10771,5.10771,0,0,1-1.62988-3.88184,5.21167,5.21167,0,0,1,.74121-2.76855,4.83837,4.83837,0,0,1,2.08008-1.86328,16.221,16.221,0,0,1,3.85547-1.12988,26.41025,26.41025,0,0,0,4.709-1.19043v-.4834a2.51218,2.51218,0,0,0-.68945-1.99219,4.14151,4.14151,0,0,0-2.60547-.59473,3.46458,3.46458,0,0,0-2.01856.50879A3.53207,3.53207,0,0,0,4208.48242,1764.543Zm6.48633,3.93359a30.2172,30.2172,0,0,1-2.9502.74121,8.9011,8.9011,0,0,0-2.63964.84571,2.01993,2.01993,0,0,0-.94825,1.708,2.3755,2.3755,0,0,0,.75879,1.75879,2.64777,2.64777,0,0,0,1.93164.74219,4.195,4.195,0,0,0,2.502-.8623,3.04452,3.04452,0,0,0,1.15625-1.6045,9.60594,9.60594,0,0,0,.18945-2.36328Z" transform="translate(-4105 -1594.0918)" style="fill:#7a923c"/><path d="M4232.91016,1758.9541v3.86328h-3.3125v7.38379a18.33352,18.33352,0,0,0,.09472,2.61328,1.06248,1.06248,0,0,0,.43067.61231,1.36372,1.36372,0,0,0,.82031.24219,6.27472,6.27472,0,0,0,1.94922-.46583l.41406,3.76075a9.64912,9.64912,0,0,1-3.83008.72461,6.06039,6.06039,0,0,1-2.36328-.44043,3.45076,3.45076,0,0,1-1.54394-1.13867,4.49192,4.49192,0,0,1-.68067-1.88868,23.45015,23.45015,0,0,1-.15625-3.416v-7.98731h-2.22461v-3.86328h2.22461v-3.64062l4.86524-2.8291v6.46972Z" transform="translate(-4105 -1594.0918)" style="fill:#7a923c"/><path d="M4246.08984,1777.27441v-25.29h4.84766v25.29Z" transform="translate(-4105 -1594.0918)" style="fill:#7a923c"/><path d="M4254.78418,1767.85547a9.92015,9.92015,0,0,1,1.19043-4.67578,8.17294,8.17294,0,0,1,3.37305-3.4502,10.00884,10.00884,0,0,1,4.873-1.18945,9.1482,9.1482,0,0,1,6.81446,2.69922,9.33,9.33,0,0,1,2.65625,6.82324,9.44072,9.44072,0,0,1-2.68262,6.8916,9.06569,9.06569,0,0,1-6.75391,2.73438,10.63929,10.63929,0,0,1-4.80371-1.13868,7.80661,7.80661,0,0,1-3.47656-3.33789A11.13,11.13,0,0,1,4254.78418,1767.85547Zm4.96777.25879a6.06735,6.06735,0,0,0,1.29493,4.1748,4.22972,4.22972,0,0,0,6.373,0,6.15222,6.15222,0,0,0,1.28516-4.21,6.03607,6.03607,0,0,0-1.28516-4.13965,4.22784,4.22784,0,0,0-6.373,0A6.0657,6.0657,0,0,0,4259.752,1768.11426Z" transform="translate(-4105 -1594.0918)" style="fill:#7a923c"/><path d="M4276.36523,1767.85547a9.90876,9.90876,0,0,1,1.19043-4.67578,8.1764,8.1764,0,0,1,3.37207-3.4502,10.01807,10.01807,0,0,1,4.874-1.18945,9.14442,9.14442,0,0,1,6.81347,2.69922,9.32682,9.32682,0,0,1,2.65723,6.82324,9.44072,9.44072,0,0,1-2.68262,6.8916,9.06567,9.06567,0,0,1-6.7539,2.73438,10.64032,10.64032,0,0,1-4.80469-1.13868,7.81426,7.81426,0,0,1-3.47559-3.33789A11.1189,11.1189,0,0,1,4276.36523,1767.85547Zm4.96875.25879a6.07187,6.07187,0,0,0,1.293,4.1748,4.23188,4.23188,0,0,0,6.375,0,6.15712,6.15712,0,0,0,1.28516-4.21,6.04092,6.04092,0,0,0-1.28516-4.13965,4.23,4.23,0,0,0-6.375,0A6.07022,6.07022,0,0,0,4281.334,1768.11426Z" transform="translate(-4105 -1594.0918)" style="fill:#7a923c"/><path d="M4298.89453,1777.27441v-25.29h4.84766v13.42089l5.67578-6.45117h5.96875l-6.26172,6.69336,6.71094,11.627h-5.22754l-4.60645-8.22851-2.25976,2.36328v5.86523Z" transform="translate(-4105 -1594.0918)" style="fill:#7a923c"/><path d="M4317.00879,1772.04688l4.86426-.74122a3.5636,3.5636,0,0,0,1.25976,2.14746,4.25145,4.25145,0,0,0,2.65625.7334,4.79942,4.79942,0,0,0,2.83008-.69043,1.54023,1.54023,0,0,0,.6377-1.29394,1.27345,1.27345,0,0,0-.34473-.91406,3.88476,3.88476,0,0,0-1.62109-.63868q-5.86671-1.29345-7.43555-2.36328a4.71874,4.71874,0,0,1-2.17383-4.123,5.08042,5.08042,0,0,1,1.88086-4.002q1.87939-1.62158,5.83008-1.62109a10.17549,10.17549,0,0,1,5.58984,1.22461,6.25637,6.25637,0,0,1,2.51758,3.62207l-4.57031.8457a2.826,2.826,0,0,0-1.11328-1.63867,4.06936,4.06936,0,0,0-2.33789-.56934,5.26347,5.26347,0,0,0-2.74219.53516,1.14535,1.14535,0,0,0-.55274.98242,1.07,1.07,0,0,0,.4834.87989,18.17427,18.17427,0,0,0,4.52832,1.36328,13.47727,13.47727,0,0,1,5.40821,2.15625,4.48222,4.48222,0,0,1,1.51757,3.60547,5.535,5.535,0,0,1-2.10351,4.33007q-2.10645,1.81055-6.22852,1.81153a10.21582,10.21582,0,0,1-5.92578-1.51856A6.98819,6.98819,0,0,1,4317.00879,1772.04688Z" transform="translate(-4105 -1594.0918)" style="fill:#7a923c"/><path d="M4348.18164,1777.27441v-25.29h4.84766v25.29Z" transform="translate(-4105 -1594.0918)" style="fill:#7a923c"/><path d="M4357.99805,1756.46973v-4.48535h4.84668v4.48535Zm0,20.80468V1758.9541h4.84668v18.32031Z" transform="translate(-4105 -1594.0918)" style="fill:#7a923c"/><path d="M4367.64062,1777.27441v-25.29h4.84766v13.42089l5.67578-6.45117h5.96875l-6.26172,6.69336,6.71,11.627h-5.22753l-4.60547-8.22851-2.25977,2.36328v5.86523Z" transform="translate(-4105 -1594.0918)" style="fill:#7a923c"/><path d="M4398.07129,1771.44336l4.831.81055a7.92319,7.92319,0,0,1-2.9414,4.04589,8.64266,8.64266,0,0,1-5.0293,1.38868q-4.77833,0-7.07226-3.123a10.48418,10.48418,0,0,1-1.8125-6.31348,10.12338,10.12338,0,0,1,2.38085-7.13379,7.84294,7.84294,0,0,1,6.02149-2.57812,8.13283,8.13283,0,0,1,6.45117,2.69922q2.36426,2.6997,2.25977,8.27148h-12.14454a4.90345,4.90345,0,0,0,1.17383,3.35547,3.66583,3.66583,0,0,0,2.794,1.19922,2.969,2.969,0,0,0,1.915-.62109A3.836,3.836,0,0,0,4398.07129,1771.44336Zm.27637-4.89941a4.66878,4.66878,0,0,0-1.08692-3.2002,3.49929,3.49929,0,0,0-5.14062.06055,4.4703,4.4703,0,0,0-1.01856,3.13965Z" transform="translate(-4105 -1594.0918)" style="fill:#7a923c"/><path d="M4416.92773,1756.46973v-4.48535h4.84668v4.48535Zm0,20.80468V1758.9541h4.84668v18.32031Z" transform="translate(-4105 -1594.0918)" style="fill:#7a923c"/><path d="M4435.14453,1758.9541v3.86328h-3.3125v7.38379a18.331,18.331,0,0,0,.09473,2.61328,1.06246,1.06246,0,0,0,.43066.61231,1.36374,1.36374,0,0,0,.82031.24219,6.27466,6.27466,0,0,0,1.94922-.46583l.41407,3.76075a9.64915,9.64915,0,0,1-3.83008.72461,6.06035,6.06035,0,0,1-2.36328-.44043,3.45079,3.45079,0,0,1-1.544-1.13867,4.49178,4.49178,0,0,1-.68066-1.88868,23.44866,23.44866,0,0,1-.15625-3.416v-7.98731h-2.22461v-3.86328h2.22461v-3.64062l4.86523-2.8291v6.46972Z" transform="translate(-4105 -1594.0918)" style="fill:#7a923c"/><path d="M4169.33789,1639.61719q2.2002-.48925,4.419-.835,2.21923-.3457,4.541-.54981,4.64355-.36621,10.99707,2.24024,4.31544,1.83252,4.6836,5.498.40575,3.6255-3.09571,5.66114,5.53859.65185,7.98242,3.29882a7.539,7.539,0,0,1,2.11817,5.70118,8.7102,8.7102,0,0,1-2.8916,5.58007,11.68718,11.68718,0,0,1-7.29,2.97266q-2.64844.24464-5.00977.26465a43.80469,43.80469,0,0,1-4.52051-.18262q-2.15918-.20361-4.37793-.57031-2.22069-.36768-4.541-.9375Zm11.36328,9.57031q.85547-.08056,1.62891-.16309a8.202,8.202,0,0,0,1.46582-.28418q1.38427-.36766,1.50781-1.30371.16113-1.75048-2.11816-2.11816-1.14113-.20215-1.87305-.26465a4.00794,4.00794,0,0,0-1.09961.02051Zm1.751,12.626a21.203,21.203,0,0,1,3.50293-.24512q2.606-.12159,2.48437-2.28027-.123-2.48437-2.93261-2.68848-1.38429-.12159-2.28028-.1416a7.29269,7.29269,0,0,0-1.34472.06054Z" transform="translate(-4105 -1594.0918)" style="fill:#d86600"/><path d="M4225.94824,1638.23242l9.5293,27.69434-10.09961,3.50195-1.99609-6.1084h-7.81934l-1.833,5.98633-9.9375-4.64258,10.1416-25.6582Zm-3.33984,18.69336-2.97363-7.209-3.05372,7.08691Z" transform="translate(-4105 -1594.0918)" style="fill:#d86600"/><path d="M4249.69141,1638.19141l1.30273,23.459,10.38574-1.42578.24414,7.81934-20.32226,1.38476-3.29981-30.87012Z" transform="translate(-4105 -1594.0918)" style="fill:#d86600"/><path d="M4285.85645,1638.23242l9.52929,27.69434-10.09961,3.50195-1.99609-6.1084h-7.81934l-1.833,5.98633-9.9375-4.64258,10.1416-25.6582Zm-3.33985,18.69336-2.97363-7.209-3.05371,7.08691Z" transform="translate(-4105 -1594.0918)" style="fill:#d86600"/><path d="M4309.59961,1638.19141l1.30273,23.459,10.38575-1.42578.24414,7.81934-20.32227,1.38476-3.2998-30.87012Z" transform="translate(-4105 -1594.0918)" style="fill:#d86600"/><path d="M4345.76465,1638.23242l9.5293,27.69434-10.09961,3.50195-1.9961-6.1084h-7.81933l-1.833,5.98633-9.9375-4.64258,10.1416-25.6582Zm-3.33985,18.69336-2.97363-7.209-3.05371,7.08691Z" transform="translate(-4105 -1594.0918)" style="fill:#d86600"/><path d="M4357.81836,1638.23242l11.68945.77344-.57031,30.09766-10.34473.32519Z" transform="translate(-4105 -1594.0918)" style="fill:#d86600"/><path d="M4393.8623,1638.96582l6.8418,6.59766-8.30859,8.83691,8.34961,8.83789-8.79785,6.06836-9.24415-10.54785.12208,9.9375-10.26368.73242-1.54785-30.748,11.81153-.44824.081,15.19141Z" transform="translate(-4105 -1594.0918)" style="fill:#d86600"/><path d="M4425.34375,1638.23242l9.5293,27.69434-10.09961,3.50195-1.9961-6.1084H4414.958l-1.833,5.98633-9.9375-4.64258,10.1416-25.6582Zm-3.33984,18.69336-2.97364-7.209-3.05371,7.08691Z" transform="translate(-4105 -1594.0918)" style="fill:#d86600"/></svg>