<svg id="b3616eeb-c263-48f8-9c44-dd422d4a78d4" data-name="ПЕРЕВОД_не фанерные объекты_клик" xmlns="http://www.w3.org/2000/svg" viewBox="0 0 431.49082 407.68735"><title>asd</title><rect x="8.97127" y="4.79176" width="422.51955" height="402.89559" rx="12" ry="12" style="fill:#3a301f"/><rect width="422.51955" height="402.89559" rx="12" ry="12" style="fill:#fff"/><path d="M3999.00586,1704.35547v-25.083h5.10644v20.82227h12.69629v4.26074Z" transform="translate(-3954.41084 -1529.80008)" style="fill:#7a923c"/><path d="M4019.293,1694.93652a9.90894,9.90894,0,0,1,1.19141-4.6748,8.16515,8.16515,0,0,1,3.37207-3.4502,10.00256,10.00256,0,0,1,4.874-1.19043,9.1452,9.1452,0,0,1,6.81348,2.7002,9.33006,9.33006,0,0,1,2.65722,6.82226,9.436,9.436,0,0,1-2.68359,6.89161,9.06416,9.06416,0,0,1-6.75391,2.73437,10.62667,10.62667,0,0,1-4.80371-1.13867,7.79919,7.79919,0,0,1-3.47558-3.33789A11.1161,11.1161,0,0,1,4019.293,1694.93652Zm4.96875.25879a6.0704,6.0704,0,0,0,1.29394,4.17481,4.22893,4.22893,0,0,0,6.374,0,6.1495,6.1495,0,0,0,1.28515-4.209,6.03876,6.03876,0,0,0-1.28515-4.14062,4.22893,4.22893,0,0,0-6.374,0A6.07208,6.07208,0,0,0,4024.26172,1695.19531Z" transform="translate(-3954.41084 -1529.80008)" style="fill:#7a923c"/><path d="M4040.875,1694.93652a9.918,9.918,0,0,1,1.18945-4.6748,8.173,8.173,0,0,1,3.37305-3.4502,10.00416,10.00416,0,0,1,4.87305-1.19043,9.14891,9.14891,0,0,1,6.81445,2.7002,9.3254,9.3254,0,0,1,2.65625,6.82226,9.44234,9.44234,0,0,1-2.68164,6.89161,9.06719,9.06719,0,0,1-6.75391,2.73437,10.62767,10.62767,0,0,1-4.80468-1.13867,7.81142,7.81142,0,0,1-3.47657-3.33789A11.12745,11.12745,0,0,1,4040.875,1694.93652Zm4.96777.25879a6.06553,6.06553,0,0,0,1.29395,4.17481,4.22892,4.22892,0,0,0,6.374,0,6.1544,6.1544,0,0,0,1.28516-4.209,6.04362,6.04362,0,0,0-1.28516-4.14062,4.22892,4.22892,0,0,0-6.374,0A6.06722,6.06722,0,0,0,4045.84277,1695.19531Z" transform="translate(-3954.41084 -1529.80008)" style="fill:#7a923c"/><path d="M4063.4043,1704.35547v-25.29h4.84765v13.42187l5.67578-6.45214h5.96875l-6.26269,6.69336,6.71,11.627h-5.22656l-4.60547-8.22852-2.25977,2.36328v5.86524Z" transform="translate(-3954.41084 -1529.80008)" style="fill:#7a923c"/><path d="M4090.91992,1686.03516h2.69043v-1.37989a9.18144,9.18144,0,0,1,.49121-3.45019,3.8877,3.8877,0,0,1,1.8125-1.85449,6.94291,6.94291,0,0,1,3.33789-.71582,13.49445,13.49445,0,0,1,4.05371.62109l-.65527,3.38086a9.60712,9.60712,0,0,0-2.22559-.27637,1.983,1.983,0,0,0-1.50976.49219,2.84648,2.84648,0,0,0-.457,1.88867v1.29395h3.62207v3.8125H4098.458v14.50781h-4.84766v-14.50781h-2.69043Z" transform="translate(-3954.41084 -1529.80008)" style="fill:#7a923c"/><path d="M4103.68555,1694.93652a9.918,9.918,0,0,1,1.18945-4.6748,8.173,8.173,0,0,1,3.37305-3.4502,10.00412,10.00412,0,0,1,4.873-1.19043,9.14893,9.14893,0,0,1,6.81446,2.7002,9.3254,9.3254,0,0,1,2.65625,6.82226,9.44234,9.44234,0,0,1-2.68164,6.89161,9.06721,9.06721,0,0,1-6.75391,2.73437,10.62771,10.62771,0,0,1-4.80469-1.13867,7.81139,7.81139,0,0,1-3.47656-3.33789A11.12745,11.12745,0,0,1,4103.68555,1694.93652Zm4.96777.25879a6.06548,6.06548,0,0,0,1.29395,4.17481,4.22892,4.22892,0,0,0,6.374,0,6.15445,6.15445,0,0,0,1.28516-4.209,6.04367,6.04367,0,0,0-1.28516-4.14062,4.22892,4.22892,0,0,0-6.374,0A6.06717,6.06717,0,0,0,4108.65332,1695.19531Z" transform="translate(-3954.41084 -1529.80008)" style="fill:#7a923c"/><path d="M4131.02734,1704.35547h-4.84668v-18.32031h4.50293v2.60449a7.80838,7.80838,0,0,1,2.07813-2.43164,3.82031,3.82031,0,0,1,2.0957-.58692,6.15223,6.15223,0,0,1,3.19141.91407l-1.5,4.22656a4.26221,4.26221,0,0,0-2.27735-.793,2.68852,2.68852,0,0,0-1.72558.56055,3.82925,3.82925,0,0,0-1.11231,2.02636,28.76564,28.76564,0,0,0-.40625,6.14161Z" transform="translate(-3954.41084 -1529.80008)" style="fill:#7a923c"/><path d="M4149.81445,1686.03516h4.51953v2.6914a6.77586,6.77586,0,0,1,2.38086-2.24316,6.56908,6.56908,0,0,1,3.33008-.86231,6.9855,6.9855,0,0,1,5.416,2.501,10.12227,10.12227,0,0,1,2.22558,6.96973q0,4.58936-2.24316,7.13379a6.98529,6.98529,0,0,1-5.43359,2.54394,6.17944,6.17944,0,0,1-2.752-.60351,9.26712,9.26712,0,0,1-2.5957-2.07032v9.2295h-4.84766Zm4.7959,8.84961a7.05421,7.05421,0,0,0,1.22461,4.56347,3.74874,3.74874,0,0,0,2.98438,1.47461,3.50023,3.50023,0,0,0,2.81152-1.35449,6.97245,6.97245,0,0,0,1.12109-4.44238,6.61912,6.61912,0,0,0-1.15527-4.27735,3.57617,3.57617,0,0,0-2.86426-1.39746,3.71842,3.71842,0,0,0-2.94922,1.3711A6.10311,6.10311,0,0,0,4154.61035,1694.88477Z" transform="translate(-3954.41084 -1529.80008)" style="fill:#7a923c"/><path d="M4171.5332,1704.35547v-25.29h4.84766v25.29Z" transform="translate(-3954.41084 -1529.80008)" style="fill:#7a923c"/><path d="M4179.05469,1686.03516h5.1582l4.38086,13.00683,4.2793-13.00683h5.01953l-6.46875,17.63086-1.15625,3.1914a12.99314,12.99314,0,0,1-1.2168,2.44922,5.2837,5.2837,0,0,1-1.32812,1.37109,5.80144,5.80144,0,0,1-1.84571.82032,9.58949,9.58949,0,0,1-2.47461.293,12.86941,12.86941,0,0,1-2.74414-.293l-.43066-3.7959a10.73248,10.73248,0,0,0,2.05273.22461,3.04134,3.04134,0,0,0,2.501-.99219,6.86986,6.86986,0,0,0,1.24219-2.52734Z" transform="translate(-3954.41084 -1529.80008)" style="fill:#7a923c"/><path d="M4204.41406,1704.35547l-5.79687-18.32031h4.709l3.4336,12.00683,3.15625-12.00683h4.67578l3.05273,12.00683,3.502-12.00683h4.7793l-5.88281,18.32031h-4.6582l-3.15625-11.78223-3.10547,11.78223Z" transform="translate(-3954.41084 -1529.80008)" style="fill:#7a923c"/><path d="M4227.35742,1694.93652a9.90786,9.90786,0,0,1,1.19043-4.6748,8.17082,8.17082,0,0,1,3.37207-3.4502,10.008,10.008,0,0,1,4.874-1.19043,9.14517,9.14517,0,0,1,6.81347,2.7002,9.32611,9.32611,0,0,1,2.65723,6.82226,9.43917,9.43917,0,0,1-2.68262,6.89161,9.06567,9.06567,0,0,1-6.75391,2.73437,10.6277,10.6277,0,0,1-4.80468-1.13867,7.80915,7.80915,0,0,1-3.47559-3.33789A11.11626,11.11626,0,0,1,4227.35742,1694.93652Zm4.96875.25879a6.0702,6.0702,0,0,0,1.293,4.17481,4.23,4.23,0,0,0,6.375,0,6.1544,6.1544,0,0,0,1.28516-4.209,6.04362,6.04362,0,0,0-1.28516-4.14062,4.23,4.23,0,0,0-6.375,0A6.07189,6.07189,0,0,0,4232.32617,1695.19531Z" transform="translate(-3954.41084 -1529.80008)" style="fill:#7a923c"/><path d="M4248.93848,1694.93652a9.91925,9.91925,0,0,1,1.19043-4.6748,8.16746,8.16746,0,0,1,3.373-3.4502,9.99879,9.99879,0,0,1,4.87305-1.19043,9.14891,9.14891,0,0,1,6.81445,2.7002,9.32927,9.32927,0,0,1,2.65625,6.82226,9.4392,9.4392,0,0,1-2.68261,6.89161,9.06568,9.06568,0,0,1-6.75391,2.73437,10.62667,10.62667,0,0,1-4.80371-1.13867,7.80146,7.80146,0,0,1-3.47656-3.33789A11.1274,11.1274,0,0,1,4248.93848,1694.93652Zm4.96777.25879a6.06573,6.06573,0,0,0,1.29492,4.17481,4.22785,4.22785,0,0,0,6.37305,0,6.1495,6.1495,0,0,0,1.28516-4.209,6.03876,6.03876,0,0,0-1.28516-4.14062,4.22785,4.22785,0,0,0-6.37305,0A6.06741,6.06741,0,0,0,4253.90625,1695.19531Z" transform="translate(-3954.41084 -1529.80008)" style="fill:#7a923c"/><path d="M4270.51953,1694.93652a9.91816,9.91816,0,0,1,1.18945-4.6748,8.173,8.173,0,0,1,3.373-3.4502,10.00416,10.00416,0,0,1,4.87305-1.19043,9.14891,9.14891,0,0,1,6.81445,2.7002,9.32536,9.32536,0,0,1,2.65625,6.82226,9.44234,9.44234,0,0,1-2.68164,6.89161,9.06719,9.06719,0,0,1-6.75391,2.73437,10.62767,10.62767,0,0,1-4.80468-1.13867,7.81142,7.81142,0,0,1-3.47657-3.33789A11.12756,11.12756,0,0,1,4270.51953,1694.93652Zm4.96777.25879a6.06553,6.06553,0,0,0,1.294,4.17481,4.22892,4.22892,0,0,0,6.374,0,6.1544,6.1544,0,0,0,1.28516-4.209,6.04362,6.04362,0,0,0-1.28516-4.14062,4.22892,4.22892,0,0,0-6.374,0A6.06722,6.06722,0,0,0,4275.4873,1695.19531Z" transform="translate(-3954.41084 -1529.80008)" style="fill:#7a923c"/><path d="M4292.09961,1694.93652a9.90894,9.90894,0,0,1,1.19141-4.6748,8.16515,8.16515,0,0,1,3.37207-3.4502,10.00256,10.00256,0,0,1,4.874-1.19043,9.1452,9.1452,0,0,1,6.81348,2.7002,9.33006,9.33006,0,0,1,2.65722,6.82226,9.436,9.436,0,0,1-2.68359,6.89161,9.06416,9.06416,0,0,1-6.75391,2.73437,10.62667,10.62667,0,0,1-4.80371-1.13867,7.79919,7.79919,0,0,1-3.47558-3.33789A11.1161,11.1161,0,0,1,4292.09961,1694.93652Zm4.96875.25879a6.0704,6.0704,0,0,0,1.29394,4.17481,4.22893,4.22893,0,0,0,6.374,0,6.1495,6.1495,0,0,0,1.28515-4.209,6.03876,6.03876,0,0,0-1.28515-4.14062,4.22893,4.22893,0,0,0-6.374,0A6.07208,6.07208,0,0,0,4297.06836,1695.19531Z" transform="translate(-3954.41084 -1529.80008)" style="fill:#7a923c"/><path d="M4331.60547,1704.35547h-4.50293V1701.665a7.28239,7.28239,0,0,1-2.64746,2.33691,6.79966,6.79966,0,0,1-3.08008.76758,6.978,6.978,0,0,1-5.4082-2.54394,10.35525,10.35525,0,0,1-2.251-7.09961q0-4.65675,2.19043-7.08106a7.14567,7.14567,0,0,1,5.53809-2.42383,6.86385,6.86385,0,0,1,5.31347,2.55274v-9.1084h4.84766Zm-12.93945-9.55664a8.38823,8.38823,0,0,0,.81152,4.24316,3.66282,3.66282,0,0,0,3.27832,1.89844,3.5666,3.5666,0,0,0,2.8457-1.42383,6.56594,6.56594,0,0,0,1.17383-4.25195,7.19814,7.19814,0,0,0-1.13867-4.5459,3.605,3.605,0,0,0-2.916-1.38867,3.64229,3.64229,0,0,0-2.88965,1.37109A6.19879,6.19879,0,0,0,4318.666,1694.79883Z" transform="translate(-3954.41084 -1529.80008)" style="fill:#7a923c"/><path d="M4025.10742,1728.43164h4.51953v2.69043a6.75693,6.75693,0,0,1,2.38086-2.24219,6.55574,6.55574,0,0,1,3.3291-.8623,6.98747,6.98747,0,0,1,5.417,2.501,10.12679,10.12679,0,0,1,2.22461,6.96973q0,4.5879-2.24219,7.13281a6.98773,6.98773,0,0,1-5.4336,2.54493,6.16367,6.16367,0,0,1-2.75195-.6045,9.26124,9.26124,0,0,1-2.5957-2.06933v9.22851h-4.84766Zm4.79492,8.84961a7.057,7.057,0,0,0,1.22461,4.5625,3.74725,3.74725,0,0,0,2.98438,1.47461,3.50531,3.50531,0,0,0,2.8125-1.35352,6.9762,6.9762,0,0,0,1.12109-4.44238,6.61613,6.61613,0,0,0-1.15625-4.27832,3.573,3.573,0,0,0-2.86328-1.39746,3.715,3.715,0,0,0-2.94922,1.37207A6.09778,6.09778,0,0,0,4029.90234,1737.28125Z" transform="translate(-3954.41084 -1529.80008)" style="fill:#7a923c"/><path d="M4046.82617,1725.94727v-4.48536h4.84766v4.48536Zm0,20.80468v-18.32031h4.84766V1746.752Z" transform="translate(-3954.41084 -1529.80008)" style="fill:#7a923c"/><path d="M4067.251,1740.9209l4.83105.81055a7.92315,7.92315,0,0,1-2.94141,4.04589,8.6427,8.6427,0,0,1-5.02929,1.38868q-4.77833,0-7.07227-3.123a10.4842,10.4842,0,0,1-1.8125-6.31348,10.12334,10.12334,0,0,1,2.38086-7.13379,7.84294,7.84294,0,0,1,6.02149-2.57812,8.13283,8.13283,0,0,1,6.45117,2.69922q2.36425,2.6997,2.25976,8.27148h-12.14453a4.9034,4.9034,0,0,0,1.17383,3.35547,3.66586,3.66586,0,0,0,2.794,1.19922,2.969,2.969,0,0,0,1.915-.62109A3.836,3.836,0,0,0,4067.251,1740.9209Zm.27636-4.89942a4.66872,4.66872,0,0,0-1.08691-3.20019,3.4993,3.4993,0,0,0-5.14063.06055,4.47033,4.47033,0,0,0-1.01855,3.13964Z" transform="translate(-3954.41084 -1529.80008)" style="fill:#7a923c"/><path d="M4092.26465,1733.84766l-4.77832.86328a3.47011,3.47011,0,0,0-1.09571-2.15723,3.31164,3.31164,0,0,0-2.21679-.72363,3.6215,3.6215,0,0,0-2.88867,1.25,6.404,6.404,0,0,0-1.07911,4.18359q0,3.26074,1.09571,4.60645a3.59578,3.59578,0,0,0,2.9414,1.34472,3.26647,3.26647,0,0,0,2.25977-.78418,4.71889,4.71889,0,0,0,1.24219-2.70019l4.76074.81055a8.44814,8.44814,0,0,1-2.8457,4.95117,8.81113,8.81113,0,0,1-5.64161,1.67383,8.38968,8.38968,0,0,1-6.40917-2.53614,11.55859,11.55859,0,0,1,.00976-14.08593,8.51415,8.51415,0,0,1,6.48633-2.52637,8.845,8.845,0,0,1,5.32129,1.44043A7.9781,7.9781,0,0,1,4092.26465,1733.84766Z" transform="translate(-3954.41084 -1529.80008)" style="fill:#7a923c"/><path d="M4106.54883,1740.9209l4.83008.81055a7.92326,7.92326,0,0,1-2.94141,4.04589,8.64058,8.64058,0,0,1-5.0293,1.38868q-4.77831,0-7.07226-3.123a10.4905,10.4905,0,0,1-1.81153-6.31348,10.11888,10.11888,0,0,1,2.38086-7.13379,7.84087,7.84087,0,0,1,6.02051-2.57812,8.13352,8.13352,0,0,1,6.45215,2.69922q2.36279,2.6997,2.25977,8.27148h-12.14551a4.90336,4.90336,0,0,0,1.17383,3.35547,3.66938,3.66938,0,0,0,2.79492,1.19922,2.96628,2.96628,0,0,0,1.91406-.62109A3.84319,3.84319,0,0,0,4106.54883,1740.9209Zm.27539-4.89942a4.66849,4.66849,0,0,0-1.08594-3.20019,3.49931,3.49931,0,0,0-5.14062.06055,4.46572,4.46572,0,0,0-1.01856,3.13964Z" transform="translate(-3954.41084 -1529.80008)" style="fill:#7a923c"/><path d="M4113.88086,1741.52441l4.86426-.74121a3.5625,3.5625,0,0,0,1.25879,2.14746,4.25449,4.25449,0,0,0,2.65722.7334,4.79809,4.79809,0,0,0,2.8291-.69043,1.5386,1.5386,0,0,0,.63868-1.29394,1.27009,1.27009,0,0,0-.34571-.91407,3.87263,3.87263,0,0,0-1.62109-.63867q-5.86524-1.29345-7.43555-2.36328a4.71875,4.71875,0,0,1-2.17383-4.12305,5.08044,5.08044,0,0,1,1.88086-4.00195q1.88087-1.62157,5.83008-1.62109a10.1733,10.1733,0,0,1,5.58985,1.22461,6.26207,6.26207,0,0,1,2.51855,3.62207l-4.57129.8457a2.82149,2.82149,0,0,0-1.11328-1.63867,4.06377,4.06377,0,0,0-2.33691-.56934,5.27,5.27,0,0,0-2.74317.53516,1.14653,1.14653,0,0,0-.55176.98242,1.07,1.07,0,0,0,.4834.87988,18.15944,18.15944,0,0,0,4.52735,1.36329,13.47721,13.47721,0,0,1,5.4082,2.15625,4.48284,4.48284,0,0,1,1.51855,3.60546,5.536,5.536,0,0,1-2.10449,4.33008q-2.105,1.81055-6.22754,1.81153a10.2137,10.2137,0,0,1-5.92578-1.51856A6.984,6.984,0,0,1,4113.88086,1741.52441Z" transform="translate(-3954.41084 -1529.80008)" style="fill:#7a923c"/><path d="M4143.93164,1737.333a9.90864,9.90864,0,0,1,1.19043-4.67578,8.17635,8.17635,0,0,1,3.37207-3.4502,10.01806,10.01806,0,0,1,4.874-1.18945,9.14444,9.14444,0,0,1,6.81348,2.69922,9.32686,9.32686,0,0,1,2.65723,6.82324,9.44072,9.44072,0,0,1-2.68262,6.8916,9.06568,9.06568,0,0,1-6.75391,2.73438,10.64028,10.64028,0,0,1-4.80468-1.13868,7.81431,7.81431,0,0,1-3.47559-3.33789A11.11878,11.11878,0,0,1,4143.93164,1737.333Zm4.96875.25879a6.07184,6.07184,0,0,0,1.293,4.1748,4.23188,4.23188,0,0,0,6.375,0,6.15719,6.15719,0,0,0,1.28516-4.21,6.041,6.041,0,0,0-1.28516-4.13965,4.23,4.23,0,0,0-6.375,0A6.07015,6.07015,0,0,0,4148.90039,1737.5918Z" transform="translate(-3954.41084 -1529.80008)" style="fill:#7a923c"/><path d="M4164.51172,1728.43164h2.6914v-1.38086a9.18484,9.18484,0,0,1,.49122-3.45019,3.88985,3.88985,0,0,1,1.81152-1.8545,6.957,6.957,0,0,1,3.33789-.71582,13.49579,13.49579,0,0,1,4.05469.6211l-.65625,3.38183a9.54063,9.54063,0,0,0-2.22461-.27636,1.98673,1.98673,0,0,0-1.50977.49121,2.8514,2.8514,0,0,0-.457,1.88965v1.29394h3.62207v3.81152h-3.62207V1746.752h-4.84766v-14.50879h-2.6914Z" transform="translate(-3954.41084 -1529.80008)" style="fill:#7a923c"/><path d="M4191.83789,1734.02051l-4.39941-.79395a6.846,6.846,0,0,1,2.55273-3.93261,9.33987,9.33987,0,0,1,5.38184-1.27637,11.60344,11.60344,0,0,1,4.831.76758,4.8129,4.8129,0,0,1,2.2334,1.94922,9.9882,9.9882,0,0,1,.64746,4.33886l-.05176,5.65821a19.73112,19.73112,0,0,0,.23242,3.56152,10.42213,10.42213,0,0,0,.8711,2.459h-4.79492q-.19044-.48339-.4668-1.43164c-.08008-.28808-.13672-.47754-.17188-.56933a8.74692,8.74692,0,0,1-2.65624,1.81054,7.59707,7.59707,0,0,1-3.01954.6045,6.24137,6.24137,0,0,1-4.459-1.53516,5.10511,5.10511,0,0,1-1.63086-3.88184,5.21231,5.21231,0,0,1,.74219-2.76855,4.83581,4.83581,0,0,1,2.0791-1.86328,16.25013,16.25013,0,0,1,3.85547-1.12989,26.45044,26.45044,0,0,0,4.71-1.19042v-.4834a2.509,2.509,0,0,0-.69043-1.99219,4.13807,4.13807,0,0,0-2.60449-.59473,3.46789,3.46789,0,0,0-2.01953.50879A3.53731,3.53731,0,0,0,4191.83789,1734.02051Zm6.48633,3.93359a30.25516,30.25516,0,0,1-2.95117.74121,8.89171,8.89171,0,0,0-2.63867.84571,2.02094,2.02094,0,0,0-.94922,1.708,2.37649,2.37649,0,0,0,.75976,1.75879,2.64622,2.64622,0,0,0,1.93164.74219,4.19927,4.19927,0,0,0,2.502-.8623,3.04261,3.04261,0,0,0,1.15527-1.6045,9.59072,9.59072,0,0,0,.19043-2.36328Z" transform="translate(-3954.41084 -1529.80008)" style="fill:#7a923c"/><path d="M4224.666,1746.752h-4.502v-2.6914a7.27905,7.27905,0,0,1-2.64844,2.33789,6.80916,6.80916,0,0,1-3.08007.76758,6.982,6.982,0,0,1-5.40821-2.54493,10.354,10.354,0,0,1-2.25-7.09863q0-4.6582,2.19043-7.082a7.142,7.142,0,0,1,5.53809-2.42285,6.85742,6.85742,0,0,1,5.3125,2.55273v-9.1084h4.84766Zm-12.93848-9.55761a8.38207,8.38207,0,0,0,.81152,4.24414,3.66044,3.66044,0,0,0,3.27735,1.89746,3.567,3.567,0,0,0,2.8457-1.42285,6.56326,6.56326,0,0,0,1.17383-4.25293,7.18879,7.18879,0,0,0-1.13867-4.54493,3.74226,3.74226,0,0,0-5.80469-.01757A6.19035,6.19035,0,0,0,4211.72754,1737.19434Z" transform="translate(-3954.41084 -1529.80008)" style="fill:#7a923c"/><path d="M4234.48242,1746.752l-7.38379-18.32031h5.08887l3.4502,9.34961,1.001,3.12207q.3955-1.18945.5-1.56934c.16016-.51757.334-1.03515.51758-1.55273l3.48437-9.34961h4.98633l-7.28125,18.32031Z" transform="translate(-3954.41084 -1529.80008)" style="fill:#7a923c"/><path d="M4249.09375,1725.94727v-4.48536h4.84766v4.48536Zm0,20.80468v-18.32031h4.84766V1746.752Z" transform="translate(-3954.41084 -1529.80008)" style="fill:#7a923c"/><path d="M4274.88379,1733.84766l-4.77832.86328a3.47015,3.47015,0,0,0-1.0957-2.15723,3.31168,3.31168,0,0,0-2.2168-.72363,3.6215,3.6215,0,0,0-2.88867,1.25,6.404,6.404,0,0,0-1.0791,4.18359q0,3.26074,1.0957,4.60645a3.59578,3.59578,0,0,0,2.9414,1.34472,3.26647,3.26647,0,0,0,2.25977-.78418,4.71889,4.71889,0,0,0,1.24219-2.70019l4.76074.81055a8.44814,8.44814,0,0,1-2.8457,4.95117,8.81112,8.81112,0,0,1-5.6416,1.67383,8.3897,8.3897,0,0,1-6.40918-2.53614,11.55859,11.55859,0,0,1,.00976-14.08593,8.51415,8.51415,0,0,1,6.48633-2.52637,8.845,8.845,0,0,1,5.32129,1.44043A7.9781,7.9781,0,0,1,4274.88379,1733.84766Z" transform="translate(-3954.41084 -1529.80008)" style="fill:#7a923c"/><path d="M4289.167,1740.9209l4.83106.81055a7.92326,7.92326,0,0,1-2.94141,4.04589,8.64271,8.64271,0,0,1-5.0293,1.38868q-4.77831,0-7.07226-3.123a10.4842,10.4842,0,0,1-1.8125-6.31348,10.12334,10.12334,0,0,1,2.38086-7.13379,7.84293,7.84293,0,0,1,6.02148-2.57812,8.13283,8.13283,0,0,1,6.45117,2.69922q2.36427,2.6997,2.25977,8.27148h-12.14453a4.90336,4.90336,0,0,0,1.17383,3.35547,3.66586,3.66586,0,0,0,2.79394,1.19922,2.969,2.969,0,0,0,1.915-.62109A3.836,3.836,0,0,0,4289.167,1740.9209Zm.27637-4.89942a4.66877,4.66877,0,0,0-1.08691-3.20019,3.4993,3.4993,0,0,0-5.14063.06055,4.47029,4.47029,0,0,0-1.01855,3.13964Z" transform="translate(-3954.41084 -1529.80008)" style="fill:#7a923c"/><path d="M4300.10449,1740.23047l-1.25879-12.834v-5.93457h5.24414v5.93457l-1.24218,12.834Zm-1.05176,6.52148v-4.84765h4.84668v4.84765Z" transform="translate(-3954.41084 -1529.80008)" style="fill:#7a923c"/><path d="M4144.03,1693.65977l-1.02637,1.33911Q4143.53135,1694.339,4144.03,1693.65977Z" transform="translate(-3954.41084 -1529.80008)" style="fill:#02263c"/><path d="M4162.07443,1670.11949l-.06689.08716c.043-.02808.083-.06031.12622-.0879Z" transform="translate(-3954.41084 -1529.80008)" style="fill:#02263c"/><path d="M3994.68262,1563.90332l9.52929,27.69434-10.09961,3.502-1.99609-6.1084h-7.81933l-1.833,5.98633-9.9375-4.64258,10.1416-25.6582Zm-3.33985,18.69336-2.97363-7.209-3.05371,7.08691Z" transform="translate(-3954.41084 -1529.80008)" style="fill:#d86600"/><path d="M4009.30273,1563.90332l9.77442.81445,8.02344,14.25391-1.38477-13.56152h9.32617l.61133,26.87988-10.875,2.80957-8.02246-16.08691-.69238,14.82421-9.32715-2.19921,2.5664-27.20508Z" transform="translate(-3954.41084 -1529.80008)" style="fill:#d86600"/><path d="M4074.05762,1567.2832q-.20508.57129-.5293,1.52735-.32665.958-.77441,2.30175a25.3037,25.3037,0,0,0-1.09961,5.498,9.91379,9.91379,0,0,0,.65136,4.96875q.9375,2.15772,4.11426,2.07617a3.603,3.603,0,0,0,3.25781-1.4248,7.12551,7.12551,0,0,0,1.14063-3.543,17.57724,17.57724,0,0,0-.16309-4.43945l-.57031-4.19532,8.67481-1.66992q.48925,1.54835,1.03808,3.44141.55078,1.894,1.12012,4.21582a20.82127,20.82127,0,0,1,.5293,8.83789,11.80992,11.80992,0,0,1-4.19434,7.29q-3.50391,3.01319-11.85156,2.93164-8.02442,0-11.32227-3.78711a15.40276,15.40276,0,0,1-3.90918-8.83789,29.09365,29.09365,0,0,1,.69238-10.34473,80.07291,80.07291,0,0,1,2.32129-8.22656Z" transform="translate(-3954.41084 -1529.80008)" style="fill:#d86600"/><path d="M4097.23047,1563.90332l9.77441.81445,8.02344,14.25391-1.38477-13.56152h9.32618l.61132,26.87988-10.875,2.80957-8.02246-16.08691-.69238,14.82421-9.32715-2.19921,2.56641-27.20508Z" transform="translate(-3954.41084 -1529.80008)" style="fill:#d86600"/><path d="M4147.89453,1563.90332l.24414,8.79688-11.40332-.16309.082,3.25879,5.82324-.32617.041,5.376h-5.29492l.12207,3.74707,10.99707-.65234.12207,10.54883-20.93359.61035-1.752-31.15527Z" transform="translate(-3954.41084 -1529.80008)" style="fill:#d86600"/><path d="M4160.4375,1564.43262l5.70117,8.71582,7.33106-9.24512,8.91894,4.80566-10.95508,11.36231,8.38965,9.6123-7.331,5.416-6.51563-9.57031-5.90625,7.69726-9.36719-4.84668,9.57129-10.14062-7.65625-10.874Z" transform="translate(-3954.41084 -1529.80008)" style="fill:#d86600"/><path d="M4195.46289,1585.28516l.40723,9.81445-8.87891-1.05859-2.07715-30.05664q1.14111-.08058,2.68848-.08106,1.54688,0,3.584.12207a38.65045,38.65045,0,0,1,7.98243,1.18066,21.72787,21.72787,0,0,1,6.88281,2.93262,6.12781,6.12781,0,0,1,2.93262,5.29492,9.29046,9.29046,0,0,1-4.31739,8.1045,20.97417,20.97417,0,0,1-9.2041,3.78711Zm-1.14062-5.417a9.30932,9.30932,0,0,0,4.03222-2.07714,4.69322,4.69322,0,0,0,1.66992-2.89161,2.71509,2.71509,0,0,0-1.30371-2.52539q-1.54833-1.09863-4.92773-.97754Z" transform="translate(-3954.41084 -1529.80008)" style="fill:#d86600"/><path d="M4233.09375,1563.90332l.24414,8.79688-11.40332-.16309.082,3.25879,5.82324-.32617.041,5.376h-5.29492l.12207,3.74707,10.99707-.65234.12207,10.54883-20.9336.61035-1.75195-31.15527Z" transform="translate(-3954.41084 -1529.80008)" style="fill:#d86600"/><path d="M4261.56152,1572.21191q-7.94091-1.34472-11.52539,1.751-3.58447,3.05419-3.17675,6.5166.40722,3.46143,4.60253,5.29395,4.19385,1.83252,11.89161-2.03614l4.23535,8.55274a20.11453,20.11453,0,0,1-9.082,2.72851,29.53509,29.53509,0,0,1-10.30372-.97753,21.9919,21.9919,0,0,1-8.55273-4.56153,10.773,10.773,0,0,1-3.74707-8.02344,13.68208,13.68208,0,0,1,2.64746-9.041,20.12611,20.12611,0,0,1,7.168-6.06836,22.60541,22.60541,0,0,1,9.28613-2.40234,16.81,16.81,0,0,1,8.87793,1.832Z" transform="translate(-3954.41084 -1529.80008)" style="fill:#d86600"/><path d="M4270.3584,1565.49121l28.06055-1.58789.48828,14.0918-10.71094-.57032,3.21777,17.67481-13.76562-1.46582,2.3623-15.88379-9.89746.28516Z" transform="translate(-3954.41084 -1529.80008)" style="fill:#d86600"/><path d="M4323.26172,1563.90332l.24414,8.79688-11.40332-.16309.082,3.25879,5.82324-.32617.041,5.376h-5.29492l.12207,3.74707,10.99707-.65234.12207,10.54883-20.9336.61035-1.75195-31.15527Z" transform="translate(-3954.41084 -1529.80008)" style="fill:#d86600"/><path d="M4326.07129,1565.61328a35.6535,35.6535,0,0,1,14.37695-1.4248,21.82636,21.82636,0,0,1,14.499,6.92382,9.88926,9.88926,0,0,1,2.60644,5.13086,13.86945,13.86945,0,0,1,.18359,2.91211,11.7235,11.7235,0,0,1-.50976,2.95313,16.93514,16.93514,0,0,1-3.09473,5.62012,15.76365,15.76365,0,0,1-5.58008,4.15429,36.281,36.281,0,0,1-10.30371,2.85059,30.4169,30.4169,0,0,1-10.10058-.041Zm13.19629,16.69824a6.01989,6.01989,0,0,0,2.56543-.44824,9.30811,9.30811,0,0,0,2.56543-1.54687,5.35187,5.35187,0,0,0,1.54785-2.28125,2.67825,2.67825,0,0,0-.44824-2.60645,4.87908,4.87908,0,0,0-3.46094-1.54785,14.70526,14.70526,0,0,0-3.8291-.12207Z" transform="translate(-3954.41084 -1529.80008)" style="fill:#d86600"/><path d="M4114.29492,1622.30566a10.35862,10.35862,0,0,0-4.27637-1.26269,10.128,10.128,0,0,0-4.43945.7334,8.45174,8.45174,0,0,0-3.37988,2.80957,7.5416,7.5416,0,0,0-1.09961,4.88769,6.808,6.808,0,0,0,1.71,4.23535,6.714,6.714,0,0,0,3.584,2.03614,5.52109,5.52109,0,0,0,3.86915-.65137,6.609,6.609,0,0,0,2.81054-3.95117l-3.78808.082.65234-4.60254,9.65234-.08105a10.31207,10.31207,0,0,1,.44727,3.82812,16.47848,16.47848,0,0,1-.5293,3.82813,13.15187,13.15187,0,0,1-5.09082,7.12793,14.90562,14.90562,0,0,1-7.81933,2.64648,13.03082,13.03082,0,0,1-4.09278-.48828,15.39231,15.39231,0,0,1-3.97168-1.792q-3.82762-2.40235-5.66015-7.90137a14.36663,14.36663,0,0,1,.04-9.9375,17.69919,17.69919,0,0,1,2.28125-4.2959,16.95684,16.95684,0,0,1,3.25781-3.36035,16.17363,16.17363,0,0,1,8.63379-3.37988,12.862,12.862,0,0,1,9.20508,2.72851Z" transform="translate(-3954.41084 -1529.80008)" style="fill:#d86600"/><path d="M4136.49121,1616.15527q-.20508.57129-.5293,1.52735-.32666.958-.77441,2.30176a25.30468,25.30468,0,0,0-1.09961,5.498,9.91366,9.91366,0,0,0,.65137,4.96875q.9375,2.15772,4.11426,2.07617a3.603,3.603,0,0,0,3.25781-1.4248,7.1256,7.1256,0,0,0,1.14062-3.543,17.57676,17.57676,0,0,0-.16308-4.43945l-.57032-4.19532,8.67481-1.66992q.48925,1.54835,1.03809,3.44141.55077,1.894,1.12011,4.21582a20.82111,20.82111,0,0,1,.5293,8.83789,11.80987,11.80987,0,0,1-4.19434,7.29q-3.5039,3.01318-11.85156,2.93164-8.02441,0-11.32226-3.78711a15.4027,15.4027,0,0,1-3.90918-8.83789,29.093,29.093,0,0,1,.69238-10.34473,80.07291,80.07291,0,0,1,2.32129-8.22656Z" transform="translate(-3954.41084 -1529.80008)" style="fill:#d86600"/><path d="M4179.0498,1612.77539l.24415,8.79688-11.40333-.16309.082,3.25879,5.82324-.32617.041,5.376H4168.542l.12207,3.74707,10.99707-.65234.12207,10.54883-20.93359.61035-1.75195-31.15527Z" transform="translate(-3954.41084 -1529.80008)" style="fill:#d86600"/><path d="M4184.71094,1631.71289a27.3782,27.3782,0,0,0,4.07226,1.38477,16.95914,16.95914,0,0,0,3.625.61132q1.50587.082,1.792-.40722.36621-.48926-1.38477-1.66992-1.87353-1.30371-3.665-2.708-1.793-1.40625-3.54394-2.99414a7.70362,7.70362,0,0,1-2.56543-7.53418q.85546-4.43849,4.27636-5.21289a15.07372,15.07372,0,0,1,7.49317.28515,32.13561,32.13561,0,0,1,7.73828,3.25782,24.35255,24.35255,0,0,1,5.13183,3.666l-3.82812,5.94531a5.82527,5.82527,0,0,0-1.18164-.875q-.73242-.42773-1.792-.957a21.7881,21.7881,0,0,0-3.70606-1.38476q-1.58788-.36621-1.87305.16308-.24462.4878,2.5254,2.76856a65.59127,65.59127,0,0,0,5.90527,4.31738q2.07714,1.30371,2.72851,5.09082a5.29483,5.29483,0,0,1-2.07714,5.49805,14.92657,14.92657,0,0,1-6.67969,2.68847,26.04778,26.04778,0,0,1-8.4707,0,17.73436,17.73436,0,0,1-7.37207-2.64746Z" transform="translate(-3954.41084 -1529.80008)" style="fill:#d86600"/><path d="M4210.124,1614.36328l28.06055-1.58789.48828,14.0918-10.71094-.57031,3.21778,17.6748-13.76563-1.46582,2.36231-15.88379-9.89746.28516Z" transform="translate(-3954.41084 -1529.80008)" style="fill:#d86600"/></svg>