<svg id="d26f8ab4-2a43-45e0-82bb-f1c6943589a7" data-name="ПЕРЕВОД_не фанерные объекты_клик" xmlns="http://www.w3.org/2000/svg" viewBox="0 0 495.86719 542.5"><title>sveza_ny_game-curves-узкая версия-eng-с украшенной желтой стеной</title><rect x="10.30974" y="6.37629" width="485.55745" height="536.12371" rx="12" ry="12" style="fill:#3a301f"/><rect width="485.55745" height="536.12371" rx="12" ry="12" style="fill:#fff"/><path d="M1486.96924,210.56152h9.33252a18.23351,18.23351,0,0,1,4.813.48291,8.46335,8.46335,0,0,1,3.8125,2.32911,11.0543,11.0543,0,0,1,2.41552,4.09716,18.67221,18.67221,0,0,1,.82764,5.97754,16.63516,16.63516,0,0,1-.77588,5.38233,11.15724,11.15724,0,0,1-2.70849,4.46777,8.97624,8.97624,0,0,1-3.58838,2.01855,15.45139,15.45139,0,0,1-4.51954.53467h-9.60888Zm5.10644,4.27832v16.75049h3.812a13.91518,13.91518,0,0,0,3.08837-.24121,4.71343,4.71343,0,0,0,2.061-1.05224,5.35551,5.35551,0,0,0,1.3374-2.44092,16.51271,16.51271,0,0,0,.51709-4.63233,15.12364,15.12364,0,0,0-.51709-4.50244,5.79193,5.79193,0,0,0-1.44922-2.44971,4.86174,4.86174,0,0,0-2.36328-1.18994,23.14258,23.14258,0,0,0-4.19238-.2417Z" transform="translate(-1422.56641 -42.70185)" style="fill:#7a923c"/><path d="M1511.34473,226.43262a9.914,9.914,0,0,1,1.19043-4.6753,8.17183,8.17183,0,0,1,3.37255-3.45019,10.00838,10.00838,0,0,1,4.87354-1.18994,9.1467,9.1467,0,0,1,6.814,2.6997,9.32807,9.32807,0,0,1,2.65674,6.82276,9.44,9.44,0,0,1-2.68261,6.8916,9.06568,9.06568,0,0,1-6.75391,2.73437,10.63342,10.63342,0,0,1-4.8042-1.13867,7.80782,7.80782,0,0,1-3.47607-3.33789A11.1231,11.1231,0,0,1,1511.34473,226.43262Zm4.96826.25879a6.0688,6.0688,0,0,0,1.29394,4.1748,4.22987,4.22987,0,0,0,6.374,0,6.15334,6.15334,0,0,0,1.28515-4.20947,6.03986,6.03986,0,0,0-1.28515-4.14014,4.22893,4.22893,0,0,0-6.374,0A6.06881,6.06881,0,0,0,1516.313,226.69141Z" transform="translate(-1422.56641 -42.70185)" style="fill:#7a923c"/><path d="M1550.71143,235.85156h-4.84717v-9.3501a14.4519,14.4519,0,0,0-.31055-3.83837,2.69157,2.69157,0,0,0-1.00928-1.354,2.886,2.886,0,0,0-1.68213-.48291,3.88734,3.88734,0,0,0-2.25976.68994,3.47508,3.47508,0,0,0-1.37158,1.82862,15.79426,15.79426,0,0,0-.37061,4.209v8.29785h-4.84765V217.53125h4.50244v2.69092a7.50936,7.50936,0,0,1,8.9707-2.52735,4.92167,4.92167,0,0,1,2.00977,1.4751,5.35172,5.35172,0,0,1,.94873,2.03565,15.14378,15.14378,0,0,1,.26709,3.26025Z" transform="translate(-1422.56641 -42.70185)" style="fill:#7a923c"/><path d="M1555.50732,210.63086h4.84766v3.46728a12.07933,12.07933,0,0,1-.3623,3.32081,4.96309,4.96309,0,0,1-1.37159,2.18212,7.06184,7.06184,0,0,1-2.56152,1.51807l-.94873-2.001a4.0813,4.0813,0,0,0,2.0874-1.32861,3.99625,3.99625,0,0,0,.65528-2.31152h-2.3462Z" transform="translate(-1422.56641 -42.70185)" style="fill:#7a923c"/><path d="M1573.84473,217.53125V221.395h-3.312v7.38379a18.331,18.331,0,0,0,.09473,2.61328,1.06193,1.06193,0,0,0,.43115.6123,1.36523,1.36523,0,0,0,.81983.2417,6.27171,6.27171,0,0,0,1.94922-.46582l.41406,3.76075a9.63979,9.63979,0,0,1-3.82959.7246,6.0716,6.0716,0,0,1-2.36377-.43994,3.45159,3.45159,0,0,1-1.54395-1.13867,4.49447,4.49447,0,0,1-.68115-1.88867,23.49878,23.49878,0,0,1-.15527-3.416V221.395h-2.22559v-3.86377h2.22559v-3.64014l4.86474-2.8291v6.46924Z" transform="translate(-1422.56641 -42.70185)" style="fill:#7a923c"/><path d="M1603.82715,235.85156h-4.50244v-2.69092a7.28075,7.28075,0,0,1-2.648,2.33741,6.80248,6.80248,0,0,1-3.07959.76757,6.97857,6.97857,0,0,1-5.40821-2.54443,10.35237,10.35237,0,0,1-2.251-7.09912q0-4.65747,2.19092-7.08154a7.14347,7.14347,0,0,1,5.53759-2.42334,6.85989,6.85989,0,0,1,5.313,2.55273v-9.1084h4.84766Zm-12.93848-9.55713a8.3859,8.3859,0,0,0,.811,4.24366,3.66217,3.66217,0,0,0,3.27783,1.89795,3.56842,3.56842,0,0,0,2.84619-1.42334,6.56755,6.56755,0,0,0,1.17334-4.25245,7.1903,7.1903,0,0,0-1.13867-4.54541,3.60342,3.60342,0,0,0-2.91553-1.38867,3.64227,3.64227,0,0,0-2.88965,1.3711A6.19732,6.19732,0,0,0,1590.88867,226.29443Z" transform="translate(-1422.56641 -42.70185)" style="fill:#7a923c"/><path d="M1608.606,215.04688v-4.48536h4.84716v4.48536Zm0,20.80468V217.53125h4.84716v18.32031Z" transform="translate(-1422.56641 -42.70185)" style="fill:#7a923c"/><path d="M1616.71387,230.62451l4.86474-.7417a3.56168,3.56168,0,0,0,1.25928,2.14746,4.252,4.252,0,0,0,2.65674.7334,4.79727,4.79727,0,0,0,2.8291-.68994,1.54067,1.54067,0,0,0,.63818-1.29394,1.27545,1.27545,0,0,0-.34472-.91456,3.87623,3.87623,0,0,0-1.62158-.63818q-5.866-1.29345-7.43555-2.36328a4.72,4.72,0,0,1-2.17334-4.123,5.07992,5.07992,0,0,1,1.88037-4.002q1.88013-1.62159,5.83057-1.62158a10.17364,10.17364,0,0,1,5.58935,1.22461,6.26326,6.26326,0,0,1,2.51856,3.62256l-4.57129.8457a2.82642,2.82642,0,0,0-1.1128-1.63916,4.07028,4.07028,0,0,0-2.3374-.56934,5.26753,5.26753,0,0,0-2.74316.53516,1.1473,1.1473,0,0,0-.55176.98291,1.07007,1.07007,0,0,0,.48291.87988,18.16746,18.16746,0,0,0,4.52832,1.36279,13.4846,13.4846,0,0,1,5.4082,2.15625,4.48322,4.48322,0,0,1,1.51807,3.60547,5.53386,5.53386,0,0,1-2.10449,4.33008q-2.105,1.81128-6.22754,1.81152a10.21743,10.21743,0,0,1-5.92578-1.51806A6.99039,6.99039,0,0,1,1616.71387,230.62451Z" transform="translate(-1422.56641 -42.70185)" style="fill:#7a923c"/><path d="M1646.47168,217.53125V221.395h-3.312v7.38379a18.33352,18.33352,0,0,0,.09472,2.61328,1.062,1.062,0,0,0,.43116.6123,1.36522,1.36522,0,0,0,.81982.2417,6.27165,6.27165,0,0,0,1.94922-.46582l.41406,3.76075a9.63979,9.63979,0,0,1-3.82959.7246,6.0716,6.0716,0,0,1-2.36377-.43994,3.4515,3.4515,0,0,1-1.54394-1.13867,4.4942,4.4942,0,0,1-.68115-1.88867,23.49678,23.49678,0,0,1-.15528-3.416V221.395h-2.22558v-3.86377h2.22558v-3.64014l4.86475-2.8291v6.46924Z" transform="translate(-1422.56641 -42.70185)" style="fill:#7a923c"/><path d="M1654.47607,235.85156h-4.84716V217.53125h4.50244v2.60449a7.82423,7.82423,0,0,1,2.07861-2.43213,3.8234,3.8234,0,0,1,2.09619-.58642,6.15486,6.15486,0,0,1,3.19141.91406l-1.501,4.22656a4.25642,4.25642,0,0,0-2.27734-.79345,2.69189,2.69189,0,0,0-1.7251.56054,3.83236,3.83236,0,0,0-1.1123,2.02686,28.77279,28.77279,0,0,0-.40577,6.1416Z" transform="translate(-1422.56641 -42.70185)" style="fill:#7a923c"/><path d="M1667.20752,223.12012l-4.39893-.79346a6.84968,6.84968,0,0,1,2.55274-3.93311,9.34445,9.34445,0,0,1,5.38232-1.27636,11.60246,11.60246,0,0,1,4.83057.76758,4.81705,4.81705,0,0,1,2.23389,1.94921,9.99907,9.99907,0,0,1,.647,4.33887l-.05176,5.6582a19.63578,19.63578,0,0,0,.23291,3.562,10.38231,10.38231,0,0,0,.87109,2.45849h-4.79589q-.18971-.48266-.46582-1.43164-.12085-.4314-.17237-.56933a8.73591,8.73591,0,0,1-2.65674,1.811,7.60216,7.60216,0,0,1-3.01855.604,6.24261,6.24261,0,0,1-4.45947-1.53515,5.10394,5.10394,0,0,1-1.63037-3.88184,5.20763,5.20763,0,0,1,.74169-2.76855,4.84464,4.84464,0,0,1,2.07911-1.86328,16.25838,16.25838,0,0,1,3.85547-1.12989,26.37368,26.37368,0,0,0,4.70947-1.19043v-.48291a2.51241,2.51241,0,0,0-.68994-1.99267,4.13881,4.13881,0,0,0-2.605-.59473,3.46825,3.46825,0,0,0-2.01856.50879A3.5373,3.5373,0,0,0,1667.20752,223.12012Zm6.48633,3.93359a30.33113,30.33113,0,0,1-2.9502.7417,8.89527,8.89527,0,0,0-2.63916.84521,2.0217,2.0217,0,0,0-.94873,1.708,2.37658,2.37658,0,0,0,.75879,1.75928,2.65012,2.65012,0,0,0,1.93213.74219,4.19734,4.19734,0,0,0,2.50146-.8628,3.03653,3.03653,0,0,0,1.15577-1.60449,9.57092,9.57092,0,0,0,.18994-2.36328Z" transform="translate(-1422.56641 -42.70185)" style="fill:#7a923c"/><path d="M1699.20752,222.94775l-4.77832.8628a3.47013,3.47013,0,0,0-1.0957-2.15674,3.3085,3.3085,0,0,0-2.2168-.72412,3.62136,3.62136,0,0,0-2.88916,1.25049,6.40643,6.40643,0,0,0-1.07861,4.1831q0,3.26075,1.0957,4.60645a3.59609,3.59609,0,0,0,2.94141,1.34521,3.26591,3.26591,0,0,0,2.25976-.78467,4.72342,4.72342,0,0,0,1.24219-2.6997l4.76123.81054a8.44662,8.44662,0,0,1-2.84668,4.95118,8.81054,8.81054,0,0,1-5.64111,1.67333,8.38542,8.38542,0,0,1-6.4087-2.53613,11.5579,11.5579,0,0,1,.00879-14.08545,8.51665,8.51665,0,0,1,6.48633-2.52685,8.848,8.848,0,0,1,5.32178,1.44043A7.98209,7.98209,0,0,1,1699.20752,222.94775Z" transform="translate(-1422.56641 -42.70185)" style="fill:#7a923c"/><path d="M1711.2832,217.53125V221.395h-3.312v7.38379a18.331,18.331,0,0,0,.09473,2.61328,1.06193,1.06193,0,0,0,.43115.6123,1.36522,1.36522,0,0,0,.81982.2417,6.27158,6.27158,0,0,0,1.94922-.46582l.41407,3.76075a9.63983,9.63983,0,0,1-3.82959.7246,6.07156,6.07156,0,0,1-2.36377-.43994,3.45159,3.45159,0,0,1-1.54395-1.13867,4.4942,4.4942,0,0,1-.68115-1.88867,23.49727,23.49727,0,0,1-.15527-3.416V221.395h-2.22559v-3.86377h2.22559v-3.64014l4.86474-2.8291v6.46924Z" transform="translate(-1422.56641 -42.70185)" style="fill:#7a923c"/><path d="M1723.20361,227.62305l4.96827-.4834a6.0619,6.0619,0,0,0,1.82031,3.6748,5.50067,5.50067,0,0,0,3.70019,1.17285,5.68818,5.68818,0,0,0,3.71778-1.04345,3.10642,3.10642,0,0,0,1.25048-2.44141,2.30306,2.30306,0,0,0-.52587-1.52637,4.20711,4.20711,0,0,0-1.83741-1.0957q-.89721-.31055-4.08838-1.104a13.86681,13.86681,0,0,1-5.7622-2.50147,6.5805,6.5805,0,0,1-2.32862-5.08886,6.50064,6.50064,0,0,1,1.09522-3.61426,6.8594,6.8594,0,0,1,3.15723-2.56153,12.65266,12.65266,0,0,1,4.97656-.87988q4.76147,0,7.168,2.0874a7.36732,7.36732,0,0,1,2.52734,5.57178l-5.10644.22461a4.33452,4.33452,0,0,0-1.40577-2.80322,5.14835,5.14835,0,0,0-3.23486-.854,5.83453,5.83453,0,0,0-3.48437.91407,1.84181,1.84181,0,0,0-.811,1.56982,1.94189,1.94189,0,0,0,.75928,1.53564q.96606.81079,4.69238,1.69043a24.78138,24.78138,0,0,1,5.51172,1.81983,7.1072,7.1072,0,0,1,2.79443,2.5708,7.96062,7.96062,0,0,1-.19824,8.09912,7.234,7.234,0,0,1-3.416,2.82031,14.32322,14.32322,0,0,1-5.50293.92334q-4.79589,0-7.36621-2.21679A9.64186,9.64186,0,0,1,1723.20361,227.62305Z" transform="translate(-1422.56641 -42.70185)" style="fill:#7a923c"/><path d="M1751.65088,223.12012l-4.39893-.79346a6.84968,6.84968,0,0,1,2.55274-3.93311,9.34445,9.34445,0,0,1,5.38232-1.27636,11.60246,11.60246,0,0,1,4.83057.76758,4.817,4.817,0,0,1,2.23388,1.94921,9.99888,9.99888,0,0,1,.647,4.33887l-.05176,5.6582a19.63578,19.63578,0,0,0,.23291,3.562,10.38231,10.38231,0,0,0,.87109,2.45849h-4.79589q-.18971-.48266-.46583-1.43164-.12084-.4314-.17236-.56933a8.736,8.736,0,0,1-2.65674,1.811,7.60219,7.60219,0,0,1-3.01855.604,6.24261,6.24261,0,0,1-4.45947-1.53515,5.104,5.104,0,0,1-1.63038-3.88184,5.20764,5.20764,0,0,1,.7417-2.76855,4.84464,4.84464,0,0,1,2.07911-1.86328,16.25843,16.25843,0,0,1,3.85546-1.12989,26.37361,26.37361,0,0,0,4.70948-1.19043v-.48291a2.51241,2.51241,0,0,0-.68994-1.99267,4.13881,4.13881,0,0,0-2.605-.59473,3.46825,3.46825,0,0,0-2.01856.50879A3.5373,3.5373,0,0,0,1751.65088,223.12012Zm6.48633,3.93359a30.33191,30.33191,0,0,1-2.9502.7417,8.89527,8.89527,0,0,0-2.63916.84521,2.0217,2.0217,0,0,0-.94873,1.708,2.37658,2.37658,0,0,0,.75879,1.75928,2.65012,2.65012,0,0,0,1.93213.74219,4.19734,4.19734,0,0,0,2.50146-.8628,3.03653,3.03653,0,0,0,1.15577-1.60449,9.57092,9.57092,0,0,0,.18994-2.36328Z" transform="translate(-1422.56641 -42.70185)" style="fill:#7a923c"/><path d="M1784.34131,235.85156h-4.84717v-9.3501a14.4519,14.4519,0,0,0-.31055-3.83837,2.69156,2.69156,0,0,0-1.00927-1.354,2.886,2.886,0,0,0-1.68213-.48291,3.88734,3.88734,0,0,0-2.25977.68994,3.47508,3.47508,0,0,0-1.37158,1.82862,15.79426,15.79426,0,0,0-.37061,4.209v8.29785h-4.84765V217.53125h4.50244v2.69092a7.50937,7.50937,0,0,1,8.9707-2.52735,4.92161,4.92161,0,0,1,2.00977,1.4751,5.35158,5.35158,0,0,1,.94873,2.03565,15.14378,15.14378,0,0,1,.26709,3.26025Z" transform="translate(-1422.56641 -42.70185)" style="fill:#7a923c"/><path d="M1797.65918,217.53125V221.395h-3.312v7.38379a18.33352,18.33352,0,0,0,.09472,2.61328,1.062,1.062,0,0,0,.43116.6123,1.36522,1.36522,0,0,0,.81982.2417,6.27165,6.27165,0,0,0,1.94922-.46582l.41406,3.76075a9.63979,9.63979,0,0,1-3.82959.7246,6.0716,6.0716,0,0,1-2.36377-.43994,3.4515,3.4515,0,0,1-1.54394-1.13867,4.4942,4.4942,0,0,1-.68115-1.88867,23.49678,23.49678,0,0,1-.15528-3.416V221.395h-2.22558v-3.86377h2.22558v-3.64014l4.86475-2.8291v6.46924Z" transform="translate(-1422.56641 -42.70185)" style="fill:#7a923c"/><path d="M1804.646,223.12012l-4.39893-.79346a6.84972,6.84972,0,0,1,2.55273-3.93311,9.34449,9.34449,0,0,1,5.38233-1.27636,11.60246,11.60246,0,0,1,4.83057.76758,4.817,4.817,0,0,1,2.23388,1.94921,9.99907,9.99907,0,0,1,.647,4.33887l-.05175,5.6582a19.63485,19.63485,0,0,0,.23291,3.562,10.38231,10.38231,0,0,0,.87109,2.45849h-4.7959q-.18969-.48266-.46582-1.43164-.12084-.4314-.17236-.56933a8.73615,8.73615,0,0,1-2.65674,1.811,7.60219,7.60219,0,0,1-3.01855.604,6.24265,6.24265,0,0,1-4.45948-1.53515,5.104,5.104,0,0,1-1.63037-3.88184,5.20755,5.20755,0,0,1,.7417-2.76855,4.84467,4.84467,0,0,1,2.0791-1.86328,16.25853,16.25853,0,0,1,3.85547-1.12989,26.3732,26.3732,0,0,0,4.70947-1.19043v-.48291a2.51237,2.51237,0,0,0-.68994-1.99267,4.1388,4.1388,0,0,0-2.605-.59473,3.46824,3.46824,0,0,0-2.01855.50879A3.53723,3.53723,0,0,0,1804.646,223.12012Zm6.48632,3.93359a30.33076,30.33076,0,0,1-2.95019.7417,8.89516,8.89516,0,0,0-2.63916.84521,2.0217,2.0217,0,0,0-.94873,1.708,2.37658,2.37658,0,0,0,.75879,1.75928,2.65012,2.65012,0,0,0,1.93213.74219,4.19736,4.19736,0,0,0,2.50146-.8628,3.03646,3.03646,0,0,0,1.15576-1.60449,9.57042,9.57042,0,0,0,.18994-2.36328Z" transform="translate(-1422.56641 -42.70185)" style="fill:#7a923c"/><path d="M1444.60107,259.92725h2.69092v-1.38037a9.17149,9.17149,0,0,1,.4917-3.4502,3.88987,3.88987,0,0,1,1.81152-1.85449,6.95262,6.95262,0,0,1,3.3379-.71582,13.49287,13.49287,0,0,1,4.05419.62109l-.65576,3.38135a9.57079,9.57079,0,0,0-2.22509-.27637,1.9856,1.9856,0,0,0-1.50977.4917,2.849,2.849,0,0,0-.457,1.88916v1.29395h3.62256v3.812h-3.62256v14.5083H1447.292v-14.5083h-2.69092Z" transform="translate(-1422.56641 -42.70185)" style="fill:#7a923c"/><path d="M1463.12842,278.24756h-4.84717V259.92725h4.50244v2.60449a7.82411,7.82411,0,0,1,2.07861-2.43213,3.82342,3.82342,0,0,1,2.0962-.58643,6.15475,6.15475,0,0,1,3.1914.91407l-1.501,4.22656a4.2565,4.2565,0,0,0-2.27735-.79346,2.69184,2.69184,0,0,0-1.7251.56055,3.83229,3.83229,0,0,0-1.1123,2.02685,28.77313,28.77313,0,0,0-.40576,6.14161Z" transform="translate(-1422.56641 -42.70185)" style="fill:#7a923c"/><path d="M1471.11572,268.82861a9.91409,9.91409,0,0,1,1.19043-4.67529,8.17188,8.17188,0,0,1,3.37256-3.4502,10.00846,10.00846,0,0,1,4.87354-1.18994,9.14672,9.14672,0,0,1,6.814,2.69971,9.32806,9.32806,0,0,1,2.65674,6.82275,9.44,9.44,0,0,1-2.68262,6.89161,9.06566,9.06566,0,0,1-6.7539,2.73437,10.63339,10.63339,0,0,1-4.8042-1.13867,7.80789,7.80789,0,0,1-3.47608-3.33789A11.12323,11.12323,0,0,1,1471.11572,268.82861Zm4.96826.25879a6.06881,6.06881,0,0,0,1.29395,4.17481,4.22986,4.22986,0,0,0,6.374,0,6.1533,6.1533,0,0,0,1.28516-4.20948,6.0398,6.0398,0,0,0-1.28516-4.14013,4.22892,4.22892,0,0,0-6.374,0A6.0688,6.0688,0,0,0,1476.084,269.0874Z" transform="translate(-1422.56641 -42.70185)" style="fill:#7a923c"/><path d="M1493.45605,259.92725h4.46778v2.501a7.1899,7.1899,0,0,1,5.71-2.915,6.15208,6.15208,0,0,1,3.05371.72412,5.57309,5.57309,0,0,1,2.12158,2.19092,8.477,8.477,0,0,1,2.605-2.19092,6.392,6.392,0,0,1,2.98438-.72412,6.64714,6.64714,0,0,1,3.416.81934,5.02252,5.02252,0,0,1,2.08692,2.40625,10.44072,10.44072,0,0,1,.50049,3.79541v11.71338h-4.84766V267.77637a7.79381,7.79381,0,0,0-.5-3.51953,2.29665,2.29665,0,0,0-2.07031-1.03467,3.30436,3.30436,0,0,0-1.91455.6206,3.44364,3.44364,0,0,0-1.29395,1.82032,13.08818,13.08818,0,0,0-.397,3.78662v8.79785h-4.84766v-10.04a13.90818,13.90818,0,0,0-.25879-3.4502,2.19956,2.19956,0,0,0-.80176-1.15576,2.53677,2.53677,0,0,0-1.47509-.37939,3.53474,3.53474,0,0,0-2.01856.60351,3.31343,3.31343,0,0,0-1.28515,1.74219,12.95266,12.95266,0,0,0-.38819,3.77832v8.90137h-4.84717Z" transform="translate(-1422.56641 -42.70185)" style="fill:#7a923c"/><path d="M1538.46338,278.24756l-5.79639-18.32031h4.70947l3.43311,12.00634,3.15674-12.00634h4.67529l3.05322,12.00634,3.502-12.00634h4.77832l-5.88233,18.32031h-4.65771l-3.15723-11.78223-3.105,11.78223Z" transform="translate(-1422.56641 -42.70185)" style="fill:#7a923c"/><path d="M1561.40723,268.82861a9.914,9.914,0,0,1,1.19043-4.67529,8.17186,8.17186,0,0,1,3.37255-3.4502,10.00849,10.00849,0,0,1,4.87354-1.18994,9.1467,9.1467,0,0,1,6.814,2.69971,9.32806,9.32806,0,0,1,2.65674,6.82275,9.44,9.44,0,0,1-2.68261,6.89161,9.06568,9.06568,0,0,1-6.75391,2.73437,10.63342,10.63342,0,0,1-4.8042-1.13867,7.80782,7.80782,0,0,1-3.47607-3.33789A11.12311,11.12311,0,0,1,1561.40723,268.82861Zm4.96826.25879a6.06881,6.06881,0,0,0,1.29394,4.17481,4.22987,4.22987,0,0,0,6.374,0,6.15335,6.15335,0,0,0,1.28515-4.20948,6.03985,6.03985,0,0,0-1.28515-4.14013,4.22893,4.22893,0,0,0-6.374,0A6.0688,6.0688,0,0,0,1566.37549,269.0874Z" transform="translate(-1422.56641 -42.70185)" style="fill:#7a923c"/><path d="M1588.75,278.24756h-4.84717V259.92725h4.50244v2.60449a7.824,7.824,0,0,1,2.07862-2.43213,3.82336,3.82336,0,0,1,2.09619-.58643,6.15475,6.15475,0,0,1,3.1914.91407l-1.501,4.22656a4.2565,4.2565,0,0,0-2.27735-.79346,2.69181,2.69181,0,0,0-1.72509.56055,3.83229,3.83229,0,0,0-1.11231,2.02685,28.77313,28.77313,0,0,0-.40576,6.14161Z" transform="translate(-1422.56641 -42.70185)" style="fill:#7a923c"/><path d="M1597.686,278.24756v-25.29h4.84765v13.42139l5.67578-6.45166h5.96875l-6.2622,6.69336,6.71044,11.627h-5.227l-4.60595-8.22852-2.25977,2.36328v5.86524Z" transform="translate(-1422.56641 -42.70185)" style="fill:#7a923c"/><path d="M1617.50781,278.24756V273.3999h4.84717v4.84766Z" transform="translate(-1422.56641 -42.70185)" style="fill:#7a923c"/><path d="M1637.24219,278.24756v-25.29h5.10644V264.188l10.31641-11.23047h6.86572l-9.52246,9.85059,10.04,15.43945h-6.60742l-6.95215-11.86865-4.14014,4.22656v7.64209Z" transform="translate(-1422.56641 -42.70185)" style="fill:#7a923c"/><path d="M1673.26221,272.4165l4.83056.811a7.92389,7.92389,0,0,1-2.9414,4.04541,8.64115,8.64115,0,0,1-5.02881,1.38867q-4.77832,0-7.07276-3.12256a10.48977,10.48977,0,0,1-1.81152-6.314,10.11756,10.11756,0,0,1,2.38086-7.1333,7.84129,7.84129,0,0,1,6.02051-2.57862,8.13392,8.13392,0,0,1,6.45215,2.69971q2.36279,2.69971,2.25976,8.27149h-12.145a4.905,4.905,0,0,0,1.17334,3.35546,3.66761,3.66761,0,0,0,2.79444,1.19922,2.96812,2.96812,0,0,0,1.915-.62109A3.83562,3.83562,0,0,0,1673.26221,272.4165Zm.27636-4.89892a4.66875,4.66875,0,0,0-1.08691-3.2002,3.49828,3.49828,0,0,0-5.14062.06055,4.46931,4.46931,0,0,0-1.01807,3.13965Z" transform="translate(-1422.56641 -42.70185)" style="fill:#7a923c"/><path d="M1692.91113,272.4165l4.83057.811a7.92385,7.92385,0,0,1-2.94141,4.04541,8.6411,8.6411,0,0,1-5.02881,1.38867q-4.77831,0-7.07275-3.12256a10.4897,10.4897,0,0,1-1.81152-6.314,10.11752,10.11752,0,0,1,2.38086-7.1333,7.84128,7.84128,0,0,1,6.0205-2.57862,8.1339,8.1339,0,0,1,6.45215,2.69971q2.3628,2.69971,2.25977,8.27149h-12.145a4.905,4.905,0,0,0,1.17334,3.35546,3.6676,3.6676,0,0,0,2.79443,1.19922,2.9681,2.9681,0,0,0,1.915-.62109A3.83556,3.83556,0,0,0,1692.91113,272.4165Zm.27637-4.89892a4.6688,4.6688,0,0,0-1.08691-3.2002,3.49829,3.49829,0,0,0-5.14063.06055,4.46936,4.46936,0,0,0-1.01807,3.13965Z" transform="translate(-1422.56641 -42.70185)" style="fill:#7a923c"/><path d="M1701.813,259.92725h4.51953v2.69091a6.77034,6.77034,0,0,1,2.38086-2.24267,6.56492,6.56492,0,0,1,3.32959-.86231,6.98576,6.98576,0,0,1,5.4165,2.501,10.12463,10.12463,0,0,1,2.22559,6.96973q0,4.58862-2.24268,7.1333a6.98746,6.98746,0,0,1-5.43408,2.54443,6.16786,6.16786,0,0,1-2.75146-.604,9.26558,9.26558,0,0,1-2.5962-2.06983v9.229H1701.813Zm4.7959,8.84961a7.05551,7.05551,0,0,0,1.22461,4.563,3.74729,3.74729,0,0,0,2.98437,1.47461,3.50278,3.50278,0,0,0,2.812-1.354,6.97738,6.97738,0,0,0,1.1211-4.44238,6.62057,6.62057,0,0,0-1.15577-4.27784,3.57522,3.57522,0,0,0-2.86376-1.39746,3.71766,3.71766,0,0,0-2.94971,1.37159A6.10305,6.10305,0,0,0,1706.60889,268.77686Z" transform="translate(-1422.56641 -42.70185)" style="fill:#7a923c"/><path d="M1733.34814,278.24756v-25.29h4.84717v25.29Z" transform="translate(-1422.56641 -42.70185)" style="fill:#7a923c"/><path d="M1742.042,268.82861a9.914,9.914,0,0,1,1.19043-4.67529,8.17188,8.17188,0,0,1,3.37256-3.4502,10.00846,10.00846,0,0,1,4.87354-1.18994,9.14672,9.14672,0,0,1,6.814,2.69971,9.32806,9.32806,0,0,1,2.65674,6.82275,9.44,9.44,0,0,1-2.68262,6.89161,9.06566,9.06566,0,0,1-6.7539,2.73437,10.63339,10.63339,0,0,1-4.8042-1.13867,7.80789,7.80789,0,0,1-3.47608-3.33789A11.12311,11.12311,0,0,1,1742.042,268.82861Zm4.96826.25879a6.06881,6.06881,0,0,0,1.29395,4.17481,4.22986,4.22986,0,0,0,6.374,0,6.1533,6.1533,0,0,0,1.28516-4.20948,6.0398,6.0398,0,0,0-1.28516-4.14013,4.22892,4.22892,0,0,0-6.374,0A6.0688,6.0688,0,0,0,1747.01025,269.0874Z" transform="translate(-1422.56641 -42.70185)" style="fill:#7a923c"/><path d="M1763.62305,268.82861a9.914,9.914,0,0,1,1.19043-4.67529,8.17182,8.17182,0,0,1,3.37256-3.4502,10.00843,10.00843,0,0,1,4.87353-1.18994,9.14674,9.14674,0,0,1,6.814,2.69971,9.3281,9.3281,0,0,1,2.65673,6.82275,9.44,9.44,0,0,1-2.68261,6.89161,9.06568,9.06568,0,0,1-6.75391,2.73437,10.63342,10.63342,0,0,1-4.8042-1.13867,7.80782,7.80782,0,0,1-3.47607-3.33789A11.12311,11.12311,0,0,1,1763.62305,268.82861Zm4.96826.25879a6.06881,6.06881,0,0,0,1.29394,4.17481,4.22987,4.22987,0,0,0,6.374,0,6.15335,6.15335,0,0,0,1.28515-4.20948,6.03985,6.03985,0,0,0-1.28515-4.14013,4.22893,4.22893,0,0,0-6.374,0A6.0688,6.0688,0,0,0,1768.59131,269.0874Z" transform="translate(-1422.56641 -42.70185)" style="fill:#7a923c"/><path d="M1786.15283,278.24756v-25.29h4.84766v13.42139l5.67578-6.45166h5.96875l-6.26221,6.69336,6.71045,11.627h-5.22705l-4.606-8.22852-2.25976,2.36328v5.86524Z" transform="translate(-1422.56641 -42.70185)" style="fill:#7a923c"/><path d="M1805.97461,257.44287v-4.48535h4.84717v4.48535Zm0,20.80469V259.92725h4.84717v18.32031Z" transform="translate(-1422.56641 -42.70185)" style="fill:#7a923c"/><path d="M1832.45459,278.24756h-4.84717v-9.3501a14.45215,14.45215,0,0,0-.31054-3.83838,2.69164,2.69164,0,0,0-1.00928-1.354,2.886,2.886,0,0,0-1.68213-.48291,3.88737,3.88737,0,0,0-2.25977.68994,3.47509,3.47509,0,0,0-1.37158,1.82861,15.79442,15.79442,0,0,0-.3706,4.209v8.29785h-4.84766V259.92725h4.50244v2.69091a7.50933,7.50933,0,0,1,8.9707-2.52734,4.92143,4.92143,0,0,1,2.00977,1.4751,5.35153,5.35153,0,0,1,.94873,2.03564,15.14388,15.14388,0,0,1,.26709,3.26026Z" transform="translate(-1422.56641 -42.70185)" style="fill:#7a923c"/><path d="M1836.92236,279.45508l5.5376.67285a1.88889,1.88889,0,0,0,.63818,1.32812,3.64308,3.64308,0,0,0,2.17383.51758,5.64155,5.64155,0,0,0,2.84619-.56933,2.34782,2.34782,0,0,0,.96631-1.22461,7.38348,7.38348,0,0,0,.22412-2.22559v-2.67383a6.55887,6.55887,0,0,1-5.48584,2.96729,6.7522,6.7522,0,0,1-5.84814-3.12256,10.60977,10.60977,0,0,1-1.69043-6.14111q0-4.6062,2.2168-7.03858a7.15257,7.15257,0,0,1,5.51172-2.43213,6.71063,6.71063,0,0,1,5.60644,2.98438v-2.57031h4.53711v16.43994a16.38227,16.38227,0,0,1-.53516,4.84765,6.013,6.013,0,0,1-1.50048,2.51856,6.64306,6.64306,0,0,1-2.57911,1.43164,13.57346,13.57346,0,0,1-4.08007.51758q-4.65747,0-6.60694-1.59571a5.00546,5.00546,0,0,1-1.94922-4.04541Q1836.90527,279.79981,1836.92236,279.45508Zm4.33008-10.74707a6.6064,6.6064,0,0,0,1.12988,4.26953,3.493,3.493,0,0,0,2.78614,1.354,3.8522,3.8522,0,0,0,3.00146-1.38867,6.05306,6.05306,0,0,0,1.2251-4.11426,6.41541,6.41541,0,0,0-1.17334-4.22656,3.72783,3.72783,0,0,0-2.96729-1.37988,3.5773,3.5773,0,0,0-2.87207,1.354A6.35075,6.35075,0,0,0,1841.25244,268.708Z" transform="translate(-1422.56641 -42.70185)" style="fill:#7a923c"/><path d="M1860.84961,271.72656l-1.25928-12.83447v-5.93457h5.24414v5.93457l-1.24218,12.83447Zm-1.05225,6.521V273.3999h4.84717v4.84766Z" transform="translate(-1422.56641 -42.70185)" style="fill:#7a923c"/><path d="M1644.37375,353.70906l-1.02637,1.33911Q1643.8751,354.38826,1644.37375,353.70906Z" transform="translate(-1422.56641 -42.70185)" style="fill:#02263c"/><path d="M1662.41818,330.16877l-.06689.08716c.043-.02807.083-.0603.12622-.08789Z" transform="translate(-1422.56641 -42.70185)" style="fill:#02263c"/><path d="M1480.03613,82.84277l.292,10.51661-13.63281-.19434.09668,3.89551,6.96289-.38965.04883,6.42676h-6.33008l.14649,4.47949,13.14648-.7793.14551,12.61133-25.02637.73047L1453.792,82.8916Z" transform="translate(-1422.56641 -42.70185)" style="fill:#d86600"/><path d="M1486.46289,82.84277l11.68555.97364,9.59179,17.042L1506.085,84.64453h11.14942l.73046,32.13477-13,3.36035-9.59179-19.2334-.82813,17.72363-11.14941-2.6289,3.06738-32.52539Z" transform="translate(-1422.56641 -42.70185)" style="fill:#d86600"/><path d="M1521.08008,84.74121l33.54785-1.89844.584,16.84668-12.80566-.68164,3.84668,21.13184-16.457-1.75293,2.82422-18.98926-11.832.34082Z" transform="translate(-1422.56641 -42.70185)" style="fill:#d86600"/><path d="M1571.377,119.11719l-11.53906-1.46094-1.75293-34.375a41.10587,41.10587,0,0,1,8.27734-.38965q2.43312.09815,4.74708.36524,2.31151.26807,4.64941.70605a39.09038,39.09038,0,0,1,8.18066,2.62891q3.6504,1.80175,4.625,4.1875a6.84854,6.84854,0,0,1-.73047,6.52441,19.55088,19.55088,0,0,1-5.502,5.45313l13.63379,8.56933-11.73437,8.81348-10.95508-14.36426-2.43457-.04883Zm-1.21679-21.22949a11.03646,11.03646,0,0,0,4.96582-1.84961,4.73725,4.73725,0,0,0,2.14257-2.92188,2.73822,2.73822,0,0,0-1.46093-2.72656q-1.65528-1.21583-5.74512-1.36328Z" transform="translate(-1422.56641 -42.70185)" style="fill:#d86600"/><path d="M1625.47168,82.84277l11.39355,33.10938-12.07519,4.1875-2.38574-7.30371h-9.34864l-2.1914,7.15722-11.87988-5.55078,12.123-30.6748Zm-3.99316,22.34864-3.55372-8.61817-3.65234,8.47168Z" transform="translate(-1422.56641 -42.70185)" style="fill:#d86600"/><path d="M1642.95117,82.84277l11.68555.97364,9.5918,17.042-1.65528-16.21387h11.14942l.73046,32.13477-13,3.36035-9.59179-19.2334-.82813,17.72363-11.14941-2.6289,3.06738-32.52539Z" transform="translate(-1422.56641 -42.70185)" style="fill:#d86600"/><path d="M1707.95215,92.77539q-9.49512-1.60694-13.7793,2.09375-4.28613,3.65185-3.79785,7.79.48486,4.13965,5.502,6.33008,5.01417,2.19141,14.2168-2.43457l5.06445,10.22461a24.05249,24.05249,0,0,1-10.8584,3.26269,35.317,35.317,0,0,1-12.31835-1.16894,26.27455,26.27455,0,0,1-10.22461-5.45313,12.87566,12.87566,0,0,1-4.4795-9.5918,16.351,16.351,0,0,1,3.16407-10.80957,24.07051,24.07051,0,0,1,8.57031-7.25488,27.02794,27.02794,0,0,1,11.10058-2.87207,20.09652,20.09652,0,0,1,10.61426,2.19043Z" transform="translate(-1422.56641 -42.70185)" style="fill:#d86600"/><path d="M1744.41992,82.84277l.293,10.51661L1731.0791,93.165l.09766,3.89551,6.96289-.38965.04883,6.42676h-6.33008l.14551,4.47949,13.14648-.7793.14649,12.61133-25.02637.73047-2.09375-37.24805Z" transform="translate(-1422.56641 -42.70185)" style="fill:#d86600"/><path d="M1774.12012,82.84277l25.416,1.168.04883,10.41992L1785.416,93.457l.48632,4.43067,6.81739-.04883.77832,8.91015-6.71875-.38867,1.12011,13.7793-11.54-.97461Z" transform="translate(-1422.56641 -42.70185)" style="fill:#d86600"/><path d="M1839.70508,103.14648q-.58447,8.56935-6.62207,12.80567a21.92545,21.92545,0,0,1-13,4.1875,20.49288,20.49288,0,0,1-12.61133-4.28516q-5.64845-4.18651-5.502-12.708a18.279,18.279,0,0,1,2.09375-8.32617,23.75623,23.75623,0,0,1,5.25879-6.47558,22.37334,22.37334,0,0,1,7.01074-4.13868,19.112,19.112,0,0,1,7.54687-1.36328,18.31536,18.31536,0,0,1,4.57715,1.02246,16.83485,16.83485,0,0,1,5.502,3.21387,18.23042,18.23042,0,0,1,4.38184,6.1836A21.92976,21.92976,0,0,1,1839.70508,103.14648Zm-13.68262-4.334a.79678.79678,0,0,0,.34082-.24316,1.24734,1.24734,0,0,0,.292-.292,3.61575,3.61575,0,0,0,1.21778-2.67773,5.0661,5.0661,0,0,0-.82813-2.58106c-.06543-.06445-.14551-.13769-.24316-.21875s-.19434-.17089-.292-.26757q-.09814-.09669-.21973-.21973a1.82637,1.82637,0,0,0-.26758-.21875,6.658,6.658,0,0,0-2.53125-.97363,4.48916,4.48916,0,0,0-2.92187.43847,5.22014,5.22014,0,0,0-1.07129.584,9.7635,9.7635,0,0,0-.82715.584,3.96051,3.96051,0,0,0-1.2666,2.873,4.947,4.947,0,0,0,1.02246,2.72656,1.888,1.888,0,0,1,.1709.19434,1.69667,1.69667,0,0,0,.16992.19531,1.3275,1.3275,0,0,1,.19531.12109,2.01444,2.01444,0,0,1,.19434.1709,5.31743,5.31743,0,0,0,3.165,1.16895,5.2544,5.2544,0,0,0,3.749-1.41211Z" transform="translate(-1422.56641 -42.70185)" style="fill:#d86600"/><path d="M1856.40527,119.11719l-11.54-1.46094-1.75293-34.375a41.10986,41.10986,0,0,1,8.27735-.38965q2.43457.09815,4.74707.36524,2.313.26807,4.65039.70605a39.06244,39.06244,0,0,1,8.17969,2.62891q3.65186,1.80175,4.626,4.1875a6.85117,6.85117,0,0,1-.73047,6.52441,19.56371,19.56371,0,0,1-5.502,5.45313l13.63281,8.56933-11.73437,8.81348-10.95508-14.36426-2.43457-.04883ZM1855.1875,97.8877a11.03615,11.03615,0,0,0,4.9668-1.84961,4.73514,4.73514,0,0,0,2.1416-2.92188,2.73732,2.73732,0,0,0-1.46-2.72656q-1.65674-1.21583-5.7461-1.36328Z" transform="translate(-1422.56641 -42.70185)" style="fill:#d86600"/><path d="M1470.44336,163.91113a32.85855,32.85855,0,0,0,4.86914,1.65528,20.25755,20.25755,0,0,0,4.334.73047q1.8003.09813,2.14161-.48633.438-.58448-1.65528-1.99707-2.23974-1.55714-4.38183-3.23731-2.14307-1.68018-4.23633-3.5791a9.21027,9.21027,0,0,1-3.06738-9.00781q1.02246-5.30567,5.1123-6.23242a18.0414,18.0414,0,0,1,8.959.34082,38.43534,38.43534,0,0,1,9.251,3.8955,29.10073,29.10073,0,0,1,6.13477,4.38184l-4.57618,7.10938a6.93734,6.93734,0,0,0-1.4121-1.04688q-.876-.51123-2.14258-1.14453a26.18765,26.18765,0,0,0-4.43067-1.65527q-1.89843-.438-2.24023.19433-.29151.58447,3.01953,3.31152a78.75041,78.75041,0,0,0,7.05957,5.16114q2.48291,1.55859,3.2627,6.08593a6.33135,6.33135,0,0,1-2.4834,6.57325,17.84116,17.84116,0,0,1-7.98535,3.21386,31.16763,31.16763,0,0,1-10.127,0,21.18839,21.18839,0,0,1-8.81347-3.165Z" transform="translate(-1422.56641 -42.70185)" style="fill:#d86600"/><path d="M1527.02051,141.27051l11.39355,33.10937-12.07519,4.1875-2.38575-7.30371h-9.34863l-2.19043,7.15723-11.88086-5.55078,12.124-30.67481Zm-3.99219,22.34863-3.55469-8.61816-3.65136,8.47168Z" transform="translate(-1422.56641 -42.70185)" style="fill:#d86600"/><path d="M1544.5,141.27051l11.68555.97363,9.59179,17.042-1.65527-16.21386h11.15039l.73047,32.13476-13.001,3.36035-9.59179-19.2334-.82715,17.72364-11.15039-2.62891L1544.5,141.90332Z" transform="translate(-1422.56641 -42.70185)" style="fill:#d86600"/><path d="M1579.11816,143.169l33.54786-1.89844.584,16.84668-12.80566-.68164,3.84668,21.13183-16.457-1.75293,2.82422-18.98925-11.832.34082Z" transform="translate(-1422.56641 -42.70185)" style="fill:#d86600"/><path d="M1642.60938,141.27051l11.39355,33.10937-12.0752,4.1875-2.38574-7.30371h-9.34863l-2.19043,7.15723-11.88086-5.55078,12.124-30.67481Zm-3.99219,22.34863-3.55469-8.61816-3.65137,8.47168Z" transform="translate(-1422.56641 -42.70185)" style="fill:#d86600"/><path d="M1714.03711,151.20312q-9.49512-1.60692-13.7793,2.09376-4.28466,3.65186-3.79785,7.79.48633,4.13966,5.502,6.33008,5.01417,2.19141,14.21778-2.43457l5.06347,10.22461a24.04456,24.04456,0,0,1-10.85742,3.2627,35.32257,35.32257,0,0,1-12.31933-1.16895,26.28824,26.28824,0,0,1-10.22461-5.45312,12.88256,12.88256,0,0,1-4.4795-9.5918,16.35156,16.35156,0,0,1,3.165-10.80957,24.059,24.059,0,0,1,8.56934-7.25488,27.03615,27.03615,0,0,1,11.10156-2.87207,20.09837,20.09837,0,0,1,10.61426,2.19043Z" transform="translate(-1422.56641 -42.70185)" style="fill:#d86600"/><path d="M1738.23633,141.22168l1.55762,28.0459,12.416-1.7041.292,9.34765-24.2959,1.65625-3.94433-36.90722Z" transform="translate(-1422.56641 -42.70185)" style="fill:#d86600"/><path d="M1781.47266,141.27051l11.39355,33.10937-12.07519,4.1875-2.38575-7.30371h-9.34863l-2.19141,7.15723-11.87988-5.55078,12.12305-30.67481Zm-3.99317,22.34863-3.55371-8.61816-3.65234,8.47168Z" transform="translate(-1422.56641 -42.70185)" style="fill:#d86600"/><path d="M1812.63379,145.31152q-.24464.68262-.63281,1.82618-.39112,1.144-.92481,2.751a30.23273,30.23273,0,0,0-1.31543,6.57324,11.84121,11.84121,0,0,0,.7793,5.94043q1.11913,2.58106,4.918,2.48243a4.3052,4.3052,0,0,0,3.89453-1.70411,8.50862,8.50862,0,0,0,1.36426-4.23535,21.01,21.01,0,0,0-.19532-5.30761l-.68164-5.01465,10.3711-1.99707q.58448,1.85156,1.24121,4.11425.6577,2.26466,1.33887,5.04a24.90072,24.90072,0,0,1,.63378,10.56543,14.11741,14.11741,0,0,1-5.01562,8.71582q-4.188,3.60352-14.16895,3.50586-9.5918,0-13.53515-4.52832a18.41359,18.41359,0,0,1-4.67481-10.5664,34.86975,34.86975,0,0,1,.82813-12.36719,96.0335,96.0335,0,0,1,2.77539-9.835Z" transform="translate(-1422.56641 -42.70185)" style="fill:#d86600"/><path d="M1840.67871,163.91113a32.85894,32.85894,0,0,0,4.86914,1.65528,20.25753,20.25753,0,0,0,4.334.73047q1.80029.09813,2.1416-.48633.438-.58448-1.65528-1.99707-2.23974-1.55714-4.38183-3.23731-2.14306-1.68018-4.23633-3.5791a9.21029,9.21029,0,0,1-3.06738-9.00781q1.02246-5.30567,5.1123-6.23242a18.04144,18.04144,0,0,1,8.959.34082,38.43544,38.43544,0,0,1,9.251,3.8955,29.10046,29.10046,0,0,1,6.13477,4.38184l-4.57617,7.10938a6.93771,6.93771,0,0,0-1.41211-1.04688q-.876-.51123-2.14258-1.14453a26.18734,26.18734,0,0,0-4.43067-1.65527q-1.89843-.438-2.24023.19433-.29151.58447,3.01953,3.31152a78.75331,78.75331,0,0,0,7.05957,5.16114q2.48292,1.55859,3.2627,6.08593a6.33134,6.33134,0,0,1-2.4834,6.57325,17.84116,17.84116,0,0,1-7.98535,3.21386,31.16763,31.16763,0,0,1-10.127,0,21.18839,21.18839,0,0,1-8.81347-3.165Z" transform="translate(-1422.56641 -42.70185)" style="fill:#d86600"/></svg>