<svg id="1db4ec64-5474-47c6-bdca-484141758544" data-name="ПЕРЕВОД_не фанерные объекты_клик" xmlns="http://www.w3.org/2000/svg" viewBox="0 0 431.49082 532.82121"><title>sveza_ny_game-curves-узкая версия-eng-с украшенной желтой стеной</title><rect x="8.97127" y="6.26253" width="422.51955" height="526.55868" rx="12" ry="12" style="fill:#3a301f"/><rect width="422.51955" height="526.55868" rx="12" ry="12" style="fill:#fff"/><path d="M3569.17773,103.833h9.332a18.23715,18.23715,0,0,1,4.81347.48291,8.46336,8.46336,0,0,1,3.8125,2.3291,11.05337,11.05337,0,0,1,2.415,4.09717,18.64365,18.64365,0,0,1,.82813,5.97754,16.64931,16.64931,0,0,1-.77539,5.38232,11.15811,11.15811,0,0,1-2.709,4.46777,8.97726,8.97726,0,0,1-3.58789,2.01856,15.45616,15.45616,0,0,1-4.51953.53467h-9.60938Zm5.10645,4.27832v16.75049h3.81152a13.91734,13.91734,0,0,0,3.08887-.24121,4.72064,4.72064,0,0,0,2.06152-1.05225,5.35544,5.35544,0,0,0,1.33692-2.44092,16.51566,16.51566,0,0,0,.5166-4.63232,15.12662,15.12662,0,0,0-.5166-4.50244,5.7871,5.7871,0,0,0-1.44922-2.44971,4.86165,4.86165,0,0,0-2.36328-1.18994,23.14168,23.14168,0,0,0-4.19239-.2417Z" transform="translate(-3486.11644 -20.0918)" style="fill:#7a923c"/><path d="M3593.55273,119.7041a9.90951,9.90951,0,0,1,1.19141-4.67529,8.168,8.168,0,0,1,3.37207-3.4502,10.00766,10.00766,0,0,1,4.874-1.18994,9.14481,9.14481,0,0,1,6.81348,2.69971,9.33038,9.33038,0,0,1,2.65723,6.82275,9.43674,9.43674,0,0,1-2.6836,6.8916,9.06411,9.06411,0,0,1-6.7539,2.73438,10.633,10.633,0,0,1-4.80371-1.13867,7.80179,7.80179,0,0,1-3.47559-3.33789A11.11758,11.11758,0,0,1,3593.55273,119.7041Zm4.96875.25879a6.07122,6.07122,0,0,0,1.294,4.17481,4.22986,4.22986,0,0,0,6.374,0,6.15084,6.15084,0,0,0,1.28516-4.20948,6.03735,6.03735,0,0,0-1.28516-4.14013,4.22892,4.22892,0,0,0-6.374,0A6.07119,6.07119,0,0,0,3598.52148,119.96289Z" transform="translate(-3486.11644 -20.0918)" style="fill:#7a923c"/><path d="M3632.91992,129.12305h-4.84765V119.773a14.452,14.452,0,0,0-.31055-3.83838,2.69068,2.69068,0,0,0-1.00879-1.354,2.88655,2.88655,0,0,0-1.68262-.48291,3.89061,3.89061,0,0,0-2.25976.68994,3.47914,3.47914,0,0,0-1.3711,1.82861,15.76776,15.76776,0,0,0-.37109,4.209v8.29785h-4.84766V110.80273h4.50293v2.69092a7.50936,7.50936,0,0,1,8.97071-2.52734,4.91484,4.91484,0,0,1,2.00976,1.4751,5.336,5.336,0,0,1,.94824,2.03564,15.10631,15.10631,0,0,1,.26758,3.26025Z" transform="translate(-3486.11644 -20.0918)" style="fill:#7a923c"/><path d="M3637.71582,103.90234h4.84766v3.46729a12.06013,12.06013,0,0,1-.36231,3.3208,4.97523,4.97523,0,0,1-1.37109,2.18213,7.07463,7.07463,0,0,1-2.5625,1.51806l-.94824-2.001a4.0777,4.0777,0,0,0,2.08691-1.32861,3.99638,3.99638,0,0,0,.65625-2.31153h-2.34668Z" transform="translate(-3486.11644 -20.0918)" style="fill:#7a923c"/><path d="M3656.05371,110.80273v3.86377h-3.31152v7.38379a18.57663,18.57663,0,0,0,.09375,2.61328,1.06278,1.06278,0,0,0,.43164.61231,1.36679,1.36679,0,0,0,.82031.2417,6.28086,6.28086,0,0,0,1.94922-.46582l.41406,3.76074a9.64389,9.64389,0,0,1-3.83008.72461,6.06583,6.06583,0,0,1-2.36328-.43994,3.45221,3.45221,0,0,1-1.54492-1.13867,4.49429,4.49429,0,0,1-.68066-1.88868,23.49651,23.49651,0,0,1-.15528-3.416V114.6665h-2.22558v-3.86377h2.22558V107.1626l4.86524-2.8291v6.46923Z" transform="translate(-3486.11644 -20.0918)" style="fill:#7a923c"/><path d="M3669.02734,129.12305v-25.29h4.84668v9.1084a6.86087,6.86087,0,0,1,5.31348-2.55274,7.14464,7.14464,0,0,1,5.53711,2.42334q2.19141,2.42431,2.19141,6.96094,0,4.69263-2.23438,7.228a6.97056,6.97056,0,0,1-5.42578,2.53613,6.70312,6.70312,0,0,1-3.0957-.78516,7.40536,7.40536,0,0,1-2.63086-2.31982v2.69092Zm4.8125-9.55713a7.79694,7.79694,0,0,0,.89649,4.20947,3.83561,3.83561,0,0,0,3.34765,1.93213,3.43276,3.43276,0,0,0,2.73438-1.37158,6.75779,6.75779,0,0,0,1.12891-4.32129,7.15,7.15,0,0,0-1.13868-4.52832,3.60182,3.60182,0,0,0-2.915-1.38867,3.65028,3.65028,0,0,0-2.89746,1.354A6.21286,6.21286,0,0,0,3673.83984,119.56592Z" transform="translate(-3486.11644 -20.0918)" style="fill:#7a923c"/><path d="M3701.42383,123.292l4.83008.811a7.924,7.924,0,0,1-2.94141,4.04541,8.6395,8.6395,0,0,1-5.02832,1.38867q-4.77833,0-7.07324-3.12256a10.49268,10.49268,0,0,1-1.81055-6.314,10.11307,10.11307,0,0,1,2.38086-7.1333,7.83922,7.83922,0,0,1,6.01953-2.57862,8.13458,8.13458,0,0,1,6.45313,2.69971q2.36132,2.6997,2.25976,8.27148h-12.14551a4.90479,4.90479,0,0,0,1.17286,3.35547,3.66935,3.66935,0,0,0,2.79492,1.19922,2.96719,2.96719,0,0,0,1.915-.62109A3.83566,3.83566,0,0,0,3701.42383,123.292Zm.27637-4.89892a4.6688,4.6688,0,0,0-1.08692-3.2002,3.49828,3.49828,0,0,0-5.14062.06055,4.46912,4.46912,0,0,0-1.01758,3.13965Z" transform="translate(-3486.11644 -20.0918)" style="fill:#7a923c"/><path d="M3723.90234,116.3916l-4.39843-.79346a6.84727,6.84727,0,0,1,2.55273-3.9331,9.34157,9.34157,0,0,1,5.38184-1.27637,11.60651,11.60651,0,0,1,4.83105.76758,4.81557,4.81557,0,0,1,2.2334,1.94922,10.00485,10.00485,0,0,1,.64746,4.33887l-.05273,5.6582a19.62572,19.62572,0,0,0,.23339,3.562,10.38287,10.38287,0,0,0,.8711,2.4585h-4.7959q-.19042-.48267-.46582-1.43164c-.08105-.2876-.1377-.47705-.17285-.56934a8.72834,8.72834,0,0,1-2.65625,1.811,7.60393,7.60393,0,0,1-3.01856.604,6.24548,6.24548,0,0,1-4.46-1.53516,5.107,5.107,0,0,1-1.62988-3.88183,5.21168,5.21168,0,0,1,.74121-2.76856,4.84452,4.84452,0,0,1,2.08008-1.86328,16.244,16.244,0,0,1,3.85547-1.12988,26.36586,26.36586,0,0,0,4.709-1.19043v-.48291a2.514,2.514,0,0,0-.68945-1.99268,4.14152,4.14152,0,0,0-2.60547-.59472,3.46814,3.46814,0,0,0-2.01855.50879A3.53417,3.53417,0,0,0,3723.90234,116.3916Zm6.48633,3.9336a30.32844,30.32844,0,0,1-2.95019.74169,8.90484,8.90484,0,0,0-2.63965.84522,2.02118,2.02118,0,0,0-.94824,1.708,2.37656,2.37656,0,0,0,.75879,1.75927,2.64974,2.64974,0,0,0,1.93164.74219,4.19555,4.19555,0,0,0,2.50195-.86279,3.04263,3.04263,0,0,0,1.15625-1.60449,9.6028,9.6028,0,0,0,.18945-2.36328Z" transform="translate(-3486.11644 -20.0918)" style="fill:#7a923c"/><path d="M3766.54688,129.12305h-4.502v-2.69092a7.282,7.282,0,0,1-2.64844,2.3374,6.80286,6.80286,0,0,1-3.08007.76758,6.98146,6.98146,0,0,1-5.40821-2.54443,10.35448,10.35448,0,0,1-2.25-7.09913q0-4.65747,2.19043-7.08154a7.14239,7.14239,0,0,1,5.53809-2.42334,6.859,6.859,0,0,1,5.3125,2.55274V103.833h4.84766Zm-12.93848-9.55713a8.37994,8.37994,0,0,0,.81152,4.24365,3.66088,3.66088,0,0,0,3.27735,1.898,3.56614,3.56614,0,0,0,2.8457-1.42334,6.56176,6.56176,0,0,0,1.17383-4.25244,7.19029,7.19029,0,0,0-1.13868-4.54541,3.74226,3.74226,0,0,0-5.80468-.01758A6.19181,6.19181,0,0,0,3753.6084,119.56592Z" transform="translate(-3486.11644 -20.0918)" style="fill:#7a923c"/><path d="M3781.93457,123.292l4.83105.811a7.92393,7.92393,0,0,1-2.9414,4.04541,8.64271,8.64271,0,0,1-5.0293,1.38867q-4.77831,0-7.07226-3.12256a10.48673,10.48673,0,0,1-1.8125-6.314,10.122,10.122,0,0,1,2.38086-7.1333,7.84336,7.84336,0,0,1,6.02148-2.57862,8.13317,8.13317,0,0,1,6.45117,2.69971q2.36426,2.6997,2.25977,8.27148h-12.14453a4.90519,4.90519,0,0,0,1.17382,3.35547,3.66584,3.66584,0,0,0,2.794,1.19922,2.969,2.969,0,0,0,1.915-.62109A3.8356,3.8356,0,0,0,3781.93457,123.292Zm.27637-4.89892a4.6688,4.6688,0,0,0-1.08692-3.2002,3.49828,3.49828,0,0,0-5.14062.06055,4.46951,4.46951,0,0,0-1.01856,3.13965Z" transform="translate(-3486.11644 -20.0918)" style="fill:#7a923c"/><path d="M3801.584,123.292l4.83008.811a7.92393,7.92393,0,0,1-2.9414,4.04541,8.64062,8.64062,0,0,1-5.0293,1.38867q-4.77833,0-7.07227-3.12256a10.493,10.493,0,0,1-1.81152-6.314,10.11756,10.11756,0,0,1,2.38086-7.1333,7.84129,7.84129,0,0,1,6.02051-2.57862,8.13389,8.13389,0,0,1,6.45215,2.69971q2.36279,2.6997,2.25976,8.27148h-12.14551a4.90519,4.90519,0,0,0,1.17383,3.35547,3.66938,3.66938,0,0,0,2.79492,1.19922,2.96631,2.96631,0,0,0,1.91407-.62109A3.84279,3.84279,0,0,0,3801.584,123.292Zm.2754-4.89892a4.66852,4.66852,0,0,0-1.08594-3.2002,3.4983,3.4983,0,0,0-5.14063.06055,4.465,4.465,0,0,0-1.01855,3.13965Z" transform="translate(-3486.11644 -20.0918)" style="fill:#7a923c"/><path d="M3815.26367,129.12305H3810.416V110.80273h4.50293v2.6045a7.83039,7.83039,0,0,1,2.0791-2.43213,3.82163,3.82163,0,0,1,2.0957-.58643,6.15486,6.15486,0,0,1,3.19141.91406l-1.501,4.22657a4.25647,4.25647,0,0,0-2.27734-.79346,2.6951,2.6951,0,0,0-1.72559.56055,3.83522,3.83522,0,0,0-1.11133,2.02685,28.69469,28.69469,0,0,0-.40625,6.1416Z" transform="translate(-3486.11644 -20.0918)" style="fill:#7a923c"/><path d="M3587.82617,150.71436V146.229h4.84766v4.48536Zm0,20.80468V153.19873h4.84766V171.519Z" transform="translate(-3486.11644 -20.0918)" style="fill:#7a923c"/><path d="M3614.30664,171.519H3609.459V162.169a14.4521,14.4521,0,0,0-.31054-3.83838,2.6869,2.6869,0,0,0-1.00977-1.354,2.88134,2.88134,0,0,0-1.68164-.48291,3.88624,3.88624,0,0,0-2.25976.68994,3.46923,3.46923,0,0,0-1.3711,1.82862,15.76729,15.76729,0,0,0-.37109,4.209V171.519h-4.84766V153.19873h4.502v2.69092a7.50938,7.50938,0,0,1,8.9707-2.52735,4.915,4.915,0,0,1,2.00976,1.4751,5.33788,5.33788,0,0,1,.94922,2.03565,15.16913,15.16913,0,0,1,.26758,3.26025Z" transform="translate(-3486.11644 -20.0918)" style="fill:#7a923c"/><path d="M3633.86914,146.229v9.29834a7.26311,7.26311,0,0,1,8.625-2.12158,4.93312,4.93312,0,0,1,2.02734,1.58692,5.75861,5.75861,0,0,1,.93164,2.13916,19.18573,19.18573,0,0,1,.25,3.63964V171.519h-4.84765v-9.67773a14.36276,14.36276,0,0,0-.27539-3.65723,2.40677,2.40677,0,0,0-.97461-1.2334,3.1398,3.1398,0,0,0-1.75195-.457,4.01685,4.01685,0,0,0-2.15625.58643,3.382,3.382,0,0,0-1.38868,1.76806,10.57086,10.57086,0,0,0-.43945,3.49317V171.519h-4.84766v-25.29Z" transform="translate(-3486.11644 -20.0918)" style="fill:#7a923c"/><path d="M3661.22852,165.688l4.831.811a7.92385,7.92385,0,0,1-2.94141,4.04541,8.64163,8.64163,0,0,1-5.02832,1.38868q-4.77831,0-7.07324-3.12256a10.48641,10.48641,0,0,1-1.81152-6.314,10.11755,10.11755,0,0,1,2.38086-7.1333,7.84128,7.84128,0,0,1,6.02051-2.57861,8.13386,8.13386,0,0,1,6.45214,2.69971q2.3628,2.6997,2.25977,8.27148h-12.14453a4.90481,4.90481,0,0,0,1.17285,3.35547,3.66586,3.66586,0,0,0,2.79394,1.19922,2.96987,2.96987,0,0,0,1.916-.6211A3.82842,3.82842,0,0,0,3661.22852,165.688Zm.27734-4.89893a4.66905,4.66905,0,0,0-1.08789-3.20019,3.334,3.334,0,0,0-2.51758-1.09522,3.36858,3.36858,0,0,0-2.623,1.15576,4.47371,4.47371,0,0,0-1.01757,3.13965Z" transform="translate(-3486.11644 -20.0918)" style="fill:#7a923c"/><path d="M3673.8916,158.7876l-4.39941-.79346a6.852,6.852,0,0,1,2.55273-3.9331,9.34721,9.34721,0,0,1,5.38281-1.27637,11.5983,11.5983,0,0,1,4.83008.76758,4.81835,4.81835,0,0,1,2.23438,1.94921,9.99328,9.99328,0,0,1,.64648,4.33887l-.05078,5.65821a19.646,19.646,0,0,0,.23242,3.562,10.38237,10.38237,0,0,0,.8711,2.45849h-4.7959q-.189-.48265-.46582-1.43164-.12012-.4314-.17188-.56933a8.74385,8.74385,0,0,1-2.65722,1.811,7.60052,7.60052,0,0,1-3.01856.604,6.23976,6.23976,0,0,1-4.459-1.53516,5.10093,5.10093,0,0,1-1.63086-3.88184,5.20348,5.20348,0,0,1,.74219-2.76855,4.84489,4.84489,0,0,1,2.07812-1.86328,16.27281,16.27281,0,0,1,3.85547-1.12989,26.38191,26.38191,0,0,0,4.71-1.19043v-.48291a2.51082,2.51082,0,0,0-.69043-1.99267,4.13615,4.13615,0,0,0-2.60449-.59473,3.46827,3.46827,0,0,0-2.01856.50879A3.5404,3.5404,0,0,0,3673.8916,158.7876Zm6.48633,3.93359a30.33036,30.33036,0,0,1-2.9502.7417,8.88484,8.88484,0,0,0-2.63867.84522,2.02218,2.02218,0,0,0-.94922,1.708,2.37658,2.37658,0,0,0,.75879,1.75928,2.6505,2.6505,0,0,0,1.93262.74219,4.19928,4.19928,0,0,0,2.501-.86279,3.03038,3.03038,0,0,0,1.15527-1.6045,9.53882,9.53882,0,0,0,.19043-2.36328Z" transform="translate(-3486.11644 -20.0918)" style="fill:#7a923c"/><path d="M3706.7207,171.519h-4.50293v-2.69092a7.27934,7.27934,0,0,1-2.64746,2.33741,6.80593,6.80593,0,0,1-3.08008.76758,6.97856,6.97856,0,0,1-5.4082-2.54444,10.35476,10.35476,0,0,1-2.251-7.09912q0-4.65747,2.19043-7.08154a7.14521,7.14521,0,0,1,5.53809-2.42334,6.8623,6.8623,0,0,1,5.31348,2.55273V146.229h4.84765Zm-12.93945-9.55713a8.3904,8.3904,0,0,0,.81152,4.24366,3.66239,3.66239,0,0,0,3.27832,1.898,3.56751,3.56751,0,0,0,2.84571-1.42334,6.56754,6.56754,0,0,0,1.17382-4.25245,7.19649,7.19649,0,0,0-1.13867-4.54541,3.605,3.605,0,0,0-2.916-1.38867,3.64227,3.64227,0,0,0-2.88965,1.3711A6.19724,6.19724,0,0,0,3693.78125,161.96191Z" transform="translate(-3486.11644 -20.0918)" style="fill:#7a923c"/><path d="M3711.499,171.519v-25.29h4.84668v25.29Z" transform="translate(-3486.11644 -20.0918)" style="fill:#7a923c"/><path d="M3721.31445,150.71436V146.229h4.84766v4.48536Zm0,20.80468V153.19873h4.84766V171.519Z" transform="translate(-3486.11644 -20.0918)" style="fill:#7a923c"/><path d="M3730.68164,172.72656l5.53809.67285a1.89051,1.89051,0,0,0,.63769,1.32813,3.64721,3.64721,0,0,0,2.17383.51758,5.64111,5.64111,0,0,0,2.84668-.56934,2.34947,2.34947,0,0,0,.96582-1.22461,7.363,7.363,0,0,0,.22461-2.22558v-2.67383a6.55848,6.55848,0,0,1-5.48633,2.96728,6.75193,6.75193,0,0,1-5.84765-3.12256,10.61333,10.61333,0,0,1-1.69043-6.14111q0-4.6062,2.21679-7.03857a7.15326,7.15326,0,0,1,5.51172-2.43213,6.7119,6.7119,0,0,1,5.60645,2.98437v-2.57031h4.53711v16.43994a16.38273,16.38273,0,0,1-.53516,4.84766,6.02257,6.02257,0,0,1-1.5,2.51855,6.64,6.64,0,0,1-2.58008,1.43164,13.571,13.571,0,0,1-4.08008.51758q-4.65673,0-6.60644-1.5957a5.00544,5.00544,0,0,1-1.94922-4.04541C3730.665,173.15186,3730.66992,172.95654,3730.68164,172.72656Zm4.33008-10.74707a6.60313,6.60313,0,0,0,1.13086,4.26953,3.4904,3.4904,0,0,0,2.78515,1.354,3.85179,3.85179,0,0,0,3.002-1.38867,6.05311,6.05311,0,0,0,1.22461-4.11426,6.41552,6.41552,0,0,0-1.17285-4.22656,3.7274,3.7274,0,0,0-2.96778-1.37989,3.57472,3.57472,0,0,0-2.87109,1.354A6.34765,6.34765,0,0,0,3735.01172,161.97949Z" transform="translate(-3486.11644 -20.0918)" style="fill:#7a923c"/><path d="M3757.542,146.229v9.29834a7.26449,7.26449,0,0,1,8.626-2.12158,4.92988,4.92988,0,0,1,2.02637,1.58692,5.75893,5.75893,0,0,1,.93164,2.13916,19.10394,19.10394,0,0,1,.25,3.63964V171.519h-4.84668v-9.67773a14.28025,14.28025,0,0,0-.27735-3.65723,2.39194,2.39194,0,0,0-.97461-1.2334,3.13076,3.13076,0,0,0-1.75-.457,4.0121,4.0121,0,0,0-2.15625.58643,3.38208,3.38208,0,0,0-1.38867,1.76806,10.54047,10.54047,0,0,0-.44043,3.49317V171.519h-4.84765v-25.29Z" transform="translate(-3486.11644 -20.0918)" style="fill:#7a923c"/><path d="M3782.69336,153.19873v3.86377h-3.31152v7.38379a18.33352,18.33352,0,0,0,.09472,2.61328,1.05844,1.05844,0,0,0,.43164.61231,1.36378,1.36378,0,0,0,.81934.24169,6.26872,6.26872,0,0,0,1.94922-.46582l.41406,3.76075a9.639,9.639,0,0,1-3.8291.72461,6.07409,6.07409,0,0,1-2.36426-.44,3.44875,3.44875,0,0,1-1.54394-1.13867,4.49416,4.49416,0,0,1-.68164-1.88867,23.54543,23.54543,0,0,1-.1543-3.416v-7.9873H3772.291v-3.86377h2.22656v-3.64014l4.86426-2.8291v6.46924Z" transform="translate(-3486.11644 -20.0918)" style="fill:#7a923c"/><path d="M3784.34961,166.292l4.86523-.7417a3.56226,3.56226,0,0,0,1.25977,2.14746,4.24954,4.24954,0,0,0,2.65625.7334,4.79624,4.79624,0,0,0,2.8291-.68994,1.54147,1.54147,0,0,0,.6377-1.29394,1.2789,1.2789,0,0,0-.34375-.91456,3.88532,3.88532,0,0,0-1.62207-.63818q-5.86671-1.29345-7.43555-2.36328a4.72062,4.72062,0,0,1-2.17285-4.12305,5.07944,5.07944,0,0,1,1.87988-4.00195q1.8794-1.62158,5.83106-1.62158a10.174,10.174,0,0,1,5.58886,1.22461,6.26326,6.26326,0,0,1,2.51856,3.62256l-4.57129.8457a2.83021,2.83021,0,0,0-1.11231-1.63916,4.07308,4.07308,0,0,0-2.33789-.56934,5.26515,5.26515,0,0,0-2.74316.53516,1.1473,1.1473,0,0,0-.55176.98291,1.06955,1.06955,0,0,0,.48242.87988,18.19,18.19,0,0,0,4.5293,1.3628,13.48431,13.48431,0,0,1,5.4082,2.15625,4.48286,4.48286,0,0,1,1.51758,3.60546,5.53235,5.53235,0,0,1-2.10449,4.33008q-2.105,1.81128-6.22754,1.81153a10.21745,10.21745,0,0,1-5.92578-1.51807A6.99537,6.99537,0,0,1,3784.34961,166.292Z" transform="translate(-3486.11644 -20.0918)" style="fill:#7a923c"/><path d="M3805.58594,166.67139h4.84765v3.46777a12.10076,12.10076,0,0,1-.3623,3.3208,4.95109,4.95109,0,0,1-1.37207,2.18213,7.05625,7.05625,0,0,1-2.56055,1.51807l-.94922-2.001a4.09135,4.09135,0,0,0,2.08789-1.32861,3.9974,3.9974,0,0,0,.6543-2.31153h-2.3457Z" transform="translate(-3486.11644 -20.0918)" style="fill:#7a923c"/><path d="M3587.64453,213.915v-25.29h4.84766v13.42139l5.67578-6.45166h5.96875l-6.26172,6.69336,6.71,11.62695h-5.22754l-4.60547-8.22852-2.25976,2.36328V213.915Z" transform="translate(-3486.11644 -20.0918)" style="fill:#7a923c"/><path d="M3618.0752,208.084l4.831.811a7.92385,7.92385,0,0,1-2.94141,4.04541,8.6427,8.6427,0,0,1-5.02929,1.38867q-4.77833,0-7.07227-3.12256a10.48673,10.48673,0,0,1-1.8125-6.314,10.122,10.122,0,0,1,2.38086-7.1333,7.84336,7.84336,0,0,1,6.02148-2.57862,8.13324,8.13324,0,0,1,6.45118,2.69971q2.36425,2.69971,2.25976,8.27149h-12.14453a4.90518,4.90518,0,0,0,1.17383,3.35546,3.66582,3.66582,0,0,0,2.79394,1.19922,2.969,2.969,0,0,0,1.915-.62109A3.83557,3.83557,0,0,0,3618.0752,208.084Zm.27636-4.89892a4.66875,4.66875,0,0,0-1.08691-3.2002,3.49829,3.49829,0,0,0-5.14063.06055,4.4695,4.4695,0,0,0-1.01855,3.13965Z" transform="translate(-3486.11644 -20.0918)" style="fill:#7a923c"/><path d="M3637.72461,208.084l4.83008.811a7.924,7.924,0,0,1-2.94141,4.04541,8.64058,8.64058,0,0,1-5.0293,1.38867q-4.77831,0-7.07226-3.12256a10.493,10.493,0,0,1-1.81152-6.314,10.11758,10.11758,0,0,1,2.38085-7.1333,7.8413,7.8413,0,0,1,6.02051-2.57862,8.1339,8.1339,0,0,1,6.45215,2.69971q2.3628,2.69971,2.25977,8.27149H3630.668a4.90514,4.90514,0,0,0,1.17383,3.35546,3.66935,3.66935,0,0,0,2.79492,1.19922,2.96628,2.96628,0,0,0,1.91406-.62109A3.84276,3.84276,0,0,0,3637.72461,208.084ZM3638,203.18506a4.66847,4.66847,0,0,0-1.08594-3.2002,3.49829,3.49829,0,0,0-5.14062.06055,4.46493,4.46493,0,0,0-1.01856,3.13965Z" transform="translate(-3486.11644 -20.0918)" style="fill:#7a923c"/><path d="M3646.626,195.59473h4.51953v2.69091a6.7662,6.7662,0,0,1,2.38086-2.24267,6.56567,6.56567,0,0,1,3.3291-.86231,6.986,6.986,0,0,1,5.417,2.501,10.127,10.127,0,0,1,2.22559,6.96973q0,4.58862-2.24219,7.1333a6.98914,6.98914,0,0,1-5.43457,2.54443,6.16283,6.16283,0,0,1-2.751-.604,9.267,9.267,0,0,1-2.59668-2.06983v9.229H3646.626Zm4.7959,8.84961a7.05848,7.05848,0,0,0,1.2246,4.563,3.74732,3.74732,0,0,0,2.98438,1.47461,3.50438,3.50438,0,0,0,2.8125-1.354,6.98045,6.98045,0,0,0,1.12109-4.44238,6.62047,6.62047,0,0,0-1.15625-4.27784,3.57431,3.57431,0,0,0-2.86328-1.39746,3.71794,3.71794,0,0,0-2.95019,1.37159A6.10305,6.10305,0,0,0,3651.42188,204.44434Z" transform="translate(-3486.11644 -20.0918)" style="fill:#7a923c"/><path d="M3678.16113,213.915v-25.29h4.84668v25.29Z" transform="translate(-3486.11644 -20.0918)" style="fill:#7a923c"/><path d="M3686.85547,204.49609a9.90822,9.90822,0,0,1,1.19043-4.67529,8.17345,8.17345,0,0,1,3.37207-3.45019,10.013,10.013,0,0,1,4.874-1.19,9.14485,9.14485,0,0,1,6.81348,2.69971,9.32652,9.32652,0,0,1,2.65723,6.82275,9.44,9.44,0,0,1-2.68262,6.89161,9.06567,9.06567,0,0,1-6.75391,2.73437,10.63394,10.63394,0,0,1-4.80469-1.13867,7.8117,7.8117,0,0,1-3.47558-3.33789A11.11749,11.11749,0,0,1,3686.85547,204.49609Zm4.96875.25879a6.071,6.071,0,0,0,1.293,4.17481,4.23093,4.23093,0,0,0,6.375,0,6.15583,6.15583,0,0,0,1.28515-4.20948,6.0423,6.0423,0,0,0-1.28515-4.14013,4.23,4.23,0,0,0-6.375,0A6.071,6.071,0,0,0,3691.82422,204.75488Z" transform="translate(-3486.11644 -20.0918)" style="fill:#7a923c"/><path d="M3708.43652,204.49609a9.91973,9.91973,0,0,1,1.19043-4.67529A8.1701,8.1701,0,0,1,3713,196.37061a10.00375,10.00375,0,0,1,4.87305-1.19,9.14858,9.14858,0,0,1,6.81445,2.69971,9.32965,9.32965,0,0,1,2.65625,6.82275,9.44,9.44,0,0,1-2.68262,6.89161,9.06566,9.06566,0,0,1-6.7539,2.73437,10.63288,10.63288,0,0,1-4.80371-1.13867,7.80406,7.80406,0,0,1-3.47657-3.33789A11.12874,11.12874,0,0,1,3708.43652,204.49609Zm4.96778.25879a6.06658,6.06658,0,0,0,1.29492,4.17481,4.22879,4.22879,0,0,0,6.37305,0,6.15087,6.15087,0,0,0,1.28515-4.20948,6.0374,6.0374,0,0,0-1.28515-4.14013,4.22785,4.22785,0,0,0-6.37305,0A6.06657,6.06657,0,0,0,3713.4043,204.75488Z" transform="translate(-3486.11644 -20.0918)" style="fill:#7a923c"/><path d="M3730.9668,213.915v-25.29h4.84765v13.42139l5.67578-6.45166h5.96875l-6.26269,6.69336,6.71,11.62695h-5.22656l-4.60547-8.22852-2.25977,2.36328V213.915Z" transform="translate(-3486.11644 -20.0918)" style="fill:#7a923c"/><path d="M3750.78809,193.11035V188.625h4.84668v4.48535Zm0,20.80469V195.59473h4.84668V213.915Z" transform="translate(-3486.11644 -20.0918)" style="fill:#7a923c"/><path d="M3777.26758,213.915h-4.84668v-9.3501a14.452,14.452,0,0,0-.31055-3.83838,2.69623,2.69623,0,0,0-1.00879-1.354,2.89079,2.89079,0,0,0-1.68261-.48291,3.88844,3.88844,0,0,0-2.25977.68994,3.481,3.481,0,0,0-1.37207,1.82861,15.82147,15.82147,0,0,0-.37012,4.209V213.915h-4.84765V195.59473h4.50293v2.69091a7.50932,7.50932,0,0,1,8.9707-2.52734,4.928,4.928,0,0,1,2.00976,1.4751,5.36518,5.36518,0,0,1,.94825,2.03564,15.118,15.118,0,0,1,.2666,3.26026Z" transform="translate(-3486.11644 -20.0918)" style="fill:#7a923c"/><path d="M3781.73633,215.12256l5.53711.67285a1.88717,1.88717,0,0,0,.63867,1.32813,3.64314,3.64314,0,0,0,2.17383.51757,5.63948,5.63948,0,0,0,2.8457-.56933,2.34622,2.34622,0,0,0,.9668-1.22461,7.39544,7.39544,0,0,0,.22461-2.22559v-2.67383a6.55971,6.55971,0,0,1-5.48633,2.96729,6.752,6.752,0,0,1-5.84766-3.12256,10.60643,10.60643,0,0,1-1.6914-6.14111q0-4.6062,2.21679-7.03858a7.15474,7.15474,0,0,1,5.51172-2.43213,6.71229,6.71229,0,0,1,5.60742,2.98438v-2.57031h4.53711v16.43994a16.41558,16.41558,0,0,1-.53515,4.84765,6.02385,6.02385,0,0,1-1.501,2.51856,6.643,6.643,0,0,1-2.5791,1.43164,13.57576,13.57576,0,0,1-4.08008.51758q-4.6582,0-6.60742-1.59571a5.00821,5.00821,0,0,1-1.94922-4.04541Q3781.71875,215.46729,3781.73633,215.12256Zm4.33008-10.74707a6.60927,6.60927,0,0,0,1.12988,4.26953,3.49364,3.49364,0,0,0,2.78613,1.354,3.85462,3.85462,0,0,0,3.002-1.38867,6.05308,6.05308,0,0,0,1.2246-4.11426,6.40987,6.40987,0,0,0-1.17382-4.22656,3.72551,3.72551,0,0,0-2.9668-1.37988,3.57662,3.57662,0,0,0-2.87207,1.354A6.35355,6.35355,0,0,0,3786.06641,204.37549Z" transform="translate(-3486.11644 -20.0918)" style="fill:#7a923c"/><path d="M3805.66406,207.394l-1.25976-12.83447V188.625h5.24414v5.93457l-1.24219,12.83447Zm-1.05273,6.521v-4.84766h4.84765V213.915Z" transform="translate(-3486.11644 -20.0918)" style="fill:#7a923c"/><path d="M3587.85254,82.99121l-11.54-1.46094-1.75195-34.375a41.10587,41.10587,0,0,1,8.27734-.38965q2.43311.09815,4.74609.36524,2.313.26807,4.6504.70605a39.06274,39.06274,0,0,1,8.17968,2.62891q3.65186,1.80175,4.626,4.1875a6.85119,6.85119,0,0,1-.73047,6.52441,19.56371,19.56371,0,0,1-5.50195,5.45313l13.63379,8.56934L3600.707,84.01367,3589.752,69.64941l-2.43554-.04882Zm-1.21777-21.22949a11.03592,11.03592,0,0,0,4.96679-1.84961,4.74107,4.74107,0,0,0,2.14258-2.92188,2.73822,2.73822,0,0,0-1.46094-2.72656q-1.65526-1.21583-5.74609-1.36328Z" transform="translate(-3486.11644 -20.0918)" style="fill:#d86600"/><path d="M3632.209,50.75781q-.24462.68262-.63281,1.82617-.39111,1.14405-.92578,2.751a30.28921,30.28921,0,0,0-1.31445,6.57324,11.84121,11.84121,0,0,0,.77929,5.94043q1.11915,2.58106,4.918,2.48242a4.30519,4.30519,0,0,0,3.89453-1.7041,8.51739,8.51739,0,0,0,1.36329-4.23535,20.96442,20.96442,0,0,0-.19434-5.30762l-.68164-5.01464,10.37012-1.99707q.58593,1.85155,1.24218,4.11425.65772,2.26465,1.33887,5.04A24.91643,24.91643,0,0,1,3653,71.792a14.11745,14.11745,0,0,1-5.01562,8.71582q-4.188,3.60352-14.16895,3.50586-9.59327,0-13.53613-4.52832a18.41237,18.41237,0,0,1-4.67383-10.5664,34.80908,34.80908,0,0,1,.82812-12.36719,96.03608,96.03608,0,0,1,2.77539-9.835Z" transform="translate(-3486.11644 -20.0918)" style="fill:#d86600"/><path d="M3656.8457,48.76172q7.20411-2.4829,17.1875-1.7041a26.09294,26.09294,0,0,1,17.334,8.27734,11.82328,11.82328,0,0,1,3.11523,6.13477,16.48948,16.48948,0,0,1,.21973,3.48144,14.03727,14.03727,0,0,1-.6084,3.53028,20.24177,20.24177,0,0,1-3.70117,6.71875,18.81728,18.81728,0,0,1-6.66992,4.96679,43.39714,43.39714,0,0,1-12.31836,3.40821,36.36685,36.36685,0,0,1-12.07618-.04883Zm15.77539,19.96289a7.20759,7.20759,0,0,0,3.06739-.53516,11.17,11.17,0,0,0,3.06738-1.85058,6.40161,6.40161,0,0,0,1.85059-2.72657,3.2054,3.2054,0,0,0-.53614-3.11621q-1.07079-1.46044-4.13867-1.85058a17.53768,17.53768,0,0,0-4.57617-.14551Z" transform="translate(-3486.11644 -20.0918)" style="fill:#d86600"/><path d="M3735.86914,67.02051q-.58447,8.56933-6.62207,12.80566a21.92333,21.92333,0,0,1-13,4.1875,20.48814,20.48814,0,0,1-12.61035-4.28515q-5.6499-4.18653-5.50195-12.708a18.26662,18.26662,0,0,1,2.09375-8.32617,23.73512,23.73512,0,0,1,5.25781-6.47559,22.37785,22.37785,0,0,1,7.01172-4.13867,19.10562,19.10562,0,0,1,7.54687-1.36328,18.3184,18.3184,0,0,1,4.57617,1.02246,16.81486,16.81486,0,0,1,5.502,3.21386,18.2325,18.2325,0,0,1,4.38281,6.1836A21.9442,21.9442,0,0,1,3735.86914,67.02051Zm-13.68164-4.334a.79818.79818,0,0,0,.33984-.24316,1.2727,1.2727,0,0,0,.293-.292,3.61825,3.61825,0,0,0,1.2168-2.67774,5.06588,5.06588,0,0,0-.82813-2.581c-.06445-.06446-.1455-.1377-.24218-.21875-.09766-.08106-.19532-.1709-.293-.26758-.06543-.06445-.13867-.1377-.21875-.21973a1.936,1.936,0,0,0-.26758-.21875,6.669,6.669,0,0,0-2.53223-.97363,4.48551,4.48551,0,0,0-2.92089.43848,5.231,5.231,0,0,0-1.07227.584,9.76235,9.76235,0,0,0-.82715.584,3.96048,3.96048,0,0,0-1.2666,2.873,4.94084,4.94084,0,0,0,1.02344,2.72657,1.9975,1.9975,0,0,1,.16992.19433,1.79854,1.79854,0,0,0,.16992.19531,1.32759,1.32759,0,0,1,.19531.1211,2.14212,2.14212,0,0,1,.19532.1709,5.3122,5.3122,0,0,0,3.16406,1.16894,5.258,5.258,0,0,0,3.75-1.41211Z" transform="translate(-3486.11644 -20.0918)" style="fill:#d86600"/><path d="M3753.251,46.668l1.55761,28.0459,12.416-1.7041.293,9.34765-24.29688,1.65625-3.94336-36.90722Z" transform="translate(-3486.11644 -20.0918)" style="fill:#d86600"/><path d="M3782.61133,72.2793l.48633,11.73437-10.61524-1.2666L3770,46.81445q1.3623-.09814,3.21289-.09765,1.85157,0,4.28516.1455a46.26056,46.26056,0,0,1,9.543,1.41211,25.93621,25.93621,0,0,1,8.22851,3.50586,7.323,7.323,0,0,1,3.50586,6.33008,11.10743,11.10743,0,0,1-5.16016,9.68945,25.08829,25.08829,0,0,1-11.0039,4.52735Zm-1.36426-6.47657a11.13358,11.13358,0,0,0,4.82031-2.48242,5.60953,5.60953,0,0,0,1.99707-3.457,3.24957,3.24957,0,0,0-1.55859-3.01953q-1.85157-1.314-5.8916-1.168Z" transform="translate(-3486.11644 -20.0918)" style="fill:#d86600"/><path d="M3801.35645,48.22656l11.34472-.68261v12.5625l8.32617-.14649V47.44727l12.95118-.73047-1.70411,35.00781-11.24707,1.2666v-13.293l-8.32617.19531V83.03906l-9.83594.97461Z" transform="translate(-3486.11644 -20.0918)" style="fill:#d86600"/></svg>