<svg id="e2a4281f-e343-4536-8240-5ece5be93083" data-name="ПЕРЕВОД_не фанерные объекты_клик" xmlns="http://www.w3.org/2000/svg" viewBox="0 0 495.86719 621.72335"><title>sveza_ny_game-curves-узкая версия-eng-с украшенной желтой стеной</title><rect x="10.30974" y="7.30744" width="485.55745" height="614.41591" rx="12" ry="12" style="fill:#3a301f"/><rect width="485.55745" height="614.41591" rx="12" ry="12" style="fill:#fff"/><path d="M1179.90793,510.66111l-1.02637,1.33911Q1179.40928,511.34031,1179.90793,510.66111Z" transform="translate(-958.10059 -163.70178)" style="fill:#02263c"/><path d="M1197.95236,487.12083l-.06689.08716c.043-.02808.083-.06031.12622-.08789Z" transform="translate(-958.10059 -163.70178)" style="fill:#02263c"/><path d="M1100.33838,236.44043a32.8392,32.8392,0,0,0,4.86914,1.65527,20.25257,20.25257,0,0,0,4.3335.73047q1.80029.09815,2.14209-.48633.438-.58446-1.65528-1.99707-2.24047-1.55712-4.38232-3.2373-2.14307-1.68018-4.23584-3.5791a9.21028,9.21028,0,0,1-3.06738-9.00782q1.02246-5.30565,5.1123-6.23242a18.04179,18.04179,0,0,1,8.959.34082,38.44362,38.44362,0,0,1,9.251,3.89551,29.1269,29.1269,0,0,1,6.13477,4.38184l-4.57666,7.10937a6.92438,6.92438,0,0,0-1.41211-1.04687q-.876-.51123-2.14209-1.14453a26.19051,26.19051,0,0,0-4.43116-1.65528q-1.89843-.438-2.23974.19434-.29151.58447,3.019,3.31152a78.74115,78.74115,0,0,0,7.06006,5.16113q2.48291,1.55861,3.26221,6.08594a6.33049,6.33049,0,0,1-2.4834,6.57324,17.83924,17.83924,0,0,1-7.98486,3.21387,31.17058,31.17058,0,0,1-10.12745,0,21.18614,21.18614,0,0,1-8.813-3.165Z" transform="translate(-958.10059 -163.70178)" style="fill:#d86600"/><path d="M1156.91553,213.7998l11.39355,33.10938-12.07519,4.1875-2.38575-7.30371h-9.34863l-2.19092,7.15723-11.88037-5.55079,12.12354-30.6748Zm-3.99268,22.34864-3.5542-8.61817-3.65185,8.47168Z" transform="translate(-958.10059 -163.70178)" style="fill:#d86600"/><path d="M1174.395,213.7998l11.68555.97364,9.59179,17.042-1.65527-16.21387h11.1499l.73047,32.13477-13.00049,3.36035-9.59179-19.2334-.82764,17.72363-11.1499-2.6289,3.06738-32.52539Z" transform="translate(-958.10059 -163.70178)" style="fill:#d86600"/><path d="M1209.01318,215.69824l33.54737-1.89844.58447,16.84668-12.80566-.68164,3.84668,21.13184-16.45752-1.75293,2.82421-18.98926-11.83154.34082Z" transform="translate(-958.10059 -163.70178)" style="fill:#d86600"/><path d="M1272.50439,213.7998l11.39356,33.10938-12.0752,4.1875L1269.437,243.793h-9.34863l-2.19092,7.15723-11.88037-5.55079,12.12353-30.6748Zm-3.99267,22.34864-3.5542-8.61817-3.65186,8.47168Z" transform="translate(-958.10059 -163.70178)" style="fill:#d86600"/><path d="M1300.45215,199.67969l-10.80908,15.62988-3.06739-1.50977,2.82373-15.38574Z" transform="translate(-958.10059 -163.70178)" style="fill:#d86600"/><path d="M1306.34326,236.44043a32.83959,32.83959,0,0,0,4.86914,1.65527,20.25257,20.25257,0,0,0,4.3335.73047q1.80029.09815,2.14209-.48633.438-.58446-1.65528-1.99707-2.24047-1.55712-4.38232-3.2373-2.14306-1.68018-4.23584-3.5791a9.2103,9.2103,0,0,1-3.06738-9.00782q1.02246-5.30565,5.1123-6.23242a18.04183,18.04183,0,0,1,8.959.34082,38.44355,38.44355,0,0,1,9.251,3.89551,29.12663,29.12663,0,0,1,6.13477,4.38184l-4.57666,7.10937a6.9241,6.9241,0,0,0-1.41211-1.04687q-.876-.51123-2.14209-1.14453a26.19075,26.19075,0,0,0-4.43115-1.65528q-1.89844-.438-2.23975.19434-.2915.58447,3.019,3.31152a78.7426,78.7426,0,0,0,7.06006,5.16113q2.48292,1.55861,3.26221,6.08594a6.33047,6.33047,0,0,1-2.4834,6.57324,17.83924,17.83924,0,0,1-7.98486,3.21387,31.17052,31.17052,0,0,1-10.12744,0,21.18619,21.18619,0,0,1-8.813-3.165Z" transform="translate(-958.10059 -163.70178)" style="fill:#d86600"/><path d="M1027.98633,272.17871l1.5581,28.0459,12.41553-1.7041.29248,9.34765-24.29639,1.65625-3.94384-36.90722Z" transform="translate(-958.10059 -163.70178)" style="fill:#d86600"/><path d="M1044.73535,272.22754l13.97412.9248-.68164,35.98243-12.36767.38964Z" transform="translate(-958.10059 -163.70178)" style="fill:#d86600"/><path d="M1060.80225,274.126l33.54736-1.89844.58447,16.84668-12.80566-.68164,3.84668,21.13183-16.45752-1.75293,2.82422-18.98925-11.83155.34082Z" transform="translate(-958.10059 -163.70178)" style="fill:#d86600"/><path d="M1098.09814,274.126l33.54737-1.89844.58447,16.84668-12.80566-.68164,3.84668,21.13183-16.45752-1.75293,2.82422-18.98925-11.83155.34082Z" transform="translate(-958.10059 -163.70178)" style="fill:#d86600"/><path d="M1149.07617,272.17871l1.55811,28.0459,12.41552-1.7041.29249,9.34765-24.29639,1.65625-3.94385-36.90722Z" transform="translate(-958.10059 -163.70178)" style="fill:#d86600"/><path d="M1192.06885,272.22754l.29248,10.5166-13.6333-.19434.09717,3.89551,6.96289-.38965.04882,6.42676h-6.33007l.146,4.47949,13.14649-.77929.146,12.61133-25.02636.73046-2.09375-37.248Z" transform="translate(-958.10059 -163.70178)" style="fill:#d86600"/><path d="M1221.76855,273.7373l11.34473-.68261v12.5625l8.32568-.14649V272.958l12.95166-.73047-1.7041,35.00781L1241.439,308.502V295.209l-8.32568.19532v13.1455l-9.83545.97461Z" transform="translate(-958.10059 -163.70178)" style="fill:#d86600"/><path d="M1283.40918,272.22754l.29248,10.5166-13.6333-.19434.09717,3.89551,6.96289-.38965.04883,6.42676h-6.33008l.146,4.47949,13.14649-.77929.146,12.61133-25.02636.73046-2.09375-37.248Z" transform="translate(-958.10059 -163.70178)" style="fill:#d86600"/><path d="M1300.74268,272.17871l1.5581,28.0459,12.41553-1.7041.29248,9.34765-24.29639,1.65625-3.94385-36.90722Z" transform="translate(-958.10059 -163.70178)" style="fill:#d86600"/><path d="M1330.10254,297.79l.48682,11.73437-10.61475-1.2666-2.48291-35.93261q1.3623-.09814,3.21338-.09766,1.8501,0,4.28467.14551a46.26926,46.26926,0,0,1,9.54345,1.41211,25.95017,25.95017,0,0,1,8.22852,3.50586,7.32515,7.32515,0,0,1,3.50586,6.33007,11.10731,11.10731,0,0,1-5.16113,9.68946,25.08128,25.08128,0,0,1-11.00391,4.52734Zm-1.36377-6.47656a11.13365,11.13365,0,0,0,4.82031-2.48243,5.60854,5.60854,0,0,0,1.99658-3.457,3.24715,3.24715,0,0,0-1.5581-3.01953q-1.85083-1.314-5.8916-1.168Z" transform="translate(-958.10059 -163.70178)" style="fill:#d86600"/><path d="M1375.0918,272.22754l.29248,10.5166-13.6333-.19434.09716,3.89551,6.9629-.38965.04882,6.42676h-6.33007l.146,4.47949,13.14649-.77929.146,12.61133-25.02637.73046-2.09375-37.248Z" transform="translate(-958.10059 -163.70178)" style="fill:#d86600"/><path d="M1391.74365,308.502,1380.2041,307.041l-1.75293-34.375a41.10714,41.10714,0,0,1,8.27735-.38965q2.43383.09814,4.74707.36523,2.31225.26807,4.6499.70606a39.07685,39.07685,0,0,1,8.18017,2.6289q3.65114,1.80176,4.62549,4.1875a6.8499,6.8499,0,0,1-.73047,6.52442,19.55739,19.55739,0,0,1-5.50195,5.45312l13.6333,8.56934-11.73437,8.81347-10.95508-14.36425-2.43457-.04883Zm-1.21728-21.22949a11.03612,11.03612,0,0,0,4.96631-1.84961,4.73623,4.73623,0,0,0,2.14209-2.92187,2.73778,2.73778,0,0,0-1.46045-2.72657q-1.656-1.21581-5.74561-1.36328Z" transform="translate(-958.10059 -163.70178)" style="fill:#d86600"/><path d="M1007.37646,385.70312v-25.29h5.10645v25.29Z" transform="translate(-958.10059 -163.70178)" style="fill:#7a923c"/><path d="M1043.10352,372.79932l-4.77832.86279a3.47014,3.47014,0,0,0-1.09571-2.15674,3.30845,3.30845,0,0,0-2.21679-.72412,3.62136,3.62136,0,0,0-2.88916,1.25049,6.40642,6.40642,0,0,0-1.07862,4.1831q0,3.26075,1.0957,4.60645a3.5961,3.5961,0,0,0,2.94141,1.34521,3.266,3.266,0,0,0,2.25977-.78466,4.72345,4.72345,0,0,0,1.24218-2.69971l4.76123.81055a8.44656,8.44656,0,0,1-2.84667,4.95117,8.81059,8.81059,0,0,1-5.64112,1.67334,8.38539,8.38539,0,0,1-6.40869-2.53614,11.55788,11.55788,0,0,1,.00879-14.08544,8.51663,8.51663,0,0,1,6.48633-2.52686,8.84794,8.84794,0,0,1,5.32177,1.44043A7.982,7.982,0,0,1,1043.10352,372.79932Z" transform="translate(-958.10059 -163.70178)" style="fill:#7a923c"/><path d="M1050.40088,372.97168l-4.39893-.79346a6.84966,6.84966,0,0,1,2.55274-3.9331,9.34437,9.34437,0,0,1,5.38232-1.27637,11.60246,11.60246,0,0,1,4.83057.76758,4.817,4.817,0,0,1,2.23388,1.94922,9.9988,9.9988,0,0,1,.647,4.33886l-.05176,5.65821a19.63573,19.63573,0,0,0,.23291,3.562,10.38215,10.38215,0,0,0,.87109,2.45849h-4.79589q-.18971-.48266-.46583-1.43164-.12084-.43139-.17236-.56933a8.736,8.736,0,0,1-2.65674,1.811,7.602,7.602,0,0,1-3.01855.604,6.24262,6.24262,0,0,1-4.45947-1.53516,5.10393,5.10393,0,0,1-1.63038-3.88183,5.20767,5.20767,0,0,1,.7417-2.76856,4.8447,4.8447,0,0,1,2.07911-1.86328,16.25849,16.25849,0,0,1,3.85546-1.12988,26.37538,26.37538,0,0,0,4.70948-1.19043v-.48291a2.51243,2.51243,0,0,0-.68994-1.99268,4.13888,4.13888,0,0,0-2.605-.59473,3.46825,3.46825,0,0,0-2.01856.50879A3.5373,3.5373,0,0,0,1050.40088,372.97168Zm6.48633,3.93359a30.32893,30.32893,0,0,1-2.9502.7417,8.89489,8.89489,0,0,0-2.63916.84522,2.02167,2.02167,0,0,0-.94873,1.708,2.37656,2.37656,0,0,0,.75879,1.75927,2.65012,2.65012,0,0,0,1.93213.74219,4.19739,4.19739,0,0,0,2.50146-.86279,3.03653,3.03653,0,0,0,1.15577-1.60449,9.57108,9.57108,0,0,0,.18994-2.36329Z" transform="translate(-958.10059 -163.70178)" style="fill:#7a923c"/><path d="M1083.09131,385.70312h-4.84717V376.353a14.452,14.452,0,0,0-.31055-3.83838,2.69156,2.69156,0,0,0-1.00927-1.354,2.88612,2.88612,0,0,0-1.68213-.48291,3.88728,3.88728,0,0,0-2.25977.69,3.47505,3.47505,0,0,0-1.37158,1.82861,15.79426,15.79426,0,0,0-.37061,4.209v8.29785h-4.84765V367.38281h4.50244v2.69092a7.50933,7.50933,0,0,1,8.9707-2.52734,4.9215,4.9215,0,0,1,2.00977,1.47509,5.35158,5.35158,0,0,1,.94873,2.03565,15.14378,15.14378,0,0,1,.26709,3.26025Z" transform="translate(-958.10059 -163.70178)" style="fill:#7a923c"/><path d="M1087.88721,360.48242h4.84765v3.46729a12.07925,12.07925,0,0,1-.3623,3.3208,4.96324,4.96324,0,0,1-1.37158,2.18213,7.062,7.062,0,0,1-2.56153,1.51806l-.94873-2.001a4.08137,4.08137,0,0,0,2.0874-1.32862,3.99625,3.99625,0,0,0,.65528-2.31152h-2.34619Z" transform="translate(-958.10059 -163.70178)" style="fill:#7a923c"/><path d="M1106.2251,367.38281v3.86377h-3.312v7.38379a18.33352,18.33352,0,0,0,.09472,2.61328,1.062,1.062,0,0,0,.43115.61231,1.3653,1.3653,0,0,0,.81983.2417,6.272,6.272,0,0,0,1.94922-.46582l.41406,3.76074a9.63979,9.63979,0,0,1-3.82959.72461,6.07178,6.07178,0,0,1-2.36377-.43994,3.45158,3.45158,0,0,1-1.54394-1.13868,4.49433,4.49433,0,0,1-.68116-1.88867,23.49861,23.49861,0,0,1-.15527-3.416v-7.98731h-2.22559v-3.86377h2.22559v-3.64013l4.86475-2.82911v6.46924Z" transform="translate(-958.10059 -163.70178)" style="fill:#7a923c"/><path d="M1124.23535,360.41309v9.29834a7.26379,7.26379,0,0,1,8.62549-2.12159,4.93151,4.93151,0,0,1,2.02686,1.58692,5.75893,5.75893,0,0,1,.93164,2.13916,19.14529,19.14529,0,0,1,.25,3.63965v10.74755h-4.84717v-9.67773a14.32138,14.32138,0,0,0-.27637-3.65723,2.39931,2.39931,0,0,0-.97461-1.23339,3.13519,3.13519,0,0,0-1.751-.457,4.01458,4.01458,0,0,0-2.15625.58643,3.38207,3.38207,0,0,0-1.38867,1.76807,10.55571,10.55571,0,0,0-.43994,3.49316v9.17773h-4.84765v-25.29Z" transform="translate(-958.10059 -163.70178)" style="fill:#7a923c"/><path d="M1151.59521,379.87207l4.83057.811a7.924,7.924,0,0,1-2.9414,4.04541,8.64115,8.64115,0,0,1-5.02881,1.38867q-4.77833,0-7.07276-3.12256a10.48971,10.48971,0,0,1-1.81152-6.314,10.11755,10.11755,0,0,1,2.38086-7.1333,7.84128,7.84128,0,0,1,6.02051-2.57861,8.13386,8.13386,0,0,1,6.45214,2.69971q2.3628,2.6997,2.25977,8.27148h-12.145a4.905,4.905,0,0,0,1.17334,3.35547,3.66763,3.66763,0,0,0,2.79443,1.19922,2.96808,2.96808,0,0,0,1.915-.62109A3.83553,3.83553,0,0,0,1151.59521,379.87207Zm.27637-4.89893a4.66877,4.66877,0,0,0-1.08691-3.20019,3.49827,3.49827,0,0,0-5.14063.06055,4.46928,4.46928,0,0,0-1.01806,3.13964Z" transform="translate(-958.10059 -163.70178)" style="fill:#7a923c"/><path d="M1160.63525,385.70312v-25.29h4.84717v25.29Z" transform="translate(-958.10059 -163.70178)" style="fill:#7a923c"/><path d="M1170.313,367.38281h4.51953v2.69092a6.77045,6.77045,0,0,1,2.38086-2.24268,6.565,6.565,0,0,1,3.32959-.8623,6.98573,6.98573,0,0,1,5.4165,2.501,10.12462,10.12462,0,0,1,2.22559,6.96972q0,4.58863-2.24268,7.1333a6.98747,6.98747,0,0,1-5.43408,2.54444,6.16773,6.16773,0,0,1-2.75146-.604,9.26534,9.26534,0,0,1-2.5962-2.06982v9.229H1170.313Zm4.7959,8.84961a7.05554,7.05554,0,0,0,1.22461,4.563,3.74729,3.74729,0,0,0,2.98437,1.47461,3.50278,3.50278,0,0,0,2.812-1.354,6.97744,6.97744,0,0,0,1.1211-4.44239,6.62052,6.62052,0,0,0-1.15577-4.27783,3.57522,3.57522,0,0,0-2.86376-1.39746,3.71768,3.71768,0,0,0-2.94971,1.37158A6.10307,6.10307,0,0,0,1175.10889,376.23242Z" transform="translate(-958.10059 -163.70178)" style="fill:#7a923c"/><path d="M1199.55371,367.38281h5.15772l4.38183,13.00684,4.27832-13.00684h5.02l-6.46924,17.63037-1.15576,3.19141a13.04761,13.04761,0,0,1-1.21631,2.44971,5.30721,5.30721,0,0,1-1.32812,1.37109,5.81107,5.81107,0,0,1-1.84571.81982,9.59678,9.59678,0,0,1-2.47558.293,12.85646,12.85646,0,0,1-2.74317-.293l-.43115-3.79541a10.73216,10.73216,0,0,0,2.05274.22413,3.04278,3.04278,0,0,0,2.50146-.9917,6.88889,6.88889,0,0,0,1.24219-2.52735Z" transform="translate(-958.10059 -163.70178)" style="fill:#7a923c"/><path d="M1220.37549,376.28418a9.91394,9.91394,0,0,1,1.19043-4.67529,8.17188,8.17188,0,0,1,3.37256-3.4502,10.00834,10.00834,0,0,1,4.87353-1.18994,9.14669,9.14669,0,0,1,6.814,2.69971,9.32808,9.32808,0,0,1,2.65673,6.82275,9.44,9.44,0,0,1-2.68261,6.8916,9.06569,9.06569,0,0,1-6.75391,2.73438,10.63355,10.63355,0,0,1-4.8042-1.13867,7.80794,7.80794,0,0,1-3.47607-3.3379A11.12307,11.12307,0,0,1,1220.37549,376.28418Zm4.96826.25879a6.06875,6.06875,0,0,0,1.29395,4.1748,4.22986,4.22986,0,0,0,6.374,0,6.15334,6.15334,0,0,0,1.28516-4.20947,6.03988,6.03988,0,0,0-1.28516-4.14014,4.22893,4.22893,0,0,0-6.374,0A6.06876,6.06876,0,0,0,1225.34375,376.543Z" transform="translate(-958.10059 -163.70178)" style="fill:#7a923c"/><path d="M1255.13623,385.70312v-2.74267a7.05969,7.05969,0,0,1-2.63086,2.31152,7.37976,7.37976,0,0,1-3.44141.84522,6.726,6.726,0,0,1-3.312-.811,4.782,4.782,0,0,1-2.12207-2.27685,10.16326,10.16326,0,0,1-.65527-4.0542V367.38281h4.84717v8.41846a23.30038,23.30038,0,0,0,.26758,4.73535,2.57985,2.57985,0,0,0,.9746,1.37988,2.99452,2.99452,0,0,0,1.79395.50879,3.81628,3.81628,0,0,0,2.22559-.68115,3.46882,3.46882,0,0,0,1.3457-1.69092,19.63312,19.63312,0,0,0,.3623-4.94238v-7.728h4.84717v18.32031Z" transform="translate(-958.10059 -163.70178)" style="fill:#7a923c"/><path d="M1264.53809,380.85547h4.84765v3.46777a12.08162,12.08162,0,0,1-.3623,3.3208,4.96313,4.96313,0,0,1-1.37158,2.18213,7.069,7.069,0,0,1-2.56153,1.51807l-.94873-2.001a4.08759,4.08759,0,0,0,2.0874-1.32861,3.99743,3.99743,0,0,0,.65528-2.31153h-2.34619Z" transform="translate(-958.10059 -163.70178)" style="fill:#7a923c"/><path d="M1282.583,380.47607l4.86474-.74169a3.56176,3.56176,0,0,0,1.25928,2.14746,4.2521,4.2521,0,0,0,2.65674.73339,4.79727,4.79727,0,0,0,2.8291-.68994,1.54064,1.54064,0,0,0,.63818-1.29394,1.27543,1.27543,0,0,0-.34472-.91455,3.87607,3.87607,0,0,0-1.62158-.63819q-5.866-1.29345-7.43555-2.36328a4.72,4.72,0,0,1-2.17334-4.123,5.07994,5.07994,0,0,1,1.88037-4.002q1.88013-1.62158,5.83057-1.62158a10.17364,10.17364,0,0,1,5.58935,1.22461,6.26326,6.26326,0,0,1,2.51856,3.62256l-4.57129.8457a2.82645,2.82645,0,0,0-1.1128-1.63916,4.07035,4.07035,0,0,0-2.3374-.56934,5.26763,5.26763,0,0,0-2.74316.53516,1.1473,1.1473,0,0,0-.55176.98291,1.07008,1.07008,0,0,0,.48291.87988,18.16773,18.16773,0,0,0,4.52832,1.3628,13.48431,13.48431,0,0,1,5.4082,2.15625,4.4832,4.4832,0,0,1,1.51807,3.60547,5.53385,5.53385,0,0,1-2.10449,4.33007q-2.105,1.81128-6.22754,1.81153a10.21743,10.21743,0,0,1-5.92578-1.51807A6.99039,6.99039,0,0,1,1282.583,380.47607Z" transform="translate(-958.10059 -163.70178)" style="fill:#7a923c"/><path d="M1302.81836,376.28418a9.91394,9.91394,0,0,1,1.19043-4.67529,8.17188,8.17188,0,0,1,3.37256-3.4502,10.00834,10.00834,0,0,1,4.87353-1.18994,9.14669,9.14669,0,0,1,6.814,2.69971,9.32809,9.32809,0,0,1,2.65674,6.82275,9.44,9.44,0,0,1-2.68262,6.8916,9.06569,9.06569,0,0,1-6.75391,2.73438,10.63355,10.63355,0,0,1-4.8042-1.13867,7.80794,7.80794,0,0,1-3.47607-3.3379A11.12307,11.12307,0,0,1,1302.81836,376.28418Zm4.96826.25879a6.06875,6.06875,0,0,0,1.29395,4.1748,4.22986,4.22986,0,0,0,6.374,0,6.15334,6.15334,0,0,0,1.28516-4.20947,6.03988,6.03988,0,0,0-1.28516-4.14014,4.22893,4.22893,0,0,0-6.374,0A6.06876,6.06876,0,0,0,1307.78662,376.543Z" transform="translate(-958.10059 -163.70178)" style="fill:#7a923c"/><path d="M1330.16113,385.70312H1325.314V367.38281h4.50245v2.60449a7.82417,7.82417,0,0,1,2.07861-2.43212,3.82328,3.82328,0,0,1,2.09619-.58643,6.15489,6.15489,0,0,1,3.19141.91406l-1.501,4.22657a4.25644,4.25644,0,0,0-2.27734-.79346,2.69189,2.69189,0,0,0-1.7251.56054,3.83237,3.83237,0,0,0-1.11231,2.02686,28.77371,28.77371,0,0,0-.40576,6.1416Z" transform="translate(-958.10059 -163.70178)" style="fill:#7a923c"/><path d="M1343.91016,385.70312H1339.063V367.38281h4.50244v2.60449a7.82417,7.82417,0,0,1,2.07861-2.43212,3.82333,3.82333,0,0,1,2.09619-.58643,6.15486,6.15486,0,0,1,3.19141.91406l-1.501,4.22657a4.25644,4.25644,0,0,0-2.27734-.79346,2.69189,2.69189,0,0,0-1.7251.56054,3.83236,3.83236,0,0,0-1.1123,2.02686,28.773,28.773,0,0,0-.40576,6.1416Z" transform="translate(-958.10059 -163.70178)" style="fill:#7a923c"/><path d="M1350.72461,367.38281h5.15771l4.38184,13.00684,4.27832-13.00684h5.02l-6.46924,17.63037-1.15576,3.19141a13.04761,13.04761,0,0,1-1.21631,2.44971,5.30738,5.30738,0,0,1-1.32812,1.37109,5.81117,5.81117,0,0,1-1.84571.81982,9.59684,9.59684,0,0,1-2.47558.293,12.85646,12.85646,0,0,1-2.74317-.293l-.43115-3.79541a10.73216,10.73216,0,0,0,2.05274.22413,3.04278,3.04278,0,0,0,2.50146-.9917,6.88889,6.88889,0,0,0,1.24219-2.52735Z" transform="translate(-958.10059 -163.70178)" style="fill:#7a923c"/><path d="M1374.56543,379.18213l-1.25928-12.83447v-5.93457h5.24414v5.93457l-1.24218,12.83447Zm-1.05225,6.521v-4.84765h4.84717v4.84765Z" transform="translate(-958.10059 -163.70178)" style="fill:#7a923c"/><path d="M1085.16113,428.09912v-25.29h5.10645v11.23047l10.3164-11.23047h6.86573l-9.52246,9.85059,10.04,15.43945h-6.60743l-6.95215-11.86865-4.14013,4.22656v7.64209Z" transform="translate(-958.10059 -163.70178)" style="fill:#7a923c"/><path d="M1121.18115,422.26807l4.83057.811a7.9239,7.9239,0,0,1-2.94141,4.04541,8.6411,8.6411,0,0,1-5.02881,1.38867q-4.77831,0-7.07275-3.12256a10.4897,10.4897,0,0,1-1.81152-6.314,10.11755,10.11755,0,0,1,2.38086-7.1333,7.84127,7.84127,0,0,1,6.0205-2.57861,8.13389,8.13389,0,0,1,6.45215,2.6997q2.3628,2.69971,2.25977,8.27149h-12.145a4.905,4.905,0,0,0,1.17334,3.35547,3.66763,3.66763,0,0,0,2.79443,1.19921,2.9681,2.9681,0,0,0,1.915-.62109A3.83552,3.83552,0,0,0,1121.18115,422.26807Zm.27637-4.89893a4.66875,4.66875,0,0,0-1.08691-3.20019,3.49828,3.49828,0,0,0-5.14063.06054,4.46937,4.46937,0,0,0-1.01807,3.13965Z" transform="translate(-958.10059 -163.70178)" style="fill:#7a923c"/><path d="M1140.83008,422.26807l4.83056.811a7.92389,7.92389,0,0,1-2.9414,4.04541,8.64115,8.64115,0,0,1-5.02881,1.38867q-4.77833,0-7.07275-3.12256a10.48971,10.48971,0,0,1-1.81153-6.314,10.1176,10.1176,0,0,1,2.38086-7.1333,7.84129,7.84129,0,0,1,6.02051-2.57861,8.13389,8.13389,0,0,1,6.45215,2.6997q2.36279,2.69971,2.25976,8.27149h-12.145a4.90506,4.90506,0,0,0,1.17334,3.35547,3.66763,3.66763,0,0,0,2.79444,1.19921,2.96812,2.96812,0,0,0,1.915-.62109A3.83559,3.83559,0,0,0,1140.83008,422.26807Zm.27637-4.89893a4.66876,4.66876,0,0,0-1.08692-3.20019,3.49827,3.49827,0,0,0-5.14062.06054,4.46933,4.46933,0,0,0-1.01807,3.13965Z" transform="translate(-958.10059 -163.70178)" style="fill:#7a923c"/><path d="M1149.73193,409.77881h4.51953v2.69092a6.77053,6.77053,0,0,1,2.38086-2.24268,6.56493,6.56493,0,0,1,3.32959-.8623,6.98575,6.98575,0,0,1,5.41651,2.501,10.12467,10.12467,0,0,1,2.22558,6.96973q0,4.58862-2.24267,7.1333a6.98747,6.98747,0,0,1-5.43408,2.54443,6.16794,6.16794,0,0,1-2.75147-.604,9.2655,9.2655,0,0,1-2.59619-2.06982v9.229h-4.84766Zm4.7959,8.84961a7.05562,7.05562,0,0,0,1.22461,4.563,3.74731,3.74731,0,0,0,2.98438,1.47461,3.50279,3.50279,0,0,0,2.812-1.354,6.97739,6.97739,0,0,0,1.12109-4.44238,6.62052,6.62052,0,0,0-1.15576-4.27783,3.57525,3.57525,0,0,0-2.86377-1.39746,3.71768,3.71768,0,0,0-2.94971,1.37158A6.10311,6.10311,0,0,0,1154.52783,418.62842Z" transform="translate(-958.10059 -163.70178)" style="fill:#7a923c"/><path d="M1181.26709,428.09912v-25.29h4.84717v25.29Z" transform="translate(-958.10059 -163.70178)" style="fill:#7a923c"/><path d="M1189.96143,418.68018a9.914,9.914,0,0,1,1.19043-4.6753,8.17183,8.17183,0,0,1,3.37255-3.45019,10.00838,10.00838,0,0,1,4.87354-1.18994,9.1467,9.1467,0,0,1,6.814,2.6997,9.32807,9.32807,0,0,1,2.65674,6.82276,9.44,9.44,0,0,1-2.68261,6.8916,9.0657,9.0657,0,0,1-6.75391,2.73437,10.63342,10.63342,0,0,1-4.8042-1.13867,7.80782,7.80782,0,0,1-3.47607-3.33789A11.1231,11.1231,0,0,1,1189.96143,418.68018Zm4.96826.25878a6.06881,6.06881,0,0,0,1.29394,4.17481,4.22987,4.22987,0,0,0,6.374,0,6.15334,6.15334,0,0,0,1.28515-4.20947,6.03986,6.03986,0,0,0-1.28515-4.14014,4.22893,4.22893,0,0,0-6.374,0A6.0688,6.0688,0,0,0,1194.92969,418.939Z" transform="translate(-958.10059 -163.70178)" style="fill:#7a923c"/><path d="M1211.54248,418.68018a9.914,9.914,0,0,1,1.19043-4.6753,8.17186,8.17186,0,0,1,3.37256-3.45019,10.00834,10.00834,0,0,1,4.87353-1.18994,9.14672,9.14672,0,0,1,6.814,2.6997,9.32811,9.32811,0,0,1,2.65674,6.82276,9.44,9.44,0,0,1-2.68262,6.8916,9.06567,9.06567,0,0,1-6.75391,2.73437,10.63342,10.63342,0,0,1-4.8042-1.13867,7.80792,7.80792,0,0,1-3.47607-3.33789A11.1231,11.1231,0,0,1,1211.54248,418.68018Zm4.96826.25878a6.06876,6.06876,0,0,0,1.29395,4.17481,4.22986,4.22986,0,0,0,6.374,0,6.15334,6.15334,0,0,0,1.28516-4.20947,6.03986,6.03986,0,0,0-1.28516-4.14014,4.22892,4.22892,0,0,0-6.374,0A6.06875,6.06875,0,0,0,1216.51074,418.939Z" transform="translate(-958.10059 -163.70178)" style="fill:#7a923c"/><path d="M1234.07227,428.09912v-25.29h4.84765v13.42139l5.67578-6.45166h5.96875l-6.2622,6.69336,6.71045,11.627h-5.22706l-4.606-8.22851-2.25977,2.36328v5.86523Z" transform="translate(-958.10059 -163.70178)" style="fill:#7a923c"/><path d="M1253.894,407.29443v-4.48535h4.84717v4.48535Zm0,20.80469V409.77881h4.84717v18.32031Z" transform="translate(-958.10059 -163.70178)" style="fill:#7a923c"/><path d="M1280.374,428.09912h-4.84716V418.749a14.45205,14.45205,0,0,0-.31055-3.83838,2.69159,2.69159,0,0,0-1.00928-1.354,2.886,2.886,0,0,0-1.68213-.48291,3.88734,3.88734,0,0,0-2.25976.68994,3.475,3.475,0,0,0-1.37159,1.82862,15.79471,15.79471,0,0,0-.3706,4.209v8.29785h-4.84766V409.77881h4.50244v2.69092a7.50938,7.50938,0,0,1,8.97071-2.52735,4.92155,4.92155,0,0,1,2.00976,1.4751,5.35153,5.35153,0,0,1,.94873,2.03564,15.14323,15.14323,0,0,1,.26709,3.26026Z" transform="translate(-958.10059 -163.70178)" style="fill:#7a923c"/><path d="M1284.84229,429.30664l5.53759.67285a1.88886,1.88886,0,0,0,.63819,1.32813,3.64312,3.64312,0,0,0,2.17382.51758,5.6416,5.6416,0,0,0,2.8462-.56934,2.34781,2.34781,0,0,0,.9663-1.22461,7.38339,7.38339,0,0,0,.22413-2.22559v-2.67382a6.55891,6.55891,0,0,1-5.48584,2.96728,6.7522,6.7522,0,0,1-5.84815-3.12256,10.60975,10.60975,0,0,1-1.69043-6.14111q0-4.6062,2.2168-7.03857a7.15253,7.15253,0,0,1,5.51172-2.43213,6.71065,6.71065,0,0,1,5.60644,2.98437v-2.57031h4.53711v16.43994a16.38279,16.38279,0,0,1-.53515,4.84766,6.01316,6.01316,0,0,1-1.50049,2.51855,6.64276,6.64276,0,0,1-2.5791,1.43164,13.57326,13.57326,0,0,1-4.08008.51758q-4.65747,0-6.60694-1.5957a5.00546,5.00546,0,0,1-1.94921-4.04541Q1284.8252,429.65136,1284.84229,429.30664Zm4.33007-10.74707a6.60634,6.60634,0,0,0,1.12989,4.26953,3.493,3.493,0,0,0,2.78613,1.354,3.85221,3.85221,0,0,0,3.00146-1.38868,6.05305,6.05305,0,0,0,1.2251-4.11425,6.41542,6.41542,0,0,0-1.17334-4.22657,3.7278,3.7278,0,0,0-2.96728-1.37988,3.5773,3.5773,0,0,0-2.87207,1.354A6.35071,6.35071,0,0,0,1289.17236,418.55957Z" transform="translate(-958.10059 -163.70178)" style="fill:#7a923c"/></svg>