<svg version="1.1" id="Layer_1" xmlns="http://www.w3.org/2000/svg" xmlns:xlink="http://www.w3.org/1999/xlink" x="0px" y="0px"
	 viewBox="120 100 570 1290.6" style="enable-background:new 0 0 841.9 1190.6;" xml:space="preserve">
<style type="text/css">
</style>
<g>
	<g>
		<g>
			<g>
				<g>
					<path class="st0" fill="#3A301F" d="M651.2,1046H194.1c-6.6,0-12-5.4-12-12V167.5c0-6.6,5.4-12,12-12h457.1c6.6,0,12,5.4,12,12V1034
						C663.2,1040.6,657.8,1046,651.2,1046z"/>
					<path class="st1" fill="#FFFFFF" d="M640.9,1035.4H183.8c-6.6,0-12-5.4-12-12V156.9c0-6.6,5.4-12,12-12h457.1c6.6,0,12,5.4,12,12v866.5
						C652.9,1030,647.5,1035.4,640.9,1035.4z"/>
				</g>
			</g>
		</g>
		<g>
			<path class="st2" fill="#7A923D" d="M296.5,460.5h9.3c2.1,0,3.7,0.2,4.8,0.5c1.5,0.4,2.8,1.2,3.8,2.3c1.1,1.1,1.9,2.5,2.4,4.1
				c0.6,1.6,0.8,3.6,0.8,6c0,2.1-0.3,3.9-0.8,5.4c-0.6,1.8-1.5,3.3-2.7,4.5c-0.9,0.9-2.1,1.5-3.6,2c-1.1,0.4-2.6,0.5-4.5,0.5h-9.6
				V460.5z M301.6,464.8v16.8h3.8c1.4,0,2.5-0.1,3.1-0.2c0.8-0.2,1.5-0.6,2.1-1.1s1-1.3,1.3-2.4c0.3-1.1,0.5-2.7,0.5-4.6
				c0-2-0.2-3.5-0.5-4.5c-0.3-1-0.8-1.9-1.4-2.4c-0.6-0.6-1.4-1-2.4-1.2c-0.7-0.2-2.1-0.2-4.2-0.2H301.6z"/>
			<path class="st2" fill="#7A923D" d="M320.9,476.4c0-1.6,0.4-3.2,1.2-4.7c0.8-1.5,1.9-2.7,3.4-3.5c1.5-0.8,3.1-1.2,4.9-1.2c2.8,0,5,0.9,6.8,2.7
				s2.7,4.1,2.7,6.8c0,2.8-0.9,5.1-2.7,6.9c-1.8,1.8-4,2.7-6.8,2.7c-1.7,0-3.3-0.4-4.8-1.1c-1.5-0.8-2.7-1.9-3.5-3.3
				S320.9,478.5,320.9,476.4z M325.8,476.6c0,1.8,0.4,3.2,1.3,4.2c0.9,1,1.9,1.4,3.2,1.4s2.3-0.5,3.2-1.4c0.9-1,1.3-2.4,1.3-4.2
				c0-1.8-0.4-3.2-1.3-4.1c-0.9-1-1.9-1.4-3.2-1.4s-2.3,0.5-3.2,1.4C326.3,473.4,325.8,474.8,325.8,476.6z"/>
			<path class="st2" fill="#7A923D" d="M360.2,485.8h-4.8v-9.4c0-2-0.1-3.3-0.3-3.8c-0.2-0.6-0.5-1-1-1.4s-1-0.5-1.7-0.5c-0.8,0-1.6,0.2-2.3,0.7
				s-1.1,1.1-1.4,1.8c-0.2,0.8-0.4,2.2-0.4,4.2v8.3h-4.8v-18.3h4.5v2.7c1.6-2.1,3.6-3.1,6-3.1c1.1,0,2,0.2,2.9,0.6
				c0.9,0.4,1.6,0.9,2,1.5c0.5,0.6,0.8,1.3,0.9,2c0.2,0.8,0.3,1.8,0.3,3.3V485.8z"/>
			<path class="st2" fill="#7A923D" d="M365,460.6h4.8v3.5c0,1.4-0.1,2.5-0.4,3.3c-0.2,0.8-0.7,1.5-1.4,2.2s-1.5,1.2-2.6,1.5l-0.9-2
				c1-0.3,1.7-0.8,2.1-1.3c0.4-0.6,0.6-1.3,0.7-2.3H365V460.6z"/>
			<path class="st2" fill="#7A923D" d="M383.4,467.5v3.9h-3.3v7.4c0,1.5,0,2.4,0.1,2.6c0.1,0.2,0.2,0.5,0.4,0.6c0.2,0.2,0.5,0.2,0.8,0.2
				c0.4,0,1.1-0.2,1.9-0.5l0.4,3.8c-1.1,0.5-2.4,0.7-3.8,0.7c-0.9,0-1.7-0.1-2.4-0.4s-1.2-0.7-1.5-1.1c-0.3-0.5-0.6-1.1-0.7-1.9
				c-0.1-0.6-0.2-1.7-0.2-3.4v-8H373v-3.9h2.2v-3.6l4.9-2.8v6.5H383.4z"/>
			<path class="st2" fill="#7A923D" d="M396.6,485.8v-25.3h4.8v25.3H396.6z"/>
			<path class="st2" fill="#7A923D" d="M405.3,476.4c0-1.6,0.4-3.2,1.2-4.7c0.8-1.5,1.9-2.7,3.4-3.5c1.5-0.8,3.1-1.2,4.9-1.2c2.8,0,5,0.9,6.8,2.7
				c1.8,1.8,2.7,4.1,2.7,6.8c0,2.8-0.9,5.1-2.7,6.9c-1.8,1.8-4,2.7-6.8,2.7c-1.7,0-3.3-0.4-4.8-1.1c-1.5-0.8-2.7-1.9-3.5-3.3
				S405.3,478.5,405.3,476.4z M410.2,476.6c0,1.8,0.4,3.2,1.3,4.2c0.9,1,1.9,1.4,3.2,1.4s2.3-0.5,3.2-1.4c0.9-1,1.3-2.4,1.3-4.2
				c0-1.8-0.4-3.2-1.3-4.1c-0.9-1-1.9-1.4-3.2-1.4s-2.3,0.5-3.2,1.4C410.7,473.4,410.2,474.8,410.2,476.6z"/>
			<path class="st2" fill="#7A923D" d="M426.8,476.4c0-1.6,0.4-3.2,1.2-4.7c0.8-1.5,1.9-2.7,3.4-3.5c1.5-0.8,3.1-1.2,4.9-1.2c2.8,0,5,0.9,6.8,2.7
				s2.7,4.1,2.7,6.8c0,2.8-0.9,5.1-2.7,6.9c-1.8,1.8-4,2.7-6.8,2.7c-1.7,0-3.3-0.4-4.8-1.1c-1.5-0.8-2.7-1.9-3.5-3.3
				C427.2,480.3,426.8,478.5,426.8,476.4z M431.8,476.6c0,1.8,0.4,3.2,1.3,4.2c0.9,1,1.9,1.4,3.2,1.4s2.3-0.5,3.2-1.4
				c0.9-1,1.3-2.4,1.3-4.2c0-1.8-0.4-3.2-1.3-4.1c-0.9-1-1.9-1.4-3.2-1.4s-2.3,0.5-3.2,1.4C432.2,473.4,431.8,474.8,431.8,476.6z"/>
			<path class="st2" fill="#7A923D" d="M449.4,485.8v-25.3h4.8v13.4l5.7-6.5h6l-6.3,6.7l6.7,11.6h-5.2l-4.6-8.2l-2.3,2.4v5.9H449.4z"/>
			<path class="st2" fill="#7A923D" d="M476.9,467.5h2.7v-1.4c0-1.5,0.2-2.7,0.5-3.5c0.3-0.8,0.9-1.4,1.8-1.9c0.9-0.5,2-0.7,3.3-0.7
				c1.4,0,2.7,0.2,4.1,0.6l-0.7,3.4c-0.8-0.2-1.5-0.3-2.2-0.3c-0.7,0-1.2,0.2-1.5,0.5s-0.5,1-0.5,1.9v1.3h3.6v3.8h-3.6v14.5h-4.8
				v-14.5h-2.7V467.5z"/>
			<path class="st2" fill="#7A923D" d="M489.6,476.4c0-1.6,0.4-3.2,1.2-4.7c0.8-1.5,1.9-2.7,3.4-3.5c1.5-0.8,3.1-1.2,4.9-1.2c2.8,0,5,0.9,6.8,2.7
				s2.7,4.1,2.7,6.8c0,2.8-0.9,5.1-2.7,6.9c-1.8,1.8-4,2.7-6.8,2.7c-1.7,0-3.3-0.4-4.8-1.1c-1.5-0.8-2.7-1.9-3.5-3.3
				C490,480.3,489.6,478.5,489.6,476.4z M494.6,476.6c0,1.8,0.4,3.2,1.3,4.2c0.9,1,1.9,1.4,3.2,1.4s2.3-0.5,3.2-1.4
				c0.9-1,1.3-2.4,1.3-4.2c0-1.8-0.4-3.2-1.3-4.1c-0.9-1-1.9-1.4-3.2-1.4s-2.3,0.5-3.2,1.4C495,473.4,494.6,474.8,494.6,476.6z"/>
			<path class="st2" fill="#7A923D" d="M517,485.8h-4.8v-18.3h4.5v2.6c0.8-1.2,1.5-2,2.1-2.4s1.3-0.6,2.1-0.6c1.1,0,2.2,0.3,3.2,0.9l-1.5,4.2
				c-0.8-0.5-1.6-0.8-2.3-0.8c-0.7,0-1.3,0.2-1.7,0.6c-0.5,0.4-0.8,1-1.1,2c-0.3,1-0.4,3-0.4,6.1V485.8z"/>
			<path class="st2" fill="#7A923D" d="M291.4,528.2v-25.3h4.8v9.1c1.5-1.7,3.3-2.6,5.3-2.6c2.2,0,4.1,0.8,5.5,2.4c1.5,1.6,2.2,3.9,2.2,7
				c0,3.1-0.7,5.5-2.2,7.2c-1.5,1.7-3.3,2.5-5.4,2.5c-1,0-2.1-0.3-3.1-0.8c-1-0.5-1.9-1.3-2.6-2.3v2.7H291.4z M296.2,518.6
				c0,1.9,0.3,3.3,0.9,4.2c0.8,1.3,2,1.9,3.3,1.9c1.1,0,2-0.5,2.7-1.4c0.8-0.9,1.1-2.4,1.1-4.3c0-2.1-0.4-3.6-1.1-4.5
				c-0.8-0.9-1.7-1.4-2.9-1.4c-1.2,0-2.1,0.5-2.9,1.4C296.6,515.4,296.2,516.8,296.2,518.6z"/>
			<path class="st2" fill="#7A923D" d="M313.1,507.4v-4.5h4.8v4.5H313.1z M313.1,528.2v-18.3h4.8v18.3H313.1z"/>
			<path class="st2" fill="#7A923D" d="M327.6,528.2h-4.8v-18.3h4.5v2.6c0.8-1.2,1.5-2,2.1-2.4s1.3-0.6,2.1-0.6c1.1,0,2.2,0.3,3.2,0.9l-1.5,4.2
				c-0.8-0.5-1.6-0.8-2.3-0.8c-0.7,0-1.3,0.2-1.7,0.6c-0.5,0.4-0.8,1-1.1,2c-0.3,1-0.4,3-0.4,6.1V528.2z"/>
			<path class="st2" fill="#7A923D" d="M352.7,515.3l-4.8,0.9c-0.2-1-0.5-1.7-1.1-2.2c-0.6-0.5-1.3-0.7-2.2-0.7c-1.2,0-2.2,0.4-2.9,1.3
				c-0.7,0.8-1.1,2.2-1.1,4.2c0,2.2,0.4,3.7,1.1,4.6c0.7,0.9,1.7,1.3,2.9,1.3c0.9,0,1.7-0.3,2.3-0.8s1-1.4,1.2-2.7l4.8,0.8
				c-0.5,2.2-1.4,3.8-2.8,5c-1.4,1.1-3.3,1.7-5.6,1.7c-2.7,0-4.8-0.8-6.4-2.5c-1.6-1.7-2.4-4-2.4-7c0-3,0.8-5.4,2.4-7.1
				c1.6-1.7,3.8-2.5,6.5-2.5c2.2,0,4,0.5,5.3,1.4S352.1,513.3,352.7,515.3z"/>
			<path class="st2" fill="#7A923D" d="M361.2,502.9v9.3c1.6-1.8,3.4-2.7,5.6-2.7c1.1,0,2.1,0.2,3,0.6c0.9,0.4,1.6,0.9,2,1.6
				c0.5,0.6,0.8,1.4,0.9,2.1c0.2,0.8,0.3,2,0.3,3.6v10.7h-4.8v-9.7c0-1.9-0.1-3.1-0.3-3.7s-0.5-0.9-1-1.2s-1-0.5-1.8-0.5
				c-0.8,0-1.5,0.2-2.2,0.6c-0.6,0.4-1.1,1-1.4,1.8c-0.3,0.8-0.4,2-0.4,3.5v9.2h-4.8v-25.3H361.2z"/>
			<path class="st2" fill="#7A923D" d="M387.6,509.9h4.5v2.7c0.6-0.9,1.4-1.7,2.4-2.2c1-0.6,2.1-0.9,3.3-0.9c2.1,0,3.9,0.8,5.4,2.5
				c1.5,1.7,2.2,4,2.2,7c0,3.1-0.7,5.4-2.2,7.1c-1.5,1.7-3.3,2.5-5.4,2.5c-1,0-1.9-0.2-2.8-0.6c-0.8-0.4-1.7-1.1-2.6-2.1v9.2h-4.8
				V509.9z M392.4,518.7c0,2.1,0.4,3.6,1.2,4.6c0.8,1,1.8,1.5,3,1.5c1.1,0,2.1-0.5,2.8-1.4s1.1-2.4,1.1-4.4c0-1.9-0.4-3.3-1.2-4.3
				c-0.8-0.9-1.7-1.4-2.9-1.4c-1.2,0-2.2,0.5-2.9,1.4C392.8,515.6,392.4,516.9,392.4,518.7z"/>
			<path class="st2" fill="#7A923D" d="M409.3,528.2v-25.3h4.8v25.3H409.3z"/>
			<path class="st2" fill="#7A923D" d="M416.9,509.9h5.2l4.4,13l4.3-13h5l-6.5,17.6l-1.2,3.2c-0.4,1.1-0.8,1.9-1.2,2.4c-0.4,0.6-0.8,1-1.3,1.4
				c-0.5,0.4-1.1,0.6-1.8,0.8c-0.7,0.2-1.6,0.3-2.5,0.3c-0.9,0-1.8-0.1-2.7-0.3l-0.4-3.8c0.8,0.1,1.4,0.2,2.1,0.2c1.1,0,2-0.3,2.5-1
				c0.5-0.7,1-1.5,1.2-2.5L416.9,509.9z"/>
			<path class="st2" fill="#7A923D" d="M442.2,528.2l-5.8-18.3h4.7l3.4,12l3.2-12h4.7l3.1,12l3.5-12h4.8l-5.9,18.3h-4.7l-3.2-11.8l-3.1,11.8H442.2z
				"/>
			<path class="st2" fill="#7A923D" d="M465.2,518.8c0-1.6,0.4-3.2,1.2-4.7c0.8-1.5,1.9-2.7,3.4-3.5c1.5-0.8,3.1-1.2,4.9-1.2c2.8,0,5,0.9,6.8,2.7
				c1.8,1.8,2.7,4.1,2.7,6.8c0,2.8-0.9,5.1-2.7,6.9c-1.8,1.8-4,2.7-6.8,2.7c-1.7,0-3.3-0.4-4.8-1.1c-1.5-0.8-2.7-1.9-3.5-3.3
				S465.2,520.9,465.2,518.8z M470.1,519c0,1.8,0.4,3.2,1.3,4.2c0.9,1,1.9,1.4,3.2,1.4c1.3,0,2.3-0.5,3.2-1.4c0.9-1,1.3-2.4,1.3-4.2
				c0-1.8-0.4-3.2-1.3-4.1c-0.9-1-1.9-1.4-3.2-1.4c-1.3,0-2.3,0.5-3.2,1.4C470.6,515.8,470.1,517.2,470.1,519z"/>
			<path class="st2" fill="#7A923D" d="M486.7,518.8c0-1.6,0.4-3.2,1.2-4.7c0.8-1.5,1.9-2.7,3.4-3.5c1.5-0.8,3.1-1.2,4.9-1.2c2.8,0,5,0.9,6.8,2.7
				c1.8,1.8,2.7,4.1,2.7,6.8c0,2.8-0.9,5.1-2.7,6.9c-1.8,1.8-4,2.7-6.8,2.7c-1.7,0-3.3-0.4-4.8-1.1c-1.5-0.8-2.7-1.9-3.5-3.3
				S486.7,520.9,486.7,518.8z M491.7,519c0,1.8,0.4,3.2,1.3,4.2c0.9,1,1.9,1.4,3.2,1.4c1.3,0,2.3-0.5,3.2-1.4c0.9-1,1.3-2.4,1.3-4.2
				c0-1.8-0.4-3.2-1.3-4.1c-0.9-1-1.9-1.4-3.2-1.4c-1.3,0-2.3,0.5-3.2,1.4C492.1,515.8,491.7,517.2,491.7,519z"/>
			<path class="st2" fill="#7A923D" d="M526.2,528.2h-4.5v-2.7c-0.7,1-1.6,1.8-2.6,2.3c-1,0.5-2,0.8-3.1,0.8c-2.1,0-3.9-0.8-5.4-2.5
				c-1.5-1.7-2.3-4.1-2.3-7.1c0-3.1,0.7-5.5,2.2-7.1c1.5-1.6,3.3-2.4,5.5-2.4c2,0,3.8,0.9,5.3,2.6v-9.1h4.8V528.2z M513.3,518.6
				c0,2,0.3,3.4,0.8,4.2c0.8,1.3,1.9,1.9,3.3,1.9c1.1,0,2.1-0.5,2.8-1.4c0.8-0.9,1.2-2.4,1.2-4.3c0-2.1-0.4-3.6-1.1-4.5
				c-0.8-0.9-1.7-1.4-2.9-1.4c-1.2,0-2.1,0.5-2.9,1.4C513.7,515.5,513.3,516.8,513.3,518.6z"/>
			<path class="st2" fill="#7A923D" d="M277.1,570.6v-2.7c-0.7,1-1.5,1.7-2.6,2.3c-1.1,0.6-2.2,0.8-3.4,0.8c-1.2,0-2.3-0.3-3.3-0.8
				c-1-0.5-1.7-1.3-2.1-2.3s-0.7-2.3-0.7-4.1v-11.6h4.8v8.4c0,2.6,0.1,4.2,0.3,4.7c0.2,0.6,0.5,1,1,1.4c0.5,0.3,1.1,0.5,1.8,0.5
				c0.8,0,1.6-0.2,2.2-0.7c0.7-0.5,1.1-1,1.3-1.7c0.2-0.7,0.4-2.3,0.4-4.9v-7.7h4.8v18.3H277.1z"/>
			<path class="st2" fill="#7A923D" d="M303.3,570.6h-4.8v-9.4c0-2-0.1-3.3-0.3-3.8c-0.2-0.6-0.5-1-1-1.4s-1-0.5-1.7-0.5c-0.8,0-1.6,0.2-2.3,0.7
				s-1.1,1.1-1.4,1.8c-0.2,0.8-0.4,2.2-0.4,4.2v8.3h-4.8v-18.3h4.5v2.7c1.6-2.1,3.6-3.1,6-3.1c1.1,0,2,0.2,2.9,0.6
				c0.9,0.4,1.6,0.9,2,1.5c0.5,0.6,0.8,1.3,0.9,2c0.2,0.8,0.3,1.8,0.3,3.3V570.6z"/>
			<path class="st2" fill="#7A923D" d="M325,570.6h-4.5v-2.7c-0.7,1-1.6,1.8-2.6,2.3c-1,0.5-2,0.8-3.1,0.8c-2.1,0-3.9-0.8-5.4-2.5
				c-1.5-1.7-2.3-4.1-2.3-7.1c0-3.1,0.7-5.5,2.2-7.1c1.5-1.6,3.3-2.4,5.5-2.4c2,0,3.8,0.9,5.3,2.6v-9.1h4.8V570.6z M312.1,561
				c0,2,0.3,3.4,0.8,4.2c0.8,1.3,1.9,1.9,3.3,1.9c1.1,0,2.1-0.5,2.8-1.4s1.2-2.4,1.2-4.3c0-2.1-0.4-3.6-1.1-4.5
				c-0.8-0.9-1.7-1.4-2.9-1.4c-1.2,0-2.1,0.5-2.9,1.4C312.5,557.8,312.1,559.2,312.1,561z"/>
			<path class="st2" fill="#7A923D" d="M340.4,564.8l4.8,0.8c-0.6,1.8-1.6,3.1-2.9,4s-3,1.4-5,1.4c-3.2,0-5.5-1-7.1-3.1c-1.2-1.7-1.8-3.8-1.8-6.3
				c0-3,0.8-5.4,2.4-7.1c1.6-1.7,3.6-2.6,6-2.6c2.7,0,4.9,0.9,6.5,2.7c1.6,1.8,2.3,4.6,2.3,8.3h-12.1c0,1.4,0.4,2.6,1.2,3.4
				c0.7,0.8,1.7,1.2,2.8,1.2c0.8,0,1.4-0.2,1.9-0.6S340.1,565.7,340.4,564.8z M340.7,559.9c0-1.4-0.4-2.5-1.1-3.2
				c-0.7-0.7-1.5-1.1-2.5-1.1c-1.1,0-1.9,0.4-2.6,1.2c-0.7,0.8-1,1.8-1,3.1H340.7z"/>
			<path class="st2" fill="#7A923D" d="M354.1,570.6h-4.8v-18.3h4.5v2.6c0.8-1.2,1.5-2,2.1-2.4s1.3-0.6,2.1-0.6c1.1,0,2.2,0.3,3.2,0.9l-1.5,4.2
				c-0.8-0.5-1.6-0.8-2.3-0.8c-0.7,0-1.3,0.2-1.7,0.6c-0.5,0.4-0.8,1-1.1,2c-0.3,1-0.4,3-0.4,6.1V570.6z"/>
			<path class="st2" fill="#7A923D" d="M381.4,552.3v3.9h-3.3v7.4c0,1.5,0,2.4,0.1,2.6c0.1,0.2,0.2,0.5,0.4,0.6c0.2,0.2,0.5,0.2,0.8,0.2
				c0.4,0,1.1-0.2,1.9-0.5l0.4,3.8c-1.1,0.5-2.4,0.7-3.8,0.7c-0.9,0-1.7-0.1-2.4-0.4s-1.2-0.7-1.5-1.1c-0.3-0.5-0.6-1.1-0.7-1.9
				c-0.1-0.6-0.2-1.7-0.2-3.4v-8H371v-3.9h2.2v-3.6l4.9-2.8v6.5H381.4z"/>
			<path class="st2" fill="#7A923D" d="M389.6,545.3v9.3c1.6-1.8,3.4-2.7,5.6-2.7c1.1,0,2.1,0.2,3,0.6c0.9,0.4,1.6,0.9,2,1.6
				c0.5,0.6,0.8,1.4,0.9,2.1c0.2,0.8,0.3,2,0.3,3.6v10.7h-4.8v-9.7c0-1.9-0.1-3.1-0.3-3.7s-0.5-0.9-1-1.2s-1-0.5-1.8-0.5
				c-0.8,0-1.5,0.2-2.2,0.6c-0.6,0.4-1.1,1-1.4,1.8c-0.3,0.8-0.4,2-0.4,3.5v9.2h-4.8v-25.3H389.6z"/>
			<path class="st2" fill="#7A923D" d="M417,564.8l4.8,0.8c-0.6,1.8-1.6,3.1-2.9,4s-3,1.4-5,1.4c-3.2,0-5.5-1-7.1-3.1c-1.2-1.7-1.8-3.8-1.8-6.3
				c0-3,0.8-5.4,2.4-7.1c1.6-1.7,3.6-2.6,6-2.6c2.7,0,4.9,0.9,6.5,2.7c1.6,1.8,2.3,4.6,2.3,8.3h-12.1c0,1.4,0.4,2.6,1.2,3.4
				c0.7,0.8,1.7,1.2,2.8,1.2c0.8,0,1.4-0.2,1.9-0.6S416.7,565.7,417,564.8z M417.2,559.9c0-1.4-0.4-2.5-1.1-3.2
				c-0.7-0.7-1.5-1.1-2.5-1.1c-1.1,0-1.9,0.4-2.6,1.2c-0.7,0.8-1,1.8-1,3.1H417.2z"/>
			<path class="st2" fill="#7A923D" d="M433.7,552.3h2.7v-1.4c0-1.5,0.2-2.7,0.5-3.5c0.3-0.8,0.9-1.4,1.8-1.9c0.9-0.5,2-0.7,3.3-0.7
				c1.4,0,2.7,0.2,4.1,0.6l-0.7,3.4c-0.8-0.2-1.5-0.3-2.2-0.3c-0.7,0-1.2,0.2-1.5,0.5s-0.5,1-0.5,1.9v1.3h3.6v3.8h-3.6v14.5h-4.8
				v-14.5h-2.7V552.3z"/>
			<path class="st2" fill="#7A923D" d="M447.6,549.8v-4.5h4.8v4.5H447.6z M447.6,570.6v-18.3h4.8v18.3H447.6z"/>
			<path class="st2" fill="#7A923D" d="M462,570.6h-4.8v-18.3h4.5v2.6c0.8-1.2,1.5-2,2.1-2.4s1.3-0.6,2.1-0.6c1.1,0,2.2,0.3,3.2,0.9l-1.5,4.2
				c-0.8-0.5-1.6-0.8-2.3-0.8c-0.7,0-1.3,0.2-1.7,0.6c-0.5,0.4-0.8,1-1.1,2c-0.3,1-0.4,3-0.4,6.1V570.6z"/>
			<path class="st2" fill="#7A923D" d="M489.4,552.3v3.9H486v7.4c0,1.5,0,2.4,0.1,2.6c0.1,0.2,0.2,0.5,0.4,0.6c0.2,0.2,0.5,0.2,0.8,0.2
				c0.4,0,1.1-0.2,1.9-0.5l0.4,3.8c-1.1,0.5-2.4,0.7-3.8,0.7c-0.9,0-1.7-0.1-2.4-0.4c-0.7-0.3-1.2-0.7-1.5-1.1s-0.6-1.1-0.7-1.9
				c-0.1-0.6-0.2-1.7-0.2-3.4v-8H479v-3.9h2.2v-3.6l4.9-2.8v6.5H489.4z"/>
			<path class="st2" fill="#7A923D" d="M497.4,570.6h-4.8v-18.3h4.5v2.6c0.8-1.2,1.5-2,2.1-2.4s1.3-0.6,2.1-0.6c1.1,0,2.2,0.3,3.2,0.9l-1.5,4.2
				c-0.8-0.5-1.6-0.8-2.3-0.8c-0.7,0-1.3,0.2-1.7,0.6c-0.5,0.4-0.8,1-1.1,2c-0.3,1-0.4,3-0.4,6.1V570.6z"/>
			<path class="st2" fill="#7A923D" d="M517.1,564.8l4.8,0.8c-0.6,1.8-1.6,3.1-2.9,4s-3,1.4-5,1.4c-3.2,0-5.5-1-7.1-3.1c-1.2-1.7-1.8-3.8-1.8-6.3
				c0-3,0.8-5.4,2.4-7.1c1.6-1.7,3.6-2.6,6-2.6c2.7,0,4.9,0.9,6.5,2.7c1.6,1.8,2.3,4.6,2.3,8.3H510c0,1.4,0.4,2.6,1.2,3.4
				c0.7,0.8,1.7,1.2,2.8,1.2c0.8,0,1.4-0.2,1.9-0.6S516.8,565.7,517.1,564.8z M517.4,559.9c0-1.4-0.4-2.5-1.1-3.2
				c-0.7-0.7-1.5-1.1-2.5-1.1c-1.1,0-1.9,0.4-2.6,1.2c-0.7,0.8-1,1.8-1,3.1H517.4z"/>
			<path class="st2" fill="#7A923D" d="M536.7,564.8l4.8,0.8c-0.6,1.8-1.6,3.1-2.9,4s-3,1.4-5,1.4c-3.2,0-5.5-1-7.1-3.1c-1.2-1.7-1.8-3.8-1.8-6.3
				c0-3,0.8-5.4,2.4-7.1c1.6-1.7,3.6-2.6,6-2.6c2.7,0,4.9,0.9,6.5,2.7c1.6,1.8,2.3,4.6,2.3,8.3h-12.1c0,1.4,0.4,2.6,1.2,3.4
				c0.7,0.8,1.7,1.2,2.8,1.2c0.8,0,1.4-0.2,1.9-0.6S536.5,565.7,536.7,564.8z M537,559.9c0-1.4-0.4-2.5-1.1-3.2
				c-0.7-0.7-1.5-1.1-2.5-1.1c-1.1,0-1.9,0.4-2.6,1.2c-0.7,0.8-1,1.8-1,3.1H537z"/>
			<path class="st2" fill="#7A923D" d="M547.7,564.1l-1.3-12.8v-5.9h5.2v5.9l-1.2,12.8H547.7z M546.6,570.6v-4.8h4.8v4.8H546.6z"/>
		</g>
	</g>
	<g>
		<g>
			<path class="st3" fill="#D96701" d="M197.3,177l10.7,0.9l8.8,15.6l-1.5-14.8h10.2l0.7,29.4l-11.9,3.1l-8.8-17.6l-0.8,16.2l-10.2-2.4l2.8-29.8
				V177z"/>
			<path class="st3" fill="#D96701" d="M263.3,195.6c-0.4,5.2-2.4,9.1-6.1,11.7c-3.7,2.6-7.7,3.9-11.9,3.8c-4.2,0-8.1-1.3-11.5-3.9
				c-3.4-2.6-5.1-6.4-5-11.6c0.1-2.8,0.7-5.3,1.9-7.6c1.3-2.3,2.9-4.3,4.8-5.9c1.9-1.6,4-2.9,6.4-3.8c2.4-0.9,4.7-1.3,6.9-1.2
				c1.1,0.1,2.5,0.4,4.2,0.9c1.8,0.6,3.4,1.6,5,2.9c1.6,1.4,2.9,3.3,4,5.7C263,189,263.5,192,263.3,195.6z M250.7,191.6
				c0.2-0.1,0.3-0.2,0.3-0.2c0.1-0.1,0.2-0.2,0.3-0.3c0.7-0.7,1.1-1.5,1.1-2.5c0-0.8-0.3-1.6-0.8-2.4c-0.1-0.1-0.1-0.1-0.2-0.2
				c-0.1-0.1-0.2-0.2-0.3-0.2c-0.1-0.1-0.1-0.1-0.2-0.2c-0.1-0.1-0.2-0.1-0.2-0.2c-0.7-0.4-1.5-0.7-2.3-0.9c-0.9-0.2-1.8,0-2.7,0.4
				c-0.4,0.2-0.7,0.4-1,0.5c-0.4,0.3-0.7,0.5-0.8,0.5c-0.8,0.8-1.2,1.6-1.2,2.6c0.1,0.9,0.4,1.8,0.9,2.5c0.1,0.1,0.1,0.1,0.2,0.2
				c0,0.1,0.1,0.1,0.2,0.2c0.1,0,0.1,0.1,0.2,0.1c0.1,0,0.1,0.1,0.2,0.2c0.8,0.7,1.8,1,2.9,1.1C248.5,193,249.6,192.6,250.7,191.6
				L250.7,191.6z"/>
			<path class="st3" fill="#D96701" d="M266.6,178.8l30.7-1.7l0.5,15.4l-11.7-0.6l3.5,19.3l-15.1-1.6l2.6-17.4l-10.8,0.3L266.6,178.8z"/>
			<path class="st3" fill="#D96701" d="M359.2,195.6c-0.4,5.2-2.4,9.1-6.1,11.7c-3.7,2.6-7.7,3.9-11.9,3.8c-4.2,0-8.1-1.3-11.5-3.9
				c-3.4-2.6-5.1-6.4-5-11.6c0.1-2.8,0.7-5.3,1.9-7.6c1.3-2.3,2.9-4.3,4.8-5.9c1.9-1.6,4-2.9,6.4-3.8c2.4-0.9,4.7-1.3,6.9-1.2
				c1.1,0.1,2.5,0.4,4.2,0.9c1.8,0.6,3.4,1.6,5,2.9c1.6,1.4,2.9,3.3,4,5.7C358.9,189,359.4,192,359.2,195.6z M346.6,191.6
				c0.2-0.1,0.3-0.2,0.3-0.2c0.1-0.1,0.2-0.2,0.3-0.3c0.7-0.7,1.1-1.5,1.1-2.5c0-0.8-0.3-1.6-0.8-2.4c-0.1-0.1-0.1-0.1-0.2-0.2
				c-0.1-0.1-0.2-0.2-0.3-0.2c-0.1-0.1-0.1-0.1-0.2-0.2c-0.1-0.1-0.2-0.1-0.2-0.2c-0.7-0.4-1.5-0.7-2.3-0.9c-0.9-0.2-1.8,0-2.7,0.4
				c-0.4,0.2-0.7,0.4-1,0.5c-0.4,0.3-0.7,0.5-0.8,0.5c-0.8,0.8-1.2,1.6-1.2,2.6c0.1,0.9,0.4,1.8,0.9,2.5c0.1,0.1,0.1,0.1,0.2,0.2
				c0,0.1,0.1,0.1,0.2,0.2c0.1,0,0.1,0.1,0.2,0.1c0.1,0,0.1,0.1,0.2,0.2c0.8,0.7,1.8,1,2.9,1.1C344.4,193,345.5,192.6,346.6,191.6
				L346.6,191.6z"/>
			<path class="st3" fill="#D96701" d="M365.1,177l10.7,0.9l8.8,15.6l-1.5-14.8h10.2l0.7,29.4l-11.9,3.1l-8.8-17.6l-0.8,16.2l-10.2-2.4l2.8-29.8
				V177z"/>
			<path class="st3" fill="#D96701" d="M409.3,177l1.4,25.7l11.4-1.6l0.3,8.6l-22.2,1.5l-3.6-33.8L409.3,177z"/>
			<path class="st3" fill="#D96701" d="M424.6,186.8l7.6-5.8l6.2,8.3l4.9-12.3l10.4,1.7l-17.3,32.4l-7.7-5.6l6.3-10.2L424.6,186.8z"/>
			<path class="st3" fill="#D96701" d="M504.8,187.5c-1.4-0.8-2.9-1.2-4.7-1.4c-1.7-0.1-3.3,0.2-4.9,0.8c-1.5,0.7-2.7,1.7-3.7,3.1
				c-1,1.4-1.4,3.2-1.2,5.3c0.1,1.9,0.8,3.4,1.9,4.6c1.2,1.2,2.5,2,3.9,2.2c1.4,0.3,2.8,0.1,4.2-0.7c1.4-0.8,2.4-2.2,3.1-4.3
				l-4.1,0.1l0.7-5l10.6-0.1c0.4,1.3,0.6,2.7,0.5,4.2c-0.1,1.6-0.3,3-0.6,4.2c-1,3.3-2.9,5.9-5.6,7.8c-2.6,1.8-5.5,2.7-8.6,2.9
				c-1.5,0.1-3-0.1-4.5-0.5c-1.5-0.4-2.9-1.1-4.3-2c-2.8-1.8-4.9-4.6-6.2-8.6c-1.3-3.8-1.3-7.4,0-10.9c0.7-1.8,1.5-3.3,2.5-4.7
				c1-1.4,2.2-2.6,3.6-3.7c2.7-2.1,5.8-3.3,9.4-3.7c3.6-0.4,6.9,0.6,10.1,3L504.8,187.5z"/>
			<path class="st3" fill="#D96701" d="M525.9,210.2l-10.6-1.3l-1.6-31.5c2.2-0.4,4.7-0.5,7.6-0.4c1.5,0.1,2.9,0.2,4.3,0.3c1.4,0.2,2.8,0.4,4.3,0.6
				c2.8,0.6,5.3,1.4,7.5,2.4c2.2,1.1,3.6,2.4,4.2,3.8c0.8,2,0.6,4-0.7,6c-1.3,2-3,3.6-5,5l12.5,7.8l-10.7,8.1l-10-13.1l-2.2,0
				L525.9,210.2z M524.8,190.8c1.8-0.3,3.4-0.8,4.5-1.7c1.2-0.9,1.8-1.8,2-2.7c0.1-1-0.3-1.8-1.3-2.5c-1-0.7-2.8-1.2-5.3-1.2
				L524.8,190.8z"/>
			<path class="st3" fill="#D96701" d="M575.2,177l0.3,9.6l-12.5-0.2l0.1,3.6l6.4-0.4l0,5.9h-5.8l0.1,4.1l12-0.7l0.1,11.5l-22.9,0.7l-1.9-34.1
				L575.2,177z"/>
			<path class="st3" fill="#D96701" d="M602.3,177l0.3,9.6l-12.5-0.2l0.1,3.6l6.4-0.4l0,5.9h-5.8l0.1,4.1l12-0.7l0.1,11.5l-22.9,0.7l-1.9-34.1
				L602.3,177z"/>
			<path class="st3" fill="#D96701" d="M608.2,177l10.7,0.9l8.8,15.6l-1.5-14.8h10.2l0.7,29.4l-11.9,3.1l-8.8-17.6l-0.8,16.2l-10.2-2.4l2.8-29.8
				V177z"/>
			<path class="st3" fill="#D96701" d="M201.8,231.4l3.3,15.4l3.4-10.8l5.8-0.1l2.4,10.1l3.2-13.8l13.6-1.1l-9.8,32.3l-9.1,1.2L211,253l-3.5,12
				l-9.1-1.5l-9.8-33L201.8,231.4z"/>
			<path class="st3" fill="#D96701" d="M236.8,231.9l10.4-0.6v11.5l7.6-0.1v-11.5l11.9-0.7l-1.6,32l-10.3,1.2v-12.2l-7.6,0.2v12l-9,0.9L236.8,231.9
				z"/>
			<path class="st3" fill="#D96701" d="M293.2,230.5l0.3,9.6L281,240l0.1,3.6l6.4-0.4l0,5.9h-5.8l0.1,4.1l12-0.7L294,264l-22.9,0.7l-1.9-34.1
				L293.2,230.5z"/>
			<path class="st3" fill="#D96701" d="M299.1,230.5l10.7,0.9l8.8,15.6l-1.5-14.8h10.2l0.7,29.4l-11.9,3.1l-8.8-17.6l-0.8,16.2l-10.2-2.4l2.8-29.8
				V230.5z"/>
			<path class="st3" fill="#D96701" d="M357.7,251.2c1.4,0.6,2.9,1.1,4.5,1.5c1.6,0.4,2.9,0.6,4,0.7c1.1,0.1,1.8-0.1,2-0.4c0.3-0.4-0.2-1-1.5-1.8
				c-1.4-1-2.7-1.9-4-3c-1.3-1-2.6-2.1-3.9-3.3c-2.5-2.3-3.4-5.1-2.8-8.2c0.6-3.2,2.2-5.1,4.7-5.7c2.5-0.6,5.3-0.5,8.2,0.3
				c2.9,0.8,5.8,2,8.5,3.6c2.7,1.6,4.6,2.9,5.6,4l-4.2,6.5c-0.3-0.3-0.8-0.6-1.3-1c-0.5-0.3-1.2-0.7-2-1c-1.5-0.7-2.8-1.2-4.1-1.5
				c-1.2-0.3-1.8-0.2-2,0.2c-0.2,0.4,0.7,1.4,2.8,3c2.8,2.2,4.9,3.8,6.5,4.7c1.5,1,2.5,2.8,3,5.6c0.4,2.5-0.3,4.5-2.3,6
				c-1.9,1.5-4.3,2.4-7.3,2.9c-2.9,0.5-6,0.5-9.3,0c-3.2-0.5-5.9-1.4-8.1-2.9L357.7,251.2z"/>
			<path class="st3" fill="#D96701" d="M400.6,234.2c-0.1,0.4-0.3,1-0.6,1.7c-0.2,0.7-0.5,1.5-0.8,2.5c-0.6,2-1,4-1.2,6c-0.2,2,0,3.8,0.7,5.4
				c0.7,1.6,2.2,2.3,4.5,2.3c1.7,0,2.9-0.5,3.6-1.6c0.7-1.1,1.2-2.4,1.2-3.9c0.1-1.6,0.1-3.2-0.2-4.9l-0.6-4.6l9.5-1.8
				c0.4,1.1,0.7,2.4,1.1,3.8c0.4,1.4,0.8,2.9,1.2,4.6c0.9,3.3,1.1,6.5,0.6,9.7c-0.5,3.1-2,5.7-4.6,8c-2.6,2.2-6.9,3.3-13,3.2
				c-5.9,0-10-1.4-12.4-4.1c-2.4-2.7-3.9-5.9-4.3-9.7c-0.2-1.9-0.3-3.7-0.1-5.6c0.1-1.9,0.4-3.8,0.9-5.7c0.9-3.9,1.8-6.9,2.5-9
				L400.6,234.2z"/>
			<path class="st3" fill="#D96701" d="M437.9,233.6l5.3,13.7l3.4-14.2l11-2.6l6,30.5l-10.4,3.7l-1.8-19.1l-5,18l-5.7,0l-5.8-16.7l-0.7,17.2
				l-11-1.7l3.3-30.9L437.9,233.6z"/>
			<path class="st3" fill="#D96701" d="M481.4,233.6l5.3,13.7l3.4-14.2l11-2.6l6,30.5l-10.4,3.7l-1.8-19.1l-5,18l-5.7,0l-5.8-16.7l-0.7,17.2
				l-11-1.7l3.3-30.9L481.4,233.6z"/>
			<path class="st3" fill="#D96701" d="M534.2,230.5l0.3,9.6L522,240l0.1,3.6l6.4-0.4l0,5.9h-5.8l0.1,4.1l12-0.7L535,264l-22.9,0.7l-1.9-34.1
				L534.2,230.5z"/>
			<path class="st3" fill="#D96701" d="M549.4,263.7l-10.6-1.3l-1.6-31.5c2.2-0.4,4.7-0.5,7.6-0.4c1.5,0.1,2.9,0.2,4.3,0.3c1.4,0.2,2.8,0.4,4.3,0.6
				c2.8,0.6,5.3,1.4,7.5,2.4c2.2,1.1,3.6,2.4,4.2,3.8c0.8,2,0.6,4-0.7,6c-1.3,2-3,3.6-5,5l12.5,7.8l-10.7,8.1l-10-13.1l-2.2,0
				L549.4,263.7z M548.3,244.3c1.8-0.3,3.4-0.8,4.5-1.7c1.2-0.9,1.8-1.8,2-2.7c0.1-1-0.3-1.8-1.3-2.5c-1-0.7-2.8-1.2-5.3-1.2
				L548.3,244.3z"/>
			<path class="st3" fill="#D96701" d="M588.1,223.9l-4.5,16.5l-5.4-0.7l-3-18.2L588.1,223.9z"/>
			<path class="st3" fill="#D96701" d="M593.8,251.2c1.4,0.6,2.9,1.1,4.5,1.5c1.6,0.4,2.9,0.6,4,0.7c1.1,0.1,1.8-0.1,2-0.4c0.3-0.4-0.2-1-1.5-1.8
				c-1.4-1-2.7-1.9-4-3c-1.3-1-2.6-2.1-3.9-3.3c-2.5-2.3-3.4-5.1-2.8-8.2c0.6-3.2,2.2-5.1,4.7-5.7c2.5-0.6,5.3-0.5,8.2,0.3
				c2.9,0.8,5.8,2,8.5,3.6c2.7,1.6,4.6,2.9,5.6,4l-4.2,6.5c-0.3-0.3-0.8-0.6-1.3-1c-0.5-0.3-1.2-0.7-2-1c-1.5-0.7-2.8-1.2-4.1-1.5
				c-1.2-0.3-1.8-0.2-2,0.2c-0.2,0.4,0.7,1.4,2.8,3c2.8,2.2,4.9,3.8,6.5,4.7c1.5,1,2.5,2.8,3,5.6c0.4,2.5-0.3,4.5-2.3,6
				c-1.9,1.5-4.3,2.4-7.3,2.9c-2.9,0.5-6,0.5-9.3,0c-3.2-0.5-5.9-1.4-8.1-2.9L593.8,251.2z"/>
			<path class="st3" fill="#D96701" d="M197.1,285.4l10.4-0.6v11.5l7.6-0.1v-11.5l11.9-0.7l-1.6,32l-10.3,1.2V305l-7.6,0.2v12l-9,0.9L197.1,285.4z"
				/>
			<path class="st3" fill="#D96701" d="M253.5,284l0.3,9.6l-12.5-0.2l0.1,3.6l6.4-0.4l0,5.9H242l0.1,4.1l12-0.7l0.1,11.5l-22.9,0.7l-1.9-34.1
				L253.5,284z"/>
			<path class="st3" fill="#D96701" d="M268.7,317.2l-10.6-1.3l-1.6-31.5c2.2-0.4,4.7-0.5,7.6-0.4c1.5,0.1,2.9,0.2,4.3,0.3c1.4,0.2,2.8,0.4,4.3,0.6
				c2.8,0.6,5.3,1.4,7.5,2.4c2.2,1.1,3.6,2.4,4.2,3.8c0.8,2,0.6,4-0.7,6c-1.3,2-3,3.6-5,5l12.5,7.8l-10.7,8.1l-10-13.1l-2.2,0
				L268.7,317.2z M267.6,297.8c1.8-0.3,3.4-0.8,4.5-1.7c1.2-0.9,1.8-1.8,2-2.7c0.1-1-0.3-1.8-1.3-2.5c-1-0.7-2.8-1.2-5.3-1.2
				L267.6,297.8z"/>
			<path class="st3" fill="#D96701" d="M318,284l0.3,9.6l-12.5-0.2l0.1,3.6l6.4-0.4l0,5.9h-5.8l0.1,4.1l12-0.7l0.1,11.5l-22.9,0.7L294,284L318,284z
				"/>
			<path class="st3" fill="#D96701" d="M345.2,285.5c1.6-0.4,3.2-0.7,4.8-0.9c1.6-0.3,3.3-0.5,5-0.6c3.4-0.3,7.4,0.5,12,2.5c3.1,1.3,4.9,3.3,5.1,6
				c0.3,2.6-0.8,4.7-3.4,6.2c4,0.5,7,1.7,8.7,3.6c1.7,2,2.5,4,2.3,6.2c-0.2,2.2-1.2,4.2-3.2,6.1c-2,1.9-4.6,3-8,3.3
				c-1.9,0.2-3.8,0.3-5.5,0.3c-1.7,0-3.4-0.1-4.9-0.2c-1.6-0.1-3.2-0.4-4.8-0.6c-1.6-0.3-3.3-0.6-5-1L345.2,285.5z M357.6,296
				c0.6-0.1,1.2-0.1,1.8-0.2c0.6-0.1,1.1-0.2,1.6-0.3c1-0.3,1.6-0.7,1.6-1.4c0.1-1.3-0.7-2-2.3-2.3c-0.8-0.1-1.5-0.2-2-0.3
				c-0.5,0-0.9,0-1.2,0L357.6,296z M359.6,309.8c0.7-0.1,2-0.2,3.8-0.3c1.9-0.1,2.8-0.9,2.7-2.5c-0.1-1.8-1.2-2.8-3.2-2.9
				c-1-0.1-1.8-0.1-2.5-0.2c-0.7,0-1.1,0-1.5,0.1L359.6,309.8z"/>
			<path class="st3" fill="#D96701" d="M398.2,287.7c-0.1,0.4-0.3,1-0.6,1.7c-0.2,0.7-0.5,1.5-0.8,2.5c-0.6,2-1,4-1.2,6c-0.2,2,0,3.8,0.7,5.4
				c0.7,1.6,2.2,2.3,4.5,2.3c1.7,0,2.9-0.5,3.6-1.6c0.7-1.1,1.2-2.4,1.2-3.9c0.1-1.6,0.1-3.2-0.2-4.9l-0.6-4.6l9.5-1.8
				c0.4,1.1,0.7,2.4,1.1,3.8c0.4,1.4,0.8,2.9,1.2,4.6c0.9,3.3,1.1,6.5,0.6,9.7c-0.5,3.1-2,5.7-4.6,8c-2.6,2.2-6.9,3.3-13,3.2
				c-5.9,0-10-1.4-12.4-4.1c-2.4-2.7-3.9-5.9-4.3-9.7c-0.2-1.9-0.3-3.7-0.1-5.6c0.1-1.9,0.4-3.8,0.9-5.7c0.9-3.9,1.8-6.9,2.5-9
				L398.2,287.7z"/>
			<path class="st3" fill="#D96701" d="M421.1,285.7l30.7-1.7l0.5,15.4l-11.7-0.6l3.5,19.3l-15.1-1.6l2.6-17.4l-10.8,0.3L421.1,285.7z"/>
			<path class="st3" fill="#D96701" d="M503.3,284l10.4,30.3l-11.1,3.8l-2.2-6.7h-8.6l-2,6.6l-10.9-5.1l11.1-28.1L503.3,284z M499.6,304.4l-3.3-7.9
				l-3.3,7.8L499.6,304.4z"/>
			<path class="st3" fill="#D96701" d="M529.3,283.9l1.4,25.7l11.4-1.6l0.3,8.6l-22.2,1.5l-3.6-33.8L529.3,283.9z"/>
			<path class="st3" fill="#D96701" d="M547.7,304.7c1.4,0.6,2.9,1.1,4.5,1.5c1.6,0.4,2.9,0.6,4,0.7c1.1,0.1,1.8-0.1,2-0.4c0.3-0.4-0.2-1-1.5-1.8
				c-1.4-1-2.7-1.9-4-3c-1.3-1-2.6-2.1-3.9-3.3c-2.5-2.3-3.4-5.1-2.8-8.2c0.6-3.2,2.2-5.1,4.7-5.7c2.5-0.6,5.3-0.5,8.2,0.3
				c2.9,0.8,5.8,2,8.5,3.6c2.7,1.6,4.6,2.9,5.6,4l-4.2,6.5c-0.3-0.3-0.8-0.6-1.3-1c-0.5-0.3-1.2-0.7-2-1c-1.5-0.7-2.8-1.2-4.1-1.5
				c-1.2-0.3-1.8-0.2-2,0.2c-0.2,0.4,0.7,1.4,2.8,3c2.8,2.2,4.9,3.8,6.5,4.7c1.5,1,2.5,2.8,3,5.6c0.4,2.5-0.3,4.5-2.3,6
				c-1.9,1.5-4.3,2.4-7.3,2.9c-2.9,0.5-6,0.5-9.3,0c-3.2-0.5-5.9-1.4-8.1-2.9L547.7,304.7z"/>
			<path class="st3" fill="#D96701" d="M609.8,302.6c-0.4,5.2-2.4,9.1-6.1,11.7c-3.7,2.6-7.7,3.9-11.9,3.8c-4.2,0-8.1-1.3-11.5-3.9
				c-3.4-2.6-5.1-6.4-5-11.6c0.1-2.8,0.7-5.3,1.9-7.6c1.3-2.3,2.9-4.3,4.8-5.9c1.9-1.6,4-2.9,6.4-3.8c2.4-0.9,4.7-1.3,6.9-1.2
				c1.1,0.1,2.5,0.4,4.2,0.9c1.8,0.6,3.4,1.6,5,2.9c1.6,1.4,2.9,3.3,4,5.7C609.6,296,610,299,609.8,302.6z M597.3,298.6
				c0.2-0.1,0.3-0.2,0.3-0.2c0.1-0.1,0.2-0.2,0.3-0.3c0.7-0.7,1.1-1.5,1.1-2.5c0-0.8-0.3-1.6-0.8-2.4c-0.1-0.1-0.1-0.1-0.2-0.2
				c-0.1-0.1-0.2-0.2-0.3-0.2c-0.1-0.1-0.1-0.1-0.2-0.2c-0.1-0.1-0.2-0.1-0.2-0.2c-0.7-0.4-1.5-0.7-2.3-0.9c-0.9-0.2-1.8,0-2.7,0.4
				c-0.4,0.2-0.7,0.4-1,0.5c-0.4,0.3-0.7,0.5-0.8,0.5c-0.8,0.8-1.2,1.6-1.2,2.6c0.1,0.9,0.4,1.8,0.9,2.5c0.1,0.1,0.1,0.1,0.2,0.2
				s0.1,0.1,0.2,0.2c0.1,0,0.1,0.1,0.2,0.1c0.1,0,0.1,0.1,0.2,0.2c0.8,0.7,1.8,1,2.9,1.1C595,299.9,596.1,299.5,597.3,298.6
				L597.3,298.6z"/>
			<path class="st3" fill="#D96701" d="M205,338.4l3.3,15.4l3.4-10.8l5.8-0.1l2.4,10.1l3.2-13.8l13.6-1.1l-9.8,32.3l-9.1,1.2l-3.6-11.6l-3.5,12
				l-9.1-1.5l-9.8-33L205,338.4z"/>
			<path class="st3" fill="#D96701" d="M240,338.8l10.4-0.6v11.5l7.6-0.1v-11.5l11.9-0.7l-1.6,32l-10.3,1.2v-12.2l-7.6,0.2v12l-9,0.9L240,338.8z"/>
			<path class="st3" fill="#D96701" d="M296.4,337.5l0.3,9.6l-12.5-0.2l0.1,3.6l6.4-0.4l0,5.9h-5.8l0.1,4.1l12-0.7l0.1,11.5l-22.9,0.7l-1.9-34.1
				L296.4,337.5z"/>
			<path class="st3" fill="#D96701" d="M302.3,337.5l10.7,0.9l8.8,15.6l-1.5-14.8h10.2l0.7,29.4l-11.9,3.1l-8.8-17.6l-0.8,16.2l-10.2-2.4l2.8-29.8
				V337.5z"/>
			<path class="st3" fill="#D96701" d="M357.8,337.5l12.8,0.8l-0.6,32.9l-11.3,0.4L357.8,337.5z"/>
			<path class="st3" fill="#D96701" d="M372.5,339.2l30.7-1.7l0.5,15.4l-11.7-0.6l3.5,19.3l-15.1-1.6l2.6-17.4l-10.8,0.3L372.5,339.2z"/>
			<path class="st3" fill="#D96701" d="M419.8,330.9l-4.5,16.5l-5.4-0.7l-3-18.2L419.8,330.9z"/>
			<path class="st3" fill="#D96701" d="M425.5,358.2c1.4,0.6,2.9,1.1,4.5,1.5c1.6,0.4,2.9,0.6,4,0.7c1.1,0.1,1.8-0.1,2-0.4c0.3-0.4-0.2-1-1.5-1.8
				c-1.4-1-2.7-1.9-4-3c-1.3-1-2.6-2.1-3.9-3.3c-2.5-2.3-3.4-5.1-2.8-8.2c0.6-3.2,2.2-5.1,4.7-5.7c2.5-0.6,5.3-0.5,8.2,0.3
				c2.9,0.8,5.8,2,8.5,3.6c2.7,1.6,4.6,2.9,5.6,4l-4.2,6.5c-0.3-0.3-0.8-0.6-1.3-1c-0.5-0.3-1.2-0.7-2-1c-1.5-0.7-2.8-1.2-4.1-1.5
				c-1.2-0.3-1.8-0.2-2,0.2c-0.2,0.4,0.7,1.4,2.8,3c2.8,2.2,4.9,3.8,6.5,4.7c1.5,1,2.5,2.8,3,5.6c0.4,2.5-0.3,4.5-2.3,6
				c-1.9,1.5-4.3,2.4-7.3,2.9c-2.9,0.5-6,0.5-9.3,0c-3.2-0.5-5.9-1.4-8.1-2.9L425.5,358.2z"/>
			<path class="st3" fill="#D96701" d="M505.2,346.6c-5.8-1-10-0.3-12.6,1.9c-2.6,2.2-3.8,4.6-3.5,7.1c0.3,2.5,2,4.5,5,5.8c3.1,1.3,7.4,0.6,13-2.2
				l4.6,9.4c-2.7,1.7-6,2.7-9.9,3c-3.9,0.3-7.7-0.1-11.3-1.1c-3.6-1-6.7-2.7-9.4-5c-2.6-2.3-4-5.2-4.1-8.8c-0.1-3.8,0.8-7.1,2.9-9.9
				c2.1-2.8,4.7-5,7.8-6.6c3.1-1.6,6.5-2.5,10.2-2.6c3.6-0.2,6.9,0.5,9.7,2L505.2,346.6z"/>
			<path class="st3" fill="#D96701" d="M549.1,356c-0.4,5.2-2.4,9.1-6.1,11.7c-3.7,2.6-7.7,3.9-11.9,3.8c-4.2,0-8.1-1.3-11.5-3.9
				c-3.4-2.6-5.1-6.4-5-11.6c0.1-2.8,0.7-5.3,1.9-7.6c1.3-2.3,2.9-4.3,4.8-5.9c1.9-1.6,4-2.9,6.4-3.8c2.4-0.9,4.7-1.3,6.9-1.2
				c1.1,0.1,2.5,0.4,4.2,0.9c1.8,0.6,3.4,1.6,5,2.9c1.6,1.4,2.9,3.3,4,5.7C548.9,349.4,549.3,352.5,549.1,356z M536.6,352.1
				c0.2-0.1,0.3-0.2,0.3-0.2c0.1-0.1,0.2-0.2,0.3-0.3c0.7-0.7,1.1-1.5,1.1-2.5c0-0.8-0.3-1.6-0.8-2.4c-0.1-0.1-0.1-0.1-0.2-0.2
				s-0.2-0.2-0.3-0.2c-0.1-0.1-0.1-0.1-0.2-0.2c-0.1-0.1-0.2-0.1-0.2-0.2c-0.7-0.4-1.5-0.7-2.3-0.9c-0.9-0.2-1.8,0-2.7,0.4
				c-0.4,0.2-0.7,0.4-1,0.5c-0.4,0.3-0.7,0.5-0.8,0.5c-0.8,0.8-1.2,1.6-1.2,2.6c0.1,0.9,0.4,1.8,0.9,2.5c0.1,0.1,0.1,0.1,0.2,0.2
				c0,0.1,0.1,0.1,0.2,0.2c0.1,0,0.1,0.1,0.2,0.1c0.1,0,0.1,0.1,0.2,0.2c0.8,0.7,1.8,1,2.9,1.1C534.3,353.4,535.5,353,536.6,352.1
				L536.6,352.1z"/>
			<path class="st3" fill="#D96701" d="M565,337.4l1.4,25.7l11.4-1.6l0.3,8.6l-22.2,1.5l-3.6-33.8L565,337.4z"/>
			<path class="st3" fill="#D96701" d="M580.4,339.3c4.4-1.5,9.6-2,15.7-1.6c6.1,0.4,11.4,3,15.9,7.6c1.5,1.6,2.5,3.5,2.9,5.6
				c0.2,1,0.2,2.1,0.2,3.2c0,1.1-0.2,2.2-0.6,3.2c-0.7,2.2-1.8,4.2-3.4,6.2c-1.6,1.9-3.6,3.4-6.1,4.5c-3.2,1.5-7,2.5-11.3,3.1
				c-4.3,0.6-8,0.6-11.1,0L580.4,339.3z M594.8,357.6c0.9,0.1,1.8-0.1,2.8-0.5c1.1-0.5,2.1-1,2.8-1.7c0.8-0.7,1.4-1.5,1.7-2.5
				c0.4-0.9,0.2-1.9-0.5-2.9c-0.7-0.9-1.9-1.5-3.8-1.7c-1.8-0.2-3.2-0.3-4.2-0.1L594.8,357.6z"/>
			<path class="st3" fill="#D96701" d="M285.9,390.9l10.4,30.3l-11.1,3.8l-2.2-6.7h-8.6l-2,6.6l-10.9-5.1l11.1-28.1L285.9,390.9z M282.3,411.4
				l-3.3-7.9l-3.3,7.8L282.3,411.4z"/>
			<path class="st3" fill="#D96701" d="M301.9,390.9l10.7,0.9l8.8,15.6l-1.5-14.8h10.2l0.7,29.4l-11.9,3.1l-8.8-17.6l-0.8,16.2l-10.2-2.4l2.8-29.8
				V390.9z"/>
			<path class="st3" fill="#D96701" d="M333.3,392.8c4.4-1.5,9.6-2,15.7-1.6c6.1,0.4,11.4,3,15.9,7.6c1.5,1.6,2.5,3.5,2.9,5.6
				c0.2,1,0.2,2.1,0.2,3.2c0,1.1-0.2,2.2-0.6,3.2c-0.7,2.2-1.8,4.2-3.4,6.2c-1.6,1.9-3.6,3.4-6.1,4.5c-3.2,1.5-7,2.5-11.3,3.1
				c-4.3,0.6-8,0.6-11.1,0L333.3,392.8z M347.8,411.1c0.9,0.1,1.8-0.1,2.8-0.5c1.1-0.5,2.1-1,2.8-1.7c0.8-0.7,1.4-1.5,1.7-2.5
				c0.4-0.9,0.2-1.9-0.5-2.9c-0.7-0.9-1.9-1.5-3.8-1.7c-1.8-0.2-3.2-0.3-4.2-0.1L347.8,411.1z"/>
			<path class="st3" fill="#D96701" d="M395.2,392.8c4.4-1.5,9.6-2,15.7-1.6c6.1,0.4,11.4,3,15.9,7.6c1.5,1.6,2.5,3.5,2.9,5.6
				c0.2,1,0.2,2.1,0.2,3.2c0,1.1-0.2,2.2-0.6,3.2c-0.7,2.2-1.8,4.2-3.4,6.2c-1.6,1.9-3.6,3.4-6.1,4.5c-3.2,1.5-7,2.5-11.3,3.1
				c-4.3,0.6-8,0.6-11.1,0L395.2,392.8z M409.7,411.1c0.9,0.1,1.8-0.1,2.8-0.5c1.1-0.5,2.1-1,2.8-1.7c0.8-0.7,1.4-1.5,1.7-2.5
				c0.4-0.9,0.2-1.9-0.5-2.9c-0.7-0.9-1.9-1.5-3.8-1.7c-1.8-0.2-3.2-0.3-4.2-0.1L409.7,411.1z"/>
			<path class="st3" fill="#D96701" d="M445.2,424.1l-10.6-1.3l-1.6-31.5c2.2-0.4,4.7-0.5,7.6-0.4c1.5,0.1,2.9,0.2,4.3,0.3c1.4,0.2,2.8,0.4,4.3,0.6
				c2.8,0.6,5.3,1.4,7.5,2.4c2.2,1.1,3.6,2.4,4.2,3.8c0.8,2,0.6,4-0.7,6c-1.3,2-3,3.6-5,5l12.5,7.8l-10.7,8.1l-10-13.1l-2.2,0
				L445.2,424.1z M444.1,404.7c1.8-0.3,3.4-0.8,4.5-1.7c1.2-0.9,1.8-1.8,2-2.7c0.1-1-0.3-1.8-1.3-2.5c-1-0.7-2.8-1.2-5.3-1.2
				L444.1,404.7z"/>
			<path class="st3" fill="#D96701" d="M494.5,390.9l0.3,9.6l-12.5-0.2l0.1,3.6l6.4-0.4l0,5.9H483l0.1,4.1l12-0.7l0.1,11.5l-22.9,0.7l-1.9-34.1
				L494.5,390.9z"/>
			<path class="st3" fill="#D96701" d="M521.8,390.9l10.4,30.3l-11.1,3.8l-2.2-6.7h-8.6l-2,6.6l-10.9-5.1l11.1-28.1L521.8,390.9z M518.1,411.4
				l-3.3-7.9l-3.3,7.8L518.1,411.4z"/>
			<path class="st3" fill="#D96701" d="M547.1,424.1l-10.6-1.3l-1.6-31.5c2.2-0.4,4.7-0.5,7.6-0.4c1.5,0.1,2.9,0.2,4.3,0.3c1.4,0.2,2.8,0.4,4.3,0.6
				c2.8,0.6,5.3,1.4,7.5,2.4c2.2,1.1,3.6,2.4,4.2,3.8c0.8,2,0.6,4-0.7,6c-1.3,2-3,3.6-5,5l12.5,7.8l-10.7,8.1l-10-13.1l-2.2,0
				L547.1,424.1z M546,404.7c1.8-0.3,3.4-0.8,4.5-1.7c1.2-0.9,1.8-1.8,2-2.7c0.1-1-0.3-1.8-1.3-2.5c-1-0.7-2.8-1.2-5.3-1.2
				L546,404.7z"/>
		</g>
	</g>
</g>
</svg>