<svg id="f139228a-7496-40cb-8907-2bebaa323f83" data-name="ПЕРЕВОД_не фанерные объекты_клик" xmlns="http://www.w3.org/2000/svg" viewBox="0 0 491.31891 901.10681"><title>sveza_ny_game-curves-узкая версия-eng-с украшенной желтой стеной</title><rect x="10.21518" y="10.59118" width="481.10373" height="890.51563" rx="12" ry="12" style="fill:#3a301f"/><rect width="481.10373" height="890.51563" rx="12" ry="12" style="fill:#fff"/><path d="M1755.66113,1602.49609v-25.29h4.96826l10.35059,16.88868v-16.88868h4.74414v25.29h-5.12353l-10.19532-16.49218v16.49218Z" transform="translate(-1689.84055 -1261.59724)" style="fill:#7a923c"/><path d="M1779.96777,1593.07715a9.90791,9.90791,0,0,1,1.19043-4.67481,8.177,8.177,0,0,1,3.37256-3.45117,10.01346,10.01346,0,0,1,4.87354-1.18945,9.15,9.15,0,0,1,6.814,2.69922,9.33,9.33,0,0,1,2.65674,6.82324,9.43915,9.43915,0,0,1-2.68262,6.8916,9.06567,9.06567,0,0,1-6.7539,2.73438,10.627,10.627,0,0,1-4.8042-1.13868,7.80526,7.80526,0,0,1-3.47608-3.33789A11.12453,11.12453,0,0,1,1779.96777,1593.07715Zm4.96827.25879a6.068,6.068,0,0,0,1.29394,4.1748,4.2308,4.2308,0,0,0,6.374,0,6.153,6.153,0,0,0,1.28516-4.21,6.04016,6.04016,0,0,0-1.28516-4.13965,4.22892,4.22892,0,0,0-6.374,0A6.06966,6.06966,0,0,0,1784.936,1593.33594Z" transform="translate(-1689.84055 -1261.59724)" style="fill:#7a923c"/><path d="M1811.07129,1584.17578v3.86328h-3.312v7.38477a18.35387,18.35387,0,0,0,.09472,2.61328,1.05989,1.05989,0,0,0,.43116.61133,1.3622,1.3622,0,0,0,.81982.24218,6.27171,6.27171,0,0,0,1.94922-.46582l.41406,3.76075a9.64836,9.64836,0,0,1-3.82959.72461,6.08053,6.08053,0,0,1-2.36377-.43946,3.46217,3.46217,0,0,1-1.54394-1.13867,4.502,4.502,0,0,1-.68116-1.88867,23.51747,23.51747,0,0,1-.15527-3.416v-7.98828H1800.669v-3.86328h2.22558v-3.64062l4.86475-2.82813v6.46875Z" transform="translate(-1689.84055 -1261.59724)" style="fill:#7a923c"/><path d="M1823.12988,1593.07715a9.90791,9.90791,0,0,1,1.19043-4.67481,8.177,8.177,0,0,1,3.37256-3.45117,10.01346,10.01346,0,0,1,4.87354-1.18945,9.15,9.15,0,0,1,6.814,2.69922,9.33,9.33,0,0,1,2.65674,6.82324,9.43915,9.43915,0,0,1-2.68262,6.8916,9.06567,9.06567,0,0,1-6.7539,2.73438,10.627,10.627,0,0,1-4.8042-1.13868,7.80526,7.80526,0,0,1-3.47608-3.33789A11.12453,11.12453,0,0,1,1823.12988,1593.07715Zm4.96826.25879a6.068,6.068,0,0,0,1.29395,4.1748,4.2308,4.2308,0,0,0,6.374,0,6.153,6.153,0,0,0,1.28516-4.21,6.04016,6.04016,0,0,0-1.28516-4.13965,4.22892,4.22892,0,0,0-6.374,0A6.06966,6.06966,0,0,0,1828.09814,1593.33594Z" transform="translate(-1689.84055 -1261.59724)" style="fill:#7a923c"/><path d="M1862.49609,1602.49609h-4.84716v-9.34961a14.45391,14.45391,0,0,0-.31055-3.83886,2.69286,2.69286,0,0,0-1.00928-1.3545,2.88944,2.88944,0,0,0-1.68213-.48242,3.89394,3.89394,0,0,0-2.25976.68946,3.4818,3.4818,0,0,0-1.37159,1.8291,15.79481,15.79481,0,0,0-.3706,4.209v8.29785h-4.84766v-18.32031h4.50244v2.69141a7.50724,7.50724,0,0,1,8.97071-2.52735,4.91653,4.91653,0,0,1,2.00976,1.47461,5.34929,5.34929,0,0,1,.94873,2.03516,15.15135,15.15135,0,0,1,.26709,3.26074Z" transform="translate(-1689.84055 -1261.59724)" style="fill:#7a923c"/><path d="M1867.41309,1602.49609v-25.29h4.84716v25.29Z" transform="translate(-1689.84055 -1261.59724)" style="fill:#7a923c"/><path d="M1874.93457,1584.17578h5.15772l4.38183,13.00684,4.27832-13.00684h5.02l-6.46924,17.63086-1.15576,3.19141a13.08717,13.08717,0,0,1-1.21631,2.44922,5.315,5.315,0,0,1-1.32812,1.37109,5.81153,5.81153,0,0,1-1.84571.82031,9.59722,9.59722,0,0,1-2.47558.293,12.8571,12.8571,0,0,1-2.74317-.293l-.43115-3.7959a10.72847,10.72847,0,0,0,2.05274.22364,3.04254,3.04254,0,0,0,2.50146-.99121,6.88511,6.88511,0,0,0,1.24219-2.52735Z" transform="translate(-1689.84055 -1261.59724)" style="fill:#7a923c"/><path d="M1906.24512,1603.70312l5.53759.67383a1.892,1.892,0,0,0,.63819,1.32813,3.6467,3.6467,0,0,0,2.17383.51758,5.62993,5.62993,0,0,0,2.84619-.57032,2.34009,2.34009,0,0,0,.96631-1.22461,7.37834,7.37834,0,0,0,.22412-2.22461v-2.67382a6.55839,6.55839,0,0,1-5.48584,2.96679,6.75265,6.75265,0,0,1-5.84815-3.123,10.60924,10.60924,0,0,1-1.69043-6.14063q0-4.60547,2.2168-7.03906a7.15376,7.15376,0,0,1,5.51172-2.43164,6.70941,6.70941,0,0,1,5.60644,2.98437v-2.57031h4.53711v16.43945a16.38056,16.38056,0,0,1-.53515,4.84766,6.014,6.014,0,0,1-1.50049,2.51953,6.65529,6.65529,0,0,1-2.5791,1.43164,13.589,13.589,0,0,1-4.08008.51758q-4.65747,0-6.60693-1.5957a5.00637,5.00637,0,0,1-1.94922-4.0459Q1906.228,1604.04834,1906.24512,1603.70312Zm4.33008-10.74609a6.60727,6.60727,0,0,0,1.12988,4.26953,3.49388,3.49388,0,0,0,2.78613,1.35352,3.85224,3.85224,0,0,0,3.00147-1.38867,6.05315,6.05315,0,0,0,1.22509-4.11426,6.41628,6.41628,0,0,0-1.17334-4.22656,3.72778,3.72778,0,0,0-2.96728-1.37989,3.57829,3.57829,0,0,0-2.87207,1.35352A6.35458,6.35458,0,0,0,1910.5752,1592.957Z" transform="translate(-1689.84055 -1261.59724)" style="fill:#7a923c"/><path d="M1932.91455,1602.49609h-4.84717v-18.32031h4.50244v2.60449a7.833,7.833,0,0,1,2.07862-2.43261,3.827,3.827,0,0,1,2.09619-.58594,6.15489,6.15489,0,0,1,3.19141.91406l-1.501,4.22656a4.25139,4.25139,0,0,0-2.27735-.793,2.68906,2.68906,0,0,0-1.72509.56054,3.82468,3.82468,0,0,0-1.11231,2.02637,28.76983,28.76983,0,0,0-.40576,6.1416Z" transform="translate(-1689.84055 -1261.59724)" style="fill:#7a923c"/><path d="M1952.63232,1596.665l4.83057.81152a7.92457,7.92457,0,0,1-2.94141,4.04492,8.641,8.641,0,0,1-5.0288,1.38868q-4.77833,0-7.07276-3.123a10.48717,10.48717,0,0,1-1.81152-6.31348,10.12048,10.12048,0,0,1,2.38086-7.13379,7.84086,7.84086,0,0,1,6.02051-2.57812,8.13665,8.13665,0,0,1,6.45214,2.69922q2.3628,2.70117,2.25977,8.27148h-12.145a4.9032,4.9032,0,0,0,1.17334,3.35547,3.66423,3.66423,0,0,0,2.79443,1.19922,2.9681,2.9681,0,0,0,1.915-.62109A3.83191,3.83191,0,0,0,1952.63232,1596.665Zm.27637-4.89942a4.66789,4.66789,0,0,0-1.08691-3.19921,3.49725,3.49725,0,0,0-5.14063.06054,4.46594,4.46594,0,0,0-1.01806,3.13867Z" transform="translate(-1689.84055 -1261.59724)" style="fill:#7a923c"/><path d="M1972.28125,1596.665l4.83057.81152a7.92468,7.92468,0,0,1-2.94141,4.04492,8.641,8.641,0,0,1-5.02881,1.38868q-4.77832,0-7.07275-3.123a10.48717,10.48717,0,0,1-1.81153-6.31348,10.12052,10.12052,0,0,1,2.38086-7.13379,7.84087,7.84087,0,0,1,6.02051-2.57812,8.13665,8.13665,0,0,1,6.45215,2.69922q2.3628,2.70117,2.25977,8.27148h-12.145a4.90315,4.90315,0,0,0,1.17334,3.35547,3.6642,3.6642,0,0,0,2.79443,1.19922,2.9681,2.9681,0,0,0,1.915-.62109A3.832,3.832,0,0,0,1972.28125,1596.665Zm.27637-4.89942a4.66789,4.66789,0,0,0-1.08692-3.19921,3.49724,3.49724,0,0,0-5.14062.06054,4.46594,4.46594,0,0,0-1.01807,3.13867Z" transform="translate(-1689.84055 -1261.59724)" style="fill:#7a923c"/><path d="M1997.98535,1602.49609h-4.84717v-9.34961a14.45406,14.45406,0,0,0-.31054-3.83886,2.69286,2.69286,0,0,0-1.00928-1.3545,2.88944,2.88944,0,0,0-1.68213-.48242,3.894,3.894,0,0,0-2.25977.68946,3.48178,3.48178,0,0,0-1.37158,1.8291,15.79438,15.79438,0,0,0-.3706,4.209v8.29785h-4.84766v-18.32031h4.50244v2.69141a7.50724,7.50724,0,0,1,8.97071-2.52735,4.91653,4.91653,0,0,1,2.00976,1.47461,5.34944,5.34944,0,0,1,.94873,2.03516,15.152,15.152,0,0,1,.26709,3.26074Z" transform="translate(-1689.84055 -1261.59724)" style="fill:#7a923c"/><path d="M2016.13379,1602.49609l-5.79639-18.32031h4.70948l3.4331,12.00586,3.15674-12.00586h4.67529l3.05322,12.00586,3.502-12.00586h4.77832l-5.88233,18.32031h-4.65771l-3.15723-11.78222-3.105,11.78222Z" transform="translate(-1689.84055 -1261.59724)" style="fill:#7a923c"/><path d="M2045.02881,1577.20605v9.29786a7.26436,7.26436,0,0,1,8.62549-2.1211,4.93948,4.93948,0,0,1,2.02685,1.58692,5.75059,5.75059,0,0,1,.93164,2.13965,19.12552,19.12552,0,0,1,.25,3.63867v10.748h-4.84717v-9.67773a14.32424,14.32424,0,0,0-.27636-3.65723,2.39933,2.39933,0,0,0-.97461-1.2334,3.1353,3.1353,0,0,0-1.751-.457,4.01856,4.01856,0,0,0-2.15625.58594,3.38328,3.38328,0,0,0-1.38867,1.76856,10.5554,10.5554,0,0,0-.43994,3.49316v9.17773h-4.84766v-25.29Z" transform="translate(-1689.84055 -1261.59724)" style="fill:#7a923c"/><path d="M2072.38867,1596.665l4.83057.81152a7.92462,7.92462,0,0,1-2.94141,4.04492,8.641,8.641,0,0,1-5.02881,1.38868q-4.77831,0-7.07275-3.123a10.48717,10.48717,0,0,1-1.81152-6.31348,10.12048,10.12048,0,0,1,2.38086-7.13379,7.84085,7.84085,0,0,1,6.0205-2.57812,8.13665,8.13665,0,0,1,6.45215,2.69922q2.3628,2.70117,2.25977,8.27148h-12.145a4.9032,4.9032,0,0,0,1.17334,3.35547,3.66423,3.66423,0,0,0,2.79443,1.19922,2.9681,2.9681,0,0,0,1.915-.62109A3.832,3.832,0,0,0,2072.38867,1596.665Zm.27637-4.89942a4.66784,4.66784,0,0,0-1.08692-3.19921,3.49724,3.49724,0,0,0-5.14062.06054,4.46594,4.46594,0,0,0-1.01807,3.13867Z" transform="translate(-1689.84055 -1261.59724)" style="fill:#7a923c"/><path d="M2098.09277,1602.49609h-4.84716v-9.34961a14.45391,14.45391,0,0,0-.31055-3.83886,2.69286,2.69286,0,0,0-1.00928-1.3545,2.88944,2.88944,0,0,0-1.68213-.48242,3.89394,3.89394,0,0,0-2.25976.68946,3.4818,3.4818,0,0,0-1.37159,1.8291,15.79481,15.79481,0,0,0-.3706,4.209v8.29785H2081.394v-18.32031h4.50244v2.69141a7.50724,7.50724,0,0,1,8.97071-2.52735,4.91653,4.91653,0,0,1,2.00976,1.47461,5.34944,5.34944,0,0,1,.94873,2.03516,15.15135,15.15135,0,0,1,.26709,3.26074Z" transform="translate(-1689.84055 -1261.59724)" style="fill:#7a923c"/><path d="M1725.0752,1639.665l4.86474-.74121a3.56058,3.56058,0,0,0,1.25928,2.14648,4.24584,4.24584,0,0,0,2.65674.73438,4.79706,4.79706,0,0,0,2.8291-.69043,1.53944,1.53944,0,0,0,.63818-1.29395,1.27346,1.27346,0,0,0-.34472-.91406,3.85491,3.85491,0,0,0-1.62159-.63867q-5.866-1.29346-7.43554-2.36328a4.7194,4.7194,0,0,1-2.17334-4.123,5.07992,5.07992,0,0,1,1.88037-4.002q1.88013-1.62159,5.83056-1.6211a10.17374,10.17374,0,0,1,5.58936,1.22461,6.259,6.259,0,0,1,2.51855,3.62207l-4.57128.84571a2.82765,2.82765,0,0,0-1.1128-1.63965,4.07445,4.07445,0,0,0-2.3374-.56836,5.25774,5.25774,0,0,0-2.74316.53515,1.14534,1.14534,0,0,0-.55176.98243,1.06943,1.06943,0,0,0,.48291.87988,18.15423,18.15423,0,0,0,4.52832,1.3623,13.50607,13.50607,0,0,1,5.4082,2.15625,4.48389,4.48389,0,0,1,1.51807,3.60547,5.53315,5.53315,0,0,1-2.10449,4.33008q-2.105,1.812-6.22754,1.8125a10.21376,10.21376,0,0,1-5.92578-1.51855A6.989,6.989,0,0,1,1725.0752,1639.665Z" transform="translate(-1689.84055 -1261.59724)" style="fill:#7a923c"/><path d="M1758.49023,1644.89258v-2.74317a7.05984,7.05984,0,0,1-2.63085,2.31153,7.38621,7.38621,0,0,1-3.44141.8457,6.73154,6.73154,0,0,1-3.312-.81152,4.78527,4.78527,0,0,1-2.12207-2.27637,10.17076,10.17076,0,0,1-.65528-4.05469v-11.59179h4.84717v8.418a23.30468,23.30468,0,0,0,.26758,4.73536,2.57806,2.57806,0,0,0,.97461,1.37988,2.99119,2.99119,0,0,0,1.79394.50879,3.82281,3.82281,0,0,0,2.22559-.68067,3.4742,3.4742,0,0,0,1.3457-1.6914,19.633,19.633,0,0,0,.36231-4.94239v-7.72753h4.84717v18.32031Z" transform="translate(-1689.84055 -1261.59724)" style="fill:#7a923c"/><path d="M1767.65088,1626.57227h4.46777v2.5a7.18886,7.18886,0,0,1,5.71-2.91407,6.14673,6.14673,0,0,1,3.05371.72364,5.57477,5.57477,0,0,1,2.12159,2.19043,8.48148,8.48148,0,0,1,2.605-2.19043,6.38559,6.38559,0,0,1,2.98437-.72364,6.65191,6.65191,0,0,1,3.416.81836,5.02924,5.02924,0,0,1,2.08691,2.40625,10.44714,10.44714,0,0,1,.50049,3.7959v11.71387H1789.749V1634.4209a7.79384,7.79384,0,0,0-.5-3.51953,2.29528,2.29528,0,0,0-2.07031-1.03418,3.30733,3.30733,0,0,0-1.91455.62011,3.44184,3.44184,0,0,0-1.29395,1.82032,13.08925,13.08925,0,0,0-.397,3.78613v8.79883h-4.84765v-10.041a13.90119,13.90119,0,0,0-.25879-3.44922,2.201,2.201,0,0,0-.80176-1.15625,2.53684,2.53684,0,0,0-1.4751-.3789,3.53469,3.53469,0,0,0-2.01855.60351,3.30769,3.30769,0,0,0-1.28516,1.74219,12.94272,12.94272,0,0,0-.38818,3.77734v8.90235h-4.84717Z" transform="translate(-1689.84055 -1261.59724)" style="fill:#7a923c"/><path d="M1799.06494,1626.57227h4.46777v2.5a7.18886,7.18886,0,0,1,5.71-2.91407,6.14676,6.14676,0,0,1,3.05371.72364,5.57481,5.57481,0,0,1,2.12158,2.19043,8.48148,8.48148,0,0,1,2.605-2.19043,6.38559,6.38559,0,0,1,2.98437-.72364,6.65189,6.65189,0,0,1,3.416.81836,5.02924,5.02924,0,0,1,2.08691,2.40625,10.44714,10.44714,0,0,1,.50049,3.7959v11.71387h-4.84765V1634.4209a7.794,7.794,0,0,0-.5-3.51953,2.29529,2.29529,0,0,0-2.07032-1.03418,3.30733,3.30733,0,0,0-1.91455.62011,3.44178,3.44178,0,0,0-1.29394,1.82032,13.08881,13.08881,0,0,0-.397,3.78613v8.79883h-4.84765v-10.041a13.90119,13.90119,0,0,0-.25879-3.44922,2.20093,2.20093,0,0,0-.80176-1.15625,2.53682,2.53682,0,0,0-1.4751-.3789,3.53471,3.53471,0,0,0-2.01855.60351,3.30769,3.30769,0,0,0-1.28516,1.74219,12.94272,12.94272,0,0,0-.38818,3.77734v8.90235h-4.84717Z" transform="translate(-1689.84055 -1261.59724)" style="fill:#7a923c"/><path d="M1841.44971,1639.06055l4.83056.81152a7.92726,7.92726,0,0,1-2.9414,4.0459,8.64115,8.64115,0,0,1-5.02881,1.38867q-4.77832,0-7.07276-3.123a10.49029,10.49029,0,0,1-1.81152-6.31445,10.11792,10.11792,0,0,1,2.38086-7.13281,7.84087,7.84087,0,0,1,6.02051-2.57813,8.13358,8.13358,0,0,1,6.45215,2.69922q2.36279,2.69971,2.25976,8.27149h-12.145a4.905,4.905,0,0,0,1.17334,3.35547,3.66763,3.66763,0,0,0,2.79444,1.19921,2.96812,2.96812,0,0,0,1.915-.62109A3.8352,3.8352,0,0,0,1841.44971,1639.06055Zm.27636-4.89844a4.66875,4.66875,0,0,0-1.08691-3.2002,3.49931,3.49931,0,0,0-5.14062.06055,4.47012,4.47012,0,0,0-1.01807,3.13965Z" transform="translate(-1689.84055 -1261.59724)" style="fill:#7a923c"/><path d="M1855.12988,1644.89258h-4.84717v-18.32031h4.50245v2.60351a7.81516,7.81516,0,0,1,2.07861-2.43164,3.82711,3.82711,0,0,1,2.09619-.58594,6.15481,6.15481,0,0,1,3.19141.91407l-1.501,4.22656a4.25334,4.25334,0,0,0-2.27734-.79395,2.68909,2.68909,0,0,0-1.7251.56055,3.83252,3.83252,0,0,0-1.11231,2.02637,28.78813,28.78813,0,0,0-.40576,6.14258Z" transform="translate(-1689.84055 -1261.59724)" style="fill:#7a923c"/><path d="M1864.2041,1628.58984l-.91455-4.709v-4.2793h5.27881v4.2793l-.79346,4.709Z" transform="translate(-1689.84055 -1261.59724)" style="fill:#7a923c"/><path d="M1870.93213,1639.665l4.86475-.74121a3.56057,3.56057,0,0,0,1.25927,2.14648,4.24586,4.24586,0,0,0,2.65674.73438,4.79706,4.79706,0,0,0,2.8291-.69043,1.53942,1.53942,0,0,0,.63819-1.29395,1.27347,1.27347,0,0,0-.34473-.91406,3.85491,3.85491,0,0,0-1.62158-.63867q-5.866-1.29346-7.43555-2.36328a4.7194,4.7194,0,0,1-2.17334-4.123,5.08,5.08,0,0,1,1.88037-4.002q1.88013-1.62159,5.83057-1.6211a10.17371,10.17371,0,0,1,5.58935,1.22461,6.259,6.259,0,0,1,2.51856,3.62207l-4.57129.84571a2.82763,2.82763,0,0,0-1.11279-1.63965,4.07451,4.07451,0,0,0-2.33741-.56836,5.25779,5.25779,0,0,0-2.74316.53515,1.14537,1.14537,0,0,0-.55176.98243,1.06945,1.06945,0,0,0,.48291.87988,18.15423,18.15423,0,0,0,4.52832,1.3623,13.50613,13.50613,0,0,1,5.40821,2.15625,4.48392,4.48392,0,0,1,1.51806,3.60547,5.53315,5.53315,0,0,1-2.10449,4.33008q-2.105,1.812-6.22754,1.8125a10.21378,10.21378,0,0,1-5.92578-1.51855A6.989,6.989,0,0,1,1870.93213,1639.665Z" transform="translate(-1689.84055 -1261.59724)" style="fill:#7a923c"/><path d="M1906.93506,1619.60156v9.29883a7.26433,7.26433,0,0,1,8.62549-2.12109,4.92981,4.92981,0,0,1,2.02685,1.58593,5.7646,5.7646,0,0,1,.93164,2.13965,19.14452,19.14452,0,0,1,.25,3.63965v10.748h-4.84716v-9.67774a14.32827,14.32827,0,0,0-.27637-3.6582,2.39707,2.39707,0,0,0-.97461-1.23242,3.13522,3.13522,0,0,0-1.751-.457,4.01855,4.01855,0,0,0-2.15625.58593,3.3809,3.3809,0,0,0-1.38867,1.76758,10.566,10.566,0,0,0-.43994,3.49414v9.17774h-4.84766v-25.291Z" transform="translate(-1689.84055 -1261.59724)" style="fill:#7a923c"/><path d="M1934.29443,1639.06055l4.83057.81152a7.92722,7.92722,0,0,1-2.94141,4.0459,8.64109,8.64109,0,0,1-5.0288,1.38867q-4.77833,0-7.07276-3.123a10.49022,10.49022,0,0,1-1.81152-6.31445,10.11788,10.11788,0,0,1,2.38086-7.13281,7.84087,7.84087,0,0,1,6.02051-2.57813,8.13354,8.13354,0,0,1,6.45214,2.69922q2.3628,2.69971,2.25977,8.27149h-12.145a4.905,4.905,0,0,0,1.17334,3.35547,3.66763,3.66763,0,0,0,2.79443,1.19921,2.9681,2.9681,0,0,0,1.915-.62109A3.83507,3.83507,0,0,0,1934.29443,1639.06055Zm.27637-4.89844a4.6688,4.6688,0,0,0-1.08691-3.2002,3.49933,3.49933,0,0,0-5.14063.06055,4.47012,4.47012,0,0,0-1.01806,3.13965Z" transform="translate(-1689.84055 -1261.59724)" style="fill:#7a923c"/><path d="M1947.97461,1644.89258h-4.84717v-18.32031h4.50244v2.60351a7.815,7.815,0,0,1,2.07862-2.43164,3.82711,3.82711,0,0,1,2.09619-.58594,6.15475,6.15475,0,0,1,3.1914.91407l-1.501,4.22656a4.2534,4.2534,0,0,0-2.27735-.79395,2.68906,2.68906,0,0,0-1.72509.56055,3.83252,3.83252,0,0,0-1.11231,2.02637,28.78744,28.78744,0,0,0-.40576,6.14258Z" transform="translate(-1689.84055 -1261.59724)" style="fill:#7a923c"/><path d="M1967.69238,1639.06055l4.83057.81152a7.92722,7.92722,0,0,1-2.94141,4.0459,8.6411,8.6411,0,0,1-5.02881,1.38867q-4.77831,0-7.07275-3.123a10.49022,10.49022,0,0,1-1.81152-6.31445,10.11788,10.11788,0,0,1,2.38086-7.13281,7.84086,7.84086,0,0,1,6.0205-2.57813,8.13355,8.13355,0,0,1,6.45215,2.69922q2.3628,2.69971,2.25977,8.27149h-12.145a4.905,4.905,0,0,0,1.17334,3.35547,3.66763,3.66763,0,0,0,2.79443,1.19921,2.9681,2.9681,0,0,0,1.915-.62109A3.83514,3.83514,0,0,0,1967.69238,1639.06055Zm.27637-4.89844a4.6688,4.6688,0,0,0-1.08691-3.2002,3.49933,3.49933,0,0,0-5.14063.06055,4.47017,4.47017,0,0,0-1.01807,3.13965Z" transform="translate(-1689.84055 -1261.59724)" style="fill:#7a923c"/><path d="M1986.34131,1644.89258v-25.291h4.84717v9.10938a6.85858,6.85858,0,0,1,5.31347-2.55274,7.14451,7.14451,0,0,1,5.5376,2.42285q2.19068,2.42433,2.19092,6.96094,0,4.6919-2.23389,7.22754a6.97137,6.97137,0,0,1-5.42578,2.53711,6.70358,6.70358,0,0,1-3.09619-.78516,7.40334,7.40334,0,0,1-2.63086-2.32031v2.69141Zm4.813-9.55762a7.795,7.795,0,0,0,.897,4.21,3.8362,3.8362,0,0,0,3.34668,1.93164,3.43016,3.43016,0,0,0,2.73437-1.37109,6.75458,6.75458,0,0,0,1.12989-4.32227,7.154,7.154,0,0,0-1.13867-4.52734,3.60342,3.60342,0,0,0-2.91553-1.38867,3.65226,3.65226,0,0,0-2.898,1.35351A6.21472,6.21472,0,0,0,1991.1543,1635.335Z" transform="translate(-1689.84055 -1261.59724)" style="fill:#7a923c"/><path d="M2020.1875,1644.89258v-2.74317a7.05988,7.05988,0,0,1-2.63086,2.31153,7.38621,7.38621,0,0,1-3.44141.8457,6.73157,6.73157,0,0,1-3.312-.81152,4.78531,4.78531,0,0,1-2.12207-2.27637,10.17078,10.17078,0,0,1-.65527-4.05469v-11.59179h4.84717v8.418a23.305,23.305,0,0,0,.26757,4.73536,2.57811,2.57811,0,0,0,.97461,1.37988,2.99122,2.99122,0,0,0,1.79395.50879,3.82286,3.82286,0,0,0,2.22559-.68067,3.4742,3.4742,0,0,0,1.3457-1.6914,19.63322,19.63322,0,0,0,.3623-4.94239v-7.72753h4.84717v18.32031Z" transform="translate(-1689.84055 -1261.59724)" style="fill:#7a923c"/><path d="M2038.11084,1626.57227v3.86328h-3.312v7.38379a18.33362,18.33362,0,0,0,.09472,2.61328,1.062,1.062,0,0,0,.43116.6123,1.36223,1.36223,0,0,0,.81982.24219,6.27959,6.27959,0,0,0,1.94922-.4668l.41406,3.76172a9.64836,9.64836,0,0,1-3.82959.72461,6.06269,6.06269,0,0,1-2.36377-.44043,3.45507,3.45507,0,0,1-1.54394-1.13867,4.49169,4.49169,0,0,1-.68115-1.88867,23.49678,23.49678,0,0,1-.15528-3.416v-7.9873h-2.22558v-3.86328h2.22558v-3.64063l4.86475-2.8291v6.46973Z" transform="translate(-1689.84055 -1261.59724)" style="fill:#7a923c"/><path d="M2054.91357,1632.16016l-4.39892-.793a6.851,6.851,0,0,1,2.55273-3.9336,9.34883,9.34883,0,0,1,5.38233-1.27539,11.60238,11.60238,0,0,1,4.83056.76758,4.8143,4.8143,0,0,1,2.23389,1.94922,9.9924,9.9924,0,0,1,.647,4.33789l-.05175,5.6582a19.63355,19.63355,0,0,0,.23291,3.5625,10.39289,10.39289,0,0,0,.87109,2.459h-4.7959q-.18969-.4834-.46582-1.43164c-.08057-.28809-.1377-.47754-.17236-.57032a8.72926,8.72926,0,0,1-2.65674,1.81153,7.594,7.594,0,0,1-3.01856.60449,6.24265,6.24265,0,0,1-4.45947-1.53516,5.10681,5.10681,0,0,1-1.63037-3.88281,5.20416,5.20416,0,0,1,.7417-2.76758,4.83864,4.83864,0,0,1,2.0791-1.86328,16.22976,16.22976,0,0,1,3.85547-1.13086,26.43875,26.43875,0,0,0,4.70947-1.18945v-.4834a2.51426,2.51426,0,0,0-.68994-1.99316,4.13976,4.13976,0,0,0-2.605-.59375,3.47205,3.47205,0,0,0-2.01855.50781A3.54386,3.54386,0,0,0,2054.91357,1632.16016Zm6.48633,3.93359a30.15387,30.15387,0,0,1-2.95019.74219,8.86156,8.86156,0,0,0-2.63916.8457,2.02005,2.02005,0,0,0-.94873,1.707,2.37608,2.37608,0,0,0,.75879,1.75977,2.65207,2.65207,0,0,0,1.93212.74218,4.19149,4.19149,0,0,0,2.50147-.86328,3.03243,3.03243,0,0,0,1.15576-1.60351,9.57314,9.57314,0,0,0,.18994-2.36328Z" transform="translate(-1689.84055 -1261.59724)" style="fill:#7a923c"/><path d="M2070.93994,1644.89258v-25.291h4.84717v25.291Z" transform="translate(-1689.84055 -1261.59724)" style="fill:#7a923c"/><path d="M2079.04785,1639.665l4.86475-.74121a3.56053,3.56053,0,0,0,1.25928,2.14648,4.24581,4.24581,0,0,0,2.65673.73438,4.79706,4.79706,0,0,0,2.8291-.69043,1.53942,1.53942,0,0,0,.63819-1.29395,1.27347,1.27347,0,0,0-.34473-.91406,3.85485,3.85485,0,0,0-1.62158-.63867q-5.866-1.29346-7.43555-2.36328a4.7194,4.7194,0,0,1-2.17334-4.123,5.08,5.08,0,0,1,1.88037-4.002q1.88013-1.62159,5.83057-1.6211a10.17377,10.17377,0,0,1,5.58936,1.22461,6.259,6.259,0,0,1,2.51855,3.62207l-4.57129.84571a2.82759,2.82759,0,0,0-1.11279-1.63965,4.07447,4.07447,0,0,0-2.3374-.56836,5.2578,5.2578,0,0,0-2.74317.53515,1.14537,1.14537,0,0,0-.55176.98243,1.06945,1.06945,0,0,0,.48291.87988,18.15438,18.15438,0,0,0,4.52833,1.3623,13.50607,13.50607,0,0,1,5.4082,2.15625,4.48389,4.48389,0,0,1,1.51806,3.60547,5.53315,5.53315,0,0,1-2.10449,4.33008q-2.105,1.812-6.22754,1.8125a10.21378,10.21378,0,0,1-5.92578-1.51855A6.989,6.989,0,0,1,2079.04785,1639.665Z" transform="translate(-1689.84055 -1261.59724)" style="fill:#7a923c"/><path d="M2099.2832,1635.47266a9.91365,9.91365,0,0,1,1.19043-4.67481,8.1691,8.1691,0,0,1,3.37256-3.45019,10.01346,10.01346,0,0,1,4.87354-1.18946,9.14633,9.14633,0,0,1,6.814,2.69922,9.32771,9.32771,0,0,1,2.65674,6.82227,9.443,9.443,0,0,1-2.68262,6.89258,9.06935,9.06935,0,0,1-6.7539,2.73437,10.63976,10.63976,0,0,1-4.8042-1.13867,7.81563,7.81563,0,0,1-3.47608-3.33789A11.12593,11.12593,0,0,1,2099.2832,1635.47266Zm4.96826.25976a6.067,6.067,0,0,0,1.294,4.17383,4.22892,4.22892,0,0,0,6.374,0,6.15191,6.15191,0,0,0,1.28516-4.209,6.04288,6.04288,0,0,0-1.28516-4.14063,4.22892,4.22892,0,0,0-6.374,0A6.07237,6.07237,0,0,0,2104.25146,1635.73242Z" transform="translate(-1689.84055 -1261.59724)" style="fill:#7a923c"/><path d="M1731.208,1687.28809l-5.79639-18.32032h4.70947l3.43311,12.00684,3.15674-12.00684h4.67529l3.05322,12.00684,3.502-12.00684h4.77832l-5.88233,18.32032h-4.65771l-3.15723-11.78223-3.105,11.78223Z" transform="translate(-1689.84055 -1261.59724)" style="fill:#7a923c"/><path d="M1760.10352,1661.99805v9.29883a7.26321,7.26321,0,0,1,8.62548-2.12208,4.92355,4.92355,0,0,1,2.02686,1.58692,5.767,5.767,0,0,1,.93164,2.13867,19.16415,19.16415,0,0,1,.25,3.64063v10.74707h-4.84717v-9.67774a14.31821,14.31821,0,0,0-.27637-3.65723,2.39929,2.39929,0,0,0-.9746-1.23339,3.13522,3.13522,0,0,0-1.751-.457,4.01056,4.01056,0,0,0-2.15625.58691,3.38086,3.38086,0,0,0-1.38867,1.76758,10.55544,10.55544,0,0,0-.43994,3.49316v9.17774h-4.84766v-25.29Z" transform="translate(-1689.84055 -1261.59724)" style="fill:#7a923c"/><path d="M1787.46338,1681.457l4.83057.81055a7.92328,7.92328,0,0,1-2.94141,4.0459,8.6411,8.6411,0,0,1-5.02881,1.38867q-4.77833,0-7.07275-3.12207a10.49228,10.49228,0,0,1-1.81153-6.31446,10.11467,10.11467,0,0,1,2.38086-7.13281,7.84171,7.84171,0,0,1,6.02051-2.5791,8.13108,8.13108,0,0,1,6.45215,2.7002q2.36279,2.69823,2.25976,8.27148h-12.145a4.90686,4.90686,0,0,0,1.17334,3.35547,3.671,3.671,0,0,0,2.79444,1.19922,2.96805,2.96805,0,0,0,1.915-.6211A3.83915,3.83915,0,0,0,1787.46338,1681.457Zm.27637-4.89844a4.66968,4.66968,0,0,0-1.08692-3.20117,3.49931,3.49931,0,0,0-5.14062.06055,4.47267,4.47267,0,0,0-1.01807,3.14062Z" transform="translate(-1689.84055 -1261.59724)" style="fill:#7a923c"/><path d="M1813.167,1687.28809h-4.84717v-9.35059a14.4501,14.4501,0,0,0-.31054-3.83789A2.69029,2.69029,0,0,0,1807,1672.74609a2.88281,2.88281,0,0,0-1.68213-.48339,3.88075,3.88075,0,0,0-2.25976.69042,3.46834,3.46834,0,0,0-1.37159,1.82813,15.79438,15.79438,0,0,0-.3706,4.209v8.29786h-4.84766v-18.32032h4.50244v2.69043a7.51148,7.51148,0,0,1,8.97071-2.52734,4.92657,4.92657,0,0,1,2.00976,1.47559,5.3536,5.3536,0,0,1,.94873,2.03613,15.13556,15.13556,0,0,1,.26709,3.25976Z" transform="translate(-1689.84055 -1261.59724)" style="fill:#7a923c"/><path d="M1827.8999,1666.4834v-4.48535h4.84717v4.48535Zm0,20.80469v-18.32032h4.84717v18.32032Z" transform="translate(-1689.84055 -1261.59724)" style="fill:#7a923c"/><path d="M1846.1167,1668.96777v3.86426h-3.312v7.38281a18.31318,18.31318,0,0,0,.09472,2.61328,1.06412,1.06412,0,0,0,.43116.61329,1.36835,1.36835,0,0,0,.81982.24121,6.27194,6.27194,0,0,0,1.94922-.46582l.41406,3.76074a9.63124,9.63124,0,0,1-3.82959.72461,6.06287,6.06287,0,0,1-2.36377-.44043,3.441,3.441,0,0,1-1.54394-1.13867,4.48677,4.48677,0,0,1-.68116-1.88867,23.48009,23.48009,0,0,1-.15527-3.416V1672.832h-2.22558v-3.86426h2.22558v-3.63965l4.86475-2.83007v6.46972Z" transform="translate(-1689.84055 -1261.59724)" style="fill:#7a923c"/><path d="M1849.44629,1670.98633l-.91455-4.71v-4.27832h5.27881v4.27832l-.79346,4.71Z" transform="translate(-1689.84055 -1261.59724)" style="fill:#7a923c"/><path d="M1856.17383,1682.06055l4.86474-.74121a3.56316,3.56316,0,0,0,1.25928,2.14746,4.2521,4.2521,0,0,0,2.65674.7334,4.78989,4.78989,0,0,0,2.8291-.69043,1.53891,1.53891,0,0,0,.63819-1.293,1.27421,1.27421,0,0,0-.34473-.915,3.87088,3.87088,0,0,0-1.62158-.6377q-5.866-1.29492-7.43555-2.36328a4.72054,4.72054,0,0,1-2.17334-4.123,5.07714,5.07714,0,0,1,1.88037-4.002q1.88013-1.623,5.83057-1.62207a10.17364,10.17364,0,0,1,5.58935,1.22461,6.26521,6.26521,0,0,1,2.51856,3.62207l-4.57129.8457a2.82531,2.82531,0,0,0-1.11279-1.63867,4.07425,4.07425,0,0,0-2.33741-.56933,5.26764,5.26764,0,0,0-2.74316.53515,1.14809,1.14809,0,0,0-.55176.9834,1.06782,1.06782,0,0,0,.48291.87891,18.13651,18.13651,0,0,0,4.52832,1.36328,13.47729,13.47729,0,0,1,5.4082,2.15625,4.48387,4.48387,0,0,1,1.51807,3.60547,5.53315,5.53315,0,0,1-2.10449,4.33007q-2.105,1.81056-6.22754,1.81153a10.21368,10.21368,0,0,1-5.92578-1.51856A6.9889,6.9889,0,0,1,1856.17383,1682.06055Z" transform="translate(-1689.84055 -1261.59724)" style="fill:#7a923c"/><path d="M1903.3208,1674.38477l-4.77832.8623a3.47541,3.47541,0,0,0-1.0957-2.15723,3.3108,3.3108,0,0,0-2.2168-.72363,3.62021,3.62021,0,0,0-2.88916,1.251,6.40579,6.40579,0,0,0-1.07861,4.18261q0,3.26074,1.0957,4.60645a3.59788,3.59788,0,0,0,2.94141,1.3457,3.26624,3.26624,0,0,0,2.25976-.78515,4.725,4.725,0,0,0,1.24219-2.69922l4.76123.81054a8.44662,8.44662,0,0,1-2.84668,4.95118,8.8133,8.8133,0,0,1-5.64111,1.67285,8.38367,8.38367,0,0,1-6.40869-2.53613,11.55864,11.55864,0,0,1,.00878-14.08594,8.51987,8.51987,0,0,1,6.48633-2.52637,8.84457,8.84457,0,0,1,5.32178,1.44043A7.98339,7.98339,0,0,1,1903.3208,1674.38477Z" transform="translate(-1689.84055 -1261.59724)" style="fill:#7a923c"/><path d="M1905.874,1677.86914a9.92028,9.92028,0,0,1,1.19043-4.67578,8.16675,8.16675,0,0,1,3.37256-3.44922,10.00337,10.00337,0,0,1,4.87354-1.19043,9.14331,9.14331,0,0,1,6.814,2.7002,9.32611,9.32611,0,0,1,2.65674,6.82226,9.4407,9.4407,0,0,1-2.68262,6.8916,9.06563,9.06563,0,0,1-6.7539,2.73438,10.63976,10.63976,0,0,1-4.8042-1.13867,7.81047,7.81047,0,0,1-3.47608-3.33789A11.12191,11.12191,0,0,1,1905.874,1677.86914Zm4.96827.25879a6.06963,6.06963,0,0,0,1.29394,4.1748,4.22892,4.22892,0,0,0,6.374,0,6.15361,6.15361,0,0,0,1.28516-4.209,6.0395,6.0395,0,0,0-1.28516-4.14063,4.22893,4.22893,0,0,0-6.374,0A6.068,6.068,0,0,0,1910.84229,1678.12793Z" transform="translate(-1689.84055 -1261.59724)" style="fill:#7a923c"/><path d="M1928.57666,1687.28809v-25.29h4.84717v25.29Z" transform="translate(-1689.84055 -1261.59724)" style="fill:#7a923c"/><path d="M1955.19434,1687.28809h-4.50245v-2.69043a7.28379,7.28379,0,0,1-2.64794,2.33691,6.8088,6.8088,0,0,1-3.07959.76758,6.98116,6.98116,0,0,1-5.40821-2.54395,10.3545,10.3545,0,0,1-2.251-7.09961q0-4.65821,2.19091-7.082a7.14309,7.14309,0,0,1,5.5376-2.42285,6.85837,6.85837,0,0,1,5.313,2.55274v-9.1084h4.84766Zm-12.93848-9.55762a8.38563,8.38563,0,0,0,.811,4.24414,3.66265,3.66265,0,0,0,3.27784,1.89844,3.56752,3.56752,0,0,0,2.84619-1.42383,6.56789,6.56789,0,0,0,1.17334-4.252,7.19,7.19,0,0,0-1.13867-4.5459,3.60342,3.60342,0,0,0-2.91553-1.38867,3.64229,3.64229,0,0,0-2.88965,1.37109A6.1976,6.1976,0,0,0,1942.25586,1677.73047Z" transform="translate(-1689.84055 -1261.59724)" style="fill:#7a923c"/><path d="M1973.41162,1674.55664l-4.39892-.793a6.85093,6.85093,0,0,1,2.55273-3.93359,9.34061,9.34061,0,0,1,5.38232-1.27637,11.60246,11.60246,0,0,1,4.83057.76758,4.81435,4.81435,0,0,1,2.23389,1.94922,9.99756,9.99756,0,0,1,.647,4.33887l-.05176,5.6582a19.64936,19.64936,0,0,0,.23291,3.5625,10.38689,10.38689,0,0,0,.8711,2.458h-4.7959c-.12647-.32129-.28174-.79981-.46582-1.43164q-.12086-.43214-.17237-.56934a8.743,8.743,0,0,1-2.65673,1.81055,7.59408,7.59408,0,0,1-3.01856.60449,6.24262,6.24262,0,0,1-4.45947-1.53516,5.10466,5.10466,0,0,1-1.63037-3.88183,5.20758,5.20758,0,0,1,.7417-2.76856,4.83858,4.83858,0,0,1,2.0791-1.86328,16.28162,16.28162,0,0,1,3.85547-1.12988,26.41785,26.41785,0,0,0,4.70947-1.19043v-.4834a2.5106,2.5106,0,0,0-.68994-1.99219,4.13889,4.13889,0,0,0-2.605-.59472,3.46456,3.46456,0,0,0-2.01856.50878A3.53949,3.53949,0,0,0,1973.41162,1674.55664Zm6.48633,3.93359q-.93164.31056-2.9502.74219a8.86916,8.86916,0,0,0-2.63916.84473,2.02167,2.02167,0,0,0-.94873,1.708,2.37761,2.37761,0,0,0,.75879,1.75976,2.6521,2.6521,0,0,0,1.93213.74219,4.19806,4.19806,0,0,0,2.50147-.86328,3.03835,3.03835,0,0,0,1.15576-1.60449,9.57375,9.57375,0,0,0,.18994-2.36329Z" transform="translate(-1689.84055 -1261.59724)" style="fill:#7a923c"/><path d="M2006.10205,1687.28809h-4.84717v-9.35059a14.4501,14.4501,0,0,0-.31054-3.83789,2.69035,2.69035,0,0,0-1.00928-1.35352,2.88281,2.88281,0,0,0-1.68213-.48339,3.88079,3.88079,0,0,0-2.25977.69042,3.46837,3.46837,0,0,0-1.37158,1.82813,15.79438,15.79438,0,0,0-.3706,4.209v8.29786h-4.84766v-18.32032h4.50244v2.69043a7.51147,7.51147,0,0,1,8.9707-2.52734,4.92654,4.92654,0,0,1,2.00977,1.47559,5.3536,5.3536,0,0,1,.94873,2.03613,15.13556,15.13556,0,0,1,.26709,3.25976Z" transform="translate(-1689.84055 -1261.59724)" style="fill:#7a923c"/><path d="M2027.82129,1687.28809h-4.50244v-2.69043a7.28382,7.28382,0,0,1-2.648,2.33691,6.8088,6.8088,0,0,1-3.07959.76758,6.98114,6.98114,0,0,1-5.4082-2.54395,10.35451,10.35451,0,0,1-2.251-7.09961q0-4.65821,2.19092-7.082a7.14307,7.14307,0,0,1,5.53759-2.42285,6.85835,6.85835,0,0,1,5.313,2.55274v-9.1084h4.84766Zm-12.93848-9.55762a8.3855,8.3855,0,0,0,.811,4.24414,3.66263,3.66263,0,0,0,3.27783,1.89844,3.56752,3.56752,0,0,0,2.84619-1.42383,6.56783,6.56783,0,0,0,1.17334-4.252,7.19,7.19,0,0,0-1.13867-4.5459,3.60342,3.60342,0,0,0-2.91553-1.38867,3.64229,3.64229,0,0,0-2.88965,1.37109A6.19765,6.19765,0,0,0,2014.88281,1677.73047Z" transform="translate(-1689.84055 -1261.59724)" style="fill:#7a923c"/><path d="M2059.21777,1687.28809h-4.50244v-2.69043a7.28374,7.28374,0,0,1-2.648,2.33691,6.80874,6.80874,0,0,1-3.07959.76758,6.98116,6.98116,0,0,1-5.4082-2.54395,10.35451,10.35451,0,0,1-2.251-7.09961q0-4.65821,2.19092-7.082a7.14308,7.14308,0,0,1,5.5376-2.42285,6.85838,6.85838,0,0,1,5.313,2.55274v-9.1084h4.84765Zm-12.93847-9.55762a8.38552,8.38552,0,0,0,.811,4.24414,3.66263,3.66263,0,0,0,3.27783,1.89844,3.56753,3.56753,0,0,0,2.8462-1.42383,6.56789,6.56789,0,0,0,1.17334-4.252,7.19,7.19,0,0,0-1.13868-4.5459,3.60338,3.60338,0,0,0-2.91552-1.38867,3.64228,3.64228,0,0,0-2.88965,1.37109A6.1976,6.1976,0,0,0,2046.2793,1677.73047Z" transform="translate(-1689.84055 -1261.59724)" style="fill:#7a923c"/><path d="M2068.63672,1687.28809h-4.84717v-18.32032h4.50244v2.6045a7.81509,7.81509,0,0,1,2.07862-2.43165,3.81962,3.81962,0,0,1,2.09619-.58691,6.15483,6.15483,0,0,1,3.1914.91406l-1.501,4.22657a4.26166,4.26166,0,0,0-2.27735-.79395,2.6946,2.6946,0,0,0-1.72509.56055,3.84,3.84,0,0,0-1.11231,2.02734,28.7762,28.7762,0,0,0-.40576,6.1416Z" transform="translate(-1689.84055 -1261.59724)" style="fill:#7a923c"/><path d="M2088.35449,1681.457l4.83057.81055a7.92323,7.92323,0,0,1-2.94141,4.0459,8.6411,8.6411,0,0,1-5.02881,1.38867q-4.77831,0-7.07275-3.12207a10.49228,10.49228,0,0,1-1.81152-6.31446,10.11463,10.11463,0,0,1,2.38086-7.13281,7.84169,7.84169,0,0,1,6.0205-2.5791,8.13108,8.13108,0,0,1,6.45215,2.7002q2.3628,2.69823,2.25977,8.27148h-12.145a4.90682,4.90682,0,0,0,1.17334,3.35547,3.671,3.671,0,0,0,2.79443,1.19922,2.96805,2.96805,0,0,0,1.915-.6211A3.83915,3.83915,0,0,0,2088.35449,1681.457Zm.27637-4.89844a4.66968,4.66968,0,0,0-1.08691-3.20117,3.49933,3.49933,0,0,0-5.14063.06055,4.47272,4.47272,0,0,0-1.01807,3.14062Z" transform="translate(-1689.84055 -1261.59724)" style="fill:#7a923c"/><path d="M2101.01709,1674.55664l-4.39893-.793a6.851,6.851,0,0,1,2.55274-3.93359,9.34061,9.34061,0,0,1,5.38232-1.27637,11.60246,11.60246,0,0,1,4.83057.76758,4.8144,4.8144,0,0,1,2.23389,1.94922,9.99756,9.99756,0,0,1,.647,4.33887l-.05176,5.6582a19.64936,19.64936,0,0,0,.23291,3.5625,10.38683,10.38683,0,0,0,.87109,2.458H2108.521c-.12647-.32129-.28174-.79981-.46582-1.43164q-.12085-.43214-.17237-.56934a8.74289,8.74289,0,0,1-2.65674,1.81055,7.594,7.594,0,0,1-3.01855.60449,6.24262,6.24262,0,0,1-4.45947-1.53516,5.10466,5.10466,0,0,1-1.63037-3.88183,5.20758,5.20758,0,0,1,.7417-2.76856,4.83852,4.83852,0,0,1,2.0791-1.86328,16.28162,16.28162,0,0,1,3.85547-1.12988,26.4181,26.4181,0,0,0,4.70947-1.19043v-.4834a2.5106,2.5106,0,0,0-.68994-1.99219,4.13889,4.13889,0,0,0-2.605-.59472,3.46456,3.46456,0,0,0-2.01856.50878A3.53949,3.53949,0,0,0,2101.01709,1674.55664Zm6.48633,3.93359q-.93165.31056-2.9502.74219a8.869,8.869,0,0,0-2.63916.84473,2.02167,2.02167,0,0,0-.94873,1.708,2.37761,2.37761,0,0,0,.75879,1.75976,2.6521,2.6521,0,0,0,1.93213.74219,4.198,4.198,0,0,0,2.50146-.86328,3.03837,3.03837,0,0,0,1.15577-1.60449,9.57375,9.57375,0,0,0,.18994-2.36329Z" transform="translate(-1689.84055 -1261.59724)" style="fill:#7a923c"/><path d="M2121.68359,1687.28809h-4.84716v-18.32032h4.50244v2.6045a7.81522,7.81522,0,0,1,2.07861-2.43165,3.81964,3.81964,0,0,1,2.09619-.58691,6.15486,6.15486,0,0,1,3.19141.91406l-1.501,4.22657a4.2616,4.2616,0,0,0-2.27734-.79395,2.69465,2.69465,0,0,0-1.7251.56055,3.84,3.84,0,0,0-1.1123,2.02734,28.776,28.776,0,0,0-.40577,6.1416Z" transform="translate(-1689.84055 -1261.59724)" style="fill:#7a923c"/><path d="M1715.29492,1293.73438l10.69531.89062,8.7793,15.59766-1.51514-14.83985H1743.46l.66846,29.41309-11.89893,3.07519-8.77929-17.60351-.75733,16.22168-10.20557-2.40625,2.80762-29.76953Z" transform="translate(-1689.84055 -1261.59724)" style="fill:#d86600"/><path d="M1781.25049,1312.31738q-.53467,7.84425-6.06055,11.72071a20.06851,20.06851,0,0,1-11.89892,3.833,18.75751,18.75751,0,0,1-11.54248-3.92187q-5.17017-3.832-5.03565-11.63184a16.72947,16.72947,0,0,1,1.916-7.62011,21.7322,21.7322,0,0,1,4.81347-5.92774,20.48809,20.48809,0,0,1,6.417-3.78808,17.496,17.496,0,0,1,6.90771-1.24707,16.73566,16.73566,0,0,1,4.189.93554,15.42239,15.42239,0,0,1,5.03614,2.94141,16.70674,16.70674,0,0,1,4.01074,5.65918A20.08514,20.08514,0,0,1,1781.25049,1312.31738Zm-12.52246-3.96582a.74421.74421,0,0,0,.312-.22363,1.147,1.147,0,0,0,.26709-.2666,3.31047,3.31047,0,0,0,1.11426-2.45117,4.6308,4.6308,0,0,0-.75782-2.36231c-.05957-.05859-.1333-.126-.22265-.20019-.08887-.07422-.17822-.15625-.26709-.24512-.06006-.05957-.12695-.126-.20069-.20117a1.71114,1.71114,0,0,0-.24511-.2002,6.10952,6.10952,0,0,0-2.31739-.8916,4.11842,4.11842,0,0,0-2.67382.40137,4.80649,4.80649,0,0,0-.98047.53515,8.85076,8.85076,0,0,0-.75781.53418,3.62622,3.62622,0,0,0-1.1587,2.62989,4.51383,4.51383,0,0,0,.936,2.49511,1.80124,1.80124,0,0,1,.15576.17871,1.55516,1.55516,0,0,0,.15625.17774,1.329,1.329,0,0,1,.17822.11133,1.9411,1.9411,0,0,1,.17823.15625,4.83608,4.83608,0,0,0,6.32812-.22266Z" transform="translate(-1689.84055 -1261.59724)" style="fill:#d86600"/><path d="M1784.63721,1295.47168l30.70508-1.7373.53466,15.41894-11.7207-.624,3.521,19.34179-15.063-1.60449,2.58447-17.38086-10.8291.3125Z" transform="translate(-1689.84055 -1261.59724)" style="fill:#d86600"/><path d="M1877.15234,1312.31738q-.53466,7.84425-6.06054,11.72071a20.06851,20.06851,0,0,1-11.89893,3.833,18.75751,18.75751,0,0,1-11.54248-3.92187q-5.17017-3.832-5.03564-11.63184a16.72959,16.72959,0,0,1,1.916-7.62011,21.73242,21.73242,0,0,1,4.81348-5.92774,20.48815,20.48815,0,0,1,6.417-3.78808,17.496,17.496,0,0,1,6.90772-1.24707,16.73575,16.73575,0,0,1,4.189.93554,15.42235,15.42235,0,0,1,5.03613,2.94141,16.70676,16.70676,0,0,1,4.01075,5.65918A20.08514,20.08514,0,0,1,1877.15234,1312.31738Zm-12.52246-3.96582a.74413.74413,0,0,0,.312-.22363,1.14676,1.14676,0,0,0,.26709-.2666,3.31043,3.31043,0,0,0,1.11426-2.45117,4.63069,4.63069,0,0,0-.75781-2.36231c-.05957-.05859-.1333-.126-.22266-.20019-.08886-.07422-.17822-.15625-.26709-.24512-.06006-.05957-.12695-.126-.20068-.20117a1.71123,1.71123,0,0,0-.24512-.2002,6.10947,6.10947,0,0,0-2.31738-.8916,4.11845,4.11845,0,0,0-2.67383.40137,4.807,4.807,0,0,0-.98047.53515,8.85076,8.85076,0,0,0-.75781.53418,3.62621,3.62621,0,0,0-1.15869,2.62989,4.51375,4.51375,0,0,0,.936,2.49511,1.8014,1.8014,0,0,1,.15577.17871,1.55516,1.55516,0,0,0,.15625.17774,1.329,1.329,0,0,1,.17822.11133,1.94236,1.94236,0,0,1,.17822.15625,4.8361,4.8361,0,0,0,6.32813-.22266Z" transform="translate(-1689.84055 -1261.59724)" style="fill:#d86600"/><path d="M1883.0791,1293.73438l10.69531.89062,8.7793,15.59766-1.51514-14.83985h10.20557l.66846,29.41309-11.89893,3.07519-8.77929-17.60351-.75733,16.22168-10.20557-2.40625,2.80762-29.76953Z" transform="translate(-1689.84055 -1261.59724)" style="fill:#d86600"/><path d="M1927.28711,1293.68945l1.42627,25.66895,11.36377-1.55957.26758,8.55664-22.2378,1.51562-3.60986-33.78027Z" transform="translate(-1689.84055 -1261.59724)" style="fill:#d86600"/><path d="M1942.61768,1303.49316l7.6206-5.793,6.23926,8.28906,4.94629-12.25488,10.42822,1.7373-17.291,32.39941-7.665-5.57129,6.28369-10.20507Z" transform="translate(-1689.84055 -1261.59724)" style="fill:#d86600"/><path d="M2022.78857,1304.16211a11.35165,11.35165,0,0,0-4.67919-1.38184,11.09622,11.09622,0,0,0-4.85792.80274,9.25353,9.25353,0,0,0-3.69873,3.07519,8.251,8.251,0,0,0-1.20312,5.34766,7.44692,7.44692,0,0,0,1.87158,4.63476,7.34161,7.34161,0,0,0,3.92188,2.22754,6.03249,6.03249,0,0,0,4.23339-.71289,7.23418,7.23418,0,0,0,3.0752-4.32226l-4.14453.08887.71289-5.03614,10.562-.08886a11.30612,11.30612,0,0,1,.49024,4.18945,18.0546,18.0546,0,0,1-.57959,4.18847,14.39019,14.39019,0,0,1-5.57032,7.79883,16.31448,16.31448,0,0,1-8.55664,2.89746,14.29411,14.29411,0,0,1-4.479-.53515,16.84048,16.84048,0,0,1-4.34473-1.96094q-4.18945-2.6294-6.19482-8.64551a15.7147,15.7147,0,0,1,.04492-10.874,19.33038,19.33038,0,0,1,2.49561-4.70117,18.527,18.527,0,0,1,3.56494-3.67676,17.70442,17.70442,0,0,1,9.44775-3.69922,14.07432,14.07432,0,0,1,10.07178,2.98633Z" transform="translate(-1689.84055 -1261.59724)" style="fill:#d86600"/><path d="M2043.91211,1326.93457l-10.56152-1.33691-1.6045-31.46289a37.69338,37.69338,0,0,1,7.57618-.35645q2.22729.08936,4.34472.334,2.11669.2461,4.25635.64649a35.803,35.803,0,0,1,7.48682,2.40625q3.342,1.64942,4.23339,3.833a6.26886,6.26886,0,0,1-.66845,5.97168,17.90928,17.90928,0,0,1-5.03565,4.99121l12.478,7.84375-10.74023,8.0664-10.02686-13.14746-2.22851-.04394Zm-1.11377-19.42969a10.09572,10.09572,0,0,0,4.54541-1.69433,4.33079,4.33079,0,0,0,1.96094-2.67383,2.50494,2.50494,0,0,0-1.33692-2.49512q-1.51538-1.11328-5.25879-1.248Z" transform="translate(-1689.84055 -1261.59724)" style="fill:#d86600"/><path d="M2093.20068,1293.73438l.26758,9.626-12.47851-.17871.08935,3.56543,6.37256-.35645.04492,5.88184h-5.79346l.13331,4.10059,12.03271-.71289.13379,11.542-22.90674.66894-1.916-34.09277Z" transform="translate(-1689.84055 -1261.59724)" style="fill:#d86600"/><path d="M2120.2959,1293.73438l.26758,9.626-12.47852-.17871.08936,3.56543,6.37256-.35645.04492,5.88184h-5.79346l.1333,4.10059,12.03272-.71289.13378,11.542-22.90673.66894-1.916-34.09277Z" transform="translate(-1689.84055 -1261.59724)" style="fill:#d86600"/><path d="M2126.17773,1293.73438l10.69532.89062,8.77929,15.59766-1.51513-14.83985h10.20556l.66846,29.41309-11.89893,3.07519-8.77929-17.60351-.75733,16.22168-10.20556-2.40625,2.80761-29.76953Z" transform="translate(-1689.84055 -1261.59724)" style="fill:#d86600"/><path d="M1719.81787,1348.10254l3.34229,15.41992,3.38672-10.8291,5.83789-.08984,2.3623,10.11621,3.16406-13.77051,13.63672-1.11426-9.8042,32.30957-9.09131,1.2041-3.60986-11.63183-3.47607,11.98828-9.13575-1.4707-9.8042-33.02247Z" transform="translate(-1689.84055 -1261.59724)" style="fill:#d86600"/><path d="M1754.80078,1348.59277l10.38379-.624v11.498l7.62061-.13379v-11.45313l11.854-.668-1.55957,32.042-10.29443,1.1582v-12.166l-7.62061.17871V1380.457l-9.00244.8916Z" transform="translate(-1689.84055 -1261.59724)" style="fill:#d86600"/><path d="M1811.21973,1347.21191l.26757,9.626-12.47851-.17871.08935,3.56543,6.37256-.35645.04492,5.88184h-5.79345l.1333,4.10059,12.03271-.71289.13379,11.542-22.90674.66894-1.916-34.09277Z" transform="translate(-1689.84055 -1261.59724)" style="fill:#d86600"/><path d="M1817.10156,1347.21191l10.69532.89063,8.77929,15.59766-1.51513-14.83985h10.20556l.66846,29.41309-11.89893,3.07519-8.77929-17.60351-.75733,16.22168-10.20556-2.40625,2.80761-29.76953Z" transform="translate(-1689.84055 -1261.59724)" style="fill:#d86600"/><path d="M1875.74805,1367.93457a30.05932,30.05932,0,0,0,4.45654,1.51465,18.49314,18.49314,0,0,0,3.96631.66894q1.64794.08936,1.96045-.44628.40137-.53468-1.51514-1.82715-2.05-1.4253-4.01074-2.96289-1.96143-1.53809-3.877-3.27637a8.429,8.429,0,0,1-2.80762-8.24414q.93529-4.85742,4.6792-5.7041a16.50858,16.50858,0,0,1,8.1997.31152,35.18552,35.18552,0,0,1,8.46778,3.56543,26.68958,26.68958,0,0,1,5.61523,4.01074l-4.18945,6.50684a6.31587,6.31587,0,0,0-1.29248-.958q-.802-.46875-1.96045-1.04785a23.98337,23.98337,0,0,0-4.05566-1.51465q-1.738-.40137-2.04981.17773-.26733.53468,2.7627,3.03028a72.18354,72.18354,0,0,0,6.46191,4.72461q2.27345,1.42675,2.98584,5.57031a5.79473,5.79473,0,0,1-2.27246,6.0166,16.33022,16.33022,0,0,1-7.30859,2.94141,28.53785,28.53785,0,0,1-9.26954,0,19.39222,19.39222,0,0,1-8.0664-2.89746Z" transform="translate(-1689.84055 -1261.59724)" style="fill:#d86600"/><path d="M1918.61865,1350.91016q-.22338.62549-.5791,1.67089-.35742,1.04883-.84668,2.51856a27.67991,27.67991,0,0,0-1.20312,6.0166,10.83027,10.83027,0,0,0,.71289,5.43652q1.02465,2.3628,4.501,2.27247a3.94264,3.94264,0,0,0,3.56543-1.55958,7.78888,7.78888,0,0,0,1.24756-3.87695,19.1668,19.1668,0,0,0-.17822-4.85742l-.624-4.59082,9.49267-1.82715q.53467,1.69482,1.13623,3.76563.60132,2.07274,1.22559,4.61328a22.791,22.791,0,0,1,.5791,9.66992,12.92127,12.92127,0,0,1-4.58984,7.97754q-3.83351,3.29883-12.96875,3.209-8.77954,0-12.38868-4.14453a16.85289,16.85289,0,0,1-4.27832-9.6709,31.89518,31.89518,0,0,1,.75733-11.31933,87.92645,87.92645,0,0,1,2.54052-9.002Z" transform="translate(-1689.84055 -1261.59724)" style="fill:#d86600"/><path d="M1955.875,1350.33105l5.34766,13.68165,3.43164-14.2168,10.96289-2.584,5.97168,30.48243-10.42823,3.65429-1.82714-19.07422-4.99121,17.96-5.65967.04394-5.83838-16.71191-.66846,17.24707-11.00732-1.69336,3.34228-30.92871Z" transform="translate(-1689.84055 -1261.59724)" style="fill:#d86600"/><path d="M1999.37012,1350.33105l5.34765,13.68165,3.43164-14.2168,10.96289-2.584,5.97168,30.48243-10.42822,3.65429-1.82715-19.07422-4.99121,17.96-5.65967.04394-5.83837-16.71191-.66846,17.24707-11.00733-1.69336,3.34229-30.92871Z" transform="translate(-1689.84055 -1261.59724)" style="fill:#d86600"/><path d="M2052.17969,1347.21191l.26758,9.626-12.47852-.17871.08936,3.56543,6.37255-.35645.04493,5.88184h-5.79346l.1333,4.10059,12.03271-.71289.13379,11.542-22.90673.66894-1.916-34.09277Z" transform="translate(-1689.84055 -1261.59724)" style="fill:#d86600"/><path d="M2067.41992,1380.41211l-10.56152-1.33691-1.60449-31.4629a37.694,37.694,0,0,1,7.57617-.35644q2.22729.08936,4.34472.334,2.11671.2461,4.25635.64649a35.80245,35.80245,0,0,1,7.48682,2.40625q3.342,1.64942,4.2334,3.833a6.26886,6.26886,0,0,1-.66846,5.97168,17.90937,17.90937,0,0,1-5.03564,4.99121l12.478,7.84375-10.74023,8.0664-10.02686-13.14746-2.22851-.04394Zm-1.11377-19.42969a10.09568,10.09568,0,0,0,4.54541-1.69433,4.33079,4.33079,0,0,0,1.96094-2.67383,2.50491,2.50491,0,0,0-1.33691-2.49512q-1.51539-1.11328-5.25879-1.248Z" transform="translate(-1689.84055 -1261.59724)" style="fill:#d86600"/><path d="M2106.147,1340.61621l-4.54541,16.48828-5.39258-.71289-2.98584-18.18262Z" transform="translate(-1689.84055 -1261.59724)" style="fill:#d86600"/><path d="M2111.80664,1367.93457a30.05932,30.05932,0,0,0,4.45654,1.51465,18.49323,18.49323,0,0,0,3.96631.66894q1.64795.08936,1.96045-.44628.40137-.53468-1.51514-1.82715-2.05-1.4253-4.01074-2.96289-1.96141-1.53809-3.87695-3.27637a8.429,8.429,0,0,1-2.80762-8.24414q.93531-4.85742,4.6792-5.7041a16.50862,16.50862,0,0,1,8.19971.31152,35.18562,35.18562,0,0,1,8.46777,3.56543,26.68971,26.68971,0,0,1,5.61524,4.01074l-4.18946,6.50684a6.31587,6.31587,0,0,0-1.29248-.958q-.802-.46875-1.96045-1.04785a23.983,23.983,0,0,0-4.05566-1.51465q-1.738-.40137-2.04981.17773-.26733.53468,2.7627,3.03028a72.18354,72.18354,0,0,0,6.46191,4.72461q2.27344,1.42675,2.98584,5.57031a5.79473,5.79473,0,0,1-2.27246,6.0166,16.33017,16.33017,0,0,1-7.30859,2.94141,28.53779,28.53779,0,0,1-9.26953,0,19.39222,19.39222,0,0,1-8.06641-2.89746Z" transform="translate(-1689.84055 -1261.59724)" style="fill:#d86600"/><path d="M1715.07227,1402.07129l10.38378-.624v11.498l7.62061-.13379V1401.3584l11.854-.668-1.55957,32.042-10.29443,1.1582v-12.166l-7.62061.17871v12.03223l-9.00244.8916Z" transform="translate(-1689.84055 -1261.59724)" style="fill:#d86600"/><path d="M1771.49121,1400.69043l.26758,9.626-12.47852-.17871.08936,3.56542,6.37256-.35644.04492,5.88184h-5.79346l.1333,4.10058,12.03272-.71289.13379,11.542-22.90674.66895-1.916-34.09277Z" transform="translate(-1689.84055 -1261.59724)" style="fill:#d86600"/><path d="M1786.73145,1433.89062l-10.56153-1.33691-1.60449-31.46289a37.69338,37.69338,0,0,1,7.57617-.35644q2.22729.08935,4.34473.334,2.11669.24609,4.25635.64648a35.80353,35.80353,0,0,1,7.48681,2.40625q3.342,1.64941,4.2334,3.833a6.26883,6.26883,0,0,1-.66846,5.97168,17.90911,17.90911,0,0,1-5.03564,4.99121l12.478,7.84375-10.74024,8.06641-10.02685-13.14746-2.22852-.04395Zm-1.11377-19.42968a10.09566,10.09566,0,0,0,4.54541-1.69434,4.33075,4.33075,0,0,0,1.96093-2.67383,2.50491,2.50491,0,0,0-1.33691-2.49511q-1.51538-1.11328-5.25879-1.248Z" transform="translate(-1689.84055 -1261.59724)" style="fill:#d86600"/><path d="M1836.02051,1400.69043l.26758,9.626-12.47852-.17871.08936,3.56542,6.37255-.35644.04493,5.88184H1824.523l.1333,4.10058,12.03271-.71289.13379,11.542-22.90673.66895L1812,1400.73438Z" transform="translate(-1689.84055 -1261.59724)" style="fill:#d86600"/><path d="M1863.20361,1402.20508q2.40675-.53468,4.83545-.91309,2.428-.37939,4.96875-.60156,5.08081-.40137,12.03272,2.45019,4.72265,2.00538,5.125,6.01661.44457,3.9668-3.38721,6.19433,6.06006.71339,8.73486,3.61035a8.24994,8.24994,0,0,1,2.31739,6.23926,9.52767,9.52767,0,0,1-3.16407,6.10449,12.78778,12.78778,0,0,1-7.977,3.25391q-2.89746.2666-5.48144.28906a47.80388,47.80388,0,0,1-4.94678-.20019q-2.36279-.22266-4.791-.624-2.42943-.40135-4.96875-1.02441Zm12.4336,10.47265q.936-.08789,1.78271-.17773a8.97224,8.97224,0,0,0,1.604-.3125q1.51464-.40137,1.64892-1.42578.178-1.916-2.31738-2.31738-1.248-.22266-2.04981-.29a4.3871,4.3871,0,0,0-1.20312.02246Zm1.9165,13.81543a23.262,23.262,0,0,1,3.83252-.26757q2.85132-.13331,2.71826-2.49512-.13331-2.71875-3.20849-2.94141-1.51612-.13476-2.49561-.15625a8.01023,8.01023,0,0,0-1.4707.06641Z" transform="translate(-1689.84055 -1261.59724)" style="fill:#d86600"/><path d="M1916.23535,1404.38867q-.22338.62548-.5791,1.6709-.35742,1.04883-.84668,2.51855a27.68,27.68,0,0,0-1.20312,6.01661,10.83028,10.83028,0,0,0,.71289,5.43652q1.02465,2.3628,4.501,2.27246a3.94264,3.94264,0,0,0,3.56543-1.55957,7.789,7.789,0,0,0,1.24756-3.877,19.1668,19.1668,0,0,0-.17822-4.85742l-.624-4.59082,9.49268-1.82715q.53467,1.69482,1.13623,3.76562.60132,2.07276,1.22559,4.61328a22.791,22.791,0,0,1,.5791,9.66992,12.92119,12.92119,0,0,1-4.58985,7.97754q-3.83349,3.29883-12.96875,3.209-8.77953,0-12.38867-4.14453a16.85294,16.85294,0,0,1-4.27832-9.6709,31.89521,31.89521,0,0,1,.75733-11.31934,87.92354,87.92354,0,0,1,2.54052-9.00195Z" transform="translate(-1689.84055 -1261.59724)" style="fill:#d86600"/><path d="M1939.05273,1402.42773l30.70508-1.7373.53467,15.41895-11.7207-.624,3.521,19.3418-15.063-1.60449,2.58447-17.38086-10.8291.3125Z" transform="translate(-1689.84055 -1261.59724)" style="fill:#d86600"/><path d="M2021.27344,1400.69043l10.42822,30.30371-11.05176,3.833-2.18408-6.68555h-8.55615l-2.00537,6.55176-10.874-5.08106,11.09668-28.07519Zm-3.6543,20.45508-3.25293-7.88867-3.34277,7.75488Z" transform="translate(-1689.84055 -1261.59724)" style="fill:#d86600"/><path d="M2047.25488,1400.64551l1.42627,25.66894,11.36377-1.55957.26758,8.55664-22.23779,1.51563-3.60987-33.78027Z" transform="translate(-1689.84055 -1261.59724)" style="fill:#d86600"/><path d="M2065.70508,1421.41309a30.05932,30.05932,0,0,0,4.45654,1.51464,18.49325,18.49325,0,0,0,3.96631.66895q1.64795.08935,1.96045-.44629.40137-.53466-1.51514-1.82715-2.05005-1.42529-4.01074-2.96289-1.96143-1.53809-3.87695-3.27637a8.429,8.429,0,0,1-2.80762-8.24414q.93529-4.85742,4.6792-5.7041a16.50863,16.50863,0,0,1,8.19971.31153,35.18562,35.18562,0,0,1,8.46777,3.56543,26.68885,26.68885,0,0,1,5.61523,4.01074l-4.18945,6.50683a6.31586,6.31586,0,0,0-1.29248-.958q-.802-.46875-1.96045-1.04786a23.98326,23.98326,0,0,0-4.05566-1.51464q-1.738-.40137-2.04981.17773-.26733.53467,2.7627,3.03027a72.18354,72.18354,0,0,0,6.46191,4.72461q2.27344,1.42675,2.98584,5.57032a5.79474,5.79474,0,0,1-2.27246,6.0166,16.33021,16.33021,0,0,1-7.30859,2.9414,28.53724,28.53724,0,0,1-9.26953,0,19.39194,19.39194,0,0,1-8.06641-2.89746Z" transform="translate(-1689.84055 -1261.59724)" style="fill:#d86600"/><path d="M2127.7832,1419.27344q-.53466,7.84424-6.06054,11.7207a20.06853,20.06853,0,0,1-11.89893,3.833,18.75752,18.75752,0,0,1-11.54248-3.92188q-5.17017-3.832-5.03564-11.63183a16.72967,16.72967,0,0,1,1.916-7.62012,21.73219,21.73219,0,0,1,4.81348-5.92773,20.48818,20.48818,0,0,1,6.417-3.78809,17.49635,17.49635,0,0,1,6.90771-1.24707,16.73536,16.73536,0,0,1,4.189.93555,15.42214,15.42214,0,0,1,5.03613,2.9414,16.70661,16.70661,0,0,1,4.01074,5.65918A20.085,20.085,0,0,1,2127.7832,1419.27344Zm-12.52246-3.96582a.74429.74429,0,0,0,.312-.22364,1.14657,1.14657,0,0,0,.26709-.2666,3.31042,3.31042,0,0,0,1.11426-2.45117,4.63066,4.63066,0,0,0-.75781-2.3623c-.05957-.0586-.1333-.126-.22266-.2002-.08886-.07422-.17822-.15625-.26709-.24512-.06006-.05957-.127-.126-.20068-.20117a1.71184,1.71184,0,0,0-.24512-.20019,6.10948,6.10948,0,0,0-2.31738-.89161,4.1185,4.1185,0,0,0-2.67383.40137,4.807,4.807,0,0,0-.98047.53516,8.84568,8.84568,0,0,0-.75781.53418,3.62619,3.62619,0,0,0-1.15869,2.62988,4.51378,4.51378,0,0,0,.936,2.49512,1.8014,1.8014,0,0,1,.15577.17871,1.55424,1.55424,0,0,0,.15625.17773,1.33106,1.33106,0,0,1,.17822.11133,1.94387,1.94387,0,0,1,.17822.15625,4.83608,4.83608,0,0,0,6.32813-.22265Z" transform="translate(-1689.84055 -1261.59724)" style="fill:#d86600"/><path d="M1723.00488,1455.05859l3.34229,15.41993,3.38672-10.82911,5.83789-.08984,2.3623,10.11621,3.16406-13.77051,13.63672-1.11425-9.8042,32.30957-9.0913,1.2041-3.60987-11.63184-3.47607,11.98828-9.13574-1.4707-9.8042-33.02246Z" transform="translate(-1689.84055 -1261.59724)" style="fill:#d86600"/><path d="M1757.98779,1455.54883l10.38379-.624v11.498l7.62061-.13379v-11.45312l11.854-.668-1.55957,32.042-10.29443,1.1582v-12.166l-7.62061.17871v12.03223l-9.00244.8916Z" transform="translate(-1689.84055 -1261.59724)" style="fill:#d86600"/><path d="M1814.40674,1454.168l.26758,9.626-12.47852-.17872.08936,3.56543,6.37255-.35644.04493,5.88183h-5.79346l.1333,4.10059,12.03272-.71289.13378,11.542-22.90673.66895-1.916-34.09278Z" transform="translate(-1689.84055 -1261.59724)" style="fill:#d86600"/><path d="M1820.28857,1454.168l10.69532.89062,8.77929,15.59766-1.51513-14.83984h10.20556l.66846,29.41308-11.89893,3.0752-8.77929-17.60352-.75733,16.22168-10.20556-2.40625,2.80761-29.76953Z" transform="translate(-1689.84055 -1261.59724)" style="fill:#d86600"/><path d="M1875.81543,1454.168l12.79.84668-.624,32.93359-11.31934.35645Z" transform="translate(-1689.84055 -1261.59724)" style="fill:#d86600"/><path d="M1890.52148,1455.90527l30.70508-1.7373.53467,15.41894-11.7207-.624,3.521,19.3418-15.063-1.60449,2.58447-17.38086-10.8291.3125Z" transform="translate(-1689.84055 -1261.59724)" style="fill:#d86600"/><path d="M1937.84912,1447.57227l-4.54541,16.48828-5.39258-.71289-2.98584-18.18262Z" transform="translate(-1689.84055 -1261.59724)" style="fill:#d86600"/><path d="M1943.50879,1474.89062a30.05816,30.05816,0,0,0,4.45654,1.51465,18.49335,18.49335,0,0,0,3.96631.66895q1.64794.08936,1.96045-.44629.40137-.53467-1.51514-1.82715-2.05005-1.42529-4.01074-2.96289-1.96143-1.53808-3.87695-3.27637a8.429,8.429,0,0,1-2.80762-8.24414q.93531-4.85742,4.6792-5.7041a16.50874,16.50874,0,0,1,8.19971.31152,35.18642,35.18642,0,0,1,8.46777,3.56543,26.6889,26.6889,0,0,1,5.61523,4.01075l-4.18945,6.50683a6.31624,6.31624,0,0,0-1.29248-.958q-.802-.46875-1.96045-1.04785a23.98423,23.98423,0,0,0-4.05566-1.51465q-1.738-.40135-2.04981.17774-.26733.53466,2.7627,3.03027a72.18354,72.18354,0,0,0,6.46191,4.72461q2.27344,1.42676,2.98584,5.57031a5.79475,5.79475,0,0,1-2.27246,6.01661,16.33017,16.33017,0,0,1-7.30859,2.9414,28.53779,28.53779,0,0,1-9.26953,0,19.39194,19.39194,0,0,1-8.06641-2.89746Z" transform="translate(-1689.84055 -1261.59724)" style="fill:#d86600"/><path d="M2023.23389,1463.25879q-8.69019-1.47071-12.61182,1.916-3.92213,3.34278-3.47607,7.13086.44531,3.78809,5.03613,5.793,4.58936,2.00538,13.01269-2.22754l4.63477,9.3584a21.99984,21.99984,0,0,1-9.938,2.98535,32.3048,32.3048,0,0,1-11.2749-1.06933,24.04839,24.04839,0,0,1-9.3584-4.99121,11.78719,11.78719,0,0,1-4.1001-8.7793,14.967,14.967,0,0,1,2.89649-9.89355,22.015,22.015,0,0,1,7.84375-6.63965,24.73838,24.73838,0,0,1,10.16064-2.62989,18.40118,18.40118,0,0,1,9.71533,2.00586Z" transform="translate(-1689.84055 -1261.59724)" style="fill:#d86600"/><path d="M2067.13037,1472.751q-.53466,7.84423-6.06055,11.7207a20.06859,20.06859,0,0,1-11.89892,3.833,18.75752,18.75752,0,0,1-11.54248-3.92188q-5.17017-3.832-5.03565-11.63183a16.72977,16.72977,0,0,1,1.916-7.62012,21.7322,21.7322,0,0,1,4.81348-5.92774,20.48834,20.48834,0,0,1,6.417-3.78808,17.49618,17.49618,0,0,1,6.90771-1.24707,16.73536,16.73536,0,0,1,4.189.93555,15.42214,15.42214,0,0,1,5.03613,2.9414,16.70674,16.70674,0,0,1,4.01074,5.65918A20.08516,20.08516,0,0,1,2067.13037,1472.751Zm-12.52246-3.96582a.74429.74429,0,0,0,.312-.22364,1.14657,1.14657,0,0,0,.26709-.2666,3.31042,3.31042,0,0,0,1.11426-2.45117,4.63085,4.63085,0,0,0-.75781-2.3623c-.05957-.0586-.1333-.126-.22266-.2002-.08887-.07422-.17822-.15625-.26709-.24512-.06006-.05957-.127-.126-.20068-.20117a1.71184,1.71184,0,0,0-.24512-.20019,6.10948,6.10948,0,0,0-2.31738-.89161,4.1185,4.1185,0,0,0-2.67383.40137,4.807,4.807,0,0,0-.98047.53516,8.84568,8.84568,0,0,0-.75781.53418,3.62617,3.62617,0,0,0-1.15869,2.62988,4.51378,4.51378,0,0,0,.936,2.49512,1.80011,1.80011,0,0,1,.15576.17871,1.55521,1.55521,0,0,0,.15625.17773,1.33051,1.33051,0,0,1,.17823.11133,1.94387,1.94387,0,0,1,.17822.15625,4.83605,4.83605,0,0,0,6.32812-.22266Z" transform="translate(-1689.84055 -1261.59724)" style="fill:#d86600"/><path d="M2083.03955,1454.12305l1.42627,25.66894,11.36377-1.55957.26758,8.55664-22.23779,1.51563-3.60987-33.78028Z" transform="translate(-1689.84055 -1261.59724)" style="fill:#d86600"/><path d="M2098.36963,1456.03906a39.01786,39.01786,0,0,1,15.73144-1.55957,23.88473,23.88473,0,0,1,15.86524,7.57617,10.8246,10.8246,0,0,1,2.85205,5.61524,15.141,15.141,0,0,1,.20068,3.18652,12.8316,12.8316,0,0,1-.55713,3.23047,18.52693,18.52693,0,0,1-3.3872,6.15039,17.21813,17.21813,0,0,1-6.10547,4.54492,39.66038,39.66038,0,0,1-11.2749,3.12012,33.2643,33.2643,0,0,1-11.05176-.04492Zm14.439,18.27149a6.58064,6.58064,0,0,0,2.80762-.49024,10.18529,10.18529,0,0,0,2.80762-1.69336,5.8495,5.8495,0,0,0,1.69336-2.49511,2.934,2.934,0,0,0-.49024-2.85254q-.98071-1.3374-3.78808-1.69336a16.03865,16.03865,0,0,0-4.189-.13379Z" transform="translate(-1689.84055 -1261.59724)" style="fill:#d86600"/><path d="M1803.91064,1507.64648l10.42823,30.30372-11.05176,3.833-2.18408-6.68554h-8.55615l-2.00538,6.55175-10.874-5.08105,11.09668-28.0752Zm-3.65429,20.45508-3.25293-7.88867-3.34278,7.75488Z" transform="translate(-1689.84055 -1261.59724)" style="fill:#d86600"/><path d="M1819.90967,1507.64648l10.69531.89063,8.7793,15.59766-1.51514-14.83985h10.20557l.66845,29.41309-11.89892,3.07519-8.7793-17.60351-.75732,16.22168-10.20557-2.40625,2.80762-29.76953Z" transform="translate(-1689.84055 -1261.59724)" style="fill:#d86600"/><path d="M1851.32715,1509.51758a39.01786,39.01786,0,0,1,15.73144-1.55957,23.88473,23.88473,0,0,1,15.86524,7.57617,10.82465,10.82465,0,0,1,2.852,5.61523,15.1411,15.1411,0,0,1,.20068,3.18653,12.8316,12.8316,0,0,1-.55713,3.23047,18.527,18.527,0,0,1-3.3872,6.15039,17.21825,17.21825,0,0,1-6.10547,4.54492,39.66038,39.66038,0,0,1-11.2749,3.12012,33.26427,33.26427,0,0,1-11.05176-.04493Zm14.439,18.27148a6.58046,6.58046,0,0,0,2.80762-.49023,10.18529,10.18529,0,0,0,2.80762-1.69336,5.84953,5.84953,0,0,0,1.69336-2.49512,2.934,2.934,0,0,0-.49024-2.85254q-.98071-1.3374-3.78808-1.69336a16.03954,16.03954,0,0,0-4.189-.13379Z" transform="translate(-1689.84055 -1261.59724)" style="fill:#d86600"/><path d="M1913.22705,1509.51758a39.01793,39.01793,0,0,1,15.73145-1.55957,23.88473,23.88473,0,0,1,15.86523,7.57617,10.82458,10.82458,0,0,1,2.852,5.61523,15.1411,15.1411,0,0,1,.20068,3.18653,12.83158,12.83158,0,0,1-.55712,3.23047,18.52706,18.52706,0,0,1-3.38721,6.15039,17.21825,17.21825,0,0,1-6.10547,4.54492,39.66028,39.66028,0,0,1-11.2749,3.12012,33.26427,33.26427,0,0,1-11.05176-.04493Zm14.439,18.27148a6.58045,6.58045,0,0,0,2.80761-.49023,10.18514,10.18514,0,0,0,2.80762-1.69336,5.84945,5.84945,0,0,0,1.69336-2.49512,2.93405,2.93405,0,0,0-.49023-2.85254q-.98071-1.3374-3.78809-1.69336a16.03954,16.03954,0,0,0-4.189-.13379Z" transform="translate(-1689.84055 -1261.59724)" style="fill:#d86600"/><path d="M1963.18359,1540.84668l-10.56152-1.33691-1.60449-31.46289a37.69332,37.69332,0,0,1,7.57617-.35645q2.22729.08935,4.34473.334,2.11669.24611,4.25634.64649a35.80226,35.80226,0,0,1,7.48682,2.40625q3.342,1.64941,4.2334,3.833a6.26884,6.26884,0,0,1-.66846,5.97168,17.90937,17.90937,0,0,1-5.03564,4.99121l12.478,7.84375-10.74023,8.0664-10.02685-13.14746-2.22852-.04394Zm-1.11377-19.42969a10.09568,10.09568,0,0,0,4.54541-1.69433,4.33079,4.33079,0,0,0,1.96094-2.67383,2.50491,2.50491,0,0,0-1.33691-2.49512q-1.51539-1.11328-5.25879-1.248Z" transform="translate(-1689.84055 -1261.59724)" style="fill:#d86600"/><path d="M2012.47266,1507.64648l.26757,9.626-12.47851-.17871.08935,3.56543,6.37256-.35645.04492,5.88184h-5.79345l.1333,4.10059,12.03271-.71289.13379,11.542-22.90674.66894-1.916-34.09277Z" transform="translate(-1689.84055 -1261.59724)" style="fill:#d86600"/><path d="M2039.79,1507.64648l10.42822,30.30372-11.05176,3.833-2.18408-6.68554h-8.55615l-2.00537,6.55175-10.874-5.08105,11.09667-28.0752Zm-3.6543,20.45508-3.25293-7.88867-3.34277,7.75488Z" transform="translate(-1689.84055 -1261.59724)" style="fill:#d86600"/><path d="M2065.14746,1540.84668l-10.56152-1.33691-1.60449-31.46289a37.69324,37.69324,0,0,1,7.57617-.35645q2.22729.08935,4.34472.334,2.11671.24611,4.25635.64649a35.80245,35.80245,0,0,1,7.48682,2.40625q3.342,1.64941,4.2334,3.833a6.26886,6.26886,0,0,1-.66846,5.97168,17.90928,17.90928,0,0,1-5.03565,4.99121l12.478,7.84375-10.74023,8.0664-10.02686-13.14746-2.22851-.04394Zm-1.11377-19.42969a10.09572,10.09572,0,0,0,4.54541-1.69433,4.33079,4.33079,0,0,0,1.96094-2.67383,2.50491,2.50491,0,0,0-1.33692-2.49512q-1.51538-1.11328-5.25878-1.248Z" transform="translate(-1689.84055 -1261.59724)" style="fill:#d86600"/></svg>