<svg id="8def2cf7-53d0-41e7-9aa8-a9b08a9bbee0" data-name="ПЕРЕВОД_не фанерные объекты_клик" xmlns="http://www.w3.org/2000/svg" viewBox="0 0 431.49082 467"><title>sveza_ny_game-curves-узкая версия-eng-с украшенной желтой стеной</title><rect x="8.97127" y="5.48889" width="422.51955" height="461.51111" rx="12" ry="12" style="fill:#3a301f"/><rect width="422.51955" height="461.51111" rx="12" ry="12" style="fill:#fff"/><path d="M3364.4375,717.44434h9.332a18.23719,18.23719,0,0,1,4.81348.48291,8.46327,8.46327,0,0,1,3.8125,2.3291,11.05351,11.05351,0,0,1,2.415,4.09717,18.64388,18.64388,0,0,1,.82812,5.97753,16.64933,16.64933,0,0,1-.77539,5.38233,11.158,11.158,0,0,1-2.709,4.46777,8.97733,8.97733,0,0,1-3.58789,2.01856,15.45626,15.45626,0,0,1-4.51953.53467h-9.60938Zm5.10645,4.27832v16.75048h3.81152a13.91679,13.91679,0,0,0,3.08887-.24121,4.72063,4.72063,0,0,0,2.06152-1.05224,5.35535,5.35535,0,0,0,1.33691-2.44092,16.51523,16.51523,0,0,0,.51661-4.63232,15.12635,15.12635,0,0,0-.51661-4.50245,5.78692,5.78692,0,0,0-1.44922-2.4497,4.86161,4.86161,0,0,0-2.36328-1.18994,23.14154,23.14154,0,0,0-4.19238-.2417Z" transform="translate(-3256.13463 -575.44623)" style="fill:#7a923c"/><path d="M3388.8125,733.31543a9.90939,9.90939,0,0,1,1.19141-4.67529,8.168,8.168,0,0,1,3.37207-3.4502A10.00755,10.00755,0,0,1,3398.25,724a9.14483,9.14483,0,0,1,6.81348,2.69971,9.33041,9.33041,0,0,1,2.65722,6.82275,9.43678,9.43678,0,0,1-2.68359,6.8916,9.06417,9.06417,0,0,1-6.75391,2.73438,10.633,10.633,0,0,1-4.80371-1.13867,7.80187,7.80187,0,0,1-3.47558-3.33789A11.11747,11.11747,0,0,1,3388.8125,733.31543Zm4.96875.25879a6.07119,6.07119,0,0,0,1.294,4.1748,4.22986,4.22986,0,0,0,6.374,0,6.15086,6.15086,0,0,0,1.28516-4.20947,6.03743,6.03743,0,0,0-1.28516-4.14014,4.22893,4.22893,0,0,0-6.374,0A6.0712,6.0712,0,0,0,3393.78125,733.57422Z" transform="translate(-3256.13463 -575.44623)" style="fill:#7a923c"/><path d="M3428.17969,742.73438H3423.332v-9.3501a14.4515,14.4515,0,0,0-.31055-3.83838,2.69073,2.69073,0,0,0-1.00878-1.354,2.88662,2.88662,0,0,0-1.68262-.48291,3.89056,3.89056,0,0,0-2.25977.68995,3.47918,3.47918,0,0,0-1.37109,1.82861,15.76717,15.76717,0,0,0-.3711,4.209v8.29786h-4.84765V724.41406h4.50293V727.105a7.50934,7.50934,0,0,1,8.9707-2.52734,4.915,4.915,0,0,1,2.00977,1.47509,5.33612,5.33612,0,0,1,.94824,2.03565,15.10631,15.10631,0,0,1,.26758,3.26025Z" transform="translate(-3256.13463 -575.44623)" style="fill:#7a923c"/><path d="M3432.97559,717.51367h4.84765V720.981a12.06057,12.06057,0,0,1-.3623,3.3208,4.97528,4.97528,0,0,1-1.3711,2.18213,7.07446,7.07446,0,0,1-2.5625,1.51806l-.94824-2.001a4.07772,4.07772,0,0,0,2.08692-1.32862,3.99632,3.99632,0,0,0,.65625-2.31152h-2.34668Z" transform="translate(-3256.13463 -575.44623)" style="fill:#7a923c"/><path d="M3451.31348,724.41406v3.86377H3448.002v7.38379a18.57663,18.57663,0,0,0,.09375,2.61328,1.06282,1.06282,0,0,0,.43164.61231,1.36682,1.36682,0,0,0,.82032.2417,6.281,6.281,0,0,0,1.94922-.46582l.41406,3.76074a9.64393,9.64393,0,0,1-3.83008.72461,6.06583,6.06583,0,0,1-2.36328-.43994,3.45216,3.45216,0,0,1-1.54492-1.13868,4.49438,4.49438,0,0,1-.68067-1.88867,23.49861,23.49861,0,0,1-.15527-3.416v-7.98731h-2.22559v-3.86377h2.22559v-3.64013l4.86523-2.82911v6.46924Z" transform="translate(-3256.13463 -575.44623)" style="fill:#7a923c"/><path d="M3462.78516,737.50732l4.86523-.74169a3.5622,3.5622,0,0,0,1.25977,2.14746,4.24956,4.24956,0,0,0,2.65625.73339,4.79626,4.79626,0,0,0,2.8291-.68994,1.54146,1.54146,0,0,0,.63769-1.29394,1.27884,1.27884,0,0,0-.34375-.91455,3.885,3.885,0,0,0-1.62207-.63819q-5.8667-1.29345-7.43554-2.36328a4.7206,4.7206,0,0,1-2.17286-4.123,5.07947,5.07947,0,0,1,1.87989-4.002q1.8794-1.62158,5.831-1.62158a10.174,10.174,0,0,1,5.58887,1.22461,6.26324,6.26324,0,0,1,2.51855,3.62256l-4.57129.8457a2.83019,2.83019,0,0,0-1.1123-1.63916,4.07316,4.07316,0,0,0-2.33789-.56933,5.26524,5.26524,0,0,0-2.74316.53515,1.1473,1.1473,0,0,0-.55176.98291,1.06951,1.06951,0,0,0,.48242.87988,18.18988,18.18988,0,0,0,4.5293,1.3628,13.48437,13.48437,0,0,1,5.4082,2.15625,4.48286,4.48286,0,0,1,1.51758,3.60547,5.53235,5.53235,0,0,1-2.10449,4.33007q-2.105,1.81128-6.22754,1.81153a10.21746,10.21746,0,0,1-5.92579-1.51807A6.9954,6.9954,0,0,1,3462.78516,737.50732Z" transform="translate(-3256.13463 -575.44623)" style="fill:#7a923c"/><path d="M3484.14258,742.73438v-25.29h4.84765v25.29Z" transform="translate(-3256.13463 -575.44623)" style="fill:#7a923c"/><path d="M3504.56738,736.90332l4.83106.811a7.924,7.924,0,0,1-2.94141,4.04541,8.64271,8.64271,0,0,1-5.0293,1.38867q-4.77831,0-7.07226-3.12256a10.48674,10.48674,0,0,1-1.8125-6.314,10.12205,10.12205,0,0,1,2.38086-7.1333A7.84335,7.84335,0,0,1,3500.94531,724a8.13317,8.13317,0,0,1,6.45117,2.69971q2.36427,2.6997,2.25977,8.27148h-12.14453a4.90521,4.90521,0,0,0,1.17383,3.35547,3.66586,3.66586,0,0,0,2.79394,1.19922,2.969,2.969,0,0,0,1.915-.62109A3.8356,3.8356,0,0,0,3504.56738,736.90332Zm.27637-4.89893a4.66877,4.66877,0,0,0-1.08691-3.20019,3.49827,3.49827,0,0,0-5.14063.06055,4.46948,4.46948,0,0,0-1.01855,3.13964Z" transform="translate(-3256.13463 -575.44623)" style="fill:#7a923c"/><path d="M3524.2168,736.90332l4.83008.811a7.924,7.924,0,0,1-2.94141,4.04541,8.64062,8.64062,0,0,1-5.0293,1.38867q-4.77832,0-7.07226-3.12256a10.493,10.493,0,0,1-1.81153-6.314,10.1176,10.1176,0,0,1,2.38086-7.1333A7.84129,7.84129,0,0,1,3520.59375,724a8.13386,8.13386,0,0,1,6.45215,2.69971q2.36279,2.6997,2.25976,8.27148h-12.1455a4.90521,4.90521,0,0,0,1.17382,3.35547,3.66942,3.66942,0,0,0,2.79493,1.19922,2.96628,2.96628,0,0,0,1.91406-.62109A3.8428,3.8428,0,0,0,3524.2168,736.90332Zm.27539-4.89893a4.66849,4.66849,0,0,0-1.08594-3.20019,3.49828,3.49828,0,0,0-5.14063.06055,4.465,4.465,0,0,0-1.01855,3.13964Z" transform="translate(-3256.13463 -575.44623)" style="fill:#7a923c"/><path d="M3533.11816,724.41406h4.51954V727.105a6.76636,6.76636,0,0,1,2.38085-2.24268,6.56583,6.56583,0,0,1,3.32911-.8623,6.986,6.986,0,0,1,5.417,2.501,10.127,10.127,0,0,1,2.22558,6.96972q0,4.58864-2.24218,7.1333a6.98916,6.98916,0,0,1-5.43457,2.54444,6.1627,6.1627,0,0,1-2.751-.604,9.26643,9.26643,0,0,1-2.59668-2.06982v9.229h-4.84766Zm4.7959,8.84961a7.05851,7.05851,0,0,0,1.22461,4.563,3.74732,3.74732,0,0,0,2.98438,1.47461,3.50438,3.50438,0,0,0,2.8125-1.354,6.98051,6.98051,0,0,0,1.12109-4.44239,6.62042,6.62042,0,0,0-1.15625-4.27783,3.57433,3.57433,0,0,0-2.86328-1.39746,3.718,3.718,0,0,0-2.9502,1.37158A6.10313,6.10313,0,0,0,3537.91406,733.26367Z" transform="translate(-3256.13463 -575.44623)" style="fill:#7a923c"/><path d="M3554.7168,737.88672h4.84765v3.46777a12.057,12.057,0,0,1-.36328,3.3208,4.9576,4.9576,0,0,1-1.37109,2.18213,7.06888,7.06888,0,0,1-2.56153,1.51807l-.94824-2.001a4.08807,4.08807,0,0,0,2.08692-1.32861,4.0048,4.0048,0,0,0,.65527-2.31152h-2.3457Z" transform="translate(-3256.13463 -575.44623)" style="fill:#7a923c"/><path d="M3350.50781,785.13037v-25.29h4.84766v13.42139l5.67578-6.45166H3367l-6.2627,6.69336,6.71,11.62695h-5.22657l-4.60547-8.22851-2.25976,2.36328v5.86523Z" transform="translate(-3256.13463 -575.44623)" style="fill:#7a923c"/><path d="M3380.9375,779.29932l4.831.811a7.92389,7.92389,0,0,1-2.9414,4.04541,8.64165,8.64165,0,0,1-5.02832,1.38867q-4.77833,0-7.07324-3.12255a10.48643,10.48643,0,0,1-1.81153-6.314,10.1176,10.1176,0,0,1,2.38086-7.1333,7.84129,7.84129,0,0,1,6.02051-2.57861,8.13389,8.13389,0,0,1,6.45215,2.6997q2.36278,2.69971,2.25976,8.27149h-12.14453a4.90481,4.90481,0,0,0,1.17285,3.35547,3.66588,3.66588,0,0,0,2.794,1.19922,2.96988,2.96988,0,0,0,1.916-.6211A3.82836,3.82836,0,0,0,3380.9375,779.29932Zm.27734-4.89893a4.669,4.669,0,0,0-1.08789-3.20019,3.3339,3.3339,0,0,0-2.51757-1.09522,3.36853,3.36853,0,0,0-2.623,1.15576,4.47372,4.47372,0,0,0-1.01758,3.13965Z" transform="translate(-3256.13463 -575.44623)" style="fill:#7a923c"/><path d="M3400.58691,779.29932l4.83106.811a7.92385,7.92385,0,0,1-2.94141,4.04541,8.6427,8.6427,0,0,1-5.02929,1.38867q-4.77833,0-7.07227-3.12255a10.48678,10.48678,0,0,1-1.8125-6.314,10.12205,10.12205,0,0,1,2.38086-7.1333,7.84335,7.84335,0,0,1,6.02148-2.57861,8.13323,8.13323,0,0,1,6.45118,2.6997q2.36425,2.69971,2.25976,8.27149h-12.14453a4.90521,4.90521,0,0,0,1.17383,3.35547,3.66586,3.66586,0,0,0,2.79394,1.19922,2.969,2.969,0,0,0,1.915-.6211A3.83546,3.83546,0,0,0,3400.58691,779.29932Zm.27637-4.89893a4.66875,4.66875,0,0,0-1.08691-3.20019,3.49828,3.49828,0,0,0-5.14063.06054,4.46952,4.46952,0,0,0-1.01855,3.13965Z" transform="translate(-3256.13463 -575.44623)" style="fill:#7a923c"/><path d="M3409.48828,766.81006h4.51953V769.501a6.78282,6.78282,0,0,1,2.38086-2.24268,6.5693,6.5693,0,0,1,3.33008-.8623,6.98409,6.98409,0,0,1,5.416,2.501,10.12258,10.12258,0,0,1,2.22656,6.96973q0,4.58862-2.24317,7.1333a6.98771,6.98771,0,0,1-5.43457,2.54443,6.16581,6.16581,0,0,1-2.751-.604,9.26661,9.26661,0,0,1-2.59668-2.06982v9.229h-4.84766Zm4.79688,8.84961a7.05265,7.05265,0,0,0,1.22461,4.563,3.74592,3.74592,0,0,0,2.98437,1.47461,3.50118,3.50118,0,0,0,2.81152-1.354,6.98045,6.98045,0,0,0,1.1211-4.44238,6.62638,6.62638,0,0,0-1.15528-4.27783,3.57749,3.57749,0,0,0-2.86425-1.39746,3.71933,3.71933,0,0,0-2.9502,1.37158A6.1084,6.1084,0,0,0,3414.28516,775.65967Z" transform="translate(-3256.13463 -575.44623)" style="fill:#7a923c"/><path d="M3441.02344,785.13037v-25.29h4.84765v25.29Z" transform="translate(-3256.13463 -575.44623)" style="fill:#7a923c"/><path d="M3449.71875,775.71143a9.91854,9.91854,0,0,1,1.18945-4.6753,8.17578,8.17578,0,0,1,3.37305-3.45019,10.00915,10.00915,0,0,1,4.87305-1.18994,9.14857,9.14857,0,0,1,6.81445,2.6997,9.32578,9.32578,0,0,1,2.65625,6.82276,9.44312,9.44312,0,0,1-2.68164,6.8916,9.06719,9.06719,0,0,1-6.75391,2.73437,10.6339,10.6339,0,0,1-4.80468-1.13867,7.814,7.814,0,0,1-3.47657-3.33789A11.12878,11.12878,0,0,1,3449.71875,775.71143Zm4.96777.25878a6.06638,6.06638,0,0,0,1.29395,4.17481,4.22986,4.22986,0,0,0,6.374,0,6.15577,6.15577,0,0,0,1.28516-4.20947,6.04227,6.04227,0,0,0-1.28516-4.14014,4.22892,4.22892,0,0,0-6.374,0A6.06637,6.06637,0,0,0,3454.68652,775.97021Z" transform="translate(-3256.13463 -575.44623)" style="fill:#7a923c"/><path d="M3471.29883,775.71143a9.90954,9.90954,0,0,1,1.1914-4.6753,8.168,8.168,0,0,1,3.37207-3.45019,10.00761,10.00761,0,0,1,4.874-1.18994,9.14482,9.14482,0,0,1,6.81347,2.6997,9.3304,9.3304,0,0,1,2.65723,6.82276,9.43681,9.43681,0,0,1-2.68359,6.8916,9.06416,9.06416,0,0,1-6.75391,2.73437,10.63291,10.63291,0,0,1-4.80371-1.13867,7.80184,7.80184,0,0,1-3.47559-3.33789A11.11754,11.11754,0,0,1,3471.29883,775.71143Zm4.96875.25878a6.07125,6.07125,0,0,0,1.29394,4.17481,4.22987,4.22987,0,0,0,6.374,0,6.15086,6.15086,0,0,0,1.28515-4.20947,6.03741,6.03741,0,0,0-1.28515-4.14014,4.22893,4.22893,0,0,0-6.374,0A6.07124,6.07124,0,0,0,3476.26758,775.97021Z" transform="translate(-3256.13463 -575.44623)" style="fill:#7a923c"/><path d="M3493.8291,785.13037v-25.29h4.84766v13.42139l5.67578-6.45166h5.96875l-6.2627,6.69336,6.71094,11.62695H3505.543l-4.60645-8.22851-2.25976,2.36328v5.86523Z" transform="translate(-3256.13463 -575.44623)" style="fill:#7a923c"/><path d="M3513.65039,764.32568v-4.48535h4.84766v4.48535Zm0,20.80469V766.81006h4.84766v18.32031Z" transform="translate(-3256.13463 -575.44623)" style="fill:#7a923c"/><path d="M3540.13086,785.13037h-4.84766v-9.3501a14.4522,14.4522,0,0,0-.31054-3.83838,2.69082,2.69082,0,0,0-1.00879-1.354,2.88655,2.88655,0,0,0-1.68262-.48291,3.89062,3.89062,0,0,0-2.25977.68994,3.4792,3.4792,0,0,0-1.37109,1.82862,15.76719,15.76719,0,0,0-.37109,4.209v8.29785h-4.84766V766.81006h4.50293V769.501a7.50938,7.50938,0,0,1,8.9707-2.52735,4.915,4.915,0,0,1,2.00977,1.4751,5.33612,5.33612,0,0,1,.94824,2.03565,15.10625,15.10625,0,0,1,.26758,3.26025Z" transform="translate(-3256.13463 -575.44623)" style="fill:#7a923c"/><path d="M3544.59961,786.33789l5.53711.67285a1.88721,1.88721,0,0,0,.63867,1.32813,3.63908,3.63908,0,0,0,2.17383.51758,5.642,5.642,0,0,0,2.8457-.56934,2.34618,2.34618,0,0,0,.9668-1.22461,7.40441,7.40441,0,0,0,.22363-2.22559v-2.67382a6.55931,6.55931,0,0,1-5.48535,2.96728,6.75244,6.75244,0,0,1-5.84863-3.12256,10.60609,10.60609,0,0,1-1.69043-6.14111q0-4.6062,2.21679-7.03857a7.15182,7.15182,0,0,1,5.51172-2.43213,6.70941,6.70941,0,0,1,5.60645,2.98437v-2.57031h4.53711V783.25a16.38239,16.38239,0,0,1-.53516,4.84766,6.00357,6.00357,0,0,1-1.501,2.51855,6.64559,6.64559,0,0,1-2.57813,1.43164,13.57544,13.57544,0,0,1-4.08008.51758q-4.65821,0-6.60742-1.5957a5.00547,5.00547,0,0,1-1.94922-4.04541Q3544.582,786.68261,3544.59961,786.33789Zm4.33008-10.74707a6.60956,6.60956,0,0,0,1.1289,4.26953,3.4955,3.4955,0,0,0,2.78711,1.354,3.85266,3.85266,0,0,0,3.001-1.38868,6.05309,6.05309,0,0,0,1.22559-4.11425,6.41541,6.41541,0,0,0-1.17383-4.22657,3.72824,3.72824,0,0,0-2.9668-1.37988,3.57986,3.57986,0,0,0-2.873,1.354A6.35372,6.35372,0,0,0,3548.92969,775.59082Z" transform="translate(-3256.13463 -575.44623)" style="fill:#7a923c"/><path d="M3568.52637,778.60938l-1.25879-12.83448v-5.93457h5.24414v5.93457l-1.24219,12.83448Zm-1.05176,6.521v-4.84766h4.84668v4.84766Z" transform="translate(-3256.13463 -575.44623)" style="fill:#7a923c"/><path d="M3453.77628,818.76051l-1.02636,1.33911Q3453.27762,819.43971,3453.77628,818.76051Z" transform="translate(-3256.13463 -575.44623)" style="fill:#02263c"/><path d="M3471.82072,795.22023l-.0669.08716c.043-.02808.083-.06031.12622-.08789Z" transform="translate(-3256.13463 -575.44623)" style="fill:#02263c"/><path d="M3400.47461,596.23682l11.68555.97363,9.59179,17.042-1.65429-16.21387h11.14941l.73047,32.13477-13.001,3.36035-9.59179-19.2334-.82715,17.72364L3397.4082,629.395l3.06641-32.52539Z" transform="translate(-3256.13463 -575.44623)" style="fill:#d86600"/><path d="M3434.80078,596.23682l13.97461.9248-.68164,35.98242-12.36719.38965Z" transform="translate(-3256.13463 -575.44623)" style="fill:#d86600"/><path d="M3477.16016,607.63037a12.39421,12.39421,0,0,0-5.11133-1.50976,12.118,12.118,0,0,0-5.30762.87695,10.11174,10.11174,0,0,0-4.042,3.35937,9.02475,9.02475,0,0,0-1.31445,5.84278,8.13836,8.13836,0,0,0,2.04492,5.06347,8.0202,8.0202,0,0,0,4.28515,2.43457,6.59312,6.59312,0,0,0,4.625-.77929,7.898,7.898,0,0,0,3.36036-4.72266l-4.52832.09766.77929-5.502,11.53906-.09765a12.32167,12.32167,0,0,1,.53516,4.57715,19.63761,19.63761,0,0,1-.63281,4.57617,15.72554,15.72554,0,0,1-6.08594,8.52148,17.82869,17.82869,0,0,1-9.34766,3.165,15.59571,15.59571,0,0,1-4.89453-.585,18.37506,18.37506,0,0,1-4.74609-2.14258q-4.57911-2.87109-6.76856-9.44531a17.17636,17.17636,0,0,1,.04883-11.88086,21.17777,21.17777,0,0,1,2.72657-5.13672,20.25466,20.25466,0,0,1,3.8955-4.0166,19.34116,19.34116,0,0,1,10.32227-4.041,15.37868,15.37868,0,0,1,11.00391,3.26172Z" transform="translate(-3256.13463 -575.44623)" style="fill:#d86600"/><path d="M3486.94727,597.74658l11.34472-.68262v12.5625l8.3252-.14648V596.96729l12.95215-.73047-1.70411,35.00781-11.248,1.2666v-13.293l-8.3252.19531v13.14551l-9.835.97461Z" transform="translate(-3256.13463 -575.44623)" style="fill:#d86600"/><path d="M3522.63672,598.13525l33.54687-1.89843.584,16.84668-12.80469-.68164,3.8457,21.13183-16.457-1.75293,2.82422-18.98926-11.832.34082Z" transform="translate(-3256.13463 -575.44623)" style="fill:#d86600"/><path d="M3336.32617,655.63818l3.65235,16.84668,3.69921-11.832,6.37891-.09668,2.58008,11.05274,3.457-15.0459,14.90039-1.2168L3360.28125,690.646l-9.93164,1.31543-3.94531-12.709-3.79688,13.09766-9.98144-1.60645-10.71192-36.0791Z" transform="translate(-3256.13463 -575.44623)" style="fill:#d86600"/><path d="M3401.03516,654.66455l11.39355,33.10938-12.07519,4.1875-2.38575-7.30372h-9.34863l-2.19141,7.15723-11.87988-5.55078,12.124-30.6748Zm-3.99219,22.34863-3.55469-8.61816-3.65234,8.47168Z" transform="translate(-3256.13463 -575.44623)" style="fill:#d86600"/><path d="M3418.51465,654.66455l11.68555.97363,9.59179,17.042-1.65527-16.21387h11.15039l.73047,32.13476-13.001,3.36036-9.5918-19.2334-.82714,17.72363-11.15039-2.62891,3.06738-32.52539Z" transform="translate(-3256.13463 -575.44623)" style="fill:#d86600"/><path d="M3452.84082,656.70947q7.20557-2.4829,17.1875-1.7041a26.08862,26.08862,0,0,1,17.333,8.27734,11.82645,11.82645,0,0,1,3.11719,6.13477,16.55554,16.55554,0,0,1,.21875,3.48145,13.99564,13.99564,0,0,1-.60938,3.53027,20.21811,20.21811,0,0,1-3.69922,6.71875,18.82962,18.82962,0,0,1-6.6709,4.9668,43.38586,43.38586,0,0,1-12.31933,3.4082,36.35454,36.35454,0,0,1-12.07422-.04883Zm15.77539,19.96289a7.21009,7.21009,0,0,0,3.06738-.53515,11.17,11.17,0,0,0,3.06739-1.85059,6.40162,6.40162,0,0,0,1.85058-2.72656,3.20735,3.20735,0,0,0-.53515-3.11621q-1.07227-1.46046-4.13868-1.85059a17.55235,17.55235,0,0,0-4.57812-.14551Z" transform="translate(-3256.13463 -575.44623)" style="fill:#d86600"/><path d="M3520.37305,654.66455l.293,10.5166-13.63379-.19433.09668,3.8955,6.96289-.38964.04882,6.42675h-6.33007l.14648,4.4795,13.14649-.7793L3521.25,691.231l-25.02734.73047-2.09375-37.248Z" transform="translate(-3256.13463 -575.44623)" style="fill:#d86600"/><path d="M3537.02539,690.939l-11.54-1.46093-1.75293-34.375a41.10982,41.10982,0,0,1,8.27735-.38965q2.43456.09815,4.74707.36523,2.313.26806,4.64941.70606a39.091,39.091,0,0,1,8.18066,2.6289q3.65186,1.80177,4.626,4.1875a6.85121,6.85121,0,0,1-.73047,6.52442,19.5764,19.5764,0,0,1-5.50195,5.45312l13.63281,8.56934-11.73437,8.81348-10.95508-14.36426-2.43457-.04883Zm-1.21777-21.22949a11.03183,11.03183,0,0,0,4.96582-1.84961,4.73348,4.73348,0,0,0,2.14258-2.92187,2.73665,2.73665,0,0,0-1.46094-2.72656q-1.65528-1.21582-5.74512-1.36329Z" transform="translate(-3256.13463 -575.44623)" style="fill:#d86600"/><path d="M3590.875,654.66455l.293,10.5166-13.63281-.19433.09668,3.8955,6.96289-.38964.04882,6.42675h-6.33007l.1455,4.4795,13.14649-.7793.14648,12.61133-25.02636.73047-2.09375-37.248Z" transform="translate(-3256.13463 -575.44623)" style="fill:#d86600"/><path d="M3607.52734,690.939l-11.53906-1.46093-1.7539-34.375a41.10972,41.10972,0,0,1,8.27734-.38965q2.43458.09815,4.74805.36523,2.31151.26806,4.64941.70606a39.091,39.091,0,0,1,8.18066,2.6289q3.6504,1.80177,4.625,4.1875a6.84858,6.84858,0,0,1-.73046,6.52442,19.55088,19.55088,0,0,1-5.502,5.45312l13.63281,8.56934-11.73437,8.81348-10.95508-14.36426-2.43359-.04883Zm-1.21679-21.22949a11.03623,11.03623,0,0,0,4.96582-1.84961,4.73135,4.73135,0,0,0,2.1416-2.92187,2.73731,2.73731,0,0,0-1.46-2.72656q-1.65673-1.21582-5.74512-1.36329Z" transform="translate(-3256.13463 -575.44623)" style="fill:#d86600"/></svg>