<svg id="672bbd06-7ba4-4596-88dd-2afd0b520937" data-name="ПЕРЕВОД_не фанерные объекты_клик" xmlns="http://www.w3.org/2000/svg" viewBox="0 0 431.49082 470.40094"><title>sveza_ny_game-curves-узкая версия-eng-с украшенной желтой стеной</title><rect x="8.97127" y="5.52887" width="422.51955" height="464.87207" rx="12" ry="12" style="fill:#3a301f"/><rect width="422.51955" height="464.87207" rx="12" ry="12" style="fill:#fff"/><path d="M2464.58008,215.24414v-25.29h4.96875l10.35058,16.88867V189.9541h4.74414v25.29h-5.124l-10.19531-16.4917v16.4917Z" transform="translate(-2378.33333 -102.30085)" style="fill:#7a923c"/><path d="M2488.88672,205.8252a9.90954,9.90954,0,0,1,1.1914-4.6753,8.1679,8.1679,0,0,1,3.37208-3.45019,10.00755,10.00755,0,0,1,4.874-1.18994,9.14486,9.14486,0,0,1,6.81348,2.6997,9.33044,9.33044,0,0,1,2.65722,6.82276,9.43681,9.43681,0,0,1-2.68359,6.8916,9.06416,9.06416,0,0,1-6.75391,2.73437,10.63291,10.63291,0,0,1-4.80371-1.13867,7.80184,7.80184,0,0,1-3.47559-3.33789A11.11754,11.11754,0,0,1,2488.88672,205.8252Zm4.96875.25878a6.07125,6.07125,0,0,0,1.29394,4.17481,4.22987,4.22987,0,0,0,6.374,0,6.15086,6.15086,0,0,0,1.28515-4.20947,6.03741,6.03741,0,0,0-1.28515-4.14014,4.22893,4.22893,0,0,0-6.374,0A6.07124,6.07124,0,0,0,2493.85547,206.084Z" transform="translate(-2378.33333 -102.30085)" style="fill:#7a923c"/><path d="M2526.23633,189.9541v9.29834a7.26307,7.26307,0,0,1,8.625-2.12158,4.93963,4.93963,0,0,1,2.02734,1.58691,5.79075,5.79075,0,0,1,.93164,2.13916,19.18592,19.18592,0,0,1,.25,3.63965v10.74756h-4.84765v-9.67773a14.29751,14.29751,0,0,0-.27637-3.65723,2.4018,2.4018,0,0,0-.97461-1.2334,3.13631,3.13631,0,0,0-1.751-.457,4.01689,4.01689,0,0,0-2.15625.58643,3.382,3.382,0,0,0-1.38867,1.76806,10.57086,10.57086,0,0,0-.43945,3.49317v9.17773h-4.84766v-25.29Z" transform="translate(-2378.33333 -102.30085)" style="fill:#7a923c"/><path d="M2542.98633,194.43945V189.9541h4.84765v4.48535Zm0,20.80469V196.92383h4.84765v18.32031Z" transform="translate(-2378.33333 -102.30085)" style="fill:#7a923c"/><path d="M2569.4668,215.24414h-4.84766V205.894a14.45205,14.45205,0,0,0-.31055-3.83838,2.69076,2.69076,0,0,0-1.00879-1.354,2.88652,2.88652,0,0,0-1.68261-.48291,3.89062,3.89062,0,0,0-2.25977.68994,3.47921,3.47921,0,0,0-1.37109,1.82861,15.76721,15.76721,0,0,0-.3711,4.209v8.29785h-4.84765V196.92383h4.50293v2.69092a7.50938,7.50938,0,0,1,8.9707-2.52735,4.915,4.915,0,0,1,2.00977,1.4751,5.33623,5.33623,0,0,1,.94824,2.03564,15.10642,15.10642,0,0,1,.26758,3.26026Z" transform="translate(-2378.33333 -102.30085)" style="fill:#7a923c"/><path d="M2582.78516,196.92383v3.86377h-3.3125v7.38379a18.33362,18.33362,0,0,0,.09472,2.61328,1.06549,1.06549,0,0,0,.43067.6123,1.36679,1.36679,0,0,0,.82031.2417,6.27464,6.27464,0,0,0,1.94922-.46582l.41406,3.76074a9.64055,9.64055,0,0,1-3.83008.72461,6.0691,6.0691,0,0,1-2.36328-.43994,3.45433,3.45433,0,0,1-1.54394-1.13867,4.49438,4.49438,0,0,1-.68067-1.88867,23.45032,23.45032,0,0,1-.15625-3.416v-7.9873h-2.22461v-3.86377h2.22461v-3.64014l4.86524-2.8291v6.46924Z" transform="translate(-2378.33333 -102.30085)" style="fill:#7a923c"/><path d="M2584.44141,210.01709l4.86425-.7417a3.5612,3.5612,0,0,0,1.25879,2.14746,4.25454,4.25454,0,0,0,2.65723.7334,4.79831,4.79831,0,0,0,2.8291-.68994,1.53986,1.53986,0,0,0,.63867-1.29395,1.272,1.272,0,0,0-.3457-.91455,3.86717,3.86717,0,0,0-1.62109-.63818q-5.86524-1.29346-7.43555-2.36328a4.71932,4.71932,0,0,1-2.17383-4.12305,5.0804,5.0804,0,0,1,1.88086-4.00195q1.88087-1.62159,5.83008-1.62158a10.17326,10.17326,0,0,1,5.58984,1.22461,6.26327,6.26327,0,0,1,2.51856,3.62255l-4.57129.84571a2.82268,2.82268,0,0,0-1.11328-1.63916,4.06753,4.06753,0,0,0-2.33692-.56934,5.26993,5.26993,0,0,0-2.74316.53516,1.14729,1.14729,0,0,0-.55176.98291,1.07061,1.07061,0,0,0,.4834.87988,18.14518,18.14518,0,0,0,4.52734,1.36279,13.48472,13.48472,0,0,1,5.40821,2.15625,4.48355,4.48355,0,0,1,1.51855,3.60547,5.53536,5.53536,0,0,1-2.10449,4.33008q-2.105,1.81128-6.22754,1.81152a10.21751,10.21751,0,0,1-5.92578-1.51806A6.98542,6.98542,0,0,1,2584.44141,210.01709Z" transform="translate(-2378.33333 -102.30085)" style="fill:#7a923c"/><path d="M2613.49219,196.92383h2.69043v-1.38037a9.1832,9.1832,0,0,1,.49121-3.4502,3.8877,3.8877,0,0,1,1.8125-1.85449,6.94857,6.94857,0,0,1,3.33789-.71582,13.4945,13.4945,0,0,1,4.05371.62109l-.65527,3.38135a9.58134,9.58134,0,0,0-2.22559-.27637,1.98491,1.98491,0,0,0-1.50977.4917,2.849,2.849,0,0,0-.457,1.88916v1.29395h3.62207v3.812h-3.62207v14.5083h-4.84765v-14.5083h-2.69043Z" transform="translate(-2378.33333 -102.30085)" style="fill:#7a923c"/><path d="M2626.25781,205.8252a9.91855,9.91855,0,0,1,1.18946-4.6753,8.17564,8.17564,0,0,1,3.373-3.45019,10.00915,10.00915,0,0,1,4.87305-1.18994,9.14857,9.14857,0,0,1,6.81445,2.6997,9.32574,9.32574,0,0,1,2.65625,6.82276,9.44312,9.44312,0,0,1-2.68164,6.8916,9.06719,9.06719,0,0,1-6.7539,2.73437,10.63394,10.63394,0,0,1-4.80469-1.13867,7.81392,7.81392,0,0,1-3.47656-3.33789A11.12878,11.12878,0,0,1,2626.25781,205.8252Zm4.96778.25878a6.06638,6.06638,0,0,0,1.29394,4.17481,4.22986,4.22986,0,0,0,6.374,0,6.15577,6.15577,0,0,0,1.28516-4.20947,6.04227,6.04227,0,0,0-1.28516-4.14014,4.22892,4.22892,0,0,0-6.374,0A6.06637,6.06637,0,0,0,2631.22559,206.084Z" transform="translate(-2378.33333 -102.30085)" style="fill:#7a923c"/><path d="M2653.59961,215.24414h-4.84668V196.92383h4.50293v2.60449a7.81757,7.81757,0,0,1,2.07812-2.43213,3.8241,3.8241,0,0,1,2.09571-.58642,6.15216,6.15216,0,0,1,3.1914.91406l-1.5,4.22656a4.25909,4.25909,0,0,0-2.27734-.79346,2.69138,2.69138,0,0,0-1.72559.56055,3.829,3.829,0,0,0-1.1123,2.02686,28.76171,28.76171,0,0,0-.40625,6.1416Z" transform="translate(-2378.33333 -102.30085)" style="fill:#7a923c"/><path d="M2670.23047,196.92383h5.1582l4.38086,13.00683,4.2793-13.00683h5.01953l-6.46875,17.63037-1.15625,3.19141a13.0151,13.0151,0,0,1-1.2168,2.4497,5.29161,5.29161,0,0,1-1.32812,1.3711,5.80129,5.80129,0,0,1-1.84571.81982,9.58943,9.58943,0,0,1-2.47461.293,12.86948,12.86948,0,0,1-2.74414-.293l-.43066-3.79541a10.72881,10.72881,0,0,0,2.05273.22412,3.04107,3.04107,0,0,0,2.501-.9917,6.87362,6.87362,0,0,0,1.24219-2.52734Z" transform="translate(-2378.33333 -102.30085)" style="fill:#7a923c"/><path d="M2691.05273,205.8252a9.91855,9.91855,0,0,1,1.18946-4.6753,8.1757,8.1757,0,0,1,3.373-3.45019,10.00918,10.00918,0,0,1,4.87305-1.18994,9.14856,9.14856,0,0,1,6.81445,2.6997,9.32574,9.32574,0,0,1,2.65625,6.82276,9.44312,9.44312,0,0,1-2.68164,6.8916,9.06719,9.06719,0,0,1-6.7539,2.73437,10.63394,10.63394,0,0,1-4.80469-1.13867,7.81392,7.81392,0,0,1-3.47656-3.33789A11.12878,11.12878,0,0,1,2691.05273,205.8252Zm4.96778.25878a6.06638,6.06638,0,0,0,1.29394,4.17481,4.22987,4.22987,0,0,0,6.374,0,6.15581,6.15581,0,0,0,1.28515-4.20947,6.04231,6.04231,0,0,0-1.28515-4.14014,4.22893,4.22893,0,0,0-6.374,0A6.06637,6.06637,0,0,0,2696.02051,206.084Z" transform="translate(-2378.33333 -102.30085)" style="fill:#7a923c"/><path d="M2725.8125,215.24414v-2.74268a7.0449,7.0449,0,0,1-2.63086,2.31153,7.37688,7.37688,0,0,1-3.44141.84521,6.72678,6.72678,0,0,1-3.31152-.811,4.78666,4.78666,0,0,1-2.12207-2.27686,10.15457,10.15457,0,0,1-.65527-4.0542V196.92383h4.84668v8.41846a23.37952,23.37952,0,0,0,.26757,4.73535,2.58766,2.58766,0,0,0,.97461,1.37988,2.99969,2.99969,0,0,0,1.79493.50879,3.81219,3.81219,0,0,0,2.22461-.68115,3.46057,3.46057,0,0,0,1.3457-1.69092,19.56535,19.56535,0,0,0,.36328-4.94238v-7.728h4.84668v18.32031Z" transform="translate(-2378.33333 -102.30085)" style="fill:#7a923c"/><path d="M2735.21484,210.39648h4.84766v3.46778a12.10081,12.10081,0,0,1-.3623,3.3208,4.95126,4.95126,0,0,1-1.37208,2.18213,7.056,7.056,0,0,1-2.56054,1.51806l-.94922-2.001a4.09134,4.09134,0,0,0,2.08789-1.32862,3.99735,3.99735,0,0,0,.6543-2.31152h-2.34571Z" transform="translate(-2378.33333 -102.30085)" style="fill:#7a923c"/><path d="M2490.793,257.64014v-25.29h4.84765v13.42138l5.67579-6.45166h5.96875l-6.26172,6.69336,6.71094,11.627h-5.22754l-4.60645-8.22852-2.25977,2.36328v5.86524Z" transform="translate(-2378.33333 -102.30085)" style="fill:#7a923c"/><path d="M2521.22461,251.80908l4.83008.811a7.924,7.924,0,0,1-2.94141,4.04541,8.64058,8.64058,0,0,1-5.0293,1.38867q-4.77831,0-7.07226-3.12256a10.493,10.493,0,0,1-1.81152-6.314,10.11756,10.11756,0,0,1,2.38085-7.1333,7.84127,7.84127,0,0,1,6.02051-2.57862,8.13386,8.13386,0,0,1,6.45215,2.69971q2.3628,2.6997,2.25977,8.27148H2514.168a4.90514,4.90514,0,0,0,1.17383,3.35547,3.66935,3.66935,0,0,0,2.79492,1.19922,2.96628,2.96628,0,0,0,1.91406-.62109A3.8428,3.8428,0,0,0,2521.22461,251.80908Zm.27539-4.89892a4.66847,4.66847,0,0,0-1.08594-3.2002,3.49829,3.49829,0,0,0-5.14062.06055,4.46493,4.46493,0,0,0-1.01856,3.13965Z" transform="translate(-2378.33333 -102.30085)" style="fill:#7a923c"/><path d="M2540.87305,251.80908l4.83007.811a7.92393,7.92393,0,0,1-2.9414,4.04541,8.63952,8.63952,0,0,1-5.02832,1.38867q-4.77833,0-7.07324-3.12256a10.49262,10.49262,0,0,1-1.81055-6.314,10.11307,10.11307,0,0,1,2.38086-7.1333,7.83919,7.83919,0,0,1,6.01953-2.57862,8.13455,8.13455,0,0,1,6.45312,2.69971q2.36133,2.6997,2.25977,8.27148h-12.14551a4.90479,4.90479,0,0,0,1.17285,3.35547,3.66939,3.66939,0,0,0,2.79493,1.19922,2.96719,2.96719,0,0,0,1.915-.62109A3.83566,3.83566,0,0,0,2540.87305,251.80908Zm.27636-4.89892a4.6688,4.6688,0,0,0-1.08691-3.2002,3.49828,3.49828,0,0,0-5.14062.06055,4.46912,4.46912,0,0,0-1.01758,3.13965Z" transform="translate(-2378.33333 -102.30085)" style="fill:#7a923c"/><path d="M2549.77539,239.31982h4.51953v2.69092a6.758,6.758,0,0,1,2.38086-2.24267,6.56055,6.56055,0,0,1,3.3291-.86231,6.98748,6.98748,0,0,1,5.417,2.501,10.12676,10.12676,0,0,1,2.2246,6.96972q0,4.58864-2.24218,7.13331a6.98726,6.98726,0,0,1-5.4336,2.54443,6.17,6.17,0,0,1-2.75195-.604,9.26416,9.26416,0,0,1-2.5957-2.06983v9.229h-4.84766Zm4.79492,8.84961a7.05851,7.05851,0,0,0,1.22461,4.563,3.74868,3.74868,0,0,0,2.98438,1.47461,3.50438,3.50438,0,0,0,2.8125-1.354,6.9744,6.9744,0,0,0,1.12109-4.44239,6.61467,6.61467,0,0,0-1.15625-4.27783,3.573,3.573,0,0,0-2.86328-1.39746,3.716,3.716,0,0,0-2.94922,1.37158A6.09782,6.09782,0,0,0,2554.57031,248.16943Z" transform="translate(-2378.33333 -102.30085)" style="fill:#7a923c"/><path d="M2581.31055,257.64014v-25.29h4.84668v25.29Z" transform="translate(-2378.33333 -102.30085)" style="fill:#7a923c"/><path d="M2590.00391,248.22119a9.9095,9.9095,0,0,1,1.1914-4.67529,8.168,8.168,0,0,1,3.37207-3.4502,10.00767,10.00767,0,0,1,4.874-1.18994,9.14479,9.14479,0,0,1,6.81347,2.69971,9.33038,9.33038,0,0,1,2.65723,6.82275,9.43678,9.43678,0,0,1-2.68359,6.8916,9.06414,9.06414,0,0,1-6.75391,2.73438,10.633,10.633,0,0,1-4.80371-1.13867,7.80179,7.80179,0,0,1-3.47559-3.33789A11.11758,11.11758,0,0,1,2590.00391,248.22119Zm4.96875.25879a6.07126,6.07126,0,0,0,1.29394,4.17481,4.22986,4.22986,0,0,0,6.374,0,6.15084,6.15084,0,0,0,1.28516-4.20948,6.03735,6.03735,0,0,0-1.28516-4.14013,4.22892,4.22892,0,0,0-6.374,0A6.07124,6.07124,0,0,0,2594.97266,248.48Z" transform="translate(-2378.33333 -102.30085)" style="fill:#7a923c"/><path d="M2611.58594,248.22119a9.9185,9.9185,0,0,1,1.18945-4.67529,8.1758,8.1758,0,0,1,3.37305-3.4502,10.00925,10.00925,0,0,1,4.873-1.18994,9.14856,9.14856,0,0,1,6.81446,2.69971,9.32576,9.32576,0,0,1,2.65625,6.82275,9.44309,9.44309,0,0,1-2.68164,6.8916,9.06718,9.06718,0,0,1-6.75391,2.73438,10.63407,10.63407,0,0,1-4.80469-1.13867,7.814,7.814,0,0,1-3.47656-3.33789A11.12882,11.12882,0,0,1,2611.58594,248.22119Zm4.96777.25879a6.0664,6.0664,0,0,0,1.29395,4.17481,4.22986,4.22986,0,0,0,6.374,0,6.15584,6.15584,0,0,0,1.28516-4.20948,6.04231,6.04231,0,0,0-1.28516-4.14013,4.22892,4.22892,0,0,0-6.374,0A6.06637,6.06637,0,0,0,2616.55371,248.48Z" transform="translate(-2378.33333 -102.30085)" style="fill:#7a923c"/><path d="M2634.11523,257.64014v-25.29h4.84766v13.42138l5.67578-6.45166h5.96875l-6.26172,6.69336,6.71,11.627h-5.22754l-4.60546-8.22852-2.25977,2.36328v5.86524Z" transform="translate(-2378.33333 -102.30085)" style="fill:#7a923c"/><path d="M2653.9375,236.83545V232.3501h4.84668v4.48535Zm0,20.80469V239.31982h4.84668v18.32032Z" transform="translate(-2378.33333 -102.30085)" style="fill:#7a923c"/><path d="M2680.417,257.64014h-4.84668V248.29a14.4521,14.4521,0,0,0-.31054-3.83838,2.69239,2.69239,0,0,0-1.00977-1.354,2.88555,2.88555,0,0,0-1.68164-.48291,3.88412,3.88412,0,0,0-2.25977.68994,3.471,3.471,0,0,0-1.37207,1.82861,15.8216,15.8216,0,0,0-.37011,4.209v8.29785h-4.84766V239.31982h4.50195v2.69092a7.50933,7.50933,0,0,1,8.97071-2.52734,4.9281,4.9281,0,0,1,2.00976,1.4751,5.367,5.367,0,0,1,.94922,2.03564,15.18143,15.18143,0,0,1,.2666,3.26025Z" transform="translate(-2378.33333 -102.30085)" style="fill:#7a923c"/><path d="M2684.88477,258.84766l5.53808.67285a1.89055,1.89055,0,0,0,.6377,1.32812,3.64709,3.64709,0,0,0,2.17383.51758,5.6411,5.6411,0,0,0,2.84667-.56933,2.34953,2.34953,0,0,0,.96583-1.22461,7.3632,7.3632,0,0,0,.2246-2.22559v-2.67383a6.55845,6.55845,0,0,1-5.48632,2.96729,6.752,6.752,0,0,1-5.84766-3.12256,10.61344,10.61344,0,0,1-1.69043-6.14112q0-4.6062,2.2168-7.03857a7.15329,7.15329,0,0,1,5.51172-2.43213,6.71187,6.71187,0,0,1,5.60644,2.98438v-2.57032h4.53711v16.44a16.38227,16.38227,0,0,1-.53516,4.84765,6.0225,6.0225,0,0,1-1.5,2.51856,6.64021,6.64021,0,0,1-2.58007,1.43164,13.57136,13.57136,0,0,1-4.08008.51758q-4.65674,0-6.60645-1.59571a5.00546,5.00546,0,0,1-1.94922-4.04541C2684.86816,259.273,2684.87305,259.07764,2684.88477,258.84766Zm4.33007-10.74707a6.60319,6.60319,0,0,0,1.13086,4.26953,3.49044,3.49044,0,0,0,2.78516,1.354,3.85175,3.85175,0,0,0,3.00195-1.38867,6.053,6.053,0,0,0,1.22461-4.11426,6.41547,6.41547,0,0,0-1.17285-4.22656,3.72742,3.72742,0,0,0-2.96777-1.37988,3.57476,3.57476,0,0,0-2.8711,1.354A6.34772,6.34772,0,0,0,2689.21484,248.10059Z" transform="translate(-2378.33333 -102.30085)" style="fill:#7a923c"/><path d="M2708.8125,251.11914l-1.25977-12.83447V232.3501h5.24415v5.93457l-1.24219,12.83447Zm-1.05273,6.521v-4.84766h4.84765v4.84766Z" transform="translate(-2378.33333 -102.30085)" style="fill:#7a923c"/><path d="M2394.02246,151.87305a32.82027,32.82027,0,0,0,4.86914,1.65527,20.2495,20.2495,0,0,0,4.333.73047q1.80028.09814,2.14258-.48633.438-.58447-1.65528-1.99707-2.24121-1.55713-4.38281-3.2373-2.14307-1.68018-4.23535-3.57911a9.21029,9.21029,0,0,1-3.06738-9.00781q1.02246-5.30566,5.1123-6.23242a18.04175,18.04175,0,0,1,8.959.34082,38.45139,38.45139,0,0,1,9.251,3.89551,29.15388,29.15388,0,0,1,6.13477,4.38183l-4.57715,7.10938a6.91048,6.91048,0,0,0-1.41211-1.04688q-.876-.51123-2.1416-1.14453a26.19544,26.19544,0,0,0-4.43164-1.65527q-1.89844-.438-2.23926.19434-.29151.58446,3.01856,3.31152a78.7352,78.7352,0,0,0,7.06054,5.16113q2.48292,1.55859,3.26172,6.08594a6.32962,6.32962,0,0,1-2.4834,6.57324,17.8372,17.8372,0,0,1-7.98437,3.21387,31.17346,31.17346,0,0,1-10.12793,0,21.18394,21.18394,0,0,1-8.8125-3.165Z" transform="translate(-2378.33333 -102.30085)" style="fill:#d86600"/><path d="M2450.59961,129.23242l11.39355,33.10938-12.07519,4.1875-2.38574-7.30371h-9.34864l-2.1914,7.15722L2424.1123,160.832l12.12305-30.6748Zm-3.99316,22.34863-3.55372-8.61816-3.65234,8.47168Z" transform="translate(-2378.33333 -102.30085)" style="fill:#d86600"/><path d="M2468.0791,129.23242l11.68555.97363,9.5918,17.042-1.65528-16.21387h11.14942l.73046,32.13477-13,3.36035-9.59179-19.2334-.82813,17.72363-11.14941-2.62891,3.06738-32.52539Z" transform="translate(-2378.33333 -102.30085)" style="fill:#d86600"/><path d="M2502.69727,131.13086l33.54687-1.89844.585,16.84668-12.80566-.68164,3.84668,21.13184-16.458-1.75293,2.82422-18.98926-11.83106.34082Z" transform="translate(-2378.33333 -102.30085)" style="fill:#d86600"/><path d="M2566.18848,129.23242,2577.582,162.3418l-12.07519,4.1875-2.38575-7.30371h-9.34863l-2.19141,7.15722-11.87988-5.55078,12.12305-30.6748Zm-3.99317,22.34863-3.55371-8.61816-3.65234,8.47168Z" transform="translate(-2378.33333 -102.30085)" style="fill:#d86600"/><path d="M2637.61523,139.165q-9.4951-1.60693-13.77929,2.09375-4.28467,3.65186-3.79785,7.79.48631,4.13964,5.50195,6.33008,5.01416,2.1914,14.21777-2.43457l5.06348,10.22461a24.04463,24.04463,0,0,1-10.85742,3.26269,35.32263,35.32263,0,0,1-12.31934-1.16894,26.28846,26.28846,0,0,1-10.22461-5.45313,12.88255,12.88255,0,0,1-4.47949-9.5918,16.3515,16.3515,0,0,1,3.165-10.80957,24.059,24.059,0,0,1,8.56933-7.25488,27.03635,27.03635,0,0,1,11.10157-2.87207,20.09852,20.09852,0,0,1,10.61425,2.19043Z" transform="translate(-2378.33333 -102.30085)" style="fill:#d86600"/><path d="M2661.81445,129.18359l1.55762,28.0459,12.416-1.7041.292,9.34766-24.2959,1.65625-3.94434-36.90723Z" transform="translate(-2378.33333 -102.30085)" style="fill:#d86600"/><path d="M2705.05078,129.23242l11.39356,33.10938-12.0752,4.1875-2.38574-7.30371h-9.34863l-2.19141,7.15722-11.87988-5.55078,12.123-30.6748Zm-3.99316,22.34863-3.55371-8.61816-3.65235,8.47168Z" transform="translate(-2378.33333 -102.30085)" style="fill:#d86600"/><path d="M2736.21191,133.27344q-.24462.68262-.63281,1.82617-.39111,1.144-.9248,2.751a30.2325,30.2325,0,0,0-1.31543,6.57324,11.84121,11.84121,0,0,0,.77929,5.94043q1.11915,2.58105,4.918,2.48242a4.30519,4.30519,0,0,0,3.89453-1.7041,8.50846,8.50846,0,0,0,1.36426-4.23535,21.01052,21.01052,0,0,0-.19531-5.30762l-.68164-5.01465,10.37109-1.99707q.58448,1.85157,1.24121,4.11426.65772,2.26464,1.33887,5.04a24.90071,24.90071,0,0,1,.63379,10.56543,14.11745,14.11745,0,0,1-5.01563,8.71582q-4.188,3.60351-14.16894,3.50586-9.5918,0-13.53516-4.52832a18.41354,18.41354,0,0,1-4.6748-10.56641,34.86943,34.86943,0,0,1,.82812-12.36719,96.03683,96.03683,0,0,1,2.77539-9.835Z" transform="translate(-2378.33333 -102.30085)" style="fill:#d86600"/><path d="M2764.25684,151.87305a32.85855,32.85855,0,0,0,4.86914,1.65527,20.25682,20.25682,0,0,0,4.334.73047q1.8003.09814,2.1416-.48633.438-.58447-1.65527-1.99707-2.23975-1.55713-4.38184-3.2373-2.14306-1.68018-4.23633-3.57911a9.21029,9.21029,0,0,1-3.06738-9.00781q1.02246-5.30566,5.11231-6.23242a18.0414,18.0414,0,0,1,8.959.34082,38.435,38.435,0,0,1,9.251,3.89551,29.10037,29.10037,0,0,1,6.13476,4.38183l-4.57617,7.10938a6.93752,6.93752,0,0,0-1.41211-1.04688q-.876-.51123-2.14258-1.14453a26.18757,26.18757,0,0,0-4.43066-1.65527q-1.89844-.438-2.24023.19434-.29151.58446,3.01953,3.31152a78.74986,78.74986,0,0,0,7.05957,5.16113q2.4829,1.55859,3.26269,6.08594a6.33132,6.33132,0,0,1-2.4834,6.57324,17.84118,17.84118,0,0,1-7.98535,3.21387,31.16757,31.16757,0,0,1-10.12695,0,21.18844,21.18844,0,0,1-8.81348-3.165Z" transform="translate(-2378.33333 -102.30085)" style="fill:#d86600"/></svg>