<svg id="08cbaccc-f488-4844-83a8-99e8226ffa6c" data-name="ПЕРЕВОД_не фанерные объекты_клик" xmlns="http://www.w3.org/2000/svg" viewBox="0 0 491.31891 871.53877"><title>sveza_ny_game-curves-узкая версия-eng-с украшенной желтой стеной</title><rect x="10.21518" y="10.24365" width="481.10373" height="861.29512" rx="12" ry="12" style="fill:#3a301f"/><rect width="481.10373" height="861.29512" rx="12" ry="12" style="fill:#fff"/><path d="M774.00684,1654.97852v-25.29h8.19433a29.81767,29.81767,0,0,1,6.07227.3789,6.63325,6.63325,0,0,1,3.63965,2.47559,7.85364,7.85364,0,0,1,1.46679,4.92578,8.25306,8.25306,0,0,1-.8457,3.916,6.93391,6.93391,0,0,1-2.14746,2.49218,7.39105,7.39105,0,0,1-2.64844,1.19922,29.17178,29.17178,0,0,1-5.2959.36231h-3.3291v9.54Zm5.10644-21.01172v7.17578h2.79395a13.206,13.206,0,0,0,4.03711-.39649,3.35547,3.35547,0,0,0,1.5957-1.24218,3.40286,3.40286,0,0,0,.57812-1.9668,3.26662,3.26662,0,0,0-.81054-2.27637,3.537,3.537,0,0,0-2.05371-1.12207,24.67027,24.67027,0,0,0-3.67383-.17187Z" transform="translate(-751.82635 -1500.0918)" style="fill:#7a923c"/><path d="M797.53711,1654.97852v-25.29h4.84766v25.29Z" transform="translate(-751.82635 -1500.0918)" style="fill:#7a923c"/><path d="M805.05859,1636.6582h5.15821l4.38183,13.00684,4.27832-13.00684h5.01953l-6.46875,17.62989-1.15625,3.1914a13.10314,13.10314,0,0,1-1.21582,2.4502,5.33078,5.33078,0,0,1-1.32812,1.37109,5.82066,5.82066,0,0,1-1.8457.81934,9.59735,9.59735,0,0,1-2.47559.293,12.85357,12.85357,0,0,1-2.74316-.293l-.43164-3.79492a10.73308,10.73308,0,0,0,2.05273.22363,3.04422,3.04422,0,0,0,2.50195-.99121,6.90806,6.90806,0,0,0,1.24219-2.52735Z" transform="translate(-751.82635 -1500.0918)" style="fill:#7a923c"/><path d="M830.418,1654.97852l-5.79688-18.32032h4.71l3.43262,12.00586,3.15723-12.00586h4.6748l3.05371,12.00586,3.502-12.00586h4.77832l-5.88281,18.32032h-4.65723l-3.15723-11.78223-3.10547,11.78223Z" transform="translate(-751.82635 -1500.0918)" style="fill:#7a923c"/><path d="M853.36133,1645.55957a9.92015,9.92015,0,0,1,1.19043-4.67578,8.17854,8.17854,0,0,1,3.373-3.4502,10.01161,10.01161,0,0,1,4.87305-1.18945,9.14816,9.14816,0,0,1,6.81445,2.69922,9.33,9.33,0,0,1,2.65625,6.82324,9.44073,9.44073,0,0,1-2.68261,6.8916,9.06413,9.06413,0,0,1-6.75391,2.73438,10.63928,10.63928,0,0,1-4.80371-1.13867,7.81158,7.81158,0,0,1-3.47656-3.33789A11.13011,11.13011,0,0,1,853.36133,1645.55957Zm4.96875.25879a6.0672,6.0672,0,0,0,1.29394,4.1748,4.23079,4.23079,0,0,0,6.374,0,6.15717,6.15717,0,0,0,1.28515-4.21,6.041,6.041,0,0,0-1.28515-4.13965,4.22895,4.22895,0,0,0-6.374,0A6.06556,6.06556,0,0,0,858.33008,1645.81836Z" transform="translate(-751.82635 -1500.0918)" style="fill:#7a923c"/><path d="M874.94238,1645.55957a9.92015,9.92015,0,0,1,1.19043-4.67578,8.17857,8.17857,0,0,1,3.37305-3.4502,10.01155,10.01155,0,0,1,4.87305-1.18945,9.14817,9.14817,0,0,1,6.81445,2.69922,9.33,9.33,0,0,1,2.65625,6.82324,9.4407,9.4407,0,0,1-2.68262,6.8916,9.06411,9.06411,0,0,1-6.7539,2.73438,10.63925,10.63925,0,0,1-4.80371-1.13867,7.8116,7.8116,0,0,1-3.47657-3.33789A11.13011,11.13011,0,0,1,874.94238,1645.55957Zm4.96875.25879a6.0672,6.0672,0,0,0,1.29395,4.1748,4.23078,4.23078,0,0,0,6.374,0,6.15712,6.15712,0,0,0,1.28516-4.21,6.04094,6.04094,0,0,0-1.28516-4.13965,4.22893,4.22893,0,0,0-6.374,0A6.06557,6.06557,0,0,0,879.91113,1645.81836Z" transform="translate(-751.82635 -1500.0918)" style="fill:#7a923c"/><path d="M914.44727,1654.97852h-4.502v-2.69141a7.27911,7.27911,0,0,1-2.64843,2.33789,6.80532,6.80532,0,0,1-3.07911.76758,6.97905,6.97905,0,0,1-5.4082-2.54492,10.34941,10.34941,0,0,1-2.251-7.09864q0-4.6582,2.19043-7.082a7.14481,7.14481,0,0,1,5.53809-2.42285,6.85743,6.85743,0,0,1,5.3125,2.55274v-9.1084h4.84766Zm-12.93848-9.55762a8.382,8.382,0,0,0,.81152,4.24414,3.66044,3.66044,0,0,0,3.27735,1.89746,3.57022,3.57022,0,0,0,2.84668-1.42285,6.56911,6.56911,0,0,0,1.17285-4.25293,7.18876,7.18876,0,0,0-1.13867-4.54492,3.60183,3.60183,0,0,0-2.915-1.38868,3.6423,3.6423,0,0,0-2.88965,1.3711A6.1958,6.1958,0,0,0,901.50879,1645.4209Z" transform="translate(-751.82635 -1500.0918)" style="fill:#7a923c"/><path d="M929.042,1634.17383v-4.48535h4.84766v4.48535Zm0,20.80469V1636.6582h4.84766v18.32032Z" transform="translate(-751.82635 -1500.0918)" style="fill:#7a923c"/><path d="M937.15039,1649.751l4.86426-.74121a3.56363,3.56363,0,0,0,1.25976,2.14746,4.2496,4.2496,0,0,0,2.65625.73339,4.79608,4.79608,0,0,0,2.82911-.69042,1.53862,1.53862,0,0,0,.63867-1.29395,1.27347,1.27347,0,0,0-.34473-.91406,3.88451,3.88451,0,0,0-1.62207-.63867q-5.86524-1.29346-7.43555-2.36329a4.72,4.72,0,0,1-2.17285-4.123,5.07949,5.07949,0,0,1,1.87988-4.002q1.88086-1.62157,5.83106-1.62109a10.17178,10.17178,0,0,1,5.58887,1.22461,6.2621,6.2621,0,0,1,2.51855,3.62207l-4.57129.8457a2.82458,2.82458,0,0,0-1.1123-1.63867,4.06935,4.06935,0,0,0-2.33789-.56933,5.27009,5.27009,0,0,0-2.74317.53515,1.14652,1.14652,0,0,0-.55175.98242,1.07,1.07,0,0,0,.48339.87989,18.17427,18.17427,0,0,0,4.52832,1.36328,13.47735,13.47735,0,0,1,5.40821,2.15625,4.48219,4.48219,0,0,1,1.51758,3.60547,5.53305,5.53305,0,0,1-2.1045,4.33007q-2.105,1.81056-6.22754,1.81153a10.21582,10.21582,0,0,1-5.92578-1.51856A6.98819,6.98819,0,0,1,937.15039,1649.751Z" transform="translate(-751.82635 -1500.0918)" style="fill:#7a923c"/><path d="M971.94531,1642.24707l-4.39843-.79395a6.846,6.846,0,0,1,2.55273-3.93261,9.33994,9.33994,0,0,1,5.38184-1.27637,11.60637,11.60637,0,0,1,4.831.76758,4.81291,4.81291,0,0,1,2.23342,1.94922,9.98823,9.98823,0,0,1,.64746,4.33886l-.05176,5.65821a19.63972,19.63972,0,0,0,.23242,3.56152,10.37843,10.37843,0,0,0,.8711,2.459h-4.7959q-.189-.4834-.46582-1.43164-.12012-.43214-.17188-.56934a8.739,8.739,0,0,1-2.65722,1.81055,7.59236,7.59236,0,0,1-3.01856.60449,6.24137,6.24137,0,0,1-4.459-1.53516,5.10507,5.10507,0,0,1-1.63086-3.88183,5.20349,5.20349,0,0,1,.74219-2.76856,4.83581,4.83581,0,0,1,2.0791-1.86328,16.221,16.221,0,0,1,3.85547-1.12988,26.40936,26.40936,0,0,0,4.709-1.19043v-.4834a2.51219,2.51219,0,0,0-.68945-1.99219,4.14151,4.14151,0,0,0-2.60547-.59473,3.46666,3.46666,0,0,0-2.01856.50879A3.5382,3.5382,0,0,0,971.94531,1642.24707Zm6.48633,3.93359a30.214,30.214,0,0,1-2.95019.74122,8.89169,8.89169,0,0,0-2.63868.8457,2.021,2.021,0,0,0-.94922,1.708,2.37554,2.37554,0,0,0,.75879,1.75879,2.65011,2.65011,0,0,0,1.93262.74218,4.19435,4.19435,0,0,0,2.501-.8623,3.0393,3.0393,0,0,0,1.15625-1.60449,9.60609,9.60609,0,0,0,.18945-2.36329Z" transform="translate(-751.82635 -1500.0918)" style="fill:#7a923c"/><path d="M1014.45215,1654.97852h-4.84766v-9.35059a14.4501,14.4501,0,0,0-.31054-3.83789,2.692,2.692,0,0,0-1.00879-1.35449,2.88987,2.88987,0,0,0-1.68262-.48243,3.888,3.888,0,0,0-2.25977.68946,3.47346,3.47346,0,0,0-1.37109,1.8291,15.76729,15.76729,0,0,0-.37109,4.209v8.29786h-4.84766V1636.6582h4.50293v2.69043a7.51145,7.51145,0,0,1,8.9707-2.52734,4.92445,4.92445,0,0,1,2.00977,1.47559,5.34844,5.34844,0,0,1,.94824,2.03515,15.10831,15.10831,0,0,1,.26758,3.26074Z" transform="translate(-751.82635 -1500.0918)" style="fill:#7a923c"/><path d="M1018.24707,1645.55957a9.92015,9.92015,0,0,1,1.19043-4.67578,8.17857,8.17857,0,0,1,3.37305-3.4502,10.01154,10.01154,0,0,1,4.873-1.18945,9.1482,9.1482,0,0,1,6.81446,2.69922,9.33,9.33,0,0,1,2.65625,6.82324,9.4407,9.4407,0,0,1-2.68262,6.8916,9.06413,9.06413,0,0,1-6.75391,2.73438,10.63928,10.63928,0,0,1-4.80371-1.13867,7.81163,7.81163,0,0,1-3.47656-3.33789A11.13011,11.13011,0,0,1,1018.24707,1645.55957Zm4.96875.25879a6.06715,6.06715,0,0,0,1.29395,4.1748,4.23078,4.23078,0,0,0,6.374,0,6.15717,6.15717,0,0,0,1.28516-4.21,6.041,6.041,0,0,0-1.28516-4.13965,4.22893,4.22893,0,0,0-6.374,0A6.06552,6.06552,0,0,0,1023.21582,1645.81836Z" transform="translate(-751.82635 -1500.0918)" style="fill:#7a923c"/><path d="M1040.39746,1648.2334v-4.84766h9.52246v4.84766Z" transform="translate(-751.82635 -1500.0918)" style="fill:#7a923c"/><path d="M1051.00684,1649.751l4.86523-.74121a3.56258,3.56258,0,0,0,1.25879,2.14746,4.25456,4.25456,0,0,0,2.65723.73339,4.7981,4.7981,0,0,0,2.8291-.69042,1.54026,1.54026,0,0,0,.63769-1.29395,1.27346,1.27346,0,0,0-.34472-.91406,3.87863,3.87863,0,0,0-1.6211-.63867q-5.86669-1.29346-7.43554-2.36329a4.71874,4.71874,0,0,1-2.17383-4.123,5.08042,5.08042,0,0,1,1.88086-4.002q1.8794-1.62157,5.83007-1.62109a10.17553,10.17553,0,0,1,5.58985,1.22461,6.2621,6.2621,0,0,1,2.51855,3.62207l-4.57129.8457a2.82589,2.82589,0,0,0-1.11328-1.63867,4.06375,4.06375,0,0,0-2.33691-.56933,5.26524,5.26524,0,0,0-2.74316.53515,1.14651,1.14651,0,0,0-.55176.98242,1.06889,1.06889,0,0,0,.48242.87989,18.19009,18.19009,0,0,0,4.52832,1.36328,13.47735,13.47735,0,0,1,5.4082,2.15625,4.48286,4.48286,0,0,1,1.51856,3.60547,5.536,5.536,0,0,1-2.1045,4.33007q-2.105,1.81056-6.22753,1.81153a10.21162,10.21162,0,0,1-5.92579-1.51856A6.9897,6.9897,0,0,1,1051.00684,1649.751Z" transform="translate(-751.82635 -1500.0918)" style="fill:#7a923c"/><path d="M1089.02832,1654.97852h-4.84766v-9.35059a14.4501,14.4501,0,0,0-.31054-3.83789,2.692,2.692,0,0,0-1.00879-1.35449,2.88987,2.88987,0,0,0-1.68262-.48243,3.888,3.888,0,0,0-2.25976.68946,3.47342,3.47342,0,0,0-1.3711,1.8291,15.76729,15.76729,0,0,0-.37109,4.209v8.29786h-4.84766V1636.6582h4.50293v2.69043a7.51145,7.51145,0,0,1,8.9707-2.52734,4.92445,4.92445,0,0,1,2.00977,1.47559,5.34844,5.34844,0,0,1,.94824,2.03515,15.10831,15.10831,0,0,1,.26758,3.26074Z" transform="translate(-751.82635 -1500.0918)" style="fill:#7a923c"/><path d="M1092.82324,1645.55957a9.92015,9.92015,0,0,1,1.19043-4.67578,8.17857,8.17857,0,0,1,3.373-3.4502,10.01155,10.01155,0,0,1,4.873-1.18945,9.14819,9.14819,0,0,1,6.81445,2.69922,9.33,9.33,0,0,1,2.65625,6.82324,9.4407,9.4407,0,0,1-2.68262,6.8916,9.06411,9.06411,0,0,1-6.7539,2.73438,10.63929,10.63929,0,0,1-4.80372-1.13867,7.81163,7.81163,0,0,1-3.47656-3.33789A11.13011,11.13011,0,0,1,1092.82324,1645.55957Zm4.96875.25879a6.0672,6.0672,0,0,0,1.29395,4.1748,4.23078,4.23078,0,0,0,6.374,0,6.15712,6.15712,0,0,0,1.28516-4.21,6.04094,6.04094,0,0,0-1.28516-4.13965,4.22893,4.22893,0,0,0-6.374,0A6.06557,6.06557,0,0,0,1097.792,1645.81836Z" transform="translate(-751.82635 -1500.0918)" style="fill:#7a923c"/><path d="M1118.94141,1654.97852l-5.7959-18.32032h4.709l3.4336,12.00586,3.15625-12.00586h4.67578l3.05273,12.00586,3.502-12.00586h4.77832l-5.88183,18.32032h-4.6582l-3.15723-11.78223-3.10449,11.78223Z" transform="translate(-751.82635 -1500.0918)" style="fill:#7a923c"/><path d="M1141.69629,1654.97852v-4.84766h4.84668v4.84766Z" transform="translate(-751.82635 -1500.0918)" style="fill:#7a923c"/><path d="M1151.51172,1654.97852v-4.84766h4.84766v4.84766Z" transform="translate(-751.82635 -1500.0918)" style="fill:#7a923c"/><path d="M1181.75293,1649.14746l4.83008.81055a7.92327,7.92327,0,0,1-2.94141,4.0459,8.6395,8.6395,0,0,1-5.02832,1.38867q-4.77832,0-7.07324-3.123a10.49048,10.49048,0,0,1-1.81152-6.31348,10.11879,10.11879,0,0,1,2.38086-7.13378,7.84085,7.84085,0,0,1,6.0205-2.57813,8.13352,8.13352,0,0,1,6.45215,2.69922q2.3628,2.6997,2.25977,8.27148h-12.14453a4.903,4.903,0,0,0,1.17285,3.35547,3.66935,3.66935,0,0,0,2.79492,1.19922,2.969,2.969,0,0,0,1.915-.62109A3.836,3.836,0,0,0,1181.75293,1649.14746Zm.27637-4.89941a4.67353,4.67353,0,0,0-1.08692-3.2002,3.49929,3.49929,0,0,0-5.14062.06055,4.47032,4.47032,0,0,0-1.01856,3.13965Z" transform="translate(-751.82635 -1500.0918)" style="fill:#7a923c"/><path d="M1195.43262,1654.97852h-4.84668V1636.6582h4.502v2.6045a7.83976,7.83976,0,0,1,2.0791-2.43262,3.82543,3.82543,0,0,1,2.09571-.58594,6.15228,6.15228,0,0,1,3.1914.91406l-1.501,4.22657a4.2507,4.2507,0,0,0-2.27734-.79395,2.69326,2.69326,0,0,0-1.72461.56055,3.82877,3.82877,0,0,0-1.1123,2.02734,28.75852,28.75852,0,0,0-.40625,6.1416Z" transform="translate(-751.82635 -1500.0918)" style="fill:#7a923c"/><path d="M1202.59277,1654.97852v-4.84766h4.84668v4.84766Z" transform="translate(-751.82635 -1500.0918)" style="fill:#7a923c"/><path d="M1212.4082,1654.97852v-4.84766h4.84766v4.84766Z" transform="translate(-751.82635 -1500.0918)" style="fill:#7a923c"/><path d="M797.58887,1684.64258l-4.39844-.793a6.84858,6.84858,0,0,1,2.55273-3.93359,9.34756,9.34756,0,0,1,5.38184-1.27637,11.60651,11.60651,0,0,1,4.83105.76758,4.81824,4.81824,0,0,1,2.2334,1.94922,9.99117,9.99117,0,0,1,.64746,4.33886l-.05175,5.65821a19.65126,19.65126,0,0,0,.23242,3.5625,10.38676,10.38676,0,0,0,.87109,2.458h-4.7959q-.189-.48193-.46582-1.43164-.1201-.43066-.17187-.56933a8.72526,8.72526,0,0,1-2.65723,1.81152,7.60865,7.60865,0,0,1-3.01855.60352,6.24141,6.24141,0,0,1-4.459-1.53516,5.10365,5.10365,0,0,1-1.63086-3.88184,5.20348,5.20348,0,0,1,.74219-2.76855,4.84806,4.84806,0,0,1,2.0791-1.86328,16.26686,16.26686,0,0,1,3.85547-1.12988,26.32355,26.32355,0,0,0,4.709-1.19043v-.48243a2.51582,2.51582,0,0,0-.68946-1.99316,4.14151,4.14151,0,0,0-2.60547-.59473,3.474,3.474,0,0,0-2.01855.50879A3.54261,3.54261,0,0,0,797.58887,1684.64258Zm6.48633,3.93359q-.93165.31055-2.9502.74219a8.89923,8.89923,0,0,0-2.63867.84473,2.02339,2.02339,0,0,0-.94922,1.708,2.37763,2.37763,0,0,0,.75879,1.75977,2.654,2.654,0,0,0,1.93262.74219,4.19556,4.19556,0,0,0,2.501-.86328,3.03559,3.03559,0,0,0,1.15625-1.6045,9.59986,9.59986,0,0,0,.18946-2.36328Z" transform="translate(-751.82635 -1500.0918)" style="fill:#7a923c"/><path d="M840.0957,1697.374h-4.84765v-9.34961a14.45271,14.45271,0,0,0-.31057-3.83886,2.68932,2.68932,0,0,0-1.00877-1.35352,2.88331,2.88331,0,0,0-1.68262-.4834,3.88884,3.88884,0,0,0-2.25976.69043,3.47493,3.47493,0,0,0-1.3711,1.82813,15.76773,15.76773,0,0,0-.37109,4.209v8.29785h-4.84766v-18.32031h4.50293v2.69141a7.50723,7.50723,0,0,1,8.97071-2.52735,4.9319,4.9319,0,0,1,2.00976,1.47461,5.35283,5.35283,0,0,1,.94824,2.03614,15.1036,15.1036,0,0,1,.26758,3.25976Z" transform="translate(-751.82635 -1500.0918)" style="fill:#7a923c"/><path d="M843.89062,1687.95508a9.9194,9.9194,0,0,1,1.19043-4.67481,8.173,8.173,0,0,1,3.37305-3.45019,10.00135,10.00135,0,0,1,4.873-1.19043,9.14894,9.14894,0,0,1,6.81445,2.70019,9.3293,9.3293,0,0,1,2.65625,6.82227,9.43915,9.43915,0,0,1-2.68262,6.8916,9.06414,9.06414,0,0,1-6.7539,2.73438,10.62652,10.62652,0,0,1-4.80371-1.13868,7.80645,7.80645,0,0,1-3.47657-3.33789A11.1275,11.1275,0,0,1,843.89062,1687.95508Zm4.96876.25879a6.06552,6.06552,0,0,0,1.29394,4.1748,4.22892,4.22892,0,0,0,6.374,0,6.15439,6.15439,0,0,0,1.28514-4.209,6.04362,6.04362,0,0,0-1.28514-4.14063,4.22892,4.22892,0,0,0-6.374,0A6.06722,6.06722,0,0,0,848.85938,1688.21387Z" transform="translate(-751.82635 -1500.0918)" style="fill:#7a923c"/><path d="M866.041,1690.62891v-4.84766h9.52246v4.84766Z" transform="translate(-751.82635 -1500.0918)" style="fill:#7a923c"/><path d="M876.65039,1692.14746l4.86523-.74219a3.55977,3.55977,0,0,0,1.25879,2.14746,4.25454,4.25454,0,0,0,2.65723.7334,4.79852,4.79852,0,0,0,2.8291-.68945,1.54272,1.54272,0,0,0,.6377-1.29395,1.2774,1.2774,0,0,0-.34473-.915,3.8678,3.8678,0,0,0-1.62109-.6377q-5.86671-1.29345-7.43555-2.36328a4.71989,4.71989,0,0,1-2.17383-4.123,5.08043,5.08043,0,0,1,1.88086-4.002q1.8794-1.62159,5.83008-1.62207a10.17549,10.17549,0,0,1,5.58984,1.22461,6.26444,6.26444,0,0,1,2.51856,3.623l-4.57129.84571a2.82831,2.82831,0,0,0-1.11328-1.63965,4.07137,4.07137,0,0,0-2.33692-.56934,5.26515,5.26515,0,0,0-2.74316.53516,1.1481,1.1481,0,0,0-.55176.9834,1.07019,1.07019,0,0,0,.48242.87988,18.162,18.162,0,0,0,4.52832,1.36231,13.49154,13.49154,0,0,1,5.40821,2.15625,4.48419,4.48419,0,0,1,1.51855,3.60546,5.53466,5.53466,0,0,1-2.10449,4.33008q-2.105,1.812-6.22754,1.81153a10.21908,10.21908,0,0,1-5.92578-1.51758A6.99261,6.99261,0,0,1,876.65039,1692.14746Z" transform="translate(-751.82635 -1500.0918)" style="fill:#7a923c"/><path d="M902.83789,1672.084v9.29883a7.26255,7.26255,0,0,1,8.625-2.12207,4.941,4.941,0,0,1,2.02734,1.58692,5.7645,5.7645,0,0,1,.93165,2.13964,19.18677,19.18677,0,0,1,.25,3.63965V1697.374h-4.84766v-9.67773a14.30018,14.30018,0,0,0-.27637-3.65723,2.39686,2.39686,0,0,0-.97461-1.2334,3.13416,3.13416,0,0,0-1.751-.457,4.013,4.013,0,0,0-2.15625.58692,3.38084,3.38084,0,0,0-1.38868,1.76757,10.57113,10.57113,0,0,0-.43945,3.49317v9.17773h-4.84766v-25.29Z" transform="translate(-751.82635 -1500.0918)" style="fill:#7a923c"/><path d="M918.4668,1687.95508a9.91929,9.91929,0,0,1,1.19043-4.67481,8.173,8.173,0,0,1,3.373-3.45019,10.00141,10.00141,0,0,1,4.87305-1.19043,9.14894,9.14894,0,0,1,6.81445,2.70019,9.3293,9.3293,0,0,1,2.65625,6.82227,9.43918,9.43918,0,0,1-2.68261,6.8916,9.0642,9.0642,0,0,1-6.75393,2.73438,10.62653,10.62653,0,0,1-4.80369-1.13868,7.80642,7.80642,0,0,1-3.47656-3.33789A11.12739,11.12739,0,0,1,918.4668,1687.95508Zm4.96875.25879a6.06552,6.06552,0,0,0,1.29394,4.1748,4.22893,4.22893,0,0,0,6.374,0,6.15444,6.15444,0,0,0,1.28515-4.209,6.04367,6.04367,0,0,0-1.28515-4.14063,4.22893,4.22893,0,0,0-6.374,0A6.06722,6.06722,0,0,0,923.43555,1688.21387Z" transform="translate(-751.82635 -1500.0918)" style="fill:#7a923c"/><path d="M944.585,1697.374l-5.7959-18.32031h4.709l3.43359,12.00684,3.15625-12.00684h4.67578l3.05274,12.00684,3.50195-12.00684h4.77832l-5.88184,18.32031h-4.6582l-3.15723-11.78222-3.10449,11.78222Z" transform="translate(-751.82635 -1500.0918)" style="fill:#7a923c"/><path d="M970.54785,1690.85352l-1.25879-12.835V1672.084h5.24414v5.93457l-1.24218,12.835Zm-1.05176,6.5205v-4.84765h4.84668v4.84765Z" transform="translate(-751.82635 -1500.0918)" style="fill:#7a923c"/><path d="M990.335,1697.374v-25.29h5.10645v11.23047l10.3164-11.23047h6.86524l-9.52246,9.85059,10.04,15.43945h-6.60742l-6.95215-11.86816-4.13964,4.22656v7.6416Z" transform="translate(-751.82635 -1500.0918)" style="fill:#7a923c"/><path d="M1026.35449,1691.543l4.83106.81152a7.92468,7.92468,0,0,1-2.94141,4.04492,8.64264,8.64264,0,0,1-5.0293,1.38868q-4.77831,0-7.07226-3.12207a10.489,10.489,0,0,1-1.81153-6.31446,10.11632,10.11632,0,0,1,2.38086-7.13281,7.84171,7.84171,0,0,1,6.02051-2.5791,8.13423,8.13423,0,0,1,6.45215,2.70019q2.3628,2.69971,2.25977,8.27149h-12.14551a4.907,4.907,0,0,0,1.17383,3.35547,3.66586,3.66586,0,0,0,2.79394,1.19922,2.96717,2.96717,0,0,0,1.915-.6211A3.83514,3.83514,0,0,0,1026.35449,1691.543Zm.27637-4.89844a4.664,4.664,0,0,0-1.08691-3.20019,3.33328,3.33328,0,0,0-2.51856-1.09571,3.367,3.367,0,0,0-2.62207,1.15625,4.46832,4.46832,0,0,0-1.01758,3.13965Z" transform="translate(-751.82635 -1500.0918)" style="fill:#7a923c"/><path d="M1046.00391,1691.543l4.83007.81152a7.92461,7.92461,0,0,1-2.9414,4.04492,8.63947,8.63947,0,0,1-5.02832,1.38868q-4.77833,0-7.07324-3.12207a10.49556,10.49556,0,0,1-1.81153-6.31446,10.11632,10.11632,0,0,1,2.38086-7.13281,7.84171,7.84171,0,0,1,6.02051-2.5791,8.13423,8.13423,0,0,1,6.45215,2.70019q2.36279,2.69971,2.25976,8.27149h-12.14453a4.90661,4.90661,0,0,0,1.17285,3.35547,3.66942,3.66942,0,0,0,2.79493,1.19922,2.969,2.969,0,0,0,1.915-.6211A3.83515,3.83515,0,0,0,1046.00391,1691.543Zm.27636-4.89844a4.67348,4.67348,0,0,0-1.08691-3.20019,3.49725,3.49725,0,0,0-5.14063.06054,4.46871,4.46871,0,0,0-1.01855,3.13965Z" transform="translate(-751.82635 -1500.0918)" style="fill:#7a923c"/><path d="M1054.90527,1679.05371h4.51953v2.69141a6.776,6.776,0,0,1,2.38086-2.24317,6.57166,6.57166,0,0,1,3.33008-.8623,6.98549,6.98549,0,0,1,5.416,2.501,10.12228,10.12228,0,0,1,2.22558,6.96973q0,4.58936-2.24218,7.13379a6.98724,6.98724,0,0,1-5.43457,2.54395,6.17221,6.17221,0,0,1-2.751-.60352,9.26925,9.26925,0,0,1-2.59668-2.07031v9.22949h-4.84766Zm4.7959,8.84961a7.06006,7.06006,0,0,0,1.22461,4.56348,3.74874,3.74874,0,0,0,2.98438,1.47461,3.50344,3.50344,0,0,0,2.8125-1.3545,6.97857,6.97857,0,0,0,1.12109-4.44238,6.6189,6.6189,0,0,0-1.15625-4.27734,3.57433,3.57433,0,0,0-2.86328-1.39746,3.72036,3.72036,0,0,0-2.9502,1.37109A6.10313,6.10313,0,0,0,1059.70117,1687.90332Z" transform="translate(-751.82635 -1500.0918)" style="fill:#7a923c"/><path d="M1086.44043,1697.374v-25.29h4.84766v25.29Z" transform="translate(-751.82635 -1500.0918)" style="fill:#7a923c"/><path d="M1095.13477,1687.95508a9.91929,9.91929,0,0,1,1.19043-4.67481,8.17294,8.17294,0,0,1,3.373-3.45019,10.00135,10.00135,0,0,1,4.87305-1.19043,9.14894,9.14894,0,0,1,6.81445,2.70019,9.3293,9.3293,0,0,1,2.65625,6.82227,9.43918,9.43918,0,0,1-2.68261,6.8916,9.06418,9.06418,0,0,1-6.75391,2.73438,10.62656,10.62656,0,0,1-4.80371-1.13868,7.80637,7.80637,0,0,1-3.47656-3.33789A11.12739,11.12739,0,0,1,1095.13477,1687.95508Zm4.96875.25879a6.06552,6.06552,0,0,0,1.29394,4.1748,4.22892,4.22892,0,0,0,6.374,0,6.15439,6.15439,0,0,0,1.28516-4.209,6.04363,6.04363,0,0,0-1.28516-4.14063,4.22892,4.22892,0,0,0-6.374,0A6.06722,6.06722,0,0,0,1100.10352,1688.21387Z" transform="translate(-751.82635 -1500.0918)" style="fill:#7a923c"/><path d="M1116.71582,1687.95508a9.91929,9.91929,0,0,1,1.19043-4.67481,8.173,8.173,0,0,1,3.373-3.45019,10.00134,10.00134,0,0,1,4.873-1.19043,9.149,9.149,0,0,1,6.81446,2.70019,9.32934,9.32934,0,0,1,2.65625,6.82227,9.43915,9.43915,0,0,1-2.68262,6.8916,9.06417,9.06417,0,0,1-6.75391,2.73438,10.62656,10.62656,0,0,1-4.80371-1.13868,7.80647,7.80647,0,0,1-3.47656-3.33789A11.12739,11.12739,0,0,1,1116.71582,1687.95508Zm4.96875.25879a6.06547,6.06547,0,0,0,1.29395,4.1748,4.22892,4.22892,0,0,0,6.374,0,6.15444,6.15444,0,0,0,1.28516-4.209,6.04368,6.04368,0,0,0-1.28516-4.14063,4.22892,4.22892,0,0,0-6.374,0A6.06718,6.06718,0,0,0,1121.68457,1688.21387Z" transform="translate(-751.82635 -1500.0918)" style="fill:#7a923c"/><path d="M1139.24609,1697.374v-25.29h4.84766v13.42188l5.67578-6.45215h5.96875l-6.26269,6.69336,6.71093,11.627H1150.959l-4.60546-8.22851-2.25977,2.36328v5.86523Z" transform="translate(-751.82635 -1500.0918)" style="fill:#7a923c"/><path d="M1159.06738,1676.56934V1672.084h4.84766v4.48536Zm0,20.80468v-18.32031h4.84766V1697.374Z" transform="translate(-751.82635 -1500.0918)" style="fill:#7a923c"/><path d="M1185.54785,1697.374h-4.84765v-9.34961a14.45391,14.45391,0,0,0-.31055-3.83886,2.68946,2.68946,0,0,0-1.00879-1.35352,2.88331,2.88331,0,0,0-1.68262-.4834,3.88884,3.88884,0,0,0-2.25976.69043,3.47488,3.47488,0,0,0-1.3711,1.82813,15.76773,15.76773,0,0,0-.37109,4.209v8.29785h-4.84766v-18.32031h4.50293v2.69141a7.50723,7.50723,0,0,1,8.97071-2.52735,4.9319,4.9319,0,0,1,2.00976,1.47461,5.35283,5.35283,0,0,1,.94824,2.03614,15.10425,15.10425,0,0,1,.26758,3.25976Z" transform="translate(-751.82635 -1500.0918)" style="fill:#7a923c"/><path d="M1190.01562,1698.582l5.53809.67285a1.8916,1.8916,0,0,0,.6377,1.32813,3.64668,3.64668,0,0,0,2.17382.51758,5.6436,5.6436,0,0,0,2.84668-.56934,2.34943,2.34943,0,0,0,.96582-1.22461,7.36489,7.36489,0,0,0,.22461-2.22559v-2.67382a6.55921,6.55921,0,0,1-5.48632,2.96679,6.75152,6.75152,0,0,1-5.84766-3.12207,10.60663,10.60663,0,0,1-1.69043-6.1416q0-4.60546,2.2168-7.03808a7.15065,7.15065,0,0,1,5.51172-2.43262,6.71311,6.71311,0,0,1,5.60644,2.98437v-2.57031H1207.25v16.44043a16.38462,16.38462,0,0,1-.53516,4.84766,6.01676,6.01676,0,0,1-1.501,2.51855,6.64276,6.64276,0,0,1-2.5791,1.43164,13.58677,13.58677,0,0,1-4.08008.51758q-4.65674,0-6.60645-1.5957a5.0064,5.0064,0,0,1-1.94922-4.0459C1189.999,1699.00684,1190.00391,1698.81152,1190.01562,1698.582Zm4.33008-10.74707a6.61019,6.61019,0,0,0,1.12989,4.26953,3.49455,3.49455,0,0,0,2.78613,1.35352,3.85318,3.85318,0,0,0,3.002-1.38867,6.05306,6.05306,0,0,0,1.22461-4.11426,6.41635,6.41635,0,0,0-1.17285-4.22656,3.72875,3.72875,0,0,0-2.96777-1.37989,3.577,3.577,0,0,0-2.87207,1.35449A6.35265,6.35265,0,0,0,1194.3457,1687.835Z" transform="translate(-751.82635 -1500.0918)" style="fill:#7a923c"/><path d="M863.16162,1569.35156a30.05816,30.05816,0,0,0,4.45654,1.51465,18.49407,18.49407,0,0,0,3.96631.66895q1.648.08936,1.96045-.44629.40134-.53467-1.51513-1.82715-2.05005-1.4253-4.01075-2.96289-1.96142-1.53808-3.87695-3.27637a8.429,8.429,0,0,1-2.80762-8.24414q.93531-4.85742,4.6792-5.7041a16.50862,16.50862,0,0,1,8.19971.31152,35.18585,35.18585,0,0,1,8.46777,3.56543,26.68971,26.68971,0,0,1,5.61524,4.01074l-4.18946,6.50684a6.316,6.316,0,0,0-1.29248-.958q-.802-.46875-1.96045-1.04785a23.983,23.983,0,0,0-4.05566-1.51465q-1.738-.40137-2.0498.17774-.26735.53466,2.76269,3.03027a72.18354,72.18354,0,0,0,6.46191,4.72461q2.27345,1.42676,2.98584,5.57031a5.79471,5.79471,0,0,1-2.27246,6.0166,16.33006,16.33006,0,0,1-7.30859,2.94141,28.53779,28.53779,0,0,1-9.26953,0,19.39222,19.39222,0,0,1-8.06641-2.89746Z" transform="translate(-751.82635 -1500.0918)" style="fill:#d86600"/><path d="M893.50977,1548.62891l10.69531.89062,8.7793,15.59766-1.51514-14.83985H921.6748l.66846,29.41309-11.89892,3.07519-8.7793-17.60351-.75733,16.22168-10.20556-2.40625,2.80762-29.76953Z" transform="translate(-751.82635 -1500.0918)" style="fill:#d86600"/><path d="M959.46533,1567.21191q-.53466,7.84425-6.06054,11.72071a20.06856,20.06856,0,0,1-11.89893,3.833,18.75751,18.75751,0,0,1-11.54248-3.92187q-5.17017-3.832-5.03565-11.63184a16.72973,16.72973,0,0,1,1.916-7.62011,21.73224,21.73224,0,0,1,4.81348-5.92774,20.48815,20.48815,0,0,1,6.417-3.78808,17.496,17.496,0,0,1,6.90771-1.24707,16.73572,16.73572,0,0,1,4.189.93554,15.42235,15.42235,0,0,1,5.03613,2.94141,16.70661,16.70661,0,0,1,4.01074,5.65918A20.08514,20.08514,0,0,1,959.46533,1567.21191Zm-12.52246-3.96582a.74421.74421,0,0,0,.312-.22363,1.14676,1.14676,0,0,0,.26709-.2666,3.31042,3.31042,0,0,0,1.11426-2.45117,4.63072,4.63072,0,0,0-.75781-2.36231c-.05957-.05859-.1333-.126-.22266-.20019-.08887-.07422-.17822-.15625-.26709-.24512-.06006-.05957-.127-.126-.20068-.20117a1.7119,1.7119,0,0,0-.24512-.2002,6.10963,6.10963,0,0,0-2.31738-.8916,4.1185,4.1185,0,0,0-2.67383.40137,4.807,4.807,0,0,0-.98047.53515,8.85076,8.85076,0,0,0-.75781.53418,3.62621,3.62621,0,0,0-1.15869,2.62989,4.51372,4.51372,0,0,0,.936,2.49511,1.80131,1.80131,0,0,1,.15576.17872,1.55618,1.55618,0,0,0,.15625.17773,1.32848,1.32848,0,0,1,.17823.11133,1.94236,1.94236,0,0,1,.17822.15625,4.83608,4.83608,0,0,0,6.32812-.22266Z" transform="translate(-751.82635 -1500.0918)" style="fill:#d86600"/><path d="M975.77588,1549.51953l3.34228,15.41992,3.38672-10.8291,5.83789-.08984,2.36231,10.11621,3.16406-13.77051,13.63672-1.11426-9.8042,32.30957-9.09131,1.2041-3.60986-11.63183-3.47608,11.98828-9.13574-1.4707-9.8042-33.02246Z" transform="translate(-751.82635 -1500.0918)" style="fill:#d86600"/><path d="M1025.46533,1551.74805l5.34766,13.68164,3.43164-14.2168,10.96289-2.584,5.97168,30.48242-10.42822,3.65429-1.82715-19.07421-4.99121,17.96-5.65967.04394-5.83838-16.71191-.66846,17.24707-11.00732-1.69336,3.34228-30.92871Z" transform="translate(-751.82635 -1500.0918)" style="fill:#d86600"/><path d="M1078.49707,1548.62891l10.42822,30.30371-11.05175,3.833-2.18409-6.68554h-8.55615l-2.00537,6.55176-10.874-5.08106,11.09668-28.07519Zm-3.6543,20.45507-3.25293-7.88867-3.34277,7.75489Z" transform="translate(-751.82635 -1500.0918)" style="fill:#d86600"/><path d="M1094.49609,1548.62891l10.69532.89062,8.77929,15.59766-1.51513-14.83985h10.20556l.66846,29.41309-11.89893,3.07519-8.77929-17.60351-.75733,16.22168-10.20556-2.40625,2.80761-29.76953Z" transform="translate(-751.82635 -1500.0918)" style="fill:#d86600"/></svg>