<svg id="ff054795-341c-4337-b6b4-911e0c39b013" data-name="ПЕРЕВОД_не фанерные объекты_клик" xmlns="http://www.w3.org/2000/svg" viewBox="0 0 469.0832 424.0515"><title>sveza_ny_game-curves-узкая версия-eng-с украшенной желтой стеной</title><rect x="9.75287" y="4.9841" width="459.33033" height="419.0674" rx="12" ry="12" style="fill:#3a301f"/><rect width="459.33033" height="419.0674" rx="12" ry="12" style="fill:#fff"/><path d="M1324.51318,1804.40527v-4.26074h11.00635v10.07422a13.86322,13.86322,0,0,1-4.64941,2.73437,16.93419,16.93419,0,0,1-6.167,1.18165,13.83423,13.83423,0,0,1-6.91748-1.665,10.57876,10.57876,0,0,1-4.43359-4.76075,15.38752,15.38752,0,0,1-1.48389-6.7373,14.55653,14.55653,0,0,1,1.65625-7.02051,11.15551,11.15551,0,0,1,4.84766-4.71,13.08772,13.08772,0,0,1,6.05518-1.25879,12.08378,12.08378,0,0,1,7.35742,1.97461,8.92592,8.92592,0,0,1,3.40722,5.46l-5.07226.94922a5.35652,5.35652,0,0,0-2.00928-2.94141,6.07606,6.07606,0,0,0-3.6831-1.07812,6.91875,6.91875,0,0,0-5.32227,2.12207q-1.97534,2.12109-1.9751,6.2959,0,4.50292,2.001,6.7539a6.68179,6.68179,0,0,0,5.24463,2.252,8.79274,8.79274,0,0,0,3.21728-.62989,11.04106,11.04106,0,0,0,2.76856-1.52636v-3.209Z" transform="translate(-1304.40979 -1623.42513)" style="fill:#7a923c"/><path d="M1339.07324,1804.28418a9.91346,9.91346,0,0,1,1.19043-4.6748,8.16907,8.16907,0,0,1,3.37256-3.4502,10.00326,10.00326,0,0,1,4.87354-1.19043,9.14705,9.14705,0,0,1,6.814,2.7002,9.32768,9.32768,0,0,1,2.65674,6.82226,9.43913,9.43913,0,0,1-2.68262,6.8916,9.06567,9.06567,0,0,1-6.7539,2.73438,10.62716,10.62716,0,0,1-4.8042-1.13867,7.80533,7.80533,0,0,1-3.47608-3.3379A11.12176,11.12176,0,0,1,1339.07324,1804.28418Zm4.96826.25879a6.068,6.068,0,0,0,1.29395,4.1748,4.22892,4.22892,0,0,0,6.374,0,6.15191,6.15191,0,0,0,1.28516-4.209,6.04117,6.04117,0,0,0-1.28516-4.14063,4.22893,4.22893,0,0,0-6.374,0A6.06966,6.06966,0,0,0,1344.0415,1804.543Z" transform="translate(-1304.40979 -1623.42513)" style="fill:#7a923c"/><path d="M1360.6543,1804.28418a9.91346,9.91346,0,0,1,1.19043-4.6748,8.169,8.169,0,0,1,3.37256-3.4502,10.00324,10.00324,0,0,1,4.87353-1.19043,9.14707,9.14707,0,0,1,6.814,2.7002,9.32771,9.32771,0,0,1,2.65673,6.82226,9.43916,9.43916,0,0,1-2.68261,6.8916,9.06569,9.06569,0,0,1-6.75391,2.73438,10.62719,10.62719,0,0,1-4.8042-1.13867,7.80531,7.80531,0,0,1-3.47607-3.3379A11.12176,11.12176,0,0,1,1360.6543,1804.28418Zm4.96826.25879a6.068,6.068,0,0,0,1.29394,4.1748,4.22893,4.22893,0,0,0,6.374,0,6.152,6.152,0,0,0,1.28515-4.209,6.04122,6.04122,0,0,0-1.28515-4.14063,4.22895,4.22895,0,0,0-6.374,0A6.06966,6.06966,0,0,0,1365.62256,1804.543Z" transform="translate(-1304.40979 -1623.42513)" style="fill:#7a923c"/><path d="M1400.15918,1813.70312h-4.50244v-2.69042a7.28382,7.28382,0,0,1-2.64795,2.33691,6.79618,6.79618,0,0,1-3.07959.76758,6.978,6.978,0,0,1-5.4082-2.54395,10.35282,10.35282,0,0,1-2.251-7.09961q0-4.65674,2.19092-7.08105a7.1439,7.1439,0,0,1,5.5376-2.42383,6.86144,6.86144,0,0,1,5.313,2.55273v-9.10839h4.84766Zm-12.93848-9.55664a8.3838,8.3838,0,0,0,.811,4.24317,3.66263,3.66263,0,0,0,3.27783,1.89844,3.56751,3.56751,0,0,0,2.84619-1.42383,6.566,6.566,0,0,0,1.17334-4.252,7.19187,7.19187,0,0,0-1.13867-4.54589,3.6034,3.6034,0,0,0-2.91553-1.38868,3.6423,3.6423,0,0,0-2.88965,1.3711A6.19877,6.19877,0,0,0,1387.2207,1804.14648Z" transform="translate(-1304.40979 -1623.42513)" style="fill:#7a923c"/><path d="M1414.75391,1813.70312v-25.29h4.84716v25.29Z" transform="translate(-1304.40979 -1623.42513)" style="fill:#7a923c"/><path d="M1436.62793,1813.70312v-2.74218a7.05985,7.05985,0,0,1-2.63086,2.31152,7.38521,7.38521,0,0,1-3.44141.84473,6.731,6.731,0,0,1-3.312-.81055,4.783,4.783,0,0,1-2.12207-2.27734,10.16226,10.16226,0,0,1-.65527-4.05371v-11.59278h4.84717v8.41895a23.30494,23.30494,0,0,0,.26757,4.73535,2.58173,2.58173,0,0,0,.97461,1.37988,2.9979,2.9979,0,0,0,1.79395.50879,3.81671,3.81671,0,0,0,2.22559-.68164,3.4677,3.4677,0,0,0,1.3457-1.69043,19.63859,19.63859,0,0,0,.3623-4.94238v-7.72852h4.84717v18.32031Z" transform="translate(-1304.40979 -1623.42513)" style="fill:#7a923c"/><path d="M1462.125,1800.7998l-4.77832.86231a3.47011,3.47011,0,0,0-1.0957-2.15625,3.3062,3.3062,0,0,0-2.2168-.72461,3.62021,3.62021,0,0,0-2.88916,1.251,6.40579,6.40579,0,0,0-1.07861,4.18261q0,3.26075,1.0957,4.60645a3.5951,3.5951,0,0,0,2.94141,1.3457,3.26624,3.26624,0,0,0,2.25976-.78515,4.72183,4.72183,0,0,0,1.24219-2.69922l4.76123.81054a8.44662,8.44662,0,0,1-2.84668,4.95118,8.8133,8.8133,0,0,1-5.64111,1.67285,8.38368,8.38368,0,0,1-6.4087-2.53614,11.55718,11.55718,0,0,1,.00879-14.085,8.517,8.517,0,0,1,6.48633-2.52734,8.85136,8.85136,0,0,1,5.32178,1.44043A7.98345,7.98345,0,0,1,1462.125,1800.7998Z" transform="translate(-1304.40979 -1623.42513)" style="fill:#7a923c"/><path d="M1465.627,1813.70312v-25.29h4.84766V1801.835l5.67578-6.45215h5.96875l-6.26221,6.69336,6.71045,11.62695h-5.227l-4.60595-8.22851-2.25977,2.36328v5.86523Z" transform="translate(-1304.40979 -1623.42513)" style="fill:#7a923c"/><path d="M1495.26465,1792.89844v-4.48535h4.84717v4.48535Zm0,20.80468v-18.32031h4.84717v18.32031Z" transform="translate(-1304.40979 -1623.42513)" style="fill:#7a923c"/><path d="M1521.74463,1813.70312h-4.84717v-9.3496a14.4535,14.4535,0,0,0-.31055-3.83887,2.69027,2.69027,0,0,0-1.00927-1.35352,2.88281,2.88281,0,0,0-1.68213-.4834,3.88776,3.88776,0,0,0-2.25977.69043,3.4758,3.4758,0,0,0-1.37158,1.82813,15.79426,15.79426,0,0,0-.37061,4.209v8.29785h-4.84765v-18.32031h4.50244v2.69141a7.5072,7.5072,0,0,1,8.9707-2.52734,4.92511,4.92511,0,0,1,2.00977,1.4746,5.35371,5.35371,0,0,1,.94873,2.03614,15.14177,15.14177,0,0,1,.26709,3.25976Z" transform="translate(-1304.40979 -1623.42513)" style="fill:#7a923c"/><path d="M1534.35547,1795.38281h2.69092v-1.37988a9.16976,9.16976,0,0,1,.4917-3.4502,3.88987,3.88987,0,0,1,1.81152-1.85449,6.94689,6.94689,0,0,1,3.33789-.71582,13.49263,13.49263,0,0,1,4.0542.6211l-.65576,3.38086a9.5968,9.5968,0,0,0-2.2251-.27637,1.98375,1.98375,0,0,0-1.50977.49219,2.84652,2.84652,0,0,0-.457,1.88867v1.29394h3.62256v3.8125H1541.894v14.50781h-4.84765v-14.50781h-2.69092Z" transform="translate(-1304.40979 -1623.42513)" style="fill:#7a923c"/><path d="M1548.24268,1792.89844v-4.48535h4.84716v4.48535Zm0,20.80468v-18.32031h4.84716v18.32031Z" transform="translate(-1304.40979 -1623.42513)" style="fill:#7a923c"/><path d="M1574.72266,1813.70312h-4.84717v-9.3496a14.454,14.454,0,0,0-.31055-3.83887,2.69029,2.69029,0,0,0-1.00928-1.35352,2.88278,2.88278,0,0,0-1.68212-.4834,3.88776,3.88776,0,0,0-2.25977.69043,3.4758,3.4758,0,0,0-1.37158,1.82813,15.79426,15.79426,0,0,0-.37061,4.209v8.29785h-4.84765v-18.32031h4.50244v2.69141a7.5072,7.5072,0,0,1,8.9707-2.52734,4.92518,4.92518,0,0,1,2.00977,1.4746,5.35371,5.35371,0,0,1,.94873,2.03614,15.14177,15.14177,0,0,1,.26709,3.25976Z" transform="translate(-1304.40979 -1623.42513)" style="fill:#7a923c"/><path d="M1596.44189,1813.70312h-4.50244v-2.69042a7.28374,7.28374,0,0,1-2.648,2.33691,6.79615,6.79615,0,0,1-3.07959.76758,6.97805,6.97805,0,0,1-5.4082-2.54395,10.35282,10.35282,0,0,1-2.251-7.09961q0-4.65674,2.19092-7.08105a7.1439,7.1439,0,0,1,5.5376-2.42383,6.86148,6.86148,0,0,1,5.313,2.55273v-9.10839h4.84765Zm-12.93847-9.55664a8.38392,8.38392,0,0,0,.811,4.24317,3.66264,3.66264,0,0,0,3.27784,1.89844,3.56752,3.56752,0,0,0,2.84619-1.42383,6.56607,6.56607,0,0,0,1.17334-4.252,7.19187,7.19187,0,0,0-1.13868-4.54589,3.60336,3.60336,0,0,0-2.91552-1.38868,3.6423,3.6423,0,0,0-2.88965,1.3711A6.19872,6.19872,0,0,0,1583.50342,1804.14648Z" transform="translate(-1304.40979 -1623.42513)" style="fill:#7a923c"/><path d="M1601.2207,1792.89844v-4.48535h4.84717v4.48535Zm0,20.80468v-18.32031h4.84717v18.32031Z" transform="translate(-1304.40979 -1623.42513)" style="fill:#7a923c"/><path d="M1627.70068,1813.70312h-4.84716v-9.3496a14.454,14.454,0,0,0-.31055-3.83887,2.69029,2.69029,0,0,0-1.00928-1.35352,2.88281,2.88281,0,0,0-1.68213-.4834,3.88775,3.88775,0,0,0-2.25976.69043,3.47582,3.47582,0,0,0-1.37159,1.82813,15.79481,15.79481,0,0,0-.3706,4.209v8.29785H1611.002v-18.32031h4.50244v2.69141a7.50721,7.50721,0,0,1,8.97071-2.52734,4.92515,4.92515,0,0,1,2.00976,1.4746,5.35371,5.35371,0,0,1,.94873,2.03614,15.14112,15.14112,0,0,1,.26709,3.25976Z" transform="translate(-1304.40979 -1623.42513)" style="fill:#7a923c"/><path d="M1632.169,1814.91113l5.53759.67285a1.8899,1.8899,0,0,0,.63819,1.32813,3.64661,3.64661,0,0,0,2.17382.51758,5.6416,5.6416,0,0,0,2.8462-.56934,2.34781,2.34781,0,0,0,.9663-1.22461,7.38557,7.38557,0,0,0,.22413-2.22558v-2.67383a6.5584,6.5584,0,0,1-5.48584,2.96679,6.75173,6.75173,0,0,1-5.84815-3.12207,10.61029,10.61029,0,0,1-1.69043-6.1416q0-4.60547,2.2168-7.03808a7.15138,7.15138,0,0,1,5.51172-2.43262,6.71186,6.71186,0,0,1,5.60644,2.98437v-2.57031h4.53711v16.44043a16.385,16.385,0,0,1-.53515,4.84766,6.01627,6.01627,0,0,1-1.50049,2.51855,6.64276,6.64276,0,0,1-2.5791,1.43164,13.589,13.589,0,0,1-4.08008.51758q-4.65747,0-6.60694-1.5957a5.00637,5.00637,0,0,1-1.94921-4.0459Q1632.15186,1815.25538,1632.169,1814.91113Zm4.33007-10.74707a6.60726,6.60726,0,0,0,1.12989,4.26953,3.49388,3.49388,0,0,0,2.78613,1.35352,3.8522,3.8522,0,0,0,3.00146-1.38867,6.05308,6.05308,0,0,0,1.2251-4.11426,6.4163,6.4163,0,0,0-1.17334-4.22656,3.72781,3.72781,0,0,0-2.96728-1.37989,3.57633,3.57633,0,0,0-2.87207,1.3545A6.34974,6.34974,0,0,0,1636.499,1804.16406Z" transform="translate(-1304.40979 -1623.42513)" style="fill:#7a923c"/><path d="M1674.62354,1807.87207l4.83056.81152a7.92468,7.92468,0,0,1-2.9414,4.04493,8.64115,8.64115,0,0,1-5.02881,1.38867q-4.77832,0-7.07276-3.12207a10.49228,10.49228,0,0,1-1.81152-6.31446,10.11627,10.11627,0,0,1,2.38086-7.13281,7.8417,7.8417,0,0,1,6.02051-2.5791,8.1342,8.1342,0,0,1,6.45214,2.7002q2.3628,2.6997,2.25977,8.27148h-12.145a4.90682,4.90682,0,0,0,1.17334,3.35547,3.66763,3.66763,0,0,0,2.79443,1.19922,2.968,2.968,0,0,0,1.915-.6211A3.83515,3.83515,0,0,0,1674.62354,1807.87207Zm.27636-4.89844a4.66877,4.66877,0,0,0-1.08691-3.20019,3.49725,3.49725,0,0,0-5.14063.06054,4.46852,4.46852,0,0,0-1.01806,3.13965Z" transform="translate(-1304.40979 -1623.42513)" style="fill:#7a923c"/><path d="M1688.70068,1813.70312l-7.3833-18.32031h5.08887l3.4502,9.34961,1.00048,3.123q.397-1.19092.50049-1.57031.241-.77637.51758-1.55274l3.48438-9.34961h4.98583l-7.28027,18.32031Z" transform="translate(-1304.40979 -1623.42513)" style="fill:#7a923c"/><path d="M1713.92139,1807.87207l4.83056.81152a7.92468,7.92468,0,0,1-2.9414,4.04493,8.64115,8.64115,0,0,1-5.02881,1.38867q-4.77832,0-7.07276-3.12207a10.49228,10.49228,0,0,1-1.81152-6.31446,10.11632,10.11632,0,0,1,2.38086-7.13281,7.8417,7.8417,0,0,1,6.02051-2.5791,8.13424,8.13424,0,0,1,6.45215,2.7002q2.36279,2.6997,2.25976,8.27148h-12.145a4.90682,4.90682,0,0,0,1.17334,3.35547,3.66764,3.66764,0,0,0,2.79444,1.19922,2.96807,2.96807,0,0,0,1.915-.6211A3.8352,3.8352,0,0,0,1713.92139,1807.87207Zm.27636-4.89844a4.66872,4.66872,0,0,0-1.08691-3.20019,3.49725,3.49725,0,0,0-5.14063.06054,4.46856,4.46856,0,0,0-1.01806,3.13965Z" transform="translate(-1304.40979 -1623.42513)" style="fill:#7a923c"/><path d="M1727.60156,1813.70312h-4.84717v-18.32031h4.50245v2.60449a7.81515,7.81515,0,0,1,2.07861-2.43164,3.81962,3.81962,0,0,1,2.09619-.58691,6.15489,6.15489,0,0,1,3.19141.91406l-1.501,4.22657a4.25947,4.25947,0,0,0-2.27734-.793,2.68908,2.68908,0,0,0-1.7251.56054,3.83261,3.83261,0,0,0-1.11231,2.02637,28.7769,28.7769,0,0,0-.40576,6.1416Z" transform="translate(-1304.40979 -1623.42513)" style="fill:#7a923c"/><path d="M1734.416,1795.38281h5.15771l4.38184,13.00684,4.27832-13.00684h5.02l-6.46924,17.63086-1.15576,3.19141a13.027,13.027,0,0,1-1.21631,2.44922,5.29982,5.29982,0,0,1-1.32813,1.37109,5.81147,5.81147,0,0,1-1.8457.82031,9.59686,9.59686,0,0,1-2.47559.293,12.8563,12.8563,0,0,1-2.74316-.293l-.43115-3.7959a10.73567,10.73567,0,0,0,2.05273.22461,3.043,3.043,0,0,0,2.50147-.99218,6.8851,6.8851,0,0,0,1.24218-2.52735Z" transform="translate(-1304.40979 -1623.42513)" style="fill:#7a923c"/><path d="M1325.31592,1837.7793h4.51953v2.69043a6.769,6.769,0,0,1,2.38086-2.24219,6.56,6.56,0,0,1,3.32959-.86231,6.98576,6.98576,0,0,1,5.4165,2.501,10.12463,10.12463,0,0,1,2.22559,6.96973q0,4.58789-2.24268,7.13281a6.988,6.988,0,0,1-5.43408,2.54492,6.16149,6.16149,0,0,1-2.75146-.60449,9.26258,9.26258,0,0,1-2.5962-2.06934v9.22852h-4.84765Zm4.7959,8.84961a7.054,7.054,0,0,0,1.22461,4.5625,3.74589,3.74589,0,0,0,2.98437,1.47461,3.50374,3.50374,0,0,0,2.812-1.35352,6.97926,6.97926,0,0,0,1.1211-4.44238,6.622,6.622,0,0,0-1.15577-4.27832,3.57522,3.57522,0,0,0-2.86376-1.39746,3.71664,3.71664,0,0,0-2.94971,1.37207A6.10305,6.10305,0,0,0,1330.11182,1846.62891Z" transform="translate(-1304.40979 -1623.42513)" style="fill:#7a923c"/><path d="M1347.03516,1856.09961v-25.29h4.84716v25.29Z" transform="translate(-1304.40979 -1623.42513)" style="fill:#7a923c"/><path d="M1354.55664,1837.7793h5.15772l4.38183,13.00683,4.27832-13.00683h5.02l-6.46924,17.62988-1.15576,3.19141a13.06973,13.06973,0,0,1-1.21631,2.45019,5.315,5.315,0,0,1-1.32812,1.3711,5.81071,5.81071,0,0,1-1.84571.81933,9.59722,9.59722,0,0,1-2.47558.293,12.8571,12.8571,0,0,1-2.74317-.293l-.43115-3.79492a10.7292,10.7292,0,0,0,2.05274.22363,3.04254,3.04254,0,0,0,2.50146-.99121,6.89278,6.89278,0,0,0,1.24219-2.52734Z" transform="translate(-1304.40979 -1623.42513)" style="fill:#7a923c"/><path d="M1379.91553,1856.09961l-5.79639-18.32031h4.70947l3.43311,12.00586,3.15674-12.00586h4.67529l3.05322,12.00586,3.502-12.00586h4.77832l-5.88233,18.32031h-4.65771l-3.15723-11.78223-3.105,11.78223Z" transform="translate(-1304.40979 -1623.42513)" style="fill:#7a923c"/><path d="M1402.85938,1846.68066a9.91453,9.91453,0,0,1,1.19042-4.67578,8.17462,8.17462,0,0,1,3.37256-3.45019,10.01346,10.01346,0,0,1,4.87354-1.18946,9.14633,9.14633,0,0,1,6.814,2.69922,9.32843,9.32843,0,0,1,2.65674,6.82325,9.44073,9.44073,0,0,1-2.68262,6.8916,9.06566,9.06566,0,0,1-6.7539,2.73437,10.63979,10.63979,0,0,1-4.8042-1.13867,7.81047,7.81047,0,0,1-3.47608-3.33789A11.12457,11.12457,0,0,1,1402.85938,1846.68066Zm4.96826.25879a6.06966,6.06966,0,0,0,1.29394,4.17481,4.23081,4.23081,0,0,0,6.374,0,6.15471,6.15471,0,0,0,1.28515-4.21,6.0385,6.0385,0,0,0-1.28515-4.13965,4.22893,4.22893,0,0,0-6.374,0A6.068,6.068,0,0,0,1407.82764,1846.93945Z" transform="translate(-1304.40979 -1623.42513)" style="fill:#7a923c"/><path d="M1424.44043,1846.68066a9.91442,9.91442,0,0,1,1.19043-4.67578,8.17456,8.17456,0,0,1,3.37256-3.45019,10.01345,10.01345,0,0,1,4.87353-1.18946,9.14636,9.14636,0,0,1,6.814,2.69922,9.32847,9.32847,0,0,1,2.65674,6.82325,9.44077,9.44077,0,0,1-2.68262,6.8916,9.06568,9.06568,0,0,1-6.75391,2.73437,10.63979,10.63979,0,0,1-4.8042-1.13867,7.8105,7.8105,0,0,1-3.47607-3.33789A11.12445,11.12445,0,0,1,1424.44043,1846.68066Zm4.96826.25879a6.06961,6.06961,0,0,0,1.29395,4.17481,4.2308,4.2308,0,0,0,6.374,0,6.15471,6.15471,0,0,0,1.28516-4.21,6.0385,6.0385,0,0,0-1.28516-4.13965,4.22892,4.22892,0,0,0-6.374,0A6.0679,6.0679,0,0,0,1429.40869,1846.93945Z" transform="translate(-1304.40979 -1623.42513)" style="fill:#7a923c"/><path d="M1463.94531,1856.09961h-4.50244v-2.69141a7.27762,7.27762,0,0,1-2.648,2.33789,6.80861,6.80861,0,0,1-3.07959.76758,6.97905,6.97905,0,0,1-5.4082-2.54492,10.35184,10.35184,0,0,1-2.251-7.09863q0-4.6582,2.19092-7.082a7.14305,7.14305,0,0,1,5.5376-2.42286,6.85838,6.85838,0,0,1,5.313,2.55274v-9.1084h4.84765Zm-12.93847-9.55762a8.388,8.388,0,0,0,.811,4.24414,3.66169,3.66169,0,0,0,3.27783,1.89746,3.56929,3.56929,0,0,0,2.84619-1.42285,6.569,6.569,0,0,0,1.17334-4.25293,7.1887,7.1887,0,0,0-1.13867-4.54492,3.60338,3.60338,0,0,0-2.91552-1.38867,3.64226,3.64226,0,0,0-2.88965,1.37109A6.19585,6.19585,0,0,0,1451.00684,1846.542Z" transform="translate(-1304.40979 -1623.42513)" style="fill:#7a923c"/><path d="M1478.40186,1837.7793h4.51953v2.69043a6.769,6.769,0,0,1,2.38086-2.24219,6.56,6.56,0,0,1,3.32959-.86231,6.98576,6.98576,0,0,1,5.4165,2.501,10.12463,10.12463,0,0,1,2.22559,6.96973q0,4.58789-2.24268,7.13281a6.988,6.988,0,0,1-5.43408,2.54492,6.16156,6.16156,0,0,1-2.75147-.60449,9.26256,9.26256,0,0,1-2.59619-2.06934v9.22852h-4.84765Zm4.79589,8.84961a7.0541,7.0541,0,0,0,1.22461,4.5625,3.74593,3.74593,0,0,0,2.98438,1.47461,3.50374,3.50374,0,0,0,2.812-1.35352,6.97927,6.97927,0,0,0,1.12109-4.44238,6.622,6.622,0,0,0-1.15576-4.27832,3.57525,3.57525,0,0,0-2.86377-1.39746,3.71662,3.71662,0,0,0-2.9497,1.37207A6.10305,6.10305,0,0,0,1483.19775,1846.62891Z" transform="translate(-1304.40979 -1623.42513)" style="fill:#7a923c"/><path d="M1500.12109,1835.29492v-4.48535h4.84717v4.48535Zm0,20.80469V1837.7793h4.84717v18.32031Z" transform="translate(-1304.40979 -1623.42513)" style="fill:#7a923c"/><path d="M1520.5459,1850.26855l4.83056.81055a7.92317,7.92317,0,0,1-2.9414,4.0459,8.64112,8.64112,0,0,1-5.02881,1.38867q-4.77832,0-7.07275-3.12305a10.48714,10.48714,0,0,1-1.81153-6.31347,10.11888,10.11888,0,0,1,2.38086-7.13379,7.84088,7.84088,0,0,1,6.02051-2.57813,8.13355,8.13355,0,0,1,6.45215,2.69922q2.36279,2.69971,2.25976,8.27149h-12.145a4.90327,4.90327,0,0,0,1.17334,3.35547,3.66763,3.66763,0,0,0,2.79444,1.19921,2.9681,2.9681,0,0,0,1.915-.62109A3.836,3.836,0,0,0,1520.5459,1850.26855Zm.27637-4.89941a4.66876,4.66876,0,0,0-1.08692-3.20019,3.4993,3.4993,0,0,0-5.14062.06054,4.47014,4.47014,0,0,0-1.01807,3.13965Z" transform="translate(-1304.40979 -1623.42513)" style="fill:#7a923c"/><path d="M1545.56006,1843.19531l-4.77832.86328a3.47015,3.47015,0,0,0-1.0957-2.15722,3.3108,3.3108,0,0,0-2.2168-.72364,3.62254,3.62254,0,0,0-2.88916,1.25,6.40711,6.40711,0,0,0-1.07862,4.1836q0,3.26074,1.09571,4.60644a3.59706,3.59706,0,0,0,2.9414,1.34473,3.26564,3.26564,0,0,0,2.25977-.78418,4.72511,4.72511,0,0,0,1.24219-2.7002l4.76123.81055a8.44656,8.44656,0,0,1-2.84668,4.95117,8.8078,8.8078,0,0,1-5.64112,1.67383,8.38717,8.38717,0,0,1-6.40869-2.53613,11.55862,11.55862,0,0,1,.00879-14.08594,8.51633,8.51633,0,0,1,6.48633-2.52637,8.84466,8.84466,0,0,1,5.32178,1.44043A7.98072,7.98072,0,0,1,1545.56006,1843.19531Z" transform="translate(-1304.40979 -1623.42513)" style="fill:#7a923c"/><path d="M1559.84375,1850.26855l4.83057.81055a7.92324,7.92324,0,0,1-2.94141,4.0459,8.6411,8.6411,0,0,1-5.02881,1.38867q-4.77832,0-7.07275-3.12305a10.48714,10.48714,0,0,1-1.81153-6.31347,10.11888,10.11888,0,0,1,2.38086-7.13379,7.84088,7.84088,0,0,1,6.02051-2.57813,8.13355,8.13355,0,0,1,6.45215,2.69922q2.3628,2.69971,2.25977,8.27149h-12.145a4.90317,4.90317,0,0,0,1.17334,3.35547,3.6676,3.6676,0,0,0,2.79443,1.19921,2.9681,2.9681,0,0,0,1.915-.62109A3.8359,3.8359,0,0,0,1559.84375,1850.26855Zm.27637-4.89941a4.66876,4.66876,0,0,0-1.08692-3.20019,3.4993,3.4993,0,0,0-5.14062.06054,4.47014,4.47014,0,0,0-1.01807,3.13965Z" transform="translate(-1304.40979 -1623.42513)" style="fill:#7a923c"/><path d="M1577.57812,1846.68066a9.91454,9.91454,0,0,1,1.19043-4.67578,8.17462,8.17462,0,0,1,3.37256-3.45019,10.01346,10.01346,0,0,1,4.87354-1.18946,9.14633,9.14633,0,0,1,6.814,2.69922,9.32843,9.32843,0,0,1,2.65674,6.82325,9.44073,9.44073,0,0,1-2.68262,6.8916,9.06566,9.06566,0,0,1-6.7539,2.73437,10.63979,10.63979,0,0,1-4.8042-1.13867,7.81047,7.81047,0,0,1-3.47608-3.33789A11.12457,11.12457,0,0,1,1577.57812,1846.68066Zm4.96827.25879a6.06966,6.06966,0,0,0,1.29394,4.17481,4.23081,4.23081,0,0,0,6.374,0,6.15471,6.15471,0,0,0,1.28515-4.21,6.0385,6.0385,0,0,0-1.28515-4.13965,4.22893,4.22893,0,0,0-6.374,0A6.068,6.068,0,0,0,1582.54639,1846.93945Z" transform="translate(-1304.40979 -1623.42513)" style="fill:#7a923c"/><path d="M1598.15869,1837.7793h2.69092v-1.38086a9.17322,9.17322,0,0,1,.4917-3.4502,3.88983,3.88983,0,0,1,1.81152-1.85449,6.95829,6.95829,0,0,1,3.33789-.71582,13.49293,13.49293,0,0,1,4.0542.62109l-.65576,3.38184a9.54467,9.54467,0,0,0-2.2251-.27637,1.98742,1.98742,0,0,0-1.50976.49121,2.85144,2.85144,0,0,0-.457,1.88965v1.29395h3.62255v3.81152h-3.62255v14.50879h-4.84766v-14.50879h-2.69092Z" transform="translate(-1304.40979 -1623.42513)" style="fill:#7a923c"/><path d="M1625.48438,1843.36816l-4.39893-.79394a6.84838,6.84838,0,0,1,2.55273-3.93262,9.34065,9.34065,0,0,1,5.38233-1.27637,11.60238,11.60238,0,0,1,4.83056.76758,4.81435,4.81435,0,0,1,2.23389,1.94922,9.99759,9.99759,0,0,1,.647,4.33887l-.05175,5.6582a19.6285,19.6285,0,0,0,.23291,3.56152,10.37777,10.37777,0,0,0,.87109,2.459h-4.7959q-.18969-.4834-.46582-1.43164-.12085-.43214-.17236-.56934a8.743,8.743,0,0,1-2.65674,1.81055,7.594,7.594,0,0,1-3.01856.60449,6.24269,6.24269,0,0,1-4.45947-1.53515,5.10473,5.10473,0,0,1-1.63037-3.88184,5.20758,5.20758,0,0,1,.7417-2.76856,4.83864,4.83864,0,0,1,2.0791-1.86328,16.236,16.236,0,0,1,3.85547-1.12988,26.41672,26.41672,0,0,0,4.70947-1.19043v-.4834a2.51056,2.51056,0,0,0-.68994-1.99218,4.1388,4.1388,0,0,0-2.605-.59473,3.46447,3.46447,0,0,0-2.01855.50879A3.535,3.535,0,0,0,1625.48438,1843.36816Zm6.48632,3.9336a30.2176,30.2176,0,0,1-2.95019.74121,8.8908,8.8908,0,0,0-2.63916.8457,2.02047,2.02047,0,0,0-.94873,1.708,2.37552,2.37552,0,0,0,.75879,1.75879,2.64812,2.64812,0,0,0,1.93213.74219,4.19674,4.19674,0,0,0,2.50146-.86231,3.0383,3.0383,0,0,0,1.15576-1.60449,9.57314,9.57314,0,0,0,.18994-2.36328Z" transform="translate(-1304.40979 -1623.42513)" style="fill:#7a923c"/><path d="M1658.313,1856.09961h-4.50244v-2.69141a7.27762,7.27762,0,0,1-2.64795,2.33789,6.80867,6.80867,0,0,1-3.07959.76758,6.97907,6.97907,0,0,1-5.40821-2.54492,10.35188,10.35188,0,0,1-2.251-7.09863q0-4.6582,2.19092-7.082a7.143,7.143,0,0,1,5.53759-2.42286,6.85837,6.85837,0,0,1,5.313,2.55274v-9.1084h4.84766Zm-12.93848-9.55762a8.38794,8.38794,0,0,0,.811,4.24414,3.66169,3.66169,0,0,0,3.27783,1.89746,3.56931,3.56931,0,0,0,2.84619-1.42285,6.569,6.569,0,0,0,1.17334-4.25293,7.1887,7.1887,0,0,0-1.13867-4.54492,3.60342,3.60342,0,0,0-2.91553-1.38867,3.64229,3.64229,0,0,0-2.88965,1.37109A6.1959,6.1959,0,0,0,1645.37451,1846.542Z" transform="translate(-1304.40979 -1623.42513)" style="fill:#7a923c"/><path d="M1668.12891,1856.09961l-7.3833-18.32031h5.08886l3.4502,9.34961,1.00049,3.12207q.397-1.18945.50048-1.56934.241-.77637.51758-1.55273l3.48438-9.34961h4.98584l-7.28028,18.32031Z" transform="translate(-1304.40979 -1623.42513)" style="fill:#7a923c"/><path d="M1682.74072,1835.29492v-4.48535h4.84717v4.48535Zm0,20.80469V1837.7793h4.84717v18.32031Z" transform="translate(-1304.40979 -1623.42513)" style="fill:#7a923c"/><path d="M1708.53076,1843.19531l-4.77832.86328a3.47015,3.47015,0,0,0-1.0957-2.15722,3.3108,3.3108,0,0,0-2.2168-.72364,3.62254,3.62254,0,0,0-2.88916,1.25,6.40711,6.40711,0,0,0-1.07861,4.1836q0,3.26074,1.0957,4.60644a3.59707,3.59707,0,0,0,2.94141,1.34473,3.26561,3.26561,0,0,0,2.25976-.78418,4.72511,4.72511,0,0,0,1.24219-2.7002l4.76123.81055a8.44656,8.44656,0,0,1-2.84668,4.95117,8.80779,8.80779,0,0,1-5.64111,1.67383,8.38714,8.38714,0,0,1-6.40869-2.53613,11.55862,11.55862,0,0,1,.00879-14.08594,8.51631,8.51631,0,0,1,6.48632-2.52637,8.84464,8.84464,0,0,1,5.32178,1.44043A7.98061,7.98061,0,0,1,1708.53076,1843.19531Z" transform="translate(-1304.40979 -1623.42513)" style="fill:#7a923c"/><path d="M1722.81445,1850.26855l4.83057.81055a7.92313,7.92313,0,0,1-2.94141,4.0459,8.6411,8.6411,0,0,1-5.02881,1.38867q-4.77831,0-7.07275-3.12305a10.48714,10.48714,0,0,1-1.81152-6.31347,10.11883,10.11883,0,0,1,2.38086-7.13379,7.84086,7.84086,0,0,1,6.0205-2.57813,8.13355,8.13355,0,0,1,6.45215,2.69922q2.3628,2.69971,2.25977,8.27149h-12.145a4.90322,4.90322,0,0,0,1.17334,3.35547,3.66763,3.66763,0,0,0,2.79443,1.19921,2.9681,2.9681,0,0,0,1.915-.62109A3.8359,3.8359,0,0,0,1722.81445,1850.26855Zm.27637-4.89941a4.66875,4.66875,0,0,0-1.08691-3.20019,3.49931,3.49931,0,0,0-5.14063.06054,4.47018,4.47018,0,0,0-1.01807,3.13965Z" transform="translate(-1304.40979 -1623.42513)" style="fill:#7a923c"/><path d="M1733.752,1849.57812l-1.25927-12.834v-5.93457h5.24414v5.93457l-1.24219,12.834Zm-1.05224,6.52149V1851.252h4.84717v4.84766Z" transform="translate(-1304.40979 -1623.42513)" style="fill:#7a923c"/><path d="M1509.74288,1829.86842l-1.02636,1.33911Q1509.24422,1830.54762,1509.74288,1829.86842Z" transform="translate(-1304.40979 -1623.42513)" style="fill:#02263c"/><path d="M1527.78732,1806.32814l-.0669.08716c.043-.02808.083-.06031.12622-.08789Z" transform="translate(-1304.40979 -1623.42513)" style="fill:#02263c"/><path d="M1357.75146,1695.4707a30.05869,30.05869,0,0,0,4.45655,1.51465,18.49388,18.49388,0,0,0,3.96631.66895q1.64794.08936,1.96045-.44629.40136-.53468-1.51514-1.82715-2.05-1.4253-4.01074-2.96289-1.96143-1.53809-3.877-3.27637a8.429,8.429,0,0,1-2.80761-8.24414q.93529-4.85742,4.6792-5.7041a16.50858,16.50858,0,0,1,8.1997.31152,35.18609,35.18609,0,0,1,8.46778,3.56543,26.68986,26.68986,0,0,1,5.61523,4.01074l-4.18945,6.50684a6.31651,6.31651,0,0,0-1.29248-.958q-.802-.46875-1.96045-1.04785a23.98345,23.98345,0,0,0-4.05567-1.51465q-1.738-.40137-2.0498.17774-.26733.53466,2.76269,3.03027A72.18483,72.18483,0,0,0,1378.563,1694q2.27343,1.42675,2.98584,5.57031a5.79474,5.79474,0,0,1-2.27246,6.0166,16.3301,16.3301,0,0,1-7.3086,2.94141,28.53779,28.53779,0,0,1-9.26953,0,19.39217,19.39217,0,0,1-8.0664-2.89746Z" transform="translate(-1304.40979 -1623.42513)" style="fill:#d86600"/><path d="M1398.4834,1675.63867l3.34228,15.41992,3.38672-10.8291,5.83789-.08984,2.36231,10.11621,3.16406-13.77051,13.63672-1.11426-9.8042,32.30957-9.09131,1.20411-3.60986-11.63184-3.47608,11.98828-9.13574-1.4707-9.8042-33.02246Z" transform="translate(-1304.40979 -1623.42513)" style="fill:#d86600"/><path d="M1457.48682,1674.74805l.26757,9.626-12.47851-.17871.08935,3.56543,6.37256-.35644.04492,5.88183h-5.79345l.1333,4.10059,12.03271-.71289.13379,11.542-22.90674.66895-1.916-34.09278Z" transform="translate(-1304.40979 -1623.42513)" style="fill:#d86600"/><path d="M1484.58154,1674.74805l.26758,9.626-12.47851-.17871.08935,3.56543,6.37256-.35644.04492,5.88183H1473.084l.13331,4.10059,12.03271-.71289.13379,11.542-22.90674.66895-1.916-34.09278Z" transform="translate(-1304.40979 -1623.42513)" style="fill:#d86600"/><path d="M1487.92334,1676.48535l30.70508-1.7373.53467,15.41894-11.72071-.624,3.521,19.3418-15.063-1.6045,2.58447-17.38086-10.8291.3125Z" transform="translate(-1304.40979 -1623.42513)" style="fill:#d86600"/><path d="M1559.09229,1675.63867l3.34228,15.41992,3.38672-10.8291,5.83789-.08984,2.3623,10.11621,3.16407-13.77051,13.63672-1.11426-9.8042,32.30957-9.09131,1.20411-3.60987-11.63184-3.47607,11.98828-9.13574-1.4707-9.8042-33.02246Z" transform="translate(-1304.40979 -1623.42513)" style="fill:#d86600"/><path d="M1594.0752,1674.74805l12.79.84668-.624,32.93359-11.31933.35645Z" transform="translate(-1304.40979 -1623.42513)" style="fill:#d86600"/><path d="M1611.6333,1695.4707a30.05816,30.05816,0,0,0,4.45654,1.51465,18.494,18.494,0,0,0,3.96631.66895q1.648.08936,1.96045-.44629.40137-.53468-1.51514-1.82715-2.05-1.4253-4.01074-2.96289-1.96141-1.53809-3.877-3.27637a8.429,8.429,0,0,1-2.80762-8.24414q.93531-4.85742,4.6792-5.7041a16.50862,16.50862,0,0,1,8.19971.31152,35.186,35.186,0,0,1,8.46777,3.56543,26.68971,26.68971,0,0,1,5.61524,4.01074l-4.18946,6.50684a6.31624,6.31624,0,0,0-1.29248-.958q-.802-.46875-1.96045-1.04785a23.983,23.983,0,0,0-4.05566-1.51465q-1.738-.40137-2.04981.17774-.26733.53466,2.7627,3.03027A72.18354,72.18354,0,0,0,1632.44482,1694q2.27345,1.42675,2.98584,5.57031a5.79473,5.79473,0,0,1-2.27246,6.0166,16.33006,16.33006,0,0,1-7.30859,2.94141,28.53779,28.53779,0,0,1-9.26953,0,19.39222,19.39222,0,0,1-8.06641-2.89746Z" transform="translate(-1304.40979 -1623.42513)" style="fill:#d86600"/><path d="M1639.17383,1676.12891l10.38379-.624v11.49805l7.6206-.13379V1675.416l11.854-.668-1.55957,32.042-10.29444,1.1582v-12.166l-7.6206.17871v12.03222l-9.00244.89161Z" transform="translate(-1304.40979 -1623.42513)" style="fill:#d86600"/><path d="M1695.59277,1674.74805l.26758,9.626-12.47851-.17871.08935,3.56543,6.37256-.35644.04492,5.88183h-5.79346l.13331,4.10059,12.03271-.71289.13379,11.542-22.90674.66895-1.916-34.09278Z" transform="translate(-1304.40979 -1623.42513)" style="fill:#d86600"/><path d="M1701.78662,1695.4707a30.05816,30.05816,0,0,0,4.45654,1.51465,18.49407,18.49407,0,0,0,3.96631.66895q1.648.08936,1.96045-.44629.40137-.53468-1.51513-1.82715-2.05005-1.4253-4.01075-2.96289-1.96141-1.53809-3.87695-3.27637a8.429,8.429,0,0,1-2.80762-8.24414q.93531-4.85742,4.6792-5.7041a16.50862,16.50862,0,0,1,8.19971.31152,35.18585,35.18585,0,0,1,8.46777,3.56543,26.68971,26.68971,0,0,1,5.61524,4.01074l-4.18946,6.50684a6.316,6.316,0,0,0-1.29248-.958q-.802-.46875-1.96045-1.04785a23.983,23.983,0,0,0-4.05566-1.51465q-1.738-.40137-2.0498.17774-.26734.53466,2.76269,3.03027A72.18354,72.18354,0,0,0,1722.59814,1694q2.27344,1.42675,2.98584,5.57031a5.79471,5.79471,0,0,1-2.27246,6.0166,16.33006,16.33006,0,0,1-7.30859,2.94141,28.53779,28.53779,0,0,1-9.26953,0,19.39222,19.39222,0,0,1-8.06641-2.89746Z" transform="translate(-1304.40979 -1623.42513)" style="fill:#d86600"/></svg>