<svg id="Слой_1" data-name="Слой 1" xmlns="http://www.w3.org/2000/svg" viewBox="0 0 403.33 410.11"><title>balalaika</title><g id="popup"><rect x="8.39" y="4.82" width="394.95" height="405.29" rx="12" ry="12" style="fill:#3a301f"/><rect width="394.95" height="405.29" rx="12" ry="12" style="fill:#fff"/><path d="M425.47,127.16V101.87h5.11v9.95h10v-9.95h5.11v25.29h-5.11V116.1h-10v11.06Z" transform="translate(-377.64 11.96)" style="fill:#7a923c"/><path d="M461.55,121.33l4.83.81a8,8,0,0,1-2.95,4,8.59,8.59,0,0,1-5,1.39q-4.79,0-7.08-3.12a10.55,10.55,0,0,1-1.81-6.32A10.11,10.11,0,0,1,451.9,111a7.85,7.85,0,0,1,6-2.58,8.11,8.11,0,0,1,6.45,2.7q2.37,2.7,2.26,8.27H454.49a4.88,4.88,0,0,0,1.17,3.36,3.68,3.68,0,0,0,2.8,1.2,3,3,0,0,0,1.91-.62A3.88,3.88,0,0,0,461.55,121.33Zm.27-4.9a4.63,4.63,0,0,0-1.09-3.2,3.34,3.34,0,0,0-2.51-1.1,3.39,3.39,0,0,0-2.63,1.16,4.42,4.42,0,0,0-1,3.14Z" transform="translate(-377.64 11.96)" style="fill:#7a923c"/><path d="M480.45,108.84h10.61a8.19,8.19,0,0,1,4.88,1.19,4.15,4.15,0,0,1,1.62,3.58,4.23,4.23,0,0,1-.88,2.68,4.3,4.3,0,0,1-2.24,1.52,4.73,4.73,0,0,1,2.83,1.74,4.63,4.63,0,0,1,.93,2.79,4.34,4.34,0,0,1-1.57,3.48,7,7,0,0,1-4.64,1.34H480.45Zm4.88,7.6h3.13a7,7,0,0,0,3.27-.57,1.9,1.9,0,0,0,1-1.79,1.71,1.71,0,0,0-.94-1.65,7.84,7.84,0,0,0-3.33-.49h-3.13Zm0,7.61h3.83a6.86,6.86,0,0,0,3-.5,1.85,1.85,0,0,0,.95-1.79A1.87,1.87,0,0,0,492,119.9a11.45,11.45,0,0,0-4.22-.51h-2.49Z" transform="translate(-377.64 11.96)" style="fill:#7a923c"/><path d="M517.21,114.25l-4.77.87a3.5,3.5,0,0,0-1.1-2.16,3.33,3.33,0,0,0-2.22-.73,3.65,3.65,0,0,0-2.89,1.25,6.49,6.49,0,0,0-1.07,4.19c0,2.17.36,3.71,1.09,4.6a3.59,3.59,0,0,0,2.94,1.35,3.27,3.27,0,0,0,2.26-.78,4.73,4.73,0,0,0,1.24-2.71l4.77.82a8.52,8.52,0,0,1-2.85,5,8.83,8.83,0,0,1-5.64,1.67,8.39,8.39,0,0,1-6.41-2.54,11.54,11.54,0,0,1,0-14.08,8.5,8.5,0,0,1,6.48-2.53,8.87,8.87,0,0,1,5.33,1.44A8,8,0,0,1,517.21,114.25Z" transform="translate(-377.64 11.96)" style="fill:#7a923c"/><path d="M531.5,121.33l4.83.81a7.88,7.88,0,0,1-2.94,4,8.62,8.62,0,0,1-5,1.39q-4.79,0-7.08-3.12a10.55,10.55,0,0,1-1.81-6.32,10.15,10.15,0,0,1,2.38-7.13,7.85,7.85,0,0,1,6-2.58,8.15,8.15,0,0,1,6.46,2.7c1.57,1.8,2.33,4.56,2.26,8.27H524.44a5,5,0,0,0,1.17,3.36,3.68,3.68,0,0,0,2.8,1.2,3,3,0,0,0,1.91-.62A3.88,3.88,0,0,0,531.5,121.33Zm-9.2-15.74v-4.16h4.16v4.16Zm9.47,10.84a4.63,4.63,0,0,0-1.08-3.2,3.49,3.49,0,0,0-5.14.06,4.47,4.47,0,0,0-1,3.14Zm-2-10.84v-4.16h4.18v4.16Z" transform="translate(-377.64 11.96)" style="fill:#7a923c"/><path d="M548.18,108.84h16.58v3.91h-5.87v14.41H554V112.75h-5.86Z" transform="translate(-377.64 11.96)" style="fill:#7a923c"/><path d="M566.07,117.74a10,10,0,0,1,1.19-4.68,8.25,8.25,0,0,1,3.37-3.45,10.06,10.06,0,0,1,4.87-1.19,9.15,9.15,0,0,1,6.82,2.7,9.34,9.34,0,0,1,2.66,6.82,9.46,9.46,0,0,1-2.69,6.9,9.07,9.07,0,0,1-6.75,2.73,10.67,10.67,0,0,1-4.81-1.14,7.79,7.79,0,0,1-3.47-3.34A11.13,11.13,0,0,1,566.07,117.74Zm5,.26a6.07,6.07,0,0,0,1.29,4.17,4.1,4.1,0,0,0,3.19,1.45,4.05,4.05,0,0,0,3.18-1.45A6.13,6.13,0,0,0,580,118a6,6,0,0,0-1.29-4.14,4.08,4.08,0,0,0-3.18-1.45,4.13,4.13,0,0,0-3.19,1.45A6.1,6.1,0,0,0,571,118Z" transform="translate(-377.64 11.96)" style="fill:#7a923c"/><path d="M609.13,101.87h4.81v9.3a6.11,6.11,0,0,1,2.1-2,5.72,5.72,0,0,1,2.8-.68,5.59,5.59,0,0,1,4.82,2.85,12.17,12.17,0,0,1,1.87,6.83,10.79,10.79,0,0,1-2.09,6.72,6.13,6.13,0,0,1-5,2.73,4.87,4.87,0,0,1-2.44-.65,7,7,0,0,1-2.1-1.92v9.13h-4.81V125a7.77,7.77,0,0,1-2.25,1.92,5.31,5.31,0,0,1-2.55.65,5.79,5.79,0,0,1-4.9-2.74,11.69,11.69,0,0,1-1.93-6.9,10.37,10.37,0,0,1,2.21-6.82q2.2-2.69,4.78-2.69a5,5,0,0,1,2.55.66,6.52,6.52,0,0,1,2.09,2Zm-3.25,10.26a2.85,2.85,0,0,0-2.35,1.61,8,8,0,0,0-1,4.26,8.35,8.35,0,0,0,.94,4.26,2.72,2.72,0,0,0,2.34,1.6,2.8,2.8,0,0,0,2.39-1.6,8.31,8.31,0,0,0,1-4.38,7.17,7.17,0,0,0-1.07-4.39A3,3,0,0,0,605.88,112.13Zm11.34,0a2.74,2.74,0,0,0-2.42,1.73,9.08,9.08,0,0,0-.93,4.34,7.53,7.53,0,0,0,1,4.13,2.82,2.82,0,0,0,2.36,1.53,2.78,2.78,0,0,0,2.34-1.73,8,8,0,0,0,1-4.07,9,9,0,0,0-.9-4.22A2.71,2.71,0,0,0,617.22,112.17Z" transform="translate(-377.64 11.96)" style="fill:#7a923c"/><path d="M633.12,114.42l-4.4-.79a6.87,6.87,0,0,1,2.56-3.93,9.33,9.33,0,0,1,5.38-1.28,11.63,11.63,0,0,1,4.83.77,4.77,4.77,0,0,1,2.23,2,10,10,0,0,1,.65,4.34l0,5.66a20.22,20.22,0,0,0,.23,3.56,11.07,11.07,0,0,0,.87,2.46h-4.79c-.13-.33-.28-.8-.47-1.44-.08-.28-.14-.47-.17-.56a9,9,0,0,1-2.66,1.81,7.64,7.64,0,0,1-3,.6,6.27,6.27,0,0,1-4.46-1.53,5.15,5.15,0,0,1-1.63-3.89,5.21,5.21,0,0,1,.75-2.77,4.8,4.8,0,0,1,2.07-1.86,16.37,16.37,0,0,1,3.86-1.13,25.81,25.81,0,0,0,4.71-1.19v-.48a2.5,2.5,0,0,0-.69-2,4.12,4.12,0,0,0-2.61-.6,3.43,3.43,0,0,0-2,.51A3.49,3.49,0,0,0,633.12,114.42Zm6.49,3.94a29.86,29.86,0,0,1-3,.74A8.72,8.72,0,0,0,634,120a2,2,0,0,0-.95,1.7,2.36,2.36,0,0,0,.76,1.76,2.63,2.63,0,0,0,1.93.74,4.14,4.14,0,0,0,2.5-.86,3,3,0,0,0,1.16-1.6,9.44,9.44,0,0,0,.19-2.37Z" transform="translate(-377.64 11.96)" style="fill:#7a923c"/><path d="M649,108.84h4.85v6.71h6.93v-6.71h4.87v18.32h-4.87v-7.7h-6.93v7.7H649Z" transform="translate(-377.64 11.96)" style="fill:#7a923c"/><path d="M681.1,121.33l4.83.81a7.88,7.88,0,0,1-2.94,4,8.62,8.62,0,0,1-5,1.39q-4.79,0-7.07-3.12a10.48,10.48,0,0,1-1.82-6.32,10.15,10.15,0,0,1,2.38-7.13,7.86,7.86,0,0,1,6-2.58,8.14,8.14,0,0,1,6.45,2.7c1.57,1.8,2.33,4.56,2.26,8.27H674a4.93,4.93,0,0,0,1.18,3.36A3.64,3.64,0,0,0,678,124a3,3,0,0,0,1.92-.62A3.94,3.94,0,0,0,681.1,121.33Zm.27-4.9a4.63,4.63,0,0,0-1.08-3.2,3.49,3.49,0,0,0-5.14.06,4.47,4.47,0,0,0-1,3.14Z" transform="translate(-377.64 11.96)" style="fill:#7a923c"/><path d="M690,108.84h4.52v2.69a6.77,6.77,0,0,1,2.38-2.25,6.61,6.61,0,0,1,3.33-.86,7,7,0,0,1,5.42,2.5,10.14,10.14,0,0,1,2.22,7,10.48,10.48,0,0,1-2.24,7.14,7,7,0,0,1-5.44,2.54,6.23,6.23,0,0,1-2.75-.6,9.45,9.45,0,0,1-2.59-2.07v9.23H690Zm4.79,8.85a7.06,7.06,0,0,0,1.23,4.56,3.75,3.75,0,0,0,3,1.47,3.52,3.52,0,0,0,2.82-1.35,7,7,0,0,0,1.12-4.44,6.63,6.63,0,0,0-1.16-4.28,3.57,3.57,0,0,0-2.86-1.4,3.72,3.72,0,0,0-2.95,1.37A6.14,6.14,0,0,0,694.79,117.69Z" transform="translate(-377.64 11.96)" style="fill:#7a923c"/><path d="M715.34,114.42l-4.4-.79a6.9,6.9,0,0,1,2.55-3.93,9.38,9.38,0,0,1,5.39-1.28,11.63,11.63,0,0,1,4.83.77,4.77,4.77,0,0,1,2.23,2,10,10,0,0,1,.65,4.34l-.05,5.66a19.28,19.28,0,0,0,.23,3.56,10.58,10.58,0,0,0,.87,2.46h-4.79c-.13-.33-.29-.8-.47-1.44-.08-.28-.14-.47-.17-.56a9,9,0,0,1-2.66,1.81,7.64,7.64,0,0,1-3,.6,6.27,6.27,0,0,1-4.46-1.53,5.11,5.11,0,0,1-1.63-3.89,5.29,5.29,0,0,1,.74-2.77,4.88,4.88,0,0,1,2.08-1.86,16.22,16.22,0,0,1,3.86-1.13,26,26,0,0,0,4.71-1.19v-.48a2.5,2.5,0,0,0-.69-2,4.12,4.12,0,0,0-2.61-.6,3.49,3.49,0,0,0-2,.51A3.55,3.55,0,0,0,715.34,114.42Zm6.49,3.94c-.62.21-1.61.45-3,.74a8.72,8.72,0,0,0-2.64.85,2,2,0,0,0-1,1.7,2.36,2.36,0,0,0,.76,1.76,2.62,2.62,0,0,0,1.93.74,4.16,4.16,0,0,0,2.5-.86,3,3,0,0,0,1.16-1.6,10,10,0,0,0,.19-2.37Z" transform="translate(-377.64 11.96)" style="fill:#7a923c"/><path d="M731.25,122.31h4.84v3.47a12.16,12.16,0,0,1-.36,3.32,5,5,0,0,1-1.37,2.18,7.17,7.17,0,0,1-2.56,1.52l-.95-2a4.18,4.18,0,0,0,2.09-1.33,4,4,0,0,0,.65-2.31h-2.34Z" transform="translate(-377.64 11.96)" style="fill:#7a923c"/><path d="M473.38,151.23h4.9v4.38a6.94,6.94,0,0,0,.27,2.24,2.46,2.46,0,0,0,1.13,1.26,4.24,4.24,0,0,0,2.2.52,8.52,8.52,0,0,0,2.9-.58v-7.82h4.85v18.32h-4.85v-7.31a18.45,18.45,0,0,1-4.31.76,8.27,8.27,0,0,1-4-1,5.2,5.2,0,0,1-2.44-2.45,10.16,10.16,0,0,1-.65-4Z" transform="translate(-377.64 11.96)" style="fill:#7a923c"/><path d="M492.29,151.23h16.57v3.92H503v14.4h-4.85v-14.4h-5.86Z" transform="translate(-377.64 11.96)" style="fill:#7a923c"/><path d="M510.18,160.13a9.83,9.83,0,0,1,1.19-4.67,8.08,8.08,0,0,1,3.37-3.45,9.92,9.92,0,0,1,4.87-1.19,9.18,9.18,0,0,1,6.82,2.7,9.32,9.32,0,0,1,2.65,6.82,9.42,9.42,0,0,1-2.68,6.89,9,9,0,0,1-6.75,2.74,10.67,10.67,0,0,1-4.81-1.14,7.79,7.79,0,0,1-3.47-3.34A11.06,11.06,0,0,1,510.18,160.13Zm5,.26a6.1,6.1,0,0,0,1.3,4.18,4.22,4.22,0,0,0,6.37,0,6.15,6.15,0,0,0,1.29-4.21,6,6,0,0,0-1.29-4.14,4.22,4.22,0,0,0-6.37,0A6.07,6.07,0,0,0,515.14,160.39Z" transform="translate(-377.64 11.96)" style="fill:#7a923c"/><path d="M542.5,151.23h4.83v7.49A2.49,2.49,0,0,0,549,158a9.46,9.46,0,0,0,1.21-2.64,7,7,0,0,1,2-3.47,5,5,0,0,1,2.9-.76q.55,0,1.92.09l0,3.21a5.17,5.17,0,0,0-2.45.36,4.93,4.93,0,0,0-1.16,2.26q-.84,2.53-2.43,3.12,2.29.65,3.88,4l.19.36,2.71,5.05h-5.21l-2.42-5.29A6.36,6.36,0,0,0,549,162.2a2.45,2.45,0,0,0-1.62-.46v7.81H542.5Z" transform="translate(-377.64 11.96)" style="fill:#7a923c"/><path d="M564,156.82l-4.4-.79a6.91,6.91,0,0,1,2.55-3.94,9.37,9.37,0,0,1,5.39-1.27,11.47,11.47,0,0,1,4.83.77,4.82,4.82,0,0,1,2.23,1.95,10,10,0,0,1,.65,4.33l-.06,5.66a19,19,0,0,0,.24,3.56,9.86,9.86,0,0,0,.87,2.46h-4.8c-.12-.32-.28-.8-.46-1.43a5,5,0,0,0-.18-.57,8.52,8.52,0,0,1-2.65,1.81,7.48,7.48,0,0,1-3,.61,6.22,6.22,0,0,1-4.46-1.54,5.09,5.09,0,0,1-1.63-3.88,5.24,5.24,0,0,1,.74-2.77,4.88,4.88,0,0,1,2.08-1.86,16.22,16.22,0,0,1,3.86-1.13,26.51,26.51,0,0,0,4.7-1.19v-.48a2.52,2.52,0,0,0-.68-2,4.2,4.2,0,0,0-2.61-.59,3.47,3.47,0,0,0-2,.51A3.55,3.55,0,0,0,564,156.82Zm6.48,3.93a29.61,29.61,0,0,1-2.94.75,8.8,8.8,0,0,0-2.64.84,2,2,0,0,0-.95,1.71,2.37,2.37,0,0,0,.76,1.76,2.66,2.66,0,0,0,1.93.74,4.23,4.23,0,0,0,2.5-.86,3.05,3.05,0,0,0,1.16-1.61,10,10,0,0,0,.18-2.36Z" transform="translate(-377.64 11.96)" style="fill:#7a923c"/><path d="M587.61,169.55v-7.81a2,2,0,0,0-1.31.42,10.47,10.47,0,0,0-1.31,2.1l-2.31,5.29h-5.21l2.59-5.05q2-3.8,4.09-4.35-1.59-.6-2.43-3.12a5.1,5.1,0,0,0-1.17-2.25,5,5,0,0,0-2.46-.37V151.2c1-.06,1.62-.09,2-.09a5.14,5.14,0,0,1,2.75.71c.76.47,1.47,1.64,2.14,3.52a11.29,11.29,0,0,0,1.24,2.77,1.77,1.77,0,0,0,1.39.61v-7.49h4.82v7.49a1.67,1.67,0,0,0,1.4-.6,11.61,11.61,0,0,0,1.24-2.78c.65-1.85,1.35-3,2.09-3.5a5.12,5.12,0,0,1,2.86-.73c.33,0,1,0,1.93.09v3.21a5,5,0,0,0-2.45.37,4.9,4.9,0,0,0-1.17,2.25q-.86,2.52-2.43,3.12,2.11.56,4.08,4.35l2.59,5.05h-5.21l-2.29-5.29a6.72,6.72,0,0,0-1.15-1.94,2.28,2.28,0,0,0-1.49-.58v7.81Z" transform="translate(-377.64 11.96)" style="fill:#7a923c"/><path d="M615.22,163.72l4.83.81a8,8,0,0,1-2.94,4.05,8.69,8.69,0,0,1-5,1.39q-4.79,0-7.08-3.13a10.52,10.52,0,0,1-1.81-6.31,10.13,10.13,0,0,1,2.38-7.13,7.85,7.85,0,0,1,6-2.58,8.15,8.15,0,0,1,6.46,2.7c1.57,1.8,2.33,4.56,2.26,8.27H608.16a5,5,0,0,0,1.17,3.36,3.7,3.7,0,0,0,2.8,1.19,2.9,2.9,0,0,0,1.91-.62A3.84,3.84,0,0,0,615.22,163.72Zm.27-4.9a4.65,4.65,0,0,0-1.08-3.2,3.51,3.51,0,0,0-5.14.06,4.48,4.48,0,0,0-1,3.14Z" transform="translate(-377.64 11.96)" style="fill:#7a923c"/><path d="M621.62,151.23h16.57v3.92h-5.86v14.4h-4.85v-14.4h-5.86Z" transform="translate(-377.64 11.96)" style="fill:#7a923c"/><path d="M656.6,156.65l-4.78.86a3.44,3.44,0,0,0-1.09-2.15,3.28,3.28,0,0,0-2.22-.73,3.63,3.63,0,0,0-2.89,1.25,6.39,6.39,0,0,0-1.08,4.18c0,2.18.37,3.71,1.1,4.61a3.59,3.59,0,0,0,2.94,1.35,3.29,3.29,0,0,0,2.26-.79,4.67,4.67,0,0,0,1.24-2.7l4.76.81a8.4,8.4,0,0,1-2.84,4.95,8.81,8.81,0,0,1-5.64,1.68,8.39,8.39,0,0,1-6.41-2.54,11.54,11.54,0,0,1,0-14.08,8.48,8.48,0,0,1,6.48-2.53,8.83,8.83,0,0,1,5.32,1.44A7.93,7.93,0,0,1,656.6,156.65Z" transform="translate(-377.64 11.96)" style="fill:#7a923c"/><path d="M676,151.23v18.32h-4.82V162h-.45a5,5,0,0,0-2.3.4,5.43,5.43,0,0,0-1.63,1.72l-.29.36-3.19,5.12h-5.65l3.47-5.31c1-1.52,1.89-2.39,2.69-2.62a4.6,4.6,0,0,1-3.3-1.55,5.22,5.22,0,0,1-1.27-3.63,5.34,5.34,0,0,1,.84-3,4.18,4.18,0,0,1,2.22-1.72,13.93,13.93,0,0,1,4.14-.46Zm-4.82,3.12h-3.47a4.93,4.93,0,0,0-2.69.55,2.05,2.05,0,0,0-.77,1.8,2,2,0,0,0,.88,1.81,5.59,5.59,0,0,0,2.88.55h3.17Z" transform="translate(-377.64 11.96)" style="fill:#7a923c"/><path d="M682.79,163l-1.26-12.83v-5.94h5.24v5.94L685.53,163Zm-1,6.52v-4.84h4.84v4.84Z" transform="translate(-377.64 11.96)" style="fill:#7a923c"/><path d="M421.85,42.65a25.53,25.53,0,0,1,11,4.53,9.08,9.08,0,0,1,2,1.9A8,8,0,0,1,436,51.15a8.9,8.9,0,0,1,.46,2.36c0,.85.07,1.77.07,2.78v2a10.49,10.49,0,0,1-.17,1.9,5.46,5.46,0,0,1-.61,1.68,4,4,0,0,1-1.31,1.36,26,26,0,0,1-8.18,3.51,54.37,54.37,0,0,1-9.55,1.46,58.13,58.13,0,0,1-7.54,0l2.53-35.94L434,29.75v7.94l-12.27-.25.15,5.26Zm-2,16.66c2.69.09,4.66-.3,5.89-1.17a3.24,3.24,0,0,0,1.56-3,5.86,5.86,0,0,0-2.05-3.41,11.09,11.09,0,0,0-4.77-2.53Z" transform="translate(-377.64 11.96)" style="fill:#d86600"/><path d="M468.05,30.48l11.4,33.11-12.08,4.19L465,60.47h-9.35l-2.19,7.16-11.88-5.55,12.12-30.67Zm-4,22.35-3.55-8.62-3.66,8.47Z" transform="translate(-377.64 11.96)" style="fill:#d86600"/><path d="M482.47,67.78l7.84-36.08,14.41-1.22,13,30.34-12.17,1.46L500,46.45l-2.68,20.21Z" transform="translate(-377.64 11.96)" style="fill:#d86600"/><path d="M547.08,30.48l11.39,33.11L546.4,67.78,544,60.47h-9.35l-2.19,7.16-11.88-5.55,12.12-30.67Zm-4,22.35-3.55-8.62-3.65,8.47Z" transform="translate(-377.64 11.96)" style="fill:#d86600"/><path d="M561.49,67.78l7.84-36.08,14.41-1.22,13,30.34-12.17,1.46L579,46.45l-2.68,20.21Z" transform="translate(-377.64 11.96)" style="fill:#d86600"/><path d="M626.1,30.48l11.39,33.11-12.07,4.19L623,60.47h-9.35l-2.19,7.16-11.88-5.55,12.13-30.67Zm-4,22.35-3.56-8.62-3.65,8.47Z" transform="translate(-377.64 11.96)" style="fill:#d86600"/><path d="M672,31.12l3.11,32.52-11.15,2.63-.83-17.72-9.59,19.23-13-3.36.73-32.14h11.15L650.74,48.5l9.59-17,11.64-1Zm-20.7-11,16.17-.49-1,6.24-15.19,1.46Z" transform="translate(-377.64 11.96)" style="fill:#d86600"/><path d="M709.16,31.36l8.18,7.89-9.93,10.56,10,10.57-10.51,7.25L695.82,55,696,66.9l-12.27.88L681.85,31,696,30.48l.1,18.16Z" transform="translate(-377.64 11.96)" style="fill:#d86600"/><path d="M746.8,30.48l11.4,33.11-12.08,4.19-2.39-7.31h-9.34l-2.2,7.16-11.88-5.55,12.13-30.67Zm-4,22.35-3.56-8.62-3.65,8.47Z" transform="translate(-377.64 11.96)" style="fill:#d86600"/></g></svg>