<svg id="Слой_1" data-name="Слой 1" xmlns="http://www.w3.org/2000/svg" viewBox="0 0 431.49 407.69"><title>bear</title><rect x="8.97" y="4.79" width="422.52" height="402.9" rx="12" ry="12" style="fill:#3a301f"/><rect width="422.52" height="402.9" rx="12" ry="12" style="fill:#fff"/><path d="M407,99.65h4.78v16.84L422,99.65h5.09v25.29h-4.78V108.43l-10.23,16.51H407Z" transform="translate(-374.75 59)" style="fill:#7a923c"/><path d="M432.16,106.62h4.47V121h5.57v-14.4h4.47V121h5.64v-14.4h4.47V121h2v8.75h-3.92v-4.83H432.16Z" transform="translate(-374.75 59)" style="fill:#7a923c"/><path d="M462,106.62h4.66v11.51l7.45-11.51h4.76v18.32h-4.66V113.23l-7.55,11.71H462Z" transform="translate(-374.75 59)" style="fill:#7a923c"/><path d="M481.62,106.62h16.57v3.92h-5.86v14.4h-4.85v-14.4h-5.86Z" transform="translate(-374.75 59)" style="fill:#7a923c"/><path d="M511.7,119.11l4.83.81a8,8,0,0,1-2.94,4,8.69,8.69,0,0,1-5,1.38q-4.77,0-7.07-3.12a10.47,10.47,0,0,1-1.81-6.31,10.11,10.11,0,0,1,2.38-7.14,7.86,7.86,0,0,1,6-2.57,8.17,8.17,0,0,1,6.45,2.69c1.58,1.81,2.33,4.56,2.26,8.28H504.65a4.87,4.87,0,0,0,1.17,3.35,3.67,3.67,0,0,0,2.79,1.2,3,3,0,0,0,1.92-.62A3.77,3.77,0,0,0,511.7,119.11Zm.28-4.9a4.7,4.7,0,0,0-1.09-3.2,3.49,3.49,0,0,0-5.14.06,4.48,4.48,0,0,0-1,3.14Z" transform="translate(-374.75 59)" style="fill:#7a923c"/><path d="M541.1,99.65h4.81V109a6.05,6.05,0,0,1,2.11-2,5.65,5.65,0,0,1,2.79-.68,5.58,5.58,0,0,1,4.82,2.86,12.14,12.14,0,0,1,1.87,6.82,10.75,10.75,0,0,1-2.09,6.72,6.13,6.13,0,0,1-5,2.73,4.8,4.8,0,0,1-2.43-.64,6.9,6.9,0,0,1-2.11-1.93v9.13H541.1v-9.13a7.54,7.54,0,0,1-2.25,1.93,5.3,5.3,0,0,1-2.55.64,5.79,5.79,0,0,1-4.9-2.74,11.69,11.69,0,0,1-1.93-6.9,10.38,10.38,0,0,1,2.21-6.81c1.47-1.8,3.06-2.69,4.78-2.69a5,5,0,0,1,2.55.65,6.56,6.56,0,0,1,2.09,2Zm-3.25,10.26a2.84,2.84,0,0,0-2.35,1.62,7.93,7.93,0,0,0-1,4.25,8.35,8.35,0,0,0,.94,4.26,2.73,2.73,0,0,0,2.34,1.61,2.84,2.84,0,0,0,2.4-1.61,8.41,8.41,0,0,0,1-4.38,7.15,7.15,0,0,0-1.07-4.38A2.94,2.94,0,0,0,537.85,109.91Zm11.34,0a2.76,2.76,0,0,0-2.42,1.73,9.11,9.11,0,0,0-.93,4.34,7.49,7.49,0,0,0,1,4.13,2.82,2.82,0,0,0,2.36,1.53,2.77,2.77,0,0,0,2.34-1.73,8,8,0,0,0,1-4.07,9,9,0,0,0-.9-4.21A2.71,2.71,0,0,0,549.19,110Z" transform="translate(-374.75 59)" style="fill:#7a923c"/><path d="M565.09,112.21l-4.4-.79a6.86,6.86,0,0,1,2.56-3.94,9.35,9.35,0,0,1,5.38-1.27,11.66,11.66,0,0,1,4.83.76,4.82,4.82,0,0,1,2.23,2,9.88,9.88,0,0,1,.65,4.34l-.05,5.66a20.14,20.14,0,0,0,.23,3.56,10.73,10.73,0,0,0,.87,2.46H572.6c-.13-.32-.28-.8-.47-1.43-.08-.29-.14-.48-.17-.57a8.73,8.73,0,0,1-2.66,1.81,7.64,7.64,0,0,1-3,.6,6.27,6.27,0,0,1-4.46-1.53,5.46,5.46,0,0,1-.88-6.65,4.77,4.77,0,0,1,2.08-1.86,15.67,15.67,0,0,1,3.85-1.13,26.22,26.22,0,0,0,4.71-1.2v-.48a2.51,2.51,0,0,0-.69-2,4.12,4.12,0,0,0-2.61-.6,3.43,3.43,0,0,0-2,.51A3.53,3.53,0,0,0,565.09,112.21Zm6.49,3.93a27.23,27.23,0,0,1-3,.74,8.72,8.72,0,0,0-2.64.85,2,2,0,0,0-1,1.71,2.37,2.37,0,0,0,.76,1.76,2.67,2.67,0,0,0,1.93.74,4.25,4.25,0,0,0,2.51-.86,3.07,3.07,0,0,0,1.15-1.61,9.35,9.35,0,0,0,.19-2.36Z" transform="translate(-374.75 59)" style="fill:#7a923c"/><path d="M580.93,106.62h4.85v6.71h6.93v-6.71h4.87v18.32h-4.87v-7.69h-6.93v7.69h-4.85Z" transform="translate(-374.75 59)" style="fill:#7a923c"/><path d="M613.07,119.11l4.83.81a8,8,0,0,1-2.94,4,8.69,8.69,0,0,1-5,1.38c-3.19,0-5.54-1-7.07-3.12a10.47,10.47,0,0,1-1.82-6.31,10.12,10.12,0,0,1,2.39-7.14,7.85,7.85,0,0,1,6-2.57,8.17,8.17,0,0,1,6.45,2.69c1.57,1.81,2.33,4.56,2.26,8.28H606a4.92,4.92,0,0,0,1.18,3.35,3.64,3.64,0,0,0,2.79,1.2,3,3,0,0,0,1.92-.62A3.9,3.9,0,0,0,613.07,119.11Zm.27-4.9a4.65,4.65,0,0,0-1.08-3.2,3.49,3.49,0,0,0-5.14.06,4.48,4.48,0,0,0-1,3.14Z" transform="translate(-374.75 59)" style="fill:#7a923c"/><path d="M622,106.62h4.52v2.69a6.74,6.74,0,0,1,2.38-2.24,6.51,6.51,0,0,1,3.33-.86,7,7,0,0,1,5.42,2.5,10.13,10.13,0,0,1,2.22,7,10.45,10.45,0,0,1-2.24,7.13,7,7,0,0,1-5.44,2.54,6.23,6.23,0,0,1-2.75-.6,9.22,9.22,0,0,1-2.59-2.07v9.23H622Zm4.8,8.85A7,7,0,0,0,628,120a3.74,3.74,0,0,0,3,1.48,3.5,3.5,0,0,0,2.81-1.36,7,7,0,0,0,1.12-4.44,6.63,6.63,0,0,0-1.16-4.28,3.57,3.57,0,0,0-2.86-1.4,3.7,3.7,0,0,0-2.95,1.38A6.11,6.11,0,0,0,626.77,115.47Z" transform="translate(-374.75 59)" style="fill:#7a923c"/><path d="M643.55,106.62h4.52v2.69a6.74,6.74,0,0,1,2.38-2.24,6.51,6.51,0,0,1,3.33-.86,7,7,0,0,1,5.42,2.5,10.13,10.13,0,0,1,2.22,7c0,3.06-.74,5.43-2.24,7.13a7,7,0,0,1-5.43,2.54,6.24,6.24,0,0,1-2.76-.6,9.22,9.22,0,0,1-2.59-2.07v9.23h-4.85Zm4.8,8.85a7,7,0,0,0,1.22,4.56,3.74,3.74,0,0,0,3,1.48,3.5,3.5,0,0,0,2.81-1.36,7,7,0,0,0,1.12-4.44,6.63,6.63,0,0,0-1.16-4.28,3.57,3.57,0,0,0-2.86-1.4,3.7,3.7,0,0,0-3,1.38A6.11,6.11,0,0,0,648.35,115.47Z" transform="translate(-374.75 59)" style="fill:#7a923c"/><path d="M665.13,106.62h4.52v2.69a6.74,6.74,0,0,1,2.38-2.24,6.51,6.51,0,0,1,3.33-.86,7,7,0,0,1,5.42,2.5,10.13,10.13,0,0,1,2.22,7c0,3.06-.74,5.43-2.24,7.13a7,7,0,0,1-5.43,2.54,6.2,6.2,0,0,1-2.75-.6,9.11,9.11,0,0,1-2.6-2.07v9.23h-4.85Zm4.8,8.85a7.08,7.08,0,0,0,1.22,4.56,3.74,3.74,0,0,0,3,1.48,3.5,3.5,0,0,0,2.81-1.36,7,7,0,0,0,1.12-4.44,6.63,6.63,0,0,0-1.16-4.28,3.57,3.57,0,0,0-2.86-1.4,3.71,3.71,0,0,0-2.95,1.38A6.11,6.11,0,0,0,669.93,115.47Z" transform="translate(-374.75 59)" style="fill:#7a923c"/><path d="M686.71,106.62h4.52v2.69a6.74,6.74,0,0,1,2.38-2.24,6.51,6.51,0,0,1,3.33-.86,7,7,0,0,1,5.42,2.5,10.13,10.13,0,0,1,2.22,7c0,3.06-.74,5.43-2.24,7.13a7,7,0,0,1-5.43,2.54,6.2,6.2,0,0,1-2.75-.6,9.11,9.11,0,0,1-2.6-2.07v9.23h-4.85Zm4.8,8.85a7.08,7.08,0,0,0,1.22,4.56,3.74,3.74,0,0,0,3,1.48,3.48,3.48,0,0,0,2.81-1.36,7,7,0,0,0,1.12-4.44,6.63,6.63,0,0,0-1.15-4.28,3.59,3.59,0,0,0-2.87-1.4,3.71,3.71,0,0,0-3,1.38A6.11,6.11,0,0,0,691.51,115.47Z" transform="translate(-374.75 59)" style="fill:#7a923c"/><path d="M708.24,106.62h4.85v6.71H720v-6.71h4.86v18.32H720v-7.69h-6.94v7.69h-4.85Z" transform="translate(-374.75 59)" style="fill:#7a923c"/><path d="M729.81,106.62h4.84v7.61h4.87a18,18,0,0,1,4.37.4,4.67,4.67,0,0,1,2.55,1.77,5.11,5.11,0,0,1,1,3.21,4.62,4.62,0,0,1-1.83,4,9.29,9.29,0,0,1-5.49,1.34H729.81Zm4.84,15.25h4.51a4.55,4.55,0,0,0,2.55-.55,2,2,0,0,0,.79-1.8,1.84,1.84,0,0,0-1-1.82,9.72,9.72,0,0,0-3.69-.49h-3.14Zm15.6-15.25h4.85v18.32h-4.85Z" transform="translate(-374.75 59)" style="fill:#7a923c"/><path d="M770.55,119.11l4.83.81a8,8,0,0,1-2.94,4,8.69,8.69,0,0,1-5,1.38q-4.77,0-7.07-3.12a10.47,10.47,0,0,1-1.81-6.31,10.11,10.11,0,0,1,2.38-7.14,7.86,7.86,0,0,1,6-2.57,8.15,8.15,0,0,1,6.45,2.69c1.58,1.81,2.33,4.56,2.26,8.28H763.5a4.87,4.87,0,0,0,1.17,3.35,3.67,3.67,0,0,0,2.79,1.2,3,3,0,0,0,1.92-.62A3.77,3.77,0,0,0,770.55,119.11Zm.28-4.9a4.7,4.7,0,0,0-1.09-3.2,3.49,3.49,0,0,0-5.14.06,4.48,4.48,0,0,0-1,3.14Z" transform="translate(-374.75 59)" style="fill:#7a923c"/><path d="M538.75,154.43l-4.78.87a3.44,3.44,0,0,0-1.09-2.16,3.33,3.33,0,0,0-2.22-.73,3.63,3.63,0,0,0-2.89,1.25,6.42,6.42,0,0,0-1.08,4.19c0,2.17.37,3.71,1.1,4.6a3.59,3.59,0,0,0,2.94,1.35A3.29,3.29,0,0,0,533,163a4.73,4.73,0,0,0,1.24-2.7l4.76.81a8.46,8.46,0,0,1-2.84,5,8.87,8.87,0,0,1-5.64,1.67,8.39,8.39,0,0,1-6.41-2.54,11.54,11.54,0,0,1,0-14.08,8.48,8.48,0,0,1,6.48-2.53,8.83,8.83,0,0,1,5.32,1.44A8,8,0,0,1,538.75,154.43Z" transform="translate(-374.75 59)" style="fill:#7a923c"/><path d="M541.3,157.92a10,10,0,0,1,1.19-4.68,8.27,8.27,0,0,1,3.38-3.45,10,10,0,0,1,4.87-1.19,9.14,9.14,0,0,1,6.81,2.7,9.34,9.34,0,0,1,2.66,6.82,9.45,9.45,0,0,1-2.68,6.9,9.07,9.07,0,0,1-6.75,2.73,10.64,10.64,0,0,1-4.81-1.14,7.86,7.86,0,0,1-3.48-3.34A11.13,11.13,0,0,1,541.3,157.92Zm5,.26a6,6,0,0,0,1.3,4.17,4.22,4.22,0,0,0,6.37,0,6.13,6.13,0,0,0,1.29-4.21,6,6,0,0,0-1.29-4.14,4.22,4.22,0,0,0-6.37,0A6.05,6.05,0,0,0,546.27,158.18Z" transform="translate(-374.75 59)" style="fill:#7a923c"/><path d="M564.06,149h10.61a8.19,8.19,0,0,1,4.88,1.19,4.15,4.15,0,0,1,1.62,3.58,4.31,4.31,0,0,1-3.12,4.2,4.76,4.76,0,0,1,2.83,1.74,4.63,4.63,0,0,1,.93,2.79,4.34,4.34,0,0,1-1.57,3.48,7,7,0,0,1-4.64,1.34H564.06Zm4.88,7.6h3.12a7,7,0,0,0,3.27-.57,1.91,1.91,0,0,0,1-1.79,1.71,1.71,0,0,0-.94-1.65,7.89,7.89,0,0,0-3.34-.49h-3.12Zm0,7.61h3.83a6.72,6.72,0,0,0,3-.5,1.85,1.85,0,0,0,1-1.79,1.87,1.87,0,0,0-1.09-1.86,11.48,11.48,0,0,0-4.23-.51h-2.48Z" transform="translate(-374.75 59)" style="fill:#7a923c"/><path d="M595.87,161.51l4.83.81a7.88,7.88,0,0,1-2.94,4,8.62,8.62,0,0,1-5,1.39c-3.19,0-5.54-1-7.07-3.12a10.48,10.48,0,0,1-1.81-6.32,10.11,10.11,0,0,1,2.38-7.13,7.82,7.82,0,0,1,6-2.58,8.14,8.14,0,0,1,6.45,2.7c1.57,1.8,2.33,4.56,2.26,8.27H588.81a4.93,4.93,0,0,0,1.18,3.36,3.65,3.65,0,0,0,2.79,1.2,3,3,0,0,0,1.92-.62A3.87,3.87,0,0,0,595.87,161.51Zm.28-4.9a4.68,4.68,0,0,0-1.09-3.2,3.49,3.49,0,0,0-5.14.06,4.47,4.47,0,0,0-1,3.14Z" transform="translate(-374.75 59)" style="fill:#7a923c"/><path d="M602.27,149h16.58v3.91H613v14.41h-4.85V152.93h-5.86Z" transform="translate(-374.75 59)" style="fill:#7a923c"/><path d="M621.78,149h4.85v7.6h4.86a18,18,0,0,1,4.38.41,4.74,4.74,0,0,1,2.55,1.77,5.17,5.17,0,0,1,1,3.21,4.62,4.62,0,0,1-1.83,4,9.26,9.26,0,0,1-5.48,1.34H621.78Zm4.85,15.25h4.5a4.54,4.54,0,0,0,2.55-.56,2,2,0,0,0,.8-1.79,1.84,1.84,0,0,0-1-1.82,9.42,9.42,0,0,0-3.68-.49h-3.14ZM642.22,149h4.85v18.32h-4.85Z" transform="translate(-374.75 59)" style="fill:#7a923c"/><path d="M653.82,160.82,652.56,148v-5.93h5.24V148l-1.24,12.84Zm-1.06,6.52v-4.85h4.85v4.85Z" transform="translate(-374.75 59)" style="fill:#7a923c"/><path d="M429.65-22.74,440-23.36v11.51l7.63-.13V-23.45l11.87-.67L458,8,447.67,9.12V-3.06L440-2.88V9.17l-9,.89Z" transform="translate(-374.75 59)" style="fill:#d86600"/><path d="M486.14-24.12l.27,9.64-12.5-.18.09,3.57,6.38-.36.05,5.89h-5.8l.13,4.11,12.05-.72.13,11.56L464,10.06l-1.92-34.14Z" transform="translate(-374.75 59)" style="fill:#d86600"/><path d="M505.68-23.72l6.47-.18.27,9.37,8-10.13,9.78,5.31-12,12.41,9.19,10.53-8,6L512.24-1,512,9l-5.85.18L506-.43,499.48,8,489.22,2.7,499.7-8.41l-8.39-11.92,8.57-3.21L506.13-14Z" transform="translate(-374.75 59)" style="fill:#d86600"/><path d="M531.88,10.86l-1-6.06L563.29,5l-1,5.84ZM550.4-26.75l11.91-.67L560.7,4.66,550.4,5.82l.71-25.34-8.84.58.54,24.85-9.06.89L532.41-26Z" transform="translate(-374.75 59)" style="fill:#d86600"/><path d="M588.55-24.12,599,6.22l-11.07,3.84-2.18-6.69h-8.57l-2,6.56L564.27,4.84l11.11-28.11ZM584.89-3.64l-3.26-7.9-3.35,7.77Z" transform="translate(-374.75 59)" style="fill:#d86600"/><path d="M601.76-22.74l10.39-.62v11.51l7.63-.13V-23.45l11.87-.67L630.09,8,619.78,9.12V-3.06l-7.63.18V9.17l-9,.89Z" transform="translate(-374.75 59)" style="fill:#d86600"/><path d="M634.2-22.74l10.4-.62v11.51l7.63-.13V-23.45l11.87-.67L662.53,8l-10.3,1.16V-3.06l-7.63.18V9.17l-9,.89Z" transform="translate(-374.75 59)" style="fill:#d86600"/><path d="M677.39-12.65A23.52,23.52,0,0,1,687.48-8.5a7.94,7.94,0,0,1,1.87,1.74,7.13,7.13,0,0,1,1,1.89,7.6,7.6,0,0,1,.42,2.17c.05.77.07,1.62.07,2.54V1.65a8.86,8.86,0,0,1-.16,1.74,5.15,5.15,0,0,1-.55,1.54A3.68,3.68,0,0,1,689,6.18a23,23,0,0,1-7.5,3.21q-2.18.54-4.35.87a39.55,39.55,0,0,1-4.39.43c-1.49.08-2.81.13-4,.13s-2.12,0-2.92-.09l2.27-32.93,9.69-1.16-.41,10.75ZM675.56,2.61q3.71.14,5.4-1.07a3,3,0,0,0,1.43-2.77,4.38,4.38,0,0,0-.53-1.56,6.57,6.57,0,0,0-1.34-1.61,10.15,10.15,0,0,0-4.38-2.27Zm17.36,7.54,11.34-.4.62-32.93-12.81-.9Z" transform="translate(-374.75 59)" style="fill:#d86600"/><path d="M735.27-23.54l2.86,29.81L727.91,8.68l-.76-16.24-8.79,17.62L706.44,7l.67-29.45h10.22L715.81-7.61l8.8-15.62,10.66-.89Zm-19-10.09,14.81-.44-.89,5.71L716.31-27Z" transform="translate(-374.75 59)" style="fill:#d86600"/><path d="M516.77,51l1,12.63-10.58-.89-2.05-33.29,23.29,1.07,0,9.55-13-.89Z" transform="translate(-374.75 59)" style="fill:#d86600"/><path d="M565.28,48q-.54,7.85-6.07,11.73a20.09,20.09,0,0,1-11.92,3.84,18.76,18.76,0,0,1-11.55-3.93c-3.45-2.55-5.13-6.44-5-11.64a16.74,16.74,0,0,1,1.92-7.63,22,22,0,0,1,4.82-5.94,20.65,20.65,0,0,1,6.43-3.79,17.53,17.53,0,0,1,6.92-1.25,16.6,16.6,0,0,1,4.19.94,15.27,15.27,0,0,1,5,2.94A16.7,16.7,0,0,1,564,39,20.1,20.1,0,0,1,565.28,48Zm-12.54-4a.72.72,0,0,0,.31-.23,1.15,1.15,0,0,0,.27-.27,3.31,3.31,0,0,0,1.11-2.45,4.72,4.72,0,0,0-.75-2.37l-.23-.2-.27-.24-.2-.2a1.16,1.16,0,0,0-.24-.2,6.11,6.11,0,0,0-2.32-.9,4.16,4.16,0,0,0-2.68.41,4.35,4.35,0,0,0-1,.53,8.29,8.29,0,0,0-.76.54,3.63,3.63,0,0,0-1.16,2.63,4.5,4.5,0,0,0,.94,2.5,1.19,1.19,0,0,1,.15.18l.16.18a.87.87,0,0,1,.18.11,1.19,1.19,0,0,1,.18.15,4.84,4.84,0,0,0,6.33-.22Z" transform="translate(-374.75 59)" style="fill:#d86600"/><path d="M596.51,38.53q-8.7-1.47-12.63,1.92t-3.48,7.14q.45,3.79,5.05,5.8t13-2.23l4.64,9.37a22.06,22.06,0,0,1-10,3,32.35,32.35,0,0,1-11.29-1.07,24,24,0,0,1-9.37-5,11.81,11.81,0,0,1-4.11-8.79,15,15,0,0,1,2.9-9.91,22,22,0,0,1,7.85-6.64,24.8,24.8,0,0,1,10.18-2.64,18.4,18.4,0,0,1,9.73,2Z" transform="translate(-374.75 59)" style="fill:#d86600"/><path d="M606.15,31.17l30.75-1.74.53,15.44-11.73-.63,3.52,19.37L614.14,62l2.59-17.4-10.85.31Z" transform="translate(-374.75 59)" style="fill:#d86600"/><path d="M650.73,40.58a23.4,23.4,0,0,1,10.09,4.15,8.6,8.6,0,0,1,1.87,1.74,7.18,7.18,0,0,1,1,1.9,7.88,7.88,0,0,1,.42,2.17c.05.77.07,1.62.07,2.54v1.81a8.86,8.86,0,0,1-.16,1.74,4.91,4.91,0,0,1-.56,1.54,3.74,3.74,0,0,1-1.2,1.25,24.08,24.08,0,0,1-7.5,3.21A49.84,49.84,0,0,1,646.05,64a52.23,52.23,0,0,1-6.92,0L641.45,31l9.68-1.16-.4,10.76ZM648.9,55.85q3.71.13,5.4-1.08A3,3,0,0,0,655.73,52a5.42,5.42,0,0,0-1.87-3.13,10.34,10.34,0,0,0-4.38-2.32Z" transform="translate(-374.75 59)" style="fill:#d86600"/></svg>