<svg id="Слой_1" data-name="Слой 1" xmlns="http://www.w3.org/2000/svg" viewBox="0 0 495.87 542.5"><title>chimney</title><rect x="10.31" y="6.38" width="485.56" height="536.12" rx="12" ry="12" style="fill:#3a301f"/><rect width="485.56" height="536.12" rx="12" ry="12" style="fill:#fff"/><path d="M114.16,290V264.7h5.11v10h10v-10h5.11V290h-5.11V278.93h-10V290Z" transform="translate(-51.57 -103)" style="fill:#7a923c"/><path d="M150.23,284.16l4.83.81a8,8,0,0,1-2.94,4,8.69,8.69,0,0,1-5,1.39c-3.18,0-5.54-1.05-7.07-3.13a10.45,10.45,0,0,1-1.81-6.31,10.07,10.07,0,0,1,2.38-7.13,7.84,7.84,0,0,1,6-2.58,8.11,8.11,0,0,1,6.45,2.7c1.58,1.8,2.33,4.55,2.26,8.27H143.18a4.85,4.85,0,0,0,1.17,3.35,3.68,3.68,0,0,0,2.8,1.2,2.94,2.94,0,0,0,1.91-.62A3.77,3.77,0,0,0,150.23,284.16Zm.28-4.9a4.7,4.7,0,0,0-1.09-3.2A3.33,3.33,0,0,0,146.9,275a3.37,3.37,0,0,0-2.62,1.15,4.48,4.48,0,0,0-1,3.14Z" transform="translate(-51.57 -103)" style="fill:#7a923c"/><path d="M168,280.57a9.8,9.8,0,0,1,1.19-4.67,8.08,8.08,0,0,1,3.37-3.45,9.92,9.92,0,0,1,4.87-1.19,9.18,9.18,0,0,1,6.82,2.7,9.32,9.32,0,0,1,2.65,6.82,9.42,9.42,0,0,1-2.68,6.89,9.08,9.08,0,0,1-6.75,2.74,10.67,10.67,0,0,1-4.81-1.14,7.84,7.84,0,0,1-3.47-3.34A11.06,11.06,0,0,1,168,280.57Zm5,.26a6.1,6.1,0,0,0,1.3,4.18,4.24,4.24,0,0,0,6.37,0,6.15,6.15,0,0,0,1.29-4.21,6,6,0,0,0-1.29-4.14,4.22,4.22,0,0,0-6.37,0A6.06,6.06,0,0,0,172.93,280.83Z" transform="translate(-51.57 -103)" style="fill:#7a923c"/><path d="M187.61,271.67h16.58v3.92h-5.86V290h-4.85v-14.4h-5.87Z" transform="translate(-51.57 -103)" style="fill:#7a923c"/><path d="M207.14,271.67h10.61a8.24,8.24,0,0,1,4.88,1.19,4.14,4.14,0,0,1,1.63,3.59,4.3,4.3,0,0,1-3.13,4.19,4.73,4.73,0,0,1,2.83,1.74,4.66,4.66,0,0,1,.93,2.8,4.33,4.33,0,0,1-1.57,3.47,6.93,6.93,0,0,1-4.64,1.34H207.14Zm4.88,7.61h3.13a7,7,0,0,0,3.27-.57,1.93,1.93,0,0,0,1-1.8,1.71,1.71,0,0,0-1-1.64,7.81,7.81,0,0,0-3.33-.49H212Zm0,7.61h3.83a6.86,6.86,0,0,0,3-.5,2.15,2.15,0,0,0-.13-3.65,11.56,11.56,0,0,0-4.23-.51H212Z" transform="translate(-51.57 -103)" style="fill:#7a923c"/><path d="M229.66,271.67h16.23V290h-4.83V275.6h-6.61v8.23a9.62,9.62,0,0,1-.72,4.41,3.82,3.82,0,0,1-1.61,1.67,7.47,7.47,0,0,1-2.83.39,19.49,19.49,0,0,1-3-.31v-3.57l.81,0q.76.06,1.17.06c.66,0,1.06-.22,1.21-.65a15.79,15.79,0,0,0,.23-3.6Z" transform="translate(-51.57 -103)" style="fill:#7a923c"/><path d="M260.93,284.16l4.83.81a8,8,0,0,1-2.94,4,8.69,8.69,0,0,1-5,1.39c-3.18,0-5.54-1.05-7.07-3.13a10.45,10.45,0,0,1-1.81-6.31,10.07,10.07,0,0,1,2.38-7.13,7.84,7.84,0,0,1,6-2.58,8.13,8.13,0,0,1,6.45,2.7c1.58,1.8,2.33,4.55,2.26,8.27H253.88a4.85,4.85,0,0,0,1.17,3.35,3.67,3.67,0,0,0,2.79,1.2,3,3,0,0,0,1.92-.62A3.77,3.77,0,0,0,260.93,284.16Zm.28-4.9a4.7,4.7,0,0,0-1.09-3.2,3.51,3.51,0,0,0-5.14.06,4.48,4.48,0,0,0-1,3.14Z" transform="translate(-51.57 -103)" style="fill:#7a923c"/><path d="M269.78,271.67h4.83v7.49a2.49,2.49,0,0,0,1.71-.74,10.1,10.1,0,0,0,1.21-2.64,7,7,0,0,1,2-3.47,5,5,0,0,1,2.9-.76q.56,0,1.92.09v3.2a5.19,5.19,0,0,0-2.45.37,5,5,0,0,0-1.15,2.26c-.57,1.69-1.38,2.73-2.44,3.12q2.29.63,3.89,4c.05.12.12.24.19.37l2.7,5.05h-5.21l-2.41-5.29a6.36,6.36,0,0,0-1.29-2.07,2.47,2.47,0,0,0-1.61-.45V290h-4.83Z" transform="translate(-51.57 -103)" style="fill:#7a923c"/><path d="M291.28,277.26l-4.4-.79a6.83,6.83,0,0,1,2.55-3.94,9.35,9.35,0,0,1,5.38-1.27,11.63,11.63,0,0,1,4.83.76,4.91,4.91,0,0,1,2.24,2,10.07,10.07,0,0,1,.64,4.34l0,5.66a20.14,20.14,0,0,0,.23,3.56,10.33,10.33,0,0,0,.88,2.46h-4.8c-.13-.32-.28-.8-.47-1.43a5.86,5.86,0,0,0-.17-.57,8.81,8.81,0,0,1-2.65,1.81,7.69,7.69,0,0,1-3,.61,6.24,6.24,0,0,1-4.46-1.54,5.09,5.09,0,0,1-1.63-3.88,5.15,5.15,0,0,1,.74-2.77,4.82,4.82,0,0,1,2.08-1.86,15.67,15.67,0,0,1,3.85-1.13,27.37,27.37,0,0,0,4.71-1.19v-.49a2.51,2.51,0,0,0-.69-2,4.11,4.11,0,0,0-2.6-.59,3.53,3.53,0,0,0-2,.5A3.58,3.58,0,0,0,291.28,277.26Zm6.48,3.93a27.23,27.23,0,0,1-2.95.74,8.94,8.94,0,0,0-2.64.85,2,2,0,0,0-.95,1.71,2.41,2.41,0,0,0,.76,1.76,2.68,2.68,0,0,0,1.94.74,4.25,4.25,0,0,0,2.5-.86,3,3,0,0,0,1.15-1.61,9.35,9.35,0,0,0,.19-2.36Z" transform="translate(-51.57 -103)" style="fill:#7a923c"/><path d="M307.18,271.67h4.66v11.51l7.45-11.51h4.76V290H319.4V278.28L311.84,290h-4.66Zm11.61-7.43h2.36a5.43,5.43,0,0,1-1.64,3.68,5.88,5.88,0,0,1-7.47,0,5.48,5.48,0,0,1-1.65-3.68h2.36a2.64,2.64,0,0,0,.87,1.85,4,4,0,0,0,4.31,0A2.68,2.68,0,0,0,318.79,264.24Z" transform="translate(-51.57 -103)" style="fill:#7a923c"/><path d="M326.85,271.67h16.58v3.92h-5.87V290h-4.85v-14.4h-5.86Z" transform="translate(-51.57 -103)" style="fill:#7a923c"/><path d="M356.93,284.16l4.83.81a8,8,0,0,1-2.94,4,8.67,8.67,0,0,1-5,1.39c-3.18,0-5.54-1.05-7.07-3.13a10.45,10.45,0,0,1-1.81-6.31,10.07,10.07,0,0,1,2.38-7.13,7.84,7.84,0,0,1,6-2.58,8.11,8.11,0,0,1,6.45,2.7c1.58,1.8,2.33,4.55,2.26,8.27H349.88a4.85,4.85,0,0,0,1.17,3.35,3.68,3.68,0,0,0,2.8,1.2,2.94,2.94,0,0,0,1.91-.62A3.77,3.77,0,0,0,356.93,284.16Zm.28-4.9a4.7,4.7,0,0,0-1.09-3.2A3.33,3.33,0,0,0,353.6,275a3.37,3.37,0,0,0-2.62,1.15,4.48,4.48,0,0,0-1,3.14Z" transform="translate(-51.57 -103)" style="fill:#7a923c"/><path d="M392,280.69l5,1.57a11.14,11.14,0,0,1-3.79,6.15,11.92,11.92,0,0,1-15-1.43q-3.24-3.44-3.24-9.41,0-6.31,3.26-9.81a11.16,11.16,0,0,1,8.57-3.49A10.52,10.52,0,0,1,394.3,267a10,10,0,0,1,2.59,4.66l-5.06,1.21a5.22,5.22,0,0,0-5.33-4.25,5.76,5.76,0,0,0-4.56,2q-1.76,2-1.75,6.54c0,3.2.57,5.47,1.72,6.83a5.61,5.61,0,0,0,4.49,2,5.1,5.1,0,0,0,3.5-1.3A7.45,7.45,0,0,0,392,280.69Z" transform="translate(-51.57 -103)" style="fill:#7a923c"/><path d="M405.36,277.26l-4.4-.79a6.83,6.83,0,0,1,2.55-3.94,9.35,9.35,0,0,1,5.38-1.27,11.63,11.63,0,0,1,4.83.76,4.91,4.91,0,0,1,2.24,2,10.07,10.07,0,0,1,.64,4.34l-.05,5.66a20.14,20.14,0,0,0,.23,3.56,10.33,10.33,0,0,0,.88,2.46h-4.8c-.13-.32-.28-.8-.46-1.43-.09-.29-.14-.48-.18-.57a8.81,8.81,0,0,1-2.65,1.81,7.69,7.69,0,0,1-3,.61,6.24,6.24,0,0,1-4.46-1.54,5.09,5.09,0,0,1-1.63-3.88,5.15,5.15,0,0,1,.74-2.77,4.82,4.82,0,0,1,2.08-1.86,15.67,15.67,0,0,1,3.85-1.13,27.37,27.37,0,0,0,4.71-1.19v-.49a2.51,2.51,0,0,0-.69-2,4.11,4.11,0,0,0-2.6-.59,3.55,3.55,0,0,0-2,.5A3.58,3.58,0,0,0,405.36,277.26Zm6.48,3.93a27.23,27.23,0,0,1-2.95.74,8.94,8.94,0,0,0-2.64.85,2,2,0,0,0-.95,1.71,2.41,2.41,0,0,0,.76,1.76A2.68,2.68,0,0,0,408,287a4.25,4.25,0,0,0,2.5-.86,3,3,0,0,0,1.15-1.61,9.35,9.35,0,0,0,.19-2.36Z" transform="translate(-51.57 -103)" style="fill:#7a923c"/><path d="M421.19,271.67H426v6.71H433v-6.71h4.86V290H433V282.3H426V290h-4.85Z" transform="translate(-51.57 -103)" style="fill:#7a923c"/><path d="M440.55,271.67h16.58v3.92h-5.87V290h-4.85v-14.4h-5.86Z" transform="translate(-51.57 -103)" style="fill:#7a923c"/><path d="M458.61,271.67h5.16l4.38,13,4.28-13h5L471,289.3l-1.16,3.19a12.92,12.92,0,0,1-1.21,2.45,5.27,5.27,0,0,1-1.33,1.37,5.73,5.73,0,0,1-1.85.82,9.34,9.34,0,0,1-2.47.3,12.66,12.66,0,0,1-2.75-.3l-.43-3.79a10.73,10.73,0,0,0,2.06.22,3.05,3.05,0,0,0,2.5-1,6.88,6.88,0,0,0,1.24-2.53Z" transform="translate(-51.57 -103)" style="fill:#7a923c"/><path d="M157.34,325.64v-4.85h9.52v4.85Z" transform="translate(-51.57 -103)" style="fill:#7a923c"/><path d="M179.35,314.07H184v11.5l7.45-11.5h4.76v18.32h-4.65V320.67L184,332.39h-4.66Z" transform="translate(-51.57 -103)" style="fill:#7a923c"/><path d="M201.09,314.07h4.47v14.4h5.57v-14.4h4.47v14.4h5.64v-14.4h4.47v14.4h2v8.75h-3.92v-4.83H201.09Z" transform="translate(-51.57 -103)" style="fill:#7a923c"/><path d="M230.88,314.07h4.66v11.5l7.45-11.5h4.76v18.32h-4.66V320.67l-7.55,11.72h-4.66Z" transform="translate(-51.57 -103)" style="fill:#7a923c"/><path d="M250.55,314.07h16.57V318h-5.86v14.41h-4.85V318h-5.86Z" transform="translate(-51.57 -103)" style="fill:#7a923c"/><path d="M280.63,326.56l4.83.81a7.88,7.88,0,0,1-2.94,4,8.62,8.62,0,0,1-5,1.39q-4.77,0-7.07-3.12a10.47,10.47,0,0,1-1.81-6.31,10.11,10.11,0,0,1,2.38-7.14,7.84,7.84,0,0,1,6-2.58,8.13,8.13,0,0,1,6.45,2.7q2.37,2.7,2.26,8.27H273.58a4.88,4.88,0,0,0,1.17,3.36,3.67,3.67,0,0,0,2.79,1.2,3,3,0,0,0,1.92-.62A3.81,3.81,0,0,0,280.63,326.56Zm.28-4.9a4.68,4.68,0,0,0-1.09-3.2,3.49,3.49,0,0,0-5.14.06,4.47,4.47,0,0,0-1,3.14Z" transform="translate(-51.57 -103)" style="fill:#7a923c"/><path d="M314.63,332.39H300.76v4.83h-3.93v-8.8h2a10.74,10.74,0,0,0,2.06-4.31,46.42,46.42,0,0,0,1-10h14.79v14.35h2v8.8h-3.95Zm-2.81-4,0-10.37H306q-.29,7.59-2.41,10.37Z" transform="translate(-51.57 -103)" style="fill:#7a923c"/><path d="M325.54,319.66l-4.4-.8a6.81,6.81,0,0,1,2.55-3.93,9.35,9.35,0,0,1,5.38-1.28,11.57,11.57,0,0,1,4.83.77,4.8,4.8,0,0,1,2.24,1.95,10,10,0,0,1,.64,4.34l0,5.66a19.08,19.08,0,0,0,.24,3.56,10.14,10.14,0,0,0,.87,2.46H333c-.13-.32-.28-.8-.46-1.43-.09-.29-.14-.48-.18-.57a8.81,8.81,0,0,1-2.65,1.81,7.68,7.68,0,0,1-3,.6,6.24,6.24,0,0,1-4.46-1.53,5.11,5.11,0,0,1-1.63-3.89,5.23,5.23,0,0,1,.74-2.76,4.84,4.84,0,0,1,2.08-1.87,16.6,16.6,0,0,1,3.85-1.13,25.58,25.58,0,0,0,4.71-1.19V320a2.5,2.5,0,0,0-.69-2,4.09,4.09,0,0,0-2.6-.6,3.47,3.47,0,0,0-2,.51A3.58,3.58,0,0,0,325.54,319.66Zm6.48,3.93a29.86,29.86,0,0,1-2.95.74,8.94,8.94,0,0,0-2.64.85,2,2,0,0,0-.95,1.7,2.39,2.39,0,0,0,.76,1.76,2.65,2.65,0,0,0,1.94.75,4.19,4.19,0,0,0,2.5-.87,3,3,0,0,0,1.15-1.6,9.4,9.4,0,0,0,.19-2.36Z" transform="translate(-51.57 -103)" style="fill:#7a923c"/><path d="M342.87,314.07h16.24v18.32h-4.83V318h-6.61v8.23a9.49,9.49,0,0,1-.73,4.41,3.73,3.73,0,0,1-1.6,1.66,7.27,7.27,0,0,1-2.83.4,20.67,20.67,0,0,1-3.05-.31v-3.57l.81,0c.5,0,.9,0,1.17,0,.66,0,1.06-.21,1.21-.64a16.06,16.06,0,0,0,.22-3.6Z" transform="translate(-51.57 -103)" style="fill:#7a923c"/><path d="M364.11,314.07H369v7.6h4.86a17.61,17.61,0,0,1,4.4.42,4.63,4.63,0,0,1,2.55,1.78,5.22,5.22,0,0,1,1,3.19,4.61,4.61,0,0,1-1.82,4,9.19,9.19,0,0,1-5.46,1.34h-10.4ZM369,329.32h4.52c1.41,0,2.32-.23,2.71-.69a2.42,2.42,0,0,0,.6-1.64,1.84,1.84,0,0,0-1-1.83,9.27,9.27,0,0,0-3.65-.5H369Z" transform="translate(-51.57 -103)" style="fill:#7a923c"/><path d="M385.6,314.07h4.46v14.4h5.62v-14.4h4.47v14.4h5.6v-14.4h4.47v18.32H385.6Z" transform="translate(-51.57 -103)" style="fill:#7a923c"/><path d="M425.78,326.56l4.83.81a7.88,7.88,0,0,1-2.94,4,8.62,8.62,0,0,1-5,1.39q-4.77,0-7.07-3.12a10.47,10.47,0,0,1-1.81-6.31,10.11,10.11,0,0,1,2.38-7.14,7.84,7.84,0,0,1,6-2.58,8.11,8.11,0,0,1,6.45,2.7q2.37,2.7,2.26,8.27H418.73A4.88,4.88,0,0,0,419.9,328a3.67,3.67,0,0,0,2.79,1.2,3,3,0,0,0,1.92-.62A3.81,3.81,0,0,0,425.78,326.56Zm.28-4.9a4.68,4.68,0,0,0-1.09-3.2,3.34,3.34,0,0,0-2.52-1.1,3.38,3.38,0,0,0-2.62,1.16,4.47,4.47,0,0,0-1,3.14Z" transform="translate(-51.57 -103)" style="fill:#7a923c"/><path d="M436.72,325.87,435.46,313V307.1h5.24V313l-1.24,12.84Zm-1.05,6.52v-4.85h4.84v4.85Z" transform="translate(-51.57 -103)" style="fill:#7a923c"/><path d="M158.8,148.46c1.61-.36,3.22-.66,4.84-.92s3.28-.45,5-.6q5.08-.41,12,2.46c3.15,1.34,4.86,3.34,5.13,6s-.83,4.72-3.39,6.2q6.06.72,8.74,3.62a8.27,8.27,0,0,1,2.33,6.25,9.58,9.58,0,0,1-3.17,6.11,12.87,12.87,0,0,1-8,3.26c-1.93.18-3.76.27-5.49.29a49.19,49.19,0,0,1-5-.2q-2.37-.22-4.8-.63t-5-1ZM171.25,159l1.79-.18a9.86,9.86,0,0,0,1.6-.31c1-.27,1.57-.75,1.66-1.43.11-1.28-.66-2.06-2.32-2.32-.84-.15-1.52-.25-2.06-.29a4.1,4.1,0,0,0-1.2,0Zm1.92,13.83a23.07,23.07,0,0,1,3.84-.27c1.9-.09,2.81-.92,2.72-2.5q-.14-2.72-3.21-2.94c-1-.09-1.85-.14-2.5-.16a8.16,8.16,0,0,0-1.47.07Z" transform="translate(-51.57 -103)" style="fill:#d86600"/><path d="M207.22,147.52l6.25,9.55,8-10.13,9.77,5.27-12,12.45,9.19,10.53-8,5.93-7.14-10.48-6.47,8.43-10.27-5.31L207,162.65l-8.39-11.91Z" transform="translate(-51.57 -103)" style="fill:#d86600"/><path d="M268.62,165.55q-.54,7.86-6.07,11.74a20.14,20.14,0,0,1-11.91,3.83,18.76,18.76,0,0,1-11.56-3.92q-5.18-3.84-5-11.65a16.74,16.74,0,0,1,1.92-7.63,21.57,21.57,0,0,1,4.82-5.93,20.33,20.33,0,0,1,6.42-3.8,17.56,17.56,0,0,1,6.92-1.25,16.51,16.51,0,0,1,4.19.94,15.48,15.48,0,0,1,5.05,2.94,16.82,16.82,0,0,1,4,5.67A20.1,20.1,0,0,1,268.62,165.55Zm-12.54-4a.73.73,0,0,0,.31-.22,1.15,1.15,0,0,0,.27-.27,3.31,3.31,0,0,0,1.12-2.46,4.67,4.67,0,0,0-.76-2.36,2.3,2.3,0,0,0-.22-.2l-.27-.25-.2-.2a2.43,2.43,0,0,0-.25-.2,6,6,0,0,0-2.32-.89,4.1,4.1,0,0,0-2.68.4,5.05,5.05,0,0,0-1,.54,8.69,8.69,0,0,0-.76.53,3.65,3.65,0,0,0-1.16,2.63,4.55,4.55,0,0,0,.94,2.5l.16.18a1.19,1.19,0,0,0,.15.18l.18.11.18.16a4.89,4.89,0,0,0,2.9,1.07,4.79,4.79,0,0,0,3.44-1.3Z" transform="translate(-51.57 -103)" style="fill:#d86600"/><path d="M271.79,181.93l-1-6.07,32.44.22-1,5.85Zm18.52-37.62,11.91-.67-1.6,32.08-10.31,1.17.71-25.35-8.83.58.53,24.85-9.06.9L272.32,145Z" transform="translate(-51.57 -103)" style="fill:#d86600"/><path d="M328.37,181.93l-1-6.07,32.45.22-1,5.85Zm18.52-37.62,11.91-.67-1.6,32.08-10.31,1.17.71-25.35-8.83.58L339.3,177l-9.06.9L328.91,145Z" transform="translate(-51.57 -103)" style="fill:#d86600"/><path d="M360.77,181.12,368,148.06l13.21-1.12,11.91,27.8-11.15,1.34-5.13-14.5-2.46,18.52Z" transform="translate(-51.57 -103)" style="fill:#d86600"/><path d="M418.73,167.92l-2.23,0-10,13.16-10.8-8.07,12.54-7.86a17,17,0,0,1-5.09-5,6.29,6.29,0,0,1-.67-6q.88-2.24,4.28-3.84a32.65,32.65,0,0,1,7.46-2.41c1.42-.27,2.84-.48,4.26-.65s2.86-.27,4.35-.33a38.13,38.13,0,0,1,7.58.35l-1.6,31.51-10.58,1.34Zm.72-15.31q-3.75.13-5.27,1.25a2.51,2.51,0,0,0-1.34,2.5,4.73,4.73,0,0,0,2,2.68,10.14,10.14,0,0,0,4.55,1.69Z" transform="translate(-51.57 -103)" style="fill:#d86600"/><path d="M115.29,209.59q-8.7-1.47-12.62,1.92t-3.48,7.14c.29,2.53,2,4.47,5,5.8s7.41.6,13-2.23l4.64,9.37a21.93,21.93,0,0,1-10,3,32.35,32.35,0,0,1-11.29-1.07,23.91,23.91,0,0,1-9.37-5,11.81,11.81,0,0,1-4.11-8.79,15,15,0,0,1,2.9-9.9,22,22,0,0,1,7.86-6.65,24.55,24.55,0,0,1,10.17-2.63,18.49,18.49,0,0,1,9.73,2Z" transform="translate(-51.57 -103)" style="fill:#d86600"/><path d="M148.94,200.49l10.44,30.35-11.06,3.83L146.13,228h-8.57l-2,6.56-10.89-5.09,11.12-28.11ZM145.28,221,142,213.08l-3.34,7.76Z" transform="translate(-51.57 -103)" style="fill:#d86600"/><path d="M162.15,201.87l10.4-.62v11.51l7.63-.13V201.16l11.87-.67-1.57,32.09-10.3,1.16V221.55l-7.63.18v12.05l-9,.89Z" transform="translate(-51.57 -103)" style="fill:#d86600"/><path d="M194.86,202.23l30.74-1.74.54,15.44-11.74-.62,3.53,19.36-15.08-1.6,2.58-17.41-10.84.32Z" transform="translate(-51.57 -103)" style="fill:#d86600"/><path d="M253.05,200.49l10.44,30.35-11.07,3.83L250.23,228h-8.56l-2,6.56-10.89-5.09,11.11-28.11ZM249.39,221l-3.26-7.89-3.35,7.76Z" transform="translate(-51.57 -103)" style="fill:#d86600"/><path d="M315.43,201.29l7.5,7.23-9.11,9.69,9.15,9.68-9.64,6.65L303.2,223l.14,10.89-11.25.8L290.4,201l12.94-.49.09,16.65Z" transform="translate(-51.57 -103)" style="fill:#d86600"/><path d="M325.65,234.67l7.18-33.06L346,200.49,358,228.29l-11.16,1.34-5.13-14.5-2.45,18.52Z" transform="translate(-51.57 -103)" style="fill:#d86600"/><path d="M384.86,200.49l10.45,30.35-11.07,3.83L382.05,228h-8.57l-2,6.56-10.89-5.09,11.11-28.11ZM381.2,221,378,213.08l-3.35,7.76Z" transform="translate(-51.57 -103)" style="fill:#d86600"/><path d="M398.07,210.26l7.63-5.8,6.25,8.3,4.95-12.27,10.45,1.74L410,234.67l-7.67-5.57,6.29-10.22Z" transform="translate(-51.57 -103)" style="fill:#d86600"/><path d="M458,209.59q-8.7-1.47-12.63,1.92t-3.48,7.14c.3,2.53,2,4.47,5,5.8s7.41.6,13-2.23l4.64,9.37a21.89,21.89,0,0,1-9.95,3,32.35,32.35,0,0,1-11.29-1.07,24,24,0,0,1-9.37-5,11.81,11.81,0,0,1-4.11-8.79,15,15,0,0,1,2.9-9.9,22.08,22.08,0,0,1,7.86-6.65,24.55,24.55,0,0,1,10.17-2.63,18.47,18.47,0,0,1,9.73,2Z" transform="translate(-51.57 -103)" style="fill:#d86600"/><path d="M491.6,200.49l10.45,30.35L491,234.67,488.79,228h-8.57l-2,6.56-10.89-5.09,11.11-28.11ZM487.94,221l-3.25-7.89-3.35,7.76Z" transform="translate(-51.57 -103)" style="fill:#d86600"/><path d="M273.37,414l-1,1.34C272.7,414.91,273,414.46,273.37,414Z" transform="translate(-51.57 -103)" style="fill:#02263c"/><path d="M291.42,390.47l-.07.08a1.48,1.48,0,0,1,.13-.08Z" transform="translate(-51.57 -103)" style="fill:#02263c"/></svg>