<svg id="Слой_1" data-name="Слой 1" xmlns="http://www.w3.org/2000/svg" viewBox="0 0 431.49 499.49"><title>deer</title><rect x="8.97" y="5.87" width="422.52" height="493.62" rx="12" ry="12" style="fill:#3a301f"/><rect width="422.52" height="493.62" rx="12" ry="12" style="fill:#fff"/><path d="M34,133.55V108.26h5.11v10h10v-10h5.11v25.29H49.13V122.5h-10v11.05Z" transform="translate(28.57 -14.13)" style="fill:#7a923c"/><path d="M70.09,127.72l4.83.81A7.91,7.91,0,0,1,72,132.58,8.62,8.62,0,0,1,67,134q-4.77,0-7.07-3.12a10.5,10.5,0,0,1-1.81-6.32,10.11,10.11,0,0,1,2.38-7.13,7.82,7.82,0,0,1,6-2.58,8.14,8.14,0,0,1,6.45,2.7q2.37,2.7,2.26,8.27H63a4.88,4.88,0,0,0,1.17,3.36,3.67,3.67,0,0,0,2.79,1.2,3,3,0,0,0,1.92-.63A3.83,3.83,0,0,0,70.09,127.72Zm.28-4.9a4.72,4.72,0,0,0-1.09-3.2,3.51,3.51,0,0,0-5.14.06,4.48,4.48,0,0,0-1,3.14Z" transform="translate(28.57 -14.13)" style="fill:#7a923c"/><path d="M102.69,107.68H106a5.49,5.49,0,0,1-1.15,3.32q-1,1.13-4.89,1.13l-.93,0H98.4a11.52,11.52,0,0,0-3.76.51,4.53,4.53,0,0,0-2.37,2,9.26,9.26,0,0,0-1,4.72,7.41,7.41,0,0,1,2.77-3,8.26,8.26,0,0,1,10.15,1.81,9.44,9.44,0,0,1,2.5,6.49,9.25,9.25,0,0,1-2.63,6.61A9,9,0,0,1,97.23,134a9.39,9.39,0,0,1-5.13-1.4A7.72,7.72,0,0,1,89,128.75c-.64-1.62-1-4.29-1-8,0-4.39.8-7.55,2.42-9.47s4.44-2.88,8.46-2.88h2.45A1.37,1.37,0,0,0,102.69,107.68Zm-9.76,16.85a5.89,5.89,0,0,0,1.25,4A3.91,3.91,0,0,0,97.24,130a4,4,0,0,0,3.2-1.51,6.72,6.72,0,0,0,0-7.82,4,4,0,0,0-6.22,0A5.79,5.79,0,0,0,92.93,124.53Z" transform="translate(28.57 -14.13)" style="fill:#7a923c"/><path d="M108,115.23h5.16l4.38,13,4.28-13h5l-6.47,17.63-1.16,3.2a13.23,13.23,0,0,1-1.21,2.45,5.43,5.43,0,0,1-1.33,1.37,6,6,0,0,1-1.85.82,9.79,9.79,0,0,1-2.47.29,13.23,13.23,0,0,1-2.75-.29l-.43-3.8a10.7,10.7,0,0,0,2,.23,3.08,3.08,0,0,0,2.51-1,6.91,6.91,0,0,0,1.24-2.52Z" transform="translate(28.57 -14.13)" style="fill:#7a923c"/><path d="M144.22,133.55H130.35v4.83h-3.94v-8.79h2a10.73,10.73,0,0,0,2-4.32,46.83,46.83,0,0,0,1-10H146.2v14.36h2v8.79h-3.95Zm-2.81-4V119.22h-5.86q-.3,7.59-2.42,10.37Z" transform="translate(28.57 -14.13)" style="fill:#7a923c"/><path d="M151.6,115.23h4.85v7.61h4.86a17.61,17.61,0,0,1,4.4.42,4.6,4.6,0,0,1,2.56,1.78,5.26,5.26,0,0,1,1,3.18,4.63,4.63,0,0,1-1.82,4,9.2,9.2,0,0,1-5.46,1.33H151.6Zm4.85,15.25H161c1.41,0,2.32-.23,2.72-.69a2.44,2.44,0,0,0,.59-1.63,1.84,1.84,0,0,0-1-1.83,9.06,9.06,0,0,0-3.64-.5h-3.16Z" transform="translate(28.57 -14.13)" style="fill:#7a923c"/><path d="M167.94,115.23h16.58v3.92h-5.87v14.4H173.8v-14.4h-5.86Z" transform="translate(28.57 -14.13)" style="fill:#7a923c"/><path d="M198,127.72l4.83.81a7.91,7.91,0,0,1-2.94,4.05,8.6,8.6,0,0,1-5,1.39q-4.77,0-7.07-3.12a10.5,10.5,0,0,1-1.81-6.32,10.11,10.11,0,0,1,2.38-7.13,7.84,7.84,0,0,1,6-2.58,8.11,8.11,0,0,1,6.45,2.7q2.37,2.7,2.26,8.27H191a4.88,4.88,0,0,0,1.17,3.36,3.68,3.68,0,0,0,2.8,1.2,3,3,0,0,0,1.91-.63A3.77,3.77,0,0,0,198,127.72Zm.28-4.9a4.67,4.67,0,0,0-1.09-3.2,3.33,3.33,0,0,0-2.52-1.09,3.37,3.37,0,0,0-2.62,1.15,4.48,4.48,0,0,0-1,3.14Z" transform="translate(28.57 -14.13)" style="fill:#7a923c"/><path d="M215.76,124.14a9.86,9.86,0,0,1,1.19-4.68,8.13,8.13,0,0,1,3.37-3.45,10.06,10.06,0,0,1,4.87-1.19,9.15,9.15,0,0,1,6.82,2.7,9.32,9.32,0,0,1,2.65,6.82,9.42,9.42,0,0,1-2.68,6.89,9,9,0,0,1-6.75,2.74,10.67,10.67,0,0,1-4.81-1.14,7.79,7.79,0,0,1-3.47-3.34A11,11,0,0,1,215.76,124.14Zm5,.25a6.1,6.1,0,0,0,1.29,4.18,4.13,4.13,0,0,0,3.19,1.45,4.08,4.08,0,0,0,3.18-1.45,6.15,6.15,0,0,0,1.29-4.21,6,6,0,0,0-1.29-4.14,4.05,4.05,0,0,0-3.18-1.45,4.1,4.1,0,0,0-3.19,1.45A6.09,6.09,0,0,0,220.73,124.39Z" transform="translate(28.57 -14.13)" style="fill:#7a923c"/><path d="M238.89,115.23h16.23v18.32h-4.83V119.17h-6.6v8.23a9.41,9.41,0,0,1-.73,4.4,3.81,3.81,0,0,1-1.6,1.67,7.47,7.47,0,0,1-2.83.4,19.6,19.6,0,0,1-3.05-.32V130l.81,0c.5,0,.89,0,1.17,0,.65,0,1.06-.22,1.21-.65a16,16,0,0,0,.22-3.59Z" transform="translate(28.57 -14.13)" style="fill:#7a923c"/><path d="M270.17,127.72l4.83.81a7.91,7.91,0,0,1-2.94,4.05,8.62,8.62,0,0,1-5,1.39q-4.78,0-7.08-3.12a10.57,10.57,0,0,1-1.81-6.32,10.15,10.15,0,0,1,2.38-7.13,7.85,7.85,0,0,1,6-2.58,8.15,8.15,0,0,1,6.46,2.7c1.57,1.8,2.33,4.56,2.26,8.27H263.11a5,5,0,0,0,1.17,3.36,3.68,3.68,0,0,0,2.8,1.2,2.91,2.91,0,0,0,1.91-.63A3.84,3.84,0,0,0,270.17,127.72Zm.27-4.9a4.67,4.67,0,0,0-1.08-3.2,3.51,3.51,0,0,0-5.14.06,4.48,4.48,0,0,0-1,3.14Z" transform="translate(28.57 -14.13)" style="fill:#7a923c"/><path d="M279,115.23h4.84v6.71h6.94v-6.71h4.86v18.32H290.8v-7.69h-6.94v7.69H279Z" transform="translate(28.57 -14.13)" style="fill:#7a923c"/><path d="M311.16,127.72l4.83.81a8,8,0,0,1-2.95,4.05,8.59,8.59,0,0,1-5,1.39q-4.78,0-7.08-3.12a10.57,10.57,0,0,1-1.81-6.32,10.15,10.15,0,0,1,2.38-7.13,7.85,7.85,0,0,1,6-2.58,8.11,8.11,0,0,1,6.45,2.7q2.37,2.7,2.26,8.27H304.1a4.88,4.88,0,0,0,1.17,3.36,3.68,3.68,0,0,0,2.8,1.2,2.91,2.91,0,0,0,1.91-.63A3.84,3.84,0,0,0,311.16,127.72Zm.27-4.9a4.67,4.67,0,0,0-1.09-3.2,3.33,3.33,0,0,0-2.51-1.09,3.38,3.38,0,0,0-2.63,1.15,4.43,4.43,0,0,0-1,3.14Z" transform="translate(28.57 -14.13)" style="fill:#7a923c"/><path d="M319.87,115.23h6L330.43,128,335,115.23h6v18.32h-4.12V121.5l-4.47,12.05h-4.14L324,121.5v12.05h-4.14Z" transform="translate(28.57 -14.13)" style="fill:#7a923c"/><path d="M57.07,169.21v-4.85h9.52v4.85Z" transform="translate(28.57 -14.13)" style="fill:#7a923c"/><path d="M79.08,157.63h4.66v11.51l7.45-11.51H96V176H91.29V164.24L83.74,176H79.08Z" transform="translate(28.57 -14.13)" style="fill:#7a923c"/><path d="M100.81,157.63h4.47V172h5.57v-14.4h4.47V172H121v-14.4h4.47V172h2v8.75H123.5V176H100.81Z" transform="translate(28.57 -14.13)" style="fill:#7a923c"/><path d="M130.61,157.63h4.66v11.51l7.45-11.51h4.76V176h-4.66V164.24L135.27,176h-4.66Z" transform="translate(28.57 -14.13)" style="fill:#7a923c"/><path d="M150.27,157.63h16.58v3.92H161V176h-4.85v-14.4h-5.87Z" transform="translate(28.57 -14.13)" style="fill:#7a923c"/><path d="M180.36,170.12l4.83.81a8,8,0,0,1-2.94,4,8.69,8.69,0,0,1-5,1.39c-3.19,0-5.54-1.05-7.07-3.13a10.47,10.47,0,0,1-1.82-6.31,10.08,10.08,0,0,1,2.39-7.13,7.82,7.82,0,0,1,6-2.58,8.14,8.14,0,0,1,6.45,2.7c1.57,1.8,2.33,4.55,2.26,8.27H173.3a4.9,4.9,0,0,0,1.18,3.35,3.64,3.64,0,0,0,2.79,1.2,3,3,0,0,0,1.92-.62A3.9,3.9,0,0,0,180.36,170.12Zm.27-4.9a4.65,4.65,0,0,0-1.08-3.2,3.51,3.51,0,0,0-5.14.06,4.48,4.48,0,0,0-1,3.14Z" transform="translate(28.57 -14.13)" style="fill:#7a923c"/><path d="M200.52,157.63h16.24V176h-4.83V161.56h-6.61v8.23a9.62,9.62,0,0,1-.72,4.41,3.82,3.82,0,0,1-1.61,1.67,7.47,7.47,0,0,1-2.83.39,19.38,19.38,0,0,1-3-.31v-3.57l.81,0q.77.06,1.17.06c.66,0,1.06-.22,1.21-.65a16.06,16.06,0,0,0,.22-3.6Z" transform="translate(28.57 -14.13)" style="fill:#7a923c"/><path d="M218.9,157.63h5.16l4.38,13,4.28-13h5l-6.46,17.63-1.16,3.19a12.85,12.85,0,0,1-1.22,2.45,5.09,5.09,0,0,1-1.32,1.37,5.73,5.73,0,0,1-1.85.82,9.42,9.42,0,0,1-2.48.3,12.57,12.57,0,0,1-2.74-.3l-.43-3.79a10.63,10.63,0,0,0,2.05.22,3,3,0,0,0,2.5-1,6.74,6.74,0,0,0,1.25-2.53Z" transform="translate(28.57 -14.13)" style="fill:#7a923c"/><path d="M240.27,157.63h4.9V162a6.94,6.94,0,0,0,.27,2.24,2.53,2.53,0,0,0,1.14,1.26,4.19,4.19,0,0,0,2.2.52,8.51,8.51,0,0,0,2.89-.58v-7.82h4.85V176h-4.85v-7.31a18.45,18.45,0,0,1-4.31.76,8.27,8.27,0,0,1-4-1,5.22,5.22,0,0,1-2.43-2.45,10,10,0,0,1-.66-4Z" transform="translate(28.57 -14.13)" style="fill:#7a923c"/><path d="M261.23,157.63h4.45V172h5.63v-14.4h4.46V172h5.61v-14.4h4.47V176H261.23Z" transform="translate(28.57 -14.13)" style="fill:#7a923c"/><path d="M301.41,170.12l4.83.81a8,8,0,0,1-2.94,4,8.69,8.69,0,0,1-5,1.39c-3.19,0-5.54-1.05-7.07-3.13a10.47,10.47,0,0,1-1.81-6.31,10.07,10.07,0,0,1,2.38-7.13,7.82,7.82,0,0,1,6-2.58,8.14,8.14,0,0,1,6.45,2.7c1.57,1.8,2.33,4.55,2.26,8.27H294.35a4.9,4.9,0,0,0,1.18,3.35,3.65,3.65,0,0,0,2.79,1.2,3,3,0,0,0,1.92-.62A3.9,3.9,0,0,0,301.41,170.12Zm.27-4.9a4.65,4.65,0,0,0-1.08-3.2,3.51,3.51,0,0,0-5.14.06,4.48,4.48,0,0,0-1,3.14Z" transform="translate(28.57 -14.13)" style="fill:#7a923c"/><path d="M312.35,169.43l-1.26-12.83v-5.94h5.24v5.94l-1.24,12.83ZM311.29,176V171.1h4.85V176Z" transform="translate(28.57 -14.13)" style="fill:#7a923c"/><path d="M75.84,69.78l.45,10.75-9.73-1.16L64.28,46.44c.84-.06,1.82-.09,3-.09s2.44,0,3.93.14a41.86,41.86,0,0,1,8.74,1.29A23.56,23.56,0,0,1,87.44,51a6.7,6.7,0,0,1,3.22,5.8,10.18,10.18,0,0,1-4.73,8.88,23,23,0,0,1-10.09,4.15Zm-1.25-5.94A10.14,10.14,0,0,0,79,61.57a5.15,5.15,0,0,0,1.83-3.17,3,3,0,0,0-1.43-2.77q-1.69-1.2-5.4-1.07Z" transform="translate(28.57 -14.13)" style="fill:#d86600"/><path d="M93,56.12l7.63-5.8,6.25,8.3,4.95-12.27,10.44,1.74L105,80.53,97.31,75l6.29-10.21Z" transform="translate(28.57 -14.13)" style="fill:#d86600"/><path d="M124.84,81.34l-1-6.07,32.44.22-1,5.85Zm18.52-37.62,11.91-.67-1.6,32.08-10.31,1.16L144.07,51l-8.83.58.53,24.85-9.06.9-1.34-32.85Z" transform="translate(28.57 -14.13)" style="fill:#d86600"/><path d="M191.82,65q-.54,7.86-6.07,11.74a20.14,20.14,0,0,1-11.92,3.83,18.81,18.81,0,0,1-11.55-3.92q-5.17-3.84-5.05-11.65a16.74,16.74,0,0,1,1.92-7.63A22,22,0,0,1,164,51.39a20.65,20.65,0,0,1,6.43-3.79,17.52,17.52,0,0,1,6.91-1.25,16.57,16.57,0,0,1,4.2.94,15.44,15.44,0,0,1,5,2.94,16.7,16.7,0,0,1,4,5.67A20.1,20.1,0,0,1,191.82,65Zm-12.54-4a.72.72,0,0,0,.31-.23,1,1,0,0,0,.27-.26A3.33,3.33,0,0,0,181,58a4.66,4.66,0,0,0-.75-2.36l-.23-.2-.27-.25-.2-.2a1.59,1.59,0,0,0-.24-.2,6.1,6.1,0,0,0-2.32-.89,4.08,4.08,0,0,0-2.68.4,5.34,5.34,0,0,0-1,.53,8.29,8.29,0,0,0-.76.54A3.63,3.63,0,0,0,171.38,58a4.47,4.47,0,0,0,.94,2.5,1.19,1.19,0,0,1,.15.18l.16.18.18.11a1.29,1.29,0,0,1,.18.16,4.89,4.89,0,0,0,2.9,1.07,4.77,4.77,0,0,0,3.43-1.3Z" transform="translate(28.57 -14.13)" style="fill:#d86600"/><path d="M194.94,80.53l7.19-33.06,13.2-1.12,11.92,27.8-11.16,1.34L211,61l-2.45,18.52Z" transform="translate(28.57 -14.13)" style="fill:#d86600"/><path d="M240.55,57.51a23.19,23.19,0,0,1,10.08,4.15,8.2,8.2,0,0,1,1.88,1.74,7.22,7.22,0,0,1,1,1.89,7.89,7.89,0,0,1,.43,2.17c0,.77.06,1.62.06,2.54v1.81a9.72,9.72,0,0,1-.15,1.74,5.17,5.17,0,0,1-.56,1.54,3.68,3.68,0,0,1-1.21,1.25,23.66,23.66,0,0,1-7.49,3.21,49,49,0,0,1-8.75,1.34,52.26,52.26,0,0,1-6.92,0L231.26,48,241,46.8l-.4,10.75Zm-1.83,15.26q3.69.14,5.4-1.07a3,3,0,0,0,1.42-2.77,5.37,5.37,0,0,0-1.87-3.12,10.2,10.2,0,0,0-4.37-2.32Z" transform="translate(28.57 -14.13)" style="fill:#d86600"/><path d="M268.66,47.82a42.36,42.36,0,0,1,8.7-1.29,7.88,7.88,0,0,0,1.05-.13c.28-.06.59-.12.94-.16s.73-.07,1.18-.09,1,0,1.78,0a37.46,37.46,0,0,1,4.4.43q2.16.33,4.35.87a23.14,23.14,0,0,1,7.5,3.21,6.69,6.69,0,0,1,3.25,5.8,10.16,10.16,0,0,1-4.73,8.88,15.14,15.14,0,0,1-2.81,1.54c-1.07.46-2.18.88-3.34,1.25s-2.31.69-3.44,1-2.14.46-3,.58L284.05,81l-9.23-.09L274,70l-1.33-.13a20.19,20.19,0,0,1-5.18-1.41,26.1,26.1,0,0,1-4.91-2.74,10.38,10.38,0,0,1-4.73-8.88,6.88,6.88,0,0,1,3.26-5.8A23.79,23.79,0,0,1,268.66,47.82Zm-1.09,6.34a9,9,0,0,0-3.24,4c.39.36.83.78,1.32,1.27a8.9,8.9,0,0,0,1.74,1.34,7.42,7.42,0,0,0,2.25.87,6,6,0,0,0,2.86-.18l.22-8.16A8.46,8.46,0,0,0,267.57,54.16Zm18.72,9c.44-.11.93-.26,1.45-.44s1-.38,1.51-.6,1-.46,1.41-.7a4.66,4.66,0,0,0,1.07-.75,6.76,6.76,0,0,0,1.34-1.61,4.25,4.25,0,0,0,.53-1.56,3,3,0,0,0-1.42-2.77,3.61,3.61,0,0,0-1.12-.45c-.48-.11-1-.21-1.58-.29s-1.2-.11-1.86-.13l-1.91,0Z" transform="translate(28.57 -14.13)" style="fill:#d86600"/></svg>