<svg id="Слой_1" data-name="Слой 1" xmlns="http://www.w3.org/2000/svg" viewBox="0 0 495.87 621.72"><title>эльф</title><rect x="10.31" y="7.31" width="485.56" height="614.42" rx="12" ry="12" style="fill:#3a301f"/><rect width="485.56" height="614.42" rx="12" ry="12" style="fill:#fff"/><path d="M-56.17,209.94V184.65h5.11v10h10v-10h5.11v25.29h-5.11V198.89h-10v11.05Z" transform="translate(103.9 30)" style="fill:#7a923c"/><path d="M-30.82,191.62h4.65v11.51l7.46-11.51h4.76v18.32h-4.66V198.23l-7.56,11.71h-4.65Z" transform="translate(103.9 30)" style="fill:#7a923c"/><path d="M-9.55,191.62h4.9V196a7,7,0,0,0,.26,2.24,2.53,2.53,0,0,0,1.14,1.26A4.19,4.19,0,0,0-1,200a8.56,8.56,0,0,0,2.9-.58v-7.82H6.7v18.32H1.85v-7.31a18.62,18.62,0,0,1-4.31.76,8.31,8.31,0,0,1-4-1A5.23,5.23,0,0,1-8.9,200a10,10,0,0,1-.65-4Z" transform="translate(103.9 30)" style="fill:#7a923c"/><path d="M22.14,204.11l4.83.81A8,8,0,0,1,24,209a8.66,8.66,0,0,1-5,1.39q-4.78,0-7.08-3.12a10.57,10.57,0,0,1-1.81-6.32,10.09,10.09,0,0,1,2.38-7.13,7.85,7.85,0,0,1,6-2.58,8.11,8.11,0,0,1,6.45,2.7q2.37,2.7,2.26,8.27H15.08a4.88,4.88,0,0,0,1.17,3.36,3.7,3.7,0,0,0,2.8,1.19,2.92,2.92,0,0,0,1.91-.62A3.84,3.84,0,0,0,22.14,204.11Zm.27-4.9a4.65,4.65,0,0,0-1.09-3.2,3.33,3.33,0,0,0-2.51-1.09,3.38,3.38,0,0,0-2.63,1.15,4.43,4.43,0,0,0-1,3.14Z" transform="translate(103.9 30)" style="fill:#7a923c"/><path d="M30.85,191.62h6l4.55,12.77L46,191.62h6v18.32H47.86V197.88l-4.47,12.06H39.25L35,197.88v12.06H30.85Z" transform="translate(103.9 30)" style="fill:#7a923c"/><path d="M66.47,191.62h4.85v6.71h6.93v-6.71h4.87v18.32H78.25v-7.69H71.32v7.69H66.47Z" transform="translate(103.9 30)" style="fill:#7a923c"/><path d="M98.61,204.11l4.83.81A8,8,0,0,1,100.5,209a8.69,8.69,0,0,1-5,1.39c-3.19,0-5.54-1-7.07-3.12a10.5,10.5,0,0,1-1.82-6.32A10.09,10.09,0,0,1,89,193.79a7.82,7.82,0,0,1,6-2.58,8.14,8.14,0,0,1,6.45,2.7c1.57,1.8,2.33,4.56,2.26,8.27H91.55a4.93,4.93,0,0,0,1.18,3.36,3.67,3.67,0,0,0,2.79,1.19,3,3,0,0,0,1.92-.62A3.9,3.9,0,0,0,98.61,204.11Zm.27-4.9A4.65,4.65,0,0,0,97.8,196a3.51,3.51,0,0,0-5.14.06,4.48,4.48,0,0,0-1,3.14Z" transform="translate(103.9 30)" style="fill:#7a923c"/><path d="M117.6,191.62h6l4.56,12.77,4.59-12.77h6v18.32h-4.12V197.88l-4.47,12.06H126l-4.26-12.06v12.06H117.6Z" transform="translate(103.9 30)" style="fill:#7a923c"/><path d="M142,200.52a9.94,9.94,0,0,1,1.19-4.67,8.15,8.15,0,0,1,3.38-3.45,10,10,0,0,1,4.87-1.19,9.14,9.14,0,0,1,6.81,2.7,9.33,9.33,0,0,1,2.66,6.82,9.42,9.42,0,0,1-2.68,6.89,9.05,9.05,0,0,1-6.76,2.74,10.6,10.6,0,0,1-4.8-1.14,7.81,7.81,0,0,1-3.48-3.34A11.17,11.17,0,0,1,142,200.52Zm5,.26a6.1,6.1,0,0,0,1.29,4.18,4.23,4.23,0,0,0,6.38,0,6.15,6.15,0,0,0,1.28-4.21,6,6,0,0,0-1.28-4.14,4.23,4.23,0,0,0-6.38,0A6.07,6.07,0,0,0,147,200.78Z" transform="translate(103.9 30)" style="fill:#7a923c"/><path d="M164.52,191.62h12.37v3.92h-7.52v14.4h-4.85Z" transform="translate(103.9 30)" style="fill:#7a923c"/><path d="M177.14,191.62h5.15l4.39,13,4.27-13h5l-6.47,17.63-1.15,3.19a12.85,12.85,0,0,1-1.22,2.45,5.31,5.31,0,0,1-1.33,1.38,5.66,5.66,0,0,1-1.84.81,9.42,9.42,0,0,1-2.48.3,12.57,12.57,0,0,1-2.74-.3l-.43-3.79a10.63,10.63,0,0,0,2.05.22,3,3,0,0,0,2.5-1A6.73,6.73,0,0,0,184.1,210Z" transform="translate(103.9 30)" style="fill:#7a923c"/><path d="M208.7,191.62H225v18.32h-4.84v-14.4h-6.58v14.4H208.7Z" transform="translate(103.9 30)" style="fill:#7a923c"/><path d="M229.11,200.52a9.94,9.94,0,0,1,1.19-4.67,8.15,8.15,0,0,1,3.38-3.45,10,10,0,0,1,4.87-1.19,9.14,9.14,0,0,1,6.81,2.7,9.33,9.33,0,0,1,2.66,6.82,9.42,9.42,0,0,1-2.68,6.89,9.05,9.05,0,0,1-6.76,2.74,10.6,10.6,0,0,1-4.8-1.14,7.81,7.81,0,0,1-3.48-3.34A11.17,11.17,0,0,1,229.11,200.52Zm5,.26a6.1,6.1,0,0,0,1.29,4.18,4.23,4.23,0,0,0,6.38,0,6.2,6.2,0,0,0,1.28-4.21,6.05,6.05,0,0,0-1.28-4.14,4.23,4.23,0,0,0-6.38,0A6.07,6.07,0,0,0,234.08,200.78Z" transform="translate(103.9 30)" style="fill:#7a923c"/><path d="M251.49,191.62h6L262,204.39l4.59-12.77h6v18.32H268.5V197.88L264,209.94h-4.14l-4.26-12.06v12.06h-4.14Z" transform="translate(103.9 30)" style="fill:#7a923c"/><path d="M275.9,200.52a9.83,9.83,0,0,1,1.19-4.67,8.13,8.13,0,0,1,3.37-3.45,10.06,10.06,0,0,1,4.87-1.19,9.16,9.16,0,0,1,6.82,2.7,9.32,9.32,0,0,1,2.65,6.82,9.42,9.42,0,0,1-2.68,6.89,9,9,0,0,1-6.75,2.74,10.67,10.67,0,0,1-4.81-1.14,7.79,7.79,0,0,1-3.47-3.34A11.06,11.06,0,0,1,275.9,200.52Zm5,.26a6.1,6.1,0,0,0,1.29,4.18,4.13,4.13,0,0,0,3.19,1.45,4.08,4.08,0,0,0,3.18-1.45,6.15,6.15,0,0,0,1.29-4.21,6,6,0,0,0-1.29-4.14,4.05,4.05,0,0,0-3.18-1.45,4.1,4.1,0,0,0-3.19,1.45A6.07,6.07,0,0,0,280.87,200.78Z" transform="translate(103.9 30)" style="fill:#7a923c"/><path d="M297.15,191.62h4.9V196a6.94,6.94,0,0,0,.27,2.24,2.53,2.53,0,0,0,1.14,1.26,4.19,4.19,0,0,0,2.2.52,8.51,8.51,0,0,0,2.89-.58v-7.82h4.85v18.32h-4.85v-7.31a18.45,18.45,0,0,1-4.31.76,8.27,8.27,0,0,1-4-1,5.14,5.14,0,0,1-2.43-2.45,10,10,0,0,1-.66-4Z" transform="translate(103.9 30)" style="fill:#7a923c"/><path d="M318.33,191.62h4.85v7.61h4.87a18.25,18.25,0,0,1,4.4.41,4.68,4.68,0,0,1,2.55,1.79,5.19,5.19,0,0,1,1,3.18,4.67,4.67,0,0,1-1.82,4,9.24,9.24,0,0,1-5.46,1.33H318.33Zm4.85,15.25h4.52c1.42,0,2.32-.23,2.72-.69a2.45,2.45,0,0,0,.59-1.64,1.86,1.86,0,0,0-1-1.83,9.3,9.3,0,0,0-3.65-.5h-3.16Z" transform="translate(103.9 30)" style="fill:#7a923c"/><path d="M-3,245.59v-4.84H6.49v4.84Z" transform="translate(103.9 30)" style="fill:#7a923c"/><path d="M19,234h4.66v11.51L31.09,234h4.76v18.32H31.19V240.63l-7.55,11.71H19Z" transform="translate(103.9 30)" style="fill:#7a923c"/><path d="M40.71,234h4.47v14.4h5.57V234h4.47v14.4h5.64V234h4.47v14.4h2v8.75H63.4v-4.83H40.71Z" transform="translate(103.9 30)" style="fill:#7a923c"/><path d="M70.51,234h4.65v11.51L82.62,234h4.76v18.32H82.72V240.63l-7.56,11.71H70.51Z" transform="translate(103.9 30)" style="fill:#7a923c"/><path d="M90.17,234h16.58v3.92h-5.86v14.4H96v-14.4H90.17Z" transform="translate(103.9 30)" style="fill:#7a923c"/><path d="M120.26,246.51l4.83.81a8,8,0,0,1-2.94,4.05,8.69,8.69,0,0,1-5,1.38q-4.78,0-7.07-3.12a10.47,10.47,0,0,1-1.82-6.31,10.16,10.16,0,0,1,2.38-7.14,7.85,7.85,0,0,1,6-2.57,8.14,8.14,0,0,1,6.45,2.69c1.57,1.81,2.33,4.56,2.26,8.28H113.2a4.92,4.92,0,0,0,1.18,3.35,3.64,3.64,0,0,0,2.79,1.2,3,3,0,0,0,1.92-.62A3.9,3.9,0,0,0,120.26,246.51Zm.27-4.9a4.65,4.65,0,0,0-1.08-3.2,3.49,3.49,0,0,0-5.14.06,4.48,4.48,0,0,0-1,3.14Z" transform="translate(103.9 30)" style="fill:#7a923c"/><path d="M154.26,252.34H140.39v4.83h-3.93v-8.8h2a10.74,10.74,0,0,0,2.05-4.31,46.25,46.25,0,0,0,1-10h14.78v14.35h2v8.8h-4Zm-2.81-4,0-10.37H145.6q-.3,7.59-2.41,10.37Z" transform="translate(103.9 30)" style="fill:#7a923c"/><path d="M165.16,239.61l-4.4-.79a6.86,6.86,0,0,1,2.56-3.94,9.33,9.33,0,0,1,5.38-1.27,11.66,11.66,0,0,1,4.83.76,4.82,4.82,0,0,1,2.23,1.95,10,10,0,0,1,.65,4.34l0,5.66a20.14,20.14,0,0,0,.23,3.56,10.73,10.73,0,0,0,.87,2.46h-4.79c-.13-.32-.28-.8-.47-1.43-.08-.29-.14-.48-.17-.57a8.85,8.85,0,0,1-2.66,1.81,7.64,7.64,0,0,1-3,.6,6.27,6.27,0,0,1-4.46-1.53,5.46,5.46,0,0,1-.88-6.65,4.88,4.88,0,0,1,2.07-1.87,16.43,16.43,0,0,1,3.86-1.12,26.47,26.47,0,0,0,4.71-1.2v-.48a2.51,2.51,0,0,0-.69-2,4.12,4.12,0,0,0-2.61-.6,3.43,3.43,0,0,0-2,.51A3.53,3.53,0,0,0,165.16,239.61Zm6.49,3.93a27.23,27.23,0,0,1-3,.74,8.72,8.72,0,0,0-2.64.85,2,2,0,0,0-.95,1.71,2.37,2.37,0,0,0,.76,1.76,2.67,2.67,0,0,0,1.93.74,4.2,4.2,0,0,0,2.5-.86,3,3,0,0,0,1.16-1.61,9.35,9.35,0,0,0,.19-2.36Z" transform="translate(103.9 30)" style="fill:#7a923c"/><path d="M182.5,234h16.23v18.32H193.9V238h-6.6v8.23a9.62,9.62,0,0,1-.73,4.41,3.78,3.78,0,0,1-1.6,1.66,7.27,7.27,0,0,1-2.83.4,19.6,19.6,0,0,1-3.06-.31v-3.57l.82,0q.75.06,1.17.06c.65,0,1.06-.22,1.21-.65a16.06,16.06,0,0,0,.22-3.6Z" transform="translate(103.9 30)" style="fill:#7a923c"/><path d="M203.74,234h4.84v7.61h4.87a17.75,17.75,0,0,1,4.4.41,4.63,4.63,0,0,1,2.55,1.79,5.17,5.17,0,0,1,1,3.18,4.64,4.64,0,0,1-1.82,4,9.23,9.23,0,0,1-5.46,1.34h-10.4Zm4.84,15.25h4.52c1.42,0,2.32-.23,2.72-.69a2.42,2.42,0,0,0,.6-1.64,1.86,1.86,0,0,0-1-1.83,9.3,9.3,0,0,0-3.65-.5h-3.16Z" transform="translate(103.9 30)" style="fill:#7a923c"/><path d="M225.23,234h4.45v14.4h5.63V234h4.46v14.4h5.61V234h4.47v18.32H225.23Z" transform="translate(103.9 30)" style="fill:#7a923c"/><path d="M265.41,246.51l4.83.81a8,8,0,0,1-2.94,4.05,8.69,8.69,0,0,1-5,1.38c-3.19,0-5.54-1-7.07-3.12a10.47,10.47,0,0,1-1.82-6.31,10.12,10.12,0,0,1,2.39-7.14,7.81,7.81,0,0,1,6-2.57,8.14,8.14,0,0,1,6.45,2.69c1.57,1.81,2.33,4.56,2.26,8.28H258.35a4.92,4.92,0,0,0,1.18,3.35,3.64,3.64,0,0,0,2.79,1.2,3,3,0,0,0,1.92-.62A3.9,3.9,0,0,0,265.41,246.51Zm.27-4.9a4.65,4.65,0,0,0-1.08-3.2,3.49,3.49,0,0,0-5.14.06,4.48,4.48,0,0,0-1,3.14Z" transform="translate(103.9 30)" style="fill:#7a923c"/><path d="M276.35,245.82,275.09,233v-5.93h5.24V233l-1.24,12.84Zm-1.06,6.52v-4.85h4.85v4.85Z" transform="translate(103.9 30)" style="fill:#7a923c"/><path d="M-12.66,17.11l5.35,13.7,3.44-14.24L7.11,14l6,30.53L2.65,48.16.81,29.07l-5,18-5.67,0L-15.7,30.36l-.66,17.27-11-1.7L-24,15Z" transform="translate(103.9 30)" style="fill:#d86600"/><path d="M40.44,14,50.88,44.33,39.82,48.16l-2.19-6.69H29.06l-2,6.56L16.17,42.94,27.28,14.83ZM36.78,34.47l-3.26-7.9-3.34,7.76Z" transform="translate(103.9 30)" style="fill:#d86600"/><path d="M53.65,48.16,60.83,15.1,74,14,86,41.78,74.8,43.12l-5.13-14.5L67.22,47.14Z" transform="translate(103.9 30)" style="fill:#d86600"/><path d="M112.64,14l.27,9.64-12.5-.18L100.5,27l6.39-.35,0,5.89h-5.8l.13,4.1,12-.71.13,11.56-22.93.66L88.59,14Z" transform="translate(103.9 30)" style="fill:#d86600"/><path d="M115.72,15.37l10.4-.63V26.25l7.63-.13V14.65L145.62,14l-1.56,32.09-10.31,1.16V35.05l-7.63.17V47.27l-9,.89Z" transform="translate(103.9 30)" style="fill:#d86600"/><path d="M158.83,25.14a23.19,23.19,0,0,1,10.08,4.15A8.2,8.2,0,0,1,170.79,31a7.28,7.28,0,0,1,1,1.9,7.89,7.89,0,0,1,.43,2.16c0,.77.06,1.62.06,2.54v1.81a9.72,9.72,0,0,1-.15,1.74,5.07,5.07,0,0,1-.56,1.54A3.68,3.68,0,0,1,170.38,44a23.66,23.66,0,0,1-7.49,3.21,49,49,0,0,1-8.75,1.34,52.26,52.26,0,0,1-6.92,0l2.32-32.93,9.69-1.16-.4,10.75ZM157,40.4q3.7.14,5.4-1.07a3,3,0,0,0,1.42-2.77A5.37,5.37,0,0,0,162,33.44a10.2,10.2,0,0,0-4.37-2.32Z" transform="translate(103.9 30)" style="fill:#d86600"/><path d="M201.93,14.79l7.5,7.23-9.1,9.68,9.14,9.68L199.84,48,189.71,36.47l.13,10.89-11.24.8-1.7-33.69L189.84,14l.09,16.65Z" transform="translate(103.9 30)" style="fill:#d86600"/><path d="M241,14.56l2.85,29.81-10.22,2.41-.75-16.24-8.79,17.62-11.92-3.07.67-29.46H223l-1.52,14.86,8.79-15.61L241,14Z" transform="translate(103.9 30)" style="fill:#d86600"/><path d="M275.25,14.56l2.85,29.81-10.21,2.41-.76-16.24-8.79,17.62-11.92-3.07.67-29.46h10.22l-1.52,14.86,8.79-15.61,10.67-.9Zm-19-10.08L271.1,4l-.89,5.71-13.93,1.34Z" transform="translate(103.9 30)" style="fill:#d86600"/><path d="M-8.76,68.2l11.87-.67L1.55,99.62l-10.31,1.16.67-25.35-8.83.58.53,24.81-9,.89-1.38-32.79Z" transform="translate(103.9 30)" style="fill:#d86600"/><path d="M40.24,86.14Q39.7,94,34.17,97.88a20.14,20.14,0,0,1-11.91,3.83A18.76,18.76,0,0,1,10.7,97.79Q5.53,94,5.66,86.14a16.74,16.74,0,0,1,1.92-7.63,21.58,21.58,0,0,1,4.82-5.94,20.49,20.49,0,0,1,6.42-3.79,17.56,17.56,0,0,1,6.92-1.25,16.51,16.51,0,0,1,4.19.94,15.48,15.48,0,0,1,5,2.94,16.82,16.82,0,0,1,4,5.67A20.1,20.1,0,0,1,40.24,86.14Zm-12.54-4A.73.73,0,0,0,28,82a1.15,1.15,0,0,0,.27-.27,3.34,3.34,0,0,0,1.12-2.46,4.67,4.67,0,0,0-.76-2.36l-.22-.2-.27-.25c-.06-.06-.13-.12-.2-.2a2.43,2.43,0,0,0-.25-.2,6,6,0,0,0-2.32-.89,4.1,4.1,0,0,0-2.68.4,5.05,5.05,0,0,0-1,.54,7.21,7.21,0,0,0-.76.53,3.63,3.63,0,0,0-1.16,2.63,4.47,4.47,0,0,0,.94,2.5l.16.18a1.19,1.19,0,0,0,.15.18l.18.11.18.16a4.89,4.89,0,0,0,2.9,1.07,4.79,4.79,0,0,0,3.44-1.3Z" transform="translate(103.9 30)" style="fill:#d86600"/><path d="M58.09,70.66l5.35,13.69,3.44-14.23,11-2.59,6,30.52L73.4,101.71l-1.84-19.1-5,18-5.67,0L55.05,83.91l-.66,17.27-11-1.7,3.35-31Z" transform="translate(103.9 30)" style="fill:#d86600"/><path d="M121.5,86.14Q121,94,115.43,97.88a20.14,20.14,0,0,1-11.91,3.83A18.76,18.76,0,0,1,92,97.79q-5.17-3.84-5-11.65a16.74,16.74,0,0,1,1.91-7.63,22,22,0,0,1,4.82-5.94,20.65,20.65,0,0,1,6.43-3.79A17.53,17.53,0,0,1,107,67.53a16.51,16.51,0,0,1,4.19.94,15.34,15.34,0,0,1,5,2.94,16.7,16.7,0,0,1,4,5.67A20.1,20.1,0,0,1,121.5,86.14Zm-12.54-4a.73.73,0,0,0,.31-.22,1.15,1.15,0,0,0,.27-.27,3.34,3.34,0,0,0,1.12-2.46,4.67,4.67,0,0,0-.76-2.36l-.23-.2-.26-.25c-.06-.06-.13-.12-.2-.2A2.43,2.43,0,0,0,109,76a6.1,6.1,0,0,0-2.32-.89,4.09,4.09,0,0,0-2.68.4,5.05,5.05,0,0,0-1,.54,7.21,7.21,0,0,0-.76.53,3.63,3.63,0,0,0-1.16,2.63,4.47,4.47,0,0,0,.94,2.5,1.19,1.19,0,0,1,.15.18l.16.18.18.11.18.16a4.89,4.89,0,0,0,2.9,1.07,4.77,4.77,0,0,0,3.43-1.3Z" transform="translate(103.9 30)" style="fill:#d86600"/><path d="M142.65,100.78l-16.64.93-1.39-32.79,10.4-.63.27,26.82,7.49-.67-.13-26.24,11.87-.67-.27,25.62,7.5,2.18.67-28.69,5.53-.22,4.64-.23L173.26,96a3.45,3.45,0,0,0,1.07,1,11.23,11.23,0,0,0,1.77.92c.67.28,1.4.56,2.21.82s1.62.51,2.45.72c.15.06.25.29.31.69a10.59,10.59,0,0,1,.09,1.52c0,.61,0,1.25-.07,1.94s-.08,1.31-.13,1.89-.11,1.28-.2,2.08l-17-1-.67-5.66Z" transform="translate(103.9 30)" style="fill:#d86600"/><path d="M181.74,68.92l10.4-.63V79.8l7.63-.13V68.2l11.87-.67-1.56,32.09-10.31,1.16V88.59l-7.63.18v12l-9,.89Z" transform="translate(103.9 30)" style="fill:#d86600"/><path d="M243,68.11l2.85,29.81-10.21,2.41-.76-16.24-8.79,17.62-11.92-3.08.67-29.45h10.22L223.55,84l8.79-15.62L243,67.53Z" transform="translate(103.9 30)" style="fill:#d86600"/><path d="M273.49,68.34,281,75.56l-9.1,9.69L281,94.93l-9.64,6.65L261.26,90l.13,10.89-11.24.8L248.45,68l12.94-.49.09,16.65Z" transform="translate(103.9 30)" style="fill:#d86600"/><path d="M78,130.18q-8.7-1.47-12.63,1.92t-3.48,7.14c.29,2.53,2,4.46,5,5.8s7.41.6,13-2.23l4.64,9.37a21.89,21.89,0,0,1-10,3,32.35,32.35,0,0,1-11.29-1.07,24,24,0,0,1-9.37-5,11.81,11.81,0,0,1-4.11-8.79,15,15,0,0,1,2.9-9.9,22,22,0,0,1,7.86-6.65,24.71,24.71,0,0,1,10.17-2.64,18.59,18.59,0,0,1,9.73,2Z" transform="translate(103.9 30)" style="fill:#d86600"/><path d="M111.59,121.08,122,151.42,111,155.26l-2.19-6.69h-8.57l-2,6.56L87.32,150l11.11-28.11Zm-3.66,20.48-3.25-7.9-3.35,7.77Z" transform="translate(103.9 30)" style="fill:#d86600"/><path d="M124.8,122.46l10.4-.62v11.51l7.63-.13V121.75l11.87-.67-1.56,32.08-10.31,1.17V142.14l-7.63.18v12.05l-9,.89Z" transform="translate(103.9 30)" style="fill:#d86600"/><path d="M157.51,122.82l30.75-1.74.53,15.44-11.73-.62,3.52,19.36-15.08-1.6,2.59-17.41-10.85.31Z" transform="translate(103.9 30)" style="fill:#d86600"/><path d="M202.18,132.55a23.49,23.49,0,0,1,10.08,4.15,8,8,0,0,1,1.88,1.74,7,7,0,0,1,1,1.9,7.81,7.81,0,0,1,.43,2.16c0,.77.06,1.62.06,2.54v1.81a9.72,9.72,0,0,1-.15,1.74,5.17,5.17,0,0,1-.56,1.54,3.74,3.74,0,0,1-1.2,1.25,23.23,23.23,0,0,1-7.5,3.21q-2.19.54-4.35.87a37.67,37.67,0,0,1-4.4.43c-1.49.09-2.8.13-4,.13s-2.12,0-2.92-.09L192.9,123l9.68-1.16-.4,10.75Zm-1.83,15.26q3.71.13,5.4-1.07a3,3,0,0,0,1.43-2.77,4.28,4.28,0,0,0-.54-1.56,6.36,6.36,0,0,0-1.34-1.61,10.16,10.16,0,0,0-4.37-2.27Zm17.36,7.54L229,155l.63-32.93-12.81-.9Z" transform="translate(103.9 30)" style="fill:#d86600"/><path d="M117.91,317l-1,1.34C117.23,317.86,117.57,317.41,117.91,317Z" transform="translate(103.9 30)" style="fill:#02263c"/><path d="M136,293.42l-.06.09.12-.09Z" transform="translate(103.9 30)" style="fill:#02263c"/></svg>