<svg id="Слой_1" data-name="Слой 1" xmlns="http://www.w3.org/2000/svg" viewBox="0 0 491.32 778.77"><title>fir</title><rect x="10.22" y="9.15" width="481.1" height="769.62" rx="12" ry="12" style="fill:#3a301f"/><rect width="481.1" height="769.62" rx="12" ry="12" style="fill:#fff"/><path d="M159.24,224.54V199.25h5.1v9.95h10v-9.95h5.11v25.29h-5.11V213.48h-10v11.06Z" transform="translate(-102.33 29.19)" style="fill:#7a923c"/><path d="M195.31,218.71l4.83.81a7.88,7.88,0,0,1-2.94,4,8.62,8.62,0,0,1-5,1.39c-3.19,0-5.54-1-7.07-3.12a10.47,10.47,0,0,1-1.81-6.31,10.11,10.11,0,0,1,2.38-7.14,7.82,7.82,0,0,1,6-2.58,8.14,8.14,0,0,1,6.45,2.7c1.57,1.8,2.33,4.56,2.26,8.28H188.25a4.92,4.92,0,0,0,1.18,3.35,3.65,3.65,0,0,0,2.79,1.2,3,3,0,0,0,1.92-.62A3.94,3.94,0,0,0,195.31,218.71Zm.27-4.9a4.65,4.65,0,0,0-1.08-3.2,3.49,3.49,0,0,0-5.14.06,4.48,4.48,0,0,0-1,3.14Z" transform="translate(-102.33 29.19)" style="fill:#7a923c"/><path d="M214,206.22h4.66v11.5l7.45-11.5h4.76v18.32h-4.65V212.82l-7.56,11.72H214Z" transform="translate(-102.33 29.19)" style="fill:#7a923c"/><path d="M235.78,206.22h4.47v14.4h5.57v-14.4h4.47v14.4h5.64v-14.4h4.47v14.4h2v8.75h-3.92v-4.83H235.78Z" transform="translate(-102.33 29.19)" style="fill:#7a923c"/><path d="M265.57,206.22h4.66v11.5l7.45-11.5h4.76v18.32h-4.65V212.82l-7.56,11.72h-4.66Z" transform="translate(-102.33 29.19)" style="fill:#7a923c"/><path d="M285.24,206.22h16.58v3.91H296v14.41H291.1V210.13h-5.86Z" transform="translate(-102.33 29.19)" style="fill:#7a923c"/><path d="M315.32,218.71l4.83.81a7.88,7.88,0,0,1-2.94,4,8.6,8.6,0,0,1-5,1.39q-4.77,0-7.07-3.12a10.47,10.47,0,0,1-1.81-6.31,10.11,10.11,0,0,1,2.38-7.14,7.84,7.84,0,0,1,6-2.58,8.11,8.11,0,0,1,6.45,2.7q2.37,2.7,2.26,8.28H308.27a4.87,4.87,0,0,0,1.17,3.35,3.68,3.68,0,0,0,2.8,1.2,3,3,0,0,0,1.91-.62A3.81,3.81,0,0,0,315.32,218.71Zm.28-4.9a4.65,4.65,0,0,0-1.09-3.2,3.34,3.34,0,0,0-2.52-1.1,3.38,3.38,0,0,0-2.62,1.16,4.48,4.48,0,0,0-1,3.14Z" transform="translate(-102.33 29.19)" style="fill:#7a923c"/><path d="M347.93,198.66h3.29a5.49,5.49,0,0,1-1.14,3.32c-.66.76-2.3,1.13-4.89,1.13-.31,0-.63,0-.94,0h-.62a11.56,11.56,0,0,0-3.76.51,4.61,4.61,0,0,0-2.37,2,9.41,9.41,0,0,0-1,4.73,7.42,7.42,0,0,1,2.77-3,8.27,8.27,0,0,1,10.15,1.8,9.45,9.45,0,0,1,2.5,6.5,9.21,9.21,0,0,1-2.63,6.6,9,9,0,0,1-6.87,2.76,9.3,9.3,0,0,1-5.12-1.4,7.69,7.69,0,0,1-3.16-3.82q-.94-2.41-.95-8,0-6.58,2.42-9.47t8.47-2.88h2.45A1.38,1.38,0,0,0,347.93,198.66Zm-9.77,16.86a5.83,5.83,0,0,0,1.26,3.95,3.85,3.85,0,0,0,3.06,1.46,4,4,0,0,0,3.2-1.51,6.68,6.68,0,0,0,0-7.81,4,4,0,0,0-6.22,0A5.8,5.8,0,0,0,338.16,215.52Z" transform="translate(-102.33 29.19)" style="fill:#7a923c"/><path d="M366.61,218.71l4.83.81a7.88,7.88,0,0,1-2.94,4,8.62,8.62,0,0,1-5,1.39q-4.77,0-7.07-3.12a10.47,10.47,0,0,1-1.81-6.31,10.11,10.11,0,0,1,2.38-7.14,7.82,7.82,0,0,1,6-2.58,8.14,8.14,0,0,1,6.45,2.7q2.37,2.7,2.26,8.28H359.56a4.87,4.87,0,0,0,1.17,3.35,3.67,3.67,0,0,0,2.79,1.2,3,3,0,0,0,1.92-.62A3.81,3.81,0,0,0,366.61,218.71Zm.28-4.9a4.7,4.7,0,0,0-1.09-3.2,3.49,3.49,0,0,0-5.14.06,4.48,4.48,0,0,0-1,3.14Z" transform="translate(-102.33 29.19)" style="fill:#7a923c"/><path d="M375.51,206.22H380v2.69a6.74,6.74,0,0,1,2.38-2.24,6.52,6.52,0,0,1,3.33-.87,7,7,0,0,1,5.42,2.5,10.16,10.16,0,0,1,2.22,7c0,3.06-.74,5.44-2.24,7.14a7,7,0,0,1-5.43,2.54,6.2,6.2,0,0,1-2.75-.6,9.11,9.11,0,0,1-2.6-2.07v9.23h-4.85Zm4.8,8.85a7.08,7.08,0,0,0,1.22,4.56,3.77,3.77,0,0,0,3,1.48,3.53,3.53,0,0,0,2.81-1.36,7,7,0,0,0,1.12-4.44,6.63,6.63,0,0,0-1.16-4.28,3.57,3.57,0,0,0-2.86-1.4,3.73,3.73,0,0,0-2.95,1.37A6.14,6.14,0,0,0,380.31,215.07Z" transform="translate(-102.33 29.19)" style="fill:#7a923c"/><path d="M407.84,218.71l4.83.81a7.88,7.88,0,0,1-2.94,4,8.62,8.62,0,0,1-5,1.39c-3.19,0-5.54-1-7.07-3.12a10.47,10.47,0,0,1-1.81-6.31,10.11,10.11,0,0,1,2.38-7.14,7.82,7.82,0,0,1,6-2.58,8.14,8.14,0,0,1,6.45,2.7q2.37,2.7,2.26,8.28H400.79a4.87,4.87,0,0,0,1.17,3.35,3.67,3.67,0,0,0,2.79,1.2,3,3,0,0,0,1.92-.62A3.87,3.87,0,0,0,407.84,218.71ZM398.65,203v-4.15h4.15V203Zm9.47,10.84a4.7,4.7,0,0,0-1.09-3.2,3.49,3.49,0,0,0-5.14.06,4.48,4.48,0,0,0-1,3.14ZM406.06,203v-4.15h4.18V203Z" transform="translate(-102.33 29.19)" style="fill:#7a923c"/><path d="M421.81,217v-3.16a7.29,7.29,0,0,0,1.83-.16,2.46,2.46,0,0,0,1.59-2.24,2.4,2.4,0,0,0-.63-1.59,2.36,2.36,0,0,0-1.89-.74,3.48,3.48,0,0,0-1.72.42,3.68,3.68,0,0,0-1.38,2l-4.11-.88a5.69,5.69,0,0,1,2.66-3.62,8.94,8.94,0,0,1,4.64-1.21,7.79,7.79,0,0,1,5.13,1.52,4.76,4.76,0,0,1,1.82,3.81,3.56,3.56,0,0,1-.79,2.38,7.3,7.3,0,0,1-2.47,1.75,6.1,6.1,0,0,1,3,1.67,4,4,0,0,1,1,2.79,4.54,4.54,0,0,1-2,3.69,9.26,9.26,0,0,1-5.76,1.54q-6.55,0-8-5.12l4.43-.81a3.68,3.68,0,0,0,3.54,2.69,3.18,3.18,0,0,0,2.18-.72,2.14,2.14,0,0,0,.82-1.68,2,2,0,0,0-.85-1.68,3.76,3.76,0,0,0-2.24-.61Z" transform="translate(-102.33 29.19)" style="fill:#7a923c"/><path d="M432.44,215.12a10,10,0,0,1,1.19-4.68A8.25,8.25,0,0,1,437,207a10.07,10.07,0,0,1,4.88-1.19,9.14,9.14,0,0,1,6.81,2.7,9.35,9.35,0,0,1,2.66,6.83,9.46,9.46,0,0,1-2.68,6.89,9.08,9.08,0,0,1-6.76,2.73,10.6,10.6,0,0,1-4.8-1.14,7.79,7.79,0,0,1-3.48-3.33A11.2,11.2,0,0,1,432.44,215.12Zm5,.26a6.05,6.05,0,0,0,1.29,4.17,4.23,4.23,0,0,0,6.38,0,6.18,6.18,0,0,0,1.28-4.21,6.09,6.09,0,0,0-1.28-4.14,4.23,4.23,0,0,0-6.38,0A6.1,6.1,0,0,0,437.41,215.38Z" transform="translate(-102.33 29.19)" style="fill:#7a923c"/><path d="M455.2,206.22h10.6a8.2,8.2,0,0,1,4.89,1.19,4.16,4.16,0,0,1,1.62,3.59,4.31,4.31,0,0,1-3.12,4.19,4.73,4.73,0,0,1,2.82,1.74,4.58,4.58,0,0,1,.94,2.79,4.37,4.37,0,0,1-1.57,3.48,7,7,0,0,1-4.64,1.34H455.2Zm4.88,7.61h3.12a7,7,0,0,0,3.27-.57,1.93,1.93,0,0,0,1-1.8,1.73,1.73,0,0,0-.94-1.65,8.06,8.06,0,0,0-3.34-.49h-3.12Zm0,7.6h3.83a6.75,6.75,0,0,0,3-.5,1.85,1.85,0,0,0,.95-1.79,1.88,1.88,0,0,0-1.09-1.86,11.85,11.85,0,0,0-4.23-.5h-2.48Z" transform="translate(-102.33 29.19)" style="fill:#7a923c"/><path d="M473.69,206.22h5.16l4.38,13,4.28-13h5l-6.47,17.63L484.9,227a12.29,12.29,0,0,1-1.22,2.45,5.24,5.24,0,0,1-1.32,1.37,6,6,0,0,1-1.85.82A9.36,9.36,0,0,1,478,232a12.59,12.59,0,0,1-2.75-.29l-.43-3.8a10.7,10.7,0,0,0,2.05.23,3.07,3.07,0,0,0,2.51-1,7,7,0,0,0,1.24-2.53Z" transform="translate(-102.33 29.19)" style="fill:#7a923c"/><path d="M495.6,206.22h4.84v7.4h3.87A8.77,8.77,0,0,1,507,208a9.51,9.51,0,0,1,12.45.35c1.64,1.67,2.47,4.08,2.47,7.22a11.69,11.69,0,0,1-.93,4.83,7.6,7.6,0,0,1-2.82,3.33,8.7,8.7,0,0,1-4.95,1.27c-2.93,0-5.12-.79-6.55-2.39a8.28,8.28,0,0,1-2.33-5.1h-3.87v7.08H495.6ZM513,209.58a3.34,3.34,0,0,0-2.94,1.3,7.15,7.15,0,0,0-.92,4.12q0,3.62,1,4.89a3.59,3.59,0,0,0,3,1.27,3.11,3.11,0,0,0,2.79-1.43,7.87,7.87,0,0,0,.93-4.27c0-2.32-.33-3.88-1-4.68A3.54,3.54,0,0,0,513,209.58Z" transform="translate(-102.33 29.19)" style="fill:#7a923c"/><path d="M187.43,241.64h4.82v9.3a5.83,5.83,0,0,1,2.1-2,5.68,5.68,0,0,1,7.62,2.17,12.17,12.17,0,0,1,1.87,6.83,10.68,10.68,0,0,1-2.1,6.71,6.11,6.11,0,0,1-5,2.74,4.86,4.86,0,0,1-2.43-.65,7,7,0,0,1-2.1-1.92v9.12h-4.82v-9.12a7.64,7.64,0,0,1-2.25,1.92,5.27,5.27,0,0,1-2.54.65,5.81,5.81,0,0,1-4.9-2.74,11.69,11.69,0,0,1-1.93-6.9,10.42,10.42,0,0,1,2.2-6.82q2.22-2.69,4.78-2.69a5.09,5.09,0,0,1,2.56.66,6.5,6.5,0,0,1,2.08,2Zm-3.24,10.27a2.83,2.83,0,0,0-2.35,1.61,7.87,7.87,0,0,0-1,4.25,8.37,8.37,0,0,0,.94,4.27,2.72,2.72,0,0,0,2.33,1.6,2.82,2.82,0,0,0,2.4-1.6,8.35,8.35,0,0,0,1-4.39,7.15,7.15,0,0,0-1.07-4.38A2.94,2.94,0,0,0,184.19,251.91Zm11.33,0a2.75,2.75,0,0,0-2.41,1.74,9.08,9.08,0,0,0-.93,4.34,7.53,7.53,0,0,0,1,4.13,2.52,2.52,0,0,0,4.7-.2,8,8,0,0,0,1-4.07,9.12,9.12,0,0,0-.89-4.22A2.73,2.73,0,0,0,195.52,251.94Z" transform="translate(-102.33 29.19)" style="fill:#7a923c"/><path d="M211.43,254.2l-4.4-.79a6.9,6.9,0,0,1,2.55-3.93A9.38,9.38,0,0,1,215,248.2a11.63,11.63,0,0,1,4.83.77,4.82,4.82,0,0,1,2.23,1.95,10,10,0,0,1,.65,4.34l-.05,5.65a19.41,19.41,0,0,0,.23,3.57,9.93,9.93,0,0,0,.87,2.45h-4.8c-.12-.32-.28-.79-.46-1.43-.08-.28-.14-.47-.17-.57a8.89,8.89,0,0,1-2.66,1.82,7.64,7.64,0,0,1-3,.6,6.22,6.22,0,0,1-4.46-1.54,5.07,5.07,0,0,1-1.63-3.88,5.27,5.27,0,0,1,.74-2.77,4.88,4.88,0,0,1,2.08-1.86,16.22,16.22,0,0,1,3.86-1.13,26.94,26.94,0,0,0,4.71-1.19v-.48a2.53,2.53,0,0,0-.69-2,4.2,4.2,0,0,0-2.61-.59,3.49,3.49,0,0,0-2,.51A3.55,3.55,0,0,0,211.43,254.2Zm6.49,3.94c-.62.2-1.61.45-2.95.74a9.1,9.1,0,0,0-2.64.84,2,2,0,0,0-1,1.71,2.36,2.36,0,0,0,.76,1.76,2.62,2.62,0,0,0,1.93.74,4.16,4.16,0,0,0,2.5-.86,3.07,3.07,0,0,0,1.16-1.6,10,10,0,0,0,.19-2.37Z" transform="translate(-102.33 29.19)" style="fill:#7a923c"/><path d="M227.27,248.61h4.84v6.71h6.94v-6.71h4.86v18.32h-4.86v-7.69h-6.94v7.69h-4.84Z" transform="translate(-102.33 29.19)" style="fill:#7a923c"/><path d="M259.41,261.1l4.83.81a8,8,0,0,1-2.95,4,8.59,8.59,0,0,1-5,1.39q-4.78,0-7.08-3.12a10.57,10.57,0,0,1-1.81-6.32,10.11,10.11,0,0,1,2.38-7.13,7.85,7.85,0,0,1,6-2.58,8.11,8.11,0,0,1,6.45,2.7q2.37,2.7,2.26,8.27H252.35a4.88,4.88,0,0,0,1.17,3.36,3.68,3.68,0,0,0,2.8,1.2,2.93,2.93,0,0,0,1.91-.63A3.84,3.84,0,0,0,259.41,261.1Zm.27-4.9a4.67,4.67,0,0,0-1.09-3.2,3.33,3.33,0,0,0-2.51-1.09,3.38,3.38,0,0,0-2.63,1.15,4.45,4.45,0,0,0-1,3.14Z" transform="translate(-102.33 29.19)" style="fill:#7a923c"/><path d="M268.31,248.61h4.52v2.7a6.69,6.69,0,0,1,2.38-2.25,6.61,6.61,0,0,1,3.33-.86,7,7,0,0,1,5.41,2.5,10.1,10.1,0,0,1,2.23,7q0,4.59-2.24,7.13a7,7,0,0,1-5.44,2.55,6.2,6.2,0,0,1-2.75-.6,9.49,9.49,0,0,1-2.6-2.08v9.23h-4.84Zm4.79,8.85a7.07,7.07,0,0,0,1.23,4.57,3.74,3.74,0,0,0,3,1.47,3.49,3.49,0,0,0,2.81-1.35,7,7,0,0,0,1.12-4.44,6.63,6.63,0,0,0-1.15-4.28,3.59,3.59,0,0,0-2.87-1.4,3.71,3.71,0,0,0-2.94,1.37A6.07,6.07,0,0,0,273.1,257.46Z" transform="translate(-102.33 29.19)" style="fill:#7a923c"/><path d="M287.26,248.61h5.16l4.38,13,4.28-13h5l-6.47,17.63-1.15,3.2a13.17,13.17,0,0,1-1.22,2.45,5.27,5.27,0,0,1-1.33,1.37,5.89,5.89,0,0,1-1.84.82,9.87,9.87,0,0,1-2.48.29,13.21,13.21,0,0,1-2.74-.29l-.43-3.8a10.7,10.7,0,0,0,2.05.23,3,3,0,0,0,2.5-1,6.76,6.76,0,0,0,1.24-2.52Z" transform="translate(-102.33 29.19)" style="fill:#7a923c"/><path d="M318.83,248.61H335.1v18.32h-4.85v-14.4h-6.57v14.4h-4.85Z" transform="translate(-102.33 29.19)" style="fill:#7a923c"/><path d="M339.24,257.52a10,10,0,0,1,1.19-4.68,8.19,8.19,0,0,1,3.37-3.45,10.07,10.07,0,0,1,4.88-1.19,9.14,9.14,0,0,1,6.81,2.7,9.33,9.33,0,0,1,2.66,6.82,9.46,9.46,0,0,1-2.68,6.89,9.05,9.05,0,0,1-6.76,2.74,10.6,10.6,0,0,1-4.8-1.14,7.81,7.81,0,0,1-3.48-3.34A11.13,11.13,0,0,1,339.24,257.52Zm5,.25A6.1,6.1,0,0,0,345.5,262a4.23,4.23,0,0,0,6.38,0,6.2,6.2,0,0,0,1.28-4.21,6.09,6.09,0,0,0-1.28-4.14,4.23,4.23,0,0,0-6.38,0A6.09,6.09,0,0,0,344.21,257.77Z" transform="translate(-102.33 29.19)" style="fill:#7a923c"/><path d="M376.62,266.93H362.75v4.83h-3.93V263h2a10.86,10.86,0,0,0,2.05-4.32,46.34,46.34,0,0,0,1-10h14.79V263h2v8.79h-4Zm-2.81-4,0-10.37H368q-.29,7.59-2.41,10.37Z" transform="translate(-102.33 29.19)" style="fill:#7a923c"/><path d="M404.33,261.1l4.83.81a7.91,7.91,0,0,1-2.94,4,8.62,8.62,0,0,1-5,1.39c-3.19,0-5.54-1-7.07-3.12a10.5,10.5,0,0,1-1.81-6.32,10.11,10.11,0,0,1,2.38-7.13,7.82,7.82,0,0,1,6-2.58,8.14,8.14,0,0,1,6.45,2.7c1.57,1.8,2.33,4.56,2.26,8.27H397.27a4.93,4.93,0,0,0,1.18,3.36,3.65,3.65,0,0,0,2.79,1.2,3,3,0,0,0,1.92-.63A3.83,3.83,0,0,0,404.33,261.1Zm-9.2-15.73v-4.16h4.16v4.16Zm9.48,10.83a4.72,4.72,0,0,0-1.09-3.2,3.51,3.51,0,0,0-5.14.06,4.5,4.5,0,0,0-1,3.14Zm-2.06-10.83v-4.16h4.18v4.16Z" transform="translate(-102.33 29.19)" style="fill:#7a923c"/><path d="M414.68,248.61h16.23v18.32h-4.83V252.55h-6.6v8.23a9.41,9.41,0,0,1-.73,4.4,3.81,3.81,0,0,1-1.6,1.67,7.47,7.47,0,0,1-2.83.4,19.6,19.6,0,0,1-3.05-.32v-3.57l.81,0c.5,0,.89.05,1.17.05.65,0,1.06-.22,1.21-.65a16,16,0,0,0,.22-3.59Z" transform="translate(-102.33 29.19)" style="fill:#7a923c"/><path d="M435.62,248.61h4.83v7.49a2.49,2.49,0,0,0,1.71-.74,9.46,9.46,0,0,0,1.21-2.64,7,7,0,0,1,2-3.47,5.1,5.1,0,0,1,2.9-.76q.56,0,1.92.09l0,3.21a5.17,5.17,0,0,0-2.45.36,4.93,4.93,0,0,0-1.16,2.26c-.56,1.69-1.38,2.73-2.43,3.12q2.3.64,3.88,4l.19.36,2.71,5.05h-5.21l-2.42-5.29a6.36,6.36,0,0,0-1.28-2.06,2.45,2.45,0,0,0-1.62-.46v7.81h-4.83Z" transform="translate(-102.33 29.19)" style="fill:#7a923c"/><path d="M451.91,257.52a9.86,9.86,0,0,1,1.19-4.68,8.13,8.13,0,0,1,3.37-3.45,10.06,10.06,0,0,1,4.87-1.19,9.15,9.15,0,0,1,6.82,2.7,9.32,9.32,0,0,1,2.65,6.82,9.42,9.42,0,0,1-2.68,6.89,9,9,0,0,1-6.75,2.74,10.67,10.67,0,0,1-4.81-1.14,7.79,7.79,0,0,1-3.47-3.34A11,11,0,0,1,451.91,257.52Zm5,.25a6.1,6.1,0,0,0,1.29,4.18,4.1,4.1,0,0,0,3.19,1.45,4.05,4.05,0,0,0,3.18-1.45,6.15,6.15,0,0,0,1.29-4.21,6,6,0,0,0-1.29-4.14,4.05,4.05,0,0,0-3.18-1.45,4.1,4.1,0,0,0-3.19,1.45A6.09,6.09,0,0,0,456.88,257.77Z" transform="translate(-102.33 29.19)" style="fill:#7a923c"/><path d="M474.49,248.61h4.66v11.51l7.45-11.51h4.76v18.32H486.7V255.22l-7.55,11.71h-4.66Zm11.61-7.43h2.36a5.47,5.47,0,0,1-1.64,3.68,5.88,5.88,0,0,1-7.47,0,5.44,5.44,0,0,1-1.65-3.68h2.36a2.66,2.66,0,0,0,.86,1.85,4,4,0,0,0,4.32,0A2.66,2.66,0,0,0,486.1,241.18Z" transform="translate(-102.33 29.19)" style="fill:#7a923c"/><path d="M498.23,260.41,497,247.58v-5.94h5.24v5.94L501,260.41Zm-1.06,6.52v-4.84H502v4.84Z" transform="translate(-102.33 29.19)" style="fill:#7a923c"/><path d="M232.7,8.9l27-2.1L261,17.86l-7.74,5.79a10.15,10.15,0,0,1,6.62,2.43q2.82,2.34,2.92,7a8.2,8.2,0,0,1-3.8,7.49,21.78,21.78,0,0,1-9.05,3.22,41.24,41.24,0,0,1-10.77.05,35.6,35.6,0,0,1-8.66-2l3-11.2a10.75,10.75,0,0,0,3.31,2A16.7,16.7,0,0,0,241.85,34a7.64,7.64,0,0,0,4.58-.68c1.36-.62,2-2,2-4.19a2.1,2.1,0,0,0-1.31-1.8A16.25,16.25,0,0,0,244,26.13a17.42,17.42,0,0,0-1.77-.39c-.6-.09-1.2-.18-1.78-.24a10.92,10.92,0,0,0-2.82-.1l-.15-3,16.31-7.59L234.4,18.68Z" transform="translate(-102.33 29.19)" style="fill:#d86600"/><path d="M297,7.44,300.13,40,289,42.59l-.82-17.72-9.6,19.23-13-3.36.73-32.14h11.15l-1.65,16.22,9.59-17L297,6.8Z" transform="translate(-102.33 29.19)" style="fill:#d86600"/><path d="M319,10.21l5.85,15,3.75-15.53,12-2.83,6.52,33.31-11.39,4-2-20.84-5.45,19.62-6.19,0-6.38-18.26L315,43.51l-12-1.85,3.65-33.79Z" transform="translate(-102.33 29.19)" style="fill:#d86600"/><path d="M388.21,27.11q-.58,8.56-6.62,12.8a21.89,21.89,0,0,1-13,4.19A20.48,20.48,0,0,1,356,39.81q-5.66-4.19-5.5-12.7a18.25,18.25,0,0,1,2.09-8.33,23.88,23.88,0,0,1,5.26-6.48,22.42,22.42,0,0,1,7-4.13,19.2,19.2,0,0,1,7.55-1.37,18.45,18.45,0,0,1,4.58,1,16.73,16.73,0,0,1,5.5,3.21,18.35,18.35,0,0,1,4.38,6.18A21.86,21.86,0,0,1,388.21,27.11Zm-13.68-4.34a.74.74,0,0,0,.34-.24,1.13,1.13,0,0,0,.29-.29,3.59,3.59,0,0,0,1.22-2.68,5,5,0,0,0-.83-2.58,1.79,1.79,0,0,0-.24-.22,3.58,3.58,0,0,1-.29-.27c-.07-.06-.14-.14-.22-.22a2,2,0,0,0-.27-.22,6.74,6.74,0,0,0-2.53-1,4.44,4.44,0,0,0-2.92.44,5.14,5.14,0,0,0-1.07.58,8,8,0,0,0-.83.59,3.93,3.93,0,0,0-1.27,2.87,5,5,0,0,0,1,2.73l.17.19a1,1,0,0,0,.17.2,1,1,0,0,1,.19.12,1.51,1.51,0,0,1,.2.17,5.26,5.26,0,0,0,6.91-.25Z" transform="translate(-102.33 29.19)" style="fill:#d86600"/><path d="M423.07,7.44,426.19,40,415,42.59l-.83-17.72L404.62,44.1l-13-3.36.73-32.14H403.5l-1.65,16.22,9.59-17,11.63-1Zm-20.69-11,16.17-.49-1,6.24L402.38,3.64Z" transform="translate(-102.33 29.19)" style="fill:#d86600"/><path d="M247.65,65.86l3.11,32.53L239.61,101l-.82-17.73-9.6,19.24-13-3.36L216.92,67h11.15l-1.65,16.22,9.59-17,11.64-1Z" transform="translate(-102.33 29.19)" style="fill:#d86600"/><path d="M279.93,102.53l7.84-36.08,14.41-1.22,13,30.33L303,97l-5.6-15.83-2.68,20.21Z" transform="translate(-102.33 29.19)" style="fill:#d86600"/><path d="M344.3,65.23l.29,10.52L331,75.55l.1,3.9,7-.39.05,6.43h-6.33l.15,4.47L345,89.19l.14,12.61-25,.73-2.1-37.25Z" transform="translate(-102.33 29.19)" style="fill:#d86600"/><path d="M348,67.13l33.54-1.9.59,16.85-12.81-.68,3.85,21.13-16.46-1.76,2.83-19-11.84.34Z" transform="translate(-102.33 29.19)" style="fill:#d86600"/><path d="M422.69,85.53q-.58,8.58-6.63,12.81a22,22,0,0,1-13,4.19,20.48,20.48,0,0,1-12.61-4.29q-5.64-4.18-5.5-12.71A18.34,18.34,0,0,1,387,77.21a23.88,23.88,0,0,1,5.26-6.48,22.76,22.76,0,0,1,7-4.14,19.21,19.21,0,0,1,7.55-1.36,18.82,18.82,0,0,1,4.58,1,16.76,16.76,0,0,1,5.5,3.22,18.25,18.25,0,0,1,4.38,6.18A22,22,0,0,1,422.69,85.53ZM409,81.2a.82.82,0,0,0,.34-.24,1.67,1.67,0,0,0,.3-.29A3.63,3.63,0,0,0,410.85,78a5.1,5.1,0,0,0-.82-2.58l-.25-.22-.29-.27-.22-.22a2,2,0,0,0-.27-.22,6.67,6.67,0,0,0-2.53-1,4.44,4.44,0,0,0-2.92.44,5.41,5.41,0,0,0-1.07.58c-.49.33-.76.52-.83.58A4,4,0,0,0,400.39,78a4.87,4.87,0,0,0,1,2.72c.06.07.12.13.17.2a1.45,1.45,0,0,0,.17.19l.19.13a1,1,0,0,1,.2.17,5.28,5.28,0,0,0,3.16,1.16,5.22,5.22,0,0,0,3.75-1.41Z" transform="translate(-102.33 29.19)" style="fill:#d86600"/><path d="M442.16,68.64l5.84,15,3.75-15.54,12-2.82,6.52,33.3-11.39,4-2-20.84-5.45,19.62-6.18,0L438.85,83.1l-.73,18.84-12-1.85,3.65-33.79Z" transform="translate(-102.33 29.19)" style="fill:#d86600"/><path d="M155,144q-.58,8.58-6.62,12.81a22,22,0,0,1-13,4.19,20.51,20.51,0,0,1-12.62-4.29q-5.64-4.18-5.5-12.71a18.22,18.22,0,0,1,2.1-8.32,23.66,23.66,0,0,1,5.25-6.48,22.69,22.69,0,0,1,7-4.14,19.13,19.13,0,0,1,7.54-1.36,17.92,17.92,0,0,1,4.58,1,16.8,16.8,0,0,1,5.5,3.21,18,18,0,0,1,4.38,6.19A22,22,0,0,1,155,144Zm-13.68-4.33a.88.88,0,0,0,.34-.25,1.14,1.14,0,0,0,.29-.29,3.62,3.62,0,0,0,1.22-2.67,5.11,5.11,0,0,0-.83-2.58l-.25-.22-.29-.27-.22-.22a1.78,1.78,0,0,0-.26-.22,6.62,6.62,0,0,0-2.54-1,4.5,4.5,0,0,0-2.92.43,5.39,5.39,0,0,0-1.07.59c-.49.32-.76.52-.83.58a4,4,0,0,0-1.26,2.88,4.87,4.87,0,0,0,1,2.72c.06.07.12.13.17.2l.17.19a1.06,1.06,0,0,1,.2.12l.19.17a5.28,5.28,0,0,0,6.91-.24Z" transform="translate(-102.33 29.19)" style="fill:#d86600"/><path d="M158.42,161.83l-1.12-6.62,35.4.24-1.12,6.38Zm20.21-41,13-.73-1.75,35-11.25,1.27.78-27.66-9.64.64.58,27.12-9.88,1L159,121.56Z" transform="translate(-102.33 29.19)" style="fill:#d86600"/><path d="M193.77,125.17l11.35-.68v12.56l8.32-.15V124.39l12.95-.73-1.7,35-11.25,1.26V146.64l-8.32.2V160l-9.84,1Z" transform="translate(-102.33 29.19)" style="fill:#d86600"/><path d="M260.62,124.29l3.12,32.53-11.15,2.63-.83-17.73L242.17,161l-13-3.36.73-32.14h11.15l-1.66,16.21,9.6-17,11.63-1Z" transform="translate(-102.33 29.19)" style="fill:#d86600"/><path d="M282.63,127.07,288.47,142l3.75-15.53,12-2.82,6.52,33.3-11.39,4-2-20.84-5.45,19.62-6.18,0-6.38-18.26-.73,18.84-12-1.85,3.65-33.79Z" transform="translate(-102.33 29.19)" style="fill:#d86600"/><path d="M359.07,161.83H340.52l1.41-38.17,9.84,1-.58,27.07,9.64.64-.73-27.66L371.34,126l1.32,35.15Zm27.46-7.89L386,163l-26.78.24.24-12.17Z" transform="translate(-102.33 29.19)" style="fill:#d86600"/><path d="M375.82,125.31q2.63-.59,5.28-1t5.43-.66q5.55-.43,13.15,2.68,5.16,2.19,5.6,6.57c.32,2.89-.91,5.14-3.7,6.77q6.62.78,9.54,3.94a9,9,0,0,1,2.53,6.82,10.39,10.39,0,0,1-3.45,6.67,14,14,0,0,1-8.72,3.55c-2.11.2-4.11.3-6,.32a52.25,52.25,0,0,1-5.4-.22c-1.72-.16-3.47-.39-5.24-.68s-3.58-.67-5.43-1.12Zm13.59,11.45,1.94-.2a9.79,9.79,0,0,0,1.76-.34q1.65-.43,1.8-1.56c.13-1.39-.72-2.24-2.53-2.53-.91-.16-1.66-.27-2.24-.32a4.86,4.86,0,0,0-1.32,0Zm2.09,15.09a25.42,25.42,0,0,1,4.19-.29q3.1-.15,3-2.73-.15-3-3.51-3.21c-1.1-.1-2-.16-2.73-.17a8.71,8.71,0,0,0-1.6.07Z" transform="translate(-102.33 29.19)" style="fill:#d86600"/><path d="M443.26,123.66l.29,10.52-13.63-.2.09,3.9,7-.39,0,6.42h-6.33l.15,4.48,13.15-.78.14,12.61-25,.74L417,123.71Z" transform="translate(-102.33 29.19)" style="fill:#d86600"/><path d="M446.91,125.56l33.55-1.9L481,140.5l-12.81-.68L472.08,161l-16.46-1.76,2.83-19-11.83.34Z" transform="translate(-102.33 29.19)" style="fill:#d86600"/><path d="M521.65,144q-.58,8.58-6.63,12.81A21.94,21.94,0,0,1,502,161a20.48,20.48,0,0,1-12.61-4.29q-5.64-4.18-5.5-12.71a18.22,18.22,0,0,1,2.1-8.32,23.66,23.66,0,0,1,5.25-6.48,22.76,22.76,0,0,1,7-4.14,19.21,19.21,0,0,1,7.55-1.36,17.92,17.92,0,0,1,4.58,1,16.9,16.9,0,0,1,5.5,3.21,18.29,18.29,0,0,1,4.38,6.19A22,22,0,0,1,521.65,144ZM508,139.63a.85.85,0,0,0,.35-.25,1.14,1.14,0,0,0,.29-.29,3.61,3.61,0,0,0,1.21-2.67,5,5,0,0,0-.82-2.58l-.25-.22-.29-.27-.22-.22a1.44,1.44,0,0,0-.27-.22,6.51,6.51,0,0,0-2.53-1,4.5,4.5,0,0,0-2.92.43,5.39,5.39,0,0,0-1.07.59c-.49.32-.76.52-.83.58a4,4,0,0,0-1.26,2.88,4.87,4.87,0,0,0,1,2.72c.06.07.12.13.17.2a1.45,1.45,0,0,0,.17.19,1,1,0,0,1,.19.12l.2.17a5.28,5.28,0,0,0,6.91-.24Z" transform="translate(-102.33 29.19)" style="fill:#d86600"/><path d="M541.12,127.07,547,142l3.75-15.53,12-2.82,6.53,33.3-11.4,4-2-20.84-5.46,19.62-6.18,0-6.38-18.26-.73,18.84-12-1.85,3.66-33.79Z" transform="translate(-102.33 29.19)" style="fill:#d86600"/></svg>