<svg id="Слой_1" data-name="Слой 1" xmlns="http://www.w3.org/2000/svg" viewBox="0 0 431.49 470.4"><title>santa</title><rect x="8.97" y="5.53" width="422.52" height="464.87" rx="12" ry="12" style="fill:#3a301f"/><rect width="422.52" height="464.87" rx="12" ry="12" style="fill:#fff"/><path d="M-7.29,115.83H12.82v25.29H7.72V120.07H-2.19v21.05h-5.1Z" transform="translate(37.04 -24.67)" style="fill:#7a923c"/><path d="M16.88,131.7A9.86,9.86,0,0,1,18.07,127a8.19,8.19,0,0,1,3.37-3.45,10,10,0,0,1,4.87-1.19,9.16,9.16,0,0,1,6.82,2.7,9.34,9.34,0,0,1,2.65,6.83,9.44,9.44,0,0,1-2.68,6.89,9.07,9.07,0,0,1-6.75,2.73,10.67,10.67,0,0,1-4.81-1.14,7.79,7.79,0,0,1-3.47-3.34A11,11,0,0,1,16.88,131.7Zm5,.26a6.07,6.07,0,0,0,1.29,4.17,4.22,4.22,0,0,0,6.37,0,6.13,6.13,0,0,0,1.29-4.21,6,6,0,0,0-1.29-4.14,4.22,4.22,0,0,0-6.37,0A6.1,6.1,0,0,0,21.85,132Z" transform="translate(37.04 -24.67)" style="fill:#7a923c"/><path d="M54.26,141.12H40.39V146H36.46v-8.8h2a10.74,10.74,0,0,0,2.05-4.31,46.25,46.25,0,0,0,1-10H56.24v14.35h2V146h-4Zm-2.81-4,0-10.37H45.6q-.3,7.59-2.42,10.37Z" transform="translate(37.04 -24.67)" style="fill:#7a923c"/><path d="M77.05,128.21l-4.78.87a3.45,3.45,0,0,0-1.1-2.16A3.3,3.3,0,0,0,69,126.2a3.6,3.6,0,0,0-2.89,1.25A6.37,6.37,0,0,0,65,131.63c0,2.17.36,3.71,1.09,4.61a3.63,3.63,0,0,0,3,1.34,3.29,3.29,0,0,0,2.26-.78,4.8,4.8,0,0,0,1.24-2.7l4.76.81a8.47,8.47,0,0,1-2.85,5,8.83,8.83,0,0,1-5.64,1.67A8.4,8.4,0,0,1,62.39,139a11.56,11.56,0,0,1,0-14.09,8.54,8.54,0,0,1,6.49-2.53,8.85,8.85,0,0,1,5.32,1.44A8,8,0,0,1,77.05,128.21Z" transform="translate(37.04 -24.67)" style="fill:#7a923c"/><path d="M80.53,122.8h4.83v7.48a2.49,2.49,0,0,0,1.71-.74,9.77,9.77,0,0,0,1.21-2.64,7.09,7.09,0,0,1,2-3.47,5.09,5.09,0,0,1,2.9-.75c.37,0,1,0,1.92.08V126a5.23,5.23,0,0,0-2.45.36,5.11,5.11,0,0,0-1.15,2.26c-.56,1.69-1.38,2.73-2.43,3.13q2.3.63,3.88,4c.06.12.12.24.19.36l2.71,5.06H90.68l-2.42-5.3A6.36,6.36,0,0,0,87,133.76a2.5,2.5,0,0,0-1.62-.46v7.82H80.53Z" transform="translate(37.04 -24.67)" style="fill:#7a923c"/><path d="M102,128.39l-4.4-.8a6.81,6.81,0,0,1,2.55-3.93,9.35,9.35,0,0,1,5.38-1.28,11.57,11.57,0,0,1,4.83.77,4.8,4.8,0,0,1,2.24,1.95,10,10,0,0,1,.64,4.34l0,5.66a19.08,19.08,0,0,0,.24,3.56,10.14,10.14,0,0,0,.87,2.46h-4.8c-.13-.33-.28-.8-.46-1.43-.09-.29-.14-.48-.18-.57a8.81,8.81,0,0,1-2.65,1.81,7.68,7.68,0,0,1-3,.6A6.26,6.26,0,0,1,98.76,140a5.11,5.11,0,0,1-1.63-3.89,5.23,5.23,0,0,1,.74-2.76,4.84,4.84,0,0,1,2.08-1.87,16.12,16.12,0,0,1,3.85-1.13,25.58,25.58,0,0,0,4.71-1.19v-.48a2.5,2.5,0,0,0-.69-2,4.09,4.09,0,0,0-2.6-.6,3.47,3.47,0,0,0-2,.51A3.58,3.58,0,0,0,102,128.39Zm6.48,3.93a29.86,29.86,0,0,1-3,.74,8.94,8.94,0,0,0-2.64.85,2,2,0,0,0-1,1.7,2.39,2.39,0,0,0,.76,1.76,2.65,2.65,0,0,0,1.94.75,4.19,4.19,0,0,0,2.5-.87,3,3,0,0,0,1.15-1.6,9.4,9.4,0,0,0,.19-2.36Z" transform="translate(37.04 -24.67)" style="fill:#7a923c"/><path d="M123.42,133.6v-3.16a7.81,7.81,0,0,0,1.83-.16,2.18,2.18,0,0,0,1.07-.8,2.23,2.23,0,0,0,.51-1.44,2.38,2.38,0,0,0-.63-1.59,2.35,2.35,0,0,0-1.88-.74,3.52,3.52,0,0,0-1.73.42,3.68,3.68,0,0,0-1.38,2l-4.11-.88a5.69,5.69,0,0,1,2.66-3.62,9,9,0,0,1,4.64-1.21,7.79,7.79,0,0,1,5.13,1.52,4.73,4.73,0,0,1,1.82,3.81,3.56,3.56,0,0,1-.78,2.37,7.22,7.22,0,0,1-2.48,1.76,6.06,6.06,0,0,1,3,1.67,4,4,0,0,1,1,2.79,4.56,4.56,0,0,1-2,3.69,9.31,9.31,0,0,1-5.77,1.54q-6.55,0-8-5.12l4.44-.81a3.67,3.67,0,0,0,3.53,2.69,3.21,3.21,0,0,0,2.19-.72,2.19,2.19,0,0,0,.81-1.68,2,2,0,0,0-.85-1.68,3.72,3.72,0,0,0-2.23-.61Z" transform="translate(37.04 -24.67)" style="fill:#7a923c"/><path d="M135.86,122.8h4.83v7.48a2.48,2.48,0,0,0,1.7-.74,9.46,9.46,0,0,0,1.21-2.64,7,7,0,0,1,2-3.47,5.05,5.05,0,0,1,2.9-.75c.36,0,1,0,1.91.08l0,3.21a5.17,5.17,0,0,0-2.45.36,5.09,5.09,0,0,0-1.16,2.26c-.56,1.69-1.37,2.73-2.43,3.13q2.3.63,3.88,4c.06.12.12.24.19.36l2.71,5.06H146l-2.42-5.3a6.36,6.36,0,0,0-1.28-2.06,2.47,2.47,0,0,0-1.61-.46v7.82h-4.83Z" transform="translate(37.04 -24.67)" style="fill:#7a923c"/><path d="M151.43,122.8h5.16l4.38,13,4.28-13h5l-6.47,17.63-1.15,3.19a13.17,13.17,0,0,1-1.22,2.45,5.27,5.27,0,0,1-1.33,1.37,5.89,5.89,0,0,1-1.84.82,9.87,9.87,0,0,1-2.48.29,13.21,13.21,0,0,1-2.74-.29l-.43-3.8a10.7,10.7,0,0,0,2,.23,3,3,0,0,0,2.5-1,6.81,6.81,0,0,0,1.24-2.53Z" transform="translate(37.04 -24.67)" style="fill:#7a923c"/><path d="M183,122.8h4.85v6.71h6.94V122.8h4.86v18.32h-4.86v-7.7h-6.94v7.7H183Z" transform="translate(37.04 -24.67)" style="fill:#7a923c"/><path d="M215.14,135.29l4.83.81a7.88,7.88,0,0,1-2.94,4,8.62,8.62,0,0,1-5,1.39q-4.77,0-7.07-3.12a10.48,10.48,0,0,1-1.81-6.32A10.11,10.11,0,0,1,205.5,125a7.84,7.84,0,0,1,6-2.58,8.14,8.14,0,0,1,6.45,2.7q2.37,2.7,2.26,8.27H208.09a4.88,4.88,0,0,0,1.17,3.36,3.67,3.67,0,0,0,2.79,1.2,3,3,0,0,0,1.92-.62A3.81,3.81,0,0,0,215.14,135.29Zm.28-4.9a4.68,4.68,0,0,0-1.09-3.2,3.49,3.49,0,0,0-5.14.06,4.47,4.47,0,0,0-1,3.14Z" transform="translate(37.04 -24.67)" style="fill:#7a923c"/><path d="M233.81,122.8h16.27v18.32h-4.85V126.71h-6.58v14.41h-4.84Z" transform="translate(37.04 -24.67)" style="fill:#7a923c"/><path d="M254.22,131.7a9.86,9.86,0,0,1,1.19-4.68,8.19,8.19,0,0,1,3.37-3.45,10,10,0,0,1,4.87-1.19,9.18,9.18,0,0,1,6.82,2.7,9.34,9.34,0,0,1,2.65,6.83,9.44,9.44,0,0,1-2.68,6.89,9.07,9.07,0,0,1-6.75,2.73,10.67,10.67,0,0,1-4.81-1.14,7.79,7.79,0,0,1-3.47-3.34A11,11,0,0,1,254.22,131.7Zm5,.26a6.07,6.07,0,0,0,1.3,4.17,4.22,4.22,0,0,0,6.37,0,6.13,6.13,0,0,0,1.29-4.21,6,6,0,0,0-1.29-4.14,4.22,4.22,0,0,0-6.37,0A6.1,6.1,0,0,0,259.18,132Z" transform="translate(37.04 -24.67)" style="fill:#7a923c"/><path d="M291.6,141.12H277.73V146H273.8v-8.8h2a10.74,10.74,0,0,0,2.05-4.31,46.91,46.91,0,0,0,1-10h14.78v14.35h2V146H291.6Zm-2.81-4V126.78h-5.86q-.3,7.59-2.42,10.37Z" transform="translate(37.04 -24.67)" style="fill:#7a923c"/><path d="M302.5,128.39l-4.4-.8a6.9,6.9,0,0,1,2.55-3.93,9.38,9.38,0,0,1,5.39-1.28,11.63,11.63,0,0,1,4.83.77,4.77,4.77,0,0,1,2.23,1.95,10,10,0,0,1,.65,4.34l-.05,5.66a19.28,19.28,0,0,0,.23,3.56,10.58,10.58,0,0,0,.87,2.46H310c-.13-.33-.29-.8-.47-1.43-.08-.29-.14-.48-.17-.57a8.85,8.85,0,0,1-2.66,1.81,7.64,7.64,0,0,1-3,.6,6.27,6.27,0,0,1-4.46-1.53,5.11,5.11,0,0,1-1.63-3.89,5.23,5.23,0,0,1,.74-2.76,4.9,4.9,0,0,1,2.08-1.87,16.22,16.22,0,0,1,3.86-1.13,26,26,0,0,0,4.71-1.19v-.48a2.5,2.5,0,0,0-.69-2,4.12,4.12,0,0,0-2.61-.6,3.49,3.49,0,0,0-2,.51A3.58,3.58,0,0,0,302.5,128.39Zm6.49,3.93c-.62.21-1.61.45-2.95.74a8.72,8.72,0,0,0-2.64.85,2,2,0,0,0-.95,1.7,2.36,2.36,0,0,0,.76,1.76,2.62,2.62,0,0,0,1.93.75,4.17,4.17,0,0,0,2.5-.87,3,3,0,0,0,1.16-1.6,9.92,9.92,0,0,0,.19-2.36Z" transform="translate(37.04 -24.67)" style="fill:#7a923c"/><path d="M318.39,122.8h4.52v2.69a6.74,6.74,0,0,1,2.38-2.24,6.52,6.52,0,0,1,3.33-.87,7,7,0,0,1,5.42,2.5,10.16,10.16,0,0,1,2.22,7A10.48,10.48,0,0,1,334,139a7,7,0,0,1-5.44,2.54,6.23,6.23,0,0,1-2.75-.6,9.26,9.26,0,0,1-2.59-2.07v9.23h-4.85Zm4.79,8.85a7,7,0,0,0,1.23,4.56,3.75,3.75,0,0,0,3,1.47,3.52,3.52,0,0,0,2.82-1.35,7,7,0,0,0,1.12-4.44,6.63,6.63,0,0,0-1.16-4.28,3.57,3.57,0,0,0-2.86-1.4,3.72,3.72,0,0,0-2.95,1.37A6.14,6.14,0,0,0,323.18,131.65Z" transform="translate(37.04 -24.67)" style="fill:#7a923c"/><path d="M340.07,122.8h4.85v7.4h3.87a8.77,8.77,0,0,1,2.66-5.67,9.51,9.51,0,0,1,12.45.35c1.64,1.67,2.46,4.08,2.46,7.21a11.66,11.66,0,0,1-.92,4.83,7.57,7.57,0,0,1-2.82,3.34,8.7,8.7,0,0,1-4.95,1.27c-2.93,0-5.12-.79-6.56-2.39a8.32,8.32,0,0,1-2.32-5.1h-3.87v7.08h-4.85Zm17.43,3.36a3.35,3.35,0,0,0-2.94,1.29,7.2,7.2,0,0,0-.93,4.13c0,2.41.33,4,1,4.89a3.59,3.59,0,0,0,3,1.27,3.11,3.11,0,0,0,2.79-1.43,7.89,7.89,0,0,0,.93-4.27c0-2.32-.33-3.88-1-4.68A3.51,3.51,0,0,0,357.5,126.16Z" transform="translate(37.04 -24.67)" style="fill:#7a923c"/><path d="M36.54,176.77v-4.85h9.53v4.85Z" transform="translate(37.04 -24.67)" style="fill:#7a923c"/><path d="M58.56,165.19h4.65V176.7l7.46-11.51h4.76v18.32H70.77V171.8l-7.56,11.71H58.56Z" transform="translate(37.04 -24.67)" style="fill:#7a923c"/><path d="M80.29,165.19h4.47V179.6h5.57V165.19H94.8V179.6h5.64V165.19h4.47V179.6h2v8.74H103v-4.83H80.29Z" transform="translate(37.04 -24.67)" style="fill:#7a923c"/><path d="M110.08,165.19h4.66V176.7l7.45-11.51H127v18.32H122.3V171.8l-7.56,11.71h-4.66Z" transform="translate(37.04 -24.67)" style="fill:#7a923c"/><path d="M129.75,165.19h16.58v3.92h-5.87v14.4h-4.85v-14.4h-5.86Z" transform="translate(37.04 -24.67)" style="fill:#7a923c"/><path d="M159.84,177.68l4.83.81a8,8,0,0,1-2.95,4,8.66,8.66,0,0,1-5,1.39q-4.78,0-7.08-3.12a10.57,10.57,0,0,1-1.81-6.32,10.11,10.11,0,0,1,2.38-7.13,7.85,7.85,0,0,1,6-2.58,8.11,8.11,0,0,1,6.45,2.7q2.37,2.7,2.26,8.27H152.78a4.88,4.88,0,0,0,1.17,3.36,3.67,3.67,0,0,0,2.8,1.19,2.92,2.92,0,0,0,1.91-.62A3.84,3.84,0,0,0,159.84,177.68Zm.27-4.9a4.65,4.65,0,0,0-1.09-3.2,3.33,3.33,0,0,0-2.51-1.09,3.38,3.38,0,0,0-2.63,1.15,4.43,4.43,0,0,0-1,3.14Z" transform="translate(37.04 -24.67)" style="fill:#7a923c"/><path d="M193.84,183.51H180v4.83H176v-8.79h2a10.73,10.73,0,0,0,2-4.32,46.83,46.83,0,0,0,1-10h14.78v14.36h2v8.79h-3.95Zm-2.82-4,0-10.37h-5.86q-.3,7.59-2.42,10.37Z" transform="translate(37.04 -24.67)" style="fill:#7a923c"/><path d="M204.74,170.78l-4.4-.79a6.9,6.9,0,0,1,2.55-3.93,9.38,9.38,0,0,1,5.39-1.28,11.63,11.63,0,0,1,4.83.77,4.82,4.82,0,0,1,2.23,1.95,10,10,0,0,1,.65,4.33l-.05,5.66a19.41,19.41,0,0,0,.23,3.57,9.93,9.93,0,0,0,.87,2.45h-4.8c-.12-.32-.28-.8-.46-1.43-.08-.29-.14-.48-.17-.57a8.67,8.67,0,0,1-2.66,1.81,7.48,7.48,0,0,1-3,.61,6.22,6.22,0,0,1-4.46-1.54,5.07,5.07,0,0,1-1.63-3.88,5.27,5.27,0,0,1,.74-2.77,4.88,4.88,0,0,1,2.08-1.86,16.22,16.22,0,0,1,3.86-1.13,26.94,26.94,0,0,0,4.71-1.19v-.48a2.52,2.52,0,0,0-.69-2,4.2,4.2,0,0,0-2.61-.59,3.49,3.49,0,0,0-2,.51A3.55,3.55,0,0,0,204.74,170.78Zm6.49,3.94c-.62.2-1.61.45-2.95.74a9.1,9.1,0,0,0-2.64.84,2,2,0,0,0-.95,1.71,2.36,2.36,0,0,0,.76,1.76,2.66,2.66,0,0,0,1.93.74,4.23,4.23,0,0,0,2.5-.86A3.05,3.05,0,0,0,211,178a9.86,9.86,0,0,0,.19-2.36Z" transform="translate(37.04 -24.67)" style="fill:#7a923c"/><path d="M222.08,165.19h16.23v18.32h-4.83V169.13h-6.61v8.23a9.57,9.57,0,0,1-.72,4.4,3.77,3.77,0,0,1-1.61,1.67,7.47,7.47,0,0,1-2.83.39,19.49,19.49,0,0,1-3.05-.31v-3.57l.81,0c.51,0,.9.05,1.17.05.66,0,1.06-.22,1.21-.65a15.74,15.74,0,0,0,.23-3.59Z" transform="translate(37.04 -24.67)" style="fill:#7a923c"/><path d="M243.31,165.19h4.85v7.61H253a18.2,18.2,0,0,1,4.4.41A4.67,4.67,0,0,1,260,175a5.2,5.2,0,0,1,1,3.18,4.65,4.65,0,0,1-1.81,4,9.24,9.24,0,0,1-5.46,1.33H243.31Zm4.85,15.25h4.52c1.41,0,2.32-.23,2.72-.69a2.45,2.45,0,0,0,.59-1.64,1.84,1.84,0,0,0-1-1.82,9.15,9.15,0,0,0-3.65-.5h-3.16Z" transform="translate(37.04 -24.67)" style="fill:#7a923c"/><path d="M264.81,165.19h4.45V179.6h5.62V165.19h4.47V179.6H285V165.19h4.47v18.32H264.81Z" transform="translate(37.04 -24.67)" style="fill:#7a923c"/><path d="M305,177.68l4.83.81a8,8,0,0,1-2.95,4,8.66,8.66,0,0,1-5,1.39q-4.78,0-7.08-3.12a10.57,10.57,0,0,1-1.81-6.32,10.15,10.15,0,0,1,2.38-7.13,7.85,7.85,0,0,1,6-2.58,8.11,8.11,0,0,1,6.45,2.7q2.37,2.7,2.26,8.27H297.93a4.88,4.88,0,0,0,1.17,3.36,3.67,3.67,0,0,0,2.8,1.19,2.9,2.9,0,0,0,1.91-.62A3.84,3.84,0,0,0,305,177.68Zm.27-4.9a4.65,4.65,0,0,0-1.09-3.2,3.33,3.33,0,0,0-2.51-1.09,3.38,3.38,0,0,0-2.63,1.15,4.43,4.43,0,0,0-1,3.14Z" transform="translate(37.04 -24.67)" style="fill:#7a923c"/><path d="M315.92,177l-1.26-12.83v-5.94h5.25v5.94L318.67,177Zm-1.05,6.52v-4.84h4.85v4.84Z" transform="translate(37.04 -24.67)" style="fill:#7a923c"/><path d="M13.24,63Q4.54,61.55.61,64.94t-3.48,7.14c.3,2.52,2,4.46,5,5.8s7.41.59,13-2.23L19.84,85a22.1,22.1,0,0,1-9.95,3A32.61,32.61,0,0,1-1.4,86.94a24.11,24.11,0,0,1-9.37-5,11.8,11.8,0,0,1-4.1-8.79A15,15,0,0,1-12,63.24a22,22,0,0,1,7.85-6.65A24.91,24.91,0,0,1,6.06,54a18.36,18.36,0,0,1,9.72,2Z" transform="translate(37.04 -24.67)" style="fill:#d86600"/><path d="M46.89,53.91,57.33,84.26,46.26,88.1l-2.19-6.7H35.51L33.5,88,22.61,82.88,33.72,54.76ZM43.23,74.4,40,66.5l-3.35,7.76Z" transform="translate(37.04 -24.67)" style="fill:#d86600"/><path d="M60.09,55.3l10.4-.63V66.19l7.63-.14V54.58L90,53.91,88.43,86,78.12,87.16V75l-7.63.18v12l-9,.9Z" transform="translate(37.04 -24.67)" style="fill:#d86600"/><path d="M92.8,55.65l30.75-1.74.54,15.44-11.74-.62,3.52,19.37-15.08-1.61,2.59-17.4-10.84.31Z" transform="translate(37.04 -24.67)" style="fill:#d86600"/><path d="M151,53.91l10.44,30.35L150.37,88.1l-2.19-6.7h-8.57l-2,6.56-10.88-5.08,11.11-28.12ZM147.33,74.4l-3.25-7.9-3.35,7.76Z" transform="translate(37.04 -24.67)" style="fill:#d86600"/><path d="M213.38,54.72,220.87,62l-9.1,9.68,9.15,9.68L211.28,88,201.15,76.4l.13,10.89L190,88.1l-1.7-33.69,12.94-.5.09,16.65Z" transform="translate(37.04 -24.67)" style="fill:#d86600"/><path d="M223.59,88.1,230.78,55,244,53.91l11.91,27.8-11.15,1.34-5.14-14.5-2.45,18.52Z" transform="translate(37.04 -24.67)" style="fill:#d86600"/><path d="M282.81,53.91l10.44,30.35L282.18,88.1,280,81.4h-8.57l-2,6.56-10.89-5.08,11.11-28.12ZM279.15,74.4l-3.26-7.9-3.34,7.76Z" transform="translate(37.04 -24.67)" style="fill:#d86600"/><path d="M296,63.69l7.63-5.8,6.25,8.3,5-12.28,10.44,1.74L308,88.1l-7.68-5.58,6.29-10.22Z" transform="translate(37.04 -24.67)" style="fill:#d86600"/><path d="M355.9,63q-8.7-1.47-12.63,1.92t-3.48,7.14c.3,2.52,2,4.46,5,5.8s7.4.59,13-2.23L362.51,85a22.18,22.18,0,0,1-9.95,3,32.59,32.59,0,0,1-11.29-1.07,24.15,24.15,0,0,1-9.38-5,11.83,11.83,0,0,1-4.1-8.79,15,15,0,0,1,2.9-9.91,22,22,0,0,1,7.85-6.65A25,25,0,0,1,348.72,54a18.4,18.4,0,0,1,9.73,2Z" transform="translate(37.04 -24.67)" style="fill:#d86600"/></svg>