<svg xmlns="http://www.w3.org/2000/svg" viewBox="0 0 215 135.78947">
    <rect width="215" height="135.78947" rx="8.64697" ry="8.64697" style="fill:#95bb2c"/>
    <path d="M142.11914,435.37305l-.29687-1.75684,9.39062.06445-.29687,1.69239Zm5.36133-10.88867,3.44824-.19434-.46484,9.28711-2.9834.33594.20605-7.33692-2.55761.168.15527,7.19531-2.62207.25782-.3877-9.50684Z" transform="translate(-114.125 -391.35526)" style="fill:#fff"/>
    <path d="M161.50781,430.63281a4.24986,4.24986,0,0,1-1.75683,3.39649,5.80687,5.80687,0,0,1-3.44825,1.11132,5.43586,5.43586,0,0,1-3.3457-1.13671,3.836,3.836,0,0,1-1.46-3.3711,4.84983,4.84983,0,0,1,.55566-2.209,6.28754,6.28754,0,0,1,1.39551-1.71778,5.9393,5.9393,0,0,1,1.85938-1.09863,5.08437,5.08437,0,0,1,2.002-.36133,4.84677,4.84677,0,0,1,1.21484.27149,4.44991,4.44991,0,0,1,1.459.85254,4.83231,4.83231,0,0,1,1.16308,1.64062A5.82238,5.82238,0,0,1,161.50781,430.63281Zm-3.62988-1.15039a.2116.2116,0,0,0,.09082-.06445.31924.31924,0,0,0,.07715-.07715.95838.95838,0,0,0,.32324-.71094,1.34742,1.34742,0,0,0-.21973-.68457c-.01757-.0166-.03906-.03613-.06445-.05761a1.02844,1.02844,0,0,1-.07715-.07129c-.01758-.01661-.03711-.03614-.05859-.05762a.46436.46436,0,0,0-.07129-.05859,1.76723,1.76723,0,0,0-.6709-.25782,1.1879,1.1879,0,0,0-.77539.11621,1.37413,1.37413,0,0,0-.28418.1543q-.19336.13036-.21973.15527a1.0539,1.0539,0,0,0-.33593.76172,1.30831,1.30831,0,0,0,.27148.72364.51166.51166,0,0,1,.04492.05175.43708.43708,0,0,0,.0459.05176.36563.36563,0,0,1,.05078.03223.436.436,0,0,1,.05176.04492,1.41284,1.41284,0,0,0,.83984.31055,1.394,1.394,0,0,0,.99512-.375Z" transform="translate(-114.125 -391.35526)" style="fill:#fff"/>
    <path d="M165.499,428.47559a6.72923,6.72923,0,0,1,2.91895,1.20117,2.361,2.361,0,0,1,.543.5039,2.06913,2.06913,0,0,1,.29687.54883,2.254,2.254,0,0,1,.12305.626q.019.33691.01953.73633v.52343a2.69268,2.69268,0,0,1-.0459.50391,1.46409,1.46409,0,0,1-.16113.44531,1.06651,1.06651,0,0,1-.34863.36231,6.90914,6.90914,0,0,1-2.16993.92969,14.29406,14.29406,0,0,1-2.53222.38769,15.263,15.263,0,0,1-2.002,0l.67188-9.5332,5.90332-.65821v2.10547l-3.25586-.06543.03906,1.39551Zm-.52929,4.417a2.57176,2.57176,0,0,0,1.5625-.30957.86013.86013,0,0,0,.41308-.80078,1.552,1.552,0,0,0-.542-.9043,2.96238,2.96238,0,0,0-1.26562-.67188Z" transform="translate(-114.125 -391.35526)" style="fill:#fff"/>
    <path d="M174.07617,432.02734l.12891,3.11328-2.81641-.33593-.6582-9.53321q.36182-.0249.85254-.02539.49072,0,1.13672.03907a12.24394,12.24394,0,0,1,2.53125.374,6.87947,6.87947,0,0,1,2.18359.93066,1.94408,1.94408,0,0,1,.92969,1.67871,2.94727,2.94727,0,0,1-1.36914,2.57032,6.64182,6.64182,0,0,1-2.91895,1.20117Zm-.3623-1.71777a2.95931,2.95931,0,0,0,1.27929-.65918,1.48285,1.48285,0,0,0,.5293-.917.86214.86214,0,0,0-.41308-.80078,2.5769,2.5769,0,0,0-1.56348-.30957Z" transform="translate(-114.125 -391.35526)" style="fill:#fff"/>
    <path d="M189.05957,430.63281a4.25257,4.25257,0,0,1-1.75684,3.39649,5.81178,5.81178,0,0,1-3.44921,1.11132,5.43791,5.43791,0,0,1-3.34571-1.13671,3.833,3.833,0,0,1-1.459-3.3711,4.83749,4.83749,0,0,1,.55566-2.209,6.30205,6.30205,0,0,1,1.39453-1.71778,5.944,5.944,0,0,1,1.86036-1.09863,5.08137,5.08137,0,0,1,2.002-.36133,4.841,4.841,0,0,1,1.21387.27149,4.45394,4.45394,0,0,1,1.46.85254,4.83061,4.83061,0,0,1,1.16211,1.64062A5.82183,5.82183,0,0,1,189.05957,430.63281Zm-3.62988-1.15039a.19985.19985,0,0,0,.08984-.06445.32533.32533,0,0,0,.07813-.07715.96194.96194,0,0,0,.32324-.71094,1.34742,1.34742,0,0,0-.21973-.68457c-.01758-.0166-.03906-.03613-.06445-.05761a1.03663,1.03663,0,0,1-.07813-.07129c-.01757-.01661-.03613-.03614-.05761-.05762a.51665.51665,0,0,0-.07129-.05859,1.7656,1.7656,0,0,0-.67188-.25782,1.18874,1.18874,0,0,0-.77539.11621,1.42773,1.42773,0,0,0-.28418.1543c-.1289.08691-.20215.13867-.21875.15527a1.0501,1.0501,0,0,0-.33594.76172,1.30724,1.30724,0,0,0,.27051.72364.52865.52865,0,0,1,.0459.05175.425.425,0,0,0,.04492.05176.37376.37376,0,0,1,.05176.03223.53032.53032,0,0,1,.05176.04492,1.41045,1.41045,0,0,0,.83984.31055,1.39185,1.39185,0,0,0,.99414-.375Z" transform="translate(-114.125 -391.35526)" style="fill:#fff"/>
    <path d="M202.169,425.43945l3.43652-.19336-.45215,9.28711-2.98437.33594.19433-7.33691-2.55762.168.15528,7.18164-2.60938.25878-.40039-9.49414Z" transform="translate(-114.125 -391.35526)" style="fill:#fff"/>
    <path d="M216.35254,430.63281a4.25257,4.25257,0,0,1-1.75684,3.39649,5.81181,5.81181,0,0,1-3.44922,1.11132,5.43791,5.43791,0,0,1-3.3457-1.13671,3.833,3.833,0,0,1-1.459-3.3711,4.83749,4.83749,0,0,1,.55566-2.209,6.30205,6.30205,0,0,1,1.39453-1.71778,5.94409,5.94409,0,0,1,1.86035-1.09863,5.08145,5.08145,0,0,1,2.002-.36133,4.8408,4.8408,0,0,1,1.21386.27149,4.45374,4.45374,0,0,1,1.46.85254,4.83047,4.83047,0,0,1,1.16211,1.64062A5.82169,5.82169,0,0,1,216.35254,430.63281Zm-3.62988-1.15039c.05175-.02539.082-.04687.08983-.06445a.325.325,0,0,0,.07813-.07715.96192.96192,0,0,0,.32325-.71094,1.34742,1.34742,0,0,0-.21973-.68457c-.01758-.0166-.03906-.03613-.06445-.05761a1.03663,1.03663,0,0,1-.07813-.07129c-.01758-.01661-.03613-.03614-.05761-.05762a.51665.51665,0,0,0-.07129-.05859,1.76567,1.76567,0,0,0-.67188-.25782,1.18874,1.18874,0,0,0-.77539.11621,1.42773,1.42773,0,0,0-.28418.1543c-.12891.08691-.20215.13867-.21875.15527a1.0501,1.0501,0,0,0-.33594.76172,1.30716,1.30716,0,0,0,.27051.72364.53.53,0,0,1,.0459.05175.4241.4241,0,0,0,.04492.05176.37376.37376,0,0,1,.05176.03223.53032.53032,0,0,1,.05176.04492,1.41045,1.41045,0,0,0,.83984.31055,1.39187,1.39187,0,0,0,.99414-.375Z" transform="translate(-114.125 -391.35526)" style="fill:#fff"/>
    <path d="M222.02246,425.3623l1.87305-.05175.07715,2.71289,2.32519-2.93262,2.8291,1.53711-3.47461,3.59082,2.66114,3.04883-2.3252,1.73047-2.06738-3.04785-.06445,2.87988-1.69141.05176-.06543-2.77637-1.87305,2.44043-2.9707-1.53711L220.292,429.793l-2.42871-3.44922,2.48047-.92969,1.80762,2.76465Z" transform="translate(-114.125 -391.35526)" style="fill:#fff"/>
    <path d="M236.61816,425.24609l3.02246,8.78321-3.20313,1.11132-.6328-1.9375h-2.48047l-.58106,1.89844-3.15136-1.47265,3.21582-8.1377Zm-1.05859,5.92871-.94336-2.28613-.96875,2.24805Z" transform="translate(-114.125 -391.35526)" style="fill:#fff"/>
    <path d="M240.44141,435.14062l2.08007-9.57128,3.82325-.32325L249.794,433.293l-3.2295.38769-1.48535-4.19824-.71094,5.36133Z" transform="translate(-114.125 -391.35526)" style="fill:#fff"/>
    <path d="M260.56641,430.63281a4.2526,4.2526,0,0,1-1.75684,3.39649,5.81181,5.81181,0,0,1-3.44922,1.11132,5.43791,5.43791,0,0,1-3.3457-1.13671,3.833,3.833,0,0,1-1.459-3.3711,4.8375,4.8375,0,0,1,.55567-2.209,6.30205,6.30205,0,0,1,1.39453-1.71778,5.94409,5.94409,0,0,1,1.86035-1.09863,5.08143,5.08143,0,0,1,2.00195-.36133,4.84086,4.84086,0,0,1,1.21387.27149,4.45384,4.45384,0,0,1,1.46.85254,4.83047,4.83047,0,0,1,1.16211,1.64062A5.82169,5.82169,0,0,1,260.56641,430.63281Zm-3.62989-1.15039a.2.2,0,0,0,.08985-.06445.32545.32545,0,0,0,.07812-.07715.9619.9619,0,0,0,.32324-.71094,1.34741,1.34741,0,0,0-.21972-.68457c-.01758-.0166-.03906-.03613-.06446-.05761a1.03849,1.03849,0,0,1-.07812-.07129c-.01758-.01661-.03613-.03614-.05762-.05762a.51605.51605,0,0,0-.07129-.05859,1.76556,1.76556,0,0,0-.67187-.25782,1.18874,1.18874,0,0,0-.77539.11621,1.42745,1.42745,0,0,0-.28418.1543c-.12891.08691-.20215.13867-.21875.15527a1.0501,1.0501,0,0,0-.33594.76172,1.30709,1.30709,0,0,0,.27051.72364.53.53,0,0,1,.0459.05175.4241.4241,0,0,0,.04492.05176.37376.37376,0,0,1,.05176.03223.53025.53025,0,0,1,.05175.04492,1.41048,1.41048,0,0,0,.83985.31055,1.39187,1.39187,0,0,0,.99414-.375Z" transform="translate(-114.125 -391.35526)" style="fill:#fff"/>
    <path d="M261.46973,425.68555q.69726-.15528,1.40136-.26465.7046-.10986,1.44043-.17481a7.78562,7.78562,0,0,1,3.48731.71094,2.12779,2.12779,0,0,1,1.48633,1.74317,1.73944,1.73944,0,0,1-.98243,1.79589,3.977,3.977,0,0,1,2.53223,1.0459,2.39216,2.39216,0,0,1,.67188,1.8086,2.76262,2.76262,0,0,1-.917,1.76953,3.70593,3.70593,0,0,1-2.3125.94336q-.83936.07617-1.58886.084a14.11174,14.11174,0,0,1-1.4336-.05859q-.68555-.06445-1.38867-.18067-.7046-.11718-1.44043-.29687Zm3.60449,3.03515c.18066-.0166.35254-.03418.5166-.05175a2.5781,2.5781,0,0,0,.46484-.08985q.43946-.11718.47754-.41406.05127-.55518-.67187-.6709c-.24121-.04394-.43848-.07129-.59375-.084a1.253,1.253,0,0,0-.34863.00586Zm.55469,4.00391a6.77042,6.77042,0,0,1,1.11132-.07715q.82619-.03809.78809-.72363-.03955-.78663-.93066-.85254c-.293-.02539-.53321-.04-.72266-.04492a2.29954,2.29954,0,0,0-.42676.01953Z" transform="translate(-114.125 -391.35526)" style="fill:#fff"/>
    <path d="M279.4248,425.24609l3.02247,8.78321-3.20313,1.11132-.63379-1.9375h-2.47949l-.58106,1.89844-3.15234-1.47265,3.2168-8.1377Zm-1.05957,5.92871-.94238-2.28613-.96875,2.24805Z" transform="translate(-114.125 -391.35526)" style="fill:#fff"/>
    <path d="M283.3252,425.75l8.90039-.50391.15429,4.46973-3.39648-.18164,1.01953,5.60644-4.36523-.46484.749-5.03808-3.13867.09082Z" transform="translate(-114.125 -391.35526)" style="fill:#fff"/>
    <path d="M296.22949,428.47559a6.72923,6.72923,0,0,1,2.91895,1.20117,2.36122,2.36122,0,0,1,.543.5039,2.06913,2.06913,0,0,1,.29687.54883,2.254,2.254,0,0,1,.12305.626q.019.33691.01953.73633v.52343a2.69352,2.69352,0,0,1-.0459.50391,1.46409,1.46409,0,0,1-.16113.44531,1.06651,1.06651,0,0,1-.34863.36231,6.90914,6.90914,0,0,1-2.16993.92969,14.29406,14.29406,0,0,1-2.53222.38769,15.263,15.263,0,0,1-2.002,0l.67188-9.5332,2.80273-.33594-.11621,3.11328Zm-.52929,4.417a2.57176,2.57176,0,0,0,1.5625-.30957.86013.86013,0,0,0,.41308-.80078,1.552,1.552,0,0,0-.542-.9043,2.96236,2.96236,0,0,0-1.26563-.67188Z" transform="translate(-114.125 -391.35526)" style="fill:#fff"/>
    <path d="M132.02539,441.18555q.69726-.15528,1.40137-.26465.70313-.10986,1.44043-.17481a7.788,7.788,0,0,1,3.4873.71094,2.125,2.125,0,0,1,1.48535,1.74317,1.74,1.74,0,0,1-.98144,1.79589,3.97406,3.97406,0,0,1,2.53125,1.0459,2.38837,2.38837,0,0,1,.67187,1.8086,2.76256,2.76256,0,0,1-.917,1.76953,3.70361,3.70361,0,0,1-2.3125.94336q-.83936.07617-1.58887.084a14.13527,14.13527,0,0,1-1.43359-.05859q-.68408-.06445-1.38867-.18067-.70312-.11718-1.43945-.29687Zm3.60352,3.03515c.18066-.0166.35351-.03418.5166-.05175a2.56179,2.56179,0,0,0,.46484-.08985q.43945-.11718.47852-.41406.05127-.55518-.67188-.6709c-.24121-.04394-.43945-.07129-.59472-.084a1.25617,1.25617,0,0,0-.34864.00586Zm.55566,4.00391a6.76558,6.76558,0,0,1,1.11035-.07715q.82764-.03809.78809-.72363-.03809-.78663-.92969-.85254-.43946-.03808-.72363-.04492a2.28777,2.28777,0,0,0-.42578.01953Z" transform="translate(-114.125 -391.35526)" style="fill:#fff"/>
    <path d="M149.94043,441.14648l3.00977-.18066v3.332l2.209-.03808v-3.32032l3.43555-.19336-.45215,9.28711-2.9834.33594v-3.52637l-2.209.05176v3.48731l-2.60938.25878Z" transform="translate(-114.125 -391.35526)" style="fill:#fff"/>
    <path d="M169.3418,446.13281a4.24989,4.24989,0,0,1-1.75684,3.39649,5.80684,5.80684,0,0,1-3.44824,1.11132,5.43586,5.43586,0,0,1-3.3457-1.13671,3.836,3.836,0,0,1-1.46-3.3711,4.84972,4.84972,0,0,1,.55567-2.209,6.28735,6.28735,0,0,1,1.39551-1.71778,5.93937,5.93937,0,0,1,1.85937-1.09863,5.08441,5.08441,0,0,1,2.00195-.36133,4.84683,4.84683,0,0,1,1.21485.27149,4.44987,4.44987,0,0,1,1.459.85254,4.83247,4.83247,0,0,1,1.16309,1.64062A5.82266,5.82266,0,0,1,169.3418,446.13281Zm-3.62989-1.15039a.21153.21153,0,0,0,.09082-.06445.31924.31924,0,0,0,.07715-.07715.95838.95838,0,0,0,.32324-.71094,1.34741,1.34741,0,0,0-.21972-.68457c-.01758-.0166-.03906-.03613-.06445-.05761a1.02649,1.02649,0,0,1-.07715-.07129c-.01758-.01661-.03711-.03614-.0586-.05762a.46388.46388,0,0,0-.07129-.05859,1.76718,1.76718,0,0,0-.67089-.25782,1.18794,1.18794,0,0,0-.7754.11621,1.37375,1.37375,0,0,0-.28417.1543q-.19336.13036-.21973.15527a1.05391,1.05391,0,0,0-.33594.76172,1.30824,1.30824,0,0,0,.27149.72364.5142.5142,0,0,1,.04492.05175.43618.43618,0,0,0,.0459.05176.36563.36563,0,0,1,.05078.03223.43589.43589,0,0,1,.05175.04492,1.41287,1.41287,0,0,0,.83985.31055,1.394,1.394,0,0,0,.99512-.375Z" transform="translate(-114.125 -391.35526)" style="fill:#fff"/>
    <path d="M170.24609,441.18555q.69727-.15528,1.40137-.26465.70313-.10986,1.44043-.17481a7.788,7.788,0,0,1,3.48731.71094,2.125,2.125,0,0,1,1.48535,1.74317,1.74,1.74,0,0,1-.98145,1.79589,3.97406,3.97406,0,0,1,2.53125,1.0459,2.38842,2.38842,0,0,1,.67188,1.8086,2.76262,2.76262,0,0,1-.917,1.76953,3.70356,3.70356,0,0,1-2.3125.94336q-.83936.07617-1.58886.084a14.13535,14.13535,0,0,1-1.4336-.05859q-.68408-.06445-1.38867-.18067-.70312-.11718-1.43945-.29687Zm3.60352,3.03515c.18066-.0166.35351-.03418.5166-.05175a2.56179,2.56179,0,0,0,.46484-.08985q.43946-.11718.47852-.41406.05127-.55518-.67187-.6709c-.24122-.04394-.43946-.07129-.59473-.084a1.25608,1.25608,0,0,0-.34863.00586Zm.55566,4.00391a6.76569,6.76569,0,0,1,1.11035-.07715q.82764-.03809.78809-.72363-.03808-.78663-.92969-.85254-.43945-.03808-.72363-.04492a2.28788,2.28788,0,0,0-.42578.01953Z" transform="translate(-114.125 -391.35526)" style="fill:#fff"/>
    <path d="M191.18457,446.13281a4.25257,4.25257,0,0,1-1.75684,3.39649,5.81178,5.81178,0,0,1-3.44921,1.11132,5.43791,5.43791,0,0,1-3.34571-1.13671,3.833,3.833,0,0,1-1.459-3.3711,4.83749,4.83749,0,0,1,.55566-2.209,6.30205,6.30205,0,0,1,1.39453-1.71778,5.944,5.944,0,0,1,1.86036-1.09863,5.08137,5.08137,0,0,1,2.002-.36133,4.841,4.841,0,0,1,1.21387.27149,4.45394,4.45394,0,0,1,1.46.85254,4.83061,4.83061,0,0,1,1.16211,1.64062A5.82183,5.82183,0,0,1,191.18457,446.13281Zm-3.62988-1.15039a.19985.19985,0,0,0,.08984-.06445.32533.32533,0,0,0,.07813-.07715.96194.96194,0,0,0,.32324-.71094,1.34742,1.34742,0,0,0-.21973-.68457c-.01758-.0166-.03906-.03613-.06445-.05761a1.03663,1.03663,0,0,1-.07813-.07129c-.01757-.01661-.03613-.03614-.05761-.05762a.51665.51665,0,0,0-.07129-.05859,1.7656,1.7656,0,0,0-.67188-.25782,1.18874,1.18874,0,0,0-.77539.11621,1.42773,1.42773,0,0,0-.28418.1543c-.1289.08691-.20215.13867-.21875.15527a1.0501,1.0501,0,0,0-.33594.76172,1.30724,1.30724,0,0,0,.27051.72364.52865.52865,0,0,1,.0459.05175.425.425,0,0,0,.04492.05176.37376.37376,0,0,1,.05176.03223.53032.53032,0,0,1,.05176.04492,1.41045,1.41045,0,0,0,.83984.31055,1.39185,1.39185,0,0,0,.99414-.375Z" transform="translate(-114.125 -391.35526)" style="fill:#fff"/>
    <path d="M195.44629,446.98535l.29687,3.65527-3.06054-.25878-.59473-9.63575,6.74316.30957.0127,2.76465-3.75879-.25781Z" transform="translate(-114.125 -391.35526)" style="fill:#fff"/>
    <path d="M209.4873,446.13281a4.25256,4.25256,0,0,1-1.75683,3.39649,5.81181,5.81181,0,0,1-3.44922,1.11132,5.43788,5.43788,0,0,1-3.3457-1.13671,3.833,3.833,0,0,1-1.459-3.3711,4.83737,4.83737,0,0,1,.55567-2.209,6.30187,6.30187,0,0,1,1.39453-1.71778,5.94409,5.94409,0,0,1,1.86035-1.09863,5.0814,5.0814,0,0,1,2.00195-.36133,4.84086,4.84086,0,0,1,1.21387.27149,4.45384,4.45384,0,0,1,1.46.85254,4.83061,4.83061,0,0,1,1.16211,1.64062A5.82156,5.82156,0,0,1,209.4873,446.13281Zm-3.62988-1.15039a.2.2,0,0,0,.08985-.06445.32545.32545,0,0,0,.07812-.07715.96194.96194,0,0,0,.32324-.71094,1.3475,1.3475,0,0,0-.21972-.68457c-.01758-.0166-.03907-.03613-.06446-.05761a1.03849,1.03849,0,0,1-.07812-.07129c-.01758-.01661-.03613-.03614-.05762-.05762a.51605.51605,0,0,0-.07129-.05859,1.76556,1.76556,0,0,0-.67187-.25782,1.18873,1.18873,0,0,0-.77539.11621,1.42745,1.42745,0,0,0-.28418.1543c-.12891.08691-.20215.13867-.21875.15527a1.0501,1.0501,0,0,0-.33594.76172,1.30709,1.30709,0,0,0,.27051.72364.53.53,0,0,1,.0459.05175.4241.4241,0,0,0,.04492.05176.37376.37376,0,0,1,.05176.03223.53142.53142,0,0,1,.05175.04492,1.41045,1.41045,0,0,0,.83985.31055,1.39188,1.39188,0,0,0,.99414-.375Z" transform="translate(-114.125 -391.35526)" style="fill:#fff"/>
    <path d="M210.40332,450.87305l-.29687-1.75684,9.39062.06445-.29687,1.69239Zm5.36133-10.88867,3.44824-.19434-.46484,9.28711-2.9834.33594.20605-7.33692-2.55761.168.15527,7.19531-2.62207.25782-.3877-9.50684Z" transform="translate(-114.125 -391.35526)" style="fill:#fff"/>
    <path d="M219.78125,441.14648l3.00977-.18066v3.332l2.209-.03808v-3.32032l3.43555-.19336-.45215,9.28711L225,450.36914v-3.52637l-2.209.05176v3.48731l-2.60938.25878Z" transform="translate(-114.125 -391.35526)" style="fill:#fff"/>
    <path d="M229.17188,440.74609l3.707.24512-.18067,9.5459-3.28027.10351Zm7.90527,4.09473-.1416,2.40234-7.1045.06446.06446-3.22852Zm8.06055,1.20117a4.25448,4.25448,0,0,1-1.75684,3.39746,5.85413,5.85413,0,0,1-3.44922,1.124,5.54059,5.54059,0,0,1-3.34473-1.15039,3.8336,3.8336,0,0,1-1.46-3.3711,4.66259,4.66259,0,0,1,.56836-2.209,6.0425,6.0425,0,0,1,1.38184-1.71778,6.19944,6.19944,0,0,1,1.86034-1.09765,4.18085,4.18085,0,0,1,3.2295-.09082,4.22335,4.22335,0,0,1,1.44629.85254,4.84017,4.84017,0,0,1,1.16211,1.64062A5.52,5.52,0,0,1,245.1377,446.042Zm-3.62989-1.14941a.23253.23253,0,0,0,.10352-.06446.36316.36316,0,0,0,.06445-.07812.9599.9599,0,0,0,.32324-.71,1.45436,1.45436,0,0,0-.21972-.68457q-.02637-.02637-.06446-.05859c-.02636-.02149-.05175-.04493-.07812-.07032a1.26368,1.26368,0,0,0-.12891-.11621,1.60741,1.60741,0,0,0-.67187-.25879,1.19129,1.19129,0,0,0-.77442.11621.76613.76613,0,0,0-.168.084,1.07818,1.07818,0,0,1-.11621.07129,1.05308,1.05308,0,0,0-.21972.168,1.03427,1.03427,0,0,0-.33594.749,1.3064,1.3064,0,0,0,.27148.72363.43607.43607,0,0,1,.04493.05176.41847.41847,0,0,0,.04492.05078.74856.74856,0,0,0,.10351.09082,1.39675,1.39675,0,0,0,.85254.29688,1.37129,1.37129,0,0,0,.98145-.36133Z" transform="translate(-114.125 -391.35526)" style="fill:#fff"/>
    <path d="M245.42188,440.74609l3.707.24512-.18067,9.5459-3.28125.10351Zm7.90527,4.09473-.14258,2.40234-7.10449.06446.06445-3.22852Zm8.05957,1.20117a4.24907,4.24907,0,0,1-1.75684,3.39746,5.84906,5.84906,0,0,1-3.44824,1.124,5.54334,5.54334,0,0,1-3.3457-1.15039,3.836,3.836,0,0,1-1.46-3.3711,4.66248,4.66248,0,0,1,.56836-2.209,6.06253,6.06253,0,0,1,1.38281-1.71778,6.20673,6.20673,0,0,1,1.85937-1.09765,4.18,4.18,0,0,1,3.2295-.09082,4.2362,4.2362,0,0,1,1.44726.85254,4.84017,4.84017,0,0,1,1.16211,1.64062A5.52088,5.52088,0,0,1,261.38672,446.042Zm-3.62891-1.14941a.23.23,0,0,0,.10254-.06446.33471.33471,0,0,0,.06445-.07812.95636.95636,0,0,0,.32325-.71,1.45427,1.45427,0,0,0-.21973-.68457.68306.68306,0,0,0-.06445-.05859c-.02539-.02149-.05176-.04493-.07715-.07032a1.26368,1.26368,0,0,0-.12891-.11621,1.60741,1.60741,0,0,0-.67187-.25879,1.19408,1.19408,0,0,0-.77539.11621.7659.7659,0,0,0-.168.084.99117.99117,0,0,1-.11621.07129,1.11773,1.11773,0,0,0-.21973.168,1.03807,1.03807,0,0,0-.33594.749,1.32121,1.32121,0,0,0,.27149.72363.3623.3623,0,0,1,.04492.05176.53853.53853,0,0,0,.0459.05078.69572.69572,0,0,0,.10351.09082,1.39247,1.39247,0,0,0,.85254.29688,1.37129,1.37129,0,0,0,.98145-.36133Z" transform="translate(-114.125 -391.35526)" style="fill:#fff"/>
    <path d="M268.65918,441.14648l3.00977-.18066v3.332l2.208-.03808v-3.32032l3.43653-.19336-.45215,9.28711-2.98438.33594v-3.52637l-2.208.05176v3.48731l-2.60938.25878Z" transform="translate(-114.125 -391.35526)" style="fill:#fff"/>
    <path d="M288.06055,446.13281a4.2526,4.2526,0,0,1-1.75684,3.39649,5.81181,5.81181,0,0,1-3.44922,1.11132,5.43791,5.43791,0,0,1-3.3457-1.13671,3.833,3.833,0,0,1-1.459-3.3711,4.8375,4.8375,0,0,1,.55567-2.209A6.30205,6.30205,0,0,1,280,442.20605a5.94409,5.94409,0,0,1,1.86035-1.09863,5.08143,5.08143,0,0,1,2.002-.36133,4.84086,4.84086,0,0,1,1.21387.27149,4.45384,4.45384,0,0,1,1.46.85254,4.83047,4.83047,0,0,1,1.16211,1.64062A5.82169,5.82169,0,0,1,288.06055,446.13281Zm-3.62989-1.15039a.1999.1999,0,0,0,.08985-.06445.32545.32545,0,0,0,.07812-.07715.96192.96192,0,0,0,.32325-.71094,1.34752,1.34752,0,0,0-.21973-.68457c-.01758-.0166-.03906-.03613-.06445-.05761a1.03663,1.03663,0,0,1-.07813-.07129c-.01758-.01661-.03613-.03614-.05762-.05762a.51605.51605,0,0,0-.07129-.05859,1.76556,1.76556,0,0,0-.67187-.25782,1.18874,1.18874,0,0,0-.77539.11621,1.42745,1.42745,0,0,0-.28418.1543c-.12891.08691-.20215.13867-.21875.15527a1.0501,1.0501,0,0,0-.33594.76172,1.30709,1.30709,0,0,0,.27051.72364.53.53,0,0,1,.0459.05175.4241.4241,0,0,0,.04492.05176.37376.37376,0,0,1,.05176.03223.53032.53032,0,0,1,.05176.04492,1.41042,1.41042,0,0,0,.83984.31055,1.39187,1.39187,0,0,0,.99414-.375Z" transform="translate(-114.125 -391.35526)" style="fill:#fff"/>
    <path d="M294.19531,446.88184l-4.9209-.58106-.06445-5.10254,2.76367-.19336-.1416,3.44824,2.42774.32325-.07715-3.75879,2.9834.33594.45214,9.2871-3.43554-.19335Z" transform="translate(-114.125 -391.35526)" style="fill:#fff"/>
    <path d="M301.44238,443.97559a6.73406,6.73406,0,0,1,2.91895,1.20117,2.3546,2.3546,0,0,1,.542.5039,2.045,2.045,0,0,1,.29785.54883,2.2537,2.2537,0,0,1,.12207.626q.019.33691.01953.73633v.52343a2.695,2.695,0,0,1-.04492.50391,1.44047,1.44047,0,0,1-.16211.44531,1.06651,1.06651,0,0,1-.34863.36231,6.89935,6.89935,0,0,1-2.16992.92969,14.27,14.27,0,0,1-2.53125.38769,15.27806,15.27806,0,0,1-2.00293,0l.67187-9.5332,2.80371-.33594-.11621,3.11328Zm-.53027,4.417a2.5769,2.5769,0,0,0,1.56348-.30957.864.864,0,0,0,.41308-.80078,1.55419,1.55419,0,0,0-.543-.9043,2.9566,2.9566,0,0,0-1.26562-.67188Z" transform="translate(-114.125 -391.35526)" style="fill:#fff"/>
    <path d="M310.94824,437.55566l-1.0459,9.77832-2.42871.24512-.42578-8.43457Zm-2.14355,10.5918a2.02575,2.02575,0,0,1,1.1748.23242.86635.86635,0,0,1,.49121.77539,1.07878,1.07878,0,0,1-.49121.86524,2.325,2.325,0,0,1-1.1748.45215,2.0833,2.0833,0,0,1-1.20117-.23243.88279.88279,0,0,1-.49122-.77539,1.09241,1.09241,0,0,1,.49122-.85254A2.35642,2.35642,0,0,1,308.80469,448.14746Z" transform="translate(-114.125 -391.35526)" style="fill:#fff"/>
    <path d="M166.17112,394.78177H124.03694a6.00668,6.00668,0,0,0-6.011,6.00469v7.82692a6.00622,6.00622,0,0,0,6.011,6.00415h42.13418a6.00645,6.00645,0,0,0,6.01132-6.00415v-7.82692a6.00691,6.00691,0,0,0-6.01132-6.00469" transform="translate(-114.125 -391.35526)" style="fill:#95bb2c"/>
    <path d="M161.95075,408.66193h-3.15728v-1.57367a2.167,2.167,0,0,1,.70177-1.62614,2.44034,2.44034,0,0,1,3.38016,0,2.21743,2.21743,0,0,1,.69155,1.63775V410.841h-1.31848v-3.806a1.152,1.152,0,0,0-.31816-.81831.95512.95512,0,0,0-.72386-.34.984.984,0,0,0-.765.32921,1.08363,1.08363,0,0,0-.31925.79761v.56285h1.82858v1.0956" transform="translate(-114.125 -391.35526)" style="fill:#fff"/>
    <path d="M154.17567,407.09765v1.0945h-2.14784a.77368.77368,0,0,0-.57363.22426.7842.7842,0,0,0-.2226.56285.71538.71538,0,0,0,.23364.55291.78416.78416,0,0,0,.58413.23393h2.1263v1.08428h-2.26384a2.13187,2.13187,0,0,1-1.42509-.5101,1.64535,1.64535,0,0,1-.65924-1.329,1.57732,1.57732,0,0,1,.26652-.86113,1.2867,1.2867,0,0,1,.69044-.54213,1.00682,1.00682,0,0,1-.54213-.46813,1.472,1.472,0,0,1-.22344-.78656,1.2826,1.2826,0,0,1,.50017-1.00943,1.68826,1.68826,0,0,1,1.11659-.42476h2.54v1.09532H151.964a.547.547,0,0,0-.39327.1472.517.517,0,0,0-.14831.38306.52573.52573,0,0,0,.14831.39383.51453.51453,0,0,0,.39327.15908h2.21165" transform="translate(-114.125 -391.35526)" style="fill:#fff"/>
    <path d="M140.87267,404.88066a1.11118,1.11118,0,0,0-.2121.6435,1.467,1.467,0,0,0,.45486,1.09671,1.87081,1.87081,0,0,0,1.14256.45044l.10991.00056a.85219.85219,0,0,1,.575.19083.73835.73835,0,0,1,.2552.60511v-.03148a.73838.73838,0,0,1-.2552.60566.85381.85381,0,0,1-.575.19139h-1.86807v1.09533h2.46407a1.49832,1.49832,0,0,0,1.15884-.53164,1.78075,1.78075,0,0,0,.472-1.23315v-.22343a1.77746,1.77746,0,0,0-.472-1.23258,1.49473,1.49473,0,0,0-1.15884-.53165l-.12345-.0011a.69027.69027,0,0,1-.53193-.19111.83271.83271,0,0,1-.16929-.56259.94914.94914,0,0,1,.00911-.171.55461.55461,0,0,1,.07567-.16985h-1.35134" transform="translate(-114.125 -391.35526)" style="fill:#fff"/>
    <path d="M145.88221,405.97324l1.08648,1.87969.44438.7733a.9605.9605,0,0,0,.62361-.32093,1.08212,1.08212,0,0,0,.31815-.79622v-1.5339H146.5257v-1.0945h3.15783v2.54278a2.16468,2.16468,0,0,1-.70122,1.62643,2.33312,2.33312,0,0,1-1.6938.68078l-.765.00082-1.08511-1.87856-1.08483-1.87969h1.52866" transform="translate(-114.125 -391.35526)" style="fill:#fff"/>
    <polygon points="40.403 13.525 40.403 14.618 42.783 14.618 40.232 17.384 40.232 18.376 44.425 18.376 44.425 17.277 41.81 17.277 44.325 14.572 44.325 13.525 40.403 13.525" style="fill:#fff"/>
    <path d="M132.02684,409.26879c-3.30919-.16516-5.462-2.62371-4.78233-5.76772a7.23321,7.23321,0,0,1,6.64432-5.42306h-7.26517v11.7992h11.79673v-3.72676a7.16339,7.16339,0,0,1-6.39355,3.11834" transform="translate(-114.125 -391.35526)" style="fill:#fff"/>
    <path d="M135.36475,398.11912a2.81277,2.81277,0,1,0,2.82392,2.81372,2.81467,2.81467,0,0,0-2.82392-2.81372" transform="translate(-114.125 -391.35526)" style="fill:#fff"/>
    <path d="M163.82324,457.67383l1.24024,3.60449-1.31446.45606-.25976-.79493h-1.01807l-.23828.7793-1.29346-.60449,1.31983-3.33887Zm-.43506,2.43359-.38672-.93847-.39746.92285Z" transform="translate(-114.125 -391.35526)" style="fill:#fff"/>
    <path d="M170.40674,460.19238l-2.02-.23926-.02637-2.09374,1.13428-.07911-.05811,1.415.99659.13281-.03174-1.543,1.22412.13867.18555,3.81055-1.40967-.07911Z" transform="translate(-114.125 -391.35526)" style="fill:#fff"/>
    <path d="M172.145,457.88086l3.65234-.207.06348,1.835-1.394-.07422.41894,2.29981-1.792-.19043.30762-2.06739-1.28809.03711Z" transform="translate(-114.125 -391.35526)" style="fill:#fff"/>
    <path d="M180.28174,459.88477a1.74326,1.74326,0,0,1-.7207,1.39355,2.38438,2.38438,0,0,1-1.41553.45606,2.232,2.232,0,0,1-1.37256-.46583,1.5749,1.5749,0,0,1-.59912-1.38378,1.98355,1.98355,0,0,1,.228-.90625,2.58737,2.58737,0,0,1,.57226-.70508,2.44675,2.44675,0,0,1,.76318-.45117,2.10064,2.10064,0,0,1,.82178-.14844,2.06075,2.06075,0,0,1,.49854.11133,1.8407,1.8407,0,0,1,.59863.35058,1.97215,1.97215,0,0,1,.477.67285A2.38146,2.38146,0,0,1,180.28174,459.88477Zm-1.48926-.47168a.09716.09716,0,0,0,.03711-.02637.1402.1402,0,0,0,.03174-.03223.39276.39276,0,0,0,.13232-.291.55015.55015,0,0,0-.08984-.28125l-.02686-.02442-.03174-.02832c-.00683-.00781-.01513-.01562-.02392-.02441a.18937.18937,0,0,0-.02881-.02344.71367.71367,0,0,0-.27588-.10644.48864.48864,0,0,0-.31787.04785.56865.56865,0,0,0-.1167.06347,1.09358,1.09358,0,0,0-.09033.06348.4319.4319,0,0,0-.1377.31348.544.544,0,0,0,.11133.29687.17554.17554,0,0,1,.01856.02051.15414.15414,0,0,0,.01855.02148.13169.13169,0,0,1,.02149.01368.13962.13962,0,0,1,.021.01855.58051.58051,0,0,0,.34473.12695.57179.57179,0,0,0,.4082-.15429Z" transform="translate(-114.125 -391.35526)" style="fill:#fff"/>
    <path d="M181.91943,458.999a2.77991,2.77991,0,0,1,1.19825.49317,1.00314,1.00314,0,0,1,.22265.207.84432.84432,0,0,1,.12207.22558.93714.93714,0,0,1,.0503.25684q.00806.1377.00781.30176v.21484a1.12954,1.12954,0,0,1-.01856.207.593.593,0,0,1-.0664.18262.43454.43454,0,0,1-.14307.14844,2.82319,2.82319,0,0,1-.89062.38183,5.87636,5.87636,0,0,1-1.03858.15918,6.28547,6.28547,0,0,1-.82178,0l.27539-3.91211,2.42286-.2705v.86425l-1.33594-.02636.01562.57226Zm-.21728,1.81348a1.062,1.062,0,0,0,.6416-.127.35481.35481,0,0,0,.16943-.3291.63808.63808,0,0,0-.22265-.3711,1.20291,1.20291,0,0,0-.51953-.27539Z" transform="translate(-114.125 -391.35526)" style="fill:#fff"/>
    <path d="M185.34375,459.03613a2.81939,2.81939,0,0,1,1.19824.49317,1.003,1.003,0,0,1,.22266.207.84292.84292,0,0,1,.12158.22558.90173.90173,0,0,1,.05029.25684q.00805.1377.0083.30176v.21484a1.12955,1.12955,0,0,1-.01855.207.6062.6062,0,0,1-.06641.18262.4346.4346,0,0,1-.14306.14844,2.75668,2.75668,0,0,1-.89063.38183c-.17334.042-.34521.07715-.5166.10352a4.61379,4.61379,0,0,1-.52246.0498c-.17676.01075-.333.01661-.46924.01661-.13574,0-.25146-.00391-.34717-.01075l.27051-3.91211,1.15039-.13769-.04785,1.27734Zm-.21729,1.81348a1.063,1.063,0,0,0,.64161-.12695.36242.36242,0,0,0,.16943-.32911.51464.51464,0,0,0-.06348-.18554.76257.76257,0,0,0-.15918-.19043,1.21106,1.21106,0,0,0-.51953-.27051Zm2.062.89551,1.34619-.04785.07422-3.91211-1.521-.10547Z" transform="translate(-114.125 -391.35526)" style="fill:#fff"/>
    <path d="M193.8042,457.75391l1.40967-.08008-.18555,3.81152-1.22412.1377.07959-3.01075-1.04981.06934.06348,2.94727-1.0708.10547-.16406-3.89551Z" transform="translate(-114.125 -391.35526)" style="fill:#fff"/>
    <path d="M196.88916,460.457l.05273,1.27735-1.15576-.1377-.27-3.91211c.09864-.00684.21534-.01074.34961-.01074s.29.00586.4668.0166a5.017,5.017,0,0,1,1.03857.15332,2.82011,2.82011,0,0,1,.896.38184.79684.79684,0,0,1,.38184.68945,1.20906,1.20906,0,0,1-.562,1.05469,2.74648,2.74648,0,0,1-1.19775.49316Zm-.14844-.70508a1.21107,1.21107,0,0,0,.52442-.2705.60646.60646,0,0,0,.21728-.376.35313.35313,0,0,0-.16943-.3291,1.062,1.062,0,0,0-.6416-.127Z" transform="translate(-114.125 -391.35526)" style="fill:#fff"/>
    <path d="M203.0376,459.88477a1.74324,1.74324,0,0,1-.72071,1.39355,2.38432,2.38432,0,0,1-1.41552.45606,2.23194,2.23194,0,0,1-1.37256-.46583,1.5749,1.5749,0,0,1-.59912-1.38378,1.98367,1.98367,0,0,1,.228-.90625,2.58759,2.58759,0,0,1,.57227-.70508,2.44675,2.44675,0,0,1,.76318-.45117,2.10064,2.10064,0,0,1,.82178-.14844,2.06075,2.06075,0,0,1,.49854.11133,1.8407,1.8407,0,0,1,.59863.35058,1.97215,1.97215,0,0,1,.477.67285A2.38159,2.38159,0,0,1,203.0376,459.88477Zm-1.48926-.47168a.09716.09716,0,0,0,.03711-.02637.1402.1402,0,0,0,.03174-.03223.39276.39276,0,0,0,.13232-.291.55015.55015,0,0,0-.08984-.28125l-.02686-.02442-.03174-.02832c-.00683-.00781-.01513-.01562-.02392-.02441a.18937.18937,0,0,0-.02881-.02344.71367.71367,0,0,0-.27588-.10644.48863.48863,0,0,0-.31787.04785.56865.56865,0,0,0-.1167.06347,1.09358,1.09358,0,0,0-.09033.06348.4319.4319,0,0,0-.1377.31348.544.544,0,0,0,.11133.29687.17554.17554,0,0,1,.01856.02051.15348.15348,0,0,0,.01855.02148.13211.13211,0,0,1,.02149.01368.13962.13962,0,0,1,.021.01855.58051.58051,0,0,0,.34473.12695.57179.57179,0,0,0,.4082-.15429Z" transform="translate(-114.125 -391.35526)" style="fill:#fff"/>
    <path d="M203.40869,457.85449c.19092-.042.38233-.0791.5752-.1084.19238-.03027.38965-.05371.59082-.07226a3.2,3.2,0,0,1,1.43115.292.87333.87333,0,0,1,.60986.71582.71362.71362,0,0,1-.40283.73633,1.63169,1.63169,0,0,1,1.03857.42969.98174.98174,0,0,1,.27588.74218,1.1272,1.1272,0,0,1-.37646.72559,1.51928,1.51928,0,0,1-.94873.38769q-.345.03076-.65186.03418a5.71063,5.71063,0,0,1-.58838-.02343c-.1875-.01758-.37744-.043-.56982-.07422q-.28931-.04835-.59131-.12207Zm1.479,1.2461c.07421-.00782.14453-.01465.21191-.02149a1.06544,1.06544,0,0,0,.19092-.03711q.18017-.04833.1958-.16992c.01416-.15137-.07764-.24414-.27539-.27539-.09912-.01758-.18018-.0293-.24365-.03418a.51207.51207,0,0,0-.14356.002Zm.22753,1.64257a2.72614,2.72614,0,0,1,.45606-.03125q.3391-.01611.32324-.29687c-.01025-.21582-.13769-.332-.38135-.35059-.12011-.00976-.21923-.0166-.29687-.01855a.93256.93256,0,0,0-.17529.00879Z" transform="translate(-114.125 -391.35526)" style="fill:#fff"/>
    <path d="M210.75,457.67383l.03174,1.14551-1.48389-.02149.01026.42383.7583-.042.00537.69922h-.68946l.01612.48828,1.43115-.085.01611,1.373-2.72461.07911-.228-4.05469Z" transform="translate(-114.125 -391.35526)" style="fill:#fff"/>
    <path d="M214.45508,458.75586a1.7956,1.7956,0,0,0-1.5.22754.96422.96422,0,0,0-.41309.84863.87443.87443,0,0,0,.59863.68848,1.90814,1.90814,0,0,0,1.54883-.26465l.55078,1.11328a2.62007,2.62007,0,0,1-1.18164.35449,3.83155,3.83155,0,0,1-1.34179-.127,2.84442,2.84442,0,0,1-1.11328-.59375,1.40382,1.40382,0,0,1-.48731-1.04395,1.77615,1.77615,0,0,1,.34473-1.17675,2.625,2.625,0,0,1,.93261-.79,2.94683,2.94683,0,0,1,1.208-.3125,2.19345,2.19345,0,0,1,1.15625.23828Z" transform="translate(-114.125 -391.35526)" style="fill:#fff"/>
    <path d="M215.60059,457.88086l3.65234-.207.06348,1.835-1.39453-.07422.41992,2.29981-1.793-.19043.30859-2.06739-1.28906.03711Z" transform="translate(-114.125 -391.35526)" style="fill:#fff"/>
    <path d="M223.05273,457.74316l.33985,3.541-1.21387.28613-.09082-1.92969-1.04394,2.09376-1.415-.36524.08007-3.499h1.2129l-.17969,1.76562,1.04394-1.85547,1.2666-.10644Z" transform="translate(-114.125 -391.35526)" style="fill:#fff"/>
    <path d="M229.4248,457.67383l.03223,1.14551-1.48437-.02149.00976.42383.75879-.042.00488.69922h-.68945l.0166.48828,1.43067-.085.0166,1.373-2.72461.07911-.22754-4.05469Z" transform="translate(-114.125 -391.35526)" style="fill:#fff"/>
    <path d="M232.64746,457.67383l.03223,1.14551-1.48438-.02149.00977.42383.75879-.042.00488.69922h-.68945l.0166.48828,1.43066-.085.0166,1.373-2.72461.07911-.22753-4.05469Zm-2.63769-.63086a.47211.47211,0,0,0,.123.13281.53307.53307,0,0,0,.15039.08008.45059.45059,0,0,0,.13868.02637.54175.54175,0,0,0,.14453-.02442.63477.63477,0,0,0,.168-.07129.4937.4937,0,0,0,.13671-.12207.27179.27179,0,0,0,.0586-.1748.57994.57994,0,0,0-.15332-.41309.62629.62629,0,0,0-.47754-.165.19847.19847,0,0,0-.11914.04786.45777.45777,0,0,0-.1084.12792.83576.83576,0,0,0-.0791.17676.6347.6347,0,0,0-.03223.19922A.32931.32931,0,0,0,230.00977,457.043Zm1.27832-.03613a.42461.42461,0,0,0,.10839.1289.52661.52661,0,0,0,.16407.08789.62886.62886,0,0,0,.20117.03223.6001.6001,0,0,0,.19922-.03223.53866.53866,0,0,0,.16211-.08789.439.439,0,0,0,.1084-.1289.33651.33651,0,0,0,0-.31836.43047.43047,0,0,0-.1084-.12989.53888.53888,0,0,0-.16211-.08789.62652.62652,0,0,0-.19922-.03125.65691.65691,0,0,0-.20117.03125.52682.52682,0,0,0-.16407.08789.41669.41669,0,0,0-.10839.12989.33643.33643,0,0,0,0,.31836Z" transform="translate(-114.125 -391.35526)" style="fill:#fff"/>
    <path d="M235.88086,457.83887l1.23437-.07422v1.36719l.90723-.01563v-1.3623l1.40918-.08008-.18555,3.81152-1.22363.1377v-1.44727l-.90723.02149v1.43164l-1.07031.10547Z" transform="translate(-114.125 -391.35526)" style="fill:#fff"/>
    <path d="M242.5918,457.67383l.03125,1.14551-1.48438-.02149.01074.42383.75879-.042.00489.69922h-.68946l.0166.48828,1.43067-.085.01659,1.373-2.7246.07911-.22851-4.05469Z" transform="translate(-114.125 -391.35526)" style="fill:#fff"/>
    <path d="M243.19531,457.90234l2.9375-.22851.14258,1.2041-.8418.63086a1.10377,1.10377,0,0,1,.72071.26465.95329.95329,0,0,1,.31738.75781.89384.89384,0,0,1-.41309.81641,2.36329,2.36329,0,0,1-.98632.34961,4.47521,4.47521,0,0,1-1.17188.00585,3.87267,3.87267,0,0,1-.94336-.21191l.32422-1.21973a1.15866,1.15866,0,0,0,.35937.21778,1.85314,1.85314,0,0,0,.55176.14844.85865.85865,0,0,0,.26465,0,.84469.84469,0,0,0,.23438-.07422.44706.44706,0,0,0,.22265-.45606.23053.23053,0,0,0-.14355-.19629,1.76475,1.76475,0,0,0-.33887-.13281,1.95362,1.95362,0,0,0-.19336-.042c-.0664-.01074-.13086-.01953-.19433-.02637a1.19008,1.19008,0,0,0-.30762-.01074l-.01563-.3291,1.77539-.82617-2.11523.42382Z" transform="translate(-114.125 -391.35526)" style="fill:#fff"/>
    <path d="M249.6582,457.67383l1.24024,3.60449-1.31446.45606-.25976-.79493h-1.01856l-.23828.7793-1.29394-.60449,1.32031-3.33887Zm-.43554,2.43359-.38672-.93847-.39746.92285Z" transform="translate(-114.125 -391.35526)" style="fill:#fff"/>
    <path d="M252.49316,458.999a2.77986,2.77986,0,0,1,1.19825.49317.98183.98183,0,0,1,.22265.207.84432.84432,0,0,1,.12207.22558.902.902,0,0,1,.04981.25684c.00586.0918.00781.19238.00781.30176v.21484a1.17585,1.17585,0,0,1-.01758.207.61938.61938,0,0,1-.0664.18262.44082.44082,0,0,1-.14356.14844,2.833,2.833,0,0,1-.89062.38183,5.88466,5.88466,0,0,1-1.0381.15918,6.29135,6.29135,0,0,1-.82226,0l.27539-3.91211,2.42286-.2705v.86425l-1.33594-.02636.01562.57226Zm-.21777,1.81348a1.06543,1.06543,0,0,0,.64258-.127.35532.35532,0,0,0,.16894-.3291.64321.64321,0,0,0-.22265-.3711,1.20008,1.20008,0,0,0-.51953-.27539Z" transform="translate(-114.125 -391.35526)" style="fill:#fff"/>
    <path d="M255.918,459.03613a2.81564,2.81564,0,0,1,1.19726.49317.98168.98168,0,0,1,.22266.207.8446.8446,0,0,1,.12207.22558.86943.86943,0,0,1,.04981.25684q.00878.1377.00878.30176v.21484a1.17424,1.17424,0,0,1-.01855.207.61968.61968,0,0,1-.06641.18262.43744.43744,0,0,1-.14257.14844,2.77544,2.77544,0,0,1-.89063.38183c-.17383.042-.3457.07715-.51758.10352a4.61816,4.61816,0,0,1-.52148.0498c-.17774.01075-.334.01661-.46973.01661s-.251-.00391-.34668-.01075l.26953-3.91211,1.15039-.13769L255.918,459.042Zm-.21777,1.81348a1.062,1.062,0,0,0,.6416-.12695.366.366,0,0,0,.16992-.32911.52729.52729,0,0,0-.06445-.18554.75692.75692,0,0,0-.15821-.19043,1.21964,1.21964,0,0,0-.51953-.27051Zm2.06152.89551,1.34668-.04785.07422-3.91211-1.52051-.10547Z" transform="translate(-114.125 -391.35526)" style="fill:#fff"/>
    <path d="M259.36914,457.85449c.19043-.042.38184-.0791.57422-.1084.19336-.03027.39062-.05371.5918-.07226a3.20054,3.20054,0,0,1,1.43066.292.8755.8755,0,0,1,.61035.71582.714.714,0,0,1-.40332.73633,1.62788,1.62788,0,0,1,1.03809.42969.98413.98413,0,0,1,.27636.74218,1.12644,1.12644,0,0,1-.376.72559,1.52186,1.52186,0,0,1-.94922.38769c-.23047.02051-.44727.03223-.65234.03418a5.70651,5.70651,0,0,1-.58789-.02343c-.1875-.01758-.377-.043-.57032-.07422-.19238-.03223-.38867-.07324-.59082-.12207Zm1.47852,1.2461c.07422-.00782.14453-.01465.21191-.02149a1.04341,1.04341,0,0,0,.19043-.03711c.12109-.03222.18555-.08887.19629-.16992.01465-.15137-.07715-.24414-.27539-.27539-.09863-.01758-.18067-.0293-.24317-.03418a.52.52,0,0,0-.14453.002Zm.22754,1.64257a2.72109,2.72109,0,0,1,.45605-.03125q.33984-.01611.32324-.29687c-.01074-.21582-.13769-.332-.38183-.35059-.11914-.00976-.21875-.0166-.29688-.01855a.92683.92683,0,0,0-.1748.00879Z" transform="translate(-114.125 -391.35526)" style="fill:#fff"/>
    <path d="M266.73633,457.67383l1.24023,3.60449-1.31445.45606-.25977-.79493h-1.01757l-.23829.7793-1.293-.60449,1.31933-3.33887Zm-.43457,2.43359-.38672-.93847-.39746.92285Z" transform="translate(-114.125 -391.35526)" style="fill:#fff"/>
    <path d="M271.16211,457.67383l.03223,1.14551-1.4834-.02149.00976.42383.75782-.042.00586.69922h-.68946l.01563.48828,1.43164-.085.01562,1.373-2.72461.07911-.22754-4.05469Z" transform="translate(-114.125 -391.35526)" style="fill:#fff"/>
    <path d="M273.27734,458.04492l.63672,1.62793.40821-1.6914,1.30371-.30762.71,3.626-1.24024.43458-.21679-2.26856-.59375,2.13672-.67383.00488-.69434-1.9873-.0791,2.05078-1.30957-.20117.39746-3.67871Z" transform="translate(-114.125 -391.35526)" style="fill:#fff"/>
    <path d="M280.81055,459.88477a1.74594,1.74594,0,0,1-.72071,1.39355,2.38682,2.38682,0,0,1-1.416.45606,2.23436,2.23436,0,0,1-1.37305-.46583,1.5746,1.5746,0,0,1-.59863-1.38378,1.98938,1.98938,0,0,1,.22754-.90625,2.61479,2.61479,0,0,1,.57226-.70508,2.44912,2.44912,0,0,1,.76367-.45117,2.10294,2.10294,0,0,1,.82227-.14844,2.05281,2.05281,0,0,1,.498.11133,1.83557,1.83557,0,0,1,.59863.35058,1.9797,1.9797,0,0,1,.47754.67285A2.40174,2.40174,0,0,1,280.81055,459.88477Zm-1.49024-.47168a.09291.09291,0,0,0,.03711-.02637.12542.12542,0,0,0,.03223-.03223.39045.39045,0,0,0,.13183-.291.54111.54111,0,0,0-.08984-.28125l-.02637-.02442c-.01074-.00879-.0205-.01855-.03222-.02832a.2654.2654,0,0,0-.02344-.02441.17173.17173,0,0,0-.0293-.02344.70843.70843,0,0,0-.27539-.10644.49.49,0,0,0-.31836.04785.59018.59018,0,0,0-.11621.06347c-.05371.03516-.083.05664-.09082.06348a.43081.43081,0,0,0-.13672.31348.5365.5365,0,0,0,.11133.29687.16353.16353,0,0,1,.01758.02051.134.134,0,0,0,.01953.02148l.02148.01368a.16685.16685,0,0,1,.02051.01855.57812.57812,0,0,0,.34473.12695.57182.57182,0,0,0,.4082-.15429Z" transform="translate(-114.125 -391.35526)" style="fill:#fff"/>
    <path d="M281.64258,460.7168a.42194.42194,0,0,1,.46094.38672,1.22373,1.22373,0,0,1-.12207.499.86262.86262,0,0,1-.50879.49805l-.07422-.01075a.72222.72222,0,0,0,.18554-.29687.81623.81623,0,0,0-.00586-.249.4951.4951,0,0,1-.28515-.1377.38684.38684,0,0,1-.11133-.27539.37064.37064,0,0,1,.13184-.292A.482.482,0,0,1,281.64258,460.7168Z" transform="translate(-114.125 -391.35526)" style="fill:#fff"/>
    <path d="M151.80078,465.5918l1.23486-.07422v1.36719l.90674-.01563v-1.3623l1.40967-.08008-.18555,3.81152-1.22412.1377v-1.44727l-.90674.02149v1.43164l-1.0708.10546Z" transform="translate(-114.125 -391.35526)" style="fill:#fff"/>
    <path d="M158.53809,465.42676l1.24023,3.60449-1.31445.45605-.25977-.79492H157.186l-.23829.7793-1.29345-.60449,1.31982-3.33887Zm-.43506,2.43359-.38672-.93847-.39746.92285Z" transform="translate(-114.125 -391.35526)" style="fill:#fff"/>
    <path d="M163.53125,465.49609l.33936,3.541-1.21387.28613-.09033-1.92969L161.522,469.4873l-1.415-.36523.07959-3.499h1.21387l-.18018,1.76562,1.04395-1.85547,1.26709-.10644Zm-2.25293-1.19824,1.75977-.05273-.106.67871-1.65381.15918Z" transform="translate(-114.125 -391.35526)" style="fill:#fff"/>
    <path d="M164.61279,469.583l-.12207-.72071,3.85352.02637-.12158.69434Zm2.19971-4.46875,1.41553-.0791-.19092,3.81152-1.22461.1377.085-3.01075-1.0498.06836.06347,2.95215-1.07568.10645-.15918-3.90137Z" transform="translate(-114.125 -391.35526)" style="fill:#fff"/>
    <path d="M171.88525,465.49609l.33936,3.541-1.21387.28613-.09033-1.92969L169.876,469.4873l-1.415-.36523.07959-3.499h1.21386l-.18017,1.76562,1.04394-1.85547,1.26709-.10644Z" transform="translate(-114.125 -391.35526)" style="fill:#fff"/>
    <path d="M172.56348,465.63379l3.65234-.207.06348,1.835-1.394-.07422.41895,2.2998-1.792-.19042.30761-2.06739-1.28808.03711Z" transform="translate(-114.125 -391.35526)" style="fill:#fff"/>
    <path d="M179.44922,465.42676l.03174,1.14551-1.48389-.02149.01025.42383.7583-.042.00538.69922h-.68946l.01612.48828,1.43115-.085.01611,1.373-2.72461.0791-.228-4.05468Z" transform="translate(-114.125 -391.35526)" style="fill:#fff"/>
    <path d="M182.68262,465.60742c.19092-.042.38232-.0791.57519-.1084.19239-.03027.38965-.05371.59082-.07226a3.2,3.2,0,0,1,1.43116.292.87333.87333,0,0,1,.60986.71582.71363.71363,0,0,1-.40283.73633,1.63169,1.63169,0,0,1,1.03857.42969.98174.98174,0,0,1,.27588.74218,1.12721,1.12721,0,0,1-.37647.72559,1.51926,1.51926,0,0,1-.94873.38769q-.345.03076-.65185.03418a5.71051,5.71051,0,0,1-.58838-.02343c-.1875-.01758-.37744-.043-.56982-.07422q-.28932-.04835-.59131-.12207Zm1.479,1.2461c.07422-.00782.14453-.01465.21192-.02149a1.06533,1.06533,0,0,0,.19091-.03711q.18018-.04833.1958-.16992c.01416-.15137-.07763-.24414-.27539-.27539-.09912-.01758-.18017-.0293-.24365-.03418a.512.512,0,0,0-.14355.002Zm.22754,1.64257a2.726,2.726,0,0,1,.45605-.03125q.33912-.01611.32325-.29687c-.01026-.21582-.1377-.332-.38135-.35059-.12012-.00976-.21924-.0166-.29688-.01855a.93175.93175,0,0,0-.17529.00879Z" transform="translate(-114.125 -391.35526)" style="fill:#936037"/>
    <path d="M190.50684,466.50879a1.79481,1.79481,0,0,0-1.5.22754.9636.9636,0,0,0-.41358.84863.87341.87341,0,0,0,.59912.68848,1.90615,1.90615,0,0,0,1.54785-.26465l.55127,1.11328a2.61839,2.61839,0,0,1-1.18212.35449,3.82993,3.82993,0,0,1-1.34131-.127,2.84586,2.84586,0,0,1-1.1128-.59375,1.40089,1.40089,0,0,1-.48779-1.04395,1.78125,1.78125,0,0,1,.34424-1.17675,2.62663,2.62663,0,0,1,.9331-.79,2.94507,2.94507,0,0,1,1.2085-.3125,2.19166,2.19166,0,0,1,1.15576.23828Z" transform="translate(-114.125 -391.35526)" style="fill:#936037"/>
    <path d="M194.47656,465.42676l.03174,1.14551-1.48389-.02149.01026.42383.7583-.042.00537.69922h-.68945l.01611.48828,1.43115-.085.01612,1.373-2.72461.0791-.228-4.05468Z" transform="translate(-114.125 -391.35526)" style="fill:#936037"/>
    <path d="M200.00537,465.66016l.02149,2.95312.38183.01074-.064.86328-2.083-.05273-.01074-.84766.45605.00489.12695-2.03516-.52441.54-.59912-.68359,1.20312-.98633Z" transform="translate(-114.125 -391.35526)" style="fill:#936037"/>
    <path d="M203.61523,466.49219l-1.60107-.24317-.00537.53516a2.0882,2.0882,0,0,1,.7793.03711,2.02649,2.02649,0,0,1,.80566.34473.99319.99319,0,0,1,.4082.64648,1.11728,1.11728,0,0,1-.41845.91211,2.269,2.269,0,0,1-1.33594.73633,2.39357,2.39357,0,0,1-1.49512-.26465l-.08984-1.07617a1.44058,1.44058,0,0,0,.56689.28613,3.05994,3.05994,0,0,0,.7583.11621,1.59675,1.59675,0,0,0,.65723-.10058.36692.36692,0,0,0,.25977-.38672.39279.39279,0,0,0-.27588-.334,1.47117,1.47117,0,0,0-.27295-.09277,2.4175,2.4175,0,0,0-.31006-.05078c-.106-.00684-.21094-.00977-.31543-.00977a2.97389,2.97389,0,0,0-.31006.01563c-.10254.01367-.18652.02832-.25146.042a.43653.43653,0,0,0-.15137.05859l-.355-2.20508,3.23877-.03222Z" transform="translate(-114.125 -391.35526)" style="fill:#936037"/>
    <path d="M207.23584,465.5918l1.23486-.07422v1.36719l.90674-.01563v-1.3623l1.40967-.08008-.18555,3.81152-1.22412.1377v-1.44727l-.90674.02149v1.43164l-1.0708.10546Z" transform="translate(-114.125 -391.35526)" style="fill:#936037"/>
    <path d="M215.19727,467.6377a1.74594,1.74594,0,0,1-.72071,1.39355,2.38463,2.38463,0,0,1-1.416.45605,2.23157,2.23157,0,0,1-1.37207-.46582,1.57221,1.57221,0,0,1-.59864-1.38378,1.96518,1.96518,0,0,1,.22754-.90625,2.57857,2.57857,0,0,1,.57227-.70508,2.45546,2.45546,0,0,1,.76269-.45117,2.106,2.106,0,0,1,.82227-.14844,2.05291,2.05291,0,0,1,.498.11133,1.83967,1.83967,0,0,1,.59961.35058,1.97785,1.97785,0,0,1,.47656.67285A2.37473,2.37473,0,0,1,215.19727,467.6377ZM213.708,467.166a.10169.10169,0,0,0,.03711-.02637.14313.14313,0,0,0,.03222-.03223.394.394,0,0,0,.13184-.291.55015.55015,0,0,0-.08984-.28125l-.02637-.02442c-.01074-.00879-.02149-.01855-.03223-.02832a.28731.28731,0,0,0-.02441-.02441.13423.13423,0,0,0-.02832-.02344.70721.70721,0,0,0-.27637-.10645.48813.48813,0,0,0-.31738.04786.53792.53792,0,0,0-.11621.06347.97.97,0,0,0-.09082.06348.4319.4319,0,0,0-.1377.31348.55151.55151,0,0,0,.11133.29687.11739.11739,0,0,1,.01855.02051.12731.12731,0,0,0,.01856.02148.13162.13162,0,0,1,.02148.01368.16974.16974,0,0,1,.02149.01855.57758.57758,0,0,0,.34375.127.57035.57035,0,0,0,.4082-.15429Z" transform="translate(-114.125 -391.35526)" style="fill:#936037"/>
    <path d="M215.56836,465.60742c.19141-.042.38281-.0791.57519-.1084.19239-.03027.38965-.05371.59083-.07226a3.20435,3.20435,0,0,1,1.43164.292.87272.87272,0,0,1,.60937.71582.71461.71461,0,0,1-.40234.73633,1.63023,1.63023,0,0,1,1.03808.42969.98409.98409,0,0,1,.27636.74218,1.12789,1.12789,0,0,1-.37694.72559,1.51718,1.51718,0,0,1-.94922.38769c-.22949.02051-.44727.03223-.65137.03418a5.72583,5.72583,0,0,1-.58887-.02343c-.1875-.01758-.377-.043-.56933-.07422q-.28857-.04835-.59082-.12207Zm1.47852,1.2461c.07421-.00782.14453-.01465.21289-.02149a1.06016,1.06016,0,0,0,.19043-.03711q.18017-.04833.19628-.16992c.01368-.15137-.07812-.24414-.27539-.27539-.09961-.01758-.18066-.0293-.24414-.03418a.51129.51129,0,0,0-.14355.002Zm.22851,1.64257a2.7068,2.7068,0,0,1,.45508-.03125c.22656-.01074.334-.10937.32422-.29687-.01074-.21582-.13867-.332-.38184-.35059-.12012-.00976-.21973-.0166-.29687-.01855a.926.926,0,0,0-.17481.00879Z" transform="translate(-114.125 -391.35526)" style="fill:#936037"/>
    <path d="M224.16016,467.6377a1.74057,1.74057,0,0,1-.72071,1.39355,2.38178,2.38178,0,0,1-1.415.45605,2.22957,2.22957,0,0,1-1.37207-.46582,1.57522,1.57522,0,0,1-.59961-1.38378,1.97789,1.97789,0,0,1,.22852-.90625,2.56074,2.56074,0,0,1,.57227-.70508,2.44427,2.44427,0,0,1,.76269-.45117,2.09831,2.09831,0,0,1,.82128-.14844,2.06851,2.06851,0,0,1,.499.11133,1.84569,1.84569,0,0,1,.59864.35058,1.96479,1.96479,0,0,1,.47656.67285A2.36139,2.36139,0,0,1,224.16016,467.6377Zm-1.48828-.47168a.10162.10162,0,0,0,.0371-.02637.15946.15946,0,0,0,.03125-.03223.39511.39511,0,0,0,.13282-.291.55944.55944,0,0,0-.08985-.28125l-.02734-.02442c-.00977-.00879-.02148-.01855-.03125-.02832l-.02441-.02441a.2128.2128,0,0,0-.02832-.02344.71919.71919,0,0,0-.27637-.10645.48732.48732,0,0,0-.31739.04786.54863.54863,0,0,0-.11718.06347,1.0411,1.0411,0,0,0-.08985.06348.433.433,0,0,0-.13867.31348.55151.55151,0,0,0,.11133.29687.18935.18935,0,0,1,.01953.02051.18648.18648,0,0,0,.01758.02148.1.1,0,0,1,.02148.01368.12088.12088,0,0,1,.02149.01855.58289.58289,0,0,0,.34472.127.57183.57183,0,0,0,.40821-.15429Z" transform="translate(-114.125 -391.35526)" style="fill:#936037"/>
    <path d="M225.72461,465.60254a4.99818,4.99818,0,0,1,1.0332-.1543.88514.88514,0,0,0,.125-.01562c.03321-.00684.07031-.01367.11133-.01856a1.37979,1.37979,0,0,1,.14063-.01074q.07908-.00293.21093.00293a4.61414,4.61414,0,0,1,.52344.0498c.1709.02637.34277.06153.51563.10352a2.738,2.738,0,0,1,.89062.38184.79417.79417,0,0,1,.38672.68945,1.20767,1.20767,0,0,1-.56055,1.05469,1.84961,1.84961,0,0,1-.334.18261c-.12793.05469-.25977.1045-.39844.14844-.13769.04395-.27344.082-.4082.11426-.13379.03125-.25391.05469-.36035.06836l-.04786,1.3418-1.09668-.01075-.0957-1.29394-.15918-.01563a2.41407,2.41407,0,0,1-.61523-.167,3.06781,3.06781,0,0,1-.582-.32617,1.23122,1.23122,0,0,1-.5625-1.05469.822.822,0,0,1,.38671-.68945A2.81722,2.81722,0,0,1,225.72461,465.60254Zm-.13086.752a1.07657,1.07657,0,0,0-.38379.47168c.0459.043.09863.09278.15723.15137a1.04754,1.04754,0,0,0,.20605.15918.87267.87267,0,0,0,.26758.10351.70891.70891,0,0,0,.33887-.02148l.02734-.96973A1.00818,1.00818,0,0,0,225.59375,466.35449Zm2.22461,1.07129c.05273-.01465.11035-.03223.17187-.05273.0625-.02149.12207-.0459.18067-.07227.05762-.02637.11426-.05371.167-.082a.5444.5444,0,0,0,.127-.08984.76974.76974,0,0,0,.15918-.19141.51769.51769,0,0,0,.06347-.18555.35281.35281,0,0,0-.16991-.32812.40767.40767,0,0,0-.13281-.05274,1.53333,1.53333,0,0,0-.1875-.03515,2.17424,2.17424,0,0,0-.22071-.01563c-.07715-.002-.15332-.00293-.22754-.00293Z" transform="translate(-114.125 -391.35526)" style="fill:#936037"/>
    <path d="M232.69531,465.42676l1.24024,3.60449-1.31446.45605-.25976-.79492h-1.01758l-.23828.7793-1.29395-.60449,1.31934-3.33887Zm-.43554,2.43359-.38672-.93847-.39649.92285Z" transform="translate(-114.125 -391.35526)" style="fill:#936037"/>
    <path d="M234.26367,465.5918l1.23535-.07422v1.36719l.90723-.01563v-1.3623l1.40918-.08008-.18555,3.81152-1.22363.1377v-1.44727l-.90723.02149v1.43164l-1.07129.10546Z" transform="translate(-114.125 -391.35526)" style="fill:#936037"/>
    <path d="M240.97461,465.42676l.03125,1.14551-1.4834-.02149.01074.42383.75782-.042.00586.69922h-.68946l.01563.48828,1.43164-.085.01562,1.373-2.72461.0791-.22851-4.05468Z" transform="translate(-114.125 -391.35526)" style="fill:#936037"/>
    <path d="M242.71289,468.21l.05273,1.27734-1.15527-.13769-.27051-3.91211c.09961-.00684.21582-.01074.34961-.01074.13477,0,.291.00586.4668.0166a5.01188,5.01188,0,0,1,1.03906.15332,2.82785,2.82785,0,0,1,.89649.38184.797.797,0,0,1,.38086.68945,1.20643,1.20643,0,0,1-.56153,1.05469,2.74611,2.74611,0,0,1-1.19824.49316Zm-.14844-.70508a1.21488,1.21488,0,0,0,.52539-.2705.60545.60545,0,0,0,.2168-.376.35362.35362,0,0,0-.16992-.3291,1.05859,1.05859,0,0,0-.64063-.127Z" transform="translate(-114.125 -391.35526)" style="fill:#936037"/>
    <path d="M244.75391,465.5918l1.23535-.07422v1.36719l.90722-.01563v-1.3623l1.40918-.08008-.18554,3.81152-1.22364.1377v-1.44727l-.90722.02149v1.43164l-1.07129.10546Z" transform="translate(-114.125 -391.35526)" style="fill:#936037"/>
    <path d="M249.88477,466.78906a2.8231,2.8231,0,0,1,1.19921.49317,1.02523,1.02523,0,0,1,.22266.207.841.841,0,0,1,.12109.22558.93689.93689,0,0,1,.05079.25684c.00488.0918.00781.19238.00781.30176v.21484a1.08815,1.08815,0,0,1-.01856.207.59329.59329,0,0,1-.0664.18262.43168.43168,0,0,1-.14356.14844,2.7382,2.7382,0,0,1-.89062.38183c-.17285.042-.34473.07715-.51563.10352a4.60956,4.60956,0,0,1-.52344.0498c-.17578.01075-.332.0166-.46874.0166-.13575,0-.252-.0039-.34766-.01074l.27148-3.91211,1.15039-.13769-.04882,1.27734Zm-.2168,1.81348a1.06381,1.06381,0,0,0,.6416-.12695.35894.35894,0,0,0,.16895-.32911.50305.50305,0,0,0-.0625-.18554.76855.76855,0,0,0-.16016-.19043,1.2027,1.2027,0,0,0-.51953-.27051Zm2.0625.89551,1.3457-.04785.07422-3.91211-1.52148-.10547Z" transform="translate(-114.125 -391.35526)" style="fill:#936037"/>
    <path d="M254.60254,465.49609l.74219,1.13477.9541-1.2041,1.16113.626-1.42578,1.47852,1.0918,1.251-.9541.70507-.84766-1.24511-.76953,1.002-1.21875-.63086L254.582,467.293l-.99707-1.415Z" transform="translate(-114.125 -391.35526)" style="fill:#936037"/>
    <path d="M263.99609,466.50879a1.794,1.794,0,0,0-1.5.22754.963.963,0,0,0-.41406.84863.8724.8724,0,0,0,.59961.68848,1.9042,1.9042,0,0,0,1.54688-.26465l.55175,1.11328a2.61668,2.61668,0,0,1-1.18261.35449,3.82828,3.82828,0,0,1-1.34082-.127,2.84726,2.84726,0,0,1-1.11231-.59375,1.39794,1.39794,0,0,1-.48828-1.04395A1.7864,1.7864,0,0,1,261,466.53516a2.62822,2.62822,0,0,1,.93359-.79,2.94332,2.94332,0,0,1,1.209-.3125,2.18989,2.18989,0,0,1,1.15527.23828Z" transform="translate(-114.125 -391.35526)" style="fill:#936037"/>
    <path d="M269.2168,467.6377a1.74594,1.74594,0,0,1-.72071,1.39355,2.38463,2.38463,0,0,1-1.416.45605,2.23157,2.23157,0,0,1-1.37207-.46582,1.5722,1.5722,0,0,1-.59863-1.38378,1.96505,1.96505,0,0,1,.22753-.90625,2.57857,2.57857,0,0,1,.57227-.70508,2.4555,2.4555,0,0,1,.7627-.45117,2.10592,2.10592,0,0,1,.82226-.14844,2.05281,2.05281,0,0,1,.498.11133,1.83967,1.83967,0,0,1,.59961.35058,1.97785,1.97785,0,0,1,.47656.67285A2.37473,2.37473,0,0,1,269.2168,467.6377Zm-1.48926-.47168a.10169.10169,0,0,0,.03711-.02637.1434.1434,0,0,0,.03223-.03223.394.394,0,0,0,.13183-.291.55015.55015,0,0,0-.08984-.28125l-.02638-.02442c-.01073-.00879-.02147-.01855-.03222-.02832a.28731.28731,0,0,0-.02441-.02441.13423.13423,0,0,0-.02832-.02344.70721.70721,0,0,0-.27637-.10645.48813.48813,0,0,0-.31738.04786.53792.53792,0,0,0-.11621.06347.97.97,0,0,0-.09082.06348.4319.4319,0,0,0-.1377.31348.55159.55159,0,0,0,.11133.29687.11787.11787,0,0,1,.01856.02051.12717.12717,0,0,0,.01854.02148.13126.13126,0,0,1,.02149.01368.169.169,0,0,1,.02149.01855.57761.57761,0,0,0,.34375.127.57035.57035,0,0,0,.4082-.15429Z" transform="translate(-114.125 -391.35526)" style="fill:#936037"/>
    <path d="M269.58789,465.60742c.19141-.042.38281-.0791.5752-.1084.19238-.03027.38964-.05371.59082-.07226a3.20435,3.20435,0,0,1,1.43164.292.87272.87272,0,0,1,.60937.71582.71461.71461,0,0,1-.40234.73633,1.63023,1.63023,0,0,1,1.03808.42969.98414.98414,0,0,1,.27637.74218,1.128,1.128,0,0,1-.37695.72559,1.51715,1.51715,0,0,1-.94922.38769c-.22949.02051-.44727.03223-.65137.03418a5.72583,5.72583,0,0,1-.58887-.02343c-.1875-.01758-.377-.043-.56933-.07422q-.28857-.04835-.59082-.12207Zm1.47852,1.2461c.07421-.00782.14453-.01465.21289-.02149a1.06,1.06,0,0,0,.19043-.03711q.18016-.04833.19629-.16992c.01367-.15137-.07813-.24414-.2754-.27539-.0996-.01758-.18066-.0293-.24414-.03418a.51131.51131,0,0,0-.14355.002Zm.22851,1.64257a2.7068,2.7068,0,0,1,.45508-.03125c.22656-.01074.334-.10937.32422-.29687-.01074-.21582-.13867-.332-.38184-.35059-.12011-.00976-.21972-.0166-.29687-.01855a.92609.92609,0,0,0-.17481.00879Z" transform="translate(-114.125 -391.35526)" style="fill:#936037"/>
    <path d="M276.92969,465.42676l.03125,1.14551-1.4834-.02149.01074.42383.75781-.042.00586.69922h-.68946l.01563.48828,1.43165-.085.01562,1.373-2.72461.0791-.22851-4.05468Z" transform="translate(-114.125 -391.35526)" style="fill:#936037"/>
    <path d="M277.32715,465.63379l3.65234-.207.06348,1.835-1.39453-.07422.41992,2.2998-1.793-.19042.30859-2.06739-1.28906.03711Z" transform="translate(-114.125 -391.35526)" style="fill:#936037"/>
    <path d="M285.46387,467.6377a1.74054,1.74054,0,0,1-.72071,1.39355,2.38387,2.38387,0,0,1-1.415.45605,2.23227,2.23227,0,0,1-1.373-.46582,1.57758,1.57758,0,0,1-.59961-1.38378,2.00251,2.00251,0,0,1,.22851-.90625,2.59666,2.59666,0,0,1,.57227-.70508,2.438,2.438,0,0,1,.76367-.45117,2.09529,2.09529,0,0,1,.82129-.14844,2.06855,2.06855,0,0,1,.499.11133,1.84159,1.84159,0,0,1,.59766.35058,1.96651,1.96651,0,0,1,.47754.67285A2.38822,2.38822,0,0,1,285.46387,467.6377Zm-1.48926-.47168a.09307.09307,0,0,0,.03711-.02637.13707.13707,0,0,0,.03125-.03223.39154.39154,0,0,0,.13281-.291.55006.55006,0,0,0-.08984-.28125l-.02735-.02442-.03125-.02832-.02343-.02441a.30831.30831,0,0,0-.0293-.02344.72073.72073,0,0,0-.27539-.10645.48926.48926,0,0,0-.31836.04786.60178.60178,0,0,0-.11719.06347c-.05273.03516-.082.05664-.08984.06348a.4319.4319,0,0,0-.1377.31348.5365.5365,0,0,0,.11133.29687l.01856.02051a.19451.19451,0,0,0,.01855.02148.13119.13119,0,0,1,.02148.01368.117.117,0,0,1,.02051.01855.5834.5834,0,0,0,.34571.127.57328.57328,0,0,0,.4082-.15429Z" transform="translate(-114.125 -391.35526)" style="fill:#936037"/>
    <path d="M285.835,465.60742c.19043-.042.38184-.0791.5752-.1084.19238-.03027.38964-.05371.59082-.07226a3.19566,3.19566,0,0,1,1.43066.292.87393.87393,0,0,1,.61035.71582.71263.71263,0,0,1-.40332.73633,1.63315,1.63315,0,0,1,1.03906.42969.97936.97936,0,0,1,.27539.74218,1.12644,1.12644,0,0,1-.376.72559,1.52142,1.52142,0,0,1-.94824.38769c-.23047.02051-.44727.03223-.65235.03418a5.69534,5.69534,0,0,1-.58789-.02343c-.1875-.01758-.37793-.043-.57031-.07422-.19336-.03223-.38965-.07324-.5918-.12207Zm1.47949,1.2461c.07422-.00782.14453-.01465.21094-.02149a1.07091,1.07091,0,0,0,.19141-.03711c.12011-.03222.18554-.08887.19531-.16992.01465-.15137-.07715-.24414-.27539-.27539-.09863-.01758-.17969-.0293-.24317-.03418a.5127.5127,0,0,0-.14355.002Zm.22657,1.64257a2.7453,2.7453,0,0,1,.457-.03125c.22558-.01074.334-.10937.32226-.29687-.00976-.21582-.13672-.332-.38086-.35059-.12011-.00976-.21875-.0166-.29687-.01855a.9375.9375,0,0,0-.17578.00879Z" transform="translate(-114.125 -391.35526)" style="fill:#936037"/>
    <path d="M290.78027,468.46973a.4234.4234,0,0,1,.46192.38672,1.23088,1.23088,0,0,1-.123.499.86362.86362,0,0,1-.50781.498l-.07422-.01075a.72237.72237,0,0,0,.18555-.29687.88382.88382,0,0,0-.00586-.249.495.495,0,0,1-.28614-.1377.38687.38687,0,0,1-.11132-.27539.37374.37374,0,0,1,.13183-.292A.482.482,0,0,1,290.78027,468.46973Z" transform="translate(-114.125 -391.35526)" style="fill:#936037"/>
    <path d="M149.561,474.2627a1.79485,1.79485,0,0,0-1.5.22753.9636.9636,0,0,0-.41358.84864.87341.87341,0,0,0,.59912.68847,1.90619,1.90619,0,0,0,1.54785-.26464l.55127,1.11328a2.61864,2.61864,0,0,1-1.18213.35449,3.83037,3.83037,0,0,1-1.3413-.127,2.84586,2.84586,0,0,1-1.1128-.59375,1.40089,1.40089,0,0,1-.48779-1.04395,1.7813,1.7813,0,0,1,.34424-1.17676,2.62673,2.62673,0,0,1,.9331-.79,2.94523,2.94523,0,0,1,1.2085-.3125,2.19185,2.19185,0,0,1,1.15576.23828Z" transform="translate(-114.125 -391.35526)" style="fill:#fff"/>
    <path d="M153.648,473.27637l.89062.8584-1.08154,1.15039,1.08692,1.15039-1.145.79-1.20313-1.37305.01563,1.29394-1.33594.09473-.20117-4.002,1.53711-.0586.01074,1.97754Z" transform="translate(-114.125 -391.35526)" style="fill:#fff"/>
    <path d="M156.23486,475.96387l.05274,1.27734-1.15576-.13769-.27-3.91211c.09863-.00684.21533-.01075.34961-.01075s.29.00586.46679.01661a5.01706,5.01706,0,0,1,1.03858.15332,2.82037,2.82037,0,0,1,.896.38183.79683.79683,0,0,1,.38184.68946,1.209,1.209,0,0,1-.562,1.05468,2.7467,2.7467,0,0,1-1.19776.49317Zm-.14843-.70508a1.211,1.211,0,0,0,.52441-.27051.60637.60637,0,0,0,.21728-.376.35312.35312,0,0,0-.16943-.3291,1.062,1.062,0,0,0-.6416-.127Z" transform="translate(-114.125 -391.35526)" style="fill:#fff"/>
    <path d="M159.55273,474.543a2.81928,2.81928,0,0,1,1.19825.49316,1.00337,1.00337,0,0,1,.22265.207.84269.84269,0,0,1,.12158.22559.90167.90167,0,0,1,.0503.25684q.00806.13769.0083.30175v.21485a1.12962,1.12962,0,0,1-.01856.207.60591.60591,0,0,1-.0664.18262.43451.43451,0,0,1-.14307.14843,2.75651,2.75651,0,0,1-.89062.38184c-.17334.042-.34522.07715-.51661.10351a4.6161,4.6161,0,0,1-.52246.04981c-.17675.01074-.333.0166-.46923.0166-.13575,0-.25147-.00391-.34717-.01074l.27051-3.91211,1.15039-.1377-.04786,1.27735Zm-.21728,1.81348a1.06282,1.06282,0,0,0,.6416-.127.36237.36237,0,0,0,.16943-.3291.51492.51492,0,0,0-.06347-.18555.76314.76314,0,0,0-.15918-.19043,1.21127,1.21127,0,0,0-.51953-.2705Zm2.062.8955,1.34619-.04785.07422-3.91211-1.521-.10547Z" transform="translate(-114.125 -391.35526)" style="fill:#fff"/>
    <path d="M163.00391,473.36133c.19091-.042.38232-.0791.57519-.1084.19238-.03027.38965-.05371.59082-.07227a3.19989,3.19989,0,0,1,1.43115.292.87333.87333,0,0,1,.60987.71582.71361.71361,0,0,1-.40283.73632,1.63182,1.63182,0,0,1,1.03857.42969.98182.98182,0,0,1,.27588.74219,1.12726,1.12726,0,0,1-.37647.72559,1.51937,1.51937,0,0,1-.94873.38769q-.345.03076-.65185.03418a5.71326,5.71326,0,0,1-.58838-.02344c-.1875-.01758-.37744-.043-.56983-.07422q-.28931-.04833-.5913-.12207Zm1.479,1.24609c.07422-.00781.14453-.01465.21191-.02148a1.06614,1.06614,0,0,0,.19092-.03711q.18018-.04835.1958-.16992c.01416-.15137-.07763-.24414-.27539-.27539-.09912-.01758-.18017-.0293-.24365-.03418a.51161.51161,0,0,0-.14355.00195Zm.22754,1.64258a2.72487,2.72487,0,0,1,.45605-.03125q.33912-.01611.32325-.29687c-.01026-.21583-.1377-.332-.38135-.35059-.12012-.00977-.21924-.0166-.29688-.01856a.93348.93348,0,0,0-.17529.00879Z" transform="translate(-114.125 -391.35526)" style="fill:#fff"/>
    <path d="M170.37207,473.18066l1.24023,3.6045-1.31445.45605-.25976-.79492H169.02l-.23828.7793-1.29346-.6045,1.31983-3.33886Zm-.43506,2.4336-.38672-.93848-.39746.92285Z" transform="translate(-114.125 -391.35526)" style="fill:#fff"/>
    <path d="M171.94092,473.18066l1.52148.10157-.07422,3.917-1.34668.042Zm3.24414,1.68067-.0586.98633-2.91552.02636.02685-1.32519Zm3.30762.49316a1.7423,1.7423,0,0,1-.7212,1.39356,2.40006,2.40006,0,0,1-1.415.46191,2.27891,2.27891,0,0,1-1.37305-.47168,1.5773,1.5773,0,0,1-.59912-1.38379,1.9156,1.9156,0,0,1,.2334-.90625,2.47843,2.47843,0,0,1,.56738-.70508,2.53252,2.53252,0,0,1,.76318-.45117,2.098,2.098,0,0,1,.82178-.14844,2.13221,2.13221,0,0,1,.50342.11133,1.73464,1.73464,0,0,1,.59375.35059,1.97858,1.97858,0,0,1,.47705.67285A2.26986,2.26986,0,0,1,178.49268,475.35449Zm-1.48975-.47168a.10133.10133,0,0,0,.04248-.02636.1635.1635,0,0,0,.02637-.03223.39332.39332,0,0,0,.13281-.291.59576.59576,0,0,0-.09033-.28125l-.02637-.02441c-.01074-.00879-.021-.01856-.03174-.02832a.54172.54172,0,0,0-.05322-.04785.66463.66463,0,0,0-.27539-.10645.49059.49059,0,0,0-.31836.04785.3472.3472,0,0,0-.06885.03418.35121.35121,0,0,1-.04736.0293.448.448,0,0,0-.09033.06934.42577.42577,0,0,0-.1377.30761.5365.5365,0,0,0,.11133.29688l.01855.02051a.1277.1277,0,0,0,.01856.02148.28847.28847,0,0,0,.04248.03711.57386.57386,0,0,0,.34961.12207.56355.56355,0,0,0,.40283-.14844Z" transform="translate(-114.125 -391.35526)" style="fill:#fff"/>
    <path d="M180.751,477.12988l-1.97754.11133-.16406-3.89551,1.23486-.07422.03174,3.18555.89062-.0791-.01562-3.11719,1.40966-.08008-.03173,3.043.89062.25977.07959-3.4082.65723-.02637.55127-.02637.07959,3.541a.42167.42167,0,0,0,.12695.11621,1.30828,1.30828,0,0,0,.20947.1084c.07959.03418.167.0664.2627.09863.09521.03125.19238.05957.2915.084.01758.00782.02979.03516.03711.083a1.29216,1.29216,0,0,1,.01026.17969c0,.07226-.00245.14941-.00782.23047s-.01074.15625-.01562.22558c-.00537.06934-.01367.15137-.02393.2461l-2.01465-.1211-.0791-.67383Z" transform="translate(-114.125 -391.35526)" style="fill:#fff"/>
    <path d="M188.81885,473.25l.33935,3.541-1.21386.28613-.09034-1.92969-1.04443,2.09375-1.415-.36523.07959-3.499H186.688l-.18018,1.76563,1.04395-1.85547,1.26709-.10645Z" transform="translate(-114.125 -391.35526)" style="fill:#fff"/>
    <path d="M190.73193,473.25l.74219,1.13477.9541-1.20411,1.16114.626-1.42579,1.47852,1.0918,1.251-.9541.70508-.84815-1.24512-.76855,1.002-1.21924-.63086,1.24561-1.32031-.99658-1.415Z" transform="translate(-114.125 -391.35526)" style="fill:#fff"/>
    <path d="M197.25732,474.2627a1.79487,1.79487,0,0,0-1.5.22753.96362.96362,0,0,0-.41357.84864.87341.87341,0,0,0,.59912.68847,1.90619,1.90619,0,0,0,1.54785-.26464l.55127,1.11328a2.61864,2.61864,0,0,1-1.18213.35449,3.83042,3.83042,0,0,1-1.34131-.127,2.84589,2.84589,0,0,1-1.11279-.59375,1.40089,1.40089,0,0,1-.48779-1.04395,1.7813,1.7813,0,0,1,.34424-1.17676,2.62673,2.62673,0,0,1,.9331-.79,2.94523,2.94523,0,0,1,1.2085-.3125,2.19187,2.19187,0,0,1,1.15576.23828Z" transform="translate(-114.125 -391.35526)" style="fill:#fff"/>
    <path d="M201.106,475.67285l-.26514.00488-1.1875,1.56348-1.28271-.959,1.48925-.9336a2.01072,2.01072,0,0,1-.604-.59277.74755.74755,0,0,1-.07959-.71094.94222.94222,0,0,1,.50879-.45605,3.93181,3.93181,0,0,1,.88525-.28614q.25416-.04687.50635-.07617c.168-.01953.33984-.0332.5166-.04a4.47607,4.47607,0,0,1,.90137.042l-.19092,3.74218-1.25635.15918Zm.08447-1.81836a1.1644,1.1644,0,0,0-.62549.14844.29722.29722,0,0,0-.15869.29687.54968.54968,0,0,0,.23291.31739,1.208,1.208,0,0,0,.541.20215Z" transform="translate(-114.125 -391.35526)" style="fill:#fff"/>
    <path d="M205.9292,473.40918l2.937-.22852.14307,1.20411-.84278.63085a1.10377,1.10377,0,0,1,.72071.26465.95361.95361,0,0,1,.31787.75782.89484.89484,0,0,1-.41309.8164,2.36554,2.36554,0,0,1-.98633.34961,4.47124,4.47124,0,0,1-1.17138.00586,3.86205,3.86205,0,0,1-.94336-.21191l.32324-1.21973a1.16624,1.16624,0,0,0,.36035.21777,1.84581,1.84581,0,0,0,.55127.14844.86191.86191,0,0,0,.26514,0,.84288.84288,0,0,0,.2334-.07422.447.447,0,0,0,.22265-.45605.229.229,0,0,0-.14306-.19629,1.74441,1.74441,0,0,0-.33936-.13281,1.86989,1.86989,0,0,0-.19336-.042c-.06543-.01074-.12988-.01953-.19385-.02636a1.18675,1.18675,0,0,0-.30713-.01075l-.01611-.3291,1.77588-.82617-2.11523.42383Z" transform="translate(-114.125 -391.35526)" style="fill:#fff"/>
    <path d="M212.39062,473.18066l1.24024,3.6045-1.31445.45605-.25977-.79492h-1.01758l-.23828.7793-1.29346-.6045,1.31983-3.33886Zm-.43457,2.4336-.38671-.93848-.39746.92285Z" transform="translate(-114.125 -391.35526)" style="fill:#fff"/>
    <path d="M218.96875,473.26074l1.41016-.08008-.18555,3.81153-1.22461.13769.08008-3.01074-1.04981.06934.06347,2.94726-1.0703.10547-.16407-3.89551Z" transform="translate(-114.125 -391.35526)" style="fill:#fff"/>
    <path d="M222.05469,475.96387l.05273,1.27734-1.15625-.13769-.26953-3.91211c.09766-.00684.21484-.01075.34961-.01075.13379,0,.28906.00586.4668.01661a5.02208,5.02208,0,0,1,1.03808.15332,2.81281,2.81281,0,0,1,.89551.38183.79673.79673,0,0,1,.38281.68946,1.21164,1.21164,0,0,1-.5625,1.05468,2.74716,2.74716,0,0,1-1.19726.49317Zm-.14844-.70508a1.20719,1.20719,0,0,0,.52344-.27051.6074.6074,0,0,0,.21777-.376.35266.35266,0,0,0-.16894-.3291,1.06545,1.06545,0,0,0-.64258-.127Z" transform="translate(-114.125 -391.35526)" style="fill:#fff"/>
    <path d="M226.95117,473.18066l.03223,1.14551-1.4834-.02148.00977.42383.75781-.042.00586.69922H225.584l.01563.48828,1.43164-.085.01563,1.373-2.72461.0791-.22754-4.05469Z" transform="translate(-114.125 -391.35526)" style="fill:#fff"/>
    <path d="M227.32324,477.33691l-.12207-.7207,3.85352.02637-.1211.69433Zm2.2002-4.46875,1.415-.0791-.19043,3.81153-1.22461.13769.084-3.01074-1.04883.06836.0625,2.95215-1.07519.10644-.15918-3.90137Z" transform="translate(-114.125 -391.35526)" style="fill:#fff"/>
    <path d="M232.91992,473.55176l.63672,1.62793.4082-1.69141,1.30469-.30762.709,3.626-1.24024.43457-.2168-2.26855-.59375,2.13672-.67382.00488-.69336-1.98731-.08008,2.05078-1.30859-.20117.39648-3.67871Z" transform="translate(-114.125 -391.35526)" style="fill:#fff"/>
    <path d="M239.20117,473.18066l.03223,1.14551-1.4834-.02148.00977.42383.75781-.042.00586.69922H237.834l.01563.48828,1.43164-.085.01563,1.373-2.72461.0791-.22754-4.05469Z" transform="translate(-114.125 -391.35526)" style="fill:#fff"/>
    <path d="M239.59961,473.3877l3.65234-.207.06348,1.835-1.39355-.07421.418,2.2998-1.791-.19043.30664-2.06738-1.28711.03711Z" transform="translate(-114.125 -391.35526)" style="fill:#fff"/>
    <path d="M246.51172,473.18066l1.24023,3.6045-1.31446.45605-.25976-.79492h-1.01757l-.23828.7793-1.29395-.6045,1.31934-3.33886Zm-.43555,2.4336-.38672-.93848-.39648.92285Z" transform="translate(-114.125 -391.35526)" style="fill:#fff"/>
    <path d="M249.83008,473.55176l.63574,1.62793.4082-1.69141,1.30371-.30762.71094,3.626-1.24023.43457-.21778-2.26855-.59375,2.13672-.67285.00488-.69531-1.98731-.0791,2.05078-1.30957-.20117.39844-3.67871Z" transform="translate(-114.125 -391.35526)" style="fill:#fff"/>
    <path d="M256.67871,473.25l.33887,3.541-1.21289.28613-.09082-1.92969-1.04395,2.09375-1.416-.36523.08007-3.499h1.21387l-.18066,1.76563,1.04492-1.85547,1.2666-.10645Z" transform="translate(-114.125 -391.35526)" style="fill:#fff"/>
    <path d="M263.61719,473.25l.33984,3.541-1.21484.28613-.08985-1.92969-1.04492,2.09375-1.41406-.36523.0791-3.499h1.21387l-.17969,1.76563,1.043-1.85547,1.26758-.10645Z" transform="translate(-114.125 -391.35526)" style="fill:#fff"/>
    <path d="M264.502,473.40918l2.9375-.22852.14258,1.20411-.84277.63085a1.10374,1.10374,0,0,1,.7207.26465.95023.95023,0,0,1,.31738.75782.89508.89508,0,0,1-.41211.8164,2.37287,2.37287,0,0,1-.98632.34961,4.4752,4.4752,0,0,1-1.17188.00586,3.87313,3.87313,0,0,1-.94336-.21191l.32324-1.21973a1.16632,1.16632,0,0,0,.36036.21777,1.85445,1.85445,0,0,0,.55078.14844.865.865,0,0,0,.26562,0,.84816.84816,0,0,0,.2334-.07422.447.447,0,0,0,.22266-.45605.22876.22876,0,0,0-.14356-.19629,1.73861,1.73861,0,0,0-.33887-.13281,1.84176,1.84176,0,0,0-.19335-.042c-.06543-.01074-.12989-.01953-.19434-.02636a1.18278,1.18278,0,0,0-.30664-.01075l-.01563-.3291,1.77539-.82617-2.11524.42383Z" transform="translate(-114.125 -391.35526)" style="fill:#fff"/>
    <path d="M272.14062,473.35645a4.99827,4.99827,0,0,1,1.03321-.1543.88388.88388,0,0,0,.125-.01563c.0332-.00683.07031-.01367.11133-.01855a1.37958,1.37958,0,0,1,.14062-.01074q.07911-.00294.21094.00293a4.61,4.61,0,0,1,.52344.0498c.17089.02637.34277.06152.51562.10352a2.73826,2.73826,0,0,1,.89063.38183.79417.79417,0,0,1,.38671.68946,1.20761,1.20761,0,0,1-.56054,1.05468,1.84939,1.84939,0,0,1-.334.18262c-.12793.05469-.25976.10449-.39843.14844-.1377.04394-.27344.082-.40821.11426-.13379.03125-.2539.05468-.36035.06835l-.04785,1.3418-1.09668-.01074-.0957-1.29395-.15918-.01562a2.41455,2.41455,0,0,1-.61524-.167,3.06812,3.06812,0,0,1-.582-.32617,1.23123,1.23123,0,0,1-.5625-1.05469.822.822,0,0,1,.38672-.68946A2.81737,2.81737,0,0,1,272.14062,473.35645Zm-.13085.752a1.07638,1.07638,0,0,0-.38379.47168c.0459.043.09863.09277.15722.15137a1.04788,1.04788,0,0,0,.20606.15917.87234.87234,0,0,0,.26758.10352.70911.70911,0,0,0,.33886-.02148l.02735-.96973A1.00809,1.00809,0,0,0,272.00977,474.1084Zm2.22461,1.07129c.05273-.01465.11035-.03223.17187-.05274.0625-.02148.12207-.0459.18066-.07226.05762-.02637.11426-.05371.167-.082a.54441.54441,0,0,0,.12695-.08985.76974.76974,0,0,0,.15918-.1914.51811.51811,0,0,0,.06348-.18555.35284.35284,0,0,0-.16993-.32813.40768.40768,0,0,0-.13281-.05273,1.53064,1.53064,0,0,0-.1875-.03516,2.17147,2.17147,0,0,0-.2207-.01562c-.07715-.002-.15332-.00293-.22754-.00293Z" transform="translate(-114.125 -391.35526)" style="fill:#fff"/>
    <path d="M279.11133,473.18066l1.24023,3.6045-1.31445.45605-.25977-.79492h-1.01757l-.23829.7793-1.29394-.6045,1.31934-3.33886Zm-.43555,2.4336-.38672-.93848-.39648.92285Z" transform="translate(-114.125 -391.35526)" style="fill:#fff"/>
    <path d="M280.67969,473.3457l1.23535-.07422v1.36719l.90723-.01562v-1.36231l1.40918-.08008-.18555,3.81153-1.22363.13769v-1.44726l-.90723.02148v1.43164l-1.07129.10547Z" transform="translate(-114.125 -391.35526)" style="fill:#fff"/>
    <path d="M287.39062,473.18066l.03126,1.14551-1.4834-.02148.01074.42383.75781-.042.00586.69922h-.68945l.01562.48828,1.43164-.085.01563,1.373-2.72461.0791-.22852-4.05469Z" transform="translate(-114.125 -391.35526)" style="fill:#fff"/>
    <path d="M289.12891,475.96387l.05273,1.27734-1.15527-.13769-.27051-3.91211c.09961-.00684.21582-.01075.34961-.01075.13476,0,.291.00586.4668.01661a5.012,5.012,0,0,1,1.03906.15332,2.828,2.828,0,0,1,.89648.38183.797.797,0,0,1,.38086.68946,1.20641,1.20641,0,0,1-.56152,1.05468,2.74617,2.74617,0,0,1-1.19824.49317Zm-.14844-.70508a1.215,1.215,0,0,0,.52539-.27051.60545.60545,0,0,0,.2168-.376.35364.35364,0,0,0-.16993-.3291,1.05862,1.05862,0,0,0-.64062-.127Z" transform="translate(-114.125 -391.35526)" style="fill:#fff"/>
    <path d="M292.44727,474.543a2.823,2.823,0,0,1,1.19921.49316,1.02548,1.02548,0,0,1,.22266.207.841.841,0,0,1,.12109.22559.93681.93681,0,0,1,.05079.25684c.00488.09179.00781.19238.00781.30175v.21485a1.08823,1.08823,0,0,1-.01856.207.59329.59329,0,0,1-.0664.18262.43166.43166,0,0,1-.14356.14843,2.738,2.738,0,0,1-.89062.38184c-.17285.042-.34473.07715-.51563.10351a4.61185,4.61185,0,0,1-.52344.04981c-.17578.01074-.332.0166-.46874.0166-.13575,0-.252-.00391-.34766-.01074l.27148-3.91211,1.15039-.1377-.04882,1.27735Zm-.2168,1.81348a1.06373,1.06373,0,0,0,.6416-.127.35893.35893,0,0,0,.16895-.3291.50316.50316,0,0,0-.0625-.18555.7689.7689,0,0,0-.16016-.19043,1.20279,1.20279,0,0,0-.51953-.2705Zm2.0625.8955,1.3457-.04785.07422-3.91211-1.52148-.10547Z" transform="translate(-114.125 -391.35526)" style="fill:#fff"/>
    <path d="M296.35938,476.22363a.42139.42139,0,0,1,.46093.38672,1.2,1.2,0,0,1-.12109.499.86688.86688,0,0,1-.50977.498l-.07422-.01074a.71182.71182,0,0,0,.18555-.29688.78721.78721,0,0,0-.00488-.249.49793.49793,0,0,1-.28613-.13769.38685.38685,0,0,1-.11133-.27539.37157.37157,0,0,1,.13281-.292A.47961.47961,0,0,1,296.35938,476.22363Z" transform="translate(-114.125 -391.35526)" style="fill:#fff"/>
    <path d="M189.48926,481.00293l.33935,3.541-1.21386.28613-.09034-1.92969L187.48,484.99414l-1.415-.36523.07959-3.499h1.21387l-.18018,1.76563,1.04395-1.85547,1.26709-.10645Z" transform="translate(-114.125 -391.35526)" style="fill:#fff"/>
    <path d="M195.145,481.01367l1.40967-.08008-.18555,3.81153-1.22412.13769.07959-3.01074-1.04981.06934.06348,2.94726-1.0708.10547-.16406-3.89551Z" transform="translate(-114.125 -391.35526)" style="fill:#fff"/>
    <path d="M200.96484,483.14453a1.74325,1.74325,0,0,1-.7207,1.39356,2.38436,2.38436,0,0,1-1.41553.45605,2.232,2.232,0,0,1-1.37256-.46582,1.57494,1.57494,0,0,1-.59912-1.38379,1.98374,1.98374,0,0,1,.228-.90625,2.5877,2.5877,0,0,1,.57227-.70508,2.447,2.447,0,0,1,.76318-.45117,2.101,2.101,0,0,1,.82178-.14844,2.06164,2.06164,0,0,1,.49853.11133,1.84049,1.84049,0,0,1,.59864.35059,1.97223,1.97223,0,0,1,.477.67285A2.3813,2.3813,0,0,1,200.96484,483.14453Zm-1.48925-.47168a.097.097,0,0,0,.03711-.02637.13991.13991,0,0,0,.03173-.03222.39278.39278,0,0,0,.13233-.291.55007.55007,0,0,0-.08985-.28125l-.02685-.02441-.03174-.02832c-.00684-.00781-.01514-.01563-.02393-.02442a.18814.18814,0,0,0-.0288-.02343.7139.7139,0,0,0-.27588-.10645.48875.48875,0,0,0-.31787.04785.56835.56835,0,0,0-.1167.06348,1.09472,1.09472,0,0,0-.09034.06348.43189.43189,0,0,0-.13769.31347.54382.54382,0,0,0,.11133.29688.17626.17626,0,0,1,.01855.0205.15363.15363,0,0,0,.01856.02149.13153.13153,0,0,1,.02148.01367.1392.1392,0,0,1,.021.01856.58061.58061,0,0,0,.34472.12695.57189.57189,0,0,0,.40821-.1543Z" transform="translate(-114.125 -391.35526)" style="fill:#fff"/>
    <path d="M201.33643,484.99414l.85351-3.92773,1.56885-.13282,1.41553,3.30274-1.3252.15918-.60986-1.72266-.29151,2.19922Z" transform="translate(-114.125 -391.35526)" style="fill:#fff"/>
    <path d="M205.48682,482.09473l.90625-.68848.74218.98535.58838-1.458,1.24024.207-2.05664,3.85352-.91162-.66211.74755-1.21387Z" transform="translate(-114.125 -391.35526)" style="fill:#fff"/>
    <path d="M211.4082,483.45215l-2.0205-.23926-.02637-2.09375,1.13428-.0791-.05812,1.415.9961.13281-.03125-1.543,1.22461.13867.18554,3.81055-1.41015-.0791Z" transform="translate(-114.125 -391.35526)" style="fill:#fff"/>
    <path d="M216.53906,481.00293l.33887,3.541-1.21387.28613-.08984-1.92969-1.04492,2.09375-1.415-.36523.0791-3.499h1.21484l-.18066,1.76563,1.04394-1.85547,1.26758-.10645Z" transform="translate(-114.125 -391.35526)" style="fill:#fff"/>
    <path d="M217.2168,481.14062l3.65234-.207.06445,1.835-1.39453-.07421.41895,2.2998-1.792-.19043.30761-2.06738-1.28808.03711Z" transform="translate(-114.125 -391.35526)" style="fill:#fff"/>
    <path d="M224.10254,480.93359l.03223,1.14551-1.48438-.02148.00977.42383.75879-.042.00488.69922h-.68945l.0166.48828,1.43066-.085.0166,1.373-2.72461.0791-.22754-4.05469Z" transform="translate(-114.125 -391.35526)" style="fill:#fff"/>
    <path d="M229.47852,481.01367l1.40918-.08008-.18555,3.81153-1.22363.13769.0791-3.01074-1.04981.06934.06348,2.94726-1.07129.10547-.16406-3.89551Z" transform="translate(-114.125 -391.35526)" style="fill:#fff"/>
    <path d="M235.29785,483.14453a1.74058,1.74058,0,0,1-.7207,1.39356,2.384,2.384,0,0,1-1.415.45605,2.23232,2.23232,0,0,1-1.37305-.46582,1.57765,1.57765,0,0,1-.59961-1.38379,2.00271,2.00271,0,0,1,.22852-.90625,2.59675,2.59675,0,0,1,.57226-.70508,2.43845,2.43845,0,0,1,.76368-.45117,2.09562,2.09562,0,0,1,.82129-.14844,2.06971,2.06971,0,0,1,.499.11133,1.84155,1.84155,0,0,1,.59766.35059,1.96643,1.96643,0,0,1,.47753.67285A2.38792,2.38792,0,0,1,235.29785,483.14453Zm-1.48926-.47168a.09271.09271,0,0,0,.03711-.02637.13664.13664,0,0,0,.03125-.03222.39156.39156,0,0,0,.13282-.291.55017.55017,0,0,0-.08985-.28125l-.02734-.02441-.03125-.02832-.02344-.02442a.30659.30659,0,0,0-.0293-.02343.72066.72066,0,0,0-.27539-.10645.48934.48934,0,0,0-.31836.04785.60163.60163,0,0,0-.11718.06348c-.05274.03516-.082.05664-.08985.06348a.43189.43189,0,0,0-.13769.31347.53635.53635,0,0,0,.11133.29688l.01855.0205a.19568.19568,0,0,0,.01855.02149.1316.1316,0,0,1,.02149.01367.11707.11707,0,0,1,.02051.01856.5835.5835,0,0,0,.3457.12695.57332.57332,0,0,0,.4082-.1543Z" transform="translate(-114.125 -391.35526)" style="fill:#fff"/>
    <path d="M235.67383,485.08984l-.1211-.7207,3.85352.02637-.12207.69433Zm2.20019-4.46875,1.415-.0791-.19043,3.81153-1.22461.13769.085-3.01074-1.0498.06836.06348,2.95215-1.07618.10644-.1582-3.90137Z" transform="translate(-114.125 -391.35526)" style="fill:#fff"/>
    <path d="M242.40625,480.93359l1.24023,3.6045-1.31445.45605-.25976-.79492h-1.01758l-.23828.7793-1.29395-.6045,1.31934-3.33886Zm-.43555,2.4336-.38672-.93848-.39649.92285Z" transform="translate(-114.125 -391.35526)" style="fill:#fff"/>
    <path d="M245.34766,483.7168l.05273,1.27734-1.15527-.13769-.27051-3.91211c.09961-.00684.21582-.01075.34961-.01075.13476,0,.291.00586.4668.01661a5.01121,5.01121,0,0,1,1.03906.15332,2.828,2.828,0,0,1,.89648.38183.797.797,0,0,1,.38086.68945,1.20642,1.20642,0,0,1-.56152,1.05469,2.74617,2.74617,0,0,1-1.19824.49317Zm-.14844-.70508a1.215,1.215,0,0,0,.52539-.27051.60545.60545,0,0,0,.2168-.376.35364.35364,0,0,0-.16993-.3291,1.05862,1.05862,0,0,0-.64062-.127Z" transform="translate(-114.125 -391.35526)" style="fill:#fff"/>
    <path d="M251.49609,483.14453a1.74055,1.74055,0,0,1-.7207,1.39356,2.38187,2.38187,0,0,1-1.415.45605,2.22957,2.22957,0,0,1-1.37207-.46582,1.57522,1.57522,0,0,1-.59961-1.38379,1.978,1.978,0,0,1,.22852-.90625,2.56082,2.56082,0,0,1,.57226-.70508,2.44481,2.44481,0,0,1,.7627-.45117,2.09866,2.09866,0,0,1,.82129-.14844,2.06961,2.06961,0,0,1,.499.11133,1.8454,1.8454,0,0,1,.59863.35059,1.96475,1.96475,0,0,1,.47657.67285A2.36137,2.36137,0,0,1,251.49609,483.14453Zm-1.48828-.47168a.10136.10136,0,0,0,.03711-.02637.1597.1597,0,0,0,.03125-.03222.39511.39511,0,0,0,.13281-.291.55943.55943,0,0,0-.08984-.28125l-.02734-.02441c-.00977-.00879-.02149-.01856-.03125-.02832l-.02442-.02442a.21132.21132,0,0,0-.02832-.02343.71914.71914,0,0,0-.27636-.10645.48738.48738,0,0,0-.31739.04785.54861.54861,0,0,0-.11718.06348,1.0411,1.0411,0,0,0-.08985.06348.433.433,0,0,0-.13867.31347.55151.55151,0,0,0,.11133.29688.19027.19027,0,0,1,.01953.0205.18659.18659,0,0,0,.01758.02149.09992.09992,0,0,1,.02148.01367.12125.12125,0,0,1,.02149.01856.583.583,0,0,0,.34472.12695.57189.57189,0,0,0,.40821-.1543Z" transform="translate(-114.125 -391.35526)" style="fill:#fff"/>
    <path d="M254.8418,481.0293l.89062.8584-1.082,1.15039,1.08789,1.15039-1.14551.79-1.20312-1.373.01562,1.29394-1.33593.09473-.20118-4.002,1.53711-.0586.01075,1.97754Z" transform="translate(-114.125 -391.35526)" style="fill:#fff"/>
    <path d="M256.52734,484.99414a.50683.50683,0,0,1-.334-.10547.31387.31387,0,0,1,0-.51953.49977.49977,0,0,1,.334-.11133.52952.52952,0,0,1,.334.11133.32652.32652,0,0,1,.13769.25977.30961.30961,0,0,1-.13769.25976A.53306.53306,0,0,1,256.52734,484.99414Z" transform="translate(-114.125 -391.35526)" style="fill:#fff"/>
</svg>