<svg id="Слой_1" data-name="Слой 1" xmlns="http://www.w3.org/2000/svg" viewBox="0 0 470.76 352.09"><defs><style>.cls-1{fill:#ffd775;}.cls-2{fill:#c5ab52;}.cls-3{fill:#a6882e;}.cls-4{fill:#be452d;}.cls-5{fill:#c73c23;}.cls-6{fill:#6e8e9a;}.cls-7{fill:#b78423;}</style></defs><title>1</title><polygon class="cls-1" points="469.31 13.8 461.81 28.44 454.72 28.44 469.3 0 469.31 13.8"/><path class="cls-2" d="M140.09,194.45l-11-42.57h14.2l11,42.57h-14.2m18.93,0-11-42.57h14.2l11,42.57H159m21.54,0-10.72-42.57h42.81v42.57H180.56m38.41,0V151.87h39.41v42.59H219m105.57-56.77H113.28l23.66,56.76h-41v14.19L100.66,226,74.19,280.37,73,282.74h27.62V233.87H326" transform="translate(144.8 -84.02)"/><path class="cls-3" d="M326,233.87H100.66v48.87H325.33" transform="translate(144.8 -84.02)"/><polygon class="cls-4" points="469.36 53.67 258.08 53.67 272.28 28.44 454.72 28.44 461.81 28.44 469.31 28.44 469.36 53.67"/><path class="cls-5" d="M325.29,282.74H-143.82A371,371,0,0,0-142.27,353c4.34,34.4,15.55,70.81,42.7,82.09.49.21,1,.4,1.49.59,17.81.33,163.74.44,350.48.44H326" transform="translate(144.8 -84.02)"/><polyline class="cls-6" points="403.19 67.85 363.78 67.85 363.78 110.44 403.19 110.44 403.19 67.85"/><polyline class="cls-7" points="469.22 67.85 456.81 67.85 456.81 140.38 469.22 140.38 469.22 67.85"/><polyline class="cls-6" points="357.45 67.86 314.65 67.86 325.36 110.43 357.45 110.43 357.45 67.86"/><polyline class="cls-6" points="306.98 67.86 292.78 67.86 303.82 110.43 318.02 110.43 306.98 67.86"/><polyline class="cls-6" points="288.05 67.86 273.85 67.86 284.89 110.43 299.09 110.43 288.05 67.86"/></svg>