<svg id="Слой_1" data-name="Слой 1" xmlns="http://www.w3.org/2000/svg" viewBox="0 0 397.15 183.8"><defs><style>.cls-1{fill:#28686f;}.cls-2{fill:#285e64;}.cls-3{fill:#93ad50;}.cls-4{fill:#72843c;}.cls-5{fill:#62702e;}.cls-6{fill:#c3dc68;}.cls-7{fill:#62702f;}.cls-8{fill:#95ae54;}.cls-9{fill:#444c20;}.cls-10{fill:#62712f;}.cls-11{fill:#c3dd67;}.cls-12{fill:#606e2c;}.cls-13{fill:#94ad52;}.cls-14{fill:#647330;}.cls-15{fill:#b7c888;}.cls-16{fill:#5e6564;}.cls-17{fill:#353939;}.cls-18{fill:#5d6365;}.cls-19{fill:#35383e;}.cls-20{fill:#36393a;}.cls-21{fill:#353839;}.cls-22{fill:#c2c0b7;}</style></defs><title>10</title><path class="cls-1" d="M186.55,509.12c-10.31.82-20.85,1.64-30.9,2.42H190l-3.46-2.42" transform="translate(47.35 -331.87)"/><polyline class="cls-2" points="132.28 116.25 129.57 116.64 129.9 117.07 132.84 116.98 132.28 116.25"/><path class="cls-2" d="M178,445.67l-20,.83,0,0h-5l-13.73.65,39.18-1.2-.5-.32" transform="translate(47.35 -331.87)"/><path class="cls-2" d="M187.71,445.34l-1.92.05.14.08,1.78-.13" transform="translate(47.35 -331.87)"/><path class="cls-2" d="M52.67,410.24l-3.24.3H52.9l-.23-.3" transform="translate(47.35 -331.87)"/><path class="cls-2" d="M80.47,408.16h-.19L110,447.54l-10.55.88,11.19-.35L80.47,408.16" transform="translate(47.35 -331.87)"/><path class="cls-3" d="M291.42,489.8c-5.14,4.35-9.11,7.82-12.4,9.74,2.41-.92,7.34-5.08,12.4-9.74m-84.58-5.87a28.66,28.66,0,0,1-2.12,8.91l.35,0a17.3,17.3,0,0,0,.93-2.28,20.12,20.12,0,0,0,.84-6.61m101.08-10.76h-.13c-.18.39-.39.8-.62,1.23a2.26,2.26,0,0,0,.75-1.24m-31.81-5.56-.6,0a43.67,43.67,0,0,1,1.5,7.89c1,10.31-.8,16.59-3.55,20.49a16.74,16.74,0,0,0,5.55-9.49c.72-4.69-.24-11.75-2.9-18.93M258.64,444.9a39.64,39.64,0,0,1,14.68,16.86l.22,0c-3.42-6.72-8.38-13-14.9-16.84m-.63-1.36-20.77.64c12.16.09,20.77.36,20.77.36h0c3.25,1.21,7.22,2.52,11.48,4l-11.48-5M103.58,404.06l-25.07,1.76,1.77,2.35h.19l-.46-.62,19-.93-1-.07a55.09,55.09,0,0,0,5.57-2.48m13.91-1-.37,0a51.84,51.84,0,0,1-5.11,2.44c-1,.23-2,.42-3,.58l4-.2c1-.57,2.57-1.55,4.4-2.84m61.4-1.56-24,1.8,24.86-.77-.84-1m45.79-39.24q3,1.89,6,4a4,4,0,0,0-.63-.73,41.45,41.45,0,0,0-5.33-3.26m-100.57-4.63-.34,0,1,1.33c-.22-.46-.45-.92-.68-1.37m70.58-3.87a48,48,0,0,1,4.32,8.76c4.47,12.06,5.17,20.27,1.88,25.16l.73-.05c.39-.9.85-1.93,1.38-3.11,2.94-6.56-2.85-22-6.44-30.36l-1.87-.4m-171.12,91a6.15,6.15,0,0,1-1.56-.2c-2.6-.68-14.78-34.36-20-43s-31-28-31-28-1.47-3,3.55-3H-25c5.55.18,23.17,13,30,23s20.83,30.88,23,41c1.79,8.37-1.71,10.2-4.44,10.2m80-101.52c-16.68.42-33.93.91-49.47,1.45-7.9.28-15.35.57-22.07.87-55.37,2.48-72,11.09-78,26s7.17,65.6,50,107C23,496.9,41.39,506.25,57,511l1.92.57a110.46,110.46,0,0,0,30.64,4.13c3.6,0,6.47-.13,8.47-.13,2.42,0,11-.55,23-1.4,9.77-.7,21.8-1.61,34.64-2.6,10-.78,20.59-1.6,30.9-2.42,36.12-2.85,69.46-5.58,69.46-5.58s2.23-.23,5.37-.63c.93-.11,1.95-.25,3-.4-.79,0-1.3,0-1.37,0h0c-4.92,1.18-65.59,5.3-74.83,5.92l-.17.08q-3.75.19-7.5.2c-2.5,0-5-.07-7.5-.2a70.36,70.36,0,0,0,8.12-3.42c-30.15,1.28-60.08,2.31-72.12,2.42-6.3.06-13,.24-19.85.24-22,0-45.87-1.92-65.15-16.24-25.31-18.79-71.83-83.13-69-113,0,0,5.44,19.49,11,31s35.16,58.13,62,73C48.27,493.77,72.1,496,104.55,496c10.52,0,22-.24,34.46-.48,17-.33,37.62-1.22,57.48-2.26a16.8,16.8,0,0,0,1.52-2.74c1.8-4.21,1.62-10.37-.2-16.91l-54.51,4.19a3.88,3.88,0,0,1-2.29,3.72c-2.77.82-11,1-11,1a23.5,23.5,0,0,0,2.36-3.88L108,480.54l-1-5,26.42-2.19a3.87,3.87,0,0,0-2.43-2.81c9.37-1,10-1,10-1h0a25.46,25.46,0,0,1,1.31,3.07l53.62-4.44a54.16,54.16,0,0,0-2.95-6.1c-30.24,1.79-79.62,4.51-100.09,4.51-1.45,0-2.75,0-3.89,0-25.19-.63-37.89-15-44-22s-16.34-28.06-30-46-21-21-21-21-3.22-1.67,1-2h.11c4.47,0,25.1,18.37,30.89,27s19.45,37.76,32,47c9.59,7.06,27.67,8.17,47.89,8.17,6.23,0,12.66-.1,19.1-.17,15.43-.16,39.92-2,62.24-3.76a40.78,40.78,0,0,0-8.78-7.79l-39.18,1.2L111,448.54l-.35-.47-11.19.35L86,449.54l-.53-.69-2.94.09.47.6H62s-20.68-28.32-26-38c1.91-.77,9-1,13.43-1l3.24-.3-1.89-2.46L40,408.54l-3-8,10.84-.85.16-.15,3.64-.15L117,394.28a22.21,22.21,0,0,0,5.05-8.74c2.6-9.3-.75-21.58-7.68-31l-62.18,2.57c0,.14-.09.28-.14.42-1.42,3.43-3,4-3,4H38a24.06,24.06,0,0,0,2.17-3.92L18,358.54l1-4,22.24-1.06a5.68,5.68,0,0,0-.24-1.94c-.66-2,1.35-2.5,3.51-2.5a24.9,24.9,0,0,1,4.49.5A15.73,15.73,0,0,1,51.44,353l59.21-2.81a35,35,0,0,0-8.65-6.64c.54-.13,1.06-.24,1.55-.32m9.24-.23-4.67.12a8.5,8.5,0,0,1,1.89.43s3,2.52,6.79,6.34l2.58-.12c-.37-.52-.74-1-1.12-1.5a6,6,0,0,0-1.25-.72l.55-.14a21.33,21.33,0,0,0-4.77-4.41M183,341.54a30.61,30.61,0,0,1,5.23,4.24l2.55-.85-.78-.39-7-3" transform="translate(47.35 -331.87)"/><path class="cls-4" d="M205.07,492.82l-.35,0a25.49,25.49,0,0,1-1.63,3.21,21.84,21.84,0,0,0,2-3.23M-45,378.54c-2.83,29.87,43.69,94.21,69,113,19.28,14.32,43.16,16.24,65.15,16.24,6.86,0,13.55-.18,19.85-.24,12-.11,42-1.14,72.12-2.42,5.29-2.61,11.83-6.63,15.36-11.84-19.86,1-40.45,1.93-57.48,2.26-12.51.24-23.94.48-34.46.48C72.1,496,48.27,493.77,28,482.54c-26.84-14.87-56.44-61.49-62-73s-11-31-11-31" transform="translate(47.35 -331.87)"/><path class="cls-5" d="M54.09,407.55l-3.31.23,1.89,2.46.23.3H53l29.21,38,2.72-.39L54.09,407.55m-6.08-8h0l-.16.15.26,0-.1-.13" transform="translate(47.35 -331.87)"/><path class="cls-6" d="M118.72,403l-1.23.09c-1.83,1.29-3.41,2.27-4.4,2.84l7.65-.37-2-2.56m58-4.09L146.49,401l1.94,2.5,6.44-.21,24-1.8-2.14-2.62m10.09-47.35-.63,0a7.76,7.76,0,0,1-2.2,3c-3.83.95-11,1-11,1a11.36,11.36,0,0,0,3.5-3.57l-47.7,2c-1.76,3.59-3.81,3.59-3.81,3.59l-.89.11c.23.45.46.91.68,1.37,2.8,3.74,5.19,7.75,6.21,11.52,2,7.46,2.15,15.66-2.69,22.85l72.58-5.69c3.29-4.89,2.59-13.1-1.88-25.16a48,48,0,0,0-4.32-8.76q-3.83-.76-7.68-1.24l-.17-1m-68.58-3.29c.38.48.75,1,1.12,1.5h.15a4.19,4.19,0,0,0-1.27-1.49M183,341.54s-19.48.32-39.72.6c-11.27.16-22.78.32-31.28.4.26.13.52.29.78.45a21.33,21.33,0,0,1,4.77,4.41,32.11,32.11,0,0,1,7.43-.88l1,0a9.21,9.21,0,0,1,2.7,2.78l47.19-2.25a9,9,0,0,0-1.9-1.53c3.19-1,9.51-1,10-1h0a8.72,8.72,0,0,1,1.67,2.06H186v0l2.23-.76a30.61,30.61,0,0,0-5.23-4.24h0" transform="translate(47.35 -331.87)"/><path class="cls-7" d="M196.56,354.18c3.59,8.37,9.38,23.8,6.44,30.36-.53,1.18-1,2.21-1.38,3.11l1.38-.11-3.54,5.06,1.55-.06,4.43,5.65c2-1.6,10.23-8.38,16.57-14.65a56.28,56.28,0,0,0,8-10c2.11-3.59,3.55-5.31,1-7l-.37-.27q-2.91-2.1-6-4-3.27-2-6.67-3.74l-.93-.44c-6.46-.07-9.67-1-15.07-2.56-1.81-.5-3.62-1-5.45-1.36" transform="translate(47.35 -331.87)"/><path class="cls-8" d="M244.45,331.87c-10.2,0-23.45.57-27.44,1.67-3.73,1-8.82,3.65-13.41,6a73.11,73.11,0,0,1-8.59,4c-1.52.49-3,1-4.22,1.39l-2.55.85-2.23.76v0l1,0v5h-.17l.17,1q3.86.48,7.68,1.24l1.87.4c1.83.4,3.64.86,5.45,1.36,5.4,1.52,8.61,2.49,15.07,2.56h.7c.93,0,1.93,0,3-.06,2.32-.07,5-.24,8.21-.5,15.84-1.29,32.32-4.91,32-6-.19-.65-.6-6.85-1.48-12-.6-3.5-1.41-6.53-2.52-7s-6.22-.67-12.56-.67" transform="translate(47.35 -331.87)"/><path class="cls-4" d="M118.29,402.44l-1.17.66.37,0,1.23-.09-.43-.55m-70.18-2.77-.26,0L37,400.54l3,8,10.77-.76,3.31-.23-6-7.88M117,394.28l-65.31,5.11L73,398.54l5.5,7.28,25.07-1.76A47.12,47.12,0,0,0,117,394.28m86-6.74-1.38.11-.73.05-72.58,5.69a26.8,26.8,0,0,1-3.24,3.9l17.94-.75,3.48,4.49,30.26-2.13L174,395.54l2.35-1.56-.34-.44,23.45-.94,3.54-5.06" transform="translate(47.35 -331.87)"/><path class="cls-9" d="M201,392.54l-1.55.06-23.45.94.34.44.65-.44,41.73,50.67c2.32,0,4.61,0,6.85,0l15.43-.62-35.57-45.35L201,392.54" transform="translate(47.35 -331.87)"/><path class="cls-10" d="M177,393.54l-.65.44L174,395.54l2.75,3.36,2.14,2.62.84,1H180l33.8,41.74,4.93-.07L177,393.54" transform="translate(47.35 -331.87)"/><path class="cls-5" d="M202.74,473.25l-4.93.38c1.82,6.54,2,12.7.2,16.91a16.8,16.8,0,0,1-1.52,2.74c-3.53,5.21-10.07,9.23-15.36,11.84a70.36,70.36,0,0,1-8.12,3.42c2.49.13,5,.2,7.5.2s5-.07,7.5-.2l.17-.08-1.17.08s10.35-4.66,16.08-12.49a25.49,25.49,0,0,0,1.63-3.21,28.66,28.66,0,0,0,2.12-8.91,41.72,41.72,0,0,0-.74-7l-6.1.61a9.47,9.47,0,0,0,2.74-4.29m-1.91-11.65-7.84.47a54.16,54.16,0,0,1,2.95,6.1l5.85-.48a9.27,9.27,0,0,0-1.79-2.15s.66-.1,2.54-.29c-.52-1.24-1.09-2.46-1.71-3.65m-15-16.21-4.78.15-3,.13.5.32a40.78,40.78,0,0,1,8.78,7.79l8-.64a25.24,25.24,0,0,0-10.26-7.6l.92-.07-.14-.08" transform="translate(47.35 -331.87)"/><path class="cls-7" d="M276.83,466.88c.06.22.11.44.18.66l-.9.07c2.66,7.18,3.62,14.24,2.9,18.93a16.74,16.74,0,0,1-5.55,9.49c-3.17,4.49-7.61,5.82-10.45,6.51h0c.07,0,.58,0,1.37,0,2.72-.08,8.82-.44,12.62-2a17,17,0,0,0,2-1c3.29-1.92,7.26-5.39,12.4-9.74,2.29-1.94,4.8-4,7.59-6.26a31.46,31.46,0,0,0,8.16-9.13c.23-.43.44-.84.62-1.23a43.74,43.74,0,0,1-4.54.36H303c-5.81-.15-6.6-2.59-9-3s-12,0-14-1a11.24,11.24,0,0,1-3.18-2.66M258,444.54l.63.36c6.52,3.86,11.48,10.12,14.9,16.84l2.47-.2a2.41,2.41,0,0,1,0,1c0,.29.07.58.12.88,1.51-1.53,4.68-3.24,10.88-4.88a10.3,10.3,0,0,0,3.12-1.42c-1-.54-2.08-1.07-3.12-1.58a164.25,164.25,0,0,0-17.52-7c-4.26-1.49-8.23-2.8-11.48-4" transform="translate(47.35 -331.87)"/><polyline class="cls-9" points="120.36 66.67 99 67.52 95.36 67.67 95.46 67.8 101.45 75.67 132.28 116.25 132.84 116.98 133.36 117.67 146.82 116.55 157.36 115.67 127.63 76.3 125.86 73.95 120.36 66.67"/><path class="cls-6" d="M275.51,467.65l-2.79.22a5.92,5.92,0,0,1-3.72,5.67c-1.57,0-3.21,0-4.69,0-3,0-5.3,0-5.3,0s2.93-2.14,3.79-4.91l-49.93,3.84a13.19,13.19,0,0,1-2.86,4.07l-3.91.39a41.72,41.72,0,0,1,.74,7,20.12,20.12,0,0,1-.84,6.61,17.3,17.3,0,0,1-.93,2.28,21.84,21.84,0,0,1-2,3.23c-5.73,7.83-16.08,12.49-16.08,12.49l1.17-.08c9.24-.62,69.91-4.74,74.83-5.92h0c2.84-.69,7.28-2,10.45-6.51,2.75-3.9,4.55-10.18,3.55-20.49a43.67,43.67,0,0,0-1.5-7.89m-46.08-23.5h-3.85c-2.24,0-4.53,0-6.85,0l-4.93.07.21.26-26.3.8-1.78.13-.92.07a25.24,25.24,0,0,1,10.26,7.6C209.4,452,222,451,230,450.54c3.64-.2,6.82-.29,9.6-.29,13.74,0,17.57,2.23,18.4,4.29,1,2.48-40,6-40,6s-6.73.43-17.18,1.06c.62,1.19,1.19,2.41,1.71,3.65,1.55-.17,3.93-.4,7.47-.71a8.67,8.67,0,0,1,2.46,2.26l48-4-.41-.29c9.08-1.34,10-2,10-2a15.75,15.75,0,0,1,.88,1.42l2.43-.2a39.64,39.64,0,0,0-14.68-16.86l-.63-.36h0s-8.61-.27-20.77-.36c-2.47,0-5.09,0-7.81,0" transform="translate(47.35 -331.87)"/><path class="cls-11" d="M-25.44,370.53c-5,0-3.55,3-3.55,3s25.78,19.36,31,28,17.4,42.32,20,43a6.15,6.15,0,0,0,1.56.2c2.73,0,6.23-1.83,4.44-10.2-2.17-10.12-16.18-31-23-41s-24.45-22.82-30-23h-.45" transform="translate(47.35 -331.87)"/><path class="cls-12" d="M119.43,354.34l-5.1.21c6.93,9.41,10.28,21.69,7.68,31a22.21,22.21,0,0,1-5.05,8.74,47.12,47.12,0,0,1-13.38,9.78A55.09,55.09,0,0,1,98,406.54l1,.07,10.06-.49c1-.16,2-.35,3-.58a51.84,51.84,0,0,0,5.11-2.44l1.17-.66-2.28-2.9,3-2,6.06-.25a26.8,26.8,0,0,0,3.24-3.9C133.15,386.2,133,378,131,370.54c-1-3.77-3.41-7.78-6.21-11.52l-1-1.33-6.76.85a16.68,16.68,0,0,0,2.42-4.2M106.29,343a16.65,16.65,0,0,0-2.74.23c-.49.08-1,.19-1.55.32a35,35,0,0,1,8.65,6.64l6.15-.3c-3.77-3.82-6.79-6.34-6.79-6.34a8.5,8.5,0,0,0-1.89-.43,13.56,13.56,0,0,0-1.83-.12" transform="translate(47.35 -331.87)"/><path class="cls-13" d="M344.46,445.24c-7.76,0-30.8,2.72-40.35,3.91l-3.1.39c-5.64.73-7.16,5-10.88,7.58a10.3,10.3,0,0,1-3.12,1.42c-6.2,1.64-9.37,3.35-10.88,4.88a34.19,34.19,0,0,0,.7,3.46,11.24,11.24,0,0,0,3.18,2.66c2,1,11.6.59,14,1s3.19,2.85,9,3h.24a43.74,43.74,0,0,0,4.54-.36h.13c1.29-.15,2.75-.34,4.33-.56,11.1-1.56,27.89-4.54,32.76-5.07,6.71-.73,4.59-6.21,4-12s-.37-8.51-2-10a5.62,5.62,0,0,0-2.54-.3" transform="translate(47.35 -331.87)"/><polyline class="cls-9" points="190.36 64.67 172.42 65.42 166.36 65.67 205.33 114.63 225.31 113.79 228.36 113.67 195.36 71.67 195.78 71.66 193.84 69.16 190.36 64.67"/><polyline class="cls-14" points="166.36 65.67 163.36 67.67 165.64 70.56 166.08 71.12 168.09 73.68 168.36 73.67 200.36 114.67 204.36 114.67 205.36 114.67 205.33 114.63 166.36 65.67"/><path class="cls-15" d="M-4.88,375.53H-5c-4.22.33-1,2-1,2s7.33,3.06,21,21,23.88,39,30,46,18.81,21.37,44,22c1.14,0,2.44,0,3.89,0,20.47,0,69.85-2.72,100.09-4.51l7.84-.47c10.45-.63,17.18-1.06,17.18-1.06s41-3.52,40-6c-.83-2.06-4.66-4.29-18.4-4.29-2.78,0-6,.09-9.6.29-8,.44-20.61,1.47-34.74,2.6l-8,.64c-22.32,1.78-46.81,3.6-62.24,3.76-6.44.07-12.87.17-19.1.17-20.22,0-38.3-1.11-47.89-8.17-12.55-9.24-26.16-38.28-32-47s-26.42-27-30.89-27" transform="translate(47.35 -331.87)"/><path class="cls-16" d="M133.43,473.35,107,475.54l1,5,24.37-1.88a8.77,8.77,0,0,0,1.06-5.31m68.36-5.66-5.85.48-53.62,4.44a14.3,14.3,0,0,1,1,5.21l54.51-4.19,4.93-.38a7,7,0,0,0-1-5.56m58.63-4.86-48,4a5.7,5.7,0,0,1,.4,5.67l49.93-3.84c.56-1.81.24-3.88-2.38-5.8M276,461.54l-2.47.2-.22,0-2.43.2a13.09,13.09,0,0,1,1.83,5.91l2.79-.22.6,0,.9-.07c-.07-.22-.12-.44-.18-.66a34.19,34.19,0,0,1-.7-3.46c-.05-.3-.09-.59-.12-.88a2.41,2.41,0,0,0,0-1" transform="translate(47.35 -331.87)"/><path class="cls-17" d="M141,469.54s-.64,0-10,1a3.87,3.87,0,0,1,2.43,2.81,8.77,8.77,0,0,1-1.06,5.31,23.5,23.5,0,0,1-2.36,3.88s8.23-.18,11-1a3.88,3.88,0,0,0,2.29-3.72,14.3,14.3,0,0,0-1-5.21,25.46,25.46,0,0,0-1.31-3.07h0" transform="translate(47.35 -331.87)"/><path class="cls-18" d="M41.25,353.48,19,354.54l-1,4,22.17-.92a12.12,12.12,0,0,0,1.07-4.14m78.28-3.73h-.15l-2.58.12-6.15.3L51.44,353a6,6,0,0,1,.71,4.13l62.18-2.57,5.1-.21a5.78,5.78,0,0,0,.1-4.59m56.37-2.68-47.19,2.25a4.45,4.45,0,0,1,.3,4.22c-.07.14-.13.28-.2.41l47.7-2a3.94,3.94,0,0,0-.61-4.9m11.11-.53-1,0h-.33a5.59,5.59,0,0,1,.53,5l.63,0H187v-5" transform="translate(47.35 -331.87)"/><path class="cls-19" d="M44.52,349c-2.16,0-4.17.5-3.51,2.5a5.68,5.68,0,0,1,.24,1.94,12.12,12.12,0,0,1-1.07,4.14A24.06,24.06,0,0,1,38,361.54H49s1.58-.57,3-4c.05-.14.1-.28.14-.42a6,6,0,0,0-.71-4.13A15.73,15.73,0,0,0,49,349.54a24.9,24.9,0,0,0-4.49-.5" transform="translate(47.35 -331.87)"/><path class="cls-20" d="M125,346.52a32.11,32.11,0,0,0-7.43.88l-.55.14a6,6,0,0,1,1.25.72,4.19,4.19,0,0,1,1.27,1.49,5.78,5.78,0,0,1-.1,4.59,16.68,16.68,0,0,1-2.42,4.2l6.76-.85.34,0,.89-.11s2,0,3.81-3.59c.07-.13.13-.27.2-.41a4.45,4.45,0,0,0-.3-4.22,9.21,9.21,0,0,0-2.7-2.78l-1,0" transform="translate(47.35 -331.87)"/><path class="cls-20" d="M184,344.54c-.47,0-6.79,0-10,1a9,9,0,0,1,1.9,1.53,3.94,3.94,0,0,1,.61,4.9,11.36,11.36,0,0,1-3.5,3.57s7.17-.05,11-1a7.76,7.76,0,0,0,2.2-3,5.59,5.59,0,0,0-.53-5,8.72,8.72,0,0,0-1.67-2.06h0" transform="translate(47.35 -331.87)"/><path class="cls-17" d="M210,464.54c-3.54.31-5.92.54-7.47.71-1.88.19-2.54.29-2.54.29a9.27,9.27,0,0,1,1.79,2.15,7,7,0,0,1,1,5.56,9.47,9.47,0,0,1-2.74,4.29l6.1-.61,3.91-.39a13.19,13.19,0,0,0,2.86-4.07,5.7,5.7,0,0,0-.4-5.67,8.67,8.67,0,0,0-2.46-2.26" transform="translate(47.35 -331.87)"/><path class="cls-21" d="M270,460.54s-.92.66-10,2l.41.29c2.62,1.92,2.94,4,2.38,5.8-.86,2.77-3.79,4.91-3.79,4.91s2.33,0,5.3,0c1.48,0,3.12,0,4.69,0a5.92,5.92,0,0,0,3.72-5.67,13.09,13.09,0,0,0-1.83-5.91,15.75,15.75,0,0,0-.88-1.42" transform="translate(47.35 -331.87)"/><path class="cls-22" d="M51.54,410.53H49.43c-4.4,0-11.52.23-13.43,1,5.32,9.68,26,38,26,38H83l-.47-.6-.33-.43L53,410.54H51.54m69.47-5h-.27l-7.65.37-4,.2L99,406.61l-19,.93.46.62,30.18,39.91.35.47,28.28-1.35,13.73-.65-32-41m59-3h-.27l-24.86.77-6.44.21H148l33,42,4.78-.15,1.92-.05,26.3-.8-.21-.26L180,402.54" transform="translate(47.35 -331.87)"/></svg>