<svg id="Слой_1" data-name="Слой 1" xmlns="http://www.w3.org/2000/svg" viewBox="0 0 156.44 225"><defs><style>.cls-1{fill:#736357;}.cls-2{fill:#3e371f;}.cls-3{fill:#c69c6d;}.cls-4{fill:#a87b47;}.cls-5{fill:#cea46c;}.cls-6{fill:#9f794f;}</style></defs><title>11</title><polyline class="cls-1" points="156 213 155.72 213 155.71 213 35 213 35 221 23 221 23 213 18 213 4 225 155.71 225 155.72 225 156 225 156 213"/><polyline class="cls-2" points="35 211 23 211 23 212.6 23 213 23 221 35 221 35 213 35 212.6 35 211"/><path class="cls-3" d="M187.12,391.58a8.5,8.5,0,0,1-8.48,8H38.73v59a10,10,0,0,0,10,10H177.17a10,10,0,0,0,10-10v-66c0-.33,0-.66,0-1" transform="translate(-30.73 -257.55)"/><polyline class="cls-3" points="115 120 106 120 87.97 120 64 120 64 125 115 125 115 120"/><polyline class="cls-3" points="56 13 45 13 45 16.25 45 16.35 45 24.25 45 63.85 45 125 56 125 56 46.73 56 24.32 56 16.35 56 16.32 56 13"/><path class="cls-4" d="M126.73,349.56h-11v28h11v-28m0-79h-11v59h6v5h-6v10h11v-74" transform="translate(-30.73 -257.55)"/><polyline class="cls-5" points="115 87 105.84 87 96 87 85 87 64 87 64 92 64 88 69 88 69 92 85 92 96 92 105.84 92 110 92 110 88 115 88 115 87"/><polyline class="cls-5" points="91 72 85 72 65 72 65 77 85 77 91 77 91 72"/><polyline class="cls-5" points="69 88 64 88 64 92 64 120 69 120 69 92 69 88"/><polyline class="cls-5" points="115 88 115 88 110 88 110 92 110 120 115 120 115 88"/><polyline class="cls-3" points="133 13 122 13 122 16.35 122 24.39 122 68.44 122 121.96 122 125 133 125 133 105.3 133 51.78 133 24.39 133 16.35 133 13"/><path class="cls-6" d="M178.64,382.56H39.23a8.5,8.5,0,0,0-1.75,16.81,7.38,7.38,0,0,0,1.25.17H178.64a8.5,8.5,0,0,0,8.48-8c0-.17,0-.35,0-.53a8.51,8.51,0,0,0-.62-3.19l0-.07a8.5,8.5,0,0,0-7.85-5.23" transform="translate(-30.73 -257.55)"/><polyline class="cls-4" points="138 0 115.5 0 105.85 0 86.04 0 46.69 0 40 0 40 10.4 40 13 77.68 13 85 13 96 13 105.85 13 115.5 13 138 13 138 0"/></svg>