<svg id="Слой_1" data-name="Слой 1" xmlns="http://www.w3.org/2000/svg" viewBox="0 0 223.3 491.13"><defs><style>.cls-1{fill:#558698;}.cls-2{fill:#77984b;}.cls-3{fill:#607d39;}.cls-4{fill:#bfae96;}.cls-5{fill:#d5caba;}.cls-6{fill:#223e4f;}.cls-7{fill:#4a7188;}.cls-8{fill:#99794e;}</style></defs><title>12</title><path class="cls-1" d="M28.61,501a83.84,83.84,0,0,1-3.06,8.72v4.66L28.61,501" transform="translate(-25.55 -37.35)"/><path class="cls-2" d="M132.68,311.8a23,23,0,0,1,3-.2c22.09,0,40,32.46,40,72.5,0,38.62-16.67,70.2-37.68,72.38a24.51,24.51,0,0,1-13.32,4.12c-22.1,0-40-32.46-40-72.5,0-31.39,11-58.12,26.4-68.21,5.56-5.29,11.88-8.29,18.6-8.29a23,23,0,0,1,3,.2M129.26,62.13c-18.14,79.3-74.89,327.37-97.5,426.22-1,4.74-2,8.94-3.15,12.66l-3.06,13.38v14.09H236.42L129.26,62.13m5.67-24.78s-.06.22-.16.66l11.66,49.76c-7.1-31.08-11.5-50.42-11.5-50.42" transform="translate(-25.55 -37.35)"/><path class="cls-3" d="M111.08,319.89c-15.4,10.09-26.4,36.82-26.4,68.21,0,40,17.9,72.5,40,72.5A24.51,24.51,0,0,0,138,456.48a22.39,22.39,0,0,1-2.32.12,23,23,0,0,1-3-.2,23,23,0,0,1-3,.2c-22.1,0-40-32.46-40-72.5,0-27.87,8.67-52.07,21.4-64.21" transform="translate(-25.55 -37.35)"/><path class="cls-4" d="M129.68,311.6c-6.72,0-13,3-18.6,8.29C98.35,332,89.68,356.23,89.68,384.1c0,40,17.9,72.5,40,72.5a23,23,0,0,0,3-.2c-20.7-2.78-37-34.09-37-72.3s16.3-69.52,37-72.3a23,23,0,0,0-3-.2" transform="translate(-25.55 -37.35)"/><path class="cls-5" d="M136.07,321.6h.11a19.23,19.23,0,0,1,8.33,1.95h0l.32.16a25,25,0,0,1,3.74,2.31c.39.29.78.6,1.15.91,4.31,3.55,8.13,8.76,11.26,15.17l.38.8c4.24,9,7.12,20.36,8,32.86.2,2.77.3,5.56.3,8.34h0c0,33.77-14.37,61.29-32.32,62.46-.28,0-.56,0-.85,0h-1c-11.94-.45-22.33-12.54-28.07-30.44-.37-1.14-.71-2.28-1-3.43a101.53,101.53,0,0,1-2.64-12.93h0c-.13-1-.25-1.9-.36-2.86a116.3,116.3,0,0,1-.7-12.83c0-33.49,14.11-60.82,31.84-62.43h1.55m-.39-10a23,23,0,0,0-3,.2c-20.7,2.78-37,34.09-37,72.3s16.3,69.52,37,72.3a23,23,0,0,0,3,.2,22.39,22.39,0,0,0,2.32-.12c21-2.18,37.68-33.76,37.68-72.38,0-40-17.91-72.5-40-72.5" transform="translate(-25.55 -37.35)"/><path class="cls-6" d="M135.92,446.6h0m.59,0h0m-.74,0h0m-.29,0h0m34.2-62.48c0,33.78-14.37,61.29-32.32,62.46,17.95-1.17,32.32-28.69,32.32-62.46h0m-8.31-41.2c.35.75.69,1.5,1,2.27l-52,78.88a80.38,80.38,0,0,1-3-7.91c5.74,17.9,16.13,30,28.07,30.44-5.71-.21-11.06-3.11-15.73-8l48.36-73.41q.88,5.28,1.27,10.61c-.89-12.5-3.77-23.84-8-32.86m-11.64-16c.43.36.86.73,1.27,1.12l-47.26,71.73a101.53,101.53,0,0,0,2.64,12.93q-.25-.93-.48-1.86l50.46-76.62A58.59,58.59,0,0,1,161,342.1c-3.13-6.41-7-11.62-11.26-15.17m-4.89-3.22a27.05,27.05,0,0,1,3.74,2.31,25,25,0,0,0-3.74-2.31m-10.22-2h0m.1,0h0m.1,0h0m.1,0h0m.1,0h0m.11,0h0m.1,0h0m.1,0h0m.1,0h0m.11,0h0m.11,0h0m.1,0h0m.11,0h0m.1,0h0m.11,0h0m.11,0a18.84,18.84,0,0,1,4.35.54l-37.75,57.32c1.24-31.34,14.84-56.25,31.74-57.79-17.73,1.61-31.84,28.94-31.84,62.43a116.3,116.3,0,0,0,.7,12.83c-.36-3.29-.59-6.61-.66-9.92l41.79-63.46a19.23,19.23,0,0,0-8.33-1.95" transform="translate(-25.55 -37.35)"/><path class="cls-7" d="M168.11,365.15l-48.36,73.41c4.67,4.91,10,7.81,15.73,8h1c.29,0,.57,0,.85,0,17.95-1.17,32.32-28.68,32.32-62.46h0c0-2.78-.1-5.57-.3-8.34q-.39-5.33-1.27-10.61m-11.75-30.92L105.9,410.85q.22.93.48,1.86c.32,1.15.66,2.29,1,3.43a80.38,80.38,0,0,0,3,7.91l52-78.88c-.32-.77-.66-1.52-1-2.27l-.38-.8a58.59,58.59,0,0,0-4.63-7.87m-11.84-10.68h0L102.72,387c.07,3.31.3,6.63.66,9.92.11,1,.23,1.91.36,2.86h0L151,328.05c-.41-.39-.84-.76-1.27-1.12s-.76-.62-1.15-.91a27.05,27.05,0,0,0-3.74-2.31l-.32-.16m-8.34-1.95h-1.66c-16.9,1.54-30.5,26.45-31.74,57.79l37.75-57.32a18.84,18.84,0,0,0-4.35-.54h0" transform="translate(-25.55 -37.35)"/><path class="cls-8" d="M134.77,38l-5.51,24.12L236.42,528.48h12.43c-13.79-53.31-76.32-326.39-102.42-440.71L134.77,38" transform="translate(-25.55 -37.35)"/></svg>