<svg id="Слой_1" data-name="Слой 1" xmlns="http://www.w3.org/2000/svg" viewBox="0 0 322 258"><defs><style>.cls-1{fill:#9f662b;}.cls-2{fill:#b87938;}.cls-3{fill:#d2985d;}</style></defs><title>14</title><path class="cls-1" d="M73.59,356.53h-43v129H69.18c1.45-.32,2.92-.57,4.41-.77V356.53" transform="translate(92.4 -227.53)"/><polyline class="cls-2" points="123 129 117.63 129 0 129 0 250 0 258 43 258 123 258 123 129"/><path class="cls-1" d="M106.6,356.53h-17v128.4c1.12.17,2.24.37,3.34.61H106.6v-129" transform="translate(92.4 -227.53)"/><polyline class="cls-2" points="322 129 199 129 199 258 250.56 258 305 258 322 258 322 250 322 129"/><polyline class="cls-3" points="107 0 90 0 90 66 90 73 90 129 117.63 129 213 129 107 129 107 0"/><polyline class="cls-2" points="230 0 107 0 107 129 213 129 230 129 230 73 230 63.23 230 0"/></svg>