<svg id="Слой_1" data-name="Слой 1" xmlns="http://www.w3.org/2000/svg" viewBox="0 0 427 230.61"><defs><style>.cls-1{fill:#212121;}.cls-2{fill:#642818;}.cls-3{fill:#35180b;}.cls-4{fill:#2b1108;}.cls-5{fill:#601e11;}.cls-6{fill:#9e0523;}.cls-7{fill:#414141;}.cls-8{fill:#6b6b6b;}.cls-9{fill:#242424;}.cls-10{fill:#696867;}.cls-11{fill:#aeaeae;}</style></defs><title>15</title><path class="cls-1" d="M232.63,432.55H119.47c0,.79,0,1.58,0,2.38a56.66,56.66,0,0,0,38.27,53.58q17.87.38,34.7.65a56.65,56.65,0,0,0,40.28-54.23c0-.79,0-1.59,0-2.38" transform="translate(143.42 -258.56)"/><path class="cls-2" d="M278.89,304.9a6.92,6.92,0,0,1-2.15.35H151.9V422.56a10,10,0,0,1-10,10h127a10,10,0,0,0,10-10V304.9" transform="translate(143.42 -258.56)"/><path class="cls-3" d="M-137,305.23l12.24,85.33,1.57,11,3,21c0,5.52,5.48,10,11,10h52.66A56.62,56.62,0,0,1,.05,378.31a56.62,56.62,0,0,1,56.58,54.24H141.9a10,10,0,0,0,10-10V305.25H-136.57l-.44,0" transform="translate(143.42 -258.56)"/><path class="cls-4" d="M150.58,258.56h-59c-11,0-31.06.06-52.84.06-43.56,0-94.16-.06-94.16-.06h-81v33h287v-33" transform="translate(143.42 -258.56)"/><path class="cls-5" d="M278.58,258.56h-128v33H276.74a6.55,6.55,0,0,1,1.84.26V258.56" transform="translate(143.42 -258.56)"/><path class="cls-6" d="M276.74,291.55H-136.57a6.85,6.85,0,0,0-6.85,6.85h0a6.84,6.84,0,0,0,6.41,6.83l.44,0H276.74a6.92,6.92,0,0,0,2.15-.35,6.84,6.84,0,0,0,4.69-6.5h0a6.83,6.83,0,0,0-5-6.59,6.55,6.55,0,0,0-1.84-.26" transform="translate(143.42 -258.56)"/><path class="cls-7" d="M-.72,473.42a37.73,37.73,0,0,1-37.73-37.73A37.75,37.75,0,0,1-.72,398,37.73,37.73,0,0,1,37,435.69,37.73,37.73,0,0,1-.72,473.42m.77-95.11a56.62,56.62,0,0,0-56.58,54.24c0,.79,0,1.58,0,2.38A56.59,56.59,0,0,0-30.4,482.68q29.4,1.2,57.2,2.17a56.61,56.61,0,0,0,29.87-49.92c0-.8,0-1.59,0-2.38h0A56.62,56.62,0,0,0,.05,378.31" transform="translate(143.42 -258.56)"/><path class="cls-8" d="M-.71,468.9a33.23,33.23,0,0,1-33.21-33.22A33.22,33.22,0,0,1-.7,402.47a33.2,33.2,0,0,1,33.21,33.22A33.21,33.21,0,0,1-.71,468.9m0-70.94a37.75,37.75,0,0,0-37.73,37.73A37.73,37.73,0,0,0-.72,473.42,37.73,37.73,0,0,0,37,435.69,37.73,37.73,0,0,0-.72,398" transform="translate(143.42 -258.56)"/><path class="cls-9" d="M-4.42,462.86V452.27H4.64v10.59H-4.42m-12.22-4.45L-23,452l7.47-7.47,6.4,6.39-7.47,7.47m32,0-7.47-7.47,6.4-6.39L21.79,452l-6.41,6.39m-44-18.19v-9.05H-18v9.05h-10.6m45.32,0v-9.05H27.3v9.05H16.74m-16.69,9a14.34,14.34,0,0,1,0-28.68,14.34,14.34,0,1,1,0,28.68m-16.68-22.88-7.48-7.47,6.4-6.4,7.47,7.47-6.39,6.4m32,0L9,420l7.47-7.47,6.4,6.4-7.47,7.47m-19.8-8.8V407H4.64v10.56H-4.42M-.7,402.47a33.22,33.22,0,0,0-33.22,33.21A33.23,33.23,0,0,0-.71,468.9a33.21,33.21,0,0,0,33.22-33.21A33.2,33.2,0,0,0-.7,402.47" transform="translate(143.42 -258.56)"/><path class="cls-10" d="M.05,420.59a14.34,14.34,0,0,0,0,28.68,14.34,14.34,0,1,0,0-28.68" transform="translate(143.42 -258.56)"/><path class="cls-11" d="M4.64,452.27H-4.42v10.59H4.64V452.27m-20.21-7.72L-23,452l6.4,6.39,7.47-7.47-6.4-6.39m29.88,0-6.4,6.39,7.47,7.47L21.79,452l-7.48-7.47M-18,431.17h-10.6v9.05H-18v-9.05m45.28,0H16.74v9.05H27.3v-9.05m-45-18.65-6.4,6.4,7.48,7.47,6.39-6.4-7.47-7.47m34.16,0L9,420l6.4,6.4,7.47-7.47-6.4-6.4M4.64,407H-4.42v10.56H4.64V407" transform="translate(143.42 -258.56)"/></svg>