<svg id="Слой_1" data-name="Слой 1" xmlns="http://www.w3.org/2000/svg" viewBox="0 0 465.41 269"><defs><style>.cls-1{fill:#c9c9c9;}.cls-2{fill:#a1a1a1;}.cls-3{fill:#636363;}.cls-4{fill:#818181;}.cls-5{fill:#99846b;}.cls-6{fill:#c0a88b;}.cls-7{fill:#fff;}</style></defs><title>2</title><path class="cls-1" d="M210.57,349.25H48.6v.38L15.14,363l-4.57,2.23h200v-16m7,0h0v0m178.4,0H328.6v.38L295.15,363l-4.58,2.23h-7v0H395.94c0-5.07.06-10.5,0-16" transform="translate(69.43 -185.26)"/><path class="cls-2" d="M395.94,365.25m0,0H283.57v9h-66v-9H3.57v9h-66v80H395.94" transform="translate(69.43 -185.26)"/><polyline class="cls-3" points="68 22 60 22 60 38 68 38 68 22"/><polyline class="cls-3" points="32 0 24 0 24 38 32 38 32 0"/><polyline class="cls-3" points="96 12 88 12 88 38 96 38 96 12"/><polyline class="cls-3" points="349 22 341 22 341 38 349 38 349 22"/><polyline class="cls-3" points="313 0 305 0 305 38 313 38 313 0"/><polyline class="cls-3" points="377 12 369 12 369 38 377 38 377 12"/><path class="cls-4" d="M9.07,264.25a5.5,5.5,0,1,1,5.5-5.5,5.5,5.5,0,0,1-5.5,5.5m31.5-41h-37v61l37-.23V223.25" transform="translate(69.43 -185.26)"/><polyline class="cls-5" points="112.03 98.75 110 98.76 73 99 73 180 80 180 84.57 177.77 79 180 79 99 112.03 98.79 112.03 98.75"/><polyline class="cls-6" points="118.03 98.75 112.03 98.79 79 99 79 180 84.57 177.77 118.03 164.38 118.03 164 118.03 137.56 118.03 98.75"/><polyline class="cls-2" points="73 38 68 38 60 38 32 38 24 38 7 38 7 99 7 189 73 189 73 180 73 99 73 38"/><polyline class="cls-4" points="390 38 377 38 369 38 353 38 353 168.67 353 168.67 353 99 390 98.76 390 38"/><path class="cls-2" d="M244.07,364.25a5.5,5.5,0,1,1,5.5-5.5,5.5,5.5,0,0,1-5.5,5.5m39.5-141h-66v151h66v-151" transform="translate(69.43 -185.26)"/><polyline class="cls-5" points="392.03 98.75 390 98.76 353 99 353 168.67 353 178.8 353 180 360 180 364.58 177.76 359 180 359 99 392.03 98.79 392.03 98.75"/><polyline class="cls-6" points="398.03 98.75 392.03 98.79 359 99 359 180 364.58 177.76 398.03 164.38 398.03 164 398.03 98.75"/><polyline class="cls-5" points="286.97 98.95 280 99 280 160.86 280 164 280 180 287 180 286.99 164 286.99 161.74 286.97 98.95"/><polyline class="cls-5" points="7 99 7 99 6.97 99 4.81 99 0 99 0 99.07 0 269 7 269 7 189 7 99"/><path class="cls-7" d="M244.07,353.25a5.5,5.5,0,1,0,5.5,5.5,5.5,5.5,0,0,0-5.5-5.5" transform="translate(69.43 -185.26)"/></svg>