<svg id="Слой_1" data-name="Слой 1" xmlns="http://www.w3.org/2000/svg" viewBox="0 0 462.07 347"><defs><style>.cls-1{fill:#ab7d49;}.cls-2{fill:#76512b;}.cls-3{fill:#6bb466;}.cls-4{fill:#00973d;}.cls-5{fill:#1e7e67;}.cls-6{fill:#4a3828;}.cls-7{fill:#916f4e;}.cls-8{fill:#a67c52;}.cls-9{fill:#bd8e5e;}.cls-10{fill:#a57c53;}.cls-11{fill:#f5e0ff;}.cls-12{fill:#c99a6c;}.cls-13{fill:#dec1ec;}.cls-14{fill:#b6b5b3;}.cls-15{fill:#8c8e8d;}.cls-16{fill:#a9a8a3;}.cls-17{fill:#af7e4b;}.cls-18{fill:#c69459;}.cls-19{fill:#b88142;}.cls-20{fill:#ce9b53;}</style></defs><title>3</title><polyline class="cls-1" points="0.08 346.98 0 346.99 0.07 346.99 0.08 346.98"/><line class="cls-2" x1="462.07" y1="326.5" x2="462.07" y2="325.5"/><path class="cls-2" d="M381.69,479.07" transform="translate(80.38 -159.57)"/><line class="cls-3" x1="298.83" y1="166.82" x2="298.83" y2="166.82"/><line class="cls-3" x1="361.5" y1="166.82" x2="361.5" y2="166.82"/><line class="cls-4" x1="35.83" y1="20.44" x2="35.83" y2="20.44"/><line class="cls-4" x1="195.44" y1="20.44" x2="195.44" y2="20.44"/><line class="cls-5" x1="35.83" y1="20.44" x2="35.83" y2="20.44"/><path class="cls-6" d="M344.69,474.57h-5v.83l5-.83m-62-8.76-124,18.93h0v18.83l-7,2.94v.06H134.75V478.21H-55.37v25.36l-6.94,3-.06,0v0H-79.31v-1.73l-1,1.7v0H152.76l32.93-5.49,6-1,36-6,6-1,42-7,6-1,9-1.5h-8V465.81m45-6.86-33,5V482.9l17-2.83,6-1,15-2.5h-5V459" transform="translate(80.38 -159.57)"/><path class="cls-7" d="M294.69,348.28v4.26c13.45,2.55,25,5.5,33,7.76v-4.9l-1.77-.46c-8.58-2.2-19.31-4.64-31.23-6.66m-47.52-4.35c-7.59,0-15.19.4-22.61,1.07-9.48.86-18.67,2.17-27.19,3.67-10.81,1.91-20.56,4.14-28.5,6.17-3.84,1-7.26,1.91-10.18,2.74v1.08c18.91-5,50.19-11.73,81.48-11.73a280.31,280.31,0,0,1,42.52,3.53v-4c-7.89-1.05-16.13-1.86-24.47-2.25-3.67-.18-7.36-.27-11.05-.27m115.52-59.36h-7V474.51l5.81-2.44,1.19-.5v-187M139,172.22a7.25,7.25,0,0,1-1.6,1.37v1.48H139v-2.85m214.7-11.65h0a7,7,0,0,0-4,1.27,7.05,7.05,0,0,1,1.81,12.73v2.5h4.25v107.5h7V173.08h-4.57a7,7,0,0,0-2.59-12.26,6.66,6.66,0,0,0-1.85-.25m-214,0h0a7,7,0,0,0-3,.66,6.76,6.76,0,0,1,1.53,1,7,7,0,0,1,1.87-1.63h-.39" transform="translate(80.38 -159.57)"/><path class="cls-8" d="M294.69,352.54V366c18.43,3.46,31,7.22,31,7.22v15.48l2-.3V360.3c-8-2.26-19.55-5.21-33-7.76m-54.52-5.61c-31.29,0-62.57,6.74-81.48,11.73v12.78c13.8-3.56,47-11.12,80.16-11.12A290.86,290.86,0,0,1,282.69,364V350.46a280.31,280.31,0,0,0-42.52-3.53" transform="translate(80.38 -159.57)"/><path class="cls-9" d="M294.69,366v27.53l31-4.83V373.26s-12.61-3.76-31-7.22m-55.84-5.72c-33.18,0-66.36,7.56-80.16,11.12v23.73l9.14-.14c18.79-.27,43.66-.53,68.63-.53,15.88,0,31.81.1,46.23.39V364a290.86,290.86,0,0,0-43.84-3.66" transform="translate(80.38 -159.57)"/><path class="cls-10" d="M134.75,277.21h-1.19v31.4h0v-31.4h-8.87V387.66c3.38.89,6.36,1.73,8.87,2.46V346h0v44.13l1.19.35V277.21m-1.1-116.64h-.09v25.21h0V160.57a7,7,0,0,0-7,7.05v0a7,7,0,0,0,2.31,5.18v3.24h-4.22v10.87c6.12,1.47,9.8,2.46,9.8,2.46v5.15l.26.09V175.07h2.63v-1.48a7.25,7.25,0,0,0,1.6-1.37v-.36a7,7,0,0,1-2.35-5.23h0a7.07,7.07,0,0,1,1.54-4.41,6.76,6.76,0,0,0-1.53-1,7.11,7.11,0,0,0-3-.66" transform="translate(80.38 -159.57)"/><path class="cls-9" d="M343.78,326.39h0m3.9-164.82h0a7,7,0,0,0-7,7.05h0a7.06,7.06,0,0,0,2.34,5.23v3.21h-4.22v18.41a2.91,2.91,0,0,1,.43.19c2.37,1.24,3.24,4.79,3.52,8l.66-.1v52l-3.67.55V397c2,1.45,2.75,4.71,3,7.67l.66-.1v52l-3.67.56v17.45h16V177.07h-4.25v-2.5a7,7,0,0,0-3.76-13" transform="translate(80.38 -159.57)"/><path class="cls-11" d="M327.69,400.55l-33,4.6V412l33-5v-6.4m12-3.56v8.13l3-.46c-.26-3-1-6.22-3-7.67M236.46,394.5c-25,0-49.84.26-68.63.53l-9.14.14v37.56l.16,0,123.84-18.89V394.89c-14.42-.29-30.35-.39-46.23-.39" transform="translate(80.38 -159.57)"/><path class="cls-12" d="M-55.37,478.21h-7v28.34l.06,0,6.94-3V478.21m188.93-88.09v5.13l1.19.39v-5.17l-1.19-.35M43.17,375.93q-6.09,0-12.14.32c-7.66.4-15.23,1.13-22.51,2.09-6.25.82-12.29,1.79-18,2.85-8.33,1.54-16,3.25-22.55,4.87-9.6,2.37-17,4.57-20.93,5.82l-2.4.76v-6.07l-6.94,3-.06,0v6.09c7-2.29,52.76-16.71,98.54-16.71,43.69,0,87.41,13.13,97.39,16.32v-5.13c-2.51-.73-5.49-1.57-8.87-2.46-4.28-1.13-9.19-2.35-14.6-3.56-6.1-1.37-12.84-2.72-20-3.92-5.29-.89-10.81-1.7-16.48-2.37-8.4-1-17.12-1.66-25.88-1.83-1.52,0-3.05-.05-4.57-.05m112.61-49.54h0m-6.1-165.82h0a7.18,7.18,0,0,0-1.62.19l-.32.08a7,7,0,0,1,3,5.76h0a7,7,0,0,1-3.28,6v2.5h4.25V506.51l7-2.94V484.74l-1.86.28V433l1.86-.29V283.57l-.56-34.09-.44.09.18-15.64,0-1.91h.06l.41-37.83h.39V173.08h-4.57a7,7,0,0,0-4.44-12.51" transform="translate(80.38 -159.57)"/><path class="cls-8" d="M-52,465.48V405.26s43.41-12.94,86.83-12.94,86.87,12.94,86.87,12.94v60.22H-52m88.14-86.55c-45.78,0-91.55,14.42-98.54,16.71v82.57H134.75V395.64l-1.19-.39V431.9h0V395.25c-10-3.19-53.7-16.32-97.39-16.32" transform="translate(80.38 -159.57)"/><path class="cls-9" d="M115.06,426.13h0m-159.61,0h0m38.85,0h0m38.85,0h0m43.07,0h0M34.86,392.32C-8.56,392.32-52,405.26-52,405.26v60.22h173.7V405.26s-43.44-12.94-86.87-12.94" transform="translate(80.38 -159.57)"/><polyline class="cls-9" points="1.07 216.5 1.07 216.5 1.07 345.27 1.07 347 18.01 347 18.01 346.98 18.01 318.64 18.01 236.07 18.01 233 1.07 233 1.07 216.5"/><path class="cls-9" d="M151.69,175.07h-4.25v2.84H139v-2.84h-4.23v19.57l.93.31v82.26h-.93V506.57h16.94V175.07m-15.06-8.45h0a7,7,0,0,0,2.35,5.23v2.29h0v-2.29a7,7,0,0,1-2.35-5.23h0" transform="translate(80.38 -159.57)"/><path class="cls-13" d="M327.69,457.55l-33,4.6V464l33-5v-1.4m-45-43.73L158.85,432.71l-.16,0-1.86.29v52l1.86-.28h0l124-18.93v-52m45-6.87-33,5v38.59l33-4.6V407m15.67-2.39-.66.1-3,.46v52l3.67-.56v-52" transform="translate(80.38 -159.57)"/><path class="cls-11" d="M157.87,233.93l-.18,15.64.44-.09-.26-15.55m82.74-40.3c-6.65,0-13.33,0-19.87,0-9.43,0-18.55.09-26.76.15-18.74.15-32.8.32-35.29.35h-.39L157.89,232l2-.3c19.4-3,171.55-26.32,182.85-28.05-.28-3.2-1.15-6.75-3.52-8a2.91,2.91,0,0,0-.43-.19c-2.6-1-9.25-1-19.56-1-6.86,0-15.35,0-25.33-.3-3.24-.09-6.77-.17-10.55-.24-8-.14-17.11-.22-26.63-.26-5.26,0-10.65,0-16.07,0" transform="translate(80.38 -159.57)"/><path class="cls-12" d="M-55.37,277.21h-7V389.55l.06,0,6.94-3V277.21M76.22,180h0m-33-5.08q-4.8,0-9.59.2c-5.44.23-10.84.63-16.14,1.17h0c-8,.81-15.76,1.93-23,3.19h0c-5.66,1-11,2.06-16,3.15h0c-8.87,1.94-16.53,3.94-22.37,5.58-5.69,1.6-9.65,2.87-11.35,3.42h0c6.14-2,42.14-13.36,81.81-16.11l-2.38,2.71h.28c3.93-.19,7.88-.3,11.83-.3,45.22,0,90.46,14.06,98.32,16.62V189.4s-3.68-1-9.8-2.46c-2.74-.66-6-1.41-9.59-2.21-4.76-1.06-10.18-2.2-16-3.31C92,180,84.23,178.71,76.38,177.61c-5.28-.74-10.61-1.37-15.84-1.84-1.63-.14-3.24-.27-4.85-.38l-1-.07c-3.95-.25-7.81-.39-11.52-.39" transform="translate(80.38 -159.57)"/><path class="cls-14" d="M-5.7,180h0m-58.65-20.44h0a7,7,0,0,0-3,.66,7,7,0,0,1,4,6.35h0a7,7,0,0,1-3.31,6v2.48h4.25v19.57l2.84-.9a71.23,71.23,0,0,1-1-11.67,71.23,71.23,0,0,0,1,11.67A383.83,383.83,0,0,1-9.54,182h0l.09,0a304,304,0,0,1,33.46-3.71l2.38-2.71c-39.67,2.75-75.67,14.1-81.81,16.11h0V172.08H-59.9a7,7,0,0,0,2.59-5.5h0a7,7,0,0,0-1.13-3.8,7,7,0,0,0-5.91-3.21" transform="translate(80.38 -159.57)"/><path class="cls-8" d="M-59.53,193.74l-2.84.9h0l2.84-.9h0m50-11.76a383.83,383.83,0,0,0-50,11.76h0A383.83,383.83,0,0,1-9.54,182m.14,0-.09,0,.09,0M33.15,180h0m3-2.08c-4,0-7.9.11-11.83.3-.16.2-5.09,5.78-12.53,14.18,7.52-.68,15.28-1.09,23-1.09,43.43,0,86.87,12.94,86.87,12.94v60.22H-52v-.05c-5,5.69-8.76,9.89-10.4,11.74v1H133.56V223.6h0v53.61h2.12V195l-.93-.31-.26-.09c-7.86-2.56-53.1-16.62-98.32-16.62" transform="translate(80.38 -159.57)"/><path class="cls-15" d="M-59.53,193.74l-2.84.9v81.53c1.64-1.85,5.37-6.05,10.4-11.74V217.6a96.88,96.88,0,0,1-7.56-23.86m83.87-15.51h-.28A304,304,0,0,0-9.4,182l-.09,0h0a383.83,383.83,0,0,0-50,11.76A96.88,96.88,0,0,0-52,217.6V204.26h0s7.45-2.22,19.25-4.82q8.45-1.87,17-3.34c8.25-1.44,17.45-2.76,27.05-3.64h0l.5-.05c7.44-8.4,12.37-14,12.53-14.18h0" transform="translate(80.38 -159.57)"/><path class="cls-9" d="M-32.72,199.44C-44.52,202-52,204.26-52,204.26q9.57-2.67,19.25-4.82m44-7c-9.6.88-18.8,2.2-27,3.64q13.44-2.32,27.05-3.64h0m23.56-1.14c-7.77,0-15.53.41-23,1.09l-.5.05h0c-1,.57-63.27,72-63.27,72V217.6h0v46.88h173.7V204.26s-43.44-12.94-86.87-12.94" transform="translate(80.38 -159.57)"/><path class="cls-16" d="M11.3,192.46q-13.59,1.31-27,3.64-8.52,1.47-17,3.34-9.68,2.15-19.25,4.82h0v60.22s62.32-71.45,63.27-72m0,0h0" transform="translate(80.38 -159.57)"/><path class="cls-9" d="M-79.31,175.07h0v217.5h16.94V276.76l-16.4,18.81-.54.62V175.07m1.92-8.45h0v0a7,7,0,0,0,2.3,5.18v0a7,7,0,0,1-2.3-5.18v0" transform="translate(80.38 -159.57)"/><path class="cls-16" d="M-70.35,159.57h0a7,7,0,0,0-7,7.05h0v0a7,7,0,0,0,2.3,5.18v3.24h-3.68V200.6h0V175.07h-.54V296.19l.54-.62v0l16.4-18.81V194.64h0V175.07h-4.25v-2.48a7,7,0,0,0,3.31-6h0a7,7,0,0,0-4-6.35,7.11,7.11,0,0,0-3-.66" transform="translate(80.38 -159.57)"/><path class="cls-9" d="M143.68,159.57h0a7.08,7.08,0,0,0-5.49,2.64,7.07,7.07,0,0,0-1.54,4.41h0a7,7,0,0,0,2.35,5.23v3.21h0v2.84h8.46v-2.84h0v-2.5a7,7,0,0,0,3.28-6h0a7,7,0,0,0-7-7" transform="translate(80.38 -159.57)"/><path class="cls-17" d="M332.69,454.27l-2,.28v2.58l-3,.42v19h5v-22.3m0-197.09-5,.75v14.33l1-.13v2.28l2-.28v9l-3,.42v42.89l2-.31v3.14l1-.14v9l-3,.42v49.89l2-.31v3.14l1-.14v9l-3,.42V446l5-.7V257.18" transform="translate(80.38 -159.57)"/><polyline class="cls-18" points="420.07 96.55 413.07 97.61 413.07 285.7 414.07 285.56 414.07 294.56 413.07 294.7 413.07 317 415.07 317 420.07 317 420.07 315.83 420.07 315 420.07 297.55 420.07 245.55 420.07 237.42 420.07 96.55"/><path class="cls-19" d="M333.69,445.13l-1,.14-5,.7-33,4.6v2.58l36-5v6.42l2-.28,1-.14v-9m-4-57-2,.31-2,.3-31,4.83v2.58l35-4.88v-3.14m0-62-2,.31-9.64,1.5-23.36,3.63v2.58l35-4.88v-3.14m-1-54-1,.13-22.83,3-10.17,1.33v2.58l34-4.74v-2.28" transform="translate(80.38 -159.57)"/><path class="cls-20" d="M330.69,448.13l-36,5v9l33-4.6,3-.42v-9m0-57-1,.14-35,4.88v9l33-4.6,3-.42v-9m0-62-1,.14-35,4.88v9l24.81-3.46,8.19-1.14,3-.42v-9m0-55-2,.28-34,4.74v9l6.16-.86,26.84-3.74,3-.42v-9" transform="translate(80.38 -159.57)"/><polyline class="cls-17" points="368.07 104.44 363.07 105.19 363.07 158.59 363.07 177.1 363.07 186.88 363.07 190.9 363.07 204.41 363.07 235.32 363.07 254.25 363.07 306.25 363.07 324 370.07 324 368.07 324 368.07 104.44"/><polyline class="cls-18" points="375.07 103.37 368.07 104.44 368.07 324 370.07 324 371.07 324 373.46 324 375.07 324 375.07 323.7 375.07 323.33 375.07 304.42 375.07 302.58 375.07 293.58 375.07 291 375.07 252.42 375.07 245.58 375.07 236.58 375.07 234 375.07 206.47 375.07 192.97 375.07 188.71 375.07 183.58 375.07 174.58 375.07 172 375.07 138.68 375.07 128.58 375.07 119.58 375.07 117 375.07 103.37"/><path class="cls-13" d="M343.36,203.56l-.66.1c-11.3,1.73-163.45,25.09-182.85,28.05l-2,.3h-.06l0,1.91.26,15.55.56,34.09,19.44-2.95,37.58-5.7,27.17-4.12,37.18-5.64,2.63-.4,5-.76,7-1.06,10.81-1.64,22.19-3.37,5-.75,7-1.07,3.67-.55v-52" transform="translate(80.38 -159.57)"/></svg>