<svg id="Слой_1" data-name="Слой 1" xmlns="http://www.w3.org/2000/svg" viewBox="0 0 530.26 71.25"><defs><style>.cls-1{fill:#ab7d49;}.cls-2{fill:#926b3e;}.cls-3{fill:#aa8051;}.cls-4{fill:#76512b;}.cls-5{fill:#a27849;}.cls-6{fill:#a2784a;}.cls-7{fill:#a98052;}</style></defs><title>4</title><path class="cls-1" d="M-42.63,323.61h-7.83L-83.4,329.1H-70a.49.49,0,0,1,.4-.48l26.93-5" transform="translate(175.16 -293.7)"/><polyline class="cls-2" points="393.17 8.91 319.13 8.91 291.69 14.01 365.74 14.01 393.17 8.91"/><polyline class="cls-3" points="412.23 14.91 320.19 14.91 292.87 20.44 382.52 20.44 402.76 14.91"/><path class="cls-2" d="M56.93,306.11H54.54l-9,1.5h3.33l8.07-1.5m18.81-3.5h-.21l-17,2.83v.37l17.2-3.2" transform="translate(175.16 -293.7)"/><polyline class="cls-2" points="320.69 8.91 291.69 8.91 291.69 8.91 256.36 8.91 229.49 13.91 312.69 13.91 312.69 13.91 320.69 13.91 320.69 8.91"/><polyline class="cls-4" points="256.36 8.91 250.9 8.91 233.69 12.11 233.69 12.41 232.09 12.41 224.02 13.91 229.49 13.91 256.36 8.91"/><polyline class="cls-5" points="530.2 8.91 511.69 8.91 386.86 8.91 366.22 13.91 524.69 13.91 530.2 13.91"/><polyline class="cls-2" points="329.9 22.91 266.69 22.91 266.69 22.91 231.37 22.91 209.87 26.91 256.69 26.91 308.4 26.91 329.9 22.91"/><polyline class="cls-6" points="225.9 22.91 166.69 22.91 130.69 28.91 137.9 28.91 148.6 26.92 148.69 26.91 204.4 26.91 225.9 22.91"/><path class="cls-4" d="M-37.26,322.61h-7.21l-6,1h7.83l5.37-1m93.47-6H50.74l-21.5,4h5.47l21.5-4" transform="translate(175.16 -293.7)"/><polyline class="cls-2" points="436.9 22.91 378.69 22.91 335.37 22.91 313.87 26.91 363.69 26.91 415.4 26.91 436.9 22.91"/><polyline class="cls-4" points="335.37 22.91 329.9 22.91 308.4 26.91 313.87 26.91 335.37 22.91"/><polyline class="cls-4" points="443.44 0.91 437.97 0.91 401.21 7.74 406.68 7.74 428.18 3.74"/><polyline class="cls-4" points="401.23 7.08 395.76 7.08 359 13.91 364.47 13.91 385.96 9.91"/><polygon class="cls-2" points="530.08 22.91 486.69 22.91 442.36 22.91 420.87 26.91 469.69 26.91 527.4 26.91 530.13 26.4 530.08 22.91"/><polyline class="cls-2" points="251.27 27.91 148.74 27.91 111.11 34.91 213.65 34.91 251.27 27.91"/><path class="cls-4" d="M81.54,320.61H-26.56l-10.7,2-5.37,1-26.93,5a.49.49,0,0,0-.4.48v.06a.5.5,0,0,0,.5.45h108a.5.5,0,0,1-.1-1H-64l37.62-7H76.11l5.33-1h.1" transform="translate(175.16 -293.7)"/><polyline class="cls-2" points="358.27 27.91 256.74 27.91 219.11 34.91 320.65 34.91 358.27 27.91"/><path class="cls-4" d="M188.54,320.61H81.44l-5.33,1-37.62,7h-.05a.5.5,0,0,0,.1,1h107a.5.5,0,0,1-.1-1H44l37.62-7H183.11l5.33-1h.1" transform="translate(175.16 -293.7)"/><polyline class="cls-7" points="464.27 27.91 363.74 27.91 326.11 34.91 426.65 34.91 464.27 27.91"/><polyline class="cls-7" points="438.85 0.88 337.89 0.88 300.11 7.91 401.07 7.91 438.85 0.88"/><polygon class="cls-7" points="530.08 0.91 443.49 0.91 405.87 7.91 506.4 7.91 530.13 3.5 530.08 0.91"/><path class="cls-4" d="M294.54,320.61H188.44l-5.33,1-37.62,7h-.05a.5.5,0,0,0,.1,1h106a.5.5,0,0,1-.1-1H151l37.62-7H289.11l5.33-1h.1" transform="translate(175.16 -293.7)"/><polygon class="cls-2" points="530.1 34.91 432.11 34.91 469.74 27.91 530.08 27.91 530.1 34.91"/><polygon class="cls-4" points="436.9 22.91 415.4 26.91 420.87 26.91 442.37 22.91 436.9 22.91"/><path class="cls-4" d="M355,320.1l-2.73.51h-57.8l-5.33,1-37.62,7h-.05a.5.5,0,0,0,.1,1H354.92Zm0,8.51H257l37.62-7h60.34Z" transform="translate(175.16 -293.7)"/><polyline class="cls-3" points="320.69 14.91 312.74 14.91 275.11 21.91 374.64 21.91 382.71 20.41 320.69 20.41 320.69 14.91"/><path class="cls-4" d="M199.48,315.61H100l-5.32,1H199.54a.5.5,0,0,1-.1-1h0m126.76-8H137.54a.5.5,0,0,1,.49.45.49.49,0,0,1-.4.54H326.24" transform="translate(175.16 -293.7)"/><polyline class="cls-2" points="519.27 14.91 492.57 14.91 408.17 14.91 388.18 20.41 380.11 21.91 481.64 21.91 519.27 14.91"/><path class="cls-4" d="M233.32,308.61h-5.47l-28.37,7h0a.5.5,0,0,0,.1,1h107a.5.5,0,0,1-.1-1H205l8.06-1.5m136.52-6.5H319.32l-1.91,1h26.7l5.33-1h.1" transform="translate(175.16 -293.7)"/><polyline class="cls-2" points="307.27 14.91 214.69 14.91 172.69 21.91 269.65 21.91 307.27 14.91"/><path class="cls-4" d="M137.54,307.61h-92l-6,1h92.58l-37.62,7h-97l-6,1H94.63l5.32-1,37.63-7h0a.49.49,0,0,0,.4-.54.5.5,0,0,0-.49-.45h0" transform="translate(175.16 -293.7)"/><polyline class="cls-7" points="320.69 4.08 300.11 7.91 320.69 7.91 320.69 4.08"/><polyline class="cls-4" points="320.69 7.91 300.11 7.91 294.79 8.9 294.69 8.91 291.69 8.91 291.69 8.91 505.73 8.91 505.73 7.91"/><path class="cls-2" d="M344.19,294.61" transform="translate(175.16 -293.7)"/><path class="cls-4" d="M331.48,301.61h-.68l-1.91,1h2.65a.5.5,0,0,1-.1-1h0M355,293.83l-211.37.06-.35.72H355" transform="translate(175.16 -293.7)"/><path class="cls-2" d="M355,298.26l-18,3.35c4.31,0,10.56,0,18.08,0" transform="translate(175.16 -293.7)"/><path class="cls-4" d="M355,297.24l-23.49,4.37h0a.5.5,0,0,0,.1,1H355v-1H337l18-3.35" transform="translate(175.16 -293.7)"/><polyline class="cls-2" points="321.9 0.91 301.71 0.91 297.98 0.88 284.9 3.41 257.9 7.91 295.86 7.91 333.74 0.88 321.9 0.91"/><path class="cls-4" d="M145.54,296.77l-26,4.84h-38l-6,1h44.1l5.32-1,37.79-7-1.77-.66m-15.43-.21H126.05l-3.16.91h22.65v-.91" transform="translate(175.16 -293.7)"/><polygon class="cls-2" points="530.13 21.91 487.11 21.91 524.74 14.91 530.12 14.91 530.13 21.91"/><path class="cls-4" d="M355,308.61h-5.38l-37.62,7h43v1H306.54a.5.5,0,0,1-.1-1h0l37.63-7,5.33-1H355Z" transform="translate(175.16 -293.7)"/><polyline class="cls-2" points="187.08 43.79 113.03 43.79 85.6 48.9 159.64 48.9 187.08 43.79"/><polyline class="cls-3" points="206.13 49.79 114.1 49.79 86.77 55.32 176.43 55.32 196.67 49.79"/><path class="cls-2" d="M-149.16,341h-2.4l-9,1.5h3.33l8.07-1.5m18.81-3.5h-.21l-17,2.84v.36l17.21-3.2" transform="translate(175.16 -293.7)"/><polyline class="cls-2" points="114.6 43.79 85.6 43.79 85.6 43.79 50.27 43.79 23.39 48.79 106.6 48.79 106.6 48.79 114.6 48.79 114.6 43.79"/><polyline class="cls-4" points="50.27 43.79 44.8 43.79 27.6 46.99 27.6 47.29 25.99 47.29 17.93 48.79 23.39 48.79 50.27 43.79"/><polyline class="cls-5" points="324.1 43.79 305.6 43.79 180.76 43.79 160.12 48.79 318.6 48.79 324.1 48.79"/><polyline class="cls-2" points="123.8 57.79 60.6 57.79 60.6 57.79 25.27 57.79 3.77 61.79 50.6 61.79 102.31 61.79 123.8 57.79"/><polygon class="cls-6" points="0 57.79 0 61.48 19.8 57.79 0 57.79"/><polygon class="cls-4" points="19.8 57.79 0 61.48 0 61.79 3.77 61.79 25.27 57.79 19.8 57.79"/><polyline class="cls-2" points="230.8 57.79 172.6 57.79 129.27 57.79 107.77 61.79 157.6 61.79 209.31 61.79 230.8 57.79"/><polyline class="cls-4" points="129.27 57.79 123.8 57.79 102.31 61.79 107.77 61.79 129.27 57.79"/><polyline class="cls-4" points="237.34 35.79 231.88 35.79 195.12 42.63 200.59 42.63 222.08 38.63"/><polyline class="cls-4" points="195.13 41.96 189.66 41.96 152.91 48.79 158.37 48.79 179.87 44.79"/><polygon class="cls-2" points="323.98 57.79 280.6 57.79 236.27 57.79 214.77 61.79 263.6 61.79 321.31 61.79 324.04 61.28 323.98 57.79"/><polygon class="cls-2" points="0 62.79 0 69.79 7.55 69.79 45.17 62.79 0 62.79"/><polygon class="cls-4" points="0 61.79 0 62.79 45.17 62.79 50.51 61.8 50.6 61.79 0 61.79"/><path class="cls-4" d="M-168.06,364a.51.51,0,0,1,.41-.54h-7.51v1h7.6A.5.5,0,0,1-168.06,364Z" transform="translate(175.16 -293.7)"/><polyline class="cls-2" points="152.17 62.79 50.64 62.79 13.02 69.79 114.56 69.79 152.17 62.79"/><path class="cls-4" d="M-17.56,355.49H-124.65l-5.33,1-37.62,7h-.05a.51.51,0,0,0-.41.54.5.5,0,0,0,.5.45h107a.5.5,0,0,1-.5-.45.51.51,0,0,1,.41-.54H-162.14l37.62-7H-23l5.33-1h.09" transform="translate(175.16 -293.7)"/><polyline class="cls-7" points="258.17 62.79 157.64 62.79 120.02 69.79 220.56 69.79 258.17 62.79"/><polyline class="cls-7" points="232.75 35.76 131.8 35.76 94.01 42.79 194.97 42.79 232.75 35.76"/><polygon class="cls-7" points="323.98 35.79 237.39 35.79 199.77 42.79 300.31 42.79 324.03 38.38 323.98 35.79"/><path class="cls-4" d="M88.44,355.49H-17.65l-5.33,1-37.62,7h0a.51.51,0,0,0-.41.54.5.5,0,0,0,.5.45h106a.5.5,0,0,1-.5-.45.51.51,0,0,1,.41-.54H-55.14l37.62-7H83l5.33-1h.09" transform="translate(175.16 -293.7)"/><polygon class="cls-2" points="324 69.79 226.02 69.79 263.64 62.79 323.98 62.79 324 69.79"/><polygon class="cls-4" points="230.8 57.79 209.31 61.79 214.77 61.79 236.27 57.79 230.8 57.79"/><path class="cls-4" d="M148.88,355l-2.73.5H88.35l-5.33,1-37.62,7h0a.51.51,0,0,0-.41.54.5.5,0,0,0,.5.45H148.83Zm0,8.5h-98l37.62-7h60.35Z" transform="translate(175.16 -293.7)"/><polyline class="cls-3" points="114.6 49.79 106.64 49.79 69.01 56.79 168.54 56.79 176.61 55.29 114.6 55.29 114.6 49.79"/><path class="cls-4" d="M-6.61,350.49h-99.54l-5.32,1H-6.56a.5.5,0,0,1-.5-.45.51.51,0,0,1,.41-.54h0m126.75-8H-68.56a.51.51,0,0,1,.5.46.49.49,0,0,1-.41.53H120.14" transform="translate(175.16 -293.7)"/><polyline class="cls-2" points="313.17 49.79 286.47 49.79 202.07 49.79 182.08 55.29 174.02 56.79 275.55 56.79 313.17 49.79"/><path class="cls-4" d="M27.23,343.49H21.76l-28.37,7h0a.51.51,0,0,0-.41.54.5.5,0,0,0,.5.45h107a.5.5,0,0,1-.5-.45.51.51,0,0,1,.41-.54H-1.14L6.93,349m136.51-6.5H113.23l-1.92,1H138l5.33-1h.09" transform="translate(175.16 -293.7)"/><polygon class="cls-2" points="8.6 49.79 0 51.23 0 56.79 63.55 56.79 101.18 49.79 8.6 49.79"/><path class="cls-4" d="M-68.56,342.49h-92l-6,1H-74l-37.63,7h-63.55v1h63.69l5.32-1,37.63-7h0a.49.49,0,0,0,.41-.53A.51.51,0,0,0-68.56,342.49Z" transform="translate(175.16 -293.7)"/><polyline class="cls-7" points="114.6 38.96 94.01 42.79 114.6 42.79 114.6 38.96"/><polyline class="cls-4" points="114.6 42.79 94.01 42.79 88.69 43.78 88.6 43.79 85.6 43.79 85.6 43.79 299.63 43.79 299.63 42.79"/><path class="cls-2" d="M138.1,329.49" transform="translate(175.16 -293.7)"/><path class="cls-4" d="M125.39,336.49h-.69l-1.91,1h2.65a.5.5,0,0,1-.5-.45.51.51,0,0,1,.41-.54h0m23.51-7.77-211.37,0-.34.72H148.92" transform="translate(175.16 -293.7)"/><path class="cls-2" d="M148.89,333.14l-18,3.35c4.32,0,10.56,0,18.08,0" transform="translate(175.16 -293.7)"/><path class="cls-4" d="M148.87,332.13l-23.48,4.36h0a.51.51,0,0,0-.41.54.5.5,0,0,0,.5.45h23.44v-1h-18l18-3.35" transform="translate(175.16 -293.7)"/><polyline class="cls-2" points="115.81 35.79 95.62 35.79 91.89 35.77 78.81 38.29 51.8 42.79 89.76 42.79 127.64 35.77 115.81 35.79"/><path class="cls-4" d="M-60.56,331.65l-26,4.84h-37.95l-6,1h44.09l5.33-1,37.78-7-1.77-.67m-15.43-.21H-80l-3.17.91h22.65v-.91" transform="translate(175.16 -293.7)"/><polygon class="cls-2" points="324.04 56.79 281.02 56.79 318.64 49.79 324.02 49.79 324.04 56.79"/><path class="cls-4" d="M148.87,343.49h-5.39l-37.62,7h43v1H100.44a.5.5,0,0,1-.5-.45.51.51,0,0,1,.41-.54h0l37.63-7,5.33-1h5.52Z" transform="translate(175.16 -293.7)"/><path class="cls-1" d="M-29.51,359h-7.83l-32.94,5.49h13.44a.48.48,0,0,1,.41-.48l26.92-5" transform="translate(175.16 -293.7)"/><polyline class="cls-2" points="406.3 44.25 332.25 44.25 304.82 49.35 378.86 49.35 406.3 44.25"/><polyline class="cls-3" points="425.35 50.25 333.32 50.25 305.99 55.78 395.65 55.78 415.88 50.25"/><path class="cls-2" d="M70.06,341.45h-2.4l-9,1.5H62l8.07-1.5m18.8-3.5h-.2l-17,2.83v.37l17.2-3.2" transform="translate(175.16 -293.7)"/><polyline class="cls-2" points="333.82 44.25 304.82 44.25 304.82 44.25 269.49 44.25 242.61 49.25 325.82 49.25 325.82 49.25 333.82 49.25 333.82 44.25"/><polyline class="cls-4" points="269.49 44.25 264.02 44.25 246.82 47.45 246.82 47.75 245.21 47.75 237.15 49.25 242.61 49.25 269.49 44.25"/><path class="cls-5" d="M355.08,338H224.82l-20.64,5H355.09C355.08,341.28,355.07,339.62,355.08,338Z" transform="translate(175.16 -293.7)"/><polyline class="cls-2" points="343.02 58.25 279.82 58.25 279.82 58.25 244.49 58.25 222.99 62.25 269.82 62.25 321.53 62.25 343.02 58.25"/><polyline class="cls-6" points="239.02 58.25 179.81 58.25 143.81 64.25 151.02 64.25 161.72 62.26 161.82 62.25 217.53 62.25 239.02 58.25"/><path class="cls-4" d="M-24.14,358h-7.2l-6,1h7.83l5.37-1m93.47-6H63.87l-21.5,4h5.47l21.49-4" transform="translate(175.16 -293.7)"/><polyline class="cls-2" points="450.02 58.25 391.82 58.25 348.49 58.25 326.99 62.25 376.82 62.25 428.53 62.25 450.02 58.25"/><polyline class="cls-4" points="348.49 58.25 343.02 58.25 321.53 62.25 326.99 62.25 348.49 58.25"/><polyline class="cls-4" points="456.56 36.25 451.1 36.25 414.34 43.08 419.8 43.08 441.3 39.08"/><polyline class="cls-4" points="414.35 42.41 408.88 42.41 372.13 49.25 377.59 49.25 399.09 45.25"/><path class="cls-2" d="M355.09,352H280.33l-21.5,4H355C355.06,354.62,355.08,353.28,355.09,352Z" transform="translate(175.16 -293.7)"/><polyline class="cls-2" points="264.39 63.25 161.86 63.25 124.24 70.25 226.77 70.25 264.39 63.25"/><path class="cls-4" d="M94.66,356H-13.43l-10.71,2-5.37,1-26.92,5a.48.48,0,0,0-.41.48v.06a.5.5,0,0,0,.5.45h108a.51.51,0,0,1-.5-.45.5.5,0,0,1,.41-.54H-50.92l37.62-7H89.24l5.33-1h.09" transform="translate(175.16 -293.7)"/><polyline class="cls-2" points="371.39 63.25 269.86 63.25 232.24 70.25 333.77 70.25 371.39 63.25"/><path class="cls-4" d="M201.66,356H94.57l-5.33,1-37.62,7h0a.5.5,0,0,0-.41.54.51.51,0,0,0,.5.45h107a.51.51,0,0,1-.5-.45.5.5,0,0,1,.41-.54H57.08l37.62-7H196.24l5.33-1h.09" transform="translate(175.16 -293.7)"/><polyline class="cls-7" points="477.39 63.25 376.86 63.25 339.24 70.25 439.77 70.25 477.39 63.25"/><polyline class="cls-7" points="451.97 36.22 351.01 36.22 313.23 43.25 414.19 43.25 451.97 36.22"/><path class="cls-7" d="M355.1,330H281.45l-37.62,7H344.37l10.71-2C355.09,333.29,355.09,331.62,355.1,330Z" transform="translate(175.16 -293.7)"/><path class="cls-4" d="M307.66,356H201.57l-5.33,1-37.62,7h-.05a.5.5,0,0,0-.41.54.51.51,0,0,0,.5.45h106a.51.51,0,0,1-.5-.45.5.5,0,0,1,.41-.54H164.08l37.62-7H302.24l5.33-1h.09" transform="translate(175.16 -293.7)"/><path class="cls-2" d="M355,358.89c0-.65,0-1.29,0-1.94H307.7l-37.62,7h84.75C354.87,362.27,354.93,360.59,355,358.89Z" transform="translate(175.16 -293.7)"/><polygon class="cls-4" points="450.02 58.25 428.53 62.25 433.99 62.25 455.49 58.25 450.02 58.25"/><path class="cls-4" d="M354.83,364H270.08l37.62-7H355c0-.33,0-.67,0-1H307.57l-5.33,1-37.62,7h-.05a.5.5,0,0,0-.41.54.51.51,0,0,0,.5.45H354.8Z" transform="translate(175.16 -293.7)"/><polyline class="cls-3" points="333.82 50.25 325.86 50.25 288.23 57.25 387.76 57.25 395.83 55.75 333.82 55.75 333.82 50.25"/><path class="cls-4" d="M212.61,351H113.07l-5.32,1H212.66a.51.51,0,0,1-.5-.46.5.5,0,0,1,.41-.53h0m126.75-8H150.66a.5.5,0,0,1,.09,1H339.36" transform="translate(175.16 -293.7)"/><path class="cls-2" d="M355.09,344h-109l-20,5.5-8.07,1.5H319.61l35.48-6.6Z" transform="translate(175.16 -293.7)"/><path class="cls-4" d="M319.16,351.49a.5.5,0,0,1,.41-.53H218.08l8.07-1.5,20.3-5.5H241l-28.37,7h0a.5.5,0,0,0-.41.53.51.51,0,0,0,.5.46h107A.51.51,0,0,1,319.16,351.49Z" transform="translate(175.16 -293.7)"/><path class="cls-4" d="M355.09,343H332.44l-1.91,1h24.56Z" transform="translate(175.16 -293.7)"/><polyline class="cls-2" points="320.39 50.25 227.82 50.25 185.81 57.25 282.77 57.25 320.39 50.25"/><path class="cls-4" d="M150.66,343h-92l-6,1h92.58l-37.63,7h-97l-6,1H107.75l5.32-1,37.63-7h.05a.5.5,0,0,0-.09-1h0" transform="translate(175.16 -293.7)"/><polyline class="cls-7" points="333.82 39.42 313.23 43.25 333.82 43.25 333.82 39.42"/><polyline class="cls-4" points="333.82 43.25 313.23 43.25 307.91 44.24 307.82 44.25 304.82 44.25 304.82 44.25 518.85 44.25 518.85 43.25"/><path class="cls-4" d="M355.1,329.18l-198.35.05-.34.72H355.1Z" transform="translate(175.16 -293.7)"/><path class="cls-2" d="M355.08,336l-5,.93,5,0Z" transform="translate(175.16 -293.7)"/><path class="cls-4" d="M355.08,337.42V337h-5l5-.93v-1L344.61,337h0a.5.5,0,0,0,.09,1h10.42Z" transform="translate(175.16 -293.7)"/><polyline class="cls-2" points="335.03 36.25 314.84 36.25 311.1 36.22 298.03 38.75 271.02 43.25 308.98 43.25 346.86 36.22 335.03 36.25"/><path class="cls-4" d="M158.66,332.1l-26,4.85h-38l-6,1h44.09l5.33-1,37.78-7-1.77-.66M158.66,329H139.17L136,330h22.65V329" transform="translate(175.16 -293.7)"/><path class="cls-2" d="M355.09,345.37l-30,5.58h30Q355.11,348.16,355.09,345.37Z" transform="translate(175.16 -293.7)"/><path class="cls-4" d="M355.09,351h-30l30-5.58v-1L319.61,351h0a.5.5,0,0,0-.41.53.51.51,0,0,0,.5.46h35.43Z" transform="translate(175.16 -293.7)"/></svg>