<svg id="Слой_1" data-name="Слой 1" xmlns="http://www.w3.org/2000/svg" viewBox="0 0 199 176"><defs><style>.cls-1{fill:#777675;}.cls-2{fill:#1f1f1f;}.cls-3{fill:#605f5c;}.cls-4{fill:#4d4b46;}.cls-5{fill:#8e8e8e;}.cls-6{fill:#37352f;}.cls-7{fill:#c17120;}.cls-8{fill:#955e1a;}.cls-9{fill:#de8225;}.cls-10{fill:#cbcbcb;}</style></defs><title>5</title><path class="cls-1" d="M187.4,377.13v-88h28v72.25l-28,15.75m33-94H182.74v102h0l10.53-5.5,1.91-1,9.56-5,1.92-1,13.39-7,.34-.18v-.54l-7.86,0h0l7.86,0V283.13" transform="translate(-21.4 -209.13)"/><polyline class="cls-2" points="194 80 166 80 166 168 194 152.25 194 80"/><polyline class="cls-3" points="186 0 152.65 0 125.82 0 121.5 0 89.99 0 63.15 0 54 0 49 2 182 2 194 74 174.68 74 174.68 74 199 74 191.91 33.63 191.91 33.63 187.36 7.74 187.36 7.74 186 0"/><path class="cls-4" d="M108.83,220h0m62.66,0h0m31.91-8.82H70.4l12,72h25a33.67,33.67,0,0,0,4.72-3.58c.79-.77,1.6-1.57,2.33-2.32.33-.36.64-.73,1-1.1,3.28-4.16-1-7-1-7s2.51-.7,6.44-3.82a34.14,34.14,0,0,1,7.56-6.18,7.37,7.37,0,0,1,3.62-.88,10.4,10.4,0,0,1,1.92.18,15.05,15.05,0,0,1,4.46.7l7.3-6.82L162.42,236a1.22,1.22,0,0,0-.79-.82c-1-.32-4.29-1.4-2.9-2.94,1.09-1.21,1-2.21,1.4-2.21a1.14,1.14,0,0,1,.54.25c1.17.78,1.37,3.65,1.93,3.92a9.16,9.16,0,0,1,.89.76l2.84-2.78a1.32,1.32,0,0,0-.83-.92c-1.05-.32-4.29-1.4-2.9-2.94,1.09-1.21.94-2.22,1.39-2.22a1.14,1.14,0,0,1,.54.25c1.17.78,1.38,3.66,1.94,3.93a9.83,9.83,0,0,1,1.18,1l.25.21,1.5-1.4s.51,0,1.24,0c1.48,0,3.86-.14,4.76-1-2-3.08,1.35-6.24,3-7a1.67,1.67,0,0,1,.69-.14c1.85,0,4.94,2.2,6.31,3.14,1.56,1.07.24,5.29-1,8-.81,1.78-5.29,2.08-8.28,2.08-1.23,0-2.21-.05-2.57-.07a8.88,8.88,0,0,1,.85,1c.27.58,3.2.79,4,2s-.43.56-2,2a1.11,1.11,0,0,1-.76.35c-1.16,0-2-2.46-2.24-3.35a1.39,1.39,0,0,0-1.07-.89l-2.78,2.89a10.19,10.19,0,0,1,.85,1c.27.58,3.2.79,4,2s-.43.56-2,2a1.16,1.16,0,0,1-.76.35c-1.16,0-2-2.46-2.24-3.35a1.34,1.34,0,0,0-1-.86l-22,22.86q1.74,2.28,3.32,4.68l28.68-28.68h2l7-1s-.08-1.13,0-4,4-3.89,5-4h0c1.08,0,5.2,3.17,6,6s-3.4,5.7-6,6-5.86,1.59-6,2,.69.85,2,1,1.12,2,0,3a.67.67,0,0,1-.45.17c-1.16,0-2.85-2.72-3.55-3.17a.54.54,0,0,0-.31-.09c-.85,0-2.18,1.53-2.69,2.09s.65.31,1,1a.53.53,0,0,0,.51.33c.38,0,.88-.26,1.49-.33h.1c.91,0,1.36,1.63.9,4-.14.77-.56,1.08-1.07,1.08-1.13,0-2.71-1.52-2.93-3.08-.25-1.83-.74-2-.93-2h-.07s-20.63,20.37-21,22,.3,2.19,3,6a16,16,0,0,1,3,7h50l-12-72" transform="translate(-21.4 -209.13)"/><path class="cls-5" d="M29.4,376.13v-85h145v85H29.4m153.34-93H120.13l-.38.36-.35-.36h-2.27l-.38.36-.35-.36h-95v102H182.74v-102" transform="translate(-21.4 -209.13)"/><polyline class="cls-2" points="153 82 8 82 8 167 153 167 153 82"/><path class="cls-6" d="M192.45,230.12h0c-1,.11-4.92,1.13-5,4s0,4,0,4l-7,1h-2l-28.68,28.68q1.41,2.12,2.68,4.32c2,3.78,0,11,0,11h13a16,16,0,0,0-3-7c-2.7-3.81-3.37-4.37-3-6s21-22,21-22h.07c.19,0,.68.18.93,2,.22,1.56,1.8,3.08,2.93,3.08.51,0,.93-.31,1.07-1.08.46-2.38,0-4-.9-4h-.1c-.61.07-1.11.33-1.49.33a.53.53,0,0,1-.51-.33c-.35-.69-1.58-.37-1-1s1.84-2.09,2.69-2.09a.54.54,0,0,1,.31.09c.7.45,2.39,3.17,3.55,3.17a.67.67,0,0,0,.45-.17c1.12-1,1.31-2.85,0-3s-2.14-.59-2-1,3.4-1.7,6-2,6.77-3.11,6-6-4.87-6-6-6" transform="translate(-21.4 -209.13)"/><path class="cls-7" d="M112.12,279.55a33.67,33.67,0,0,1-4.72,3.58h1s1.78-1.67,3.72-3.58m8.72-14.24c-3.93,3.12-6.44,3.82-6.44,3.82s4.28,2.84,1,7c-.31.37-.62.74-1,1.1.78-.8,1.47-1.54,2-2.1,2.07-2.42-1.55-5.1-1-6a14.37,14.37,0,0,0,5.44-3.82m24.86-13-7.3,6.82a15.05,15.05,0,0,0-4.46-.7,17.25,17.25,0,0,1,4.09,1.36l7.67-7.48m21.82-12.42-24,23.4a32.21,32.21,0,0,1,4.86,7.84c1.48,3.92-4,12-4,12h8s2-7.22,0-11q-1.28-2.2-2.68-4.32-1.58-2.4-3.32-4.68l22-22.86a3.24,3.24,0,0,0-1-.14h-.08l.12-.24m3.91-3.81-2.52,2.46c.22.18.43.38.64.59l2.78-2.89a3.28,3.28,0,0,0-.85-.11h-.08l0,0M179.09,222a1.67,1.67,0,0,0-.69.14c-1.65.76-5,3.92-3,7-.9.89-3.28,1-4.76,1-.73,0-1.24,0-1.24,0l-1.5,1.4.77.61.38-.37.7.72-.29.28.84.68,1.75-1.68.7.72-1.65,1.59,1,.76.35-.71a9.24,9.24,0,0,1,1.15,1c.36,0,1.34.07,2.57.07,3,0,7.47-.3,8.28-2.08,1.24-2.71,2.56-6.93,1-8-1.37-.94-4.46-3.14-6.31-3.14" transform="translate(-21.4 -209.13)"/><path class="cls-8" d="M168.91,238.54l-1.39,1.35-.12.24h.08a3.24,3.24,0,0,1,1,.14,1.34,1.34,0,0,1,1,.86c.28.89,1.08,3.35,2.24,3.35a1.16,1.16,0,0,0,.76-.35c1.57-1.44,2.8-.79,2-2s-3.73-1.42-4-2a10.19,10.19,0,0,0-.85-1c-.21-.21-.42-.41-.64-.59" transform="translate(-21.4 -209.13)"/><path class="cls-8" d="M172.4,234.13l-.35.71.35.29-1,1,0,0h.08a3.28,3.28,0,0,1,.85.11,1.39,1.39,0,0,1,1.07.89c.28.89,1.08,3.35,2.24,3.35a1.11,1.11,0,0,0,.76-.35c1.57-1.44,2.8-.79,2-2s-3.73-1.42-4-2a8.88,8.88,0,0,0-.85-1,9.24,9.24,0,0,0-1.15-1" transform="translate(-21.4 -209.13)"/><path class="cls-8" d="M160.13,230c-.45,0-.31,1-1.4,2.21-1.39,1.54,1.85,2.62,2.9,2.94a1.22,1.22,0,0,1,.79.82l1.07-1a9.16,9.16,0,0,0-.89-.76c-.56-.27-.76-3.14-1.93-3.92a1.14,1.14,0,0,0-.54-.25" transform="translate(-21.4 -209.13)"/><path class="cls-8" d="M164,226.09c-.45,0-.3,1-1.39,2.22-1.39,1.54,1.85,2.62,2.9,2.94a1.32,1.32,0,0,1,.83.92l1.07-1,.25.19a9.83,9.83,0,0,0-1.18-1c-.56-.27-.77-3.15-1.94-3.93a1.14,1.14,0,0,0-.54-.25" transform="translate(-21.4 -209.13)"/><path class="cls-9" d="M128.15,272.52l-11,10.61h2.27l-.35-.36L129,273.2l-.84-.68m15.39-9.23L131.4,275.13l-1.61-1.3-9.66,9.3H144.4s5.48-8.08,4-12a32.21,32.21,0,0,0-4.86-7.84m-11.52-5a7.37,7.37,0,0,0-3.62.88,34.14,34.14,0,0,0-7.56,6.18,14.37,14.37,0,0,1-5.44,3.82c-.55.9,3.07,3.58,1,6-.48.56-1.17,1.3-2,2.1s-1.54,1.55-2.33,2.32c-1.94,1.91-3.72,3.58-3.72,3.58h8l-.35-.36,11.31-10.88-1-.76L138,259.79a17.25,17.25,0,0,0-4.09-1.36,10.4,10.4,0,0,0-1.92-.18" transform="translate(-21.4 -209.13)"/><path d="M171.1,234.08l-41.31,39.75,1.61,1.3,12.14-11.84,24-23.4,1.39-1.35,2.52-2.46,1-1-.35-.29-1-.76m-1.64-1.31-41.31,39.75.84.68,41.31-39.75-.84-.68m-2.06-1.64-1.07,1L163.49,235l-1.07,1L145.7,252.31,138,259.79,126.4,271.13l1,.76,41.31-39.75-.77-.61-.25-.21-.25-.19" transform="translate(-21.4 -209.13)"/><path class="cls-10" d="M169.05,231.77l-.38.37-41.31,39.75-11.31,10.88.35.36.35.36.38-.36,11-10.61,41.31-39.75.29-.28-.7-.72m3,0-1.75,1.68L129,273.2l-9.94,9.57.35.36.35.36.38-.36,9.66-9.3,41.31-39.75,1.65-1.59-.7-.72" transform="translate(-21.4 -209.13)"/></svg>