<svg id="Слой_1" data-name="Слой 1" xmlns="http://www.w3.org/2000/svg" viewBox="0 0 191 293"><defs><style>.cls-1{fill:#a7541b;}.cls-2{fill:#bc6526;}.cls-3{fill:#a45319;}.cls-4{fill:#d27431;}.cls-5{fill:#d9925f;}.cls-6{fill:#eadd6d;}.cls-7{fill:#cc7536;}.cls-8{fill:#71330e;}.cls-9{fill:#eab893;}</style></defs><title>6</title><polyline class="cls-1" points="22 281 13 281 13 292.41 13 293 14 293 22 293 22 281"/><polyline class="cls-1" points="178 281 169 281 169 293 177 293 178 293 178 292.11 178 281"/><path class="cls-2" d="M55.79,390.76l-4,1.42v81.16h180v-11.4h-5v5.4h-169v-51h0v-23h-2v-2.58m4.55-186.42H51.79V392.18l4-1.42v-9.42h2v-137h-2v-12h2v-21h2.55v-7m171.45,0H60.34v7H226.79v21h2v12h-2v137h2v12h-2v20h1v3h-1v24h1v3h-1v18.6h5V204.34" transform="translate(-46.79 -192.34)"/><path class="cls-3" d="M60.34,202.34H50.79v2h9.55v-2m173.45,0H60.34v2H233.79v-2" transform="translate(-46.79 -192.34)"/><path class="cls-4" d="M60.34,389.15l-1.55.55v23.64h1.55V389.15m0-176.81H58.79V389.7l1.55-.55V212.34m71.45,109v-17h5v17h-5m9-110h0v1H60.34V389.15l10.34-3.65-10.34,3.65v24.19h80.45v-202" transform="translate(-46.79 -192.34)"/><path class="cls-4" d="M147.79,321.34v-17h5v17h-5m79-109h-83v201h83v-20h-1v-12h1v-137h-1v-12h1v-20" transform="translate(-46.79 -192.34)"/><path class="cls-4" d="M226.79,417.34H60.34v23H226.79v-23m-169-1h0v24h2.55v-23H57.79v-1" transform="translate(-46.79 -192.34)"/><path class="cls-5" d="M58.79,393.34h-1v20h1v-20m0-149h-1v137h1v-137m-1-33h0v21h1v-20h-1v-1" transform="translate(-46.79 -192.34)"/><path class="cls-5" d="M60.34,416.34H57.79v1h2.55v-1m166.45,0H60.34v1H226.79v-1" transform="translate(-46.79 -192.34)"/><path class="cls-4" d="M226.79,444.34H60.34v17.6H226.79v-17.6m-169-1h0v24h169v-5.4H60.34v-17.6H57.79v-1" transform="translate(-46.79 -192.34)"/><polyline class="cls-6" points="90 112 85 112 85 129 90 129 90 112"/><polyline class="cls-6" points="106 112 101 112 101 129 106 129 106 112"/><polyline class="cls-6" points="103.42 237.56 103.42 234.67 86.42 234.67 86.42 237.56 103.42 237.56"/><polyline class="cls-6" points="103.42 262.72 103.42 259.83 86.42 259.83 86.42 262.72 103.42 262.72"/><path class="cls-6" d="M58.79,389.7l-3,1.06v2.58h3V389.7m0-8.36h-3v9.42l3-1.06v-8.36" transform="translate(-46.79 -192.34)"/><polyline class="cls-6" points="182 189 180 189 179 189 179 201 180 201 182 201 182 189"/><polyline class="cls-6" points="182 40 180 40 179 40 179 52 180 52 182 52 182 40"/><path class="cls-7" d="M60.34,194.34H47.55l3,8h9.77v-8m176.47,0H60.34v8H233.79l3-8" transform="translate(-46.79 -192.34)"/><polyline class="cls-8" points="96 19 94 19 94 221 97 221 96 221 96 19"/><path class="cls-8" d="M60.34,413.34H57.79v3h2.55v-3m167.45,0H60.34v3H227.79v-3" transform="translate(-46.79 -192.34)"/><path class="cls-8" d="M60.34,440.34H57.79v3h2.55v-3m167.45,0H60.34v3H227.79v-3" transform="translate(-46.79 -192.34)"/><polyline class="cls-5" points="97 19 96 19 96 221 97 221 97 20 97 19"/><path class="cls-5" d="M60.34,443.34H57.79v1h2.55v-1m166.45,0H60.34v1H226.79v-1" transform="translate(-46.79 -192.34)"/><path class="cls-9" d="M60.34,192.34H46.79v2H60.34v-2m177.45,0H60.34v2H237.79v-2" transform="translate(-46.79 -192.34)"/></svg>