<svg id="Слой_1" data-name="Слой 1" xmlns="http://www.w3.org/2000/svg" viewBox="0 0 350.44 316.52"><defs><style>.cls-1{fill:#fff;}.cls-2{fill:#88643f;}.cls-3{fill:#dd5227;}</style></defs><title>7</title><path class="cls-1" d="M251.36,362.92a5.5,5.5,0,1,0,5.5,5.5,5.5,5.5,0,0,0-5.5-5.5" transform="translate(48.44 -188.89)"/><path class="cls-2" d="M-33,424.59a14.9,14.9,0,0,0-6.85,1.56,4.68,4.68,0,0,1,1.07-.12c1.78,0,4,.89,7.4,2.93,6.49,3.89,16.25,10.38,16.25,10.38a22.07,22.07,0,0,0,4.47-3.67c-3.33-2.19-9.29-6.06-13.72-8.71A16.71,16.71,0,0,0-33,424.59m322.73-.79a21,21,0,0,0-6,2.08,10.61,10.61,0,0,1,7.59,4.88c2.18,3.58,3.82,34.54-.46,37.46a276.64,276.64,0,0,1-60,36.63l2.27.07a277.26,277.26,0,0,0,64.72-38.7c4.28-2.92,2.64-33.88.46-37.46a10.61,10.61,0,0,0-8.58-5h0M95.47,357.65s-1.4,2.29-5.87,8.57S62.16,381.59,50.15,387.9C32.76,397,28.09,414.48,26.86,428.51a54.59,54.59,0,0,1-8.57,24.37S64,481.11,130.22,482.67c1.17,0,2.34,0,3.51,0,19.41,0,38-3.72,54-8.58a182.66,182.66,0,0,1-47,6.58c-1.17,0-2.34,0-3.51,0C71,479.11,25.29,450.88,25.29,450.88a54.59,54.59,0,0,0,8.57-24.37c1.23-14,5.9-31.47,23.29-40.61,12-6.31,35-15.42,39.45-21.68,1.37-1.92,2.45-3.47,3.29-4.69-2.82-1.09-4.42-1.88-4.42-1.88m75.37-1.81s-3.47,2.52-11,5.05a74.4,74.4,0,0,0,12.34-4c-.85-.68-1.3-1-1.3-1M29.64,305.35c-6.24,0-17.91,7.34-16.32,25.67-.23.16-.49.31-.76.46,3.33-.51,6.08-1.31,7.76-2.46-1.12-12.91,4.34-20.37,9.85-23.65a4.7,4.7,0,0,0-.53,0M13.37,282.11a42.22,42.22,0,0,0-12,1.78q-1.59.47-3.06,1a41.28,41.28,0,0,1,8.06-.8c18.29,0,29.52,12.61,29.52,12.61a33.12,33.12,0,0,1,3.85-4.92,42,42,0,0,0-26.37-9.69m63.37-5.63a39.7,39.7,0,0,0-14.59,2.7,40.46,40.46,0,0,1,7.59-.7c1.31,0,2.67.06,4.06.19,25.62,2.31,42.35,6.77,52.2,6.77h.16a45.09,45.09,0,0,0,13.73-2.83,33.91,33.91,0,0,1-6.73.83H133c-9.85,0-26.59-4.46-52.2-6.77-1.39-.13-2.75-.19-4.06-.19m147.36-8.61c-2.76,0-5.87,1.78-8.13,8.54-3.68,11,1.76,26-6.32,41.52s-9.92,26.59-9,29.34c.42,1.31,12.36,24.68,26.63,46,15.7,23.51,33.85,45.14,33.85,45.14s2.41-1.6,5.63-3.66c-4.51-5.47-19.35-23.82-32.48-43.48-14.27-21.35-26.21-44.72-26.63-46-.9-2.75.94-13.87,9-29.34s2.64-30.54,6.32-41.52a17.47,17.47,0,0,1,3.29-6.21,7.68,7.68,0,0,0-2.16-.33m36.1-16.28s-1.51,11.33-3.61,15.34-1.67,10.16-1.8,16.25c-.11,4.93.85,11.73-6,15.27l.81-.12c13.55-2.15,12.06-11.06,12.19-17.15s-.3-12.24,1.8-16.25c1.54-2.94,2.76-9.81,3.3-13.27-1.51.05-2.69.07-3.62.07a17.57,17.57,0,0,1-3.07-.14m15.53-.43-.47,0,.3.06.17-.09m-1.4-6A57.15,57.15,0,0,1,276,251a16.34,16.34,0,0,1,2.77-1.15,15.5,15.5,0,0,1-4.42-4.71M242,202h-7.36a57.77,57.77,0,0,1,12.77,4.29A56.48,56.48,0,0,1,242,202m-15.37-3.76a53.74,53.74,0,0,0-5.42.27,55,55,0,0,0-13.16,3,55,55,0,0,1,11.58-1.23,56.29,56.29,0,0,1,6.29.35,81.26,81.26,0,0,1,8.72,1.41H242a17.24,17.24,0,0,1-2-2.35q-3.1-.61-6.7-1l-.35,0a56.29,56.29,0,0,0-6.29-.35" transform="translate(48.44 -188.89)"/><path class="cls-3" d="M159.8,360.89c7.57-2.53,11-5.05,11-5.05s.45.33,1.3,1c3.43,2.76,13.34,11.28,26.23,27,16.08,19.59,16.79,19.83,21.21,32.49s8,16.14,9,16.7,9.93,19,9.93,19a232.24,232.24,0,0,1-50.81,22.15c-16,4.86-34.59,8.58-54,8.58-1.17,0-2.34,0-3.51,0C64,481.11,18.29,452.88,18.29,452.88a54.59,54.59,0,0,0,8.57-24.37c1.23-14,5.9-31.47,23.29-40.61,12-6.31,35-15.42,39.45-21.68s5.87-8.57,5.87-8.57,1.6.79,4.42,1.88a90.11,90.11,0,0,0,31.46,6.14,69.17,69.17,0,0,0,7-.35,99.38,99.38,0,0,0,21.46-4.43m59.81-160.65A55,55,0,0,0,208,201.47a57.92,57.92,0,0,0-12.6,4.33c-8.44,4-16.11,10-23.11,17.11h0q-1.2,1.22-2.37,2.49a43.68,43.68,0,0,0-3.7,4.56c-11.3,15.9-10.81,36.31-10.3,43.73-2.49,2.88-9.07,6.46-16.05,8.91a45.09,45.09,0,0,1-13.73,2.83H126c-9.85,0-26.58-4.46-52.2-6.77-1.39-.13-2.75-.19-4.06-.19a40.17,40.17,0,0,0-30,13.32,33.12,33.12,0,0,0-3.85,4.92S24.66,284.11,6.37,284.11a41.28,41.28,0,0,0-8.06.8c-1.28.26-2.6.58-3.94,1-25.26,7.43-27.83,33.06-25.73,44.23,3,2.29,15,4.06,26.05,4.06,7.35,0,14.28-.78,17.87-2.7.27-.15.53-.3.76-.46-1.59-18.33,10.08-25.67,16.32-25.67a4.7,4.7,0,0,1,.53,0,4.82,4.82,0,0,1,1.66.38c-6.34,19.64,4.57,45.84,5,48.29s-20,22.69-23.92,27.08-4.76,7.95-4.51,15.34S8.21,401.63,2,407.3-5.41,418-6.08,426.25a15.75,15.75,0,0,1-4.56,9.42,22.07,22.07,0,0,1-4.47,3.67s-9.76-6.49-16.25-10.38c-3.39-2-5.62-2.93-7.4-2.93a4.68,4.68,0,0,0-1.07.12,7.42,7.42,0,0,0-3.26,1.91c-3,2.69-6.52,36.73-5,37.91a288.2,288.2,0,0,0,63.79,39.44q17.52-.5,34.83-1.16c25-1,49.6-1.35,73.77-1.35,36.78,0,72.48.89,106.57,2a276.64,276.64,0,0,0,60-36.63c4.28-2.92,2.64-33.88.46-37.46a10.61,10.61,0,0,0-7.59-4.88c-.33,0-.66-.07-1-.08h0c-1.65,0-10.17,5.25-16,9-3.22,2.06-5.63,3.66-5.63,3.66S243,416.81,227.26,393.3c-14.27-21.35-26.21-44.72-26.63-46-.9-2.75.94-13.87,9-29.34s2.64-30.54,6.32-41.52c2.26-6.76,5.37-8.54,8.13-8.54a7.68,7.68,0,0,1,2.16.33,13.18,13.18,0,0,1,2.35,1c3.06,1.6,1.62,9.17,1.81,16.7.17,6.76-1.07,14.76,8.49,14.76a24.77,24.77,0,0,0,3.69-.32,20.73,20.73,0,0,0,6.19-1.88c6.85-3.54,5.89-10.34,6-15.27.13-6.09-.3-12.24,1.8-16.25s3.61-15.34,3.61-15.34a17.57,17.57,0,0,0,3.07.14c.93,0,2.11,0,3.62-.07,2.1-.08,4.83-.22,8.37-.47l.47,0,.27,0,0-.12a57.15,57.15,0,0,0-1.65-5.86c-3.84-5.66-8-14.95-13.41-23.78-5.21-8.47-9.75-12.26-13.53-15.09A57.77,57.77,0,0,0,234.62,202h0a81.26,81.26,0,0,0-8.72-1.41,56.29,56.29,0,0,0-6.29-.35" transform="translate(48.44 -188.89)"/><path class="cls-3" d="M286.8,202H269.35q1.69,1.94,3.36,4.22c10,13.74,16,25,15.78,33.39a5,5,0,0,1,.07.64c.29,5.88.22,10.49,1,14a10.14,10.14,0,0,0,1.68,3.26,6.41,6.41,0,0,1,1.82-.26,6.55,6.55,0,0,1,1.84.26c1.93-2.24,4.18-8.45,6.42-22.68.08-.52.16-1,.24-1.58a33.57,33.57,0,0,0-.11-11.45,26.69,26.69,0,0,0-1.7-5.56C297.08,210,292.3,205.42,286.8,202m-28.28-9.26A44.94,44.94,0,0,1,269.35,202H286.8a54.76,54.76,0,0,0-8.71-4.33,83.08,83.08,0,0,0-17.16-4.57c-.86-.14-1.67-.26-2.41-.36" transform="translate(48.44 -188.89)"/><path class="cls-1" d="M293.06,257.25a6.41,6.41,0,0,0-1.82.26,6.57,6.57,0,1,0,1.82-.26" transform="translate(48.44 -188.89)"/><path class="cls-1" d="M269.35,202H242a56.48,56.48,0,0,0,5.41,4.29c3.78,2.83,8.32,6.62,13.53,15.09,5.44,8.83,9.57,18.12,13.41,23.78a15.5,15.5,0,0,0,4.42,4.71,4.46,4.46,0,0,0,2.27.68,5.56,5.56,0,0,0,3.89-2,12.59,12.59,0,0,0,3.58-8.93c.17-8.35-5.77-19.65-15.78-33.39q-1.66-2.28-3.36-4.22m-23.19-13.11c-6.47,0-10.07,3.94-7.32,9a16.73,16.73,0,0,0,1.11,1.77,17.24,17.24,0,0,0,2,2.35h27.37a44.94,44.94,0,0,0-10.83-9.26c-1.06-.62-2.1-1.16-3.12-1.63a26.24,26.24,0,0,0-5-1.71,18.81,18.81,0,0,0-4.24-.51" transform="translate(48.44 -188.89)"/></svg>