<svg id="Слой_1" data-name="Слой 1" xmlns="http://www.w3.org/2000/svg" viewBox="0 0 493.03 331"><defs><style>.cls-1{fill:#7e5c38;}.cls-2{fill:#af9d3f;}.cls-3{fill:#736357;}.cls-4{fill:#a1a1a1;}.cls-5{fill:#ceb85f;}.cls-6{fill:#fff;}.cls-7{fill:#81572e;}.cls-8{fill:#b8a535;}</style></defs><title>8</title><path class="cls-1" d="M220.57,156.67h-5c6.48,0,11.73,7.16,11.73,16l61.67,299c0,4.95-3,9.37-7.79,12.31V484l-.18,0a26.58,26.58,0,0,1-13.64,3.59h5c11.93,0,21.6-7.16,21.6-16l-1.64-8-31.77-154v0L250.3,259.93l-4.49-21.77-.13-.63L232.3,172.67a21.57,21.57,0,0,0-.43-4.31c-1.38-6.74-5.91-11.69-11.3-11.69" transform="translate(199.06 -156.67)"/><path class="cls-2" d="M270.66,482.67h-62.6a25.61,25.61,0,0,1-15.69,5h75A26.58,26.58,0,0,0,281,484.08l-9.6,2.07-.75-3.48m-5.63-26H210.88l3.09,15a12.37,12.37,0,0,1-1.07,5h56.46l-4.33-20m-5.2-24h-53.9l3.71,18h54.09l-3.9-18m-5.63-26H200.56l4.13,20h53.84l-4.33-20m-6.28-29H194.58l4.75,23H252.9l-5-23m-5.63-26H189.22l4.13,20h53.27l-4.33-20m-5.84-27h-52.8l4.33,21h53l-4.55-21m-5.63-26H178.29l4.12,20h52.74l-4.33-20m-6.28-29H172.31l4.74,23h52.47l-5-23m-5.63-26H167l4.12,20h52.17l-4.33-20m-3.34-87h-75c6.48,0,11.73,7.16,11.73,16l13.41,65H227V239l1.11-.24L281.18,484c4.76-2.94,7.79-7.36,7.79-12.31l-61.67-299c0-8.84-5.25-16-11.73-16h0" transform="translate(199.06 -156.67)"/><path class="cls-1" d="M227,237.67H165.71l1.24,6h52l4.33,20H171.07l1.24,6h52.23l5,23H177.05l1.24,6h52.53l4.33,20H182.41l1.24,6h52.8l4.55,21H188l1.24,6h53.07l4.33,20H193.35l1.23,6h53.34l5,23H199.33l1.23,6H254.2l4.33,20H204.69l1.24,6h53.9l3.9,18H209.64l1.24,6H265l4.33,20H212.9a16,16,0,0,1-4.84,6h62.6l.75,3.48,9.6-2.07.18,0V484l-53.1-245.19L227,239v-1.36" transform="translate(199.06 -156.67)"/><path class="cls-3" d="M-183.29,456.69A83.42,83.42,0,0,1-199,461.56c0,.41,0,3.92-.05,4a94.38,94.38,0,0,0,15.77-8.86m140-178.27H-65.6c-25.64,30.69-45.8,76.75-68.32,131C-150.4,449.19-175.6,469-199,478.72v.35a170.65,170.65,0,0,0,28.35-10.45c26.29-12.5,53-34.12,68.52-71.49,12.32-29.7,23.94-56.95,36.13-80.56l.72-1.38.72-1.38A313.29,313.29,0,0,1-43.3,278.42m29.67-36.57c-20.23,6-37,18.69-52,36.57h22.3q2.16-3,4.36-5.94A145.23,145.23,0,0,1-14.7,247.06l1.07-5.21m3.18-15.42a150,150,0,0,0-14,6.85,83,83,0,0,1,13.32-3.7l.65-3.15" transform="translate(199.06 -156.67)"/><path class="cls-4" d="M-65.54,278.41H-82.67a205.38,205.38,0,0,0-21.6,35.39l-.66,1.37c-.2.41-.4.83-.59,1.24q-1,2.2-2.06,4.48c-26.63,59.45-37.85,109.44-75.65,135.79A95.85,95.85,0,0,1-199,465.52c-.05,0,0,12.06-.06,13.2,23.42-9.72,48.7-29.56,65.17-69.28,22.52-54.29,42.67-100.35,68.32-131M-11,229.56a83.38,83.38,0,0,0-13.33,3.7,106.73,106.73,0,0,0-14.51,6.58,120.65,120.65,0,0,0-10.56,6.49,134.8,134.8,0,0,0-17.16,14,159.73,159.73,0,0,0-16.07,18.05h17.13c14.94-17.89,31.74-30.55,52-36.58L-11,229.56" transform="translate(199.06 -156.67)"/><path class="cls-1" d="M140.57,156.67h-5c6.48,0,11.73,7.16,11.73,16l61.67,299c0,8.84-9.67,16-21.6,16h5a25.61,25.61,0,0,0,15.69-5,16,16,0,0,0,4.84-6,12.37,12.37,0,0,0,1.07-5l-3.09-15-1.24-6-3.71-18-1.24-6-4.13-20-1.23-6-4.75-23-1.23-6-4.13-20-1.24-6-4.33-21-1.24-6-4.12-20-1.24-6-4.74-23-1.24-6-4.12-20-1.24-6-13.41-65c0-8.84-5.25-16-11.73-16h0" transform="translate(199.06 -156.67)"/><path class="cls-5" d="M135.57,156.67H75.26v0H12.37c-6.48,0-11.73,7.16-11.73,16L-1.7,184-2,185.33l-8.48,41.1-.65,3.15-2.53,12.27-1.07,5.21-14.1,68.36-.26,1.23L-60.07,467l-1,4.65c0,8,7.92,14.62,18.26,15.81q31.35-1.73,62.74-1.81h1.74c24.5,0,49.52.71,75,2h90.67c11.93,0,21.6-7.16,21.6-16l-61.67-299c0-8.84-5.25-16-11.73-16h0" transform="translate(199.06 -156.67)"/><path class="cls-6" d="M37.6,207.85H73.29L78.87,181,39.51,181s-7.91,3.6-8.87,6.43-2.34,6-2,8.34S37.6,207.85,37.6,207.85Z" transform="translate(199.06 -156.67)"/><path class="cls-7" d="M35.61,208.15s-9.75-3.5-9.69-13.68S35.17,181,39.61,181s1,.06,1,.06-7.25,1.27-9.75,10.81,7.93,15.5,9.68,15.94S35.61,208.15,35.61,208.15Z" transform="translate(199.06 -156.67)"/><path class="cls-8" d="M78.85,181.06,73.22,208l42.26.17.49-1.71s-7.46-7.63-7.46-9.88,3.29-10,3.29-10l5.08-5.25Z" transform="translate(199.06 -156.67)"/><path class="cls-6" d="M114.21,208a10.7,10.7,0,0,0,8.25-4.54c3.21-4.59,7.5-15.17-5.71-22.09a59.05,59.05,0,0,0-8,6.92,25.14,25.14,0,0,0,.38,7.08c.79,3,.75,4.84,1.91,6.25S114.21,208,114.21,208Z" transform="translate(199.06 -156.67)"/><path class="cls-7" d="M115.36,208.15s-9.75-3.5-9.69-13.68c0-8.05,5.79-11.81,10.39-13a3.18,3.18,0,0,1,1.6.67c-2.33,1.28-5.55,4-7,9.76-1.93,7.33,3.79,12.55,7.33,14.77C118.05,207.35,115.36,208.15,115.36,208.15Z" transform="translate(199.06 -156.67)"/><path class="cls-6" d="M159.57,208.16l35.87-.06s10.37-3.25,10.06-14.13S196,181,194.31,181C192.8,181.09,154,181,154,181Z" transform="translate(199.06 -156.67)"/></svg>