<svg id="Слой_1" data-name="Слой 1" xmlns="http://www.w3.org/2000/svg" viewBox="0 0 150 289.19"><defs><style>.cls-1{fill:#c78240;}.cls-2{fill:#994e1e;}.cls-3{fill:#602b11;}.cls-4{fill:#341b0f;}.cls-5{fill:#d4c8c1;}.cls-6{fill:#d3c7bf;}.cls-7{fill:#603723;}.cls-8{fill:#52b320;}.cls-9{fill:#c9bda2;}.cls-10{fill:#efead7;}.cls-11{fill:#42230c;}.cls-12{fill:#f2eede;}</style></defs><title>9</title><path class="cls-1" d="M77.82,471.14v-49h110v49h-110m0-57v-49h110v49h-110m124-60h-138v128h138v-128" transform="translate(-57.82 -208.95)"/><path class="cls-2" d="M119.81,392.14a3,3,0,0,1,0-6h26a3,3,0,1,1,0,6h-26m68-27h-110v49h110v-49" transform="translate(-57.82 -208.95)"/><path class="cls-2" d="M119.81,448.14a3,3,0,0,1,0-6h27a3,3,0,1,1,0,6h-27m68-26h-110v49h110v-49" transform="translate(-57.82 -208.95)"/><polyline class="cls-3" points="144 273.19 144 273.19 6 273.19 6 275.19 6 277.79 6 281.19 9 281.19 36 281.19 114 281.19 141 281.19 144 281.19 144 273.19"/><polyline class="cls-2" points="150 130.19 132.83 130.19 133 131.19 92 130.19 74.08 130.19 74 131.19 31 130.19 0 130.19 0 145.19 6 145.19 144 145.19 150 145.19 150 130.19"/><polyline class="cls-4" points="36 281.19 9 281.19 9 288.31 9 289.19 36 289.19 36 281.19"/><polyline class="cls-4" points="141 281.19 114 281.19 114 289.19 141 289.19 141 281.19"/><path class="cls-5" d="M145.81,386.14h-26a3,3,0,0,0,0,6h26a3,3,0,1,0,0-6" transform="translate(-57.82 -208.95)"/><path class="cls-6" d="M146.82,442.14h-27a3,3,0,0,0,0,6h27a3,3,0,1,0,0-6" transform="translate(-57.82 -208.95)"/><path class="cls-7" d="M113.81,266.14s-.34,4.16-1,5a.31.31,0,0,1-.26.11c-1.07,0-4.25-3.4-4.74-4.11a3.29,3.29,0,0,0-1-1l.91,23h8l-.83-10-1.09-13" transform="translate(-57.82 -208.95)"/><path class="cls-8" d="M97.34,209c-.41,0,.2,1.05.68,2.1s.82,2.09-.12,2.09h-.23c-2.34,0-6.86,3-6.86,3s-1.28-.3-5-1a2.84,2.84,0,0,0-.56,0c-1.46,0-2,1.27-2.3,2.54s-.41,2.54-1,2.54a.4.4,0,0,1-.15,0,.78.78,0,0,0-.26,0c-1.41,0-2.9,3.53-2.74,5s4,4,4,4a40.82,40.82,0,0,0-4,4c-.57.91,1,2.88,1,4s-3.86,2.43-5,3,3,2,3,2-2.6,2.81-3,4c-.14.4.37.53,1.11.53a23.55,23.55,0,0,0,3.89-.53,5.87,5.87,0,0,0,0,3c.43,1.5,2.92,4.56,3,6s-1.91,1.61-2,2c0,.16.91.22,2.07.22a26.43,26.43,0,0,0,3.93-.22h0c.25,0-2,5-2,5s1.47-.16,2.65-.16a3.71,3.71,0,0,1,1.35.16c.64.35-.42,4.05.73,4.05a.74.74,0,0,0,.27-.05c1.51-.56,4.06-4,5.82-4h.18c1.76.25,3.87,6.05,6,7a1.69,1.69,0,0,0,.7.15c2,0,4.3-3.15,4.3-3.15l0,0a3.29,3.29,0,0,1,1,1c.49.71,3.67,4.11,4.74,4.11a.31.31,0,0,0,.26-.11c.65-.84,1-5,1-5h0s2.7,3.34,4,4a2.18,2.18,0,0,0,.88.31c.42,0,.52-.46,1.11-1.31.88-1.25-1-6-1-6s3.44,2.79,5,3H124c1.61,0,4.73-3.47,4.87-4,0-.11.14-.17.32-.17.7,0,2.48.82,4.68,2.17a3.1,3.1,0,0,0,1.4.59c.88,0,.18-1.62-.4-2.59a6.47,6.47,0,0,0-2-2,14.51,14.51,0,0,0,2.2.17,7,7,0,0,0,3-.54,2.37,2.37,0,0,0,.82-.63c.69-.87,0-1.86-.95-2.64l-.2-.16a12.42,12.42,0,0,0-1.85-1.2,36.07,36.07,0,0,0,7-6c2.39-2.92-2.27-6-.39-6l.39,0,.42,0c2.3,0,1.2-3.21-.42-5a29.77,29.77,0,0,0,6.54,1c4.72,0,3.42-2.73,2.47-4-1.26-1.62-9-5-9-5s5.56-1.4,6-3c.25-.91-2.23-1.1-4.67-1.1-.89,0-1.77,0-2.51.05s-1.35,0-1.71,0h-.12c-1.4,0-.24-1.37,0-4s-6.24-5.63-10-6-3.16-.12-4-3c-.28-1-.6-1.28-.9-1.28-.59,0-1.1,1.28-1.1,1.28s.15-1.22-2-3a2.1,2.1,0,0,0-1.36-.48c-2,0-4.38,2.41-5.64,2.48h-.25c-1.14,0-.19-.63-2.54-1.9l-.21-.11a4,4,0,0,0-1.82-.41c-2.43,0-5.15,1.8-7.18,2.41a3,3,0,0,1-.89.14c-1.78,0-2.22-2.05-4.11-3.14a1.16,1.16,0,0,0-.48-.19" transform="translate(-57.82 -208.95)"/><polyline class="cls-9" points="77 95.19 59.86 95.19 28 95.19 31 130.19 74 131.19 74.08 130.19 77 95.19"/><polyline class="cls-10" points="81 80.19 57.92 80.19 49.96 80.19 24 80.19 24 95.19 59.86 95.19 81 95.19 81 80.19"/><path class="cls-11" d="M183.82,336.14l-29-1-6-36,29,1,6,36m-1-43h-41l8,46,41,1-.17-1-7.84-46" transform="translate(-57.82 -208.95)"/><polyline class="cls-12" points="91 90.19 97 126.19 126 127.19 120 91.19 91 90.19"/></svg>