<svg id="Слой_1" data-name="Слой 1" xmlns="http://www.w3.org/2000/svg" viewBox="0 0 135 149"><defs><style>.cls-1{fill:#804528;}.cls-2{fill:#b16238;}.cls-3{fill:#d3c7c2;}.cls-4{fill:#372d3a;}.cls-5{fill:#c67245;}</style></defs><title>2</title><polyline class="cls-1" points="59 71 7.87 71 3.78 73.37 0.95 75 0.95 75.21 0.94 75.47 0.76 90.22 0.73 92.34 0.53 107.81 0.5 109.91 0.33 123.28 0.3 125.38 0.11 140.16 0.09 142.25 0.01 148.53 0 149 59 149 59 148.53 59 73.38 59 71"/><polyline class="cls-2" points="135 70 120 70 120 71 59 71 59 73.38 59 71 135 71 135 70"/><path class="cls-2" d="M157,308a2,2,0,0,1-2-2V295a2,2,0,0,1,2-2h34a2,2,0,0,1,2,2v11a2,2,0,0,1-2,2H157m55-31H136v78h76V277" transform="translate(-77 -206)"/><path class="cls-3" d="M163,302a2,2,0,0,1,0-4h23a2,2,0,0,1,0,4H163m28-9H157a2,2,0,0,0-2,2v11a2,2,0,0,0,2,2h34a2,2,0,0,0,2-2V295a2,2,0,0,0-2-2" transform="translate(-77 -206)"/><path class="cls-4" d="M186,298H163a2,2,0,0,0,0,4h23a2,2,0,0,0,0-4" transform="translate(-77 -206)"/><polyline class="cls-2" points="53 41 31.14 55.57 24.5 60 21.31 62.13 8 71 53 71 53 62.13 53 41.36 53 41"/><path class="cls-5" d="M193,206l-39.85,25.93,33.34-5.4.33,0a2,2,0,0,1,2,1.67h0l1.76,10.86a2,2,0,0,1-1.65,2.29l-33.57,5.44-.32,0a2,2,0,0,1-2-1.68l-1.76-10.86a2,2,0,0,1,.2-1.23L130,247v30h67V207l-3.56-.89L193,206" transform="translate(-77 -206)"/><path class="cls-3" d="M159.94,239.93a2,2,0,0,1-.35-4h.06l22.7-3.68.32,0a2,2,0,0,1,.32,4l-22.7,3.67a1.45,1.45,0,0,1-.35,0m26.88-13.42-.33,0-33.34,5.4-.22,0a2,2,0,0,0-1.46,1.06,2,2,0,0,0-.2,1.23L153,245.12a2,2,0,0,0,2,1.68l.32,0,33.57-5.44a2,2,0,0,0,1.65-2.29l-1.76-10.86h0a2,2,0,0,0-2-1.67" transform="translate(-77 -206)"/><path class="cls-4" d="M182.67,232.24l-.32,0L159.65,236h-.06a2,2,0,0,0,.35,4,1.45,1.45,0,0,0,.35,0l22.7-3.67a2,2,0,0,0-.32-4" transform="translate(-77 -206)"/></svg>