<svg id="Слой_1" data-name="Слой 1" xmlns="http://www.w3.org/2000/svg" viewBox="0 0 165.43 179.31"><defs><style>.cls-1{fill:#8c4f1d;}.cls-2{fill:#ccb584;}</style></defs><title>11</title><polyline class="cls-1" points="88.21 89.25 105.85 109.57 94.22 119.04 75.44 95.95 77.89 179.31 141.43 129.78 165.43 109.78 88.21 89.25"/><polyline class="cls-2" points="40.26 34.02 40.2 34.07 40.13 36.7 33.92 41.75 31.11 41.46 47.58 61.7 75.44 95.95 94.22 119.04 105.85 109.57 88.21 89.25 62.69 59.86 56.39 52.6 40.26 34.02"/><polyline class="cls-2" points="21.87 0 15.4 5.64 0 19.07 12.12 29.98 24.08 40.74 31.11 41.46 33.92 41.75 40.13 36.7 40.2 34.07 40.37 27.49 27.32 8.1 21.87 0"/></svg>