<svg id="Слой_1" data-name="Слой 1" xmlns="http://www.w3.org/2000/svg" viewBox="0 0 209.97 142.78"><defs><style>.cls-1{fill:#cd7f6a;}.cls-2{fill:#86584c;}.cls-3{fill:#351d16;}.cls-4{fill:#53261c;}</style></defs><title>10</title><path class="cls-1" d="M121.41,302.79c-1.53,1-13,12-5.84,24.92,6.62,11.87,17.27,23.75,25.62,23.75a7.76,7.76,0,0,0,3.38-.75c8.65-4.09,6.13-29.55-1-43h0c-.78,1.88-1.32,2.75-1.84,3.11,4.54,16.88,2.66,24.05,1.25,24.05-.63,0-1.17-1.48-1-4.21.59-7.7-2.68-17.23-3.69-20-3-.27-15.13-5.1-16.76-7a1,1,0,0,1-.16-.92" transform="translate(-28.28 -280)"/><path class="cls-2" d="M138.33,310.7c1,2.73,4.28,12.26,3.69,20-.21,2.73.33,4.21,1,4.21,1.41,0,3.29-7.17-1.25-24.05a1.28,1.28,0,0,1-.74.22c-.61,0-1.32-.33-2.42-.33h-.24m-39.26-7a5.5,5.5,0,1,0,5.5,5.5,5.5,5.5,0,0,0-5.5-5.5m11.5-2a3,3,0,1,0,3,3,3,3,0,0,0-3-3" transform="translate(-28.28 -280)"/><path class="cls-3" d="M135.85,293.56a12.11,12.11,0,0,0-2.46.27,18.71,18.71,0,0,0-6,2.56,18.36,18.36,0,0,0-5.41,5.08,4.51,4.51,0,0,0-.6,1.32,1,1,0,0,0,.16.92c1.63,1.89,13.72,6.72,16.76,7h.24c1.1,0,1.81.33,2.42.33a1.28,1.28,0,0,0,.74-.22c.52-.36,1.06-1.23,1.84-3.11h0a15.76,15.76,0,0,0,.63-1.87c1.24-4.72.43-10.86-6.63-12.13a9.91,9.91,0,0,0-1.72-.15" transform="translate(-28.28 -280)"/><path class="cls-4" d="M228.57,305.71a7.89,7.89,0,0,0-6.21-2.87c-5,0-9.79,3.87-9.79,3.87s-.88.16-2-1-1.64-2.43-4-4a3.28,3.28,0,0,0-1.68-.73,2,2,0,0,0-.43,0c-4.57,2.35-1.77,11-1.73,11.53s-3.16,3.21-6,5.21c-1.74,1.22-5,3.55-7.36,5.2l-.07-.06-1.15.76L186,325.08l-28.4,18.63h0s-.12,0-4-4c.12-32.44-9-34-9-34l-.37.13a15.76,15.76,0,0,1-.63,1.87c7.13,13.45,9.65,38.91,1,43a7.76,7.76,0,0,1-3.38.75c-8.35,0-19-11.88-25.62-23.75-7.19-12.88,4.31-23.92,5.84-24.92a4.51,4.51,0,0,1,.6-1.32,1.87,1.87,0,0,1-.44-.76c-1.75-4.69-7-7-7-7s.83-10.62-5-13a11.15,11.15,0,0,0-4.1-.71c-6,0-13.6,3.72-13.9,10.71-1.27-.12-2.54-.17-3.81-.17-17.37,0-35.32,10.41-41.19,14.17-1.87-3.58-4.06-5-6.27-5-5.24,0-10.56,8-11.73,14-1.67,8.51,4.14,10.93,9,11-.31,6.8,2.29,19.85,4,27.57.4,1.83.76,3.36,1,4.43,1.32,5.64,6.9,25.42,3,35s-7,31-7,31,50.6.07,94.15.07c21.78,0,41.8,0,52.85-.07-5.63-10.94-4.66-16-3-17,16.47-17.25,32.69-37.47,38-46a28.72,28.72,0,0,1,4.14-5.08l0,0c3.3-3.74,7.9-8.24,8.8-9.11l.05,0a25,25,0,0,0,4-9.82C240.23,322.2,234.6,312.71,228.57,305.71Zm-129.5,9a5.5,5.5,0,1,1,5.5-5.5A5.5,5.5,0,0,1,99.07,314.71Zm11.5-7a3,3,0,1,1,3-3A3,3,0,0,1,110.57,307.71Z" transform="translate(-28.28 -280)"/><path class="cls-4" d="M127.42,296.39a18.71,18.71,0,0,1,6-2.56A9.16,9.16,0,0,0,127.42,296.39Z" transform="translate(-28.28 -280)"/></svg>