<svg id="Слой_1" data-name="Слой 1" xmlns="http://www.w3.org/2000/svg" viewBox="0 0 299.91 214.79"><defs><style>.cls-1{fill:#527c7e;}.cls-2{fill:#3f6266;}.cls-3{fill:#ffbc58;}.cls-4{fill:#406367;}.cls-5{fill:#8ec0c5;}.cls-6{fill:#81d8d9;}.cls-7{fill:#82d8d9;}.cls-8{fill:#e4f1f4;}.cls-9{fill:#fff;}.cls-10{fill:#c51515;}.cls-11{fill:#ffbb5a;}</style></defs><title>6</title><path class="cls-1" d="M6.42,222.73c-8,0-10.9,3.86,5.54,15.81,21,15.27,40,27,40,27s-16.54-5-23.76-5c-1.75,0-3,.3-3.24,1-1.42,3.79,4.79,15.3,31,28a73.77,73.77,0,0,0-12-1.31c-8.56,0-6.64,3.72,1,8.31,10.12,6.09,25,13,25,13s-27.83,4.72,28,16.78c0-.93,0-1.86,0-2.78v-1.15a153.36,153.36,0,0,1-21-6.28c-11.74-4.45,8-8.57,8-8.57s-15.2-3.29-22-8c-4.79-3.32-3.13-4.65,5.15-4.65,3.45,0,8.07.23,13.85.65-23.65-10.67-34.55-17.76-28-20a5.63,5.63,0,0,1,1.84-.26c8.38,0,29.16,11.26,29.16,11.26l.11,0a32.6,32.6,0,0,1-2.3-4.18C63,268.27,57.42,258.2,60,255.54a2,2,0,0,1,1.49-.47c4.8,0,17.51,7.47,17.51,7.47s.06.13.15.37c.05-1.25.14-2.49.29-3.73-5.77-3.6-53.77-33.46-65.44-35.64a41.92,41.92,0,0,0-7.53-.81" transform="translate(0 -187.54)"/><path class="cls-2" d="M61.44,255.07a2,2,0,0,0-1.49.47C57.42,258.2,63,268.27,82.76,282.4a43.28,43.28,0,0,1-3.66-19.49c-.09-.24-.15-.37-.15-.37s-12.71-7.47-17.51-7.47" transform="translate(0 -187.54)"/><path class="cls-3" d="M113,358.73v17.81l-.85,1.08c-1.24,1.58-2.55,3.1-3.91,4.58q-1.1,1.19-2.25,2.34c-3.37,3.27-5,6.54-5,8a2.42,2.42,0,0,0,2.6,2.43c1.54,0,3.56-1,5.4-3.43,1.19-1.57,2.12-2.23,2.8-2.23,1.39,0,1.75,2.79,1.21,6.23-.62,3.86,1.77,6.78,4,6.78,1.34,0,2.6-1.11,3-3.78,1.35-8.38.33-10,1.78-10H122c1.47.12,2.45,9.38,5.67,9.38a3.41,3.41,0,0,0,2.33-1.38c3-3.33-1.34-9.69-5.43-14.34-1.32-1.5-2.62-2.83-3.62-3.82-1.17-1.15-2-1.84-2-1.84V361.48a50.48,50.48,0,0,1-6-2.75" transform="translate(0 -187.54)"/><path class="cls-3" d="M155,361.13a40.22,40.22,0,0,1-6,2.36v12.05q-1.95,2.56-4.11,5c-.51.57-1,1.14-1.57,1.7s-.87.9-1.31,1.34c-3.37,3.27-5,6.54-5,8a2.42,2.42,0,0,0,2.6,2.43c1.54,0,3.56-1,5.41-3.43,1.18-1.57,2.11-2.23,2.79-2.23,1.39,0,1.75,2.79,1.2,6.23-.61,3.87,1.78,6.78,4,6.78,1.34,0,2.6-1.11,3-3.78,1.34-8.39.32-10,1.77-10H158c1.48.12,2.46,9.38,5.68,9.38a3.39,3.39,0,0,0,2.32-1.38c2.83-3.1-.75-8.81-4.56-13.34l-.19-.23a71.88,71.88,0,0,0-6.25-6.43V361.13" transform="translate(0 -187.54)"/><path class="cls-4" d="M55.79,275.28a5.63,5.63,0,0,0-1.84.26c-6.55,2.24,4.35,9.33,28,20-5.78-.42-10.4-.65-13.85-.65-8.28,0-9.94,1.33-5.15,4.65,6.8,4.71,22,8,22,8s-19.78,4.12-8,8.57a153.36,153.36,0,0,0,21,6.28A63.71,63.71,0,0,1,103.28,299a27.75,27.75,0,0,1-18.22-12.42l-.11,0s-20.78-11.26-29.16-11.26" transform="translate(0 -187.54)"/><path class="cls-1" d="M293.49,222.73a41.92,41.92,0,0,0-7.53.81c-12.43,2.32-66,36-66,36l-.66,0a43.59,43.59,0,0,1,.65,5.57c.6-1.58,1-2.6,1-2.6s12.71-7.47,17.52-7.47a2,2,0,0,1,1.49.47C242.45,258.16,237,268,218,281.75c-.38,1.33-.82,2.62-1.29,3.84,5.22-2.71,20.48-10.31,27.37-10.31a5.57,5.57,0,0,1,1.83.26c6.55,2.24-4.34,9.33-28,20,5.79-.42,10.4-.65,13.86-.65,8.28,0,9.94,1.33,5.15,4.65-6.8,4.71-22,8-22,8s19.79,4.12,8,8.57c-10.37,3.92-23.85,7.58-30.88,7.58a13.9,13.9,0,0,1-2.16-.15c-1.35-.22-2-1.72-2.08-3.92-1.16,2.88-2.51,6-4.06,9.09h.33A83.25,83.25,0,0,0,201,326.54c57.16-12.22,29-17,29-17s14.89-6.91,25-13c7.62-4.59,9.54-8.31,1-8.31a74,74,0,0,0-12,1.31c26.21-12.7,32.43-24.21,31-28-.27-.74-1.48-1-3.23-1-7.22,0-23.76,5-23.76,5s19-11.73,40-27c16.44-11.95,13.53-15.81,5.54-15.81" transform="translate(0 -187.54)"/><path class="cls-2" d="M238.47,255.07c-4.81,0-17.52,7.47-17.52,7.47s-.41,1-1,2.6a50.44,50.44,0,0,1-1.9,16.61C237,268,242.45,258.16,240,255.54a2,2,0,0,0-1.49-.47" transform="translate(0 -187.54)"/><path class="cls-4" d="M244.12,275.28c-6.89,0-22.15,7.6-27.37,10.31a38.91,38.91,0,0,1-1.8,4c-4.38,8.31-11.84,12.15-21.25,12.64a160,160,0,0,1-5.83,17.44c.12,2.2.73,3.7,2.08,3.92a13.9,13.9,0,0,0,2.16.15c7,0,20.51-3.66,30.88-7.58,11.75-4.45-8-8.57-8-8.57s15.21-3.29,22-8c4.79-3.32,3.13-4.65-5.15-4.65-3.46,0-8.07.23-13.86.65,23.66-10.67,34.55-17.76,28-20a5.57,5.57,0,0,0-1.83-.26" transform="translate(0 -187.54)"/><path class="cls-5" d="M145.06,342.05c-9.13,0-16.79-3.59-21.11-8.51-6.94-7.93-11.91-21.71,1-28a9.43,9.43,0,0,1,4.16-1.09c5.28,0,7.85,6,15.85,6.09h.26a52.73,52.73,0,0,0,10.43-1.4,50.27,50.27,0,0,1,9.46-1.4c2.8,0,5.18.7,6.84,2.8,5.06,6.36,7.44,18.6-9,27a39.25,39.25,0,0,1-17.89,4.51m2.4-47.64c-8.37.74-16.75,3.75-33.51,5.13-1.21.1-2.39.15-3.53.15a35.74,35.74,0,0,1-7.14-.69A63.71,63.71,0,0,0,98,322.39v1.15c0,.92,0,1.85,0,2.78,0,11.33-.36,24,15,32.41a50.48,50.48,0,0,0,6,2.75c1,.36,2,.72,3,1.06a49.7,49.7,0,0,0,15.48,2.62A39.63,39.63,0,0,0,149,363.49a40.22,40.22,0,0,0,6-2.36c11.77-5.74,20.38-16.78,26.47-27.83.85-1.54,1.64-3.07,2.39-4.59,1.55-3.13,2.9-6.21,4.06-9.09a160,160,0,0,0,5.83-17.44q-1.06.06-2.16.06c-7,0-15-1.71-23.58-4.7a66.19,66.19,0,0,0-9.14-2.55c-2.38,2.83-4.78,5.26-5.86,5.55l-.17,0c-1.16,0-3.28-2.85-5.33-6.15" transform="translate(0 -187.54)"/><path class="cls-6" d="M129.11,304.45a9.43,9.43,0,0,0-4.16,1.09c-12.91,6.29-7.94,20.07-1,28,4.32,4.92,12,8.51,21.11,8.51A39.25,39.25,0,0,0,163,337.54c16.44-8.4,14.06-20.64,9-27-1.66-2.1-4-2.8-6.84-2.8a50.27,50.27,0,0,0-9.46,1.4,52.73,52.73,0,0,1-10.43,1.4H145c-8-.08-10.57-6.09-15.85-6.09" transform="translate(0 -187.54)"/><path class="cls-5" d="M85.23,219.08a4.82,4.82,0,0,0-2.28.46c-3.15,1.72,4,14.11,6.33,17.9a54,54,0,0,1,13.78-10.92,7.09,7.09,0,0,1-.36-1.13c-4.11-2.4-12.66-6.31-17.47-6.31" transform="translate(0 -187.54)"/><path class="cls-5" d="M219.68,226.08c-3.83,0-10.05,2.48-14.5,4.71a6.77,6.77,0,0,1-3.4,4.17,32.36,32.36,0,0,1,11.94,10.58H215s10.74-17,7-19a4.82,4.82,0,0,0-2.28-.46" transform="translate(0 -187.54)"/><path class="cls-7" d="M189.45,300.54A22.5,22.5,0,1,1,212,278a22.5,22.5,0,0,1-22.5,22.5m-74-4A22.5,22.5,0,1,1,138,274a22.5,22.5,0,0,1-22.49,22.5m-12.4-70a54,54,0,0,0-13.78,10.92A38.17,38.17,0,0,0,80,255.54c-.23,1.2-.42,2.41-.56,3.64s-.24,2.48-.29,3.73a43.28,43.28,0,0,0,3.66,19.49,32.6,32.6,0,0,0,2.3,4.18A27.75,27.75,0,0,0,103.28,299a35.74,35.74,0,0,0,7.14.69c1.14,0,2.32-.05,3.53-.15,16.76-1.38,25.14-4.39,33.51-5.13-2.81-4.52-5.5-9.87-5.5-9.87s2.69-3,8.91-3l1.08,0c7,.38,12.28,2.57,13,4,.41.83-2.84,5.53-6.14,9.45a66.19,66.19,0,0,1,9.14,2.55c8.54,3,16.55,4.7,23.58,4.7q1.1,0,2.16-.06c9.41-.49,16.87-4.33,21.25-12.64a38.91,38.91,0,0,0,1.8-4c.47-1.22.91-2.51,1.29-3.84a50.44,50.44,0,0,0,1.9-16.61,43.59,43.59,0,0,0-.65-5.57,36.49,36.49,0,0,0-5.57-14A32.36,32.36,0,0,0,201.78,235c-2.95,1.75-7.9,2.84-15.5,2.84-2.71,0-5.76-.14-9.17-.43-30-2.6-64.52-4.44-69.9-6.86a7.84,7.84,0,0,1-4.15-4" transform="translate(0 -187.54)"/><path class="cls-8" d="M115,284.54a6,6,0,1,1,6-6,6,6,0,0,1-6,6m.51-33A22.5,22.5,0,1,0,138,274a22.5,22.5,0,0,0-22.49-22.5" transform="translate(0 -187.54)"/><path d="M115,272.54a6,6,0,1,0,6,6,6,6,0,0,0-6-6" transform="translate(0 -187.54)"/><path class="cls-8" d="M189,288.54a6,6,0,1,1,6-6,6,6,0,0,1-6,6m.5-33A22.5,22.5,0,1,0,212,278a22.5,22.5,0,0,0-22.5-22.5" transform="translate(0 -187.54)"/><path d="M189,276.54a6,6,0,1,0,6,6,6,6,0,0,0-6-6" transform="translate(0 -187.54)"/><path class="cls-9" d="M123.83,188.77a8.59,8.59,0,0,0-6,14.71,34.53,34.53,0,0,1,13.06-11.07,8.59,8.59,0,0,0-7-3.64" transform="translate(0 -187.54)"/><path class="cls-10" d="M151.34,187.54a41.74,41.74,0,0,0-7.47.68,47.89,47.89,0,0,0-13,4.19,34.53,34.53,0,0,0-13.06,11.07,33.38,33.38,0,0,0-4,7.75c5.78-1.22,14.57-1.81,24.4-1.81,19.48,0,43,2.28,55.18,6.37-5-8.54-19.07-28.25-42-28.25" transform="translate(0 -187.54)"/><path class="cls-9" d="M138.17,209.42c-9.83,0-18.62.59-24.4,1.81-3.27.69-5.58,1.59-6.56,2.71-4,4.55-5.19,8.47-4.51,11.45a7.09,7.09,0,0,0,.36,1.13,7.84,7.84,0,0,0,4.15,4c5.38,2.42,39.91,4.26,69.9,6.86,3.41.29,6.46.43,9.17.43,7.6,0,12.55-1.09,15.5-2.84a6.77,6.77,0,0,0,3.4-4.17c.84-3.33-1.23-7.39-4.6-11.14-1.28-1.42-3.8-2.72-7.23-3.86-12.16-4.09-35.7-6.37-55.18-6.37" transform="translate(0 -187.54)"/><path class="cls-11" d="M150.87,281.51c-6.22,0-8.91,3-8.91,3s2.69,5.35,5.5,9.87c2,3.3,4.17,6.15,5.33,6.15l.17,0c1.08-.29,3.48-2.72,5.86-5.55,3.3-3.92,6.55-8.62,6.14-9.45-.73-1.43-6-3.62-13-4l-1.08,0" transform="translate(0 -187.54)"/></svg>