<svg xmlns="http://www.w3.org/2000/svg" viewBox="0 0 661.15 700.04">
<title>snowman</title>
<g class="snowman" data-name="Слой 2">
<g>
<path d="M248.62,228l-.11.12.11-.12" style="fill:#afdde8"/><path d="M343.14,226.12l1,.54-1-.54" style="fill:#afdde8"/><path d="M313.72,218.62c-6.82,0-13.73,1-21.45,2.14,7.72-1.16,14.63-2.14,21.45-2.14" style="fill:#afdde8"/><path d="M313.78,218.62h0" style="fill:#afdde8"/><path d="M325.87,211.28c-24.81,0-64.1,2.45-77.12,16.62,13-14.16,52.31-16.59,77.12-16.62" style="fill:#afdde8"/><path d="M326.46,211.27h0" style="fill:#afdde8"/><path d="M301.15,203.38h0" style="fill:#afdde8"/><polyline points="303.02 194.6 303.02 194.6 303.02 194.6 303.02 194.6" style="fill:#afdde8"/><path d="M288.08,193.41h0" style="fill:#afdde8"/><path d="M363.29,182.37c-13.85,12.22-31.9,18.32-48.55,20.22a119.35,119.35,0,0,1-13.5.79,119.35,119.35,0,0,0,13.5-.79c16.65-1.9,34.7-8,48.55-20.22h0" style="fill:#afdde8"/><path d="M245.82,176.5l.16.33-.16-.33" style="fill:#afdde8"/><path d="M290.4,166.27h0" style="fill:#afdde8"/><path d="M285.32,166l.2,0-.2,0" style="fill:#afdde8"/><path d="M284.92,165.9l.32,0-.32,0" style="fill:#afdde8"/><path d="M363.29,161.36c-10.78,17.45-29.93,33.22-60.22,33.24,30.29,0,49.44-15.78,60.22-33.24h0" style="fill:#afdde8"/><path d="M313.45,161c-7.27,3.05-15,5.22-22.82,5.26,7.79,0,15.55-2.21,22.82-5.26" style="fill:#afdde8"/><path d="M315,160.35l-.05,0,.05,0" style="fill:#afdde8"/><polyline points="292.27 160.17 292.28 160.17 292.28 160.17 292.27 160.17" style="fill:#afdde8"/><path d="M316.13,159.84l-.21.1.21-.1" style="fill:#afdde8"/><path d="M281.34,148.75h0" style="fill:#afdde8"/><path d="M284.17,148.29a7.38,7.38,0,0,1-2.6.46,7.38,7.38,0,0,0,2.6-.46" style="fill:#afdde8"/><path d="M326.79,148.26a56.32,56.32,0,0,1-34.41,11.91,56.34,56.34,0,0,0,34.41-11.91" style="fill:#afdde8"/><path d="M277.52,148.22l.26.05-.26-.05" style="fill:#afdde8"/><path d="M284.47,148.16l-.12.06.12-.06" style="fill:#afdde8"/><path d="M277.22,148.15l.23,0-.23,0" style="fill:#afdde8"/><path d="M332.16,145.31a3.41,3.41,0,0,0-.55.05c-1.67.29-3,1.46-4.34,2.51h0c1.31-1.05,2.67-2.22,4.34-2.51a3.41,3.41,0,0,1,.55-.05" style="fill:#afdde8"/><path d="M332.19,145.31h0" style="fill:#afdde8"/><polyline points="273.83 142.67 273.83 142.67 273.83 142.67 273.83 142.67" style="fill:#afdde8"/><path d="M253.31,142.18h0a33.65,33.65,0,0,0,4.52,6c1.93,2,4.85,3.5,7.25,4.84a56.32,56.32,0,0,0,24.86,7.14l.45,0-.45,0A56.32,56.32,0,0,1,265.08,153c-2.4-1.34-5.32-2.86-7.25-4.84a33.65,33.65,0,0,1-4.52-6" style="fill:#afdde8"/><path d="M283,141a21.38,21.38,0,0,1-9.11,1.72A21.38,21.38,0,0,0,283,141" style="fill:#afdde8"/><path d="M274,134.91h0" style="fill:#afdde8"/><path d="M274.55,134.9h0" style="fill:#afdde8"/><path d="M266.64,134.38l2.67.27-2.67-.27" style="fill:#afdde8"/><path d="M270.67,131.6h0" style="fill:#afdde8"/><path d="M271.37,131.46l-.17.06.17-.06" style="fill:#afdde8"/><path d="M269.91,130.77a.88.88,0,0,0,.35.7l.06,0-.06,0a.88.88,0,0,1-.35-.7" style="fill:#afdde8"/><path d="M272.45,130.49a.14.14,0,0,1,0,.06,1.78,1.78,0,0,1-1,.88h0a1.78,1.78,0,0,0,1-.88.14.14,0,0,0,0-.06" style="fill:#afdde8"/><path d="M265.94,130.15h0" style="fill:#afdde8"/><path d="M252.87,130h0a1,1,0,0,1-.66.29h0l-.27,2.54-11-1.19-.78-.1c.06-.51.13-1,.21-1.54h0c-.08.51-.15,1-.21,1.54h0c-.12.86-.21,1.73-.29,2.61h0c-.08.75-.13,1.49-.17,2.24l-1.43-.52h0l1.43.52c-.11,1.63-.16,3.27-.16,4.91,0-1.64.05-3.28.16-4.91h0c0-.75.09-1.49.17-2.24a75.17,75.17,0,0,0,30.21,8.4l.37,0-.37,0a75.17,75.17,0,0,1-30.21-8.4c.08-.88.17-1.75.29-2.61l.78.1,11,1.19h0l.27-2.54a1,1,0,0,0,.66-.29" style="fill:#afdde8"/><path d="M259.44,130h0a.49.49,0,0,0,.36.32l.1,0h0l-.1,0a.49.49,0,0,1-.36-.32" style="fill:#afdde8"/><path d="M260.42,130h0a.16.16,0,0,1,0,.07.63.63,0,0,1-.44.27.63.63,0,0,0,.44-.27.16.16,0,0,0,0-.07" style="fill:#afdde8"/><path d="M264.62,130h0a3.57,3.57,0,0,0,.93.18h0a3.57,3.57,0,0,1-.93-.18" style="fill:#afdde8"/><path d="M267.43,130h0a5.56,5.56,0,0,1-1.4.19,5.56,5.56,0,0,0,1.4-.19" style="fill:#afdde8"/><path d="M173.62,269.38a19.18,19.18,0,0,1-14.83-7.06c-.47-.61,7.14-4.21,7.8-4.42a24.37,24.37,0,0,1,7.66-1.23c.47,0,.93,0,1.39,0a21.65,21.65,0,0,1,8.93,2.33c2.92,1.58,1.17,4.77-.8,6.72a13,13,0,0,1-6.38,3.21,17.14,17.14,0,0,1-3.77.41" style="fill:#afdde8"/><path d="M208.24,260.77c1-2,2.06-4,3.12-5.95l1.23-2.93L220,255c-1.67,3.34-3.15,6.61-4.47,9.86h0q-1.75,4.35-3.14,8.58l-7.64-4.69a66.1,66.1,0,0,1,3.45-8h0" style="fill:#afdde8"/><path d="M171.74,240.49l-.54-.29a44.59,44.59,0,0,1,2.82-4.39l2.52,1.06a23.81,23.81,0,0,0-4.8,3.62" style="fill:#afdde8"/><path d="M177.91,252.29l-19.06-11.68c1.38-1.5,2.74-3,4.12-4.48l.21-.39,8,4.46c-.37.68-.7,1.33-.94,1.89.48-.56,1-1.09,1.48-1.6h0a23.81,23.81,0,0,1,4.8-3.62l22.86,9.52-.16.37A26.76,26.76,0,0,1,196,254h0a26.76,26.76,0,0,0,3.22-7.22l.16-.37,3.88,1.61a50.09,50.09,0,0,1-6.54,6.39h0a21.06,21.06,0,0,1-1.93,1.33h0a21.06,21.06,0,0,0,1.93-1.33h0a50.09,50.09,0,0,0,6.54-6.39l9.31,3.89-1.23,2.93h0c-1.06,2-2.12,3.94-3.12,5.95h0a66.1,66.1,0,0,0-3.45,8l0,0-4.61-2.82c1.84-2.08,3.94-4.21,6.06-6.25h0c-2.12,2-4.22,4.17-6.06,6.25l-19-11.65a18.13,18.13,0,0,1,4.09-5.54l.31-.55L196,254h0l-10.48-5.82-.31.55h0a18.13,18.13,0,0,0-4.09,5.54l-3.23-2h0" style="fill:#afdde8"/><path d="M88.05,241.38c-.33,0-.65,0-1,0a12.81,12.81,0,0,1-7.94-4.49,38.11,38.11,0,0,1-5-7.86,16.43,16.43,0,0,1,9.42-2.93,16.06,16.06,0,0,1,14.55,9.15c1.16,2.55-1.46,3.29-3.57,4.37a14.49,14.49,0,0,1-6.5,1.81" style="fill:#afdde8"/><path d="M134,219.52c.55-.44,1.12-.86,1.69-1.29l.41-.76,11,5.89,8.93,4.8,1.31.7L174,235.81a44.59,44.59,0,0,0-2.82,4.39l-8-4.46-.21.39h0c-1.38,1.49-2.74,3-4.12,4.48l-3.23-2h0l-.31-.2L151,235.77l-16.62,1.68h0l-4.75.49h0c-12.87,1.29-27,2.72-28.07,2.81l-.46,0c-1.67,0-2.51-.81-2.35-2.3.13-1.24.83-1.38,1.16-1.38H100l29.69-4.38h0a16.09,16.09,0,0,0-.29,3.09,16.09,16.09,0,0,1,.29-3.09l.33,0h0l12.75-1.89v0l-12.37-7.57,0,0a15.39,15.39,0,0,1,3.53-3.63h0" style="fill:#afdde8"/><path d="M185.81,234.68a19.84,19.84,0,0,1-5.72-.88c.19-.13.36-.26.55-.41l-.23-.3a20.72,20.72,0,0,1,16.36-16.51,9.79,9.79,0,0,1,1.88,10.16,12.59,12.59,0,0,1-7.8,7.14,15.72,15.72,0,0,1-5,.8" style="fill:#afdde8"/><path d="M98.66,199.88a14,14,0,0,1,1.9-1.44l2.88,1.55h0l11,5.9a11.64,11.64,0,0,0-1.76,1.81h0a11.64,11.64,0,0,1,1.76-1.81l2.29,1.25h0l19.31,10.33-.41.76a22.2,22.2,0,0,0-3.41.32l1.72,1a15.39,15.39,0,0,0-3.53,3.63l0,0-5-3a50.85,50.85,0,0,1,6.8-1.61h0a50.85,50.85,0,0,0-6.8,1.61l-12.37-7.58a34.08,34.08,0,0,1,2.18-3.46h0a34.08,34.08,0,0,0-2.18,3.46l-2.34-1.43a12.66,12.66,0,0,1,2-3.45h0a12.66,12.66,0,0,0-2,3.45L99,204a14.34,14.34,0,0,1,2.43-2.52h0A14.34,14.34,0,0,0,99,204l-2.47-1.51a9.78,9.78,0,0,1,2.14-2.56h0" style="fill:#afdde8"/><path d="M86,192.84a2.15,2.15,0,0,1,1.74-.81,4.93,4.93,0,0,1,2.4.81l10.45,5.6a14,14,0,0,0-1.9,1.44h0a9.78,9.78,0,0,0-2.14,2.56L86,196a2.19,2.19,0,0,1,0-3.14h0" style="fill:#afdde8"/><path d="M156,228.16l-8.93-4.8-4.3-36.3a2.58,2.58,0,0,1,4.3,0c0,.67,8.93,41.08,8.93,41.08v0" style="fill:#afdde8"/><path d="M145.86,185.57l.42-.16-.14-.37c-3.11-3.1-3-8.39-.93-12.25s5.76-6.58,9.41-9,7.48-4.81,10.19-8.27a47.83,47.83,0,0,1,3.85,8.81,15.93,15.93,0,0,1,.08,9.47c-1.46,4.31-5.32,7.47-9.54,9.17s-8.82,2.17-13.34,2.62" style="fill:#afdde8"/><path d="M271.64,129.44a2.33,2.33,0,0,0-.9.21,2.33,2.33,0,0,1,.9-.21" style="fill:#c73c23"/><path d="M271.67,129.44h0" style="fill:#c73c23"/><path d="M269.76,128.73a6,6,0,0,1-2.33,1.23h0a6,6,0,0,0,2.33-1.23" style="fill:#c73c23"/><path d="M267.78,126.71l.49,0-.49,0" style="fill:#c73c23"/><path d="M267.36,126.71a8.82,8.82,0,0,0-2.61.39,8.82,8.82,0,0,1,2.61-.39" style="fill:#c73c23"/><path d="M267.49,126.7h0" style="fill:#c73c23"/><path d="M273.81,124.74l.78.07c.43.06.85.1,1.29.15h0a22.18,22.18,0,0,1,9,2.62,10.07,10.07,0,0,1,1.64,1.24h0a9,9,0,0,1,1,1.13h0a9,9,0,0,0-1-1.13,10.07,10.07,0,0,0-1.64-1.24,22.18,22.18,0,0,0-9-2.62c-.44,0-.86-.09-1.29-.15l-.78-.07" style="fill:#c73c23"/><path d="M265.05,124.36c-1.19,0-2.39,0-3.59,0,1.2,0,2.4,0,3.59,0" style="fill:#c73c23"/><path d="M265.05,124.36h0" style="fill:#c73c23"/><path d="M252.44,124.36a.85.85,0,0,0-.36.29.85.85,0,0,1,.36-.29" style="fill:#c73c23"/><path d="M260.46,124.31a.16.16,0,0,1,0,.07.16.16,0,0,0,0-.07" style="fill:#c73c23"/><path d="M252.74,124.29h0" style="fill:#c73c23"/><path d="M259.94,124h0" style="fill:#c73c23"/><path d="M287.22,69.61l-.86.25.86-.25" style="fill:#c73c23"/><path d="M313.73,66.09a103.06,103.06,0,0,0-26.49,3.52,103.06,103.06,0,0,1,26.49-3.52" style="fill:#c73c23"/><path d="M314.13,66.09h0" style="fill:#c73c23"/><path d="M322.73,66c-1.73,0-3.51.06-5.35.19h0C319.22,66,321,66,322.73,66" style="fill:#c73c23"/><path d="M322.73,66h0" style="fill:#c73c23"/><path d="M336.56,64.28l-.16.86L335.23,65l1.17.19h0l.16-.86" style="fill:#c73c23"/><path d="M317.57,63.63c-1.66,0-3.26,0-4.82.09,1.56,0,3.17-.09,4.82-.09" style="fill:#c73c23"/><path d="M317.6,63.63h0" style="fill:#c73c23"/><path d="M324,61.31c-1.16,0-2.33,0-3.52.06,1.19,0,2.36-.06,3.52-.06" style="fill:#c73c23"/><path d="M324,61.31h0" style="fill:#c73c23"/><path d="M269.16,20.14h0" style="fill:#c73c23"/><path d="M277.13,19.58a67.66,67.66,0,0,1-7.87.56,67.66,67.66,0,0,0,7.87-.56" style="fill:#c73c23"/><path d="M277.74,19.5l-.36.05.36-.05" style="fill:#c73c23"/><path d="M308.44,8.2h0c-1.59,2.64-5.88,5.31-11.71,7.36h0a63.3,63.3,0,0,1-10.48,2.67c-2.77.47-5.44.89-7.95,1.2h0L285,67.33h0l.21,1.47.37,1.28h0l.59-.17-.59.17-.37-1.28L285,67.33A110.58,110.58,0,0,1,311.7,61.9l.6,1.84h0l-.6-1.84c2.61-.25,5.31-.41,8.1-.51h0c-2.79.1-5.49.26-8.1.51h0A110.58,110.58,0,0,0,285,67.33l-6.74-47.9c2.51-.31,5.18-.73,7.95-1.2a63.3,63.3,0,0,0,10.48-2.67h0c5.83-2.05,10.12-4.72,11.71-7.36" style="fill:#c73c23"/><path d="M363.61,336.61l-.32.08h0l.32-.08h0" style="fill:#765836"/><path d="M363.61,160.84c-.11.17-.22.34-.32.52h0l.32-.52h0" style="fill:#765836"/><polyline points="415.69 273.94 415.69 273.94 415.69 273.94" style="fill:#aa702b"/><path d="M405.28,264.59l0,.08,0-.08" style="fill:#aa702b"/><path d="M405.14,264.24a1.34,1.34,0,0,0,.07.18,1.34,1.34,0,0,1-.07-.18" style="fill:#aa702b"/><path d="M405.06,264.05v0" style="fill:#aa702b"/><path d="M404.71,263.1l.18.5-.18-.5" style="fill:#aa702b"/><polyline points="404.7 263.09 404.71 263.09 404.7 263.09" style="fill:#aa702b"/><path d="M404.59,262.74l0,.13,0-.13" style="fill:#aa702b"/><path d="M404.46,262.36l.07.22-.07-.22" style="fill:#aa702b"/><path d="M404.37,262.08a1.72,1.72,0,0,0,.07.21,1.72,1.72,0,0,1-.07-.21" style="fill:#aa702b"/><path d="M404.29,261.83l.06.18-.06-.18" style="fill:#aa702b"/><path d="M404.09,261.15c0,.11.07.22.1.32,0-.1-.07-.21-.1-.32" style="fill:#aa702b"/><path d="M416.16,274h0m-.24,0h0m1.12,0a4.57,4.57,0,0,1-.6,0,4.57,4.57,0,0,0,.6,0" style="fill:#956328"/><path d="M554.13,201.82h0m1.69-1.11a10.64,10.64,0,0,0-1.58.58h0c-.07,0-.12.13-.14.27a.41.41,0,0,0,0,.11.41.41,0,0,1,0-.11c0-.13.07-.27.14-.27h0a10.64,10.64,0,0,1,1.58-.58h0" style="fill:#c1852e"/><path d="M349,310.4q-14.82,2.44-29.82,3.61h0q15-1.17,29.82-3.61" style="fill:#c9c9c9"/><path d="M363.08,307.22a82.62,82.62,0,0,1-13.05,3l-.53.09.53-.09a82.62,82.62,0,0,0,13.05-3h0" style="fill:#c9c9c9"/><path d="M206.58,375.26l-.69.38.69-.38" style="fill:#a1a1a1"/><path d="M282.63,362.74h0" style="fill:#a1a1a1"/><path d="M281.83,362.74c-32.27,0-58.87,4-86.44,31.2,27.56-27.21,54.18-31.2,86.44-31.2" style="fill:#a1a1a1"/><polyline points="281.91 362.74 281.91 362.74 281.91 362.74 281.91 362.74" style="fill:#a1a1a1"/><path d="M327.76,359.18l.78.11-.78-.11" style="fill:#a1a1a1"/><path d="M290.71,356.44c-29.4,0-59.26,5.39-84,18.75,24.73-13.35,54.59-18.74,84-18.75" style="fill:#a1a1a1"/><polyline points="290.8 356.44 290.8 356.44 290.8 356.44 290.8 356.44" style="fill:#a1a1a1"/><polyline points="292.16 342.84 292.16 342.84 292.16 342.84 292.16 342.84" style="fill:#a1a1a1"/><path d="M363.08,336.73c-19.39,4.34-47,5.89-66.69,6.09,19.69-.2,47.29-1.75,66.69-6.09h0" style="fill:#a1a1a1"/><path d="M291.58,315.09h0" style="fill:#a1a1a1"/><path d="M264.39,314h0c1.71.15,3.41.27,5.09.38l1.93.12-1.93-.12c-1.68-.11-3.38-.23-5.09-.38" style="fill:#a1a1a1"/><path d="M319.15,314h0c-9.13.71-18.3,1.07-27.46,1.08q13.74,0,27.46-1.08" style="fill:#a1a1a1"/><path d="M239,125.47c-1.17,0-2.35.06-3.51.06-1.81,0-3.38,0-4.76.1a6.47,6.47,0,0,0,1,2.12h0a5.85,5.85,0,0,0,1.09,1.24,11.24,11.24,0,0,0,5.67,2.28h0c.12-1.88.29-3.81.54-5.8" style="fill:#f08429"/><path d="M231.67,127.75h0l-.06,0c.72,2.3,2,2.44,2,2.44a51.73,51.73,0,0,0,4.72,3h0c0-.63,0-1.29.09-2a11.24,11.24,0,0,1-5.67-2.28,5.85,5.85,0,0,1-1.09-1.24" style="fill:#df6216"/><path d="M230.7,125.63c-8.2.36-9.3,1.72-8.78,2.8a15.07,15.07,0,0,0,2.75,1.55c2.79,1.39,7.24,3.42,11.12,4.92l2.47.94h0c0-.85,0-1.72.08-2.61a51.73,51.73,0,0,1-4.72-3s-1.29-.14-2-2.44h0l.06,0a6.47,6.47,0,0,1-1-2.12h0" style="fill:#ce4b16"/><path d="M271.67,129.44h0c.57,0,1,.28.75,1.05a.14.14,0,0,1,0,.06,1.78,1.78,0,0,1-1,.88h0l-.06,0-.17.06-.2,0-.22,0h-.11a.8.8,0,0,1-.15,0h0l-.17-.07-.06,0a.88.88,0,0,1-.35-.7,1.06,1.06,0,0,1,0-.31,1.48,1.48,0,0,1,.78-.81h0a2.33,2.33,0,0,1,.9-.21h0m-4.18-2.74h.29l.49,0h0a2.37,2.37,0,0,1,1.49.5,1.13,1.13,0,0,1,.36.81.77.77,0,0,1-.15.49l-.12.12h0l-.09.08a6,6,0,0,1-2.33,1.23,5.56,5.56,0,0,1-1.4.19h-.48a3.57,3.57,0,0,1-.93-.18,2.05,2.05,0,0,1-.69-.39,1.49,1.49,0,0,1-.54-1.12,1.12,1.12,0,0,1,.09-.44,2,2,0,0,1,1.27-.91h0a8.82,8.82,0,0,1,2.61-.39h.13m-2.44-2.34h0c-1.19,0-2.39,0-3.59,0l-.93,0a5.74,5.74,0,0,1,.29,2.11,19.5,19.5,0,0,1-.23,2.86,1.82,1.82,0,0,1-.17.56.16.16,0,0,1,0,.07.63.63,0,0,1-.44.27h0l-.1,0a.49.49,0,0,1-.36-.32,1.74,1.74,0,0,1-.13-.6c-.05-1.27-.12-2.54-.18-3.81,0-.11,0-.22,0-.33a2.15,2.15,0,0,1,.08-.62l.06-.13q-3,.12-6,.29a1.57,1.57,0,0,1,.05.37.49.49,0,0,1,0,.12c0,1.06,0,2.11,0,3.16a3,3,0,0,1-.24,1.32,1.33,1.33,0,0,1-.19.24,1,1,0,0,1-.66.29l-.27,2.54,14.7,1.58h0l2.67.27c1.57.14,3.16.25,4.72.26h.91v-1.55h-.06c-.26,0-.34-.38-.37-.65-.07-1.09-.14-2.18-.14-3.28a18.36,18.36,0,0,1,.09-2,3.29,3.29,0,0,1,.27-1.14,1.31,1.31,0,0,1,.86-.75l.23,0h0l.07-.58c-.44,0-.86-.09-1.29-.15l-.78-.07c-2.87-.28-5.77-.38-8.68-.38h-.08" style="fill:#f08429"/><path d="M239.86,134.12c-.08.75-.13,1.49-.17,2.24,2.92,1.09,6.06,2.2,9.27,3.29h0c1.55.53,3.11,1.06,4.67,1.56h0c9.29,3.08,18.44,5.79,23.59,6.94h0l.23,0,.07,0,.26.05a18,18,0,0,0,3.56.48h.23a7.38,7.38,0,0,0,2.6-.46l.18-.07.12-.06h0a7.84,7.84,0,0,0,4-5,22.88,22.88,0,0,0,1.07-6.47,12.61,12.61,0,0,0-.21-2.47,12,12,0,0,1-5.94,6.61h0L283,141a21.38,21.38,0,0,1-9.11,1.72h-.08c-1.13,0-2.27,0-3.39-.12l-.37,0a75.17,75.17,0,0,1-30.21-8.4" style="fill:#ce4b16"/><path d="M260.76,16.21h-.12l3.48,62.16h0a72.82,72.82,0,0,1,20.92-11l-6.74-47.9h0l-.56.07-.36.05-.25,0a67.66,67.66,0,0,1-7.87.56h-.1c-4.79,0-8-.92-8.36-3.36h0a5.27,5.27,0,0,1,0-.57" style="fill:#93c01f"/><path d="M285,67.33h0a72.82,72.82,0,0,0-20.92,11l.2,3.54.2.21h0a53.06,53.06,0,0,1,16.2-10.35c1.62-.63,3.26-1.18,4.9-1.69l-.37-1.28L285,67.33" style="fill:#cce7f6"/><path d="M301.86,347c-29.64,0-57.14,5.32-80.42,15.79a133.56,133.56,0,0,0-34.21,21.87A121.62,121.62,0,0,0,170.41,403c-17.76,23.92-27.12,54.45-27.12,87.64,0,34,5.53,68.72,22.9,95.74h0a102.31,102.31,0,0,0,10.69,13.92h0a92.72,92.72,0,0,1,14.17,4.44,79.19,79.19,0,0,1,33.31,25h0c16.76,5.77,35.44,9.34,53.95,11.21h0c20.88-12.51,45.57-18.88,69.73-23.56l.36-.07a80,80,0,0,1,14.66-1.77h.11a30.69,30.69,0,0,1,10.38,1.64h0l.84.32c6,2.37,10.77,7,16.44,10a34.9,34.9,0,0,0,5.79,2.42h0c18.39-6.71,34.71-16.45,47.6-30.25a100.18,100.18,0,0,0,13.07-17.73h0c15.46-26.34,22.28-61.32,22.28-91.28,0-34.92-14-69.65-37.63-95.1-1.58-1.71-3.21-3.37-4.87-5q-4.21-4.1-8.78-7.8l-1.48-1.18-2.07-1.6-2-1.49q-3.25-2.36-6.65-4.5-2.1-1.32-4.25-2.57-5.44-3.17-11.21-5.86v24.33a157.53,157.53,0,0,1,21.12,20.31c19.82,22.86,31.72,52.94,31.74,83a109.78,109.78,0,0,1-2.24,22.33c-7.64,37-36.53,69.65-73.24,78.57-15.63,3.8-32,3.44-47.72,6.82-20.17,4.34-39.18,14.77-59.81,15.12h-1.08c-21.88,0-42.27-11.43-59.46-25.09l-.43-.33c-28.18-22.52-54.2-52.27-59.56-87.94a149.63,149.63,0,0,1-1.71-22.24c0-66.46,47.9-99.36,57-104.44l.68-.38.69-.38.14-.07c24.73-13.36,54.59-18.74,84-18.75h.09a254.74,254.74,0,0,1,37,2.74l.78.11h0c27.41,4.11,51.44,14.23,72.07,30.6V365.56a180.42,180.42,0,0,0-37.53-12.51c-19.5-4.31-40.26-6.1-61.22-6.1" style="fill:#a8d1e4"/><path d="M560.3,226.16l-.34,1.56c.36,1.91.73,3.79,1.1,5.7h0l-.06.17,12.36,3.77.82.25a3.23,3.23,0,0,0,.73.08,2,2,0,0,0,2-1.51c.57-2-.06-2.54-1.23-3.53a17.55,17.55,0,0,0-2.36-1.12c-2.81-1.22-7.77-3.24-13.06-5.37" style="fill:#b6b5b4"/><path d="M275.88,125h0l-.07.58c.77,0,.92,1,.92,2,0,.49,0,.94-.06,1.19a10,10,0,0,1-1.26,4.25c-.11.2-.28.4-.48.4v1.55h0a21.12,21.12,0,0,0,7.39-1.4,7.66,7.66,0,0,0,3.46-2.5,4.21,4.21,0,0,0,.73-2.18,10.07,10.07,0,0,0-1.64-1.24,22.18,22.18,0,0,0-9-2.62" style="fill:#f08429"/><path d="M100.56,198.44a14,14,0,0,0-1.9,1.44l2.76,1.55h0a11.77,11.77,0,0,1,2-1.44l-2.88-1.55"/><path d="M249,139.65h0l-.59,1.76a82.8,82.8,0,0,0,16,15.8,46.44,46.44,0,0,0,20.56,8.69h0l.32,0h.08l.2,0a40,40,0,0,0,4.88.3h.23c7.79,0,15.55-2.21,22.82-5.26l1.5-.64.05,0,.92-.41.21-.1h0a75.76,75.76,0,0,0,19.22-12v0c-.06-1.42-1.51-2.37-3-2.46h-.24a3.41,3.41,0,0,0-.55.05c-1.67.29-3,1.46-4.34,2.51h0l-.48.39a56.34,56.34,0,0,1-34.41,11.91h-.11c-.63,0-1.25,0-1.88,0l-.45,0A56.32,56.32,0,0,1,265.08,153c-2.4-1.34-5.32-2.86-7.25-4.84a33.65,33.65,0,0,1-4.52-6h0l.32-1c-1.56-.5-3.12-1-4.67-1.56" style="fill:#45190d"/><path d="M469.86,235.82l-11.2,4.1q.13,3.36.13,6.72c0,.88,0,1.76,0,2.63a39.84,39.84,0,0,1-3.74-8l-19,6.95-12.3,4.52A104.84,104.84,0,0,1,429.92,268h0l5.32-2.45.13-.05c-.67-.54-1.31-1.11-1.93-1.71a31.88,31.88,0,0,1-6.69-9.18h0a27.92,27.92,0,0,0,13.3,8.49l.09.19,9.22-4.25,21.73-10,2.91-1.34a20.2,20.2,0,0,1-3.1-9l-1-2.84" style="fill:#b6b5b4"/><path d="M286.52,128.82h0a4.21,4.21,0,0,1-.73,2.18,7.66,7.66,0,0,1-3.46,2.5,21.12,21.12,0,0,1-7.39,1.4H274c-1.56,0-3.15-.12-4.72-.26l-2.67-.27h0l-14.7-1.58h0l-11-1.19-.78-.1c-.12.86-.21,1.73-.29,2.61a75.17,75.17,0,0,0,30.21,8.4l.37,0c1.12.07,2.26.12,3.39.12h.08A21.38,21.38,0,0,0,283,141l.37-.17h0a12,12,0,0,0,5.94-6.61,9.6,9.6,0,0,0-1.79-4.22,9,9,0,0,0-1-1.13" style="fill:#df6216"/><path d="M114.48,205.89a11.64,11.64,0,0,0-1.76,1.81l2.55,1.42h0c.51-.73,1-1.42,1.5-2l-2.29-1.25"/><path d="M103.44,200h0a11.77,11.77,0,0,0-2,1.44l11.3,6.27h0a11.64,11.64,0,0,1,1.76-1.81l-11-5.9" style="fill:#d4d4d4"/><path d="M423.77,252.72l-20,7.32c.07.29.16.6.24.91a1.94,1.94,0,0,1,0,.2c0,.11.07.22.1.32s.07.24.1.36l.06.18,0,.07a1.72,1.72,0,0,0,.07.21l0,.07.07.22.06.16,0,.13c0,.07.05.14.07.22h0l.18.5.17.45v0a1.22,1.22,0,0,0,.07.17,1.34,1.34,0,0,0,.07.18c0,.06.05.11.07.17l0,.08c3.2,7.62,8.05,9.05,10.38,9.27h0l.23,0h.52a4.57,4.57,0,0,0,.6,0h0L429.92,268a104.84,104.84,0,0,0-6.15-15.28h0" style="fill:#b6b5b4"/><path d="M305.52,120.66h0a5.92,5.92,0,0,1,11.84,0h0a5.92,5.92,0,1,1-11.84,0h0m-39.34-5.94h0a5.95,5.95,0,1,1,11.89,0h0a5.95,5.95,0,0,1-11.89,0h0M322.73,66h0c-1.73,0-3.51.06-5.35.19h0s-1.19-.07-3.24-.07h-.41a103.06,103.06,0,0,0-26.49,3.52h0l-.86.25-.15,0-.59.17h0c-1.64.51-3.28,1.06-4.9,1.69a53.06,53.06,0,0,0-16.2,10.35h0A73.94,73.94,0,0,0,251,98.86a87.52,87.52,0,0,0-9.85,26.55c3.53-.13,7.1-.36,10.65-.57H252l.08-.18h0a.85.85,0,0,1,.36-.29.66.66,0,0,1,.3-.07h0a.56.56,0,0,1,.32.11.63.63,0,0,1,.19.36h0q3-.17,6-.29h0a.85.85,0,0,1,.6-.51H260a.61.61,0,0,1,.47.36.16.16,0,0,1,0,.07l0,.05h0l.93,0c1.2,0,2.4,0,3.59,0h.08c2.91,0,5.81.1,8.68.38l.78.07c.43.06.85.1,1.29.15a22.18,22.18,0,0,1,9,2.62,10.07,10.07,0,0,1,1.64,1.24,9,9,0,0,1,1,1.13,9.6,9.6,0,0,1,1.79,4.22,12.61,12.61,0,0,1,.21,2.47,22.88,22.88,0,0,1-1.07,6.47,7.84,7.84,0,0,1-4,5h0l-.12.06-.18.07a7.38,7.38,0,0,1-2.6.46h-.23a18,18,0,0,1-3.56-.48l-.26-.05-.07,0-.23,0h0c-5.15-1.15-14.3-3.86-23.59-6.94h0l-.32,1h0a33.65,33.65,0,0,0,4.52,6c1.93,2,4.85,3.5,7.25,4.84a56.32,56.32,0,0,0,24.86,7.14l.45,0c.63,0,1.25,0,1.88,0h.11a56.32,56.32,0,0,0,34.41-11.91l.48-.39h0c1.31-1.05,2.67-2.22,4.34-2.51a3.41,3.41,0,0,1,.55-.05h.24c1.44.09,2.89,1,3,2.46v0h0a75.76,75.76,0,0,1-19.22,12h0l-.21.1-.92.41-.05,0-1.5.64c-7.27,3.05-15,5.22-22.82,5.26h-.23a40,40,0,0,1-4.88-.3l-.2,0h-.08l-.32,0h0a46.44,46.44,0,0,1-20.56-8.69,82.8,82.8,0,0,1-16-15.8h0l.59-1.76c-3.21-1.09-6.35-2.2-9.27-3.29h0c-.11,1.63-.16,3.27-.16,4.91,0,23,11.18,46.2,48.12,52.07l.43.07h.09A96.79,96.79,0,0,0,303,194.6h.05c30.29,0,49.44-15.79,60.22-33.24.1-.18.21-.35.32-.52,7.07-11.67,10.44-24,10.92-32.91h0v-.14c0-.1,0-.2,0-.3C375.68,104,365.51,66,322.77,66h0" style="fill:#fffdfb"/><path d="M596,640.28H596c3.46,0,7.2.92,10.45,1.49l.12,0,.42.07a200.15,200.15,0,0,1,28.85,6.57,20,20,0,0,1,7.37,3.67,8.16,8.16,0,0,1,2.79,5.79,5.76,5.76,0,0,1-.24,1.64c-.92,3-4.08,4.62-7,5.71-10.48,3.9-21.77,5-32.91,6l-1.07.09h0c-1.28.1-2.58.18-3.87.19h-.2a15.06,15.06,0,0,1-8.36-2.09l0,0-.27-.19-.06,0c-3.09-2.25-4.64-6-5.66-9.74a28.88,28.88,0,0,1-1.19-7.59,14.68,14.68,0,0,1,1-5.41h0c1.89-4.79,5.62-6.12,9.79-6.13H596M481,581.22c-7.9,0-15.81.32-23.71.71h0a100.18,100.18,0,0,1-13.07,17.73c-12.89,13.8-29.21,23.54-47.6,30.25l.5.15.15.05a44.41,44.41,0,0,0,12.59,1.75H410a58.37,58.37,0,0,0,8.57-.68l.59-.09.37-.06h0c9.83-1.67,18.87-5.87,28.3-8.73,4.48-1.37,8.75-4.53,12.89-6.71,4.59-2.41,9.24-4.72,14-6.85a145.48,145.48,0,0,1,15.7-6h0l.24-.07.29-.09.24-.07.26-.08a93.58,93.58,0,0,1,26.79-4.23h.1a67.32,67.32,0,0,1,18.18,2.41l.69.19h0c15.2,4.46,28.88,15.69,33.74,30.76a36.7,36.7,0,0,1,1.77,11.21,29.91,29.91,0,0,1-5.39,17.69c-4.79,6.6-12.41,10.64-20.26,12.86a70.16,70.16,0,0,1-19.1,2.48h-.08c-14.16,0-28.57-3.44-42.93-6.37-3.82-.77-7.63-1.51-11.43-2.14l-2.62-.42-.15,0-.59-.09h0l-1.13-.16h0l-.61-.08-.34,0-.34,0a181.62,181.62,0,0,0-23.63-1.47h-.13c-24.13,0-48.35,4.1-72.35,7.86l-.59.09-.94.15-.49.07-2.36.37-2.47.38-.84.13c-17.76,2.68-35.84,4.9-53.73,4.9h-.11a160.71,160.71,0,0,1-42.63-5.25l-.24-.06-.52-.15h-.05l-1-.28h0c-4.18-1.21-8.84-3.16-10.11-7.31a7.19,7.19,0,0,1-.31-2.08c0-3.94,3.15-7.68,6.25-10.46A110.75,110.75,0,0,1,278.31,641c-18.51-1.87-37.19-5.44-53.95-11.21a63.82,63.82,0,0,1,8.56,15.11,32.48,32.48,0,0,1,2.43,11.67c0,4.25-1.17,8.27-4.17,11.23l-.08.07-.21.2c-3,2.83-7,3.84-11.26,3.85h-.11a43.92,43.92,0,0,1-11.94-2h0c-12.54-3.68-24.73-8.74-37.57-11.2h0l-.38-.07-.53-.1a108,108,0,0,0-19.38-1.68h-.12c-17.87,0-35.87,3.84-53.39,8.18l-2.75.68h0l-.42.11-.35.09h0l-.5.13-.72.18c-21.61,5.46-43.53,11.31-65.68,11.33h-.1q-3.84,0-7.69-.24h0l-.35,0-.44,0c-4.29-.3-9.27-1.33-11.14-5.22a6.93,6.93,0,0,1-.68-3c0-3.23,2-6.59,4-9.32,16.36-21.85,40.49-39.41,66.85-46.48,18.33-6.3,37-12.07,56.17-14.5l.44-.06a145.92,145.92,0,0,1,17.86-1.14h.12a117.64,117.64,0,0,1,24.44,2.48l1.63.37h0a102.31,102.31,0,0,1-10.69-13.92h0a165.46,165.46,0,0,0-25.34-1.94c-46.6,0-93.26,19.28-125.39,53.16C9.72,643.67,4.3,650.35,1.6,658.26s-2.2,17.31,3,23.84A20.84,20.84,0,0,0,9,686.18c7.28,5.08,17.53,5.82,26.75,6.07l15.13.41C99,694,147,695.25,195.14,696q37.67.56,75.34.6,45.87,0,91.74-1.12c33.49,1.67,74.52.39,108,2.07,25.05,1.26,50.15,2.52,75.22,2.52,15.4,0,30.78-.48,46.14-1.71,12.21-1,24.58-2.51,36.3-5.9a93,93,0,0,0,18.69-7.54c8.08-4.39,16.24-12.33,14.25-21.29-1.11-5-5.14-8.72-9.21-11.77a88.13,88.13,0,0,0-29.17-14.33c-11.73-3.26-24.39-4.16-34.87-10.38-8.77-5.21-15.09-13.63-22.66-20.46-15-13.5-34.83-20.65-54.79-23.56A202.86,202.86,0,0,0,481,581.22" style="fill:#a8d1e4"/><path d="M611.27,649h0a46.33,46.33,0,0,1,15.05,3l.07,0,.21.07.13,0h0c1.58.56,3.39,1.53,3.54,3.21,0,.06,0,.13,0,.19,0,2-2.35,3.13-4.3,3.63h0l-.62.15-.25.06-.54.12A59.8,59.8,0,0,1,611.42,661h-.14a59.69,59.69,0,0,1-13-1.44l-.27-.06h0l-.5-.12-.37-.09a3.73,3.73,0,0,1-2.43-1.33,2,2,0,0,1-.29-1c0-1.25,1.15-2.56,2.29-3.37l.14-.1.34-.24.06,0a24.29,24.29,0,0,1,13.9-4.15h.12M596,640.28h-.05c-4.17,0-7.9,1.34-9.79,6.13h0a14.68,14.68,0,0,0-1,5.41,28.88,28.88,0,0,0,1.19,7.59c1,3.69,2.57,7.49,5.66,9.74l.06,0,.27.19,0,0a15.06,15.06,0,0,0,8.36,2.09h.2c1.29,0,2.59-.09,3.87-.19h0l1.07-.09c11.14-1,22.43-2.07,32.91-6,2.93-1.09,6.09-2.72,7-5.71a5.76,5.76,0,0,0,.24-1.64,8.16,8.16,0,0,0-2.79-5.79,20,20,0,0,0-7.37-3.67A200.15,200.15,0,0,0,607,641.86l-.42-.07-.12,0c-3.25-.57-7-1.47-10.45-1.49H596" style="fill:#cce7f6"/><path d="M611.27,649h-.12a24.29,24.29,0,0,0-13.9,4.15l-.06,0-.34.24-.14.1c-1.14.81-2.29,2.12-2.29,3.37a2,2,0,0,0,.29,1,3.73,3.73,0,0,0,2.43,1.33l.37.09.5.12h0l.27.06a59.69,59.69,0,0,0,13,1.44h.14a59.8,59.8,0,0,0,13.19-1.48l.54-.12.25-.06.62-.15h0c2-.5,4.31-1.66,4.3-3.63,0-.06,0-.13,0-.19-.15-1.68-2-2.65-3.54-3.21h0l-.13,0-.21-.07-.07,0a46.33,46.33,0,0,0-15.05-3h0" style="fill:#fffdfb"/><path d="M591.24,191.32l-1.94.71-12.2,4.47c.26,1.19.49,2.38.61,3.37h0l1.77-.82,3.75-1.73,6.07-2.81,3-1.39-1.09-1.8" style="fill:#b6b5b4"/><path d="M589.92,189.15l-.62.18-6.07,1.74-3.75,1.07-3.25.94c.29,1,.6,2.19.87,3.42h0L589.3,192l1.94-.71-1.32-2.17" style="fill:#b6b5b4"/><path d="M588.38,208.62a17.06,17.06,0,0,1-5.15,2.72c-1.23.44-2.5.82-3.75,1.23a20.86,20.86,0,0,0-6.12,2.89l-.09.08c-3.45,2.67-5.47,8-4.09,12.27.58,1.8,2.23,2.43,4.18,2.49h.29a21.71,21.71,0,0,0,5.83-1c.63-.18,1.19-.36,1.66-.52a16.29,16.29,0,0,0,2.09-.84,12.43,12.43,0,0,0,5.93-5.54c.05-.1.1-.2.14-.3,1.5-3.33,1.07-7.14,0-10.74-.27-.92-.58-1.83-.92-2.71" style="fill:#628631"/><path d="M577.1,196.5h0l-2.66,1c.32,1.26.64,2.49.89,3.49h0l.38-.17,2-.91c-.12-1-.35-2.18-.61-3.37h0"/><path d="M576.23,193.08l-2.71.76c.26,1.1.59,2.37.92,3.62h0l2.66-1c-.27-1.23-.58-2.45-.87-3.42h0"/><path d="M574.44,197.46h0l-16.69,6.13a15.93,15.93,0,0,1-.86,5l.35.74,1.94-.9,14.18-6.54,2-.91c-.25-1-.57-2.23-.89-3.49h0" style="fill:#b6b5b4"/><path d="M573.52,193.84l-.16,0L559.18,198l-3.83,1.1.47,1.66h0a8.76,8.76,0,0,1,1.68-.26,16.74,16.74,0,0,1,.26,2.75c0,.13,0,.26,0,.39l16.69-6.13c-.33-1.25-.66-2.52-.92-3.62h0" style="fill:#d4d4d4"/><path d="M311.41,649.55h0a25.58,25.58,0,0,1,3.92.29l.53.08h0c10.37,1.81,20.28,2.51,30.35,6.07,1.57.55,3.33,1.36,3.75,3a2.48,2.48,0,0,1,.08.66,3.79,3.79,0,0,1-1.41,2.78,9.41,9.41,0,0,1-3.5,1.61l-.37.11-.44.12a85.65,85.65,0,0,1-23.52,3.08h-.11a147.15,147.15,0,0,1-30.48-3.61h0c-2.09-.45-4.6-1.37-4.88-3.49,0-.12,0-.23,0-.34,0-1.94,2.06-3.37,3.9-4.23h0c6.64-3.11,14.48-6,22-6.1h.18m211-43.63h0c8.93,0,18,1.85,25.52,6.57l.67.44h0c1.92,1.28,3.9,3.1,3.89,5.38a1.7,1.7,0,0,1,0,.22c-.17,3-3.52,4.58-6.4,5.35-9.55,2.56-19.49,3-29.37,3.48q-23.56,1.07-47.14,2.08h0l-.65,0h-.74a8.33,8.33,0,0,1-2.45-.33l-.19-.06a3.65,3.65,0,0,1-2.53-2.92V626c0-1.81,1.76-3.14,3.35-4.08,16.11-9.42,35.48-15.44,54.17-16h0c.62,0,1.25,0,1.87,0h0m-4.1-7.74h-.06a93.58,93.58,0,0,0-26.79,4.23l-.26.08-.24.07-.29.09-.24.07h0a145.48,145.48,0,0,0-15.7,6c-4.73,2.13-9.38,4.44-14,6.85-4.14,2.18-8.41,5.34-12.89,6.71-9.43,2.86-18.47,7.06-28.3,8.73h0l-.37.06-.59.09a58.37,58.37,0,0,1-8.57.68h-.14a44.41,44.41,0,0,1-12.59-1.75l-.15-.05-.5-.15h0c-25.6,9.32-55.21,12.69-85.19,12.69A330.94,330.94,0,0,1,278.31,641h0a110.75,110.75,0,0,0-16.85,12.33c-3.1,2.78-6.26,6.52-6.25,10.46a7.19,7.19,0,0,0,.31,2.08c1.27,4.15,5.93,6.1,10.11,7.31h0l1,.28h.05l.52.15.24.06a160.71,160.71,0,0,0,42.63,5.25h.11c17.89,0,36-2.22,53.73-4.9l.84-.13,2.47-.38,2.36-.37.49-.07.94-.15.59-.09c24-3.76,48.22-7.85,72.35-7.86h.13a181.62,181.62,0,0,1,23.63,1.47l.34,0,.34,0,.61.08h0l1.13.16h0l.59.09.15,0,2.62.42c3.8.63,7.61,1.37,11.43,2.14,14.36,2.93,28.77,6.36,42.93,6.37H528a70.16,70.16,0,0,0,19.1-2.48c7.85-2.22,15.47-6.26,20.26-12.86a29.91,29.91,0,0,0,5.39-17.69,36.7,36.7,0,0,0-1.77-11.21c-4.86-15.07-18.54-26.3-33.74-30.76h0l-.69-.19a67.32,67.32,0,0,0-18.18-2.41h0" style="fill:#cce7f6"/><path d="M560,227.72a9.66,9.66,0,0,0-.78,1.62,10.07,10.07,0,0,0-.63,3.31l-.06.17.69.21,1.82.56.06-.17c-.37-1.91-.74-3.79-1.1-5.7h0"/><path d="M539,217.71l-3.81,1.75-6.64,3.07-1.52.7L540,227.17l.09-.32a7.13,7.13,0,0,1-1.41-4.34,6.64,6.64,0,0,1,.33-2.07l4.66,2.12h0a6.27,6.27,0,0,0-1.42,4,6,6,0,0,0,.15,1.33h0l.61.18,6.21,1.9,3.82,1.16,5.48,1.67.06-.17a10.07,10.07,0,0,1,.63-3.31,9.66,9.66,0,0,1,.78-1.62l.34-1.56-1.12-.44L553,223.25l-3.82-1.51L543,219.28l-4-1.56h0" style="fill:#b6b5b4"/><path d="M557.5,200.45a8.76,8.76,0,0,0-1.68.26h0a10.64,10.64,0,0,0-1.58.58h0c-.07,0-.12.14-.14.27a.41.41,0,0,0,0,.11c0,.08,0,.14,0,.15h0c.38.89.75,1.79,1.11,2.67h0l2.48-.9h0c0-.13,0-.26,0-.39a16.74,16.74,0,0,0-.26-2.75"/><path d="M557.75,203.59l-2.48.9c.55,1.35,1.1,2.71,1.62,4.07h0a15.93,15.93,0,0,0,.86-5h0"/><path d="M555.27,204.49h0l-49.46,18.15c0,.81.06,1.63.06,2.44,0,.63,0,1.27,0,1.9-.57-1.23-1.23-2.44-1.84-3.68l-20.38,7.47c-.27,1.81-.62,3.61-1,5.41-.26-1.59-.51-3.17-.77-4.76l-12,4.4,1,2.84h0a36.84,36.84,0,0,0,6.32,7.53h0l49.81-23,1.52-.7,6.64-3.07,3.81-1.75,4-1.83,6.21-2.87,3.82-1.76,4.23-1.95-.35-.74c-.52-1.36-1.07-2.72-1.62-4.07h0" style="fill:#b6b5b4"/><path d="M555.35,199.05l-2.34.67-3.82,1.09L543,202.59l-13.61,3.9-.82.23L520.76,209l-1.42.41-15,4.3,1,3.45h0a53.85,53.85,0,0,1,.51,5.53h0l49.46-18.15c-.36-.88-.73-1.78-1.11-2.67h0s0-.07,0-.15a.41.41,0,0,1,0-.11c0-.14.07-.27.14-.27h0a10.64,10.64,0,0,1,1.58-.58h0l-.47-1.66" style="fill:#d4d4d4"/><path d="M522.38,605.92h0c-.62,0-1.25,0-1.87,0h0c-18.69.52-38.06,6.54-54.17,16-1.59.94-3.36,2.27-3.35,4.08v.18a3.65,3.65,0,0,0,2.53,2.92l.19.06a8.33,8.33,0,0,0,2.45.33h.74l.65,0h0q23.58-1,47.14-2.08c9.88-.45,19.82-.92,29.37-3.48,2.88-.77,6.23-2.37,6.4-5.35a1.7,1.7,0,0,0,0-.22c0-2.28-2-4.1-3.89-5.38h0l-.67-.44c-7.52-4.72-16.59-6.57-25.52-6.57h0" style="fill:#fffdfb"/><path d="M536.25,143.31c-1.67,3.27-4.06,6.11-5.93,9.28a22.56,22.56,0,0,0-1.77,3.71,12.27,12.27,0,0,0-.62,6.77,11.11,11.11,0,0,0,.62,1.9c1.44,3.28,4.48,5.8,7.4,8l.38.29-.34.45a44,44,0,0,0,7-6.06c.43-.5.84-1,1.23-1.57,2.17-3.06,3.34-7.05,2.19-10.62A14.89,14.89,0,0,0,543,150.2c-.46-.5-.93-1-1.4-1.46-1.77-1.81-3.54-3.62-5.33-5.43" style="fill:#628631"/><path d="M539,220.44a6.64,6.64,0,0,0-.33,2.07,7.13,7.13,0,0,0,1.41,4.34h0l-.09.32,1.92.59.48.15a6,6,0,0,1-.15-1.33,6.27,6.27,0,0,1,1.42-4h0L539,220.44"/><path d="M537.39,173.85h-2.64l-6.2,14.27-4.1,9.45.27.12h0a34.35,34.35,0,0,0,7.39-3.2l.08,0h0c2.31-9.32,5.2-20.67,5.2-20.67" style="fill:#d4d4d4"/><path d="M532.11,194.49a34.35,34.35,0,0,1-7.39,3.2h0l.59.14a20.65,20.65,0,0,0,4.36.48h.71l.73,0,.14,0h0c.29-1.18.6-2.45.94-3.77h0l-.08,0"/><path d="M524.45,197.57l-2.18,5-2.53,5.82-.4.93,1.42-.41,7.79-2.23.82-.23h0c-.1,0,.72-3.49,1.88-8.2h0l-.14,0-.73,0h-.71a20.65,20.65,0,0,1-4.36-.48l-.59-.14h0l-.27-.12" style="fill:#d4d4d4"/><path d="M505.81,222.64h0l-1.81.66c.61,1.24,1.27,2.45,1.84,3.68,0-.63,0-1.27,0-1.9,0-.81,0-1.63-.06-2.44h0"/><path d="M505.28,217.11a12.8,12.8,0,0,0-2.58,1.06h0a1.44,1.44,0,0,0-.41.9,4.5,4.5,0,0,0,.43,1.28A25.24,25.24,0,0,0,504,223.3h0l1.81-.66a53.85,53.85,0,0,0-.51-5.53h0"/><path d="M504.3,213.66l-24.06,6.89.86,3c.63-.26,3.37,0,3.41-.3h0c-.2,2.52-.49,5.05-.89,7.54L504,223.3a25.24,25.24,0,0,1-1.29-2.94,4.5,4.5,0,0,1-.43-1.28,1.44,1.44,0,0,1,.41-.9h0a12.8,12.8,0,0,1,2.58-1.06h0l-1-3.45" style="fill:#d4d4d4"/><path d="M484.82,243.76c-2.32,0-2.95.5-2.69,2.91a9.79,9.79,0,0,0,2.91,6,12.14,12.14,0,0,0,8.42,3.21l.75,0a16.22,16.22,0,0,0,4.76-1,20.2,20.2,0,0,0,4.49-2.4,11.89,11.89,0,0,1-2.5-1.53c-1.18-.9-2.28-1.94-3.46-2.84a21.14,21.14,0,0,0-12.58-4.27h-.1" style="fill:#628631"/><path d="M484.51,223.23c0,.26-2.78,0-3.41.3h0l-.09.06a1.42,1.42,0,0,0-.33,1,14.52,14.52,0,0,0,.46,2.47c.24,1.45.46,2.91.71,4.36h0l1.77-.65h0c.4-2.49.69-5,.89-7.54h0"/><path d="M483.62,230.77l-1.77.65h0c.26,1.59.51,3.17.77,4.76.38-1.8.73-3.6,1-5.41h0"/><path d="M480.24,220.55l-2.41.69-25.48,7.29-17.33,5v11.88l1.05,2.82,19-6.95c-.22-.6-.41-1.24-.59-1.86a9.5,9.5,0,0,1-.58-2.45,1.92,1.92,0,0,1,.47-1.32l.07-.06.14-.09,0,0,.2-.1a14.2,14.2,0,0,1,3.48-.93h0c.08,0,.12,0,.13,0,.11,1.82.21,3.63.27,5.46h0l11.2-4.1,12-4.4c-.25-1.45-.47-2.91-.71-4.36a14.52,14.52,0,0,1-.46-2.47,1.42,1.42,0,0,1,.33-1l.09-.06-.86-3" style="fill:#d4d4d4"/><path d="M470.9,238.66h0a20.2,20.2,0,0,0,3.1,9l3.22-1.49a36.84,36.84,0,0,1-6.32-7.53"/><path d="M458.66,239.92h0L455,241.25a39.84,39.84,0,0,0,3.74,8c0-.87,0-1.75,0-2.63q0-3.36-.13-6.72h0"/><path d="M458.25,234.42a14.2,14.2,0,0,0-3.48.93l-.2.1,0,0-.14.09-.07.06a1.92,1.92,0,0,0-.47,1.32,9.5,9.5,0,0,0,.58,2.45c.18.62.37,1.26.59,1.86l3.63-1.33c-.06-1.83-.16-3.64-.27-5.46,0,0-.05,0-.13,0h0"/><path d="M281.91,362.74h1.45c28.38.1,59.75,13.54,78.62,34.75,13.6,15.29,22.43,35.14,22.41,54.93a62,62,0,0,1-4.24,22.7c-8.67,22.05-21.47,36.34-44.6,49.22h0l-.58.33a2.69,2.69,0,0,0-.29.16l-.44.24c-.23.12-.46.24-.68.37l-.34.17c-26.62,14.28-58.46,22-89.47,22h-.16a174.23,174.23,0,0,1-33.41-3.17l-1.11-.22c-11.47-2.34-23.06-6.34-31.38-14.58-9.07-9-13.13-21.85-14.85-34.48a84,84,0,0,1-.66-11.29c0-23.64,7.13-63.3,31.33-88.08.62-.65,1.25-1.28,1.88-1.9,27.57-27.21,54.17-31.2,86.44-31.2h.08m8.89-6.3h-.09c-29.4,0-59.26,5.4-84,18.75l-.14.07-.69.38-.68.38c-9.09,5.08-57,38-57,104.44a149.63,149.63,0,0,0,1.71,22.24c5.36,35.67,31.38,65.42,59.56,87.94l.43.33c17.19,13.66,37.58,25.07,59.46,25.09h1.08c20.63-.35,39.64-10.78,59.81-15.12,15.72-3.38,32.09-3,47.72-6.82,36.71-8.92,65.6-41.57,73.24-78.57a109.78,109.78,0,0,0,2.24-22.33c0-30.08-11.92-60.16-31.74-83a157.53,157.53,0,0,0-21.12-20.31h0C380,373.52,356,363.4,328.54,359.29h0l-.78-.11a254.74,254.74,0,0,0-37-2.74h0" style="fill:#cce7f6"/><path d="M426.75,254.61h0a31.88,31.88,0,0,0,6.69,9.18c.62.6,1.26,1.17,1.93,1.71l4.77-2.21-.09-.19a27.92,27.92,0,0,1-13.3-8.49"/><path d="M431.58,234.47l-6.49,1.87-8.56,2.45-.46.14-.38.1a108.7,108.7,0,0,1,8.08,13.69h0l12.3-4.52L435,245.38h-2l-1.42-10.91" style="fill:#d4d4d4"/><polyline points="435.02 233.5 431.57 234.47 433 245.38 433.44 245.38 435.02 245.38 435.02 233.5"/><path d="M400.61,221.42V365.56q5.76,2.7,11.21,5.86c1.26-1.38,2.7-3.08,4.25-5.14a80.92,80.92,0,0,0,6.65-10.54c.91-1.71,1.81-3.54,2.68-5.49a101.46,101.46,0,0,0,5.32-15.07A131.33,131.33,0,0,0,435,304.33v-.24c0-1.75.05-3.49,0-5.22h0A108.73,108.73,0,0,0,429.92,268h0L417,273.94h0a4.57,4.57,0,0,1-.6,0h-.51l-.24,0h0c-2.33-.22-7.18-1.65-10.38-9.27l0-.08c0-.06,0-.11-.07-.17a1.34,1.34,0,0,1-.07-.18,1.22,1.22,0,0,1-.07-.17v0l-.17-.45-.18-.5h0c0-.08-.05-.15-.07-.22l0-.13-.06-.16-.07-.22,0-.07a1.72,1.72,0,0,1-.07-.21l0-.07-.06-.18c0-.12-.07-.23-.1-.36s-.07-.21-.1-.32a1.94,1.94,0,0,0,0-.2c-.08-.31-.17-.62-.24-.91h0a46,46,0,0,1-1.89-11.2c0-4.65,1.71-6.36,4.11-7.05l9.67-2.76a113.21,113.21,0,0,0-15.08-17.61m0-92.73V145a105.27,105.27,0,0,0,0-16.28m-74.15,82.58h0c12.13,0,20.63.57,20.63.57,51.17,17.06,52.2,68.13,52.2,85.29v4.15c0,13.64-.63,23-24.67,32.13l-.21.07,0,0-.18.06-.77.28-.36.13-.28.1-.11,0-.23.08c-2.67.89-5.65,1.7-8.85,2.43l-.32.08-.21,0c-19.4,4.34-47,5.89-66.69,6.09l-4.23,0h0c-7.38,0-13.3-.2-16.73-.52h0C260.9,341,217,339,217,301.69h0c0-37.33,12.55-51.53,31.38-73.33.06-.07.12-.13.17-.2l.11-.12.13-.14c13-14.17,52.31-16.59,77.12-16.62h.59m9-149.35,1.09,2.36-.16.86c23.29,3.94,47.65,17,50,53.54.16,2.49.23,4.9.24,7.25,0,26.12-9.62,44.3-23.38,56.44s-31.9,18.32-48.55,20.22a119.35,119.35,0,0,1-13.5.79h-.09c-26.56,0-47-9.72-55.17-26.55l-.16-.33-.24-.52h0c4,9.13,10.73,19,22.5,29.37-8,2.35-26.27,12.17-42.53,39.52Q222.52,250,220,255c-1.67,3.34-3.15,6.61-4.47,9.86q-1.75,4.35-3.14,8.58A118.07,118.07,0,0,0,207.12,298a106.19,106.19,0,0,0-.47,16,96.18,96.18,0,0,0,3,20.06c5.95,22.46,11.75,28.67,11.75,28.67C244.72,352.27,272.22,347,301.86,347c21,0,41.72,1.79,61.22,6.1a180.42,180.42,0,0,1,37.53,12.51V221.42a111.6,111.6,0,0,0-30.7-20.81l-1.3-.25A69.49,69.49,0,0,0,396,167.24,81.49,81.49,0,0,0,400.61,145V128.69c-1.48-18.6-8.34-38.74-25.75-52a68.45,68.45,0,0,0-11.25-6.91l-.32-.16a84.68,84.68,0,0,0-27.82-7.74" style="fill:#a8d1e4"/><path d="M415.69,239h0L406,241.79c-2.4.69-4.11,2.4-4.11,7.05A46,46,0,0,0,403.8,260l20-7.32A108.7,108.7,0,0,0,415.69,239h0" style="fill:#d4d4d4"/><path d="M313.78,218.62h0c9.31,0,18.47,1.83,29.32,7.5l1,.54h0c8.84,4.78,15.66,16,20.28,24.57,6.09,11.34,10.93,23.6,11.79,36.44.06.89.09,1.8.09,2.7,0,3.56-.58,7.14-2.58,10s-5.05,4.6-8.2,5.91c-.82.34-1.64.64-2.47.93a82.62,82.62,0,0,1-13.05,3l-.53.09-.53.08q-14.82,2.44-29.82,3.61-13.71,1.07-27.46,1.08h-.11q-10.09,0-20.17-.58l-1.93-.12c-1.68-.11-3.38-.23-5.09-.38-11.37-1-22.85-3.21-32-9.87a12.11,12.11,0,0,1-3.62-3.72,13.57,13.57,0,0,1-1.31-5.81c-.15-2.34-.23-4.7-.24-7.05,0-12,2-24.06,7.33-34.76,6.24-12.49,16.27-20.8,29.15-25.66,9.25-3.49,9.25-3.49,28.11-6.32l.44-.06c7.72-1.16,14.63-2.14,21.45-2.14h.06m12.68-7.35h-.59c-24.81,0-64.1,2.46-77.12,16.62l-.13.14-.11.12c0,.07-.11.13-.17.2-18.83,21.8-31.38,36-31.38,73.33h0C217,339,260.9,341,275.43,342.32h0c3.43.32,9.35.52,16.73.52h0l4.23,0c19.69-.2,47.3-1.75,66.69-6.09l.21,0,.32-.08c3.2-.73,6.18-1.54,8.85-2.43l.23-.08.11,0,.28-.1.36-.13.77-.28.18-.06,0,0,.21-.07c24-9.1,24.67-18.49,24.67-32.13v-2.23h0v-1.92c0-17.16-1-68.23-52.2-85.29,0,0-8.5-.56-20.63-.57h0" style="fill:#cce7f6"/><path d="M363.12,615.55h-.06a80,80,0,0,0-14.66,1.77l-.36.07c-24.16,4.68-48.85,11.05-69.73,23.56h0a330.94,330.94,0,0,0,33.13,1.65c30,0,59.59-3.37,85.19-12.69h0a34.9,34.9,0,0,1-5.79-2.42c-5.67-3-10.47-7.61-16.44-10l-.84-.32h0a30.69,30.69,0,0,0-10.38-1.64h-.05" style="fill:#cce7f6"/><path d="M311.7,61.9A110.58,110.58,0,0,0,285,67.33l.21,1.47.37,1.28.59-.17.15,0,.86-.25h0a103.06,103.06,0,0,1,26.49-3.52h.41c2.05,0,3.24.07,3.24.07h0C319.22,66,321,66,322.73,66h0c42.74,0,52.91,38,51.78,61.52,0,.1,0,.2,0,.3v.14h0c-.48,8.88-3.84,21.24-10.92,32.91l-.32.52c-10.78,17.46-29.93,33.22-60.22,33.24H303a96.79,96.79,0,0,1-14.85-1.18h-.09l-.43-.07c-36.94-5.87-48.12-29-48.12-52.07,0-1.64.05-3.28.16-4.91l-1.43-.52h0a108.2,108.2,0,0,0,1.57,20.49,87.06,87.06,0,0,0,4.88,17.59c.26.7.55,1.38.87,2.06h0l.24.52.16.33c8.16,16.83,28.61,26.54,55.17,26.55h.09a119.35,119.35,0,0,0,13.5-.79c16.65-1.9,34.7-8,48.55-20.22s23.38-30.32,23.38-56.44c0-2.35-.08-4.76-.24-7.25-2.38-36.58-26.74-49.6-50-53.54h0L335.23,65a114.25,114.25,0,0,0-17.53-1.32h-.13c-1.65,0-3.26,0-4.82.09l-.45,0h0l-.6-1.84" style="fill:#cce7f6"/><path d="M224.47,456.73h0a8.59,8.59,0,1,1,17.17,0h0a8.59,8.59,0,1,1-17.17,0h0m3.07-44h0a8.59,8.59,0,0,1,17.18,0h0a8.59,8.59,0,0,1-17.18,0h0m18.94-35.24h0a8.59,8.59,0,0,1,17.18,0h0a8.59,8.59,0,0,1-17.18,0h0m35.43-14.71h-.08c-32.26,0-58.88,4-86.44,31.2-.63.62-1.26,1.25-1.88,1.9-24.2,24.78-31.32,64.44-31.33,88.08a84,84,0,0,0,.66,11.29c1.72,12.63,5.78,25.52,14.85,34.48,8.32,8.24,19.91,12.24,31.38,14.58l1.11.22a174.23,174.23,0,0,0,33.41,3.17h.16c31,0,62.85-7.77,89.47-22l.34-.17c.22-.13.45-.25.68-.37l.44-.24a2.69,2.69,0,0,1,.29-.16l.58-.33h0c23.13-12.88,35.93-27.17,44.6-49.22a62,62,0,0,0,4.24-22.7c0-19.79-8.81-39.64-22.41-54.93-18.87-21.21-50.24-34.65-78.62-34.75h-1.45" style="fill:#fffdfb"/><path d="M257.5,299.71h0a7.93,7.93,0,0,1,15.86,0h0a7.93,7.93,0,0,1-15.86,0h0m1.32-31h0a8.59,8.59,0,1,1,17.18,0h0a8.59,8.59,0,1,1-17.18,0h0m14.31-29.07h0a6.83,6.83,0,1,1,13.65,0h0a6.83,6.83,0,1,1-13.65,0h0m40.65-21h-.06c-6.82,0-13.73,1-21.45,2.14l-.44.06c-18.86,2.83-18.86,2.83-28.11,6.32-12.88,4.86-22.91,13.17-29.15,25.66-5.33,10.7-7.34,22.76-7.33,34.76,0,2.35.09,4.71.24,7.05a13.57,13.57,0,0,0,1.31,5.81,12.11,12.11,0,0,0,3.62,3.72c9.13,6.66,20.61,8.87,32,9.87,1.71.15,3.41.27,5.09.38l1.93.12q10.06.57,20.17.58h.11c9.16,0,18.33-.37,27.46-1.08q15-1.17,29.82-3.61l.53-.08.53-.09a82.62,82.62,0,0,0,13.05-3c.83-.29,1.65-.59,2.47-.93,3.15-1.31,6.25-3.1,8.2-5.91s2.58-6.45,2.58-10c0-.9,0-1.81-.09-2.7-.86-12.84-5.7-25.1-11.79-36.44-4.62-8.6-11.44-19.79-20.28-24.57h0l-1-.54c-10.85-5.67-20-7.5-29.32-7.5h0" style="fill:#fffdfb"/><path d="M311.41,649.55h-.18c-7.52.05-15.36,3-22,6.1h0c-1.84.86-3.91,2.29-3.9,4.23,0,.11,0,.22,0,.34.28,2.12,2.79,3,4.88,3.49h0a147.15,147.15,0,0,0,30.48,3.61h.11a85.65,85.65,0,0,0,23.52-3.08l.44-.12.37-.11a9.41,9.41,0,0,0,3.5-1.61,3.79,3.79,0,0,0,1.41-2.78A2.48,2.48,0,0,0,350,659c-.42-1.61-2.18-2.42-3.75-3-10.07-3.56-20-4.26-30.35-6.07h0l-.53-.08a25.58,25.58,0,0,0-3.92-.29h0" style="fill:#fffdfb"/><path d="M324,61.31h0c-1.16,0-2.33,0-3.52.06l-.63,0h0c-2.79.1-5.49.26-8.1.51l.6,1.84h0l.45,0c1.56,0,3.16-.09,4.82-.09h.13A114.25,114.25,0,0,1,335.23,65l1.17.19.16-.86-1.09-2.36h0a108,108,0,0,0-11.35-.61H324" style="fill:#a8d1e4"/><path d="M309.13,4.76l-.23.1a3.55,3.55,0,0,1,.17.64,3,3,0,0,1,.05.52,4.17,4.17,0,0,1-.68,2.18c-1.59,2.64-5.88,5.31-11.71,7.36l15,46.34h0c2.61-.25,5.31-.41,8.1-.51h0l.63,0c1.19,0,2.36-.06,3.52-.06h.17a108,108,0,0,1,11.35.61h0L310.71,8.2l-1.58-3.44" style="fill:#628631"/><path d="M311.44,114.75a5.92,5.92,0,0,0-5.92,5.91h0a5.92,5.92,0,1,0,11.84,0h0a5.92,5.92,0,0,0-5.92-5.91" style="fill:#45190d"/><path d="M296.73,15.56a63.3,63.3,0,0,1-10.48,2.67c-2.77.47-5.44.89-7.95,1.2L285,67.33A110.58,110.58,0,0,1,311.7,61.9h0l-15-46.34" style="fill:#628631"/><path d="M293.78,0c-.68,0-1.37,0-2.07,0l5,15.52h0c5.83-2.05,10.12-4.72,11.71-7.36A4.17,4.17,0,0,0,309.12,6a3,3,0,0,0-.05-.52,3.55,3.55,0,0,0-.17-.64h0a3.66,3.66,0,0,0-.55-1c-1.41-1.8-4.68-3-9.06-3.59A44.94,44.94,0,0,0,293.78,0" style="fill:#628631"/><path d="M291.71,0c-1.27,0-2.59.14-3.94.28s-2.93.35-4.44.6a40,40,0,0,0-7.37,2l2.34,16.52h0c2.51-.31,5.18-.73,7.95-1.2a63.3,63.3,0,0,0,10.48-2.67h0L291.71,0" style="fill:#628631"/><path d="M280,232.76a6.83,6.83,0,0,0-6.83,6.83h0a6.83,6.83,0,1,0,13.65,0h0a6.82,6.82,0,0,0-6.82-6.83" style="fill:#45190d"/><path d="M276,2.91q-.7.25-1.38.54a35.61,35.61,0,0,0-8.22,4.75c-3.52,2.77-5.6,5.75-5.6,8a5.27,5.27,0,0,0,0,.57h0c.41,2.44,3.57,3.36,8.36,3.36h.1a67.66,67.66,0,0,0,7.87-.56l.25,0,.36-.05.56-.07h0L276,2.91" style="fill:#93c01f"/><path d="M272.13,108.77a6,6,0,0,0-5.95,6h0a5.95,5.95,0,0,0,11.89,0h0a5.94,5.94,0,0,0-5.94-6" style="fill:#45190d"/><path d="M275.81,125.54l-.23,0a1.31,1.31,0,0,0-.86.75,3.29,3.29,0,0,0-.27,1.14,18.36,18.36,0,0,0-.09,2c0,1.1.07,2.19.14,3.28,0,.27.11.61.37.65h.06c.2,0,.37-.2.48-.4a10,10,0,0,0,1.26-4.25c0-.25.06-.7.06-1.19,0-.92-.15-2-.92-2h0" style="fill:#cd4c16"/><path d="M267.41,260.07a8.59,8.59,0,0,0-8.59,8.59h0a8.59,8.59,0,1,0,17.18,0h0a8.59,8.59,0,0,0-8.59-8.59" style="fill:#45190d"/><path d="M271.67,129.44h0a2.33,2.33,0,0,0-.9.21h0a1.48,1.48,0,0,0-.78.81,1.06,1.06,0,0,0,0,.31.88.88,0,0,0,.35.7l.06,0,.17.07h0a.8.8,0,0,0,.15,0h.11l.22,0,.2,0,.17-.06.06,0h0a1.78,1.78,0,0,0,1-.88.14.14,0,0,0,0-.06c.29-.77-.18-1-.75-1.05h0" style="fill:#f8b562"/><path d="M265.43,291.78a7.93,7.93,0,0,0-7.93,7.93h0a7.93,7.93,0,0,0,15.86,0h0a7.94,7.94,0,0,0-7.93-7.93" style="fill:#45190d"/><path d="M267.49,126.7h-.13a8.82,8.82,0,0,0-2.61.39h0a2,2,0,0,0-1.27.91,1.12,1.12,0,0,0-.09.44,1.49,1.49,0,0,0,.54,1.12,2.05,2.05,0,0,0,.69.39,3.57,3.57,0,0,0,.93.18H266a5.56,5.56,0,0,0,1.4-.19,6,6,0,0,0,2.33-1.23l.09-.08h0l.12-.12a.77.77,0,0,0,.15-.49,1.13,1.13,0,0,0-.36-.81,2.37,2.37,0,0,0-1.49-.5h0l-.49,0h-.29" style="fill:#f8b562"/><path d="M264.12,78.37h0c-16.88,13-23.22,31.25-25.15,47.1.73,0,1.44,0,2.17-.06h0A87.52,87.52,0,0,1,251,98.86a73.94,73.94,0,0,1,13.53-16.74h0l-.2-.21-.2-3.54" style="fill:#cce7f6"/><path d="M255.07,368.86a8.59,8.59,0,0,0-8.59,8.59h0a8.59,8.59,0,0,0,17.18,0h0a8.59,8.59,0,0,0-8.59-8.59" style="fill:#45190d"/><path d="M260.53,124.43h0l-1.27,0h0l-.06.13a2.15,2.15,0,0,0-.08.62c0,.11,0,.22,0,.33.06,1.27.13,2.54.18,3.81a1.74,1.74,0,0,0,.13.6.49.49,0,0,0,.36.32l.1,0h0a.63.63,0,0,0,.44-.27.16.16,0,0,0,0-.07,1.82,1.82,0,0,0,.17-.56,19.5,19.5,0,0,0,.23-2.86,5.74,5.74,0,0,0-.29-2.11h0" style="fill:#cd4c16"/><path d="M259.94,124h-.08a.85.85,0,0,0-.6.51h0l1.27,0h0l0-.05a.16.16,0,0,0,0-.07A.61.61,0,0,0,260,124h-.05" style="fill:#fffdfb"/><path d="M253.28,124.76h0l-1.28.07h-.21a12,12,0,0,0-.44,3.15c0,.36,0,.71,0,1.07a1.3,1.3,0,0,0,.53,1.13.82.82,0,0,0,.29.07h0a1,1,0,0,0,.66-.29,1.33,1.33,0,0,0,.19-.24,3,3,0,0,0,.24-1.32c0-1,0-2.1,0-3.16a.49.49,0,0,0,0-.12,1.57,1.57,0,0,0-.05-.37h0" style="fill:#cd4c16"/><path d="M252.74,124.29a.66.66,0,0,0-.3.07.85.85,0,0,0-.36.29h0l-.08.18h0l1.28-.07h0a.63.63,0,0,0-.19-.36.56.56,0,0,0-.32-.11h0" style="fill:#fffdfb"/><path d="M251.79,124.84c-3.55.21-7.12.44-10.65.57h0c-.3,1.49-.56,3-.78,4.56-.08.51-.15,1-.21,1.54l.78.1,11,1.19.27-2.54a.82.82,0,0,1-.29-.07,1.3,1.3,0,0,1-.53-1.13c0-.36,0-.71,0-1.07a12,12,0,0,1,.44-3.15h0" style="fill:#f08429"/><path d="M236.13,404.1a8.59,8.59,0,0,0-8.59,8.59h0a8.59,8.59,0,0,0,17.18,0h0a8.58,8.58,0,0,0-8.59-8.59" style="fill:#45190d"/><path d="M241.14,125.41c-.73,0-1.44,0-2.17.06h0c-.25,2-.42,3.92-.54,5.8.57.1,1.15.18,1.72.24h0c.06-.51.13-1,.21-1.54.22-1.54.48-3.07.78-4.56h0" style="fill:#f08429"/><path d="M238.43,131.27h0c0,.67-.08,1.33-.09,2l1.52.89h0c.08-.88.17-1.75.29-2.61h0c-.57-.06-1.15-.14-1.72-.24h0" style="fill:#df6216"/><path d="M238.34,133.23h0c-.05.89-.08,1.76-.08,2.61h0l1.43.52c0-.75.09-1.49.17-2.24h0l-1.52-.89h0" style="fill:#ce4b16"/><path d="M233.05,448.14a8.58,8.58,0,0,0-8.58,8.59h0a8.59,8.59,0,1,0,17.17,0h0a8.58,8.58,0,0,0-8.59-8.59" style="fill:#45190d"/><path d="M15.48,659.21a4,4,0,0,1,.45-1.87c1-1.89,3.26-2.65,5.35-3.11a54.36,54.36,0,0,1,11-1.28l.89-.22A32,32,0,0,1,47.46,658c1.58,1.08,3.22,2.7,3.22,4.51a3.1,3.1,0,0,1-.09.73c-.52,2-2.9,2.86-4.94,3.25h0l-1,.17a53,53,0,0,1-9.07.78h-.11a54,54,0,0,1-11.75-1.3l-.27-.06a13,13,0,0,1-6.06-2.7,6,6,0,0,1-1.93-4.19m135-49.26h0c1.05,0,2.1,0,3.16.06,14.07.47,28.46,4.63,38.93,14.08a3.51,3.51,0,0,1,1.4,2.2v.13c0,1.38-1.5,2.29-2.82,2.78l-.59.22-.38.14a48.23,48.23,0,0,1-16,2.38H174c-3.8,0-7.64-.28-11.43-.63l-2.79-.27c-19.56-1.91-39.1-4.09-58.48-7.27a7.67,7.67,0,0,1-3-.91A2.81,2.81,0,0,1,97,620.65a2.1,2.1,0,0,1,0-.43c.26-1.18,1.5-1.81,2.61-2.26,7.68-3.05,16.39-3.5,24.47-5.07l.35-.07A137.49,137.49,0,0,1,150.37,610h.07m.3-12.49h-.05a145.92,145.92,0,0,0-17.86,1.14l-.44.06c-19.21,2.43-37.84,8.2-56.17,14.5-26.36,7.07-50.49,24.63-66.85,46.48-2,2.73-4,6.09-4,9.32A6.93,6.93,0,0,0,6,672c1.87,3.89,6.85,4.92,11.14,5.22l.44,0,.35,0h0q3.86.24,7.69.24h.1c22.15,0,44.07-5.87,65.68-11.33l.72-.18.5-.13h0l.35-.09.42-.11h0l2.75-.68c17.52-4.34,35.52-8.16,53.39-8.18h.12a108,108,0,0,1,19.38,1.68l.53.1.38.07h0c12.84,2.46,25,7.52,37.57,11.2h0a43.92,43.92,0,0,0,11.94,2h.11c4.22,0,8.22-1,11.26-3.85l.21-.2.08-.07c3-3,4.16-7,4.17-11.23a32.48,32.48,0,0,0-2.43-11.67,63.82,63.82,0,0,0-8.56-15.11h0c-13.73-4.71-26.15-10.91-36.14-18.85a99.37,99.37,0,0,1-11.34-10.58h0l-1.63-.37a117.64,117.64,0,0,0-24.44-2.48h-.07" style="fill:#cce7f6"/><path d="M212.59,251.89l-1.23,2.93c-1.06,2-2.12,3.94-3.12,5.95l7.33,4.08h0c1.32-3.25,2.8-6.52,4.47-9.86l-7.45-3.1" style="fill:#d4d4d4"/><path d="M176.88,600.31h0a99.37,99.37,0,0,0,11.34,10.58c10,7.94,22.41,14.14,36.14,18.85h0a79.19,79.19,0,0,0-33.31-25,92.72,92.72,0,0,0-14.17-4.44" style="fill:#cce7f6"/><path d="M208.24,260.77a66.1,66.1,0,0,0-3.45,8l7.64,4.69q1.38-4.23,3.14-8.58h0l-7.33-4.08" style="fill:#b6b5b4"/><path d="M203.28,248a50.09,50.09,0,0,1-6.54,6.39l9.46,5.26h0c1.75-1.7,3.51-3.32,5.16-4.83h0l1.23-2.93L203.28,248" style="fill:#d4d4d4"/><path d="M211.36,254.82c-1.65,1.51-3.41,3.13-5.16,4.83l2,1.12h0c1-2,2.06-4,3.12-5.95h0"/><path d="M206.2,259.65h0c-2.12,2-4.22,4.17-6.06,6.25l4.61,2.82,0,0a66.1,66.1,0,0,1,3.45-8h0l-2-1.12"/><path d="M185.54,248.16l-.31.55a18.13,18.13,0,0,0-4.09,5.54l19,11.65c1.84-2.08,3.94-4.21,6.06-6.25h0l-9.46-5.26a21.06,21.06,0,0,1-1.93,1.33h0c.43-.57.84-1.15,1.21-1.74l-10.48-5.82" style="fill:#b6b5b4"/><path d="M199.4,246.39l-.16.37A26.76,26.76,0,0,1,196,254l.72.41h0a50.09,50.09,0,0,0,6.54-6.39l-3.88-1.61"/><path d="M176.54,236.87a23.81,23.81,0,0,0-4.8,3.62l13.8,7.67L196,254h0a26.76,26.76,0,0,0,3.22-7.22l.16-.37-22.86-9.52" style="fill:#d4d4d4"/><path d="M196.77,216.58a20.72,20.72,0,0,0-16.36,16.51l.23.3c-.19.15-.36.28-.55.41a19.84,19.84,0,0,0,5.72.88,15.72,15.72,0,0,0,5-.8,12.59,12.59,0,0,0,7.8-7.14,9.79,9.79,0,0,0-1.88-10.16" style="fill:#628631"/><path d="M196,254h0c-.37.59-.78,1.17-1.21,1.74h0a21.06,21.06,0,0,0,1.93-1.33h0L196,254"/><path d="M150.44,610h-.07a137.49,137.49,0,0,0-25.89,2.87l-.35.07c-8.08,1.57-16.79,2-24.47,5.07-1.11.45-2.35,1.08-2.61,2.26a2.1,2.1,0,0,0,0,.43,2.81,2.81,0,0,0,1.35,2.21,7.67,7.67,0,0,0,3,.91c19.38,3.18,38.92,5.36,58.48,7.27l2.79.27c3.79.35,7.63.63,11.43.63h.12a48.23,48.23,0,0,0,16-2.38l.38-.14.59-.22c1.32-.49,2.81-1.4,2.82-2.78v-.13a3.51,3.51,0,0,0-1.4-2.2c-10.47-9.45-24.86-13.61-38.93-14.08-1.06,0-2.11-.06-3.16-.06h0" style="fill:#fffdfb"/><path d="M163.18,235.74l-.21.39c-1.38,1.49-2.74,3-4.12,4.48l19.06,11.68h0a41.68,41.68,0,0,1,7.32-3.58h0l.31-.55-13.8-7.67c-.51.51-1,1-1.48,1.6.24-.56.57-1.21.94-1.89l-8-4.46" style="fill:#b6b5b4"/><path d="M174.25,256.67a24.37,24.37,0,0,0-7.66,1.23c-.66.21-8.27,3.81-7.8,4.42a19.18,19.18,0,0,0,14.83,7.06,17.14,17.14,0,0,0,3.77-.41,13,13,0,0,0,6.38-3.21c2-1.95,3.72-5.14.8-6.72a21.65,21.65,0,0,0-8.93-2.33c-.46,0-.92,0-1.39,0" style="fill:#628631"/><path d="M185.23,248.71a41.68,41.68,0,0,0-7.32,3.58h0l3.23,2a18.13,18.13,0,0,1,4.09-5.54h0"/><path d="M174,235.81a44.59,44.59,0,0,0-2.82,4.39l.54.29a23.81,23.81,0,0,1,4.8-3.62L174,235.81"/><path d="M136.08,217.47l-.41.76c-.57.43-1.14.85-1.69,1.29l29.2,16.22,8,4.46a44.59,44.59,0,0,1,2.82-4.39l-16.69-6.95-1.31-.7-8.93-4.8-11-5.89" style="fill:#d4d4d4"/><path d="M164.81,155.5c-2.71,3.46-6.55,5.82-10.19,8.27s-7.31,5.16-9.41,9-2.18,9.15.93,12.25l.14.37-.42.16c4.52-.45,9.11-.91,13.34-2.62s8.08-4.86,9.54-9.17a15.93,15.93,0,0,0-.08-9.47,47.83,47.83,0,0,0-3.85-8.81" style="fill:#628631"/><path d="M134,219.52a15.39,15.39,0,0,0-3.53,3.63l0,0,12.37,7.57,8.16,5h0l4.36,2.67.31.2h0a20.25,20.25,0,0,1,7.35-2.51h0l.21-.39L134,219.52" style="fill:#b6b5b4"/><path d="M163,236.13a20.25,20.25,0,0,0-7.35,2.51h0l3.23,2c1.38-1.5,2.74-3,4.12-4.48h0"/><path d="M145,185.91a3.39,3.39,0,0,0-2.16,1.15l4.3,36.3,8.93,4.8v0s-8.92-40.41-8.93-41.08a3.38,3.38,0,0,0-2.14-1.15" style="fill:#d4d4d4"/><path d="M142.79,230.77h0v0L130,232.68a63.79,63.79,0,0,0,4.29,4.77h0L151,235.77h0l-8.16-5" style="fill:#b6b5b4"/><path d="M116.77,207.14h0c-.47.56-1,1.25-1.5,2l17,9.43h0a22.2,22.2,0,0,1,3.41-.32l.41-.76-19.31-10.33" style="fill:#d4d4d4"/><path d="M132.26,218.55h0a50.85,50.85,0,0,0-6.8,1.61l5,3,0,0a15.39,15.39,0,0,1,3.53-3.63l-1.72-1"/><path d="M130,232.68l-.33,0a16.09,16.09,0,0,0-.29,3.09,15.27,15.27,0,0,0,.16,2.13h0l4.75-.49h0a63.79,63.79,0,0,1-4.29-4.77h0"/><path d="M115.27,209.12h0a34.08,34.08,0,0,0-2.18,3.46l12.37,7.58a50.85,50.85,0,0,1,6.8-1.61h0l-17-9.43" style="fill:#b6b5b4"/><path d="M129.71,232.72,100,237.1h-.16c-.33,0-1,.14-1.16,1.38-.16,1.49.68,2.3,2.35,2.3l.46,0c1.06-.09,15.2-1.52,28.07-2.81h0a15.27,15.27,0,0,1-.16-2.13,16.09,16.09,0,0,1,.29-3.09" style="fill:#b6b5b4"/><path d="M112.72,207.7h0a12.66,12.66,0,0,0-2,3.45l2.34,1.43a34.08,34.08,0,0,1,2.18-3.46h0l-2.55-1.42"/><path d="M101.42,201.43h0A14.34,14.34,0,0,0,99,204l11.76,7.2a12.66,12.66,0,0,1,2-3.45h0l-11.3-6.27" style="fill:#b6b5b4"/><path d="M98.66,199.88a9.78,9.78,0,0,0-2.14,2.56L99,204a14.34,14.34,0,0,1,2.43-2.52h0l-2.76-1.55"/><path d="M87.71,192a2.15,2.15,0,0,0-1.74.81l12.69,7h0a14,14,0,0,1,1.9-1.44l-10.45-5.6a4.93,4.93,0,0,0-2.4-.81" style="fill:#d4d4d4"/><path d="M86,192.84A2.19,2.19,0,0,0,86,196l10.55,6.46a9.78,9.78,0,0,1,2.14-2.56h0l-12.69-7" style="fill:#b6b5b4"/><path d="M83.57,226.05A16.43,16.43,0,0,0,74.15,229a38.11,38.11,0,0,0,5,7.86,12.81,12.81,0,0,0,7.94,4.49c.33,0,.65,0,1,0a14.49,14.49,0,0,0,6.5-1.81c2.11-1.08,4.73-1.82,3.57-4.37a16.06,16.06,0,0,0-14.55-9.15" style="fill:#628631"/><path d="M33.18,652.73l-.89.22a54.36,54.36,0,0,0-11,1.28c-2.09.46-4.36,1.22-5.35,3.11a4,4,0,0,0-.45,1.87,6,6,0,0,0,1.93,4.19,13,13,0,0,0,6.06,2.7l.27.06a54,54,0,0,0,11.75,1.3h.11a53,53,0,0,0,9.07-.78l1-.17h0c2-.39,4.42-1.23,4.94-3.25a3.1,3.1,0,0,0,.09-.73c0-1.81-1.64-3.43-3.22-4.51a32,32,0,0,0-14.28-5.29" style="fill:#fffdfb"/><path d="M363.61,336.61c1.6-.36,3.15-.75,4.62-1.15-1.47.4-3,.79-4.62,1.15Z" style="fill:#755735"/><path d="M363.61,160.84h0c7.08-11.67,10.44-24,10.92-32.91C374.05,136.81,370.68,149.17,363.61,160.84Z" style="fill:#755735"/><path d="M363.08,336.73l.21,0h0l-.21,0Z" style="fill:#a9d2e6"/><path d="M132.83,598.6a145.92,145.92,0,0,1,17.86-1.14A145.92,145.92,0,0,0,132.83,598.6Z" style="fill:#cee8f7"/><path d="M124.48,612.82A137.49,137.49,0,0,1,150.37,610,137.49,137.49,0,0,0,124.48,612.82Z" style="fill:#cee8f7"/><path d="M230.89,668c-3,2.83-7,3.84-11.26,3.85C223.85,671.86,227.85,670.85,230.89,668Z" style="fill:#cee8f7"/><path d="M35.6,667.46a53,53,0,0,0,9.07-.78A53,53,0,0,1,35.6,667.46Z" style="fill:#cee8f7"/><path d="M138.52,698.6c20.42,0,39.07-1,56.62-2.63-48.1-.72-96.19-2-144.28-3.31A676.37,676.37,0,0,0,138.52,698.6Z" style="fill:#cee8f7"/><path d="M25.77,677.51c20.74,0,41.27-5.14,61.53-10.28C67,672.37,46.51,677.49,25.77,677.51Z" style="fill:#cee8f7"/><path d="M348.4,617.32a80,80,0,0,1,14.66-1.77A80,80,0,0,0,348.4,617.32Z" style="fill:#cee8f7"/><path d="M149.6,656.81c-17.87,0-35.87,3.84-53.39,8.18C113.73,660.65,131.73,656.83,149.6,656.81Z" style="fill:#cee8f7"/><path d="M344.34,664.24a85.65,85.65,0,0,1-23.52,3.08A85.65,85.65,0,0,0,344.34,664.24Z" style="fill:#cee8f7"/><path d="M410,631.86a58.37,58.37,0,0,0,8.57-.68A58.37,58.37,0,0,1,410,631.86Z" style="fill:#cee8f7"/><path d="M174.15,631.94a48.23,48.23,0,0,0,16-2.38A48.23,48.23,0,0,1,174.15,631.94Z" style="fill:#cee8f7"/><path d="M243.75,547.66c31,0,62.85-7.77,89.47-22C306.6,539.89,274.76,547.63,243.75,547.66Z" style="fill:#cee8f7"/><path d="M291.63,654.56c6.09-2.67,13-5,19.6-5C304.6,649.59,297.72,651.89,291.63,654.56Z" style="fill:#cee8f7"/><path d="M611.15,649a24.68,24.68,0,0,0-12.23,3.11A24.68,24.68,0,0,1,611.15,649Z" style="fill:#cee8f7"/><path d="M586.11,646.41c1.89-4.79,5.62-6.12,9.79-6.13C591.73,640.29,588,641.62,586.11,646.41Z" style="fill:#cee8f7"/><path d="M363.89,674c-17.75,2.68-35.84,4.9-53.73,4.9C328.05,678.88,346.13,676.66,363.89,674Z" style="fill:#cee8f7"/><path d="M518.22,598.18a93.58,93.58,0,0,0-26.79,4.23A93.58,93.58,0,0,1,518.22,598.18Z" style="fill:#cee8f7"/><path d="M547.05,673.3a70.16,70.16,0,0,1-19.1,2.48A70.16,70.16,0,0,0,547.05,673.3Z" style="fill:#cee8f7"/><path d="M443.93,664.93c-20.78,0-41.63,3.05-62.35,6.29C402.3,668,423.15,664.94,443.93,664.93Z" style="fill:#cee8f7"/></g></g></svg>