<svg id="Слой_1" data-name="Слой 1" xmlns="http://www.w3.org/2000/svg" viewBox="0 0 667.01 705.89">
  <g class="snowman">
    <path d="M239,125.51c-.25,2-.42,3.92-.54,5.81a11.36,11.36,0,0,1-5.68-2.29,6.61,6.61,0,0,1-2.09-3.31c1.37-.06,3-.1,4.76-.1C236.69,125.57,237.87,125.55,239,125.51Z" transform="translate(3.71 0.64)" style="fill:#f08429"/>
    <path d="M238.41,133.27a51.53,51.53,0,0,1-4.72-3s-1.3-.14-2-2.44h0a6.12,6.12,0,0,0,1.13,1.2,11.32,11.32,0,0,0,5.67,2.29C238.46,132,238.42,132.64,238.41,133.27Z" transform="translate(3.71 0.64)" style="fill:#df6216"/>
    <path d="M233.69,130.25a51.53,51.53,0,0,0,4.72,3c0,.89-.08,1.76-.08,2.61l-2.51-.92c-6.1-2.37-13.64-6.1-13.84-6.46-.52-1.09.58-2.45,8.79-2.81a6.45,6.45,0,0,0,1,2.12h0C232.39,130.11,233.69,130.25,233.69,130.25Z" transform="translate(3.71 0.64)" style="fill:#ce4b16"/>
    <path d="M272.51,130.59c.53-1.27-1-1.26-1.69-.9a1.44,1.44,0,0,0-.78.81.91.91,0,0,0,.3,1,1.31,1.31,0,0,0,1.16,0A1.84,1.84,0,0,0,272.51,130.59Zm-19.15-5.75c2-.1,4-.21,6-.29a.29.29,0,0,0-.05.13,2.58,2.58,0,0,0-.08,1c.06,1.27.13,2.54.18,3.81,0,.37.12.85.49.93a.58.58,0,0,0,.58-.26,1.75,1.75,0,0,0,.22-.63c.11-.67.49-3.77-.07-5a104.74,104.74,0,0,1,14.06.38l1.3.15-.07.58a1,1,0,0,0-.24,0,1.32,1.32,0,0,0-.85.75,3.22,3.22,0,0,0-.27,1.14,30.57,30.57,0,0,0,.05,5.24c0,.27.11.61.37.65H275v1.52a65.83,65.83,0,0,1-8.3-.52L252,132.84l.28-2.54a1.05,1.05,0,0,0,.84-.53,2.73,2.73,0,0,0,.24-1.32v-3.16A1.7,1.7,0,0,0,253.36,124.84Zm15,2a9.61,9.61,0,0,0-3.54.3,1.94,1.94,0,0,0-1.27.91,1.36,1.36,0,0,0,.45,1.56,2.7,2.7,0,0,0,1.61.57,5.88,5.88,0,0,0,4.31-1.49l.12-.12a1,1,0,0,0-.21-1.3,2.38,2.38,0,0,0-1.48-.5Z" transform="translate(3.71 0.64)" style="fill:#f08429"/>
    <path d="M239.93,134.16a75,75,0,0,0,30.21,8.4c4.52.34,9.27.28,13.33-1.74a12,12,0,0,0,5.94-6.61,19.5,19.5,0,0,1-.86,9,7.85,7.85,0,0,1-4,5c-2.25,1-4.85.51-7.26,0-5.14-1.15-14.3-3.86-23.59-6.94q-2.34-.77-4.67-1.56c-3.21-1.1-6.35-2.21-9.27-3.29C239.82,135.65,239.82,134.91,239.93,134.16Z" transform="translate(3.71 0.64)" style="fill:#ce4b16"/>
    <path d="M260.88,16.84c.63,3.78,7.85,3.9,17.5,2.66l6.74,47.91a72.76,72.76,0,0,0-20.92,11l-3.48-62.19h.1A3.18,3.18,0,0,0,260.88,16.84Z" transform="translate(3.71 0.64)" style="fill:#93c01f"/>
    <path d="M264.2,78.39a72.76,72.76,0,0,1,20.92-11l.21,1.47.37,1.28c-1.64.5-3.28,1.06-4.9,1.69a52.89,52.89,0,0,0-16.21,10.32l-.2-.21Z" transform="translate(3.71 0.64)" style="fill:#cce7f6"/>
    <path d="M143.34,490.84c0-42.47,15.3-80.57,43.94-106.07a133.56,133.56,0,0,1,34.22-21.93c23.29-10.46,50.8-15.79,80.44-15.79,39.84,0,79,6.45,110,24.48a130.18,130.18,0,0,1,12.88,8.56c33.85,25.51,54.86,68,54.86,110.7,0,30-6.82,65-22.29,91.3a100.31,100.31,0,0,1-13,17.75c-12.9,13.8-29.22,23.55-47.62,30.26a34.55,34.55,0,0,1-5.79-2.42c-5.67-3-10.47-7.62-16.44-10-8.29-3.29-17.61-1.81-26.37-.12-24.16,4.68-48.87,11-69.75,23.56-18.52-1.87-37.21-5.44-54-11.22a79.18,79.18,0,0,0-33.32-25,93.84,93.84,0,0,0-14.17-4.44,102.66,102.66,0,0,1-10.66-13.9C148.82,559.53,143.34,524.76,143.34,490.84Zm61.93-114.71c-10.06,5.62-67.55,45.27-55.3,126.71,5.37,35.69,31.39,65.44,59.58,88,17.57,14,38.52,25.79,61,25.43,20.63-.34,39.65-10.78,59.82-15.12,15.73-3.38,32.11-3,47.74-6.82,36.72-8.92,65.61-41.58,73.25-78.59s-4.75-76.9-29.54-105.42S366,365,328.6,359.39C287.91,353.29,241,356.18,205.27,376.13Z" transform="translate(3.71 0.64)" style="fill:#a8d1e4"/>
    <path d="M561.21,233.49c-.37-1.91-.74-3.8-1.09-5.7l.34-1.56c7.83,3.15,14.92,6.05,15.43,6.49,1.16,1,1.79,1.49,1.22,3.53s-2.77,1.43-2.77,1.43l-13.18-4Z" transform="translate(3.71 0.64)" style="fill:#b6b5b4"/>
    <path d="M276,125a22.23,22.23,0,0,1,9,2.62,9.84,9.84,0,0,1,1.64,1.22,4.15,4.15,0,0,1-.73,2.18,7.67,7.67,0,0,1-3.46,2.5,21,21,0,0,1-7.39,1.4v-1.53c.2,0,.37-.2.47-.39a10,10,0,0,0,1.27-4.26c0-.73.31-3.16-.86-3.16Z" transform="translate(3.71 0.64)" style="fill:#f08429"/>
    <path d="M103.47,200.05a11.41,11.41,0,0,0-2,1.44l-2.76-1.55a14.82,14.82,0,0,1,1.9-1.44Z" transform="translate(3.71 0.64)"/>
    <path d="M264.43,157.26a82.63,82.63,0,0,1-16-15.81l.59-1.75q2.32.8,4.67,1.56l-.32,1a33.46,33.46,0,0,0,4.52,6c1.93,2,4.85,3.5,7.26,4.85a55.53,55.53,0,0,0,62.2-5.11,10,10,0,0,1,4.35-2.51c1.66-.29,3.69.75,3.74,2.46a76.07,76.07,0,0,1-19.23,12c-9.78,4.44-20.58,7.54-31.22,6.06A46.54,46.54,0,0,1,264.43,157.26Z" transform="translate(3.71 0.64)" style="fill:#45190d"/>
    <path d="M426.87,254.69a32.29,32.29,0,0,0,8.62,10.89h-.13L430.05,268a106.39,106.39,0,0,0-6.16-15.19l12.3-4.52,19-7a39.93,39.93,0,0,0,3.74,8c0-3.12,0-6.24-.11-9.36l11.2-4.1,1,2.84a20,20,0,0,0,3.11,9l-33.88,15.62-.09-.2A27.82,27.82,0,0,1,426.87,254.69Z" transform="translate(3.71 0.64)" style="fill:#b6b5b4"/>
    <path d="M239.93,134.16c.08-.87.17-1.75.29-2.61l.78.1,11,1.19,14.72,1.58a65.83,65.83,0,0,0,8.3.52,21,21,0,0,0,7.39-1.4,7.67,7.67,0,0,0,3.46-2.5,4.15,4.15,0,0,0,.73-2.18,9.24,9.24,0,0,1,2.81,5.35,12,12,0,0,1-5.94,6.63c-4.06,2-8.81,2.08-13.33,1.74A75.11,75.11,0,0,1,239.93,134.16Z" transform="translate(3.71 0.64)" style="fill:#df6216"/>
    <path d="M114.51,206l2.3,1.24a24.73,24.73,0,0,0-1.51,2l-2.55-1.41A11.72,11.72,0,0,1,114.51,206Z" transform="translate(3.71 0.64)"/>
    <path d="M114.51,206a11.59,11.59,0,0,0-1.76,1.81l-11.3-6.28a11.41,11.41,0,0,1,2-1.44Z" transform="translate(3.71 0.64)" style="fill:#d4d4d4"/>
    <path d="M430.05,268.08,417.16,274s-9,1.33-13-13c-.08-.32-.17-.62-.23-.91l20-7.32A105.09,105.09,0,0,1,430.05,268.08Z" transform="translate(3.71 0.64)" style="fill:#b6b5b4"/>
    <path d="M272.2,120.7a6,6,0,1,0-5.94-6v0a5.92,5.92,0,0,0,5.92,5.94Zm-20.38,4.14c-3.55.21-7.12.44-10.65.57A87.64,87.64,0,0,1,251,98.85a74.25,74.25,0,0,1,13.57-16.7,53.07,53.07,0,0,1,16.23-10.31c1.62-.63,3.26-1.19,4.9-1.69a102.74,102.74,0,0,1,31.77-3.93c47.59-3.3,58.49,37.34,57.17,61.79s-24.55,75.33-86.9,65.43c-39.59-6.29-49.6-32.42-48-57,2.92,1.08,6.06,2.19,9.27,3.29l-.59,1.75a82.63,82.63,0,0,0,16,15.81A46.53,46.53,0,0,0,285,166c10.64,1.48,21.44-1.62,31.22-6.06a76.07,76.07,0,0,0,19.23-12c0-1.71-2.08-2.75-3.74-2.46a10,10,0,0,0-4.35,2.51A55.79,55.79,0,0,1,265.16,153c-2.41-1.35-5.33-2.87-7.26-4.85a33.46,33.46,0,0,1-4.52-6l.32-1c9.29,3.08,18.45,5.79,23.59,6.94,2.41.52,5,1,7.26,0a7.85,7.85,0,0,0,4-5,19.5,19.5,0,0,0,.86-9,9.31,9.31,0,0,0-2.81-5.28A10,10,0,0,0,285,127.6a22.23,22.23,0,0,0-9-2.62l-1.3-.15a104.74,104.74,0,0,0-14.06-.38c-.15-.33-.36-.52-.66-.48a.87.87,0,0,0-.61.52c-2,.08-4,.19-6,.29a.72.72,0,0,0-.2-.36.74.74,0,0,0-1,.26.38.38,0,0,0-.08.17Zm65.59-4.18a5.93,5.93,0,1,0-5.94,5.92h0a5.93,5.93,0,0,0,6-5.88Z" transform="translate(3.71 0.64)" style="fill:#fffdfb"/>
    <path d="M362.32,695.64c-108.83,2.82-217.74-.2-326.57-3.2-11.29-.3-24.1-1.33-31.14-10.15-5.21-6.53-5.69-15.94-3-23.84s8.11-14.61,13.86-20.61c38-40.06,96.26-59.7,150.77-51.23a102.6,102.6,0,0,0,10.69,13.87c-14.47-3.35-29.71-3.53-44.5-1.65-19.22,2.43-37.85,8.2-56.18,14.51C49.88,620.41,25.74,638,9.38,659.82c-2.7,3.61-5.29,8.32-3.33,12.36s6.84,4.92,11.14,5.22c25.77,1.85,51.24-5.23,76.3-11.54s51.19-11.88,76.57-7c12.85,2.45,25,7.52,37.58,11.2,8,2.33,17.68,3.72,23.6-2.11S236,652.6,233,645a63.81,63.81,0,0,0-8.57-15.12c16.76,5.78,35.45,9.35,54,11.22a111.23,111.23,0,0,0-16.85,12.34c-3.65,3.26-7.36,7.85-6,12.54,1.27,4.15,5.94,6.11,10.11,7.31,32.81,9.48,67.85,5.55,101.6.34s68-11.62,101.82-6.9c26.11,3.66,52.71,13.88,78.08,6.73,7.85-2.22,15.48-6.26,20.27-12.86,5.93-8.15,6.71-19.32,3.62-28.91-4.87-15.08-18.55-26.31-33.75-30.77s-31.68-2.78-46.8,1.95a146.66,146.66,0,0,0-15.7,6c-4.73,2.13-9.39,4.44-14,6.86-4.14,2.18-8.41,5.34-12.89,6.7-9.44,2.87-18.48,7.07-28.31,8.74-7.6,1.28-15.63,1.2-22.92-1.12,18.4-6.71,34.72-16.46,47.62-30.26a100.45,100.45,0,0,0,13.07-17.74c17.65-.87,35.38-1.36,52.86,1.18,20,2.91,39.82,10.06,54.81,23.57,7.57,6.83,13.89,15.25,22.67,20.46,10.48,6.22,23.14,7.12,34.88,10.38A88,88,0,0,1,651.82,652c4.07,3.06,8.1,6.81,9.21,11.78,2,9-6.17,16.9-14.25,21.29-16.72,9.08-36,11.92-55,13.44-40.36,3.26-80.94,1.23-121.39-.8C436.87,696,395.82,697.32,362.32,695.64ZM646,659.72c.8-2.65-.51-5.58-2.55-7.43a19.65,19.65,0,0,0-7.37-3.67,199.26,199.26,0,0,0-28.86-6.57c-7.26-1.22-17.36-4.48-20.93,4.54-1.62,4.1-.95,8.75.23,13,1,3.69,2.56,7.49,5.66,9.74,3.88,2.82,9.12,2.5,13.89,2.06,11.14-1,22.44-2.07,32.92-6C641.91,664.34,645.06,662.71,646,659.72Z" transform="translate(3.71 0.64)" style="fill:#a8d1e4"/>
    <path d="M643.43,652.29c2,1.85,3.35,4.78,2.55,7.43-.92,3-4.07,4.62-7,5.71-10.48,3.9-21.78,5-32.92,6-4.77.44-10,.76-13.89-2.06-3.1-2.25-4.64-6-5.66-9.74-1.18-4.26-1.85-8.91-.23-13,3.57-9,13.67-5.76,20.93-4.54a199.26,199.26,0,0,1,28.86,6.57A19.75,19.75,0,0,1,643.43,652.29Zm-17.24,7c2-.51,4.47-1.73,4.3-3.81-.15-1.68-2-2.65-3.55-3.22-10.11-3.63-20.93-5.16-30.07,1.4-1.45,1-2.93,2.9-2,4.41a3.71,3.71,0,0,0,2.43,1.33,60.2,60.2,0,0,0,28.89-.07Z" transform="translate(3.71 0.64)" style="fill:#cce7f6"/>
    <path d="M630.49,655.52c.17,2.08-2.28,3.3-4.3,3.81a60.16,60.16,0,0,1-28.88.11,3.75,3.75,0,0,1-2.43-1.33c-.94-1.51.54-3.36,2-4.41,9.14-6.56,20-5,30.07-1.4C628.53,652.84,630.34,653.84,630.49,655.52Z" transform="translate(3.71 0.64)" style="fill:#fffdfb"/>
    <path d="M591.4,191.38l1.1,1.79-14.63,6.76c-.12-1-.35-2.18-.61-3.37Z" transform="translate(3.71 0.64)" style="fill:#b6b5b4"/>
    <path d="M590.08,189.21l1.32,2.17-14.14,5.18c-.26-1.23-.58-2.45-.87-3.43Z" transform="translate(3.71 0.64)" style="fill:#b6b5b4"/>
    <path d="M588.55,208.68c1.68,4.43,2.85,9.51.78,13.76-1.55,3.16-4.69,5.28-8,6.38-3.1,1-10.58,3.35-12-.94s.64-9.61,4.09-12.28C577.82,212.19,584.25,212.22,588.55,208.68Z" transform="translate(3.71 0.64)" style="fill:#628631"/>
    <path d="M575.87,200.84l-.38.17c-.25-1-.57-2.23-.89-3.49l2.66-1c.26,1.19.49,2.38.61,3.37Z" transform="translate(3.71 0.64)"/>
    <path d="M577.26,196.56l-2.66,1c-.33-1.25-.66-2.52-.92-3.62l2.71-.77C576.68,194.11,577,195.33,577.26,196.56Z" transform="translate(3.71 0.64)"/>
    <path d="M575.49,201l-18.1,8.36-.34-.74a16.66,16.66,0,0,0,.86-5l16.69-6.14C574.92,198.78,575.24,200,575.49,201Z" transform="translate(3.71 0.64)" style="fill:#b6b5b4"/>
    <path d="M573.68,193.9c.26,1.1.59,2.37.92,3.62l-16.69,6.14a15.82,15.82,0,0,0-.25-3.15,8.64,8.64,0,0,0-1.68.26l-.48-1.66Z" transform="translate(3.71 0.64)" style="fill:#d4d4d4"/>
    <path d="M571.09,631.72c3.09,9.59,2.31,20.76-3.62,28.91-4.79,6.6-12.42,10.64-20.27,12.86-25.37,7.15-52-3.07-78.08-6.73-33.83-4.72-68.07,1.69-101.82,6.9s-68.79,9.14-101.6-.34c-4.17-1.2-8.84-3.16-10.11-7.31-1.41-4.69,2.3-9.28,6-12.54a111.23,111.23,0,0,1,16.85-12.34c11,1.12,22,1.69,33.09,1.71,30,0,59.61-3.37,85.21-12.7,7.29,2.32,15.32,2.4,22.92,1.12,9.83-1.67,18.87-5.87,28.31-8.74,4.48-1.36,8.75-4.52,12.89-6.7,4.59-2.42,9.25-4.73,14-6.86a146.66,146.66,0,0,1,15.7-6c15.12-4.73,31.59-6.4,46.8-2S566.22,616.64,571.09,631.72Zm-18.48-13c.15-2.37-1.9-4.28-3.89-5.6-8.16-5.39-18.28-7.26-28.07-7-18.7.52-38.08,6.54-54.19,16-1.64,1-3.48,2.35-3.34,4.25a3.62,3.62,0,0,0,2.52,2.93,10.6,10.6,0,0,0,4,.35q23.6-1,47.16-2.09c9.87-.45,19.83-.91,29.37-3.47,2.91-.8,6.27-2.4,6.44-5.39ZM348.75,662.59a3.57,3.57,0,0,0,1.33-3.44c-.42-1.61-2.18-2.42-3.75-3-10.07-3.56-20-4.26-30.36-6.07-8.86-1.55-18.63,2-26.66,5.72-1.95.91-4.15,2.46-3.87,4.58s2.78,3,4.87,3.48c18.1,3.88,37.2,5.57,54.93.31A9.45,9.45,0,0,0,348.75,662.59Z" transform="translate(3.71 0.64)" style="fill:#cce7f6"/>
    <path d="M560.12,227.84c.35,1.9.72,3.79,1.09,5.7l-.05.17-2.51-.77.05-.17A10.07,10.07,0,0,1,560.12,227.84Z" transform="translate(3.71 0.64)"/>
    <path d="M560.46,226.23l-.34,1.61a10.07,10.07,0,0,0-1.42,4.93l-.05.17L542.52,228a6.32,6.32,0,0,1,1.27-5.36l-4.66-2.11a7.19,7.19,0,0,0,1.08,6.41l-.09.31-12.94-3.93,12-5.53h0S550.4,222.2,560.46,226.23Z" transform="translate(3.71 0.64)" style="fill:#b6b5b4"/>
    <path d="M557.66,200.51a15.82,15.82,0,0,1,.25,3.15l-2.49.89c-.35-.88-.72-1.78-1.11-2.67-.14,0-.06-.56.08-.52a9.77,9.77,0,0,1,1.59-.59A8.64,8.64,0,0,1,557.66,200.51Z" transform="translate(3.71 0.64)"/>
    <path d="M555.42,204.55l2.49-.89a16.66,16.66,0,0,1-.86,5C556.52,207.26,556,205.9,555.42,204.55Z" transform="translate(3.71 0.64)"/>
    <path d="M557.05,208.63l.34.74-18.24,8.4-12,5.53-49.83,23a37.11,37.11,0,0,1-6.32-7.54l-1-2.84,12-4.4c.25,1.59.5,3.17.77,4.76.38-1.8.72-3.6,1-5.41l20.38-7.48c.61,1.24,1.27,2.46,1.84,3.69v-4.35l49.47-18.15C556,205.9,556.52,207.26,557.05,208.63Z" transform="translate(3.71 0.64)" style="fill:#b6b5b4"/>
    <path d="M555.5,199.11l.48,1.66a9.77,9.77,0,0,0-1.59.59c-.14,0-.22.56-.08.52.39.89.76,1.79,1.11,2.67L506,222.7a51,51,0,0,0-.51-5.52l-1-3.45,15-4.31,10-2.87Z" transform="translate(3.71 0.64)" style="fill:#d4d4d4"/>
    <path d="M548.72,613.1c2,1.32,4,3.23,3.89,5.6-.17,3-3.53,4.59-6.41,5.36-9.54,2.56-19.5,3-29.37,3.47q-23.57,1.08-47.16,2.09a10.6,10.6,0,0,1-4-.35,3.62,3.62,0,0,1-2.52-2.93c-.14-1.9,1.7-3.29,3.34-4.25,16.11-9.43,35.49-15.45,54.19-16C530.44,605.84,540.56,607.71,548.72,613.1Z" transform="translate(3.71 0.64)" style="fill:#fffdfb"/>
    <path d="M536.48,173.32l-.38-.29c-3.46-2.62-7.08-5.67-8-9.91-.79-3.58.53-7.32,2.39-10.48s4.26-6,5.94-9.28l5.3,5.48c1.94,2,3.95,4.08,4.83,6.73,1.15,3.57,0,7.56-2.2,10.62s-5.22,5.38-8.22,7.63A5.5,5.5,0,0,0,536.48,173.32Z" transform="translate(3.71 0.64)" style="fill:#628631"/>
    <path d="M539.13,220.51l4.66,2.11a6.32,6.32,0,0,0-1.27,5.36l-2.4-.75.09-.31A7.19,7.19,0,0,1,539.13,220.51Z" transform="translate(3.71 0.64)"/>
    <path d="M534.9,173.9h2.64s-2.89,11.36-5.21,20.68h-.07a34.85,34.85,0,0,1-7.39,3.2l-.27-.12Z" transform="translate(3.71 0.64)" style="fill:#d4d4d4"/>
    <path d="M532.26,194.55h.07c-.33,1.32-.64,2.59-.93,3.78h-.14a20.53,20.53,0,0,1-6.39-.58A34.85,34.85,0,0,0,532.26,194.55Z" transform="translate(3.71 0.64)"/>
    <path d="M531.26,198.33h.14c-1.17,4.71-2,8.22-1.88,8.19l-10,2.87,5.11-11.79.27.12A20.66,20.66,0,0,0,531.26,198.33Z" transform="translate(3.71 0.64)" style="fill:#d4d4d4"/>
    <path d="M506,222.7a42.08,42.08,0,0,1,0,4.35c-.57-1.23-1.23-2.45-1.84-3.69Z" transform="translate(3.71 0.64)"/>
    <path d="M506,222.7l-1.81.66a26.31,26.31,0,0,1-1.29-2.93c-.37-1-.73-1.3,0-2.18a11.65,11.65,0,0,1,2.61-1.07A51,51,0,0,1,506,222.7Z" transform="translate(3.71 0.64)"/>
    <path d="M504.45,213.73l1,3.45a11.65,11.65,0,0,0-2.61,1.07c-.71.88-.35,1.16,0,2.18a26.31,26.31,0,0,0,1.29,2.93l-20.37,7.48c.4-2.49.69-5,.89-7.54,0,.26-2.78,0-3.41.3l-.86-3Z" transform="translate(3.71 0.64)" style="fill:#d4d4d4"/>
    <path d="M503.6,252.48a18,18,0,0,1-9.25,3.42,12.24,12.24,0,0,1-9.17-3.18,9.82,9.82,0,0,1-2.91-6c-.27-2.44.38-2.92,2.79-2.9a21,21,0,0,1,12.58,4.27C499.61,249.6,501.34,251.48,503.6,252.48Z" transform="translate(3.71 0.64)" style="fill:#628631"/>
    <path d="M484.65,223.3c-.2,2.52-.49,5-.89,7.54l-1.77.65c-.25-1.45-.48-2.91-.71-4.36-.16-.94-.86-2.72-.14-3.48l.1-.05C481.87,223.34,484.61,223.56,484.65,223.3Z" transform="translate(3.71 0.64)"/>
    <path d="M482,231.49l1.77-.65c-.28,1.81-.62,3.61-1,5.41C482.49,234.66,482.24,233.08,482,231.49Z" transform="translate(3.71 0.64)"/>
    <path d="M482,231.49l-12,4.4-11.2,4.1c-.06-1.82-.16-3.64-.27-5.46,0-.24-3.61.66-4.06,1.16-.94,1.07-.24,2.55.1,3.77.19.62.37,1.26.6,1.86l-19,7-1-2.83V233.57l45.23-13,.86,3-.1.05c-.72.76,0,2.54.14,3.48C481.51,228.58,481.74,230,482,231.49Z" transform="translate(3.71 0.64)" style="fill:#d4d4d4"/>
    <path d="M477.35,246.27l-3.21,1.48a20,20,0,0,1-3.11-9A37,37,0,0,0,477.35,246.27Z" transform="translate(3.71 0.64)"/>
    <path d="M458.82,240c.12,3.12.15,6.24.11,9.36a39.93,39.93,0,0,1-3.74-8Z" transform="translate(3.71 0.64)"/>
    <path d="M458.82,240l-3.63,1.33c-.23-.6-.41-1.24-.6-1.86-.34-1.22-1-2.7-.1-3.77.45-.5,4-1.4,4.06-1.16C458.63,236.35,458.73,238.17,458.82,240Z" transform="translate(3.71 0.64)"/>
    <path d="M421.82,410.32c24.76,28.55,37.15,68.37,29.5,105.38s-36.5,69.67-73.22,78.59c-15.63,3.8-32,3.44-47.74,6.82-20.17,4.34-39.19,14.78-59.82,15.12-22.47.36-43.42-11.39-61-25.43-28.19-22.52-54.21-52.27-59.58-88-12.25-81.44,45.24-121.09,55.3-126.71,35.74-20,82.64-22.84,123.36-16.74C366,365,397.09,381.77,421.82,410.32Zm-41.59,64.94c10.38-26.42.7-56.44-18.18-77.65S311.82,363,283.44,362.84c-33.7-.11-61.2,3.73-89.88,33.11s-33.37,79.66-30.68,99.4c1.72,12.63,5.79,25.49,14.86,34.49,8.33,8.23,19.92,12.23,31.39,14.57,41.61,8.49,89.42.74,126.52-19.93,23.17-12.87,35.94-27.16,44.61-49.22Z" transform="translate(3.71 0.64)" style="fill:#cce7f6"/>
    <path d="M440.17,263.17l.09.2-4.77,2.21a32.29,32.29,0,0,1-8.62-10.89A27.77,27.77,0,0,0,440.17,263.17Z" transform="translate(3.71 0.64)"/>
    <path d="M435.15,245.45l1,2.83-12.26,4.56a109.42,109.42,0,0,0-8.08-13.7l15.89-4.56,1.43,10.91Z" transform="translate(3.71 0.64)" style="fill:#d4d4d4"/>
    <polygon points="438.85 234.2 438.85 246.08 436.83 246.08 435.41 235.18 438.85 234.2"/>
    <path d="M220.1,255.07q2.47-5,5.51-10.12c16.27-27.36,34.54-37.18,42.55-39.54-11.78-10.33-18.46-20.25-22.51-29.38,9.17,20.17,35.61,30.45,69.17,26.62,34.7-4,75.44-26.14,71.7-83.93-2.37-36.6-26.73-49.62-50-53.56l.16-.85-1.08-2.37c17,1.86,30.09,7.74,39.4,14.82,32,24.3,28.36,72,21.15,90.53a69.58,69.58,0,0,1-27.4,33.13l1.29.25a113.12,113.12,0,0,1,45.78,38.43l-9.68,2.74c-3.77,1.07-5.86,4.68-2.22,18.25.06.29.15.59.23.91,4,14.32,13,13,13,13L430,268.06a110,110,0,0,1,5.06,36.34c-1,38.39-15.53,58.73-23.17,67.11-31-18-70.16-24.48-110-24.48-29.64,0-57.15,5.33-80.44,15.79,0,0-5.8-6.21-11.75-28.68-4.28-16.16-5-37.12,2.74-60.65q1.38-4.23,3.14-8.58C217,261.68,218.44,258.4,220.1,255.07ZM374.74,333.5c25.34-9.58,24.68-19.49,24.68-34.36s1.06-69.47-52.21-87.24c0,0-80-5.28-98.8,16.52S217,264.42,217,301.78s44,39.32,58.49,40.64S349.41,343.08,374.74,333.5Z" transform="translate(3.71 0.64)" style="fill:#a8d1e4"/>
    <path d="M423.89,252.84l-20,7.32c-3.64-13.57-1.55-17.18,2.22-18.25l9.67-2.77A109.63,109.63,0,0,1,423.89,252.84Z" transform="translate(3.71 0.64)" style="fill:#d4d4d4"/>
    <path d="M399.42,299.14c0,14.87.66,24.78-24.68,34.36s-84.69,10.25-99.23,8.92S217,339.12,217,301.78s12.56-51.55,31.39-73.36,98.8-16.52,98.8-16.52C400.48,229.67,399.42,284.27,399.42,299.14Zm-25.6,1.33c2.51-3.61,2.77-8.32,2.48-12.71-.86-12.85-5.69-25.12-11.79-36.46-4.62-8.6-11.44-19.8-20.28-24.57-19.53-10.53-33.5-8.67-52.36-5.84s-18.86,2.83-28.11,6.32c-12.85,4.86-22.88,13.18-29.12,25.63-6.38,12.8-8,27.54-7.1,41.82a13.74,13.74,0,0,0,1.28,5.85,12.35,12.35,0,0,0,3.62,3.72c10.51,7.66,24.11,9.43,37.09,10.25a354,354,0,0,0,80.57-4.16,71.7,71.7,0,0,0,15.52-3.94C368.82,305.07,371.9,303.27,373.82,300.47Z" transform="translate(3.71 0.64)" style="fill:#cce7f6"/>
    <path d="M391,627.67a34.55,34.55,0,0,0,5.79,2.42c-25.6,9.33-55.22,12.7-85.21,12.7a330.36,330.36,0,0,1-33.14-1.66c20.88-12.51,45.59-18.88,69.75-23.56,8.76-1.69,18.08-3.17,26.37.12C380.48,620.05,385.28,624.67,391,627.67Z" transform="translate(3.71 0.64)" style="fill:#cce7f6"/>
    <path d="M312.39,63.76a117.83,117.83,0,0,1,24.1,1.4c23.31,3.94,47.67,17,50,53.56,3.74,57.79-37,80-71.7,83.93-33.57,3.83-60-6.45-69.18-26.62-.32-.67-.61-1.36-.87-2.06a86.45,86.45,0,0,1-4.88-17.59,108.7,108.7,0,0,1-1.53-20.54l1.43.53c-1.62,24.57,8.39,50.7,48,57,62.35,9.9,85.58-41,86.9-65.43s-9.6-65.1-57.19-61.76a102.74,102.74,0,0,0-31.77,3.93l-.37-1.27-.21-1.47a109.69,109.69,0,0,1,26.7-5.44Z" transform="translate(3.71 0.64)" style="fill:#cce7f6"/>
    <path d="M362.08,397.61c18.88,21.23,28.56,51.23,18.18,77.65-8.67,22.06-21.48,36.35-44.61,49.23-37.1,20.67-84.91,28.42-126.52,19.93-11.47-2.34-23.06-6.34-31.39-14.58-9.07-9-13.14-21.87-14.86-34.5-2.69-19.74,2-70,30.68-99.4s56.18-33.21,89.88-33.1C311.82,363,343.21,376.39,362.08,397.61Zm-98.35-20a8.59,8.59,0,1,0-8.59,8.59,8.6,8.6,0,0,0,8.59-8.59v0Zm-18.91,35.23a8.59,8.59,0,1,0-8.59,8.59h0A8.6,8.6,0,0,0,244.82,412.84Zm-3.08,44a8.59,8.59,0,1,0-8.59,8.59h0a8.58,8.58,0,0,0,8.56-8.59Z" transform="translate(3.71 0.64)" style="fill:#fffdfb"/>
    <path d="M376.34,287.76c.29,4.39,0,9.1-2.48,12.71a18.16,18.16,0,0,1-8.21,5.91,71.7,71.7,0,0,1-15.52,3.94,354,354,0,0,1-80.57,4.16c-13-.82-26.58-2.59-37.09-10.25a12.33,12.33,0,0,1-3.65-3.72,13.74,13.74,0,0,1-1.31-5.81c-.91-14.28.72-29,7.1-41.82,6.24-12.49,16.27-20.81,29.16-25.67,9.25-3.49,9.25-3.49,28.11-6.32s32.83-4.69,52.36,5.84c8.84,4.77,15.66,16,20.28,24.57C370.65,262.64,375.48,274.91,376.34,287.76Zm-89.52-48.1a6.83,6.83,0,1,0-6.83,6.83h0a6.82,6.82,0,0,0,6.82-6.82Zm-10.74,29.08a8.6,8.6,0,1,0-8.61,8.59h0a8.6,8.6,0,0,0,8.59-8.59Zm-2.65,31.1a7.93,7.93,0,1,0-7.93,7.93h0A7.93,7.93,0,0,0,273.43,299.84Z" transform="translate(3.71 0.64)" style="fill:#fffdfb"/>
    <path d="M350.08,659.15a3.57,3.57,0,0,1-1.33,3.44,9.51,9.51,0,0,1-3.51,1.61c-17.73,5.26-36.83,3.57-54.93-.31-2.09-.44-4.6-1.36-4.87-3.48s1.92-3.67,3.87-4.58c8-3.75,17.8-7.27,26.66-5.72,10.37,1.81,20.29,2.51,30.36,6.07C347.9,656.73,349.66,657.54,350.08,659.15Z" transform="translate(3.71 0.64)" style="fill:#fffdfb"/>
    <path d="M335.57,61.94l1.08,2.37-.16.85a117.83,117.83,0,0,0-24.1-1.4l-.6-1.83c2.6-.25,5.31-.41,8.1-.52A109.5,109.5,0,0,1,335.57,61.94Z" transform="translate(3.71 0.64)" style="fill:#a8d1e4"/>
    <path d="M309.21,4.76l26.36,57.18a109.5,109.5,0,0,0-15.68-.53c-2.79.11-5.5.27-8.1.52l-15-46.36c7.85-2.76,12.92-6.66,12.34-10.07a3.45,3.45,0,0,0-.17-.63Z" transform="translate(3.71 0.64)" style="fill:#628631"/>
    <circle cx="315.23" cy="121.34" r="5.92" style="fill:#45190d"/>
    <path d="M296.82,15.57l15,46.36a109.91,109.91,0,0,0-26.67,5.43l-6.74-47.91c2.51-.32,5.18-.74,8-1.21A63.35,63.35,0,0,0,296.82,15.57Z" transform="translate(3.71 0.64)" style="fill:#628631"/>
    <path d="M309.16,5.5c.58,3.41-4.49,7.31-12.34,10.07L291.82,0c9-.33,15.9,1.48,17.2,4.83A3.56,3.56,0,0,1,309.16,5.5Z" transform="translate(3.71 0.64)" style="fill:#628631"/>
    <path d="M291.82,0l5,15.53a63,63,0,0,1-10.49,2.67c-2.77.47-5.44.89-8,1.21L276,2.91a38.44,38.44,0,0,1,7.37-2A66.63,66.63,0,0,1,291.82,0Z" transform="translate(3.71 0.64)" style="fill:#628631"/>
    <path d="M280,232.84a6.83,6.83,0,1,1-6.83,6.83,6.83,6.83,0,0,1,6.83-6.83Z" transform="translate(3.71 0.64)" style="fill:#45190d"/>
    <path d="M276,2.91l2.34,16.54c-9.65,1.24-16.87,1.12-17.5-2.66a2.72,2.72,0,0,1,0-.57C260.82,12.33,267,6.29,276,2.91Z" transform="translate(3.71 0.64)" style="fill:#93c01f"/>
    <circle cx="275.91" cy="115.39" r="5.95" style="fill:#45190d"/>
    <path d="M275.89,125.58c1.17,0,.91,2.43.86,3.16a10,10,0,0,1-1.27,4.26c-.1.19-.27.39-.47.39H275c-.26,0-.34-.38-.37-.65a30.57,30.57,0,0,1-.05-5.24,3.22,3.22,0,0,1,.27-1.14,1.32,1.32,0,0,1,.85-.75A1,1,0,0,1,275.89,125.58Z" transform="translate(3.71 0.64)" style="fill:#cd4c16"/>
    <circle cx="271.19" cy="269.37" r="8.59" style="fill:#45190d"/>
    <path d="M270.82,129.69c.72-.36,2.22-.37,1.69.9a1.86,1.86,0,0,1-1,.89,1.31,1.31,0,0,1-1.16,0,.91.91,0,0,1-.3-1A1.42,1.42,0,0,1,270.82,129.69Z" transform="translate(3.71 0.64)" style="fill:#f8b562"/>
    <circle cx="269.21" cy="300.43" r="7.93" style="fill:#45190d"/>
    <path d="M269.82,127.27a1,1,0,0,1,.21,1.3l-.12.12a5.88,5.88,0,0,1-4.31,1.49,2.7,2.7,0,0,1-1.61-.57,1.36,1.36,0,0,1-.45-1.56,1.93,1.93,0,0,1,1.28-.91,9.51,9.51,0,0,1,3.52-.37A2.38,2.38,0,0,1,269.82,127.27Z" transform="translate(3.71 0.64)" style="fill:#f8b562"/>
    <path d="M264.39,81.94l.2.21a74,74,0,0,0-13.53,16.74,87.64,87.64,0,0,0-9.85,26.56c-.73,0-1.44,0-2.17.06,1.93-15.86,8.28-34.14,25.16-47.12Z" transform="translate(3.71 0.64)" style="fill:#cce7f6"/>
    <circle cx="255.14" cy="377.55" r="8.59" transform="translate(-154.69 569.56) rotate(-80.78)" style="fill:#45190d"/>
    <path d="M260.6,124.47c.56,1.2.18,4.3.07,5a1.75,1.75,0,0,1-.22.63.58.58,0,0,1-.58.26c-.37-.08-.46-.56-.49-.93,0-1.27-.12-2.54-.18-3.81a2.58,2.58,0,0,1,.08-1,.29.29,0,0,1,.05-.13Z" transform="translate(3.71 0.64)" style="fill:#cd4c16"/>
    <path d="M259.94,124a.69.69,0,0,1,.66.48h-1.27A.85.85,0,0,1,259.94,124Z" transform="translate(3.71 0.64)" style="fill:#fffdfb"/>
    <path d="M252.07,124.84h1.29a2,2,0,0,1,0,.49v3.16a2.73,2.73,0,0,1-.24,1.32,1.05,1.05,0,0,1-.84.53.73.73,0,0,1-.29-.07,1.27,1.27,0,0,1-.53-1.13,12,12,0,0,1,.36-4.3Z" transform="translate(3.71 0.64)" style="fill:#cd4c16"/>
    <path d="M253.16,124.44a.72.72,0,0,1,.2.36l-1.29,0a.38.38,0,0,1,.08-.17A.74.74,0,0,1,253.16,124.44Z" transform="translate(3.71 0.64)" style="fill:#fffdfb"/>
    <path d="M252.29,130.3l-.28,2.54-11-1.19-.78-.1c.25-2.06.59-4.11,1-6.1,3.53-.13,7.1-.36,10.65-.57a12,12,0,0,0-.39,4.22,1.27,1.27,0,0,0,.53,1.13A.83.83,0,0,0,252.29,130.3Z" transform="translate(3.71 0.64)" style="fill:#f08429"/>
    <circle cx="239.91" cy="413.44" r="8.59" style="fill:#45190d"/>
    <path d="M241.21,125.45c-.4,2-.74,4-1,6.1-.57-.06-1.15-.14-1.72-.23.12-1.89.29-3.82.54-5.81C239.82,125.5,240.48,125.47,241.21,125.45Z" transform="translate(3.71 0.64)" style="fill:#f08429"/>
    <path d="M240.22,131.55c-.12.86-.21,1.74-.29,2.61l-1.52-.89a15.48,15.48,0,0,1,.09-2A12.83,12.83,0,0,0,240.22,131.55Z" transform="translate(3.71 0.64)" style="fill:#df6216"/>
    <path d="M238.41,133.27c.5.31,1,.6,1.52.89-.08.75-.13,1.49-.17,2.25l-1.43-.57C238.33,135,238.36,134.16,238.41,133.27Z" transform="translate(3.71 0.64)" style="fill:#ce4b16"/>
    <circle cx="236.83" cy="457.49" r="8.59" style="fill:#45190d"/>
    <path d="M76.25,613.34c18.33-6.31,37-12.08,56.18-14.51,14.79-1.88,30-1.7,44.5,1.65a99.64,99.64,0,0,0,11.34,10.59c10,7.94,22.42,14.14,36.15,18.84A63.81,63.81,0,0,1,233,645c3,7.56,4,17.21-1.75,22.91s-15.63,4.44-23.6,2.11c-12.55-3.68-24.73-8.75-37.58-11.2-25.38-4.87-51.49.72-76.57,7S43,679.24,17.19,677.39c-4.3-.3-9.28-1.33-11.14-5.22s.63-8.75,3.33-12.36C25.74,638,49.88,620.41,76.25,613.34Zm114.92,16c1.36-.51,2.91-1.46,2.81-2.92a3.51,3.51,0,0,0-1.4-2.19c-10.46-9.39-24.86-13.57-38.93-14.05-9.92-.34-19.78,1-29.48,2.88-8.09,1.57-16.8,2-24.48,5.08-1.11.45-2.35,1.08-2.61,2.26a2.65,2.65,0,0,0,1.3,2.64,7.58,7.58,0,0,0,3,.91c19.39,3.17,38.94,5.36,58.5,7.27,10.49,1,21.43,1.93,31.29-1.84ZM50.6,663.41c.53-2.11-1.33-4-3.13-5.24a32,32,0,0,0-14.27-5.3l-.9.23a54.26,54.26,0,0,0-11,1.28c-2.09.46-4.36,1.21-5.36,3.1s-.15,4.55,1.48,6.07a13.25,13.25,0,0,0,6.07,2.7,54.17,54.17,0,0,0,22.18.41c2-.35,4.42-1.19,4.93-3.21Z" transform="translate(3.71 0.64)" style="fill:#cce7f6"/>
    <path d="M212.65,252l7.45,3.11c-1.66,3.33-3.14,6.61-4.47,9.86l-7.33-4.09c1-2,2.06-4,3.12-5.95Z" transform="translate(3.71 0.64)" style="fill:#d4d4d4"/>
    <path d="M191.1,604.92a79.18,79.18,0,0,1,33.32,25c-13.73-4.7-26.15-10.9-36.15-18.84a98.84,98.84,0,0,1-11.34-10.6A93.84,93.84,0,0,1,191.1,604.92Z" transform="translate(3.71 0.64)" style="fill:#cce7f6"/>
    <path d="M208.3,260.84l7.33,4.08q-1.75,4.35-3.14,8.58l-7.67-4.66A66.7,66.7,0,0,1,208.3,260.84Z" transform="translate(3.71 0.64)" style="fill:#b6b5b4"/>
    <path d="M212.65,252l-1.23,2.94c-1.65,1.51-3.41,3.13-5.16,4.82l-9.44-5.26a50.56,50.56,0,0,0,6.54-6.38Z" transform="translate(3.71 0.64)" style="fill:#d4d4d4"/>
    <path d="M211.42,254.9c-1.06,2-2.12,3.94-3.12,6l-2-1.13C208,258,209.82,256.41,211.42,254.9Z" transform="translate(3.71 0.64)"/>
    <path d="M206.26,259.72l2,1.13a65.63,65.63,0,0,0-3.44,8h0L200.21,266C202,263.9,204.14,261.77,206.26,259.72Z" transform="translate(3.71 0.64)"/>
    <path d="M196.82,254.46l9.46,5.26c-2.12,2-4.23,4.18-6.06,6.25l-19-11.64a17.92,17.92,0,0,1,4.1-5.55l.3-.54,10.48,5.81c-.37.6-.78,1.18-1.2,1.75A19.94,19.94,0,0,0,196.82,254.46Z" transform="translate(3.71 0.64)" style="fill:#b6b5b4"/>
    <path d="M199.46,246.47l3.88,1.61a51,51,0,0,1-6.52,6.38l-.73-.41a26.81,26.81,0,0,0,3.21-7.21Z" transform="translate(3.71 0.64)"/>
    <path d="M199.46,246.47l-.16.37a26.55,26.55,0,0,1-3.23,7.21l-10.48-5.81-13.77-7.68a23.9,23.9,0,0,1,4.8-3.62Z" transform="translate(3.71 0.64)" style="fill:#d4d4d4"/>
    <path d="M180.69,233.46l-.23-.3a20.72,20.72,0,0,1,16.36-16.51,9.79,9.79,0,0,1,1.88,10.19,12.59,12.59,0,0,1-7.79,7.14,17.8,17.8,0,0,1-10.76-.14Z" transform="translate(3.71 0.64)" style="fill:#628631"/>
    <path d="M196.07,254.05l.73.41a18.79,18.79,0,0,1-1.93,1.38C195.29,255.23,195.7,254.65,196.07,254.05Z" transform="translate(3.71 0.64)"/>
    <path d="M194,626.46c.1,1.46-1.45,2.41-2.81,2.92-9.86,3.77-20.8,2.87-31.31,1.84-19.56-1.91-39.11-4.1-58.5-7.27a7.58,7.58,0,0,1-3-.91,2.65,2.65,0,0,1-1.3-2.64c.26-1.18,1.5-1.81,2.61-2.26,7.68-3.06,16.39-3.51,24.48-5.08,9.7-1.89,19.56-3.22,29.48-2.88,14.07.48,28.47,4.64,38.93,14.09A3.47,3.47,0,0,1,194,626.46Z" transform="translate(3.71 0.64)" style="fill:#fffdfb"/>
    <path d="M171.82,240.56l13.8,7.68-.3.54a41.68,41.68,0,0,0-7.32,3.58l-19.08-11.68,4.13-4.48.21-.39,8,4.46c-.37.68-.7,1.33-.94,1.89C170.82,241.6,171.28,241.07,171.82,240.56Z" transform="translate(3.71 0.64)" style="fill:#b6b5b4"/>
    <path d="M184.63,259.12c2.92,1.58,1.16,4.77-.81,6.72a13.05,13.05,0,0,1-6.38,3.21,19,19,0,0,1-18.62-6.66c-.48-.61,7.14-4.2,7.8-4.41a24.44,24.44,0,0,1,9.07-1.14A21.56,21.56,0,0,1,184.63,259.12Z" transform="translate(3.71 0.64)" style="fill:#628631"/>
    <path d="M185.29,248.78a17.92,17.92,0,0,0-4.1,5.55l-3.22-2A41.55,41.55,0,0,1,185.29,248.78Z" transform="translate(3.71 0.64)"/>
    <path d="M174.07,235.84l2.52,1.06a23.54,23.54,0,0,0-4.77,3.66l-.54-.29A43.35,43.35,0,0,1,174.07,235.84Z" transform="translate(3.71 0.64)"/>
    <path d="M157.37,228.93l16.7,6.91a44.86,44.86,0,0,0-2.82,4.39l-8-4.46L134,219.58c.55-.43,1.12-.86,1.69-1.28l.41-.77,11,5.9,8.93,4.8Z" transform="translate(3.71 0.64)" style="fill:#d4d4d4"/>
    <path d="M146.32,185.47l-.14-.37c-3.11-3.11-3-8.39-.93-12.25s5.77-6.59,9.41-9,7.48-4.84,10.16-8.31a48,48,0,0,1,3.86,8.82,16,16,0,0,1,.14,9.48c-1.46,4.31-5.32,7.46-9.54,9.17s-8.83,2.17-13.35,2.62Z" transform="translate(3.71 0.64)" style="fill:#628631"/>
    <path d="M155.35,238.51,151,235.84l-8.17-5-12.37-7.57v-.05a15.45,15.45,0,0,1,3.53-3.64l29.25,16.26-.21.39a20.25,20.25,0,0,0-7.35,2.51Z" transform="translate(3.71 0.64)" style="fill:#b6b5b4"/>
    <path d="M163,236.2l-4.13,4.48-3.22-2A20.39,20.39,0,0,1,163,236.2Z" transform="translate(3.71 0.64)"/>
    <path d="M156.06,228.21h0l-8.93-4.8-4.31-36.29a2.58,2.58,0,0,1,4.3,0C147.14,187.78,156.06,228.21,156.06,228.21Z" transform="translate(3.71 0.64)" style="fill:#d4d4d4"/>
    <path d="M142.82,230.84l8.16,5-16.62,1.68q-2.27-2.28-4.29-4.77Z" transform="translate(3.71 0.64)" style="fill:#b6b5b4"/>
    <path d="M136.12,217.53l-.41.77a23,23,0,0,0-3.41.32l-17-9.44c.52-.73,1-1.41,1.51-2Z" transform="translate(3.71 0.64)" style="fill:#d4d4d4"/>
    <path d="M132.3,218.62l1.72,1a15.45,15.45,0,0,0-3.53,3.64v.05l-5-3A49.81,49.81,0,0,1,132.3,218.62Z" transform="translate(3.71 0.64)"/>
    <path d="M130.08,232.75q2,2.49,4.29,4.77l-4.75.49a15.77,15.77,0,0,1,.13-5.22Z" transform="translate(3.71 0.64)"/>
    <path d="M115.3,209.18l17,9.44a49.55,49.55,0,0,0-6.81,1.61l-12.37-7.59A36.55,36.55,0,0,1,115.3,209.18Z" transform="translate(3.71 0.64)" style="fill:#b6b5b4"/>
    <path d="M100.05,237.17l29.7-4.38a15.77,15.77,0,0,0-.13,5.22c-12.88,1.29-27,2.72-28.08,2.81-2,.16-3-.66-2.81-2.28S100.05,237.17,100.05,237.17Z" transform="translate(3.71 0.64)" style="fill:#b6b5b4"/>
    <path d="M112.75,207.77l2.55,1.41a36.55,36.55,0,0,0-2.18,3.46l-2.3-1.42A12.73,12.73,0,0,1,112.75,207.77Z" transform="translate(3.71 0.64)"/>
    <path d="M101.45,201.49l11.3,6.28a12.8,12.8,0,0,0-2,3.45L99,204A14.31,14.31,0,0,1,101.45,201.49Z" transform="translate(3.71 0.64)" style="fill:#b6b5b4"/>
    <path d="M98.69,199.94l2.76,1.55A14.14,14.14,0,0,0,99,204l-2.47-1.5A9.78,9.78,0,0,1,98.69,199.94Z" transform="translate(3.71 0.64)"/>
    <path d="M90.14,192.9l10.45,5.6a14.82,14.82,0,0,0-1.9,1.44l-12.69-7C87.49,191.09,90.14,192.9,90.14,192.9Z" transform="translate(3.71 0.64)" style="fill:#d4d4d4"/>
    <path d="M98.69,199.94a9.78,9.78,0,0,0-2.14,2.57L86,196a2.18,2.18,0,0,1,0-3.1l0,0Z" transform="translate(3.71 0.64)" style="fill:#b6b5b4"/>
    <path d="M98.15,235.27c1.16,2.55-1.46,3.29-3.57,4.38a13.57,13.57,0,0,1-7.48,1.75,12.74,12.74,0,0,1-8-4.49,38.47,38.47,0,0,1-5-7.86,16.51,16.51,0,0,1,14.33-2.21A16.32,16.32,0,0,1,98.15,235.27Z" transform="translate(3.71 0.64)" style="fill:#628631"/>
    <path d="M47.47,658.21c1.8,1.22,3.66,3.13,3.13,5.24s-2.89,2.86-4.94,3.25a54.17,54.17,0,0,1-22.18-.41,13.25,13.25,0,0,1-6.07-2.7c-1.63-1.52-2.51-4.08-1.48-6.07s3.27-2.64,5.36-3.1a54.26,54.26,0,0,1,11-1.28l.9-.23A32,32,0,0,1,47.47,658.21Z" transform="translate(3.71 0.64)" style="fill:#fffdfb"/>
  </g>
  <path class="outline" d="M544.73,705.26c-25.35,0-50.62-1.28-75.37-2.52-16.69-.84-35.61-.94-53.9-1s-37.26-.2-54-1c-108.7,2.81-219.21-.24-326.09-3.19h-.53c-12-.33-25.5-1.49-33.28-11.22-5.39-6.77-6.72-16.93-3.47-26.52,3-8.81,9-15.92,14.5-21.7,37.32-39.36,93.28-59.32,147.32-52.9-13.43-23.54-20.24-54.5-20.24-92.15,0-44,15.95-82.42,44.9-108.19a135.54,135.54,0,0,1,31.86-20.91c-2.36-3.9-6.31-11.94-10.25-26.8-3.49-13.2-5.89-34.21,2.11-60.13l-58.79-36-15.67,1.58-1.68.17L129,243l-8.26.83-19.84,2a5.52,5.52,0,0,1-4.63-1.45,4.84,4.84,0,0,1-1.25-4,4.32,4.32,0,0,1,1.72-3.19,4,4,0,0,1,2.3-.72l34.78-5.14-50.6-31a5,5,0,0,1-.31-7c2.13-2.58,5.5-2.15,7.8-.65l52.08,27.9L139,188.41l.82-.95a5.4,5.4,0,0,1,8.59,0l.66.77,0,.83c.42,2.28,5.23,24.21,8.6,39.47l0,0,60.17,25.08c1.36-2.61,2.84-5.27,4.42-7.94,15.14-25.46,31.53-35.46,39.67-39.1-9-8.51-15.46-17.45-19.79-27.22-.32-.68-.64-1.44-.93-2.21a90,90,0,0,1-5-18.09,111.18,111.18,0,0,1-1.63-19l-.64-.25c-1.46-.56-14.25-5.55-15.39-7.84a3.71,3.71,0,0,1,.12-3.6c1.25-2.08,4.36-3,11.08-3.3,1.79-.09,3.81-.09,5.91-.11,2.85-19.39,11.16-34.73,24.72-45.65l-3.56-63.69h.85c1.88-4.86,8.24-10,16.48-13.13a41.88,41.88,0,0,1,7.9-2.13A68.69,68.69,0,0,1,290.8-.6c4.39-.16,13.91,0,18.22,4.1l.69-.33L336.6,61.5c15.08,1.9,28.61,7.14,39.21,15.19,33.85,25.7,29.33,75.19,22.07,93.82a72.35,72.35,0,0,1-24.09,31.42A116.89,116.89,0,0,1,416.09,238l100.45-28.76,15.62-36h8.15l-.9,3.53c0,.12-2.92,11.46-5.2,20.66-.33,1.32-.65,2.58-.94,3.77l-.85,3.49,58.08-16.63,5.2,8.52-50.22,23.16c4.16,1.65,9.84,3.9,15.16,6,15.25,6.13,15.68,6.51,16.23,7,1.27,1.08,3.14,2.68,2.1,6.43a4.79,4.79,0,0,1-2.25,3,5.55,5.55,0,0,1-4,.43l-46.18-14.08-93.91,43.3a112.84,112.84,0,0,1,4.46,34.88c-.9,35-13.07,55.9-21.65,66.33,3.57,2.19,7,4.54,10.28,7,34.53,26,56,69.3,56,113,0,31.83-7.48,64.36-20.16,88.23,15.54-.69,31.9-.94,48.31,1.44,22.92,3.34,42.39,11.73,56.3,24.27,2.6,2.34,5.06,4.88,7.44,7.33,4.76,4.89,9.25,9.52,14.78,12.8,6.86,4.08,14.72,5.74,23,7.49,3.67.78,7.46,1.58,11.15,2.6a91.74,91.74,0,0,1,30.11,14.79c4.07,3.06,8.92,7.35,10.28,13.43h0c2.33,10.45-6.56,19.46-15.66,24.4-17.66,9.59-38.29,12.35-56.14,13.78C575.7,704.78,560.19,705.26,544.73,705.26ZM361.48,695h.1c16.69.84,35.61.94,53.91,1s37.34.19,54.16,1c39.66,2,80.68,4.06,121,.81,17.26-1.38,37.16-4,53.88-13.11,7-3.77,14.48-10.8,12.84-18.19-1-4.27-4.86-7.65-8.15-10.12A85.75,85.75,0,0,0,621,642.61c-3.51-1-7.22-1.76-10.8-2.52-8.41-1.78-17.1-3.61-24.77-8.17-6.17-3.66-11.14-8.77-16-13.72-2.31-2.39-4.71-4.85-7.17-7.07-13.07-11.78-31.51-19.69-53.32-22.87-17.71-2.57-35.55-2-52.31-1.15l-5.24.26,2.66-4.52C467.82,559.49,476,525.9,476,493c0-41.91-20.58-83.46-53.72-108.43a128.16,128.16,0,0,0-12.64-8.38l-3-1.77,2.37-2.59c8-8.75,21.49-28.86,22.43-65.27a107.23,107.23,0,0,0-4.93-35.41l-.76-2.39,100.38-46.28,44.84,13.67c-2.1-.89-5.82-2.43-12.4-5.08-9.94-4-21.18-8.39-21.29-8.44l-1.8-.7v-3.75l1.65-.77L583.55,196l-55.73,15.95-1.19-1.17c-1.24-1.25-1.24-1.25,1.14-10.88.29-1.19.6-2.47.94-3.79l.36-1.45L520.68,214,413.76,244.58l-1.16-1.67a110.63,110.63,0,0,0-44.33-37.33L360.33,204l6-3.81a67.15,67.15,0,0,0,26.28-31.76c7.54-19.35,9.35-64.81-20.22-87.26C365.3,75.82,353,69,334.38,67l-1.59-.18L307,10.73l-.4.18-1.09-2.83C305,7,300.82,4.7,291,5.07a63.54,63.54,0,0,0-8,.84,37.33,37.33,0,0,0-6.84,1.84c-8.78,3.29-13.37,8.69-13.37,10.66v2l3.44,61.47-1.19.91C251.45,93.28,243.36,108.5,241,128.05l-.29,2.41-2.43.08c-2.88.09-5.79,0-8.23.15-.95.05-1.76.1-2.47.16,2.48,1.16,5.58,2.53,8.44,3.63l2.45.93,1.87.71,0,2a106.26,106.26,0,0,0,1.53,19.95,84.4,84.4,0,0,0,4.72,17c.26.7.52,1.32.81,1.92,4.55,10.27,11.67,19.56,21.81,28.46l3.87,3.4-4.94,1.45c-3.67,1.08-22.91,8-40.91,38.27-2,3.35-3.81,6.69-5.4,9.93l-1.18,2.38-65.43-27.28-2.81-1.51v-1.4c-2.58-11.72-4.42-20.09-5.73-26.08l3.09,26.05-49.13-26.31,44.21,27.08v4l-4.77.72,9.81-1,.95-.1L215,274.45l-.7,2.13c-8.37,25.58-6.08,46.23-2.68,59.05,5.6,21.16,11,27.43,11.1,27.49L225.3,366l-3.51,1.61A130.92,130.92,0,0,0,188.29,389c-27.73,24.68-43,61.6-43,104,0,39.36,7.56,71.07,22.46,94.24l3.41,5.3-6.23-1c-54-8.4-110.85,10.91-148.28,50.38-5.06,5.34-10.59,11.85-13.24,19.62S1.74,677.44,6,682.72c6.25,7.83,18.25,8.79,29,9.08h.53c106.84,3,217.31,6,325.89,3.19Z" transform="translate(3.71 0.64)" style="fill: transparent"/>
  <path class="outline" d="M572.93,235.39a9,9,0,0,1-4.11-.86,6,6,0,0,1-3.05-3.58c-1.71-5.23.46-11.85,5-15.4a26.21,26.21,0,0,1,8.31-3.82c2.56-.81,5-1.59,6.75-3l3-2.52,1.4,3.7c1.59,4.21,3.4,10.44.68,16a16,16,0,0,1-9.69,7.83A28.39,28.39,0,0,1,572.93,235.39Zm13.17-20.21a40.62,40.62,0,0,1-5.25,1.95,21.26,21.26,0,0,0-6.57,2.91c-2.64,2-4.07,6.24-3.12,9.15v0a.37.37,0,0,0,.23.27c.68.34,2.63.65,8.15-1.16a10.6,10.6,0,0,0,6.36-4.94C586.93,221.28,587,218.62,586.1,215.18Z" transform="translate(3.71 0.64)" style="fill: transparent"/>
  <path class="outline" d="M518.29,192.21,531.59,176c-3.18-2.59-6.2-5.73-7.16-10.06-.84-3.82.07-8,2.72-12.53.85-1.45,1.79-2.81,2.7-4.13a47.71,47.71,0,0,0,3.16-5l1.79-3.48,2.75,2.79q2.67,2.72,5.33,5.44c2,2,4.39,4.47,5.49,7.82,1.32,4.1.36,9-2.57,13.15-2.47,3.49-5.85,6-8.84,8.26Zm17.8-42.05c-.52.79-1.05,1.56-1.57,2.32-.89,1.29-1.74,2.51-2.48,3.78-1.31,2.22-2.73,5.47-2.07,8.44s3.16,5.28,5.77,7.34a26.21,26.21,0,0,0,5.43-5.34c1.9-2.7,2.58-5.73,1.81-8.12-.69-2.08-2.53-4-4.15-5.62C537.92,152,537,151.1,536.09,150.16Z" transform="translate(3.71 0.64)" style="fill: transparent"/>
  <path class="outline" d="M492.7,261a14.85,14.85,0,0,1-10.37-4,12.59,12.59,0,0,1-3.76-7.72,5.6,5.6,0,0,1,1.06-4.52c1.22-1.35,2.93-1.53,4.56-1.52A23.87,23.87,0,0,1,498.48,248c.66.5,1.28,1,1.89,1.54a15.82,15.82,0,0,0,3.5,2.5l4.58,2-4.1,2.87a20.87,20.87,0,0,1-10.72,3.93Zm-8.46-12.09a7,7,0,0,0,2,4,9.46,9.46,0,0,0,7,2.39,12.89,12.89,0,0,0,4-.87l-.58-.49c-.54-.46-1.08-.92-1.64-1.35A18.25,18.25,0,0,0,484.24,248.86Z" transform="translate(3.71 0.64)" style="fill: transparent"/>
  <path class="outline" d="M185,239.77a22.42,22.42,0,0,1-6.52-1l-5.53-1.67,4-2.84a23.7,23.7,0,0,1,18.55-18.21l1.47-.26,1.05,1.06a12.56,12.56,0,0,1,2.5,13.17,15.42,15.42,0,0,1-9.54,8.81h0A18.73,18.73,0,0,1,185,239.77ZM182.81,234a13.63,13.63,0,0,0,6.31-.5h0a9.83,9.83,0,0,0,6.05-5.47,7.16,7.16,0,0,0-.37-6A18,18,0,0,0,182.81,234Z" transform="translate(3.71 0.64)" style="fill: transparent"/>
  <path class="outline" d="M172.79,274.48a22,22,0,0,1-17-8.14,3,3,0,0,1-.5-2.7c.85-2.78,9.57-6.14,9.65-6.17A27.38,27.38,0,0,1,175,256.15a24.55,24.55,0,0,1,10.13,2.66,5.54,5.54,0,0,1,3,4.07c.45,3.2-2,6.08-3.14,7.16a15.78,15.78,0,0,1-7.77,4h0A20.1,20.1,0,0,1,172.79,274.48Zm-10.5-9.5A16.41,16.41,0,0,0,176,268.47a10.27,10.27,0,0,0,5-2.46,5.69,5.69,0,0,0,1.49-2.19l0,0a18.89,18.89,0,0,0-7.75-2,21.81,21.81,0,0,0-8,1.05C166.07,263.08,164,264.08,162.29,265Z" transform="translate(3.71 0.64)" style="fill: transparent"/>
  <path class="outline" d="M122.73,192.88l18.42-6.67a14.09,14.09,0,0,1,.74-12.53c2.45-4.52,6.61-7.54,10.32-10l1.1-.73c3.22-2.15,6.27-4.17,8.43-6.93l2.72-3.48,2,3.92a51,51,0,0,1,4.07,9.34,18.88,18.88,0,0,1,0,11.17c-1.6,4.7-5.67,8.66-11.17,10.89-4.62,1.86-9.45,2.34-14.13,2.81Zm40.53-30.27a57.26,57.26,0,0,1-6.82,5l-1.08.72c-3.14,2.11-6.65,4.64-8.5,8-1.34,2.46-1.72,6.1,0,8.39a39.13,39.13,0,0,0,10.44-2.21c4-1.6,6.85-4.32,7.92-7.46a13.53,13.53,0,0,0-.12-7.79A31.06,31.06,0,0,0,163.26,162.61Z" transform="translate(3.71 0.64)" style="fill: transparent"/>
  <path class="outline" d="M87.19,246.48a10.64,10.64,0,0,1-1.26-.07h0A15.46,15.46,0,0,1,76.15,241a40.86,40.86,0,0,1-5.37-8.43l-1.16-2.2,2-1.43a19.09,19.09,0,0,1,28.19,7.36c2.16,4.74-2.34,6.88-4,7.68l-.82.4A17.2,17.2,0,0,1,87.19,246.48Zm-.68-5.71a10.86,10.86,0,0,0,5.9-1.46l1-.47c.35-.17.8-.38,1.13-.57a13.52,13.52,0,0,0-7.81-6.53,13.73,13.73,0,0,0-9.61.59,26.61,26.61,0,0,0,3.3,4.88A9.91,9.91,0,0,0,86.51,240.77Z" transform="translate(3.71 0.64)" style="fill: transparent"/>
</svg>