<svg id="Слой_1" data-name="Слой 1" xmlns="http://www.w3.org/2000/svg" viewBox="0 0 247.6 85"><defs><style>.cls-1{fill:#5f2c10;}.cls-2{fill:#dc0000;}.cls-3{fill:#008498;}.cls-4{fill:#fff;}.cls-5{fill:#889800;}</style></defs><title>8</title><path class="cls-1" d="M23.31,299.09h0v18.53q0,.4.12.78a11.93,11.93,0,0,0,8.1,9.05L61.78,338.5l2.4.87a7.9,7.9,0,0,0,.82.2,10.55,10.55,0,0,0,2.12.21,8.82,8.82,0,0,0,8.15-5,10.5,10.5,0,0,0,1-8.16,10.46,10.46,0,0,1-1,2.39,9.62,9.62,0,0,1-2.88,3.4,8.48,8.48,0,0,1-1.75,1.26c-.36,0-.71,0-1,0a9.51,9.51,0,0,1-2.49.32,10.19,10.19,0,0,1-2.93-.41L32.72,322.12a8.24,8.24,0,0,1-3.5-1.34c-.22-.16-.43-.33-.65-.51a11.92,11.92,0,0,1-5.26-8.42V299.09M48.64,283h0c0,2.26,0,4.64-.06,7.1,0,2,0,3.71,0,5.1a1,1,0,0,1,0,.1c0-.34,0-.68,0-1,0-4.1,0-8,0-11.3m2.57-8.64a6.71,6.71,0,0,1-2.57,2.86V283a6.69,6.69,0,0,0,3.23-5.75,6.55,6.55,0,0,0-.4-2.26c-.08-.21-.17-.42-.26-.63m-30.35,0c-.1.21-.18.42-.26.63a6.8,6.8,0,0,0-.4,2.31,6.68,6.68,0,0,0,3,5.54l.14.09v-5.79a6.72,6.72,0,0,1-2.45-2.78" transform="translate(-20.2 -264.78)"/><path class="cls-2" d="M76.32,320.93c.58,3.52-1.06,8.14-1.08,8.14h0c-1,1-1.69,2.25-2.85,3.33a9.62,9.62,0,0,0,2.88-3.4,10.46,10.46,0,0,0,1-2.39,10.66,10.66,0,0,0,.39-3.36,10.79,10.79,0,0,0-.37-2.32M49.51,302.46c.39.9,1.08,1.33,1.2,1.8L32.84,322.13h-.12l31.46,11.49a10.19,10.19,0,0,0,2.93.41,9.51,9.51,0,0,0,2.49-.32h-.69a17.46,17.46,0,0,1-8.69-2c5-5,10.24-10.24,14.13-14.11a4,4,0,0,1,.88.74,10.53,10.53,0,0,0-2.63-3c-.74-.54-3.92-1.88-7.62-3.5,1.07.53,1.82.91,1.81.93-4.54,4.56-15.86,15.86-15.86,15.86l-9.06-3.27,16.52-16.52c-3.33-1.6-6.19-3.19-7.15-4.38-.77-.95-1.33-1.48-1.73-2.07m-.87-25.26-.2.11,0,4.59L23.54,306.77l-.23-8.44v13.52a11.92,11.92,0,0,0,5.26,8.42,21.13,21.13,0,0,1-3.09-3.11L48,294.67h0c.21,0,.39.19.54.52,0-1.39,0-3.06,0-5.1,0-2.46,0-4.84.06-7.1,0-.66,0-1.3,0-1.93V277.2m-25.33-.08v17.55l16.48-16.49H26.93a6.65,6.65,0,0,1-3.62-1.06" transform="translate(-20.2 -264.78)"/><path class="cls-3" d="M74.35,317.63c-3.89,3.87-9.09,9.09-14.13,14.11a17.46,17.46,0,0,0,8.69,2h.69c.33,0,.68,0,1,0a8.48,8.48,0,0,0,1.75-1.26c1.16-1.08,1.8-2.29,2.85-3.33h0s1.66-4.62,1.08-8.14a5.24,5.24,0,0,0-1.06-2.53l0,0a4,4,0,0,0-.88-.74m-15.67-9-.29.28L41.87,325.43l9.06,3.27s11.32-11.3,15.86-15.86c0,0-.74-.4-1.81-.93-2.09-1-5.38-2.66-6.3-3.28M48,294.67h0l-22.5,22.49a21.13,21.13,0,0,0,3.09,3.11c.22.18.43.35.65.51a8.24,8.24,0,0,0,3.5,1.34h.12l17.87-17.87c-.12-.47-.81-.9-1.2-1.8a3.81,3.81,0,0,1-.29-1.68c0-.47,0-1.06,0-1.69a13.45,13.45,0,0,0-.63-3.8,1,1,0,0,0,0-.1c-.15-.33-.33-.52-.54-.52m.44-17.36a6.58,6.58,0,0,1-3.3.87H39.79L23.31,294.67l-.11.1.11,3.56.23,8.44L48.41,281.9l0-4.59" transform="translate(-20.2 -264.78)"/><path class="cls-4" d="M45.14,264.78H26.93a6.7,6.7,0,0,0-3.62,12.34h0a6.65,6.65,0,0,0,3.62,1.06H45.14a6.58,6.58,0,0,0,3.3-.87l.2-.11a6.7,6.7,0,0,0-3.5-12.42" transform="translate(-20.2 -264.78)"/><path class="cls-1" d="M214.41,318.05v5.57a11.92,11.92,0,0,0,8.22,9.83h0c.88.31,2,.71,3.21,1.17l21.67,7.9,7.77,2.84a10.22,10.22,0,0,0,2.94.41,8.76,8.76,0,0,0,6.24-2.42,9.9,9.9,0,0,0,1.91-2.59,10.47,10.47,0,0,0,1.3-6.89,11,11,0,0,0-.27-1.27,10.46,10.46,0,0,1-1,2.39,8.81,8.81,0,0,1-8.16,5,10.19,10.19,0,0,1-2.93-.41l-2.63-1-.14.14c-1.62-.64-2.94-1.19-4-1.66l-16-5.85a29.1,29.1,0,0,1-6.86-2.51l-3-1.09a11.94,11.94,0,0,1-7.74-7.68,10.9,10.9,0,0,1-.48-1.95m25.26-15.74,0,0c0,.32,0,.61,0,.89,0-.29,0-.6,0-.91m.07-13.32h0c0,.31,0,.62,0,.93h0V289m2.57-8.65a6.71,6.71,0,0,1-2.57,2.86c0,1.22,0,2.51,0,3.86,0,.62,0,1.26,0,1.93a6.71,6.71,0,0,0,3.23-5.76,6.63,6.63,0,0,0-.66-2.89m-30.35,0a6.72,6.72,0,0,0,2.45,8.57v-5.79a6.72,6.72,0,0,1-2.45-2.78" transform="translate(-20.2 -264.78)"/><path class="cls-2" d="M247,313.68q1.92,1.08,3.9,2c-5.46,5.44-11.53,11.52-16.11,16.09h0s-1-.19-2.35-.53l16,5.85a29.93,29.93,0,0,1-4.46-2.19h0l15.27-15.28c4.46.66,7.19,5.13,7,5.3l-13.69,13.69,2.63,1a10.19,10.19,0,0,0,2.93.41,8.81,8.81,0,0,0,8.16-5,10.46,10.46,0,0,0,1-2.39,8.82,8.82,0,0,0,.27-1.26,10.36,10.36,0,0,0,0-3.24,10.46,10.46,0,0,0-3.21-6.06c-.24-.22-.49-.43-.75-.64a70.39,70.39,0,0,0-6.5-3c-3.27-1.42-7.16-3.13-10.18-4.72m-7.38-11.35-22,22h0c-.3,0-1.89-1.76-2.78-4.29a11.94,11.94,0,0,0,7.74,7.68l3,1.09-.05,0,17.5-17.49.16.11a5.52,5.52,0,0,1-.88-.83l-.4-.48c-1.66-1.95-2.18-2-2.28-6.83,0-.28,0-.57,0-.89m.09-19.13a6.72,6.72,0,0,1-3.5,1h-3.11l-18.72,18.73v12.48a1.1,1.1,0,0,1,0-.18l25.29-25.29c0-.31,0-.62,0-.93v-1.93c0-1.35,0-2.64,0-3.86m-25.33-.08v7.45l6.39-6.39H218a6.65,6.65,0,0,1-3.61-1.06" transform="translate(-20.2 -264.78)"/><path class="cls-5" d="M244,334.94h0m15.28-15.28L244,334.94a29.93,29.93,0,0,0,4.46,2.19c1.07.47,2.39,1,4,1.66l.14-.14L266.34,325c.16-.17-2.57-4.64-7-5.3m-16.25-8.41-17.5,17.49.05,0a29.1,29.1,0,0,0,6.86,2.51c1.34.34,2.31.53,2.35.53h0c4.58-4.57,10.65-10.65,16.11-16.09q-2-1-3.9-2c-.63-.36-1.25-.72-1.87-1.1s-1.3-.8-1.94-1.22l-.16-.11m-3.24-21.43-.08.09h0l-25.29,25.29a1.1,1.1,0,0,0,0,.18h0a8.47,8.47,0,0,0,0,2.66,10.9,10.9,0,0,0,.48,1.95c.89,2.53,2.48,4.29,2.78,4.29h0l22-22,0,0,.1-.1s.07-1.33.15-3.12c.06-1.45.12-3.2.14-4.81a21.55,21.55,0,0,0-.24-4.46m-6.69-5.64H220.8l-6.39,6.39h0l-.07.07c0,.27,0,1.77,0,3.64,0,1.52,0,3.27,0,4.81,0,2.15,0,3.88,0,3.9l.09-.08,18.72-18.73" transform="translate(-20.2 -264.78)"/><path class="cls-4" d="M236.24,270.78H218a6.7,6.7,0,0,0-3.61,12.34h0a6.65,6.65,0,0,0,3.61,1.06h18.22a6.7,6.7,0,1,0,0-13.4" transform="translate(-20.2 -264.78)"/><path class="cls-1" d="M149.67,325.86v1.76a12,12,0,0,0,8.22,9.83l13.93,5.08,13.26,4.84,5.48,2a10.11,10.11,0,0,0,2.93.41,8.78,8.78,0,0,0,6.23-2.41,10.05,10.05,0,0,0,1.93-2.6,10.77,10.77,0,0,0,1-2.24,10.55,10.55,0,0,0,0-5.92,11.09,11.09,0,0,1-1,2.39,8.82,8.82,0,0,1-8.17,5,11,11,0,0,1-2.5-.28,6.33,6.33,0,0,1-.76,0,5,5,0,0,1-3.7-1.64l-28.63-10.46a12,12,0,0,1-4.94-3.06,5,5,0,0,1-3.28-2.76M175,295.21c0,1.11,0,2.17,0,3.24,0,.54,0,1.09,0,1.64,0,3.16-.05,5.44,0,7.13,0-.43,0-.89,0-1.36,0-2.34.05-4.61.06-6.77,0-1.34,0-2.64,0-3.88m-27.78-10.87a6.72,6.72,0,0,0,2.44,8.57v-5.79a6.77,6.77,0,0,1-2.44-2.78m30.35,0A6.71,6.71,0,0,1,175,287.2c0,1.22,0,2.51,0,3.86,0,.4,0,.82,0,1.24l0,0c0,.24,0,.46,0,.69a6.71,6.71,0,0,0,2.55-8.63" transform="translate(-20.2 -264.78)"/><path class="cls-2" d="M173.22,331.78a5,5,0,1,1,5-5,5,5,0,0,1-5,5m-7-17a5,5,0,1,1,5-5,5,5,0,0,1-5,5m-16.56-27.66v8.59a5,5,0,1,1,0,4.15v21.85a5,5,0,1,1,4.56,7.07,5.34,5.34,0,0,1-1.28-.16,12,12,0,0,0,4.94,3.06l28.63,10.46a5,5,0,1,1,4.46,1.59,11,11,0,0,0,2.5.28,8.82,8.82,0,0,0,8.17-5,11.09,11.09,0,0,0,1-2.39,10.49,10.49,0,0,0-3.7-11.2,39.68,39.68,0,0,0-4.54-2.16l-.44-.19c.29.21.45.4.45.54a4.94,4.94,0,0,1-3.2,1.18h0a5,5,0,0,1-5-5,8.93,8.93,0,0,1,1,.27c-1.19-.54-2.37-1.1-3.47-1.65-2.88-1.42-5.25-2.81-6.11-3.87-2-2.45-2.57-2.09-2.68-7.31,0-1.69,0-4,0-7.13,0-.55,0-1.1,0-1.64,0,.9-.05,1.81-.09,2.74h0a5,5,0,0,1,.13-8.88v-1.25c0-1.35,0-2.64,0-3.86a6.72,6.72,0,0,1-3.5,1H153.29a6.71,6.71,0,0,1-3.62-1.06" transform="translate(-20.2 -264.78)"/><path class="cls-4" d="M190.22,333.78a5,5,0,0,0,0,10,6.33,6.33,0,0,0,.76,0,5,5,0,0,0-.76-10m-17-12a5,5,0,1,0,5,5,5,5,0,0,0-5-5m13-2a5,5,0,0,0,5,5h0a4.94,4.94,0,0,0,3.2-1.18c0-.14-.16-.33-.45-.54a33.89,33.89,0,0,0-6.8-3,8.93,8.93,0,0,0-1-.27m-32-1a5,5,0,0,0-4.56,2.93h0a5.32,5.32,0,0,0-.42,1.54,4.71,4.71,0,0,0,0,.53,5.14,5.14,0,0,0,.45,2.08,5,5,0,0,0,3.28,2.76,5.34,5.34,0,0,0,1.28.16,5,5,0,0,0,0-10m12-14a5,5,0,1,0,5,5,5,5,0,0,0-5-5m-12-12a5,5,0,0,0-4.56,2.93h0a4.94,4.94,0,0,0-.27,3.38,5,5,0,0,0,.27.77h0a5,5,0,1,0,4.56-7.08m20.82-.5,0,0h0a5,5,0,0,0-.13,8.88h0c0-.93.07-1.84.09-2.74,0-1.07,0-2.13,0-3.24,0-.3,0-.61,0-.93s0-.86,0-1.31c0-.23,0-.45,0-.69" transform="translate(-20.2 -264.78)"/><path class="cls-4" d="M171.51,274.78H153.29a6.9,6.9,0,0,0-1.58.19,6.72,6.72,0,0,0-4.48,9.37,6.77,6.77,0,0,0,2.44,2.78h0a6.71,6.71,0,0,0,3.62,1.06h18.22a6.7,6.7,0,0,0,6.07-3.84,6.84,6.84,0,0,0,.63-2.86A6.7,6.7,0,0,0,173.1,275a6.92,6.92,0,0,0-1.59-.19" transform="translate(-20.2 -264.78)"/><path class="cls-1" d="M83.83,299.09h0v18.53c0,.27.07.52.12.78h0A12,12,0,0,0,92,327.45l10,3.64,3.23,1.17,19.47,7.11a10.22,10.22,0,0,0,2.94.41,8.82,8.82,0,0,0,8.15-5,10.45,10.45,0,0,0,1-8.16,10,10,0,0,1-1,2.39,8.82,8.82,0,0,1-8.16,5,10.19,10.19,0,0,1-2.93-.41S99.82,324.51,92,321.68a11.94,11.94,0,0,1-8.2-9.83V299.09m25.24-2.31h0c0,.15,0,.3,0,.44v-.44m.06-7h0v.31c0,1.84,0,3.39,0,4.69h0v-.5c0-1.54,0-3,0-4.5m0-6.82h0c0,.27,0,.54,0,.81h0V283m2.55-8.57a6.69,6.69,0,0,1-2.55,2.82c0,1.21,0,2.5,0,3.85,0,.61,0,1.25,0,1.9a6.68,6.68,0,0,0,3.19-5.68,6.8,6.8,0,0,0-.4-2.31,5.89,5.89,0,0,0-.24-.58m-30.32-.05c-.1.21-.18.42-.26.63a6.8,6.8,0,0,0-.4,2.31,6.71,6.71,0,0,0,3.11,5.63v-5.79a6.72,6.72,0,0,1-2.45-2.78" transform="translate(-20.2 -264.78)"/><path class="cls-2" d="M102,323.25h0M83.83,277.12v34.73a11.94,11.94,0,0,0,8.2,9.83c7.79,2.83,32.67,11.93,32.67,11.93a10.19,10.19,0,0,0,2.93.41,8.82,8.82,0,0,0,8.16-5,10,10,0,0,0,1-2.39,10.11,10.11,0,0,0,.39-3.36,10.43,10.43,0,0,0-1.43-4.85,10.56,10.56,0,0,0-2.64-3c-.82-.59-4.51-2.12-8.63-3.93L121.28,310c-4.28-2-8.34-4-9.53-5.5-1.71-2.11-2.38-2.14-2.6-5.44,0-.53-.06-1.14-.08-1.87,0-.14,0-.29,0-.44H84.22v-2h24.83c0-1.3,0-2.85,0-4.69v-.31H84.22v-6h24.91c0-.27,0-.54,0-.81v-1.91c0-1.35,0-2.64,0-3.85a6.68,6.68,0,0,1-3.49,1H87.45a6.65,6.65,0,0,1-3.62-1.06" transform="translate(-20.2 -264.78)"/><path class="cls-4" d="M109.22,294.78h-25v2h25v-2m0-11h-25v6h25v-6" transform="translate(-20.2 -264.78)"/><path class="cls-4" d="M102,275h0m3.66-10.19H87.45a6.7,6.7,0,0,0-3.62,12.34h0a6.65,6.65,0,0,0,3.62,1.06h18.21a6.66,6.66,0,0,0,6-3.79,6.61,6.61,0,0,0,.66-2.91,6.7,6.7,0,0,0-6.7-6.7" transform="translate(-20.2 -264.78)"/></svg>