<svg id="Слой_1" data-name="Слой 1" xmlns="http://www.w3.org/2000/svg" viewBox="0 0 270.78 446.27"><defs><style>.cls-1{fill:#9da544;}.cls-2{fill:#70762b;}.cls-3{fill:#b856b0;}.cls-4{fill:#e092da;}.cls-5{fill:#ff7800;}.cls-6{fill:#ffebfd;}.cls-7{fill:#00f0ff;}</style></defs><title>9</title><path class="cls-1" d="M270.12,484.2H128.74l-.83,22.53-98.12,1.6,6.3-24.13H17.87L9.53,498.65A6.92,6.92,0,0,0,10.61,507a7.15,7.15,0,0,0,1.46,1.12,6.79,6.79,0,0,0,3.42.91,6.93,6.93,0,0,0,2.37-.42H269.59l-.07-.23a7,7,0,0,0,3,.66,6.84,6.84,0,0,0,3.45-.92h0a6.9,6.9,0,0,0,2.51-9.43l-8.34-14.45M163,453.45a9,9,0,1,1,9-9,9,9,0,0,1-9,9m75-8a9,9,0,1,1,9-9,9,9,0,0,1-9,9m-30-75a9,9,0,1,1,9-9,9,9,0,0,1-9,9m-15-88a9,9,0,1,1,9-9,9,9,0,0,1-9,9m-16-87a9,9,0,1,1,9-9,9,9,0,0,1-9,9M144,62.74l-5.94,20.9-.14.48a7.12,7.12,0,0,0-.9,2.3l-2.08,3.65-32.11,56.29a6.92,6.92,0,0,0,2.53,9.44,6.79,6.79,0,0,0,3.4.91,7.16,7.16,0,0,0,1.3-.13L90,191.4a6.9,6.9,0,0,0,8,10l-.72,1.25-3.72,6.44L78.7,234.83a6.89,6.89,0,0,0,5.94,10.36,7,7,0,0,0,1.57-.18l-1.92,3.33L64.23,283.09a6.9,6.9,0,0,0,6,10.37l.51,0L60,312.07,59,313.7,52.52,325l-2.77,4.79A6.9,6.9,0,0,0,49,334.6a7.52,7.52,0,0,0,.5,1.52,6.89,6.89,0,0,0,9.17,3.34l-10.85,18.8L40.1,371.57A6.87,6.87,0,0,0,46,381.91h0l-8.86,15.35-8.38,14.52a6.9,6.9,0,0,0,10.87,8.32l-2.49,4.31L24.31,446.78a8.45,8.45,0,1,1-.21.35l-4,6.95-2.51,4.35a6.9,6.9,0,0,0,9.9,9.13l-7.39,12.8-2.22,3.84H36.09l88.12-337.59A9,9,0,0,1,128,129.45c.23,0,.46,0,.68,0L144,70.78,128.74,484.2H270.12l-9.61-16.64a6.9,6.9,0,0,0,9.91-9.13L248.29,420.1a6.9,6.9,0,0,0,10.87-8.32l-17.25-29.87H242a6.87,6.87,0,0,0,5.93-10.34L233.78,347.1l-4.41-7.64a6.93,6.93,0,0,0,2.91.65,6.9,6.9,0,0,0,6-10.37L235.48,325,229,313.7l-.94-1.63-10.76-18.63.52,0a6.79,6.79,0,0,0,3.46-.94,6.89,6.89,0,0,0,2.5-9.43l-15.33-26.56L201.79,245a6.77,6.77,0,0,0,1.55.18,6.89,6.89,0,0,0,5.95-10.36L196.1,212l-1.64-2.84-3.72-6.44-.72-1.25a6.78,6.78,0,0,0,2,.31,6.9,6.9,0,0,0,6-10.36l-20.1-34.82a7.16,7.16,0,0,0,1.3.13,6.79,6.79,0,0,0,3.4-.91h0a6.91,6.91,0,0,0,2.52-9.44l-2-3.52-8.85-15.53L153.06,90.07,151,86.37A6.88,6.88,0,0,0,150,84l-.1-.35L144,62.74" transform="translate(-8.61 -62.74)"/><path class="cls-2" d="M128.74,484.2H99a9,9,0,0,1-11.9,0h-51l-6.3,24.13,98.12-1.6.83-22.53M99,346.45a9,9,0,1,1,9-9,9,9,0,0,1-9,9m12-81a9,9,0,1,1,9-9,9,9,0,0,1-9,9M144,70.78l-15.32,58.7a9,9,0,1,1-4.47,17.13L36.09,484.2h51a9,9,0,1,1,11.9,0h29.79L144,70.78" transform="translate(-8.61 -62.74)"/><path class="cls-3" d="M180,188.45a4,4,0,1,1,4-4,4,4,0,0,1-4,4m-3-11a9,9,0,1,0,9,9,9,9,0,0,0-9-9" transform="translate(-8.61 -62.74)"/><path class="cls-4" d="M180,180.45a4,4,0,1,0,4,4,4,4,0,0,0-4-4" transform="translate(-8.61 -62.74)"/><path class="cls-5" d="M102,339.45a4,4,0,1,1,4-4,4,4,0,0,1-4,4m-3-11a9,9,0,1,0,9,9,9,9,0,0,0-9-9" transform="translate(-8.61 -62.74)"/><path class="cls-6" d="M102,331.45a4,4,0,1,0,4,4,4,4,0,0,0-4-4" transform="translate(-8.61 -62.74)"/><path class="cls-7" d="M131,140.45a4,4,0,1,1,4-4,4,4,0,0,1-4,4m-3-11a9,9,0,0,0-3.79,17.16,8.91,8.91,0,0,0,3.79.84,9,9,0,0,0,.68-18c-.22,0-.45,0-.68,0" transform="translate(-8.61 -62.74)"/><path class="cls-6" d="M131,132.45a4,4,0,1,0,4,4,4,4,0,0,0-4-4" transform="translate(-8.61 -62.74)"/><path class="cls-7" d="M211,363.45a4,4,0,1,1,4-4,4,4,0,0,1-4,4m-3-11a9,9,0,1,0,9,9,9,9,0,0,0-9-9" transform="translate(-8.61 -62.74)"/><path class="cls-6" d="M211,355.45a4,4,0,1,0,4,4,4,4,0,0,0-4-4" transform="translate(-8.61 -62.74)"/><path class="cls-7" d="M114,258.45a4,4,0,1,1,4-4,4,4,0,0,1-4,4m-3-11a9,9,0,1,0,9,9,9,9,0,0,0-9-9" transform="translate(-8.61 -62.74)"/><path class="cls-6" d="M114,250.45a4,4,0,1,0,4,4,4,4,0,0,0-4-4" transform="translate(-8.61 -62.74)"/><path class="cls-7" d="M166,446.45a4,4,0,1,1,4-4,4,4,0,0,1-4,4m-3-11a9,9,0,1,0,9,9,9,9,0,0,0-9-9" transform="translate(-8.61 -62.74)"/><path class="cls-6" d="M166,438.45a4,4,0,1,0,4,4,4,4,0,0,0-4-4" transform="translate(-8.61 -62.74)"/><path class="cls-5" d="M196,275.45a4,4,0,1,1,4-4,4,4,0,0,1-4,4m-3-11a9,9,0,1,0,9,9,9,9,0,0,0-9-9" transform="translate(-8.61 -62.74)"/><path class="cls-6" d="M196,267.45a4,4,0,1,0,4,4,4,4,0,0,0-4-4" transform="translate(-8.61 -62.74)"/><path class="cls-5" d="M99,484.2H87.05a9,9,0,0,0,11.9,0m-3-4.75a4,4,0,1,1,4-4,4,4,0,0,1-4,4m-3-11a9,9,0,0,0-6,15.75H99a9,9,0,0,0-6-15.75" transform="translate(-8.61 -62.74)"/><path class="cls-6" d="M96,471.45a4,4,0,1,0,4,4,4,4,0,0,0-4-4" transform="translate(-8.61 -62.74)"/><path class="cls-3" d="M241,438.45a4,4,0,1,1,4-4,4,4,0,0,1-4,4m-3-11a9,9,0,1,0,9,9,9,9,0,0,0-9-9" transform="translate(-8.61 -62.74)"/><path class="cls-4" d="M241,430.45a4,4,0,1,0,4,4,4,4,0,0,0-4-4" transform="translate(-8.61 -62.74)"/><path class="cls-3" d="M35,453.45a4,4,0,1,1,4-4,4,4,0,0,1-4,4m-3-11a9,9,0,0,0-7.69,4.33l-.21.35a9,9,0,1,0,7.9-4.68" transform="translate(-8.61 -62.74)"/><path class="cls-4" d="M35,445.45a4,4,0,1,0,4,4,4,4,0,0,0-4-4" transform="translate(-8.61 -62.74)"/></svg>