<svg xmlns="http://www.w3.org/2000/svg" viewBox="0 0 495.86719 495.67185" style="z-index: 100000000;">
    <g data-name="popup">
        <rect x="10.30974" y="5.82589" width="485.55745" height="489.84596" rx="12" ry="12" style="fill:#3a301f"/>
        <rect width="485.55745" height="489.84596" rx="12" ry="12" style="fill:#fff"/>
        <path d="M1305.85107,776.49156h-5.55468l-2.208-5.74414H1287.979l-2.08691,5.74414h-5.417l9.85058-25.29h5.39942Zm-9.40136-10.00586-3.48535-9.38379-3.415,9.38379Z" transform="translate(-1261 -543.05149)" style="fill:#7a923c"/>
        <path d="M1318.15088,758.17125h4.83105v7.48633a2.49563,2.49563,0,0,0,1.707-.74121,9.78529,9.78529,0,0,0,1.208-2.63965,7.00213,7.00213,0,0,1,2.03516-3.46777,5.02279,5.02279,0,0,1,2.89844-.75879q.55224,0,1.915.08593l.01757,3.209a5.17286,5.17286,0,0,0-2.45019.3623,5.0134,5.0134,0,0,0-1.15528,2.25977q-.84521,2.53565-2.43261,3.12305,2.29393.6372,3.88183,3.98437c.05664.11523.12012.23633.18946.36231l2.708,5.05468h-5.21l-2.415-5.2959a6.45193,6.45193,0,0,0-1.28515-2.06152,2.45166,2.45166,0,0,0-1.61231-.457v7.81445h-4.83105Z" transform="translate(-1261 -543.05149)" style="fill:#7a923c"/>
        <path d="M1334.437,767.07262a9.91535,9.91535,0,0,1,1.18945-4.67481,8.16755,8.16755,0,0,1,3.37305-3.45019,10.00405,10.00405,0,0,1,4.873-1.19043,9.14817,9.14817,0,0,1,6.81445,2.69922,9.33155,9.33155,0,0,1,2.65625,6.82324,9.43523,9.43523,0,0,1-2.68262,6.8916,9.06348,9.06348,0,0,1-6.75293,2.73438,10.64028,10.64028,0,0,1-4.80468-1.13868,7.8116,7.8116,0,0,1-3.47657-3.33789A11.13021,11.13021,0,0,1,1334.437,767.07262Zm4.96778.25879a6.07039,6.07039,0,0,0,1.29394,4.1748,4.22892,4.22892,0,0,0,6.374,0,6.15439,6.15439,0,0,0,1.28516-4.209,6.04192,6.04192,0,0,0-1.28516-4.14063,4.22892,4.22892,0,0,0-6.374,0A6.0704,6.0704,0,0,0,1339.40479,767.33141Z" transform="translate(-1261 -543.05149)" style="fill:#7a923c"/>
        <path d="M1356.99951,758.17125H1361.52v2.69141a6.7559,6.7559,0,0,1,2.37988-2.24317,6.5619,6.5619,0,0,1,3.33008-.8623,6.98887,6.98887,0,0,1,5.417,2.501,10.12675,10.12675,0,0,1,2.22461,6.96973q0,4.58935-2.24219,7.13281a6.9851,6.9851,0,0,1-5.43457,2.54493,6.17516,6.17516,0,0,1-2.751-.60352,9.26925,9.26925,0,0,1-2.59668-2.07031v9.22949h-4.84766Zm4.7959,8.84961a7.05091,7.05091,0,0,0,1.22559,4.5625,3.74551,3.74551,0,0,0,2.98437,1.47559,3.50157,3.50157,0,0,0,2.81152-1.3545,6.98045,6.98045,0,0,0,1.1211-4.44238,6.62975,6.62975,0,0,0-1.15528-4.27832,3.57614,3.57614,0,0,0-2.86425-1.39746,3.718,3.718,0,0,0-2.94922,1.37207A6.10307,6.10307,0,0,0,1361.79541,767.02086Z" transform="translate(-1261 -543.05149)" style="fill:#7a923c"/>
        <path d="M1377.59814,767.07262a9.91524,9.91524,0,0,1,1.18946-4.67481,8.16753,8.16753,0,0,1,3.373-3.45019,10.00408,10.00408,0,0,1,4.873-1.19043,9.14816,9.14816,0,0,1,6.81445,2.69922,9.33155,9.33155,0,0,1,2.65625,6.82324,9.43527,9.43527,0,0,1-2.68261,6.8916,9.06351,9.06351,0,0,1-6.75293,2.73438,10.64032,10.64032,0,0,1-4.80469-1.13868,7.81158,7.81158,0,0,1-3.47656-3.33789A11.13009,11.13009,0,0,1,1377.59814,767.07262Zm4.96778.25879a6.07039,6.07039,0,0,0,1.29394,4.1748,4.22893,4.22893,0,0,0,6.374,0,6.15444,6.15444,0,0,0,1.28515-4.209,6.042,6.042,0,0,0-1.28515-4.14063,4.22893,4.22893,0,0,0-6.374,0A6.0704,6.0704,0,0,0,1382.56592,767.33141Z" transform="translate(-1261 -543.05149)" style="fill:#7a923c"/>
        <path d="M1414.04932,750.61461h3.29492a5.51471,5.51471,0,0,1-1.14746,3.32129q-.99171,1.1294-4.89063,1.12988-.46581,0-.93164-.01758h-.62109a11.55081,11.55081,0,0,0-3.76074.50977,4.56928,4.56928,0,0,0-2.37207,1.97461,9.38185,9.38185,0,0,0-.957,4.72656,7.41856,7.41856,0,0,1,2.76856-3.01855,8.27133,8.27133,0,0,1,10.15234,1.80273,9.46278,9.46278,0,0,1,2.501,6.49512,9.24245,9.24245,0,0,1-2.63086,6.60742,9.0637,9.0637,0,0,1-6.874,2.75977,9.37857,9.37857,0,0,1-5.124-1.39747,7.76034,7.76034,0,0,1-3.15625-3.82128q-.94921-2.42286-.94922-8.03028,0-6.58887,2.42383-9.4707,2.42432-2.87988,8.46192-2.88086h2.44922A1.37406,1.37406,0,0,0,1414.04932,750.61461Zm-9.76465,16.85449a5.87621,5.87621,0,0,0,1.251,3.959,3.88479,3.88479,0,0,0,3.0625,1.458,3.96964,3.96964,0,0,0,3.19922-1.50976,6.69127,6.69127,0,0,0-.0166-7.81445,4.00722,4.00722,0,0,0-6.21875-.0254A5.77626,5.77626,0,0,0,1404.28467,767.4691Z" transform="translate(-1261 -543.05149)" style="fill:#7a923c"/>
        <path d="M1421.93311,758.17125h4.83105v7.48633a2.49565,2.49565,0,0,0,1.707-.74121,9.78529,9.78529,0,0,0,1.208-2.63965,7.002,7.002,0,0,1,2.03516-3.46777,5.02273,5.02273,0,0,1,2.89843-.75879q.55226,0,1.915.08593l.01758,3.209a5.17294,5.17294,0,0,0-2.4502.3623,5.01342,5.01342,0,0,0-1.15527,2.25977q-.84522,2.53565-2.43262,3.12305,2.294.6372,3.88184,3.98437c.05664.11523.12012.23633.18945.36231l2.708,5.05468h-5.21l-2.415-5.2959a6.45173,6.45173,0,0,0-1.28516-2.06152,2.45161,2.45161,0,0,0-1.6123-.457v7.81445h-4.83105Z" transform="translate(-1261 -543.05149)" style="fill:#7a923c"/>
        <path d="M1439.68408,758.17125h4.65821v11.50586l7.45214-11.50586h4.76075v18.32031H1451.898V764.7777l-7.55566,11.71386h-4.65821Z" transform="translate(-1261 -543.05149)" style="fill:#7a923c"/>
        <path d="M1460.97119,769.74645v-4.84766h9.52344v4.84766Z" transform="translate(-1261 -543.05149)" style="fill:#7a923c"/>
        <path d="M1471.11572,758.17125h16.57813v3.916h-5.86524v14.40429H1476.981V762.08727h-5.86524Z" transform="translate(-1261 -543.05149)" style="fill:#7a923c"/>
        <path d="M1489.00537,767.07262a9.91535,9.91535,0,0,1,1.18945-4.67481,8.16755,8.16755,0,0,1,3.37305-3.45019,10.00405,10.00405,0,0,1,4.873-1.19043,9.14817,9.14817,0,0,1,6.81445,2.69922,9.33155,9.33155,0,0,1,2.65625,6.82324,9.43523,9.43523,0,0,1-2.68262,6.8916,9.06348,9.06348,0,0,1-6.75293,2.73438,10.64028,10.64028,0,0,1-4.80468-1.13868,7.8116,7.8116,0,0,1-3.47657-3.33789A11.13021,11.13021,0,0,1,1489.00537,767.07262Zm4.96777.25879a6.07039,6.07039,0,0,0,1.29395,4.1748,4.22892,4.22892,0,0,0,6.374,0,6.15439,6.15439,0,0,0,1.28516-4.209,6.04192,6.04192,0,0,0-1.28516-4.14063,4.22892,4.22892,0,0,0-6.374,0A6.0704,6.0704,0,0,0,1493.97314,767.33141Z" transform="translate(-1261 -543.05149)" style="fill:#7a923c"/>
        <path d="M1521.33252,758.17125h4.83105v7.48633a2.49568,2.49568,0,0,0,1.707-.74121,9.78568,9.78568,0,0,0,1.208-2.63965,7.00213,7.00213,0,0,1,2.03516-3.46777,5.02279,5.02279,0,0,1,2.89844-.75879q.55224,0,1.915.08593l.01757,3.209a5.17286,5.17286,0,0,0-2.45019.3623,5.01332,5.01332,0,0,0-1.15527,2.25977q-.84522,2.53565-2.43262,3.12305,2.294.6372,3.88183,3.98437c.05664.11523.12012.23633.18946.36231l2.708,5.05468h-5.21l-2.415-5.2959a6.45209,6.45209,0,0,0-1.28516-2.06152,2.45166,2.45166,0,0,0-1.61231-.457v7.81445h-4.83105Z" transform="translate(-1261 -543.05149)" style="fill:#7a923c"/>
        <path d="M1542.82764,763.76012l-4.39844-.793a6.85334,6.85334,0,0,1,2.55273-3.9336,9.349,9.349,0,0,1,5.38282-1.27636,11.60134,11.60134,0,0,1,4.83007.76758,4.82593,4.82593,0,0,1,2.23438,1.94921,10.00989,10.00989,0,0,1,.64648,4.33887l-.05175,5.6582a19.65111,19.65111,0,0,0,.23242,3.5625,10.39249,10.39249,0,0,0,.87207,2.458h-4.7959q-.19042-.48339-.46582-1.43164c-.08106-.28711-.13867-.47754-.17285-.56933a8.75077,8.75077,0,0,1-2.65625,1.81152,7.6134,7.6134,0,0,1-3.01953.60352,6.243,6.243,0,0,1-4.459-1.53516,5.10283,5.10283,0,0,1-1.62988-3.88184,5.21167,5.21167,0,0,1,.74121-2.76855,4.84806,4.84806,0,0,1,2.0791-1.86328,16.22153,16.22153,0,0,1,3.85547-1.12989,26.40823,26.40823,0,0,0,4.709-1.19043v-.48242a2.51245,2.51245,0,0,0-.68945-1.99316,4.13759,4.13759,0,0,0-2.60547-.59473,3.46855,3.46855,0,0,0-2.01758.50879A3.539,3.539,0,0,0,1542.82764,763.76012Zm6.48632,3.93359a30.10567,30.10567,0,0,1-2.94921.74121,8.89034,8.89034,0,0,0-2.63965.84571,2.021,2.021,0,0,0-.94922,1.708,2.37654,2.37654,0,0,0,.75976,1.75977,2.64946,2.64946,0,0,0,1.93165.74121,4.19921,4.19921,0,0,0,2.50195-.86231,3.03363,3.03363,0,0,0,1.15527-1.60449,9.55071,9.55071,0,0,0,.18945-2.36328Z" transform="translate(-1261 -543.05149)" style="fill:#7a923c"/>
        <path d="M1558.71533,758.17125h4.52051v2.69141a6.7559,6.7559,0,0,1,2.37988-2.24317,6.5619,6.5619,0,0,1,3.33008-.8623,6.98887,6.98887,0,0,1,5.417,2.501,10.12675,10.12675,0,0,1,2.22461,6.96973q0,4.58935-2.24219,7.13281a6.9851,6.9851,0,0,1-5.43457,2.54493,6.17516,6.17516,0,0,1-2.751-.60352,9.26925,9.26925,0,0,1-2.59668-2.07031v9.22949h-4.84766Zm4.7959,8.84961a7.05091,7.05091,0,0,0,1.22559,4.5625,3.74551,3.74551,0,0,0,2.98437,1.47559,3.50157,3.50157,0,0,0,2.81152-1.3545,6.98039,6.98039,0,0,0,1.1211-4.44238,6.62981,6.62981,0,0,0-1.15527-4.27832,3.57617,3.57617,0,0,0-2.86426-1.39746,3.718,3.718,0,0,0-2.94922,1.37207A6.10307,6.10307,0,0,0,1563.51123,767.02086Z" transform="translate(-1261 -543.05149)" style="fill:#7a923c"/>
        <path d="M1577.79541,758.17125h16.57813v3.916h-5.86524v14.40429h-4.84766V762.08727h-5.86523Z" transform="translate(-1261 -543.05149)" style="fill:#7a923c"/>
        <path d="M1595.68506,767.07262a9.91523,9.91523,0,0,1,1.18945-4.67481,8.16755,8.16755,0,0,1,3.373-3.45019,10.00405,10.00405,0,0,1,4.873-1.19043,9.14819,9.14819,0,0,1,6.81445,2.69922,9.33155,9.33155,0,0,1,2.65625,6.82324,9.43527,9.43527,0,0,1-2.68262,6.8916,9.06348,9.06348,0,0,1-6.75293,2.73438,10.64032,10.64032,0,0,1-4.80469-1.13868,7.81163,7.81163,0,0,1-3.47656-3.33789A11.13009,11.13009,0,0,1,1595.68506,767.07262Zm4.96777.25879a6.07034,6.07034,0,0,0,1.29395,4.1748,4.22892,4.22892,0,0,0,6.374,0,6.15439,6.15439,0,0,0,1.28516-4.209,6.04192,6.04192,0,0,0-1.28516-4.14063,4.22892,4.22892,0,0,0-6.374,0A6.07035,6.07035,0,0,0,1600.65283,767.33141Z" transform="translate(-1261 -543.05149)" style="fill:#7a923c"/>
        <path d="M1618.19678,758.17125h4.84765v6.71H1629.98v-6.71h4.86426v18.32031H1629.98v-7.69433h-6.93555v7.69433h-4.84765Z" transform="translate(-1261 -543.05149)" style="fill:#7a923c"/>
        <path d="M1639.53662,758.17125h4.84766v6.71h6.93554v-6.71h4.86426v18.32031h-4.86426v-7.69433h-6.93554v7.69433h-4.84766Z" transform="translate(-1261 -543.05149)" style="fill:#7a923c"/>
        <path d="M1661.1001,758.17125h4.84765v7.60742h4.86426a17.95372,17.95372,0,0,1,4.374.40528,4.71768,4.71768,0,0,1,2.55273,1.76855,5.1293,5.1293,0,0,1,1.04394,3.209,4.6292,4.6292,0,0,1-1.8291,3.99317,9.27087,9.27087,0,0,1-5.48535,1.33691H1661.1001Zm4.84765,15.25h4.50293a4.56744,4.56744,0,0,0,2.55274-.55273,2.03066,2.03066,0,0,0,.79394-1.79395,1.83042,1.83042,0,0,0-1.02734-1.81934,9.4752,9.4752,0,0,0-3.68262-.49218h-3.13965Zm15.59473-15.25h4.84766v18.32031h-4.84766Z" transform="translate(-1261 -543.05149)" style="fill:#7a923c"/>
        <path d="M1701.84717,770.66051l4.83008.81054a7.92324,7.92324,0,0,1-2.94141,4.0459,8.64163,8.64163,0,0,1-5.02832,1.38868q-4.77978,0-7.07324-3.12208a10.49558,10.49558,0,0,1-1.81153-6.31445,10.11467,10.11467,0,0,1,2.38086-7.13281,7.83836,7.83836,0,0,1,6.02051-2.5791,8.13352,8.13352,0,0,1,6.45215,2.69922q2.36279,2.70117,2.25977,8.27246H1694.7915a4.90188,4.90188,0,0,0,1.17286,3.35547,3.669,3.669,0,0,0,2.79492,1.19824,2.969,2.969,0,0,0,1.915-.6211A3.8383,3.8383,0,0,0,1701.84717,770.66051Zm.27539-4.89942a4.66311,4.66311,0,0,0-1.08692-3.19921,3.33324,3.33324,0,0,0-2.51855-1.09571,3.36751,3.36751,0,0,0-2.62207,1.15528,4.47448,4.47448,0,0,0-1.01758,3.13964Z" transform="translate(-1261 -543.05149)" style="fill:#7a923c"/>
        <path d="M1710.88721,776.49156v-4.84765h4.84765v4.84765Z" transform="translate(-1261 -543.05149)" style="fill:#7a923c"/>
        <path d="M1720.70264,776.49156v-4.84765h4.84765v4.84765Z" transform="translate(-1261 -543.05149)" style="fill:#7a923c"/>
        <path d="M1730.519,776.49156v-4.84765h4.84766v4.84765Z" transform="translate(-1261 -543.05149)" style="fill:#7a923c"/>
        <path d="M1377.99561,800.56773h4.6582v11.50586l7.45215-11.50586h4.76074v18.32032h-4.65723V807.17418l-7.55566,11.71387h-4.6582Z" transform="translate(-1261 -543.05149)" style="fill:#7a923c"/>
        <path d="M1399.73193,800.56773h4.46778V814.972h5.57226v-14.4043h4.46778V814.972h5.64062v-14.4043h4.46875V814.972h1.9834v8.7461h-3.916v-4.83008h-22.68457Z" transform="translate(-1261 -543.05149)" style="fill:#7a923c"/>
        <path d="M1429.52393,800.56773h4.6582v11.50586l7.45215-11.50586h4.76074v18.32032h-4.65723V807.17418l-7.55566,11.71387h-4.6582Z" transform="translate(-1261 -543.05149)" style="fill:#7a923c"/>
        <path d="M1449.19092,800.56773H1465.769v3.916h-5.86523v14.4043h-4.84766v-14.4043h-5.86523Z" transform="translate(-1261 -543.05149)" style="fill:#7a923c"/>
        <path d="M1479.27686,813.057l4.83007.81055a7.92321,7.92321,0,0,1-2.9414,4.0459,8.64165,8.64165,0,0,1-5.02832,1.38867q-4.7798,0-7.07325-3.12207a10.4956,10.4956,0,0,1-1.81152-6.31445,10.11468,10.11468,0,0,1,2.38086-7.13282,7.83838,7.83838,0,0,1,6.02051-2.5791,8.13356,8.13356,0,0,1,6.45215,2.69922q2.36278,2.70117,2.25976,8.27246h-12.14453a4.90191,4.90191,0,0,0,1.17285,3.35547,3.669,3.669,0,0,0,2.79492,1.19824,2.969,2.969,0,0,0,1.915-.62109A3.83827,3.83827,0,0,0,1479.27686,813.057Zm.27539-4.89941a4.66314,4.66314,0,0,0-1.08692-3.19922,3.33323,3.33323,0,0,0-2.51855-1.0957,3.36751,3.36751,0,0,0-2.62207,1.15527,4.47446,4.47446,0,0,0-1.01758,3.13965Z" transform="translate(-1261 -543.05149)" style="fill:#7a923c"/>
        <path d="M1513.27783,818.88805h-13.87012v4.83008h-3.93359v-8.79786h1.98438a10.75987,10.75987,0,0,0,2.05273-4.3125,46.52542,46.52542,0,0,0,.96582-10.04h14.78418v14.35254h1.9668v8.79786h-3.9502Zm-2.8125-3.96778.01758-10.36816h-5.86523q-.29444,7.59083-2.415,10.36816Z" transform="translate(-1261 -543.05149)" style="fill:#7a923c"/>
        <path d="M1524.18018,806.1566l-4.39844-.793a6.85331,6.85331,0,0,1,2.55273-3.93359,9.34893,9.34893,0,0,1,5.38282-1.27637,11.60137,11.60137,0,0,1,4.83007.76758,4.82594,4.82594,0,0,1,2.23438,1.94922,10.00983,10.00983,0,0,1,.64648,4.33887l-.05176,5.6582a19.651,19.651,0,0,0,.23243,3.5625,10.39264,10.39264,0,0,0,.87207,2.458h-4.7959q-.19043-.4834-.46582-1.43164c-.08106-.28711-.13867-.47754-.17285-.56934a8.75059,8.75059,0,0,1-2.65625,1.81152,7.61323,7.61323,0,0,1-3.01953.60352,6.243,6.243,0,0,1-4.459-1.53516,5.1028,5.1028,0,0,1-1.62988-3.88183,5.21168,5.21168,0,0,1,.74121-2.76856,4.84812,4.84812,0,0,1,2.0791-1.86328,16.22112,16.22112,0,0,1,3.85547-1.12988,26.40936,26.40936,0,0,0,4.709-1.19043v-.48242a2.51248,2.51248,0,0,0-.68945-1.99317,4.13767,4.13767,0,0,0-2.60547-.59472,3.46855,3.46855,0,0,0-2.01758.50879A3.539,3.539,0,0,0,1524.18018,806.1566Zm6.48632,3.9336a30.10567,30.10567,0,0,1-2.94921.74121,8.89011,8.89011,0,0,0-2.63965.8457,2.021,2.021,0,0,0-.94922,1.708,2.37651,2.37651,0,0,0,.75976,1.75976,2.64945,2.64945,0,0,0,1.93164.74121,4.19927,4.19927,0,0,0,2.502-.8623,3.03372,3.03372,0,0,0,1.15527-1.60449,9.55077,9.55077,0,0,0,.18945-2.36328Z" transform="translate(-1261 -543.05149)" style="fill:#7a923c"/>
        <path d="M1541.51709,800.56773h16.2334v18.32032h-4.83008v-14.3877H1546.313v8.22949a9.55938,9.55938,0,0,1-.72461,4.40723,3.77027,3.77027,0,0,1-1.60449,1.665,7.39032,7.39032,0,0,1-2.8291.39648,19.83857,19.83857,0,0,1-3.05274-.31054v-3.57129c.10352,0,.37305.01172.81055.03515q.75879.05127,1.17285.05176.9829,0,1.208-.64746a15.98272,15.98272,0,0,0,.22363-3.59668Z" transform="translate(-1261 -543.05149)" style="fill:#7a923c"/>
        <path d="M1562.75342,800.56773h4.84765v7.60743h4.86426a17.86521,17.86521,0,0,1,4.39942.41406,4.62466,4.62466,0,0,1,2.55273,1.78516,5.198,5.198,0,0,1,1.01758,3.18359,4.63719,4.63719,0,0,1-1.81934,3.99316,9.1975,9.1975,0,0,1-5.46,1.33692h-10.40234Zm4.84765,15.25h4.51954q2.12109,0,2.71679-.69043a2.4281,2.4281,0,0,0,.59571-1.63867,1.85072,1.85072,0,0,0-1.02735-1.8291,9.22161,9.22161,0,0,0-3.64844-.5h-3.15625Z" transform="translate(-1261 -543.05149)" style="fill:#7a923c"/>
        <path d="M1584.24854,800.56773h4.45117V814.972h5.623v-14.4043h4.46875V814.972h5.60645v-14.4043h4.46777v18.32032h-24.61718Z" transform="translate(-1261 -543.05149)" style="fill:#7a923c"/>
        <path d="M1624.42627,813.057l4.83008.81055a7.92323,7.92323,0,0,1-2.94141,4.0459,8.64163,8.64163,0,0,1-5.02832,1.38867q-4.77978,0-7.07324-3.12207a10.4956,10.4956,0,0,1-1.81152-6.31445,10.11468,10.11468,0,0,1,2.38085-7.13282,7.83839,7.83839,0,0,1,6.02051-2.5791,8.13355,8.13355,0,0,1,6.45215,2.69922q2.3628,2.70117,2.25977,8.27246h-12.14453a4.90186,4.90186,0,0,0,1.17285,3.35547,3.669,3.669,0,0,0,2.79492,1.19824,2.969,2.969,0,0,0,1.915-.62109A3.83833,3.83833,0,0,0,1624.42627,813.057Zm.27539-4.89941a4.66313,4.66313,0,0,0-1.08691-3.19922,3.33327,3.33327,0,0,0-2.51856-1.0957,3.36751,3.36751,0,0,0-2.62207,1.15527,4.47451,4.47451,0,0,0-1.01758,3.13965Z" transform="translate(-1261 -543.05149)" style="fill:#7a923c"/>
        <path d="M1635.36279,812.36754l-1.25976-12.835V793.598h5.24511v5.93457l-1.24218,12.835Zm-1.05273,6.52051v-4.84766h4.84765v4.84766Z" transform="translate(-1261 -543.05149)" style="fill:#7a923c"/>
        <polyline points="215 388.949 156.906 388.949 156.95 392.949 156.948 393.155 156.944 393.418 156.755 408.168 156.728 410.292 156.529 425.761 156.502 427.855 156.33 441.23 156.303 443.324 156.113 458.109 156.086 460.198 156.005 466.478 156 466.949 215 466.949 215 466.478 215 391.324 215 388.949" style="fill:#804528"/>
        <path d="M1496.99988,962.99939a2.00067,2.00067,0,0,1-2.00061-1.99878V950.00024a2.001,2.001,0,0,1,2.00061-2.00048h34.00036a2.00093,2.00093,0,0,1,2.00049,2.00048v11.00037a2.00057,2.00057,0,0,1-2.00049,1.99878h-34.00036m54.99975-30.99866h-75.99926v77.99988h75.99926V932.00073" transform="translate(-1261 -543.05149)" style="fill:#b16238"/>
        <path d="M1502.99976,956.99951a1.99964,1.99964,0,1,1,0-3.99927h23a1.99964,1.99964,0,1,1,0,3.99927h-23m28.00048-8.99975h-34.00036a2.001,2.001,0,0,0-2.00061,2.00048v11.00037a2.00067,2.00067,0,0,0,2.00061,1.99878h34.00036a2.00057,2.00057,0,0,0,2.00049-1.99878V950.00024a2.00093,2.00093,0,0,0-2.00049-2.00048" transform="translate(-1261 -543.05149)" style="fill:#d3c7c2"/>
        <path d="M1525.99976,953.00024h-23a1.99964,1.99964,0,1,0,0,3.99927h23a1.99964,1.99964,0,1,0,0-3.99927" transform="translate(-1261 -543.05149)" style="fill:#372d3a"/>
        <polyline points="209 317.755 156.906 317.755 156.906 388.949 209 388.949 209 380.074 209 359.307 209 358.948" style="fill:#b16238"/>
        <path d="M1499.936,894.9259a2.00023,2.00023,0,0,1-.34607-3.9696l.05932-.009,22.70166-3.67749a2.00018,2.00018,0,0,1,.63989,3.94885l-22.70166,3.67578a2.00276,2.00276,0,0,1-.35314.03149m26.87927-13.41833a2.01456,2.01456,0,0,0-.32483.02649l-33.3396,5.39978-.22046.03576a2.01107,2.01107,0,0,0-1.66077,2.29529l1.76148,10.85828a1.998,1.998,0,0,0,2.28991,1.65369l33.569-5.43543a2.00082,2.00082,0,0,0,1.65-2.29358l-1.75964-10.85827-.00184-.01258a1.99179,1.99179,0,0,0-1.96325-1.66943" transform="translate(-1261 -543.05149)" style="fill:#d3c7c2"/>
        <path d="M1522.67493,887.24329a2.00316,2.00316,0,0,0-.324.02649l-22.70166,3.67749-.05932.009a1.99985,1.99985,0,1,0,.69921,3.93811l22.70166-3.67578a2.00065,2.00065,0,0,0-.31591-3.97534" transform="translate(-1261 -543.05149)" style="fill:#372d3a"/>
        <path d="M1534.95825,860.80664h-64.95776v71.19409H1537V860.80664ZM1528.89,896.34143l-33.569,5.43543a1.998,1.998,0,0,1-2.28991-1.65369l-1.76148-10.85828a1.99862,1.99862,0,0,1,.19471-1.21521,2.31484,2.31484,0,0,1,1.76306-1.166l-.07654.05017,1.77539-.2876c.23718-.02856.48071-.06042.73-.1l.08105-.03137,30.75318-4.98083a2.01456,2.01456,0,0,1,.32483-.02649,1.99179,1.99179,0,0,1,1.96325,1.66943l.00184.01258,1.75964,10.85827A2.00082,2.00082,0,0,1,1528.89,896.34143Z" transform="translate(-1261 -543.05149)" style="fill:#c67245"/>
        <path d="M1351.65869,581.14293q-8.70117-1.4729-12.6289,1.91894-3.92726,3.34644-3.48047,7.13965.4453,3.79322,5.043,5.80127,4.59521,2.00757,13.03027-2.23144l4.64062,9.37109a22.03563,22.03563,0,0,1-9.95117,2.98975,32.36676,32.36676,0,0,1-11.29-1.0708,24.08356,24.08356,0,0,1-9.37109-4.998,11.80536,11.80536,0,0,1-4.10547-8.791,14.98745,14.98745,0,0,1,2.90039-9.90625,22.04439,22.04439,0,0,1,7.85449-6.64892,24.77477,24.77477,0,0,1,10.17383-2.63281,18.42651,18.42651,0,0,1,9.72852,2.00781Z" transform="translate(-1261 -543.05149)" style="fill:#d86600"/>
        <path d="M1379.05713,572.70885l11.87012-.66895-1.5625,32.08448-10.30762,1.16015.66894-25.34619-8.835.58008.53516,24.81054-9.01367.89258-1.38379-32.79834Z" transform="translate(-1261 -543.05149)" style="fill:#d86600"/>
        <path d="M1405.02783,595.46715l.44629,10.75439-9.72754-1.16015-2.27637-32.93262q1.24951-.08862,2.94532-.08887,1.69629,0,3.92676.13379a42.32243,42.32243,0,0,1,8.74609,1.29395,23.76583,23.76583,0,0,1,7.542,3.21289,6.714,6.714,0,0,1,3.21289,5.80127,10.17665,10.17665,0,0,1-4.73047,8.87988,22.97643,22.97643,0,0,1-10.085,4.1499Zm-1.249-5.93506a10.21375,10.21375,0,0,0,4.418-2.27588,5.13682,5.13682,0,0,0,1.8291-3.168,2.976,2.976,0,0,0-1.42774-2.7666q-1.69628-1.20483-5.39941-1.07129Z" transform="translate(-1261 -543.05149)" style="fill:#d86600"/>
        <path d="M1445.23389,593.01305l-2.23145.04443-9.99609,13.16406-10.79883-8.07715,12.54-7.85351a16.97885,16.97885,0,0,1-5.08789-4.99805,6.27746,6.27746,0,0,1-.66895-5.97949q.89209-2.231,4.28418-3.8374a32.70953,32.70953,0,0,1,7.45215-2.40967q2.14161-.40211,4.26074-.64746,2.11964-.24464,4.35157-.33447a37.72209,37.72209,0,0,1,7.58593.35693l-1.60644,31.50439-10.57617,1.33887Zm.71386-15.30616q-3.74853.134-5.26562,1.24952a2.50612,2.50612,0,0,0-1.33887,2.499,4.66763,4.66763,0,0,0,1.96387,2.67725,10.09848,10.09848,0,0,0,4.55176,1.6958Z" transform="translate(-1261 -543.05149)" style="fill:#d86600"/>
        <path d="M1459.95947,573.78014l30.7461-1.74024.53613,15.43946-11.73633-.62452,3.52539,19.3667-15.083-1.60644,2.58789-17.40332-10.84375.3125Z" transform="translate(-1261 -543.05149)" style="fill:#d86600"/>
        <path d="M1518.14893,572.0399l10.44238,30.34375-11.06641,3.83789-2.1875-6.69336H1506.77l-2.00781,6.55957-10.88867-5.0874,11.11132-28.11279Zm-3.65918,20.48194-3.25684-7.89844-3.34766,7.76465Z" transform="translate(-1261 -543.05149)" style="fill:#d86600"/>
        <path d="M1531.35693,573.4232l10.39746-.625v11.51319l7.63086-.13379V572.70885l11.87012-.66895-1.5625,32.08448-10.30762,1.16015V593.10191l-7.63086.17871V605.329l-9.01367.89258Z" transform="translate(-1261 -543.05149)" style="fill:#d86600"/>
        <path d="M1563.79834,573.4232l10.39746-.625v11.51319l7.63086-.13379V572.70885l11.87012-.66895-1.5625,32.08448-10.30762,1.16015V593.10191l-7.63086.17871V605.329l-9.01367.89258Z" transform="translate(-1261 -543.05149)" style="fill:#d86600"/>
        <path d="M1606.99365,583.50816a23.56911,23.56911,0,0,1,10.085,4.14991,8.266,8.266,0,0,1,1.874,1.74023,7.149,7.149,0,0,1,1.02636,1.89649,7.80218,7.80218,0,0,1,.42383,2.16455q.06738,1.16088.06738,2.54345v1.80713a9.39317,9.39317,0,0,1-.15625,1.74024,5.004,5.004,0,0,1-.55859,1.53955,3.69027,3.69027,0,0,1-1.2041,1.24951,23.23351,23.23351,0,0,1-7.49707,3.21289q-2.187.53539-4.35059.87012a38.832,38.832,0,0,1-4.3955.42382q-2.23243.134-3.94922.13428-1.71826,0-2.92285-.08935l2.27539-32.93262,9.68359-1.16016-.40137,10.7544Zm-1.83008,15.26123q3.70313.134,5.39942-1.0708a3.03894,3.03894,0,0,0,1.42871-2.76709,4.27958,4.27958,0,0,0-.53613-1.56152,6.39709,6.39709,0,0,0-1.33887-1.60644,10.21338,10.21338,0,0,0-4.37305-2.27588Zm17.35938,7.54151,11.334-.40186.625-32.93213-12.80761-.89257Z" transform="translate(-1261 -543.05149)" style="fill:#d86600"/>
        <path d="M1660.09619,572.0399l.26758,9.63867-12.49512-.17871.08985,3.56983,6.38086-.35694.04492,5.89063h-5.80078l.13379,4.105,12.04785-.71387.13379,11.55762-22.93653.66943-1.91894-34.1372Z" transform="translate(-1261 -543.05149)" style="fill:#d86600"/>
        <path d="M1326.312,627.10582q2.40967-.5354,4.8418-.915,2.43163-.37866,4.97558-.602,5.08741-.40211,12.04883,2.4541,4.72853,2.00831,5.13184,6.02442.4453,3.97193-3.3916,6.20263,6.06738.71412,8.74609,3.61426a8.26216,8.26216,0,0,1,2.32031,6.24756,9.54066,9.54066,0,0,1-3.168,6.11328,12.80567,12.80567,0,0,1-7.98828,3.25781q-2.90039.26734-5.48828.29a48.05866,48.05866,0,0,1-4.95312-.20117q-2.36573-.22266-4.79688-.62451-2.4331-.40137-4.97558-1.02637Zm12.4502,10.48633q.9375-.08862,1.78515-.17822a8.99937,8.99937,0,0,0,1.60645-.3125q1.51611-.40137,1.65137-1.42774.17724-1.91822-2.32032-2.3208-1.251-.22266-2.05273-.29a4.36188,4.36188,0,0,0-1.20508.02246Zm1.91894,13.83349a23.27224,23.27224,0,0,1,3.83789-.26757q2.855-.134,2.72168-2.499-.13329-2.72168-3.21289-2.94531-1.51758-.134-2.499-.15625a7.98022,7.98022,0,0,0-1.47266.0669Z" transform="translate(-1261 -543.05149)" style="fill:#d86600"/>
        <path d="M1406.23291,626.25768l11.87012-.66895-1.5625,32.08447-10.30762,1.16016.66895-25.34619-8.835.58008.53516,24.81054-9.01367.89258-1.38379-32.79834Z" transform="translate(-1261 -543.05149)" style="fill:#d86600"/>
        <path d="M1432.20264,649.016l.44629,10.75439-9.72754-1.16016L1420.645,625.6776q1.24951-.08862,2.94531-.08887,1.69629,0,3.92676.13379a42.323,42.323,0,0,1,8.74609,1.29394,23.76613,23.76613,0,0,1,7.542,3.2129,6.714,6.714,0,0,1,3.21289,5.80127,10.17667,10.17667,0,0,1-4.73047,8.87988,22.97659,22.97659,0,0,1-10.085,4.1499Zm-1.249-5.93506a10.21363,10.21363,0,0,0,4.418-2.27588,5.13679,5.13679,0,0,0,1.8291-3.168,2.976,2.976,0,0,0-1.42773-2.7666q-1.69629-1.20483-5.39941-1.07129Z" transform="translate(-1261 -543.05149)" style="fill:#d86600"/>
        <path d="M1483.96729,644.19664q-.53615,7.85449-6.06934,11.73584a20.08846,20.08846,0,0,1-11.91406,3.83789,18.77888,18.77888,0,0,1-11.55762-3.92676q-5.17675-3.83715-5.043-11.647a16.76239,16.76239,0,0,1,1.91895-7.63086,21.78314,21.78314,0,0,1,4.81933-5.93457,20.52044,20.52044,0,0,1,6.42578-3.79346,17.52776,17.52776,0,0,1,6.917-1.249,16.75957,16.75957,0,0,1,4.19433.937,15.44469,15.44469,0,0,1,5.043,2.94483,16.72193,16.72193,0,0,1,4.01563,5.66748A20.106,20.106,0,0,1,1483.96729,644.19664Zm-12.53907-3.97168a.73416.73416,0,0,0,.31153-.22314,1.14928,1.14928,0,0,0,.26855-.26758,3.31509,3.31509,0,0,0,1.11524-2.4541,4.64369,4.64369,0,0,0-.75879-2.36524q-.08935-.08862-.22266-.20068c-.08984-.07422-.17871-.15625-.26855-.24561-.05958-.05908-.126-.126-.2002-.20068a1.67674,1.67674,0,0,0-.24512-.20068,6.102,6.102,0,0,0-2.32129-.89258,4.11493,4.11493,0,0,0-2.67675.40137,4.84114,4.84114,0,0,0-.98243.53564,8.51581,8.51581,0,0,0-.75781.53564,3.62689,3.62689,0,0,0-1.16015,2.63282,4.51614,4.51614,0,0,0,.93652,2.49853,1.80894,1.80894,0,0,1,.15625.17871,1.65545,1.65545,0,0,0,.15625.17871,1.242,1.242,0,0,1,.17871.11133,1.92969,1.92969,0,0,1,.17871.15625,4.86145,4.86145,0,0,0,2.90039,1.0708,4.81072,4.81072,0,0,0,3.43555-1.29394Z" transform="translate(-1261 -543.05149)" style="fill:#d86600"/>
        <path d="M1505.11768,658.83336l-16.64454.937-1.38378-32.79834,10.39746-.625.26757,26.81885,7.49707-.66943-.13378-26.23877,11.87011-.66895-.26758,25.61377,7.4961,2.18652.66992-28.69287,5.5332-.22314,4.64063-.22315-.44629,34.67285Z" transform="translate(-1261 -543.05149)" style="fill:#d86600"/>
        <path d="M1544.20752,659.77037l7.18457-33.06641,13.209-1.11523,11.91407,27.80029-11.15528,1.33887L1560.228,640.225l-2.4541,18.519Z" transform="translate(-1261 -543.05149)" style="fill:#d86600"/>
        <path d="M1613.73193,644.19664q-.53613,7.85449-6.06933,11.73584a20.08846,20.08846,0,0,1-11.91406,3.83789,18.77888,18.77888,0,0,1-11.55762-3.92676q-5.17675-3.83715-5.043-11.647a16.76251,16.76251,0,0,1,1.91894-7.63086,21.78336,21.78336,0,0,1,4.81934-5.93457,20.52033,20.52033,0,0,1,6.42578-3.79346,17.52771,17.52771,0,0,1,6.917-1.249,16.75953,16.75953,0,0,1,4.19434.937,15.44469,15.44469,0,0,1,5.043,2.94483,16.72191,16.72191,0,0,1,4.01562,5.66748A20.10575,20.10575,0,0,1,1613.73193,644.19664Zm-12.53906-3.97168a.734.734,0,0,0,.31152-.22314,1.14915,1.14915,0,0,0,.26856-.26758,3.31508,3.31508,0,0,0,1.11523-2.4541,4.6435,4.6435,0,0,0-.75879-2.36524q-.08936-.08862-.22265-.20068c-.08985-.07422-.17871-.15625-.26856-.24561-.05957-.05908-.126-.126-.20019-.20068a1.67674,1.67674,0,0,0-.24512-.20068,6.102,6.102,0,0,0-2.32129-.89258,4.115,4.115,0,0,0-2.67676.40137,4.841,4.841,0,0,0-.98242.53564,8.51409,8.51409,0,0,0-.75781.53564,3.6269,3.6269,0,0,0-1.16016,2.63282,4.51623,4.51623,0,0,0,.93653,2.49853,1.80894,1.80894,0,0,1,.15625.17871,1.65545,1.65545,0,0,0,.15625.17871,1.242,1.242,0,0,1,.17871.11133,1.92969,1.92969,0,0,1,.17871.15625,4.86145,4.86145,0,0,0,2.90039,1.0708,4.81072,4.81072,0,0,0,3.43555-1.29394Z" transform="translate(-1261 -543.05149)" style="fill:#d86600"/>
        <path d="M1631.58057,628.71227l5.35449,13.69921,3.43555-14.23486,10.97753-2.58789,5.9795,30.52246-10.44141,3.65918-1.83008-19.09912-4.99707,17.9834-5.668.04492-5.8457-16.73389-.66895,17.269-11.02246-1.69532,3.34668-30.96923Z" transform="translate(-1261 -543.05149)" style="fill:#d86600"/>
        <path d="M1322.07373,700.69029l1.02637,12.62842-10.57617-.89258-2.05274-33.28906,23.29395,1.0708.04492,9.54932-12.98633-.89258Z" transform="translate(-1261 -543.05149)" style="fill:#d86600"/>
        <path d="M1370.57959,697.745q-.53613,7.85449-6.06934,11.73584a20.08842,20.08842,0,0,1-11.91406,3.83789,18.77888,18.77888,0,0,1-11.55762-3.92676q-5.17676-3.83715-5.043-11.647a16.76239,16.76239,0,0,1,1.91894-7.63086,21.78317,21.78317,0,0,1,4.81934-5.93457,20.52033,20.52033,0,0,1,6.42578-3.79346,17.52753,17.52753,0,0,1,6.917-1.249,16.75963,16.75963,0,0,1,4.19434.937,15.44455,15.44455,0,0,1,5.043,2.94483,16.72179,16.72179,0,0,1,4.01563,5.66748A20.10575,20.10575,0,0,1,1370.57959,697.745Zm-12.53906-3.97168a.73426.73426,0,0,0,.31152-.22314,1.14935,1.14935,0,0,0,.26856-.26758,3.31508,3.31508,0,0,0,1.11523-2.4541,4.6435,4.6435,0,0,0-.75879-2.36524q-.08935-.08862-.22266-.20068c-.08984-.07422-.17871-.15625-.26855-.24561-.05957-.05908-.126-.126-.2002-.20068a1.67665,1.67665,0,0,0-.24511-.20068,6.102,6.102,0,0,0-2.32129-.89258,4.115,4.115,0,0,0-2.67676.40137,4.841,4.841,0,0,0-.98242.53564,8.51409,8.51409,0,0,0-.75781.53564,3.62686,3.62686,0,0,0-1.16016,2.63282,4.51614,4.51614,0,0,0,.93652,2.49853,1.80894,1.80894,0,0,1,.15625.17871,1.65655,1.65655,0,0,0,.15625.17871,1.24149,1.24149,0,0,1,.17871.11133,1.92845,1.92845,0,0,1,.17872.15625,4.86145,4.86145,0,0,0,2.90039,1.0708,4.81069,4.81069,0,0,0,3.43554-1.29394Z" transform="translate(-1261 -543.05149)" style="fill:#d86600"/>
        <path d="M1373.74658,714.12193l-1.02637-6.06884,32.44141.22314-1.02637,5.8457Zm18.51856-37.61767,11.915-.66944-1.60645,32.08448-10.30859,1.16015.71386-25.34619-8.835.58008.53516,24.85547-9.05859.89258-1.33887-32.84326Z" transform="translate(-1261 -543.05149)" style="fill:#d86600"/>
        <path d="M1406.14307,688.90953l7.63086-5.80127,6.24707,8.30029,4.95312-12.27148,10.44238,1.74023-17.31445,32.44141-7.6748-5.57812,6.292-10.21875Z" transform="translate(-1261 -543.05149)" style="fill:#d86600"/>
        <path d="M1480.08447,679.806l11.87012-.66895-1.5625,32.08447-10.30762,1.16016.66895-25.34619-8.835.58008.53515,24.81054-9.01367.89258-1.38379-32.79834Z" transform="translate(-1261 -543.05149)" style="fill:#d86600"/>
        <path d="M1529.08057,697.745q-.53615,7.85449-6.06934,11.73584a20.08846,20.08846,0,0,1-11.91406,3.83789,18.77888,18.77888,0,0,1-11.55762-3.92676q-5.17675-3.83715-5.043-11.647a16.76239,16.76239,0,0,1,1.91895-7.63086,21.78314,21.78314,0,0,1,4.81933-5.93457,20.52044,20.52044,0,0,1,6.42578-3.79346,17.52758,17.52758,0,0,1,6.917-1.249,16.75957,16.75957,0,0,1,4.19433.937,15.44448,15.44448,0,0,1,5.043,2.94483,16.72193,16.72193,0,0,1,4.01563,5.66748A20.106,20.106,0,0,1,1529.08057,697.745Zm-12.53907-3.97168a.73424.73424,0,0,0,.31153-.22314,1.14909,1.14909,0,0,0,.26855-.26758,3.31506,3.31506,0,0,0,1.11524-2.4541,4.64369,4.64369,0,0,0-.75879-2.36524q-.08935-.08862-.22266-.20068c-.08984-.07422-.17871-.15625-.26855-.24561-.05957-.05908-.126-.126-.2002-.20068a1.67621,1.67621,0,0,0-.24512-.20068,6.1019,6.1019,0,0,0-2.32129-.89258,4.11493,4.11493,0,0,0-2.67675.40137,4.84075,4.84075,0,0,0-.98242.53564,8.51681,8.51681,0,0,0-.75782.53564,3.62689,3.62689,0,0,0-1.16015,2.63282,4.51614,4.51614,0,0,0,.93652,2.49853,1.80894,1.80894,0,0,1,.15625.17871,1.65545,1.65545,0,0,0,.15625.17871,1.242,1.242,0,0,1,.17871.11133,1.92969,1.92969,0,0,1,.17871.15625,4.86147,4.86147,0,0,0,2.90039,1.0708,4.81071,4.81071,0,0,0,3.43555-1.29394Z" transform="translate(-1261 -543.05149)" style="fill:#d86600"/>
        <path d="M1532.24854,714.12193l-1.02637-6.06884,32.4414.22314-1.02636,5.8457Zm18.51855-37.61767,11.915-.66944-1.60645,32.08448-10.30859,1.16015.71387-25.34619-8.835.58008.53515,24.85547-9.05859.89258-1.33887-32.84326Z" transform="translate(-1261 -543.05149)" style="fill:#d86600"/>
        <path d="M1588.91943,679.13707l10.44239,30.34375-11.06641,3.83789-2.1875-6.69336h-8.56738l-2.00782,6.55957-10.88867-5.0874,11.11133-28.11279Zm-3.65918,20.48193-3.25683-7.89843-3.34766,7.76464Z" transform="translate(-1261 -543.05149)" style="fill:#d86600"/>
        <path d="M1613.686,702.56432l.44628,10.75439-9.72753-1.16016-2.27637-32.93261q1.24951-.08862,2.94531-.08887,1.69629,0,3.92676.13379a42.323,42.323,0,0,1,8.74609,1.29394,23.76607,23.76607,0,0,1,7.542,3.2129,6.714,6.714,0,0,1,3.21289,5.80126,10.17665,10.17665,0,0,1-4.73046,8.87989,22.97664,22.97664,0,0,1-10.085,4.1499Zm-1.249-5.93506a10.21375,10.21375,0,0,0,4.418-2.27588,5.13684,5.13684,0,0,0,1.8291-3.168,2.976,2.976,0,0,0-1.42773-2.7666q-1.69629-1.20483-5.39942-1.07129Z" transform="translate(-1261 -543.05149)" style="fill:#d86600"/>
        <path d="M1655.8999,679.94029l7.49707,7.229-9.10351,9.6831,9.14746,9.6836-9.63867,6.64892-10.12891-11.55762.13379,10.88819-11.24512.80322-1.69629-33.69092,12.94141-.49072.08887,16.64453Z" transform="translate(-1261 -543.05149)" style="fill:#d86600"/>
        <path d="M1694.9458,679.71715l2.85645,29.80859-10.21973,2.40967-.75781-16.24316-8.791,17.62646-11.915-3.0791.66992-29.45166h10.21875l-1.51757,14.85986,8.791-15.61865,10.665-.89209Z" transform="translate(-1261 -543.05149)" style="fill:#d86600"/>
        <path d="M1482.80734,701.016l-1.02636,1.33911Q1482.30868,701.6952,1482.80734,701.016Z" transform="translate(-1261 -543.05149)" style="fill:#02263c"/>
        <path d="M1500.85178,677.47571l-.0669.08716c.043-.02807.083-.0603.12622-.08789Z" transform="translate(-1261 -543.05149)" style="fill:#02263c"/>
    </g>
</svg>