<svg id="380c7ba2-febf-40bd-b988-5391486c8cdd" data-name="не фанерные объекты клик мышкой" xmlns="http://www.w3.org/2000/svg" viewBox="0 0 495.86719 542.5"><title>chimney</title><g id="d16b650f-7912-4700-9957-94537c5f54fe" data-name="popup"><rect x="10.30974" y="6.37629" width="485.55745" height="536.12371" rx="12" ry="12" style="fill:#3a301f"/><rect width="485.55745" height="536.12371" rx="12" ry="12" style="fill:#fff"/><path d="M1485.16064,380.99107v-25.29h5.10645v9.9541H1500.272V355.701h5.10645v25.29H1500.272V369.93346h-10.00488v11.05761Z" transform="translate(-1422.56641 -194.00005)" style="fill:#7a923c"/><path d="M1521.23291,375.16l4.83008.81055a7.9232,7.9232,0,0,1-2.94141,4.04589,8.64156,8.64156,0,0,1-5.02832,1.38868q-4.77978,0-7.07324-3.12207a10.49561,10.49561,0,0,1-1.81152-6.31446,10.11463,10.11463,0,0,1,2.38086-7.13281,7.83834,7.83834,0,0,1,6.0205-2.5791,8.13352,8.13352,0,0,1,6.45215,2.69922q2.3628,2.70117,2.25977,8.27246h-12.14453a4.90188,4.90188,0,0,0,1.17285,3.35547,3.669,3.669,0,0,0,2.79492,1.19824,2.969,2.969,0,0,0,1.915-.62109A3.83837,3.83837,0,0,0,1521.23291,375.16Zm.27539-4.89941a4.66313,4.66313,0,0,0-1.08691-3.19922,3.33328,3.33328,0,0,0-2.51856-1.09571,3.36751,3.36751,0,0,0-2.62207,1.15528,4.47449,4.47449,0,0,0-1.01758,3.13965Z" transform="translate(-1422.56641 -194.00005)" style="fill:#7a923c"/><path d="M1538.96631,371.57213a9.91523,9.91523,0,0,1,1.18945-4.67481,8.16755,8.16755,0,0,1,3.373-3.45019,10.00405,10.00405,0,0,1,4.873-1.19043,9.14819,9.14819,0,0,1,6.81445,2.69922,9.33155,9.33155,0,0,1,2.65625,6.82324,9.43526,9.43526,0,0,1-2.68262,6.8916,9.06348,9.06348,0,0,1-6.75293,2.73438,10.64032,10.64032,0,0,1-4.80469-1.13868,7.81158,7.81158,0,0,1-3.47656-3.33789A11.13009,11.13009,0,0,1,1538.96631,371.57213Zm4.96777.25879a6.07034,6.07034,0,0,0,1.29395,4.1748,4.22892,4.22892,0,0,0,6.374,0,6.15439,6.15439,0,0,0,1.28516-4.209,6.04194,6.04194,0,0,0-1.28516-4.14063,4.22892,4.22892,0,0,0-6.374,0A6.07037,6.07037,0,0,0,1543.93408,371.83092Z" transform="translate(-1422.56641 -194.00005)" style="fill:#7a923c"/><path d="M1558.61475,362.67076h16.57812v3.916h-5.86523v14.40429H1564.48V366.58678h-5.86523Z" transform="translate(-1422.56641 -194.00005)" style="fill:#7a923c"/><path d="M1578.14307,362.67076h10.60937a8.23039,8.23039,0,0,1,4.88184,1.19043,4.16005,4.16005,0,0,1,1.62109,3.58789,4.29984,4.29984,0,0,1-3.12207,4.19238,4.74467,4.74467,0,0,1,2.8291,1.74219,4.636,4.636,0,0,1,.93164,2.79395,4.35243,4.35243,0,0,1-1.56933,3.47656,6.99145,6.99145,0,0,1-4.64063,1.33691h-11.541Zm4.88183,7.60742h3.12207a6.99216,6.99216,0,0,0,3.26953-.56933,1.91355,1.91355,0,0,0,1.00879-1.79395,1.71256,1.71256,0,0,0-.94043-1.64746,7.89606,7.89606,0,0,0-3.33789-.49219h-3.12207Zm0,7.60743h3.83008a6.80657,6.80657,0,0,0,3.01856-.5,2.14658,2.14658,0,0,0-.1377-3.64844,11.53579,11.53579,0,0,0-4.22656-.50879h-2.48438Z" transform="translate(-1422.56641 -194.00005)" style="fill:#7a923c"/><path d="M1600.65576,362.67076h16.2334v18.32031h-4.83008V366.60338h-6.60742v8.22949a9.55944,9.55944,0,0,1-.72461,4.40723,3.77027,3.77027,0,0,1-1.60449,1.665,7.39032,7.39032,0,0,1-2.8291.39648,19.83754,19.83754,0,0,1-3.05274-.31055v-3.57128c.10352,0,.373.01171.81055.03515q.75879.05127,1.17285.05176.98291,0,1.208-.64746a15.98278,15.98278,0,0,0,.22363-3.59668Z" transform="translate(-1422.56641 -194.00005)" style="fill:#7a923c"/><path d="M1631.93213,375.16l4.83008.81055a7.92326,7.92326,0,0,1-2.94141,4.04589,8.64156,8.64156,0,0,1-5.02832,1.38868q-4.77978,0-7.07324-3.12207a10.49561,10.49561,0,0,1-1.81153-6.31446,10.11467,10.11467,0,0,1,2.38086-7.13281,7.83836,7.83836,0,0,1,6.02051-2.5791,8.13352,8.13352,0,0,1,6.45215,2.69922q2.3628,2.70117,2.25977,8.27246h-12.14454a4.90188,4.90188,0,0,0,1.17286,3.35547,3.669,3.669,0,0,0,2.79492,1.19824,2.969,2.969,0,0,0,1.915-.62109A3.83837,3.83837,0,0,0,1631.93213,375.16Zm.27539-4.89941a4.66313,4.66313,0,0,0-1.08691-3.19922,3.33328,3.33328,0,0,0-2.51856-1.09571A3.36751,3.36751,0,0,0,1625.98,367.121a4.47449,4.47449,0,0,0-1.01758,3.13965Z" transform="translate(-1422.56641 -194.00005)" style="fill:#7a923c"/><path d="M1640.78076,362.67076h4.83106v7.48633a2.49567,2.49567,0,0,0,1.707-.74121,9.78545,9.78545,0,0,0,1.208-2.63965,7.00211,7.00211,0,0,1,2.03515-3.46777,5.02279,5.02279,0,0,1,2.89844-.75879q.55224,0,1.915.08594l.01758,3.209a5.17291,5.17291,0,0,0-2.4502.3623,5.01342,5.01342,0,0,0-1.15527,2.25977q-.84522,2.53564-2.43262,3.12305,2.29395.6372,3.88184,3.98437c.05664.11524.12011.23633.18945.36231l2.708,5.05468h-5.21l-2.415-5.29589a6.45169,6.45169,0,0,0-1.28516-2.06153,2.45161,2.45161,0,0,0-1.6123-.457v7.81445h-4.83106Z" transform="translate(-1422.56641 -194.00005)" style="fill:#7a923c"/><path d="M1662.27588,368.25963l-4.39844-.793a6.85327,6.85327,0,0,1,2.55274-3.93359,9.34887,9.34887,0,0,1,5.38281-1.27637,11.60143,11.60143,0,0,1,4.83008.76758,4.826,4.826,0,0,1,2.23437,1.94922,10.00962,10.00962,0,0,1,.64649,4.33886l-.05176,5.65821a19.65219,19.65219,0,0,0,.23242,3.5625,10.39258,10.39258,0,0,0,.87207,2.458h-4.7959q-.19043-.48339-.46582-1.43164c-.08105-.28711-.13867-.47754-.17285-.56933a8.75059,8.75059,0,0,1-2.65625,1.81152,7.6134,7.6134,0,0,1-3.01953.60352,6.243,6.243,0,0,1-4.459-1.53516,5.10283,5.10283,0,0,1-1.62988-3.88184,5.21167,5.21167,0,0,1,.74121-2.76855,4.84806,4.84806,0,0,1,2.0791-1.86328,16.22127,16.22127,0,0,1,3.85547-1.12988,26.41043,26.41043,0,0,0,4.709-1.19043v-.48243a2.51246,2.51246,0,0,0-.68946-1.99316,4.13765,4.13765,0,0,0-2.60546-.59473,3.46858,3.46858,0,0,0-2.01758.50879A3.539,3.539,0,0,0,1662.27588,368.25963Zm6.48633,3.93359a30.10681,30.10681,0,0,1-2.94922.74121,8.89045,8.89045,0,0,0-2.63965.84571,2.021,2.021,0,0,0-.94922,1.708,2.3765,2.3765,0,0,0,.75977,1.75977,2.64944,2.64944,0,0,0,1.93164.74121,4.19924,4.19924,0,0,0,2.502-.8623,3.03369,3.03369,0,0,0,1.15527-1.6045,9.55006,9.55006,0,0,0,.18946-2.36328Z" transform="translate(-1422.56641 -194.00005)" style="fill:#7a923c"/><path d="M1678.18115,362.67076h4.65821v11.50586l7.45214-11.50586h4.76075v18.32031H1690.395V369.27721l-7.55566,11.71386h-4.65821Zm11.61035-7.43555h2.36329a5.47708,5.47708,0,0,1-1.64747,3.6836,5.8854,5.8854,0,0,1-7.46972,0,5.46827,5.46827,0,0,1-1.64746-3.6836h2.36328a2.66026,2.66026,0,0,0,.8623,1.8545,4.00565,4.00565,0,0,0,4.3125,0A2.66092,2.66092,0,0,0,1689.7915,355.23521Z" transform="translate(-1422.56641 -194.00005)" style="fill:#7a923c"/><path d="M1697.84717,362.67076h16.57812v3.916h-5.86523v14.40429h-4.84766V366.58678h-5.86523Z" transform="translate(-1422.56641 -194.00005)" style="fill:#7a923c"/><path d="M1727.93311,375.16l4.83007.81055a7.92319,7.92319,0,0,1-2.9414,4.04589,8.64158,8.64158,0,0,1-5.02832,1.38868q-4.7798,0-7.07325-3.12207a10.49561,10.49561,0,0,1-1.81152-6.31446,10.11467,10.11467,0,0,1,2.38086-7.13281,7.83835,7.83835,0,0,1,6.02051-2.5791,8.13353,8.13353,0,0,1,6.45215,2.69922q2.36278,2.70117,2.25976,8.27246h-12.14453a4.90193,4.90193,0,0,0,1.17285,3.35547,3.669,3.669,0,0,0,2.79492,1.19824,2.969,2.969,0,0,0,1.915-.62109A3.83832,3.83832,0,0,0,1727.93311,375.16Zm.27539-4.89941a4.66314,4.66314,0,0,0-1.08692-3.19922,3.33324,3.33324,0,0,0-2.51855-1.09571,3.36751,3.36751,0,0,0-2.62207,1.15528,4.47445,4.47445,0,0,0-1.01758,3.13965Z" transform="translate(-1422.56641 -194.00005)" style="fill:#7a923c"/><path d="M1763.00439,371.69322l4.95118,1.56934a11.11057,11.11057,0,0,1-3.78711,6.15039,11.91274,11.91274,0,0,1-14.999-1.43262q-3.24462-3.44091-3.24316-9.41015,0-6.31348,3.25977-9.80664a11.1797,11.1797,0,0,1,8.57421-3.49415,10.51872,10.51872,0,0,1,7.53809,2.74317,9.97422,9.97422,0,0,1,2.58789,4.6582l-5.05469,1.207a5.2236,5.2236,0,0,0-5.33008-4.24316,5.75424,5.75424,0,0,0-4.56347,2.01855q-1.75049,2.01709-1.751,6.53809,0,4.79591,1.72559,6.83105a5.59868,5.59868,0,0,0,4.48535,2.03516,5.11643,5.11643,0,0,0,3.50195-1.293A7.52022,7.52022,0,0,0,1763.00439,371.69322Z" transform="translate(-1422.56641 -194.00005)" style="fill:#7a923c"/><path d="M1776.356,368.25963l-4.39844-.793a6.85331,6.85331,0,0,1,2.55273-3.93359,9.34893,9.34893,0,0,1,5.38282-1.27637,11.60134,11.60134,0,0,1,4.83007.76758,4.82594,4.82594,0,0,1,2.23438,1.94922,10.00981,10.00981,0,0,1,.64648,4.33886l-.05175,5.65821a19.65126,19.65126,0,0,0,.23242,3.5625,10.39258,10.39258,0,0,0,.87207,2.458h-4.7959q-.19043-.48339-.46582-1.43164c-.08106-.28711-.13867-.47754-.17285-.56933a8.75059,8.75059,0,0,1-2.65625,1.81152,7.6134,7.6134,0,0,1-3.01953.60352,6.243,6.243,0,0,1-4.459-1.53516,5.10283,5.10283,0,0,1-1.62988-3.88184,5.21167,5.21167,0,0,1,.74121-2.76855,4.84806,4.84806,0,0,1,2.0791-1.86328,16.22112,16.22112,0,0,1,3.85547-1.12988,26.41043,26.41043,0,0,0,4.709-1.19043v-.48243a2.51246,2.51246,0,0,0-.68946-1.99316,4.13766,4.13766,0,0,0-2.60547-.59473,3.46857,3.46857,0,0,0-2.01757.50879A3.539,3.539,0,0,0,1776.356,368.25963Zm6.48633,3.93359a30.10681,30.10681,0,0,1-2.94922.74121,8.89034,8.89034,0,0,0-2.63965.84571,2.021,2.021,0,0,0-.94922,1.708,2.37653,2.37653,0,0,0,.75976,1.75977,2.64946,2.64946,0,0,0,1.93165.74121,4.19926,4.19926,0,0,0,2.502-.8623,3.03369,3.03369,0,0,0,1.15527-1.6045,9.55006,9.55006,0,0,0,.18946-2.36328Z" transform="translate(-1422.56641 -194.00005)" style="fill:#7a923c"/><path d="M1792.19287,362.67076h4.84766v6.71h6.93554v-6.71h4.86426v18.32031h-4.86426v-7.69433h-6.93554v7.69433h-4.84766Z" transform="translate(-1422.56641 -194.00005)" style="fill:#7a923c"/><path d="M1811.54834,362.67076h16.57812v3.916h-5.86523v14.40429h-4.84766V366.58678h-5.86523Z" transform="translate(-1422.56641 -194.00005)" style="fill:#7a923c"/><path d="M1829.60986,362.67076h5.15821l4.38183,13.00684,4.27832-13.00684h5.01953l-6.46875,17.62988-1.15527,3.19141a12.97585,12.97585,0,0,1-1.2168,2.4502,5.31548,5.31548,0,0,1-1.32812,1.37109,5.801,5.801,0,0,1-1.8457.81934,9.59545,9.59545,0,0,1-2.47559.29394,12.861,12.861,0,0,1-2.74316-.29394l-.43067-3.79493a10.72354,10.72354,0,0,0,2.05274.22461,3.04261,3.04261,0,0,0,2.501-.99218,6.88511,6.88511,0,0,0,1.24219-2.52735Z" transform="translate(-1422.56641 -194.00005)" style="fill:#7a923c"/><path d="M1528.33936,416.64244v-4.84765h9.52343v4.84765Z" transform="translate(-1422.56641 -194.00005)" style="fill:#7a923c"/><path d="M1550.35205,405.06725h4.6582v11.50586l7.45215-11.50586h4.76074v18.32031h-4.65722V411.67369l-7.55567,11.71387h-4.6582Z" transform="translate(-1422.56641 -194.00005)" style="fill:#7a923c"/><path d="M1572.08838,405.06725h4.46777v14.40429h5.57227V405.06725h4.46777v14.40429h5.64063V405.06725h4.46875v14.40429h1.98339v8.7461h-3.916v-4.83008h-22.68457Z" transform="translate(-1422.56641 -194.00005)" style="fill:#7a923c"/><path d="M1601.88037,405.06725h4.6582v11.50586l7.45215-11.50586h4.76074v18.32031h-4.65722V411.67369l-7.55567,11.71387h-4.6582Z" transform="translate(-1422.56641 -194.00005)" style="fill:#7a923c"/><path d="M1621.54639,405.06725h16.57812v3.916h-5.86523v14.4043h-4.84766v-14.4043h-5.86523Z" transform="translate(-1422.56641 -194.00005)" style="fill:#7a923c"/><path d="M1651.63232,417.5565l4.83008.81055a7.92317,7.92317,0,0,1-2.9414,4.0459,8.64167,8.64167,0,0,1-5.02832,1.38867q-4.7798,0-7.07325-3.12207a10.4956,10.4956,0,0,1-1.81152-6.31445,10.11466,10.11466,0,0,1,2.38086-7.13281,7.83835,7.83835,0,0,1,6.02051-2.57911,8.13358,8.13358,0,0,1,6.45215,2.69922q2.36279,2.70117,2.25976,8.27246h-12.14453a4.90186,4.90186,0,0,0,1.17285,3.35547,3.669,3.669,0,0,0,2.79492,1.19824,2.969,2.969,0,0,0,1.915-.62109A3.83827,3.83827,0,0,0,1651.63232,417.5565Zm.27539-4.89941a4.6631,4.6631,0,0,0-1.08691-3.19922,3.33325,3.33325,0,0,0-2.51855-1.0957,3.36751,3.36751,0,0,0-2.62207,1.15527,4.47446,4.47446,0,0,0-1.01758,3.13965Z" transform="translate(-1422.56641 -194.00005)" style="fill:#7a923c"/><path d="M1685.63428,423.38756h-13.87012v4.83008h-3.93359v-8.79785h1.98437a10.75987,10.75987,0,0,0,2.05274-4.3125,46.52689,46.52689,0,0,0,.96582-10.04h14.78418v14.35254h1.96679v8.79785h-3.95019Zm-2.8125-3.96777.01758-10.36817h-5.86524q-.29444,7.59082-2.415,10.36817Z" transform="translate(-1422.56641 -194.00005)" style="fill:#7a923c"/><path d="M1696.53662,410.65611l-4.39844-.793a6.85332,6.85332,0,0,1,2.55274-3.93359,9.34889,9.34889,0,0,1,5.38281-1.27637,11.60143,11.60143,0,0,1,4.83008.76758,4.82591,4.82591,0,0,1,2.23437,1.94922,10.0097,10.0097,0,0,1,.64649,4.33887l-.05176,5.6582a19.65219,19.65219,0,0,0,.23242,3.5625,10.39293,10.39293,0,0,0,.87207,2.458h-4.7959q-.19043-.48341-.46582-1.43164c-.08105-.28711-.13867-.47754-.17285-.56934a8.75069,8.75069,0,0,1-2.65625,1.81153,7.6134,7.6134,0,0,1-3.01953.60351,6.243,6.243,0,0,1-4.459-1.53516,5.10278,5.10278,0,0,1-1.62989-3.88183,5.21168,5.21168,0,0,1,.74121-2.76856,4.84815,4.84815,0,0,1,2.07911-1.86328,16.22149,16.22149,0,0,1,3.85546-1.12988,26.40929,26.40929,0,0,0,4.709-1.19043v-.48242a2.51249,2.51249,0,0,0-.68945-1.99317,4.13769,4.13769,0,0,0-2.60547-.59472,3.4685,3.4685,0,0,0-2.01758.50879A3.539,3.539,0,0,0,1696.53662,410.65611Zm6.48633,3.9336a30.10681,30.10681,0,0,1-2.94922.74121,8.89022,8.89022,0,0,0-2.63965.8457,2.021,2.021,0,0,0-.94922,1.708,2.37648,2.37648,0,0,0,.75977,1.75976,2.6494,2.6494,0,0,0,1.93164.74122,4.19919,4.19919,0,0,0,2.502-.86231,3.03374,3.03374,0,0,0,1.15528-1.60449,9.55071,9.55071,0,0,0,.18945-2.36328Z" transform="translate(-1422.56641 -194.00005)" style="fill:#7a923c"/><path d="M1713.87354,405.06725h16.23339v18.32031h-4.83007v-14.3877h-6.60743v8.2295a9.55936,9.55936,0,0,1-.72461,4.40722,3.77017,3.77017,0,0,1-1.60449,1.665,7.39025,7.39025,0,0,1-2.8291.39649,19.83857,19.83857,0,0,1-3.05273-.31055v-3.57129c.10351,0,.373.01172.81054.03516q.75879.05127,1.17285.05175.98292,0,1.208-.64746a15.9818,15.9818,0,0,0,.22364-3.59668Z" transform="translate(-1422.56641 -194.00005)" style="fill:#7a923c"/><path d="M1735.10986,405.06725h4.84766v7.60742h4.86426a17.86506,17.86506,0,0,1,4.39941.41406,4.62468,4.62468,0,0,1,2.55274,1.78516,5.198,5.198,0,0,1,1.01757,3.18359,4.63718,4.63718,0,0,1-1.81933,3.99316,9.19745,9.19745,0,0,1-5.46,1.33692h-10.40235Zm4.84766,15.25h4.51953q2.12109,0,2.7168-.69043a2.42816,2.42816,0,0,0,.5957-1.63868,1.85071,1.85071,0,0,0-1.02734-1.8291,9.22183,9.22183,0,0,0-3.64844-.5h-3.15625Z" transform="translate(-1422.56641 -194.00005)" style="fill:#7a923c"/><path d="M1756.605,405.06725h4.45117v14.40429h5.62305V405.06725h4.46875v14.40429h5.60644V405.06725h4.46778v18.32031H1756.605Z" transform="translate(-1422.56641 -194.00005)" style="fill:#7a923c"/><path d="M1796.78271,417.5565l4.83008.81055a7.92317,7.92317,0,0,1-2.9414,4.0459,8.64165,8.64165,0,0,1-5.02832,1.38867q-4.7798,0-7.07325-3.12207a10.4956,10.4956,0,0,1-1.81152-6.31445,10.11466,10.11466,0,0,1,2.38086-7.13281,7.83835,7.83835,0,0,1,6.02051-2.57911,8.13358,8.13358,0,0,1,6.45215,2.69922q2.36279,2.70117,2.25976,8.27246h-12.14453a4.90191,4.90191,0,0,0,1.17285,3.35547,3.669,3.669,0,0,0,2.79492,1.19824,2.969,2.969,0,0,0,1.915-.62109A3.83827,3.83827,0,0,0,1796.78271,417.5565Zm.2754-4.89941a4.66315,4.66315,0,0,0-1.08692-3.19922,3.33325,3.33325,0,0,0-2.51855-1.0957,3.36751,3.36751,0,0,0-2.62207,1.15527,4.47446,4.47446,0,0,0-1.01758,3.13965Z" transform="translate(-1422.56641 -194.00005)" style="fill:#7a923c"/><path d="M1807.71924,416.86705l-1.25977-12.835v-5.93457h5.24512v5.93457l-1.24219,12.835Zm-1.05274,6.52051V418.5399h4.84766v4.84766Z" transform="translate(-1422.56641 -194.00005)" style="fill:#7a923c"/><path d="M1529.80225,239.45982q2.40966-.5354,4.84179-.915,2.43165-.37868,4.97559-.60206,5.0874-.40209,12.04883,2.45411,4.72851,2.00829,5.13183,6.02441.44532,3.97192-3.3916,6.20264,6.06738.71411,8.7461,3.61425a8.26219,8.26219,0,0,1,2.32031,6.24756,9.54071,9.54071,0,0,1-3.168,6.11328,12.80573,12.80573,0,0,1-7.98828,3.25782q-2.9004.26733-5.48828.29a48.05867,48.05867,0,0,1-4.95313-.20118q-2.36573-.22264-4.79687-.62451-2.43311-.40137-4.97559-1.02636Zm12.45019,10.48633q.9375-.08862,1.78516-.17822a8.99944,8.99944,0,0,0,1.60644-.3125q1.51613-.40137,1.65137-1.42773.17724-1.91822-2.32031-2.32081-1.251-.22264-2.05274-.29a4.361,4.361,0,0,0-1.20507.02246Zm1.91895,13.8335a23.2717,23.2717,0,0,1,3.83789-.26758q2.855-.134,2.72168-2.499-.13331-2.72169-3.21289-2.94532-1.51758-.134-2.499-.15625a7.982,7.982,0,0,0-1.47265.0669Z" transform="translate(-1422.56641 -194.00005)" style="fill:#d86600"/><path d="M1578.21826,238.52281l6.248,9.54932,8.03223-10.1294,9.77246,5.26563-12.00391,12.44971,9.19238,10.53125-8.03222,5.935-7.13965-10.48681-6.47071,8.43408-10.26367-5.31006,10.48731-11.11133-8.38965-11.91455Z" transform="translate(-1422.56641 -194.00005)" style="fill:#d86600"/><path d="M1639.62158,256.55064q-.53613,7.85449-6.06933,11.73584a20.08847,20.08847,0,0,1-11.91407,3.83789,18.77891,18.77891,0,0,1-11.55761-3.92675q-5.17677-3.83716-5.043-11.647a16.76247,16.76247,0,0,1,1.91894-7.63085,21.7834,21.7834,0,0,1,4.81934-5.93458,20.5203,20.5203,0,0,1,6.42578-3.79345,17.52755,17.52755,0,0,1,6.917-1.249,16.75917,16.75917,0,0,1,4.19434.937,15.44448,15.44448,0,0,1,5.043,2.94482,16.72191,16.72191,0,0,1,4.01562,5.66748A20.10575,20.10575,0,0,1,1639.62158,256.55064Zm-12.53906-3.97168a.734.734,0,0,0,.31152-.22314,1.14916,1.14916,0,0,0,.26856-.26758,3.31508,3.31508,0,0,0,1.11523-2.4541,4.64346,4.64346,0,0,0-.75879-2.36523q-.08935-.08864-.22265-.20069c-.08985-.07422-.17871-.15625-.26856-.2456-.05957-.05908-.126-.126-.20019-.20069a1.67674,1.67674,0,0,0-.24512-.20068,6.10219,6.10219,0,0,0-2.32129-.89258,4.115,4.115,0,0,0-2.67676.40137,4.841,4.841,0,0,0-.98242.53564,8.51539,8.51539,0,0,0-.75781.53565,3.62684,3.62684,0,0,0-1.16016,2.63281,4.51629,4.51629,0,0,0,.93653,2.49854,1.808,1.808,0,0,1,.15625.17871,1.65545,1.65545,0,0,0,.15625.17871,1.24028,1.24028,0,0,1,.17871.11133,1.92671,1.92671,0,0,1,.17871.15625,4.86158,4.86158,0,0,0,2.90039,1.0708,4.8107,4.8107,0,0,0,3.43554-1.294Z" transform="translate(-1422.56641 -194.00005)" style="fill:#d86600"/><path d="M1642.78857,272.9276l-1.02636-6.06885,32.4414.22314-1.02636,5.84571Zm18.51856-37.61768,11.915-.66943-1.60645,32.08447-10.30859,1.16016.71387-25.34619-8.835.58007.53515,24.85547-9.05859.89258-1.33887-32.84326Z" transform="translate(-1422.56641 -194.00005)" style="fill:#d86600"/><path d="M1699.37061,272.9276l-1.02637-6.06885,32.4414.22314-1.02636,5.84571Zm18.51855-37.61768,11.915-.66943-1.60645,32.08447-10.30859,1.16016.71387-25.34619-8.835.58007.53515,24.85547-9.05859.89258-1.33887-32.84326Z" transform="translate(-1422.56641 -194.00005)" style="fill:#d86600"/><path d="M1731.76709,272.12437l7.18457-33.0664,13.209-1.11524,11.91407,27.8003-11.15528,1.33886L1747.7876,252.579l-2.4541,18.519Z" transform="translate(-1422.56641 -194.00005)" style="fill:#d86600"/><path d="M1789.73291,258.91588l-2.23145.04443-9.99609,13.16406-10.79883-8.07714,12.54-7.85352a16.97885,16.97885,0,0,1-5.08789-4.99805,6.27748,6.27748,0,0,1-.66894-5.97949q.89208-2.231,4.28418-3.8374a32.70944,32.70944,0,0,1,7.45214-2.40967q2.14161-.40209,4.26075-.64746,2.11962-.24464,4.35156-.33447a37.723,37.723,0,0,1,7.58594.35693l-1.60645,31.5044-10.57617,1.33886Zm.71387-15.30615q-3.74854.134-5.26563,1.24951a2.5061,2.5061,0,0,0-1.33886,2.499,4.66761,4.66761,0,0,0,1.96386,2.67725,10.09857,10.09857,0,0,0,4.55176,1.6958Z" transform="translate(-1422.56641 -194.00005)" style="fill:#d86600"/><path d="M1486.29443,300.59459q-8.70117-1.47289-12.6289,1.91895-3.92725,3.34643-3.48047,7.13964.4453,3.79321,5.043,5.80127,4.59521,2.00757,13.03027-2.23144l4.64063,9.37109a22.03571,22.03571,0,0,1-9.95118,2.98975,32.36678,32.36678,0,0,1-11.29-1.0708,24.08356,24.08356,0,0,1-9.37109-4.99805,11.80539,11.80539,0,0,1-4.10547-8.791,14.98745,14.98745,0,0,1,2.90039-9.90625,22.04434,22.04434,0,0,1,7.8545-6.64892,24.77473,24.77473,0,0,1,10.17382-2.63281,18.4266,18.4266,0,0,1,9.72852,2.00781Z" transform="translate(-1422.56641 -194.00005)" style="fill:#d86600"/><path d="M1519.93994,291.49156l10.44238,30.34375-11.0664,3.83789-2.1875-6.69336H1508.561l-2.00782,6.55957-10.88867-5.0874,11.11133-28.11279Zm-3.65918,20.48194-3.25683-7.89844-3.34766,7.76465Z" transform="translate(-1422.56641 -194.00005)" style="fill:#d86600"/><path d="M1533.14893,292.87486l10.39746-.625v11.51319l7.63086-.13379V292.16051l11.87011-.66895-1.5625,32.08448-10.30761,1.16015V312.55357l-7.63086.17872v12.04833l-9.01368.89258Z" transform="translate(-1422.56641 -194.00005)" style="fill:#d86600"/><path d="M1565.85791,293.2318l30.74609-1.74024.53614,15.43946-11.73633-.62452,3.52539,19.3667-15.083-1.60644,2.58789-17.40332-10.84375.3125Z" transform="translate(-1422.56641 -194.00005)" style="fill:#d86600"/><path d="M1624.04639,291.49156l10.44238,30.34375-11.06641,3.83789-2.1875-6.69336h-8.56738l-2.00781,6.55957L1599.771,320.452l11.11132-28.11279Zm-3.65918,20.48194-3.25684-7.89844-3.34766,7.76465Z" transform="translate(-1422.56641 -194.00005)" style="fill:#d86600"/><path d="M1686.43018,292.29479l7.49707,7.229-9.10352,9.6831,9.14746,9.6836-9.63867,6.64892-10.12891-11.55761.13379,10.88818-11.24511.80322-1.69629-33.69091,12.9414-.49073.08887,16.64453Z" transform="translate(-1422.56641 -194.00005)" style="fill:#d86600"/><path d="M1696.64893,325.6732l7.18457-33.0664,13.209-1.11524,11.91406,27.8003-11.15527,1.33886-5.13184-14.50293-2.4541,18.519Z" transform="translate(-1422.56641 -194.00005)" style="fill:#d86600"/><path d="M1755.86377,291.49156l10.44238,30.34375-11.0664,3.83789-2.1875-6.69336h-8.56739l-2.00781,6.55957-10.88867-5.0874,11.11133-28.11279Zm-3.65918,20.48194-3.25684-7.89844-3.34765,7.76465Z" transform="translate(-1422.56641 -194.00005)" style="fill:#d86600"/><path d="M1769.07275,301.264l7.63086-5.80127,6.24707,8.3003,4.95313-12.27149,10.44238,1.74024-17.31445,32.4414-7.67481-5.57812,6.292-10.21875Z" transform="translate(-1422.56641 -194.00005)" style="fill:#d86600"/><path d="M1828.95752,300.59459q-8.70117-1.47289-12.62891,1.91895-3.92724,3.34643-3.48047,7.13964.44532,3.79321,5.043,5.80127,4.59522,2.00757,13.03028-2.23144l4.64062,9.37109a22.03567,22.03567,0,0,1-9.95117,2.98975,32.36676,32.36676,0,0,1-11.29-1.0708,24.08349,24.08349,0,0,1-9.37109-4.99805,11.80536,11.80536,0,0,1-4.10547-8.791,14.98739,14.98739,0,0,1,2.90039-9.90625,22.04431,22.04431,0,0,1,7.85449-6.64892A24.77477,24.77477,0,0,1,1821.773,291.536a18.42655,18.42655,0,0,1,9.72851,2.00781Z" transform="translate(-1422.56641 -194.00005)" style="fill:#d86600"/><path d="M1862.603,291.49156l10.44238,30.34375L1861.979,325.6732l-2.1875-6.69336h-8.56738l-2.00781,6.55957-10.88867-5.0874,11.11132-28.11279Zm-3.65918,20.48194-3.25684-7.89844-3.34765,7.76465Z" transform="translate(-1422.56641 -194.00005)" style="fill:#d86600"/><path d="M1644.37375,505.00726l-1.02637,1.33911Q1643.8751,505.68646,1644.37375,505.00726Z" transform="translate(-1422.56641 -194.00005)" style="fill:#02263c"/><path d="M1662.41818,481.467l-.06689.08716c.043-.02808.083-.06031.12622-.0879Z" transform="translate(-1422.56641 -194.00005)" style="fill:#02263c"/></g></svg>