<svg id="Слой_1" data-name="Слой 1" xmlns="http://www.w3.org/2000/svg" viewBox="0 0 431.49 467"><title>owl</title><rect x="8.97" y="5.49" width="422.52" height="461.51" rx="12" ry="12" style="fill:#3a301f"/><rect width="422.52" height="461.51" rx="12" ry="12" style="fill:#fff"/><path d="M76.85,176V150.75H82v9.95H92v-9.95h5.11V176H92V165H82V176Z" transform="translate(67.7 -13.91)" style="fill:#7a923c"/><path d="M112.92,170.21l4.83.81a7.88,7.88,0,0,1-2.94,4,8.6,8.6,0,0,1-5,1.39q-4.77,0-7.07-3.12A10.47,10.47,0,0,1,100.9,167a10.11,10.11,0,0,1,2.38-7.14,7.84,7.84,0,0,1,6-2.58,8.11,8.11,0,0,1,6.45,2.7q2.37,2.7,2.26,8.28H105.87a4.87,4.87,0,0,0,1.17,3.35,3.68,3.68,0,0,0,2.8,1.2,3,3,0,0,0,1.91-.62A3.81,3.81,0,0,0,112.92,170.21Zm.28-4.9a4.65,4.65,0,0,0-1.09-3.2,3.34,3.34,0,0,0-2.52-1.1,3.38,3.38,0,0,0-2.62,1.16,4.48,4.48,0,0,0-1,3.14Z" transform="translate(67.7 -13.91)" style="fill:#7a923c"/><path d="M147.75,163.14,143,164a3.44,3.44,0,0,0-1.09-2.16,3.33,3.33,0,0,0-2.22-.72,3.6,3.6,0,0,0-2.89,1.25,6.39,6.39,0,0,0-1.08,4.18c0,2.17.37,3.71,1.1,4.61a3.61,3.61,0,0,0,2.94,1.34,3.29,3.29,0,0,0,2.26-.78,4.73,4.73,0,0,0,1.24-2.7l4.76.81a8.46,8.46,0,0,1-2.84,4.95,8.87,8.87,0,0,1-5.64,1.67,8.38,8.38,0,0,1-6.41-2.53,11.56,11.56,0,0,1,0-14.09,8.53,8.53,0,0,1,6.48-2.53,8.89,8.89,0,0,1,5.33,1.44A8,8,0,0,1,147.75,163.14Z" transform="translate(67.7 -13.91)" style="fill:#7a923c"/><path d="M151.24,157.72h16.27V176h-4.85V161.63h-6.57V176h-4.85Z" transform="translate(67.7 -13.91)" style="fill:#7a923c"/><path d="M172.65,157.72h4.65v11.5l7.46-11.5h4.76V176h-4.66V164.32L177.3,176h-4.65Z" transform="translate(67.7 -13.91)" style="fill:#7a923c"/><path d="M192.31,157.72h16.58v3.91H203V176h-4.85V161.63h-5.87Z" transform="translate(67.7 -13.91)" style="fill:#7a923c"/><path d="M222.4,170.21l4.83.81a7.88,7.88,0,0,1-2.94,4,8.62,8.62,0,0,1-5,1.39c-3.19,0-5.54-1-7.07-3.12a10.47,10.47,0,0,1-1.82-6.31,10.12,10.12,0,0,1,2.39-7.14,7.82,7.82,0,0,1,6-2.58,8.14,8.14,0,0,1,6.45,2.7c1.57,1.8,2.33,4.56,2.26,8.28H215.34a4.92,4.92,0,0,0,1.18,3.35,3.64,3.64,0,0,0,2.79,1.2,3,3,0,0,0,1.92-.62A3.94,3.94,0,0,0,222.4,170.21Zm.27-4.9a4.65,4.65,0,0,0-1.08-3.2,3.49,3.49,0,0,0-5.14.06,4.48,4.48,0,0,0-1,3.14Z" transform="translate(67.7 -13.91)" style="fill:#7a923c"/><path d="M14.13,211.69v-4.85h9.52v4.85Z" transform="translate(67.7 -13.91)" style="fill:#7a923c"/><path d="M36.14,200.11H40.8v11.51l7.45-11.51H53v18.32H48.35V206.72L40.8,218.43H36.14Z" transform="translate(67.7 -13.91)" style="fill:#7a923c"/><path d="M57.87,200.11h4.47v14.41h5.57V200.11h4.47v14.41H78V200.11h4.47v14.41h2v8.75H80.56v-4.84H57.87Z" transform="translate(67.7 -13.91)" style="fill:#7a923c"/><path d="M87.67,200.11h4.66v11.51l7.45-11.51h4.76v18.32H99.88V206.72l-7.55,11.71H87.67Z" transform="translate(67.7 -13.91)" style="fill:#7a923c"/><path d="M107.33,200.11h16.58V204h-5.86v14.4H113.2V204h-5.87Z" transform="translate(67.7 -13.91)" style="fill:#7a923c"/><path d="M137.42,212.6l4.83.81a7.91,7.91,0,0,1-2.94,4.05,8.62,8.62,0,0,1-5,1.39c-3.19,0-5.54-1-7.07-3.12a10.5,10.5,0,0,1-1.82-6.32,10.11,10.11,0,0,1,2.39-7.13,7.82,7.82,0,0,1,6-2.58,8.14,8.14,0,0,1,6.45,2.7c1.57,1.8,2.33,4.56,2.26,8.27H130.36a4.93,4.93,0,0,0,1.18,3.36,3.65,3.65,0,0,0,2.79,1.2,3,3,0,0,0,1.92-.63A3.9,3.9,0,0,0,137.42,212.6Zm.27-4.9a4.62,4.62,0,0,0-1.08-3.19,3.31,3.31,0,0,0-2.52-1.1,3.36,3.36,0,0,0-2.62,1.15,4.5,4.5,0,0,0-1,3.14Z" transform="translate(67.7 -13.91)" style="fill:#7a923c"/><path d="M171.42,218.43H157.55v4.84h-3.93v-8.8h2a10.73,10.73,0,0,0,2.05-4.32,46.18,46.18,0,0,0,1-10H173.4v14.36h2v8.8h-4Zm-2.81-4,0-10.37h-5.87q-.3,7.59-2.41,10.37Z" transform="translate(67.7 -13.91)" style="fill:#7a923c"/><path d="M182.32,205.7l-4.4-.79a6.87,6.87,0,0,1,2.56-3.93,9.33,9.33,0,0,1,5.38-1.28,11.63,11.63,0,0,1,4.83.77,4.77,4.77,0,0,1,2.23,1.95,10,10,0,0,1,.65,4.34l0,5.65a20.35,20.35,0,0,0,.23,3.57,10.83,10.83,0,0,0,.87,2.45h-4.79c-.13-.32-.28-.79-.47-1.43-.08-.28-.14-.47-.17-.57a8.89,8.89,0,0,1-2.66,1.82,7.64,7.64,0,0,1-3,.6,6.23,6.23,0,0,1-4.46-1.54,5.11,5.11,0,0,1-1.63-3.88,5.18,5.18,0,0,1,.75-2.77,4.8,4.8,0,0,1,2.07-1.86,16.22,16.22,0,0,1,3.86-1.13,26.69,26.69,0,0,0,4.71-1.19V206a2.53,2.53,0,0,0-.69-2,4.2,4.2,0,0,0-2.61-.59,3.43,3.43,0,0,0-2,.51A3.49,3.49,0,0,0,182.32,205.7Zm6.49,3.94c-.62.2-1.6.45-2.95.74a9.1,9.1,0,0,0-2.64.84,2,2,0,0,0-.95,1.71,2.36,2.36,0,0,0,.76,1.76,2.63,2.63,0,0,0,1.93.74,4.14,4.14,0,0,0,2.5-.86,3,3,0,0,0,1.16-1.6,9.44,9.44,0,0,0,.19-2.37Z" transform="translate(67.7 -13.91)" style="fill:#7a923c"/><path d="M199.66,200.11h16.23v18.32h-4.83V204.05h-6.6v8.23a9.41,9.41,0,0,1-.73,4.4,3.81,3.81,0,0,1-1.6,1.67,7.47,7.47,0,0,1-2.83.4,19.6,19.6,0,0,1-3.05-.32v-3.57l.81,0c.5,0,.89,0,1.17,0,.65,0,1.06-.22,1.21-.65a16,16,0,0,0,.22-3.59Z" transform="translate(67.7 -13.91)" style="fill:#7a923c"/><path d="M220.9,200.11h4.84v7.61h4.87a17.67,17.67,0,0,1,4.4.42,4.61,4.61,0,0,1,2.55,1.78,5.21,5.21,0,0,1,1,3.18,4.64,4.64,0,0,1-1.82,4,9.22,9.22,0,0,1-5.46,1.33H220.9Zm4.84,15.25h4.52c1.42,0,2.32-.23,2.72-.69a2.4,2.4,0,0,0,.6-1.63,1.85,1.85,0,0,0-1-1.83,9.08,9.08,0,0,0-3.65-.5h-3.16Z" transform="translate(67.7 -13.91)" style="fill:#7a923c"/><path d="M242.39,200.11h4.45v14.41h5.63V200.11h4.46v14.41h5.61V200.11H267v18.32H242.39Z" transform="translate(67.7 -13.91)" style="fill:#7a923c"/><path d="M282.57,212.6l4.83.81a7.91,7.91,0,0,1-2.94,4.05,8.62,8.62,0,0,1-5,1.39q-4.79,0-7.07-3.12a10.5,10.5,0,0,1-1.82-6.32,10.15,10.15,0,0,1,2.38-7.13,7.86,7.86,0,0,1,6-2.58,8.14,8.14,0,0,1,6.45,2.7c1.57,1.8,2.33,4.56,2.26,8.27H275.51a4.93,4.93,0,0,0,1.18,3.36,3.64,3.64,0,0,0,2.79,1.2,3,3,0,0,0,1.92-.63A3.9,3.9,0,0,0,282.57,212.6Zm.27-4.9a4.62,4.62,0,0,0-1.08-3.19,3.31,3.31,0,0,0-2.52-1.1,3.36,3.36,0,0,0-2.62,1.15,4.5,4.5,0,0,0-1,3.14Z" transform="translate(67.7 -13.91)" style="fill:#7a923c"/><path d="M293.51,211.91l-1.26-12.83v-5.94h5.24v5.94l-1.24,12.83Zm-1.06,6.52v-4.84h4.85v4.84Z" transform="translate(67.7 -13.91)" style="fill:#7a923c"/><path d="M47.25,41.29l10.4-.62V52.18l7.63-.13V40.58l11.87-.67L75.59,72,65.28,73.15V61l-7.63.18V73.2l-9,.89Z" transform="translate(67.7 -13.91)" style="fill:#d86600"/><path d="M114.28,58.52q-.54,7.84-6.07,11.73A20.08,20.08,0,0,1,96.3,74.09a18.77,18.77,0,0,1-11.56-3.93c-3.45-2.55-5.13-6.44-5-11.64a16.87,16.87,0,0,1,1.92-7.63A22,22,0,0,1,86.43,45a20.65,20.65,0,0,1,6.43-3.79,17.53,17.53,0,0,1,6.92-1.25,16.6,16.6,0,0,1,4.19.94,15.17,15.17,0,0,1,5,2.94,16.7,16.7,0,0,1,4,5.67A20.1,20.1,0,0,1,114.28,58.52Zm-12.54-4a.65.65,0,0,0,.31-.22,1.15,1.15,0,0,0,.27-.27,3.31,3.31,0,0,0,1.11-2.45,4.63,4.63,0,0,0-.75-2.37l-.23-.2a2.91,2.91,0,0,1-.27-.24l-.19-.2a1.57,1.57,0,0,0-.25-.2,6.11,6.11,0,0,0-2.32-.9,4.16,4.16,0,0,0-2.68.41,4.59,4.59,0,0,0-1,.53A8.29,8.29,0,0,0,95,49a3.63,3.63,0,0,0-1.16,2.63,4.5,4.5,0,0,0,.94,2.5,1.19,1.19,0,0,1,.15.18l.16.18a.87.87,0,0,1,.18.11,1.19,1.19,0,0,1,.18.15,4.84,4.84,0,0,0,6.33-.22Z" transform="translate(67.7 -13.91)" style="fill:#d86600"/><path d="M135.47,61.1l-17-2-.22-17.63,9.55-.67-.49,11.92,8.39,1.11-.27-13L145.74,42l1.56,32.08-11.87-.67Z" transform="translate(67.7 -13.91)" style="fill:#d86600"/><path d="M149.84,41.29l10.4-.62V52.18l7.63-.13V40.58l11.87-.67L178.18,72l-10.31,1.16V61l-7.63.18V73.2l-9,.89Z" transform="translate(67.7 -13.91)" style="fill:#d86600"/><path d="M216.87,58.52q-.54,7.84-6.07,11.73a20.09,20.09,0,0,1-11.92,3.84,18.76,18.76,0,0,1-11.55-3.93c-3.46-2.55-5.14-6.44-5.05-11.64a16.74,16.74,0,0,1,1.92-7.63A22,22,0,0,1,189,45a20.65,20.65,0,0,1,6.43-3.79,17.52,17.52,0,0,1,6.91-1.25,16.66,16.66,0,0,1,4.2.94,15.27,15.27,0,0,1,5,2.94,16.7,16.7,0,0,1,4,5.67A20.1,20.1,0,0,1,216.87,58.52Zm-12.54-4a.65.65,0,0,0,.31-.22,1.15,1.15,0,0,0,.27-.27A3.31,3.31,0,0,0,206,51.6a4.64,4.64,0,0,0-.76-2.37L205,49a2.91,2.91,0,0,1-.27-.24l-.2-.2a1.16,1.16,0,0,0-.24-.2,6.11,6.11,0,0,0-2.32-.9,4.16,4.16,0,0,0-2.68.41,4.35,4.35,0,0,0-1,.53,8.29,8.29,0,0,0-.76.54,3.63,3.63,0,0,0-1.16,2.63,4.5,4.5,0,0,0,.94,2.5c0,.06.11.12.15.18l.16.18a.87.87,0,0,1,.18.11l.18.15a4.84,4.84,0,0,0,6.33-.22Z" transform="translate(67.7 -13.91)" style="fill:#d86600"/><path d="M248.82,40.49l2.85,29.81-10.22,2.41-.75-16.25-8.79,17.63L220,71l.67-29.45h10.22l-1.52,14.86,8.79-15.62,10.67-.89Zm-19-10.09L244.67,30l-.9,5.71L229.85,37Z" transform="translate(67.7 -13.91)" style="fill:#d86600"/><path d="M44.53,102.56q-8.7-1.47-12.63,1.92t-3.48,7.14q.45,3.8,5,5.8t13-2.23l4.64,9.37a22.06,22.06,0,0,1-10,3,32.37,32.37,0,0,1-11.29-1.07,24.11,24.11,0,0,1-9.37-5,11.83,11.83,0,0,1-4.1-8.79,15,15,0,0,1,2.9-9.91,22.15,22.15,0,0,1,7.85-6.65A25,25,0,0,1,37.35,93.5a18.4,18.4,0,0,1,9.73,2Z" transform="translate(67.7 -13.91)" style="fill:#d86600"/><path d="M54.17,95.2l30.75-1.74.53,15.44-11.74-.63,3.53,19.37L62.16,126l2.59-17.4-10.85.31Z" transform="translate(67.7 -13.91)" style="fill:#d86600"/><path d="M99.64,116.88l.45,10.76-9.73-1.16L88.08,93.55c.84-.06,1.82-.09,3-.09s2.44,0,3.92.13a41.87,41.87,0,0,1,8.75,1.3,23.56,23.56,0,0,1,7.54,3.21,6.72,6.72,0,0,1,3.22,5.8,10.2,10.2,0,0,1-4.73,8.88,23.1,23.1,0,0,1-10.09,4.15ZM98.39,111a10.15,10.15,0,0,0,4.42-2.28,5.13,5.13,0,0,0,1.83-3.16,3,3,0,0,0-1.43-2.77q-1.69-1.2-5.4-1.07Z" transform="translate(67.7 -13.91)" style="fill:#d86600"/><path d="M141.1,93.46l10.44,30.34-11.07,3.84L138.28,121h-8.56l-2,6.56-10.89-5.09,11.11-28.11Zm-3.66,20.48-3.26-7.9-3.35,7.77Z" transform="translate(67.7 -13.91)" style="fill:#d86600"/><path d="M154.3,94.84l10.4-.62v11.51l7.63-.13V94.13l11.87-.67-1.56,32.08-10.31,1.16V114.52l-7.63.18v12l-9,.89Z" transform="translate(67.7 -13.91)" style="fill:#d86600"/><path d="M186.75,94.84l10.39-.62v11.51l7.63-.13V94.13l11.87-.67-1.56,32.08-10.31,1.16V114.52l-7.63.18v12l-9,.89Z" transform="translate(67.7 -13.91)" style="fill:#d86600"/><path d="M248,94l2.86,29.81-10.22,2.41L239.89,110l-8.79,17.63-11.91-3.08.67-29.45h10.22L228.56,110l8.79-15.62L248,93.46Z" transform="translate(67.7 -13.91)" style="fill:#d86600"/><path d="M278.49,94.26l7.5,7.23-9.11,9.68,9.15,9.69-9.64,6.65L266.26,116l.14,10.89-11.25.8L253.46,94l12.94-.49.09,16.64Z" transform="translate(67.7 -13.91)" style="fill:#d86600"/><path d="M129.94,257.22l-1,1.34C129.27,258.12,129.61,257.67,129.94,257.22Z" transform="translate(67.7 -13.91)" style="fill:#02263c"/><path d="M148,233.68l-.07.09.13-.09Z" transform="translate(67.7 -13.91)" style="fill:#02263c"/></svg>