<svg id="0cf7dec5-135d-4264-a2d9-caeffe8a702a" data-name="не фанерные объекты клик мышкой" xmlns="http://www.w3.org/2000/svg" viewBox="0 0 491.31891 871.53877"><title>snowman</title><g id="17db5b5e-8b50-4d11-84d0-221af6c61f50" data-name="popup"><rect x="10.21518" y="10.24365" width="481.10373" height="861.29512" rx="12" ry="12" style="fill:#3a301f"/><rect width="481.10373" height="861.29512" rx="12" ry="12" style="fill:#fff"/><path d="M861.61133,1758.66637l-4.96778-1.15528q1.604-6.17577,9.125-6.17675,4.45167,0,6.71973,1.958a5.91309,5.91309,0,0,1,2.26856,4.59766,5.51045,5.51045,0,0,1-1.03516,3.26953,8.7821,8.7821,0,0,1-3.10547,2.56152,7.99082,7.99082,0,0,1,3.77832,2.44141,6.04211,6.04211,0,0,1,1.25879,3.88965,6.6916,6.6916,0,0,1-2.44043,5.38184q-2.44189,2.05371-7.30566,2.05371a12.58008,12.58008,0,0,1-6.2627-1.32032,8.27084,8.27084,0,0,1-3.45019-4.94238l4.6748-1.53516a4.92086,4.92086,0,0,0,1.92383,2.9502,5.97551,5.97551,0,0,0,2.959.67285,4.99478,4.99478,0,0,0,3.51856-1.04394,3.20472,3.20472,0,0,0,1.10449-2.38965,2.98886,2.98886,0,0,0-1.251-2.501,6.19871,6.19871,0,0,0-3.76953-.94922h-1.15527v-3.8125h.58594a5.41108,5.41108,0,0,0,3.58886-1.05176,3.479,3.479,0,0,0,1.24219-2.79492,3.0736,3.0736,0,0,0-1.00976-2.3291,4.06356,4.06356,0,0,0-2.88965-.94824A3.92054,3.92054,0,0,0,861.61133,1758.66637Z" transform="translate(-751.82635 -1651.39)" style="fill:#7a923c"/><path d="M895.251,1777.056H881.38086v4.83007h-3.93359v-8.79785h1.98437a10.75973,10.75973,0,0,0,2.05274-4.3125,46.52689,46.52689,0,0,0,.96582-10.04h14.78418v14.35254h1.96679v8.79785H895.251Zm-2.8125-3.96778.01757-10.36816h-5.86523q-.29443,7.59081-2.415,10.36816Z" transform="translate(-751.82635 -1651.39)" style="fill:#7a923c"/><path d="M913.14062,1771.225l4.83008.81055a7.92325,7.92325,0,0,1-2.9414,4.0459,8.64165,8.64165,0,0,1-5.02832,1.38867q-4.7798,0-7.07325-3.12207a10.49561,10.49561,0,0,1-1.81152-6.31446,10.11467,10.11467,0,0,1,2.38086-7.13281,7.83838,7.83838,0,0,1,6.02051-2.5791,8.13355,8.13355,0,0,1,6.45215,2.69922q2.36279,2.70117,2.25976,8.27246H906.085a4.90193,4.90193,0,0,0,1.17285,3.35547,3.669,3.669,0,0,0,2.79492,1.19824,2.969,2.969,0,0,0,1.915-.62109A3.83824,3.83824,0,0,0,913.14062,1771.225Zm.2754-4.89941a4.66314,4.66314,0,0,0-1.08692-3.19922,3.33326,3.33326,0,0,0-2.51855-1.09571,3.36751,3.36751,0,0,0-2.62207,1.15528,4.47446,4.47446,0,0,0-1.01758,3.13965Z" transform="translate(-751.82635 -1651.39)" style="fill:#7a923c"/><path d="M937.68848,1764.1527l-4.7793.8623a3.464,3.464,0,0,0-1.09473-2.15625,3.307,3.307,0,0,0-2.21679-.72461,3.62351,3.62351,0,0,0-2.88965,1.25,6.41019,6.41019,0,0,0-1.07813,4.18359q0,3.26074,1.09473,4.60645a3.59919,3.59919,0,0,0,2.94141,1.3457,3.26541,3.26541,0,0,0,2.25976-.78515,4.71574,4.71574,0,0,0,1.24219-2.7002l4.76172.81152a8.44948,8.44948,0,0,1-2.84668,4.9502,8.80636,8.80636,0,0,1-5.64063,1.67383,8.3883,8.3883,0,0,1-6.40918-2.53613,11.55907,11.55907,0,0,1,.00879-14.085,8.51767,8.51767,0,0,1,6.48633-2.52734,8.853,8.853,0,0,1,5.32227,1.44043A7.98252,7.98252,0,0,1,937.68848,1764.1527Z" transform="translate(-751.82635 -1651.39)" style="fill:#7a923c"/><path d="M941.4668,1758.7357h4.84765v7.60742h4.86426a17.865,17.865,0,0,1,4.39941.41407,4.62463,4.62463,0,0,1,2.55274,1.78515,5.19807,5.19807,0,0,1,1.01758,3.1836,4.63719,4.63719,0,0,1-1.81934,3.99316,9.19752,9.19752,0,0,1-5.46,1.33692H941.4668Zm4.84765,15.25H950.834q2.12111,0,2.7168-.69043a2.4281,2.4281,0,0,0,.5957-1.63867,1.85071,1.85071,0,0,0-1.02734-1.8291,9.22161,9.22161,0,0,0-3.64844-.5h-3.15625Z" transform="translate(-751.82635 -1651.39)" style="fill:#7a923c"/><path d="M983.43748,1751.766h4.8135v9.29882a5.97687,5.97687,0,0,1,2.10449-2.04492,5.65137,5.65137,0,0,1,2.79394-.68164,5.5901,5.5901,0,0,1,4.82227,2.85547,12.16281,12.16281,0,0,1,1.87109,6.82324,10.71477,10.71477,0,0,1-2.0957,6.71875,6.128,6.128,0,0,1-4.959,2.73438,4.84955,4.84955,0,0,1-2.43262-.64649,7.03258,7.03258,0,0,1-2.10449-1.92382v9.126h-4.8135v-9.126a7.69006,7.69006,0,0,1-2.251,1.92382,5.28863,5.28863,0,0,1-2.54492.64649,5.79272,5.79272,0,0,1-4.89941-2.74317,11.69339,11.69339,0,0,1-1.93164-6.90039,10.38435,10.38435,0,0,1,2.208-6.81347q2.20752-2.6924,4.77833-2.69141a5.09412,5.09412,0,0,1,2.55371.65527,6.59708,6.59708,0,0,1,2.08689,1.9668Zm-3.24314,10.26464a2.83843,2.83843,0,0,0-2.3545,1.61231,7.93286,7.93286,0,0,0-1.00976,4.25293,8.38249,8.38249,0,0,0,.94043,4.26074,2.72113,2.72113,0,0,0,2.33789,1.60449,2.82312,2.82312,0,0,0,2.39746-1.60449,8.359,8.359,0,0,0,.9834-4.38183,7.13362,7.13362,0,0,0-1.06934-4.38184A2.93526,2.93526,0,0,0,980.19434,1762.03062Zm11.334.03418a2.75134,2.75134,0,0,0-2.415,1.7334,9.09367,9.09367,0,0,0-.93164,4.33887,7.5,7.5,0,0,0,.99219,4.13184,2.82122,2.82122,0,0,0,2.35449,1.52636,2.79222,2.79222,0,0,0,2.3457-1.72461,8.077,8.077,0,0,0,.9834-4.07129,9.02856,9.02856,0,0,0-.89648-4.21777A2.71239,2.71239,0,0,0,991.52832,1762.0648Z" transform="translate(-751.82635 -1651.39)" style="fill:#7a923c"/><path d="M1007.43359,1764.32457l-4.39843-.793a6.85331,6.85331,0,0,1,2.55273-3.93359,9.34889,9.34889,0,0,1,5.38281-1.27637,11.60139,11.60139,0,0,1,4.83008.76758,4.82594,4.82594,0,0,1,2.23438,1.94922,10.00981,10.00981,0,0,1,.64648,4.33886l-.05176,5.65821a19.65219,19.65219,0,0,0,.23242,3.5625,10.3927,10.3927,0,0,0,.87208,2.458h-4.7959q-.19044-.4834-.46582-1.43165c-.08106-.2871-.13868-.47753-.17286-.56933a8.75035,8.75035,0,0,1-2.65625,1.81152,7.61316,7.61316,0,0,1-3.01953.60352,6.243,6.243,0,0,1-4.459-1.53516,5.10278,5.10278,0,0,1-1.62988-3.88183,5.21168,5.21168,0,0,1,.74121-2.76856,4.84806,4.84806,0,0,1,2.0791-1.86328,16.221,16.221,0,0,1,3.85547-1.12988,26.40936,26.40936,0,0,0,4.709-1.19043v-.48242a2.51246,2.51246,0,0,0-.68945-1.99317,4.13768,4.13768,0,0,0-2.60547-.59473,3.4686,3.4686,0,0,0-2.01758.50879A3.539,3.539,0,0,0,1007.43359,1764.32457Zm6.48633,3.93359a30.10018,30.10018,0,0,1-2.94922.74121,8.89056,8.89056,0,0,0-2.63965.84571,2.021,2.021,0,0,0-.94921,1.708,2.37652,2.37652,0,0,0,.75976,1.75976,2.64945,2.64945,0,0,0,1.93164.74121,4.19927,4.19927,0,0,0,2.502-.8623,3.03376,3.03376,0,0,0,1.15527-1.60449,9.55086,9.55086,0,0,0,.18945-2.36329Z" transform="translate(-751.82635 -1651.39)" style="fill:#7a923c"/><path d="M1023.26953,1758.7357h4.84766v6.71h6.93554v-6.71h4.86426V1777.056h-4.86426v-7.69434h-6.93554v7.69434h-4.84766Z" transform="translate(-751.82635 -1651.39)" style="fill:#7a923c"/><path d="M1055.40918,1771.225l4.83008.81055a7.92327,7.92327,0,0,1-2.94141,4.0459,8.64163,8.64163,0,0,1-5.02832,1.38867q-4.77978,0-7.07324-3.12207a10.49561,10.49561,0,0,1-1.81152-6.31446,10.11467,10.11467,0,0,1,2.38085-7.13281,7.83841,7.83841,0,0,1,6.02051-2.5791,8.13352,8.13352,0,0,1,6.45215,2.69922q2.3628,2.70117,2.25977,8.27246h-12.14453a4.90188,4.90188,0,0,0,1.17285,3.35547,3.669,3.669,0,0,0,2.79492,1.19824,2.969,2.969,0,0,0,1.915-.62109A3.83837,3.83837,0,0,0,1055.40918,1771.225Zm.27539-4.89941a4.66313,4.66313,0,0,0-1.08691-3.19922,3.33328,3.33328,0,0,0-2.51856-1.09571,3.36751,3.36751,0,0,0-2.62207,1.15528,4.47451,4.47451,0,0,0-1.01758,3.13965Z" transform="translate(-751.82635 -1651.39)" style="fill:#7a923c"/><path d="M1064.30957,1758.7357h4.52051v2.69141a6.75579,6.75579,0,0,1,2.37988-2.24316,6.56181,6.56181,0,0,1,3.33008-.86231,6.98885,6.98885,0,0,1,5.417,2.501,10.12672,10.12672,0,0,1,2.22461,6.96972q0,4.58936-2.24219,7.13282a6.98512,6.98512,0,0,1-5.43457,2.54492,6.175,6.175,0,0,1-2.751-.60352,9.26925,9.26925,0,0,1-2.59668-2.07031v9.22949h-4.84766Zm4.7959,8.84961a7.051,7.051,0,0,0,1.22558,4.5625,3.74554,3.74554,0,0,0,2.98438,1.47559,3.50156,3.50156,0,0,0,2.81152-1.35449,6.98048,6.98048,0,0,0,1.1211-4.44239,6.62981,6.62981,0,0,0-1.15528-4.27832,3.57614,3.57614,0,0,0-2.86425-1.39746,3.718,3.718,0,0,0-2.94922,1.37207A6.10309,6.10309,0,0,0,1069.10547,1767.58531Z" transform="translate(-751.82635 -1651.39)" style="fill:#7a923c"/><path d="M1086.06348,1758.7357h4.84765v7.60742h4.86426a17.95407,17.95407,0,0,1,4.374.40528,4.71772,4.71772,0,0,1,2.55274,1.76855,5.12933,5.12933,0,0,1,1.04394,3.209,4.62918,4.62918,0,0,1-1.8291,3.99316,9.27087,9.27087,0,0,1-5.48535,1.33692h-10.36816Zm4.84765,15.25h4.50293a4.56746,4.56746,0,0,0,2.55274-.55273,2.03066,2.03066,0,0,0,.79394-1.79395,1.8304,1.8304,0,0,0-1.02734-1.81933,9.475,9.475,0,0,0-3.68262-.49219h-3.13965Zm15.59473-15.25h4.84766V1777.056h-4.84766Z" transform="translate(-751.82635 -1651.39)" style="fill:#7a923c"/><path d="M858.54883,1801.13219H863v14.40429h5.62305v-14.40429h4.46875v14.40429h5.60644v-14.40429H883.166v18.32031H858.54883Z" transform="translate(-751.82635 -1651.39)" style="fill:#7a923c"/><path d="M891.73926,1806.72105l-4.39844-.793a6.8533,6.8533,0,0,1,2.55273-3.9336,9.349,9.349,0,0,1,5.38282-1.27637,11.60143,11.60143,0,0,1,4.83008.76758,4.826,4.826,0,0,1,2.23437,1.94922,10.00989,10.00989,0,0,1,.64648,4.33887l-.05175,5.6582a19.65219,19.65219,0,0,0,.23242,3.5625,10.39249,10.39249,0,0,0,.87207,2.458h-4.7959q-.19043-.48341-.46582-1.43164c-.08105-.28711-.13867-.47754-.17285-.56934a8.75081,8.75081,0,0,1-2.65625,1.81153,7.6134,7.6134,0,0,1-3.01953.60351,6.24306,6.24306,0,0,1-4.459-1.53515,5.10284,5.10284,0,0,1-1.62988-3.88184,5.21162,5.21162,0,0,1,.74121-2.76855,4.84808,4.84808,0,0,1,2.0791-1.86329,16.22159,16.22159,0,0,1,3.85547-1.12988,26.40865,26.40865,0,0,0,4.709-1.19043v-.48242a2.51246,2.51246,0,0,0-.68946-1.99316,4.13759,4.13759,0,0,0-2.60547-.59473,3.46849,3.46849,0,0,0-2.01757.50879A3.539,3.539,0,0,0,891.73926,1806.72105Zm6.48633,3.9336a30.10681,30.10681,0,0,1-2.94922.74121,8.89072,8.89072,0,0,0-2.63965.8457,2.021,2.021,0,0,0-.94924,1.708,2.37654,2.37654,0,0,0,.75979,1.75977,2.64942,2.64942,0,0,0,1.93164.74121,4.19921,4.19921,0,0,0,2.50195-.86231,3.03367,3.03367,0,0,0,1.15527-1.60449,9.55006,9.55006,0,0,0,.18946-2.36328Z" transform="translate(-751.82635 -1651.39)" style="fill:#7a923c"/><path d="M907.62793,1801.13219h4.52051v2.6914a6.75588,6.75588,0,0,1,2.37988-2.24316,6.56181,6.56181,0,0,1,3.33008-.86231,6.98888,6.98888,0,0,1,5.417,2.501,10.12673,10.12673,0,0,1,2.22461,6.96973q0,4.58935-2.24219,7.13281a6.98509,6.98509,0,0,1-5.43457,2.54492,6.17512,6.17512,0,0,1-2.751-.60351,9.26949,9.26949,0,0,1-2.59668-2.07032v9.2295h-4.84766Zm4.7959,8.84961a7.051,7.051,0,0,0,1.22558,4.5625,3.74553,3.74553,0,0,0,2.98438,1.47558,3.50156,3.50156,0,0,0,2.81152-1.35449,6.98045,6.98045,0,0,0,1.1211-4.44238,6.62981,6.62981,0,0,0-1.15528-4.27832,3.57615,3.57615,0,0,0-2.86425-1.39746,3.71793,3.71793,0,0,0-2.94922,1.37207A6.10307,6.10307,0,0,0,912.42383,1809.9818Z" transform="translate(-751.82635 -1651.39)" style="fill:#7a923c"/><path d="M928.22559,1810.03355a9.91519,9.91519,0,0,1,1.18945-4.6748,8.16747,8.16747,0,0,1,3.37305-3.4502,10.00412,10.00412,0,0,1,4.873-1.19043,9.14823,9.14823,0,0,1,6.81446,2.69922,9.3316,9.3316,0,0,1,2.65625,6.82325,9.43527,9.43527,0,0,1-2.68262,6.8916,9.06348,9.06348,0,0,1-6.75293,2.73437,10.64031,10.64031,0,0,1-4.80469-1.13867A7.81158,7.81158,0,0,1,929.415,1815.39,11.13013,11.13013,0,0,1,928.22559,1810.03355Zm4.96777.25879a6.0704,6.0704,0,0,0,1.29394,4.17481,4.22893,4.22893,0,0,0,6.374,0,6.15445,6.15445,0,0,0,1.28515-4.209,6.042,6.042,0,0,0-1.28515-4.14062,4.22893,4.22893,0,0,0-6.374,0A6.07039,6.07039,0,0,0,933.19336,1810.29234Z" transform="translate(-751.82635 -1651.39)" style="fill:#7a923c"/><path d="M950.59961,1801.13219h6.00293l4.55469,12.76562,4.58886-12.76562h5.98633v18.32031h-4.123v-12.05859l-4.46778,12.05859H959.001l-4.26075-12.05859v12.05859h-4.14062Z" transform="translate(-751.82635 -1651.39)" style="fill:#7a923c"/><path d="M996.03906,1801.13219h16.26856v18.32031H1007.46v-14.4043h-6.57324v14.4043h-4.84766Z" transform="translate(-751.82635 -1651.39)" style="fill:#7a923c"/><path d="M1016.44727,1810.03355a9.91519,9.91519,0,0,1,1.18945-4.6748,8.16747,8.16747,0,0,1,3.37305-3.4502,10.00412,10.00412,0,0,1,4.873-1.19043,9.14823,9.14823,0,0,1,6.81446,2.69922,9.3316,9.3316,0,0,1,2.65625,6.82325,9.43527,9.43527,0,0,1-2.68262,6.8916,9.06348,9.06348,0,0,1-6.75293,2.73437,10.64031,10.64031,0,0,1-4.80469-1.13867,7.81158,7.81158,0,0,1-3.47656-3.33789A11.13013,11.13013,0,0,1,1016.44727,1810.03355Zm4.96777.25879a6.0704,6.0704,0,0,0,1.29394,4.17481,4.22893,4.22893,0,0,0,6.374,0,6.15445,6.15445,0,0,0,1.28515-4.209,6.042,6.042,0,0,0-1.28515-4.14062,4.22893,4.22893,0,0,0-6.374,0A6.07039,6.07039,0,0,0,1021.415,1810.29234Z" transform="translate(-751.82635 -1651.39)" style="fill:#7a923c"/><path d="M1038.959,1801.13219H1043.79v7.48633a2.49561,2.49561,0,0,0,1.707-.74122,9.78534,9.78534,0,0,0,1.208-2.63964,7.00215,7.00215,0,0,1,2.03515-3.46778,5.02279,5.02279,0,0,1,2.89844-.75879q.55225,0,1.915.08594l.01758,3.209a5.17294,5.17294,0,0,0-2.4502.3623,5.01342,5.01342,0,0,0-1.15527,2.25977q-.84522,2.53564-2.43262,3.123,2.29395.63721,3.88184,3.98438c.05664.11523.12012.23633.18945.3623l2.708,5.05469h-5.21l-2.415-5.2959a6.45173,6.45173,0,0,0-1.28516-2.06152,2.45161,2.45161,0,0,0-1.6123-.457v7.81445H1038.959Z" transform="translate(-751.82635 -1651.39)" style="fill:#7a923c"/><path d="M1060.4541,1806.72105l-4.39844-.793a6.85331,6.85331,0,0,1,2.55274-3.9336,9.349,9.349,0,0,1,5.38281-1.27637,11.60139,11.60139,0,0,1,4.83008.76758,4.82591,4.82591,0,0,1,2.23437,1.94922,10.0097,10.0097,0,0,1,.64649,4.33887l-.05176,5.6582a19.65219,19.65219,0,0,0,.23242,3.5625,10.39293,10.39293,0,0,0,.87207,2.458h-4.7959q-.19043-.48341-.46582-1.43164c-.08105-.28711-.13867-.47754-.17285-.56934a8.75056,8.75056,0,0,1-2.65625,1.81153,7.6134,7.6134,0,0,1-3.01953.60351,6.243,6.243,0,0,1-4.459-1.53515,5.10281,5.10281,0,0,1-1.62989-3.88184,5.21154,5.21154,0,0,1,.74122-2.76855,4.84808,4.84808,0,0,1,2.0791-1.86329,16.22145,16.22145,0,0,1,3.85547-1.12988,26.40847,26.40847,0,0,0,4.709-1.19043v-.48242a2.51245,2.51245,0,0,0-.68945-1.99316,4.13761,4.13761,0,0,0-2.60547-.59473,3.4685,3.4685,0,0,0-2.01758.50879A3.53905,3.53905,0,0,0,1060.4541,1806.72105Zm6.48633,3.9336a30.10681,30.10681,0,0,1-2.94922.74121,8.89083,8.89083,0,0,0-2.63965.8457,2.021,2.021,0,0,0-.94922,1.708,2.37652,2.37652,0,0,0,.75977,1.75977,2.64944,2.64944,0,0,0,1.93164.74121,4.19919,4.19919,0,0,0,2.502-.86231,3.03374,3.03374,0,0,0,1.15528-1.60449,9.55071,9.55071,0,0,0,.18945-2.36328Z" transform="translate(-751.82635 -1651.39)" style="fill:#7a923c"/><path d="M1074.30664,1801.13219h16.57813v3.916h-5.86524v14.4043h-4.84765v-14.4043h-5.86524Z" transform="translate(-751.82635 -1651.39)" style="fill:#7a923c"/><path d="M1093.66211,1801.13219h4.6582v11.50586l7.45215-11.50586h4.76074v18.32031H1105.876v-11.71387l-7.55567,11.71387h-4.6582Z" transform="translate(-751.82635 -1651.39)" style="fill:#7a923c"/><path d="M794.29688,1855.10289v-4.84766h9.52343v4.84766Z" transform="translate(-751.82635 -1651.39)" style="fill:#7a923c"/><path d="M816.24023,1843.5277h16.26856V1861.848h-4.84766v-14.4043h-6.57324v14.4043h-4.84766Z" transform="translate(-751.82635 -1651.39)" style="fill:#7a923c"/><path d="M837.63086,1843.5277h4.52051v2.6914a6.7557,6.7557,0,0,1,2.37988-2.24316,6.56181,6.56181,0,0,1,3.33008-.86231,6.98888,6.98888,0,0,1,5.417,2.501,10.12673,10.12673,0,0,1,2.22461,6.96973q0,4.58935-2.24219,7.13281a6.98514,6.98514,0,0,1-5.43457,2.54492,6.175,6.175,0,0,1-2.751-.60352,9.26925,9.26925,0,0,1-2.59668-2.07031v9.22949h-4.84766Zm4.7959,8.8496a7.05093,7.05093,0,0,0,1.22558,4.5625,3.74554,3.74554,0,0,0,2.98438,1.47559,3.50156,3.50156,0,0,0,2.81152-1.35449,6.98047,6.98047,0,0,0,1.1211-4.44238,6.62979,6.62979,0,0,0-1.15528-4.27832,3.57614,3.57614,0,0,0-2.86426-1.39747,3.718,3.718,0,0,0-2.94921,1.37207A6.1031,6.1031,0,0,0,842.42676,1852.3773Z" transform="translate(-751.82635 -1651.39)" style="fill:#7a923c"/><path d="M858.22949,1852.42906a9.91517,9.91517,0,0,1,1.18946-4.6748,8.16744,8.16744,0,0,1,3.373-3.4502,10.00416,10.00416,0,0,1,4.873-1.19043,9.14821,9.14821,0,0,1,6.81445,2.69922,9.33155,9.33155,0,0,1,2.65625,6.82324,9.43524,9.43524,0,0,1-2.68262,6.89161,9.06346,9.06346,0,0,1-6.75292,2.73437,10.64031,10.64031,0,0,1-4.80469-1.13867,7.81153,7.81153,0,0,1-3.47656-3.33789A11.13016,11.13016,0,0,1,858.22949,1852.42906Zm4.96778.25879a6.07042,6.07042,0,0,0,1.29394,4.17481,4.22893,4.22893,0,0,0,6.374,0,6.1544,6.1544,0,0,0,1.28516-4.209,6.04191,6.04191,0,0,0-1.28516-4.14062,4.22892,4.22892,0,0,0-6.374,0A6.07039,6.07039,0,0,0,863.19727,1852.68785Z" transform="translate(-751.82635 -1651.39)" style="fill:#7a923c"/><path d="M895.6123,1861.848H881.74219v4.83008h-3.9336v-8.79786H879.793a10.75973,10.75973,0,0,0,2.05273-4.3125,46.52539,46.52539,0,0,0,.96582-10.04H897.5957v14.35253h1.96678v8.79786H895.6123Zm-2.8125-3.96778.01758-10.36816h-5.86523q-.29443,7.59082-2.415,10.36816Z" transform="translate(-751.82635 -1651.39)" style="fill:#7a923c"/><path d="M901.77148,1852.42906a9.91517,9.91517,0,0,1,1.18946-4.6748,8.1675,8.1675,0,0,1,3.373-3.4502,10.00419,10.00419,0,0,1,4.87305-1.19043,9.14819,9.14819,0,0,1,6.81445,2.69922,9.33155,9.33155,0,0,1,2.65625,6.82324,9.43527,9.43527,0,0,1-2.68261,6.89161,9.0635,9.0635,0,0,1-6.75293,2.73437,10.64039,10.64039,0,0,1-4.80471-1.13867,7.81164,7.81164,0,0,1-3.47654-3.33789A11.13016,11.13016,0,0,1,901.77148,1852.42906Zm4.96778.25879a6.07042,6.07042,0,0,0,1.29394,4.17481,4.22895,4.22895,0,0,0,6.374,0,6.15445,6.15445,0,0,0,1.28515-4.209,6.042,6.042,0,0,0-1.28515-4.14062,4.22893,4.22893,0,0,0-6.374,0A6.07039,6.07039,0,0,0,906.73926,1852.68785Z" transform="translate(-751.82635 -1651.39)" style="fill:#7a923c"/><path d="M924.9043,1843.5277h16.2334V1861.848h-4.83008v-14.3877H929.7002v8.22949a9.55952,9.55952,0,0,1-.72461,4.40723,3.77029,3.77029,0,0,1-1.6045,1.665,7.39025,7.39025,0,0,1-2.8291.39648,19.83847,19.83847,0,0,1-3.05273-.31054v-3.57129c.10351,0,.373.01172.81054.03515q.75879.05127,1.17286.05176.9829,0,1.208-.64746a15.9818,15.9818,0,0,0,.22364-3.59668Z" transform="translate(-751.82635 -1651.39)" style="fill:#7a923c"/><path d="M953.627,1861.848v-7.81446a2.14094,2.14094,0,0,0-1.31933.42286,10.80662,10.80662,0,0,0-1.30274,2.0957l-2.31152,5.2959h-5.21l2.58789-5.05469q1.96728-3.79541,4.08887-4.34668-1.5879-.605-2.43262-3.123a2.76151,2.76151,0,0,0-3.623-2.62207v-3.209q1.43262-.085,2.001-.08594a5.102,5.102,0,0,1,2.74316.707q1.13819.70752,2.13965,3.51953a11.45369,11.45369,0,0,0,1.24121,2.76856,1.77516,1.77516,0,0,0,1.39746.6123v-7.48632h4.81348v7.48632a1.68024,1.68024,0,0,0,1.40625-.60351,11.566,11.566,0,0,0,1.2334-2.77735q.98291-2.77734,2.0957-3.502a5.13894,5.13894,0,0,1,2.85449-.72461q.501,0,1.93262.08594v3.209a5.05927,5.05927,0,0,0-2.44922.3711,5.00364,5.00364,0,0,0-1.17383,2.251q-.8452,2.51953-2.43164,3.123,2.12111.55224,4.08789,4.34668l2.58789,5.05469h-5.21l-2.29394-5.2959a6.54807,6.54807,0,0,0-1.14746-1.93262,2.28383,2.28383,0,0,0-1.49219-.58594v7.81446Z" transform="translate(-751.82635 -1651.39)" style="fill:#7a923c"/><path d="M975.13867,1849.11656l-4.39844-.793A6.85337,6.85337,0,0,1,973.293,1844.39a9.34889,9.34889,0,0,1,5.38281-1.27637,11.60139,11.60139,0,0,1,4.83008.76758,4.82591,4.82591,0,0,1,2.23437,1.94922,10.00967,10.00967,0,0,1,.64649,4.33887l-.05176,5.6582a19.65219,19.65219,0,0,0,.23242,3.5625,10.39309,10.39309,0,0,0,.87207,2.458h-4.7959q-.19043-.4834-.46582-1.43164c-.08105-.28711-.13867-.47754-.17285-.56934a8.75035,8.75035,0,0,1-2.65625,1.81152,7.61323,7.61323,0,0,1-3.01953.60352,6.243,6.243,0,0,1-4.459-1.53516,5.10278,5.10278,0,0,1-1.62989-3.88183,5.2116,5.2116,0,0,1,.74122-2.76856,4.84812,4.84812,0,0,1,2.0791-1.86328,16.221,16.221,0,0,1,3.85547-1.12988,26.40936,26.40936,0,0,0,4.709-1.19043v-.48242a2.51248,2.51248,0,0,0-.68945-1.99317,4.13769,4.13769,0,0,0-2.60547-.59472,3.46861,3.46861,0,0,0-2.0176.50879A3.53912,3.53912,0,0,0,975.13867,1849.11656Zm6.48633,3.9336a30.10681,30.10681,0,0,1-2.94922.74121,8.89033,8.89033,0,0,0-2.63965.8457,2.021,2.021,0,0,0-.94922,1.708,2.37648,2.37648,0,0,0,.75977,1.75976,2.64944,2.64944,0,0,0,1.93164.74121,4.19917,4.19917,0,0,0,2.50195-.8623,3.03374,3.03374,0,0,0,1.15528-1.60449,9.55172,9.55172,0,0,0,.18945-2.36328Z" transform="translate(-751.82635 -1651.39)" style="fill:#7a923c"/><path d="M991.04492,1843.5277h4.6582v11.50585l7.45215-11.50585h4.76075V1861.848h-4.65723v-11.71387l-7.55567,11.71387h-4.6582Zm11.61035-7.43555h2.36328a5.47707,5.47707,0,0,1-1.64746,3.68359,5.88537,5.88537,0,0,1-7.46972,0,5.46827,5.46827,0,0,1-1.64746-3.68359h2.36328a2.66025,2.66025,0,0,0,.8623,1.85449,4.00565,4.00565,0,0,0,4.3125,0A2.66092,2.66092,0,0,0,1002.65527,1836.09215Z" transform="translate(-751.82635 -1651.39)" style="fill:#7a923c"/><path d="M1010.71094,1843.5277h16.57812v3.916h-5.86523v14.4043h-4.84766v-14.4043h-5.86523Z" transform="translate(-751.82635 -1651.39)" style="fill:#7a923c"/><path d="M1040.79688,1856.017l4.83007.81055a7.92321,7.92321,0,0,1-2.9414,4.0459,8.64165,8.64165,0,0,1-5.02832,1.38867q-4.77979,0-7.07325-3.12207a10.4956,10.4956,0,0,1-1.81152-6.31445,10.11468,10.11468,0,0,1,2.38086-7.13282,7.83838,7.83838,0,0,1,6.02051-2.5791,8.13358,8.13358,0,0,1,6.45215,2.69922q2.36279,2.70117,2.25976,8.27246h-12.14453a4.90191,4.90191,0,0,0,1.17285,3.35547,3.669,3.669,0,0,0,2.79492,1.19824,2.969,2.969,0,0,0,1.915-.62109A3.83834,3.83834,0,0,0,1040.79688,1856.017Zm.27539-4.89941a4.66315,4.66315,0,0,0-1.08692-3.19922,3.33325,3.33325,0,0,0-2.51855-1.0957,3.36751,3.36751,0,0,0-2.62207,1.15527,4.47446,4.47446,0,0,0-1.01758,3.13965Z" transform="translate(-751.82635 -1651.39)" style="fill:#7a923c"/><path d="M1059.53125,1843.5277h4.6582v11.50585l7.45215-11.50585h4.76074V1861.848h-4.65722v-11.71387l-7.55567,11.71387h-4.6582Z" transform="translate(-751.82635 -1651.39)" style="fill:#7a923c"/><path d="M1097.3457,1848.94469l-4.77929.8623a3.46409,3.46409,0,0,0-1.09473-2.15625,3.30707,3.30707,0,0,0-2.2168-.72461,3.62353,3.62353,0,0,0-2.88965,1.25,6.41022,6.41022,0,0,0-1.07812,4.1836q0,3.26073,1.09473,4.60644a3.59912,3.59912,0,0,0,2.9414,1.3457,3.26539,3.26539,0,0,0,2.25977-.78515,4.71583,4.71583,0,0,0,1.24219-2.7002l4.76171.81153a8.4494,8.4494,0,0,1-2.84668,4.95019,8.80633,8.80633,0,0,1-5.64062,1.67383,8.38824,8.38824,0,0,1-6.40918-2.53613,11.55905,11.55905,0,0,1,.00879-14.085,8.51768,8.51768,0,0,1,6.48633-2.52735,8.85292,8.85292,0,0,1,5.32226,1.44043A7.98241,7.98241,0,0,1,1097.3457,1848.94469Z" transform="translate(-751.82635 -1651.39)" style="fill:#7a923c"/><path d="M1100.8291,1843.5277h4.83106v7.48632a2.49559,2.49559,0,0,0,1.707-.74121,9.78529,9.78529,0,0,0,1.208-2.63965,7.00216,7.00216,0,0,1,2.03515-3.46777,5.02279,5.02279,0,0,1,2.89844-.75879q.55224,0,1.915.08594l.01758,3.209a5.17287,5.17287,0,0,0-2.4502.36231,5.01336,5.01336,0,0,0-1.15527,2.25976q-.84522,2.53565-2.43262,3.123,2.294.63722,3.88184,3.98438c.05664.11523.12011.23632.18945.3623l2.708,5.05469h-5.21l-2.415-5.2959a6.45148,6.45148,0,0,0-1.28516-2.06152,2.45161,2.45161,0,0,0-1.6123-.457v7.81446h-4.83106Z" transform="translate(-751.82635 -1651.39)" style="fill:#7a923c"/><path d="M1122.32422,1849.11656l-4.39844-.793a6.85327,6.85327,0,0,1,2.55274-3.93359,9.34887,9.34887,0,0,1,5.38281-1.27637,11.60143,11.60143,0,0,1,4.83008.76758,4.826,4.826,0,0,1,2.23437,1.94922,10.00967,10.00967,0,0,1,.64649,4.33887l-.05176,5.6582a19.65219,19.65219,0,0,0,.23242,3.5625,10.39264,10.39264,0,0,0,.87207,2.458h-4.7959q-.19042-.4834-.46582-1.43164c-.08105-.28711-.13867-.47754-.17285-.56934a8.75059,8.75059,0,0,1-2.65625,1.81152,7.61323,7.61323,0,0,1-3.01953.60352,6.243,6.243,0,0,1-4.459-1.53516,5.1028,5.1028,0,0,1-1.62988-3.88183,5.21168,5.21168,0,0,1,.74121-2.76856,4.84812,4.84812,0,0,1,2.0791-1.86328,16.22127,16.22127,0,0,1,3.85547-1.12988,26.40954,26.40954,0,0,0,4.709-1.19043v-.48242a2.51248,2.51248,0,0,0-.68946-1.99317,4.13767,4.13767,0,0,0-2.60547-.59472,3.46849,3.46849,0,0,0-2.01757.50879A3.53894,3.53894,0,0,0,1122.32422,1849.11656Zm6.48633,3.9336a30.10681,30.10681,0,0,1-2.94922.74121,8.89011,8.89011,0,0,0-2.63965.8457,2.021,2.021,0,0,0-.94922,1.708,2.37648,2.37648,0,0,0,.75977,1.75976,2.64944,2.64944,0,0,0,1.93164.74121,4.19917,4.19917,0,0,0,2.50195-.8623,3.03367,3.03367,0,0,0,1.15527-1.60449,9.55006,9.55006,0,0,0,.18946-2.36328Z" transform="translate(-751.82635 -1651.39)" style="fill:#7a923c"/><path d="M1136.17676,1843.5277h16.57812v3.916h-5.86523v14.4043H1142.042v-14.4043h-5.86523Z" transform="translate(-751.82635 -1651.39)" style="fill:#7a923c"/><path d="M1155.75684,1843.5277h4.84765v7.60742h4.86426a17.86506,17.86506,0,0,1,4.39941.41406,4.62465,4.62465,0,0,1,2.55274,1.78516,5.198,5.198,0,0,1,1.01758,3.18359,4.63719,4.63719,0,0,1-1.81934,3.99316,9.19745,9.19745,0,0,1-5.46,1.33692h-10.40234Zm4.84765,15.25h4.51953q2.1211,0,2.7168-.69043a2.42818,2.42818,0,0,0,.5957-1.63868,1.85071,1.85071,0,0,0-1.02734-1.8291,9.22161,9.22161,0,0,0-3.64844-.5h-3.15625Z" transform="translate(-751.82635 -1651.39)" style="fill:#7a923c"/><path d="M1179.27051,1855.3275l-1.25977-12.835V1836.558h5.24512v5.93457l-1.24219,12.835Zm-1.05274,6.52051v-4.84766h4.84766v4.84766Z" transform="translate(-751.82635 -1651.39)" style="fill:#7a923c"/><path d="M879.1084,1697.3148q-9.49512-1.60692-13.7793,2.09375-4.28613,3.65185-3.79785,7.79.48486,4.13966,5.50195,6.33008,5.01417,2.18994,14.2168-2.43457l5.06445,10.22461a24.05262,24.05262,0,0,1-10.8584,3.2627,35.34031,35.34031,0,0,1-12.31835-1.16895,26.2744,26.2744,0,0,1-10.22461-5.45312,12.87562,12.87562,0,0,1-4.4795-9.5918,16.34934,16.34934,0,0,1,3.16407-10.80957,24.07041,24.07041,0,0,1,8.57031-7.25488,27.02763,27.02763,0,0,1,11.10058-2.87207,20.09633,20.09633,0,0,1,10.61426,2.19043Z" transform="translate(-751.82635 -1651.39)" style="fill:#d86600"/><path d="M889.333,1688.891l11.34472-.68164v12.5625l8.3252-.14649v-12.51269l12.95215-.73047L920.251,1722.39l-11.24805,1.26562v-13.292l-8.3252.19434v13.14648l-9.83593.97364Z" transform="translate(-751.82635 -1651.39)" style="fill:#d86600"/><path d="M950.97363,1687.38219l.292,10.5166-13.63281-.19434.09668,3.89453,6.96289-.38964.04883,6.42773h-6.33008l.14649,4.47949,13.14648-.77929.14551,12.61035-25.02637.73047-2.09375-37.24707Z" transform="translate(-751.82635 -1651.39)" style="fill:#d86600"/><path d="M966.99219,1710.89879l1.12011,13.7793-11.54-.97364-2.23926-36.32226,25.416,1.168.04883,10.41992-14.16894-.97363Z" transform="translate(-751.82635 -1651.39)" style="fill:#d86600"/><path d="M1019.918,1707.6859q-.58447,8.56934-6.62207,12.80469a21.9189,21.9189,0,0,1-13,4.1875,20.49194,20.49194,0,0,1-12.61133-4.28418q-5.64843-4.188-5.50195-12.708a18.279,18.279,0,0,1,2.09375-8.32617,23.75631,23.75631,0,0,1,5.25879-6.47559,22.37313,22.37313,0,0,1,7.01074-4.13867,19.1116,19.1116,0,0,1,7.54687-1.36328,18.31527,18.31527,0,0,1,4.57715,1.02246,16.84853,16.84853,0,0,1,5.502,3.21289,18.24985,18.24985,0,0,1,4.38183,6.18359A21.93422,21.93422,0,0,1,1019.918,1707.6859Zm-13.68262-4.334a.79671.79671,0,0,0,.34082-.24316,1.24751,1.24751,0,0,0,.292-.292,3.61734,3.61734,0,0,0,1.21778-2.67774,5.06021,5.06021,0,0,0-.82813-2.58105c-.06543-.06445-.14551-.1377-.24316-.21875s-.19434-.1709-.292-.26856c-.06543-.06445-.13868-.13769-.21973-.21875a1.82649,1.82649,0,0,0-.26758-.21875,6.64218,6.64218,0,0,0-2.53125-.97363,4.49461,4.49461,0,0,0-2.92187.4375,5.26445,5.26445,0,0,0-1.07129.585,9.515,9.515,0,0,0-.82715.584,3.96048,3.96048,0,0,0-1.2666,2.873,4.94986,4.94986,0,0,0,1.02246,2.72657,1.889,1.889,0,0,1,.1709.19433,1.78436,1.78436,0,0,0,.16992.19531,1.2494,1.2494,0,0,1,.19531.1211,1.889,1.889,0,0,1,.19434.1709,5.31041,5.31041,0,0,0,3.165,1.168,5.24593,5.24593,0,0,0,3.749-1.41211Z" transform="translate(-751.82635 -1651.39)" style="fill:#d86600"/><path d="M1023.3252,1689.03746q2.62938-.58448,5.2832-.998,2.65283-.41308,5.42871-.65722,5.55029-.43945,13.14648,2.67773,5.16064,2.19141,5.59961,6.57324.48487,4.33447-3.70117,6.76758,6.62109.7793,9.54395,3.94434a9.01035,9.01035,0,0,1,2.53125,6.8164,10.40426,10.40426,0,0,1-3.457,6.66993,13.96546,13.96546,0,0,1-8.71485,3.55468q-3.16552.293-5.98926.31641a52.39826,52.39826,0,0,1-5.40429-.21875q-2.58106-.24317-5.23438-.68164-2.6543-.438-5.42871-1.12012Zm13.585,11.44238q1.02246-.09814,1.94726-.19531a9.77441,9.77441,0,0,0,1.75293-.34082q1.65528-.438,1.80176-1.55762.19336-2.09325-2.53223-2.53222-1.36377-.24316-2.23926-.31641a4.75244,4.75244,0,0,0-1.31542.02441Zm2.09375,15.09375a25.3278,25.3278,0,0,1,4.18652-.292q3.11572-.14647,2.9707-2.72656-.14648-2.9707-3.50586-3.21387-1.65526-.14647-2.72656-.1709a8.7238,8.7238,0,0,0-1.60644.07325Z" transform="translate(-751.82635 -1651.39)" style="fill:#d86600"/><path d="M1095.9707,1688.015l3.11621,32.52441-11.15039,2.62989-.82714-17.72364-9.59278,19.23243-13-3.35938.73047-32.13574h11.15039l-1.65625,16.21387,9.59277-17.041,11.63672-.97363Z" transform="translate(-751.82635 -1651.39)" style="fill:#d86600"/><path d="M1129.22559,1688.25816l8.17968,7.8877-9.93261,10.56543,9.98144,10.56641-10.51758,7.25488-11.05175-12.61133.1455,11.88086-12.26953.876-1.85058-36.76075,14.12011-.53515.09766,18.16113Z" transform="translate(-751.82635 -1651.39)" style="fill:#d86600"/></g></svg>