<svg id="Слой_1" data-name="Слой 1" xmlns="http://www.w3.org/2000/svg" viewBox="0 0 469.08 424.05"><title>socks</title><rect x="9.75" y="4.98" width="459.33" height="419.07" rx="12" ry="12" style="fill:#3a301f"/><rect width="459.33" height="419.07" rx="12" ry="12" style="fill:#fff"/><path d="M150.38,319.25V330a2.56,2.56,0,0,0,1.93-.95,17.94,17.94,0,0,0,1.81-3.86q1.51-4,3.11-5c1-.71,2.79-1.07,5.22-1.07l.75,0v3.78l-.75,0a5,5,0,0,0-2.27.39A2.91,2.91,0,0,0,159,324.4a26.29,26.29,0,0,0-1.32,3.26,11.3,11.3,0,0,1-1,2.19,5.26,5.26,0,0,1-1.93,1.66,5.41,5.41,0,0,1,2.82,2A25.93,25.93,0,0,1,160,337.6l3.45,6.94h-6l-3-6.54q-.06-.13-.3-.54l-.62-1.19a7.89,7.89,0,0,0-1.59-2.31,2.36,2.36,0,0,0-1.53-.5v11.08h-5V333.46a2.43,2.43,0,0,0-1.51.48,7.42,7.42,0,0,0-1.59,2.33c-.36.69-.57,1.09-.64,1.19s-.2.35-.29.54l-3,6.54h-6l3.45-6.94a27.55,27.55,0,0,1,2.4-4.08,5.39,5.39,0,0,1,2.88-2,5.26,5.26,0,0,1-1.93-1.65,11.71,11.71,0,0,1-1-2.2,26.46,26.46,0,0,0-1.31-3.22,2.91,2.91,0,0,0-1.17-1.21,5.36,5.36,0,0,0-2.39-.4l-.65,0v-3.78l.74,0q3.7,0,5.28,1.09c1,.73,2.05,2.41,3.05,5a18.75,18.75,0,0,0,1.82,3.87,2.55,2.55,0,0,0,1.92.94V319.25Z" transform="translate(-65.41 -161.72)" style="fill:#7a923c"/><path d="M177,338.7l4.83.81a7.87,7.87,0,0,1-2.94,4.05,8.62,8.62,0,0,1-5,1.39q-4.79,0-7.08-3.12a10.55,10.55,0,0,1-1.81-6.32,10.15,10.15,0,0,1,2.38-7.13,7.85,7.85,0,0,1,6-2.58,8.15,8.15,0,0,1,6.46,2.7c1.57,1.8,2.33,4.56,2.26,8.27H169.94a5,5,0,0,0,1.17,3.36,3.68,3.68,0,0,0,2.8,1.2,3,3,0,0,0,1.91-.62A3.87,3.87,0,0,0,177,338.7Zm.27-4.89a4.63,4.63,0,0,0-1.08-3.2,3.49,3.49,0,0,0-5.14.06,4.47,4.47,0,0,0-1,3.14Z" transform="translate(-65.41 -161.72)" style="fill:#7a923c"/><path d="M187.35,326.22h16.23v18.32h-4.83V330.15h-6.61v8.23a9.57,9.57,0,0,1-.72,4.4,3.77,3.77,0,0,1-1.61,1.67,7.43,7.43,0,0,1-2.83.4,20.8,20.8,0,0,1-3-.31V341l.81,0c.51,0,.9.05,1.18.05.65,0,1.05-.21,1.2-.65a15.74,15.74,0,0,0,.23-3.59Z" transform="translate(-65.41 -161.72)" style="fill:#7a923c"/><path d="M212.1,331.8l-4.4-.79a6.87,6.87,0,0,1,2.56-3.93,9.33,9.33,0,0,1,5.38-1.28,11.63,11.63,0,0,1,4.83.77,4.77,4.77,0,0,1,2.23,1.95,10,10,0,0,1,.65,4.34l0,5.65a20.27,20.27,0,0,0,.23,3.57,11.07,11.07,0,0,0,.87,2.46h-4.79c-.13-.33-.29-.8-.47-1.44-.08-.28-.14-.47-.17-.57a8.89,8.89,0,0,1-2.66,1.82,7.64,7.64,0,0,1-3,.6,6.23,6.23,0,0,1-4.46-1.54,5.11,5.11,0,0,1-1.63-3.88,5.27,5.27,0,0,1,.74-2.77A4.88,4.88,0,0,1,210,334.9a16.22,16.22,0,0,1,3.86-1.13,25.81,25.81,0,0,0,4.71-1.19v-.48a2.53,2.53,0,0,0-.69-2,4.2,4.2,0,0,0-2.61-.59,3.43,3.43,0,0,0-2,.51A3.49,3.49,0,0,0,212.1,331.8Zm6.49,3.94c-.62.2-1.61.45-3,.74a9.1,9.1,0,0,0-2.64.84,2,2,0,0,0-.95,1.71,2.36,2.36,0,0,0,.76,1.76,2.63,2.63,0,0,0,1.93.74,4.14,4.14,0,0,0,2.5-.86,3,3,0,0,0,1.16-1.6,9.44,9.44,0,0,0,.19-2.37Z" transform="translate(-65.41 -161.72)" style="fill:#7a923c"/><path d="M238.74,338.7l4.83.81a7.87,7.87,0,0,1-2.94,4.05,8.62,8.62,0,0,1-5,1.39c-3.19,0-5.54-1-7.07-3.12a10.48,10.48,0,0,1-1.82-6.32,10.11,10.11,0,0,1,2.39-7.13,7.82,7.82,0,0,1,6-2.58,8.14,8.14,0,0,1,6.45,2.7c1.57,1.8,2.33,4.56,2.26,8.27H231.68a4.93,4.93,0,0,0,1.18,3.36,3.64,3.64,0,0,0,2.79,1.2,3,3,0,0,0,1.92-.62A3.93,3.93,0,0,0,238.74,338.7Zm.27-4.89a4.63,4.63,0,0,0-1.08-3.2,3.49,3.49,0,0,0-5.14.06,4.47,4.47,0,0,0-1,3.14Z" transform="translate(-65.41 -161.72)" style="fill:#7a923c"/><path d="M247.45,326.22h6L258,339l4.59-12.76h6v18.32h-4.12V332.48L260,344.54h-4.14l-4.26-12.06v12.06h-4.14Z" transform="translate(-65.41 -161.72)" style="fill:#7a923c"/><path d="M283.07,326.22h4.85v6.71h6.94v-6.71h4.86v18.32h-4.86v-7.7h-6.94v7.7h-4.85Z" transform="translate(-65.41 -161.72)" style="fill:#7a923c"/><path d="M308.23,331.8l-4.4-.79a6.81,6.81,0,0,1,2.55-3.93,9.35,9.35,0,0,1,5.38-1.28,11.63,11.63,0,0,1,4.83.77,4.8,4.8,0,0,1,2.24,1.95,10,10,0,0,1,.64,4.34l-.05,5.65a20.27,20.27,0,0,0,.23,3.57,10.65,10.65,0,0,0,.88,2.46h-4.8c-.13-.33-.28-.8-.47-1.44-.08-.28-.13-.47-.17-.57a8.85,8.85,0,0,1-2.65,1.82,7.68,7.68,0,0,1-3,.6,6.2,6.2,0,0,1-4.46-1.54,5.07,5.07,0,0,1-1.63-3.88,5.17,5.17,0,0,1,.74-2.77,4.82,4.82,0,0,1,2.08-1.86,16.12,16.12,0,0,1,3.85-1.13,25.58,25.58,0,0,0,4.71-1.19v-.48a2.53,2.53,0,0,0-.69-2,4.18,4.18,0,0,0-2.6-.59,3.45,3.45,0,0,0-2,.51A3.49,3.49,0,0,0,308.23,331.8Zm6.48,3.94c-.62.2-1.6.45-2.95.74a9.34,9.34,0,0,0-2.64.84,2,2,0,0,0-.95,1.71,2.39,2.39,0,0,0,.76,1.76,2.63,2.63,0,0,0,1.93.74,4.19,4.19,0,0,0,2.51-.86,3,3,0,0,0,1.15-1.6,9.44,9.44,0,0,0,.19-2.37Z" transform="translate(-65.41 -161.72)" style="fill:#7a923c"/><path d="M324.13,326.22h4.66v11.5l7.45-11.5H341v18.32h-4.66V332.82l-7.55,11.72h-4.66Zm11.61-7.44h2.36a5.43,5.43,0,0,1-1.64,3.68,5.88,5.88,0,0,1-7.47,0,5.48,5.48,0,0,1-1.65-3.68h2.36a2.66,2.66,0,0,0,.86,1.85,4,4,0,0,0,4.32,0A2.66,2.66,0,0,0,335.74,318.78Z" transform="translate(-65.41 -161.72)" style="fill:#7a923c"/><path d="M343.8,326.22h16.57v3.91h-5.86v14.41h-4.85V330.13H343.8Z" transform="translate(-65.41 -161.72)" style="fill:#7a923c"/><path d="M363.15,326.22h4.66v11.5l7.45-11.5H380v18.32h-4.65V332.82l-7.56,11.72h-4.66Z" transform="translate(-65.41 -161.72)" style="fill:#7a923c"/><path d="M394.86,326.22h10.61a8.19,8.19,0,0,1,4.88,1.19,4.65,4.65,0,0,1,.73,6.26,4.24,4.24,0,0,1-2.23,1.52,4.76,4.76,0,0,1,2.83,1.74,4.63,4.63,0,0,1,.93,2.79A4.34,4.34,0,0,1,411,343.2a7,7,0,0,1-4.64,1.34H394.86Zm4.88,7.6h3.12a7,7,0,0,0,3.27-.57,1.89,1.89,0,0,0,1-1.79,1.71,1.71,0,0,0-.94-1.65,7.89,7.89,0,0,0-3.34-.49h-3.12Zm0,7.61h3.83a6.86,6.86,0,0,0,3-.5,1.85,1.85,0,0,0,1-1.79,1.87,1.87,0,0,0-1.09-1.86,11.45,11.45,0,0,0-4.22-.51h-2.49Z" transform="translate(-65.41 -161.72)" style="fill:#7a923c"/><path d="M431.62,331.63l-4.78.86a3.44,3.44,0,0,0-1.09-2.15,3.28,3.28,0,0,0-2.22-.73,3.63,3.63,0,0,0-2.89,1.25,6.42,6.42,0,0,0-1.08,4.19c0,2.17.37,3.71,1.1,4.6A3.59,3.59,0,0,0,423.6,341a3.25,3.25,0,0,0,2.26-.79,4.67,4.67,0,0,0,1.24-2.7l4.76.82a8.46,8.46,0,0,1-2.84,4.95,8.87,8.87,0,0,1-5.64,1.67,8.39,8.39,0,0,1-6.41-2.54,11.54,11.54,0,0,1,0-14.08,8.48,8.48,0,0,1,6.48-2.53,8.83,8.83,0,0,1,5.32,1.44A8,8,0,0,1,431.62,331.63Z" transform="translate(-65.41 -161.72)" style="fill:#7a923c"/><path d="M445.91,338.7l4.83.81a7.94,7.94,0,0,1-2.95,4.05,8.59,8.59,0,0,1-5,1.39q-4.78,0-7.08-3.12a10.55,10.55,0,0,1-1.81-6.32,10.15,10.15,0,0,1,2.38-7.13,7.85,7.85,0,0,1,6-2.58,8.11,8.11,0,0,1,6.45,2.7q2.37,2.7,2.26,8.27H438.85a4.88,4.88,0,0,0,1.17,3.36,3.68,3.68,0,0,0,2.8,1.2,3,3,0,0,0,1.91-.62A3.87,3.87,0,0,0,445.91,338.7Zm.27-4.89a4.63,4.63,0,0,0-1.09-3.2,3.49,3.49,0,0,0-5.14.06,4.42,4.42,0,0,0-1,3.14Z" transform="translate(-65.41 -161.72)" style="fill:#7a923c"/><path d="M89,368.61h4.85v6.71h6.94v-6.71h4.86v18.32h-4.86v-7.69H93.88v7.69H89Z" transform="translate(-65.41 -161.72)" style="fill:#7a923c"/><path d="M109.44,377.51a9.94,9.94,0,0,1,1.19-4.67,8.15,8.15,0,0,1,3.38-3.45,9.92,9.92,0,0,1,4.87-1.19,9.14,9.14,0,0,1,6.81,2.7,9.33,9.33,0,0,1,2.66,6.82,9.42,9.42,0,0,1-2.68,6.89,9.09,9.09,0,0,1-6.76,2.74,10.6,10.6,0,0,1-4.8-1.14,7.86,7.86,0,0,1-3.48-3.34A11.17,11.17,0,0,1,109.44,377.51Zm5,.26a6.05,6.05,0,0,0,1.3,4.18,4.22,4.22,0,0,0,6.37,0,6.15,6.15,0,0,0,1.28-4.21,6,6,0,0,0-1.28-4.14,4.22,4.22,0,0,0-6.37,0A6,6,0,0,0,114.41,377.77Z" transform="translate(-65.41 -161.72)" style="fill:#7a923c"/><path d="M132.2,368.61h10.61a8.26,8.26,0,0,1,4.88,1.19,4.47,4.47,0,0,1-1.5,7.78,4.76,4.76,0,0,1,2.83,1.74,4.68,4.68,0,0,1,.93,2.8,4.35,4.35,0,0,1-1.57,3.48,7,7,0,0,1-4.64,1.33H132.2Zm4.88,7.61h3.12a7,7,0,0,0,3.27-.57,1.92,1.92,0,0,0,1-1.79,1.71,1.71,0,0,0-.94-1.65,7.89,7.89,0,0,0-3.34-.49h-3.12Zm0,7.61h3.83a6.86,6.86,0,0,0,3-.5,2.15,2.15,0,0,0-.14-3.65,11.48,11.48,0,0,0-4.23-.51h-2.48Z" transform="translate(-65.41 -161.72)" style="fill:#7a923c"/><path d="M152.28,377.51a9.83,9.83,0,0,1,1.19-4.67,8.13,8.13,0,0,1,3.37-3.45,10,10,0,0,1,4.87-1.19,9.16,9.16,0,0,1,6.82,2.7,9.32,9.32,0,0,1,2.65,6.82,9.42,9.42,0,0,1-2.68,6.89,9.08,9.08,0,0,1-6.75,2.74,10.67,10.67,0,0,1-4.81-1.14,7.79,7.79,0,0,1-3.47-3.34A11.06,11.06,0,0,1,152.28,377.51Zm5,.26a6.1,6.1,0,0,0,1.29,4.18,4.13,4.13,0,0,0,3.19,1.45,4.08,4.08,0,0,0,3.18-1.45,6.15,6.15,0,0,0,1.29-4.21,6,6,0,0,0-1.29-4.14,4.05,4.05,0,0,0-3.18-1.45,4.1,4.1,0,0,0-3.19,1.45A6.05,6.05,0,0,0,157.25,377.77Z" transform="translate(-65.41 -161.72)" style="fill:#7a923c"/><path d="M185.52,361.64h4.81v9.3a5.94,5.94,0,0,1,2.11-2,5.64,5.64,0,0,1,7.61,2.17,12.15,12.15,0,0,1,1.88,6.82,10.69,10.69,0,0,1-2.1,6.72,6.15,6.15,0,0,1-5,2.74,4.86,4.86,0,0,1-2.43-.65,7.11,7.11,0,0,1-2.11-1.92v9.12h-4.81v-9.12a7.64,7.64,0,0,1-2.25,1.92,5.31,5.31,0,0,1-2.55.65,5.81,5.81,0,0,1-4.9-2.75,11.76,11.76,0,0,1-1.93-6.9,10.38,10.38,0,0,1,2.21-6.81c1.47-1.8,3.07-2.69,4.78-2.69a5.14,5.14,0,0,1,2.55.65,6.68,6.68,0,0,1,2.09,2Zm-3.24,10.27a2.84,2.84,0,0,0-2.36,1.61,8,8,0,0,0-1,4.25,8.46,8.46,0,0,0,.94,4.26,2.73,2.73,0,0,0,2.34,1.61,2.84,2.84,0,0,0,2.4-1.61,8.41,8.41,0,0,0,1-4.38,7.09,7.09,0,0,0-1.07-4.38A2.91,2.91,0,0,0,182.28,371.91Zm11.33,0a2.75,2.75,0,0,0-2.41,1.73,9,9,0,0,0-.94,4.34,7.4,7.4,0,0,0,1,4.13A2.51,2.51,0,0,0,196,382a8.15,8.15,0,0,0,1-4.07,9,9,0,0,0-.9-4.22A2.71,2.71,0,0,0,193.61,371.94Z" transform="translate(-65.41 -161.72)" style="fill:#7a923c"/><path d="M209.52,374.2l-4.4-.79a6.87,6.87,0,0,1,2.55-3.94,9.35,9.35,0,0,1,5.38-1.27,11.47,11.47,0,0,1,4.83.77,4.84,4.84,0,0,1,2.24,1.94,10.07,10.07,0,0,1,.64,4.34l0,5.66a20.14,20.14,0,0,0,.23,3.56,10.33,10.33,0,0,0,.88,2.46H217c-.13-.32-.28-.8-.47-1.43a5.86,5.86,0,0,0-.17-.57,8.64,8.64,0,0,1-2.65,1.81,7.69,7.69,0,0,1-3,.61,6.24,6.24,0,0,1-4.46-1.54,5.09,5.09,0,0,1-1.63-3.88,5.15,5.15,0,0,1,.74-2.77,4.82,4.82,0,0,1,2.08-1.86,16.12,16.12,0,0,1,3.85-1.13A26.44,26.44,0,0,0,216,375v-.49a2.51,2.51,0,0,0-.69-2,4.11,4.11,0,0,0-2.6-.59,2.91,2.91,0,0,0-3.19,2.29Zm6.48,3.93a29.23,29.23,0,0,1-2.95.75,8.71,8.71,0,0,0-2.64.84,2,2,0,0,0-.95,1.71,2.41,2.41,0,0,0,.76,1.76,2.67,2.67,0,0,0,1.93.74,4.25,4.25,0,0,0,2.51-.86,3,3,0,0,0,1.15-1.61,9.35,9.35,0,0,0,.19-2.36Z" transform="translate(-65.41 -161.72)" style="fill:#7a923c"/><path d="M225.35,368.61h4.85v6.71h6.94v-6.71H242v18.32h-4.86v-7.69H230.2v7.69h-4.85Z" transform="translate(-65.41 -161.72)" style="fill:#7a923c"/><path d="M257.49,381.1l4.83.81a8,8,0,0,1-2.94,4,8.69,8.69,0,0,1-5,1.39c-3.19,0-5.54-1-7.07-3.13a10.45,10.45,0,0,1-1.81-6.31,10.09,10.09,0,0,1,2.38-7.13,7.82,7.82,0,0,1,6-2.58,8.14,8.14,0,0,1,6.45,2.7c1.58,1.8,2.33,4.55,2.26,8.27H250.44a4.85,4.85,0,0,0,1.17,3.35,3.65,3.65,0,0,0,2.79,1.2,3,3,0,0,0,1.92-.62A3.83,3.83,0,0,0,257.49,381.1Zm.28-4.9a4.7,4.7,0,0,0-1.09-3.2,3.51,3.51,0,0,0-5.14.06,4.48,4.48,0,0,0-1,3.14Z" transform="translate(-65.41 -161.72)" style="fill:#7a923c"/><path d="M266.39,368.61h4.52v2.69a6.83,6.83,0,0,1,2.38-2.24,6.51,6.51,0,0,1,3.33-.86,7,7,0,0,1,5.42,2.5,10.14,10.14,0,0,1,2.22,7c0,3.06-.74,5.43-2.24,7.13a7,7,0,0,1-5.43,2.55,6.2,6.2,0,0,1-2.75-.61,9.11,9.11,0,0,1-2.6-2.07v9.23h-4.85Zm4.8,8.85a7.08,7.08,0,0,0,1.22,4.56,3.74,3.74,0,0,0,3,1.48,3.5,3.5,0,0,0,2.81-1.36,7,7,0,0,0,1.12-4.44,6.71,6.71,0,0,0-1.15-4.28,3.6,3.6,0,0,0-2.87-1.39,3.7,3.7,0,0,0-2.95,1.37A6.11,6.11,0,0,0,271.19,377.46Z" transform="translate(-65.41 -161.72)" style="fill:#7a923c"/><path d="M287.92,368.61h4.85v6.71h6.93v-6.71h4.87v18.32H299.7v-7.69h-6.93v7.69h-4.85Z" transform="translate(-65.41 -161.72)" style="fill:#7a923c"/><path d="M309.48,368.61h4.85v7.61h4.87a18,18,0,0,1,4.37.4,4.67,4.67,0,0,1,2.55,1.77,5.11,5.11,0,0,1,1.05,3.21,4.65,4.65,0,0,1-1.83,4,9.3,9.3,0,0,1-5.49,1.33H309.48Zm4.85,15.25h4.51a4.55,4.55,0,0,0,2.55-.55,2,2,0,0,0,.79-1.8,1.81,1.81,0,0,0-1-1.81,9.38,9.38,0,0,0-3.68-.5h-3.14Zm15.6-15.25h4.84v18.32h-4.84Z" transform="translate(-65.41 -161.72)" style="fill:#7a923c"/><path d="M350.23,381.1l4.83.81a8,8,0,0,1-2.94,4,8.69,8.69,0,0,1-5,1.39q-4.77,0-7.07-3.13a10.45,10.45,0,0,1-1.81-6.31,10.09,10.09,0,0,1,2.38-7.13,7.84,7.84,0,0,1,6-2.58,8.14,8.14,0,0,1,6.45,2.7c1.58,1.8,2.33,4.55,2.26,8.27H343.18a4.85,4.85,0,0,0,1.17,3.35,3.67,3.67,0,0,0,2.79,1.2,3,3,0,0,0,1.92-.62A3.77,3.77,0,0,0,350.23,381.1Zm.28-4.9a4.7,4.7,0,0,0-1.09-3.2,3.51,3.51,0,0,0-5.14.06,4.48,4.48,0,0,0-1,3.14Z" transform="translate(-65.41 -161.72)" style="fill:#7a923c"/><path d="M385.06,374l-4.78.86a3.5,3.5,0,0,0-1.09-2.16A3.33,3.33,0,0,0,377,372a3.63,3.63,0,0,0-2.89,1.25,6.39,6.39,0,0,0-1.08,4.18c0,2.18.37,3.71,1.1,4.61A3.59,3.59,0,0,0,377,383.4a3.29,3.29,0,0,0,2.26-.79,4.67,4.67,0,0,0,1.24-2.7l4.76.81a8.4,8.4,0,0,1-2.84,4.95,8.81,8.81,0,0,1-5.64,1.68,8.39,8.39,0,0,1-6.41-2.54,11.56,11.56,0,0,1,0-14.09,8.51,8.51,0,0,1,6.48-2.52,8.83,8.83,0,0,1,5.32,1.44A7.93,7.93,0,0,1,385.06,374Z" transform="translate(-65.41 -161.72)" style="fill:#7a923c"/><path d="M387.62,377.51a9.83,9.83,0,0,1,1.19-4.67,8.08,8.08,0,0,1,3.37-3.45,9.92,9.92,0,0,1,4.87-1.19,9.18,9.18,0,0,1,6.82,2.7,9.32,9.32,0,0,1,2.65,6.82,9.42,9.42,0,0,1-2.68,6.89,9.08,9.08,0,0,1-6.75,2.74,10.67,10.67,0,0,1-4.81-1.14,7.79,7.79,0,0,1-3.47-3.34A11.06,11.06,0,0,1,387.62,377.51Zm5,.26a6.1,6.1,0,0,0,1.3,4.18,4.22,4.22,0,0,0,6.37,0,6.15,6.15,0,0,0,1.29-4.21,6,6,0,0,0-1.29-4.14,4.22,4.22,0,0,0-6.37,0A6.06,6.06,0,0,0,392.58,377.77Z" transform="translate(-65.41 -161.72)" style="fill:#7a923c"/><path d="M410.37,368.61H421a8.26,8.26,0,0,1,4.88,1.19,4.47,4.47,0,0,1-1.5,7.78,4.76,4.76,0,0,1,2.83,1.74,4.68,4.68,0,0,1,.93,2.8,4.35,4.35,0,0,1-1.57,3.48,7,7,0,0,1-4.64,1.33H410.37Zm4.88,7.61h3.12a7,7,0,0,0,3.27-.57,1.9,1.9,0,0,0,1-1.79,1.71,1.71,0,0,0-.94-1.65,7.89,7.89,0,0,0-3.34-.49h-3.12Zm0,7.61h3.83a6.86,6.86,0,0,0,3-.5,2.15,2.15,0,0,0-.14-3.65,11.45,11.45,0,0,0-4.22-.51h-2.49Z" transform="translate(-65.41 -161.72)" style="fill:#7a923c"/><path d="M442.18,381.1l4.83.81a8,8,0,0,1-2.94,4,8.69,8.69,0,0,1-5,1.39c-3.19,0-5.54-1-7.07-3.13a10.45,10.45,0,0,1-1.81-6.31,10.09,10.09,0,0,1,2.38-7.13,7.82,7.82,0,0,1,6-2.58,8.14,8.14,0,0,1,6.45,2.7c1.57,1.8,2.33,4.55,2.26,8.27H435.12a4.9,4.9,0,0,0,1.18,3.35,3.65,3.65,0,0,0,2.79,1.2,3,3,0,0,0,1.92-.62A3.83,3.83,0,0,0,442.18,381.1Zm.28-4.9a4.7,4.7,0,0,0-1.09-3.2,3.51,3.51,0,0,0-5.14.06,4.48,4.48,0,0,0-1,3.14Z" transform="translate(-65.41 -161.72)" style="fill:#7a923c"/><path d="M448.58,368.61h16.58v3.92h-5.87v14.4h-4.85v-14.4h-5.86Z" transform="translate(-65.41 -161.72)" style="fill:#7a923c"/><path d="M468.09,368.61h4.85v7.61h4.86a18,18,0,0,1,4.38.4,4.74,4.74,0,0,1,2.55,1.77,5.17,5.17,0,0,1,1,3.21,4.65,4.65,0,0,1-1.83,4,9.24,9.24,0,0,1-5.48,1.33H468.09Zm4.85,15.25h4.5a4.55,4.55,0,0,0,2.55-.55,2,2,0,0,0,.8-1.8,1.82,1.82,0,0,0-1-1.81,9.38,9.38,0,0,0-3.68-.5h-3.14Zm15.59-15.25h4.85v18.32h-4.85Z" transform="translate(-65.41 -161.72)" style="fill:#7a923c"/><path d="M500.13,380.41l-1.26-12.83v-5.94h5.24v5.94l-1.24,12.83Zm-1.06,6.52v-4.85h4.85v4.85Z" transform="translate(-65.41 -161.72)" style="fill:#7a923c"/><path d="M202,208.74q-8.7-1.47-12.63,1.92t-3.48,7.14q.45,3.8,5,5.8t13-2.23l4.64,9.37a22.14,22.14,0,0,1-10,3,32.35,32.35,0,0,1-11.29-1.07,24.11,24.11,0,0,1-9.37-5,11.81,11.81,0,0,1-4.11-8.79,15,15,0,0,1,2.9-9.91,22.18,22.18,0,0,1,7.86-6.65,24.86,24.86,0,0,1,10.17-2.63,18.38,18.38,0,0,1,9.73,2Z" transform="translate(-65.41 -161.72)" style="fill:#d86600"/><path d="M211.35,233.82l7.18-33.07,13.21-1.11,11.92,27.8-11.16,1.33-5.13-14.5-2.46,18.52Z" transform="translate(-65.41 -161.72)" style="fill:#d86600"/><path d="M270.56,199.64,281,230l-11.07,3.84-2.19-6.7h-8.57l-2,6.56-10.89-5.08,11.11-28.12Zm-3.66,20.48-3.25-7.9L260.3,220Z" transform="translate(-65.41 -161.72)" style="fill:#d86600"/><path d="M283.82,234.62l-1-6.07,32.44.22-1,5.85ZM302.33,197l11.92-.67-1.61,32.09-10.31,1.16.72-25.35-8.84.58.54,24.86-9.06.89-1.34-32.84Z" transform="translate(-65.41 -161.72)" style="fill:#d86600"/><path d="M341.25,200.44l7.49,7.23-9.1,9.68,9.15,9.68-9.64,6.65L329,222.13l.13,10.88-11.24.81-1.7-33.69,12.94-.49.09,16.64Z" transform="translate(-65.41 -161.72)" style="fill:#d86600"/><path d="M380.29,200.22l2.86,29.8-10.22,2.41-.76-16.24-8.79,17.63-11.91-3.08.67-29.45h10.21l-1.51,14.86,8.79-15.62,10.66-.89Z" transform="translate(-65.41 -161.72)" style="fill:#d86600"/><path d="M409.79,199.64l.27,9.63-12.5-.17.09,3.57,6.38-.36.05,5.89h-5.8l.13,4.1,12-.71.13,11.56-22.93.67-1.92-34.14Z" transform="translate(-65.41 -161.72)" style="fill:#d86600"/><path d="M153.14,253.85l11.87-.67-1.57,32.09-10.3,1.16.67-25.35-8.84.58.54,24.81-9,.9-1.38-32.8Z" transform="translate(-65.41 -161.72)" style="fill:#d86600"/><path d="M202.13,271.79q-.52,7.86-6.07,11.74a20.06,20.06,0,0,1-11.91,3.84,18.79,18.79,0,0,1-11.56-3.93q-5.18-3.84-5-11.65a16.78,16.78,0,0,1,1.92-7.63,21.57,21.57,0,0,1,4.82-5.93,20.51,20.51,0,0,1,6.42-3.8,17.75,17.75,0,0,1,6.92-1.25,17.12,17.12,0,0,1,4.2.94,15.58,15.58,0,0,1,5,2.95,16.68,16.68,0,0,1,4,5.66A20.1,20.1,0,0,1,202.13,271.79Zm-12.54-4a.79.79,0,0,0,.32-.22,1.08,1.08,0,0,0,.26-.27,3.28,3.28,0,0,0,1.12-2.45,4.58,4.58,0,0,0-.76-2.37,2.3,2.3,0,0,0-.22-.2,3.08,3.08,0,0,1-.27-.25l-.2-.2a2.43,2.43,0,0,0-.25-.2,6.14,6.14,0,0,0-2.32-.89,4.06,4.06,0,0,0-2.67.4,4.88,4.88,0,0,0-1,.54c-.44.3-.69.47-.75.53a3.62,3.62,0,0,0-1.16,2.64,4.46,4.46,0,0,0,.93,2.49l.16.18a1.29,1.29,0,0,0,.16.18l.17.11.18.16a4.92,4.92,0,0,0,2.9,1.07,4.82,4.82,0,0,0,3.44-1.29Z" transform="translate(-65.41 -161.72)" style="fill:#d86600"/><path d="M221.72,253.59l6.47-.18.27,9.37,8-10.13,9.78,5.31-12,12.4,9.19,10.53-8,6-7.14-10.54-.22,10-5.85.17-.22-9.59-6.47,8.43L205.26,280l10.48-11.11L207.35,257l8.57-3.22,6.25,9.55Z" transform="translate(-65.41 -161.72)" style="fill:#d86600"/><path d="M271.92,253.18l.27,9.64-12.49-.18.09,3.57,6.38-.35,0,5.89h-5.8l.13,4.1,12-.71.14,11.56-22.94.67-1.92-34.14Z" transform="translate(-65.41 -161.72)" style="fill:#d86600"/><path d="M275,287.37l7.19-33.07,13.21-1.12L307.31,281l-11.16,1.34L291,267.82l-2.45,18.52Z" transform="translate(-65.41 -161.72)" style="fill:#d86600"/><path d="M334.22,253.18l10.44,30.35-11.07,3.84-2.18-6.7h-8.57l-2,6.56-10.89-5.09L321.05,254Zm-3.66,20.49-3.26-7.9L324,273.53Z" transform="translate(-65.41 -161.72)" style="fill:#d86600"/><path d="M347.43,254.57l10.39-.63v11.52l7.63-.14V253.85l11.87-.67-1.56,32.09-10.31,1.16V274.25l-7.63.18v12l-9,.9Z" transform="translate(-65.41 -161.72)" style="fill:#d86600"/><path d="M408.69,253.76l2.86,29.81L401.33,286l-.76-16.24-8.79,17.63-11.91-3.08.67-29.45h10.21l-1.51,14.85L398,254.08l10.66-.9Z" transform="translate(-65.41 -161.72)" style="fill:#d86600"/><path d="M437.16,274.16l-2.23,0-10,13.17-10.8-8.08,12.54-7.86a16.84,16.84,0,0,1-5.09-5,6.29,6.29,0,0,1-.67-6c.6-1.49,2-2.77,4.29-3.84a32.89,32.89,0,0,1,7.45-2.41c1.42-.27,2.84-.48,4.26-.65s2.86-.27,4.35-.33a37.47,37.47,0,0,1,7.59.36l-1.61,31.5-10.58,1.34Zm.72-15.31q-3.75.13-5.27,1.25a2.51,2.51,0,0,0-1.34,2.5,4.73,4.73,0,0,0,2,2.68,10,10,0,0,0,4.55,1.69Z" transform="translate(-65.41 -161.72)" style="fill:#d86600"/><path d="M270.74,368.17l-1,1.34C270.07,369.07,270.41,368.62,270.74,368.17Z" transform="translate(-65.41 -161.72)" style="fill:#02263c"/><path d="M288.79,344.63l-.07.08a1.48,1.48,0,0,1,.13-.08Z" transform="translate(-65.41 -161.72)" style="fill:#02263c"/></svg>