<svg version="1" xmlns="http://www.w3.org/2000/svg" width="137.333" height="137.333" viewBox="0 0 103.000000 103.000000"><path d="M1 51v51h102V0H1v51zm55.4-36.4c.3.9.6 2.4.6 3.4 0 5.4 7.7 16.7 11.9 17.3 2.3.4 4.1 2.2 4.1 4.4 0 1.9-13.7 1.7-17.4-.2-1.5-.8-4.2-1.5-6-1.5-1.7 0-4.6-.9-6.3-2-3.4-2-4.4-5-1.8-5 .8 0 1.9-1 2.6-2.2.6-1.1 2.1-3.1 3.4-4.2 1.2-1.2 2-2.7 1.8-3.4-.3-.6 0-1.2.6-1.2s1.1-.9 1.1-2 .5-2 1-2c.6 0 1-.7 1-1.5 0-2 2.6-1.9 3.4.1zm-12.7 23c2.6 1.2 4.4 2.8 4.8 4.1.5 2.3 4.2 3.2 5.9 1.5.4-.4 5.7-.8 11.7-.8 12.6-.2 12.6-.2 1.7 7.2-11.7 7.8-17.6 9.8-29.3 9.9h-10V54c0-4.8.2-5.5 2-5.5 1.6 0 2.1-.8 2.5-4.5.4-3.7.9-4.6 2.8-4.8 1.4-.2 2.2-1 2.2-2.4 0-1.1.3-1.8.8-1.6.4.2 2.6 1.3 4.9 2.4zm35.5 10.6c.2 3 .8 4.3 1.8 4.3 1.2 0 1.5 1.5 1.5 7.3 0 4.7.4 7.2 1.1 7.2 2.4 0-.8 8.4-4.4 11.8-1.9 1.7-3.8 3.2-4.3 3.2s-.9.3-.9.8c0 .9-4.9 3.1-11.9 5.1l-5.6 1.7-.3 5.7c-.4 7.4-2 7.4-2.4 0-.3-6.5.1-6.1-12.7-10.9-4.1-1.6-8.4-3.6-9.6-4.6C28.1 77.2 25 70.5 25 66c0-3.7.1-3.8 2.8-3 1.5.4 5.2 2.2 8.2 3.9 8.2 4.6 8.6 3.8.5-1-8.9-5.2-8.9-5.1-3-4.4 6 .8 17.8-1.5 25-4.9 2.7-1.3 8.1-4.6 12-7.5 3.8-2.8 7.3-5.1 7.7-5.1.4 0 .8 1.9 1 4.2z"/><path d="M35.7 51.6c-1.3 1.3-.7 5.2.9 5.8 2.2.9 4.6-1.3 4.2-3.8-.3-2.1-3.7-3.4-5.1-2zM71.1 53.3c-1.8 2.3-.2 4.9 2.8 4.5 2-.2 2.6-.8 2.6-2.8 0-2.9-3.4-4-5.4-1.7zM72.8 69.7c.7.3 1.6.2 1.9-.1.4-.3-.2-.6-1.3-.5-1.1 0-1.4.3-.6.6zM45 71c.8.5 2.2.9 3 .9 1 0 .8-.3-.5-.9-2.7-1.2-4.3-1.2-2.5 0zM68.8 70.7c.7.3 1.6.2 1.9-.1.4-.3-.2-.6-1.3-.5-1.1 0-1.4.3-.6.6zM63.8 71.7c.6.2 1.8.2 2.5 0 .6-.3.1-.5-1.3-.5-1.4 0-1.9.2-1.2.5zM52.8 72.7c1.7.2 4.7.2 6.5 0 1.7-.2.3-.4-3.3-.4-3.6 0-5 .2-3.2.4zM43.6 75.5c-2 2.1-.5 5.5 2.5 5.5 2.4 0 3.6-2.7 2.2-4.8-1.4-2.3-2.9-2.5-4.7-.7z"/></svg>