<svg id="Слой_1" data-name="Слой 1" xmlns="http://www.w3.org/2000/svg" viewBox="0 0 495.87 249.54"><title>коробки_кор</title><rect x="10.31" y="2.93" width="485.56" height="246.61" rx="12" ry="12" style="fill:#3a301f"/><rect width="485.56" height="246.61" rx="12" ry="12" style="fill:#fff"/><path d="M-77,245.29a12.61,12.61,0,0,0-5.12-1.51,12.07,12.07,0,0,0-5.3.88,10.1,10.1,0,0,0-4,3.36,9,9,0,0,0-1.32,5.84,8,8,0,0,0,2,5.06,7.92,7.92,0,0,0,4.28,2.44,6.66,6.66,0,0,0,4.63-.78,7.92,7.92,0,0,0,3.36-4.72l-4.53.09.78-5.5,11.54-.09a12.34,12.34,0,0,1,.53,4.57,19.31,19.31,0,0,1-.63,4.58A15.7,15.7,0,0,1-76.82,268a17.85,17.85,0,0,1-9.35,3.17,15.62,15.62,0,0,1-4.89-.59,18.37,18.37,0,0,1-4.75-2.14q-4.57-2.88-6.76-9.45a17.2,17.2,0,0,1,0-11.88A21.67,21.67,0,0,1-99.8,242a20.28,20.28,0,0,1,3.9-4,19.29,19.29,0,0,1,10.32-4,15.39,15.39,0,0,1,11,3.26Z" transform="translate(184.88 -189.23)" style="fill:#d86600"/><path d="M-67.18,233.9l14,.92-.68,36-12.37.39Z" transform="translate(184.88 -189.23)" style="fill:#d86600"/><path d="M-51.4,233.9-26,235.07l0,10.42-14.17-1,.49,4.43,6.82-.05.78,8.91-6.72-.38,1.12,13.78-11.54-1Z" transform="translate(184.88 -189.23)" style="fill:#d86600"/><path d="M-23.26,235.8l33.55-1.9.58,16.84-12.8-.68L1.91,271.2l-16.45-1.76,2.82-19-11.83.34Z" transform="translate(184.88 -189.23)" style="fill:#d86600"/><path d="M17.15,256.54A32.71,32.71,0,0,0,22,258.19a19.8,19.8,0,0,0,4.34.73c1.2.07,1.91-.09,2.14-.48s-.26-1.06-1.66-2-2.95-2.12-4.38-3.24-2.84-2.31-4.24-3.58a9.19,9.19,0,0,1-3.06-9q1-5.31,5.11-6.24a18.11,18.11,0,0,1,9,.35,38.29,38.29,0,0,1,9.25,3.89A29,29,0,0,1,44.61,243L40,250.11a6.78,6.78,0,0,0-1.42-1c-.58-.35-1.29-.73-2.14-1.15a25,25,0,0,0-4.43-1.65c-1.26-.3-2-.23-2.24.19s.81,1.49,3,3.31a79.34,79.34,0,0,0,7.06,5.16c1.66,1,2.74,3.07,3.26,6.09a6.32,6.32,0,0,1-2.48,6.57,18,18,0,0,1-8,3.22,31.22,31.22,0,0,1-10.12,0,21.22,21.22,0,0,1-8.82-3.17Z" transform="translate(184.88 -189.23)" style="fill:#d86600"/><path d="M73.88,235.8l33.54-1.9.59,16.84-12.81-.68,3.85,21.14-16.46-1.76,2.83-19-11.84.34Z" transform="translate(184.88 -189.23)" style="fill:#d86600"/><path d="M110.88,235.41l11.34-.68v12.56l8.33-.15V234.63l12.95-.73-1.7,35-11.25,1.26V256.88l-8.33.2v13.14l-9.83,1Z" transform="translate(184.88 -189.23)" style="fill:#d86600"/><path d="M172.76,233.9,184.16,267l-12.08,4.19-2.38-7.31h-9.35l-2.19,7.16-11.88-5.55,12.12-30.68Zm-4,22.35-3.55-8.62-3.65,8.47Z" transform="translate(184.88 -189.23)" style="fill:#d86600"/><path d="M187.47,235.8,221,233.9l.58,16.84-12.81-.68,3.85,21.14-16.46-1.76,2.83-19-11.83.34Z" transform="translate(184.88 -189.23)" style="fill:#d86600"/><path d="M-115,293.3l3.65,16.85,3.7-11.84,6.38-.09,2.58,11,3.46-15,14.9-1.21-10.71,35.3-9.94,1.31L-105,316.91l-3.8,13.1-10-1.6-10.71-36.08Z" transform="translate(184.88 -189.23)" style="fill:#d86600"/><path d="M-50.57,292.33l.29,10.51-13.63-.19.09,3.89,7-.39,0,6.43h-6.33l.15,4.48,13.15-.78.14,12.61-25,.73-2.1-37.25Z" transform="translate(184.88 -189.23)" style="fill:#d86600"/><path d="M-33.92,328.6l-11.54-1.46-1.75-34.38a41,41,0,0,1,8.27-.39c1.63.07,3.21.19,4.75.37s3.09.41,4.65.71a38.69,38.69,0,0,1,8.18,2.63c2.43,1.2,4,2.59,4.63,4.18a6.89,6.89,0,0,1-.73,6.53A19.6,19.6,0,0,1-23,312.24l13.64,8.57-11.74,8.81-11-14.36-2.44-.05Zm-1.22-21.23a11.06,11.06,0,0,0,5-1.85A4.76,4.76,0,0,0-28,302.6a2.75,2.75,0,0,0-1.46-2.73c-1.11-.81-3-1.26-5.75-1.36Z" transform="translate(184.88 -189.23)" style="fill:#d86600"/><path d="M19.93,292.33l.29,10.51-13.63-.19.09,3.89,7-.39,0,6.43H7.37l.14,4.48,13.15-.78.14,12.61-25,.73-2.1-37.25Z" transform="translate(184.88 -189.23)" style="fill:#d86600"/><path d="M49.63,293.84,61,293.15v12.57l8.33-.15V293.06l13-.73-1.7,35L69.3,328.6V315.31L61,315.5v13.15l-9.83,1Z" transform="translate(184.88 -189.23)" style="fill:#d86600"/><path d="M85,292.33l14,.92-.68,36L86,329.62Z" transform="translate(184.88 -189.23)" style="fill:#d86600"/><path d="M100.8,294.37q7.2-2.47,17.19-1.7a26.07,26.07,0,0,1,17.33,8.27,11.81,11.81,0,0,1,3.12,6.14,16.79,16.79,0,0,1,.22,3.48,13.91,13.91,0,0,1-.61,3.53,20.29,20.29,0,0,1-3.7,6.72,19,19,0,0,1-6.67,5,43.29,43.29,0,0,1-12.32,3.4,36.45,36.45,0,0,1-12.08,0Zm15.78,20a7.12,7.12,0,0,0,3.06-.53,11.17,11.17,0,0,0,3.07-1.85,6.4,6.4,0,0,0,1.85-2.73,3.21,3.21,0,0,0-.53-3.11c-.72-1-2.1-1.59-4.14-1.86a18,18,0,0,0-4.58-.14Z" transform="translate(184.88 -189.23)" style="fill:#d86600"/><path d="M142.09,294.37q7.2-2.47,17.19-1.7a26.07,26.07,0,0,1,17.33,8.27,11.89,11.89,0,0,1,3.12,6.14,17.51,17.51,0,0,1,.22,3.48,14.36,14.36,0,0,1-.61,3.53,20.29,20.29,0,0,1-3.7,6.72,19,19,0,0,1-6.67,5,43.29,43.29,0,0,1-12.32,3.4,36.45,36.45,0,0,1-12.08,0Zm15.77,20a7.14,7.14,0,0,0,3.07-.53A11.17,11.17,0,0,0,164,312a6.4,6.4,0,0,0,1.85-2.73,3.19,3.19,0,0,0-.54-3.11c-.71-1-2.09-1.59-4.13-1.86a18,18,0,0,0-4.58-.14Z" transform="translate(184.88 -189.23)" style="fill:#d86600"/><path d="M209.62,292.33l.29,10.51-13.63-.19.1,3.89,7-.39,0,6.43h-6.33l.15,4.48,13.14-.78.15,12.61-25,.73-2.09-37.25Z" transform="translate(184.88 -189.23)" style="fill:#d86600"/><path d="M216.05,292.33l11.68,1,9.6,17-1.66-16.21h11.15l.73,32.13-13,3.36L225,310.39l-.83,17.72L213,325.48,216.05,293Z" transform="translate(184.88 -189.23)" style="fill:#d86600"/><path d="M-83,350.71l1.56,28,12.42-1.7.29,9.35L-93,388.05l-3.94-36.91Z" transform="translate(184.88 -189.23)" style="fill:#d86600"/><path d="M-39.74,350.75l11.39,33.11-12.07,4.19-2.39-7.3h-9.35l-2.19,7.16-11.88-5.56,12.13-30.67Zm-4,22.35-3.56-8.61L-50.94,373Z" transform="translate(184.88 -189.23)" style="fill:#d86600"/><path d="M-21.92,373.4A33.49,33.49,0,0,0-17,375.05a19.82,19.82,0,0,0,4.33.73c1.2.07,1.92-.1,2.14-.49s-.26-1.05-1.65-2-3-2.12-4.38-3.24-2.84-2.31-4.24-3.58a9.21,9.21,0,0,1-3.07-9q1-5.3,5.12-6.23a18.06,18.06,0,0,1,9,.34,38.62,38.62,0,0,1,9.26,3.9,29.26,29.26,0,0,1,6.13,4.38L1,367a6.46,6.46,0,0,0-1.41-1.05c-.58-.34-1.3-.72-2.14-1.14A26.19,26.19,0,0,0-7,363.12c-1.27-.29-2-.22-2.24.2s.81,1.49,3,3.31a79.34,79.34,0,0,0,7.06,5.16q2.48,1.56,3.26,6.08a6.34,6.34,0,0,1-2.48,6.58,17.84,17.84,0,0,1-8,3.21,31.28,31.28,0,0,1-10.13,0,21.22,21.22,0,0,1-8.81-3.16Z" transform="translate(184.88 -189.23)" style="fill:#d86600"/><path d="M8.46,352.65,42,350.75l.58,16.85-12.8-.68,3.84,21.13L17.18,386.3l2.82-19-11.83.34Z" transform="translate(184.88 -189.23)" style="fill:#d86600"/><path d="M71.81,361.42l8.32-6.33L87,364.14l5.4-13.39,11.4,1.9-18.9,35.4L76.48,382l6.87-11.14Z" transform="translate(184.88 -189.23)" style="fill:#d86600"/><path d="M132.72,350.75l.29,10.52-13.63-.19.09,3.89,7-.39,0,6.43h-6.33l.15,4.48,13.15-.78.14,12.61-25,.73-2.1-37.25Z" transform="translate(184.88 -189.23)" style="fill:#d86600"/><path d="M162.56,350.75,174,383.86l-12.08,4.19-2.38-7.3h-9.35L148,387.91l-11.88-5.56,12.12-30.67Zm-4,22.35L155,364.49,151.36,373Z" transform="translate(184.88 -189.23)" style="fill:#d86600"/><path d="M190.27,387l-11.54-1.46L177,351.19a41.1,41.1,0,0,1,8.28-.39c1.63.07,3.21.19,4.75.37s3.09.41,4.65.7a39.28,39.28,0,0,1,8.18,2.63q3.64,1.8,4.63,4.19a6.86,6.86,0,0,1-.74,6.53,19.43,19.43,0,0,1-5.5,5.45l13.64,8.57-11.74,8.81-11-14.36-2.44-.05Zm-1.22-21.23a11.06,11.06,0,0,0,5-1.85,4.76,4.76,0,0,0,2.14-2.92,2.75,2.75,0,0,0-1.46-2.73c-1.11-.81-3-1.26-5.75-1.36Z" transform="translate(184.88 -189.23)" style="fill:#d86600"/></svg>