<svg id="Слой_1" data-name="Слой 1" xmlns="http://www.w3.org/2000/svg" viewBox="0 0 495.87 104.54"><title>балалайка_кор</title><rect x="10.31" y="1.23" width="485.56" height="103.32" rx="12" ry="12" style="fill:#3a301f"/><rect width="485.56" height="103.32" rx="12" ry="12" style="fill:#fff"/><path d="M-338.17,142q2.64-.59,5.29-1t5.42-.65c3.71-.3,8.09.6,13.15,2.67q5.16,2.19,5.6,6.58t-3.7,6.76c4.41.52,7.6,1.84,9.54,4a9,9,0,0,1,2.54,6.81,10.45,10.45,0,0,1-3.46,6.68,14,14,0,0,1-8.72,3.55c-2.11.19-4.1.3-6,.32s-3.68-.06-5.4-.22-3.47-.39-5.23-.68-3.58-.67-5.43-1.12Zm13.59,11.44,1.95-.19a10.63,10.63,0,0,0,1.75-.34c1.1-.3,1.7-.81,1.8-1.56.13-1.4-.71-2.24-2.53-2.53-.91-.17-1.66-.27-2.24-.32a5,5,0,0,0-1.32,0Zm2.09,15.1a25.08,25.08,0,0,1,4.19-.3c2.08-.09,3.07-1,3-2.72q-.15-3-3.51-3.22c-1.1-.09-2-.15-2.72-.17a8.64,8.64,0,0,0-1.61.08Z" transform="translate(408.93 -107.5)" style="fill:#d86600"/><path d="M-270.49,140.34l11.4,33.1-12.08,4.19-2.39-7.3h-9.34l-2.2,7.16L-297,171.93l12.13-30.67Zm-4,22.34-3.56-8.61-3.65,8.47Z" transform="translate(408.93 -107.5)" style="fill:#d86600"/><path d="M-242.1,140.29l1.56,28,12.41-1.7.29,9.35-24.29,1.65-3.95-36.91Z" transform="translate(408.93 -107.5)" style="fill:#d86600"/><path d="M-198.87,140.34l11.4,33.1-12.08,4.19-2.38-7.3h-9.35l-2.19,7.16-11.88-5.56,12.12-30.67Zm-4,22.34-3.55-8.61-3.65,8.47Z" transform="translate(408.93 -107.5)" style="fill:#d86600"/><path d="M-170.48,140.29l1.56,28,12.41-1.7.3,9.35-24.3,1.65-3.94-36.91Z" transform="translate(408.93 -107.5)" style="fill:#d86600"/><path d="M-127.24,140.34l11.39,33.1-12.07,4.19-2.39-7.3h-9.35l-2.19,7.16-11.88-5.56,12.12-30.67Zm-4,22.34-3.55-8.61-3.65,8.47Z" transform="translate(408.93 -107.5)" style="fill:#d86600"/><path d="M-112.83,140.34l14,.92-.68,36-12.37.39Z" transform="translate(408.93 -107.5)" style="fill:#d86600"/><path d="M-69.74,141.21l8.18,7.89-9.93,10.57,10,10.56L-72,177.49l-11-12.61.14,11.88-12.27.87-1.85-36.76,14.12-.53.1,18.16Z" transform="translate(408.93 -107.5)" style="fill:#d86600"/><path d="M-32.1,140.34l11.39,33.1-12.08,4.19-2.38-7.3h-9.35l-2.19,7.16-11.88-5.56,12.12-30.67Zm-4,22.34-3.55-8.61-3.65,8.47Z" transform="translate(408.93 -107.5)" style="fill:#d86600"/></svg>