<svg id="Слой_1" data-name="Слой 1" xmlns="http://www.w3.org/2000/svg" viewBox="0 0 495.87 168.04"><title>медведь_кор</title><rect x="10.31" y="1.98" width="485.56" height="166.07" rx="12" ry="12" style="fill:#3a301f"/><rect width="485.56" height="166.07" rx="12" ry="12" style="fill:#fff"/><path d="M-370.58,117.51l11.4,33.11-12.08,4.18-2.38-7.3H-383l-2.19,7.16-11.88-5.55,12.12-30.68Zm-4,22.34-3.55-8.61-3.66,8.47Z" transform="translate(408.93 -75.98)" style="fill:#d86600"/><path d="M-353.1,117.51l11.69,1,9.59,17-1.66-16.21h11.15l.74,32.13-13,3.36-9.59-19.23-.82,17.72-11.16-2.62,3.07-32.53Z" transform="translate(408.93 -75.98)" style="fill:#d86600"/><path d="M-275.68,121.55c-.16.45-.38,1.06-.63,1.82s-.57,1.68-.93,2.75a30.21,30.21,0,0,0-1.31,6.58,11.88,11.88,0,0,0,.77,5.94q1.13,2.58,4.92,2.48a4.33,4.33,0,0,0,3.9-1.7,8.58,8.58,0,0,0,1.36-4.24,21.17,21.17,0,0,0-.19-5.31l-.69-5,10.38-2c.39,1.24.8,2.61,1.24,4.12s.88,3.19,1.34,5a25,25,0,0,1,.63,10.56,14.11,14.11,0,0,1-5,8.72q-4.18,3.6-14.17,3.5-9.59,0-13.53-4.53a18.44,18.44,0,0,1-4.68-10.56,36,36,0,0,1-.14-6.14,35.44,35.44,0,0,1,1-6.23,94.79,94.79,0,0,1,2.78-9.83Z" transform="translate(408.93 -75.98)" style="fill:#d86600"/><path d="M-248,117.51l11.69,1,9.59,17-1.66-16.21h11.15l.74,32.13-13,3.36-9.59-19.23-.82,17.72L-251,150.67l3.06-32.53Z" transform="translate(408.93 -75.98)" style="fill:#d86600"/><path d="M-187.41,117.51l.29,10.51-13.63-.19.1,3.89,7-.38.05,6.42H-200l.15,4.48,13.14-.78.15,12.61-25,.73-2.09-37.24Z" transform="translate(408.93 -75.98)" style="fill:#d86600"/><path d="M-172.41,118.14l6.82,10.42,8.76-11,10.66,5.74-13.09,13.59,10,11.49L-158,154.8l-7.79-11.44-7.06,9.2-11.2-5.79,11.44-12.12-9.15-13Z" transform="translate(408.93 -75.98)" style="fill:#d86600"/><path d="M-130.54,143.07l.49,11.73-10.62-1.26-2.48-35.94q1.36-.09,3.21-.09c1.24,0,2.67,0,4.29.14a46.21,46.21,0,0,1,9.54,1.41,25.94,25.94,0,0,1,8.23,3.51,7.32,7.32,0,0,1,3.51,6.33,11.14,11.14,0,0,1-5.16,9.69,25.23,25.23,0,0,1-11,4.53Zm-1.36-6.48a11.14,11.14,0,0,0,4.82-2.48,5.64,5.64,0,0,0,2-3.46,3.27,3.27,0,0,0-1.56-3q-1.86-1.3-5.89-1.16Z" transform="translate(408.93 -75.98)" style="fill:#d86600"/><path d="M-85.55,117.51l.29,10.51-13.63-.19.1,3.89,7-.38,0,6.42h-6.33l.15,4.48,13.14-.78.15,12.61-25,.73-2.09-37.24Z" transform="translate(408.93 -75.98)" style="fill:#d86600"/><path d="M-51.51,127.44q-9.5-1.6-13.78,2.09t-3.8,7.79c.32,2.76,2.16,4.87,5.5,6.33s8.08.65,14.22-2.43l5.06,10.22a24.05,24.05,0,0,1-10.86,3.27,35.55,35.55,0,0,1-12.32-1.17,26.36,26.36,0,0,1-10.22-5.46,12.87,12.87,0,0,1-4.48-9.59A16.33,16.33,0,0,1-79,127.68a24,24,0,0,1,8.56-7.25,27,27,0,0,1,11.11-2.87,20,20,0,0,1,10.61,2.19Z" transform="translate(408.93 -75.98)" style="fill:#d86600"/><path d="M-41,119.41l33.55-1.9.58,16.84-12.8-.68,3.84,21.13-16.45-1.75,2.82-19-11.83.34Z" transform="translate(408.93 -75.98)" style="fill:#d86600"/><path d="M22.25,117.51,22.54,128l-13.63-.19.1,3.89,7-.38,0,6.42H9.69l.14,4.48L23,141.46l.15,12.61-25,.73L-4,117.56Z" transform="translate(408.93 -75.98)" style="fill:#d86600"/><path d="M25.61,119.55q7.2-2.47,17.19-1.7a26.07,26.07,0,0,1,17.33,8.27,11.89,11.89,0,0,1,3.12,6.14,17.51,17.51,0,0,1,.22,3.48,14.36,14.36,0,0,1-.61,3.53,20.29,20.29,0,0,1-3.7,6.72,19,19,0,0,1-6.67,5,43.29,43.29,0,0,1-12.32,3.4,36.45,36.45,0,0,1-12.08,0Zm15.77,20a7.14,7.14,0,0,0,3.07-.53,11.17,11.17,0,0,0,3.07-1.85,6.4,6.4,0,0,0,1.85-2.73,3.19,3.19,0,0,0-.54-3.11c-.71-1-2.09-1.59-4.13-1.86a18,18,0,0,0-4.58-.14Z" transform="translate(408.93 -75.98)" style="fill:#d86600"/><path d="M-227.58,187.33a12.21,12.21,0,0,0-5.11-1.51,12.13,12.13,0,0,0-5.31.87,10.17,10.17,0,0,0-4,3.36,9.06,9.06,0,0,0-1.31,5.85,8.14,8.14,0,0,0,2,5.06A8.11,8.11,0,0,0-237,203.4a6.64,6.64,0,0,0,4.62-.78,7.87,7.87,0,0,0,3.36-4.73l-4.53.1.78-5.5,11.54-.1a12.18,12.18,0,0,1,.54,4.58,20.31,20.31,0,0,1-.63,4.57,15.79,15.79,0,0,1-6.09,8.53,17.87,17.87,0,0,1-9.35,3.16,15.57,15.57,0,0,1-4.89-.58,18.41,18.41,0,0,1-4.75-2.15q-4.58-2.87-6.77-9.44a17.2,17.2,0,0,1,.05-11.88,21.13,21.13,0,0,1,2.73-5.14,20.28,20.28,0,0,1,3.89-4,19.37,19.37,0,0,1,10.33-4,15.35,15.35,0,0,1,11,3.27Z" transform="translate(408.93 -75.98)" style="fill:#d86600"/><path d="M-201,180c-.16.45-.37,1.06-.63,1.82l-.93,2.75a30.1,30.1,0,0,0-1.31,6.58,11.8,11.8,0,0,0,.78,5.94c.74,1.72,2.38,2.54,4.91,2.48a4.33,4.33,0,0,0,3.9-1.7,8.58,8.58,0,0,0,1.36-4.24,21.17,21.17,0,0,0-.19-5.31l-.68-5,10.37-2c.39,1.23.8,2.61,1.24,4.11s.88,3.19,1.34,5a25,25,0,0,1,.63,10.57,14.14,14.14,0,0,1-5,8.72q-4.2,3.6-14.17,3.5-9.6,0-13.54-4.53a18.37,18.37,0,0,1-4.67-10.56,35,35,0,0,1-.15-6.14,35.44,35.44,0,0,1,1-6.23,98.49,98.49,0,0,1,2.78-9.84Z" transform="translate(408.93 -75.98)" style="fill:#d86600"/><path d="M-150.16,175.93l.29,10.52-13.63-.19.1,3.89,7-.39.05,6.43h-6.33l.14,4.48,13.15-.78.15,12.61-25,.73L-176.4,176Z" transform="translate(408.93 -75.98)" style="fill:#d86600"/><path d="M-143.39,198.58a33.08,33.08,0,0,0,4.87,1.65,20.34,20.34,0,0,0,4.33.73c1.2.07,1.91-.1,2.14-.49s-.26-1.05-1.65-2-3-2.12-4.38-3.24-2.85-2.31-4.24-3.58a9.21,9.21,0,0,1-3.07-9c.68-3.53,2.39-5.61,5.11-6.23a18.09,18.09,0,0,1,9,.34,38.38,38.38,0,0,1,9.25,3.9,29.11,29.11,0,0,1,6.14,4.38l-4.58,7.11a7,7,0,0,0-1.41-1.05c-.58-.34-1.3-.72-2.14-1.14a26.19,26.19,0,0,0-4.43-1.66c-1.27-.29-2-.22-2.24.2s.81,1.49,3,3.31a77.89,77.89,0,0,0,7.06,5.16q2.48,1.56,3.26,6.08a6.34,6.34,0,0,1-2.49,6.58,17.75,17.75,0,0,1-8,3.21,31.28,31.28,0,0,1-10.13,0,21.22,21.22,0,0,1-8.81-3.16Z" transform="translate(408.93 -75.98)" style="fill:#d86600"/><path d="M-113,177.83l33.55-1.9.58,16.85-12.8-.68,3.84,21.13-16.45-1.75,2.82-19-11.83.34Z" transform="translate(408.93 -75.98)" style="fill:#d86600"/></svg>