<svg id="Слой_1" data-name="Слой 1" xmlns="http://www.w3.org/2000/svg" viewBox="0 0 541.08 148.31"><title>кровать_кор</title><rect x="11.25" y="1.74" width="529.83" height="146.57" rx="12" ry="12" style="fill:#3a301f"/><rect width="529.83" height="146.57" rx="12" ry="12" style="fill:#fff"/><path d="M-278.23,141.63l8.18,7.89L-280,160.09l10,10.56-10.52,7.26-11.05-12.61.14,11.88-12.27.87-1.85-36.76,14.12-.53.1,18.16Z" transform="translate(431.94 -85.24)" style="fill:#d86600"/><path d="M-267.08,140.76l14,.92-.68,36-12.37.39Z" transform="translate(431.94 -85.24)" style="fill:#d86600"/><path d="M-251.31,142.8a42.73,42.73,0,0,1,17.19-1.7,26,26,0,0,1,17.33,8.28,11.75,11.75,0,0,1,3.12,6.13,16.79,16.79,0,0,1,.22,3.48,13.91,13.91,0,0,1-.61,3.53,20.29,20.29,0,0,1-3.7,6.72,18.89,18.89,0,0,1-6.67,5,43.52,43.52,0,0,1-12.32,3.41,36.62,36.62,0,0,1-12.07-.05Zm15.78,20a7.19,7.19,0,0,0,3.07-.53,11.26,11.26,0,0,0,3.06-1.85,6.31,6.31,0,0,0,1.85-2.73,3.21,3.21,0,0,0-.53-3.11c-.72-1-2.1-1.59-4.14-1.85a17.65,17.65,0,0,0-4.58-.15Z" transform="translate(431.94 -85.24)" style="fill:#d86600"/><path d="M-206.61,163.4a32.33,32.33,0,0,0,4.87,1.65,19.82,19.82,0,0,0,4.33.73c1.2.07,1.92-.09,2.14-.48s-.26-1.06-1.65-2-3-2.12-4.38-3.24-2.84-2.31-4.24-3.58a9.2,9.2,0,0,1-3.07-9c.69-3.54,2.39-5.62,5.12-6.24a18.18,18.18,0,0,1,9,.34,38.62,38.62,0,0,1,9.26,3.9,29.26,29.26,0,0,1,6.13,4.38l-4.58,7.11a6.46,6.46,0,0,0-1.41-1.05c-.58-.34-1.3-.72-2.14-1.14a26.19,26.19,0,0,0-4.43-1.66c-1.27-.29-2-.22-2.24.2s.81,1.49,3,3.31a79.34,79.34,0,0,0,7.06,5.16q2.48,1.56,3.26,6.09a6.32,6.32,0,0,1-2.48,6.57,17.84,17.84,0,0,1-8,3.21,30.73,30.73,0,0,1-10.13,0A21.22,21.22,0,0,1-210,174.5Z" transform="translate(431.94 -85.24)" style="fill:#d86600"/><path d="M-163,126.64l-10.81,15.63-3.07-1.51,2.82-15.39Z" transform="translate(431.94 -85.24)" style="fill:#d86600"/><path d="M-134.16,142.41q2.63-.58,5.28-1t5.43-.65q5.55-.44,13.15,2.67,5.16,2.2,5.6,6.58c.32,2.89-.91,5.14-3.7,6.77q6.62.78,9.54,3.94a9,9,0,0,1,2.53,6.82,10.41,10.41,0,0,1-3.46,6.67,14,14,0,0,1-8.71,3.55c-2.11.2-4.11.3-6,.32a52.45,52.45,0,0,1-5.41-.22c-1.72-.16-3.46-.39-5.23-.68s-3.58-.67-5.43-1.12Zm13.58,11.44,2-.19a9.52,9.52,0,0,0,1.75-.34q1.66-.44,1.8-1.56c.13-1.39-.71-2.24-2.53-2.53-.91-.16-1.65-.27-2.24-.32a4.42,4.42,0,0,0-1.31,0Zm2.1,15.1a25.27,25.27,0,0,1,4.18-.29q3.12-.15,3-2.73-.14-3-3.5-3.21c-1.11-.1-2-.16-2.73-.17a8,8,0,0,0-1.61.07Z" transform="translate(431.94 -85.24)" style="fill:#d86600"/><path d="M-66.73,140.76l.3,10.51-13.64-.19L-80,155l7-.38L-73,161h-6.33l.15,4.48,13.14-.78.15,12.61-25,.73L-93,140.81Z" transform="translate(431.94 -85.24)" style="fill:#d86600"/><path d="M-63.37,142.8a42.73,42.73,0,0,1,17.19-1.7,26,26,0,0,1,17.33,8.28,11.75,11.75,0,0,1,3.12,6.13,16.79,16.79,0,0,1,.22,3.48,13.91,13.91,0,0,1-.61,3.53,20.29,20.29,0,0,1-3.7,6.72,18.89,18.89,0,0,1-6.67,5,43.52,43.52,0,0,1-12.32,3.41,36.62,36.62,0,0,1-12.07-.05Zm15.78,20a7.19,7.19,0,0,0,3.07-.53,11.26,11.26,0,0,0,3.06-1.85,6.31,6.31,0,0,0,1.85-2.73,3.21,3.21,0,0,0-.53-3.11c-.72-1-2.1-1.59-4.14-1.85a17.65,17.65,0,0,0-4.58-.15Z" transform="translate(431.94 -85.24)" style="fill:#d86600"/></svg>