<svg id="Слой_1" data-name="Слой 1" xmlns="http://www.w3.org/2000/svg" viewBox="0 0 541.08 148.31"><title>пол1_кор</title><rect x="11.25" y="1.74" width="529.83" height="146.57" rx="12" ry="12" style="fill:#3a301f"/><rect width="529.83" height="146.57" rx="12" ry="12" style="fill:#fff"/><path d="M-301.22,112l.29,10.52-13.63-.2.1,3.9,7-.39.05,6.43h-6.33l.15,4.47,13.14-.77.15,12.61-25,.73L-327.46,112Z" transform="translate(431.82 -85.8)" style="fill:#d86600"/><path d="M-294.79,112l11.68,1,9.6,17-1.66-16.22H-264l.73,32.14-13,3.36-9.59-19.24-.83,17.73-11.15-2.63,3.07-32.53Z" transform="translate(431.82 -85.8)" style="fill:#d86600"/><path d="M-233.88,123.38a12.56,12.56,0,0,0-5.11-1.51,12.23,12.23,0,0,0-5.31.88,10.17,10.17,0,0,0-4,3.36,9,9,0,0,0-1.32,5.84,8.21,8.21,0,0,0,2,5.07,8,8,0,0,0,4.28,2.43,6.55,6.55,0,0,0,4.63-.78,7.89,7.89,0,0,0,3.36-4.72l-4.53.1.78-5.5,11.54-.1A12.34,12.34,0,0,1-227,133a19.24,19.24,0,0,1-.63,4.58,15.7,15.7,0,0,1-6.08,8.52,17.83,17.83,0,0,1-9.35,3.17,15.64,15.64,0,0,1-4.9-.59,18.31,18.31,0,0,1-4.74-2.14q-4.59-2.87-6.77-9.45a17.14,17.14,0,0,1,.05-11.88,21.22,21.22,0,0,1,2.72-5.13,20.62,20.62,0,0,1,3.9-4,19.37,19.37,0,0,1,10.32-4,15.37,15.37,0,0,1,11,3.26Z" transform="translate(431.82 -85.8)" style="fill:#d86600"/><path d="M-224.09,112l14,.93-.68,36-12.37.39Z" transform="translate(431.82 -85.8)" style="fill:#d86600"/><path d="M-205.25,112l11.68,1,9.6,17-1.66-16.22h11.15l.73,32.14-13,3.36-9.59-19.24-.83,17.73-11.15-2.63,3.07-32.53Z" transform="translate(431.82 -85.8)" style="fill:#d86600"/><path d="M-144.68,112l.29,10.52-13.63-.2.09,3.9,7-.39.05,6.43h-6.33l.14,4.47,13.15-.77.14,12.61-25,.73-2.1-37.25Z" transform="translate(431.82 -85.8)" style="fill:#d86600"/><path d="M-115.08,112l.29,10.52-13.63-.2.1,3.9,7-.39,0,6.43h-6.33l.14,4.47,13.15-.77.15,12.61-25,.73L-141.32,112Z" transform="translate(431.82 -85.8)" style="fill:#d86600"/><path d="M-98.43,148.26-110,146.8l-1.75-34.37a41.1,41.1,0,0,1,8.28-.39c1.62.06,3.2.19,4.74.36s3.1.42,4.65.71a39.08,39.08,0,0,1,8.18,2.63q3.66,1.8,4.63,4.19a6.84,6.84,0,0,1-.73,6.52,19.56,19.56,0,0,1-5.5,5.45l13.63,8.57-11.73,8.82-11-14.37-2.43,0ZM-99.64,127a11.14,11.14,0,0,0,5-1.85,4.73,4.73,0,0,0,2.14-2.93A2.72,2.72,0,0,0-94,119.54c-1.1-.81-3-1.27-5.74-1.37Z" transform="translate(431.82 -85.8)" style="fill:#d86600"/><path d="M-44.58,112l.3,10.52-13.64-.2.1,3.9,7-.39,0,6.43h-6.33l.15,4.47,13.14-.77.15,12.61-25,.73L-70.82,112Z" transform="translate(431.82 -85.8)" style="fill:#d86600"/><path d="M-41.22,114Q-34,111.55-24,112.33A26.08,26.08,0,0,1-6.7,120.61a11.78,11.78,0,0,1,3.12,6.13,16.79,16.79,0,0,1,.22,3.48A14,14,0,0,1-4,133.76a20.34,20.34,0,0,1-3.7,6.71,18.78,18.78,0,0,1-6.67,5,43.52,43.52,0,0,1-12.32,3.41,36.35,36.35,0,0,1-12.07,0Zm15.78,20a7.21,7.21,0,0,0,3.07-.54,11,11,0,0,0,3.06-1.85,6.28,6.28,0,0,0,1.85-2.72,3.22,3.22,0,0,0-.53-3.12c-.72-1-2.1-1.59-4.14-1.85a17.65,17.65,0,0,0-4.58-.15Z" transform="translate(431.82 -85.8)" style="fill:#d86600"/><path d="M-254.57,170.42l25.41,1.17,0,10.42-14.17-1,.49,4.43,6.81-.05.78,8.91-6.72-.38,1.12,13.78-11.53-1Z" transform="translate(431.82 -85.8)" style="fill:#d86600"/><path d="M-212.75,170.37l1.56,28,12.41-1.71.3,9.35-24.3,1.66-3.94-36.91Z" transform="translate(431.82 -85.8)" style="fill:#d86600"/><path d="M-158.27,190.72q-.58,8.57-6.62,12.81a22,22,0,0,1-13,4.19,20.48,20.48,0,0,1-12.61-4.29q-5.66-4.19-5.5-12.71a18.21,18.21,0,0,1,2.09-8.32,23.88,23.88,0,0,1,5.26-6.48,22.64,22.64,0,0,1,7-4.14,19.18,19.18,0,0,1,7.55-1.36,17.92,17.92,0,0,1,4.58,1,17,17,0,0,1,5.5,3.21,18.29,18.29,0,0,1,4.38,6.19A21.84,21.84,0,0,1-158.27,190.72Zm-13.68-4.33c.2-.1.31-.18.34-.25a1,1,0,0,0,.29-.29,3.58,3.58,0,0,0,1.22-2.67,5.08,5.08,0,0,0-.83-2.59l-.24-.21-.29-.27-.22-.22a1.44,1.44,0,0,0-.27-.22,6.57,6.57,0,0,0-2.53-1,4.49,4.49,0,0,0-2.92.43,5.11,5.11,0,0,0-1.07.59,8.89,8.89,0,0,0-.83.58,4,4,0,0,0-1.27,2.88,5,5,0,0,0,1,2.72c.06.07.12.13.17.2a1,1,0,0,0,.17.19,1,1,0,0,1,.19.12l.2.17a5.22,5.22,0,0,0,3.16,1.17,5.25,5.25,0,0,0,3.75-1.41Z" transform="translate(431.82 -85.8)" style="fill:#d86600"/><path d="M-117.12,190.72q-.59,8.57-6.63,12.81a21.94,21.94,0,0,1-13,4.19,20.48,20.48,0,0,1-12.61-4.29q-5.64-4.19-5.5-12.71a18.34,18.34,0,0,1,2.09-8.32,23.88,23.88,0,0,1,5.26-6.48,22.76,22.76,0,0,1,7-4.14,19.21,19.21,0,0,1,7.55-1.36,17.92,17.92,0,0,1,4.58,1,16.9,16.9,0,0,1,5.5,3.21,18.29,18.29,0,0,1,4.38,6.19A22,22,0,0,1-117.12,190.72Zm-13.69-4.33c.2-.1.31-.18.34-.25a1.19,1.19,0,0,0,.3-.29,3.61,3.61,0,0,0,1.21-2.67,5.07,5.07,0,0,0-.82-2.59l-.25-.21-.29-.27c-.06-.07-.14-.14-.22-.22a1.44,1.44,0,0,0-.27-.22,6.51,6.51,0,0,0-2.53-1,4.5,4.5,0,0,0-2.92.43,5.39,5.39,0,0,0-1.07.59c-.49.32-.76.52-.83.58a4,4,0,0,0-1.26,2.88,4.87,4.87,0,0,0,1,2.72c.06.07.12.13.17.2a1.45,1.45,0,0,0,.17.19,1,1,0,0,1,.19.12l.2.17a5.25,5.25,0,0,0,3.16,1.17,5.22,5.22,0,0,0,3.75-1.41Z" transform="translate(431.82 -85.8)" style="fill:#d86600"/><path d="M-100.42,206.69-112,205.23l-1.76-34.37a41.1,41.1,0,0,1,8.28-.39c1.62.06,3.21.18,4.75.36s3.09.42,4.65.71a38.69,38.69,0,0,1,8.18,2.63q3.64,1.8,4.62,4.18a6.83,6.83,0,0,1-.73,6.53,19.56,19.56,0,0,1-5.5,5.45l13.63,8.57-11.73,8.82-11-14.37-2.44,0Zm-1.22-21.23a10.94,10.94,0,0,0,5-1.85,4.73,4.73,0,0,0,2.14-2.92A2.73,2.73,0,0,0-96,178c-1.11-.82-3-1.27-5.75-1.37Z" transform="translate(431.82 -85.8)" style="fill:#d86600"/></svg>