<svg id="Слой_1" data-name="Слой 1" xmlns="http://www.w3.org/2000/svg" viewBox="0 0 541.08 212.63"><title>лодка_кор</title><rect x="11.25" y="2.5" width="529.83" height="210.13" rx="12" ry="12" style="fill:#3a301f"/><rect width="529.83" height="210.13" rx="12" ry="12" style="fill:#fff"/><path d="M-347.07,110.48q2.64-.58,5.29-1c1.77-.28,3.57-.5,5.43-.66q5.55-.43,13.14,2.68,5.16,2.19,5.6,6.57c.32,2.89-.91,5.14-3.7,6.77,4.41.52,7.6,1.83,9.54,3.94a9,9,0,0,1,2.54,6.82,10.45,10.45,0,0,1-3.46,6.67,14,14,0,0,1-8.72,3.55c-2.11.2-4.1.3-6,.32a52.25,52.25,0,0,1-5.4-.22c-1.72-.16-3.47-.39-5.24-.68s-3.57-.67-5.42-1.12Zm13.59,11.45,2-.2a9.68,9.68,0,0,0,1.75-.34q1.65-.44,1.8-1.56c.13-1.39-.71-2.24-2.53-2.53-.91-.16-1.66-.27-2.24-.32a4.49,4.49,0,0,0-1.32,0Zm2.09,15.09a25.42,25.42,0,0,1,4.19-.29q3.12-.15,3-2.73-.15-3-3.51-3.21c-1.1-.1-2-.16-2.72-.17a8.83,8.83,0,0,0-1.61.07Z" transform="translate(432.17 -53.69)" style="fill:#d86600"/><path d="M-268.14,129.13q-.58,8.58-6.62,12.81a22,22,0,0,1-13,4.19,20.46,20.46,0,0,1-12.61-4.29q-5.65-4.18-5.51-12.71a18.34,18.34,0,0,1,2.1-8.32,23.7,23.7,0,0,1,5.26-6.48,22.53,22.53,0,0,1,7-4.14,19.18,19.18,0,0,1,7.55-1.36,17.86,17.86,0,0,1,4.57,1,16.8,16.8,0,0,1,5.5,3.21,18.18,18.18,0,0,1,4.39,6.19A22,22,0,0,1-268.14,129.13Zm-13.68-4.33a.91.91,0,0,0,.34-.24,1.15,1.15,0,0,0,.29-.3,3.62,3.62,0,0,0,1.22-2.67,5.08,5.08,0,0,0-.83-2.59l-.24-.21-.3-.27-.21-.22a2.61,2.61,0,0,0-.27-.22,6.57,6.57,0,0,0-2.53-1,4.52,4.52,0,0,0-2.93.43,5.39,5.39,0,0,0-1.07.59,9.61,9.61,0,0,0-.82.58,4,4,0,0,0-1.27,2.88,4.87,4.87,0,0,0,1,2.72,1.51,1.51,0,0,1,.17.2l.17.19a1.06,1.06,0,0,1,.2.12l.19.17a5.25,5.25,0,0,0,3.17,1.17,5.25,5.25,0,0,0,3.75-1.41Z" transform="translate(432.17 -53.69)" style="fill:#d86600"/><path d="M-238.25,108.83l11.4,33.11-12.08,4.19-2.38-7.31h-9.35l-2.19,7.16-11.88-5.55,12.12-30.68Zm-4,22.35-3.55-8.62-3.65,8.47Z" transform="translate(432.17 -53.69)" style="fill:#d86600"/><path d="M-223.54,110.73l33.55-1.9.58,16.85-12.8-.69,3.84,21.14-16.46-1.76,2.83-19-11.83.34Z" transform="translate(432.17 -53.69)" style="fill:#d86600"/><path d="M-160.2,108.83l25.42,1.17.05,10.42-14.17-1,.49,4.43,6.81-.05.78,8.91-6.72-.38,1.12,13.78-11.54-1Z" transform="translate(432.17 -53.69)" style="fill:#d86600"/><path d="M-118.37,108.78l1.56,28.05,12.41-1.71.29,9.35-24.29,1.66-3.95-36.91Z" transform="translate(432.17 -53.69)" style="fill:#d86600"/><path d="M-63.89,129.13q-.58,8.58-6.62,12.81a22,22,0,0,1-13,4.19,20.48,20.48,0,0,1-12.61-4.29q-5.66-4.18-5.5-12.71a18.21,18.21,0,0,1,2.09-8.32,23.88,23.88,0,0,1,5.26-6.48,22.53,22.53,0,0,1,7-4.14,19.18,19.18,0,0,1,7.55-1.36,17.86,17.86,0,0,1,4.57,1,16.94,16.94,0,0,1,5.51,3.21,18.29,18.29,0,0,1,4.38,6.19A22,22,0,0,1-63.89,129.13Zm-13.68-4.33a.91.91,0,0,0,.34-.24,1.15,1.15,0,0,0,.29-.3,3.62,3.62,0,0,0,1.22-2.67,5.08,5.08,0,0,0-.83-2.59l-.24-.21-.29-.27-.22-.22a1.44,1.44,0,0,0-.27-.22,6.57,6.57,0,0,0-2.53-1,4.49,4.49,0,0,0-2.92.43,5.22,5.22,0,0,0-1.08.59,9.61,9.61,0,0,0-.82.58,4,4,0,0,0-1.27,2.88,5,5,0,0,0,1,2.72,1,1,0,0,1,.17.2l.17.19a1.06,1.06,0,0,1,.2.12l.19.17a5.25,5.25,0,0,0,3.17,1.17,5.25,5.25,0,0,0,3.75-1.41Z" transform="translate(432.17 -53.69)" style="fill:#d86600"/><path d="M-22.75,129.13q-.59,8.58-6.62,12.81a22,22,0,0,1-13,4.19A20.48,20.48,0,0,1-55,141.84q-5.66-4.18-5.5-12.71a18.21,18.21,0,0,1,2.09-8.32,23.88,23.88,0,0,1,5.26-6.48,22.64,22.64,0,0,1,7-4.14,19.18,19.18,0,0,1,7.55-1.36,17.92,17.92,0,0,1,4.58,1,17,17,0,0,1,5.5,3.21,18.29,18.29,0,0,1,4.38,6.19A21.84,21.84,0,0,1-22.75,129.13Zm-13.68-4.33a.82.82,0,0,0,.34-.24,1.15,1.15,0,0,0,.29-.3,3.58,3.58,0,0,0,1.22-2.67,5.08,5.08,0,0,0-.83-2.59l-.24-.21-.29-.27-.22-.22a1.44,1.44,0,0,0-.27-.22,6.57,6.57,0,0,0-2.53-1,4.49,4.49,0,0,0-2.92.43,5.11,5.11,0,0,0-1.07.59,8.89,8.89,0,0,0-.83.58A4,4,0,0,0-45,121.59a5,5,0,0,0,1,2.72c.06.07.12.13.17.2a1.45,1.45,0,0,0,.17.19,1,1,0,0,1,.19.12l.2.17a5.22,5.22,0,0,0,3.16,1.17,5.25,5.25,0,0,0,3.75-1.41Z" transform="translate(432.17 -53.69)" style="fill:#d86600"/><path d="M-6,145.1l-11.54-1.46-1.75-34.37a41.1,41.1,0,0,1,8.28-.39c1.62.06,3.2.18,4.75.36s3.09.42,4.65.71a38.88,38.88,0,0,1,8.18,2.63c2.43,1.2,4,2.6,4.62,4.18a6.86,6.86,0,0,1-.73,6.53,19.56,19.56,0,0,1-5.5,5.45l13.63,8.57L6.81,146.13l-11-14.37-2.43,0Zm-1.21-21.23a10.9,10.9,0,0,0,5-1.85A4.69,4.69,0,0,0-.16,119.1a2.7,2.7,0,0,0-1.46-2.72c-1.1-.82-3-1.27-5.74-1.37Z" transform="translate(432.17 -53.69)" style="fill:#d86600"/><path d="M-296.62,167.26l11.39,33.11-12.08,4.18-2.38-7.3H-309l-2.19,7.16-11.88-5.55L-311,168.18Zm-4,22.34-3.55-8.61-3.65,8.47Z" transform="translate(432.17 -53.69)" style="fill:#d86600"/><path d="M-279.14,167.26l11.68,1,9.59,17-1.65-16.21h11.15l.73,32.13-13,3.36-9.59-19.23-.83,17.72-11.15-2.63,3.07-32.52Z" transform="translate(432.17 -53.69)" style="fill:#d86600"/><path d="M-244.82,169.3q7.22-2.48,17.19-1.7a26,26,0,0,1,17.33,8.27,11.81,11.81,0,0,1,3.12,6.14,16.79,16.79,0,0,1,.22,3.48,13.91,13.91,0,0,1-.61,3.53,20.29,20.29,0,0,1-3.7,6.72,18.89,18.89,0,0,1-6.67,5,43.2,43.2,0,0,1-12.32,3.4,36.38,36.38,0,0,1-12.07,0Zm15.78,20a7.12,7.12,0,0,0,3.06-.53,11.17,11.17,0,0,0,3.07-1.85,6.4,6.4,0,0,0,1.85-2.73,3.21,3.21,0,0,0-.53-3.11c-.72-1-2.1-1.59-4.14-1.86a18,18,0,0,0-4.58-.14Z" transform="translate(432.17 -53.69)" style="fill:#d86600"/><path d="M-173.78,189.9a32,32,0,0,0,4.87,1.65,19.82,19.82,0,0,0,4.33.73c1.2.07,1.92-.1,2.14-.48s-.26-1.06-1.65-2-3-2.12-4.38-3.24-2.84-2.31-4.24-3.58a9.21,9.21,0,0,1-3.07-9c.68-3.53,2.39-5.61,5.11-6.23a18.09,18.09,0,0,1,9,.34,38.38,38.38,0,0,1,9.25,3.9,29.11,29.11,0,0,1,6.14,4.38l-4.58,7.11a6.46,6.46,0,0,0-1.41-1.05c-.58-.34-1.3-.72-2.14-1.14a26.19,26.19,0,0,0-4.43-1.66c-1.27-.29-2-.22-2.24.2s.81,1.49,3,3.31a79.34,79.34,0,0,0,7.06,5.16q2.47,1.56,3.26,6.09a6.33,6.33,0,0,1-2.48,6.57,17.84,17.84,0,0,1-8,3.21,30.73,30.73,0,0,1-10.13,0,21.22,21.22,0,0,1-8.81-3.16Z" transform="translate(432.17 -53.69)" style="fill:#d86600"/><path d="M-117.45,167.26l.29,10.51-13.63-.19.1,3.89,7-.39,0,6.43H-130l.15,4.48,13.14-.78.15,12.61-25,.73-2.09-37.24Z" transform="translate(432.17 -53.69)" style="fill:#d86600"/><path d="M-87.6,167.26l11.39,33.11-12.07,4.18-2.39-7.3H-100l-2.19,7.16-11.88-5.55L-102,168.18Zm-4,22.34L-95.15,181l-3.65,8.47Z" transform="translate(432.17 -53.69)" style="fill:#d86600"/><path d="M-72.9,169.15l33.55-1.89.59,16.84-12.81-.68,3.85,21.13-16.46-1.75,2.82-19-11.83.34Z" transform="translate(432.17 -53.69)" style="fill:#d86600"/><path d="M-32.48,189.9a32.2,32.2,0,0,0,4.86,1.65,19.89,19.89,0,0,0,4.34.73c1.2.07,1.91-.1,2.14-.48s-.26-1.06-1.65-2-3-2.12-4.39-3.24S-30,184.25-31.41,183a9.21,9.21,0,0,1-3.07-9c.68-3.53,2.39-5.61,5.11-6.23a18.09,18.09,0,0,1,9,.34,38.55,38.55,0,0,1,9.25,3.9A29.39,29.39,0,0,1-5,176.36l-4.58,7.11A7,7,0,0,0-11,182.42c-.59-.34-1.3-.72-2.14-1.14a26.27,26.27,0,0,0-4.44-1.66c-1.26-.29-2-.22-2.24.2s.82,1.49,3,3.31a80.84,80.84,0,0,0,7.06,5.16q2.49,1.56,3.27,6.09A6.35,6.35,0,0,1-9,201a17.8,17.8,0,0,1-8,3.21,30.73,30.73,0,0,1-10.13,0A21.17,21.17,0,0,1-35.89,201Z" transform="translate(432.17 -53.69)" style="fill:#d86600"/></svg>