<svg id="Слой_1" data-name="Слой 1" xmlns="http://www.w3.org/2000/svg" viewBox="0 0 541.08 148.31"><title>пол2_кор</title><rect x="11.25" y="1.74" width="529.83" height="146.57" rx="12" ry="12" style="fill:#3a301f"/><rect width="529.83" height="146.57" rx="12" ry="12" style="fill:#fff"/><path d="M-354.72,145l2.68,20.2,5.6-15.77,12.17,1.41-13,30.34-14.41-1.22-7.84-36.08Z" transform="translate(431.73 -85.92)" style="fill:#d86600"/><path d="M-304.91,143.83l11.39,33.11-12.07,4.19-2.39-7.31h-9.35l-2.19,7.16-11.88-5.55,12.12-30.68Zm-4,22.35-3.56-8.62-3.65,8.47Z" transform="translate(431.73 -85.92)" style="fill:#d86600"/><path d="M-287.43,143.83l11.68,1,9.59,17-1.65-16.21h11.15l.73,32.13-13,3.37-9.59-19.24-.83,17.73L-290.5,177l3.07-32.53Z" transform="translate(431.73 -85.92)" style="fill:#d86600"/><path d="M-226.77,143.83l25.42,1.17,0,10.42-14.17-1,.49,4.43,6.81-.05.78,8.91-6.72-.38,1.12,13.78-11.54-1Z" transform="translate(431.73 -85.92)" style="fill:#d86600"/><path d="M-184.94,143.78l1.56,28.05,12.41-1.71.29,9.35L-195,181.13l-3.95-36.91Z" transform="translate(431.73 -85.92)" style="fill:#d86600"/><path d="M-130.46,164.13q-.58,8.58-6.62,12.81a22,22,0,0,1-13,4.19,20.48,20.48,0,0,1-12.61-4.29q-5.66-4.18-5.5-12.71a18.21,18.21,0,0,1,2.09-8.32,23.88,23.88,0,0,1,5.26-6.48,22.53,22.53,0,0,1,7-4.14,19.18,19.18,0,0,1,7.55-1.36,17.86,17.86,0,0,1,4.57,1,16.94,16.94,0,0,1,5.51,3.21,18.29,18.29,0,0,1,4.38,6.19A22,22,0,0,1-130.46,164.13Zm-13.68-4.33a.91.91,0,0,0,.34-.24,1.15,1.15,0,0,0,.29-.3,3.62,3.62,0,0,0,1.22-2.67,5.08,5.08,0,0,0-.83-2.59l-.24-.21-.29-.27-.22-.22a1.44,1.44,0,0,0-.27-.22,6.57,6.57,0,0,0-2.53-1,4.49,4.49,0,0,0-2.92.43,4.86,4.86,0,0,0-1.07.59,8.89,8.89,0,0,0-.83.58,4,4,0,0,0-1.27,2.88,5,5,0,0,0,1,2.72,1,1,0,0,1,.17.2,1.57,1.57,0,0,0,.18.19l.19.12.2.17a5.22,5.22,0,0,0,3.16,1.17,5.25,5.25,0,0,0,3.75-1.41Z" transform="translate(431.73 -85.92)" style="fill:#d86600"/><path d="M-89.32,164.13q-.59,8.58-6.62,12.81a22,22,0,0,1-13,4.19,20.48,20.48,0,0,1-12.61-4.29q-5.64-4.18-5.5-12.71a18.21,18.21,0,0,1,2.09-8.32,23.88,23.88,0,0,1,5.26-6.48,22.64,22.64,0,0,1,7-4.14,19.18,19.18,0,0,1,7.55-1.36,17.92,17.92,0,0,1,4.58,1,16.9,16.9,0,0,1,5.5,3.21,18.29,18.29,0,0,1,4.38,6.19A21.84,21.84,0,0,1-89.32,164.13ZM-103,159.8a.82.82,0,0,0,.34-.24,1.41,1.41,0,0,0,.3-.3,3.61,3.61,0,0,0,1.21-2.67A5.16,5.16,0,0,0-102,154l-.25-.21-.29-.27-.22-.22a1.44,1.44,0,0,0-.27-.22,6.51,6.51,0,0,0-2.53-1,4.49,4.49,0,0,0-2.92.43,5.11,5.11,0,0,0-1.07.59,8.89,8.89,0,0,0-.83.58,4,4,0,0,0-1.27,2.88,5,5,0,0,0,1,2.72c.06.07.12.13.17.2a1.45,1.45,0,0,0,.17.19,1,1,0,0,1,.19.12l.2.17a5.22,5.22,0,0,0,3.16,1.17,5.22,5.22,0,0,0,3.75-1.41Z" transform="translate(431.73 -85.92)" style="fill:#d86600"/><path d="M-72.62,180.1l-11.53-1.46-1.76-34.37a41.1,41.1,0,0,1,8.28-.39c1.62.06,3.21.18,4.75.36s3.09.42,4.65.71A38.88,38.88,0,0,1-60,147.58c2.43,1.2,4,2.6,4.62,4.18a6.83,6.83,0,0,1-.73,6.53,19.56,19.56,0,0,1-5.5,5.45L-48,172.31l-11.73,8.82-11-14.37-2.43,0Zm-1.21-21.23a10.9,10.9,0,0,0,5-1.85,4.71,4.71,0,0,0,2.15-2.92,2.73,2.73,0,0,0-1.46-2.72c-1.11-.82-3-1.27-5.75-1.37Z" transform="translate(431.73 -85.92)" style="fill:#d86600"/><path d="M-45,143.83l14,.92-.69,36-12.36.39Z" transform="translate(431.73 -85.92)" style="fill:#d86600"/><path d="M-26.17,143.83l11.69,1,9.59,17-1.65-16.21H4.61l.73,32.13-13,3.37-9.6-19.24-.82,17.73L-29.23,177l3.06-32.53Z" transform="translate(431.73 -85.92)" style="fill:#d86600"/><path d="M34.75,155.22a12.61,12.61,0,0,0-5.12-1.51,12.07,12.07,0,0,0-5.3.88,10.2,10.2,0,0,0-4,3.36A9.07,9.07,0,0,0,19,163.79a8.09,8.09,0,0,0,2,5.06,8,8,0,0,0,4.29,2.44,6.63,6.63,0,0,0,4.62-.78,7.84,7.84,0,0,0,3.36-4.72l-4.52.1.78-5.51,11.54-.09a12.34,12.34,0,0,1,.53,4.57,20.4,20.4,0,0,1-.63,4.58A15.8,15.8,0,0,1,34.89,178a17.88,17.88,0,0,1-9.35,3.17,15.62,15.62,0,0,1-4.89-.59,18.37,18.37,0,0,1-4.75-2.14q-4.58-2.88-6.77-9.45a17.2,17.2,0,0,1,0-11.88,21.67,21.67,0,0,1,2.73-5.14,20.51,20.51,0,0,1,3.89-4,19.36,19.36,0,0,1,10.33-4,15.39,15.39,0,0,1,11,3.26Z" transform="translate(431.73 -85.92)" style="fill:#d86600"/></svg>