<svg id="Слой_1" data-name="Слой 1" xmlns="http://www.w3.org/2000/svg" viewBox="0 0 541.08 148.31"><title>коробки2_кор</title><rect x="11.25" y="1.74" width="529.83" height="146.57" rx="12" ry="12" style="fill:#3a301f"/><rect width="529.83" height="146.57" rx="12" ry="12" style="fill:#fff"/><path d="M-308.58,168.59l.48,11.73-10.61-1.26-2.49-35.94c.91-.06,2-.09,3.22-.09s2.66.05,4.28.14a46.4,46.4,0,0,1,9.55,1.41,25.88,25.88,0,0,1,8.22,3.51,7.32,7.32,0,0,1,3.51,6.33,11.14,11.14,0,0,1-5.16,9.69,25.24,25.24,0,0,1-11,4.53Zm-1.37-6.48a11.09,11.09,0,0,0,4.82-2.48,5.6,5.6,0,0,0,2-3.46,3.25,3.25,0,0,0-1.56-3c-1.23-.87-3.2-1.26-5.89-1.16Z" transform="translate(431.21 -85.12)" style="fill:#d86600"/><path d="M-263.35,143-252,176.14-264,180.32l-2.39-7.3h-9.35l-2.19,7.16-11.88-5.55L-277.72,144Zm-4,22.35-3.56-8.62-3.65,8.47Z" transform="translate(431.21 -85.12)" style="fill:#d86600"/><path d="M-218.27,153q-9.49-1.61-13.77,2.09t-3.8,7.79c.32,2.76,2.16,4.87,5.5,6.33s8.08.65,14.22-2.43l5.06,10.22a24.05,24.05,0,0,1-10.86,3.27,35.55,35.55,0,0,1-12.32-1.17,26.36,26.36,0,0,1-10.22-5.46,12.85,12.85,0,0,1-4.48-9.59,16.38,16.38,0,0,1,3.16-10.81,24.13,24.13,0,0,1,8.57-7.25,27,27,0,0,1,11.11-2.87,20,20,0,0,1,10.61,2.19Z" transform="translate(431.21 -85.12)" style="fill:#d86600"/><path d="M-180.73,143.9l8.19,7.89-9.94,10.57,10,10.56L-183,180.18l-11.06-12.61.15,11.88-12.27.87L-208,143.56l14.12-.53.1,18.16Z" transform="translate(431.21 -85.12)" style="fill:#d86600"/><path d="M-143.09,143l11.39,33.11-12.07,4.18-2.39-7.3h-9.34l-2.2,7.16-11.88-5.55L-157.45,144Zm-4,22.35-3.55-8.62-3.66,8.47Z" transform="translate(431.21 -85.12)" style="fill:#d86600"/><path d="M-102.09,154.42a12.41,12.41,0,0,0-5.11-1.51,12.09,12.09,0,0,0-5.31.88,10,10,0,0,0-4,3.36,9,9,0,0,0-1.32,5.84,8.1,8.1,0,0,0,2.05,5.06,8,8,0,0,0,4.28,2.44,6.66,6.66,0,0,0,4.63-.78,8,8,0,0,0,3.36-4.72l-4.53.09.78-5.5,11.54-.1a12.42,12.42,0,0,1,.53,4.58,19.31,19.31,0,0,1-.63,4.58,15.7,15.7,0,0,1-6.09,8.52,17.75,17.75,0,0,1-9.34,3.16,15.64,15.64,0,0,1-4.9-.58,18.65,18.65,0,0,1-4.74-2.14q-4.59-2.88-6.77-9.45a17.14,17.14,0,0,1,0-11.88,21.29,21.29,0,0,1,2.72-5.14,20.29,20.29,0,0,1,3.9-4,19.29,19.29,0,0,1,10.32-4,15.33,15.33,0,0,1,11,3.26Z" transform="translate(431.21 -85.12)" style="fill:#d86600"/><path d="M-92.3,143l14,.92-.68,36-12.37.39Z" transform="translate(431.21 -85.12)" style="fill:#d86600"/><path d="M-73.46,143l11.68,1,9.59,17-1.65-16.21h11.15L-42,177l-13,3.36-9.59-19.23-.83,17.72-11.15-2.63,3.07-32.52Z" transform="translate(431.21 -85.12)" style="fill:#d86600"/><path d="M-12.55,154.42a12.41,12.41,0,0,0-5.11-1.51,12.09,12.09,0,0,0-5.31.88,9.94,9.94,0,0,0-4,3.36A9,9,0,0,0-28.33,163a8.1,8.1,0,0,0,2,5.06A8,8,0,0,0-22,170.49a6.66,6.66,0,0,0,4.63-.78A8,8,0,0,0-14,165l-4.53.09.78-5.5,11.54-.1a12.42,12.42,0,0,1,.53,4.58,19.31,19.31,0,0,1-.63,4.58,15.7,15.7,0,0,1-6.09,8.52,17.75,17.75,0,0,1-9.34,3.16,15.64,15.64,0,0,1-4.9-.58,18.65,18.65,0,0,1-4.74-2.14q-4.59-2.88-6.77-9.45a17.14,17.14,0,0,1,0-11.88,21.29,21.29,0,0,1,2.72-5.14,20,20,0,0,1,3.9-4,19.29,19.29,0,0,1,10.32-4,15.34,15.34,0,0,1,11,3.26Z" transform="translate(431.21 -85.12)" style="fill:#d86600"/></svg>