<svg id="Слой_1" data-name="Слой 1" xmlns="http://www.w3.org/2000/svg" viewBox="0 0 541.08 148.31"><title>скрипка_кор</title><rect x="11.25" y="1.74" width="529.83" height="146.57" rx="12" ry="12" style="fill:#3a301f"/><rect width="529.83" height="146.57" rx="12" ry="12" style="fill:#fff"/><path d="M-417.92,116.11c1.75-.39,3.51-.73,5.28-1s3.58-.5,5.43-.66q5.55-.44,13.15,2.68,5.16,2.19,5.59,6.57t-3.7,6.77q6.63.78,9.55,3.94a9.06,9.06,0,0,1,2.53,6.82,10.43,10.43,0,0,1-3.46,6.67,13.92,13.92,0,0,1-8.71,3.55q-3.17.3-6,.32a49.68,49.68,0,0,1-5.41-.22c-1.72-.16-3.46-.39-5.23-.68s-3.58-.66-5.43-1.12Zm13.58,11.44,1.95-.2a8.75,8.75,0,0,0,1.75-.34q1.67-.44,1.8-1.56c.13-1.39-.71-2.24-2.53-2.53a22.46,22.46,0,0,0-2.24-.31,4.89,4.89,0,0,0-1.31,0Zm2.1,15.09a25.27,25.27,0,0,1,4.18-.29q3.12-.15,3-2.73-.14-3-3.5-3.21c-1.11-.1-2-.15-2.73-.17a8.88,8.88,0,0,0-1.61.07Z" transform="translate(431.54 -85.84)" style="fill:#d86600"/><path d="M-339,134.75q-.58,8.58-6.62,12.81a22,22,0,0,1-13,4.19,20.48,20.48,0,0,1-12.61-4.29q-5.65-4.19-5.5-12.71a18.21,18.21,0,0,1,2.09-8.32,23.88,23.88,0,0,1,5.26-6.48,22.64,22.64,0,0,1,7-4.14,19.18,19.18,0,0,1,7.55-1.36,18.82,18.82,0,0,1,4.58,1,16.86,16.86,0,0,1,5.5,3.22,18.25,18.25,0,0,1,4.38,6.18A21.84,21.84,0,0,1-339,134.75Zm-13.68-4.33a.82.82,0,0,0,.34-.24,1.32,1.32,0,0,0,.29-.29,3.6,3.6,0,0,0,1.22-2.68,5,5,0,0,0-.83-2.58,1.79,1.79,0,0,0-.24-.22,3.58,3.58,0,0,1-.29-.27l-.22-.22a2,2,0,0,0-.27-.22,6.57,6.57,0,0,0-2.53-1,4.44,4.44,0,0,0-2.92.44,5.14,5.14,0,0,0-1.07.58c-.49.33-.77.52-.83.58a4,4,0,0,0-1.27,2.88,5,5,0,0,0,1,2.72c.06.07.12.13.17.2a1,1,0,0,0,.17.19l.19.12a1.62,1.62,0,0,1,.2.18,5.28,5.28,0,0,0,3.16,1.16,5.25,5.25,0,0,0,3.75-1.41Z" transform="translate(431.54 -85.84)" style="fill:#d86600"/><path d="M-323.95,115.08l6.81,10.42,8.77-11,10.66,5.75-13.1,13.58,10,11.49-8.76,6.48-7.79-11.44-7.06,9.2-11.2-5.8,11.44-12.12-9.15-13Z" transform="translate(431.54 -85.84)" style="fill:#d86600"/><path d="M-268.35,114.45l25.42,1.17.05,10.42-14.17-1,.48,4.44,6.82-.05.78,8.91-6.72-.39,1.12,13.78-11.54-1Z" transform="translate(431.54 -85.84)" style="fill:#d86600"/><path d="M-202.76,134.75q-.59,8.58-6.63,12.81a22,22,0,0,1-13,4.19A20.48,20.48,0,0,1-235,147.46q-5.64-4.19-5.5-12.71a18.34,18.34,0,0,1,2.09-8.32,23.88,23.88,0,0,1,5.26-6.48,22.76,22.76,0,0,1,7-4.14,19.21,19.21,0,0,1,7.55-1.36,18.82,18.82,0,0,1,4.58,1,16.76,16.76,0,0,1,5.5,3.22,18.25,18.25,0,0,1,4.38,6.18A22,22,0,0,1-202.76,134.75Zm-13.69-4.33a.82.82,0,0,0,.34-.24,1.67,1.67,0,0,0,.3-.29,3.63,3.63,0,0,0,1.21-2.68,5,5,0,0,0-.82-2.58l-.25-.22-.29-.27-.22-.22a2,2,0,0,0-.27-.22,6.51,6.51,0,0,0-2.53-1,4.44,4.44,0,0,0-2.92.44,5.41,5.41,0,0,0-1.07.58c-.49.33-.76.52-.83.58a4,4,0,0,0-1.26,2.88,4.87,4.87,0,0,0,1,2.72c.06.07.12.13.17.2a1.45,1.45,0,0,0,.17.19l.19.12a1.62,1.62,0,0,1,.2.18,5.28,5.28,0,0,0,3.16,1.16,5.22,5.22,0,0,0,3.75-1.41Z" transform="translate(431.54 -85.84)" style="fill:#d86600"/><path d="M-186.06,150.72l-11.54-1.46-1.76-34.37a41.1,41.1,0,0,1,8.28-.39c1.62.06,3.21.19,4.75.36s3.09.42,4.65.71a39.28,39.28,0,0,1,8.18,2.63q3.65,1.8,4.62,4.19a6.81,6.81,0,0,1-.73,6.52,19.56,19.56,0,0,1-5.5,5.45l13.63,8.57-11.73,8.82-11-14.37-2.43,0Zm-1.22-21.22a11.18,11.18,0,0,0,5-1.85,4.77,4.77,0,0,0,2.14-2.93,2.75,2.75,0,0,0-1.46-2.72c-1.11-.81-3-1.27-5.75-1.37Z" transform="translate(431.54 -85.84)" style="fill:#d86600"/><path d="M-142.39,117.86l5.84,15,3.75-15.54,12-2.82,6.52,33.3-11.39,4-2-20.84-5.45,19.62-6.18.05-6.38-18.26-.73,18.84-12-1.85,3.65-33.79Z" transform="translate(431.54 -85.84)" style="fill:#d86600"/><path d="M-94.19,118.49l-.63,1.83c-.26.76-.57,1.68-.92,2.75a30,30,0,0,0-1.32,6.57,11.77,11.77,0,0,0,.78,5.94q1.13,2.58,4.92,2.48c1.85,0,3.15-.56,3.89-1.7a8.52,8.52,0,0,0,1.37-4.23,21.17,21.17,0,0,0-.2-5.31l-.68-5,10.37-2c.39,1.23.8,2.6,1.24,4.11s.89,3.19,1.34,5a24.68,24.68,0,0,1,.63,10.57,14.12,14.12,0,0,1-5,8.71q-4.19,3.6-14.17,3.51-9.58,0-13.54-4.53a18.42,18.42,0,0,1-4.67-10.57,34.89,34.89,0,0,1-.15-6.13,35.33,35.33,0,0,1,1-6.23,96.26,96.26,0,0,1,2.77-9.84Z" transform="translate(431.54 -85.84)" style="fill:#d86600"/><path d="M-66.14,137.09a33.49,33.49,0,0,0,4.87,1.66,21,21,0,0,0,4.33.73c1.2.06,1.92-.1,2.14-.49s-.26-1.05-1.65-2-3-2.11-4.38-3.23-2.84-2.32-4.24-3.58a9.21,9.21,0,0,1-3.07-9q1-5.31,5.12-6.23a17.94,17.94,0,0,1,9,.34,38.19,38.19,0,0,1,9.26,3.89,28.86,28.86,0,0,1,6.13,4.39l-4.58,7.1a6.78,6.78,0,0,0-1.41-1c-.58-.34-1.3-.72-2.14-1.15a27,27,0,0,0-4.43-1.65c-1.27-.29-2-.23-2.24.19s.81,1.5,3,3.31a75.43,75.43,0,0,0,7.06,5.16q2.48,1.56,3.26,6.09a6.32,6.32,0,0,1-2.48,6.57,17.84,17.84,0,0,1-8,3.22,31.28,31.28,0,0,1-10.13,0,21.23,21.23,0,0,1-8.81-3.17Z" transform="translate(431.54 -85.84)" style="fill:#d86600"/><path d="M-36,114.45l14,.93-.68,36-12.37.39Z" transform="translate(431.54 -85.84)" style="fill:#d86600"/><path d="M10.4,124.38q-9.5-1.6-13.78,2.1t-3.8,7.79q.5,4.14,5.5,6.33t14.22-2.44l5.06,10.23a24,24,0,0,1-10.85,3.26,35.27,35.27,0,0,1-12.32-1.17A26.25,26.25,0,0,1-15.8,145a12.9,12.9,0,0,1-4.48-9.59,16.38,16.38,0,0,1,3.17-10.81,24,24,0,0,1,8.57-7.26,26.91,26.91,0,0,1,11.1-2.87,20,20,0,0,1,10.61,2.19Z" transform="translate(431.54 -85.84)" style="fill:#d86600"/><path d="M47.11,114.45,58.5,147.56l-12.07,4.19L44,144.44H34.69L32.5,151.6l-11.88-5.55,12.13-30.67Zm-4,22.35-3.56-8.62-3.65,8.47Z" transform="translate(431.54 -85.84)" style="fill:#d86600"/><path d="M75.5,114.4l1.55,28,12.42-1.71.29,9.35-24.29,1.66-3.95-36.91Z" transform="translate(431.54 -85.84)" style="fill:#d86600"/><path d="M-358.62,172.88l14,.92-.69,36-12.36.39Z" transform="translate(431.54 -85.84)" style="fill:#d86600"/><path d="M-339.78,172.88l11.69,1,9.59,17-1.65-16.21H-309l.73,32.13-13,3.37-9.6-19.24-.82,17.73L-342.84,206l3.06-32.53Z" transform="translate(431.54 -85.84)" style="fill:#d86600"/><path d="M-302,195.52a32,32,0,0,0,4.87,1.65,19.72,19.72,0,0,0,4.33.73c1.2.07,1.92-.09,2.14-.48s-.26-1.06-1.65-2-3-2.12-4.38-3.24-2.85-2.31-4.24-3.58a9.2,9.2,0,0,1-3.07-9c.68-3.54,2.39-5.62,5.11-6.24a18.1,18.1,0,0,1,9,.35,38,38,0,0,1,9.25,3.89,29.11,29.11,0,0,1,6.14,4.38l-4.58,7.11a7,7,0,0,0-1.41-1c-.58-.35-1.3-.73-2.14-1.15a25.26,25.26,0,0,0-4.43-1.65c-1.27-.3-2-.23-2.24.19s.81,1.49,3,3.31a77.89,77.89,0,0,0,7.06,5.16q2.48,1.56,3.26,6.09a6.32,6.32,0,0,1-2.48,6.57,18,18,0,0,1-8,3.22,31.28,31.28,0,0,1-10.13,0,21.23,21.23,0,0,1-8.81-3.17Z" transform="translate(431.54 -85.84)" style="fill:#d86600"/><path d="M-271.66,174.78l33.55-1.9.58,16.84-12.8-.68,3.84,21.14-16.45-1.76,2.82-19-11.83.34Z" transform="translate(431.54 -85.84)" style="fill:#d86600"/><path d="M-221.36,209.15l-11.54-1.46-1.76-34.37a41.1,41.1,0,0,1,8.28-.39c1.62.06,3.21.18,4.75.36s3.09.42,4.65.71a38.69,38.69,0,0,1,8.18,2.63q3.65,1.8,4.62,4.18a6.83,6.83,0,0,1-.73,6.53,19.56,19.56,0,0,1-5.5,5.45l13.63,8.57-11.73,8.82-11-14.37-2.44-.05Zm-1.22-21.23a11.06,11.06,0,0,0,5-1.85,4.73,4.73,0,0,0,2.14-2.92,2.73,2.73,0,0,0-1.46-2.72c-1.11-.82-3-1.27-5.75-1.37Z" transform="translate(431.54 -85.84)" style="fill:#d86600"/><path d="M-177,176.92q-.24.68-.63,1.83l-.93,2.75a30,30,0,0,0-1.31,6.57,11.77,11.77,0,0,0,.78,5.94c.75,1.72,2.38,2.55,4.92,2.48a4.29,4.29,0,0,0,3.89-1.7,8.56,8.56,0,0,0,1.37-4.24,21.09,21.09,0,0,0-.2-5.3l-.68-5,10.37-2c.39,1.24.8,2.61,1.24,4.12s.89,3.19,1.34,5a25,25,0,0,1,.63,10.56,14.14,14.14,0,0,1-5,8.72q-4.19,3.6-14.17,3.51-9.6,0-13.54-4.53a18.42,18.42,0,0,1-4.67-10.57,34.89,34.89,0,0,1-.15-6.13,35.44,35.44,0,0,1,1-6.24,96,96,0,0,1,2.77-9.83Z" transform="translate(431.54 -85.84)" style="fill:#d86600"/><path d="M-136.3,176.29l5.84,14.94,3.75-15.53,12-2.82,6.52,33.3-11.39,4-2-20.84L-127,209l-6.19,0-6.37-18.26-.73,18.84-12-1.85,3.65-33.79Z" transform="translate(431.54 -85.84)" style="fill:#d86600"/><path d="M-78.61,172.88l.3,10.51-13.64-.19.1,3.9,7-.39,0,6.42h-6.33l.15,4.48,13.14-.78.15,12.61-25,.74-2.09-37.25Z" transform="translate(431.54 -85.84)" style="fill:#d86600"/><path d="M-72.18,172.88l11.69,1,9.59,17-1.66-16.21h11.15l.73,32.13-13,3.37-9.59-19.24-.83,17.73L-75.25,206l3.07-32.53Z" transform="translate(431.54 -85.84)" style="fill:#d86600"/><path d="M-37.56,174.78-4,172.88l.58,16.84-12.8-.68,3.84,21.14-16.46-1.76,2.83-19-11.83.34Z" transform="translate(431.54 -85.84)" style="fill:#d86600"/><path d="M2.85,195.52a32.33,32.33,0,0,0,4.87,1.65,19.82,19.82,0,0,0,4.33.73c1.2.07,1.92-.09,2.15-.48s-.26-1.06-1.66-2-2.95-2.12-4.38-3.24-2.84-2.31-4.24-3.58a9.19,9.19,0,0,1-3.06-9q1-5.31,5.11-6.24a18.11,18.11,0,0,1,9,.35,38.29,38.29,0,0,1,9.25,3.89A29,29,0,0,1,30.31,182l-4.57,7.11a6.78,6.78,0,0,0-1.42-1c-.58-.35-1.29-.73-2.14-1.15a25.26,25.26,0,0,0-4.43-1.65c-1.27-.3-2-.23-2.24.19s.81,1.49,3,3.31a79.34,79.34,0,0,0,7.06,5.16c1.66,1,2.74,3.07,3.26,6.09a6.32,6.32,0,0,1-2.48,6.57,18,18,0,0,1-8,3.22,31.22,31.22,0,0,1-10.12,0,21.22,21.22,0,0,1-8.82-3.17Z" transform="translate(431.54 -85.84)" style="fill:#d86600"/></svg>