<svg id="Слой_1" data-name="Слой 1" xmlns="http://www.w3.org/2000/svg" viewBox="0 0 495.87 168.04"><title>труба_кор</title><rect x="10.31" y="1.98" width="485.56" height="166.07" rx="12" ry="12" style="fill:#3a301f"/><rect width="485.56" height="166.07" rx="12" ry="12" style="fill:#fff"/><path d="M-129.29,260.14l.29,10.52-13.64-.2.1,3.9,7-.39.05,6.43h-6.33l.15,4.48,13.15-.78.14,12.61-25,.73-2.1-37.25Z" transform="translate(185.21 -230.65)" style="fill:#d86600"/><path d="M-122.87,260.14l11.69,1,9.59,17.05-1.66-16.22H-92.1l.73,32.14-13,3.36L-114,278.2l-.83,17.73-11.15-2.63,3.07-32.53Z" transform="translate(185.21 -230.65)" style="fill:#d86600"/><path d="M-88.25,262l33.55-1.9.58,16.85-12.8-.68,3.84,21.13-16.45-1.76,2.82-19-11.83.34Z" transform="translate(185.21 -230.65)" style="fill:#d86600"/><path d="M-37.95,296.42-49.49,295l-1.76-34.37a41.1,41.1,0,0,1,8.28-.39c1.62.07,3.21.19,4.75.37s3.09.41,4.65.7a39.28,39.28,0,0,1,8.18,2.63q3.64,1.8,4.62,4.19a6.81,6.81,0,0,1-.73,6.52,19.59,19.59,0,0,1-5.5,5.46l13.63,8.56-11.73,8.82L-36,283.07l-2.44-.05Zm-1.22-21.23a11.18,11.18,0,0,0,5-1.85,4.77,4.77,0,0,0,2.14-2.93,2.75,2.75,0,0,0-1.46-2.72c-1.11-.81-3-1.27-5.75-1.37Z" transform="translate(185.21 -230.65)" style="fill:#d86600"/><path d="M16.14,260.14l11.39,33.11-12.07,4.19-2.39-7.31H3.72l-2.19,7.16-11.88-5.55L1.78,261.07Zm-4,22.35-3.56-8.62-3.65,8.47Z" transform="translate(185.21 -230.65)" style="fill:#d86600"/><path d="M33.62,260.14l11.69,1,9.59,17.05-1.66-16.22H64.39l.73,32.14-13,3.36L42.53,278.2l-.83,17.73L30.55,293.3l3.07-32.53Z" transform="translate(185.21 -230.65)" style="fill:#d86600"/><path d="M98.62,270.07q-9.5-1.6-13.78,2.1T81,280c.33,2.76,2.16,4.87,5.51,6.33s8.08.65,14.21-2.44l5.07,10.23A24,24,0,0,1,95,297.34a35.29,35.29,0,0,1-12.32-1.17,26.14,26.14,0,0,1-10.22-5.45A12.87,12.87,0,0,1,68,281.13a16.32,16.32,0,0,1,3.16-10.81,24,24,0,0,1,8.57-7.26,27,27,0,0,1,11.1-2.87,20,20,0,0,1,10.62,2.19Z" transform="translate(185.21 -230.65)" style="fill:#d86600"/><path d="M135.09,260.14l.29,10.52-13.63-.2.1,3.9,7-.39.05,6.43h-6.33l.14,4.48,13.15-.78.15,12.61-25,.73-2.09-37.25Z" transform="translate(185.21 -230.65)" style="fill:#d86600"/><path d="M164.79,260.14l25.42,1.17,0,10.42-14.17-1,.49,4.43,6.82-.05.78,8.91-6.72-.39,1.12,13.78-11.54-1Z" transform="translate(185.21 -230.65)" style="fill:#d86600"/><path d="M230.37,280.44q-.59,8.58-6.62,12.81a22,22,0,0,1-13,4.19,20.48,20.48,0,0,1-12.61-4.29q-5.64-4.18-5.5-12.71a18.21,18.21,0,0,1,2.09-8.32,23.88,23.88,0,0,1,5.26-6.48,22.64,22.64,0,0,1,7-4.14,19.18,19.18,0,0,1,7.55-1.36,18.82,18.82,0,0,1,4.58,1,16.76,16.76,0,0,1,5.5,3.22,18.25,18.25,0,0,1,4.38,6.18A21.84,21.84,0,0,1,230.37,280.44Zm-13.68-4.33a.82.82,0,0,0,.34-.24,1.67,1.67,0,0,0,.3-.29,3.63,3.63,0,0,0,1.21-2.68,5,5,0,0,0-.83-2.58,1.79,1.79,0,0,0-.24-.22,3.58,3.58,0,0,1-.29-.27l-.22-.22a2,2,0,0,0-.27-.22,6.51,6.51,0,0,0-2.53-1,4.44,4.44,0,0,0-2.92.44,5.14,5.14,0,0,0-1.07.58c-.49.33-.77.52-.83.58a4,4,0,0,0-1.27,2.88,5,5,0,0,0,1,2.72c.06.07.12.13.17.2a1.45,1.45,0,0,0,.17.19l.19.13a1,1,0,0,1,.2.17,5.29,5.29,0,0,0,6.91-.25Z" transform="translate(185.21 -230.65)" style="fill:#d86600"/><path d="M247.07,296.42,235.54,295l-1.76-34.37a41.1,41.1,0,0,1,8.28-.39c1.62.07,3.2.19,4.75.37s3.09.41,4.65.7a39.47,39.47,0,0,1,8.18,2.63q3.64,1.8,4.62,4.19a6.84,6.84,0,0,1-.73,6.52,19.72,19.72,0,0,1-5.5,5.46l13.63,8.56-11.73,8.82-11-14.37-2.43-.05Zm-1.21-21.23a11.14,11.14,0,0,0,5-1.85,4.76,4.76,0,0,0,2.15-2.93,2.74,2.74,0,0,0-1.47-2.72q-1.65-1.21-5.74-1.37Z" transform="translate(185.21 -230.65)" style="fill:#d86600"/><path d="M-138.89,341.21a32.71,32.71,0,0,0,4.87,1.65,20.63,20.63,0,0,0,4.34.74c1.2.06,1.91-.1,2.14-.49s-.26-1.06-1.66-2-3-2.12-4.38-3.24-2.84-2.31-4.24-3.57a9.24,9.24,0,0,1-3.06-9q1-5.31,5.11-6.23a18,18,0,0,1,9,.34,38.12,38.12,0,0,1,9.25,3.89,29,29,0,0,1,6.13,4.38l-4.57,7.11a7.16,7.16,0,0,0-1.42-1c-.58-.35-1.29-.73-2.14-1.15a25.78,25.78,0,0,0-4.43-1.65c-1.26-.3-2-.23-2.24.19s.81,1.49,3,3.31a79.34,79.34,0,0,0,7.06,5.16c1.66,1,2.74,3.07,3.26,6.09a6.32,6.32,0,0,1-2.48,6.57,18,18,0,0,1-8,3.22,31.29,31.29,0,0,1-10.13,0,21.12,21.12,0,0,1-8.81-3.17Z" transform="translate(185.21 -230.65)" style="fill:#d86600"/><path d="M-82.31,318.57l11.39,33.11L-83,355.87l-2.39-7.31h-9.35l-2.19,7.16-11.88-5.55,12.13-30.68Zm-4,22.35-3.56-8.62-3.65,8.47Z" transform="translate(185.21 -230.65)" style="fill:#d86600"/><path d="M-64.83,318.57l11.69,1,9.59,17-1.66-16.21h11.15l.73,32.14-13,3.36-9.59-19.24-.83,17.73-11.15-2.63,3.07-32.53Z" transform="translate(185.21 -230.65)" style="fill:#d86600"/><path d="M-30.21,320.47l33.54-1.9.59,16.85-12.81-.69L-5,355.87l-16.46-1.76,2.83-19-11.83.34Z" transform="translate(185.21 -230.65)" style="fill:#d86600"/><path d="M33.28,318.57l11.39,33.11L32.6,355.87l-2.39-7.31H20.86l-2.19,7.16L6.79,350.17l12.13-30.68Zm-4,22.35-3.56-8.62-3.65,8.47Z" transform="translate(185.21 -230.65)" style="fill:#d86600"/><path d="M104.71,328.5q-9.49-1.61-13.78,2.1t-3.8,7.79c.32,2.75,2.16,4.86,5.5,6.33s8.08.64,14.22-2.44l5.06,10.23a24.17,24.17,0,0,1-10.86,3.26,35.47,35.47,0,0,1-12.31-1.17,26.39,26.39,0,0,1-10.23-5.45,12.89,12.89,0,0,1-4.48-9.6,16.34,16.34,0,0,1,3.17-10.81,24,24,0,0,1,8.57-7.25,26.91,26.91,0,0,1,11.1-2.87,20,20,0,0,1,10.61,2.19Z" transform="translate(185.21 -230.65)" style="fill:#d86600"/><path d="M128.91,318.52l1.55,28.05,12.42-1.71.29,9.35-24.29,1.66L114.93,319Z" transform="translate(185.21 -230.65)" style="fill:#d86600"/><path d="M172.14,318.57l11.4,33.11-12.08,4.19-2.39-7.31h-9.34l-2.2,7.16-11.88-5.55,12.13-30.68Zm-4,22.35-3.56-8.62-3.65,8.47Z" transform="translate(185.21 -230.65)" style="fill:#d86600"/><path d="M203.3,322.61q-.24.67-.63,1.83c-.26.76-.57,1.68-.92,2.75a29.45,29.45,0,0,0-1.32,6.57,11.77,11.77,0,0,0,.78,5.94c.75,1.72,2.38,2.55,4.92,2.48a4.29,4.29,0,0,0,3.89-1.7,8.56,8.56,0,0,0,1.37-4.24,21.09,21.09,0,0,0-.2-5.3l-.68-5,10.37-2c.39,1.24.8,2.61,1.24,4.12s.89,3.19,1.34,5a25,25,0,0,1,.63,10.56,14.12,14.12,0,0,1-5,8.72q-4.19,3.6-14.17,3.51-9.6,0-13.54-4.53a18.42,18.42,0,0,1-4.67-10.57,34.89,34.89,0,0,1-.15-6.13,35.44,35.44,0,0,1,1-6.24,96,96,0,0,1,2.77-9.83Z" transform="translate(185.21 -230.65)" style="fill:#d86600"/><path d="M231.35,341.21a32,32,0,0,0,4.87,1.65,20.45,20.45,0,0,0,4.33.74c1.2.06,1.91-.1,2.14-.49s-.26-1.06-1.65-2-3-2.12-4.38-3.24-2.85-2.31-4.24-3.57a9.22,9.22,0,0,1-3.07-9c.68-3.54,2.39-5.62,5.11-6.23a18,18,0,0,1,9,.34,38,38,0,0,1,9.25,3.89,29.11,29.11,0,0,1,6.14,4.38l-4.58,7.11a7.06,7.06,0,0,0-1.41-1c-.58-.35-1.3-.73-2.14-1.15a26.09,26.09,0,0,0-4.43-1.65c-1.27-.3-2-.23-2.24.19s.81,1.49,3,3.31a77.89,77.89,0,0,0,7.06,5.16q2.47,1.56,3.26,6.09a6.33,6.33,0,0,1-2.48,6.57,18,18,0,0,1-8,3.22,31.28,31.28,0,0,1-10.13,0,21.23,21.23,0,0,1-8.81-3.17Z" transform="translate(185.21 -230.65)" style="fill:#d86600"/></svg>