<svg id="Слой_1" data-name="Слой 1" xmlns="http://www.w3.org/2000/svg" viewBox="0 0 495.87 104.54"><title>олень_кор</title><rect x="10.31" y="1.23" width="485.56" height="103.32" rx="12" ry="12" style="fill:#3a301f"/><rect width="485.56" height="103.32" rx="12" ry="12" style="fill:#fff"/><path d="M-55.14,331.15l-11.54-1.46-1.75-34.37a41.1,41.1,0,0,1,8.28-.39q2.43.09,4.74.36c1.54.18,3.09.42,4.65.71a38.69,38.69,0,0,1,8.18,2.63q3.66,1.8,4.63,4.19a6.87,6.87,0,0,1-.73,6.52,19.56,19.56,0,0,1-5.5,5.45l13.63,8.57-11.74,8.82-11-14.37-2.43-.05Zm-1.22-21.23a10.9,10.9,0,0,0,5-1.85,4.69,4.69,0,0,0,2.14-2.92,2.72,2.72,0,0,0-1.46-2.72c-1.1-.81-3-1.27-5.74-1.37Z" transform="translate(184.93 -262.09)" style="fill:#d86600"/><path d="M-10.78,298.92c-.17.46-.38,1.06-.64,1.83s-.56,1.68-.92,2.75a30.62,30.62,0,0,0-1.32,6.57,12,12,0,0,0,.78,5.94q1.13,2.58,4.92,2.48a4.31,4.31,0,0,0,3.9-1.7,8.55,8.55,0,0,0,1.36-4.24,21.08,21.08,0,0,0-.19-5.3l-.69-5,10.37-2c.39,1.24.81,2.61,1.25,4.12s.88,3.19,1.34,5A25,25,0,0,1,10,320a14.09,14.09,0,0,1-5,8.72q-4.19,3.6-14.17,3.51-9.59,0-13.53-4.53a18.5,18.5,0,0,1-4.68-10.57,35.88,35.88,0,0,1-.14-6.13,35.4,35.4,0,0,1,1-6.24,96.28,96.28,0,0,1,2.78-9.83Z" transform="translate(184.93 -262.09)" style="fill:#d86600"/><path d="M13.85,296.92A42.73,42.73,0,0,1,31,295.22a26.13,26.13,0,0,1,17.34,8.28,11.84,11.84,0,0,1,3.11,6.13,16.13,16.13,0,0,1,.22,3.48,13.91,13.91,0,0,1-.61,3.53,20.29,20.29,0,0,1-3.7,6.72,18.78,18.78,0,0,1-6.67,5,43.52,43.52,0,0,1-12.32,3.41,36.36,36.36,0,0,1-12.07-.05Zm15.78,20a7.36,7.36,0,0,0,3.07-.54,11,11,0,0,0,3.06-1.85,6.42,6.42,0,0,0,1.86-2.73,3.21,3.21,0,0,0-.54-3.11c-.71-1-2.09-1.59-4.14-1.85a17.65,17.65,0,0,0-4.58-.15Z" transform="translate(184.93 -262.09)" style="fill:#d86600"/><path d="M92.88,315.18q-.59,8.58-6.62,12.81a22,22,0,0,1-13,4.19,20.51,20.51,0,0,1-12.62-4.29q-5.64-4.18-5.5-12.71a18.22,18.22,0,0,1,2.1-8.32,23.66,23.66,0,0,1,5.25-6.48,22.69,22.69,0,0,1,7-4.14,19.13,19.13,0,0,1,7.54-1.36,18.36,18.36,0,0,1,4.58,1,16.76,16.76,0,0,1,5.5,3.22,18,18,0,0,1,4.38,6.18A22,22,0,0,1,92.88,315.18ZM79.2,310.85a1,1,0,0,0,.34-.24,1.35,1.35,0,0,0,.29-.3A3.61,3.61,0,0,0,81,307.64a5,5,0,0,0-.82-2.58l-.25-.22-.29-.27-.22-.22a2.75,2.75,0,0,0-.26-.22,6.62,6.62,0,0,0-2.54-1,4.44,4.44,0,0,0-2.92.44,4.94,4.94,0,0,0-1.07.58c-.49.32-.76.52-.83.58a4,4,0,0,0-1.26,2.88,4.87,4.87,0,0,0,1,2.72c.06.07.12.13.17.2l.17.19a1.22,1.22,0,0,1,.19.12l.2.17a5.28,5.28,0,0,0,6.91-.24Z" transform="translate(184.93 -262.09)" style="fill:#d86600"/><path d="M110.26,294.83l1.56,28.05,12.41-1.71.3,9.35-24.3,1.66-3.94-36.91Z" transform="translate(184.93 -262.09)" style="fill:#d86600"/><path d="M139.62,320.44l.49,11.74-10.62-1.27L127,295c.91-.07,2-.1,3.21-.1s2.66.05,4.29.14a46.91,46.91,0,0,1,9.54,1.42,26.15,26.15,0,0,1,8.23,3.5,7.31,7.31,0,0,1,3.5,6.33,11.08,11.08,0,0,1-5.16,9.69,25,25,0,0,1-11,4.53ZM138.26,314a11.16,11.16,0,0,0,4.82-2.49,5.63,5.63,0,0,0,2-3.45,3.24,3.24,0,0,0-1.56-3q-1.84-1.32-5.89-1.17Z" transform="translate(184.93 -262.09)" style="fill:#d86600"/><path d="M158.37,296.39l11.34-.68v12.56l8.33-.15V295.61l13-.73-1.71,35L178,331.15V317.86l-8.33.2V331.2l-9.84,1Z" transform="translate(184.93 -262.09)" style="fill:#d86600"/></svg>