<svg id="Слой_1" data-name="Слой 1" xmlns="http://www.w3.org/2000/svg" viewBox="0 0 495.87 249.54"><title>гном_кор</title><rect x="10.31" y="2.93" width="485.56" height="246.61" rx="12" ry="12" style="fill:#3a301f"/><rect width="485.56" height="246.61" rx="12" ry="12" style="fill:#fff"/><path d="M-53.89,284.1A33.08,33.08,0,0,0-49,285.76a20.34,20.34,0,0,0,4.33.73c1.2.06,1.91-.1,2.14-.49s-.26-1.05-1.65-2-3-2.11-4.39-3.23-2.84-2.32-4.23-3.58a9.21,9.21,0,0,1-3.07-9c.68-3.54,2.39-5.62,5.11-6.23a18,18,0,0,1,9,.34,38.52,38.52,0,0,1,9.25,3.89,29.07,29.07,0,0,1,6.14,4.39L-31,277.68a7,7,0,0,0-1.41-1.05c-.59-.34-1.3-.72-2.14-1.15A26.73,26.73,0,0,0-39,273.83c-1.26-.29-2-.23-2.23.19s.81,1.5,3,3.31a79.31,79.31,0,0,0,7.06,5.17q2.49,1.54,3.27,6.08a6.32,6.32,0,0,1-2.49,6.57,17.69,17.69,0,0,1-8,3.22,31.29,31.29,0,0,1-10.13,0,21.18,21.18,0,0,1-8.81-3.17Z" transform="translate(185.08 -189.67)" style="fill:#d86600"/><path d="M2.68,261.46l11.4,33.11L2,298.76l-2.38-7.31H-9.73l-2.19,7.16-11.88-5.55,12.12-30.67Zm-4,22.35-3.55-8.62-3.66,8.47Z" transform="translate(185.08 -189.67)" style="fill:#d86600"/><path d="M20.16,261.46l11.69,1,9.59,17.05-1.66-16.22H50.93l.74,32.14-13,3.36-9.59-19.24-.82,17.73L17.1,294.62l3.06-32.53Z" transform="translate(185.08 -189.67)" style="fill:#d86600"/><path d="M54.78,263.36l33.55-1.9.58,16.85-12.8-.68L80,298.76,63.5,297l2.82-19-11.83.34Z" transform="translate(185.08 -189.67)" style="fill:#d86600"/><path d="M118.27,261.46l11.4,33.11-12.08,4.19-2.39-7.31h-9.34l-2.19,7.16-11.89-5.55,12.13-30.67Zm-4,22.35-3.55-8.62-3.66,8.47Z" transform="translate(185.08 -189.67)" style="fill:#d86600"/><path d="M146.22,247.34,135.41,263l-3.07-1.51,2.83-15.38Z" transform="translate(185.08 -189.67)" style="fill:#d86600"/><path d="M152.11,284.1a33.49,33.49,0,0,0,4.87,1.66,20.44,20.44,0,0,0,4.33.73c1.2.06,1.92-.1,2.15-.49s-.26-1.05-1.66-2-3-2.11-4.38-3.23-2.84-2.32-4.24-3.58a9.23,9.23,0,0,1-3.07-9c.69-3.54,2.39-5.62,5.12-6.23a18,18,0,0,1,9,.34,38.69,38.69,0,0,1,9.25,3.89,28.94,28.94,0,0,1,6.13,4.39L175,277.68a6.79,6.79,0,0,0-1.42-1.05c-.58-.34-1.3-.72-2.14-1.15a27,27,0,0,0-4.43-1.65c-1.27-.29-2-.23-2.24.19s.81,1.5,3,3.31a77.86,77.86,0,0,0,7.06,5.17q2.47,1.54,3.26,6.08a6.32,6.32,0,0,1-2.48,6.57,17.73,17.73,0,0,1-8,3.22,31.22,31.22,0,0,1-10.12,0,21.22,21.22,0,0,1-8.82-3.17Z" transform="translate(185.08 -189.67)" style="fill:#d86600"/><path d="M-126.25,319.84l1.56,28.05,12.42-1.71.29,9.35-24.3,1.66-3.94-36.91Z" transform="translate(185.08 -189.67)" style="fill:#d86600"/><path d="M-109.5,319.89l14,.92-.68,36-12.37.39Z" transform="translate(185.08 -189.67)" style="fill:#d86600"/><path d="M-93.43,321.79l33.55-1.9.58,16.85-12.8-.69,3.84,21.14-16.45-1.76,2.82-19-11.83.34Z" transform="translate(185.08 -189.67)" style="fill:#d86600"/><path d="M-56.13,321.79l33.54-1.9.59,16.85-12.81-.69L-31,357.19l-16.46-1.76,2.83-19-11.84.34Z" transform="translate(185.08 -189.67)" style="fill:#d86600"/><path d="M-5.16,319.84l1.56,28.05,12.42-1.71.29,9.35-24.3,1.66-3.94-36.91Z" transform="translate(185.08 -189.67)" style="fill:#d86600"/><path d="M37.84,319.89l.29,10.52-13.63-.2.09,3.9,7-.39,0,6.42H25.27l.15,4.48,13.15-.78.14,12.62-25,.73-2.1-37.25Z" transform="translate(185.08 -189.67)" style="fill:#d86600"/><path d="M67.54,321.4l11.34-.68v12.56l8.33-.15V320.62l13-.73-1.71,35-11.24,1.26V342.87l-8.33.2v13.14l-9.83,1Z" transform="translate(185.08 -189.67)" style="fill:#d86600"/><path d="M129.18,319.89l.29,10.52-13.63-.2.09,3.9,7-.39,0,6.42h-6.33l.15,4.48,13.15-.78.14,12.62-25,.73-2.1-37.25Z" transform="translate(185.08 -189.67)" style="fill:#d86600"/><path d="M146.51,319.84l1.56,28.05,12.41-1.71.3,9.35-24.3,1.66-3.94-36.91Z" transform="translate(185.08 -189.67)" style="fill:#d86600"/><path d="M175.87,345.45l.49,11.74-10.62-1.27L163.26,320c.91-.07,2-.1,3.21-.1s2.66.05,4.29.14a46.91,46.91,0,0,1,9.54,1.42,25.92,25.92,0,0,1,8.23,3.5,7.32,7.32,0,0,1,3.51,6.33,11.11,11.11,0,0,1-5.17,9.69,24.9,24.9,0,0,1-11,4.53ZM174.51,339a11,11,0,0,0,4.82-2.48,5.58,5.58,0,0,0,2-3.45,3.25,3.25,0,0,0-1.55-3c-1.24-.88-3.2-1.27-5.9-1.17Z" transform="translate(185.08 -189.67)" style="fill:#d86600"/><path d="M220.86,319.89l.29,10.52-13.63-.2.1,3.9,7-.39,0,6.42H208.3l.14,4.48,13.15-.78.15,12.62-25,.73-2.09-37.25Z" transform="translate(185.08 -189.67)" style="fill:#d86600"/><path d="M237.51,356.16,226,354.7l-1.75-34.37a41.1,41.1,0,0,1,8.28-.39q2.43.09,4.74.36c1.54.18,3.09.42,4.65.71a38.69,38.69,0,0,1,8.18,2.63q3.66,1.8,4.63,4.19a6.84,6.84,0,0,1-.73,6.52,19.56,19.56,0,0,1-5.5,5.45l13.63,8.57-11.73,8.82-11-14.37-2.43-.05Zm-1.22-21.23a10.9,10.9,0,0,0,5-1.85,4.69,4.69,0,0,0,2.14-2.92,2.72,2.72,0,0,0-1.46-2.72c-1.1-.81-3-1.27-5.74-1.37Z" transform="translate(185.08 -189.67)" style="fill:#d86600"/></svg>