<svg id="Слой_1" data-name="Слой 1" xmlns="http://www.w3.org/2000/svg" viewBox="0 0 495.87 314.19"><title>елка_кор</title><rect x="10.31" y="3.69" width="485.56" height="310.49" rx="12" ry="12" style="fill:#3a301f"/><rect width="485.56" height="310.49" rx="12" ry="12" style="fill:#fff"/><path d="M-379.47,35.06l10.7.89,8.77,15.6-1.51-14.84h10.21l.66,29.41-11.9,3.08-8.77-17.6-.76,16.22-10.21-2.41,2.81-29.77Z" transform="translate(409 -2.58)" style="fill:#d86600"/><path d="M-313.51,53.64q-.54,7.84-6.06,11.73a20.13,20.13,0,0,1-11.9,3.83A18.81,18.81,0,0,1-343,65.28q-5.16-3.84-5-11.64A16.85,16.85,0,0,1-346.14,46a21.86,21.86,0,0,1,4.82-5.92,20.36,20.36,0,0,1,6.41-3.79A17.52,17.52,0,0,1-328,35.06a16.51,16.51,0,0,1,4.19.94,15.37,15.37,0,0,1,5,2.94,16.68,16.68,0,0,1,4,5.66A20.15,20.15,0,0,1-313.51,53.64Zm-12.53-4a.79.79,0,0,0,.32-.22,1.3,1.3,0,0,0,.26-.27,3.28,3.28,0,0,0,1.12-2.45,4.67,4.67,0,0,0-.76-2.36,2.3,2.3,0,0,0-.22-.2l-.27-.25-.2-.2a2.43,2.43,0,0,0-.25-.2,6,6,0,0,0-2.31-.89A4.08,4.08,0,0,0-331,43a5.08,5.08,0,0,0-1,.53c-.44.3-.7.48-.76.54a3.62,3.62,0,0,0-1.15,2.63,4.46,4.46,0,0,0,.93,2.49l.16.18a1.19,1.19,0,0,0,.15.18l.18.11.18.16a4.89,4.89,0,0,0,2.9,1.07,4.77,4.77,0,0,0,3.43-1.3Z" transform="translate(409 -2.58)" style="fill:#d86600"/><path d="M-310.13,36.8l30.71-1.74.53,15.42-11.72-.62,3.52,19.34-15.06-1.61,2.58-17.38-10.83.32Z" transform="translate(409 -2.58)" style="fill:#d86600"/><path d="M-217.61,53.64q-.54,7.84-6.06,11.73a20.11,20.11,0,0,1-11.9,3.83,18.76,18.76,0,0,1-11.54-3.92q-5.17-3.84-5-11.64A16.73,16.73,0,0,1-250.23,46a21.64,21.64,0,0,1,4.81-5.92A20.3,20.3,0,0,1-239,36.31a17.47,17.47,0,0,1,6.9-1.25,16.51,16.51,0,0,1,4.19.94,15.27,15.27,0,0,1,5,2.94,16.68,16.68,0,0,1,4,5.66A20,20,0,0,1-217.61,53.64Zm-12.52-4a.81.81,0,0,0,.31-.22,1.08,1.08,0,0,0,.26-.27,3.28,3.28,0,0,0,1.12-2.45,4.58,4.58,0,0,0-.76-2.36,2.3,2.3,0,0,0-.22-.2l-.27-.25-.2-.2a2.31,2.31,0,0,0-.24-.2,6.1,6.1,0,0,0-2.32-.89,4.09,4.09,0,0,0-2.68.4,5.08,5.08,0,0,0-1,.53,7.43,7.43,0,0,0-.75.54A3.6,3.6,0,0,0-238,46.74a4.53,4.53,0,0,0,.93,2.49l.16.18a1.29,1.29,0,0,0,.16.18l.17.11.18.16a4.89,4.89,0,0,0,2.9,1.07,4.77,4.77,0,0,0,3.43-1.3Z" transform="translate(409 -2.58)" style="fill:#d86600"/><path d="M-211.69,35.06-201,36l8.78,15.6-1.52-14.84h10.21l.67,29.41-11.9,3.08-8.78-17.6-.76,16.22-10.2-2.41,2.8-29.77Z" transform="translate(409 -2.58)" style="fill:#d86600"/><path d="M-167.48,35-166,60.69l11.36-1.56.27,8.55-22.24,1.52-3.61-33.78Z" transform="translate(409 -2.58)" style="fill:#d86600"/><path d="M-152.15,44.82l7.62-5.79,6.24,8.29,4.95-12.26,10.43,1.74L-140.2,69.2l-7.67-5.57,6.28-10.21Z" transform="translate(409 -2.58)" style="fill:#d86600"/><path d="M-72,45.49a11.33,11.33,0,0,0-4.68-1.38,11.1,11.1,0,0,0-4.85.8A9.18,9.18,0,0,0-85.21,48a8.28,8.28,0,0,0-1.21,5.34A7.48,7.48,0,0,0-84.54,58a7.31,7.31,0,0,0,3.92,2.23,6,6,0,0,0,4.23-.72,7.23,7.23,0,0,0,3.08-4.32l-4.15.09.72-5,10.56-.09a11.42,11.42,0,0,1,.49,4.19,18.39,18.39,0,0,1-.58,4.19,14.4,14.4,0,0,1-5.57,7.8,16.38,16.38,0,0,1-8.56,2.9,14.19,14.19,0,0,1-4.48-.54,16.58,16.58,0,0,1-4.34-2q-4.2-2.62-6.2-8.64a15.71,15.71,0,0,1,0-10.88,19.28,19.28,0,0,1,2.49-4.7,18.25,18.25,0,0,1,3.57-3.67,17.63,17.63,0,0,1,9.45-3.7,14.09,14.09,0,0,1,10.07,3Z" transform="translate(409 -2.58)" style="fill:#d86600"/><path d="M-50.85,68.26l-10.56-1.33L-63,35.46a38.09,38.09,0,0,1,7.58-.35c1.48.06,2.93.17,4.34.33s2.83.38,4.26.65a35.6,35.6,0,0,1,7.49,2.4q3.33,1.65,4.23,3.84a6.27,6.27,0,0,1-.67,6,18,18,0,0,1-5,5l12.48,7.84L-39.09,69.2l-10-13.15-2.23,0ZM-52,48.83a10.14,10.14,0,0,0,4.55-1.69,4.31,4.31,0,0,0,2-2.68A2.5,2.5,0,0,0-46.8,42q-1.52-1.11-5.26-1.25Z" transform="translate(409 -2.58)" style="fill:#d86600"/><path d="M-1.56,35.06l.26,9.63-12.47-.18.08,3.56,6.38-.35,0,5.88h-5.79l.13,4.1L-.9,57l.14,11.54-22.91.67-1.91-34.09Z" transform="translate(409 -2.58)" style="fill:#d86600"/><path d="M25.53,35.06l.27,9.63-12.48-.18.09,3.56,6.37-.35,0,5.88H14l.14,4.1,12-.71.13,11.54-22.9.67L1.51,35.11Z" transform="translate(409 -2.58)" style="fill:#d86600"/><path d="M31.41,35.06l10.7.89,8.78,15.6L49.37,36.71H59.58l.67,29.41L48.35,69.2,39.57,51.6l-.76,16.22L28.6,65.41l2.81-29.77Z" transform="translate(409 -2.58)" style="fill:#d86600"/><path d="M-374.95,89.43l3.35,15.42L-368.22,94l5.84-.09,2.36,10.12,3.17-13.77,13.63-1.12-9.8,32.31-9.09,1.21L-365.72,111l-3.48,12-9.13-1.47-9.81-33Z" transform="translate(409 -2.58)" style="fill:#d86600"/><path d="M-340,89.92l10.38-.62v11.49l7.62-.13V89.21l11.85-.67-1.56,32L-322,121.74V109.57l-7.62.18v12l-9,.9Z" transform="translate(409 -2.58)" style="fill:#d86600"/><path d="M-283.54,88.54l.26,9.63L-295.76,98l.09,3.56,6.38-.35,0,5.88H-295l.13,4.1,12-.71.14,11.54-22.91.67-1.92-34.1Z" transform="translate(409 -2.58)" style="fill:#d86600"/><path d="M-277.66,88.54l10.69.89,8.78,15.6-1.51-14.84h10.2l.67,29.41-11.9,3.08-8.78-17.61-.76,16.22-10.2-2.4,2.81-29.77Z" transform="translate(409 -2.58)" style="fill:#d86600"/><path d="M-219,109.26a30.29,30.29,0,0,0,4.46,1.52,19,19,0,0,0,4,.67c1.09.06,1.75-.09,2-.45s-.24-1-1.52-1.83-2.7-1.94-4-3-2.6-2.12-3.88-3.28a8.41,8.41,0,0,1-2.8-8.24q.93-4.86,4.68-5.71a16.47,16.47,0,0,1,8.2.32,35.13,35.13,0,0,1,8.46,3.56,26.68,26.68,0,0,1,5.62,4l-4.19,6.51a6.36,6.36,0,0,0-1.29-1c-.54-.31-1.19-.66-2-1a24.52,24.52,0,0,0-4.06-1.51c-1.16-.27-1.84-.21-2.05.18s.74,1.36,2.76,3a73.3,73.3,0,0,0,6.46,4.72q2.28,1.42,3,5.57a5.79,5.79,0,0,1-2.27,6,16.46,16.46,0,0,1-7.31,2.94,28.82,28.82,0,0,1-9.27,0,19.42,19.42,0,0,1-8.07-2.9Z" transform="translate(409 -2.58)" style="fill:#d86600"/><path d="M-176.15,92.24l-.58,1.67c-.23.7-.52,1.54-.84,2.52a26.8,26.8,0,0,0-1.2,6,10.76,10.76,0,0,0,.71,5.44c.68,1.58,2.18,2.33,4.5,2.27a3.93,3.93,0,0,0,3.56-1.56,7.72,7.72,0,0,0,1.25-3.87,19,19,0,0,0-.18-4.86l-.62-4.59,9.49-1.83c.36,1.13.74,2.39,1.14,3.77s.81,2.92,1.22,4.61a22.57,22.57,0,0,1,.58,9.67,12.88,12.88,0,0,1-4.59,8q-3.82,3.3-13,3.21-8.77,0-12.38-4.15a16.79,16.79,0,0,1-4.28-9.67,31.88,31.88,0,0,1-.14-5.61,32.08,32.08,0,0,1,.9-5.71,86.13,86.13,0,0,1,2.54-9Z" transform="translate(409 -2.58)" style="fill:#d86600"/><path d="M-138.89,91.66l5.35,13.68,3.43-14.22,11-2.58,6,30.48-10.42,3.66-1.83-19.08-5,18-5.66,0-5.84-16.72-.67,17.25-11-1.69,3.35-30.93Z" transform="translate(409 -2.58)" style="fill:#d86600"/><path d="M-95.39,91.66-90,105.34l3.43-14.22,11-2.58,6,30.48-10.43,3.66-1.83-19.08-5,18-5.66,0-5.84-16.72-.66,17.25-11-1.69,3.34-30.93Z" transform="translate(409 -2.58)" style="fill:#d86600"/><path d="M-42.59,88.54l.27,9.63L-54.8,98l.09,3.56,6.38-.35,0,5.88h-5.79l.13,4.1,12-.71.14,11.54-22.91.67-1.92-34.1Z" transform="translate(409 -2.58)" style="fill:#d86600"/><path d="M-27.35,121.74l-10.56-1.34-1.6-31.46a38,38,0,0,1,7.57-.36c1.49.06,2.94.18,4.35.34s2.83.38,4.26.64A36.09,36.09,0,0,1-15.85,92q3.35,1.65,4.24,3.83a6.27,6.27,0,0,1-.67,6,17.91,17.91,0,0,1-5,5l12.48,7.84-10.74,8.07-10-13.15-2.23,0Zm-1.11-19.43a10.18,10.18,0,0,0,4.55-1.69,4.4,4.4,0,0,0,2-2.68,2.5,2.5,0,0,0-1.34-2.49c-1-.75-2.76-1.16-5.26-1.25Z" transform="translate(409 -2.58)" style="fill:#d86600"/><path d="M11.38,81.94,6.84,98.43l-5.4-.71-3-18.18Z" transform="translate(409 -2.58)" style="fill:#d86600"/><path d="M17,109.26a29.89,29.89,0,0,0,4.46,1.52,18.92,18.92,0,0,0,4,.67c1.1.06,1.76-.09,2-.45s-.23-1-1.51-1.83-2.7-1.94-4-3-2.6-2.12-3.88-3.28a8.44,8.44,0,0,1-2.81-8.24q.95-4.86,4.68-5.71a16.46,16.46,0,0,1,8.2.32,35.2,35.2,0,0,1,8.47,3.56,27,27,0,0,1,5.62,4L38,103.38a6.17,6.17,0,0,0-1.3-1c-.53-.31-1.18-.66-2-1a24.11,24.11,0,0,0-4-1.51c-1.16-.27-1.84-.21-2.05.18s.74,1.36,2.76,3a71.82,71.82,0,0,0,6.46,4.72c1.52.95,2.51,2.81,3,5.57a5.81,5.81,0,0,1-2.27,6,16.5,16.5,0,0,1-7.31,2.94,28.82,28.82,0,0,1-9.27,0,19.42,19.42,0,0,1-8.07-2.9Z" transform="translate(409 -2.58)" style="fill:#d86600"/><path d="M-379.69,143.4l10.38-.63v11.5l7.62-.13V142.69l11.86-.67-1.56,32-10.3,1.16V163.05l-7.62.18v12l-9,.89Z" transform="translate(409 -2.58)" style="fill:#d86600"/><path d="M-323.27,142l.26,9.62-12.47-.17.08,3.56,6.38-.36,0,5.89h-5.79l.13,4.1,12-.72.13,11.55-22.91.66-1.91-34.09Z" transform="translate(409 -2.58)" style="fill:#d86600"/><path d="M-308,175.22l-10.56-1.34-1.61-31.46a37.29,37.29,0,0,1,7.58-.36c1.48.06,2.93.17,4.34.34s2.83.37,4.26.64a35.89,35.89,0,0,1,7.48,2.41q3.35,1.65,4.24,3.83a6.27,6.27,0,0,1-.67,6,17.88,17.88,0,0,1-5,5l12.48,7.85-10.74,8.06-10-13.14-2.23,0Zm-1.12-19.43a10.07,10.07,0,0,0,4.55-1.7,4.32,4.32,0,0,0,2-2.67,2.5,2.5,0,0,0-1.34-2.49c-1-.75-2.76-1.16-5.26-1.25Z" transform="translate(409 -2.58)" style="fill:#d86600"/><path d="M-258.74,142l.26,9.62-12.48-.17.09,3.56,6.38-.36,0,5.89h-5.79l.13,4.1,12-.72.14,11.55-22.91.66-1.91-34.09Z" transform="translate(409 -2.58)" style="fill:#d86600"/><path d="M-231.56,143.53c1.6-.35,3.21-.66,4.83-.91s3.28-.45,5-.6q5.08-.41,12,2.45,4.71,2,5.12,6c.3,2.65-.83,4.71-3.39,6.2q6.06.7,8.74,3.61a8.29,8.29,0,0,1,2.32,6.24,9.53,9.53,0,0,1-3.17,6.1,12.76,12.76,0,0,1-8,3.26c-1.93.17-3.75.27-5.48.29a49.11,49.11,0,0,1-4.94-.2c-1.58-.15-3.18-.36-4.79-.63s-3.28-.61-5-1ZM-219.13,154l1.79-.18a9.07,9.07,0,0,0,1.6-.32c1-.26,1.56-.74,1.65-1.42.12-1.28-.66-2.05-2.32-2.32-.83-.15-1.51-.24-2.05-.29a5,5,0,0,0-1.2,0Zm1.92,13.81a22.92,22.92,0,0,1,3.83-.27c1.9-.09,2.81-.92,2.72-2.49-.09-1.81-1.16-2.8-3.21-2.94-1-.09-1.84-.14-2.49-.16a8.16,8.16,0,0,0-1.47.07Z" transform="translate(409 -2.58)" style="fill:#d86600"/><path d="M-178.53,145.72c-.15.41-.34,1-.58,1.67s-.52,1.54-.85,2.52a28,28,0,0,0-1.2,6,10.88,10.88,0,0,0,.71,5.44q1,2.35,4.51,2.27a3.93,3.93,0,0,0,3.56-1.56,7.83,7.83,0,0,0,1.25-3.88,18.93,18.93,0,0,0-.18-4.85l-.62-4.59,9.49-1.83c.36,1.13.73,2.38,1.14,3.76s.8,2.92,1.22,4.62a22.89,22.89,0,0,1,.58,9.67,13,13,0,0,1-4.59,8q-3.84,3.28-13,3.2-8.77,0-12.39-4.14a16.92,16.92,0,0,1-4.28-9.67,33,33,0,0,1-.13-5.62A33,33,0,0,1-193,151a88.69,88.69,0,0,1,2.54-9Z" transform="translate(409 -2.58)" style="fill:#d86600"/><path d="M-155.71,143.76-125,142l.54,15.42-11.72-.63,3.52,19.34-15.06-1.6,2.58-17.38-10.83.31Z" transform="translate(409 -2.58)" style="fill:#d86600"/><path d="M-73.49,142l10.43,30.3-11,3.83-2.19-6.68h-8.55l-2,6.55-10.87-5.08,11.09-28.08Zm-3.66,20.45-3.25-7.89-3.34,7.76Z" transform="translate(409 -2.58)" style="fill:#d86600"/><path d="M-47.51,142l1.43,25.67,11.36-1.56.27,8.56-22.24,1.51-3.61-33.78Z" transform="translate(409 -2.58)" style="fill:#d86600"/><path d="M-29.06,162.74a29.89,29.89,0,0,0,4.46,1.52,18.8,18.8,0,0,0,4,.66c1.1.06,1.76-.09,2-.44s-.23-1-1.51-1.83-2.71-1.94-4-3-2.6-2.12-3.88-3.28a8.42,8.42,0,0,1-2.81-8.24q.95-4.86,4.68-5.71a16.57,16.57,0,0,1,8.2.31,35.64,35.64,0,0,1,8.47,3.57,26.82,26.82,0,0,1,5.61,4l-4.18,6.51a6.17,6.17,0,0,0-1.3-1c-.53-.31-1.19-.66-2-1.05a23.57,23.57,0,0,0-4.05-1.51c-1.16-.27-1.85-.21-2,.17s.74,1.37,2.76,3a73.89,73.89,0,0,0,6.46,4.72c1.52.95,2.51,2.81,3,5.57a5.8,5.8,0,0,1-2.28,6,16.41,16.41,0,0,1-7.3,2.94,28.82,28.82,0,0,1-9.27,0,19.42,19.42,0,0,1-8.07-2.9Z" transform="translate(409 -2.58)" style="fill:#d86600"/><path d="M33,160.6q-.54,7.85-6.06,11.72a20,20,0,0,1-11.9,3.83,18.7,18.7,0,0,1-11.54-3.92q-5.18-3.82-5-11.63A16.73,16.73,0,0,1,.4,153a21.69,21.69,0,0,1,4.81-5.93,20.68,20.68,0,0,1,6.42-3.79,17.63,17.63,0,0,1,6.9-1.24,16.87,16.87,0,0,1,4.19.93,15.52,15.52,0,0,1,5,2.94,16.88,16.88,0,0,1,4,5.66A20.07,20.07,0,0,1,33,160.6Zm-12.52-4a.8.8,0,0,0,.31-.23.93.93,0,0,0,.26-.27,3.28,3.28,0,0,0,1.12-2.45,4.58,4.58,0,0,0-.76-2.36l-.22-.2c-.09-.07-.18-.16-.27-.24l-.2-.21a2.31,2.31,0,0,0-.24-.2,6.27,6.27,0,0,0-2.32-.89,4.22,4.22,0,0,0-2.68.4,5.05,5.05,0,0,0-1,.54c-.44.3-.69.48-.75.53a3.61,3.61,0,0,0-1.16,2.63,4.56,4.56,0,0,0,.93,2.5l.16.18a1.29,1.29,0,0,0,.16.18,1.81,1.81,0,0,1,.35.26,4.84,4.84,0,0,0,6.33-.22Z" transform="translate(409 -2.58)" style="fill:#d86600"/><path d="M-371.76,196.39l3.34,15.42L-365,201l5.84-.09,2.36,10.11,3.16-13.77,13.64-1.11-9.8,32.31-9.1,1.2L-362.54,218-366,230l-9.14-1.47-9.8-33Z" transform="translate(409 -2.58)" style="fill:#d86600"/><path d="M-336.78,196.88l10.39-.63v11.5l7.62-.13V196.16l11.85-.66-1.56,32-10.29,1.16V216.53l-7.62.18v12l-9,.89Z" transform="translate(409 -2.58)" style="fill:#d86600"/><path d="M-280.36,195.5l.27,9.62-12.48-.18.09,3.57,6.37-.36.05,5.88h-5.8l.14,4.1,12-.71.13,11.54-22.9.67-1.92-34.09Z" transform="translate(409 -2.58)" style="fill:#d86600"/><path d="M-274.48,195.5l10.7.89L-255,212l-1.52-14.84h10.21l.67,29.42-11.9,3.07-8.78-17.6-.76,16.22-10.2-2.41,2.8-29.77Z" transform="translate(409 -2.58)" style="fill:#d86600"/><path d="M-218.95,195.5l12.79.84-.62,32.94-11.32.35Z" transform="translate(409 -2.58)" style="fill:#d86600"/><path d="M-204.24,197.23l30.7-1.73.54,15.41-11.72-.62,3.52,19.34-15.07-1.6,2.59-17.38-10.83.31Z" transform="translate(409 -2.58)" style="fill:#d86600"/><path d="M-156.92,188.9l-4.54,16.49-5.39-.71-3-18.19Z" transform="translate(409 -2.58)" style="fill:#d86600"/><path d="M-151.26,216.22a30.28,30.28,0,0,0,4.46,1.51,18.36,18.36,0,0,0,4,.67c1.1.06,1.75-.09,2-.44s-.24-1-1.52-1.83-2.7-1.94-4-3-2.6-2.12-3.88-3.28a8.43,8.43,0,0,1-2.8-8.25q.93-4.84,4.68-5.7a16.58,16.58,0,0,1,8.2.31,35.16,35.16,0,0,1,8.46,3.57,26.32,26.32,0,0,1,5.62,4l-4.19,6.51a6.36,6.36,0,0,0-1.29-1c-.54-.32-1.19-.66-2-1a24.62,24.62,0,0,0-4.06-1.52c-1.16-.26-1.84-.2-2,.18s.74,1.37,2.76,3a72.2,72.2,0,0,0,6.47,4.73c1.51.95,2.51,2.81,3,5.57a5.78,5.78,0,0,1-2.27,6,16.35,16.35,0,0,1-7.31,2.95,28.82,28.82,0,0,1-9.27,0,19.56,19.56,0,0,1-8.07-2.9Z" transform="translate(409 -2.58)" style="fill:#d86600"/><path d="M-71.53,204.59q-8.68-1.47-12.61,1.91t-3.48,7.13q.45,3.8,5,5.8t13-2.23l4.63,9.36a21.93,21.93,0,0,1-9.93,3,32.32,32.32,0,0,1-11.28-1.07,24.12,24.12,0,0,1-9.36-5,11.81,11.81,0,0,1-4.1-8.78,15,15,0,0,1,2.9-9.89,22,22,0,0,1,7.84-6.64,24.7,24.7,0,0,1,10.16-2.63,18.34,18.34,0,0,1,9.72,2Z" transform="translate(409 -2.58)" style="fill:#d86600"/><path d="M-27.63,214.08q-.54,7.84-6.07,11.72a20.08,20.08,0,0,1-11.89,3.83,18.81,18.81,0,0,1-11.55-3.92q-5.16-3.83-5-11.63a16.85,16.85,0,0,1,1.91-7.62,21.75,21.75,0,0,1,4.82-5.93A20.55,20.55,0,0,1-49,196.74a17.5,17.5,0,0,1,6.91-1.24,16.87,16.87,0,0,1,4.19.93,15.73,15.73,0,0,1,5,2.94,16.78,16.78,0,0,1,4,5.66A20.19,20.19,0,0,1-27.63,214.08Zm-12.53-4a.73.73,0,0,0,.31-.22,1.15,1.15,0,0,0,.27-.27,3.32,3.32,0,0,0,1.12-2.45,4.67,4.67,0,0,0-.76-2.36,2.3,2.3,0,0,0-.22-.2l-.27-.25c-.06-.06-.13-.12-.2-.2a2.43,2.43,0,0,0-.25-.2,6.15,6.15,0,0,0-2.31-.89,4.15,4.15,0,0,0-2.68.4,5.05,5.05,0,0,0-1,.54,8.69,8.69,0,0,0-.76.53A3.63,3.63,0,0,0-48,207.17a4.6,4.6,0,0,0,.94,2.5l.16.18.15.17.18.11.18.16a4.89,4.89,0,0,0,2.9,1.07,4.82,4.82,0,0,0,3.43-1.29Z" transform="translate(409 -2.58)" style="fill:#d86600"/><path d="M-11.73,195.45l1.43,25.67,11.36-1.56.27,8.56-22.24,1.51-3.61-33.78Z" transform="translate(409 -2.58)" style="fill:#d86600"/><path d="M3.6,197.37a38.88,38.88,0,0,1,15.74-1.56,23.87,23.87,0,0,1,15.86,7.57A10.77,10.77,0,0,1,38.05,209a14.63,14.63,0,0,1,.2,3.18,12.94,12.94,0,0,1-.55,3.24,18.9,18.9,0,0,1-3.39,6.15,17.19,17.19,0,0,1-6.11,4.54,39.28,39.28,0,0,1-11.27,3.12,33.23,33.23,0,0,1-11,0ZM18,215.64a6.71,6.71,0,0,0,2.81-.49,10.14,10.14,0,0,0,2.81-1.7A5.86,5.86,0,0,0,25.35,211a2.93,2.93,0,0,0-.49-2.85c-.65-.89-1.91-1.46-3.79-1.7a16.26,16.26,0,0,0-4.19-.13Z" transform="translate(409 -2.58)" style="fill:#d86600"/><path d="M-290.85,249l10.42,30.31-11.05,3.83-2.18-6.68h-8.56l-2,6.55-10.88-5.08,11.1-28.08Zm-3.66,20.46-3.25-7.89-3.34,7.76Z" transform="translate(409 -2.58)" style="fill:#d86600"/><path d="M-274.85,249l10.69.89,8.78,15.6-1.52-14.84h10.21L-246,280l-11.9,3.07-8.78-17.6-.76,16.22-10.2-2.41,2.81-29.77Z" transform="translate(409 -2.58)" style="fill:#d86600"/><path d="M-243.44,250.85a38.83,38.83,0,0,1,15.73-1.56,23.89,23.89,0,0,1,15.87,7.57,10.92,10.92,0,0,1,2.85,5.62,14.63,14.63,0,0,1,.2,3.18,12.86,12.86,0,0,1-.55,3.23,18.7,18.7,0,0,1-3.39,6.15,17.19,17.19,0,0,1-6.11,4.55,39.38,39.38,0,0,1-11.27,3.12,33.2,33.2,0,0,1-11,0ZM-229,269.12a6.71,6.71,0,0,0,2.81-.49,10.29,10.29,0,0,0,2.81-1.7,5.86,5.86,0,0,0,1.69-2.49,2.93,2.93,0,0,0-.49-2.85c-.65-.9-1.92-1.46-3.79-1.7a15.82,15.82,0,0,0-4.19-.13Z" transform="translate(409 -2.58)" style="fill:#d86600"/><path d="M-181.54,250.85a38.83,38.83,0,0,1,15.73-1.56,23.89,23.89,0,0,1,15.87,7.57,10.92,10.92,0,0,1,2.85,5.62,14.63,14.63,0,0,1,.2,3.18,12.44,12.44,0,0,1-.56,3.23,18.49,18.49,0,0,1-3.38,6.15,17.19,17.19,0,0,1-6.11,4.55,39.47,39.47,0,0,1-11.27,3.12,33.2,33.2,0,0,1-11,0Zm14.44,18.27a6.71,6.71,0,0,0,2.81-.49,10.29,10.29,0,0,0,2.81-1.7,5.86,5.86,0,0,0,1.69-2.49,2.93,2.93,0,0,0-.49-2.85c-.65-.9-1.92-1.46-3.79-1.7a15.82,15.82,0,0,0-4.19-.13Z" transform="translate(409 -2.58)" style="fill:#d86600"/><path d="M-131.58,282.17l-10.56-1.33-1.61-31.47a38.13,38.13,0,0,1,7.58-.35c1.48.06,2.93.17,4.34.33s2.83.38,4.26.65a35.6,35.6,0,0,1,7.49,2.4q3.35,1.65,4.23,3.84a6.27,6.27,0,0,1-.67,6,18,18,0,0,1-5,5l12.47,7.84-10.74,8.07-10-13.15-2.23,0Zm-1.11-19.43a10,10,0,0,0,4.54-1.69,4.32,4.32,0,0,0,2-2.67,2.51,2.51,0,0,0-1.34-2.5q-1.51-1.11-5.25-1.25Z" transform="translate(409 -2.58)" style="fill:#d86600"/><path d="M-82.29,249l.27,9.63-12.48-.18.09,3.57,6.37-.36,0,5.88h-5.79l.13,4.1,12-.71.13,11.54-22.91.67L-106.31,249Z" transform="translate(409 -2.58)" style="fill:#d86600"/><path d="M-55,249l10.42,30.31-11.05,3.83-2.18-6.68h-8.56l-2,6.55-10.88-5.08,11.1-28.08Zm-3.66,20.46-3.25-7.89-3.34,7.76Z" transform="translate(409 -2.58)" style="fill:#d86600"/><path d="M-29.62,282.17l-10.56-1.33-1.6-31.47a38,38,0,0,1,7.57-.35q2.24.09,4.35.33c1.41.17,2.83.38,4.25.65a35.41,35.41,0,0,1,7.49,2.4q3.35,1.65,4.23,3.84a6.26,6.26,0,0,1-.66,6,18,18,0,0,1-5,5L-7.11,275l-10.74,8.07-10-13.15-2.23,0Zm-1.11-19.43a10,10,0,0,0,4.54-1.69,4.34,4.34,0,0,0,2-2.67,2.53,2.53,0,0,0-1.34-2.5q-1.52-1.11-5.26-1.25Z" transform="translate(409 -2.58)" style="fill:#d86600"/></svg>