<svg id="Слой_1" data-name="Слой 1" xmlns="http://www.w3.org/2000/svg" viewBox="0 0 541.08 148.31"><title>опалубка_кор</title><rect x="11.25" y="1.74" width="529.83" height="146.57" rx="12" ry="12" style="fill:#3a301f"/><rect width="529.83" height="146.57" rx="12" ry="12" style="fill:#fff"/><path d="M-333.19,163.5a33.49,33.49,0,0,0,4.87,1.66,20.44,20.44,0,0,0,4.33.73c1.2.06,1.92-.1,2.15-.49s-.26-1.05-1.66-2-2.95-2.11-4.38-3.23-2.84-2.32-4.24-3.58a9.21,9.21,0,0,1-3.06-9c.68-3.54,2.38-5.61,5.11-6.23a18,18,0,0,1,9,.34,38.69,38.69,0,0,1,9.25,3.89,29.31,29.31,0,0,1,6.13,4.39l-4.57,7.11a6.79,6.79,0,0,0-1.42-1.05c-.58-.34-1.29-.72-2.14-1.15a27,27,0,0,0-4.43-1.65c-1.27-.29-2-.23-2.24.19s.81,1.5,3,3.31a77.86,77.86,0,0,0,7.06,5.17c1.66,1,2.74,3.06,3.26,6.08a6.34,6.34,0,0,1-2.48,6.58,17.84,17.84,0,0,1-8,3.21,31.22,31.22,0,0,1-10.12,0,21.22,21.22,0,0,1-8.82-3.17Z" transform="translate(431.26 -85.93)" style="fill:#d86600"/><path d="M-303.1,142.37l11.35-.68v12.56l8.32-.15V141.59l12.95-.73-1.7,35-11.25,1.27v-13.3l-8.32.2v13.14l-9.84,1Z" transform="translate(431.26 -85.93)" style="fill:#d86600"/><path d="M-250.95,144.9c-.17.46-.38,1.07-.64,1.83s-.56,1.68-.92,2.75a30.62,30.62,0,0,0-1.32,6.57A12,12,0,0,0-253,162q1.13,2.58,4.92,2.49a4.31,4.31,0,0,0,3.9-1.71,8.52,8.52,0,0,0,1.36-4.23,21.17,21.17,0,0,0-.19-5.31l-.69-5,10.37-2c.39,1.23.81,2.6,1.25,4.11s.88,3.19,1.34,5a25,25,0,0,1,.63,10.57,14.09,14.09,0,0,1-5,8.71c-2.79,2.41-7.51,3.57-14.17,3.51q-9.59,0-13.53-4.53a18.47,18.47,0,0,1-4.68-10.57,35.88,35.88,0,0,1-.14-6.13,35.29,35.29,0,0,1,1-6.23,95.85,95.85,0,0,1,2.78-9.84Z" transform="translate(431.26 -85.93)" style="fill:#d86600"/><path d="M-226,142.76l33.54-1.9.59,16.85L-204.7,157l3.85,21.13-16.46-1.75,2.83-19-11.84.34Z" transform="translate(431.26 -85.93)" style="fill:#d86600"/><path d="M-188.73,142.76l33.55-1.9.58,16.85-12.8-.68,3.85,21.13L-180,176.41l2.82-19-11.83.34Z" transform="translate(431.26 -85.93)" style="fill:#d86600"/><path d="M-125.48,140.86l.29,10.52-13.63-.2.1,3.9,7-.39,0,6.43H-138l.14,4.48,13.15-.78.15,12.61-25,.73-2.09-37.25Z" transform="translate(431.26 -85.93)" style="fill:#d86600"/><path d="M-108.83,177.14l-11.54-1.46-1.75-34.38a41.1,41.1,0,0,1,8.28-.39c1.62.07,3.2.19,4.74.37s3.1.41,4.65.7a39.28,39.28,0,0,1,8.18,2.63q3.66,1.8,4.63,4.19a6.84,6.84,0,0,1-.73,6.52,19.59,19.59,0,0,1-5.5,5.46l13.63,8.57L-96,178.16l-11-14.37-2.43,0ZM-110,155.91a11.13,11.13,0,0,0,5-1.85,4.74,4.74,0,0,0,2.14-2.92,2.72,2.72,0,0,0-1.46-2.73c-1.1-.81-3-1.27-5.74-1.36Z" transform="translate(431.26 -85.93)" style="fill:#d86600"/><path d="M-81.22,140.86l14,.93-.68,36-12.37.39Z" transform="translate(431.26 -85.93)" style="fill:#d86600"/><path d="M-62.38,140.86l11.69,1,9.59,17-1.66-16.22h11.15l.73,32.14-13,3.36-9.59-19.23-.83,17.72L-65.45,174l3.07-32.53Z" transform="translate(431.26 -85.93)" style="fill:#d86600"/><path d="M-1.47,152.26a12.26,12.26,0,0,0-5.11-1.51,12.13,12.13,0,0,0-5.31.87,10.17,10.17,0,0,0-4,3.36,9,9,0,0,0-1.31,5.84,8.15,8.15,0,0,0,2,5.07,8,8,0,0,0,4.29,2.43,6.53,6.53,0,0,0,4.62-.78,7.89,7.89,0,0,0,3.36-4.72l-4.53.1.78-5.5,11.54-.1a12.39,12.39,0,0,1,.54,4.58,19.71,19.71,0,0,1-.64,4.57A15.66,15.66,0,0,1-1.32,175a17.8,17.8,0,0,1-9.35,3.17,15.55,15.55,0,0,1-4.89-.59,18,18,0,0,1-4.75-2.14q-4.57-2.87-6.77-9.44a17.17,17.17,0,0,1,0-11.89A20.9,20.9,0,0,1-24.3,149a20.28,20.28,0,0,1,3.89-4,19.37,19.37,0,0,1,10.32-4,15.4,15.4,0,0,1,11,3.26Z" transform="translate(431.26 -85.93)" style="fill:#d86600"/></svg>