<svg id="Слой_1" data-name="Слой 1" xmlns="http://www.w3.org/2000/svg" viewBox="0 0 541.08 148.31"><title>горка_кор</title><rect x="11.25" y="1.74" width="529.83" height="146.57" rx="12" ry="12" style="fill:#3a301f"/><rect width="529.83" height="146.57" rx="12" ry="12" style="fill:#fff"/><path d="M-209.89,112.19l8.18,7.88-9.94,10.57,10,10.57-10.51,7.25-11-12.61.14,11.88-12.27.88-1.85-36.76,14.12-.54.1,18.16Z" transform="translate(431.81 -85.64)" style="fill:#d86600"/><path d="M-198.74,111.31l14,.92-.68,36-12.37.39Z" transform="translate(431.81 -85.64)" style="fill:#d86600"/><path d="M-183,113.35q7.2-2.47,17.19-1.7a26.12,26.12,0,0,1,17.33,8.28,11.78,11.78,0,0,1,3.12,6.13,16.79,16.79,0,0,1,.22,3.48,14.28,14.28,0,0,1-.61,3.53,20.29,20.29,0,0,1-3.7,6.72,18.78,18.78,0,0,1-6.67,5,43.61,43.61,0,0,1-12.32,3.41,36.42,36.42,0,0,1-12.08,0Zm15.78,20a7.29,7.29,0,0,0,3.06-.54,10.93,10.93,0,0,0,3.07-1.85,6.43,6.43,0,0,0,1.85-2.72,3.22,3.22,0,0,0-.53-3.12c-.72-1-2.1-1.59-4.14-1.85a17.65,17.65,0,0,0-4.58-.15Z" transform="translate(431.81 -85.64)" style="fill:#d86600"/><path d="M-138.27,134a33.08,33.08,0,0,0,4.87,1.66,21,21,0,0,0,4.33.73c1.2.06,1.91-.1,2.14-.49s-.26-1-1.65-2-3-2.11-4.38-3.23-2.85-2.32-4.24-3.58a9.21,9.21,0,0,1-3.07-9c.68-3.54,2.39-5.62,5.11-6.23a18,18,0,0,1,9,.34,38,38,0,0,1,9.25,3.89,29.11,29.11,0,0,1,6.14,4.38l-4.58,7.11a7.37,7.37,0,0,0-1.41-1c-.58-.34-1.3-.72-2.14-1.15a26.09,26.09,0,0,0-4.43-1.65c-1.27-.29-2-.23-2.24.19s.81,1.5,3,3.31a74.12,74.12,0,0,0,7.06,5.16q2.48,1.56,3.26,6.09a6.32,6.32,0,0,1-2.49,6.57,17.75,17.75,0,0,1-8,3.22,31.28,31.28,0,0,1-10.13,0,21.23,21.23,0,0,1-8.81-3.17Z" transform="translate(431.81 -85.64)" style="fill:#d86600"/><path d="M-94.65,97.19l-10.81,15.63-3.06-1.51,2.82-15.39Z" transform="translate(431.81 -85.64)" style="fill:#d86600"/><path d="M-340.14,195.3l.49,11.73-10.62-1.26-2.48-35.93c.91-.07,2-.1,3.21-.1s2.66,0,4.29.14a45.56,45.56,0,0,1,9.54,1.42,25.7,25.7,0,0,1,8.23,3.5,7.32,7.32,0,0,1,3.51,6.33,11.14,11.14,0,0,1-5.16,9.69,25.11,25.11,0,0,1-11,4.53Zm-1.36-6.48a11,11,0,0,0,4.82-2.48,5.58,5.58,0,0,0,2-3.46,3.26,3.26,0,0,0-1.55-3q-1.86-1.31-5.89-1.16Z" transform="translate(431.81 -85.64)" style="fill:#d86600"/><path d="M-307.42,169.69l1.56,28,12.41-1.7.3,9.35-24.3,1.65-3.94-36.9Z" transform="translate(431.81 -85.64)" style="fill:#d86600"/><path d="M-264.18,169.74l11.39,33.11L-264.86,207l-2.39-7.3h-9.35l-2.19,7.16-11.88-5.55,12.12-30.68Zm-4,22.35-3.55-8.62-3.65,8.47Z" transform="translate(431.81 -85.64)" style="fill:#d86600"/><path d="M-249.77,180.4l8.32-6.33,6.82,9.06,5.41-13.39,11.39,1.9L-236.72,207-245.1,201l6.87-11.15Z" transform="translate(431.81 -85.64)" style="fill:#d86600"/><path d="M-188.52,181.13a12.41,12.41,0,0,0-5.11-1.51,12.14,12.14,0,0,0-5.31.88,10.09,10.09,0,0,0-4,3.36,9,9,0,0,0-1.31,5.84,8.09,8.09,0,0,0,2,5.06A8,8,0,0,0-198,197.2a6.64,6.64,0,0,0,4.62-.78A7.92,7.92,0,0,0-190,191.7l-4.53.09.78-5.5,11.54-.1a12.42,12.42,0,0,1,.54,4.58,19.8,19.8,0,0,1-.64,4.58,15.73,15.73,0,0,1-6.08,8.52,17.81,17.81,0,0,1-9.35,3.16,15.64,15.64,0,0,1-4.9-.58,18.46,18.46,0,0,1-4.74-2.14q-4.57-2.88-6.77-9.45a17.14,17.14,0,0,1,0-11.88,21,21,0,0,1,2.73-5.14,20.51,20.51,0,0,1,3.89-4,19.29,19.29,0,0,1,10.32-4,15.35,15.35,0,0,1,11,3.26Z" transform="translate(431.81 -85.64)" style="fill:#d86600"/><path d="M-165.44,206-177,204.55l-1.75-34.37a41,41,0,0,1,8.27-.39c1.63.06,3.21.18,4.75.36s3.09.41,4.65.71a38.69,38.69,0,0,1,8.18,2.63q3.66,1.8,4.63,4.18a6.89,6.89,0,0,1-.73,6.53,19.69,19.69,0,0,1-5.5,5.45l13.63,8.57L-152.59,207l-10.95-14.36-2.44,0Zm-1.22-21.23a11,11,0,0,0,5-1.85,4.72,4.72,0,0,0,2.14-2.92,2.74,2.74,0,0,0-1.46-2.73c-1.1-.81-3-1.26-5.74-1.36Z" transform="translate(431.81 -85.64)" style="fill:#d86600"/><path d="M-100.1,190q-.59,8.57-6.62,12.81a21.9,21.9,0,0,1-13,4.18,20.47,20.47,0,0,1-12.61-4.28q-5.65-4.19-5.5-12.71a18.21,18.21,0,0,1,2.09-8.32,23.88,23.88,0,0,1,5.26-6.48,22.15,22.15,0,0,1,7-4.14,19.18,19.18,0,0,1,7.55-1.36,17.86,17.86,0,0,1,4.57,1,16.94,16.94,0,0,1,5.51,3.21,18.29,18.29,0,0,1,4.38,6.19A22,22,0,0,1-100.1,190Zm-13.68-4.33c.19-.1.31-.18.34-.25a1,1,0,0,0,.29-.29,3.62,3.62,0,0,0,1.22-2.68,5.08,5.08,0,0,0-.83-2.58l-.24-.22-.29-.26-.22-.22a1.44,1.44,0,0,0-.27-.22,6.75,6.75,0,0,0-2.53-1,4.56,4.56,0,0,0-2.92.44,5.11,5.11,0,0,0-1.07.59,8.89,8.89,0,0,0-.83.58,4,4,0,0,0-1.27,2.87,5,5,0,0,0,1,2.73,1,1,0,0,1,.17.2l.17.19a1.06,1.06,0,0,1,.2.12l.19.17a5.28,5.28,0,0,0,3.17,1.17,5.25,5.25,0,0,0,3.75-1.41Z" transform="translate(431.81 -85.64)" style="fill:#d86600"/><path d="M-79.94,173.78c-.16.45-.37,1.06-.63,1.82s-.57,1.68-.93,2.76a30,30,0,0,0-1.31,6.57,11.88,11.88,0,0,0,.77,5.94q1.13,2.58,4.92,2.48a4.33,4.33,0,0,0,3.9-1.7,8.58,8.58,0,0,0,1.36-4.24A21.17,21.17,0,0,0-72,182.1l-.68-5,10.37-2c.39,1.24.8,2.61,1.24,4.12s.88,3.19,1.34,5a25,25,0,0,1,.63,10.56,14.11,14.11,0,0,1-5,8.72q-4.18,3.6-14.16,3.5-9.6,0-13.54-4.52a18.42,18.42,0,0,1-4.67-10.57,34.92,34.92,0,0,1-.15-6.13,35.4,35.4,0,0,1,1-6.24,94.79,94.79,0,0,1,2.78-9.83Z" transform="translate(431.81 -85.64)" style="fill:#d86600"/><path d="M-52.24,169.74l11.69,1,9.59,17-1.66-16.21h11.16l.73,32.13-13,3.36-9.6-19.23-.82,17.72L-55.3,202.9l3.06-32.53Z" transform="translate(431.81 -85.64)" style="fill:#d86600"/><path d="M-17.91,171.78q7.2-2.47,17.19-1.7a26,26,0,0,1,17.33,8.28,11.82,11.82,0,0,1,3.12,6.13A17.51,17.51,0,0,1,20,188a14.36,14.36,0,0,1-.61,3.53,20.29,20.29,0,0,1-3.7,6.72,19,19,0,0,1-6.67,5A43.61,43.61,0,0,1-3.35,206.6a36.42,36.42,0,0,1-12.08,0Zm15.78,20a7.29,7.29,0,0,0,3.06-.54A11.17,11.17,0,0,0,4,189.36a6.4,6.4,0,0,0,1.85-2.73,3.19,3.19,0,0,0-.54-3.11c-.71-1-2.09-1.59-4.13-1.85a17.65,17.65,0,0,0-4.58-.15Z" transform="translate(431.81 -85.64)" style="fill:#d86600"/></svg>