<svg id="Слой_1" data-name="Слой 1" xmlns="http://www.w3.org/2000/svg" viewBox="0 0 541.08 148.31"><title>лошадка_кор</title><rect x="11.25" y="1.74" width="529.83" height="146.57" rx="12" ry="12" style="fill:#3a301f"/><rect width="529.83" height="146.57" rx="12" ry="12" style="fill:#fff"/><path d="M-296.65,141.24l8.18,7.89-9.93,10.56,10,10.57-10.52,7.25L-310,164.9l.15,11.88-12.27.88L-324,140.9l14.12-.54.09,18.17Z" transform="translate(432.09 -85.43)" style="fill:#d86600"/><path d="M-285.5,140.36l14,.93-.69,36-12.36.39Z" transform="translate(432.09 -85.43)" style="fill:#d86600"/><path d="M-269.72,142.41q7.2-2.49,17.18-1.7A26.07,26.07,0,0,1-235.2,149a11.87,11.87,0,0,1,3.11,6.14,16,16,0,0,1,.22,3.48,14,14,0,0,1-.61,3.53,20.11,20.11,0,0,1-3.7,6.72,18.66,18.66,0,0,1-6.67,5,43.1,43.1,0,0,1-12.32,3.41,36.09,36.09,0,0,1-12.07-.05Zm15.77,20a7.16,7.16,0,0,0,3.07-.53,11.32,11.32,0,0,0,3.07-1.85,6.49,6.49,0,0,0,1.85-2.73,3.21,3.21,0,0,0-.54-3.12c-.71-1-2.09-1.59-4.14-1.85a17.48,17.48,0,0,0-4.57-.14Z" transform="translate(432.09 -85.43)" style="fill:#d86600"/><path d="M-225,163a33.9,33.9,0,0,0,4.87,1.65,19.89,19.89,0,0,0,4.34.73c1.2.07,1.91-.1,2.14-.49s-.26-1.05-1.66-2-2.95-2.12-4.38-3.24-2.84-2.31-4.24-3.58a9.22,9.22,0,0,1-3.06-9q1-5.29,5.11-6.23a18.1,18.1,0,0,1,9,.34,38.55,38.55,0,0,1,9.25,3.9,29,29,0,0,1,6.13,4.38l-4.57,7.11a7,7,0,0,0-1.41-1.05c-.59-.34-1.3-.72-2.15-1.14a25.88,25.88,0,0,0-4.43-1.66c-1.26-.29-2-.22-2.24.2s.81,1.49,3,3.31a79.34,79.34,0,0,0,7.06,5.16c1.66,1,2.74,3.07,3.26,6.08a6.34,6.34,0,0,1-2.48,6.58,17.84,17.84,0,0,1-8,3.21,31.29,31.29,0,0,1-10.13,0,21.22,21.22,0,0,1-8.82-3.16Z" transform="translate(432.09 -85.43)" style="fill:#d86600"/><path d="M-181.4,126.24l-10.81,15.63-3.07-1.51,2.83-15.38Z" transform="translate(432.09 -85.43)" style="fill:#d86600"/><path d="M-152.29,142.26l33.55-1.9.59,16.85-12.81-.68,3.85,21.13-16.46-1.75,2.82-19-11.83.34Z" transform="translate(432.09 -85.43)" style="fill:#d86600"/><path d="M-77.55,160.67q-.58,8.57-6.62,12.8a21.89,21.89,0,0,1-13,4.19,20.53,20.53,0,0,1-12.61-4.28q-5.66-4.19-5.5-12.71a18.25,18.25,0,0,1,2.09-8.33,23.68,23.68,0,0,1,5.26-6.47,22.15,22.15,0,0,1,7-4.14,19.2,19.2,0,0,1,7.55-1.37,18.55,18.55,0,0,1,4.58,1,17,17,0,0,1,5.5,3.21,18.35,18.35,0,0,1,4.38,6.18A21.88,21.88,0,0,1-77.55,160.67Zm-13.68-4.34c.2-.09.31-.17.34-.24a1.13,1.13,0,0,0,.29-.29,3.62,3.62,0,0,0,1.22-2.68,5,5,0,0,0-.83-2.58,2.85,2.85,0,0,0-.24-.22,2.44,2.44,0,0,1-.29-.27l-.22-.22a1.39,1.39,0,0,0-.27-.21,6.75,6.75,0,0,0-2.53-1,4.5,4.5,0,0,0-2.92.44,5.14,5.14,0,0,0-1.07.58,8,8,0,0,0-.83.59,3.93,3.93,0,0,0-1.27,2.87,5,5,0,0,0,1,2.73,1.57,1.57,0,0,1,.18.19,1,1,0,0,0,.17.2,1,1,0,0,1,.19.12l.2.17a5.35,5.35,0,0,0,3.16,1.17,5.25,5.25,0,0,0,3.75-1.41Z" transform="translate(432.09 -85.43)" style="fill:#d86600"/><path d="M-74.14,151l8.33-6.33,6.81,9.05,5.41-13.39,11.39,1.9-18.89,35.4-8.38-6.09,6.87-11.14Z" transform="translate(432.09 -85.43)" style="fill:#d86600"/><path d="M-36.06,163a33.35,33.35,0,0,0,4.86,1.65,19.89,19.89,0,0,0,4.34.73c1.2.07,1.91-.1,2.14-.49s-.26-1.05-1.66-2-2.95-2.12-4.38-3.24-2.84-2.31-4.23-3.58a9.21,9.21,0,0,1-3.07-9c.68-3.53,2.39-5.61,5.11-6.23a18.09,18.09,0,0,1,9,.34,38.55,38.55,0,0,1,9.25,3.9,29.11,29.11,0,0,1,6.14,4.38l-4.58,7.11a7,7,0,0,0-1.41-1.05c-.59-.34-1.3-.72-2.14-1.14a26.27,26.27,0,0,0-4.44-1.66c-1.26-.29-2-.22-2.24.2s.82,1.49,3,3.31a80.84,80.84,0,0,0,7.06,5.16q2.49,1.56,3.27,6.08a6.34,6.34,0,0,1-2.49,6.58,17.8,17.8,0,0,1-8,3.21,31.29,31.29,0,0,1-10.13,0,21.17,21.17,0,0,1-8.81-3.16Z" transform="translate(432.09 -85.43)" style="fill:#d86600"/></svg>