<svg id="Слой_1" data-name="Слой 1" xmlns="http://www.w3.org/2000/svg" viewBox="0 0 541.08 148.31"><title>шкаф_кор</title><rect x="11.25" y="1.74" width="529.83" height="146.57" rx="12" ry="12" style="fill:#3a301f"/><rect width="529.83" height="146.57" rx="12" ry="12" style="fill:#fff"/><path d="M-313.27,112.85l3.65,16.85,3.7-11.83,6.38-.1,2.58,11,3.45-15,14.9-1.22-10.71,35.3-9.93,1.32-3.95-12.71-3.79,13.1L-317,148l-10.71-36.08Z" transform="translate(431.53 -85.69)" style="fill:#d86600"/><path d="M-248.57,111.88l11.4,33.11-12.08,4.19-2.38-7.31H-261l-2.19,7.16L-275,143.48l12.12-30.67Zm-4,22.35-3.55-8.62-3.65,8.47Z" transform="translate(431.53 -85.69)" style="fill:#d86600"/><path d="M-220.86,148.15l-11.54-1.46-1.75-34.37a41,41,0,0,1,8.27-.39c1.63.06,3.21.19,4.75.36s3.09.42,4.65.71a39.28,39.28,0,0,1,8.18,2.63c2.43,1.2,4,2.6,4.63,4.19a6.87,6.87,0,0,1-.73,6.52,19.6,19.6,0,0,1-5.51,5.45l13.64,8.57L-208,149.18l-11-14.37-2.44-.05Zm-1.22-21.22a11.18,11.18,0,0,0,5-1.85,4.73,4.73,0,0,0,2.14-2.93,2.73,2.73,0,0,0-1.46-2.72q-1.65-1.22-5.75-1.37Z" transform="translate(431.53 -85.69)" style="fill:#d86600"/><path d="M-193.25,113.93q7.2-2.49,17.18-1.71a26.13,26.13,0,0,1,17.34,8.28,11.84,11.84,0,0,1,3.11,6.13,16.13,16.13,0,0,1,.22,3.48,13.83,13.83,0,0,1-.61,3.53,20.11,20.11,0,0,1-3.7,6.72,18.69,18.69,0,0,1-6.67,5,43.43,43.43,0,0,1-12.32,3.41,36.36,36.36,0,0,1-12.07-.05Zm15.77,20a7.36,7.36,0,0,0,3.07-.54,11.23,11.23,0,0,0,3.07-1.85,6.52,6.52,0,0,0,1.85-2.72,3.2,3.2,0,0,0-.54-3.12c-.71-1-2.09-1.59-4.14-1.85a17.65,17.65,0,0,0-4.58-.15Z" transform="translate(431.53 -85.69)" style="fill:#d86600"/><path d="M-138.67,148.15l-11.54-1.46L-152,112.32a41.1,41.1,0,0,1,8.28-.39c1.62.06,3.21.19,4.75.36s3.09.42,4.65.71a39.28,39.28,0,0,1,8.18,2.63q3.64,1.8,4.62,4.19a6.82,6.82,0,0,1-.73,6.52,19.56,19.56,0,0,1-5.5,5.45l13.64,8.57-11.74,8.82-11-14.37-2.44-.05Zm-1.22-21.22a11.18,11.18,0,0,0,5-1.85,4.77,4.77,0,0,0,2.14-2.93,2.75,2.75,0,0,0-1.46-2.72c-1.11-.81-3-1.27-5.75-1.37Z" transform="translate(431.53 -85.69)" style="fill:#d86600"/><path d="M-73.33,132.18q-.58,8.58-6.62,12.81a22,22,0,0,1-13,4.19,20.46,20.46,0,0,1-12.61-4.29q-5.66-4.19-5.51-12.71a18.34,18.34,0,0,1,2.1-8.32,23.7,23.7,0,0,1,5.26-6.48,22.53,22.53,0,0,1,7-4.14,19.13,19.13,0,0,1,7.54-1.36,18.82,18.82,0,0,1,4.58,1,16.66,16.66,0,0,1,5.5,3.22,18,18,0,0,1,4.38,6.18A21.83,21.83,0,0,1-73.33,132.18ZM-87,127.85a1,1,0,0,0,.34-.24,1.35,1.35,0,0,0,.29-.3,3.6,3.6,0,0,0,1.22-2.67,5.11,5.11,0,0,0-.83-2.58l-.24-.22a3.65,3.65,0,0,1-.3-.27l-.22-.22a2.75,2.75,0,0,0-.26-.22,6.56,6.56,0,0,0-2.54-1,4.44,4.44,0,0,0-2.92.44,4.94,4.94,0,0,0-1.07.58c-.48.33-.76.52-.83.58a4,4,0,0,0-1.26,2.88,4.87,4.87,0,0,0,1,2.72,1.51,1.51,0,0,1,.17.2l.17.19.2.12a1.57,1.57,0,0,1,.19.18,5.31,5.31,0,0,0,3.17,1.16A5.25,5.25,0,0,0-87,127.8Z" transform="translate(431.53 -85.69)" style="fill:#d86600"/><path d="M-69.92,113.54c1.75-.39,3.51-.73,5.28-1s3.58-.5,5.43-.66q5.55-.43,13.14,2.68,5.16,2.19,5.6,6.57c.33,2.89-.91,5.15-3.7,6.77q6.63.78,9.55,3.94a9.06,9.06,0,0,1,2.53,6.82,10.43,10.43,0,0,1-3.46,6.67,13.92,13.92,0,0,1-8.71,3.55c-2.11.2-4.11.3-6,.32a52.33,52.33,0,0,1-5.41-.22c-1.72-.16-3.46-.39-5.23-.68s-3.58-.66-5.43-1.12ZM-56.34,125l2-.2a9.68,9.68,0,0,0,1.75-.34q1.65-.43,1.8-1.56c.13-1.39-.71-2.24-2.53-2.53a22.46,22.46,0,0,0-2.24-.31,4.89,4.89,0,0,0-1.31,0Zm2.09,15.09a25.52,25.52,0,0,1,4.19-.29q3.12-.15,3-2.73c-.1-2-1.26-3.05-3.5-3.21-1.11-.1-2-.15-2.73-.17a8.83,8.83,0,0,0-1.61.07Z" transform="translate(431.53 -85.69)" style="fill:#d86600"/><path d="M-2.49,111.88l.29,10.52-13.63-.2.1,3.9,7-.39,0,6.43H-15l.15,4.47,13.14-.77.15,12.61-25,.73-2.09-37.25Z" transform="translate(431.53 -85.69)" style="fill:#d86600"/><path d="M-256.79,170.31l25.41,1.17,0,10.42-14.17-1,.49,4.43,6.81,0,.78,8.91-6.72-.38L-243,207.6l-11.54-1Z" transform="translate(431.53 -85.69)" style="fill:#d86600"/><path d="M-215.65,206.58l-11.54-1.46-1.75-34.37a41,41,0,0,1,8.27-.39c1.63.06,3.21.18,4.75.36s3.09.42,4.65.71a38.69,38.69,0,0,1,8.18,2.63c2.43,1.2,4,2.59,4.63,4.18a6.86,6.86,0,0,1-.74,6.53,19.43,19.43,0,0,1-5.5,5.45l13.64,8.57-11.74,8.81-10.95-14.36-2.44-.05Zm-1.22-21.23a11.06,11.06,0,0,0,5-1.85,4.73,4.73,0,0,0,2.14-2.92,2.75,2.75,0,0,0-1.46-2.73c-1.11-.81-3-1.26-5.75-1.36Z" transform="translate(431.53 -85.69)" style="fill:#d86600"/><path d="M-161.56,170.31l11.4,33.11-12.08,4.18-2.39-7.3H-174l-2.2,7.16L-188,201.91l12.13-30.68Zm-4,22.35L-169.1,184l-3.66,8.47Z" transform="translate(431.53 -85.69)" style="fill:#d86600"/><path d="M-131.08,173.72l5.84,14.94,3.75-15.53,12-2.82,6.53,33.3-11.4,4-2-20.84-5.46,19.63-6.18.05-6.38-18.26-.73,18.84-12-1.85,3.66-33.79Z" transform="translate(431.53 -85.69)" style="fill:#d86600"/><path d="M-73.38,170.31l.29,10.51-13.63-.19.1,3.9,7-.39,0,6.42h-6.33l.14,4.48,13.15-.78.15,12.61-25,.73-2.09-37.24Z" transform="translate(431.53 -85.69)" style="fill:#d86600"/></svg>