<svg id="Слой_1" data-name="Слой 1" xmlns="http://www.w3.org/2000/svg" viewBox="0 0 541.08 148.31"><title>штамп_кор</title><rect x="11.25" y="1.74" width="529.83" height="146.57" rx="12" ry="12" style="fill:#3a301f"/><rect width="529.83" height="146.57" rx="12" ry="12" style="fill:#fff"/><path d="M-347.18,116.12q7.21-2.49,17.19-1.71a26.13,26.13,0,0,1,17.34,8.28,11.84,11.84,0,0,1,3.11,6.13,16.13,16.13,0,0,1,.22,3.48,13.83,13.83,0,0,1-.61,3.53,20.11,20.11,0,0,1-3.7,6.72,18.69,18.69,0,0,1-6.67,5,43.43,43.43,0,0,1-12.32,3.41,36.36,36.36,0,0,1-12.07-.05Zm15.78,20a7.36,7.36,0,0,0,3.07-.54,11,11,0,0,0,3.06-1.85,6.34,6.34,0,0,0,1.85-2.72,3.2,3.2,0,0,0-.53-3.12c-.72-1-2.09-1.59-4.14-1.85a17.65,17.65,0,0,0-4.58-.15Z" transform="translate(431.84 -85.46)" style="fill:#d86600"/><path d="M-305.89,114.07l14,.92-.68,36-12.37.39Z" transform="translate(431.84 -85.46)" style="fill:#d86600"/><path d="M-263.87,114.07l.29,10.52-13.63-.2.1,3.9,7-.39,0,6.43h-6.33l.15,4.47,13.14-.77.15,12.61-25,.73-2.09-37.25Z" transform="translate(431.84 -85.46)" style="fill:#d86600"/><path d="M-232,127.8l-.53,9.06-26.78.24.24-12.17Z" transform="translate(431.84 -85.46)" style="fill:#d86600"/><path d="M-198,124q-9.49-1.6-13.78,2.1t-3.8,7.79c.32,2.76,2.16,4.87,5.5,6.33s8.09.65,14.22-2.44l5.06,10.23a24,24,0,0,1-10.85,3.26A35.51,35.51,0,0,1-214,150.1a26.39,26.39,0,0,1-10.23-5.45,12.9,12.9,0,0,1-4.48-9.59,16.38,16.38,0,0,1,3.17-10.81,24,24,0,0,1,8.57-7.26,26.91,26.91,0,0,1,11.1-2.87,20,20,0,0,1,10.61,2.19Z" transform="translate(431.84 -85.46)" style="fill:#d86600"/><path d="M-171,118.11c-.16.46-.37,1.06-.63,1.83l-.93,2.75a30,30,0,0,0-1.31,6.57,11.77,11.77,0,0,0,.78,5.94q1.11,2.58,4.92,2.48a4.29,4.29,0,0,0,3.89-1.7,8.53,8.53,0,0,0,1.37-4.24,21.11,21.11,0,0,0-.2-5.3l-.68-5,10.37-2c.39,1.23.8,2.6,1.24,4.11s.89,3.19,1.34,5a25,25,0,0,1,.63,10.57,14.12,14.12,0,0,1-5,8.71q-4.19,3.6-14.17,3.51-9.6,0-13.54-4.53a18.42,18.42,0,0,1-4.67-10.57,34.89,34.89,0,0,1-.15-6.13,35.33,35.33,0,0,1,1-6.23,96.26,96.26,0,0,1,2.77-9.84Z" transform="translate(431.84 -85.46)" style="fill:#d86600"/><path d="M-146.09,116l33.55-1.9.58,16.85-12.8-.68,3.84,21.13-16.45-1.76,2.82-19-11.83.35Z" transform="translate(431.84 -85.46)" style="fill:#d86600"/><path d="M-108.79,116l33.54-1.9.59,16.85-12.81-.68,3.85,21.13-16.46-1.76,2.83-19-11.83.35Z" transform="translate(431.84 -85.46)" style="fill:#d86600"/><path d="M-71.79,114.07l14,.92-.69,36-12.36.39Z" transform="translate(431.84 -85.46)" style="fill:#d86600"/><path d="M-52.95,114.07l11.69,1,9.59,17-1.65-16.22h11.15l.73,32.14-13,3.36L-44,132.13l-.82,17.73L-56,147.23l3.06-32.53Z" transform="translate(431.84 -85.46)" style="fill:#d86600"/><path d="M8,125.46A12.51,12.51,0,0,0,2.85,124a12.28,12.28,0,0,0-5.31.88,10.17,10.17,0,0,0-4,3.36A9,9,0,0,0-7.81,134a8.15,8.15,0,0,0,2,5.07,8,8,0,0,0,4.29,2.43,6.53,6.53,0,0,0,4.62-.78A7.84,7.84,0,0,0,6.5,136l-4.52.1.77-5.51,11.54-.09a12.13,12.13,0,0,1,.54,4.57,20.4,20.4,0,0,1-.63,4.58,15.8,15.8,0,0,1-6.09,8.52,17.88,17.88,0,0,1-9.35,3.17,15.62,15.62,0,0,1-4.89-.59,18.37,18.37,0,0,1-4.75-2.14q-4.57-2.87-6.77-9.45a17.2,17.2,0,0,1,0-11.88,21.24,21.24,0,0,1,2.73-5.13,20.28,20.28,0,0,1,3.89-4,19.44,19.44,0,0,1,10.33-4,15.39,15.39,0,0,1,11,3.26Z" transform="translate(431.84 -85.46)" style="fill:#d86600"/><path d="M-256.59,195.14a32.33,32.33,0,0,0,4.87,1.65,19.82,19.82,0,0,0,4.33.73c1.2.07,1.92-.09,2.14-.48s-.25-1.06-1.65-2-2.95-2.12-4.38-3.24-2.84-2.31-4.24-3.58a9.2,9.2,0,0,1-3.07-9c.69-3.54,2.39-5.62,5.12-6.24a18.11,18.11,0,0,1,9,.35,38.29,38.29,0,0,1,9.25,3.89,29,29,0,0,1,6.13,4.38l-4.58,7.11a6.79,6.79,0,0,0-1.41-1.05c-.58-.34-1.3-.72-2.14-1.14a25.26,25.26,0,0,0-4.43-1.65c-1.27-.3-2-.23-2.24.19s.81,1.49,3,3.31a79.34,79.34,0,0,0,7.06,5.16q2.47,1.56,3.26,6.09a6.32,6.32,0,0,1-2.48,6.57,18,18,0,0,1-8,3.22,31.22,31.22,0,0,1-10.12,0,21.22,21.22,0,0,1-8.82-3.17Z" transform="translate(431.84 -85.46)" style="fill:#d86600"/><path d="M-226.21,174.4l33.55-1.9.58,16.84-12.8-.68L-201,209.8-217.49,208l2.82-19-11.83.34Z" transform="translate(431.84 -85.46)" style="fill:#d86600"/><path d="M-162.72,172.5l11.4,33.11-12.08,4.19-2.38-7.31h-9.35l-2.19,7.16-11.88-5.55,12.12-30.68Zm-4,22.35-3.55-8.62-3.66,8.47Z" transform="translate(431.84 -85.46)" style="fill:#d86600"/><path d="M-132.24,175.91l5.85,14.94,3.75-15.53,12-2.82,6.53,33.3-11.4,4-2-20.85L-123,208.58l-6.18,0-6.38-18.26-.73,18.84-12-1.85,3.65-33.79Z" transform="translate(431.84 -85.46)" style="fill:#d86600"/><path d="M-88.17,198.06l.48,11.74-10.61-1.27-2.48-35.93c.9-.07,2-.1,3.21-.1s2.66.05,4.28.14a45.56,45.56,0,0,1,9.55,1.42,25.7,25.7,0,0,1,8.23,3.5,7.33,7.33,0,0,1,3.5,6.33,11.09,11.09,0,0,1-5.16,9.69,25.12,25.12,0,0,1-11,4.53Zm-1.37-6.48a11,11,0,0,0,4.82-2.48,5.6,5.6,0,0,0,2-3.46,3.25,3.25,0,0,0-1.56-3q-1.84-1.31-5.89-1.16Z" transform="translate(431.84 -85.46)" style="fill:#d86600"/></svg>