<svg id="Слой_1" data-name="Слой 1" xmlns="http://www.w3.org/2000/svg" viewBox="0 0 541.08 148.31"><title>тумба_кор</title><rect x="11.25" y="1.74" width="529.83" height="146.57" rx="12" ry="12" style="fill:#3a301f"/><rect width="529.83" height="146.57" rx="12" ry="12" style="fill:#fff"/><path d="M-287.57,141.22q7.21-2.47,17.19-1.7A26,26,0,0,1-253,147.8a11.75,11.75,0,0,1,3.12,6.13,16.79,16.79,0,0,1,.22,3.48,13.91,13.91,0,0,1-.61,3.53,20.29,20.29,0,0,1-3.7,6.72,18.89,18.89,0,0,1-6.67,5A43.52,43.52,0,0,1-273,176a36.62,36.62,0,0,1-12.07,0Zm15.78,20a7.19,7.19,0,0,0,3.07-.53,11.26,11.26,0,0,0,3.06-1.85,6.31,6.31,0,0,0,1.85-2.73,3.21,3.21,0,0,0-.53-3.11c-.72-1-2.1-1.59-4.14-1.85a17.65,17.65,0,0,0-4.58-.15Z" transform="translate(431.58 -85.72)" style="fill:#d86600"/><path d="M-233,175.45-244.53,174l-1.75-34.37a41.1,41.1,0,0,1,8.28-.39c1.62.06,3.2.18,4.75.36s3.09.41,4.65.71a38.88,38.88,0,0,1,8.18,2.63q3.64,1.8,4.62,4.18a6.86,6.86,0,0,1-.73,6.53,19.56,19.56,0,0,1-5.5,5.45l13.63,8.57-11.73,8.81-11-14.36-2.43-.05Zm-1.21-21.23a11,11,0,0,0,5-1.85,4.68,4.68,0,0,0,2.14-2.92,2.72,2.72,0,0,0-1.46-2.73q-1.65-1.22-5.74-1.36Z" transform="translate(431.58 -85.72)" style="fill:#d86600"/><path d="M-178.89,139.18l11.39,33.11-12.07,4.18-2.39-7.3h-9.35l-2.19,7.16-11.88-5.55,12.12-30.68Zm-4,22.35-3.56-8.62-3.65,8.47Z" transform="translate(431.58 -85.72)" style="fill:#d86600"/><path d="M-150.07,140.15l3.65,16.85,3.7-11.83,6.38-.1,2.58,11.05,3.46-15,14.9-1.22-10.71,35.3-9.93,1.31-4-12.71-3.8,13.1-10-1.6-10.71-36.08Z" transform="translate(431.58 -85.72)" style="fill:#d86600"/><path d="M-85.6,139.18l.29,10.51-13.63-.19.09,3.89,7-.38,0,6.42h-6.33l.14,4.48,13.15-.78.14,12.61-25,.73-2.1-37.24Z" transform="translate(431.58 -85.72)" style="fill:#d86600"/><path d="M-68.95,175.45-80.49,174l-1.75-34.37a41,41,0,0,1,8.27-.39c1.63.06,3.21.18,4.75.36s3.09.41,4.65.71a38.69,38.69,0,0,1,8.18,2.63c2.43,1.2,4,2.59,4.63,4.18a6.89,6.89,0,0,1-.73,6.53A19.6,19.6,0,0,1-58,159.09l13.64,8.57-11.74,8.81L-67,162.11l-2.44-.05Zm-1.22-21.23a11.06,11.06,0,0,0,5-1.85,4.72,4.72,0,0,0,2.14-2.92,2.74,2.74,0,0,0-1.46-2.73q-1.65-1.22-5.75-1.36Z" transform="translate(431.58 -85.72)" style="fill:#d86600"/></svg>