<svg id="Слой_1" data-name="Слой 1" xmlns="http://www.w3.org/2000/svg" viewBox="0 0 495.87 168.04"><title>сова_кор</title><rect x="10.31" y="1.98" width="485.56" height="166.07" rx="12" ry="12" style="fill:#3a301f"/><rect width="485.56" height="166.07" rx="12" ry="12" style="fill:#fff"/><path d="M-15.93,263.87l11.68,1,9.6,17L3.69,265.67H14.84l.73,32.13-13,3.36L-7,281.93l-.83,17.73L-19,297l3.07-32.53Z" transform="translate(185.04 -229.98)" style="fill:#d86600"/><path d="M18.4,263.87l14,.92-.68,36-12.37.38Z" transform="translate(185.04 -229.98)" style="fill:#d86600"/><path d="M60.75,275.26a12.36,12.36,0,0,0-5.11-1.51,12.07,12.07,0,0,0-5.3.88A10.12,10.12,0,0,0,46.29,278,9,9,0,0,0,45,283.83a8.09,8.09,0,0,0,2,5.06,8,8,0,0,0,4.29,2.44,6.63,6.63,0,0,0,4.62-.78,7.84,7.84,0,0,0,3.36-4.72l-4.52.09.77-5.5,11.54-.09a12.13,12.13,0,0,1,.54,4.57,20.4,20.4,0,0,1-.63,4.58A15.8,15.8,0,0,1,60.9,298a17.78,17.78,0,0,1-9.35,3.16,15.32,15.32,0,0,1-4.89-.58,18.37,18.37,0,0,1-4.75-2.14q-4.57-2.88-6.77-9.45a17.2,17.2,0,0,1,0-11.88A21.67,21.67,0,0,1,37.92,272a20.51,20.51,0,0,1,3.89-4,19.36,19.36,0,0,1,10.33-4,15.39,15.39,0,0,1,11,3.26Z" transform="translate(185.04 -229.98)" style="fill:#d86600"/><path d="M70.54,265.38l11.35-.68v12.56l8.32-.15V264.6l13-.73-1.7,35-11.25,1.26V286.85l-8.32.19v13.15l-9.84,1Z" transform="translate(185.04 -229.98)" style="fill:#d86600"/><path d="M106.23,265.77l33.55-1.9.58,16.84-12.8-.68,3.84,21.13L115,299.41l2.82-19-11.83.34Z" transform="translate(185.04 -229.98)" style="fill:#d86600"/><path d="M-80.08,323.27l3.65,16.85,3.7-11.84,6.38-.09,2.58,11.05,3.46-15.05,14.9-1.21-10.71,35.3-9.94,1.31L-70,346.88-73.8,360l-10-1.61L-94.49,322.3Z" transform="translate(185.04 -229.98)" style="fill:#d86600"/><path d="M-15.37,322.3-4,355.41-16,359.59l-2.39-7.3h-9.35L-30,359.45l-11.88-5.55,12.13-30.68Zm-4,22.34L-22.92,336l-3.65,8.47Z" transform="translate(185.04 -229.98)" style="fill:#d86600"/><path d="M2.11,322.3l11.68,1,9.6,17L21.73,324.1H32.88l.73,32.13-13,3.36L11,340.36l-.83,17.72L-1,355.45l3.07-32.52Z" transform="translate(185.04 -229.98)" style="fill:#d86600"/><path d="M36.44,324.34q7.2-2.47,17.18-1.7A26.07,26.07,0,0,1,71,330.91a11.87,11.87,0,0,1,3.11,6.14,16.13,16.13,0,0,1,.22,3.48,13.91,13.91,0,0,1-.61,3.53,20.11,20.11,0,0,1-3.7,6.72,18.8,18.8,0,0,1-6.67,5A43.43,43.43,0,0,1,51,359.15a36.39,36.39,0,0,1-12.07,0Zm15.77,20a7.19,7.19,0,0,0,3.07-.53,11.48,11.48,0,0,0,3.07-1.85,6.49,6.49,0,0,0,1.85-2.73,3.21,3.21,0,0,0-.54-3.11c-.71-1-2.09-1.59-4.14-1.86a18,18,0,0,0-4.58-.14Z" transform="translate(185.04 -229.98)" style="fill:#d86600"/><path d="M104,322.3l.29,10.51-13.63-.19.09,3.89,7-.39,0,6.43H91.41l.14,4.48,13.15-.78.14,12.61-25,.73-2.1-37.25Z" transform="translate(185.04 -229.98)" style="fill:#d86600"/><path d="M120.62,358.57l-11.54-1.46-1.75-34.38a41,41,0,0,1,8.27-.39c1.63.07,3.21.19,4.75.37s3.09.41,4.65.71a39.28,39.28,0,0,1,8.18,2.62c2.44,1.21,4,2.6,4.63,4.19a6.89,6.89,0,0,1-.73,6.53,19.6,19.6,0,0,1-5.51,5.45l13.64,8.57-11.74,8.81-11-14.36-2.44-.05Zm-1.22-21.23a11.06,11.06,0,0,0,5-1.85,4.72,4.72,0,0,0,2.14-2.92,2.74,2.74,0,0,0-1.46-2.73q-1.65-1.21-5.75-1.36Z" transform="translate(185.04 -229.98)" style="fill:#d86600"/><path d="M174.47,322.3l.29,10.51-13.63-.19.1,3.89,7-.39.05,6.43h-6.33l.14,4.48,13.15-.78.15,12.61-25,.73-2.09-37.25Z" transform="translate(185.04 -229.98)" style="fill:#d86600"/><path d="M191.12,358.57l-11.54-1.46-1.75-34.38a41.1,41.1,0,0,1,8.28-.39c1.62.07,3.2.19,4.74.37s3.1.41,4.65.71a39.28,39.28,0,0,1,8.18,2.62c2.44,1.21,4,2.6,4.63,4.19a6.86,6.86,0,0,1-.73,6.53,19.56,19.56,0,0,1-5.5,5.45l13.63,8.57L204,359.59l-11-14.36-2.43-.05Zm-1.22-21.23a11,11,0,0,0,5-1.85,4.72,4.72,0,0,0,2.14-2.92,2.74,2.74,0,0,0-1.46-2.73c-1.1-.81-3-1.26-5.74-1.36Z" transform="translate(185.04 -229.98)" style="fill:#d86600"/></svg>