<svg id="Слой_1" data-name="Слой 1" xmlns="http://www.w3.org/2000/svg" viewBox="0 0 541.08 212.63"><title>телега_кор</title><rect x="11.25" y="2.5" width="529.83" height="210.13" rx="12" ry="12" style="fill:#3a301f"/><rect width="529.83" height="210.13" rx="12" ry="12" style="fill:#fff"/><path d="M-380.82,108.6l11.39,33.11-12.07,4.19-2.39-7.3h-9.35l-2.19,7.16-11.88-5.56,12.13-30.67Zm-4,22.35-3.56-8.61-3.65,8.47Z" transform="translate(432.01 -53.46)" style="fill:#d86600"/><path d="M-363.34,108.6l11.69,1,9.59,17-1.66-16.21h11.15l.73,32.13-13,3.36-9.59-19.23-.83,17.72-11.15-2.63,3.07-32.52Z" transform="translate(432.01 -53.46)" style="fill:#d86600"/><path d="M-329,108.6l14,.93-.68,36-12.37.39Z" transform="translate(432.01 -53.46)" style="fill:#d86600"/><path d="M-297.17,112l5.84,14.95,3.75-15.53,12-2.83,6.52,33.31-11.39,4-2-20.84-5.45,19.62-6.18,0-6.38-18.26-.73,18.85-12-1.85,3.65-33.79Z" transform="translate(432.01 -53.46)" style="fill:#d86600"/><path d="M-239.23,108.6l11.39,33.11-12.07,4.19-2.39-7.3h-9.35l-2.19,7.16-11.88-5.56,12.13-30.67Zm-4,22.35-3.56-8.61-3.65,8.47Z" transform="translate(432.01 -53.46)" style="fill:#d86600"/><path d="M-210.84,108.56l1.55,28,12.42-1.7.29,9.35-24.29,1.65L-224.82,109Z" transform="translate(432.01 -53.46)" style="fill:#d86600"/><path d="M-137.08,118.54q-9.49-1.61-13.78,2.09t-3.8,7.79c.33,2.76,2.16,4.87,5.51,6.33s8.08.65,14.21-2.43l5.07,10.22a24,24,0,0,1-10.86,3.26A35.29,35.29,0,0,1-153,144.64a26.4,26.4,0,0,1-10.23-5.46,12.89,12.89,0,0,1-4.47-9.59,16.32,16.32,0,0,1,3.16-10.81,24,24,0,0,1,8.57-7.25,27.16,27.16,0,0,1,11.1-2.88,20.23,20.23,0,0,1,10.62,2.19Z" transform="translate(432.01 -53.46)" style="fill:#d86600"/><path d="M-100.37,108.6-89,141.71-101,145.9l-2.39-7.3h-9.34l-2.19,7.16-11.89-5.56,12.13-30.67Zm-4,22.35-3.55-8.61-3.66,8.47Z" transform="translate(432.01 -53.46)" style="fill:#d86600"/><path d="M-72.66,144.88l-11.54-1.46L-86,109a41.1,41.1,0,0,1,8.28-.39c1.62.07,3.21.19,4.75.37s3.09.41,4.65.7a39.28,39.28,0,0,1,8.18,2.63c2.43,1.21,4,2.6,4.62,4.19a6.83,6.83,0,0,1-.73,6.53,19.43,19.43,0,0,1-5.5,5.45l13.64,8.57-11.74,8.81-11-14.36-2.44,0Zm-1.22-21.23a11.06,11.06,0,0,0,5-1.85,4.76,4.76,0,0,0,2.14-2.92,2.75,2.75,0,0,0-1.46-2.73c-1.11-.81-3-1.26-5.75-1.36Z" transform="translate(432.01 -53.46)" style="fill:#d86600"/><path d="M-31.76,144.88l-11.54-1.46L-45.06,109a41.1,41.1,0,0,1,8.28-.39c1.62.07,3.21.19,4.75.37s3.09.41,4.65.7a39.28,39.28,0,0,1,8.18,2.63c2.43,1.21,4,2.6,4.62,4.19a6.83,6.83,0,0,1-.73,6.53,19.56,19.56,0,0,1-5.5,5.45l13.63,8.57-11.73,8.81-11-14.36-2.43,0ZM-33,123.65a11.06,11.06,0,0,0,5-1.85,4.76,4.76,0,0,0,2.14-2.92,2.75,2.75,0,0,0-1.46-2.73c-1.11-.81-3-1.26-5.75-1.36Z" transform="translate(432.01 -53.46)" style="fill:#d86600"/><path d="M-4.16,108.6l14,.93-.68,36-12.37.39Z" transform="translate(432.01 -53.46)" style="fill:#d86600"/><path d="M37.86,108.6l.29,10.52-13.63-.19.1,3.89,7-.39.05,6.43H25.3l.15,4.48,13.14-.78.15,12.61-25,.73-2.09-37.25Z" transform="translate(432.01 -53.46)" style="fill:#d86600"/><path d="M54.51,144.88,43,143.42,41.22,109a41.1,41.1,0,0,1,8.28-.39c1.62.07,3.2.19,4.75.37s3.09.41,4.65.7a39.47,39.47,0,0,1,8.18,2.63c2.43,1.21,4,2.6,4.62,4.19a6.86,6.86,0,0,1-.73,6.53,19.56,19.56,0,0,1-5.5,5.45l13.63,8.57L67.37,145.9l-11-14.36-2.43,0ZM53.3,123.65a11,11,0,0,0,5-1.85,4.68,4.68,0,0,0,2.14-2.92,2.72,2.72,0,0,0-1.46-2.73q-1.65-1.22-5.74-1.36Z" transform="translate(432.01 -53.46)" style="fill:#d86600"/><path d="M-280.35,168.93l33.55-1.9.58,16.85-12.8-.68,3.84,21.13-16.45-1.75,2.82-19-11.83.34Z" transform="translate(432.01 -53.46)" style="fill:#d86600"/><path d="M-230,203.31l-11.54-1.46-1.75-34.38a41,41,0,0,1,8.27-.39c1.62.07,3.21.19,4.75.37s3.09.41,4.65.7a39.28,39.28,0,0,1,8.18,2.63c2.43,1.2,4,2.6,4.62,4.19a6.81,6.81,0,0,1-.73,6.52,19.46,19.46,0,0,1-5.5,5.46l13.64,8.57-11.74,8.81-11-14.36-2.44-.05Zm-1.22-21.23a11.06,11.06,0,0,0,5-1.85,4.78,4.78,0,0,0,2.14-2.92,2.75,2.75,0,0,0-1.46-2.73c-1.11-.81-3-1.27-5.75-1.36Z" transform="translate(432.01 -53.46)" style="fill:#d86600"/><path d="M-176,167l11.4,33.11-12.08,4.19L-179,197h-9.34l-2.19,7.15-11.89-5.55L-190.32,168Zm-4,22.35-3.55-8.62-3.66,8.47Z" transform="translate(432.01 -53.46)" style="fill:#d86600"/><path d="M-161.55,167l14,.93-.68,36-12.37.39Z" transform="translate(432.01 -53.46)" style="fill:#d86600"/><path d="M-131.8,167l1.56,28.05,12.42-1.7.29,9.34-24.3,1.66-3.94-36.91Z" transform="translate(432.01 -53.46)" style="fill:#d86600"/><path d="M-88.8,167l.29,10.52-13.63-.2.09,3.9,7-.39,0,6.43h-6.33l.15,4.48,13.15-.78.14,12.61-25,.73-2.1-37.25Z" transform="translate(432.01 -53.46)" style="fill:#d86600"/><path d="M-72.15,203.31l-11.54-1.46-1.76-34.38a41.1,41.1,0,0,1,8.28-.39c1.63.07,3.21.19,4.75.37s3.09.41,4.65.7a39.28,39.28,0,0,1,8.18,2.63q3.65,1.8,4.63,4.19a6.84,6.84,0,0,1-.74,6.52A19.46,19.46,0,0,1-61.2,187l13.64,8.57-11.74,8.81-11-14.36-2.44-.05Zm-1.22-21.23a11.06,11.06,0,0,0,5-1.85,4.78,4.78,0,0,0,2.14-2.92,2.75,2.75,0,0,0-1.46-2.73c-1.11-.81-3-1.27-5.75-1.36Z" transform="translate(432.01 -53.46)" style="fill:#d86600"/></svg>