<svg id="Слой_1" data-name="Слой 1" xmlns="http://www.w3.org/2000/svg" viewBox="0 0 495.87 104.54"><title>сани_кор</title><rect x="10.31" y="1.23" width="485.56" height="103.32" rx="12" ry="12" style="fill:#3a301f"/><rect width="485.56" height="103.32" rx="12" ry="12" style="fill:#fff"/><path d="M-140.15,319.29a32.71,32.71,0,0,0,4.87,1.65,19.89,19.89,0,0,0,4.34.73c1.2.07,1.91-.09,2.14-.48s-.26-1.06-1.66-2-2.95-2.12-4.38-3.24-2.84-2.31-4.23-3.58a9.2,9.2,0,0,1-3.07-9q1-5.31,5.11-6.24a18.1,18.1,0,0,1,9,.35,38.12,38.12,0,0,1,9.25,3.89,29.39,29.39,0,0,1,6.14,4.38l-4.58,7.11a7,7,0,0,0-1.41-1c-.59-.35-1.3-.73-2.15-1.15a25,25,0,0,0-4.43-1.65c-1.26-.3-2-.23-2.24.19s.81,1.49,3,3.31a79.34,79.34,0,0,0,7.06,5.16c1.66,1,2.74,3.07,3.26,6.09a6.32,6.32,0,0,1-2.48,6.57,18,18,0,0,1-8,3.22,31.29,31.29,0,0,1-10.13,0,21.12,21.12,0,0,1-8.81-3.17Z" transform="translate(185.54 -262.59)" style="fill:#d86600"/><path d="M-83.57,296.65l11.4,33.11L-84.25,334l-2.39-7.31H-96l-2.2,7.16-11.88-5.55,12.13-30.68Zm-4,22.35-3.56-8.62-3.65,8.47Z" transform="translate(185.54 -262.59)" style="fill:#d86600"/><path d="M-66.09,296.65l11.69,1,9.59,17-1.66-16.21h11.15l.73,32.13-13,3.37-9.59-19.24L-58,332.44l-11.15-2.63,3.07-32.53Z" transform="translate(185.54 -262.59)" style="fill:#d86600"/><path d="M-31.47,298.55l33.55-1.9.58,16.84-12.8-.68L-6.3,334l-16.46-1.76,2.83-19-11.83.34Z" transform="translate(185.54 -262.59)" style="fill:#d86600"/><path d="M32,296.65l11.39,33.11L31.34,334,29,326.64H19.6l-2.19,7.16L5.53,328.25l12.13-30.68ZM28,319l-3.56-8.62-3.65,8.47Z" transform="translate(185.54 -262.59)" style="fill:#d86600"/><path d="M103.45,306.58Q94,305,89.67,308.67t-3.8,7.79c.32,2.76,2.16,4.87,5.5,6.33s8.09.65,14.22-2.43l5.06,10.22a24,24,0,0,1-10.85,3.27,35.51,35.51,0,0,1-12.32-1.17,26.39,26.39,0,0,1-10.23-5.45,12.93,12.93,0,0,1-4.48-9.6,16.4,16.4,0,0,1,3.17-10.81,24,24,0,0,1,8.57-7.25,26.91,26.91,0,0,1,11.1-2.87,20,20,0,0,1,10.61,2.19Z" transform="translate(185.54 -262.59)" style="fill:#d86600"/><path d="M127.65,296.6l1.55,28,12.42-1.71.29,9.35L117.62,334l-4-36.91Z" transform="translate(185.54 -262.59)" style="fill:#d86600"/><path d="M170.88,296.65l11.4,33.11L170.2,334l-2.38-7.31h-9.35l-2.19,7.16-11.88-5.55,12.12-30.68Zm-4,22.35-3.55-8.62-3.66,8.47Z" transform="translate(185.54 -262.59)" style="fill:#d86600"/><path d="M202,300.69q-.24.68-.63,1.83c-.26.76-.57,1.68-.92,2.75a30,30,0,0,0-1.32,6.57,11.77,11.77,0,0,0,.78,5.94q1.13,2.58,4.92,2.48c1.85,0,3.15-.56,3.89-1.7a8.56,8.56,0,0,0,1.37-4.24,21.09,21.09,0,0,0-.2-5.3l-.68-5,10.37-2c.39,1.24.8,2.61,1.24,4.12s.89,3.19,1.34,5a24.64,24.64,0,0,1,.63,10.56,14.1,14.1,0,0,1-5,8.72q-4.19,3.6-14.17,3.51-9.59,0-13.53-4.53a18.37,18.37,0,0,1-4.68-10.57,34.89,34.89,0,0,1-.15-6.13,35.44,35.44,0,0,1,1-6.24,96,96,0,0,1,2.77-9.83Z" transform="translate(185.54 -262.59)" style="fill:#d86600"/><path d="M230.09,319.29a32.33,32.33,0,0,0,4.87,1.65,19.82,19.82,0,0,0,4.33.73c1.2.07,1.92-.09,2.14-.48s-.26-1.06-1.65-2-3-2.12-4.38-3.24-2.84-2.31-4.24-3.58a9.2,9.2,0,0,1-3.07-9q1-5.31,5.12-6.24a18.07,18.07,0,0,1,8.95.35,38.19,38.19,0,0,1,9.26,3.89,29.26,29.26,0,0,1,6.13,4.38L253,312.86a6.44,6.44,0,0,0-1.41-1c-.58-.35-1.3-.73-2.14-1.15A25.26,25.26,0,0,0,245,309c-1.27-.3-2-.23-2.24.19s.81,1.49,3,3.31a79.34,79.34,0,0,0,7.06,5.16q2.47,1.56,3.26,6.09a6.32,6.32,0,0,1-2.48,6.57,18,18,0,0,1-8,3.22,31.28,31.28,0,0,1-10.13,0,21.23,21.23,0,0,1-8.81-3.17Z" transform="translate(185.54 -262.59)" style="fill:#d86600"/></svg>