<svg id="Слой_1" data-name="Слой 1" xmlns="http://www.w3.org/2000/svg" viewBox="0 0 541.08 148.31"><title>катер_кор</title><rect x="11.25" y="1.74" width="529.83" height="146.57" rx="12" ry="12" style="fill:#3a301f"/><rect width="529.83" height="146.57" rx="12" ry="12" style="fill:#fff"/><path d="M-318.52,123.32a12.26,12.26,0,0,0-5.11-1.51,12.13,12.13,0,0,0-5.31.87,10.17,10.17,0,0,0-4,3.36,9,9,0,0,0-1.31,5.85,8.14,8.14,0,0,0,2,5.06,8,8,0,0,0,4.29,2.43,6.53,6.53,0,0,0,4.62-.78,7.89,7.89,0,0,0,3.36-4.72l-4.53.1.78-5.5,11.54-.1a12.39,12.39,0,0,1,.54,4.58,19.71,19.71,0,0,1-.64,4.57,15.66,15.66,0,0,1-6.08,8.52,17.8,17.8,0,0,1-9.35,3.17,15.55,15.55,0,0,1-4.89-.59,18,18,0,0,1-4.75-2.14q-4.58-2.87-6.77-9.44a17.2,17.2,0,0,1,.05-11.88,20.79,20.79,0,0,1,2.73-5.14,20.28,20.28,0,0,1,3.89-4,19.37,19.37,0,0,1,10.32-4,15.4,15.4,0,0,1,11,3.26Z" transform="translate(431.39 -85.4)" style="fill:#d86600"/><path d="M-282.24,111.92-270.85,145l-12.08,4.19-2.38-7.3h-9.35l-2.19,7.15-11.88-5.55,12.12-30.67Zm-4,22.35-3.55-8.62-3.65,8.47Z" transform="translate(431.39 -85.4)" style="fill:#d86600"/><path d="M-264.42,134.56a33.08,33.08,0,0,0,4.87,1.66,20.34,20.34,0,0,0,4.33.73c1.2.06,1.91-.1,2.14-.49s-.26-1.05-1.65-2-3-2.12-4.39-3.24-2.84-2.31-4.23-3.58a9.21,9.21,0,0,1-3.07-9c.68-3.54,2.39-5.61,5.11-6.23a18,18,0,0,1,9,.34,38.92,38.92,0,0,1,9.25,3.89A29.44,29.44,0,0,1-237,121l-4.58,7.11a7,7,0,0,0-1.41-1c-.59-.34-1.3-.72-2.14-1.15a27,27,0,0,0-4.43-1.65c-1.27-.29-2-.23-2.24.19s.81,1.5,3,3.32a80.84,80.84,0,0,0,7.06,5.16c1.66,1,2.75,3.06,3.27,6.08a6.34,6.34,0,0,1-2.49,6.58,17.8,17.8,0,0,1-8,3.21,31.29,31.29,0,0,1-10.13,0,21.09,21.09,0,0,1-8.81-3.17Z" transform="translate(431.39 -85.4)" style="fill:#d86600"/><path d="M-207.7,113.82l33.55-1.9.58,16.85-12.81-.68,3.85,21.13L-199,147.47l2.83-19-11.83.34Z" transform="translate(431.39 -85.4)" style="fill:#d86600"/><path d="M-144.21,111.92-132.82,145l-12.07,4.19-2.39-7.3h-9.35l-2.19,7.15-11.88-5.55,12.13-30.67Zm-4,22.35-3.56-8.62-3.65,8.47Z" transform="translate(431.39 -85.4)" style="fill:#d86600"/><path d="M-126.73,111.92l11.68,1,9.6,17-1.66-16.22H-96l.73,32.14-13,3.36L-117.82,130l-.83,17.72-11.15-2.63,3.07-32.52Z" transform="translate(431.39 -85.4)" style="fill:#d86600"/><path d="M-65.09,112.8l8.18,7.89-9.93,10.56,10,10.57-10.52,7.25-11.05-12.61.15,11.88-12.27.88-1.85-36.76,14.12-.54.09,18.16Z" transform="translate(431.39 -85.4)" style="fill:#d86600"/><path d="M-27.7,111.92l.3,10.52-13.64-.2.1,3.9,7-.39,0,6.43h-6.33l.15,4.48,13.14-.78.15,12.61-25,.73L-53.94,112Z" transform="translate(431.39 -85.4)" style="fill:#d86600"/><path d="M-11,148.2l-11.54-1.46-1.76-34.38a41.1,41.1,0,0,1,8.28-.39c1.62.07,3.21.19,4.75.37s3.09.41,4.65.7a39.47,39.47,0,0,1,8.18,2.63q3.65,1.8,4.62,4.19a6.81,6.81,0,0,1-.73,6.52,19.59,19.59,0,0,1-5.5,5.46l13.63,8.57L1.81,149.22l-11-14.37-2.43,0ZM-12.26,127a11,11,0,0,0,5-1.85,4.77,4.77,0,0,0,2.15-2.92,2.75,2.75,0,0,0-1.46-2.73c-1.11-.81-3-1.27-5.75-1.36Z" transform="translate(431.39 -85.4)" style="fill:#d86600"/><path d="M-329.91,170.35l14,.92-.68,36-12.37.39Z" transform="translate(431.39 -85.4)" style="fill:#d86600"/><path d="M-311.07,170.35l11.69,1,9.59,17.05-1.66-16.22h11.15l.73,32.14-13,3.36-9.59-19.24-.83,17.73-11.15-2.63,3.07-32.53Z" transform="translate(431.39 -85.4)" style="fill:#d86600"/><path d="M-273.33,193a33.35,33.35,0,0,0,4.86,1.66,21.19,21.19,0,0,0,4.34.73c1.2.06,1.91-.1,2.14-.49s-.26-1-1.66-2-3-2.11-4.38-3.23-2.84-2.32-4.23-3.58a9.21,9.21,0,0,1-3.07-9c.68-3.54,2.39-5.62,5.11-6.23a18,18,0,0,1,9,.34,38.12,38.12,0,0,1,9.25,3.89,29.11,29.11,0,0,1,6.14,4.38l-4.58,7.11a7.37,7.37,0,0,0-1.41-1c-.59-.34-1.3-.72-2.14-1.15a26.17,26.17,0,0,0-4.44-1.65c-1.26-.29-2-.23-2.24.19s.82,1.5,3,3.31a76.79,76.79,0,0,0,7.06,5.16q2.49,1.56,3.27,6.09a6.32,6.32,0,0,1-2.49,6.57,17.85,17.85,0,0,1-8,3.22,31.29,31.29,0,0,1-10.13,0,21.18,21.18,0,0,1-8.81-3.17Z" transform="translate(431.39 -85.4)" style="fill:#d86600"/><path d="M-226.5,174.39c-.16.46-.37,1.06-.63,1.83s-.57,1.68-.92,2.75a30,30,0,0,0-1.32,6.57,11.77,11.77,0,0,0,.78,5.94q1.13,2.58,4.92,2.48c1.85,0,3.15-.56,3.89-1.7a8.53,8.53,0,0,0,1.37-4.24,21.11,21.11,0,0,0-.2-5.3l-.68-5,10.37-2c.39,1.23.81,2.6,1.24,4.11s.89,3.19,1.34,5a24.84,24.84,0,0,1,.64,10.57,14.14,14.14,0,0,1-5,8.71q-4.18,3.6-14.17,3.51-9.59,0-13.53-4.53a18.44,18.44,0,0,1-4.68-10.57,34,34,0,0,1-.14-6.13,34.64,34.64,0,0,1,1-6.24,96.7,96.7,0,0,1,2.77-9.83Z" transform="translate(431.39 -85.4)" style="fill:#d86600"/><path d="M-187.88,170.3l1.55,28,12.42-1.71.29,9.35-24.29,1.66-4-36.91Z" transform="translate(431.39 -85.4)" style="fill:#d86600"/><path d="M-144.65,170.35l11.4,33.11-12.08,4.19-2.39-7.31h-9.34l-2.19,7.16L-171.14,202-159,171.27Zm-4,22.35-3.55-8.62-3.66,8.47Z" transform="translate(431.39 -85.4)" style="fill:#d86600"/><path d="M-129.94,172.25l33.54-1.9.59,16.85-12.81-.69,3.85,21.14-16.46-1.76,2.83-19-11.84.35Z" transform="translate(431.39 -85.4)" style="fill:#d86600"/><path d="M-92.94,170.35l14,.92-.68,36-12.37.39Z" transform="translate(431.39 -85.4)" style="fill:#d86600"/><path d="M-39.43,190.65Q-40,199.23-46,203.46a22,22,0,0,1-13,4.19,20.46,20.46,0,0,1-12.61-4.29q-5.66-4.19-5.51-12.71a18.34,18.34,0,0,1,2.1-8.32,23.7,23.7,0,0,1,5.26-6.48,22.53,22.53,0,0,1,7-4.14,19.18,19.18,0,0,1,7.55-1.36,18.76,18.76,0,0,1,4.57,1,16.66,16.66,0,0,1,5.5,3.22,18.13,18.13,0,0,1,4.39,6.18A22,22,0,0,1-39.43,190.65Zm-13.68-4.33a.91.91,0,0,0,.34-.24,1.15,1.15,0,0,0,.29-.3,3.6,3.6,0,0,0,1.22-2.67,5,5,0,0,0-.83-2.58l-.24-.22-.3-.27-.21-.22-.27-.22a6.57,6.57,0,0,0-2.53-1,4.46,4.46,0,0,0-2.93.44,4.94,4.94,0,0,0-1.07.58,9.61,9.61,0,0,0-.82.58,4,4,0,0,0-1.27,2.88,4.94,4.94,0,0,0,1,2.72,1.51,1.51,0,0,1,.17.2l.17.19.2.12.19.17a5.25,5.25,0,0,0,3.17,1.17,5.25,5.25,0,0,0,3.75-1.41Z" transform="translate(431.39 -85.4)" style="fill:#d86600"/><path d="M-33,170.35l11.69,1,9.59,17.05-1.65-16.22H-2.18l.73,32.14-13,3.36L-24,188.41l-.83,17.73L-36,203.51-33,171Z" transform="translate(431.39 -85.4)" style="fill:#d86600"/></svg>