<svg id="Слой_1" data-name="Слой 1" xmlns="http://www.w3.org/2000/svg" viewBox="0 0 495.87 104.54"><title>снеговик_кор</title><rect x="10.31" y="1.23" width="485.56" height="103.32" rx="12" ry="12" style="fill:#3a301f"/><rect width="485.56" height="103.32" rx="12" ry="12" style="fill:#fff"/><path d="M-297.86,164.78a29.51,29.51,0,0,0,4.46,1.52,18.28,18.28,0,0,0,4,.67c1.1.06,1.75-.09,2-.45s-.24-1-1.51-1.83-2.71-1.93-4-3-2.6-2.12-3.88-3.27a8.44,8.44,0,0,1-2.81-8.25q.94-4.86,4.68-5.7a16.45,16.45,0,0,1,8.2.31,35.37,35.37,0,0,1,8.47,3.56,27.2,27.2,0,0,1,5.61,4l-4.19,6.51a6.17,6.17,0,0,0-1.29-1c-.53-.31-1.19-.66-2-1a23.67,23.67,0,0,0-4.05-1.52c-1.16-.27-1.85-.21-2,.18s.74,1.37,2.76,3a71.82,71.82,0,0,0,6.46,4.72c1.52.95,2.51,2.81,3,5.57a5.81,5.81,0,0,1-2.28,6,16.18,16.18,0,0,1-7.31,2.94,28.2,28.2,0,0,1-9.26,0,19.28,19.28,0,0,1-8.07-2.9Z" transform="translate(408.93 -107.73)" style="fill:#d86600"/><path d="M-267.51,144.06l10.69.89,8.78,15.6-1.51-14.84h10.2l.67,29.41-11.9,3.08-8.78-17.6-.76,16.22-10.2-2.41,2.81-29.77Z" transform="translate(408.93 -107.73)" style="fill:#d86600"/><path d="M-201.56,162.64q-.52,7.85-6.06,11.73a20.08,20.08,0,0,1-11.9,3.83,18.78,18.78,0,0,1-11.54-3.92c-3.45-2.56-5.12-6.44-5-11.64a16.73,16.73,0,0,1,1.92-7.62,21.83,21.83,0,0,1,4.81-5.92,20.52,20.52,0,0,1,6.42-3.79,17.52,17.52,0,0,1,6.91-1.25,16.6,16.6,0,0,1,4.19.94,15.23,15.23,0,0,1,5,2.94,16.54,16.54,0,0,1,4,5.66A20,20,0,0,1-201.56,162.64Zm-12.52-4a.73.73,0,0,0,.31-.22,1.15,1.15,0,0,0,.27-.27,3.31,3.31,0,0,0,1.11-2.45,4.66,4.66,0,0,0-.75-2.36l-.23-.2a3.07,3.07,0,0,1-.26-.25l-.2-.2a2.43,2.43,0,0,0-.25-.2,6,6,0,0,0-2.32-.89,4.06,4.06,0,0,0-2.67.4,4.79,4.79,0,0,0-1,.53,8.29,8.29,0,0,0-.76.54,3.63,3.63,0,0,0-1.16,2.63,4.47,4.47,0,0,0,.94,2.49,1.19,1.19,0,0,1,.15.18l.16.18.18.11.18.16a4.86,4.86,0,0,0,2.89,1.07,4.76,4.76,0,0,0,3.43-1.3Z" transform="translate(408.93 -107.73)" style="fill:#d86600"/><path d="M-185.25,145l3.35,15.42,3.38-10.83,5.84-.09,2.36,10.12,3.17-13.77,13.63-1.12-9.8,32.31-9.09,1.21L-176,166.57l-3.48,12-9.13-1.48-9.81-33Z" transform="translate(408.93 -107.73)" style="fill:#d86600"/><path d="M-135.56,147.18l5.35,13.68,3.43-14.21,11-2.59,6,30.48-10.43,3.66-1.83-19.08-5,18-5.66,0-5.84-16.71-.67,17.24-11-1.69,3.34-30.93Z" transform="translate(408.93 -107.73)" style="fill:#d86600"/><path d="M-82.53,144.06l10.43,30.31-11.05,3.83-2.18-6.69h-8.56l-2,6.55L-106.77,173l11.1-28.07Zm-3.65,20.46-3.25-7.89-3.35,7.75Z" transform="translate(408.93 -107.73)" style="fill:#d86600"/><path d="M-66.53,144.06l10.7.89,8.78,15.6-1.52-14.84h10.21l.67,29.41-11.9,3.08-8.78-17.6-.76,16.22-10.2-2.41,2.8-29.77Z" transform="translate(408.93 -107.73)" style="fill:#d86600"/></svg>