<svg id="Слой_1" data-name="Слой 1" xmlns="http://www.w3.org/2000/svg" viewBox="0 0 495.87 108.58"><title>носки_кор</title><rect x="10.31" y="3.75" width="485.56" height="104.84" rx="12" ry="12" style="fill:#3a301f"/><rect width="485.56" height="107.34" rx="12" ry="12" style="fill:#fff"/><path d="M-346.9,159.06a31.08,31.08,0,0,0,4.46,1.51,18.28,18.28,0,0,0,4,.67c1.1.06,1.76-.09,2-.45s-.23-1-1.51-1.82-2.7-1.94-4-3-2.6-2.11-3.88-3.27a8.46,8.46,0,0,1-2.81-8.25q.94-4.86,4.68-5.7a16.45,16.45,0,0,1,8.2.31,34.83,34.83,0,0,1,8.47,3.57,26.86,26.86,0,0,1,5.62,4l-4.19,6.5a6.53,6.53,0,0,0-1.3-.95c-.53-.32-1.19-.67-2-1.05a23.36,23.36,0,0,0-4.05-1.52c-1.16-.26-1.84-.21-2.05.18s.74,1.37,2.76,3a74.46,74.46,0,0,0,6.46,4.73c1.52.95,2.51,2.8,3,5.57a5.79,5.79,0,0,1-2.27,6,16.27,16.27,0,0,1-7.31,2.94,28.26,28.26,0,0,1-9.27,0,19.41,19.41,0,0,1-8.07-2.89Z" transform="translate(409.28 -105)" style="fill:#d86600"/><path d="M-306.17,139.22l3.34,15.42,3.39-10.83,5.84-.09,2.36,10.12,3.17-13.77,13.63-1.11-9.8,32.31-9.09,1.2-3.61-11.63-3.48,12-9.13-1.47-9.81-33Z" transform="translate(409.28 -105)" style="fill:#d86600"/><path d="M-247.16,138.33l.26,9.63-12.48-.18.09,3.57,6.38-.36,0,5.88h-5.79l.13,4.1,12-.71.14,11.54-22.91.67-1.91-34.09Z" transform="translate(409.28 -105)" style="fill:#d86600"/><path d="M-220.07,138.33l.27,9.63-12.48-.18.09,3.57,6.37-.36,0,5.88h-5.8l.14,4.1,12-.71.13,11.54-22.9.67-1.92-34.09Z" transform="translate(409.28 -105)" style="fill:#d86600"/><path d="M-216.73,140.07l30.71-1.74.53,15.42-11.72-.62,3.52,19.34-15.06-1.6,2.58-17.39-10.83.32Z" transform="translate(409.28 -105)" style="fill:#d86600"/><path d="M-145.56,139.22l3.34,15.42,3.39-10.83,5.84-.09,2.36,10.12,3.16-13.77,13.64-1.11-9.8,32.31-9.09,1.2-3.61-11.63-3.48,12-9.14-1.47-9.8-33Z" transform="translate(409.28 -105)" style="fill:#d86600"/><path d="M-110.58,138.33l12.79.85-.62,32.93-11.32.36Z" transform="translate(409.28 -105)" style="fill:#d86600"/><path d="M-93,159.06a31.08,31.08,0,0,0,4.46,1.51,18.26,18.26,0,0,0,4,.67c1.09.06,1.75-.09,2-.45s-.24-1-1.52-1.82-2.7-1.94-4-3-2.6-2.11-3.88-3.27a8.43,8.43,0,0,1-2.8-8.25q.93-4.86,4.67-5.7a16.45,16.45,0,0,1,8.2.31,34.67,34.67,0,0,1,8.47,3.57,26.32,26.32,0,0,1,5.62,4l-4.19,6.5a6.74,6.74,0,0,0-1.29-.95c-.54-.32-1.19-.67-2-1.05a23.36,23.36,0,0,0-4-1.52c-1.16-.26-1.84-.21-2.05.18s.74,1.37,2.76,3a76,76,0,0,0,6.46,4.73c1.52.95,2.51,2.8,3,5.57a5.78,5.78,0,0,1-2.27,6,16.23,16.23,0,0,1-7.31,2.94,28.26,28.26,0,0,1-9.27,0,19.41,19.41,0,0,1-8.07-2.89Z" transform="translate(409.28 -105)" style="fill:#d86600"/><path d="M-65.48,139.71l10.39-.62v11.5l7.62-.14V139l11.85-.67-1.56,32-10.29,1.15V159.37l-7.62.18v12l-9,.89Z" transform="translate(409.28 -105)" style="fill:#d86600"/><path d="M-9.06,138.33l.27,9.63-12.48-.18.09,3.57,6.37-.36.05,5.88h-5.8l.14,4.1,12-.71.13,11.54-22.9.67-1.92-34.09Z" transform="translate(409.28 -105)" style="fill:#d86600"/><path d="M-2.86,159.06a30.94,30.94,0,0,0,4.45,1.51,18.45,18.45,0,0,0,4,.67c1.1.06,1.75-.09,2-.45s-.24-1-1.52-1.82S3.3,157,2,156s-2.6-2.11-3.87-3.27a8.42,8.42,0,0,1-2.81-8.25q.93-4.86,4.68-5.7a16.46,16.46,0,0,1,8.2.31,35,35,0,0,1,8.47,3.57,26.46,26.46,0,0,1,5.61,4l-4.19,6.5a6.74,6.74,0,0,0-1.29-.95c-.54-.32-1.19-.67-2-1.05a23.75,23.75,0,0,0-4.06-1.52c-1.16-.26-1.84-.21-2,.18s.74,1.37,2.77,3A72.94,72.94,0,0,0,18,157.59c1.51.95,2.51,2.8,3,5.57a5.78,5.78,0,0,1-2.27,6,16.23,16.23,0,0,1-7.31,2.94,28.26,28.26,0,0,1-9.27,0A19.32,19.32,0,0,1-6,169.22Z" transform="translate(409.28 -105)" style="fill:#d86600"/></svg>