<svg id="Слой_1" data-name="Слой 1" xmlns="http://www.w3.org/2000/svg" viewBox="0 0 541.08 148.31"><title>зеленая крыша_кор</title><rect x="11.25" y="1.74" width="529.83" height="146.57" rx="12" ry="12" style="fill:#3a301f"/><rect width="529.83" height="146.57" rx="12" ry="12" style="fill:#fff"/><path d="M-157.26,294.84l3.66,16.85,3.7-11.84,6.37-.09,2.58,11.05,3.46-15.05,14.9-1.21-10.71,35.3-9.93,1.31-4-12.71-3.79,13.1-10-1.61-10.71-36.07Z" transform="translate(208.03 -240.41)" style="fill:#d86600"/><path d="M-92.55,293.87l11.4,33.1-12.08,4.19-2.38-7.3H-105l-2.19,7.16L-119,325.47l12.12-30.68Zm-4,22.34-3.55-8.61-3.66,8.47Z" transform="translate(208.03 -240.41)" style="fill:#d86600"/><path d="M-64.16,293.82l1.56,28,12.41-1.7.3,9.35-24.3,1.65-3.94-36.9Z" transform="translate(208.03 -240.41)" style="fill:#d86600"/><path d="M-33.44,293.82l1.56,28,12.42-1.7.29,9.35-24.3,1.65-3.94-36.9Z" transform="translate(208.03 -240.41)" style="fill:#d86600"/><path d="M40.33,303.8q-9.49-1.6-13.78,2.09t-3.8,7.79c.32,2.76,2.16,4.87,5.5,6.33s8.08.65,14.22-2.43l5.06,10.22a23.93,23.93,0,0,1-10.86,3.26,35.23,35.23,0,0,1-12.31-1.16,26.4,26.4,0,0,1-10.23-5.46,12.87,12.87,0,0,1-4.48-9.59A16.33,16.33,0,0,1,12.82,304a24,24,0,0,1,8.57-7.25,27.08,27.08,0,0,1,11.1-2.88A20.17,20.17,0,0,1,43.1,296.1Z" transform="translate(208.03 -240.41)" style="fill:#d86600"/><path d="M88.29,314.17q-.58,8.56-6.63,12.8a21.89,21.89,0,0,1-13,4.19,20.53,20.53,0,0,1-12.61-4.28q-5.64-4.19-5.5-12.71a18.38,18.38,0,0,1,2.09-8.33,23.83,23.83,0,0,1,5.26-6.47,22.37,22.37,0,0,1,7-4.14,19,19,0,0,1,7.55-1.36,17.92,17.92,0,0,1,4.58,1,16.9,16.9,0,0,1,5.5,3.21,18.29,18.29,0,0,1,4.38,6.19A21.94,21.94,0,0,1,88.29,314.17ZM74.6,309.84a.85.85,0,0,0,.35-.25,1.59,1.59,0,0,0,.29-.29,3.61,3.61,0,0,0,1.21-2.68,5,5,0,0,0-.82-2.58l-.25-.22-.29-.26-.22-.22a1.44,1.44,0,0,0-.27-.22,6.69,6.69,0,0,0-2.53-1,4.51,4.51,0,0,0-2.92.44,5.39,5.39,0,0,0-1.07.59,8.35,8.35,0,0,0-.83.58A4,4,0,0,0,66,306.62a4.87,4.87,0,0,0,1,2.73l.17.19a1.51,1.51,0,0,0,.17.2,1,1,0,0,1,.19.12l.2.17a5.38,5.38,0,0,0,3.16,1.17,5.22,5.22,0,0,0,3.75-1.41Z" transform="translate(208.03 -240.41)" style="fill:#d86600"/><path d="M106.5,295l2.67,20.2,5.6-15.77L127,300.83l-13,30.33-14.42-1.22-7.84-36.07Z" transform="translate(208.03 -240.41)" style="fill:#d86600"/><path d="M156.06,293.87l.29,10.51-13.63-.19.1,3.89,7-.39.05,6.43H143.5l.14,4.48,13.15-.78.15,12.61-25,.73-2.09-37.25Z" transform="translate(208.03 -240.41)" style="fill:#d86600"/><path d="M172.71,330.14l-11.54-1.46-1.75-34.38a41.1,41.1,0,0,1,8.28-.39c1.62.07,3.2.19,4.75.37s3.09.41,4.64.71a39.38,39.38,0,0,1,8.19,2.62c2.43,1.21,4,2.6,4.62,4.19a6.86,6.86,0,0,1-.73,6.53,19.56,19.56,0,0,1-5.5,5.45l13.63,8.57-11.73,8.81-11-14.36-2.43-.05Zm-1.21-21.23a11,11,0,0,0,5-1.85,4.72,4.72,0,0,0,2.14-2.92,2.72,2.72,0,0,0-1.46-2.73c-1.1-.81-3-1.26-5.74-1.36Z" transform="translate(208.03 -240.41)" style="fill:#d86600"/><path d="M200.32,293.87l14,.92-.68,36-12.37.39Z" transform="translate(208.03 -240.41)" style="fill:#d86600"/><path d="M219.16,293.87l11.69,1,9.59,17-1.66-16.21h11.15l.73,32.13-13,3.36-9.59-19.23-.83,17.72L216.09,327l3.07-32.52Z" transform="translate(208.03 -240.41)" style="fill:#d86600"/><path d="M280.07,305.26a12.36,12.36,0,0,0-5.11-1.51,12,12,0,0,0-5.31.88,10,10,0,0,0-4,3.36,9,9,0,0,0-1.31,5.84,7.9,7.9,0,0,0,6.33,7.5,6.64,6.64,0,0,0,4.62-.78,7.87,7.87,0,0,0,3.36-4.73l-4.53.1.78-5.5,11.54-.1a12.18,12.18,0,0,1,.54,4.58,19.88,19.88,0,0,1-.64,4.58,15.73,15.73,0,0,1-6.08,8.52,17.87,17.87,0,0,1-9.35,3.16,15.54,15.54,0,0,1-4.89-.58,18.41,18.41,0,0,1-4.75-2.15q-4.58-2.87-6.77-9.44a17.2,17.2,0,0,1,0-11.88,20.79,20.79,0,0,1,2.73-5.14,20,20,0,0,1,3.89-4,19.3,19.3,0,0,1,10.33-4,15.35,15.35,0,0,1,11,3.27Z" transform="translate(208.03 -240.41)" style="fill:#d86600"/></svg>