<svg id="3b3fd590-9ede-4a65-8a2c-562dd2ada704" data-name="Layer 7" xmlns="http://www.w3.org/2000/svg" viewBox="0 0 519.75 328.26316"><title>финальное окно-curves-eng</title><rect width="519.75" height="328.26316" rx="20.90355" ry="20.90355" style="fill:#95bb2c"/><path d="M225.56848,114.40181H123.71154a14.5208,14.5208,0,0,0-14.53136,14.516v18.92112a14.51966,14.51966,0,0,0,14.53136,14.51467H225.56848a14.52022,14.52022,0,0,0,14.532-14.51467V128.9178a14.52136,14.52136,0,0,0-14.532-14.516" transform="translate(-99.75 -106.11842)" style="fill:#95bb2c"/><path d="M215.366,147.95628h-7.63254V144.152a5.23875,5.23875,0,0,1,1.69648-3.93111,5.89942,5.89942,0,0,1,8.17134,0,5.36047,5.36047,0,0,1,1.67179,3.95916V153.224h-3.18736v-9.20085a2.785,2.785,0,0,0-.76912-1.97823,2.309,2.309,0,0,0-1.7499-.82189,2.37878,2.37878,0,0,0-1.8494.79585,2.6196,2.6196,0,0,0-.77178,1.92817v1.36066H215.366v2.64854" transform="translate(-99.75 -106.11842)" style="fill:#fff"/><path d="M196.57018,144.17473v2.64589h-5.1923a1.87019,1.87019,0,0,0-1.3867.54214,1.89571,1.89571,0,0,0-.53812,1.36066,1.72937,1.72937,0,0,0,.56481,1.33662,1.89559,1.89559,0,0,0,1.41209.56551h5.14022v2.62118h-5.47272a5.15362,5.15362,0,0,1-3.44506-1.23314,3.97752,3.97752,0,0,1-1.59367-3.21273,3.81322,3.81322,0,0,1,.64427-2.08173,3.11071,3.11071,0,0,1,1.66912-1.31058,2.43391,2.43391,0,0,1-1.31058-1.13166,3.55844,3.55844,0,0,1-.54014-1.90146,3.10061,3.10061,0,0,1,1.20911-2.44025,4.08136,4.08136,0,0,1,2.6993-1.02684h6.14037v2.64787h-5.34654a1.32232,1.32232,0,0,0-.95072.35587,1.25,1.25,0,0,0-.35853.926,1.271,1.271,0,0,0,.35853.95206,1.24393,1.24393,0,0,0,.95072.38456h5.34654" transform="translate(-99.75 -106.11842)" style="fill:#fff"/><path d="M164.41094,138.81527a2.68631,2.68631,0,0,0-.51275,1.55563,3.54642,3.54642,0,0,0,1.09961,2.65123,4.52257,4.52257,0,0,0,2.76206,1.08892l.26571.00135a2.06008,2.06008,0,0,1,1.39.46133,1.785,1.785,0,0,1,.61691,1.46282v-.0761a1.78505,1.78505,0,0,1-.61691,1.46415,2.06416,2.06416,0,0,1-1.39.46267h-4.51595v2.64789h5.95674A3.62215,3.62215,0,0,0,172.2678,149.25a4.3048,4.3048,0,0,0,1.141-2.98106v-.54012a4.29683,4.29683,0,0,0-1.141-2.9797,3.61346,3.61346,0,0,0-2.80144-1.28524l-.29843-.00266a1.6686,1.6686,0,0,1-1.2859-.462,2.0129,2.0129,0,0,1-.40926-1.36,2.29365,2.29365,0,0,1,.022-.41326,1.34037,1.34037,0,0,1,.18293-.41062h-3.26679" transform="translate(-99.75 -106.11842)" style="fill:#fff"/><path d="M176.5212,141.45654l2.62652,4.544L180.222,147.87a2.322,2.322,0,0,0,1.50754-.77582,2.61594,2.61594,0,0,0,.76912-1.92482v-3.7081h-4.42182v-2.6459h7.63387v6.147a5.233,5.233,0,0,1-1.69516,3.93178,5.64,5.64,0,0,1-4.09467,1.64575l-1.84938.002-2.6232-4.54132-2.6225-4.544h3.69543" transform="translate(-99.75 -106.11842)" style="fill:#fff"/><polygon points="97.673 32.697 97.673 35.338 103.426 35.338 97.258 42.026 97.258 44.423 107.395 44.423 107.395 41.766 101.074 41.766 107.153 35.226 107.153 32.697 97.673 32.697" style="fill:#fff"/><path d="M143.02665,149.42332c-7.99977-.39925-13.20407-6.34265-11.561-13.94313,1.52024-7.16653,8.5579-12.77611,16.06225-13.10993H129.96478v28.52389h28.5179v-9.00923c-3.28216,5.1843-9.47593,7.81882-15.456,7.5384" transform="translate(-99.75 -106.11842)" style="fill:#fff"/><path d="M151.09585,122.46965a6.79971,6.79971,0,1,0,6.82668,6.802,6.80429,6.80429,0,0,0-6.82668-6.802" transform="translate(-99.75 -106.11842)" style="fill:#fff"/><path d="M214.76123,177.98242q-5.38037-.91113-7.80811,1.18653-2.42871,2.06835-2.15234,4.41406.2754,2.3452,3.11768,3.58691,2.8418,1.2422,8.05713-1.3789l2.86962,5.79394a13.62626,13.62626,0,0,1-6.15332,1.84863,20.0369,20.0369,0,0,1-6.98046-.66211,14.89054,14.89054,0,0,1-5.79444-3.09082,7.2967,7.2967,0,0,1-2.53857-5.43554,9.2656,9.2656,0,0,1,1.79346-6.125,13.63655,13.63655,0,0,1,4.85644-4.11133,15.32088,15.32088,0,0,1,6.291-1.62793,11.39673,11.39673,0,0,1,6.01464,1.24121Z" transform="translate(-99.75 -106.11842)" style="fill:#fff"/><path d="M241.93945,183.85938a9.08483,9.08483,0,0,1-3.75244,7.25683,12.42726,12.42726,0,0,1-7.36719,2.37207,11.60883,11.60883,0,0,1-7.146-2.42773q-3.20142-2.373-3.11817-7.20117a10.359,10.359,0,0,1,1.18653-4.71876,13.47445,13.47445,0,0,1,2.98-3.66992,12.69394,12.69394,0,0,1,3.97314-2.34472,10.81955,10.81955,0,0,1,4.27686-.77246,10.36954,10.36954,0,0,1,2.59375.5791,9.55038,9.55038,0,0,1,3.11767,1.82129,10.33861,10.33861,0,0,1,2.4834,3.5039A12.43923,12.43923,0,0,1,241.93945,183.85938Zm-7.75341-2.45606a.456.456,0,0,0,.19335-.1377.71594.71594,0,0,0,.16553-.166,2.0507,2.0507,0,0,0,.68994-1.51758,2.86871,2.86871,0,0,0-.46924-1.46191c-.0371-.03711-.083-.07813-.13818-.124s-.11035-.09668-.16553-.15234c-.03711-.03613-.07812-.07813-.124-.124a1.01355,1.01355,0,0,0-.15185-.124,3.75821,3.75821,0,0,0-1.43458-.55175,2.551,2.551,0,0,0-1.65576.248,2.97844,2.97844,0,0,0-.60693.33106,5.66549,5.66549,0,0,0-.46875.33105,2.24357,2.24357,0,0,0-.71777,1.62793,2.80045,2.80045,0,0,0,.57959,1.5459,1.08672,1.08672,0,0,1,.09668.11035.97666.97666,0,0,0,.09668.11035.78016.78016,0,0,1,.11035.06836,1.14233,1.14233,0,0,1,.11035.09668,2.99429,2.99429,0,0,0,3.918-.13769Z" transform="translate(-99.75 -106.11842)" style="fill:#fff"/><path d="M245.6084,172.35352l6.62207.55175,5.43555,9.65723-.938-9.18848h6.31836l.41406,18.21094-7.36719,1.90332-5.43555-10.89844-.46875,10.04395-6.31884-1.49024,1.73828-18.43164Z" transform="translate(-99.75 -106.11842)" style="fill:#fff"/><path d="M280.126,178.80957a7.04381,7.04381,0,0,0-2.89746-.85547,6.86834,6.86834,0,0,0-3.00733.49707,5.72533,5.72533,0,0,0-2.29,1.90332,5.113,5.113,0,0,0-.74511,3.31153,4.609,4.609,0,0,0,1.15869,2.86914A4.54294,4.54294,0,0,0,274.773,187.915a3.73617,3.73617,0,0,0,2.62109-.44141,4.47721,4.47721,0,0,0,1.90381-2.67675l-2.56592.05566.44141-3.11816,6.53955-.05469a6.99533,6.99533,0,0,1,.30322,2.59375,11.17338,11.17338,0,0,1-.3584,2.59277,8.91039,8.91039,0,0,1-3.44921,4.8291,10.10207,10.10207,0,0,1-5.29737,1.793,8.83217,8.83217,0,0,1-2.773-.33105,10.40791,10.40791,0,0,1-2.69043-1.21387,9.59135,9.59135,0,0,1-3.83545-5.35254,9.732,9.732,0,0,1,.02784-6.73242,12.00064,12.00064,0,0,1,1.54492-2.91113,11.49212,11.49212,0,0,1,2.20752-2.27637,10.96291,10.96291,0,0,1,5.84961-2.29,8.71368,8.71368,0,0,1,6.23584,1.84863Z" transform="translate(-99.75 -106.11842)" style="fill:#fff"/><path d="M293.20459,192.90918l-6.53955-.82813-.99316-19.47949a23.33313,23.33313,0,0,1,4.69091-.2207q1.37916.05566,2.68994.207,1.31031.15234,2.63526.40039a22.17078,22.17078,0,0,1,4.63525,1.48926,5.03366,5.03366,0,0,1,2.6211,2.37305,3.88077,3.88077,0,0,1-.41358,3.69726,11.08649,11.08649,0,0,1-3.11816,3.09082l7.72607,4.85547-6.6499,4.99414-6.208-8.13965-1.37988-.02734Zm-.68994-12.03027a6.25019,6.25019,0,0,0,2.81445-1.04786,2.68417,2.68417,0,0,0,1.21387-1.65625,1.55077,1.55077,0,0,0-.82764-1.54492,6.093,6.093,0,0,0-3.25586-.77246Z" transform="translate(-99.75 -106.11842)" style="fill:#fff"/><path d="M323.85889,172.35352l6.45654,18.76269-6.84277,2.37207-1.35205-4.13867h-5.29786l-1.2417,4.05664-6.73242-3.14551,6.87061-17.38281Zm-2.2627,12.66406-2.01416-4.88379-2.06933,4.80176Z" transform="translate(-99.75 -106.11842)" style="fill:#fff"/><path d="M332.19141,173.42969l19.01074-1.07617.33105,9.54687-7.25634-.38672,2.17968,11.97461-9.32617-.99316,1.60059-10.76074-6.70508.19335Z" transform="translate(-99.75 -106.11842)" style="fill:#fff"/><path d="M362.65234,174.64355q-.13769.38673-.35839,1.03418-.2212.64893-.52442,1.55957a17.11264,17.11264,0,0,0-.74512,3.72461,6.71585,6.71585,0,0,0,.44141,3.36621q.63428,1.46338,2.78711,1.40723a2.4388,2.4388,0,0,0,2.207-.96582,4.81618,4.81618,0,0,0,.77246-2.40039,11.85873,11.85873,0,0,0-.11035-3.00781l-.38574-2.8418,5.87695-1.13086q.33105,1.04883.70313,2.33106.37353,1.2832.75879,2.85547a14.11809,14.11809,0,0,1,.35937,5.98828,8.00186,8.00186,0,0,1-2.84277,4.93847q-2.373,2.042-8.02931,1.98633-5.436,0-7.66991-2.56543a10.437,10.437,0,0,1-2.64942-5.9873,19.77632,19.77632,0,0,1,.46973-7.00879,54.31179,54.31179,0,0,1,1.57227-5.57324Z" transform="translate(-99.75 -106.11842)" style="fill:#fff"/><path d="M384.5332,172.3252l.88282,15.89355,7.03515-.96582.166,5.29785-13.76856.9375-2.23437-20.91406Z" transform="translate(-99.75 -106.11842)" style="fill:#fff"/><path d="M409.03418,172.35352l6.45605,18.76269-6.84277,2.37207-1.35156-4.13867h-5.29785l-1.24121,4.05664-6.73243-3.14551,6.87012-17.38281Zm-2.2627,12.66406-2.01464-4.88379-2.06935,4.80176Z" transform="translate(-99.75 -106.11842)" style="fill:#fff"/><path d="M417.36719,173.42969l19.01074-1.07617.33105,9.54687-7.25683-.38672,2.18066,11.97461-9.32617-.99316,1.59961-10.76074-6.7041.19335Z" transform="translate(-99.75 -106.11842)" style="fill:#fff"/><path d="M438.33691,172.35352l7.91895.52441-.38672,20.38965-7.00879.2207Z" transform="translate(-99.75 -106.11842)" style="fill:#fff"/><path d="M468.66016,183.85938a9.08664,9.08664,0,0,1-3.75293,7.25683,12.42623,12.42623,0,0,1-7.36719,2.37207,11.61024,11.61024,0,0,1-7.14649-2.42773q-3.20067-2.373-3.11718-7.20117a10.34655,10.34655,0,0,1,1.18652-4.71876,13.4549,13.4549,0,0,1,2.97949-3.66992A12.69624,12.69624,0,0,1,455.416,173.126a10.81576,10.81576,0,0,1,4.27636-.77246,10.3649,10.3649,0,0,1,2.59375.5791,9.56243,9.56243,0,0,1,3.11817,1.82129,10.33689,10.33689,0,0,1,2.48242,3.5039A12.43174,12.43174,0,0,1,468.66016,183.85938Zm-7.75391-2.45606a.45618.45618,0,0,0,.19336-.1377.713.713,0,0,0,.165-.166,2.04947,2.04947,0,0,0,.69043-1.51758,2.86031,2.86031,0,0,0-.46973-1.46191,1.73961,1.73961,0,0,0-.13769-.124c-.05469-.04589-.11036-.09668-.165-.15234-.03711-.03613-.0791-.07813-.124-.124a1.04252,1.04252,0,0,0-.15234-.124,3.75514,3.75514,0,0,0-1.43457-.55175,2.54826,2.54826,0,0,0-1.65527.248,2.99758,2.99758,0,0,0-.60743.33106,5.66748,5.66748,0,0,0-.46875.33105,2.24547,2.24547,0,0,0-.71777,1.62793,2.80357,2.80357,0,0,0,.5791,1.5459.97666.97666,0,0,1,.09668.11035,1.08548,1.08548,0,0,0,.09668.11035.75339.75339,0,0,1,.11035.06836,1.08564,1.08564,0,0,1,.11035.09668,3.00428,3.00428,0,0,0,1.79395.66211,2.97233,2.97233,0,0,0,2.124-.7998Z" transform="translate(-99.75 -106.11842)" style="fill:#fff"/><path d="M472.33008,172.35352l6.62207.55175,5.43555,9.65723-.93848-9.18848h6.31836l.41406,18.21094-7.36719,1.90332-5.43554-10.89844-.46875,10.04395-6.31836-1.49024,1.73828-18.43164Z" transform="translate(-99.75 -106.11842)" style="fill:#fff"/><path d="M493.71289,185.18359a18.69267,18.69267,0,0,0,2.75977.93848,11.42842,11.42842,0,0,0,2.45507.41309q1.021.05567,1.21485-.27539.24756-.33106-.93848-1.13184-1.27-.88183-2.4834-1.834-1.21436-.95216-2.40039-2.02833a5.21853,5.21853,0,0,1-1.73828-5.10449q.58008-3.00732,2.89746-3.53222a10.21642,10.21642,0,0,1,5.07617.19336,21.79852,21.79852,0,0,1,5.24317,2.207,16.58273,16.58273,0,0,1,3.47656,2.4834l-2.59375,4.02832a3.94439,3.94439,0,0,0-.80078-.59278q-.49659-.29-1.21387-.64844a14.88847,14.88847,0,0,0-2.51074-.93847q-1.0752-.24756-1.26953.11035-.16553.33105,1.71094,1.877a44.66639,44.66639,0,0,0,4.001,2.92481,4.78111,4.78111,0,0,1,1.84864,3.44824,3.58777,3.58777,0,0,1-1.40723,3.72559,10.10909,10.10909,0,0,1-4.52539,1.82031,17.61479,17.61479,0,0,1-5.73828,0,11.99367,11.99367,0,0,1-4.99414-1.793Z" transform="translate(-99.75 -106.11842)" style="fill:#fff"/><path d="M519.89746,165.53809l-2.23535,20.88671-5.1875.52442-.91016-18.01758Zm-4.58008,22.625a4.33183,4.33183,0,0,1,2.51074.49707,1.84891,1.84891,0,0,1,1.04786,1.65527,2.30313,2.30313,0,0,1-1.04786,1.84863,4.96728,4.96728,0,0,1-2.51074.96582,4.44585,4.44585,0,0,1-2.5664-.49609,1.89046,1.89046,0,0,1-1.04883-1.65625,2.33353,2.33353,0,0,1,1.04883-1.82031A5.01739,5.01739,0,0,1,515.31738,188.16309Z" transform="translate(-99.75 -106.11842)" style="fill:#fff"/><path d="M205.57373,205.46387l6.62207.55175,5.43555,9.65723-.938-9.18847h6.31836l.41406,18.21093-7.36719,1.90332-5.43554-10.89843-.46875,10.04394-6.31885-1.49023,1.73828-18.43164Z" transform="translate(-99.75 -106.11842)" style="fill:#fff"/><path d="M246.40967,216.96973a9.08485,9.08485,0,0,1-3.75244,7.25683,12.42729,12.42729,0,0,1-7.36719,2.37207,11.60886,11.60886,0,0,1-7.146-2.42773q-3.2014-2.373-3.11816-7.20117a10.359,10.359,0,0,1,1.18652-4.71875,13.47453,13.47453,0,0,1,2.98-3.66993,12.69406,12.69406,0,0,1,3.97315-2.34472,10.81971,10.81971,0,0,1,4.27685-.77246,10.3699,10.3699,0,0,1,2.59375.5791,9.55052,9.55052,0,0,1,3.11768,1.82129,10.33875,10.33875,0,0,1,2.4834,3.5039A12.43937,12.43937,0,0,1,246.40967,216.96973Zm-7.75342-2.45606a.45618.45618,0,0,0,.19336-.13769.71635.71635,0,0,0,.16553-.166,2.05068,2.05068,0,0,0,.68994-1.51758,2.86881,2.86881,0,0,0-.46924-1.46191c-.03711-.03711-.083-.07813-.13818-.124s-.11036-.09668-.16553-.15235c-.03711-.03613-.07813-.07812-.124-.124a1.01313,1.01313,0,0,0-.15186-.124,3.75823,3.75823,0,0,0-1.43457-.55175,2.551,2.551,0,0,0-1.65576.248,2.97931,2.97931,0,0,0-.60694.33106,5.66948,5.66948,0,0,0-.46875.33105,2.24357,2.24357,0,0,0-.71777,1.62793,2.80042,2.80042,0,0,0,.57959,1.5459,1.08548,1.08548,0,0,1,.09668.11035.97579.97579,0,0,0,.09668.11035.78016.78016,0,0,1,.11035.06836,1.14233,1.14233,0,0,1,.11035.09668,2.99429,2.99429,0,0,0,3.918-.13769Z" transform="translate(-99.75 -106.11842)" style="fill:#fff"/><path d="M256.50781,206.01562l2.06934,9.54688,2.09668-6.70508,3.61474-.05469,1.46241,6.2627L267.71,206.54l8.44336-.69043L270.083,225.85449l-5.62891.74414-2.23486-7.20117-2.15235,7.42188-5.65625-.91016-6.07031-20.44531Z" transform="translate(-99.75 -106.11842)" style="fill:#fff"/><path d="M293.09424,211.50586l4.71826-3.58691,3.86279,5.13281,3.063-7.58789,6.45654,1.07617-10.70605,20.05859-4.74561-3.44824,3.89063-6.31934Z" transform="translate(-99.75 -106.11842)" style="fill:#fff"/><path d="M334.12305,216.96973a9.08485,9.08485,0,0,1-3.75244,7.25683,12.42729,12.42729,0,0,1-7.36719,2.37207,11.60886,11.60886,0,0,1-7.146-2.42773q-3.20142-2.373-3.11816-7.20117a10.359,10.359,0,0,1,1.18652-4.71875,13.47453,13.47453,0,0,1,2.98-3.66993,12.69406,12.69406,0,0,1,3.97315-2.34472,10.81971,10.81971,0,0,1,4.27685-.77246,10.3699,10.3699,0,0,1,2.59375.5791,9.55052,9.55052,0,0,1,3.11768,1.82129,10.33875,10.33875,0,0,1,2.4834,3.5039A12.43951,12.43951,0,0,1,334.12305,216.96973Zm-7.75342-2.45606a.45618.45618,0,0,0,.19336-.13769.71635.71635,0,0,0,.16553-.166,2.05068,2.05068,0,0,0,.68994-1.51758,2.8689,2.8689,0,0,0-.46924-1.46191c-.03711-.03711-.083-.07813-.13818-.124s-.11036-.09668-.16553-.15235c-.03711-.03613-.07813-.07812-.124-.124a1.013,1.013,0,0,0-.15185-.124,3.75823,3.75823,0,0,0-1.43457-.55175,2.551,2.551,0,0,0-1.65576.248,2.979,2.979,0,0,0-.60694.33106,5.66549,5.66549,0,0,0-.46875.33105,2.24357,2.24357,0,0,0-.71777,1.62793,2.80042,2.80042,0,0,0,.57959,1.5459,1.08548,1.08548,0,0,1,.09668.11035.97579.97579,0,0,0,.09668.11035.78016.78016,0,0,1,.11035.06836,1.14233,1.14233,0,0,1,.11035.09668,2.99429,2.99429,0,0,0,3.918-.13769Z" transform="translate(-99.75 -106.11842)" style="fill:#fff"/><path d="M345.5459,207.75391q-.13844.38672-.35889,1.03418-.22119.64891-.52392,1.55957a17.14084,17.14084,0,0,0-.74512,3.72461,6.71035,6.71035,0,0,0,.44141,3.36621q.63428,1.46337,2.7871,1.40722a2.43882,2.43882,0,0,0,2.207-.96582,4.81618,4.81618,0,0,0,.77246-2.40039,11.8592,11.8592,0,0,0-.11036-3.00781l-.38574-2.8418,5.877-1.13086q.331,1.04883.70312,2.33106.37353,1.28321.75879,2.85547a14.11793,14.11793,0,0,1,.35937,5.98828,8.00181,8.00181,0,0,1-2.84277,4.93847q-2.373,2.042-8.02881,1.98633-5.436,0-7.67041-2.56543a10.43319,10.43319,0,0,1-2.64892-5.9873,19.74536,19.74536,0,0,1,.46875-7.00879,54.54609,54.54609,0,0,1,1.57275-5.57324Z" transform="translate(-99.75 -106.11842)" style="fill:#fff"/><path d="M367.17773,197.46191l-6.125,8.85743-1.73828-.85547,1.60059-8.71973Z" transform="translate(-99.75 -106.11842)" style="fill:#fff"/><path d="M376.11719,226.01953l-6.53907-.82812-.99316-19.4795a23.32629,23.32629,0,0,1,4.69043-.2207q1.37842.05567,2.69043.207,1.30957.15234,2.63477.40039a22.19433,22.19433,0,0,1,4.63574,1.48926,5.03557,5.03557,0,0,1,2.62109,2.37305,3.8835,3.8835,0,0,1-.41406,3.69726,11.08649,11.08649,0,0,1-3.11816,3.09082l7.72558,4.85547-6.64941,4.99414-6.208-8.13965-1.37988-.02734Zm-.68946-12.03027a6.257,6.257,0,0,0,2.81446-1.04785,2.68607,2.68607,0,0,0,1.21386-1.65625,1.552,1.552,0,0,0-.82812-1.54493,6.093,6.093,0,0,0-3.25586-.77246Z" transform="translate(-99.75 -106.11842)" style="fill:#fff"/><path d="M406.63379,205.46387l.165,5.96-7.72559-.11035.05469,2.207,3.94629-.22071.02734,3.64161h-3.58691l.083,2.53906,7.44922-.44141.083,7.14649-14.18164.41308-1.18652-21.10742Z" transform="translate(-99.75 -106.11842)" style="fill:#fff"/><path d="M430.99707,226.01953l-6.53906-.82812-.99317-19.4795a23.32629,23.32629,0,0,1,4.69043-.2207q1.37843.05567,2.69043.207,1.30957.15234,2.63477.40039a22.19414,22.19414,0,0,1,4.63574,1.48926,5.03553,5.03553,0,0,1,2.62109,2.37305,3.8835,3.8835,0,0,1-.41406,3.69726,11.08649,11.08649,0,0,1-3.11816,3.09082l7.72558,4.85547-6.64941,4.99414-6.208-8.13965-1.37988-.02734Zm-.68945-12.03027a6.25692,6.25692,0,0,0,2.81445-1.04785,2.68613,2.68613,0,0,0,1.21387-1.65625,1.552,1.552,0,0,0-.82813-1.54493,6.093,6.093,0,0,0-3.25586-.77246Z" transform="translate(-99.75 -106.11842)" style="fill:#fff"/><path d="M461.51367,205.46387l.165,5.96-7.72559-.11035.05469,2.207,3.94629-.22071.02735,3.64161h-3.58692l.083,2.53906,7.44922-.44141.083,7.14649-14.18165.41308-1.18652-21.10742Z" transform="translate(-99.75 -106.11842)" style="fill:#fff"/><path d="M478.42676,205.46387l6.45605,18.76269L478.04,226.59863,476.68848,222.46h-5.29786l-1.24121,4.05664-6.73242-3.14551,6.87012-17.38281Zm-2.2627,12.66406-2.01465-4.88379-2.06933,4.80176Z" transform="translate(-99.75 -106.11842)" style="fill:#fff"/><path d="M486.59375,206.62207a24.14109,24.14109,0,0,1,9.73926-.96484,14.78537,14.78537,0,0,1,9.82324,4.69043,6.70553,6.70553,0,0,1,1.76563,3.47656,9.3853,9.3853,0,0,1,.124,1.97266,7.92641,7.92641,0,0,1-.34473,2,11.46464,11.46464,0,0,1-2.09668,3.80761,10.65808,10.65808,0,0,1-3.78027,2.81446,24.54879,24.54879,0,0,1-6.98047,1.93164,20.61521,20.61521,0,0,1-6.84277-.02735Zm8.93945,11.31348a4.08447,4.08447,0,0,0,1.73828-.30371,6.29866,6.29866,0,0,0,1.73829-1.04883,3.62511,3.62511,0,0,0,1.04882-1.54492,1.81566,1.81566,0,0,0-.30371-1.76563,3.30855,3.30855,0,0,0-2.3457-1.04883,9.91466,9.91466,0,0,0-2.59375-.083Z" transform="translate(-99.75 -106.11842)" style="fill:#fff"/><path d="M509.99219,211.50586,514.71,207.919l3.86328,5.13281,3.0625-7.58789L528.0918,206.54l-10.70508,20.05859-4.7461-3.44824,3.89063-6.31934Z" transform="translate(-99.75 -106.11842)" style="fill:#fff"/><path d="M209.02246,238.57422l14.40332.66211.02734,5.90429-8.02929-.55175.27588,2.51074,3.86279-.02734.44141,5.0498-3.80762-.2207.63476,7.80761-6.53906-.55175Z" transform="translate(-99.75 -106.11842)" style="fill:#fff"/><path d="M246.18848,250.08008a9.08485,9.08485,0,0,1-3.75244,7.25683,12.42729,12.42729,0,0,1-7.36719,2.37207,11.60886,11.60886,0,0,1-7.146-2.42773q-3.20142-2.373-3.11816-7.20117a10.359,10.359,0,0,1,1.18652-4.71875,13.47449,13.47449,0,0,1,2.98-3.66992,12.6939,12.6939,0,0,1,3.97315-2.34473,10.81971,10.81971,0,0,1,4.27685-.77246,10.3699,10.3699,0,0,1,2.59375.5791,9.5507,9.5507,0,0,1,3.11768,1.82129,10.33869,10.33869,0,0,1,2.4834,3.50391A12.43944,12.43944,0,0,1,246.18848,250.08008Zm-7.75342-2.45606a.4561.4561,0,0,0,.19336-.13769.71616.71616,0,0,0,.16553-.166,2.05067,2.05067,0,0,0,.68994-1.51758,2.86893,2.86893,0,0,0-.46924-1.46191c-.03711-.03711-.083-.07812-.13819-.124s-.11035-.09668-.16552-.15235c-.03711-.03613-.07813-.07812-.124-.124a1.013,1.013,0,0,0-.15185-.124,3.75824,3.75824,0,0,0-1.43457-.55176,2.551,2.551,0,0,0-1.65576.24805,2.97858,2.97858,0,0,0-.60694.33105,5.66549,5.66549,0,0,0-.46875.33105,2.24357,2.24357,0,0,0-.71777,1.62793,2.80042,2.80042,0,0,0,.57959,1.5459,1.08656,1.08656,0,0,1,.09668.11035.97672.97672,0,0,0,.09668.11036.77833.77833,0,0,1,.11035.06836,1.1396,1.1396,0,0,1,.11035.09668,2.99431,2.99431,0,0,0,3.918-.1377Z" transform="translate(-99.75 -106.11842)" style="fill:#fff"/><path d="M255.65234,259.12988l-6.53955-.82812-.99316-19.47949a23.33243,23.33243,0,0,1,4.69092-.22071q1.37915.05566,2.68994.207,1.31029.15235,2.63525.40039a22.17069,22.17069,0,0,1,4.63526,1.48926,5.03368,5.03368,0,0,1,2.62109,2.37305,3.88076,3.88076,0,0,1-.41357,3.69726,11.08669,11.08669,0,0,1-3.11817,3.09083l7.72608,4.85546-6.64991,4.99414-6.208-8.13964-1.37989-.02735Zm-.68994-12.03027a6.2503,6.2503,0,0,0,2.81446-1.04785,2.68417,2.68417,0,0,0,1.21386-1.65625,1.55075,1.55075,0,0,0-.82763-1.54492,6.09293,6.09293,0,0,0-3.25586-.77247Z" transform="translate(-99.75 -106.11842)" style="fill:#fff"/><path d="M286.38916,239.65039l19.01074-1.07617.33155,9.54687-7.25684-.38671,2.17969,11.9746-9.32618-.99316,1.60059-10.76074-6.70508.19336Z" transform="translate(-99.75 -106.11842)" style="fill:#fff"/><path d="M307.35889,239.42969l6.4292-.38672v7.11914l4.71826-.083v-7.09082l7.33935-.41406-.96582,19.83789-6.37353.71777v-7.53222l-4.71826.11035v7.44922l-5.57373.55175Z" transform="translate(-99.75 -106.11842)" style="fill:#fff"/><path d="M342.29,238.57422l.16553,5.96-7.72559-.11035.05518,2.207,3.9458-.2207.02734,3.6416h-3.58691l.083,2.53906,7.44971-.44141.08252,7.14649-14.18213.41308L327.418,238.60156Z" transform="translate(-99.75 -106.11842)" style="fill:#fff"/><path d="M359.12012,239.42969l6.42871-.38672v7.11914l4.71777-.083v-7.09082l7.33985-.41406-.96583,19.83789-6.374.71777v-7.53222l-4.71777.11035v7.44922l-5.57422.55175Z" transform="translate(-99.75 -106.11842)" style="fill:#fff"/><path d="M400.56348,250.08008a9.0866,9.0866,0,0,1-3.75293,7.25683,12.42623,12.42623,0,0,1-7.36719,2.37207,11.61019,11.61019,0,0,1-7.14648-2.42773q-3.20068-2.373-3.11719-7.20117a10.34664,10.34664,0,0,1,1.18652-4.71875,13.45475,13.45475,0,0,1,2.97949-3.66992,12.69626,12.69626,0,0,1,3.97364-2.34473,10.81594,10.81594,0,0,1,4.27636-.77246,10.36535,10.36535,0,0,1,2.59375.5791,9.56261,9.56261,0,0,1,3.11817,1.82129,10.33683,10.33683,0,0,1,2.48242,3.50391A12.43168,12.43168,0,0,1,400.56348,250.08008Zm-7.75391-2.45606a.456.456,0,0,0,.19336-.13769.713.713,0,0,0,.165-.166,2.04944,2.04944,0,0,0,.69043-1.51758,2.86034,2.86034,0,0,0-.46973-1.46191,1.7397,1.7397,0,0,0-.13769-.124c-.05469-.0459-.11036-.09668-.165-.15235-.03711-.03613-.0791-.07812-.124-.124a1.04246,1.04246,0,0,0-.15234-.124,3.75516,3.75516,0,0,0-1.43457-.55176,2.54827,2.54827,0,0,0-1.65527.24805,2.99761,2.99761,0,0,0-.60743.33105,5.66748,5.66748,0,0,0-.46875.33105,2.24547,2.24547,0,0,0-.71777,1.62793,2.80354,2.80354,0,0,0,.5791,1.5459.97753.97753,0,0,1,.09668.11035,1.08555,1.08555,0,0,0,.09668.11036.75168.75168,0,0,1,.11035.06836,1.08432,1.08432,0,0,1,.11036.09668,3.00428,3.00428,0,0,0,1.79394.6621,2.97228,2.97228,0,0,0,2.124-.7998Z" transform="translate(-99.75 -106.11842)" style="fill:#fff"/><path d="M410.41309,238.5459l.88281,15.89355,7.03515-.96582.166,5.29785-13.76855.9375-2.23438-20.91406Z" transform="translate(-99.75 -106.11842)" style="fill:#fff"/><path d="M419.90527,238.57422l7.919.52441-.38673,20.38965-7.00878.2207Z" transform="translate(-99.75 -106.11842)" style="fill:#fff"/><path d="M428.84473,239.73242a24.14125,24.14125,0,0,1,9.73925-.96484,14.78542,14.78542,0,0,1,9.82325,4.69043,6.70552,6.70552,0,0,1,1.76562,3.47656,9.38529,9.38529,0,0,1,.124,1.97266,7.92641,7.92641,0,0,1-.34473,2,11.46454,11.46454,0,0,1-2.09668,3.80761,10.65826,10.65826,0,0,1-3.78027,2.81446,24.54879,24.54879,0,0,1-6.98047,1.93164,20.615,20.615,0,0,1-6.84278-.02735Zm8.93945,11.31348a4.08437,4.08437,0,0,0,1.73828-.30371,6.29845,6.29845,0,0,0,1.73828-1.04883,3.62513,3.62513,0,0,0,1.04883-1.54492,1.81569,1.81569,0,0,0-.30371-1.76563,3.30859,3.30859,0,0,0-2.3457-1.04883,9.91412,9.91412,0,0,0-2.59375-.083Z" transform="translate(-99.75 -106.11842)" style="fill:#fff"/><path d="M467.252,238.57422l6.45606,18.76269-6.84278,2.37207-1.35156-4.13867h-5.29785l-1.24121,4.05664-6.73242-3.1455,6.87011-17.38282Zm-2.26269,12.66406-2.01465-4.88379-2.06934,4.80176Z" transform="translate(-99.75 -106.11842)" style="fill:#fff"/><path d="M475.419,244.61621l4.71777-3.58691L484,246.16211l3.06249-7.58789,6.45606,1.07617L482.81348,259.709l-4.7461-3.44824,3.89063-6.31933Z" transform="translate(-99.75 -106.11842)" style="fill:#fff"/><path d="M496.99512,251.4043a18.69409,18.69409,0,0,0,2.75976.93847,11.428,11.428,0,0,0,2.45508.41309q1.021.05566,1.21484-.27539.24756-.331-.93847-1.13184-1.27-.88184-2.4834-1.834-1.21436-.95215-2.40039-2.02832a5.21853,5.21853,0,0,1-1.73828-5.10449q.58008-3.00734,2.89746-3.53223a10.21642,10.21642,0,0,1,5.07617.19336,21.79828,21.79828,0,0,1,5.24316,2.207,16.583,16.583,0,0,1,3.47657,2.4834l-2.59375,4.02832a3.94429,3.94429,0,0,0-.80078-.59277q-.49659-.29-1.21387-.64844a14.88944,14.88944,0,0,0-2.51074-.93848q-1.0752-.24756-1.26953.11035-.16554.33106,1.71093,1.877a44.66916,44.66916,0,0,0,4.001,2.9248,4.78109,4.78109,0,0,1,1.84863,3.44824,3.58777,3.58777,0,0,1-1.40722,3.72559,10.109,10.109,0,0,1-4.52539,1.82031,17.61429,17.61429,0,0,1-5.73829,0,11.99363,11.99363,0,0,1-4.99414-1.793Z" transform="translate(-99.75 -106.11842)" style="fill:#fff"/><path d="M523.17969,231.75879l-2.23535,20.88672-5.1875.52441-.91016-18.01758Zm-4.58008,22.625a4.33193,4.33193,0,0,1,2.51074.49707,1.84893,1.84893,0,0,1,1.04785,1.65527,2.30317,2.30317,0,0,1-1.04785,1.84864,4.96741,4.96741,0,0,1-2.51074.96582,4.446,4.446,0,0,1-2.56641-.4961,1.89044,1.89044,0,0,1-1.04882-1.65625,2.33353,2.33353,0,0,1,1.04882-1.82031A5.01754,5.01754,0,0,1,518.59961,254.38379Z" transform="translate(-99.75 -106.11842)" style="fill:#fff"/><path d="M236.978,289.28223l7.19922.331.01416,2.95117-4.01368-.27539.13819,1.25489,1.93066-.01368.22071,2.52344-1.90333-.11035.31739,3.90332-3.26856-.27637Z" transform="translate(-99.75 -106.11842)" style="fill:#fff"/><path d="M255.55518,295.0332a4.53969,4.53969,0,0,1-1.87549,3.627,6.2138,6.2138,0,0,1-3.68213,1.18652,5.80238,5.80238,0,0,1-3.57227-1.21387,4.09629,4.09629,0,0,1-1.55859-3.59961,5.18161,5.18161,0,0,1,.59326-2.3584,6.71578,6.71578,0,0,1,1.48926-1.834,6.34711,6.34711,0,0,1,1.98633-1.17285,5.42932,5.42932,0,0,1,2.13769-.38574,5.22373,5.22373,0,0,1,1.29639.28906,4.77762,4.77762,0,0,1,1.5581.91113,5.15519,5.15519,0,0,1,1.2417,1.751A6.219,6.219,0,0,1,255.55518,295.0332Zm-3.875-1.22754a.22855.22855,0,0,0,.09619-.06933.3578.3578,0,0,0,.083-.082,1.026,1.026,0,0,0,.34472-.75879,1.43244,1.43244,0,0,0-.23437-.73047c-.01856-.01856-.04151-.03906-.06934-.0625a.97639.97639,0,0,1-.08252-.07617c-.01855-.01758-.03906-.03907-.062-.06153a.49146.49146,0,0,0-.07568-.0625,1.88812,1.88812,0,0,0-.71729-.27539,1.27109,1.27109,0,0,0-.82764.124,1.48076,1.48076,0,0,0-.30322.165,2.829,2.829,0,0,0-.23486.166,1.12221,1.12221,0,0,0-.3584.81348,1.3989,1.3989,0,0,0,.28955.77246.58735.58735,0,0,1,.04834.05469.49186.49186,0,0,0,.04834.05566.36127.36127,0,0,1,.05518.03418.54211.54211,0,0,1,.05517.04883,1.49582,1.49582,0,0,0,1.9585-.06934Z" transform="translate(-99.75 -106.11842)" style="fill:#fff"/><path d="M260.479,289.26855l.44141,7.94336,3.5166-.48242.083,2.64844-6.88232.46875-1.11719-10.4541Z" transform="translate(-99.75 -106.11842)" style="fill:#fff"/><path d="M269.18115,289.26855l.44141,7.94336,3.5166-.48242.083,2.64844-6.88233.46875-1.11718-10.4541Z" transform="translate(-99.75 -106.11842)" style="fill:#fff"/><path d="M284.61377,295.0332a4.53964,4.53964,0,0,1-1.87549,3.627,6.21378,6.21378,0,0,1-3.68213,1.18652,5.80235,5.80235,0,0,1-3.57226-1.21387,4.09627,4.09627,0,0,1-1.5586-3.59961,5.18174,5.18174,0,0,1,.59326-2.3584,6.716,6.716,0,0,1,1.48926-1.834,6.34711,6.34711,0,0,1,1.98633-1.17285,5.42937,5.42937,0,0,1,2.1377-.38574,5.22367,5.22367,0,0,1,1.29638.28906,4.77777,4.77777,0,0,1,1.55811.91113,5.15546,5.15546,0,0,1,1.2417,1.751A6.219,6.219,0,0,1,284.61377,295.0332Zm-3.875-1.22754a.22848.22848,0,0,0,.09619-.06933.3578.3578,0,0,0,.083-.082,1.026,1.026,0,0,0,.34473-.75879,1.43246,1.43246,0,0,0-.23438-.73047c-.01855-.01856-.0415-.03906-.06934-.0625a.97792.97792,0,0,1-.08252-.07617c-.01855-.01758-.03906-.03907-.062-.06153a.49146.49146,0,0,0-.07568-.0625,1.888,1.888,0,0,0-.71729-.27539,1.27106,1.27106,0,0,0-.82763.124,1.48087,1.48087,0,0,0-.30323.165,2.831,2.831,0,0,0-.23486.166,1.12221,1.12221,0,0,0-.3584.81348,1.399,1.399,0,0,0,.28955.77246.58735.58735,0,0,1,.04834.05469.49287.49287,0,0,0,.04834.05566.36127.36127,0,0,1,.05518.03418.54217.54217,0,0,1,.05518.04883,1.4958,1.4958,0,0,0,1.95849-.06934Z" transform="translate(-99.75 -106.11842)" style="fill:#fff"/><path d="M289.66162,289.55762l1.03418,4.77246,1.04834-3.35156,1.80664-.02735.731,3.13086.979-4.26172,4.22071-.34472-3.03418,9.998-2.81348.373-1.11719-3.59961-1.07568,3.71-2.82764-.45508-3.03418-10.21972Z" transform="translate(-99.75 -106.11842)" style="fill:#fff"/><path d="M308.03174,289.82031l9.50244-.53808.16553,4.77148-3.62744-.19238,1.08984,5.98535-4.66162-.49707.7998-5.37793-3.35156.0957Z" transform="translate(-99.75 -106.11842)" style="fill:#fff"/><path d="M318.5127,289.71l3.21386-.19336v3.5586l2.35791-.042v-3.54394l3.66895-.207-.48291,9.916-3.186.3584V295.792l-2.35791.05469v3.72363l-2.78613.27637Z" transform="translate(-99.75 -106.11842)" style="fill:#fff"/><path d="M335.97314,289.28223l.08252,2.97851-3.86181-.05469.02783,1.10352,1.97217-.11035.01367,1.82031h-1.793l.0415,1.26856,3.72364-.22071.0415,3.57227-7.08887.207-.59326-10.55078Z" transform="translate(-99.75 -106.11842)" style="fill:#fff"/><path d="M348.34375,289.26855l.44141,7.94336,3.5166-.48242.083,2.64844-6.88233.46875-1.11719-10.4541Z" transform="translate(-99.75 -106.11842)" style="fill:#fff"/><path d="M353.08789,289.28223l3.958.26172-.19336,10.19238-3.50293.11035Z" transform="translate(-99.75 -106.11842)" style="fill:#fff"/><path d="M358.4248,289.28223l3.31055.27539,2.7168,4.82715-.46875-4.59278h3.1582l.207,9.10254-3.68261.95215-2.7168-5.44824-.23438,5.02051-3.1582-.74512.86816-9.21289Z" transform="translate(-99.75 -106.11842)" style="fill:#fff"/><path d="M375.88477,289.53027l2.31738,2.23438-2.81348,2.99316,2.82715,2.99219-2.97852,2.05469-3.13085-3.57129.041,3.36523-3.47558.248-.52344-10.41309,3.999-.15136.02734,5.14453Z" transform="translate(-99.75 -106.11842)" style="fill:#fff"/><path d="M394.00684,289.28223l3.22754,9.37793-3.41993,1.18652-.67578-2.06934h-2.64844l-.62011,2.02735-3.36524-1.57227,3.4336-8.68847ZM392.876,295.6123l-1.00684-2.4414-1.03418,2.40039Z" transform="translate(-99.75 -106.11842)" style="fill:#fff"/><path d="M398.958,289.28223l3.31054.27539,2.7168,4.82715-.46875-4.59278h3.1582l.207,9.10254-3.68262.95215-2.7168-5.44824-.23437,5.02051-3.15821-.74512.86817-9.21289Z" transform="translate(-99.75 -106.11842)" style="fill:#fff"/><path d="M408.68164,289.86133a12.06324,12.06324,0,0,1,4.86816-.48242,7.39073,7.39073,0,0,1,4.91016,2.34472,3.34294,3.34294,0,0,1,.88184,1.73731,4.66037,4.66037,0,0,1,.0625.98633,3.94286,3.94286,0,0,1-.17285,1,5.72088,5.72088,0,0,1-1.04786,1.90332,5.33361,5.33361,0,0,1-1.88964,1.40625,12.29478,12.29478,0,0,1-3.48926.96582,10.32554,10.32554,0,0,1-3.41992-.01368Zm4.46777,5.65429a2.04744,2.04744,0,0,0,.86914-.15136,3.15636,3.15636,0,0,0,.86915-.52442,1.814,1.814,0,0,0,.52441-.77246.90767.90767,0,0,0-.15234-.88183,1.64786,1.64786,0,0,0-1.17188-.52442,4.97429,4.97429,0,0,0-1.29687-.041Z" transform="translate(-99.75 -106.11842)" style="fill:#fff"/><path d="M435.36719,292.50977a3.51047,3.51047,0,0,0-1.44824-.42774,3.43748,3.43748,0,0,0-1.50391.24805,2.87359,2.87359,0,0,0-1.14453.95117,2.56013,2.56013,0,0,0-.37207,1.65527,2.30823,2.30823,0,0,0,.5791,1.43457,2.27706,2.27706,0,0,0,1.21387.68946,1.86774,1.86774,0,0,0,1.30957-.22071,2.23956,2.23956,0,0,0,.95214-1.33789l-1.28222.02735.2207-1.55762,3.26856-.02832a3.5193,3.5193,0,0,1,.15136,1.29687,5.55392,5.55392,0,0,1-.17968,1.2959,4.45474,4.45474,0,0,1-1.72364,2.41407,5.04883,5.04883,0,0,1-2.64843.89648,4.41366,4.41366,0,0,1-1.38575-.166,5.20266,5.20266,0,0,1-1.34472-.60644,4.79464,4.79464,0,0,1-1.917-2.67578,4.86615,4.86615,0,0,1,.01368-3.36524,6.01454,6.01454,0,0,1,.77246-1.45508,5.76886,5.76886,0,0,1,1.10351-1.13769,5.481,5.481,0,0,1,2.92383-1.14453,4.35848,4.35848,0,0,1,3.11719.92383Z" transform="translate(-99.75 -106.11842)" style="fill:#fff"/><path d="M441.9043,299.55664l-3.26856-.41309-.49609-9.7373a11.69243,11.69243,0,0,1,2.34473-.11035q.68847.02783,1.34374.10351.65625.07619,1.31739.2002a11.05407,11.05407,0,0,1,2.31738.74414,2.51521,2.51521,0,0,1,1.30957,1.18652,1.93831,1.93831,0,0,1-.20605,1.84766,5.55272,5.55272,0,0,1-1.5586,1.54492l3.86133,2.42774-3.32324,2.49609-3.10352-4.06836-.68945-.01367Zm-.34473-6.01269a3.13226,3.13226,0,0,0,1.40723-.52442,1.34236,1.34236,0,0,0,.60644-.82715.77521.77521,0,0,0-.41406-.77246,3.04637,3.04637,0,0,0-1.62695-.38672Z" transform="translate(-99.75 -106.11842)" style="fill:#fff"/><path d="M457.22656,289.28223l3.22754,9.37793-3.41992,1.18652-.67578-2.06934H453.71l-.62012,2.02735-3.36523-1.57227,3.43359-8.68847Zm-1.13086,6.33007-1.00683-2.4414-1.03418,2.40039Z" transform="translate(-99.75 -106.11842)" style="fill:#fff"/><path d="M461.30957,289.751q.74413-.16554,1.49609-.28223.75147-.11719,1.53809-.18652a8.30961,8.30961,0,0,1,3.72363.75879,2.2704,2.2704,0,0,1,1.58594,1.86132,1.85705,1.85705,0,0,1-1.04785,1.917,4.24686,4.24686,0,0,1,2.70312,1.11718,2.55945,2.55945,0,0,1,.7168,1.93067,2.951,2.951,0,0,1-.97949,1.88965,3.95711,3.95711,0,0,1-2.46875,1.00683q-.89649.08351-1.69629.08985a14.59607,14.59607,0,0,1-1.53027-.0625q-.73244-.06885-1.4834-.19239-.75147-.12452-1.53711-.31738Zm3.84766,3.24121q.29-.02784.55175-.05567a2.72063,2.72063,0,0,0,.4961-.0957c.3125-.083.4834-.23047.51074-.44141.03613-.3955-.20215-.63476-.71777-.71777-.25684-.0459-.46875-.07519-.63379-.08984a1.3835,1.3835,0,0,0-.373.00683Zm.59277,4.27539a7.25744,7.25744,0,0,1,1.18652-.083q.88184-.041.84082-.77246-.041-.84082-.99316-.91016-.46875-.041-.77246-.04785a2.4145,2.4145,0,0,0-.45508.02051Z" transform="translate(-99.75 -106.11842)" style="fill:#fff"/><path d="M148.76855,306.37012l9.50245-.53809.16552,4.77149-3.62744-.19239,1.08985,5.98535-4.66163-.49707.79981-5.37793-3.35156.09571Z" transform="translate(-99.75 -106.11842)" style="fill:#fff"/><path d="M159.25,306.25977l3.21387-.19336V309.625l2.35791-.042v-3.54395l3.66894-.207-.48291,9.916-3.186.3584V312.3418l-2.35791.05468v3.72364l-2.78614.27636Z" transform="translate(-99.75 -106.11842)" style="fill:#fff"/><path d="M176.71,305.832l.08252,2.97852-3.86182-.05469.02784,1.10352,1.97216-.11036.01368,1.82032h-1.793l.0415,1.26855,3.72363-.2207.04151,3.57226-7.08887.207-.59326-10.55078Z" transform="translate(-99.75 -106.11842)" style="fill:#fff"/><path d="M192.65234,309.05957a3.50364,3.50364,0,0,0-1.44775-.42773,3.4316,3.4316,0,0,0-1.50342.248,2.87507,2.87507,0,0,0-1.145.95117,2.55729,2.55729,0,0,0-.37207,1.65528,2.3055,2.3055,0,0,0,.5791,1.43457,2.27539,2.27539,0,0,0,1.21387.68945,1.86938,1.86938,0,0,0,1.31006-.2207,2.23717,2.23717,0,0,0,.95166-1.33789l-1.28272.02734.22071-1.55762,3.26855-.02832a3.4989,3.4989,0,0,1,.15186,1.29688,5.58275,5.58275,0,0,1-.1792,1.2959A4.46048,4.46048,0,0,1,192.69385,315.5a5.04849,5.04849,0,0,1-2.648.89648,4.41635,4.41635,0,0,1-1.38623-.166,5.20276,5.20276,0,0,1-1.34473-.60645,4.79458,4.79458,0,0,1-1.917-2.67578,4.86321,4.86321,0,0,1,.01416-3.36523,6.01354,6.01354,0,0,1,.772-1.45508,5.769,5.769,0,0,1,1.10352-1.1377,5.48247,5.48247,0,0,1,2.92383-1.14453,4.358,4.358,0,0,1,3.11669.92383Z" transform="translate(-99.75 -106.11842)" style="fill:#fff"/><path d="M195.42432,305.832l3.95849.26172-.19336,10.19238-3.50293.11035Z" transform="translate(-99.75 -106.11842)" style="fill:#fff"/><path d="M199.89258,305.832l7.19922.33106.01416,2.95117-4.01367-.27539.13818,1.25488,1.93066-.01367.22071,2.52344-1.90332-.11036.31738,3.90332-3.26856-.27636Z" transform="translate(-99.75 -106.11842)" style="fill:#fff"/><path d="M207.86426,306.37012l9.50244-.53809.16553,4.77149-3.62744-.19239,1.08984,5.98535-4.66162-.49707.7998-5.37793-3.35156.09571Z" transform="translate(-99.75 -106.11842)" style="fill:#fff"/><path d="M225.88965,306.37012l9.50244-.53809.16553,4.77149-3.62744-.19239,1.08984,5.98535-4.66162-.49707.7998-5.37793-3.35156.09571Z" transform="translate(-99.75 -106.11842)" style="fill:#fff"/><path d="M236.37109,306.25977l3.21387-.19336V309.625l2.35791-.042v-3.54395l3.66895-.207-.48291,9.916-3.186.3584V312.3418l-2.35791.05468v3.72364l-2.78613.27636Z" transform="translate(-99.75 -106.11842)" style="fill:#fff"/><path d="M253.90039,305.832l3.227,9.37793-3.42041,1.18652-.67578-2.06933h-2.648l-.6206,2.02734-3.36524-1.57226,3.43408-8.68848Zm-1.13086,6.33008-1.00683-2.44141-1.03467,2.40039Z" transform="translate(-99.75 -106.11842)" style="fill:#fff"/><path d="M258.06494,306.37012l9.50244-.53809.16553,4.77149-3.62744-.19239,1.08984,5.98535-4.66162-.49707.79981-5.37793-3.35157.09571Z" transform="translate(-99.75 -106.11842)" style="fill:#fff"/><path d="M280.08984,306.10742l1.03418,4.77246,1.04834-3.35156,1.80664-.02734.731,3.13086.979-4.26172,4.22071-.34473-3.03418,9.998-2.81348.373-1.11719-3.5996-1.07568,3.71-2.82764-.45508L276.00732,305.832Z" transform="translate(-99.75 -106.11842)" style="fill:#fff"/><path d="M298.3501,305.832l.08252,2.97852-3.86182-.05469.02783,1.10352,1.97217-.11036.01367,1.82032h-1.793l.04151,1.26855,3.72363-.2207.0415,3.57226-7.08886.207L290.916,305.8457Z" transform="translate(-99.75 -106.11842)" style="fill:#fff"/><path d="M310.33447,313.07227l.1377,3.32421-3.00635-.35839-.70361-10.17871q.386-.02784.91064-.02735.52368,0,1.21338.041a13.11439,13.11439,0,0,1,2.70313.40039,7.34929,7.34929,0,0,1,2.33105.99316,2.07443,2.07443,0,0,1,.99268,1.793,3.14363,3.14363,0,0,1-1.46192,2.74414,7.09956,7.09956,0,0,1-3.1167,1.28223Zm-.38623-1.834a3.169,3.169,0,0,0,1.36524-.70312,1.58549,1.58549,0,0,0,.56543-.9795.92143.92143,0,0,0-.44092-.85546,2.755,2.755,0,0,0-1.66895-.33106Z" transform="translate(-99.75 -106.11842)" style="fill:#fff"/><path d="M319.40918,316.10645l-3.26856-.41309-.49658-9.73731a11.69634,11.69634,0,0,1,2.34473-.11035q.68921.02784,1.34473.10352.65478.07617,1.31689.20019a11.05465,11.05465,0,0,1,2.31738.74414,2.51842,2.51842,0,0,1,1.31006,1.18653,1.93985,1.93985,0,0,1-.207,1.84765,5.53345,5.53345,0,0,1-1.55859,1.54493l3.86181,2.42773-3.32373,2.49609-3.103-4.06836-.68946-.01367Zm-.34473-6.0127a3.12787,3.12787,0,0,0,1.40674-.52441,1.33957,1.33957,0,0,0,.60693-.82715.77553.77553,0,0,0-.41357-.77246,3.05094,3.05094,0,0,0-1.62744-.38672Z" transform="translate(-99.75 -106.11842)" style="fill:#fff"/><path d="M334.6626,305.832l.08252,2.97852-3.86182-.05469.02783,1.10352,1.97217-.11036.01367,1.82032h-1.793l.04151,1.26855,3.72363-.2207.0415,3.57226-7.08886.207-.59326-10.55078Z" transform="translate(-99.75 -106.11842)" style="fill:#fff"/><path d="M339.186,313.07227l.13769,3.32421-3.00635-.35839-.70361-10.17871q.386-.02784.91064-.02735.52369,0,1.21338.041a13.11439,13.11439,0,0,1,2.70313.40039,7.34929,7.34929,0,0,1,2.33105.99316,2.07443,2.07443,0,0,1,.99268,1.793,3.14363,3.14363,0,0,1-1.46192,2.74414,7.09957,7.09957,0,0,1-3.11669,1.28223Zm-.38624-1.834a3.169,3.169,0,0,0,1.36524-.70312,1.58549,1.58549,0,0,0,.56543-.9795.92141.92141,0,0,0-.44092-.85546,2.755,2.755,0,0,0-1.66894-.33106Z" transform="translate(-99.75 -106.11842)" style="fill:#fff"/><path d="M351.99805,305.832l3.22754,9.37793-3.41993,1.18652-.67578-2.06933h-2.64843l-.62061,2.02734-3.36523-1.57226,3.43408-8.68848Zm-1.13086,6.33008-1.00684-2.44141-1.03418,2.40039Z" transform="translate(-99.75 -106.11842)" style="fill:#fff"/><path d="M359.8457,316.10645l-3.26855-.41309-.4961-9.73731a11.69243,11.69243,0,0,1,2.34473-.11035q.68849.02784,1.34375.10352.65625.07617,1.31738.20019a11.05494,11.05494,0,0,1,2.31739.74414,2.51526,2.51526,0,0,1,1.30957,1.18653,1.93829,1.93829,0,0,1-.20606,1.84765,5.55258,5.55258,0,0,1-1.55859,1.54493l3.86133,2.42773-3.32325,2.49609-3.10351-4.06836-.68945-.01367Zm-.34472-6.0127a3.13217,3.13217,0,0,0,1.40722-.52441,1.34234,1.34234,0,0,0,.60645-.82715.77521.77521,0,0,0-.41406-.77246,3.04631,3.04631,0,0,0-1.627-.38672Z" transform="translate(-99.75 -106.11842)" style="fill:#fff"/><path d="M375.09961,305.832l.083,2.97852-3.86231-.05469.02735,1.10352,1.97265-.11036.01367,1.82032h-1.793l.042,1.26855,3.72363-.2207.041,3.57226-7.08887.207L367.666,305.8457Z" transform="translate(-99.75 -106.11842)" style="fill:#fff"/><path d="M376.05078,306.41113a12.06327,12.06327,0,0,1,4.86817-.48242,7.39081,7.39081,0,0,1,4.91015,2.34473,3.34287,3.34287,0,0,1,.88184,1.7373,4.66041,4.66041,0,0,1,.0625.98633,3.94227,3.94227,0,0,1-.17285,1,5.72078,5.72078,0,0,1-1.04786,1.90332,5.33352,5.33352,0,0,1-1.88964,1.40625,12.29478,12.29478,0,0,1-3.48926.96582,10.32584,10.32584,0,0,1-3.41992-.01367Zm4.46777,5.6543a2.04766,2.04766,0,0,0,.86915-.15137,3.15668,3.15668,0,0,0,.86914-.52441,1.814,1.814,0,0,0,.52441-.77246.9077.9077,0,0,0-.15234-.88184,1.64781,1.64781,0,0,0-1.17188-.52441,4.97439,4.97439,0,0,0-1.29687-.041Z" transform="translate(-99.75 -106.11842)" style="fill:#fff"/><path d="M396.17188,312.24512a9.36566,9.36566,0,0,0,1.37988.46875,5.71255,5.71255,0,0,0,1.22656.207q.51123.02783.60742-.1377c.083-.11035-.07422-.29882-.46875-.56543q-.63427-.44238-1.24121-.917-.6079-.47607-1.20019-1.01465a2.60916,2.60916,0,0,1-.86914-2.55078,1.95843,1.95843,0,0,1,1.44824-1.76562,5.11376,5.11376,0,0,1,2.53808.09668,10.8694,10.8694,0,0,1,2.62012,1.10351,8.22365,8.22365,0,0,1,1.73731,1.24121l-1.2959,2.01367a1.95522,1.95522,0,0,0-.40039-.29687c-.165-.09668-.36719-.2041-.60645-.32422a7.47735,7.47735,0,0,0-1.25488-.46875q-.5376-.12451-.63477.05566-.082.16554.85547.9375a22.07738,22.07738,0,0,0,2,1.46192,2.39242,2.39242,0,0,1,.92383,1.72363,1.79342,1.79342,0,0,1-.7041,1.86231,5.05138,5.05138,0,0,1-2.26172.91015,8.82843,8.82843,0,0,1-2.86817,0,6.00856,6.00856,0,0,1-2.49609-.89648Z" transform="translate(-99.75 -106.11842)" style="fill:#fff"/><path d="M408.2666,313.07227l.13867,3.32421-3.00683-.35839-.70313-10.17871q.38526-.02784.91016-.02735.52294,0,1.21387.041a13.12409,13.12409,0,0,1,2.70312.40039,7.3437,7.3437,0,0,1,2.33008.99316,2.07382,2.07382,0,0,1,.99316,1.793,3.14362,3.14362,0,0,1-1.46191,2.74414,7.09438,7.09438,0,0,1-3.11719,1.28223Zm-.38574-1.834a3.16892,3.16892,0,0,0,1.36523-.70312,1.58544,1.58544,0,0,0,.56543-.9795.92.92,0,0,0-.4414-.85546,2.75417,2.75417,0,0,0-1.66895-.33106Z" transform="translate(-99.75 -106.11842)" style="fill:#fff"/><path d="M421.01074,305.832l.083,2.97852-3.8623-.05469.02734,1.10352,1.97266-.11036.01367,1.82032h-1.793l.042,1.26855,3.72363-.2207.041,3.57226-7.08887.207-.59277-10.55078Z" transform="translate(-99.75 -106.11842)" style="fill:#fff"/><path d="M430.65039,308.64551q-2.68946-.45557-3.90332.59277a2.50278,2.50278,0,0,0-1.07519,2.207,2.27374,2.27374,0,0,0,1.55859,1.793q1.41943.61964,4.02637-.68945l1.43457,2.89551a6.80606,6.80606,0,0,1-3.0752.9248,10.01238,10.01238,0,0,1-3.48926-.33105,7.4508,7.4508,0,0,1-2.89648-1.54493,3.64469,3.64469,0,0,1-1.26856-2.71679,4.62569,4.62569,0,0,1,.89649-3.06153,6.81566,6.81566,0,0,1,2.42676-2.05566,7.66629,7.66629,0,0,1,3.14453-.81348,5.69162,5.69162,0,0,1,3.00683.6211Z" transform="translate(-99.75 -106.11842)" style="fill:#fff"/><path d="M433.54688,305.832l3.958.26172-.19336,10.19238-3.50293.11035Z" transform="translate(-99.75 -106.11842)" style="fill:#fff"/><path d="M445.51758,305.832l3.22754,9.37793-3.41992,1.18652-.67579-2.06933H442.001l-.62012,2.02734-3.36524-1.57226,3.4336-8.68848Zm-1.13086,6.33008-1.00684-2.44141-1.03418,2.40039Z" transform="translate(-99.75 -106.11842)" style="fill:#fff"/><path d="M453.55859,305.81836,454,313.76172l3.5166-.48242.083,2.64843-6.88184.46875-1.11718-10.4541Z" transform="translate(-99.75 -106.11842)" style="fill:#fff"/><path d="M462.26074,305.81836l.44141,7.94336,3.5166-.48242.083,2.64843-6.88184.46875-1.11719-10.4541Z" transform="translate(-99.75 -106.11842)" style="fill:#fff"/><path d="M467.00488,308.85254l2.3584-1.793L471.294,309.625l1.53027-3.793,3.22754.53809-5.35059,10.02636-2.373-1.7246,1.94532-3.15821Z" transform="translate(-99.75 -106.11842)" style="fill:#fff"/><path d="M484.28613,305.832l7.19922.33106.01367,2.95117-4.01367-.27539.1377,1.25488,1.93164-.01367.21972,2.52344-1.90234-.11036.31641,3.90332-3.26856-.27636Z" transform="translate(-99.75 -106.11842)" style="fill:#fff"/><path d="M502.86328,311.583a4.54137,4.54137,0,0,1-1.876,3.627,6.21406,6.21406,0,0,1-3.68261,1.18652,5.79858,5.79858,0,0,1-3.57129-1.21386,4.09152,4.09152,0,0,1-1.5586-3.59961,5.16888,5.16888,0,0,1,.59278-2.3584,6.72468,6.72468,0,0,1,1.48926-1.834,6.34183,6.34183,0,0,1,1.98632-1.17285,5.42955,5.42955,0,0,1,2.1377-.38574,5.21251,5.21251,0,0,1,1.2959.28906,4.77465,4.77465,0,0,1,1.55859.91114,5.1477,5.1477,0,0,1,1.24121,1.751A6.21811,6.21811,0,0,1,502.86328,311.583Zm-3.876-1.22754a.22078.22078,0,0,0,.09668-.06934.34779.34779,0,0,0,.083-.082,1.026,1.026,0,0,0,.34473-.75879,1.44173,1.44173,0,0,0-.23438-.73047c-.01855-.01855-.042-.03906-.06933-.0625-.02735-.02246-.05469-.04785-.083-.07617-.01855-.01758-.03906-.03906-.06152-.06152a.51815.51815,0,0,0-.07618-.0625,1.87935,1.87935,0,0,0-.71679-.27539,1.26968,1.26968,0,0,0-.82715.124,1.48652,1.48652,0,0,0-.30371.165,2.68125,2.68125,0,0,0-.23438.166,1.12031,1.12031,0,0,0-.35839.81347,1.39086,1.39086,0,0,0,.28906.77246c.01855.01856.03418.03711.04883.05469a.48365.48365,0,0,0,.04785.05566.33543.33543,0,0,1,.05468.03418.49941.49941,0,0,1,.05567.04883,1.50582,1.50582,0,0,0,.89648.33106,1.48933,1.48933,0,0,0,1.06153-.40039Z" transform="translate(-99.75 -106.11842)" style="fill:#fff"/><path d="M507.59277,316.10645l-3.26855-.41309-.4961-9.73731a11.69243,11.69243,0,0,1,2.34473-.11035q.68849.02784,1.34375.10352.65625.07617,1.31738.20019a11.05494,11.05494,0,0,1,2.31739.74414,2.51526,2.51526,0,0,1,1.30957,1.18653,1.93829,1.93829,0,0,1-.20606,1.84765,5.55258,5.55258,0,0,1-1.55859,1.54493l3.86133,2.42773-3.32324,2.49609-3.10352-4.06836-.68945-.01367Zm-.34472-6.0127a3.13217,3.13217,0,0,0,1.40722-.52441,1.34234,1.34234,0,0,0,.60645-.82715.77521.77521,0,0,0-.41406-.77246,3.04631,3.04631,0,0,0-1.627-.38672Z" transform="translate(-99.75 -106.11842)" style="fill:#fff"/><path d="M522.874,308.85254l2.3584-1.793,1.93067,2.56543,1.53027-3.793,3.22754.53809-5.35059,10.02636-2.373-1.7246,1.94531-3.15821Z" transform="translate(-99.75 -106.11842)" style="fill:#fff"/><path d="M543.38184,311.583a4.54139,4.54139,0,0,1-1.876,3.627,6.21411,6.21411,0,0,1-3.68262,1.18652,5.79862,5.79862,0,0,1-3.57129-1.21386,4.09151,4.09151,0,0,1-1.55859-3.59961,5.169,5.169,0,0,1,.59277-2.3584,6.72468,6.72468,0,0,1,1.48926-1.834,6.34177,6.34177,0,0,1,1.98633-1.17285,5.4295,5.4295,0,0,1,2.13769-.38574,5.21232,5.21232,0,0,1,1.2959.28906,4.77479,4.77479,0,0,1,1.5586.91114,5.14784,5.14784,0,0,1,1.24121,1.751A6.21839,6.21839,0,0,1,543.38184,311.583Zm-3.876-1.22754a.22091.22091,0,0,0,.09668-.06934.348.348,0,0,0,.083-.082,1.026,1.026,0,0,0,.34472-.75879,1.44172,1.44172,0,0,0-.23437-.73047c-.01856-.01855-.042-.03906-.06934-.0625-.02734-.02246-.05468-.04785-.083-.07617-.01855-.01758-.03906-.03906-.06152-.06152a.51859.51859,0,0,0-.07617-.0625,1.87946,1.87946,0,0,0-.7168-.27539,1.26968,1.26968,0,0,0-.82715.124,1.48707,1.48707,0,0,0-.30371.165,2.682,2.682,0,0,0-.23437.166,1.12028,1.12028,0,0,0-.3584.81347,1.391,1.391,0,0,0,.28906.77246c.01856.01856.03418.03711.04883.05469a.48464.48464,0,0,0,.04785.05566.3355.3355,0,0,1,.05469.03418.49935.49935,0,0,1,.05566.04883,1.50585,1.50585,0,0,0,.89649.33106,1.48931,1.48931,0,0,0,1.06152-.40039Z" transform="translate(-99.75 -106.11842)" style="fill:#fff"/><path d="M549.09082,306.97656q-.06885.19337-.17969.51758c-.07324.21582-.16113.47559-.26172.7793a8.52365,8.52365,0,0,0-.37207,1.86133,3.349,3.349,0,0,0,.22071,1.68261,1.31,1.31,0,0,0,1.39257.70313,1.21916,1.21916,0,0,0,1.10352-.48242,2.4109,2.4109,0,0,0,.38574-1.2002,5.96571,5.96571,0,0,0-.05468-1.50293l-.19336-1.4209,2.9375-.56543q.16553.52441.35156,1.166t.37988,1.42676a7.06218,7.06218,0,0,1,.17871,2.99316,3.99987,3.99987,0,0,1-1.41992,2.46875,6.07962,6.07962,0,0,1-4.01367.99316q-2.71728,0-3.834-1.2832a5.21543,5.21543,0,0,1-1.32421-2.99219,9.89174,9.89174,0,0,1,.23437-3.50293,27.27074,27.27074,0,0,1,.78613-2.78613Z" transform="translate(-99.75 -106.11842)" style="fill:#fff"/><path d="M560.63379,302.42578l-1.11719,10.43945-2.59277.2627-.45508-9.00586Zm-2.28906,11.3086a2.168,2.168,0,0,1,1.25488.248.92531.92531,0,0,1,.52441.82813,1.15009,1.15009,0,0,1-.52441.92383,2.48153,2.48153,0,0,1-1.25488.48242,2.22132,2.22132,0,0,1-1.28224-.248.94328.94328,0,0,1-.5244-.82715,1.16606,1.16606,0,0,1,.5244-.91015A2.513,2.513,0,0,1,558.34473,313.73438Z" transform="translate(-99.75 -106.11842)" style="fill:#fff"/></svg>