<svg id="90ac8514-d22a-4c4b-94dc-53cffc525bd3" data-name="кнопка норм" xmlns="http://www.w3.org/2000/svg" viewBox="0 0 215 135.78947"><title>eng-стартовый экран-без кнопки-curves (2)</title><rect width="215" height="135.78947" rx="8.64697" ry="8.64697" style="fill:#95bb2c"/><path d="M143.08887,425.75l8.90039-.50391.15429,4.46973-3.39648-.18164,1.01953,5.60644-4.36523-.46484.749-5.03808-3.13867.09082Z" transform="translate(-114.125 -391.35526)" style="fill:#fff"/><path d="M152.90625,425.64648l3.00977-.18066v3.332l2.208-.03808v-3.32032l3.43653-.19336-.45215,9.28711-2.98438.33594v-3.52637l-2.208.05176v3.48731l-2.60938.25878Z" transform="translate(-114.125 -391.35526)" style="fill:#fff"/><path d="M169.25879,425.24609l.07715,2.79-3.61621-.05175.02539,1.0332,1.84765-.10352.0127,1.70508h-1.67871l.03808,1.18848,3.48828-.20606.03809,3.34571-6.63867.19335-.55566-9.88183Z" transform="translate(-114.125 -391.35526)" style="fill:#fff"/><path d="M177.95215,425.24609l3.09961.25879,2.54492,4.52051-.43945-4.30176h2.958l.19336,8.52539-3.44824.8916-2.54492-5.10253-.21973,4.70214-2.958-.69726.81445-8.62891Z" transform="translate(-114.125 -391.35526)" style="fill:#fff"/><path d="M194.02051,425.24609l.07715,2.79-3.61719-.05175.02637,1.0332,1.84668-.10352.01367,1.70508H190.6875l.03906,1.18848,3.48731-.20606.03906,3.34571-6.63965.19335-.55566-9.88183Z" transform="translate(-114.125 -391.35526)" style="fill:#fff"/><path d="M198.73438,425.50488l.96874,4.46875.98243-3.13867,1.6914-.02637.68457,2.93262.918-3.99121,3.95215-.32324-2.8418,9.36523-2.63476.34863-1.04688-3.37109-1.00683,3.47461-2.64844-.42676-2.8418-9.57129Z" transform="translate(-114.125 -391.35526)" style="fill:#fff"/><path d="M215.8623,428.0752l2.209-1.67969,1.80859,2.40234,1.4336-3.55176,3.02246.50391-5.01172,9.39062-2.22168-1.61425,1.82129-2.958Z" transform="translate(-114.125 -391.35526)" style="fill:#fff"/><path d="M232.02148,425.24609l.07715,2.79-3.61621-.05175.02539,1.0332,1.84766-.10352.01269,1.70508h-1.67871l.03809,1.18848,3.48828-.20606.03809,3.34571-6.63868.19335-.55566-9.88183Z" transform="translate(-114.125 -391.35526)" style="fill:#fff"/><path d="M239.93945,425.24609l3.02246,8.78321-3.20312,1.11132-.63281-1.9375h-2.48047l-.58106,1.89844-3.15136-1.47265,3.21582-8.1377Zm-1.05859,5.92871-.94337-2.28613-.96874,2.24805Z" transform="translate(-114.125 -391.35526)" style="fill:#fff"/><path d="M247.28906,434.86914l-3.06152-.38769-.46484-9.11915a10.91794,10.91794,0,0,1,2.19628-.10351q.646.02637,1.25879.09668.61377.07177,1.23438.1875a10.46255,10.46255,0,0,1,2.16992.69726,2.356,2.356,0,0,1,1.22656,1.11133,1.81743,1.81743,0,0,1-.19336,1.73047,5.19175,5.19175,0,0,1-1.46,1.44727l3.61718,2.27343-3.11327,2.33789-2.90625-3.81054-.64551-.0127Zm-.32226-5.63184a2.93526,2.93526,0,0,0,1.31738-.49023,1.26382,1.26382,0,0,0,.56836-.77539.72807.72807,0,0,0-.3877-.72363,2.84752,2.84752,0,0,0-1.52441-.36133Z" transform="translate(-114.125 -391.35526)" style="fill:#fff"/><path d="M258.2041,421.5l-2.86816,4.14648-.81348-.40039.749-4.082Z" transform="translate(-114.125 -391.35526)" style="fill:#fff"/><path d="M259.7666,431.25293a8.75024,8.75024,0,0,0,1.292.43848,5.366,5.366,0,0,0,1.14942.19433q.47754.0249.56836-.12988.11573-.15381-.43946-.5293-.59325-.41309-1.16211-.8584-.56835-.44678-1.124-.95019a2.44222,2.44222,0,0,1-.81348-2.38965,1.83345,1.83345,0,0,1,1.35645-1.65332,4.785,4.785,0,0,1,2.376.09082,10.209,10.209,0,0,1,2.45507,1.0332,7.762,7.762,0,0,1,1.627,1.16211l-1.21387,1.88672a1.85072,1.85072,0,0,0-.375-.27832c-.1543-.08984-.34473-.19141-.56836-.30371a6.99111,6.99111,0,0,0-1.1748-.43848q-.50391-.11718-.59473.05176-.07764.15381.80078.87793a20.84955,20.84955,0,0,0,1.87305,1.36914,2.23687,2.23687,0,0,1,.86523,1.61426,1.67837,1.67837,0,0,1-.6582,1.74414,4.741,4.741,0,0,1-2.11816.85254,8.26829,8.26829,0,0,1-2.6875,0,5.62463,5.62463,0,0,1-2.3379-.83984Z" transform="translate(-114.125 -391.35526)" style="fill:#fff"/><path d="M281.69922,425.24609l.07715,2.79-3.61621-.05175.02539,1.0332,1.84765-.10352.0127,1.70508h-1.67871l.03808,1.18848,3.48828-.20606.03809,3.34571-6.63867.19335-.55567-9.88183Z" transform="translate(-114.125 -391.35526)" style="fill:#fff"/><path d="M286.51758,425.543l.71,5.36035,1.48535-4.18457,3.22949.374-3.44922,8.04785-3.82324-.32324-2.0791-9.57129Z" transform="translate(-114.125 -391.35526)" style="fill:#fff"/><path d="M299.667,425.24609l.07715,2.79-3.61719-.05175.02637,1.0332L298,428.91406l.01367,1.70508H296.334l.03907,1.18848,3.4873-.20606.03906,3.34571-6.63964.19335-.55567-9.88183Z" transform="translate(-114.125 -391.35526)" style="fill:#fff"/><path d="M191.3457,440.13965l3.707.24512-.18066,9.54589-3.28027.10352Z" transform="translate(-114.125 -391.35526)" style="fill:#fff"/><path d="M196.43555,446.14648a8.69671,8.69671,0,0,0,1.291.43848,5.38305,5.38305,0,0,0,1.15039.19434q.47754.0249.56836-.12989.11572-.1538-.43945-.52929-.59472-.41308-1.16309-.8584-.56835-.44678-1.123-.9502a2.4428,2.4428,0,0,1-.81446-2.38964,1.83465,1.83465,0,0,1,1.35645-1.65333,4.78853,4.78853,0,0,1,2.37695.09083,10.18548,10.18548,0,0,1,2.4541,1.0332,7.77416,7.77416,0,0,1,1.62793,1.16211l-1.21484,1.88672a1.86978,1.86978,0,0,0-.374-.27832q-.23292-.13477-.56836-.30371a6.99846,6.99846,0,0,0-1.17578-.43848q-.50391-.1172-.59375.05176-.07764.15381.80078.87793a20.71235,20.71235,0,0,0,1.873,1.36914,2.24018,2.24018,0,0,1,.86524,1.61425,1.68064,1.68064,0,0,1-.65918,1.74414,4.73149,4.73149,0,0,1-2.11817.85254,8.26174,8.26174,0,0,1-2.68652,0,5.61419,5.61419,0,0,1-2.33789-.83984Z" transform="translate(-114.125 -391.35526)" style="fill:#fff"/><path d="M211.40527,440.54l3.00977-.18066v3.332l2.209-.03809V440.333l3.43555-.19336-.45215,9.28711-2.9834.33594v-3.52637l-2.209.05176v3.4873l-2.60938.25879Z" transform="translate(-114.125 -391.35526)" style="fill:#fff"/><path d="M227.75879,440.13965l.07715,2.79-3.61719-.05176.02637,1.0332,1.84668-.10351.01367,1.70508h-1.67969l.03906,1.18847,3.48731-.20605.03906,3.3457-6.63965.19336-.55566-9.88184Z" transform="translate(-114.125 -391.35526)" style="fill:#fff"/><path d="M232.17578,449.7627l-3.06152-.3877-.46485-9.11914a10.91728,10.91728,0,0,1,2.19629-.10352q.646.02637,1.25879.09668.61377.07179,1.23438.1875a10.46333,10.46333,0,0,1,2.16992.69727,2.356,2.356,0,0,1,1.22656,1.11133,1.81743,1.81743,0,0,1-.19336,1.73047,5.19159,5.19159,0,0,1-1.46,1.44726l3.61719,2.27344-3.11328,2.33789-2.90625-3.81055-.64551-.01269Zm-.32226-5.63184a2.93527,2.93527,0,0,0,1.31738-.49024,1.26377,1.26377,0,0,0,.56836-.77539.72807.72807,0,0,0-.3877-.72363,2.84763,2.84763,0,0,0-1.52441-.36133Z" transform="translate(-114.125 -391.35526)" style="fill:#fff"/><path d="M246.46191,440.13965l.07715,2.79-3.61621-.05176.02539,1.0332,1.84766-.10351.01269,1.70508h-1.67871l.03809,1.18847,3.48828-.20605.03809,3.3457-6.63868.19336L239.5,440.15234Z" transform="translate(-114.125 -391.35526)" style="fill:#fff"/><path d="M251.62891,436.94922l-1.04688,9.77832-2.42773.24512-.42676-8.43457Zm-2.14453,10.5918a2.02732,2.02732,0,0,1,1.17578.23242.86535.86535,0,0,1,.49023.77539,1.07759,1.07759,0,0,1-.49023.86523,2.32845,2.32845,0,0,1-1.17578.45215,2.08506,2.08506,0,0,1-1.20118-.23242.88466.88466,0,0,1-.49121-.77539,1.09514,1.09514,0,0,1,.49121-.85254A2.35979,2.35979,0,0,1,249.48438,447.541Z" transform="translate(-114.125 -391.35526)" style="fill:#fff"/><path d="M147.80176,461.62305l-1.25635-.15918-.19092-3.74219a4.46923,4.46923,0,0,1,.90088-.042c.17676.00683.34912.02051.51709.04q.25122.02929.50635.07617a4.28117,4.28117,0,0,1,.89014.28613.96879.96879,0,0,1,.5039.45606.74753.74753,0,0,1-.07959.71093,2.132,2.132,0,0,1-.59912.59278l1.48438.93359-1.27735.959-1.19287-1.56348-.26514-.00488Zm-.13281-2.31055a1.2037,1.2037,0,0,0,.54052-.20215.51353.51353,0,0,0,.2334-.31738.29768.29768,0,0,0-.15918-.29688,1.1645,1.1645,0,0,0-.62549-.14843Z" transform="translate(-114.125 -391.35526)" style="fill:#fff"/><path d="M153.66406,457.67383l.03174,1.14551-1.48389-.02149.01026.42383.7583-.042.00537.69922h-.68945l.01611.48828,1.43115-.085.01612,1.373-2.72461.07911-.228-4.05469Z" transform="translate(-114.125 -391.35526)" style="fill:#fff"/><path d="M156.91357,457.67383l1.24024,3.60449-1.31445.45606-.25977-.79493h-1.01807l-.23828.7793-1.29345-.60449,1.31982-3.33887Zm-.435,2.43359-.38672-.93847-.39746.92285Z" transform="translate(-114.125 -391.35526)" style="fill:#fff"/><path d="M158.48242,457.89648a4.66273,4.66273,0,0,1,1.8711-.18554,2.84432,2.84432,0,0,1,1.8872.90136,1.29551,1.29551,0,0,1,.33936.668,1.81021,1.81021,0,0,1,.02344.37891,1.52876,1.52876,0,0,1-.06592.38477,2.21059,2.21059,0,0,1-.40283.73144,2.05013,2.05013,0,0,1-.72657.54,4.705,4.705,0,0,1-1.34082.37109,3.94578,3.94578,0,0,1-1.31494-.00488Zm1.71729,2.17383a.79016.79016,0,0,0,.334-.05859,1.20852,1.20852,0,0,0,.334-.20117.70008.70008,0,0,0,.20166-.29688.34854.34854,0,0,0-.0586-.33887.63373.63373,0,0,0-.45068-.20214,1.90261,1.90261,0,0,0-.49805-.01563Z" transform="translate(-114.125 -391.35526)" style="fill:#fff"/><path d="M162.97754,458.835l.90625-.68848.74219.98536.58838-1.458,1.24023.207-2.05664,3.85352-.91162-.66211.74756-1.21387Z" transform="translate(-114.125 -391.35526)" style="fill:#fff"/><path d="M169.65088,457.88086l3.65234-.207.06348,1.835-1.394-.07422.41894,2.29981-1.792-.19043.30762-2.06739-1.28809.03711Z" transform="translate(-114.125 -391.35526)" style="fill:#fff"/><path d="M177.7876,459.88477a1.74324,1.74324,0,0,1-.72071,1.39355,2.38432,2.38432,0,0,1-1.41552.45606,2.23194,2.23194,0,0,1-1.37256-.46583,1.5749,1.5749,0,0,1-.59912-1.38378,1.98367,1.98367,0,0,1,.228-.90625,2.58759,2.58759,0,0,1,.57227-.70508,2.44675,2.44675,0,0,1,.76318-.45117,2.10064,2.10064,0,0,1,.82178-.14844,2.06075,2.06075,0,0,1,.49854.11133,1.8407,1.8407,0,0,1,.59863.35058,1.97215,1.97215,0,0,1,.477.67285A2.38146,2.38146,0,0,1,177.7876,459.88477Zm-1.48926-.47168a.09716.09716,0,0,0,.03711-.02637.1402.1402,0,0,0,.03174-.03223.39276.39276,0,0,0,.13232-.291.55015.55015,0,0,0-.08984-.28125l-.02686-.02442-.03174-.02832c-.00683-.00781-.01513-.01562-.02392-.02441a.18937.18937,0,0,0-.02881-.02344.71367.71367,0,0,0-.27588-.10644.48863.48863,0,0,0-.31787.04785.56865.56865,0,0,0-.1167.06347,1.09358,1.09358,0,0,0-.09033.06348.4319.4319,0,0,0-.1377.31348.544.544,0,0,0,.11133.29687.17554.17554,0,0,1,.01856.02051.15348.15348,0,0,0,.01855.02148.13211.13211,0,0,1,.02149.01368.13962.13962,0,0,1,.021.01855.58051.58051,0,0,0,.34473.12695.57179.57179,0,0,0,.4082-.15429Z" transform="translate(-114.125 -391.35526)" style="fill:#fff"/><path d="M181.02637,457.83887l1.23486-.07422v1.36719l.90674-.01563v-1.3623l1.40967-.08008-.18555,3.81152-1.22412.1377v-1.44727l-.90674.02149v1.43164l-1.0708.10547Z" transform="translate(-114.125 -391.35526)" style="fill:#fff"/><path d="M187.76367,457.67383l1.24024,3.60449-1.31446.45606-.25976-.79493h-1.01807l-.23828.7793-1.29346-.60449,1.31983-3.33887Zm-.43506,2.43359-.38672-.93847-.39746.92285Z" transform="translate(-114.125 -391.35526)" style="fill:#fff"/><path d="M190.94385,457.7959l.2915,2.20019.60986-1.71777,1.3252.1543-1.41553,3.30176-1.56884-.13184-.85352-3.92871Z" transform="translate(-114.125 -391.35526)" style="fill:#fff"/><path d="M196.34033,457.67383l.03174,1.14551-1.48389-.02149.01026.42383.7583-.042.00537.69922h-.68945l.01611.48828,1.43115-.085.01612,1.373-2.72461.07911-.228-4.05469Z" transform="translate(-114.125 -391.35526)" style="fill:#fff"/><path d="M202.45752,457.67383l1.24023,3.60449-1.31445.45606-.25976-.79493h-1.01807l-.23828.7793-1.29346-.60449,1.31982-3.33887Zm-.43506,2.43359-.38672-.93847-.39746.92285Z" transform="translate(-114.125 -391.35526)" style="fill:#fff"/><path d="M204.36035,457.67383l1.272.10644,1.04444,1.85547-.18018-1.76562h1.21387l.07959,3.499-1.41553.36524-1.04443-2.09376-.08985,1.92969-1.21386-.28613.334-3.541Z" transform="translate(-114.125 -391.35526)" style="fill:#fff"/><path d="M212.78809,458.11426c-.01758.0498-.04.11621-.06934.19922-.02734.083-.06152.18261-.09961.29882a3.2534,3.2534,0,0,0-.14355.71582,1.284,1.284,0,0,0,.085.64649.50373.50373,0,0,0,.53515.27051.4677.4677,0,0,0,.42383-.18555.92123.92123,0,0,0,.14844-.46094,2.26806,2.26806,0,0,0-.02149-.57812l-.07421-.5459,1.1289-.2168c.043.13379.08789.28321.13574.44727s.09668.34765.14551.54883a2.71253,2.71253,0,0,1,.06934,1.15039,1.53946,1.53946,0,0,1-.5459.94824,2.33392,2.33392,0,0,1-1.543.38184,1.86938,1.86938,0,0,1-1.47266-.49317,1.99686,1.99686,0,0,1-.50976-1.14941,3.82066,3.82066,0,0,1,.08984-1.34668,10.51606,10.51606,0,0,1,.30274-1.07129Z" transform="translate(-114.125 -391.35526)" style="fill:#fff"/><path d="M215.80469,457.67383l1.27148.10644,1.04492,1.85547-.17968-1.76562h1.21289l.08008,3.499-1.416.36524-1.044-2.09376-.08984,1.92969-1.21387-.28613.334-3.541Z" transform="translate(-114.125 -391.35526)" style="fill:#fff"/><path d="M219.541,457.67383l2.76757.12793.00586,1.13379-1.543-.10547.05274.48242.74219-.00586.085.9707-.73145-.043.1211,1.5-1.25586-.10547Z" transform="translate(-114.125 -391.35526)" style="fill:#fff"/><path d="M226.68164,459.88477a1.74593,1.74593,0,0,1-.7207,1.39355,2.38687,2.38687,0,0,1-1.416.45606,2.23433,2.23433,0,0,1-1.373-.46583,1.57458,1.57458,0,0,1-.59864-1.38378,1.9895,1.9895,0,0,1,.22754-.90625,2.61463,2.61463,0,0,1,.57227-.70508,2.449,2.449,0,0,1,.76367-.45117,2.1029,2.1029,0,0,1,.82226-.14844,2.05281,2.05281,0,0,1,.49805.11133,1.83557,1.83557,0,0,1,.59863.35058,1.9797,1.9797,0,0,1,.47754.67285A2.40174,2.40174,0,0,1,226.68164,459.88477Zm-1.49023-.47168a.09307.09307,0,0,0,.03711-.02637.12536.12536,0,0,0,.03222-.03223.39046.39046,0,0,0,.13184-.291.541.541,0,0,0-.08985-.28125l-.02636-.02442c-.01075-.00879-.02051-.01855-.03223-.02832a.2654.2654,0,0,0-.02344-.02441.17166.17166,0,0,0-.02929-.02344.70855.70855,0,0,0-.27539-.10644.49.49,0,0,0-.31836.04785.59018.59018,0,0,0-.11621.06347c-.05372.03516-.083.05664-.09083.06348a.43084.43084,0,0,0-.13671.31348.53641.53641,0,0,0,.11132.29687.16353.16353,0,0,1,.01758.02051.134.134,0,0,0,.01953.02148l.02149.01368a.16832.16832,0,0,1,.02051.01855.57809.57809,0,0,0,.34472.12695.57183.57183,0,0,0,.40821-.15429Z" transform="translate(-114.125 -391.35526)" style="fill:#fff"/><path d="M228.5,461.62305l-1.25586-.15918-.19141-3.74219a4.4681,4.4681,0,0,1,.90039-.042c.17774.00683.34961.02051.51758.04s.33594.04492.50586.07617a4.29529,4.29529,0,0,1,.89063.28613.96493.96493,0,0,1,.5039.45606.74638.74638,0,0,1-.08007.71093,2.12393,2.12393,0,0,1-.59864.59278l1.48438.93359-1.27735.959L228.707,460.1709l-.26562-.00488Zm-.13281-2.31055a1.21022,1.21022,0,0,0,.541-.20215.51326.51326,0,0,0,.23242-.31738.29834.29834,0,0,0-.1582-.29688,1.16909,1.16909,0,0,0-.626-.14843Z" transform="translate(-114.125 -391.35526)" style="fill:#fff"/><path d="M234.39941,458.915a1.35344,1.35344,0,0,0-.55664-.165,1.31552,1.31552,0,0,0-.57715.0957,1.08713,1.08713,0,0,0-.44042.36621.98085.98085,0,0,0-.14356.63575.86117.86117,0,0,0,.68945.8164.7214.7214,0,0,0,.50391-.085.86107.86107,0,0,0,.36523-.51465l-.49218.01075.084-.59864,1.25684-.01074a1.31492,1.31492,0,0,1,.05761.498,2.13635,2.13635,0,0,1-.06836.499,1.71538,1.71538,0,0,1-.6621.92676,1.93525,1.93525,0,0,1-1.01856.34473,1.66492,1.66492,0,0,1-.53223-.06348,1.96513,1.96513,0,0,1-.51757-.2334,1.84,1.84,0,0,1-.73633-1.02832,1.86213,1.86213,0,0,1,.00586-1.293,2.24418,2.24418,0,0,1,.29687-.55957,2.19164,2.19164,0,0,1,.42383-.4375,2.10168,2.10168,0,0,1,1.12305-.43945,1.671,1.671,0,0,1,1.19824.35547Z" transform="translate(-114.125 -391.35526)" style="fill:#fff"/><path d="M238.32227,457.67383l.03125,1.14551-1.48438-.02149.01074.42383.75879-.042.00488.69922h-.68945l.0166.48828,1.43067-.085.0166,1.373-2.72461.07911-.22852-4.05469Z" transform="translate(-114.125 -391.35526)" style="fill:#fff"/><path d="M238.71875,457.88086l3.65234-.207.06446,1.835-1.39453-.07422.41894,2.29981-1.792-.19043.30762-2.06739-1.2881.03711Z" transform="translate(-114.125 -391.35526)" style="fill:#fff"/><path d="M242.7793,457.88086l3.65234-.207.06445,1.835-1.39453-.07422.41895,2.29981-1.792-.19043.30761-2.06739-1.28808.03711Z" transform="translate(-114.125 -391.35526)" style="fill:#fff"/><path d="M249.69238,457.67383l1.24024,3.60449-1.31446.45606-.25976-.79493h-1.01856l-.23828.7793-1.293-.60449,1.32032-3.33887Zm-.43457,2.43359-.38672-.93847-.39843.92285Z" transform="translate(-114.125 -391.35526)" style="fill:#fff"/><path d="M251.26172,457.85449c.19043-.042.38183-.0791.57422-.1084.19336-.03027.39062-.05371.59179-.07226a3.20053,3.20053,0,0,1,1.43067.292.87551.87551,0,0,1,.61035.71582.714.714,0,0,1-.40332.73633,1.62788,1.62788,0,0,1,1.03809.42969.98417.98417,0,0,1,.27636.74218,1.12644,1.12644,0,0,1-.376.72559,1.52186,1.52186,0,0,1-.94922.38769c-.23047.02051-.44727.03223-.65235.03418a5.70663,5.70663,0,0,1-.58789-.02343c-.1875-.01758-.377-.043-.57031-.07422-.19238-.03223-.38867-.07324-.59082-.12207Zm1.47851,1.2461c.07422-.00782.14454-.01465.21192-.02149a1.04341,1.04341,0,0,0,.19043-.03711c.12109-.03222.18554-.08887.19629-.16992.01465-.15137-.07715-.24414-.27539-.27539-.09864-.01758-.18067-.0293-.24317-.03418a.52.52,0,0,0-.14453.002Zm.22754,1.64257a2.72134,2.72134,0,0,1,.45606-.03125q.33984-.01611.32324-.29687c-.01074-.21582-.13769-.332-.38184-.35059-.11914-.00976-.21875-.0166-.29687-.01855a.927.927,0,0,0-.17481.00879Z" transform="translate(-114.125 -391.35526)" style="fill:#fff"/><path d="M257.26758,457.669l.16894,3.05371,1.35157-.18555.03222,1.01758-2.64551.17969-.42871-4.01758Z" transform="translate(-114.125 -391.35526)" style="fill:#fff"/><path d="M261.94727,457.67383l.03125,1.14551-1.4834-.02149.01074.42383.75781-.042.00586.69922h-.68945l.01562.48828,1.43164-.085.01563,1.373-2.72461.07911-.22852-4.05469Z" transform="translate(-114.125 -391.35526)" style="fill:#fff"/><path d="M266.48438,461.73438a1.43056,1.43056,0,0,1-.92189-.2754,1.10771,1.10771,0,0,1-.38183-.54589l.64649-.73731a1.10108,1.10108,0,0,0,.29687.584c.14551.13769.33594.08789.57325-.14844a1.11092,1.11092,0,0,0,.20605-.626,3.86893,3.86893,0,0,0-.05371-1.11816l-.73633.07422a.29158.29158,0,0,1-.00976-.03711.30542.30542,0,0,1-.01954-.04785c-.00488-.01758-.01171-.03907-.01757-.06348l-.09082-.3291c-.0381-.12012-.07129-.23145-.09473-.334a.849.849,0,0,1-.03223-.11621c-.0039-.01465-.00683-.02637-.01074-.03711l2.4707-.30273v1.0498l-.71093.0586c.02832.14843.05761.30175.08789.46093.02929.15918.06054.3252.09179.49805a2.98089,2.98089,0,0,1,.03223.96484,1.22363,1.22363,0,0,1-.35449.74219A1.26608,1.26608,0,0,1,266.48438,461.73438Z" transform="translate(-114.125 -391.35526)" style="fill:#fff"/><path d="M272.69141,459.88477a1.74057,1.74057,0,0,1-.72071,1.39355,2.38186,2.38186,0,0,1-1.415.45606,2.22958,2.22958,0,0,1-1.37207-.46583,1.57522,1.57522,0,0,1-.59961-1.38378,1.978,1.978,0,0,1,.22851-.90625,2.561,2.561,0,0,1,.57228-.70508,2.44427,2.44427,0,0,1,.76269-.45117,2.0983,2.0983,0,0,1,.82129-.14844,2.06865,2.06865,0,0,1,.499.11133,1.84569,1.84569,0,0,1,.59864.35058,1.96479,1.96479,0,0,1,.47656.67285A2.36139,2.36139,0,0,1,272.69141,459.88477Zm-1.48829-.47168a.1016.1016,0,0,0,.03711-.02637.15946.15946,0,0,0,.03125-.03223.39508.39508,0,0,0,.13282-.291.55944.55944,0,0,0-.08985-.28125l-.02734-.02442c-.00977-.00879-.02149-.01855-.03125-.02832l-.02441-.02441a.21225.21225,0,0,0-.02833-.02344.7189.7189,0,0,0-.27636-.10644.48722.48722,0,0,0-.31738.04785.54849.54849,0,0,0-.11719.06347,1.0411,1.0411,0,0,0-.08985.06348.433.433,0,0,0-.13867.31348.55151.55151,0,0,0,.11133.29687.18935.18935,0,0,1,.01953.02051.18648.18648,0,0,0,.01758.02148.1.1,0,0,1,.02148.01368.12088.12088,0,0,1,.02149.01855.58289.58289,0,0,0,.34472.12695.57183.57183,0,0,0,.40821-.15429Z" transform="translate(-114.125 -391.35526)" style="fill:#fff"/><path d="M274.88672,458.11426c-.01758.0498-.041.11621-.06934.19922s-.06152.18261-.10058.29882a3.25229,3.25229,0,0,0-.14258.71582,1.28416,1.28416,0,0,0,.084.64649.50452.50452,0,0,0,.53516.27051.46663.46663,0,0,0,.42383-.18555.91174.91174,0,0,0,.14843-.46094,2.22354,2.22354,0,0,0-.0205-.57812l-.07422-.5459,1.1289-.2168c.042.13379.08692.28321.13575.44727.04687.16406.0957.34765.1455.54883a2.71269,2.71269,0,0,1,.06934,1.15039,1.53634,1.53634,0,0,1-.54687.94824,2.33087,2.33087,0,0,1-1.542.38184,1.87171,1.87171,0,0,1-1.47363-.49317,2.00948,2.00948,0,0,1-.50977-1.14941,4.02019,4.02019,0,0,1-.01563-.668,3.89865,3.89865,0,0,1,.10646-.67871,10.55788,10.55788,0,0,1,.30175-1.07129Z" transform="translate(-114.125 -391.35526)" style="fill:#fff"/><path d="M279.01562,461.62305l-1.25585-.15918-.19141-3.74219a4.468,4.468,0,0,1,.90039-.042c.17773.00683.34961.02051.51758.04s.33594.04492.50586.07617a4.29519,4.29519,0,0,1,.89062.28613.96492.96492,0,0,1,.50391.45606.74638.74638,0,0,1-.08008.71093,2.12377,2.12377,0,0,1-.59863.59278l1.48437.93359-1.27734.959-1.19238-1.56348-.26563-.00488Zm-.13281-2.31055a1.21027,1.21027,0,0,0,.541-.20215.5133.5133,0,0,0,.23242-.31738.29836.29836,0,0,0-.1582-.29688,1.16913,1.16913,0,0,0-.626-.14843Z" transform="translate(-114.125 -391.35526)" style="fill:#fff"/><path d="M282.35547,457.67383l1.27148.10644,1.04493,1.85547-.18067-1.76562h1.21387l.08008,3.499-1.416.36524-1.04492-2.09376-.08984,1.92969-1.2129-.28613.334-3.541Z" transform="translate(-114.125 -391.35526)" style="fill:#fff"/><path d="M288.94922,457.67383l.03125,1.14551-1.4834-.02149.01074.42383.75781-.042.00586.69922H287.582l.01563.48828,1.43164-.085.01562,1.373-2.72461.07911-.22851-4.05469Z" transform="translate(-114.125 -391.35526)" style="fill:#fff"/><path d="M289.31445,458.835l.90625-.68848.74219.98536.58887-1.458,1.24023.207-2.05664,3.85352-.91113-.66211.74707-1.21387Z" transform="translate(-114.125 -391.35526)" style="fill:#fff"/><path d="M293.16309,457.72754a.25559.25559,0,0,1,.15625-.10352.88585.88585,0,0,1,.21-.01367c.07715.00391.16308.00781.25586.01367a1.03944,1.03944,0,0,0,.29492-.02929,1.10256,1.10256,0,0,1,.291-.03223,1.96749,1.96749,0,0,1,.26758.0293c.08692.0166.17578.03515.26563.05566.08984.02149.18457.03906.28319.05371a1.97821,1.97821,0,0,1,1.002.39746.756.756,0,0,1,.20117.90625.84555.84555,0,0,1-.39648.42969q-.31347.19042-.626.34375c-.21191.10254-.38183.19336-.50878.27051-.13086.08105-.13965.15429-.02735.21777.01856.01074.03711.02246.05859.03711l.07422.04785a.61332.61332,0,0,0,.12305.05274c.05273.01758.11914.03711.20117.05859l-1.59082.48731a.80665.80665,0,0,1,.12207-.79493,2.1979,2.1979,0,0,1,.28614-.27832,2.73491,2.73491,0,0,1,.32324-.22558c.11328-.06739.2207-.12989.32422-.18848.10156-.05762.19726-.11133.28515-.16113q.271-.14357.14356-.334a.5407.5407,0,0,0-.38184-.25976.97715.97715,0,0,0-.4668.0791,2.393,2.393,0,0,0-.24316.125,2.91694,2.91694,0,0,0-.24414.16113.44822.44822,0,0,1-.12207.06934c-.03906.01367-.07617.02637-.11328.03711s-.07422.02246-.10938.03418a.31416.31416,0,0,0-.10058.06152Zm1.52148,3.042a.977.977,0,0,1,.32324-.00781,2.276,2.276,0,0,1,.28125.06152.55418.55418,0,0,1,.14063.06055.99058.99058,0,0,1,.13965.09863.757.757,0,0,1,.10839.1084.28139.28139,0,0,1,.05665.09766.09529.09529,0,0,1-.03711.08007.6931.6931,0,0,1-.10645.07129c-.042.02246-.08887.04688-.14062.07129a1.006,1.006,0,0,0-.12989.07422,1.32757,1.32757,0,0,1-.5459.22266,1.30323,1.30323,0,0,1-.58886-.00489c-.17285-.04589-.26953-.126-.291-.23925-.01758-.11231.044-.22071.18555-.32325.03515-.02441.07617-.05566.12207-.09472a1.85438,1.85438,0,0,1,.14844-.11426,1.57076,1.57076,0,0,1,.16406-.10059A.5958.5958,0,0,1,294.68457,460.76953Z" transform="translate(-114.125 -391.35526)" style="fill:#fff"/><path d="M156.26416,465.42676l2.76709.12793.00537,1.13379-1.543-.10547.05323.48242.74218-.00586.085.9707-.73193-.043.12207,1.5-1.25635-.10546Z" transform="translate(-114.125 -391.35526)" style="fill:#fff"/><path d="M159.29639,465.42676l1.52148.10156-.07422,3.917-1.34668.042Z" transform="translate(-114.125 -391.35526)" style="fill:#fff"/><path d="M161.34766,465.42676l1.272.10644,1.04443,1.85547-.18017-1.76562h1.21386l.07959,3.499-1.41552.36523-1.04444-2.09375-.08984,1.92969-1.21387-.28613.334-3.541Z" transform="translate(-114.125 -391.35526)" style="fill:#fff"/><path d="M165.08447,465.64941a4.66273,4.66273,0,0,1,1.8711-.18554,2.84432,2.84432,0,0,1,1.8872.90136,1.29551,1.29551,0,0,1,.33936.668,1.81021,1.81021,0,0,1,.02344.37891,1.52876,1.52876,0,0,1-.06592.38477,2.21041,2.21041,0,0,1-.40283.73144,2.05013,2.05013,0,0,1-.72657.54,4.705,4.705,0,0,1-1.34082.37109,3.94578,3.94578,0,0,1-1.31494-.00488Zm1.71729,2.17383a.79016.79016,0,0,0,.334-.05859,1.20852,1.20852,0,0,0,.334-.20117.70008.70008,0,0,0,.20166-.29688.34854.34854,0,0,0-.0586-.33887.6337.6337,0,0,0-.45068-.20214,1.9026,1.9026,0,0,0-.49805-.01563Z" transform="translate(-114.125 -391.35526)" style="fill:#fff"/><path d="M175.33105,465.42676l1.24024,3.60449-1.31445.45605-.25977-.79492H173.979l-.23828.7793-1.29345-.60449,1.31982-3.33887Zm-.43505,2.43359-.38672-.93847-.39746.92285Z" transform="translate(-114.125 -391.35526)" style="fill:#936037"/><path d="M178.42139,465.42188l.16943,3.05371,1.35156-.18555.03174,1.01758-2.645.17968-.4292-4.01757Z" transform="translate(-114.125 -391.35526)" style="fill:#936037"/><path d="M181.76611,465.42188l.16944,3.05371,1.35156-.18555.03174,1.01758-2.645.17968-.4292-4.01757Z" transform="translate(-114.125 -391.35526)" style="fill:#936037"/><path d="M186.48877,465.63379l3.65234-.207.06348,1.835-1.394-.07422.41894,2.2998-1.792-.19042.30762-2.06739-1.28809.03711Z" transform="translate(-114.125 -391.35526)" style="fill:#936037"/><path d="M190.51758,465.5918l1.23486-.07422v1.36719l.90674-.01563v-1.3623l1.40967-.08008-.18555,3.81152-1.22412.1377v-1.44727l-.90674.02149v1.43164l-1.0708.10546Z" transform="translate(-114.125 -391.35526)" style="fill:#936037"/><path d="M197.228,465.42676l.03174,1.14551-1.48389-.02149.01025.42383.7583-.042.00537.69922h-.68945l.01611.48828,1.43116-.085.01611,1.373-2.72461.0791-.228-4.05468Z" transform="translate(-114.125 -391.35526)" style="fill:#936037"/><path d="M202.75635,465.66016l.02148,2.95312.38184.01074-.064.86328-2.083-.05273-.01075-.84766.45606.00489.12695-2.03516-.52441.54-.59912-.68359,1.20312-.98633Z" transform="translate(-114.125 -391.35526)" style="fill:#936037"/><path d="M206.3667,466.49219l-1.60108-.24317-.00537.53516a2.0882,2.0882,0,0,1,.7793.03711,2.02643,2.02643,0,0,1,.80566.34473.99317.99317,0,0,1,.40821.64648,1.11733,1.11733,0,0,1-.41846.91211,2.269,2.269,0,0,1-1.33594.73633,2.39354,2.39354,0,0,1-1.49511-.26465l-.08985-1.07617a1.44063,1.44063,0,0,0,.5669.28613,3.05994,3.05994,0,0,0,.7583.11621,1.5967,1.5967,0,0,0,.65722-.10058.3669.3669,0,0,0,.25977-.38672.39277.39277,0,0,0-.27588-.334,1.47067,1.47067,0,0,0-.273-.09277,2.41722,2.41722,0,0,0-.31006-.05078c-.106-.00684-.21093-.00977-.31543-.00977a2.9737,2.9737,0,0,0-.31005.01563c-.10254.01367-.18653.02832-.25147.042a.43661.43661,0,0,0-.15137.05859l-.355-2.20508,3.23877-.03222Z" transform="translate(-114.125 -391.35526)" style="fill:#936037"/><path d="M209.98682,465.5918l1.23486-.07422v1.36719l.90723-.01563v-1.3623l1.40918-.08008-.18555,3.81152-1.22363.1377v-1.44727l-.90723.02149v1.43164l-1.0708.10546Z" transform="translate(-114.125 -391.35526)" style="fill:#936037"/><path d="M213.83984,465.42676l1.52149.10156-.07422,3.917-1.3457.042Z" transform="translate(-114.125 -391.35526)" style="fill:#936037"/><path d="M215.55762,465.64941a4.66169,4.66169,0,0,1,1.87109-.18554,2.8486,2.8486,0,0,1,1.8877.90136,1.29472,1.29472,0,0,1,.33886.668,1.87818,1.87818,0,0,1,.02344.37891,1.5492,1.5492,0,0,1-.06543.38477,2.22969,2.22969,0,0,1-.40332.73144,2.04149,2.04149,0,0,1-.72656.54,4.7142,4.7142,0,0,1-1.34082.37109,3.94243,3.94243,0,0,1-1.31446-.00488Zm1.71777,2.17383a.79518.79518,0,0,0,.334-.05859,1.22332,1.22332,0,0,0,.334-.20117.70319.70319,0,0,0,.20117-.29688.34734.34734,0,0,0-.05859-.33887.63606.63606,0,0,0-.45117-.20214,1.90238,1.90238,0,0,0-.49805-.01563Z" transform="translate(-114.125 -391.35526)" style="fill:#936037"/><path d="M220.05273,465.64941a4.66373,4.66373,0,0,1,1.8711-.18554,2.8401,2.8401,0,0,1,1.88672.90136,1.29627,1.29627,0,0,1,.33984.668,1.74577,1.74577,0,0,1,.02344.37891,1.50759,1.50759,0,0,1-.06641.38477,2.19144,2.19144,0,0,1-.40234.73144,2.059,2.059,0,0,1-.72656.54,4.69611,4.69611,0,0,1-1.34082.37109,3.94917,3.94917,0,0,1-1.31543-.00488Zm1.7168,2.17383a.78526.78526,0,0,0,.334-.05859,1.194,1.194,0,0,0,.334-.20117.6967.6967,0,0,0,.20216-.29688.34976.34976,0,0,0-.0586-.33887.6314.6314,0,0,0-.45019-.20214,1.90282,1.90282,0,0,0-.49805-.01563Z" transform="translate(-114.125 -391.35526)" style="fill:#936037"/><path d="M227.4043,465.42676l.03222,1.14551-1.4834-.02149.00977.42383.75781-.042.00586.69922h-.68945l.01562.48828,1.43165-.085.01562,1.373-2.72461.0791-.22754-4.05468Z" transform="translate(-114.125 -391.35526)" style="fill:#936037"/><path d="M228.10449,465.42676l1.27246.10644,1.04395,1.85547-.18067-1.76562h1.21485l.0791,3.499-1.415.36523-1.04492-2.09375-.08984,1.92969-1.21387-.28613.334-3.541Z" transform="translate(-114.125 -391.35526)" style="fill:#936037"/><path d="M236.082,468.21l.05274,1.27734-1.15528-.13769-.27051-3.91211c.09961-.00684.21582-.01074.34961-.01074.13477,0,.291.00586.4668.0166a5.01188,5.01188,0,0,1,1.03906.15332,2.82785,2.82785,0,0,1,.89649.38184.797.797,0,0,1,.38086.68945,1.20643,1.20643,0,0,1-.56153,1.05469,2.74606,2.74606,0,0,1-1.19824.49316Zm-.14844-.70508a1.21488,1.21488,0,0,0,.52539-.2705.60545.60545,0,0,0,.2168-.376.35362.35362,0,0,0-.16992-.3291,1.05859,1.05859,0,0,0-.64063-.127Z" transform="translate(-114.125 -391.35526)" style="fill:#936037"/><path d="M239.64453,465.42188l.16992,3.05371L241.166,468.29l.03125,1.01758-2.64454.17968-.42968-4.01757Z" transform="translate(-114.125 -391.35526)" style="fill:#936037"/><path d="M241.46777,466.58789l.90625-.68848.74219.98536.58887-1.458,1.24023.207-2.05664,3.85351-.91211-.6621.74805-1.21387Z" transform="translate(-114.125 -391.35526)" style="fill:#936037"/><path d="M246.81055,465.5332l.39746,1.834.40332-1.28809.69433-.01074.28028,1.20312.37695-1.63769,1.62207-.13281-1.167,3.84375-1.08008.14257-.42969-1.38281-.41406,1.42578-1.08594-.1748-1.166-3.92871Z" transform="translate(-114.125 -391.35526)" style="fill:#936037"/><path d="M255.08008,467.6377a1.74593,1.74593,0,0,1-.7207,1.39355,2.38468,2.38468,0,0,1-1.416.45605,2.23159,2.23159,0,0,1-1.37207-.46582,1.5722,1.5722,0,0,1-.59863-1.38378,1.96506,1.96506,0,0,1,.22754-.90625,2.57836,2.57836,0,0,1,.57226-.70508,2.4555,2.4555,0,0,1,.7627-.45117,2.10592,2.10592,0,0,1,.82226-.14844,2.05281,2.05281,0,0,1,.49805.11133,1.83967,1.83967,0,0,1,.59961.35058,1.97785,1.97785,0,0,1,.47656.67285A2.37473,2.37473,0,0,1,255.08008,467.6377Zm-1.48926-.47168a.10169.10169,0,0,0,.03711-.02637.1434.1434,0,0,0,.03223-.03223.394.394,0,0,0,.13183-.291.55015.55015,0,0,0-.08984-.28125l-.02637-.02442c-.01074-.00879-.02148-.01855-.03223-.02832a.28584.28584,0,0,0-.02441-.02441.13423.13423,0,0,0-.02832-.02344.70715.70715,0,0,0-.27637-.10645.48814.48814,0,0,0-.31738.04786.53817.53817,0,0,0-.11621.06347.97158.97158,0,0,0-.09082.06348.4319.4319,0,0,0-.1377.31348.55167.55167,0,0,0,.11133.29687.11787.11787,0,0,1,.01856.02051.12724.12724,0,0,0,.01855.02148.13211.13211,0,0,1,.02149.01368.16972.16972,0,0,1,.02148.01855.5776.5776,0,0,0,.34374.127.57034.57034,0,0,0,.40821-.15429Z" transform="translate(-114.125 -391.35526)" style="fill:#936037"/><path d="M259.55859,467.6377a1.74053,1.74053,0,0,1-.7207,1.39355,2.3818,2.3818,0,0,1-1.415.45605,2.22957,2.22957,0,0,1-1.37207-.46582,1.5752,1.5752,0,0,1-.59961-1.38378,1.97789,1.97789,0,0,1,.22852-.90625,2.56053,2.56053,0,0,1,.57226-.70508,2.44443,2.44443,0,0,1,.7627-.45117,2.0983,2.0983,0,0,1,.82129-.14844,2.06865,2.06865,0,0,1,.499.11133,1.84555,1.84555,0,0,1,.59863.35058,1.96481,1.96481,0,0,1,.47657.67285A2.3614,2.3614,0,0,1,259.55859,467.6377Zm-1.48828-.47168a.1016.1016,0,0,0,.03711-.02637.15973.15973,0,0,0,.03125-.03223.3951.3951,0,0,0,.13281-.291.55943.55943,0,0,0-.08984-.28125l-.02734-.02442c-.00977-.00879-.02149-.01855-.03125-.02832l-.02442-.02441a.21217.21217,0,0,0-.02832-.02344.71914.71914,0,0,0-.27636-.10645.48733.48733,0,0,0-.31739.04786.54863.54863,0,0,0-.11718.06347,1.0411,1.0411,0,0,0-.08985.06348.433.433,0,0,0-.13867.31348.55151.55151,0,0,0,.11133.29687.18935.18935,0,0,1,.01953.02051.18648.18648,0,0,0,.01758.02148.1.1,0,0,1,.02148.01368.12158.12158,0,0,1,.02149.01855.58286.58286,0,0,0,.34472.127.57185.57185,0,0,0,.40821-.15429Z" transform="translate(-114.125 -391.35526)" style="fill:#936037"/><path d="M259.92969,465.64941a4.66365,4.66365,0,0,1,1.87109-.18554,2.84445,2.84445,0,0,1,1.8877.90136,1.28742,1.28742,0,0,1,.33886.668,1.74577,1.74577,0,0,1,.02344.37891,1.50536,1.50536,0,0,1-.06543.38477,2.19444,2.19444,0,0,1-.40332.73144,2.04149,2.04149,0,0,1-.72656.54,4.69818,4.69818,0,0,1-1.33985.37109,3.9482,3.9482,0,0,1-1.31542-.00488Zm1.71777,2.17383a.7902.7902,0,0,0,.334-.05859,1.22332,1.22332,0,0,0,.334-.20117.7055.7055,0,0,0,.20215-.29688.35224.35224,0,0,0-.0586-.33887.636.636,0,0,0-.45117-.20214,1.90231,1.90231,0,0,0-.498-.01563Z" transform="translate(-114.125 -391.35526)" style="fill:#936037"/><path d="M268.666,468.21l.05273,1.27734-1.15626-.13769-.26952-3.91211c.09863-.00684.21484-.01074.34961-.01074s.29.00586.4668.0166a5.03123,5.03123,0,0,1,1.03906.15332,2.832,2.832,0,0,1,.89551.38184.79576.79576,0,0,1,.38183.68945,1.20735,1.20735,0,0,1-.5625,1.05469,2.74241,2.74241,0,0,1-1.19726.49316Zm-.14844-.70508a1.211,1.211,0,0,0,.52441-.2705.61215.61215,0,0,0,.21778-.376.35555.35555,0,0,0-.16993-.3291,1.06193,1.06193,0,0,0-.6416-.127Z" transform="translate(-114.125 -391.35526)" style="fill:#936037"/><path d="M270.707,465.42676l1.52149.10156-.07422,3.917-1.34766.042Z" transform="translate(-114.125 -391.35526)" style="fill:#936037"/><path d="M275.28125,465.42676l.03124,1.14551-1.48437-.02149.01075.42383.75879-.042.00488.69922h-.68945l.0166.48828,1.43066-.085.0166,1.373-2.72461.0791-.22851-4.05468Z" transform="translate(-114.125 -391.35526)" style="fill:#936037"/><path d="M278.98633,466.50879a1.794,1.794,0,0,0-1.5.22754.963.963,0,0,0-.41406.84863.87237.87237,0,0,0,.59961.68848,1.90418,1.90418,0,0,0,1.54687-.26465l.55176,1.11328a2.61672,2.61672,0,0,1-1.18262.35449,3.82828,3.82828,0,0,1-1.34082-.127,2.84722,2.84722,0,0,1-1.1123-.59375,1.398,1.398,0,0,1-.48829-1.04395,1.78645,1.78645,0,0,1,.34375-1.17675,2.62826,2.62826,0,0,1,.9336-.79,2.94332,2.94332,0,0,1,1.209-.3125,2.1899,2.1899,0,0,1,1.15528.23828Z" transform="translate(-114.125 -391.35526)" style="fill:#936037"/><path d="M282.95605,465.42676l.03223,1.14551-1.48437-.02149.00976.42383.75879-.042.00488.69922h-.68945l.0166.48828,1.43067-.085.0166,1.373-2.72461.0791-.22754-4.05468Z" transform="translate(-114.125 -391.35526)" style="fill:#936037"/><path d="M283.69336,467.8916a3.57842,3.57842,0,0,0,.5293.18067,2.158,2.158,0,0,0,.47265.0791c.13086.00781.208-.00977.23242-.05274.03223-.042-.02734-.11425-.17968-.21679-.16211-.11329-.32227-.23145-.47657-.35254q-.23437-.1831-.46093-.38965a1.004,1.004,0,0,1-.334-.98145.751.751,0,0,1,.55664-.67773,1.94947,1.94947,0,0,1,.97461.03711,4.16269,4.16269,0,0,1,1.00781.42383,3.28211,3.28211,0,0,1,.668.47656l-.499.77441a.75349.75349,0,0,0-.15332-.11426c-.06445-.0371-.1416-.07812-.2334-.124a2.87264,2.87264,0,0,0-.48242-.18066c-.1377-.03125-.21973-.02442-.24414.02148q-.03076.063.3291.36035a8.1908,8.1908,0,0,0,.76856.56153.91807.91807,0,0,1,.35449.66308.69123.69123,0,0,1-.26953.71582,1.95636,1.95636,0,0,1-.86914.34961,3.42749,3.42749,0,0,1-1.10352,0,2.31391,2.31391,0,0,1-.959-.34472Z" transform="translate(-114.125 -391.35526)" style="fill:#936037"/><path d="M143.86572,473.28711l.39746,1.834.40284-1.28808.69482-.01074.28076,1.20312.37647-1.63769,1.62207-.13282-1.16651,3.84375-1.08105.14258-.42969-1.38281-.41309,1.42578-1.08691-.1748-1.166-3.92872Z" transform="translate(-114.125 -391.35526)" style="fill:#fff"/><path d="M148.02686,473.18066l1.52148.10157-.07422,3.917-1.34668.042Z" transform="translate(-114.125 -391.35526)" style="fill:#fff"/><path d="M149.77637,473.3877l3.65234-.207.06348,1.835-1.394-.07421.41895,2.2998-1.792-.19043.30761-2.06738-1.28808.03711Z" transform="translate(-114.125 -391.35526)" style="fill:#fff"/><path d="M153.80469,473.3457l1.23486-.07422v1.36719l.90674-.01562v-1.36231l1.40967-.08008-.18555,3.81153-1.22412.13769v-1.44726l-.90674.02148v1.43164l-1.0708.10547Z" transform="translate(-114.125 -391.35526)" style="fill:#fff"/><path d="M160.85986,473.18066l1.272.10645,1.04443,1.85547-.18018-1.76563H164.21l.07959,3.499-1.41553.36523-1.04443-2.09375-.08984,1.92969-1.21387-.28613.334-3.541Z" transform="translate(-114.125 -391.35526)" style="fill:#fff"/><path d="M167.4541,473.18066l.03174,1.14551-1.48389-.02148.01026.42383.7583-.042.00537.69922h-.68945l.01611.48828,1.43115-.085.01611,1.373-2.7246.0791-.228-4.05469Z" transform="translate(-114.125 -391.35526)" style="fill:#fff"/><path d="M169.38867,473.28711l.39746,1.834.40283-1.28808.69483-.01074.28076,1.20312.37647-1.63769,1.62207-.13282-1.16651,3.84375-1.08105.14258-.42969-1.38281-.41309,1.42578-1.08691-.1748-1.166-3.92872Z" transform="translate(-114.125 -391.35526)" style="fill:#fff"/><path d="M176.65088,474.67578l-.05859.98633-2.91553.02637.02685-1.3252Z" transform="translate(-114.125 -391.35526)" style="fill:#fff"/><path d="M177.0166,474.3418l.90625-.68848.74219.98535.58838-1.458,1.24023.207-2.05664,3.85351-.91162-.66211.74756-1.21387Z" transform="translate(-114.125 -391.35526)" style="fill:#fff"/><path d="M183.64746,473.18066l.03174,1.14551-1.48389-.02148.01026.42383.7583-.042.00537.69922h-.68945l.01611.48828,1.43115-.085.01611,1.373-2.72461.0791-.228-4.05469Z" transform="translate(-114.125 -391.35526)" style="fill:#fff"/><path d="M186.89746,473.18066l1.24024,3.6045-1.31446.45605-.25976-.79492h-1.01807l-.23828.7793-1.29346-.6045,1.31983-3.33886Zm-.43506,2.4336-.38672-.93848-.39746.92285Z" transform="translate(-114.125 -391.35526)" style="fill:#fff"/><path d="M189.91357,477.12988l-1.25634-.15918-.19092-3.74218a4.46913,4.46913,0,0,1,.90088-.042c.17676.00684.34912.02051.51709.04q.25122.02929.50634.07617a4.28078,4.28078,0,0,1,.89014.28614.96881.96881,0,0,1,.50391.45605.74757.74757,0,0,1-.07959.71094,2.13212,2.13212,0,0,1-.59912.59277l1.48437.9336-1.27734.959-1.19287-1.56348-.26514-.00488Zm-.13281-2.31054a1.2037,1.2037,0,0,0,.54053-.20215.51355.51355,0,0,0,.2334-.31739.29767.29767,0,0,0-.15918-.29687,1.16443,1.16443,0,0,0-.62549-.14844Z" transform="translate(-114.125 -391.35526)" style="fill:#fff"/><path d="M198.67041,473.18066l1.24023,3.6045-1.31445.45605-.25976-.79492h-1.01807l-.23828.7793-1.29346-.6045,1.31983-3.33886Zm-.43506,2.4336-.38672-.93848-.39746.92285Z" transform="translate(-114.125 -391.35526)" style="fill:#fff"/><path d="M200.23926,473.40332a4.66267,4.66267,0,0,1,1.87109-.18555,2.84434,2.84434,0,0,1,1.88721.90137,1.29546,1.29546,0,0,1,.33935.668,1.80949,1.80949,0,0,1,.02344.37891,1.52787,1.52787,0,0,1-.06592.38476,2.21055,2.21055,0,0,1-.40283.73145,2.05021,2.05021,0,0,1-.72656.54,4.70542,4.70542,0,0,1-1.34082.37109,3.94577,3.94577,0,0,1-1.31494-.00488Zm1.71728,2.17383a.79037.79037,0,0,0,.334-.0586,1.20836,1.20836,0,0,0,.334-.20117.69987.69987,0,0,0,.20166-.29687.34855.34855,0,0,0-.05859-.33887.63375.63375,0,0,0-.45069-.20215,1.90243,1.90243,0,0,0-.498-.01562Z" transform="translate(-114.125 -391.35526)" style="fill:#fff"/><path d="M206.34521,473.30273l.29151,2.2002.60986-1.71777,1.3252.15429-1.41553,3.30176-1.56885-.13183-.85351-3.92872Z" transform="translate(-114.125 -391.35526)" style="fill:#fff"/><path d="M208.88477,473.18066l1.52148.10157-.07422,3.917-1.34668.042Z" transform="translate(-114.125 -391.35526)" style="fill:#fff"/><path d="M213.94141,474.2627a1.79407,1.79407,0,0,0-1.5.22753.96533.96533,0,0,0-.41407.84864.87406.87406,0,0,0,.59961.68847,1.90636,1.90636,0,0,0,1.54785-.26464l.55176,1.11328a2.62075,2.62075,0,0,1-1.18261.35449,3.82881,3.82881,0,0,1-1.34083-.127,2.84449,2.84449,0,0,1-1.11328-.59375,1.40089,1.40089,0,0,1-.48779-1.04395,1.7813,1.7813,0,0,1,.34424-1.17676,2.62508,2.62508,0,0,1,.93262-.79,2.95142,2.95142,0,0,1,1.209-.3125,2.19364,2.19364,0,0,1,1.15625.23828Z" transform="translate(-114.125 -391.35526)" style="fill:#fff"/><path d="M217.91211,473.18066l.03125,1.14551-1.48438-.02148.01075.42383.75879-.042.00488.69922H216.544l.0166.48828,1.43066-.085.0166,1.373-2.72461.0791-.22851-4.05469Z" transform="translate(-114.125 -391.35526)" style="fill:#fff"/><path d="M218.64844,475.64551a3.57753,3.57753,0,0,0,.52929.18066,2.15754,2.15754,0,0,0,.47266.0791c.13086.00782.208-.00976.23242-.05273.03223-.042-.02734-.11426-.17969-.2168-.1621-.11328-.32226-.23144-.47656-.35254q-.23437-.18311-.46094-.38965a1.004,1.004,0,0,1-.334-.98144.751.751,0,0,1,.55664-.67773,1.94946,1.94946,0,0,1,.97461.0371,4.16326,4.16326,0,0,1,1.00781.42383,3.28167,3.28167,0,0,1,.668.47657l-.499.77441a.75377.75377,0,0,0-.15332-.11426c-.06445-.03711-.1416-.07812-.2334-.124a2.87274,2.87274,0,0,0-.48242-.18067c-.1377-.03125-.21973-.02441-.24414.02149q-.03076.063.3291.36035a8.18728,8.18728,0,0,0,.76855.56152.91806.91806,0,0,1,.3545.66309.69122.69122,0,0,1-.26954.71582,1.95638,1.95638,0,0,1-.86914.34961,3.42743,3.42743,0,0,1-1.10351,0,2.314,2.314,0,0,1-.959-.34473Z" transform="translate(-114.125 -391.35526)" style="fill:#fff"/><path d="M227.67578,473.18066l1.24024,3.6045-1.31446.45605-.25976-.79492h-1.01758l-.23828.7793-1.29395-.6045,1.31934-3.33886Zm-.43555,2.4336-.38671-.93848-.39649.92285Z" transform="translate(-114.125 -391.35526)" style="fill:#fff"/><path d="M229.57812,473.18066l1.27247.10645,1.04394,1.85547-.17969-1.76563h1.21387l.0791,3.499-1.415.36523-1.04394-2.09375-.08985,1.92969-1.21484-.28613.334-3.541Z" transform="translate(-114.125 -391.35526)" style="fill:#fff"/><path d="M233.31543,473.40332a4.66168,4.66168,0,0,1,1.87109-.18555,2.84861,2.84861,0,0,1,1.8877.90137,1.2947,1.2947,0,0,1,.33887.668,1.87814,1.87814,0,0,1,.02343.37891,1.5492,1.5492,0,0,1-.06543.38476,2.22965,2.22965,0,0,1-.40332.73145,2.04152,2.04152,0,0,1-.72656.54,4.71444,4.71444,0,0,1-1.34082.37109,3.94237,3.94237,0,0,1-1.31445-.00488Zm1.71777,2.17383a.79533.79533,0,0,0,.334-.0586,1.22292,1.22292,0,0,0,.334-.20117.70316.70316,0,0,0,.20117-.29687.34731.34731,0,0,0-.05859-.33887.63606.63606,0,0,0-.45117-.20215,1.90229,1.90229,0,0,0-.49805-.01562Z" transform="translate(-114.125 -391.35526)" style="fill:#fff"/><path d="M240.67773,474.3418l.90625-.68848.74219.98535.58887-1.458,1.24023.207-2.05664,3.85351-.91114-.66211.74708-1.21387Z" transform="translate(-114.125 -391.35526)" style="fill:#fff"/><path d="M248.56055,475.3916a1.746,1.746,0,0,1-.72071,1.39356,2.38681,2.38681,0,0,1-1.416.45605,2.23435,2.23435,0,0,1-1.37305-.46582,1.57462,1.57462,0,0,1-.59863-1.38379,1.98944,1.98944,0,0,1,.22754-.90625,2.6151,2.6151,0,0,1,.57226-.70508,2.44951,2.44951,0,0,1,.76367-.45117,2.10331,2.10331,0,0,1,.82227-.14844,2.05377,2.05377,0,0,1,.49805.11133,1.83543,1.83543,0,0,1,.59863.35059,1.9795,1.9795,0,0,1,.47754.67285A2.40172,2.40172,0,0,1,248.56055,475.3916Zm-1.49024-.47168a.09271.09271,0,0,0,.03711-.02637.1254.1254,0,0,0,.03223-.03222.39045.39045,0,0,0,.13183-.291.54111.54111,0,0,0-.08984-.28125l-.02637-.02441c-.01074-.00879-.0205-.01856-.03222-.02832a.26541.26541,0,0,0-.02344-.02442.1712.1712,0,0,0-.0293-.02343.7086.7086,0,0,0-.27539-.10645.49017.49017,0,0,0-.31836.04785.59067.59067,0,0,0-.11621.06348c-.05371.03516-.083.05664-.09082.06348a.43077.43077,0,0,0-.13672.31347.5365.5365,0,0,0,.11133.29688.16282.16282,0,0,1,.01758.02051.13444.13444,0,0,0,.01953.02148l.02148.01367a.1662.1662,0,0,1,.02051.01856.57825.57825,0,0,0,.34473.12695.57188.57188,0,0,0,.4082-.1543Z" transform="translate(-114.125 -391.35526)" style="fill:#fff"/><path d="M250.75391,473.62109c-.01758.04981-.04.11621-.06836.19922s-.0625.18262-.10059.29883a3.31111,3.31111,0,0,0-.14355.71582,1.28391,1.28391,0,0,0,.08593.64649.50219.50219,0,0,0,.53515.2705.46881.46881,0,0,0,.42384-.18554.93093.93093,0,0,0,.14844-.46094,2.31416,2.31416,0,0,0-.02149-.57813l-.07422-.54589,1.12891-.2168c.043.13379.08789.2832.13476.44726.04883.16407.09668.34766.14649.54883a2.71214,2.71214,0,0,1,.06836,1.15039,1.53794,1.53794,0,0,1-.54492.94825,2.334,2.334,0,0,1-1.543.38183,1.87175,1.87175,0,0,1-1.47364-.49316,1.9957,1.9957,0,0,1-.50878-1.14942,3.725,3.725,0,0,1-.01563-.668,3.80466,3.80466,0,0,1,.10547-.67871,10.26791,10.26791,0,0,1,.30273-1.07129Z" transform="translate(-114.125 -391.35526)" style="fill:#fff"/><path d="M254.91016,471.64355l-1.17578,1.70215-.334-.165.30664-1.6748Z" transform="translate(-114.125 -391.35526)" style="fill:#fff"/><path d="M256.70312,473.17578l.16895,3.05371,1.35156-.18554.03223,1.01757-2.64551.17969-.42871-4.01758Z" transform="translate(-114.125 -391.35526)" style="fill:#fff"/><path d="M260.04688,473.17578l.16992,3.05371,1.35156-.18554.03125,1.01757-2.64453.17969-.42969-4.01758Z" transform="translate(-114.125 -391.35526)" style="fill:#fff"/><path d="M267.63281,474.42188a1.35329,1.35329,0,0,0-.55664-.165,1.31726,1.31726,0,0,0-.57812.0957,1.09064,1.09064,0,0,0-.43946.36621.98089.98089,0,0,0-.14355.63574.86166.86166,0,0,0,.68848.81641.7215.7215,0,0,0,.5039-.085.86209.86209,0,0,0,.36621-.51465l-.49316.01074.085-.59863,1.25684-.01074a1.35521,1.35521,0,0,1,.05761.498,2.133,2.133,0,0,1-.06933.499,1.70553,1.70553,0,0,1-.66211.92675,1.93189,1.93189,0,0,1-1.01758.34473,1.67384,1.67384,0,0,1-.5332-.06348,1.95952,1.95952,0,0,1-.51661-.23339,1.84582,1.84582,0,0,1-.7373-1.02832,1.86769,1.86769,0,0,1,.00586-1.293,2.30971,2.30971,0,0,1,.29687-.55957,2.24665,2.24665,0,0,1,.42383-.4375,2.105,2.105,0,0,1,1.124-.43946,1.67238,1.67238,0,0,1,1.19824.35547Z" transform="translate(-114.125 -391.35526)" style="fill:#fff"/><path d="M271.55469,473.18066l.03125,1.14551-1.4834-.02148.01074.42383.75781-.042.00586.69922h-.68946l.01563.48828,1.43165-.085.01562,1.373-2.72461.0791-.22851-4.05469Z" transform="translate(-114.125 -391.35526)" style="fill:#fff"/><path d="M271.95215,473.3877l3.65234-.207.06348,1.835-1.39453-.07421.41992,2.2998-1.793-.19043.30859-2.06738-1.28906.03711Z" transform="translate(-114.125 -391.35526)" style="fill:#fff"/><path d="M281.73242,473.18066l1.24024,3.6045-1.31446.45605-.25976-.79492h-1.01758l-.23828.7793-1.29395-.6045,1.31934-3.33886Zm-.43554,2.4336-.38672-.93848-.39649.92285Z" transform="translate(-114.125 -391.35526)" style="fill:#fff"/><path d="M289.06249,474.42188a1.34439,1.34439,0,0,0-.55663-.165,1.31776,1.31776,0,0,0-.57715.0957,1.09989,1.09989,0,0,0-.44043.36621.98079.98079,0,0,0-.14258.63574.88116.88116,0,0,0,.22266.55078.871.871,0,0,0,.4668.26563.71811.71811,0,0,0,.50293-.085.86213.86213,0,0,0,.36621-.51465l-.49317.01074.085-.59863,1.25586-.01074a1.33434,1.33434,0,0,1,.0586.498,2.2472,2.2472,0,0,1-.06836.499,1.717,1.717,0,0,1-.66309.92675,1.9351,1.9351,0,0,1-1.01855.34473,1.66786,1.66786,0,0,1-.53223-.06348,1.97369,1.97369,0,0,1-.5166-.23339,1.83553,1.83553,0,0,1-.73633-1.02832,1.86787,1.86787,0,0,1,.00488-1.293,2.27623,2.27623,0,0,1,.29688-.55957,2.21866,2.21866,0,0,1,.42383-.4375,2.10187,2.10187,0,0,1,1.124-.43946,1.66873,1.66873,0,0,1,1.19727.35547Z" transform="translate(-114.125 -391.35526)" style="fill:#fff"/><path d="M290.12891,473.18066l1.52148.10157-.07422,3.917-1.34765.042Z" transform="translate(-114.125 -391.35526)" style="fill:#fff"/><path d="M291.8457,473.18066l2.76758.12793.00488,1.13379-1.543-.10547.05371.48243.74218-.00586.084.9707-.73145-.043.12207,1.5-1.25586-.10547Z" transform="translate(-114.125 -391.35526)" style="fill:#fff"/><path d="M294.91016,473.3877l3.65233-.207.06251,1.835-1.39355-.07421.41894,2.2998-1.792-.19043.30762-2.06738-1.28809.03711Z" transform="translate(-114.125 -391.35526)" style="fill:#fff"/><path d="M300.69336,471.87207l-.42969,4.0127-.99609.10058-.17578-3.46191Zm-.88087,4.34668a.83006.83006,0,0,1,.48243.09473.35632.35632,0,0,1,.20215.31836.44192.44192,0,0,1-.20215.35546.955.955,0,0,1-.48243.18555.8533.8533,0,0,1-.49218-.0957.36174.36174,0,0,1-.20117-.31836.44751.44751,0,0,1,.20117-.34961A.96259.96259,0,0,1,299.81249,476.21875Z" transform="translate(-114.125 -391.35526)" style="fill:#fff"/><path d="M166.17112,394.78177H124.03694a6.00668,6.00668,0,0,0-6.011,6.00469v7.82692a6.00622,6.00622,0,0,0,6.011,6.00415h42.13418a6.00645,6.00645,0,0,0,6.01132-6.00415v-7.82692a6.00691,6.00691,0,0,0-6.01132-6.00469" transform="translate(-114.125 -391.35526)" style="fill:#95bb2c"/><path d="M161.95075,408.66193h-3.15728v-1.57367a2.167,2.167,0,0,1,.70177-1.62614,2.44034,2.44034,0,0,1,3.38016,0,2.21743,2.21743,0,0,1,.69155,1.63775V410.841h-1.31848v-3.806a1.152,1.152,0,0,0-.31816-.81831.95512.95512,0,0,0-.72386-.34.984.984,0,0,0-.765.32921,1.08363,1.08363,0,0,0-.31925.79761v.56285h1.82858v1.0956" transform="translate(-114.125 -391.35526)" style="fill:#fff"/><path d="M154.17567,407.09765v1.0945h-2.14784a.77368.77368,0,0,0-.57363.22426.7842.7842,0,0,0-.2226.56285.71538.71538,0,0,0,.23364.55291.78416.78416,0,0,0,.58413.23393h2.1263v1.08428h-2.26384a2.13187,2.13187,0,0,1-1.42509-.5101,1.64535,1.64535,0,0,1-.65924-1.329,1.57732,1.57732,0,0,1,.26652-.86113,1.2867,1.2867,0,0,1,.69044-.54213,1.00682,1.00682,0,0,1-.54213-.46813,1.472,1.472,0,0,1-.22344-.78656,1.2826,1.2826,0,0,1,.50017-1.00943,1.68826,1.68826,0,0,1,1.11659-.42476h2.54v1.09532H151.964a.547.547,0,0,0-.39327.1472.517.517,0,0,0-.14831.38306.52573.52573,0,0,0,.14831.39383.51453.51453,0,0,0,.39327.15908h2.21165" transform="translate(-114.125 -391.35526)" style="fill:#fff"/><path d="M140.87267,404.88066a1.11118,1.11118,0,0,0-.2121.6435,1.467,1.467,0,0,0,.45486,1.09671,1.87081,1.87081,0,0,0,1.14256.45044l.10991.00056a.85219.85219,0,0,1,.575.19083.73835.73835,0,0,1,.2552.60511v-.03148a.73838.73838,0,0,1-.2552.60566.85381.85381,0,0,1-.575.19139h-1.86807v1.09533h2.46407a1.49832,1.49832,0,0,0,1.15884-.53164,1.78075,1.78075,0,0,0,.472-1.23315v-.22343a1.77746,1.77746,0,0,0-.472-1.23258,1.49473,1.49473,0,0,0-1.15884-.53165l-.12345-.0011a.69027.69027,0,0,1-.53193-.19111.83271.83271,0,0,1-.16929-.56259.94914.94914,0,0,1,.00911-.171.55461.55461,0,0,1,.07567-.16985h-1.35134" transform="translate(-114.125 -391.35526)" style="fill:#fff"/><path d="M145.88221,405.97324l1.08648,1.87969.44438.7733a.9605.9605,0,0,0,.62361-.32093,1.08212,1.08212,0,0,0,.31815-.79622v-1.5339H146.5257v-1.0945h3.15783v2.54278a2.16468,2.16468,0,0,1-.70122,1.62643,2.33312,2.33312,0,0,1-1.6938.68078l-.765.00082-1.08511-1.87856-1.08483-1.87969h1.52866" transform="translate(-114.125 -391.35526)" style="fill:#fff"/><polygon points="40.403 13.525 40.403 14.618 42.783 14.618 40.232 17.384 40.232 18.376 44.425 18.376 44.425 17.277 41.81 17.277 44.325 14.572 44.325 13.525 40.403 13.525" style="fill:#fff"/><path d="M132.02684,409.26879c-3.30919-.16516-5.462-2.62371-4.78233-5.76772a7.23321,7.23321,0,0,1,6.64432-5.42306h-7.26517v11.7992h11.79673v-3.72676a7.16339,7.16339,0,0,1-6.39355,3.11834" transform="translate(-114.125 -391.35526)" style="fill:#fff"/><path d="M135.36475,398.11912a2.81277,2.81277,0,1,0,2.82392,2.81372,2.81467,2.81467,0,0,0-2.82392-2.81372" transform="translate(-114.125 -391.35526)" style="fill:#fff"/></svg>