<?xml version="1.0" encoding="utf-8"?>
<!-- Generator: Adobe Illustrator 21.1.0, SVG Export Plug-In . SVG Version: 6.00 Build 0)  -->
<svg version="1.1" baseProfile="basic" id="кнопка_норм"
	 xmlns="http://www.w3.org/2000/svg" xmlns:xlink="http://www.w3.org/1999/xlink" x="0px" y="0px" viewBox="0 0 214.9 135.7"
	 xml:space="preserve">
<style type="text/css">
</style>
<g id="Layer_2">
</g>
<path class="st0" fill="#95BB2C" d="M206.3,135.7H8.6c-4.8,0-8.6-3.9-8.6-8.6V8.6C0,3.8,3.9,0,8.6,0h197.7c4.8,0,8.6,3.9,8.6,8.6v118.5
	C214.9,131.9,211.1,135.7,206.3,135.7z"/>
<g>
	<path class="st1" fill="#FFFFFF" d="M47.8,17.3h-3.2v-1.6c0-0.6,0.2-1.2,0.7-1.6c0.5-0.5,1-0.7,1.7-0.7c0.6,0,1.2,0.2,1.7,0.7
		c0.5,0.4,0.7,1,0.7,1.6v3.7h-1.3v-3.8c0-0.3-0.1-0.6-0.3-0.8c-0.2-0.2-0.4-0.3-0.7-0.3s-0.6,0.1-0.8,0.3C46.1,15,46,15.3,46,15.6
		v0.6h1.8L47.8,17.3"/>
	<path class="st1" fill="#FFFFFF" d="M40,15.7v1.1h-2.2c-0.2,0-0.4,0.1-0.6,0.2c-0.1,0.2-0.2,0.3-0.2,0.6c0,0.2,0.1,0.4,0.2,0.6
		c0.2,0.2,0.3,0.2,0.6,0.2h2.1v1.1h-2.3c-0.6,0-1-0.2-1.4-0.5c-0.4-0.4-0.7-0.8-0.7-1.3c0-0.3,0.1-0.6,0.3-0.9s0.4-0.4,0.7-0.5
		c-0.2-0.1-0.4-0.2-0.5-0.5c-0.1-0.2-0.2-0.5-0.2-0.8c0-0.4,0.2-0.7,0.5-1s0.7-0.4,1.1-0.4h2.5v1.1h-2.1c-0.2,0-0.3,0.1-0.4,0.1
		c-0.1,0.1-0.1,0.2-0.1,0.4c0,0.2,0,0.3,0.1,0.4s0.2,0.2,0.4,0.2H40"/>
	<path class="st1" fill="#FFFFFF" d="M26.7,13.5c-0.1,0.2-0.2,0.4-0.2,0.6c0,0.4,0.2,0.8,0.5,1.1c0.3,0.3,0.8,0.4,1.1,0.5h0.1
		c0.2,0,0.4,0.1,0.6,0.2c0.2,0.1,0.3,0.3,0.3,0.6l0,0c0,0.3-0.1,0.5-0.3,0.6c-0.1,0.1-0.3,0.2-0.6,0.2h-1.9v1.1h2.5
		c0.5,0,0.9-0.2,1.2-0.5c0.3-0.4,0.5-0.8,0.5-1.2v-0.2c0-0.5-0.2-0.9-0.5-1.2c-0.3-0.4-0.7-0.5-1.2-0.5h-0.1c-0.2,0-0.4-0.1-0.5-0.2
		S28,14.3,28,14c0-0.1,0-0.1,0-0.2c0,0,0-0.1,0.1-0.2L26.7,13.5"/>
	<path class="st1" fill="#FFFFFF" d="M31.7,14.6l1.1,1.9l0.4,0.8c0.2,0,0.5-0.1,0.6-0.3c0.2-0.2,0.3-0.5,0.3-0.8v-1.6h-1.8v-1.1h3.2V16
		c0,0.6-0.2,1.2-0.7,1.6c-0.5,0.5-1,0.7-1.7,0.7h-0.8l-1.1-1.9l-1.1-1.9L31.7,14.6"/>
	<polygon class="st1" fill="#FFFFFF" points="40.3,13.5 40.3,14.6 42.7,14.6 40.2,17.3 40.2,18.3 44.3,18.3 44.3,17.2 41.7,17.2 44.2,14.5 
		44.2,13.5 	"/>
	<path class="st1" fill="#FFFFFF" d="M17.8,17.9c-3.3-0.2-5.5-2.6-4.8-5.8c0.6-3,3.5-5.3,6.6-5.4h-7.3v11.8h11.8v-3.7C22.9,16.9,20.3,18,17.8,17.9"
		/>
	<path class="st1" fill="#FFFFFF" d="M21.2,6.7c-1.6,0-2.8,1.3-2.8,2.8c0,1.6,1.3,2.8,2.8,2.8c1.6,0,2.8-1.3,2.8-2.8S22.7,6.7,21.2,6.7"/>
</g>
<g>
	<path class="st1" fill="#FFFFFF" d="M24.3,42.4c-1.6-0.3-2.8-0.1-3.6,0.5c-0.7,0.6-1.1,1.3-1,2s0.6,1.3,1.4,1.6c0.9,0.4,2.1,0.2,3.7-0.6l1.3,2.6
		c-0.8,0.5-1.7,0.8-2.8,0.8c-1.1,0.1-2.2,0-3.2-0.3s-1.9-0.8-2.6-1.4c-0.7-0.7-1.1-1.5-1.2-2.5c0-1.1,0.2-2,0.8-2.8s1.3-1.4,2.2-1.9
		c0.9-0.4,1.8-0.7,2.9-0.7c1,0,1.9,0.1,2.8,0.6L24.3,42.4z"/>
	<path class="st1" fill="#FFFFFF" d="M27,40.2l2.9-0.2v3.3h2.2v-3.2l3.4-0.2L35.1,49l-2.9,0.3v-3.4H30v3.4l-2.5,0.3L27,40.2z"/>
	<path class="st1" fill="#FFFFFF" d="M39.6,49.2l-3-0.4l-0.5-8.9c0.6-0.1,1.3-0.1,2.1-0.1c0.4,0,0.8,0,1.2,0.1c0.4,0,0.8,0.1,1.2,0.2
		c0.8,0.2,1.5,0.4,2.1,0.7c0.6,0.3,1,0.7,1.2,1.1c0.2,0.6,0.2,1.1-0.2,1.7s-0.8,1-1.4,1.4l3.5,2.2l-3,2.3L40,45.8h-0.6L39.6,49.2z
		 M39.3,43.7c0.5-0.1,1-0.2,1.3-0.5s0.5-0.5,0.6-0.8c0-0.3-0.1-0.5-0.4-0.7c-0.3-0.2-0.8-0.3-1.5-0.4L39.3,43.7L39.3,43.7z"/>
	<path class="st1" fill="#FFFFFF" d="M46.7,39.8l3.6,0.2l-0.2,9.3l-3.2,0.1L46.7,39.8z"/>
	<path class="st1" fill="#FFFFFF" d="M51.7,45.7c0.4,0.2,0.8,0.3,1.3,0.4s0.8,0.2,1.1,0.2s0.5,0,0.6-0.1s-0.1-0.3-0.4-0.5c-0.4-0.3-0.8-0.5-1.1-0.8
		s-0.7-0.6-1.1-0.9c-0.7-0.7-1-1.4-0.8-2.3s0.6-1.5,1.3-1.6c0.7-0.2,1.5-0.1,2.3,0.1s1.6,0.6,2.4,1s1.3,0.8,1.6,1.1l-1.2,1.8
		c-0.1-0.1-0.2-0.2-0.4-0.3c-0.2-0.1-0.3-0.2-0.6-0.3c-0.4-0.2-0.8-0.3-1.1-0.4s-0.5-0.1-0.6,0s0.2,0.4,0.8,0.9
		c0.8,0.6,1.4,1.1,1.8,1.3c0.4,0.3,0.7,0.8,0.8,1.6c0.1,0.7-0.1,1.3-0.6,1.7s-1.2,0.7-2.1,0.8c-0.8,0.1-1.7,0.1-2.6,0
		c-0.9-0.1-1.7-0.4-2.3-0.8L51.7,45.7z"/>
	<path class="st1" fill="#FFFFFF" d="M59.6,40.3l8.7-0.5l0.2,4.4L65.2,44l1,5.5L61.9,49l0.7-4.9l-3.1,0.1L59.6,40.3z"/>
	<path class="st1" fill="#FFFFFF" d="M73.3,40.7l1.5,3.9l1-4l3.1-0.7l1.7,8.6l-3,1l-0.5-5.4l-1.4,5.1h-1.6l-1.7-4.7l-0.2,4.9l-3.1-0.5l0.9-8.8
		L73.3,40.7z"/>
	<path class="st1" fill="#FFFFFF" d="M88.3,39.8l3,8.6l-3.1,1.1l-0.6-1.9h-2.4l-0.6,1.9l-3.1-1.4l3.1-7.9L88.3,39.8z M87.3,45.6l-0.9-2.2l-0.9,2.2
		H87.3z"/>
	<path class="st1" fill="#FFFFFF" d="M93,45.7c0.4,0.2,0.8,0.3,1.3,0.4s0.8,0.2,1.1,0.2s0.5,0,0.6-0.1s-0.1-0.3-0.4-0.5c-0.4-0.3-0.8-0.5-1.1-0.8
		s-0.7-0.6-1.1-0.9c-0.7-0.7-1-1.4-0.8-2.3s0.6-1.5,1.3-1.6c0.7-0.2,1.5-0.1,2.3,0.1s1.6,0.6,2.4,1s1.3,0.8,1.6,1.1L99,44.1
		c-0.1-0.1-0.2-0.2-0.4-0.3c-0.2-0.1-0.3-0.2-0.6-0.3c-0.4-0.2-0.8-0.3-1.1-0.4s-0.5-0.1-0.6,0s0.2,0.4,0.8,0.9
		c0.8,0.6,1.4,1.1,1.8,1.3c0.4,0.3,0.7,0.8,0.8,1.6c0.1,0.7-0.1,1.3-0.6,1.7s-1.2,0.7-2.1,0.8c-0.8,0.1-1.7,0.1-2.6,0
		c-0.9-0.1-1.7-0.4-2.3-0.8L93,45.7z"/>
	<path class="st1" fill="#FFFFFF" d="M114.4,39.8l0.1,2.7l-3.5-0.1v1l1.8-0.1V45h-1.6v1.2l3.4-0.2v3.3l-6.5,0.2l-0.5-9.7H114.4z"/>
	<path class="st1" fill="#FFFFFF" d="M119.1,40.1l0.7,5.2l1.5-4.1l3.2,0.4l-3.4,7.9l-3.7-0.3l-2-9.3L119.1,40.1z"/>
	<path class="st1" fill="#FFFFFF" d="M131.9,39.8l0.1,2.7l-3.5-0.1v1l1.8-0.1V45h-1.6v1.2l3.4-0.2v3.3l-6.5,0.2l-0.5-9.7H131.9z"/>
	<path class="st1" fill="#FFFFFF" d="M139.6,39.8l3.6,0.2l-0.2,9.3l-3.2,0.1L139.6,39.8z"/>
	<path class="st1" fill="#FFFFFF" d="M144.6,45.7c0.4,0.2,0.8,0.3,1.3,0.4s0.8,0.2,1.1,0.2c0.3,0,0.5,0,0.6-0.1s-0.1-0.3-0.4-0.5
		c-0.4-0.3-0.8-0.5-1.1-0.8c-0.3-0.3-0.7-0.6-1.1-0.9c-0.7-0.7-1-1.4-0.8-2.3s0.6-1.5,1.3-1.6c0.7-0.2,1.5-0.1,2.3,0.1
		s1.6,0.6,2.4,1s1.3,0.8,1.6,1.1l-1.2,1.8c-0.1-0.1-0.2-0.2-0.4-0.3c-0.2-0.1-0.3-0.2-0.6-0.3c-0.4-0.2-0.8-0.3-1.1-0.4
		c-0.3-0.1-0.5-0.1-0.6,0s0.2,0.4,0.8,0.9c0.8,0.6,1.4,1.1,1.8,1.3c0.4,0.3,0.7,0.8,0.8,1.6c0.1,0.7-0.1,1.3-0.6,1.7
		s-1.2,0.7-2.1,0.8c-0.8,0.1-1.7,0.1-2.6,0s-1.7-0.4-2.3-0.8L144.6,45.7z"/>
	<path class="st1" fill="#FFFFFF" d="M159.2,40.2l2.9-0.2v3.3h2.2v-3.2l3.4-0.2l-0.4,9.1l-2.9,0.3v-3.4h-2.2v3.4l-2.5,0.3L159.2,40.2z"/>
	<path class="st1" fill="#FFFFFF" d="M175.2,39.8l0.1,2.7l-3.5-0.1v1l1.8-0.1V45H172v1.2l3.4-0.2v3.3l-6.5,0.2l-0.5-9.7H175.2z"/>
	<path class="st1" fill="#FFFFFF" d="M179.5,49.2l-3-0.4l-0.5-8.9c0.6-0.1,1.3-0.1,2.1-0.1c0.4,0,0.8,0,1.2,0.1c0.4,0,0.8,0.1,1.2,0.2
		c0.8,0.2,1.5,0.4,2.1,0.7c0.6,0.3,1,0.7,1.2,1.1c0.2,0.6,0.2,1.1-0.2,1.7c-0.4,0.6-0.8,1-1.4,1.4l3.5,2.2l-3,2.3l-2.8-3.7h-0.6
		L179.5,49.2z M179.2,43.7c0.5-0.1,1-0.2,1.3-0.5s0.5-0.5,0.6-0.8c0-0.3-0.1-0.5-0.4-0.7s-0.8-0.3-1.5-0.4V43.7z"/>
	<path class="st1" fill="#FFFFFF" d="M193.5,39.8l0.1,2.7l-3.5-0.1v1l1.8-0.1V45h-1.6v1.2l3.4-0.2v3.3l-6.5,0.2l-0.5-9.7H193.5z"/>
	<path class="st1" fill="#FFFFFF" d="M198.5,36.7l-1,9.5l-2.4,0.2l-0.4-8.2L198.5,36.7z M196.4,47.1c0.4,0,0.8,0,1.1,0.2c0.3,0.2,0.5,0.4,0.5,0.8
		s-0.2,0.6-0.5,0.8c-0.3,0.2-0.7,0.4-1.1,0.4c-0.5,0-0.8,0-1.2-0.2c-0.3-0.2-0.5-0.4-0.5-0.8c0-0.3,0.2-0.6,0.5-0.8
		C195.6,47.3,195.9,47.1,196.4,47.1z"/>
</g>
<g>
	<path class="st1" fill="#FFFFFF" d="M33.6,70.2L32.3,70l-0.2-3.7c0.3,0,0.6-0.1,0.9,0c0.2,0,0.3,0,0.5,0s0.3,0,0.5,0.1c0.3,0.1,0.6,0.2,0.9,0.3
		c0.3,0.1,0.4,0.3,0.5,0.5s0.1,0.5-0.1,0.7c-0.2,0.2-0.4,0.4-0.6,0.6l1.5,0.9l-1.3,1l-1.2-1.6h-0.3L33.6,70.2z M33.5,67.9
		c0.2,0,0.4-0.1,0.5-0.2s0.2-0.2,0.2-0.3c0-0.1,0-0.2-0.2-0.3C33.9,67,33.7,67,33.4,67L33.5,67.9z"/>
	<path class="st1" fill="#FFFFFF" d="M39.5,66.3v1.1H38v0.4h0.8v0.7h-0.7V69l1.4-0.1v1.4l-2.7,0.1l-0.2-4.1H39.5z"/>
	<path class="st1" fill="#FFFFFF" d="M42.7,66.3l1.2,3.6l-1.3,0.5l-0.3-0.8h-1l-0.2,0.8l-1.3-0.6l1.3-3.3L42.7,66.3z M42.3,68.7l-0.4-0.9l-0.4,0.9
		H42.3z"/>
	<path class="st1" fill="#FFFFFF" d="M44.3,66.5c0.5-0.2,1.1-0.2,1.9-0.2c0.7,0.1,1.4,0.4,1.9,0.9c0.2,0.2,0.3,0.4,0.3,0.7c0,0.1,0,0.3,0,0.4
		s0,0.3-0.1,0.4c-0.1,0.3-0.2,0.5-0.4,0.7s-0.4,0.4-0.7,0.5c-0.4,0.2-0.8,0.3-1.3,0.4s-1,0.1-1.3,0L44.3,66.5z M46,68.7
		c0.1,0,0.2,0,0.3-0.1s0.2-0.1,0.3-0.2s0.2-0.2,0.2-0.3c0-0.1,0-0.2-0.1-0.3c-0.1-0.1-0.2-0.2-0.5-0.2c-0.2,0-0.4,0-0.5,0L46,68.7z"
		/>
	<path class="st1" fill="#FFFFFF" d="M48.8,67.4l0.9-0.7l0.7,1l0.6-1.5l1.2,0.2l-2.1,3.9l-0.9-0.7l0.7-1.2L48.8,67.4z"/>
	<path class="st1" fill="#FFFFFF" d="M55.5,66.5l3.7-0.2l0.1,1.8L57.9,68l0.4,2.3l-1.8-0.2l0.3-2.1h-1.3V66.5z"/>
	<path class="st1" fill="#FFFFFF" d="M63.6,68.5c0,0.6-0.3,1.1-0.7,1.4s-0.9,0.5-1.4,0.5s-1-0.2-1.4-0.5s-0.6-0.8-0.6-1.4c0-0.3,0.1-0.6,0.2-0.9
		c0.2-0.3,0.3-0.5,0.6-0.7c0.2-0.2,0.5-0.3,0.8-0.5c0.3-0.1,0.6-0.2,0.8-0.1c0.1,0,0.3,0,0.5,0.1s0.4,0.2,0.6,0.4
		c0.2,0.2,0.4,0.4,0.5,0.7C63.6,67.7,63.6,68.1,63.6,68.5z M62.3,67.7c0-0.1,0-0.2-0.1-0.3l0,0l0,0l0,0l0,0
		c-0.1-0.1-0.2-0.1-0.3-0.1s-0.2,0-0.3,0c0,0-0.1,0-0.1,0.1c-0.1,0-0.1,0.1-0.1,0.1c-0.1,0.1-0.1,0.2-0.1,0.3c0,0.1,0,0.2,0.1,0.3
		l0,0l0,0l0,0l0,0c0.1,0.1,0.2,0.1,0.3,0.1C61.8,68.2,62.3,67.8,62.3,67.7z"/>
	<path class="st1" fill="#FFFFFF" d="M66.8,66.4l1.2-0.1v1.4h0.9v-1.4l1.4-0.1L70.1,70l-1.2,0.1v-1.4H68v1.4l-1.1,0.1L66.8,66.4z"/>
	<path class="st1" fill="#FFFFFF" d="M73.6,66.3l1.2,3.6l-1.3,0.5l-0.3-0.8h-1L72,70.4l-1.3-0.6l1.3-3.3L73.6,66.3z M73.1,68.7l-0.4-0.9l-0.4,0.9
		H73.1z"/>
	<path class="st1" fill="#FFFFFF" d="M76.7,66.4l0.3,2.2l0.6-1.7l1.3,0.2l-1.4,3.3l-1.6-0.1L75,66.4H76.7z"/>
	<path class="st1" fill="#FFFFFF" d="M82.1,66.3v1.1h-1.5v0.4h0.8v0.7h-0.6V69l1.4-0.1v1.4l-2.7,0.1l-0.2-4.1H82.1z"/>
	<path class="st1" fill="#FFFFFF" d="M88.3,66.3l1.2,3.6l-1.3,0.5l-0.3-0.8h-1l-0.2,0.8l-1.3-0.6l1.3-3.3L88.3,66.3z M87.8,68.7l-0.4-0.9L87,68.7
		H87.8z"/>
	<path class="st1" fill="#FFFFFF" d="M90.2,66.3l1.3,0.1l1,1.9l-0.2-1.8h1.2l0.1,3.5l-1.4,0.4l-1-2.1l-0.1,1.9l-1.2-0.3L90.2,66.3L90.2,66.3z"/>
	<path class="st1" fill="#FFFFFF" d="M98.6,66.7c0,0,0,0.1-0.1,0.2c0,0.1-0.1,0.2-0.1,0.3c-0.1,0.2-0.1,0.5-0.1,0.7s0,0.5,0.1,0.6
		c0.1,0.2,0.3,0.3,0.5,0.3s0.3-0.1,0.4-0.2s0.1-0.3,0.1-0.5s0-0.4,0-0.6L99.3,67l1.1-0.2c0,0.1,0.1,0.3,0.1,0.4s0.1,0.3,0.1,0.5
		c0.1,0.4,0.1,0.8,0.1,1.2c-0.1,0.4-0.2,0.7-0.5,0.9c-0.3,0.3-0.8,0.4-1.5,0.4s-1.2-0.2-1.5-0.5s-0.5-0.7-0.5-1.1c0-0.2,0-0.4,0-0.7
		c0-0.3,0-0.4,0.1-0.7c0.1-0.5,0.2-0.8,0.3-1.1L98.6,66.7z"/>
	<path class="st1" fill="#FFFFFF" d="M101.6,66.3l1.3,0.1l1,1.9l-0.2-1.8h1.2L105,70l-1.4,0.4l-1-2.1l-0.1,1.9l-1.2-0.3L101.6,66.3L101.6,66.3z"/>
	<path class="st1" fill="#FFFFFF" d="M105.3,66.3l2.8,0.1v1.1l-1.5-0.1l0.1,0.5h0.7l0.1,1h-0.7l0.1,1.5l-1.3-0.1L105.3,66.3z"/>
	<path class="st1" fill="#FFFFFF" d="M112.5,68.5c0,0.6-0.3,1.1-0.7,1.4s-0.9,0.5-1.4,0.5s-1-0.2-1.4-0.5s-0.6-0.8-0.6-1.4c0-0.3,0.1-0.6,0.2-0.9
		c0.2-0.3,0.3-0.5,0.6-0.7c0.2-0.2,0.5-0.3,0.8-0.5c0.3-0.1,0.6-0.2,0.8-0.1c0.1,0,0.3,0,0.5,0.1s0.4,0.2,0.6,0.4
		c0.2,0.2,0.4,0.4,0.5,0.7C112.5,67.7,112.5,68.1,112.5,68.5z M111.2,67.7c0-0.1,0-0.2-0.1-0.3l0,0l0,0l0,0l0,0
		c-0.1-0.1-0.2-0.1-0.3-0.1s-0.2,0-0.3,0c0,0-0.1,0-0.1,0.1c-0.1,0-0.1,0.1-0.1,0.1c-0.1,0.1-0.1,0.2-0.1,0.3c0,0.1,0,0.2,0.1,0.3
		l0,0l0,0l0,0l0,0c0.1,0.1,0.2,0.1,0.3,0.1C110.7,68.2,111.2,67.8,111.2,67.7z"/>
	<path class="st1" fill="#FFFFFF" d="M114.3,70.2L113,70l-0.2-3.7c0.3,0,0.6-0.1,0.9,0c0.2,0,0.3,0,0.5,0s0.3,0,0.5,0.1c0.3,0.1,0.6,0.2,0.9,0.3
		c0.3,0.1,0.4,0.3,0.5,0.5s0.1,0.5-0.1,0.7c-0.2,0.2-0.4,0.4-0.6,0.6l1.5,0.9l-1.3,1l-1.2-1.6h-0.3L114.3,70.2z M114.2,67.9
		c0.2,0,0.4-0.1,0.5-0.2s0.2-0.2,0.2-0.3c0-0.1,0-0.2-0.2-0.3c-0.1-0.1-0.3-0.1-0.6-0.1L114.2,67.9z"/>
	<path class="st1" fill="#FFFFFF" d="M120.2,67.5c-0.2-0.1-0.3-0.1-0.6-0.2c-0.2,0-0.4,0-0.6,0.1c-0.2,0.1-0.3,0.2-0.4,0.4
		c-0.1,0.2-0.2,0.4-0.1,0.6c0,0.2,0.1,0.4,0.2,0.6c0.1,0.1,0.3,0.2,0.5,0.3c0.2,0,0.3,0,0.5-0.1s0.3-0.3,0.4-0.5h-0.5l0.1-0.6h1.3
		c0,0.2,0.1,0.3,0.1,0.5s0,0.4-0.1,0.5c-0.1,0.4-0.3,0.7-0.7,0.9c-0.3,0.2-0.7,0.3-1,0.3c-0.2,0-0.4,0-0.5-0.1
		c-0.2,0-0.3-0.1-0.5-0.2c-0.3-0.2-0.6-0.6-0.7-1c-0.2-0.4-0.2-0.9,0-1.3c0.1-0.2,0.2-0.4,0.3-0.6s0.3-0.3,0.4-0.4
		c0.3-0.3,0.7-0.4,1.1-0.4c0.4,0,0.8,0.1,1.2,0.4L120.2,67.5z"/>
	<path class="st1" fill="#FFFFFF" d="M124.1,66.3v1.1h-1.5v0.4h0.8v0.7h-0.6V69l1.4-0.1v1.4l-2.7,0.1l-0.2-4.1H124.1z"/>
	<path class="st1" fill="#FFFFFF" d="M124.5,66.5l3.7-0.2l0.1,1.8l-1.4-0.1l0.4,2.3l-1.8-0.2l0.3-2.1h-1.3V66.5z"/>
	<path class="st1" fill="#FFFFFF" d="M128.6,66.5l3.7-0.2l0.1,1.8L131,68l0.4,2.3l-1.8-0.2l0.3-2.1h-1.3V66.5z"/>
	<path class="st1" fill="#FFFFFF" d="M135.5,66.3l1.2,3.6l-1.3,0.5l-0.3-0.8h-1l-0.2,0.8l-1.3-0.6l1.3-3.3L135.5,66.3z M135.1,68.7l-0.4-0.9
		l-0.4,0.9H135.1z"/>
	<path class="st1" fill="#FFFFFF" d="M137.1,66.5c0.2,0,0.4-0.1,0.6-0.1c0.2,0,0.4-0.1,0.6-0.1c0.4,0,0.9,0.1,1.4,0.3c0.4,0.2,0.6,0.4,0.6,0.7
		c0,0.3-0.1,0.6-0.4,0.7c0.5,0.1,0.8,0.2,1,0.4c0.2,0.2,0.3,0.5,0.3,0.7s-0.1,0.5-0.4,0.7c-0.2,0.2-0.5,0.4-0.9,0.4
		c-0.2,0-0.4,0-0.7,0c-0.3,0-0.4,0-0.6,0s-0.4,0-0.6-0.1c-0.2,0-0.4-0.1-0.6-0.1L137.1,66.5z M138.5,67.7c0.1,0,0.1,0,0.2,0
		c0.1,0,0.1,0,0.2,0s0.2-0.1,0.2-0.2c0-0.2-0.1-0.2-0.3-0.3c-0.1,0-0.2,0-0.2,0c-0.1,0-0.1,0-0.1,0L138.5,67.7L138.5,67.7z
		 M138.8,69.3c0.1,0,0.2,0,0.5,0c0.2,0,0.3-0.1,0.3-0.3c0-0.2-0.1-0.3-0.4-0.4c-0.1,0-0.2,0-0.3,0s-0.1,0-0.2,0L138.8,69.3z"/>
	<path class="st1" fill="#FFFFFF" d="M143.1,66.3l0.2,3.1l1.4-0.2v1l-2.6,0.2l-0.4-4L143.1,66.3z"/>
	<path class="st1" fill="#FFFFFF" d="M147.7,66.3v1.1h-1.5v0.4h0.8v0.7h-0.7V69l1.4-0.1v1.4l-2.7,0.1l-0.2-4.1H147.7z"/>
	<path class="st1" fill="#FFFFFF" d="M152.3,70.3c-0.4,0-0.7-0.1-0.9-0.3c-0.2-0.2-0.3-0.4-0.4-0.5l0.6-0.7c0,0.2,0.1,0.4,0.3,0.6
		c0.1,0.1,0.3,0.1,0.6-0.1c0.1-0.1,0.2-0.3,0.2-0.6c0-0.3,0-0.7-0.1-1.1l-0.7,0.1l0,0l0,0c0,0,0,0,0-0.1l-0.1-0.3
		c0-0.1-0.1-0.2-0.1-0.3v-0.1l0,0l2.5-0.3v1l-0.7,0.1c0,0.1,0.1,0.3,0.1,0.5s0.1,0.3,0.1,0.5c0.1,0.3,0.1,0.7,0,1
		c0,0.3-0.2,0.5-0.4,0.7C153.1,70.2,152.7,70.3,152.3,70.3z"/>
	<path class="st1" fill="#FFFFFF" d="M158.5,68.5c0,0.6-0.3,1.1-0.7,1.4c-0.4,0.3-0.9,0.5-1.4,0.5s-1-0.2-1.4-0.5s-0.6-0.8-0.6-1.4
		c0-0.3,0.1-0.6,0.2-0.9c0.2-0.3,0.3-0.5,0.6-0.7c0.2-0.2,0.5-0.3,0.8-0.5c0.3-0.1,0.6-0.2,0.8-0.1c0.1,0,0.3,0,0.5,0.1
		s0.4,0.2,0.6,0.4c0.2,0.2,0.3,0.4,0.5,0.7C158.5,67.7,158.5,68.1,158.5,68.5z M157.2,67.7c0-0.1,0-0.2-0.1-0.3l0,0l0,0l0,0l0,0
		c-0.1-0.1-0.2-0.1-0.3-0.1s-0.2,0-0.3,0c-0.1,0-0.1,0-0.1,0.1c-0.1,0-0.1,0.1-0.1,0.1c-0.1,0.1-0.1,0.2-0.1,0.3
		c0,0.1,0,0.2,0.1,0.3l0,0l0,0l0,0l0,0c0.1,0.1,0.2,0.1,0.3,0.1C156.7,68.2,157.2,67.8,157.2,67.7z"/>
	<path class="st1" fill="#FFFFFF" d="M160.7,66.7c0,0,0,0.1-0.1,0.2s-0.1,0.2-0.1,0.3c-0.1,0.2-0.1,0.5-0.1,0.7s0,0.5,0.1,0.6
		c0.1,0.2,0.3,0.3,0.5,0.3s0.3-0.1,0.4-0.2s0.1-0.3,0.1-0.5s0-0.4,0-0.6l-0.1-0.5l1.1-0.2c0,0.1,0.1,0.3,0.1,0.4
		c0,0.2,0.1,0.3,0.1,0.5c0.1,0.4,0.1,0.8,0.1,1.2c-0.1,0.4-0.2,0.7-0.5,0.9c-0.3,0.3-0.8,0.4-1.5,0.4s-1.2-0.2-1.5-0.5
		s-0.5-0.7-0.5-1.1c0-0.2,0-0.4,0-0.7c0-0.2,0-0.4,0.1-0.7c0.1-0.5,0.2-0.8,0.3-1.1L160.7,66.7z"/>
	<path class="st1" fill="#FFFFFF" d="M164.8,70.2l-1.3-0.2l-0.2-3.7c0.3,0,0.6-0.1,0.9,0c0.2,0,0.3,0,0.5,0s0.3,0,0.5,0.1c0.3,0.1,0.6,0.2,0.9,0.3
		c0.3,0.1,0.4,0.3,0.5,0.5s0.1,0.5-0.1,0.7s-0.4,0.4-0.6,0.6l1.5,0.9l-1.3,1l-1.2-1.6h-0.3L164.8,70.2z M164.7,67.9
		c0.2,0,0.4-0.1,0.5-0.2s0.2-0.2,0.2-0.3c0-0.1,0-0.2-0.2-0.3c-0.1-0.1-0.3-0.1-0.6-0.1L164.7,67.9z"/>
	<path class="st1" fill="#FFFFFF" d="M168.2,66.3l1.3,0.1l1,1.9l-0.2-1.8h1.2l0.1,3.5l-1.4,0.4l-1-2.1l-0.1,1.9l-1.2-0.3L168.2,66.3L168.2,66.3z"/>
	<path class="st1" fill="#FFFFFF" d="M174.7,66.3v1.1h-1.5v0.4h0.8v0.7h-0.7V69l1.4-0.1v1.4l-2.7,0.1l-0.2-4.1H174.7z"/>
	<path class="st1" fill="#FFFFFF" d="M175.1,67.4l0.9-0.7l0.7,1l0.6-1.5l1.2,0.2l-2.1,3.9l-0.9-0.7l0.7-1.2L175.1,67.4z"/>
	<path class="st1" fill="#FFFFFF" d="M179,66.3c0-0.1,0.1-0.1,0.2-0.1s0.1,0,0.2,0s0.2,0,0.3,0s0.2,0,0.3,0c0.1,0,0.2,0,0.3,0s0.2,0,0.3,0
		c0.1,0,0.2,0,0.3,0.1c0.1,0,0.2,0,0.3,0.1c0.4,0.1,0.7,0.2,1,0.4c0.3,0.2,0.3,0.5,0.2,0.9c-0.1,0.2-0.2,0.3-0.4,0.4
		c-0.2,0.1-0.4,0.2-0.6,0.3c-0.2,0.1-0.4,0.2-0.5,0.3c-0.1,0.1-0.1,0.2,0,0.2c0,0,0,0,0.1,0c0,0,0,0,0.1,0c0,0,0.1,0,0.1,0.1
		c0.1,0,0.1,0,0.2,0.1l-1.6,0.5c-0.1-0.3-0.1-0.6,0.1-0.8c0.1-0.1,0.2-0.2,0.3-0.3s0.2-0.2,0.3-0.2c0.1,0,0.2-0.1,0.3-0.2
		s0.2-0.1,0.3-0.2c0.2-0.1,0.2-0.2,0.1-0.3c-0.1-0.2-0.2-0.2-0.4-0.3c-0.1,0-0.3,0-0.5,0.1c-0.1,0-0.2,0.1-0.2,0.1s-0.2,0.1-0.2,0.2
		l-0.1,0.1h-0.1h-0.1c0,0-0.1,0-0.1,0.1L179,66.3z M180.5,69.4c0.1,0,0.2,0,0.3,0s0.2,0,0.3,0.1c0,0,0.1,0,0.1,0.1
		c0.1,0,0.1,0.1,0.1,0.1l0.1,0.1c0,0,0,0.1,0.1,0.1V70c0,0-0.1,0-0.1,0.1c0,0-0.1,0-0.1,0.1c-0.1,0-0.1,0-0.1,0.1
		c-0.1,0.1-0.3,0.2-0.5,0.2s-0.4,0-0.6,0s-0.3-0.1-0.3-0.2s0-0.2,0.2-0.3l0.1-0.1l0.1-0.1c0.1,0,0.1-0.1,0.2-0.1
		S180.4,69.4,180.5,69.4z"/>
	<path class="st1" fill="#FFFFFF" d="M42.1,74l2.8,0.1v1.1l-1.5-0.1l0.1,0.5h0.7l0.1,1h-0.7l0.1,1.5L42.4,78L42.1,74z"/>
	<path class="st1" fill="#FFFFFF" d="M45.1,74l1.5,0.1L46.5,78h-1.3L45.1,74z"/>
	<path class="st1" fill="#FFFFFF" d="M47.1,74l1.3,0.1l1,1.9l-0.2-1.8h1.2l0.1,3.5l-1.4,0.4l-1-2.1L48,77.9l-1.2-0.3L47.1,74L47.1,74z"/>
	<path class="st1" fill="#FFFFFF" d="M50.9,74.2C51.4,74,52,74,52.8,74c0.7,0.1,1.4,0.4,1.9,0.9c0.2,0.2,0.3,0.4,0.3,0.7c0,0.1,0,0.3,0,0.4
		s0,0.3-0.1,0.4c-0.1,0.3-0.2,0.5-0.4,0.7s-0.4,0.4-0.7,0.5c-0.4,0.2-0.8,0.3-1.3,0.4s-1,0.1-1.3,0L50.9,74.2z M52.6,76.4
		c0.1,0,0.2,0,0.3-0.1s0.2-0.1,0.3-0.2s0.2-0.2,0.2-0.3c0-0.1,0-0.2-0.1-0.3c-0.1-0.1-0.2-0.2-0.5-0.2c-0.2,0-0.4,0-0.5,0L52.6,76.4
		z"/>
	<path class="st2" fill="#935E35" d="M61.1,74l1.2,3.6L61,78.1l-0.3-0.8h-1l-0.2,0.8l-1.3-0.6l1.3-3.3L61.1,74z M60.7,76.5l-0.4-0.9l-0.4,0.9H60.7z
		"/>
	<path class="st2" fill="#935E35" d="M64.2,74l0.2,3.1l1.4-0.2v1l-2.6,0.2l-0.4-4L64.2,74z"/>
	<path class="st2" fill="#935E35" d="M67.6,74l0.2,3.1l1.4-0.2v1l-2.6,0.2l-0.4-4L67.6,74z"/>
	<path class="st2" fill="#935E35" d="M72.3,74.2L76,74l0.1,1.8l-1.4-0.1l0.4,2.3l-1.8-0.2l0.3-2.1h-1.3V74.2z"/>
	<path class="st2" fill="#935E35" d="M76.3,74.2l1.2-0.1v1.4h0.9v-1.4l1.4-0.1l-0.2,3.8l-1.2,0.1v-1.4h-0.9v1.4L76.4,78L76.3,74.2z"/>
	<path class="st2" fill="#935E35" d="M83,74v1.1h-1.5v0.4h0.8v0.7h-0.7v0.5l1.4-0.1V78l-2.7,0.1L80.1,74H83z"/>
	<path class="st2" fill="#935E35" d="M88.6,74.3v3H89l-0.1,0.9l-2.1-0.1v-0.8h0.5l0.1-2l-0.5,0.5l-0.6-0.7l1.2-1L88.6,74.3z"/>
	<path class="st2" fill="#935E35" d="M92.2,75.1l-1.6-0.2v0.5c0.2,0,0.5,0,0.8,0c0.3,0.1,0.6,0.2,0.8,0.3c0.2,0.2,0.4,0.4,0.4,0.6
		c0,0.3-0.1,0.6-0.4,0.9c-0.4,0.4-0.8,0.7-1.3,0.7c-0.5,0.1-1,0-1.5-0.3l-0.1-1.1c0.1,0.1,0.3,0.2,0.6,0.3c0.2,0.1,0.5,0.1,0.8,0.1
		s0.5,0,0.7-0.1s0.3-0.2,0.3-0.4c0-0.1-0.1-0.3-0.3-0.3c-0.1,0-0.2-0.1-0.3-0.1s-0.2,0-0.3-0.1c-0.1,0-0.2,0-0.3,0s-0.2,0-0.3,0
		s-0.2,0-0.3,0s-0.1,0-0.2,0.1l-0.4-2.2h3.2L92.2,75.1z"/>
	<path class="st2" fill="#935E35" d="M95.8,74.2l1.2-0.1v1.4h0.9v-1.4l1.4-0.1l-0.2,3.8l-1.2,0.1v-1.4H97v1.4L95.9,78L95.8,74.2z"/>
	<path class="st2" fill="#935E35" d="M99.6,74l1.5,0.1L101,78h-1.3L99.6,74z"/>
	<path class="st2" fill="#935E35" d="M101.4,74.2c0.5-0.2,1.1-0.2,1.9-0.2c0.7,0.1,1.4,0.4,1.9,0.9c0.2,0.2,0.3,0.4,0.3,0.7c0,0.1,0,0.3,0,0.4
		s0,0.3-0.1,0.4c-0.1,0.3-0.2,0.5-0.4,0.7s-0.4,0.4-0.7,0.5c-0.4,0.2-0.8,0.3-1.3,0.4s-1,0.1-1.3,0L101.4,74.2z M103.1,76.4
		c0.1,0,0.2,0,0.3-0.1s0.2-0.1,0.3-0.2s0.2-0.2,0.2-0.3c0-0.1,0-0.2-0.1-0.3c-0.1-0.1-0.2-0.2-0.5-0.2c-0.2,0-0.4,0-0.5,0
		L103.1,76.4z"/>
	<path class="st2" fill="#935E35" d="M105.9,74.2c0.5-0.2,1.1-0.2,1.9-0.2c0.7,0.1,1.4,0.4,1.9,0.9c0.2,0.2,0.3,0.4,0.3,0.7c0,0.1,0,0.3,0,0.4
		s0,0.3-0.1,0.4c-0.1,0.3-0.2,0.5-0.4,0.7s-0.4,0.4-0.7,0.5c-0.4,0.2-0.8,0.3-1.3,0.4s-1,0.1-1.3,0L105.9,74.2z M107.6,76.4
		c0.1,0,0.2,0,0.3-0.1s0.2-0.1,0.3-0.2s0.2-0.2,0.2-0.3c0-0.1,0-0.2-0.1-0.3c-0.1-0.1-0.2-0.2-0.5-0.2c-0.2,0-0.4,0-0.5,0
		L107.6,76.4z"/>
	<path class="st2" fill="#935E35" d="M113.2,74v1.1h-1.5v0.4h0.8v0.7h-0.7v0.5l1.4-0.1V78l-2.7,0.1l-0.2-4.1H113.2z"/>
	<path class="st2" fill="#935E35" d="M113.9,74l1.3,0.1l1,1.9l-0.2-1.8h1.2l0.1,3.5l-1.4,0.4l-1-2.1l-0.1,1.9l-1.2-0.3L113.9,74L113.9,74z"/>
	<path class="st2" fill="#935E35" d="M121.9,76.8l0.1,1.3l-1.2-0.1l-0.3-3.9c0.1,0,0.2,0,0.3,0s0.3,0,0.5,0c0.3,0,0.7,0.1,1,0.2s0.6,0.2,0.9,0.4
		c0.3,0.2,0.4,0.4,0.4,0.7c0,0.4-0.2,0.8-0.6,1.1C122.7,76.6,122.3,76.8,121.9,76.8L121.9,76.8z M121.7,76.1
		c0.2-0.1,0.4-0.1,0.5-0.3c0.1-0.1,0.2-0.3,0.2-0.4s0-0.2-0.2-0.3c-0.1-0.1-0.3-0.1-0.6-0.1L121.7,76.1z"/>
	<path class="st2" fill="#935E35" d="M125.4,74l0.2,3.1l1.4-0.2v1l-2.6,0.2l-0.4-4L125.4,74z"/>
	<path class="st2" fill="#935E35" d="M127.3,75.2l0.9-0.7l0.7,1l0.6-1.5l1.2,0.2l-2.1,3.9l-0.9-0.7l0.7-1.2L127.3,75.2z"/>
	<path class="st2" fill="#935E35" d="M132.6,74.1l0.4,1.8l0.4-1.3h0.7l0.3,1.2l0.4-1.6l1.6-0.1l-1.2,3.8l-1.1,0.1l-0.4-1.4l-0.4,1.4l-1.1-0.2
		l-1.2-3.9L132.6,74.1z"/>
	<path class="st2" fill="#935E35" d="M140.9,76.2c0,0.6-0.3,1.1-0.7,1.4s-0.9,0.5-1.4,0.5s-1-0.2-1.4-0.5s-0.6-0.8-0.6-1.4c0-0.3,0.1-0.6,0.2-0.9
		c0.2-0.3,0.3-0.5,0.6-0.7c0.2-0.2,0.5-0.3,0.8-0.5c0.3-0.1,0.6-0.2,0.8-0.1c0.1,0,0.3,0,0.5,0.1c0.2,0.1,0.4,0.2,0.6,0.4
		c0.2,0.2,0.3,0.4,0.5,0.7C140.9,75.5,140.9,75.8,140.9,76.2z M139.6,75.5c0-0.1,0-0.2-0.1-0.3l0,0l0,0l0,0l0,0
		c-0.1-0.1-0.2-0.1-0.3-0.1s-0.2,0-0.3,0c0,0-0.1,0-0.1,0.1c-0.1,0-0.1,0.1-0.1,0.1c-0.1,0.1-0.1,0.2-0.1,0.3s0,0.2,0.1,0.3l0,0l0,0
		l0,0l0,0c0.1,0.1,0.2,0.1,0.3,0.1C139.1,75.9,139.6,75.6,139.6,75.5z"/>
	<path class="st2" fill="#935E35" d="M145.4,76.2c0,0.6-0.3,1.1-0.7,1.4s-0.9,0.5-1.4,0.5s-1-0.2-1.4-0.5s-0.6-0.8-0.6-1.4c0-0.3,0.1-0.6,0.2-0.9
		c0.2-0.3,0.3-0.5,0.6-0.7c0.2-0.2,0.5-0.3,0.8-0.5c0.3-0.1,0.6-0.2,0.8-0.1c0.1,0,0.3,0,0.5,0.1s0.4,0.2,0.6,0.4
		c0.2,0.2,0.3,0.4,0.5,0.7C145.3,75.5,145.4,75.8,145.4,76.2z M144.1,75.5c0-0.1,0-0.2-0.1-0.3l0,0l0,0l0,0l0,0
		c-0.1-0.1-0.2-0.1-0.3-0.1s-0.2,0-0.3,0s-0.1,0-0.1,0.1c-0.1,0-0.1,0.1-0.1,0.1c-0.1,0.1-0.1,0.2-0.1,0.3s0,0.2,0.1,0.3l0,0l0,0
		l0,0l0,0c0.1,0.1,0.2,0.1,0.3,0.1C143.6,75.9,144.1,75.6,144.1,75.5z"/>
	<path class="st2" fill="#935E35" d="M145.7,74.2c0.5-0.2,1.1-0.2,1.9-0.2c0.7,0.1,1.4,0.4,1.9,0.9c0.2,0.2,0.3,0.4,0.3,0.7c0,0.1,0,0.3,0,0.4
		s0,0.3-0.1,0.4c-0.1,0.3-0.2,0.5-0.4,0.7s-0.4,0.4-0.7,0.5c-0.4,0.2-0.8,0.3-1.3,0.4s-1,0.1-1.3,0L145.7,74.2z M147.4,76.4
		c0.1,0,0.2,0,0.3-0.1c0.1-0.1,0.2-0.1,0.3-0.2c0.1-0.1,0.2-0.2,0.2-0.3c0-0.1,0-0.2-0.1-0.3c-0.1-0.1-0.2-0.2-0.5-0.2
		c-0.2,0-0.4,0-0.5,0L147.4,76.4z"/>
	<path class="st2" fill="#935E35" d="M154.5,76.8l0.1,1.3l-1.2-0.1l-0.3-3.9c0.1,0,0.2,0,0.3,0s0.3,0,0.5,0c0.3,0,0.7,0.1,1,0.2s0.6,0.2,0.9,0.4
		c0.3,0.2,0.4,0.4,0.4,0.7c0,0.4-0.2,0.8-0.6,1.1C155.3,76.6,154.9,76.8,154.5,76.8L154.5,76.8z M154.3,76.1
		c0.2-0.1,0.4-0.1,0.5-0.3c0.1-0.1,0.2-0.3,0.2-0.4s0-0.2-0.2-0.3c-0.1-0.1-0.3-0.1-0.6-0.1L154.3,76.1z"/>
	<path class="st2" fill="#935E35" d="M156.5,74l1.5,0.1l-0.1,3.9h-1.3L156.5,74z"/>
	<path class="st2" fill="#935E35" d="M161.1,74v1.1h-1.5v0.4h0.8v0.7h-0.7v0.5l1.4-0.1V78l-2.7,0.1l-0.2-4.1H161.1z"/>
	<path class="st2" fill="#935E35" d="M164.8,75.1c-0.7-0.1-1.2,0-1.5,0.2c-0.3,0.3-0.4,0.5-0.4,0.8s0.2,0.5,0.6,0.7s0.9,0.1,1.5-0.3l0.6,1.1
		c-0.3,0.2-0.7,0.3-1.2,0.4c-0.5,0-0.9,0-1.3-0.1s-0.8-0.3-1.1-0.6c-0.3-0.3-0.5-0.6-0.5-1c0-0.5,0.1-0.8,0.3-1.2
		c0.2-0.3,0.6-0.6,0.9-0.8c0.4-0.2,0.8-0.3,1.2-0.3s0.8,0.1,1.2,0.2L164.8,75.1z"/>
	<path class="st2" fill="#935E35" d="M168.8,74v1.1h-1.5v0.4h0.8v0.7h-0.7v0.5l1.4-0.1V78l-2.7,0.1l-0.2-4.1H168.8z"/>
	<path class="st2" fill="#935E35" d="M169.5,76.5c0.2,0.1,0.3,0.1,0.5,0.2c0.2,0,0.3,0.1,0.5,0.1c0.1,0,0.2,0,0.2-0.1c0,0,0-0.1-0.2-0.2
		s-0.3-0.2-0.5-0.4c-0.2-0.1-0.3-0.3-0.5-0.4c-0.3-0.3-0.4-0.6-0.3-1s0.3-0.6,0.6-0.7s0.6-0.1,1,0c0.3,0.1,0.7,0.2,1,0.4
		c0.3,0.2,0.5,0.3,0.7,0.5l-0.5,0.8c0,0-0.1-0.1-0.2-0.1s-0.1-0.1-0.2-0.1c-0.2-0.1-0.3-0.1-0.5-0.2c-0.1,0-0.2,0-0.2,0
		s0.1,0.2,0.3,0.4c0.3,0.3,0.6,0.4,0.8,0.6c0.2,0.1,0.3,0.3,0.4,0.7c0.1,0.3,0,0.5-0.3,0.7c-0.2,0.2-0.5,0.3-0.9,0.3
		c-0.4,0.1-0.7,0.1-1.1,0s-0.7-0.2-1-0.3L169.5,76.5z"/>
	<path class="st1" fill="#FFFFFF" d="M28.1,81.9l0.4,1.8l0.4-1.3h0.7l0.3,1.2l0.4-1.6l1.6-0.1l-1.2,3.8l-1.1,0.1l-0.4-1.4l-0.4,1.4l-1.1-0.2
		l-1.2-3.9L28.1,81.9z"/>
	<path class="st1" fill="#FFFFFF" d="M32.3,81.8l1.5,0.1l-0.1,3.9h-1.3L32.3,81.8z"/>
	<path class="st1" fill="#FFFFFF" d="M34,82l3.7-0.2l0.1,1.8l-1.4-0.1l0.4,2.3L35,85.6l0.3-2.1H34V82z"/>
	<path class="st1" fill="#FFFFFF" d="M38.1,81.9l1.2-0.1v1.4h0.9v-1.4l1.4-0.1l-0.2,3.8l-1.2,0.1v-1.4h-0.9v1.4l-1.1,0.1L38.1,81.9z"/>
	<path class="st1" fill="#FFFFFF" d="M48.1,82.9c-0.7-0.1-1.2,0-1.5,0.2c-0.3,0.3-0.4,0.5-0.4,0.8s0.2,0.5,0.6,0.7s0.9,0.1,1.5-0.3l0.6,1.1
		c-0.3,0.2-0.7,0.3-1.2,0.4c-0.5,0-0.9,0-1.3-0.1c-0.4-0.1-0.8-0.3-1.1-0.6s-0.5-0.6-0.5-1c0-0.5,0.1-0.8,0.3-1.2
		c0.2-0.3,0.6-0.6,0.9-0.8c0.4-0.2,0.8-0.3,1.2-0.3s0.8,0.1,1.2,0.2L48.1,82.9z"/>
	<path class="st1" fill="#FFFFFF" d="M49.2,81.9l1.2-0.1v1.4h0.9v-1.4l1.4-0.1l-0.2,3.8l-1.2,0.1v-1.4h-0.9v1.4l-1.1,0.1L49.2,81.9z"/>
	<path class="st1" fill="#FFFFFF" d="M54.5,85.7l-1.3-0.2L53,81.8c0.3,0,0.6-0.1,0.9,0c0.2,0,0.3,0,0.5,0s0.3,0,0.5,0.1c0.3,0.1,0.6,0.2,0.9,0.3
		c0.3,0.1,0.4,0.3,0.5,0.5s0.1,0.5-0.1,0.7c-0.2,0.2-0.4,0.4-0.6,0.6l1.5,0.9l-1.3,1l-1.2-1.6h-0.3L54.5,85.7z M54.4,83.4
		c0.2,0,0.4-0.1,0.5-0.2s0.2-0.2,0.2-0.3c0-0.1,0-0.2-0.2-0.3c-0.1-0.1-0.3-0.1-0.6-0.1L54.4,83.4z"/>
	<path class="st1" fill="#FFFFFF" d="M57.6,81.8l1.5,0.1L59,85.8h-1.3L57.6,81.8z"/>
	<path class="st1" fill="#FFFFFF" d="M59.6,84.2c0.2,0.1,0.3,0.1,0.5,0.2c0.2,0,0.3,0.1,0.5,0.1c0.1,0,0.2,0,0.2-0.1c0,0,0-0.1-0.2-0.2
		s-0.3-0.2-0.5-0.4c-0.2-0.1-0.3-0.3-0.5-0.4c-0.3-0.3-0.4-0.6-0.3-1c0.1-0.4,0.3-0.6,0.6-0.7s0.6-0.1,1,0s0.7,0.2,1,0.4
		c0.3,0.2,0.5,0.3,0.7,0.5l-0.5,0.8c0,0-0.1-0.1-0.2-0.1c-0.1,0-0.1-0.1-0.2-0.1c-0.2-0.1-0.3-0.1-0.5-0.2c-0.1,0-0.2,0-0.2,0
		s0.1,0.2,0.3,0.4c0.3,0.3,0.6,0.4,0.8,0.6c0.2,0.1,0.3,0.3,0.4,0.7c0.1,0.3,0,0.5-0.3,0.7c-0.2,0.2-0.5,0.3-0.9,0.3
		c-0.4,0.1-0.7,0.1-1.1,0c-0.4-0.1-0.7-0.2-1-0.3L59.6,84.2z"/>
	<path class="st1" fill="#FFFFFF" d="M62.9,82l3.7-0.2l0.1,1.8l-1.4-0.1l0.4,2.3l-1.8-0.2l0.3-2.1h-1.3V82z"/>
	<path class="st1" fill="#FFFFFF" d="M68.7,82.2l0.6,1.6l0.4-1.7l1.3-0.3l0.7,3.6l-1.2,0.4l-0.2-2.3l-0.6,2.1H69l-0.7-2l-0.1,2.1l-1.3-0.2l0.4-3.7
		L68.7,82.2z"/>
	<path class="st1" fill="#FFFFFF" d="M75,81.8l1.2,3.6l-1.3,0.5l-0.3-0.8h-1l-0.2,0.8l-1.3-0.6l1.3-3.3L75,81.8z M74.6,84.2l-0.4-0.9l-0.4,0.9H74.6
		z"/>
	<path class="st1" fill="#FFFFFF" d="M77,84.2c0.2,0.1,0.3,0.1,0.5,0.2c0.2,0,0.3,0.1,0.5,0.1c0.1,0,0.2,0,0.2-0.1c0,0,0-0.1-0.2-0.2
		s-0.3-0.2-0.5-0.4c-0.2-0.1-0.3-0.3-0.5-0.4c-0.3-0.3-0.4-0.6-0.3-1c0.1-0.4,0.3-0.6,0.6-0.7s0.6-0.1,1,0s0.7,0.2,1,0.4
		s0.5,0.3,0.7,0.5l-0.5,0.8c0,0-0.1-0.1-0.2-0.1s-0.1-0.1-0.2-0.1c-0.2-0.1-0.3-0.1-0.5-0.2c-0.1,0-0.2,0-0.2,0s0.1,0.2,0.3,0.4
		c0.3,0.3,0.6,0.4,0.8,0.6c0.2,0.1,0.3,0.3,0.4,0.7c0.1,0.3,0,0.5-0.3,0.7c-0.2,0.2-0.5,0.3-0.9,0.3c-0.4,0.1-0.7,0.1-1.1,0
		c-0.4-0.1-0.7-0.2-1-0.3L77,84.2z"/>
	<path class="st1" fill="#FFFFFF" d="M86,81.8l1.2,3.6l-1.3,0.5l-0.3-0.8h-1l-0.2,0.8l-1.3-0.6l1.3-3.3L86,81.8z M85.6,84.2l-0.4-0.9l-0.4,0.9H85.6
		z"/>
	<path class="st1" fill="#FFFFFF" d="M87.6,82c0.5-0.2,1.1-0.2,1.9-0.2c0.7,0.1,1.4,0.4,1.9,0.9c0.2,0.2,0.3,0.4,0.3,0.7c0,0.1,0,0.3,0,0.4
		s0,0.3-0.1,0.4c-0.1,0.3-0.2,0.5-0.4,0.7s-0.4,0.4-0.7,0.5c-0.4,0.2-0.8,0.3-1.3,0.4s-1,0.1-1.3,0L87.6,82z M89.3,84.2
		c0.1,0,0.2,0,0.3-0.1s0.2-0.1,0.3-0.2s0.2-0.2,0.2-0.3c0-0.1,0-0.2-0.1-0.3c-0.1-0.1-0.2-0.2-0.5-0.2c-0.2,0-0.4,0-0.5,0L89.3,84.2
		z"/>
	<path class="st1" fill="#FFFFFF" d="M93.7,81.9l0.3,2.2l0.6-1.7l1.3,0.2l-1.4,3.3l-1.6-0.1L92,81.9H93.7z"/>
	<path class="st1" fill="#FFFFFF" d="M96.2,81.8l1.5,0.1l-0.1,3.9h-1.3L96.2,81.8z"/>
	<path class="st1" fill="#FFFFFF" d="M101.3,82.9c-0.7-0.1-1.2,0-1.5,0.2c-0.3,0.3-0.4,0.5-0.4,0.8s0.2,0.5,0.6,0.7c0.4,0.2,0.9,0.1,1.5-0.3
		l0.6,1.1c-0.3,0.2-0.7,0.3-1.2,0.4c-0.5,0-0.9,0-1.3-0.1c-0.4-0.1-0.8-0.3-1.1-0.6s-0.5-0.6-0.5-1c0-0.5,0.1-0.8,0.3-1.2
		c0.2-0.3,0.6-0.6,0.9-0.8c0.4-0.2,0.8-0.3,1.2-0.3s0.8,0.1,1.2,0.2L101.3,82.9z"/>
	<path class="st1" fill="#FFFFFF" d="M105.2,81.8v1.1h-1.5v0.4h0.8V84h-0.7v0.5l1.4-0.1v1.4l-2.7,0.1l-0.2-4.1H105.2z"/>
	<path class="st1" fill="#FFFFFF" d="M106,84.2c0.2,0.1,0.3,0.1,0.5,0.2s0.3,0.1,0.5,0.1c0.1,0,0.2,0,0.2-0.1c0,0,0-0.1-0.2-0.2s-0.3-0.2-0.5-0.4
		c-0.2-0.1-0.3-0.3-0.5-0.4c-0.3-0.3-0.4-0.6-0.3-1c0.1-0.4,0.3-0.6,0.6-0.7s0.6-0.1,1,0s0.7,0.2,1,0.4s0.5,0.3,0.7,0.5l-0.5,0.8
		c0,0-0.1-0.1-0.2-0.1s-0.1-0.1-0.2-0.1c-0.2-0.1-0.3-0.1-0.5-0.2c-0.1,0-0.2,0-0.2,0s0.1,0.2,0.3,0.4c0.3,0.3,0.6,0.4,0.8,0.6
		c0.2,0.1,0.3,0.3,0.4,0.7c0.1,0.3,0,0.5-0.3,0.7c-0.2,0.2-0.5,0.3-0.9,0.3c-0.3,0.1-0.7,0.1-1.1,0c-0.4-0.1-0.7-0.2-1-0.3L106,84.2
		z"/>
	<path class="st1" fill="#FFFFFF" d="M115,81.8l1.2,3.6l-1.3,0.5l-0.3-0.8h-1l-0.2,0.8l-1.3-0.6l1.3-3.3L115,81.8z M114.6,84.2l-0.4-0.9l-0.4,0.9
		H114.6z"/>
	<path class="st1" fill="#FFFFFF" d="M116.9,81.8l1.3,0.1l1,1.9L119,82h1.2l0.1,3.5l-1.4,0.4l-1-2.1l-0.1,1.9l-1.2-0.3L116.9,81.8L116.9,81.8z"/>
	<path class="st1" fill="#FFFFFF" d="M120.6,82c0.5-0.2,1.1-0.2,1.9-0.2c0.7,0.1,1.4,0.4,1.9,0.9c0.2,0.2,0.3,0.4,0.3,0.7c0,0.1,0,0.3,0,0.4
		s0,0.3-0.1,0.4c-0.1,0.3-0.2,0.5-0.4,0.7s-0.4,0.4-0.7,0.5c-0.4,0.2-0.8,0.3-1.3,0.4s-1,0.1-1.3,0L120.6,82z M122.4,84.2
		c0.1,0,0.2,0,0.3-0.1s0.2-0.1,0.3-0.2s0.2-0.2,0.2-0.3c0-0.1,0-0.2-0.1-0.3c-0.1-0.1-0.2-0.2-0.5-0.2c-0.2,0-0.4,0-0.5,0
		L122.4,84.2z"/>
	<path class="st1" fill="#FFFFFF" d="M128,82.9l0.9-0.7l0.7,1l0.6-1.5l1.2,0.2l-2.1,3.9l-0.9-0.7l0.7-1.2L128,82.9z"/>
	<path class="st1" fill="#FFFFFF" d="M135.9,84c0,0.6-0.3,1.1-0.7,1.4s-0.9,0.5-1.4,0.5s-1-0.2-1.4-0.5s-0.6-0.8-0.6-1.4c0-0.3,0.1-0.6,0.2-0.9
		c0.2-0.3,0.3-0.5,0.6-0.7c0.2-0.2,0.5-0.3,0.8-0.5c0.3-0.1,0.6-0.2,0.8-0.1c0.1,0,0.3,0,0.5,0.1c0.2,0.1,0.4,0.2,0.6,0.4
		c0.2,0.2,0.3,0.4,0.5,0.7C135.9,83.2,135.9,83.6,135.9,84z M134.6,83.2c0-0.1,0-0.2-0.1-0.3l0,0l0,0l0,0l0,0
		c-0.1-0.1-0.2-0.1-0.3-0.1s-0.2,0-0.3,0c0,0-0.1,0-0.1,0.1c-0.1,0-0.1,0.1-0.1,0.1c-0.1,0.1-0.1,0.2-0.1,0.3c0,0.1,0,0.2,0.1,0.3
		l0,0l0,0l0,0l0,0c0.1,0.1,0.2,0.1,0.3,0.1C134.1,83.7,134.6,83.3,134.6,83.2z"/>
	<path class="st1" fill="#FFFFFF" d="M138.1,82.2c0,0,0,0.1-0.1,0.2c0,0.1-0.1,0.2-0.1,0.3c-0.1,0.2-0.1,0.5-0.1,0.7s0,0.5,0.1,0.6
		c0.1,0.2,0.3,0.3,0.5,0.3c0.2,0,0.3-0.1,0.4-0.2c0.1-0.1,0.1-0.3,0.1-0.5s0-0.4,0-0.6l-0.1-0.5l1.1-0.2c0,0.1,0.1,0.3,0.1,0.4
		s0.1,0.3,0.1,0.5c0.1,0.4,0.1,0.8,0.1,1.2c-0.1,0.4-0.2,0.7-0.5,0.9c-0.3,0.3-0.8,0.4-1.5,0.4c-0.7,0-1.2-0.2-1.5-0.5
		c-0.3-0.3-0.5-0.7-0.5-1.1c0-0.2,0-0.4,0-0.7c0-0.3,0-0.4,0.1-0.7c0.1-0.5,0.2-0.8,0.3-1.1L138.1,82.2z"/>
	<path class="st1" fill="#FFFFFF" d="M142.2,80.2l-1.2,1.7l-0.3-0.2L141,80L142.2,80.2z"/>
	<path class="st1" fill="#FFFFFF" d="M144,81.8l0.2,3.1l1.4-0.2v1l-2.6,0.2l-0.4-4L144,81.8z"/>
	<path class="st1" fill="#FFFFFF" d="M147.4,81.8l0.2,3.1l1.4-0.2v1l-2.6,0.2l-0.4-4L147.4,81.8z"/>
	<path class="st1" fill="#FFFFFF" d="M155,83c-0.2-0.1-0.3-0.1-0.6-0.2c-0.2,0-0.4,0-0.6,0.1s-0.3,0.2-0.4,0.4c-0.1,0.2-0.2,0.4-0.1,0.6
		c0,0.2,0.1,0.4,0.2,0.6c0.1,0.1,0.3,0.2,0.5,0.3c0.2,0,0.3,0,0.5-0.1s0.3-0.3,0.4-0.5h-0.5l0.1-0.6h1.3c0,0.2,0.1,0.3,0.1,0.5
		s0,0.4-0.1,0.5c-0.1,0.4-0.3,0.7-0.7,0.9c-0.3,0.2-0.7,0.3-1,0.3c-0.2,0-0.4,0-0.5-0.1c-0.2,0-0.3-0.1-0.5-0.2
		c-0.3-0.2-0.6-0.6-0.7-1c-0.2-0.4-0.2-0.9,0-1.3c0.1-0.2,0.2-0.4,0.3-0.6c0.1-0.2,0.3-0.3,0.4-0.4c0.3-0.3,0.7-0.4,1.1-0.4
		s0.8,0.1,1.2,0.4L155,83z"/>
	<path class="st1" fill="#FFFFFF" d="M158.9,81.8v1.1h-1.5v0.4h0.8V84h-0.7v0.5l1.4-0.1v1.4l-2.7,0.1l-0.2-4.1H158.9z"/>
	<path class="st1" fill="#FFFFFF" d="M159.3,82l3.7-0.2l0.1,1.8l-1.4-0.1l0.4,2.3l-1.8-0.2l0.3-2.1h-1.3L159.3,82L159.3,82z"/>
	<path class="st1" fill="#FFFFFF" d="M169.1,81.8l1.2,3.6l-1.3,0.5l-0.3-0.8h-1l-0.2,0.8l-1.3-0.6l1.3-3.3L169.1,81.8z M168.6,84.2l-0.4-0.9
		l-0.4,0.9H168.6z"/>
	<path class="st1" fill="#FFFFFF" d="M176.4,83c-0.2-0.1-0.3-0.1-0.6-0.2c-0.2,0-0.4,0-0.6,0.1s-0.3,0.2-0.4,0.4c-0.1,0.2-0.2,0.4-0.1,0.6
		c0,0.2,0.1,0.4,0.2,0.6c0.1,0.1,0.3,0.2,0.5,0.3c0.2,0,0.3,0,0.5-0.1s0.3-0.3,0.4-0.5h-0.5l0.1-0.6h1.3c0,0.2,0.1,0.3,0.1,0.5
		s0,0.4-0.1,0.5c-0.1,0.4-0.3,0.7-0.7,0.9c-0.3,0.2-0.7,0.3-1,0.3c-0.2,0-0.4,0-0.5-0.1c-0.2,0-0.3-0.1-0.5-0.2
		c-0.3-0.2-0.6-0.6-0.7-1c-0.2-0.4-0.2-0.9,0-1.3c0.1-0.2,0.2-0.4,0.3-0.6c0.1-0.2,0.3-0.3,0.4-0.4c0.3-0.3,0.7-0.4,1.1-0.4
		s0.8,0.1,1.2,0.4L176.4,83z"/>
	<path class="st1" fill="#FFFFFF" d="M177.5,81.8l1.5,0.1l-0.1,3.9h-1.3L177.5,81.8z"/>
	<path class="st1" fill="#FFFFFF" d="M179.2,81.8l2.8,0.1V83l-1.5-0.1l0.1,0.5h0.7l0.1,1h-0.7l0.1,1.5l-1.3-0.1L179.2,81.8z"/>
	<path class="st1" fill="#FFFFFF" d="M182.2,82l3.7-0.2l0.1,1.8l-1.4-0.1l0.4,2.3l-1.8-0.2l0.3-2.1h-1.3L182.2,82L182.2,82z"/>
	<path class="st1" fill="#FFFFFF" d="M188,80.5l-0.4,4l-1,0.1l-0.2-3.5L188,80.5z M187.1,84.8c0.2,0,0.3,0,0.5,0.1c0.1,0.1,0.2,0.2,0.2,0.3
		s-0.1,0.3-0.2,0.4s-0.3,0.2-0.5,0.2s-0.4,0-0.5-0.1s-0.2-0.2-0.2-0.3c0-0.1,0.1-0.2,0.2-0.3C186.8,84.9,187,84.8,187.1,84.8z"/>
</g>
</svg>
