<svg id="4674b1de-2a1b-4e18-9371-80e60a20fd2e" data-name="кнопка норм" xmlns="http://www.w3.org/2000/svg" viewBox="0 0 214.9 135.69998"><title>фыв</title><path d="M320.5,527.1H122.8a8.59947,8.59947,0,0,1-8.6-8.6V400a8.59947,8.59947,0,0,1,8.6-8.6H320.5a8.59947,8.59947,0,0,1,8.6,8.6V518.5A8.53635,8.53635,0,0,1,320.5,527.1Z" transform="translate(-114.2 -391.39999)" style="fill:#95bb2c"/><path d="M166.2,394.8H124a6.01765,6.01765,0,0,0-6,6v7.8a6.01765,6.01765,0,0,0,6,6h42.1a6.01765,6.01765,0,0,0,6-6v-7.8a5.87,5.87,0,0,0-5.9-6" transform="translate(-114.2 -391.39999)" style="fill:#95bb2c"/><path d="M162,408.7h-3.2v-1.6a1.98969,1.98969,0,0,1,.7-1.6,2.19324,2.19324,0,0,1,1.7-.7,2.342,2.342,0,0,1,1.7.7,1.98969,1.98969,0,0,1,.7,1.6v3.7h-1.3V407a1.13547,1.13547,0,0,0-.3-.8.90775.90775,0,0,0-.7-.3,1.03236,1.03236,0,0,0-1.1,1.1v.6H162l0,1.1" transform="translate(-114.2 -391.39999)" style="fill:#fff"/><path d="M154.2,407.1v1.1H152a1.42147,1.42147,0,0,0-.6.2,1.07217,1.07217,0,0,0-.2.6,1.42152,1.42152,0,0,0,.2.6c.2.2.3.2.6.2h2.1v1.1h-2.3a2.16777,2.16777,0,0,1-1.4-.5,1.88894,1.88894,0,0,1-.7-1.3,1.613,1.613,0,0,1,.3-.9,1.15732,1.15732,0,0,1,.7-.5.82153.82153,0,0,1-.5-.5,1.88392,1.88392,0,0,1-.2-.8,1.38852,1.38852,0,0,1,.5-1,1.50389,1.50389,0,0,1,1.1-.4h2.5v1.1H152c-.2,0-.3.1-.4.1-.1.1-.1.2-.1.4s0,.3.1.4a.51949.51949,0,0,0,.4.2h2.2" transform="translate(-114.2 -391.39999)" style="fill:#fff"/><path d="M140.9,404.9a1.42138,1.42138,0,0,0-.2.6,1.60588,1.60588,0,0,0,.5,1.1,2.70058,2.70058,0,0,0,1.1.5h.1a1.42133,1.42133,0,0,1,.6.2.60468.60468,0,0,1,.3.6h0a.60472.60472,0,0,1-.3.6.84536.84536,0,0,1-.6.2h-1.9v1.1H143a1.65605,1.65605,0,0,0,1.2-.5,2.07753,2.07753,0,0,0,.5-1.2v-.2a1.65606,1.65606,0,0,0-.5-1.2,1.346,1.346,0,0,0-1.2-.5h-.1a.76382.76382,0,0,1-.5-.2.84532.84532,0,0,1-.2-.6v-.2a.30973.30973,0,0,1,.1-.2l-1.4-.1" transform="translate(-114.2 -391.39999)" style="fill:#fff"/><path d="M145.9,406l1.1,1.9.4.8a.71279.71279,0,0,0,.6-.3,1.1355,1.1355,0,0,0,.3-.8V406h-1.8v-1.1h3.2v2.5a1.98969,1.98969,0,0,1-.7,1.6,2.19324,2.19324,0,0,1-1.7.7h-.8l-1.1-1.9-1.1-1.9,1.6.1" transform="translate(-114.2 -391.39999)" style="fill:#fff"/><polygon points="40.3 13.5 40.3 14.6 42.7 14.6 40.2 17.3 40.2 18.3 44.3 18.3 44.3 17.2 41.7 17.2 44.2 14.5 44.2 13.5 40.3 13.5" style="fill:#fff"/><path d="M132,409.3c-3.3-.2-5.5-2.6-4.8-5.8a7.05028,7.05028,0,0,1,6.6-5.4h-7.3v11.8h11.8v-3.7a6.925,6.925,0,0,1-6.3,3.1" transform="translate(-114.2 -391.39999)" style="fill:#fff"/><path d="M135.4,398.1a2.8,2.8,0,1,0,2.8,2.8,2.86161,2.86161,0,0,0-2.8-2.8" transform="translate(-114.2 -391.39999)" style="fill:#fff"/><path d="M138.5,433.8a4.50784,4.50784,0,0,0-3.6.5,2.31921,2.31921,0,0,0-1,2,2.04968,2.04968,0,0,0,1.4,1.6c.9.4,2.1.2,3.7-.6l1.3,2.6a5.11747,5.11747,0,0,1-2.8.8,8.5227,8.5227,0,0,1-3.2-.3,7.22187,7.22187,0,0,1-2.6-1.4,3.94744,3.94744,0,0,1-1.2-2.5,4.40658,4.40658,0,0,1,.8-2.8,6.73577,6.73577,0,0,1,2.2-1.9,6.88551,6.88551,0,0,1,2.9-.7,5.45661,5.45661,0,0,1,2.8.6Z" transform="translate(-114.2 -391.39999)" style="fill:#fff"/><path d="M141.2,431.6l2.9-.2v3.3h2.2v-3.2l3.4-.2-.4,9.1-2.9.3v-3.4h-2.2v3.4l-2.5.3Z" transform="translate(-114.2 -391.39999)" style="fill:#fff"/><path d="M153.8,440.6l-3-.4-.5-8.9a13.42182,13.42182,0,0,1,2.1-.1,4.86821,4.86821,0,0,1,1.2.1,5.01881,5.01881,0,0,1,1.2.2,10.32975,10.32975,0,0,1,2.1.7,2.60544,2.60544,0,0,1,1.2,1.1,1.74946,1.74946,0,0,1-.2,1.7,4.6725,4.6725,0,0,1-1.4,1.4l3.5,2.2-3,2.3-2.8-3.7h-.6Zm-.3-5.5a2.54147,2.54147,0,0,0,1.3-.5,2.097,2.097,0,0,0,.6-.8.755.755,0,0,0-.4-.7,3.94044,3.94044,0,0,0-1.5-.4Z" transform="translate(-114.2 -391.39999)" style="fill:#fff"/><path d="M160.9,431.2l3.6.2-.2,9.3-3.2.1Z" transform="translate(-114.2 -391.39999)" style="fill:#fff"/><path d="M165.9,437.1a4.95087,4.95087,0,0,0,1.3.4,6.52839,6.52839,0,0,0,1.1.2c.3,0,.5,0,.6-.1s-.1-.3-.4-.5a10.47487,10.47487,0,0,1-1.1-.8,10.62647,10.62647,0,0,0-1.1-.9,2.32823,2.32823,0,0,1-.8-2.3c.2-.9.6-1.5,1.3-1.6a4.53694,4.53694,0,0,1,2.3.1,12.23447,12.23447,0,0,1,2.4,1,6.09112,6.09112,0,0,1,1.6,1.1l-1.2,1.8a1.38014,1.38014,0,0,0-.4-.3,3.328,3.328,0,0,0-.6-.3,7.59485,7.59485,0,0,0-1.1-.4q-.45-.15-.6,0c-.1.1.2.4.8.9a17.60647,17.60647,0,0,0,1.8,1.3,2.2263,2.2263,0,0,1,.8,1.6,1.75067,1.75067,0,0,1-.6,1.7,4.03072,4.03072,0,0,1-2.1.8,11.29485,11.29485,0,0,1-2.6,0,5.23144,5.23144,0,0,1-2.3-.8Z" transform="translate(-114.2 -391.39999)" style="fill:#fff"/><path d="M173.8,431.7l8.7-.5.2,4.4-3.3-.2,1,5.5-4.3-.5.7-4.9-3.1.1Z" transform="translate(-114.2 -391.39999)" style="fill:#fff"/><path d="M187.5,432.1,189,436l1-4,3.1-.7,1.7,8.6-3,1-.5-5.4-1.4,5.1h-1.6l-1.7-4.7-.2,4.9-3.1-.5.9-8.8Z" transform="translate(-114.2 -391.39999)" style="fill:#fff"/><path d="M202.5,431.2l3,8.6-3.1,1.1-.6-1.9h-2.4l-.6,1.9-3.1-1.4,3.1-7.9Zm-1,5.8-.9-2.2-.9,2.2Z" transform="translate(-114.2 -391.39999)" style="fill:#fff"/><path d="M207.2,437.1a4.95068,4.95068,0,0,0,1.3.4,6.5283,6.5283,0,0,0,1.1.2c.3,0,.5,0,.6-.1s-.1-.3-.4-.5a10.47592,10.47592,0,0,1-1.1-.8,10.6263,10.6263,0,0,0-1.1-.9,2.32824,2.32824,0,0,1-.8-2.3c.2-.9.6-1.5,1.3-1.6a4.5369,4.5369,0,0,1,2.3.1,12.23422,12.23422,0,0,1,2.4,1,6.09077,6.09077,0,0,1,1.6,1.1l-1.2,1.8a1.37986,1.37986,0,0,0-.4-.3,3.32764,3.32764,0,0,0-.6-.3,7.5952,7.5952,0,0,0-1.1-.4q-.45-.15-.6,0c-.1.1.2.4.8.9a17.60744,17.60744,0,0,0,1.8,1.3,2.22633,2.22633,0,0,1,.8,1.6,1.75065,1.75065,0,0,1-.6,1.7,4.03069,4.03069,0,0,1-2.1.8,11.29494,11.29494,0,0,1-2.6,0,5.2314,5.2314,0,0,1-2.3-.8Z" transform="translate(-114.2 -391.39999)" style="fill:#fff"/><path d="M228.6,431.2l.1,2.7-3.5-.1v1l1.8-.1v1.7h-1.6v1.2l3.4-.2v3.3l-6.5.2-.5-9.7Z" transform="translate(-114.2 -391.39999)" style="fill:#fff"/><path d="M233.3,431.5l.7,5.2,1.5-4.1,3.2.4-3.4,7.9-3.7-.3-2-9.3Z" transform="translate(-114.2 -391.39999)" style="fill:#fff"/><path d="M246.1,431.2l.1,2.7-3.5-.1v1l1.8-.1v1.7h-1.6v1.2l3.4-.2v3.3l-6.5.2-.5-9.7Z" transform="translate(-114.2 -391.39999)" style="fill:#fff"/><path d="M253.8,431.2l3.6.2-.2,9.3-3.2.1Z" transform="translate(-114.2 -391.39999)" style="fill:#fff"/><path d="M258.8,437.1a4.9506,4.9506,0,0,0,1.3.4,6.528,6.528,0,0,0,1.1.2c.3,0,.5,0,.6-.1s-.1-.3-.4-.5a10.47783,10.47783,0,0,1-1.1-.8,10.62966,10.62966,0,0,0-1.1-.9,2.32817,2.32817,0,0,1-.8-2.3c.2-.9.6-1.5,1.3-1.6a4.53685,4.53685,0,0,1,2.3.1,12.23447,12.23447,0,0,1,2.4,1,6.09147,6.09147,0,0,1,1.6,1.1l-1.2,1.8a1.38021,1.38021,0,0,0-.4-.3,3.3275,3.3275,0,0,0-.6-.3,7.59485,7.59485,0,0,0-1.1-.4q-.45-.15-.6,0c-.1.1.2.4.8.9a17.60775,17.60775,0,0,0,1.8,1.3,2.22621,2.22621,0,0,1,.8,1.6,1.75067,1.75067,0,0,1-.6,1.7,4.03075,4.03075,0,0,1-2.1.8,11.29494,11.29494,0,0,1-2.6,0,5.23126,5.23126,0,0,1-2.3-.8Z" transform="translate(-114.2 -391.39999)" style="fill:#fff"/><path d="M273.4,431.6l2.9-.2v3.3h2.2v-3.2l3.4-.2-.4,9.1-2.9.3v-3.4h-2.2v3.4l-2.5.3Z" transform="translate(-114.2 -391.39999)" style="fill:#fff"/><path d="M289.4,431.2l.1,2.7-3.5-.1v1l1.8-.1v1.7h-1.6v1.2l3.4-.2v3.3l-6.5.2-.5-9.7Z" transform="translate(-114.2 -391.39999)" style="fill:#fff"/><path d="M293.7,440.6l-3-.4-.5-8.9a13.42169,13.42169,0,0,1,2.1-.1,4.86837,4.86837,0,0,1,1.2.1,5.01922,5.01922,0,0,1,1.2.2,10.33017,10.33017,0,0,1,2.1.7,2.60557,2.60557,0,0,1,1.2,1.1,1.74933,1.74933,0,0,1-.2,1.7,4.67242,4.67242,0,0,1-1.4,1.4l3.5,2.2-3,2.3-2.8-3.7h-.6Zm-.3-5.5a2.5414,2.5414,0,0,0,1.3-.5,2.09716,2.09716,0,0,0,.6-.8.755.755,0,0,0-.4-.7,3.9401,3.9401,0,0,0-1.5-.4Z" transform="translate(-114.2 -391.39999)" style="fill:#fff"/><path d="M307.7,431.2l.1,2.7-3.5-.1v1l1.8-.1v1.7h-1.6v1.2l3.4-.2v3.3l-6.5.2-.5-9.7Z" transform="translate(-114.2 -391.39999)" style="fill:#fff"/><path d="M312.7,428.1l-1,9.5-2.4.2-.4-8.2Zm-2.1,10.4a1.978,1.978,0,0,1,1.1.2.89.89,0,0,1,0,1.6,2.09685,2.09685,0,0,1-1.1.4,2.34477,2.34477,0,0,1-1.2-.2.89072.89072,0,0,1-.5-.8,1.01978,1.01978,0,0,1,.5-.8A2.45031,2.45031,0,0,1,310.6,438.5Z" transform="translate(-114.2 -391.39999)" style="fill:#fff"/><path d="M147.8,461.6l-1.3-.2-.2-3.7a2.71875,2.71875,0,0,1,.9,0h.5a.90145.90145,0,0,1,.5.1l.9.3a.82144.82144,0,0,1,.5.5.61592.61592,0,0,1-.1.7l-.6.6,1.5.9-1.3,1-1.2-1.6h-.3Zm-.1-2.3a.7639.7639,0,0,0,.5-.2c.1-.1.2-.2.2-.3s0-.2-.2-.3c-.1-.1-.3-.1-.6-.1Z" transform="translate(-114.2 -391.39999)" style="fill:#fff"/><path d="M153.7,457.7v1.1h-1.5v.4h.8v.7h-.7v.5l1.4-.1v1.4l-2.7.1-.2-4.1Z" transform="translate(-114.2 -391.39999)" style="fill:#fff"/><path d="M156.9,457.7l1.2,3.6-1.3.5-.3-.8h-1l-.2.8-1.3-.6,1.3-3.3Zm-.4,2.4-.4-.9-.4.9Z" transform="translate(-114.2 -391.39999)" style="fill:#fff"/><path d="M158.5,457.9a5.26412,5.26412,0,0,1,1.9-.2,3.37908,3.37908,0,0,1,1.9.9.90787.90787,0,0,1,.3.7v.4a.60118.60118,0,0,1-.1.4,1.612,1.612,0,0,1-.4.7,1.79363,1.79363,0,0,1-.7.5,4.9503,4.9503,0,0,1-1.3.4,2.81739,2.81739,0,0,1-1.3,0Zm1.7,2.2a.36735.36735,0,0,0,.3-.1c.1-.1.2-.1.3-.2s.2-.2.2-.3a.36729.36729,0,0,0-.1-.3.58762.58762,0,0,0-.5-.2h-.5Z" transform="translate(-114.2 -391.39999)" style="fill:#fff"/><path d="M163,458.8l.9-.7.7,1,.6-1.5,1.2.2-2.1,3.9-.9-.7.7-1.2Z" transform="translate(-114.2 -391.39999)" style="fill:#fff"/><path d="M169.7,457.9l3.7-.2.1,1.8-1.4-.1.4,2.3-1.8-.2.3-2.1h-1.3Z" transform="translate(-114.2 -391.39999)" style="fill:#fff"/><path d="M177.8,459.9a1.74961,1.74961,0,0,1-.7,1.4,2.21,2.21,0,0,1-2.8,0,1.678,1.678,0,0,1-.6-1.4,2.92015,2.92015,0,0,1,.2-.9,2.03581,2.03581,0,0,1,.6-.7,5.58152,5.58152,0,0,1,.8-.5,1.18479,1.18479,0,0,1,.8-.1,1.08718,1.08718,0,0,1,.5.1,2.09252,2.09252,0,0,1,.6.4,1.79394,1.79394,0,0,1,.5.7A2.78759,2.78759,0,0,1,177.8,459.9Zm-1.5-.5h0c.2-.1.2-.2.2-.3a.36728.36728,0,0,0-.1-.3h0a.36733.36733,0,0,0-.3-.1h-.3a497607041024.15137,497607041024.15137,0,0,1-.2.2.49993.49993,0,0,0,0,.6h0a.36733.36733,0,0,0,.3.1.75807.75807,0,0,0,.4-.2Z" transform="translate(-114.2 -391.39999)" style="fill:#fff"/><path d="M181,457.8l1.2-.1v1.4h.9v-1.4l1.4-.1-.2,3.8-1.2.1v-1.4h-.9v1.4l-1.1.1Z" transform="translate(-114.2 -391.39999)" style="fill:#fff"/><path d="M187.8,457.7l1.2,3.6-1.3.5-.3-.8h-1l-.2.8-1.3-.6,1.3-3.3Zm-.5,2.4-.4-.9-.4.9Z" transform="translate(-114.2 -391.39999)" style="fill:#fff"/><path d="M190.9,457.8l.3,2.2.6-1.7,1.3.2-1.4,3.3-1.6-.1-.9-3.9Z" transform="translate(-114.2 -391.39999)" style="fill:#fff"/><path d="M196.3,457.7v1.1h-1.5v.4h.8v.7H195v.5l1.4-.1v1.4l-2.7.1-.2-4.1Z" transform="translate(-114.2 -391.39999)" style="fill:#fff"/><path d="M202.5,457.7l1.2,3.6-1.3.5-.3-.8h-1l-.2.8-1.3-.6,1.3-3.3Zm-.5,2.4-.4-.9-.4.9Z" transform="translate(-114.2 -391.39999)" style="fill:#fff"/><path d="M204.4,457.7l1.3.1,1,1.9-.2-1.8h1.2l.1,3.5-1.4.4-1-2.1-.1,1.9-1.2-.3.3-3.6Z" transform="translate(-114.2 -391.39999)" style="fill:#fff"/><path d="M212.8,458.1a.30974.30974,0,0,1-.1.2c0,.1-.1.2-.1.3a1.70167,1.70167,0,0,0-.1.7c0,.2,0,.5.1.6a.5499.5499,0,0,0,.5.3.51947.51947,0,0,0,.4-.2.7493.7493,0,0,0,.1-.5v-.6l-.1-.5,1.1-.2c0,.1.1.3.1.4a4.33015,4.33015,0,0,1,.1.5,4.86809,4.86809,0,0,1,.1,1.2,1.34635,1.34635,0,0,1-.5.9,2.72883,2.72883,0,0,1-3-.1,1.60586,1.60586,0,0,1-.5-1.1v-.7a1.70165,1.70165,0,0,1,.1-.7,8.1117,8.1117,0,0,1,.3-1.1Z" transform="translate(-114.2 -391.39999)" style="fill:#fff"/><path d="M215.8,457.7l1.3.1,1,1.9-.2-1.8h1.2l.1,3.5-1.4.4-1-2.1-.1,1.9-1.2-.3.3-3.6Z" transform="translate(-114.2 -391.39999)" style="fill:#fff"/><path d="M219.5,457.7l2.8.1v1.1l-1.5-.1.1.5h.7l.1,1H221l.1,1.5-1.3-.1Z" transform="translate(-114.2 -391.39999)" style="fill:#fff"/><path d="M226.7,459.9a1.74962,1.74962,0,0,1-.7,1.4,2.21,2.21,0,0,1-2.8,0,1.67806,1.67806,0,0,1-.6-1.4,2.92013,2.92013,0,0,1,.2-.9,2.03592,2.03592,0,0,1,.6-.7,5.58208,5.58208,0,0,1,.8-.5,1.18483,1.18483,0,0,1,.8-.1,1.0872,1.0872,0,0,1,.5.1,2.09262,2.09262,0,0,1,.6.4,1.79374,1.79374,0,0,1,.5.7A2.78733,2.78733,0,0,1,226.7,459.9Zm-1.5-.5h0c.2-.1.2-.2.2-.3a.36731.36731,0,0,0-.1-.3h0a.36736.36736,0,0,0-.3-.1h-.3a1414.355,1414.355,0,0,1-.2.2.49993.49993,0,0,0,0,.6h0a.36735.36735,0,0,0,.3.1.75807.75807,0,0,0,.4-.2Z" transform="translate(-114.2 -391.39999)" style="fill:#fff"/><path d="M228.5,461.6l-1.3-.2-.2-3.7a2.71869,2.71869,0,0,1,.9,0h.5a.90142.90142,0,0,1,.5.1l.9.3a.82144.82144,0,0,1,.5.5.616.616,0,0,1-.1.7l-.6.6,1.5.9-1.3,1-1.2-1.6h-.3Zm-.1-2.3a.76385.76385,0,0,0,.5-.2c.1-.1.2-.2.2-.3s0-.2-.2-.3c-.1-.1-.3-.1-.6-.1Z" transform="translate(-114.2 -391.39999)" style="fill:#fff"/><path d="M234.4,458.9a4.16976,4.16976,0,0,0-.6-.2,1.26829,1.26829,0,0,0-.6.1.78076.78076,0,0,0-.4.4.66127.66127,0,0,0-.1.6,1.42146,1.42146,0,0,0,.2.6,2.18447,2.18447,0,0,0,.5.3.90151.90151,0,0,0,.5-.1.9983.9983,0,0,0,.4-.5h-.5l.1-.6h1.3c0,.2.1.3.1.5a.7493.7493,0,0,1-.1.5,1.27213,1.27213,0,0,1-.7.9,1.92923,1.92923,0,0,1-1,.3.74939.74939,0,0,1-.5-.1c-.2,0-.3-.1-.5-.2a1.83378,1.83378,0,0,1-.7-1,1.48329,1.48329,0,0,1,0-1.3l.3-.6c.1-.2.3-.3.4-.4a1.50393,1.50393,0,0,1,1.1-.4,1.92179,1.92179,0,0,1,1.2.4Z" transform="translate(-114.2 -391.39999)" style="fill:#fff"/><path d="M238.3,457.7v1.1h-1.5v.4h.8v.7H237v.5l1.4-.1v1.4l-2.7.1-.2-4.1Z" transform="translate(-114.2 -391.39999)" style="fill:#fff"/><path d="M238.7,457.9l3.7-.2.1,1.8-1.4-.1.4,2.3-1.8-.2.3-2.1h-1.3Z" transform="translate(-114.2 -391.39999)" style="fill:#fff"/><path d="M242.8,457.9l3.7-.2.1,1.8-1.4-.1.4,2.3-1.8-.2.3-2.1h-1.3Z" transform="translate(-114.2 -391.39999)" style="fill:#fff"/><path d="M249.7,457.7l1.2,3.6-1.3.5-.3-.8h-1l-.2.8-1.3-.6,1.3-3.3Zm-.4,2.4-.4-.9-.4.9Z" transform="translate(-114.2 -391.39999)" style="fill:#fff"/><path d="M251.3,457.9c.2,0,.4-.1.6-.1s.4-.1.6-.1a3.92607,3.92607,0,0,1,1.4.3c.4.2.6.4.6.7a.66957.66957,0,0,1-.4.7,1.8802,1.8802,0,0,1,1,.4,1.08027,1.08027,0,0,1,.3.7.86654.86654,0,0,1-.4.7,1.2675,1.2675,0,0,1-.9.4h-1.3a1.26823,1.26823,0,0,1-.6-.1c-.2,0-.4-.1-.6-.1Zm1.4,1.2h.4a.21508.21508,0,0,0,.2-.2c0-.2-.1-.2-.3-.3h-.3Zm.3,1.6h.5a.26516.26516,0,0,0,.3-.3c0-.2-.1-.3-.4-.4h-.5Z" transform="translate(-114.2 -391.39999)" style="fill:#fff"/><path d="M257.3,457.7l.2,3.1,1.4-.2v1l-2.6.2-.4-4Z" transform="translate(-114.2 -391.39999)" style="fill:#fff"/><path d="M261.9,457.7v1.1h-1.5v.4h.8v.7h-.7v.5l1.4-.1v1.4l-2.7.1-.2-4.1Z" transform="translate(-114.2 -391.39999)" style="fill:#fff"/><path d="M266.5,461.7a1.22235,1.22235,0,0,1-.9-.3c-.2-.2-.3-.4-.4-.5l.6-.7a.86438.86438,0,0,0,.3.6c.1.1.3.1.6-.1a.84529.84529,0,0,0,.2-.6,4.48457,4.48457,0,0,0-.1-1.1l-.7.1h0V459l-.1-.3c0-.1-.1-.2-.1-.3v-.1h0l2.5-.3v1l-.7.1a4.32977,4.32977,0,0,1,.1.5c0,.2.1.3.1.5a1.704,1.704,0,0,1,0,1,1.01234,1.01234,0,0,1-.4.7C267.3,461.6,266.9,461.7,266.5,461.7Z" transform="translate(-114.2 -391.39999)" style="fill:#fff"/><path d="M272.7,459.9a1.74954,1.74954,0,0,1-.7,1.4,2.21,2.21,0,0,1-2.8,0,1.67806,1.67806,0,0,1-.6-1.4,2.9196,2.9196,0,0,1,.2-.9,2.03589,2.03589,0,0,1,.6-.7,5.58362,5.58362,0,0,1,.8-.5,1.18477,1.18477,0,0,1,.8-.1,1.0872,1.0872,0,0,1,.5.1,2.09252,2.09252,0,0,1,.6.4,4.23417,4.23417,0,0,1,.5.7A2.7868,2.7868,0,0,1,272.7,459.9Zm-1.5-.5h0c.2-.1.2-.2.2-.3a.36731.36731,0,0,0-.1-.3h0a.36735.36735,0,0,0-.3-.1h-.3c-.1,0-.1,0-.1.1a.09794.09794,0,0,0-.1.1.49993.49993,0,0,0,0,.6h0a.36735.36735,0,0,0,.3.1.75817.75817,0,0,0,.4-.2Z" transform="translate(-114.2 -391.39999)" style="fill:#fff"/><path d="M274.9,458.1a.30974.30974,0,0,1-.1.2.36734.36734,0,0,0-.1.3,1.70183,1.70183,0,0,0-.1.7c0,.2,0,.5.1.6a.54989.54989,0,0,0,.5.3.51951.51951,0,0,0,.4-.2.74936.74936,0,0,0,.1-.5v-.6l-.1-.5,1.1-.2c0,.1.1.3.1.4,0,.2.1.3.1.5a4.86809,4.86809,0,0,1,.1,1.2,1.34639,1.34639,0,0,1-.5.9,2.72883,2.72883,0,0,1-3-.1,1.60591,1.60591,0,0,1-.5-1.1v-.7a1.95214,1.95214,0,0,1,.1-.7,8.118,8.118,0,0,1,.3-1.1Z" transform="translate(-114.2 -391.39999)" style="fill:#fff"/><path d="M279,461.6l-1.3-.2-.2-3.7a2.71869,2.71869,0,0,1,.9,0h.5a.90142.90142,0,0,1,.5.1l.9.3a.82146.82146,0,0,1,.5.5.616.616,0,0,1-.1.7l-.6.6,1.5.9-1.3,1-1.2-1.6h-.3Zm-.1-2.3a.76381.76381,0,0,0,.5-.2c.1-.1.2-.2.2-.3s0-.2-.2-.3c-.1-.1-.3-.1-.6-.1Z" transform="translate(-114.2 -391.39999)" style="fill:#fff"/><path d="M282.4,457.7l1.3.1,1,1.9-.2-1.8h1.2l.1,3.5-1.4.4-1-2.1-.1,1.9-1.2-.3.3-3.6Z" transform="translate(-114.2 -391.39999)" style="fill:#fff"/><path d="M288.9,457.7v1.1h-1.5v.4h.8v.7h-.7v.5l1.4-.1v1.4l-2.7.1-.2-4.1Z" transform="translate(-114.2 -391.39999)" style="fill:#fff"/><path d="M289.3,458.8l.9-.7.7,1,.6-1.5,1.2.2-2.1,3.9-.9-.7.7-1.2Z" transform="translate(-114.2 -391.39999)" style="fill:#fff"/><path d="M293.2,457.7c0-.1.1-.1.2-.1h1.4a7904.94315,7904.94315,0,0,1,.6.2,2.99487,2.99487,0,0,1,1,.4c.3.2.3.5.2.9a.78085.78085,0,0,1-.4.4l-.6.3a2.18618,2.18618,0,0,0-.5.3c-.1.1-.1.2,0,.2h.2a.09794.09794,0,0,1,.1.1c.1,0,.1,0,.2.1l-1.6.5a.75482.75482,0,0,1,.1-.8l.3-.3c.1-.1.2-.2.3-.2s.2-.1.3-.2.2-.1.3-.2c.2-.1.2-.2.1-.3-.1-.2-.2-.2-.4-.3a1.0872,1.0872,0,0,0-.5.1.34914.34914,0,0,0-.2.1s-.2.1-.2.2l-.1.1h-.2a.098.098,0,0,0-.1.1Zm1.5,3.1h.3a.36732.36732,0,0,1,.3.1,2828.7807,2828.7807,0,0,0,.2.2l.1.1a.098.098,0,0,0,.1.1v.1a2828.7807,2828.7807,0,0,1-.2.2c-.1,0-.1,0-.1.1a.76376.76376,0,0,1-.5.2h-.6c-.2,0-.3-.1-.3-.2s0-.2.2-.3l.1-.1.1-.1c.1,0,.1-.1.2-.1S294.6,460.8,294.7,460.8Z" transform="translate(-114.2 -391.39999)" style="fill:#fff"/><path d="M156.3,465.4l2.8.1v1.1l-1.5-.1.1.5h.7l.1,1h-.7l.1,1.5-1.3-.1Z" transform="translate(-114.2 -391.39999)" style="fill:#fff"/><path d="M159.3,465.4l1.5.1-.1,3.9h-1.3Z" transform="translate(-114.2 -391.39999)" style="fill:#fff"/><path d="M161.3,465.4l1.3.1,1,1.9-.2-1.8h1.2l.1,3.5-1.4.4-1-2.1-.1,1.9L161,469l.3-3.6Z" transform="translate(-114.2 -391.39999)" style="fill:#fff"/><path d="M165.1,465.6a5.26384,5.26384,0,0,1,1.9-.2,3.37905,3.37905,0,0,1,1.9.9.90784.90784,0,0,1,.3.7v.4a.60118.60118,0,0,1-.1.4,1.61209,1.61209,0,0,1-.4.7,1.79371,1.79371,0,0,1-.7.5,4.9503,4.9503,0,0,1-1.3.4,2.81744,2.81744,0,0,1-1.3,0Zm1.7,2.2a.36736.36736,0,0,0,.3-.1c.1-.1.2-.1.3-.2s.2-.2.2-.3a.3673.3673,0,0,0-.1-.3.58765.58765,0,0,0-.5-.2h-.5Z" transform="translate(-114.2 -391.39999)" style="fill:#fff"/><path d="M175.3,465.4l1.2,3.6-1.3.5-.3-.8h-1l-.2.8-1.3-.6,1.3-3.3Zm-.4,2.5-.4-.9-.4.9Z" transform="translate(-114.2 -391.39999)" style="fill:#935e35"/><path d="M178.4,465.4l.2,3.1,1.4-.2v1l-2.6.2-.4-4Z" transform="translate(-114.2 -391.39999)" style="fill:#935e35"/><path d="M181.8,465.4l.2,3.1,1.4-.2v1l-2.6.2-.4-4Z" transform="translate(-114.2 -391.39999)" style="fill:#935e35"/><path d="M186.5,465.6l3.7-.2.1,1.8-1.4-.1.4,2.3-1.8-.2.3-2.1h-1.3Z" transform="translate(-114.2 -391.39999)" style="fill:#935e35"/><path d="M190.5,465.6l1.2-.1v1.4h.9v-1.4l1.4-.1-.2,3.8-1.2.1v-1.4h-.9v1.4l-1.1.1Z" transform="translate(-114.2 -391.39999)" style="fill:#935e35"/><path d="M197.2,465.4v1.1h-1.5v.4h.8v.7h-.7v.5l1.4-.1v1.4l-2.7.1-.2-4.1Z" transform="translate(-114.2 -391.39999)" style="fill:#935e35"/><path d="M202.8,465.7v3h.4l-.1.9-2.1-.1v-.8h.5l.1-2-.5.5-.6-.7,1.2-1Z" transform="translate(-114.2 -391.39999)" style="fill:#935e35"/><path d="M206.4,466.5l-1.6-.2v.5h.8a6.8931,6.8931,0,0,1,.8.3c.2.2.4.4.4.6a1.22157,1.22157,0,0,1-.4.9,1.889,1.889,0,0,1-1.3.7,2.05947,2.05947,0,0,1-1.5-.3l-.1-1.1a1.62767,1.62767,0,0,0,.6.3,1.94927,1.94927,0,0,0,.8.1,1.48261,1.48261,0,0,0,.7-.1c.2-.1.3-.2.3-.4a.31929.31929,0,0,0-.3-.3c-.1,0-.2-.1-.3-.1a.36739.36739,0,0,1-.3-.1h-.9c-.1,0-.1,0-.2.1l-.4-2.2h3.2Z" transform="translate(-114.2 -391.39999)" style="fill:#935e35"/><path d="M210,465.6l1.2-.1v1.4h.9v-1.4l1.4-.1-.2,3.8-1.2.1v-1.4h-.9v1.4l-1.1.1Z" transform="translate(-114.2 -391.39999)" style="fill:#935e35"/><path d="M213.8,465.4l1.5.1-.1,3.9h-1.3Z" transform="translate(-114.2 -391.39999)" style="fill:#935e35"/><path d="M215.6,465.6a5.26384,5.26384,0,0,1,1.9-.2,3.37905,3.37905,0,0,1,1.9.9.90784.90784,0,0,1,.3.7v.4a.60118.60118,0,0,1-.1.4,1.61209,1.61209,0,0,1-.4.7,1.79371,1.79371,0,0,1-.7.5,4.9503,4.9503,0,0,1-1.3.4,2.81744,2.81744,0,0,1-1.3,0Zm1.7,2.2a.36736.36736,0,0,0,.3-.1c.1-.1.2-.1.3-.2s.2-.2.2-.3a.3673.3673,0,0,0-.1-.3.58765.58765,0,0,0-.5-.2H217Z" transform="translate(-114.2 -391.39999)" style="fill:#935e35"/><path d="M220.1,465.6a5.26384,5.26384,0,0,1,1.9-.2,3.37905,3.37905,0,0,1,1.9.9.90784.90784,0,0,1,.3.7v.4a.60118.60118,0,0,1-.1.4,1.61209,1.61209,0,0,1-.4.7,1.79371,1.79371,0,0,1-.7.5,4.9503,4.9503,0,0,1-1.3.4,2.81744,2.81744,0,0,1-1.3,0Zm1.7,2.2a.36736.36736,0,0,0,.3-.1c.1-.1.2-.1.3-.2s.2-.2.2-.3a.3673.3673,0,0,0-.1-.3.58765.58765,0,0,0-.5-.2h-.5Z" transform="translate(-114.2 -391.39999)" style="fill:#935e35"/><path d="M227.4,465.4v1.1h-1.5v.4h.8v.7H226v.5l1.4-.1v1.4l-2.7.1-.2-4.1Z" transform="translate(-114.2 -391.39999)" style="fill:#935e35"/><path d="M228.1,465.4l1.3.1,1,1.9-.2-1.8h1.2l.1,3.5-1.4.4-1-2.1-.1,1.9-1.2-.3.3-3.6Z" transform="translate(-114.2 -391.39999)" style="fill:#935e35"/><path d="M236.1,468.2l.1,1.3-1.2-.1-.3-3.9h.8a4.54835,4.54835,0,0,1,1.9.6.7549.7549,0,0,1,.4.7,1.38178,1.38178,0,0,1-.6,1.1,3.54536,3.54536,0,0,1-1.1.3Zm-.2-.7c.2-.1.4-.1.5-.3a.758.758,0,0,0,.2-.4c0-.1,0-.2-.2-.3-.1-.1-.3-.1-.6-.1Z" transform="translate(-114.2 -391.39999)" style="fill:#935e35"/><path d="M239.6,465.4l.2,3.1,1.4-.2v1l-2.6.2-.4-4Z" transform="translate(-114.2 -391.39999)" style="fill:#935e35"/><path d="M241.5,466.6l.9-.7.7,1,.6-1.5,1.2.2-2.1,3.9-.9-.7.7-1.2Z" transform="translate(-114.2 -391.39999)" style="fill:#935e35"/><path d="M246.8,465.5l.4,1.8.4-1.3h.7l.3,1.2.4-1.6,1.6-.1-1.2,3.8-1.1.1-.4-1.4-.4,1.4-1.1-.2-1.2-3.9Z" transform="translate(-114.2 -391.39999)" style="fill:#935e35"/><path d="M255.1,467.6a1.74961,1.74961,0,0,1-.7,1.4,2.21,2.21,0,0,1-2.8,0,1.678,1.678,0,0,1-.6-1.4,2.92013,2.92013,0,0,1,.2-.9,2.03592,2.03592,0,0,1,.6-.7,5.58208,5.58208,0,0,1,.8-.5,1.1848,1.1848,0,0,1,.8-.1,1.08716,1.08716,0,0,1,.5.1,2.09273,2.09273,0,0,1,.6.4,4.2337,4.2337,0,0,1,.5.7A3.08337,3.08337,0,0,1,255.1,467.6Zm-1.5-.4h0c0-.1.1-.1,0,0,.2-.1.2-.2.2-.3a.3673.3673,0,0,0-.1-.3h0a.36736.36736,0,0,0-.3-.1h-.3a995214082048.232,995214082048.232,0,0,0-.2.2.49993.49993,0,0,0,0,.6h0a.36737.36737,0,0,0,.3.1c.1-.1.3-.1.4-.2Z" transform="translate(-114.2 -391.39999)" style="fill:#935e35"/><path d="M259.6,467.6a1.74952,1.74952,0,0,1-.7,1.4,2.21,2.21,0,0,1-2.8,0,1.678,1.678,0,0,1-.6-1.4,2.92015,2.92015,0,0,1,.2-.9,2.03586,2.03586,0,0,1,.6-.7,5.58306,5.58306,0,0,1,.8-.5,1.18474,1.18474,0,0,1,.8-.1,1.0872,1.0872,0,0,1,.5.1,2.09246,2.09246,0,0,1,.6.4,4.2337,4.2337,0,0,1,.5.7C259.5,466.9,259.6,467.2,259.6,467.6Zm-1.5-.4h0c.2-.1.2-.2.2-.3a.36727.36727,0,0,0-.1-.3h0a.36734.36734,0,0,0-.3-.1h-.3c-.1,0-.1,0-.1.1a.09794.09794,0,0,0-.1.1.5.5,0,0,0,0,.6h0a.36739.36739,0,0,0,.3.1c.1-.1.2-.1.4-.2Z" transform="translate(-114.2 -391.39999)" style="fill:#935e35"/><path d="M259.9,465.6a5.2639,5.2639,0,0,1,1.9-.2,3.379,3.379,0,0,1,1.9.9.90779.90779,0,0,1,.3.7v.4a.60118.60118,0,0,1-.1.4,1.61209,1.61209,0,0,1-.4.7,1.79367,1.79367,0,0,1-.7.5,4.95034,4.95034,0,0,1-1.3.4,2.81734,2.81734,0,0,1-1.3,0Zm1.7,2.2a.36727.36727,0,0,0,.3-.1c.1-.1.2-.1.3-.2s.2-.2.2-.3a.36733.36733,0,0,0-.1-.3.58766.58766,0,0,0-.5-.2h-.5Z" transform="translate(-114.2 -391.39999)" style="fill:#935e35"/><path d="M268.7,468.2l.1,1.3-1.2-.1-.3-3.9h.8a4.54835,4.54835,0,0,1,1.9.6.75492.75492,0,0,1,.4.7,1.38184,1.38184,0,0,1-.6,1.1,3.54506,3.54506,0,0,1-1.1.3Zm-.2-.7c.2-.1.4-.1.5-.3a.758.758,0,0,0,.2-.4c0-.1,0-.2-.2-.3-.1-.1-.3-.1-.6-.1Z" transform="translate(-114.2 -391.39999)" style="fill:#935e35"/><path d="M270.7,465.4l1.5.1-.1,3.9h-1.3Z" transform="translate(-114.2 -391.39999)" style="fill:#935e35"/><path d="M275.3,465.4v1.1h-1.5v.4h.8v.7h-.7v.5l1.4-.1v1.4l-2.7.1-.2-4.1Z" transform="translate(-114.2 -391.39999)" style="fill:#935e35"/><path d="M279,466.5a2.181,2.181,0,0,0-1.5.2,1.03277,1.03277,0,0,0-.4.8c0,.3.2.5.6.7a1.49439,1.49439,0,0,0,1.5-.3l.6,1.1a3.37342,3.37342,0,0,1-1.2.4,5.28278,5.28278,0,0,1-1.3-.1,2.38382,2.38382,0,0,1-1.1-.6,1.38861,1.38861,0,0,1-.5-1,2.37569,2.37569,0,0,1,.3-1.2,3.45019,3.45019,0,0,1,.9-.8,2.66249,2.66249,0,0,1,1.2-.3,5.01932,5.01932,0,0,1,1.2.2Z" transform="translate(-114.2 -391.39999)" style="fill:#935e35"/><path d="M283,465.4v1.1h-1.5v.4h.8v.7h-.7v.5l1.4-.1v1.4l-2.7.1-.2-4.1Z" transform="translate(-114.2 -391.39999)" style="fill:#935e35"/><path d="M283.7,467.9c.2.1.3.1.5.2.2,0,.3.1.5.1.1,0,.2,0,.2-.1,0,0,0-.1-.2-.2a1.75591,1.75591,0,0,1-.5-.4c-.2-.1-.3-.3-.5-.4a.95926.95926,0,0,1-.3-1,.877.877,0,0,1,.6-.7,1.69521,1.69521,0,0,1,1,0,4.18042,4.18042,0,0,1,1,.4,4.23443,4.23443,0,0,1,.7.5l-.5.8a.34913.34913,0,0,0-.2-.1c-.1,0-.1-.1-.2-.1-.2-.1-.3-.1-.5-.2h-.2a1.72653,1.72653,0,0,0,.3.4c.3.3.6.4.8.6.2.1.3.3.4.7.1.3,0,.5-.3.7a1.22232,1.22232,0,0,1-.9.3,2.054,2.054,0,0,1-1.1,0c-.4-.1-.7-.2-1-.3Z" transform="translate(-114.2 -391.39999)" style="fill:#935e35"/><path d="M142.3,473.3l.4,1.8.4-1.3h.7l.3,1.2.4-1.6,1.6-.1-1.2,3.8-1.1.1-.4-1.4-.4,1.4-1.1-.2-1.2-3.9Z" transform="translate(-114.2 -391.39999)" style="fill:#fff"/><path d="M146.5,473.2l1.5.1-.1,3.9h-1.3Z" transform="translate(-114.2 -391.39999)" style="fill:#fff"/><path d="M148.2,473.4l3.7-.2.1,1.8-1.4-.1.4,2.3-1.8-.2.3-2.1h-1.3Z" transform="translate(-114.2 -391.39999)" style="fill:#fff"/><path d="M152.3,473.3l1.2-.1v1.4h.9v-1.4l1.4-.1-.2,3.8-1.2.1v-1.4h-.9V477l-1.1.1Z" transform="translate(-114.2 -391.39999)" style="fill:#fff"/><path d="M162.3,474.3a2.181,2.181,0,0,0-1.5.2,1.03274,1.03274,0,0,0-.4.8c0,.3.2.5.6.7a1.4944,1.4944,0,0,0,1.5-.3l.6,1.1a3.37343,3.37343,0,0,1-1.2.4,5.28294,5.28294,0,0,1-1.3-.1,2.38374,2.38374,0,0,1-1.1-.6,1.38856,1.38856,0,0,1-.5-1,2.37549,2.37549,0,0,1,.3-1.2,3.44987,3.44987,0,0,1,.9-.8,2.66254,2.66254,0,0,1,1.2-.3,5.01947,5.01947,0,0,1,1.2.2Z" transform="translate(-114.2 -391.39999)" style="fill:#fff"/><path d="M163.4,473.3l1.2-.1v1.4h.9v-1.4l1.4-.1-.2,3.8-1.2.1v-1.4h-.9V477l-1.1.1Z" transform="translate(-114.2 -391.39999)" style="fill:#fff"/><path d="M168.7,477.1l-1.3-.2-.2-3.7a2.71869,2.71869,0,0,1,.9,0h.5a.90143.90143,0,0,1,.5.1l.9.3a.82138.82138,0,0,1,.5.5.61593.61593,0,0,1-.1.7l-.6.6,1.5.9-1.3,1-1.2-1.6h-.3Zm-.1-2.3a.7639.7639,0,0,0,.5-.2c.1-.1.2-.2.2-.3s0-.2-.2-.3c-.1-.1-.3-.1-.6-.1Z" transform="translate(-114.2 -391.39999)" style="fill:#fff"/><path d="M171.8,473.2l1.5.1-.1,3.9h-1.3Z" transform="translate(-114.2 -391.39999)" style="fill:#fff"/><path d="M173.8,475.6c.2.1.3.1.5.2.2,0,.3.1.5.1.1,0,.2,0,.2-.1,0,0,0-.1-.2-.2a1.75627,1.75627,0,0,1-.5-.4c-.2-.1-.3-.3-.5-.4a.95927.95927,0,0,1-.3-1,.877.877,0,0,1,.6-.7,1.695,1.695,0,0,1,1,0,2.99521,2.99521,0,0,1,1,.4,4.23292,4.23292,0,0,1,.7.5l-.5.8a.34912.34912,0,0,0-.2-.1c-.1,0-.1-.1-.2-.1-.2-.1-.3-.1-.5-.2h-.2a1.7263,1.7263,0,0,0,.3.4c.3.3.6.4.8.6.2.1.3.3.4.7.1.3,0,.5-.3.7a1.2223,1.2223,0,0,1-.9.3,2.0542,2.0542,0,0,1-1.1,0c-.4-.1-.7-.2-1-.3Z" transform="translate(-114.2 -391.39999)" style="fill:#fff"/><path d="M177.1,473.4l3.7-.2.1,1.8-1.4-.1.4,2.3-1.8-.2.3-2.1h-1.3Z" transform="translate(-114.2 -391.39999)" style="fill:#fff"/><path d="M182.9,473.6l.6,1.6.4-1.7,1.3-.3.7,3.6-1.2.4-.2-2.3-.6,2.1h-.7l-.7-2-.1,2.1-1.3-.2.4-3.7Z" transform="translate(-114.2 -391.39999)" style="fill:#fff"/><path d="M189.2,473.2l1.2,3.6-1.3.5-.3-.8h-1l-.2.8-1.3-.6,1.3-3.3Zm-.4,2.4-.4-.9-.4.9Z" transform="translate(-114.2 -391.39999)" style="fill:#fff"/><path d="M191.2,475.6c.2.1.3.1.5.2.2,0,.3.1.5.1.1,0,.2,0,.2-.1,0,0,0-.1-.2-.2a1.756,1.756,0,0,1-.5-.4c-.2-.1-.3-.3-.5-.4a.95926.95926,0,0,1-.3-1,.877.877,0,0,1,.6-.7,1.695,1.695,0,0,1,1,0,2.99513,2.99513,0,0,1,1,.4,4.23346,4.23346,0,0,1,.7.5l-.5.8a.34917.34917,0,0,0-.2-.1c-.1,0-.1-.1-.2-.1-.2-.1-.3-.1-.5-.2h-.2a1.72606,1.72606,0,0,0,.3.4c.3.3.6.4.8.6.2.1.3.3.4.7.1.3,0,.5-.3.7a1.22228,1.22228,0,0,1-.9.3,2.0542,2.0542,0,0,1-1.1,0c-.4-.1-.7-.2-1-.3Z" transform="translate(-114.2 -391.39999)" style="fill:#fff"/><path d="M200.2,473.2l1.2,3.6-1.3.5-.3-.8h-1l-.2.8-1.3-.6,1.3-3.3Zm-.4,2.4-.4-.9-.4.9Z" transform="translate(-114.2 -391.39999)" style="fill:#fff"/><path d="M201.8,473.4a5.26415,5.26415,0,0,1,1.9-.2,3.37908,3.37908,0,0,1,1.9.9.90784.90784,0,0,1,.3.7v.4a.60123.60123,0,0,1-.1.4,1.61207,1.61207,0,0,1-.4.7,1.7936,1.7936,0,0,1-.7.5,4.95049,4.95049,0,0,1-1.3.4,2.81739,2.81739,0,0,1-1.3,0Zm1.7,2.2a.36733.36733,0,0,0,.3-.1c.1-.1.2-.1.3-.2s.2-.2.2-.3a.36732.36732,0,0,0-.1-.3.58765.58765,0,0,0-.5-.2h-.5Z" transform="translate(-114.2 -391.39999)" style="fill:#fff"/><path d="M207.9,473.3l.3,2.2.6-1.7,1.3.2-1.4,3.3-1.6-.1-.9-3.9Z" transform="translate(-114.2 -391.39999)" style="fill:#fff"/><path d="M210.4,473.2l1.5.1-.1,3.9h-1.3Z" transform="translate(-114.2 -391.39999)" style="fill:#fff"/><path d="M215.5,474.3a2.181,2.181,0,0,0-1.5.2,1.03274,1.03274,0,0,0-.4.8c0,.3.2.5.6.7a1.49439,1.49439,0,0,0,1.5-.3l.6,1.1a3.37343,3.37343,0,0,1-1.2.4,5.28294,5.28294,0,0,1-1.3-.1,2.38377,2.38377,0,0,1-1.1-.6,1.38859,1.38859,0,0,1-.5-1,2.3755,2.3755,0,0,1,.3-1.2,3.44971,3.44971,0,0,1,.9-.8,2.66247,2.66247,0,0,1,1.2-.3,5.01931,5.01931,0,0,1,1.2.2Z" transform="translate(-114.2 -391.39999)" style="fill:#fff"/><path d="M219.4,473.2v1.1h-1.5v.4h.8v.7H218v.5l1.4-.1v1.4l-2.7.1-.2-4.1Z" transform="translate(-114.2 -391.39999)" style="fill:#fff"/><path d="M220.2,475.6c.2.1.3.1.5.2a.90149.90149,0,0,0,.5.1c.1,0,.2,0,.2-.1,0,0,0-.1-.2-.2a1.756,1.756,0,0,1-.5-.4c-.2-.1-.3-.3-.5-.4a.95926.95926,0,0,1-.3-1,.877.877,0,0,1,.6-.7,1.695,1.695,0,0,1,1,0,2.99513,2.99513,0,0,1,1,.4,4.23346,4.23346,0,0,1,.7.5l-.5.8a.34917.34917,0,0,0-.2-.1c-.1,0-.1-.1-.2-.1-.2-.1-.3-.1-.5-.2h-.2a1.72606,1.72606,0,0,0,.3.4c.3.3.6.4.8.6.2.1.3.3.4.7.1.3,0,.5-.3.7a1.22228,1.22228,0,0,1-.9.3,2.04517,2.04517,0,0,1-1.1,0c-.4-.1-.7-.2-1-.3Z" transform="translate(-114.2 -391.39999)" style="fill:#fff"/><path d="M229.2,473.2l1.2,3.6-1.3.5-.3-.8h-1l-.2.8-1.3-.6,1.3-3.3Zm-.4,2.4-.4-.9-.4.9Z" transform="translate(-114.2 -391.39999)" style="fill:#fff"/><path d="M231.1,473.2l1.3.1,1,1.9-.2-1.8h1.2l.1,3.5-1.4.4-1-2.1-.1,1.9-1.2-.3.3-3.6Z" transform="translate(-114.2 -391.39999)" style="fill:#fff"/><path d="M234.8,473.4a5.26415,5.26415,0,0,1,1.9-.2,3.37908,3.37908,0,0,1,1.9.9.90784.90784,0,0,1,.3.7v.4a.60123.60123,0,0,1-.1.4,1.61207,1.61207,0,0,1-.4.7,1.7936,1.7936,0,0,1-.7.5,4.95049,4.95049,0,0,1-1.3.4,2.81739,2.81739,0,0,1-1.3,0Zm1.8,2.2a.36735.36735,0,0,0,.3-.1c.1-.1.2-.1.3-.2s.2-.2.2-.3a.36729.36729,0,0,0-.1-.3.58762.58762,0,0,0-.5-.2h-.5Z" transform="translate(-114.2 -391.39999)" style="fill:#fff"/><path d="M242.2,474.3l.9-.7.7,1,.6-1.5,1.2.2-2.1,3.9-.9-.7.7-1.2Z" transform="translate(-114.2 -391.39999)" style="fill:#fff"/><path d="M250.1,475.4a1.74962,1.74962,0,0,1-.7,1.4,2.21,2.21,0,0,1-2.8,0,1.67806,1.67806,0,0,1-.6-1.4,2.92013,2.92013,0,0,1,.2-.9,2.03592,2.03592,0,0,1,.6-.7,5.58208,5.58208,0,0,1,.8-.5,1.1848,1.1848,0,0,1,.8-.1,1.08716,1.08716,0,0,1,.5.1,2.09252,2.09252,0,0,1,.6.4,4.23358,4.23358,0,0,1,.5.7A2.78733,2.78733,0,0,1,250.1,475.4Zm-1.5-.5h0c.2-.1.2-.2.2-.3a.36731.36731,0,0,0-.1-.3h0a.36736.36736,0,0,0-.3-.1h-.3a995214082048.3734,995214082048.3734,0,0,1-.2.2.49993.49993,0,0,0,0,.6h0a.36734.36734,0,0,0,.3.1.75813.75813,0,0,0,.4-.2Z" transform="translate(-114.2 -391.39999)" style="fill:#fff"/><path d="M252.3,473.6a.30974.30974,0,0,1-.1.2c0,.1-.1.2-.1.3a1.70167,1.70167,0,0,0-.1.7c0,.2,0,.5.1.6a.5499.5499,0,0,0,.5.3.51947.51947,0,0,0,.4-.2.7493.7493,0,0,0,.1-.5v-.6l-.1-.5,1.1-.2c0,.1.1.3.1.4a4.33015,4.33015,0,0,1,.1.5,4.86809,4.86809,0,0,1,.1,1.2,1.34635,1.34635,0,0,1-.5.9,2.72883,2.72883,0,0,1-3-.1,1.60586,1.60586,0,0,1-.5-1.1v-.7a1.70165,1.70165,0,0,1,.1-.7,8.1117,8.1117,0,0,1,.3-1.1Z" transform="translate(-114.2 -391.39999)" style="fill:#fff"/><path d="M256.4,471.6l-1.2,1.7-.3-.2.3-1.7Z" transform="translate(-114.2 -391.39999)" style="fill:#fff"/><path d="M258.2,473.2l.2,3.1,1.4-.2v1l-2.6.2-.4-4Z" transform="translate(-114.2 -391.39999)" style="fill:#fff"/><path d="M261.6,473.2l.2,3.1,1.4-.2v1l-2.6.2-.4-4Z" transform="translate(-114.2 -391.39999)" style="fill:#fff"/><path d="M269.2,474.4a4.17019,4.17019,0,0,0-.6-.2,1.26825,1.26825,0,0,0-.6.1.78076.78076,0,0,0-.4.4.66122.66122,0,0,0-.1.6,1.42134,1.42134,0,0,0,.2.6,2.18447,2.18447,0,0,0,.5.3.90151.90151,0,0,0,.5-.1.99837.99837,0,0,0,.4-.5h-.5l.1-.6H270c0,.2.1.3.1.5a.7493.7493,0,0,1-.1.5,1.27212,1.27212,0,0,1-.7.9,1.92926,1.92926,0,0,1-1,.3.74935.74935,0,0,1-.5-.1c-.2,0-.3-.1-.5-.2a1.83391,1.83391,0,0,1-.7-1,1.48316,1.48316,0,0,1,0-1.3l.3-.6c.1-.2.3-.3.4-.4a1.50391,1.50391,0,0,1,1.1-.4,1.92188,1.92188,0,0,1,1.2.4Z" transform="translate(-114.2 -391.39999)" style="fill:#fff"/><path d="M273.1,473.2v1.1h-1.5v.4h.8v.7h-.7v.5l1.4-.1v1.4l-2.7.1-.2-4.1Z" transform="translate(-114.2 -391.39999)" style="fill:#fff"/><path d="M273.5,473.4l3.7-.2.1,1.8-1.4-.1.4,2.3-1.8-.2.3-2.1h-1.3Z" transform="translate(-114.2 -391.39999)" style="fill:#fff"/><path d="M283.3,473.2l1.2,3.6-1.3.5-.3-.8h-1l-.2.8-1.3-.6,1.3-3.3Zm-.5,2.4-.4-.9-.4.9Z" transform="translate(-114.2 -391.39999)" style="fill:#fff"/><path d="M290.6,474.4a4.17038,4.17038,0,0,0-.6-.2,1.26829,1.26829,0,0,0-.6.1.7808.7808,0,0,0-.4.4.66125.66125,0,0,0-.1.6,1.42122,1.42122,0,0,0,.2.6,2.184,2.184,0,0,0,.5.3.90153.90153,0,0,0,.5-.1.99835.99835,0,0,0,.4-.5H290l.1-.6h1.3c0,.2.1.3.1.5a.7493.7493,0,0,1-.1.5,1.27207,1.27207,0,0,1-.7.9,1.92926,1.92926,0,0,1-1,.3.74936.74936,0,0,1-.5-.1c-.2,0-.3-.1-.5-.2a1.834,1.834,0,0,1-.7-1,1.48322,1.48322,0,0,1,0-1.3l.3-.6c.1-.2.3-.3.4-.4a1.50391,1.50391,0,0,1,1.1-.4,1.92185,1.92185,0,0,1,1.2.4Z" transform="translate(-114.2 -391.39999)" style="fill:#fff"/><path d="M291.7,473.2l1.5.1-.1,3.9h-1.3Z" transform="translate(-114.2 -391.39999)" style="fill:#fff"/><path d="M293.4,473.2l2.8.1v1.1l-1.5-.1.1.5h.7l.1,1h-.7l.1,1.5-1.3-.1Z" transform="translate(-114.2 -391.39999)" style="fill:#fff"/><path d="M296.4,473.4l3.7-.2.1,1.8-1.4-.1.4,2.3-1.8-.2.3-2.1h-1.3Z" transform="translate(-114.2 -391.39999)" style="fill:#fff"/><path d="M302.2,471.9l-.4,4-1,.1-.2-3.5Zm-.9,4.3a.90143.90143,0,0,1,.5.1c.1.1.2.2.2.3a.69391.69391,0,0,1-.7.6.74935.74935,0,0,1-.5-.1c-.1-.1-.2-.2-.2-.3s.1-.2.2-.3A.91364.91364,0,0,1,301.3,476.2Z" transform="translate(-114.2 -391.39999)" style="fill:#fff"/></svg>