<svg id="Слой_1" data-name="Слой 1" xmlns="http://www.w3.org/2000/svg" viewBox="0 0 495.87 104.54"><title>balalaika_short</title><rect x="10.31" y="1.23" width="485.56" height="103.32" rx="12" ry="12" style="fill:#3a301f"/><rect width="485.56" height="103.32" rx="12" ry="12" style="fill:#fff"/><path d="M180.65,319.79a23.31,23.31,0,0,1,10.08,4.15,8.67,8.67,0,0,1,1.88,1.74,7.44,7.44,0,0,1,1,1.9,7.89,7.89,0,0,1,.43,2.16q.06,1.17.06,2.55v1.81a9.72,9.72,0,0,1-.15,1.74,5.17,5.17,0,0,1-.56,1.54,3.66,3.66,0,0,1-1.21,1.24,23.9,23.9,0,0,1-7.49,3.22,50,50,0,0,1-8.75,1.34,52.26,52.26,0,0,1-6.92,0l2.32-32.94,20.4-2.27v7.27L180.51,315l.14,4.82Zm-1.83,15.27c2.47.08,4.26-.27,5.4-1.08a3,3,0,0,0,1.42-2.76,5.39,5.39,0,0,0-1.87-3.13,10.3,10.3,0,0,0-4.37-2.32Z" transform="translate(-87.07 -275.5)" style="fill:#d86600"/><path d="M223,308.64,233.44,339l-11.07,3.84-2.19-6.69h-8.57l-2,6.56-10.89-5.09,11.11-28.11Zm-3.66,20.48-3.25-7.9L212.73,329Z" transform="translate(-87.07 -275.5)" style="fill:#d86600"/><path d="M236.2,342.82l7.19-33.07,13.21-1.11,11.91,27.8-11.16,1.34-5.13-14.51-2.45,18.52Z" transform="translate(-87.07 -275.5)" style="fill:#d86600"/><path d="M295.42,308.64,305.86,339l-11.07,3.84-2.18-6.69H284l-2,6.56-10.89-5.09,11.11-28.11Zm-3.66,20.48-3.26-7.9L285.15,329Z" transform="translate(-87.07 -275.5)" style="fill:#d86600"/><path d="M308.63,342.82l7.18-33.07L329,308.64l11.91,27.8-11.15,1.34-5.13-14.51-2.46,18.52Z" transform="translate(-87.07 -275.5)" style="fill:#d86600"/><path d="M367.84,308.64,378.28,339l-11.06,3.84L365,336.13h-8.57l-2,6.56-10.88-5.09,11.11-28.11Zm-3.66,20.48-3.26-7.9L357.58,329Z" transform="translate(-87.07 -275.5)" style="fill:#d86600"/><path d="M409.88,309.22,412.73,339l-10.22,2.41-.75-16.25L393,342.82l-11.91-3.08.67-29.45h10.22l-1.52,14.86,8.79-15.62,10.67-.89Zm-19-10.09,14.82-.44-.9,5.71-13.92,1.34Z" transform="translate(-87.07 -275.5)" style="fill:#d86600"/><path d="M444,309.44l7.5,7.23-9.11,9.68,9.15,9.69-9.64,6.65-10.13-11.56.14,10.89-11.25.8-1.69-33.69,12.94-.49.09,16.64Z" transform="translate(-87.07 -275.5)" style="fill:#d86600"/><path d="M478.46,308.64,488.91,339l-11.07,3.84-2.19-6.69h-8.57l-2,6.56-10.89-5.09,11.11-28.11Zm-3.66,20.48-3.25-7.9L468.2,329Z" transform="translate(-87.07 -275.5)" style="fill:#d86600"/></svg>