<svg id="Слой_1" data-name="Слой 1" xmlns="http://www.w3.org/2000/svg" viewBox="0 0 495.87 168.04"><title>bear_short</title><rect x="10.31" y="1.98" width="485.56" height="166.07" rx="12" ry="12" style="fill:#3a301f"/><rect width="485.56" height="166.07" rx="12" ry="12" style="fill:#fff"/><path d="M176.15,287.83l10.4-.62v11.51l7.63-.13V287.12l11.87-.67-1.56,32.08-10.31,1.16V307.51l-7.63.18v12.05l-9,.89Z" transform="translate(-87.07 -243.98)" style="fill:#d86600"/><path d="M232.65,286.45l.26,9.64-12.49-.18.09,3.57,6.38-.36,0,5.89h-5.8l.14,4.11,12-.72.14,11.56-22.94.67-1.92-34.14Z" transform="translate(-87.07 -243.98)" style="fill:#d86600"/><path d="M252.19,286.85l6.47-.18.27,9.37,8-10.13,9.77,5.31-12,12.41,9.19,10.53-8,6-7.14-10.53-.22,9.95-5.85.18-.22-9.6L246,318.58l-10.27-5.31,10.49-11.11-8.39-11.92,8.57-3.21,6.25,9.55Z" transform="translate(-87.07 -243.98)" style="fill:#d86600"/><path d="M278.38,321.43l-1-6.07,32.44.23-1,5.84Zm18.52-37.61,11.92-.67-1.61,32.08-10.31,1.16.72-25.34-8.84.58.54,24.85-9.06.89-1.34-32.84Z" transform="translate(-87.07 -243.98)" style="fill:#d86600"/><path d="M335.05,286.45l10.45,30.34-11.07,3.84-2.19-6.69h-8.56l-2,6.56-10.89-5.09,11.11-28.11Zm-3.65,20.48-3.26-7.9-3.35,7.77Z" transform="translate(-87.07 -243.98)" style="fill:#d86600"/><path d="M348.26,287.83l10.4-.62v11.51l7.63-.13V287.12l11.87-.67-1.56,32.08-10.31,1.16V307.51l-7.63.18v12.05l-9,.89Z" transform="translate(-87.07 -243.98)" style="fill:#d86600"/><path d="M380.7,287.83l10.4-.62v11.51l7.63-.13V287.12l11.87-.67L409,318.53l-10.31,1.16V307.51l-7.63.18v12.05l-9,.89Z" transform="translate(-87.07 -243.98)" style="fill:#d86600"/><path d="M423.9,297.92A23.57,23.57,0,0,1,434,302.07a8.14,8.14,0,0,1,1.87,1.74,7,7,0,0,1,1,1.89,8.35,8.35,0,0,1,.42,2.17c0,.77.07,1.62.07,2.54v1.81a9.7,9.7,0,0,1-.16,1.74,4.91,4.91,0,0,1-.56,1.54,3.84,3.84,0,0,1-1.2,1.25A23.14,23.14,0,0,1,428,320q-2.19.54-4.35.87a39.73,39.73,0,0,1-4.4.43c-1.48.08-2.8.13-3.94.13s-2.12,0-2.93-.09l2.28-32.93,9.68-1.16L423.9,298Zm-1.83,15.26q3.71.13,5.4-1.07a3.05,3.05,0,0,0,1.43-2.77,4.22,4.22,0,0,0-.54-1.56,6.36,6.36,0,0,0-1.34-1.61,10.11,10.11,0,0,0-4.37-2.27Zm17.36,7.54,11.33-.4.63-32.93-12.81-.9Z" transform="translate(-87.07 -243.98)" style="fill:#d86600"/><path d="M481.78,287l2.85,29.81-10.22,2.41L473.66,303l-8.8,17.63L453,317.55l.67-29.45h10.22L462.32,303l8.79-15.62,10.67-.89Zm-19-10.09,14.82-.44-.9,5.71-13.92,1.34Z" transform="translate(-87.07 -243.98)" style="fill:#d86600"/><path d="M263.28,361.55l1,12.63-10.57-.89-2-33.29L275,341.07l0,9.55-13-.9Z" transform="translate(-87.07 -243.98)" style="fill:#d86600"/><path d="M311.78,358.61q-.52,7.84-6.07,11.73a20.06,20.06,0,0,1-11.91,3.84,18.79,18.79,0,0,1-11.56-3.93q-5.17-3.84-5-11.64a16.82,16.82,0,0,1,1.92-7.64,21.72,21.72,0,0,1,4.82-5.93,20.41,20.41,0,0,1,6.42-3.79,17.56,17.56,0,0,1,6.92-1.25,17,17,0,0,1,4.2.93,15.58,15.58,0,0,1,5,2.95,16.82,16.82,0,0,1,4,5.67A20,20,0,0,1,311.78,358.61Zm-12.53-4a.71.71,0,0,0,.31-.22,1.37,1.37,0,0,0,.27-.27,3.31,3.31,0,0,0,1.11-2.45,4.64,4.64,0,0,0-.76-2.37l-.22-.2a2.91,2.91,0,0,1-.27-.24l-.2-.2a1.5,1.5,0,0,0-.24-.2,6.1,6.1,0,0,0-2.33-.9,4.13,4.13,0,0,0-2.67.4,4.88,4.88,0,0,0-1,.54,9.06,9.06,0,0,0-.75.54,3.6,3.6,0,0,0-1.16,2.63,4.59,4.59,0,0,0,.93,2.5l.16.18a1.29,1.29,0,0,0,.16.18.55.55,0,0,1,.17.11,1.19,1.19,0,0,1,.18.15,4.85,4.85,0,0,0,6.34-.22Z" transform="translate(-87.07 -243.98)" style="fill:#d86600"/><path d="M343,349.1q-8.7-1.47-12.63,1.92t-3.48,7.14q.45,3.79,5,5.8t13-2.23l4.64,9.37a22,22,0,0,1-9.95,3A32.37,32.37,0,0,1,328.38,373a24.11,24.11,0,0,1-9.37-5,11.8,11.8,0,0,1-4.1-8.79,15,15,0,0,1,2.9-9.91,22,22,0,0,1,7.85-6.64A24.75,24.75,0,0,1,335.83,340a18.38,18.38,0,0,1,9.73,2Z" transform="translate(-87.07 -243.98)" style="fill:#d86600"/><path d="M352.66,341.74,383.4,340l.54,15.44-11.74-.63,3.53,19.37-15.08-1.61,2.58-17.4-10.84.31Z" transform="translate(-87.07 -243.98)" style="fill:#d86600"/><path d="M397.24,351.15a23.31,23.31,0,0,1,10.08,4.15A8.44,8.44,0,0,1,409.2,357a7.44,7.44,0,0,1,1,1.9,7.89,7.89,0,0,1,.43,2.16q.06,1.17.06,2.55v1.81a9.72,9.72,0,0,1-.15,1.74,5,5,0,0,1-.56,1.53,3.59,3.59,0,0,1-1.21,1.25,23.9,23.9,0,0,1-7.49,3.22,50,50,0,0,1-8.75,1.34,52.09,52.09,0,0,1-6.91,0L388,341.6l9.68-1.16-.4,10.76Zm-1.83,15.26c2.47.09,4.27-.26,5.4-1.07a3,3,0,0,0,1.43-2.76,5.41,5.41,0,0,0-1.88-3.13,10.3,10.3,0,0,0-4.37-2.32Z" transform="translate(-87.07 -243.98)" style="fill:#d86600"/></svg>