<svg id="Слой_1" data-name="Слой 1" xmlns="http://www.w3.org/2000/svg" viewBox="0 0 541.08 148.31"><title>bed_short</title><rect x="11.25" y="1.74" width="529.83" height="146.57" rx="12" ry="12" style="fill:#3a301f"/><rect width="529.83" height="146.57" rx="12" ry="12" style="fill:#fff"/><path d="M201.43,319.87l-1.12-6.63,35.4.25-1.12,6.38Zm20.21-41.05,13-.73-1.75,35-11.25,1.26.78-27.65-9.64.63.58,27.12-9.88,1L202,279.6Z" transform="translate(-63.88 -253.04)" style="fill:#d86600"/><path d="M263,281.69l.29,10.52-13.63-.2.09,3.9,7-.39,0,6.43h-6.33l.15,4.48,13.15-.78.14,12.61-25,.73-2.1-37.25Z" transform="translate(-63.88 -253.04)" style="fill:#d86600"/><path d="M266.68,283.59l33.54-1.9.59,16.85L288,297.86,291.85,319l-16.46-1.75,2.83-19-11.83.34Z" transform="translate(-63.88 -253.04)" style="fill:#d86600"/><path d="M334.36,291.62q-9.5-1.61-13.78,2.1t-3.8,7.79c.32,2.76,2.16,4.87,5.5,6.33s8.08.65,14.22-2.44l5.06,10.23a24,24,0,0,1-10.86,3.26,35,35,0,0,1-12.31-1.17,26.18,26.18,0,0,1-10.23-5.45,12.87,12.87,0,0,1-4.48-9.59,16.33,16.33,0,0,1,3.17-10.81,24.09,24.09,0,0,1,8.57-7.26,27.07,27.07,0,0,1,11.1-2.87,20.17,20.17,0,0,1,10.61,2.19Z" transform="translate(-63.88 -253.04)" style="fill:#d86600"/><path d="M371.9,282.57l8.18,7.89L370.14,301l10,10.57-10.51,7.25-11.06-12.61.15,11.88-12.27.88-1.85-36.76,14.12-.54.1,18.16Z" transform="translate(-63.88 -253.04)" style="fill:#d86600"/><path d="M409.53,281.69l11.4,33.11L408.85,319l-2.38-7.3h-9.35l-2.19,7.15-11.88-5.55,12.12-30.67Zm-4,22.35L402,295.42l-3.66,8.47Z" transform="translate(-63.88 -253.04)" style="fill:#d86600"/><path d="M449.07,304.58l-2.44.05L435.73,319l-11.79-8.81,13.69-8.57a18.31,18.31,0,0,1-5.55-5.46,6.81,6.81,0,0,1-.73-6.52q1-2.43,4.67-4.19a36.07,36.07,0,0,1,8.13-2.63c1.56-.29,3.11-.52,4.65-.7s3.12-.3,4.75-.37a41.1,41.1,0,0,1,8.28.39l-1.76,34.38L448.53,318Zm.78-16.7c-2.73.09-4.64.55-5.75,1.36a2.75,2.75,0,0,0-1.46,2.73,5.14,5.14,0,0,0,2.14,2.92,11.06,11.06,0,0,0,5,1.85Z" transform="translate(-63.88 -253.04)" style="fill:#d86600"/><path d="M229.58,341l8.18,7.88-9.94,10.57,10,10.57-10.52,7.25-11-12.61.14,11.88-12.27.88-1.85-36.76,14.12-.54.1,18.16Z" transform="translate(-63.88 -253.04)" style="fill:#d86600"/><path d="M253.34,365.68l.48,11.74-10.61-1.27-2.48-35.93c.9-.07,2-.1,3.21-.1s2.66.05,4.28.15a46.2,46.2,0,0,1,9.55,1.41,26.15,26.15,0,0,1,8.23,3.5,7.33,7.33,0,0,1,3.5,6.33,11.07,11.07,0,0,1-5.16,9.69,25,25,0,0,1-11,4.53ZM252,359.21a11.1,11.1,0,0,0,4.82-2.49,5.58,5.58,0,0,0,2-3.45,3.24,3.24,0,0,0-1.56-3c-1.23-.88-3.2-1.27-5.89-1.17Z" transform="translate(-63.88 -253.04)" style="fill:#d86600"/><path d="M309.82,360.42q-.58,8.58-6.62,12.81a22,22,0,0,1-13,4.19,20.51,20.51,0,0,1-12.62-4.29q-5.64-4.19-5.5-12.71a18.22,18.22,0,0,1,2.1-8.32,23.66,23.66,0,0,1,5.25-6.48,22.69,22.69,0,0,1,7-4.14,19.13,19.13,0,0,1,7.54-1.36,18.82,18.82,0,0,1,4.58,1,16.76,16.76,0,0,1,5.5,3.22,18.11,18.11,0,0,1,4.38,6.18A22,22,0,0,1,309.82,360.42Zm-13.68-4.33a1,1,0,0,0,.34-.24,1.58,1.58,0,0,0,.29-.29,3.64,3.64,0,0,0,1.22-2.68,5.11,5.11,0,0,0-.83-2.58l-.25-.22-.29-.27-.22-.22a2.75,2.75,0,0,0-.26-.22,6.62,6.62,0,0,0-2.54-1,4.44,4.44,0,0,0-2.92.44,5.41,5.41,0,0,0-1.07.58c-.49.32-.76.52-.83.58a4,4,0,0,0-1.26,2.88,4.87,4.87,0,0,0,1,2.72c.06.07.12.13.17.2a1.45,1.45,0,0,0,.17.19l.2.13a1.37,1.37,0,0,1,.19.17,5.31,5.31,0,0,0,3.17,1.16,5.21,5.21,0,0,0,3.74-1.41Z" transform="translate(-63.88 -253.04)" style="fill:#d86600"/><path d="M313.23,341.78c1.75-.39,3.51-.73,5.28-1s3.58-.5,5.43-.66q5.55-.44,13.14,2.68,5.16,2.19,5.6,6.57c.33,2.89-.91,5.15-3.7,6.77q6.63.78,9.55,3.94a9.06,9.06,0,0,1,2.53,6.82,10.43,10.43,0,0,1-3.46,6.67,13.92,13.92,0,0,1-8.72,3.55q-3.17.3-6,.32a49.68,49.68,0,0,1-5.41-.22c-1.72-.16-3.46-.39-5.23-.68s-3.58-.66-5.43-1.12Zm13.58,11.44,1.95-.2a8.89,8.89,0,0,0,1.75-.34q1.65-.44,1.8-1.56c.13-1.39-.71-2.24-2.53-2.53-.91-.16-1.66-.27-2.24-.31a4.89,4.89,0,0,0-1.31,0Zm2.09,15.09a25.52,25.52,0,0,1,4.19-.29q3.12-.15,3-2.73-.15-3-3.51-3.21c-1.1-.1-2-.15-2.72-.17a8.83,8.83,0,0,0-1.61.07Z" transform="translate(-63.88 -253.04)" style="fill:#d86600"/><path d="M380.9,340.12l11.4,33.11-12.08,4.19-2.38-7.31h-9.35l-2.19,7.16-11.88-5.55,12.12-30.67Zm-4,22.35-3.55-8.62-3.65,8.47Z" transform="translate(-63.88 -253.04)" style="fill:#d86600"/><path d="M395.61,342l33.55-1.9.58,16.85-12.81-.68,3.85,21.13-16.46-1.76,2.83-19-11.83.34Z" transform="translate(-63.88 -253.04)" style="fill:#d86600"/><path d="M444.25,352.29a25.53,25.53,0,0,1,11,4.53,9.08,9.08,0,0,1,2.05,1.9,8,8,0,0,1,1.12,2.07,8.52,8.52,0,0,1,.46,2.36c.05.84.07,1.77.07,2.78v2a9.73,9.73,0,0,1-.17,1.9,5.21,5.21,0,0,1-.61,1.68,4,4,0,0,1-1.31,1.36,25.94,25.94,0,0,1-8.18,3.51,55.21,55.21,0,0,1-9.54,1.46,58.29,58.29,0,0,1-7.55,0l2.53-35.94,10.57-1.26-.44,11.73Zm-2,16.65q4,.15,5.89-1.16a3.24,3.24,0,0,0,1.56-3,5.86,5.86,0,0,0-2-3.41,11.15,11.15,0,0,0-4.77-2.53Z" transform="translate(-63.88 -253.04)" style="fill:#d86600"/></svg>