<svg id="f2b63880-f297-40df-beeb-f6552490889e" data-name="игровые объекты наведение мышкой, группа 1" xmlns="http://www.w3.org/2000/svg" viewBox="0 0 541.08318 148.31245"><title>ship</title><rect x="11.24984" y="1.74319" width="529.83333" height="146.56926" rx="12" ry="12" style="fill:#3a301f"/><rect width="529.83333" height="146.56926" rx="12" ry="12" style="fill:#fff"/><path d="M520.021,1522.69273l3.11621,32.52539L511.9873,1557.847l-.82763-17.72266-9.59229,19.23243-13-3.35938.73047-32.13574h11.1499l-1.65576,16.21387,9.59229-17.042,11.63672-.97363Z" transform="translate(-372.482 -1493.40456)" style="fill:#d86600"/><path d="M528.15186,1524.15367l26.97412-2.09375,1.31494,11.05274-7.7417,5.79394a10.16184,10.16184,0,0,1,6.62158,2.43457q2.82348,2.3379,2.92139,6.96289a8.21954,8.21954,0,0,1-3.79785,7.49805,21.80989,21.80989,0,0,1-9.05616,3.21387,41.1047,41.1047,0,0,1-10.76074.04882,35.24882,35.24882,0,0,1-8.6665-1.94824l2.97021-11.19824a10.69838,10.69838,0,0,0,3.31055,1.99609,16.66882,16.66882,0,0,0,5.064,1.36329,7.65165,7.65165,0,0,0,2.43457,0,7.48275,7.48275,0,0,0,2.14209-.68165q2.04494-.92432,2.04493-4.1875a2.10684,2.10684,0,0,0-1.31446-1.80175,16.064,16.064,0,0,0-3.11621-1.2168,16.60535,16.60535,0,0,0-1.77734-.38965q-.90089-.14647-1.77686-.24316a10.92881,10.92881,0,0,0-2.82422-.09766l-.146-3.01855,16.311-7.59571-19.42724,3.89551Z" transform="translate(-372.482 -1493.40456)" style="fill:#d86600"/><path d="M598.752,1542.36363q-.58447,8.57081-6.62207,12.80567a21.92444,21.92444,0,0,1-13,4.1875,20.48652,20.48652,0,0,1-12.61084-4.28516q-5.64917-4.18653-5.50195-12.708a18.27293,18.27293,0,0,1,2.09375-8.32617,23.746,23.746,0,0,1,5.2583-6.47559,22.39452,22.39452,0,0,1,7.01123-4.13867,19.11033,19.11033,0,0,1,7.54688-1.36328,18.32433,18.32433,0,0,1,4.57714,1.02246,16.83489,16.83489,0,0,1,5.502,3.21387,18.24668,18.24668,0,0,1,4.38183,6.18359A21.939,21.939,0,0,1,598.752,1542.36363Zm-13.68213-4.333a.81131.81131,0,0,0,.34082-.24414,1.23829,1.23829,0,0,0,.292-.292,3.61547,3.61547,0,0,0,1.21728-2.67773,5.059,5.059,0,0,0-.82763-2.58008c-.06543-.06543-.146-.1377-.24317-.21973-.09766-.08008-.19482-.16992-.29248-.26758-.06543-.06445-.13818-.13769-.21924-.21875a1.79587,1.79587,0,0,0-.26758-.21972,6.67306,6.67306,0,0,0-2.53173-.97363,4.494,4.494,0,0,0-2.92139.43847,5.25394,5.25394,0,0,0-1.07129.584,9.72557,9.72557,0,0,0-.82764.584,3.96,3.96,0,0,0-1.26611,2.873,4.9369,4.9369,0,0,0,1.02246,2.72656,1.84545,1.84545,0,0,1,.17041.19531,1.69738,1.69738,0,0,0,.17041.19434,1.3583,1.3583,0,0,1,.19483.12207,2.00193,2.00193,0,0,1,.19482.16992,5.28217,5.28217,0,0,0,6.91406-.24316Z" transform="translate(-372.482 -1493.40456)" style="fill:#d86600"/><path d="M602.15918,1559.3568l7.83887-36.0791,14.41211-1.21778,13.00048,30.334-12.17236,1.46093-5.59961-15.82422-2.67773,20.20606Z" transform="translate(-372.482 -1493.40456)" style="fill:#d86600"/><path d="M665.40723,1544.94469l-2.43457.04883-10.90674,14.36328-11.78272-8.81348,13.68164-8.56934a18.519,18.519,0,0,1-5.55029-5.45312,6.8486,6.8486,0,0,1-.73047-6.52441q.97339-2.43458,4.67432-4.1875a35.70128,35.70128,0,0,1,8.13086-2.62891q2.33715-.438,4.6499-.70606,2.31225-.26659,4.74756-.36523a41.187,41.187,0,0,1,8.27734.38965l-1.75293,34.375-11.53955,1.46094Zm.77881-16.70117q-4.08986.14648-5.74512,1.36328a2.73585,2.73585,0,0,0-1.46094,2.72656,5.0909,5.0909,0,0,0,2.14258,2.92187,11.02719,11.02719,0,0,0,4.96631,1.84961Z" transform="translate(-372.482 -1493.40456)" style="fill:#d86600"/><path d="M699.83057,1560.23277H681.27979l1.4121-38.17285,9.83545.97363-.58447,27.07227,9.64063.63281-.73047-27.65625,11.24756,1.26563,1.31494,35.15429Zm27.46142-7.88769-.53564,9.05664-26.7793.24316.24316-12.17187Z" transform="translate(-372.482 -1493.40456)" style="fill:#d86600"/><path d="M748.0332,1522.69273l3.11621,32.52539-11.1499,2.62891-.82763-17.72266-9.59229,19.23243-13-3.35938.73047-32.13574H728.46l-1.65576,16.21387,9.59228-17.042,11.63672-.97363Z" transform="translate(-372.482 -1493.40456)" style="fill:#d86600"/><path d="M779.09717,1544.94469l-2.43457.04883-10.90674,14.36328-11.78272-8.81348,13.68165-8.56934a18.519,18.519,0,0,1-5.5503-5.45312,6.8486,6.8486,0,0,1-.73047-6.52441q.9734-2.43458,4.67432-4.1875a35.70128,35.70128,0,0,1,8.13086-2.62891q2.33715-.438,4.6499-.70606,2.31227-.26659,4.74756-.36523a41.187,41.187,0,0,1,8.27734.38965l-1.75293,34.375-11.53955,1.46094Zm.77881-16.70117q-4.08986.14648-5.74512,1.36328a2.73585,2.73585,0,0,0-1.46094,2.72656,5.091,5.091,0,0,0,2.14256,2.92187,11.02736,11.02736,0,0,0,4.96633,1.84961Z" transform="translate(-372.482 -1493.40456)" style="fill:#d86600"/><path d="M515.05371,1582.38707l33.54736-1.89844.58448,16.84668-12.80567-.68164,3.84668,21.13086L523.769,1616.0316l2.82422-18.98828-11.83154.34082Z" transform="translate(-372.482 -1493.40456)" style="fill:#d86600"/><path d="M578.54492,1580.48863l11.39356,33.1084-12.0752,4.1875-2.38574-7.30273h-9.34863L563.938,1617.639l-11.88037-5.55078,12.12353-30.6748Zm-3.99267,22.34864-3.5542-8.61817-3.65186,8.47168Z" transform="translate(-372.482 -1493.40456)" style="fill:#d86600"/><path d="M592.957,1581.99742l11.34473-.68164v12.5625l8.32568-.14648v-12.5127l12.95166-.73047-1.7041,35.00782-11.24756,1.26562v-13.292l-8.32568.19433v13.14649l-9.83545.97363Z" transform="translate(-372.482 -1493.40456)" style="fill:#d86600"/><path d="M655.66943,1581.36461l8.18018,7.88769-9.93311,10.56543,9.98145,10.56641-10.51709,7.25488-11.05225-12.61132.146,11.88085-12.27.876-1.8501-36.76074,14.12012-.53516.09717,18.16114Z" transform="translate(-372.482 -1493.40456)" style="fill:#d86600"/><path d="M693.063,1580.48863l.29248,10.5166-13.6333-.19433.09717,3.89453,6.96289-.38965.04882,6.42774H680.501l.146,4.47949,13.14649-.7793.146,12.61035-25.02636.73047-2.09375-37.24707Z" transform="translate(-372.482 -1493.40456)" style="fill:#d86600"/><path d="M709.03271,1606.05016l.48682,11.73437-10.61474-1.26562-2.48291-35.9336q1.3623-.09667,3.21337-.09668,1.8501,0,4.28467.14551a46.20308,46.20308,0,0,1,9.54346,1.41211,25.92826,25.92826,0,0,1,8.22851,3.50586,7.32514,7.32514,0,0,1,3.50586,6.33008,11.10455,11.10455,0,0,1-5.16113,9.68847,25.083,25.083,0,0,1-11.00391,4.52832Zm-1.36376-6.47559a11.13469,11.13469,0,0,0,4.82031-2.4834,5.60614,5.60614,0,0,0,1.99658-3.457,3.24571,3.24571,0,0,0-1.55811-3.01855q-1.85082-1.314-5.8916-1.168Z" transform="translate(-372.482 -1493.40456)" style="fill:#d86600"/><path d="M754.26562,1580.48863l11.39356,33.1084-12.0752,4.1875-2.38574-7.30273h-9.34863l-2.19092,7.15722-11.88037-5.55078,12.12354-30.6748Zm-3.99267,22.34864-3.5542-8.61817-3.65186,8.47168Z" transform="translate(-372.482 -1493.40456)" style="fill:#d86600"/></svg>