<svg id="Слой_1" data-name="Слой 1" xmlns="http://www.w3.org/2000/svg" viewBox="0 0 541.08 251"><title>carfloor_short</title><rect x="11.25" y="2.95" width="529.83" height="248.05" rx="12" ry="12" style="fill:#3a301f"/><rect width="529.83" height="248.05" rx="12" ry="12" style="fill:#fff"/><path d="M295.81,247l12.95-.73-1.7,35-11.25,1.27.73-27.66-9.64.63.59,27.08-9.84,1-1.51-35.79Z" transform="translate(-64.24 -201.78)" style="fill:#d86600"/><path d="M349.27,266.61q-.58,8.56-6.62,12.8a21.92,21.92,0,0,1-13,4.19A20.48,20.48,0,0,1,317,279.31q-5.66-4.19-5.5-12.7a18.25,18.25,0,0,1,2.09-8.33,23.68,23.68,0,0,1,5.26-6.47,22.26,22.26,0,0,1,7-4.14,19.2,19.2,0,0,1,7.55-1.37,18.45,18.45,0,0,1,4.58,1,16.83,16.83,0,0,1,5.5,3.21,18.35,18.35,0,0,1,4.38,6.18A22,22,0,0,1,349.27,266.61Zm-13.68-4.34c.2-.09.31-.17.34-.24a1.13,1.13,0,0,0,.29-.29,3.59,3.59,0,0,0,1.22-2.68,5,5,0,0,0-.83-2.58,1.79,1.79,0,0,0-.24-.22,3.58,3.58,0,0,1-.29-.27l-.22-.22a2,2,0,0,0-.27-.22,6.74,6.74,0,0,0-2.53-1,4.5,4.5,0,0,0-2.92.44,5.14,5.14,0,0,0-1.07.58,8,8,0,0,0-.83.59,3.93,3.93,0,0,0-1.27,2.87,5,5,0,0,0,1,2.73l.17.19a1,1,0,0,0,.17.2l.19.12a1.51,1.51,0,0,1,.2.17,5.26,5.26,0,0,0,6.91-.25Z" transform="translate(-64.24 -201.78)" style="fill:#d86600"/><path d="M352.68,283.6l7.84-36.08,14.41-1.22,13,30.34-12.17,1.46-5.6-15.83-2.68,20.21Z" transform="translate(-64.24 -201.78)" style="fill:#d86600"/><path d="M204.57,305.36l3.11,32.53-11.15,2.63-.82-17.72L186.11,342l-13-3.36.73-32.14H185l-1.65,16.22,9.59-17,11.64-1Z" transform="translate(-64.24 -201.78)" style="fill:#d86600"/><path d="M267.52,314.66q-9.5-1.61-13.78,2.1T250,324.55q.48,4.14,5.5,6.33t14.22-2.44l5.06,10.23a24,24,0,0,1-10.86,3.26,35.08,35.08,0,0,1-12.32-1.17,26.14,26.14,0,0,1-10.22-5.45,12.87,12.87,0,0,1-4.48-9.59A16.38,16.38,0,0,1,240,314.91a24.16,24.16,0,0,1,8.57-7.26,27,27,0,0,1,11.1-2.87A20.23,20.23,0,0,1,270.3,307Z" transform="translate(-64.24 -201.78)" style="fill:#d86600"/><path d="M309.2,305.36l3.12,32.53-11.15,2.63-.83-17.72L290.75,342l-13-3.36.73-32.14h11.15L288,322.75l9.59-17,11.64-1Z" transform="translate(-64.24 -201.78)" style="fill:#d86600"/><path d="M315.19,342.9l-1.12-6.62,35.4.25-1.12,6.37Zm20.21-41,13-.73-1.76,35L335.4,337.4l.78-27.65-9.64.63.58,27.12-9.89,1-1.46-35.83Z" transform="translate(-64.24 -201.78)" style="fill:#d86600"/><path d="M376.78,304.73l.29,10.52-13.63-.2.1,3.9,7-.39.05,6.43h-6.33l.15,4.48,13.14-.78.15,12.61-25,.73-2.09-37.25Z" transform="translate(-64.24 -201.78)" style="fill:#d86600"/><path d="M380.14,306.24l11.35-.68v12.56l8.32-.15V305.46l12.95-.73-1.7,35L399.81,341v-13.3l-8.32.2v13.14l-9.84,1Z" transform="translate(-64.24 -201.78)" style="fill:#d86600"/><path d="M447,305.36l3.12,32.53L439,340.52l-.83-17.72L428.54,342l-13-3.36.73-32.14h11.15l-1.66,16.22,9.6-17,11.63-1Z" transform="translate(-64.24 -201.78)" style="fill:#d86600"/><path d="M478.06,327.62l-2.44,0L464.71,342l-11.78-8.81,13.68-8.57a18.65,18.65,0,0,1-5.55-5.46,6.87,6.87,0,0,1-.73-6.52q1-2.43,4.68-4.19a36.07,36.07,0,0,1,8.13-2.63c1.56-.29,3.11-.53,4.65-.71s3.12-.29,4.75-.36a41,41,0,0,1,8.27.39l-1.75,34.38L477.52,341Zm.77-16.7c-2.72.09-4.64.55-5.74,1.36a2.74,2.74,0,0,0-1.46,2.73,5.1,5.1,0,0,0,2.14,2.92,11.13,11.13,0,0,0,5,1.85Z" transform="translate(-64.24 -201.78)" style="fill:#d86600"/><path d="M167.88,401.33l-1.12-6.62,35.4.24L201,401.33Zm20.21-41,13-.73-1.76,35-11.24,1.27.78-27.66-9.65.64.59,27.12-9.88,1-1.47-35.83Z" transform="translate(-64.24 -201.78)" style="fill:#d86600"/><path d="M203.23,400.46l7.84-36.08,14.41-1.22,13,30.33L226.31,395l-5.6-15.82L218,399.34Z" transform="translate(-64.24 -201.78)" style="fill:#d86600"/><path d="M266.48,386l-2.44,0-10.91,14.37-11.78-8.82L255,383.07a18.5,18.5,0,0,1-5.55-5.45,6.87,6.87,0,0,1-.73-6.52c.65-1.63,2.21-3,4.68-4.19a35.58,35.58,0,0,1,8.13-2.63c1.56-.29,3.11-.53,4.65-.71s3.12-.3,4.75-.36a41,41,0,0,1,8.27.39L277.48,398l-11.54,1.46Zm.78-16.7c-2.73.1-4.65.55-5.75,1.37a2.72,2.72,0,0,0-1.46,2.72,5.07,5.07,0,0,0,2.14,2.92,10.9,10.9,0,0,0,5,1.85Z" transform="translate(-64.24 -201.78)" style="fill:#d86600"/><path d="M308.59,400.46l7.84-36.08,14.41-1.22,13,30.33L331.67,395l-5.6-15.82-2.68,20.21Z" transform="translate(-64.24 -201.78)" style="fill:#d86600"/><path d="M384.45,383.46q-.58,8.58-6.62,12.81a22,22,0,0,1-13,4.19,20.48,20.48,0,0,1-12.61-4.29q-5.66-4.19-5.5-12.71a18.21,18.21,0,0,1,2.09-8.32,23.88,23.88,0,0,1,5.26-6.48,22.53,22.53,0,0,1,7-4.14,19.18,19.18,0,0,1,7.55-1.36,18.3,18.3,0,0,1,4.57,1,16.94,16.94,0,0,1,5.51,3.21,18.29,18.29,0,0,1,4.38,6.19A22,22,0,0,1,384.45,383.46Zm-13.68-4.33a.91.91,0,0,0,.34-.24,1.15,1.15,0,0,0,.29-.3,3.62,3.62,0,0,0,1.22-2.67,5,5,0,0,0-.83-2.58,1.79,1.79,0,0,0-.24-.22,2.44,2.44,0,0,1-.29-.27l-.22-.22a2,2,0,0,0-.27-.22,6.57,6.57,0,0,0-2.53-1,4.48,4.48,0,0,0-2.92.43,5.22,5.22,0,0,0-1.08.59,9.61,9.61,0,0,0-.82.58,4,4,0,0,0-1.27,2.88,5,5,0,0,0,1,2.72,1.51,1.51,0,0,1,.17.2l.17.19a1.06,1.06,0,0,1,.2.12l.19.17a5.29,5.29,0,0,0,6.92-.24Z" transform="translate(-64.24 -201.78)" style="fill:#d86600"/><path d="M387.91,401.33l-1.12-6.62,35.39.24-1.12,6.38Zm20.2-41,13-.73-1.75,35-11.25,1.27.78-27.66-9.64.64.59,27.12-9.89,1-1.46-35.83Z" transform="translate(-64.24 -201.78)" style="fill:#d86600"/><path d="M450.57,364l8.18,7.88-9.93,10.57,10,10.57-10.52,7.25-11-12.61.15,11.88-12.27.88-1.85-36.77,14.12-.53.09,18.16Z" transform="translate(-64.24 -201.78)" style="fill:#d86600"/><path d="M493.17,363.79l3.12,32.53L485.14,399l-.83-17.73-9.59,19.24-13-3.36.73-32.14H473.6L472,381.17l9.59-17,11.63-1Z" transform="translate(-64.24 -201.78)" style="fill:#d86600"/></svg>