<svg id="Слой_1" data-name="Слой 1" xmlns="http://www.w3.org/2000/svg" viewBox="0 0 541.08 148.31"><title>carboxes_short</title><rect x="11.25" y="1.74" width="529.83" height="146.57" rx="12" ry="12" style="fill:#3a301f"/><rect width="529.83" height="146.57" rx="12" ry="12" style="fill:#fff"/><path d="M177.46,316.64l8.33-6.33,6.82,9.05L198,306l11.39,1.9-18.89,35.4-8.37-6.09L189,326Z" transform="translate(-63.79 -253.32)" style="fill:#d86600"/><path d="M231.8,306.71l12.95-.74-1.7,35-11.25,1.27.73-27.66-9.64.64.58,27.07-9.83,1-1.51-35.79Z" transform="translate(-63.79 -253.32)" style="fill:#d86600"/><path d="M274,306l11.4,33.11-12.08,4.19L271,336H261.6l-2.19,7.16-11.88-5.56,12.12-30.67Zm-4,22.35-3.55-8.61-3.65,8.47Z" transform="translate(-63.79 -253.32)" style="fill:#d86600"/><path d="M315.74,306.85l8.18,7.89L314,325.3l10,10.57-10.52,7.26L302.4,330.51l.15,11.88-12.27.88-1.85-36.76,14.12-.54.09,18.17Z" transform="translate(-63.79 -253.32)" style="fill:#d86600"/><path d="M364.63,326.28q-.58,8.57-6.63,12.8a21.87,21.87,0,0,1-13,4.19A20.53,20.53,0,0,1,332.39,339q-5.64-4.2-5.5-12.71A18.26,18.26,0,0,1,329,318a23.62,23.62,0,0,1,5.25-6.47,22.37,22.37,0,0,1,7-4.14A19.23,19.23,0,0,1,348.8,306a18.45,18.45,0,0,1,4.58,1,16.9,16.9,0,0,1,5.5,3.21,18.35,18.35,0,0,1,4.38,6.18A22,22,0,0,1,364.63,326.28Zm-13.69-4.34a.78.78,0,0,0,.35-.24,1.59,1.59,0,0,0,.29-.29,3.61,3.61,0,0,0,1.21-2.68,5,5,0,0,0-.82-2.58l-.25-.22-.29-.27-.22-.22a1.39,1.39,0,0,0-.27-.21,6.53,6.53,0,0,0-2.53-1,4.51,4.51,0,0,0-2.92.44,6,6,0,0,0-1.07.58,9.56,9.56,0,0,0-.83.59,4,4,0,0,0-1.26,2.87,4.87,4.87,0,0,0,1,2.73l.17.19a1.51,1.51,0,0,0,.17.2,1,1,0,0,1,.19.12,1.51,1.51,0,0,1,.2.17,5.38,5.38,0,0,0,3.16,1.17A5.22,5.22,0,0,0,351,321.9Z" transform="translate(-63.79 -253.32)" style="fill:#d86600"/><path d="M368,307.63q2.64-.58,5.29-1c1.77-.27,3.57-.49,5.43-.66q5.55-.44,13.14,2.68,5.16,2.19,5.6,6.58t-3.7,6.76q6.63.78,9.54,3.95a9,9,0,0,1,2.54,6.81,10.41,10.41,0,0,1-3.46,6.67,14,14,0,0,1-8.72,3.56c-2.11.19-4.1.3-6,.32s-3.68-.06-5.4-.22-3.47-.39-5.23-.69-3.58-.66-5.43-1.12Zm13.59,11.44,1.95-.19a10.63,10.63,0,0,0,1.75-.34c1.1-.3,1.7-.81,1.8-1.56.13-1.4-.71-2.24-2.53-2.53-.91-.17-1.66-.27-2.24-.32a5,5,0,0,0-1.32,0Zm2.09,15.1a25.08,25.08,0,0,1,4.19-.3c2.08-.09,3.07-1,3-2.72q-.15-3-3.51-3.22c-1.1-.09-2-.15-2.72-.17a8.64,8.64,0,0,0-1.61.08Z" transform="translate(-63.79 -253.32)" style="fill:#d86600"/><path d="M436.54,306.85l8.18,7.89-9.93,10.56,10,10.57-10.52,7.26L423.2,330.51l.15,11.88-12.27.88-1.86-36.76,14.13-.54.09,18.17Z" transform="translate(-63.79 -253.32)" style="fill:#d86600"/><path d="M474.18,306l11.39,33.11-12.07,4.19-2.39-7.3h-9.35l-2.19,7.16-11.88-5.56,12.12-30.67Zm-4,22.35-3.55-8.61L463,328.18Z" transform="translate(-63.79 -253.32)" style="fill:#d86600"/></svg>