<svg id="Слой_1" data-name="Слой 1" xmlns="http://www.w3.org/2000/svg" viewBox="0 0 541.08 148.31"><title>carfloor_short</title><rect x="11.25" y="1.74" width="529.83" height="146.57" rx="12" ry="12" style="fill:#3a301f"/><rect width="529.83" height="146.57" rx="12" ry="12" style="fill:#fff"/><path d="M124.66,307.31l13-.73-1.7,35-11.25,1.27.73-27.66-9.64.64.58,27.07-9.83,1L105,308.09Z" transform="translate(-64.27 -253.92)" style="fill:#d86600"/><path d="M178.12,326.88q-.59,8.56-6.62,12.8a21.92,21.92,0,0,1-13,4.19,20.53,20.53,0,0,1-12.61-4.28q-5.65-4.18-5.5-12.71a18.25,18.25,0,0,1,2.09-8.33,23.83,23.83,0,0,1,5.26-6.47,22.15,22.15,0,0,1,7-4.14,19,19,0,0,1,7.55-1.36,17.86,17.86,0,0,1,4.57,1,16.94,16.94,0,0,1,5.51,3.21,18.29,18.29,0,0,1,4.38,6.19A22,22,0,0,1,178.12,326.88Zm-13.68-4.33c.19-.1.31-.18.34-.25a1,1,0,0,0,.29-.29,3.62,3.62,0,0,0,1.22-2.68,5,5,0,0,0-.83-2.58,2.85,2.85,0,0,0-.24-.22,2.44,2.44,0,0,1-.29-.27l-.22-.21a1.86,1.86,0,0,0-.27-.22,6.75,6.75,0,0,0-2.53-1,4.49,4.49,0,0,0-2.92.44,5.22,5.22,0,0,0-1.08.59,7.6,7.6,0,0,0-.82.58,3.93,3.93,0,0,0-1.27,2.87,5,5,0,0,0,1,2.73,1.45,1.45,0,0,1,.17.19c.05.07.11.13.17.2a1.06,1.06,0,0,1,.2.12l.19.17a5.29,5.29,0,0,0,6.92-.24Z" transform="translate(-64.27 -253.92)" style="fill:#d86600"/><path d="M181.53,343.87l7.84-36.08,14.41-1.21,13,30.33-12.17,1.46L199,322.55l-2.68,20.2Z" transform="translate(-64.27 -253.92)" style="fill:#d86600"/><path d="M246,308.23q2.64-.59,5.29-1t5.43-.65c3.7-.3,8.08.6,13.14,2.67q5.16,2.19,5.6,6.58c.32,2.89-.91,5.14-3.7,6.77,4.41.51,7.6,1.83,9.54,3.94a9,9,0,0,1,2.54,6.81,10.45,10.45,0,0,1-3.46,6.68,14,14,0,0,1-8.72,3.55c-2.11.19-4.1.3-6,.32s-3.68-.06-5.4-.22-3.47-.39-5.23-.68-3.58-.67-5.43-1.12Zm13.59,11.44,1.95-.19a10.63,10.63,0,0,0,1.75-.34q1.65-.43,1.8-1.56c.13-1.4-.71-2.24-2.53-2.53-.91-.16-1.66-.27-2.24-.32a4.49,4.49,0,0,0-1.32,0Zm2.09,15.1a25.08,25.08,0,0,1,4.19-.3c2.08-.09,3.07-1,3-2.72q-.15-3-3.51-3.22c-1.1-.09-2-.15-2.72-.17a8.64,8.64,0,0,0-1.61.08Z" transform="translate(-64.27 -253.92)" style="fill:#d86600"/><path d="M324.48,308.18a46.14,46.14,0,0,1,9.49-1.41,7.54,7.54,0,0,0,1.15-.15c.31-.06.65-.12,1-.17s.81-.08,1.29-.09,1.14,0,1.95,0a44.82,44.82,0,0,1,4.8.46c1.57.25,3.15.56,4.74,1a25.26,25.26,0,0,1,8.18,3.51,7.3,7.3,0,0,1,3.56,6.33,11.14,11.14,0,0,1-5.16,9.69,18,18,0,0,1-3.07,1.68c-1.17.5-2.39,1-3.65,1.36s-2.52.76-3.75,1.05-2.34.5-3.31.63l-.44,12.32-10.08-.1-.88-11.88-1.46-.14a22.23,22.23,0,0,1-5.65-1.54,28.56,28.56,0,0,1-5.35-3A11.34,11.34,0,0,1,312.7,318a7.51,7.51,0,0,1,3.55-6.33A25.94,25.94,0,0,1,324.48,308.18Zm-1.19,6.92a9.79,9.79,0,0,0-3.53,4.33c.42.39.9.85,1.43,1.39a10.25,10.25,0,0,0,1.9,1.46,8.08,8.08,0,0,0,2.46,1,6.55,6.55,0,0,0,3.12-.2l.24-8.91A9.21,9.21,0,0,0,323.29,315.1Zm20.42,9.83c.49-.13,1-.29,1.58-.49a17.34,17.34,0,0,0,1.66-.65c.54-.25,1.05-.5,1.53-.76a4.88,4.88,0,0,0,1.17-.82,6.88,6.88,0,0,0,1.46-1.76,4.61,4.61,0,0,0,.59-1.7,3.26,3.26,0,0,0-1.56-3,3.81,3.81,0,0,0-1.22-.49,14.61,14.61,0,0,0-1.73-.31c-.63-.08-1.3-.13-2-.15s-1.41,0-2.09,0Z" transform="translate(-64.27 -253.92)" style="fill:#d86600"/><path d="M362,317.24l8.33-6.33,6.81,9.06,5.41-13.39L394,308.47l-18.89,35.4-8.38-6.08,6.87-11.15Z" transform="translate(-64.27 -253.92)" style="fill:#d86600"/><path d="M409.3,332.14l.48,11.73-10.61-1.26-2.48-35.94c.9-.06,2-.09,3.21-.09s2.66,0,4.28.14a46.2,46.2,0,0,1,9.55,1.41,25.94,25.94,0,0,1,8.23,3.51,7.33,7.33,0,0,1,3.5,6.33,11.09,11.09,0,0,1-5.16,9.69,25.24,25.24,0,0,1-11,4.53Zm-1.37-6.48a11.09,11.09,0,0,0,4.82-2.48,5.6,5.6,0,0,0,2-3.46,3.25,3.25,0,0,0-1.56-3c-1.23-.87-3.2-1.26-5.89-1.17Z" transform="translate(-64.27 -253.92)" style="fill:#d86600"/><path d="M440.7,330.09l1.12,13.78-11.54-1L428,306.58l25.42,1.16.05,10.42-14.17-1Z" transform="translate(-64.27 -253.92)" style="fill:#d86600"/><path d="M493.63,326.88q-.58,8.56-6.62,12.8a21.92,21.92,0,0,1-13,4.19,20.56,20.56,0,0,1-12.62-4.28q-5.64-4.18-5.5-12.71a18.26,18.26,0,0,1,2.1-8.33,23.62,23.62,0,0,1,5.25-6.47,22.31,22.31,0,0,1,7-4.14,19,19,0,0,1,7.54-1.36,17.92,17.92,0,0,1,4.58,1,16.9,16.9,0,0,1,5.5,3.21,18.16,18.16,0,0,1,4.38,6.19A21.94,21.94,0,0,1,493.63,326.88ZM480,322.55a.88.88,0,0,0,.34-.25,1.14,1.14,0,0,0,.29-.29,3.61,3.61,0,0,0,1.21-2.68,5,5,0,0,0-.82-2.58l-.25-.22-.29-.27-.22-.21a1.78,1.78,0,0,0-.26-.22,6.8,6.8,0,0,0-2.54-1,4.51,4.51,0,0,0-2.92.44,5.39,5.39,0,0,0-1.07.59,8.35,8.35,0,0,0-.83.58,4,4,0,0,0-1.26,2.87,4.87,4.87,0,0,0,1,2.73l.17.19a1.51,1.51,0,0,0,.17.2.76.76,0,0,1,.19.12l.2.17a5.28,5.28,0,0,0,6.91-.24Z" transform="translate(-64.27 -253.92)" style="fill:#d86600"/><path d="M497,308.09l11.34-.69V320l8.33-.15V307.31l12.95-.73-1.71,35-11.24,1.27V329.56l-8.33.19V342.9l-9.84,1Z" transform="translate(-64.27 -253.92)" style="fill:#d86600"/><path d="M558.68,306.58l.29,10.51-13.64-.19.1,3.89,7-.39.05,6.43h-6.33l.15,4.48,13.15-.78.14,12.61-25,.73-2.1-37.25Z" transform="translate(-64.27 -253.92)" style="fill:#d86600"/></svg>