<svg id="63f12177-79c3-4c0d-8ee1-aab352f97101" data-name="не фанерные объекты наведение мышкой" xmlns="http://www.w3.org/2000/svg" viewBox="0 0 495.86719 168.04484"><title>chimney</title><rect x="10.30974" y="1.97512" width="485.55745" height="166.06972" rx="12" ry="12" style="fill:#3a301f"/><rect width="485.55745" height="166.06972" rx="12" ry="12" style="fill:#fff"/><path d="M1523.35791,308.306q2.40968-.53541,4.8418-.915,2.43163-.37866,4.97558-.60205,5.0874-.4021,12.04883,2.4541,4.72851,2.00829,5.13184,6.02441.4453,3.97192-3.3916,6.20264,6.06738.7141,8.74609,3.61426a8.26212,8.26212,0,0,1,2.32031,6.24755,9.54071,9.54071,0,0,1-3.168,6.11329,12.80573,12.80573,0,0,1-7.98828,3.25781q-2.90039.26733-5.48828.29a48.06135,48.06135,0,0,1-4.95312-.20117q-2.36572-.22266-4.79688-.62452-2.43311-.40136-4.97559-1.02636Zm12.4502,10.48632q.9375-.08862,1.78515-.17822a8.99866,8.99866,0,0,0,1.60645-.3125q1.51611-.40137,1.65136-1.42773.17725-1.91822-2.32031-2.3208-1.251-.22266-2.05273-.29a4.36147,4.36147,0,0,0-1.20508.02246Zm1.91894,13.8335a23.2718,23.2718,0,0,1,3.83789-.26758q2.855-.134,2.72168-2.499-.13331-2.72168-3.21289-2.94531-1.51758-.134-2.499-.15625a7.98131,7.98131,0,0,0-1.47266.06689Z" transform="translate(-1416.79211 -273.65091)" style="fill:#d86600"/><path d="M1571.77393,307.369l6.248,9.54932,8.03223-10.12939,9.77246,5.26562-12.00391,12.44971,9.19239,10.53125-8.03223,5.93506-7.13965-10.48682-6.4707,8.43408-10.26367-5.31006,10.4873-11.11132-8.38965-11.91456Z" transform="translate(-1416.79211 -273.65091)" style="fill:#d86600"/><path d="M1633.17725,325.39684q-.53615,7.85448-6.06934,11.73584a20.0886,20.0886,0,0,1-11.91406,3.83789,18.77895,18.77895,0,0,1-11.55762-3.92676q-5.17675-3.83717-5.043-11.647a16.76236,16.76236,0,0,1,1.91895-7.63086,21.783,21.783,0,0,1,4.81933-5.93457,20.52025,20.52025,0,0,1,6.42578-3.79346,17.5274,17.5274,0,0,1,6.917-1.249,16.75957,16.75957,0,0,1,4.19433.937,15.44445,15.44445,0,0,1,5.043,2.94482,16.72193,16.72193,0,0,1,4.01563,5.66748A20.10607,20.10607,0,0,1,1633.17725,325.39684Zm-12.53907-3.97168a.73415.73415,0,0,0,.31153-.22315,1.14909,1.14909,0,0,0,.26855-.26758,3.315,3.315,0,0,0,1.11524-2.4541,4.64365,4.64365,0,0,0-.75879-2.36523q-.08936-.08862-.22266-.20069c-.08984-.07421-.17871-.15625-.26855-.2456-.05957-.05908-.126-.126-.2002-.20069a1.67685,1.67685,0,0,0-.24512-.20068,6.10207,6.10207,0,0,0-2.32129-.89258,4.11493,4.11493,0,0,0-2.67675.40137,4.84114,4.84114,0,0,0-.98243.53564,8.51885,8.51885,0,0,0-.75781.53565,3.62688,3.62688,0,0,0-1.16015,2.63281,4.51617,4.51617,0,0,0,.93652,2.49854,1.80894,1.80894,0,0,1,.15625.17871,1.65545,1.65545,0,0,0,.15625.17871,1.24028,1.24028,0,0,1,.17871.11133,1.9282,1.9282,0,0,1,.17871.15625,4.86154,4.86154,0,0,0,2.90039,1.0708,4.81074,4.81074,0,0,0,3.43555-1.29395Z" transform="translate(-1416.79211 -273.65091)" style="fill:#d86600"/><path d="M1636.34424,341.77379l-1.02637-6.06885,32.44141.22315-1.02637,5.8457Zm18.51855-37.61768,11.915-.66943-1.60644,32.08447-10.3086,1.16016.71387-25.34619-8.835.58008.53516,24.85546-9.0586.89258L1636.87939,304.87Z" transform="translate(-1416.79211 -273.65091)" style="fill:#d86600"/><path d="M1692.92627,341.77379l-1.02637-6.06885,32.44141.22315-1.02637,5.8457Zm18.51855-37.61768,11.915-.66943-1.60644,32.08447-10.3086,1.16016.71387-25.34619-8.835.58008.53516,24.85546-9.0586.89258L1693.46143,304.87Z" transform="translate(-1416.79211 -273.65091)" style="fill:#d86600"/><path d="M1725.32275,340.97057l7.18457-33.06641,13.209-1.11523,11.91406,27.80029-11.15527,1.33887-5.13184-14.50293-2.4541,18.519Z" transform="translate(-1416.79211 -273.65091)" style="fill:#d86600"/><path d="M1783.28857,327.76207l-2.23144.04443-9.99609,13.16407-10.79883-8.07715,12.54-7.85352a16.9787,16.9787,0,0,1-5.08789-4.998,6.27748,6.27748,0,0,1-.66895-5.9795q.89209-2.231,4.28418-3.8374a32.71,32.71,0,0,1,7.45215-2.40967q2.1416-.40209,4.26074-.64746,2.11964-.24462,4.35156-.33447a37.72289,37.72289,0,0,1,7.58594.35693l-1.60644,31.5044-10.57618,1.33886Zm.71387-15.30615q-3.74853.134-5.26562,1.24951a2.50611,2.50611,0,0,0-1.33887,2.499,4.6676,4.6676,0,0,0,1.96387,2.67725,10.09848,10.09848,0,0,0,4.55175,1.6958Z" transform="translate(-1416.79211 -273.65091)" style="fill:#d86600"/><path d="M1479.8501,369.44078q-8.70117-1.4729-12.62891,1.91895-3.92724,3.34643-3.48047,7.13964.44532,3.79322,5.043,5.80127,4.59522,2.00757,13.03027-2.23144l4.64063,9.37109a22.03567,22.03567,0,0,1-9.95117,2.98975,32.36676,32.36676,0,0,1-11.29-1.0708,24.08336,24.08336,0,0,1-9.37109-4.998,11.80535,11.80535,0,0,1-4.10547-8.791,14.98736,14.98736,0,0,1,2.90039-9.90625,22.04433,22.04433,0,0,1,7.85449-6.64893,24.77473,24.77473,0,0,1,10.17383-2.63281A18.42657,18.42657,0,0,1,1482.394,362.39Z" transform="translate(-1416.79211 -273.65091)" style="fill:#d86600"/><path d="M1513.49561,360.33775,1523.938,390.6815l-11.06641,3.83789-2.1875-6.69335h-8.56738l-2.00781,6.55957-10.88868-5.08741,11.11133-28.11279Zm-3.65918,20.48194-3.25684-7.89844-3.34766,7.76465Z" transform="translate(-1416.79211 -273.65091)" style="fill:#d86600"/><path d="M1526.70459,361.72105l10.39746-.625v11.51319l7.63086-.13379V361.0067l11.87012-.66895-1.5625,32.08448-10.30762,1.16015V381.39977l-7.63086.17871v12.04834l-9.01367.89257Z" transform="translate(-1416.79211 -273.65091)" style="fill:#d86600"/><path d="M1559.41357,362.078l30.7461-1.74024.53613,15.43946-11.73633-.62451,3.52539,19.36669-15.083-1.60644,2.58789-17.40332-10.84375.3125Z" transform="translate(-1416.79211 -273.65091)" style="fill:#d86600"/><path d="M1617.60205,360.33775l10.44238,30.34375-11.0664,3.83789-2.1875-6.69335h-8.56739l-2.00781,6.55957-10.88867-5.08741,11.11133-28.11279Zm-3.65918,20.48194-3.25683-7.89844-3.34766,7.76465Z" transform="translate(-1416.79211 -273.65091)" style="fill:#d86600"/><path d="M1679.98584,361.141l7.49707,7.229-9.10352,9.68311,9.14747,9.68359-9.63868,6.64893-10.1289-11.55762.13379,10.88818-11.24512.80322-1.69629-33.69091,12.94141-.49073.08886,16.64454Z" transform="translate(-1416.79211 -273.65091)" style="fill:#d86600"/><path d="M1690.20459,394.51939l7.18457-33.0664,13.209-1.11524,11.91407,27.8003-11.15528,1.33886L1706.2251,374.974l-2.4541,18.519Z" transform="translate(-1416.79211 -273.65091)" style="fill:#d86600"/><path d="M1749.41943,360.33775l10.44239,30.34375-11.06641,3.83789-2.1875-6.69335h-8.56738l-2.00782,6.55957L1725.144,389.2982l11.11133-28.11279Zm-3.65918,20.48194-3.25683-7.89844-3.34766,7.76465Z" transform="translate(-1416.79211 -273.65091)" style="fill:#d86600"/><path d="M1762.62842,370.11021l7.63086-5.80126,6.24707,8.30029,4.95312-12.27149,10.44239,1.74024-17.31446,32.4414-7.6748-5.57812,6.292-10.21875Z" transform="translate(-1416.79211 -273.65091)" style="fill:#d86600"/><path d="M1822.51318,369.44078q-8.70117-1.4729-12.6289,1.91895-3.92725,3.34643-3.48047,7.13964.4453,3.79322,5.043,5.80127,4.59521,2.00757,13.03027-2.23144l4.64063,9.37109a22.03571,22.03571,0,0,1-9.95118,2.98975,32.36678,32.36678,0,0,1-11.29-1.0708,24.08343,24.08343,0,0,1-9.37109-4.998,11.80539,11.80539,0,0,1-4.10547-8.791,14.98742,14.98742,0,0,1,2.90039-9.90625,22.04437,22.04437,0,0,1,7.8545-6.64893,24.77473,24.77473,0,0,1,10.17382-2.63281,18.4266,18.4266,0,0,1,9.72852,2.00781Z" transform="translate(-1416.79211 -273.65091)" style="fill:#d86600"/><path d="M1856.15869,360.33775l10.44238,30.34375-11.0664,3.83789-2.1875-6.69335h-8.56738l-2.00782,6.55957-10.88867-5.08741,11.11133-28.11279Zm-3.65918,20.48194-3.25683-7.89844-3.34766,7.76465Z" transform="translate(-1416.79211 -273.65091)" style="fill:#d86600"/></svg>