<svg id="Слой_1" data-name="Слой 1" xmlns="http://www.w3.org/2000/svg" viewBox="0 0 495.87 168.04"><title>chemni_short</title><rect x="10.31" y="1.98" width="485.56" height="166.07" rx="12" ry="12" style="fill:#3a301f"/><rect width="485.56" height="166.07" rx="12" ry="12" style="fill:#fff"/><path d="M193.36,278.31c1.6-.36,3.22-.67,4.84-.92s3.28-.45,5-.6q5.08-.41,12,2.45,4.74,2,5.14,6c.29,2.65-.84,4.71-3.4,6.2q6.07.72,8.75,3.61a8.25,8.25,0,0,1,2.32,6.25,9.55,9.55,0,0,1-3.17,6.12,12.76,12.76,0,0,1-8,3.25c-1.93.18-3.76.28-5.48.29a46.71,46.71,0,0,1-5-.2c-1.57-.15-3.17-.36-4.79-.62s-3.28-.61-5-1Zm12.45,10.48,1.78-.18a9,9,0,0,0,1.61-.31c1-.27,1.56-.74,1.65-1.43.12-1.27-.65-2.05-2.32-2.32-.83-.15-1.52-.24-2.05-.29a4.47,4.47,0,0,0-1.21,0Zm1.92,13.84a22.92,22.92,0,0,1,3.83-.27c1.91-.09,2.82-.92,2.73-2.5q-.14-2.73-3.22-2.95c-1-.09-1.84-.14-2.5-.15a8.48,8.48,0,0,0-1.47.06Z" transform="translate(-86.79 -243.65)" style="fill:#d86600"/><path d="M241.77,277.37l6.25,9.55,8-10.13,9.78,5.26-12,12.45L263,305,255,311l-7.14-10.49-6.47,8.44-10.26-5.31L241.6,292.5l-8.39-11.92Z" transform="translate(-86.79 -243.65)" style="fill:#d86600"/><path d="M303.18,295.4q-.54,7.85-6.07,11.73A20.09,20.09,0,0,1,285.19,311,18.76,18.76,0,0,1,273.64,307c-3.45-2.55-5.14-6.44-5.05-11.64a16.74,16.74,0,0,1,1.92-7.63,22,22,0,0,1,4.82-5.94,20.65,20.65,0,0,1,6.43-3.79,17.52,17.52,0,0,1,6.91-1.25,16.66,16.66,0,0,1,4.2.94,15.27,15.27,0,0,1,5,2.94,16.7,16.7,0,0,1,4,5.67A20.1,20.1,0,0,1,303.18,295.4Zm-12.54-4a.72.72,0,0,0,.31-.23,1.15,1.15,0,0,0,.27-.27,3.31,3.31,0,0,0,1.11-2.45,4.58,4.58,0,0,0-.76-2.36,2.32,2.32,0,0,0-.22-.21l-.27-.24-.2-.2a1.16,1.16,0,0,0-.24-.2,6.11,6.11,0,0,0-2.32-.9,4.16,4.16,0,0,0-2.68.41,4.35,4.35,0,0,0-1,.53,8.29,8.29,0,0,0-.76.54,3.63,3.63,0,0,0-1.16,2.63,4.5,4.5,0,0,0,.94,2.5,1.19,1.19,0,0,1,.15.18l.16.18a.87.87,0,0,1,.18.11l.18.15a4.84,4.84,0,0,0,6.33-.22Z" transform="translate(-86.79 -243.65)" style="fill:#d86600"/><path d="M306.34,311.77l-1-6.07,32.44.23-1,5.84Zm18.52-37.61,11.92-.67-1.61,32.08-10.31,1.16.72-25.34-8.84.58.54,24.85-9.06.89-1.34-32.84Z" transform="translate(-86.79 -243.65)" style="fill:#d86600"/><path d="M362.93,311.77l-1-6.07,32.44.23-1,5.84Zm18.51-37.61,11.92-.67-1.61,32.08-10.31,1.16.72-25.34-8.84.58.54,24.85-9.06.89-1.34-32.84Z" transform="translate(-86.79 -243.65)" style="fill:#d86600"/><path d="M395.32,311l7.19-33.07,13.21-1.11,11.91,27.8-11.15,1.34-5.14-14.5-2.45,18.51Z" transform="translate(-86.79 -243.65)" style="fill:#d86600"/><path d="M453.29,297.76l-2.23.05-10,13.16-10.8-8.08L442.8,295a17,17,0,0,1-5.09-5,6.28,6.28,0,0,1-.66-6q.88-2.22,4.28-3.84a32.56,32.56,0,0,1,7.45-2.4c1.43-.27,2.85-.49,4.26-.65s2.87-.28,4.35-.34a37.39,37.39,0,0,1,7.59.36l-1.61,31.5L452.8,310Zm.71-15.3c-2.5.09-4.25.5-5.26,1.25a2.48,2.48,0,0,0-1.34,2.49,4.64,4.64,0,0,0,2,2.68,10.19,10.19,0,0,0,4.55,1.7Z" transform="translate(-86.79 -243.65)" style="fill:#d86600"/><path d="M149.85,339.44q-8.7-1.47-12.63,1.92t-3.48,7.14q.45,3.79,5,5.8t13-2.23l4.64,9.37a22,22,0,0,1-9.95,3,32.37,32.37,0,0,1-11.29-1.07,24.11,24.11,0,0,1-9.37-5,11.8,11.8,0,0,1-4.1-8.79,15,15,0,0,1,2.9-9.91,22.15,22.15,0,0,1,7.85-6.65,25,25,0,0,1,10.18-2.63,18.36,18.36,0,0,1,9.72,2Z" transform="translate(-86.79 -243.65)" style="fill:#d86600"/><path d="M183.5,330.34l10.44,30.34-11.07,3.84-2.19-6.69h-8.56l-2,6.56-10.89-5.09,11.11-28.11Zm-3.66,20.48-3.26-7.9-3.35,7.77Z" transform="translate(-86.79 -243.65)" style="fill:#d86600"/><path d="M196.7,331.72l10.4-.62v11.51l7.63-.13V331l11.87-.67L225,362.42l-10.31,1.16V351.4l-7.63.18v12.05l-9,.89Z" transform="translate(-86.79 -243.65)" style="fill:#d86600"/><path d="M229.41,332.08l30.75-1.74.54,15.44L249,345.15l3.52,19.37-15.08-1.61,2.59-17.4-10.84.31Z" transform="translate(-86.79 -243.65)" style="fill:#d86600"/><path d="M287.6,330.34,298,360.68,287,364.52l-2.19-6.69h-8.57l-2,6.56-10.89-5.09,11.11-28.11Zm-3.66,20.48-3.25-7.9-3.35,7.77Z" transform="translate(-86.79 -243.65)" style="fill:#d86600"/><path d="M350,331.14l7.49,7.23-9.1,9.68,9.15,9.69-9.64,6.65-10.13-11.56.13,10.89-11.24.8L325,330.83l12.94-.49L338,347Z" transform="translate(-86.79 -243.65)" style="fill:#d86600"/><path d="M360.2,364.52l7.19-33.07,13.21-1.11,11.91,27.8-11.15,1.34L376.23,345l-2.46,18.52Z" transform="translate(-86.79 -243.65)" style="fill:#d86600"/><path d="M419.42,330.34l10.44,30.34-11.06,3.84-2.19-6.69H408l-2,6.56-10.89-5.09,11.12-28.11Zm-3.66,20.48-3.26-7.9-3.34,7.77Z" transform="translate(-86.79 -243.65)" style="fill:#d86600"/><path d="M432.63,340.11l7.63-5.8,6.25,8.3,4.95-12.27,10.44,1.74-17.31,32.44-7.68-5.58,6.29-10.22Z" transform="translate(-86.79 -243.65)" style="fill:#d86600"/><path d="M492.51,339.44q-8.7-1.47-12.63,1.92t-3.48,7.14q.45,3.79,5.05,5.8t13-2.23l4.64,9.37a22.06,22.06,0,0,1-9.95,3,32.35,32.35,0,0,1-11.29-1.07,24,24,0,0,1-9.37-5,11.81,11.81,0,0,1-4.11-8.79,15,15,0,0,1,2.9-9.91,22.15,22.15,0,0,1,7.85-6.65,25,25,0,0,1,10.18-2.63,18.4,18.4,0,0,1,9.73,2Z" transform="translate(-86.79 -243.65)" style="fill:#d86600"/><path d="M526.16,330.34l10.44,30.34-11.07,3.84-2.18-6.69h-8.57l-2,6.56-10.89-5.09L513,331.19Zm-3.66,20.48-3.26-7.9-3.34,7.77Z" transform="translate(-86.79 -243.65)" style="fill:#d86600"/></svg>