<svg id="Слой_1" data-name="Слой 1" xmlns="http://www.w3.org/2000/svg" viewBox="0 0 495.87 249.54"><title>elf_short</title><rect x="10.31" y="2.93" width="485.56" height="246.61" rx="12" ry="12" style="fill:#3a301f"/><rect width="485.56" height="246.61" rx="12" ry="12" style="fill:#fff"/><path d="M506,114.08l5.35,13.7,3.44-14.24,11-2.59,6,30.53-10.44,3.66L519.44,126l-5,18-5.67,0-5.85-16.73-.67,17.27-11-1.7,3.35-31Z" transform="translate(-402.95 -58.82)" style="fill:#d86600"/><path d="M559.07,111l10.44,30.35-11.07,3.84-2.18-6.7h-8.57l-2,6.56-10.89-5.09L545.9,111.8Zm-3.66,20.49-3.26-7.9-3.35,7.76Z" transform="translate(-402.95 -58.82)" style="fill:#d86600"/><path d="M572.28,145.14l7.18-33.07L592.67,111l11.91,27.8-11.15,1.34-5.13-14.5-2.46,18.52Z" transform="translate(-402.95 -58.82)" style="fill:#d86600"/><path d="M631.27,111l.27,9.64-12.5-.18.09,3.57,6.38-.35,0,5.89h-5.8l.13,4.1,12.05-.71.13,11.56-22.93.67L607.22,111Z" transform="translate(-402.95 -58.82)" style="fill:#d86600"/><path d="M634.35,112.34l10.39-.63v11.51l7.64-.13V111.62l11.87-.67L662.68,143l-10.3,1.16V132l-7.64.17v12.05l-9,.9Z" transform="translate(-402.95 -58.82)" style="fill:#d86600"/><path d="M677.45,122.11a23.28,23.28,0,0,1,10.09,4.15,7.94,7.94,0,0,1,1.87,1.74,7.18,7.18,0,0,1,1,1.9,7.53,7.53,0,0,1,.42,2.16c0,.77.07,1.62.07,2.54v1.81a8.86,8.86,0,0,1-.16,1.74,5.05,5.05,0,0,1-.55,1.54,3.68,3.68,0,0,1-1.21,1.25,23.62,23.62,0,0,1-7.5,3.21,48.92,48.92,0,0,1-8.74,1.34,52.24,52.24,0,0,1-6.92,0l2.32-32.93,9.69-1.16-.41,10.75Zm-1.83,15.26q3.71.13,5.4-1.07a3,3,0,0,0,1.43-2.77,5.37,5.37,0,0,0-1.87-3.12,10.28,10.28,0,0,0-4.38-2.32Z" transform="translate(-402.95 -58.82)" style="fill:#d86600"/><path d="M720.56,111.76l7.5,7.23L719,128.67l9.15,9.68L718.46,145l-10.13-11.56.14,10.89-11.25.81-1.69-33.7,12.94-.49.09,16.65Z" transform="translate(-402.95 -58.82)" style="fill:#d86600"/><path d="M759.61,111.53l2.85,29.81-10.22,2.41-.76-16.24-8.79,17.63-11.91-3.08.67-29.46h10.22l-1.52,14.86,8.79-15.61,10.67-.9Z" transform="translate(-402.95 -58.82)" style="fill:#d86600"/><path d="M793.88,111.53l2.85,29.81-10.22,2.41-.76-16.24L777,145.14l-11.91-3.08.67-29.46h10.22l-1.52,14.86,8.79-15.61,10.67-.9Zm-19-10.08,14.82-.45-.9,5.71-13.92,1.34Z" transform="translate(-402.95 -58.82)" style="fill:#d86600"/><path d="M509.87,165.17l11.87-.67-1.56,32.09-10.31,1.16.67-25.35-8.84.58.54,24.81-9,.89-1.39-32.79Z" transform="translate(-402.95 -58.82)" style="fill:#d86600"/><path d="M558.87,183.11q-.54,7.86-6.07,11.74a20.14,20.14,0,0,1-11.92,3.83,18.75,18.75,0,0,1-11.55-3.92q-5.18-3.84-5.05-11.65a16.74,16.74,0,0,1,1.92-7.63,22,22,0,0,1,4.82-5.94,20.65,20.65,0,0,1,6.43-3.79,17.53,17.53,0,0,1,6.92-1.25,16.6,16.6,0,0,1,4.19.94,15.44,15.44,0,0,1,5,2.94,16.7,16.7,0,0,1,4,5.67A20.1,20.1,0,0,1,558.87,183.11Zm-12.54-4a.73.73,0,0,0,.31-.22,1.15,1.15,0,0,0,.27-.27,3.33,3.33,0,0,0,1.11-2.46,4.66,4.66,0,0,0-.75-2.36l-.23-.2-.27-.25-.2-.2a1.59,1.59,0,0,0-.24-.2,6.1,6.1,0,0,0-2.32-.89,4.08,4.08,0,0,0-2.68.4,4.77,4.77,0,0,0-1,.54,7.21,7.21,0,0,0-.76.53,3.63,3.63,0,0,0-1.16,2.63,4.47,4.47,0,0,0,.94,2.5,1.19,1.19,0,0,1,.15.18l.16.18.18.11.18.16a4.89,4.89,0,0,0,2.9,1.07,4.77,4.77,0,0,0,3.43-1.3Z" transform="translate(-402.95 -58.82)" style="fill:#d86600"/><path d="M576.72,167.63l5.35,13.7,3.44-14.24,11-2.59,6,30.52L592,198.68l-1.83-19.1-5,18-5.67,0-5.85-16.73L573,198.15l-11-1.7,3.35-31Z" transform="translate(-402.95 -58.82)" style="fill:#d86600"/><path d="M640.13,183.11q-.54,7.86-6.07,11.74a20.14,20.14,0,0,1-11.92,3.83,18.75,18.75,0,0,1-11.55-3.92q-5.19-3.84-5.05-11.65a16.74,16.74,0,0,1,1.92-7.63,22,22,0,0,1,4.82-5.94,20.65,20.65,0,0,1,6.43-3.79,17.52,17.52,0,0,1,6.91-1.25,16.66,16.66,0,0,1,4.2.94,15.55,15.55,0,0,1,5,2.94,16.7,16.7,0,0,1,4,5.67A20.24,20.24,0,0,1,640.13,183.11Zm-12.54-4a.73.73,0,0,0,.31-.22,1.15,1.15,0,0,0,.27-.27,3.33,3.33,0,0,0,1.11-2.46,4.58,4.58,0,0,0-.76-2.36,2.3,2.3,0,0,0-.22-.2l-.27-.25-.2-.2a1.59,1.59,0,0,0-.24-.2,6.1,6.1,0,0,0-2.32-.89,4.08,4.08,0,0,0-2.68.4,4.77,4.77,0,0,0-1,.54,7.21,7.21,0,0,0-.76.53,3.63,3.63,0,0,0-1.16,2.63,4.47,4.47,0,0,0,.94,2.5,1.19,1.19,0,0,1,.15.18l.16.18.18.11.18.16a4.89,4.89,0,0,0,2.9,1.07,4.77,4.77,0,0,0,3.43-1.3Z" transform="translate(-402.95 -58.82)" style="fill:#d86600"/><path d="M661.28,197.75l-16.65.93-1.38-32.79,10.4-.63.26,26.82,7.5-.67-.13-26.24,11.87-.67-.27,25.62,7.5,2.18.67-28.69,5.53-.22,4.64-.23.67,29.81a3.34,3.34,0,0,0,1.07,1,11.1,11.1,0,0,0,1.76.92c.67.28,1.41.56,2.21.82s1.62.51,2.46.72c.15.06.25.29.31.69a10.59,10.59,0,0,1,.09,1.52c0,.61,0,1.25-.07,1.94s-.09,1.31-.13,1.89-.11,1.28-.2,2.08l-17-1-.67-5.66Z" transform="translate(-402.95 -58.82)" style="fill:#d86600"/><path d="M700.37,165.89l10.4-.63v11.51l7.63-.13V165.17l11.87-.67-1.57,32.09-10.3,1.16V185.56l-7.63.18v12l-9,.89Z" transform="translate(-402.95 -58.82)" style="fill:#d86600"/><path d="M761.64,165.08l2.85,29.81-10.22,2.41-.76-16.24-8.79,17.62-11.91-3.08.67-29.45H743.7L742.18,181,751,165.39l10.67-.89Z" transform="translate(-402.95 -58.82)" style="fill:#d86600"/><path d="M792.11,165.31l7.5,7.22-9.1,9.69,9.15,9.68L790,198.55,779.89,187l.13,10.89-11.24.8L767.08,165,780,164.5l.09,16.65Z" transform="translate(-402.95 -58.82)" style="fill:#d86600"/><path d="M596.57,227.15q-8.7-1.47-12.62,1.92t-3.49,7.14q.45,3.79,5,5.8t13-2.23l4.64,9.37a21.93,21.93,0,0,1-9.95,3,32.35,32.35,0,0,1-11.29-1.07,23.91,23.91,0,0,1-9.37-5,11.81,11.81,0,0,1-4.11-8.79,15,15,0,0,1,2.9-9.9,21.9,21.9,0,0,1,7.86-6.65,24.55,24.55,0,0,1,10.17-2.63,18.49,18.49,0,0,1,9.73,2Z" transform="translate(-402.95 -58.82)" style="fill:#d86600"/><path d="M630.22,218.05l10.44,30.34-11.06,3.84-2.19-6.69h-8.57l-2,6.56L605.94,247l11.12-28.11Zm-3.66,20.48-3.26-7.9L620,238.4Z" transform="translate(-402.95 -58.82)" style="fill:#d86600"/><path d="M643.43,219.43l10.4-.62v11.51l7.63-.13V218.72l11.87-.67-1.57,32.09-10.3,1.16V239.11l-7.63.18v12.05l-9,.89Z" transform="translate(-402.95 -58.82)" style="fill:#d86600"/><path d="M676.14,219.79l30.74-1.74.54,15.44-11.74-.62,3.53,19.36-15.08-1.6,2.58-17.41-10.84.31Z" transform="translate(-402.95 -58.82)" style="fill:#d86600"/><path d="M720.81,229.52a23.49,23.49,0,0,1,10.08,4.15,7.94,7.94,0,0,1,1.87,1.74,7,7,0,0,1,1,1.9,7.46,7.46,0,0,1,.42,2.16c0,.77.07,1.62.07,2.54v1.81a9.72,9.72,0,0,1-.15,1.74,5.17,5.17,0,0,1-.56,1.54,3.68,3.68,0,0,1-1.21,1.25,23.08,23.08,0,0,1-7.49,3.21q-2.19.54-4.35.87a37.67,37.67,0,0,1-4.4.43c-1.49.09-2.8.13-4,.13s-2.12,0-2.92-.09L711.52,220l9.69-1.16-.4,10.75ZM719,244.78q3.69.14,5.39-1.07a3,3,0,0,0,1.43-2.77,4.44,4.44,0,0,0-.53-1.56,6.76,6.76,0,0,0-1.34-1.61,10.16,10.16,0,0,0-4.37-2.27Zm17.35,7.54,11.34-.4.62-32.93-12.8-.89Z" transform="translate(-402.95 -58.82)" style="fill:#d86600"/></svg>