<svg id="Слой_1" data-name="Слой 1" xmlns="http://www.w3.org/2000/svg" viewBox="0 0 495.87 249.54"><title>fir_short</title><rect x="10.31" y="2.93" width="485.56" height="246.61" rx="12" ry="12" style="fill:#3a301f"/><rect width="485.56" height="246.61" rx="12" ry="12" style="fill:#fff"/><path d="M240,254.62l24.72-1.92,1.2,10.13-7.09,5.31a9.31,9.31,0,0,1,6.07,2.23,8.06,8.06,0,0,1,2.67,6.38,7.53,7.53,0,0,1-3.48,6.87,20,20,0,0,1-8.3,2.95,37.78,37.78,0,0,1-9.86,0,32.2,32.2,0,0,1-7.94-1.78l2.72-10.27a9.77,9.77,0,0,0,3,1.83,15,15,0,0,0,4.65,1.25,7,7,0,0,0,4.19-.62c1.25-.57,1.87-1.85,1.87-3.84a1.94,1.94,0,0,0-1.2-1.65,14.58,14.58,0,0,0-2.86-1.12c-.53-.14-1.08-.26-1.62-.35s-1.1-.17-1.63-.23a10.94,10.94,0,0,0-2.59-.09l-.14-2.76,15-7-17.8,3.57Z" transform="translate(-87 -203.23)" style="fill:#d86600"/><path d="M298.94,253.28l2.86,29.81-10.22,2.41-.76-16.25L282,286.88l-11.91-3.08.67-29.45H281l-1.52,14.86,8.79-15.62,10.66-.89Z" transform="translate(-87 -203.23)" style="fill:#d86600"/><path d="M319.11,255.82l5.36,13.7,3.43-14.23,11-2.59,6,30.52-10.44,3.66-1.83-19.1-5,18-5.67.05-5.84-16.73-.67,17.27-11-1.7,3.34-31Z" transform="translate(-87 -203.23)" style="fill:#d86600"/><path d="M382.52,271.31q-.52,7.85-6.07,11.73a20.06,20.06,0,0,1-11.91,3.84A18.79,18.79,0,0,1,353,283c-3.45-2.55-5.13-6.44-5-11.64a16.74,16.74,0,0,1,1.92-7.63,21.77,21.77,0,0,1,4.82-5.94A20.49,20.49,0,0,1,361.1,254,17.56,17.56,0,0,1,368,252.7a16.66,16.66,0,0,1,4.2.94,15.37,15.37,0,0,1,5,2.94,16.82,16.82,0,0,1,4,5.67A20.1,20.1,0,0,1,382.52,271.31Zm-12.54-4a.78.78,0,0,0,.32-.23,1.08,1.08,0,0,0,.26-.27,3.28,3.28,0,0,0,1.12-2.45,4.64,4.64,0,0,0-.76-2.37l-.22-.2a2.91,2.91,0,0,1-.27-.24l-.2-.2a1.57,1.57,0,0,0-.25-.2,6,6,0,0,0-2.32-.9,4.14,4.14,0,0,0-2.67.41,4.45,4.45,0,0,0-1,.53,9.06,9.06,0,0,0-.75.54,3.6,3.6,0,0,0-1.16,2.63,4.56,4.56,0,0,0,.93,2.5l.16.18a1.29,1.29,0,0,0,.16.18.82.82,0,0,1,.17.11,1.19,1.19,0,0,1,.18.15,4.85,4.85,0,0,0,6.34-.22Z" transform="translate(-87 -203.23)" style="fill:#d86600"/><path d="M414.47,253.28l2.86,29.81-10.22,2.41-.76-16.25-8.79,17.63-11.91-3.08.67-29.45h10.21L395,269.21l8.79-15.62,10.66-.89Zm-19-10.09,14.81-.44-.89,5.71-13.92,1.34Z" transform="translate(-87 -203.23)" style="fill:#d86600"/><path d="M241.63,306.83l2.85,29.81-10.22,2.41-.75-16.25-8.8,17.63-11.91-3.08.67-29.45h10.22l-1.52,14.86L231,307.14l10.67-.89Z" transform="translate(-87 -203.23)" style="fill:#d86600"/><path d="M271.21,340.43l7.19-33.07,13.2-1.11,11.92,27.8-11.16,1.34-5.13-14.51-2.45,18.52Z" transform="translate(-87 -203.23)" style="fill:#d86600"/><path d="M330.2,306.25l.27,9.64L318,315.71l.09,3.57,6.38-.36,0,5.89h-5.8l.13,4.11,12.05-.72.14,11.56-22.94.67-1.92-34.14Z" transform="translate(-87 -203.23)" style="fill:#d86600"/><path d="M333.55,308l30.75-1.74.53,15.44-11.73-.63,3.52,19.37-15.08-1.61,2.59-17.4-10.85.31Z" transform="translate(-87 -203.23)" style="fill:#d86600"/><path d="M402.05,324.86q-.54,7.84-6.07,11.73a20.09,20.09,0,0,1-11.92,3.84,18.76,18.76,0,0,1-11.55-3.93q-5.17-3.84-5.05-11.64a16.82,16.82,0,0,1,1.92-7.64,21.91,21.91,0,0,1,4.82-5.93,20.46,20.46,0,0,1,6.43-3.79,17.52,17.52,0,0,1,6.91-1.25,16.93,16.93,0,0,1,4.2.93,15.48,15.48,0,0,1,5,2.95,16.7,16.7,0,0,1,4,5.67A20.1,20.1,0,0,1,402.05,324.86Zm-12.54-4a.65.65,0,0,0,.31-.22,1.15,1.15,0,0,0,.27-.27,3.31,3.31,0,0,0,1.11-2.45,4.64,4.64,0,0,0-.76-2.37,2.41,2.41,0,0,0-.22-.2,2.91,2.91,0,0,1-.27-.24l-.2-.2a1.16,1.16,0,0,0-.24-.2,6.11,6.11,0,0,0-2.32-.9,4.15,4.15,0,0,0-2.68.4,4.77,4.77,0,0,0-1,.54,8.29,8.29,0,0,0-.76.54,3.63,3.63,0,0,0-1.16,2.63,4.53,4.53,0,0,0,.94,2.5,1.19,1.19,0,0,1,.15.18l.16.18a.58.58,0,0,1,.18.11,1.19,1.19,0,0,1,.18.15,4.84,4.84,0,0,0,6.33-.22Z" transform="translate(-87 -203.23)" style="fill:#d86600"/><path d="M419.9,309.37l5.35,13.7,3.44-14.23,11-2.59,6,30.52-10.44,3.66-1.83-19.1-5,18-5.66.05-5.85-16.74-.67,17.27-11-1.69,3.35-31Z" transform="translate(-87 -203.23)" style="fill:#d86600"/><path d="M156.69,378.4q-.54,7.86-6.07,11.74A20.09,20.09,0,0,1,138.7,394a18.76,18.76,0,0,1-11.55-3.93q-5.19-3.84-5.05-11.65a16.78,16.78,0,0,1,1.92-7.63,21.75,21.75,0,0,1,4.82-5.93,20.35,20.35,0,0,1,6.43-3.79,17.34,17.34,0,0,1,6.91-1.25,17,17,0,0,1,4.2.93,15.58,15.58,0,0,1,5,2.95,16.7,16.7,0,0,1,4,5.67A20.19,20.19,0,0,1,156.69,378.4Zm-12.54-4a.81.81,0,0,0,.31-.22,1.15,1.15,0,0,0,.27-.27,3.31,3.31,0,0,0,1.11-2.45,4.61,4.61,0,0,0-.76-2.37l-.22-.2-.27-.24-.2-.21a1.59,1.59,0,0,0-.24-.2,6.27,6.27,0,0,0-2.32-.89,4.15,4.15,0,0,0-2.68.4,4.51,4.51,0,0,0-1,.54c-.45.3-.7.48-.76.53a3.63,3.63,0,0,0-1.16,2.64,4.53,4.53,0,0,0,.94,2.5l.15.17.16.18.18.11.17.16a4.86,4.86,0,0,0,2.91,1.07,4.8,4.8,0,0,0,3.43-1.29Z" transform="translate(-87 -203.23)" style="fill:#d86600"/><path d="M159.85,394.78l-1-6.07,32.44.22-1,5.85Zm18.52-37.62,11.92-.67-1.61,32.09-10.31,1.16.72-25.35-8.84.58.54,24.86-9.06.89-1.34-32.84Z" transform="translate(-87 -203.23)" style="fill:#d86600"/><path d="M192.25,361.18l10.4-.63v11.52l7.63-.14V360.47l11.87-.67-1.56,32.08L210.28,393V380.86l-7.63.18v12l-9,.89Z" transform="translate(-87 -203.23)" style="fill:#d86600"/><path d="M253.52,360.38l2.85,29.8-10.22,2.41-.75-16.24L236.61,394l-11.92-3.08.67-29.45h10.22l-1.52,14.86,8.79-15.62,10.67-.89Z" transform="translate(-87 -203.23)" style="fill:#d86600"/><path d="M273.69,362.92l5.35,13.7,3.44-14.24,11-2.58,6,30.52L289,394l-1.83-19.1-5,18-5.67.05-5.85-16.74L270,393.44l-11-1.69,3.35-31Z" transform="translate(-87 -203.23)" style="fill:#d86600"/><path d="M343.75,394.78h-17l1.3-35,9,.89-.53,24.81,8.83.58-.67-25.35L355,361.89l1.21,32.22Zm25.16-7.23-.49,8.3-24.54.22.22-11.15Z" transform="translate(-87 -203.23)" style="fill:#d86600"/><path d="M359.1,361.31c1.6-.35,3.22-.66,4.84-.91s3.28-.46,5-.6q5.1-.41,12,2.45c3.15,1.34,4.87,3.35,5.13,6s-.83,4.72-3.39,6.21q6.07.7,8.75,3.61a8.29,8.29,0,0,1,2.32,6.25,9.55,9.55,0,0,1-3.17,6.11,12.77,12.77,0,0,1-8,3.26c-1.93.18-3.76.28-5.49.29a49.44,49.44,0,0,1-4.95-.2c-1.58-.15-3.17-.36-4.8-.63s-3.28-.61-5-1Zm12.45,10.49,1.78-.18a9,9,0,0,0,1.61-.31c1-.27,1.56-.74,1.65-1.43.12-1.28-.66-2.05-2.32-2.32-.83-.15-1.52-.25-2-.29a4.57,4.57,0,0,0-1.21,0Zm1.92,13.83a22.16,22.16,0,0,1,3.83-.26c1.91-.09,2.81-.93,2.72-2.5-.08-1.82-1.16-2.8-3.21-2.95-1-.09-1.84-.14-2.5-.16a8.28,8.28,0,0,0-1.47.07Z" transform="translate(-87 -203.23)" style="fill:#d86600"/><path d="M420.9,359.8l.27,9.63-12.5-.17.09,3.57,6.38-.36.05,5.89h-5.8l.13,4.1,12.05-.71.13,11.56-22.93.67-1.92-34.14Z" transform="translate(-87 -203.23)" style="fill:#d86600"/><path d="M424.25,361.54,455,359.8l.54,15.44-11.74-.63L447.32,394l-15.09-1.61,2.59-17.4-10.84.31Z" transform="translate(-87 -203.23)" style="fill:#d86600"/><path d="M492.74,378.4q-.53,7.86-6.07,11.74A20.06,20.06,0,0,1,474.76,394a18.79,18.79,0,0,1-11.56-3.93q-5.18-3.84-5-11.65a16.78,16.78,0,0,1,1.92-7.63,21.57,21.57,0,0,1,4.82-5.93,20.3,20.3,0,0,1,6.42-3.79,17.39,17.39,0,0,1,6.92-1.25,17,17,0,0,1,4.2.93,15.58,15.58,0,0,1,5,2.95,16.82,16.82,0,0,1,4,5.67A20.05,20.05,0,0,1,492.74,378.4Zm-12.54-4a.79.79,0,0,0,.32-.22,1.08,1.08,0,0,0,.26-.27,3.28,3.28,0,0,0,1.12-2.45,4.61,4.61,0,0,0-.76-2.37l-.22-.2c-.09-.07-.18-.16-.27-.24l-.2-.21a2.43,2.43,0,0,0-.25-.2,6.14,6.14,0,0,0-2.32-.89,4.13,4.13,0,0,0-2.67.4,4.88,4.88,0,0,0-1,.54c-.44.3-.7.48-.75.53a3.63,3.63,0,0,0-1.16,2.64,4.51,4.51,0,0,0,.93,2.5l.16.17a1.29,1.29,0,0,0,.16.18l.17.11.18.16a4.85,4.85,0,0,0,6.34-.22Z" transform="translate(-87 -203.23)" style="fill:#d86600"/><path d="M510.59,362.92l5.36,13.7,3.43-14.24,11-2.58,6,30.52L525.9,394l-1.83-19.1-5,18-5.67.05-5.84-16.74-.67,17.27-11-1.69,3.34-31Z" transform="translate(-87 -203.23)" style="fill:#d86600"/></svg>