<svg id="Слой_1" data-name="Слой 1" xmlns="http://www.w3.org/2000/svg" viewBox="0 0 541.08 148.31"><title>formwork_short</title><rect x="11.25" y="1.74" width="529.83" height="146.57" rx="12" ry="12" style="fill:#3a301f"/><rect width="529.83" height="146.57" rx="12" ry="12" style="fill:#fff"/><path d="M217.79,325.88q-.58,8.58-6.62,12.81a22,22,0,0,1-13,4.19,20.46,20.46,0,0,1-12.61-4.29q-5.66-4.18-5.51-12.71a18.34,18.34,0,0,1,2.1-8.32,23.51,23.51,0,0,1,5.26-6.48,22.53,22.53,0,0,1,7-4.14,19.13,19.13,0,0,1,7.54-1.36,18.82,18.82,0,0,1,4.58,1,16.66,16.66,0,0,1,5.5,3.22,18,18,0,0,1,4.38,6.18A22,22,0,0,1,217.79,325.88Zm-13.68-4.33a1,1,0,0,0,.34-.24,1.35,1.35,0,0,0,.29-.3,3.6,3.6,0,0,0,1.22-2.67,5.11,5.11,0,0,0-.83-2.58l-.24-.22-.3-.27-.22-.22a2.75,2.75,0,0,0-.26-.22,6.56,6.56,0,0,0-2.54-1,4.44,4.44,0,0,0-2.92.44,4.94,4.94,0,0,0-1.07.58c-.49.32-.76.52-.83.58a4,4,0,0,0-1.26,2.88,4.87,4.87,0,0,0,1,2.72,1.51,1.51,0,0,1,.17.2l.17.19.2.12a1.57,1.57,0,0,1,.19.18,5.31,5.31,0,0,0,3.17,1.16,5.25,5.25,0,0,0,3.75-1.41Z" transform="translate(-64.74 -253.93)" style="fill:#d86600"/><path d="M240.87,306.31l12.95-.73-1.71,35-11.24,1.26.73-27.65-9.64.63.58,27.07-9.83,1-1.51-35.79Z" transform="translate(-64.74 -253.93)" style="fill:#d86600"/><path d="M283.08,305.58l11.39,33.11-12.07,4.19L280,335.57h-9.35l-2.19,7.16-11.88-5.55,12.13-30.67Zm-4,22.35-3.56-8.62-3.65,8.47Z" transform="translate(-64.74 -253.93)" style="fill:#d86600"/><path d="M297.49,342.88l7.84-36.08,14.41-1.22,13,30.33-12.17,1.46L315,321.55l-2.68,20.21Z" transform="translate(-64.74 -253.93)" style="fill:#d86600"/><path d="M335.62,316.24l8.32-6.33,6.82,9.06,5.4-13.39,11.4,1.9-18.89,35.4-8.38-6.09,6.87-11.15Z" transform="translate(-64.74 -253.93)" style="fill:#d86600"/><path d="M381.92,317.75a25.48,25.48,0,0,1,11,4.53,9.08,9.08,0,0,1,2.05,1.9,7.73,7.73,0,0,1,1.12,2.07,8.52,8.52,0,0,1,.46,2.36c.05.84.07,1.77.07,2.78v2a9.73,9.73,0,0,1-.17,1.9,5.21,5.21,0,0,1-.61,1.68,3.93,3.93,0,0,1-1.31,1.36,25.94,25.94,0,0,1-8.18,3.51,55.21,55.21,0,0,1-9.54,1.46,58.29,58.29,0,0,1-7.55,0l2.53-35.94L394,304.85v7.94l-12.27-.25.15,5.26Zm-2,16.65c2.7.1,4.66-.29,5.9-1.16a3.25,3.25,0,0,0,1.55-3,5.86,5.86,0,0,0-2-3.41,11.09,11.09,0,0,0-4.77-2.53Z" transform="translate(-64.74 -253.93)" style="fill:#d86600"/><path d="M429,306.46l8.18,7.88-9.93,10.57,10,10.57-10.51,7.25-11.06-12.61.15,11.88-12.27.88-1.85-36.76,14.12-.54.1,18.16Z" transform="translate(-64.74 -253.93)" style="fill:#d86600"/><path d="M466.59,305.58,478,338.69l-12.07,4.19-2.39-7.31h-9.35L452,342.73l-11.88-5.55,12.13-30.67Zm-4,22.35L459,319.31l-3.65,8.47Z" transform="translate(-64.74 -253.93)" style="fill:#d86600"/></svg>