<svg id="Слой_1" data-name="Слой 1" xmlns="http://www.w3.org/2000/svg" viewBox="0 0 541.08 148.31"><title>horse_short</title><rect x="11.25" y="1.74" width="529.83" height="146.57" rx="12" ry="12" style="fill:#3a301f"/><rect width="529.83" height="146.57" rx="12" ry="12" style="fill:#fff"/><path d="M208.87,320.08l-1.12-6.62,35.39.24L242,320.08ZM229.07,279l13-.73-1.75,35-11.25,1.27.78-27.66-9.64.63.59,27.12-9.89,1-1.46-35.84Z" transform="translate(-63.91 -253.25)" style="fill:#d86600"/><path d="M270.46,281.91l.29,10.51-13.63-.19.09,3.89,7-.39.05,6.43H257.9l.14,4.48,13.15-.78.14,12.61-25,.73L244.21,282Z" transform="translate(-63.91 -253.25)" style="fill:#d86600"/><path d="M274.11,283.8l33.55-1.89.58,16.84-12.8-.68,3.84,21.13-16.45-1.75,2.82-19-11.83.34Z" transform="translate(-63.91 -253.25)" style="fill:#d86600"/><path d="M341.79,291.84q-9.5-1.6-13.78,2.09t-3.8,7.79q.5,4.14,5.5,6.33t14.22-2.43L349,315.84a24,24,0,0,1-10.86,3.26,35.05,35.05,0,0,1-12.32-1.17,26.25,26.25,0,0,1-10.23-5.45,12.9,12.9,0,0,1-4.48-9.59,16.38,16.38,0,0,1,3.17-10.81,24,24,0,0,1,8.57-7.25A27.08,27.08,0,0,1,334,282a20.17,20.17,0,0,1,10.61,2.19Z" transform="translate(-63.91 -253.25)" style="fill:#d86600"/><path d="M379.33,282.78l8.18,7.89-9.93,10.56,10,10.57L377,319.06,366,306.44l.14,11.89-12.27.87L352,282.44l14.12-.53.1,18.16Z" transform="translate(-63.91 -253.25)" style="fill:#d86600"/><path d="M421.93,282.54l3.12,32.52-11.15,2.63L413.07,300l-9.59,19.23-13-3.36.73-32.13h11.15l-1.66,16.21,9.59-17,11.64-1Z" transform="translate(-63.91 -253.25)" style="fill:#d86600"/><path d="M454.12,281.91l.29,10.51-13.64-.19.1,3.89,7-.39.05,6.43h-6.33l.15,4.48,13.15-.78.14,12.61-25,.73L427.87,282Z" transform="translate(-63.91 -253.25)" style="fill:#d86600"/><path d="M229.88,341,233,373.49l-11.15,2.63L221,358.4l-9.59,19.23-13-3.36.73-32.14H210.3l-1.65,16.22,9.59-17,11.64-1Z" transform="translate(-63.91 -253.25)" style="fill:#d86600"/><path d="M248.47,363.85l1.12,13.78-11.53-1-2.24-36.33,25.41,1.17,0,10.42-14.17-1Z" transform="translate(-63.91 -253.25)" style="fill:#d86600"/><path d="M276.28,365.9l.48,11.73-10.61-1.27-2.48-35.93c.9-.06,2-.1,3.21-.1s2.66.05,4.28.15a46.3,46.3,0,0,1,9.55,1.41,25.94,25.94,0,0,1,8.23,3.51,7.33,7.33,0,0,1,3.5,6.33,11.09,11.09,0,0,1-5.16,9.69,25.1,25.1,0,0,1-11,4.52Zm-1.37-6.48a11.2,11.2,0,0,0,4.82-2.48,5.6,5.6,0,0,0,2-3.46,3.24,3.24,0,0,0-1.56-3c-1.23-.88-3.2-1.27-5.89-1.17Z" transform="translate(-63.91 -253.25)" style="fill:#d86600"/><path d="M295,351l8.33-6.33,6.82,9.05,5.4-13.39,11.39,1.9-18.89,35.4-8.37-6.09,6.86-11.15Z" transform="translate(-63.91 -253.25)" style="fill:#d86600"/><path d="M349.36,376.61l-18.16,1-1.51-35.79,11.34-.68.3,29.26,8.18-.73-.15-28.63,12.95-.73L362,368.28l8.18,2.39.73-31.31,6-.24,5.06-.25-.49,37.83Z" transform="translate(-63.91 -253.25)" style="fill:#d86600"/><path d="M419.33,341.21l8.18,7.89-9.94,10.56,10,10.57L417,377.48,406,364.87l.14,11.88-12.27.88L392,340.87l14.12-.54.1,18.16Z" transform="translate(-63.91 -253.25)" style="fill:#d86600"/><path d="M461.93,341l3.12,32.52-11.15,2.63-.83-17.72-9.59,19.23-13-3.36.73-32.14h11.15l-1.66,16.22,9.59-17,11.64-1Z" transform="translate(-63.91 -253.25)" style="fill:#d86600"/></svg>