<svg id="Слой_1" data-name="Слой 1" xmlns="http://www.w3.org/2000/svg" viewBox="0 0 541.08 148.31"><title>locky_short</title><rect x="11.25" y="1.74" width="529.83" height="146.57" rx="12" ry="12" style="fill:#3a301f"/><rect width="529.83" height="146.57" rx="12" ry="12" style="fill:#fff"/><path d="M237.74,283.44a46,46,0,0,1,9.49-1.41,9.05,9.05,0,0,0,1.15-.15c.3-.06.64-.12,1-.17s.8-.08,1.29-.1,1.13,0,1.95,0a42,42,0,0,1,4.79.46c1.58.24,3.16.56,4.75.95a26.76,26.76,0,0,1,4.43,1.48,24,24,0,0,1,3.75,2.07,7.26,7.26,0,0,1,3.55,6.28,11.07,11.07,0,0,1-5.16,9.69,16.39,16.39,0,0,1-3.07,1.68,38.32,38.32,0,0,1-3.65,1.37c-1.26.4-2.51.75-3.75,1a31.62,31.62,0,0,1-3.31.64l-.43,12.32-10.08-.1-.88-11.88-1.46-.15a22.21,22.21,0,0,1-5.65-1.53,27.76,27.76,0,0,1-5.35-3,11.37,11.37,0,0,1-5.17-9.69,7.48,7.48,0,0,1,3.56-6.28,24.64,24.64,0,0,1,3.8-2.07A26.76,26.76,0,0,1,237.74,283.44Zm-1.2,6.91a9.89,9.89,0,0,0-3.53,4.34q.65.58,1.44,1.38a9.46,9.46,0,0,0,1.9,1.46,7.83,7.83,0,0,0,2.46,1,6.49,6.49,0,0,0,3.11-.19l.25-8.91A9.25,9.25,0,0,0,236.54,290.35ZM257,300.19a21.8,21.8,0,0,0,3.26-1.15,10,10,0,0,0,2.68-1.58,6.85,6.85,0,0,0,1.46-1.75A4.63,4.63,0,0,0,265,294a3.3,3.3,0,0,0-1.55-3,3.91,3.91,0,0,0-1.22-.49,14.9,14.9,0,0,0-1.73-.32,18.13,18.13,0,0,0-2-.14c-.71,0-1.41,0-2.09,0Z" transform="translate(-63.99 -253.69)" style="fill:#d86600"/><path d="M301.67,281.69l11.39,33.1L301,319l-2.38-7.3h-9.35l-2.19,7.16-11.88-5.55,12.12-30.68Zm-4,22.34-3.55-8.61-3.65,8.47Z" transform="translate(-63.99 -253.69)" style="fill:#d86600"/><path d="M346.75,291.62q-9.5-1.61-13.78,2.09t-3.79,7.79q.48,4.14,5.5,6.33t14.22-2.43L354,315.62a24.05,24.05,0,0,1-10.86,3.27,35.55,35.55,0,0,1-12.32-1.17,26.29,26.29,0,0,1-10.22-5.46,12.87,12.87,0,0,1-4.48-9.59,16.38,16.38,0,0,1,3.16-10.81,24,24,0,0,1,8.57-7.25,27.16,27.16,0,0,1,11.1-2.88,20.14,20.14,0,0,1,10.62,2.2Z" transform="translate(-63.99 -253.69)" style="fill:#d86600"/><path d="M383.46,281.69l11.4,33.1L382.78,319l-2.38-7.3h-9.35l-2.19,7.16L357,313.29l12.12-30.68Zm-4,22.34-3.55-8.61-3.65,8.47Z" transform="translate(-63.99 -253.69)" style="fill:#d86600"/><path d="M397.93,319.86l-1.12-6.62,35.39.24-1.12,6.38Zm20.2-41.05,13-.73-1.75,35-11.25,1.27.78-27.66-9.64.63.58,27.12-9.88,1-1.46-35.84Z" transform="translate(-63.99 -253.69)" style="fill:#d86600"/><path d="M234.11,376.39l-18.16,1-1.51-35.79,11.34-.68.3,29.26,8.18-.73-.15-28.63,12.95-.73-.29,27.95,8.18,2.39.73-31.31,6-.24,5.06-.25-.49,37.84Z" transform="translate(-63.99 -253.69)" style="fill:#d86600"/><path d="M304.08,341l8.18,7.89-9.94,10.56,10,10.57-10.52,7.25-11.05-12.61.14,11.88-12.27.88-1.85-36.76,14.12-.54.1,18.17Z" transform="translate(-63.99 -253.69)" style="fill:#d86600"/><path d="M341.71,340.11l11.4,33.11L341,377.41l-2.38-7.3H329.3l-2.19,7.15-11.88-5.55L327.35,341Zm-4,22.35-3.55-8.62-3.65,8.48Z" transform="translate(-63.99 -253.69)" style="fill:#d86600"/><path d="M367.08,341.72a46.13,46.13,0,0,1,9.5-1.41,7.56,7.56,0,0,0,1.14-.15c.31-.06.65-.12,1-.17s.81-.08,1.29-.1,1.14,0,2,0a42.39,42.39,0,0,1,4.8.46c1.57.25,3.15.56,4.74.95a25.26,25.26,0,0,1,8.18,3.51,7.3,7.3,0,0,1,3.56,6.33,11.14,11.14,0,0,1-5.16,9.69,18,18,0,0,1-3.07,1.68c-1.17.5-2.39.95-3.65,1.36s-2.52.75-3.75,1.05-2.34.5-3.31.63l-.44,12.32-10.08-.1-.88-11.88-1.46-.15a22.13,22.13,0,0,1-5.64-1.53,28.32,28.32,0,0,1-5.36-3,11.34,11.34,0,0,1-5.16-9.69,7.49,7.49,0,0,1,3.55-6.33A25.94,25.94,0,0,1,367.08,341.72Zm-1.19,6.91a9.83,9.83,0,0,0-3.53,4.34c.42.39.9.85,1.43,1.39a10.25,10.25,0,0,0,1.9,1.46,8.34,8.34,0,0,0,2.46.95,6.55,6.55,0,0,0,3.12-.2l.24-8.91A9.29,9.29,0,0,0,365.89,348.63Zm20.42,9.84c.49-.13,1-.29,1.59-.49s1.12-.41,1.65-.65,1.05-.5,1.54-.76a4.74,4.74,0,0,0,1.16-.83,6.68,6.68,0,0,0,1.46-1.75,4.61,4.61,0,0,0,.59-1.7,3.24,3.24,0,0,0-1.56-3,3.81,3.81,0,0,0-1.22-.49,16.84,16.84,0,0,0-1.73-.32,18,18,0,0,0-2-.14l-2.09,0Z" transform="translate(-63.99 -253.69)" style="fill:#d86600"/><path d="M431.11,340.11l11.39,33.11-12.07,4.19-2.39-7.3h-9.35l-2.19,7.15-11.88-5.55L416.74,341Zm-4,22.35-3.56-8.62-3.65,8.48Z" transform="translate(-63.99 -253.69)" style="fill:#d86600"/></svg>