<svg id="Слой_1" data-name="Слой 1" xmlns="http://www.w3.org/2000/svg" viewBox="0 0 541.08 148.31"><title>nightstand_short</title><rect x="11.25" y="1.74" width="529.83" height="146.57" rx="12" ry="12" style="fill:#3a301f"/><rect width="529.83" height="146.57" rx="12" ry="12" style="fill:#fff"/><path d="M184.44,283.66l5.84,14.94L194,283.07l12-2.82,6.52,33.3-11.39,4-2-20.84-5.45,19.63-6.18.05-6.38-18.26L180.4,317l-12-1.85L172,281.32Z" transform="translate(-64 -253.59)" style="fill:#d86600"/><path d="M242.14,280.25l.29,10.51-13.63-.19.09,3.89,7-.38,0,6.42h-6.33l.15,4.48,13.15-.78.14,12.61-25,.73-2.1-37.24Z" transform="translate(-64 -253.59)" style="fill:#d86600"/><path d="M257.13,292.42a25.28,25.28,0,0,1,11,4.53,9,9,0,0,1,2,1.9,7.73,7.73,0,0,1,1.12,2.07,8.45,8.45,0,0,1,.46,2.36c.05.84.08,1.77.08,2.77v2a10.49,10.49,0,0,1-.17,1.9,5.73,5.73,0,0,1-.61,1.68,4,4,0,0,1-1.32,1.37,25.83,25.83,0,0,1-8.18,3.5,53.34,53.34,0,0,1-9.54,1.46,54.89,54.89,0,0,1-7.55,0L247,282l22.26-2.48v7.93L257,287.21l.14,5.26Zm-2,16.65q4,.15,5.89-1.17a3.27,3.27,0,0,0,1.56-3,5.86,5.86,0,0,0-2-3.4,11.21,11.21,0,0,0-4.77-2.54Z" transform="translate(-64 -253.59)" style="fill:#d86600"/><path d="M303.1,280.25l.29,10.51-13.64-.19.1,3.89,7-.38.05,6.42h-6.33l.15,4.48,13.15-.78.14,12.61-25,.73-2.1-37.24Z" transform="translate(-64 -253.59)" style="fill:#d86600"/><path d="M306.46,317.54l7.83-36.08,14.42-1.21,13,30.33L329.53,312l-5.6-15.82-2.67,20.2Z" transform="translate(-64 -253.59)" style="fill:#d86600"/><path d="M356.21,292.42a25.28,25.28,0,0,1,11,4.53,8.59,8.59,0,0,1,2,1.9,7.73,7.73,0,0,1,1.12,2.07,8.45,8.45,0,0,1,.47,2.36c0,.84.07,1.77.07,2.77v2a10.49,10.49,0,0,1-.17,1.9,5.73,5.73,0,0,1-.61,1.68,4,4,0,0,1-1.31,1.37,26,26,0,0,1-8.18,3.5,53.59,53.59,0,0,1-9.55,1.46,54.72,54.72,0,0,1-7.54,0L346.09,282l10.56-1.27-.44,11.74Zm-2,16.65c2.69.1,4.66-.29,5.89-1.17a3.23,3.23,0,0,0,1.56-3,5.81,5.81,0,0,0-2.05-3.4,11.21,11.21,0,0,0-4.77-2.54Z" transform="translate(-64 -253.59)" style="fill:#d86600"/><path d="M375.94,281.76l11.34-.68v12.56l8.33-.15V281l12.95-.73-1.71,35-11.24,1.26V303.23l-8.33.19v13.15l-9.84,1Z" transform="translate(-64 -253.59)" style="fill:#d86600"/><path d="M423.07,292.76a25.71,25.71,0,0,1,11,4.53,9.08,9.08,0,0,1,2.05,1.9,8,8,0,0,1,1.11,2.07,8.45,8.45,0,0,1,.47,2.36c.05.84.07,1.77.07,2.77v2a10.46,10.46,0,0,1-.17,1.89,5.27,5.27,0,0,1-.61,1.68,4,4,0,0,1-1.31,1.37,25.44,25.44,0,0,1-8.18,3.5c-1.59.39-3.18.71-4.75.95a42.17,42.17,0,0,1-4.8.47c-1.62.09-3.06.14-4.31.14s-2.31,0-3.18-.1l2.48-35.93,10.56-1.26-.43,11.73Zm-2,16.65c2.69.1,4.66-.29,5.89-1.17a3.29,3.29,0,0,0,1.56-3,4.82,4.82,0,0,0-.58-1.71,7.12,7.12,0,0,0-1.47-1.75,11,11,0,0,0-4.77-2.48ZM440,317.64l12.37-.44.68-35.93-14-1Z" transform="translate(-64 -253.59)" style="fill:#d86600"/><path d="M486.22,280.88l3.11,32.53L478.18,316l-.82-17.72-9.6,19.23-13-3.36.73-32.13h11.15L465,298.26l9.59-17,11.64-1Zm-20.7-11,16.17-.49-1,6.23-15.19,1.46Z" transform="translate(-64 -253.59)" style="fill:#d86600"/><path d="M267.82,361.56l-2.44.05L254.48,376l-11.78-8.81,13.68-8.57a18.5,18.5,0,0,1-5.55-5.45,6.83,6.83,0,0,1-.73-6.53c.65-1.62,2.2-3,4.67-4.19a35.58,35.58,0,0,1,8.13-2.62c1.56-.3,3.11-.53,4.65-.71s3.13-.3,4.75-.37a41.85,41.85,0,0,1,8.28.39l-1.76,34.38L267.28,375Zm.78-16.7c-2.73.1-4.64.55-5.75,1.36a2.75,2.75,0,0,0-1.46,2.73,5.09,5.09,0,0,0,2.15,2.92,11,11,0,0,0,5,1.85Z" transform="translate(-64 -253.59)" style="fill:#d86600"/><path d="M303.27,375l-18.17,1-1.5-35.79,11.34-.68.29,29.27,8.18-.73-.14-28.63,13-.73-.29,27.94,8.18,2.39.73-31.31,6-.24,5.07-.25.73,32.53a3.64,3.64,0,0,0,1.17,1.07,12.25,12.25,0,0,0,1.92,1c.73.31,1.53.61,2.41.9s1.77.55,2.68.78c.16.06.27.32.34.75a12.39,12.39,0,0,1,.1,1.66c0,.66,0,1.37-.08,2.12s-.09,1.43-.14,2.07-.13,1.38-.22,2.26l-18.51-1.12-.72-6.18Z" transform="translate(-64 -253.59)" style="fill:#d86600"/><path d="M377.37,339.31l3.12,32.52-11.15,2.63-.83-17.72L358.92,376l-13-3.36.73-32.13H357.8l-1.66,16.21,9.6-17,11.63-1Z" transform="translate(-64 -253.59)" style="fill:#d86600"/><path d="M410.63,339.55l8.18,7.89L408.87,358l10,10.56-10.52,7.26-11-12.61.14,11.88-12.27.87-1.85-36.76,14.12-.53.1,18.16Z" transform="translate(-64 -253.59)" style="fill:#d86600"/></svg>