<svg id="Слой_1" data-name="Слой 1" xmlns="http://www.w3.org/2000/svg" viewBox="0 0 495.87 168.04"><title>owl_short</title><rect x="10.31" y="1.98" width="485.56" height="166.07" rx="12" ry="12" style="fill:#3a301f"/><rect width="485.56" height="166.07" rx="12" ry="12" style="fill:#fff"/><path d="M228.07,289.83l10.4-.62v11.51l7.63-.13V289.12l11.87-.67-1.56,32.08-10.31,1.16V309.51l-7.63.18v12.05l-9,.89Z" transform="translate(-86.96 -243.98)" style="fill:#d86600"/><path d="M295.1,307.06q-.54,7.85-6.07,11.73a20.09,20.09,0,0,1-11.92,3.84,18.76,18.76,0,0,1-11.55-3.93c-3.46-2.55-5.14-6.44-5.05-11.64a16.74,16.74,0,0,1,1.92-7.63,22,22,0,0,1,4.82-5.94,20.54,20.54,0,0,1,6.43-3.79,17.52,17.52,0,0,1,6.91-1.25,16.66,16.66,0,0,1,4.2.94,15.37,15.37,0,0,1,5,2.94,16.7,16.7,0,0,1,4,5.67A20.24,20.24,0,0,1,295.1,307.06Zm-12.54-4a.72.72,0,0,0,.31-.23,1.15,1.15,0,0,0,.27-.27,3.31,3.31,0,0,0,1.11-2.45,4.58,4.58,0,0,0-.76-2.36l-.22-.21a2.91,2.91,0,0,1-.27-.24l-.2-.2a1.16,1.16,0,0,0-.24-.2,5.94,5.94,0,0,0-2.32-.89,4.08,4.08,0,0,0-2.68.4,4.79,4.79,0,0,0-1,.53,8.29,8.29,0,0,0-.76.54,3.6,3.6,0,0,0-1.16,2.63,4.5,4.5,0,0,0,.94,2.5,1.19,1.19,0,0,1,.15.18l.16.18a.87.87,0,0,1,.18.11,1.19,1.19,0,0,1,.18.15,4.84,4.84,0,0,0,6.33-.22Z" transform="translate(-86.96 -243.98)" style="fill:#d86600"/><path d="M316.29,309.65l-17-2L299.07,290l9.55-.67-.49,11.92,8.38,1.11-.26-13,10.3,1.16,1.57,32.08L316.25,322Z" transform="translate(-86.96 -243.98)" style="fill:#d86600"/><path d="M330.66,289.83l10.4-.62v11.51l7.63-.13V289.12l11.87-.67L359,320.53l-10.31,1.16V309.51l-7.63.18v12.05l-9,.89Z" transform="translate(-86.96 -243.98)" style="fill:#d86600"/><path d="M397.68,307.06c-.35,5.23-2.38,9.14-6.06,11.73a20.09,20.09,0,0,1-11.92,3.84,18.79,18.79,0,0,1-11.56-3.93c-3.45-2.55-5.13-6.44-5-11.64a16.74,16.74,0,0,1,1.92-7.63,22,22,0,0,1,4.82-5.94,20.6,20.6,0,0,1,6.42-3.79,17.56,17.56,0,0,1,6.92-1.25,16.66,16.66,0,0,1,4.2.94,15.37,15.37,0,0,1,5,2.94,16.68,16.68,0,0,1,4,5.67A20,20,0,0,1,397.68,307.06Zm-12.53-4a.8.8,0,0,0,.31-.23,1.15,1.15,0,0,0,.27-.27,3.31,3.31,0,0,0,1.11-2.45,4.58,4.58,0,0,0-.76-2.36l-.22-.21a2.91,2.91,0,0,1-.27-.24l-.2-.2a1.5,1.5,0,0,0-.24-.2,5.93,5.93,0,0,0-2.33-.89,4.06,4.06,0,0,0-2.67.4,4.54,4.54,0,0,0-1,.53,8.29,8.29,0,0,0-.76.54,3.6,3.6,0,0,0-1.16,2.63,4.56,4.56,0,0,0,.93,2.5l.16.18a1.29,1.29,0,0,0,.16.18.82.82,0,0,1,.17.11,1.19,1.19,0,0,1,.18.15,4.85,4.85,0,0,0,6.34-.22Z" transform="translate(-86.96 -243.98)" style="fill:#d86600"/><path d="M429.63,289l2.86,29.81-10.22,2.41L421.51,305l-8.79,17.63-11.91-3.08.67-29.45H411.7L410.18,305,419,289.34l10.66-.89Zm-19-10.09,14.82-.44-.9,5.71-13.92,1.34Z" transform="translate(-86.96 -243.98)" style="fill:#d86600"/><path d="M225.35,351.1q-8.7-1.47-12.63,1.92t-3.48,7.14q.45,3.79,5,5.8t13-2.23L232,373.1a22,22,0,0,1-9.95,3A32.37,32.37,0,0,1,210.71,375a24.11,24.11,0,0,1-9.37-5,11.76,11.76,0,0,1-4.1-8.79,15,15,0,0,1,2.9-9.91,22,22,0,0,1,7.85-6.64A24.71,24.71,0,0,1,218.16,342a18.38,18.38,0,0,1,9.73,2Z" transform="translate(-86.96 -243.98)" style="fill:#d86600"/><path d="M235,343.74,265.73,342l.54,15.44-11.74-.63,3.53,19.37L243,374.57l2.59-17.4-10.84.31Z" transform="translate(-86.96 -243.98)" style="fill:#d86600"/><path d="M280.46,365.43l.44,10.75L271.18,375l-2.28-32.93c.83-.06,1.81-.09,3-.09s2.44,0,3.92.13a42,42,0,0,1,8.75,1.3,23.65,23.65,0,0,1,7.54,3.21,6.71,6.71,0,0,1,3.21,5.8,10.16,10.16,0,0,1-4.73,8.88,23,23,0,0,1-10.08,4.15Zm-1.25-5.94a10.2,10.2,0,0,0,4.42-2.28,5.13,5.13,0,0,0,1.83-3.16,3,3,0,0,0-1.43-2.77q-1.69-1.2-5.4-1.07Z" transform="translate(-86.96 -243.98)" style="fill:#d86600"/><path d="M321.91,342l10.45,30.34-11.07,3.84-2.19-6.69h-8.56l-2,6.56L297.64,371l11.11-28.11Zm-3.66,20.48-3.25-7.9-3.35,7.77Z" transform="translate(-86.96 -243.98)" style="fill:#d86600"/><path d="M335.12,343.38l10.4-.62v11.51l7.63-.13V342.67L365,342l-1.56,32.08-10.31,1.16V363.06l-7.63.18v12.05l-9,.89Z" transform="translate(-86.96 -243.98)" style="fill:#d86600"/><path d="M367.56,343.38l10.4-.62v11.51l7.63-.13V342.67l11.87-.67-1.56,32.08-10.31,1.16V363.06l-7.63.18v12.05l-9,.89Z" transform="translate(-86.96 -243.98)" style="fill:#d86600"/><path d="M428.83,342.58l2.86,29.81-10.22,2.41-.76-16.25-8.79,17.63L400,373.1l.67-29.45h10.22l-1.51,14.86,8.79-15.62,10.66-.89Z" transform="translate(-86.96 -243.98)" style="fill:#d86600"/><path d="M459.31,342.8l7.5,7.23-9.11,9.68,9.15,9.69-9.64,6.65-10.13-11.56.14,10.89-11.25.8-1.7-33.69,13-.49.08,16.64Z" transform="translate(-86.96 -243.98)" style="fill:#d86600"/></svg>