<svg id="Слой_1" data-name="Слой 1" xmlns="http://www.w3.org/2000/svg" viewBox="0 0 541.08 251"><title>pricep_short</title><rect x="11.25" y="2.95" width="529.83" height="248.05" rx="12" ry="12" style="fill:#3a301f"/><rect width="529.83" height="248.05" rx="12" ry="12" style="fill:#fff"/><path d="M214.24,248.58l33.55-1.9.58,16.85-12.8-.68L239.41,284,223,282.22l2.82-19-11.83.35Z" transform="translate(-64.05 -202.16)" style="fill:#d86600"/><path d="M263.85,272.24l.49,11.74-10.61-1.27-2.49-35.93c.91-.07,2-.1,3.22-.1s2.66,0,4.28.15a46.4,46.4,0,0,1,9.55,1.41,26.09,26.09,0,0,1,8.22,3.5,7.32,7.32,0,0,1,3.51,6.33,11.11,11.11,0,0,1-5.16,9.69,25,25,0,0,1-11,4.53Zm-1.36-6.47a11.1,11.1,0,0,0,4.82-2.49,5.65,5.65,0,0,0,2-3.45,3.24,3.24,0,0,0-1.56-3c-1.23-.88-3.2-1.27-5.89-1.17Z" transform="translate(-64.05 -202.16)" style="fill:#d86600"/><path d="M308.84,246.68l.3,10.52L295.5,257l.1,3.9,7-.39.05,6.42h-6.33l.15,4.48,13.14-.77.15,12.61-25,.73-2.09-37.25Z" transform="translate(-64.05 -202.16)" style="fill:#d86600"/><path d="M343.66,247.31l3.11,32.53-11.15,2.63-.83-17.73L325.2,284l-13-3.36.73-32.14h11.15l-1.65,16.22,9.59-17,11.64-1Zm-20.7-11,16.17-.49-1,6.24L323,243.51Z" transform="translate(-64.05 -202.16)" style="fill:#d86600"/><path d="M353.54,284l7.84-36.08,14.41-1.22,13,30.33-12.17,1.46L371,262.65l-2.68,20.21Z" transform="translate(-64.05 -202.16)" style="fill:#d86600"/><path d="M417.91,246.68l.29,10.52-13.63-.2.09,3.9,7-.39.05,6.42h-6.33l.14,4.48,13.15-.77.15,12.61-25,.73-2.1-37.25Z" transform="translate(-64.05 -202.16)" style="fill:#d86600"/><path d="M433.88,272.24l.49,11.74-10.62-1.27-2.48-35.93c.91-.07,2-.1,3.21-.1s2.66,0,4.29.15a46.21,46.21,0,0,1,9.54,1.41,26.15,26.15,0,0,1,8.23,3.5,7.33,7.33,0,0,1,3.5,6.33,11.07,11.07,0,0,1-5.16,9.69,25,25,0,0,1-11,4.53Zm-1.37-6.47a11.1,11.1,0,0,0,4.82-2.49,5.6,5.6,0,0,0,2-3.45,3.24,3.24,0,0,0-1.56-3q-1.84-1.32-5.89-1.17Z" transform="translate(-64.05 -202.16)" style="fill:#d86600"/><path d="M103.35,343.28l-1.12-6.62,35.4.24-1.12,6.38Zm20.21-41,13-.73-1.76,35-11.24,1.27.78-27.66-9.64.64.58,27.12-9.88,1L103.93,303Z" transform="translate(-64.05 -202.16)" style="fill:#d86600"/><path d="M138.7,342.4l7.84-36.07L161,305.11l13,30.33-12.17,1.46-5.6-15.82-2.68,20.21Z" transform="translate(-64.05 -202.16)" style="fill:#d86600"/><path d="M202,328l-2.44.05-10.9,14.36-11.79-8.81L190.5,325a18.62,18.62,0,0,1-5.55-5.45,6.87,6.87,0,0,1-.73-6.52c.65-1.63,2.21-3,4.68-4.19a35.58,35.58,0,0,1,8.13-2.63c1.56-.29,3.11-.53,4.65-.71s3.12-.3,4.75-.36a41,41,0,0,1,8.27.39L213,339.92l-11.54,1.46Zm.78-16.7c-2.73.1-4.65.55-5.75,1.37a2.72,2.72,0,0,0-1.46,2.72,5.07,5.07,0,0,0,2.14,2.92,10.94,10.94,0,0,0,5,1.85Z" transform="translate(-64.05 -202.16)" style="fill:#d86600"/><path d="M263.73,305.84l12.95-.73-1.7,35-11.25,1.26.73-27.65-9.64.63.59,27.07-9.84,1-1.51-35.78Z" transform="translate(-64.05 -202.16)" style="fill:#d86600"/><path d="M305.7,305.11l.3,10.52-13.64-.2.1,3.9,7-.39.05,6.42h-6.33l.15,4.48,13.14-.78.15,12.61-25,.73-2.09-37.24Z" transform="translate(-64.05 -202.16)" style="fill:#d86600"/><path d="M321.67,330.67l.49,11.73-10.62-1.26-2.48-35.93c.91-.07,2-.1,3.22-.1s2.66.05,4.28.14a46.23,46.23,0,0,1,9.54,1.42,25.83,25.83,0,0,1,8.23,3.5,7.32,7.32,0,0,1,3.51,6.33,11.14,11.14,0,0,1-5.16,9.69,25,25,0,0,1-11,4.53Zm-1.36-6.48a11,11,0,0,0,4.82-2.48,5.64,5.64,0,0,0,2-3.46,3.23,3.23,0,0,0-1.56-3q-1.86-1.32-5.89-1.17Z" transform="translate(-64.05 -202.16)" style="fill:#d86600"/><path d="M366.66,305.11l.3,10.52-13.64-.2.1,3.9,7-.39.05,6.42H354.1l.15,4.48,13.14-.78.15,12.61-25,.73-2.09-37.24Z" transform="translate(-64.05 -202.16)" style="fill:#d86600"/><path d="M370,306.76c1.75-.39,3.52-.72,5.28-1s3.58-.5,5.43-.66q5.55-.44,13.15,2.68,5.16,2.19,5.6,6.57c.32,2.89-.91,5.14-3.7,6.77q6.62.78,9.54,3.94a9,9,0,0,1,2.53,6.82,10.39,10.39,0,0,1-3.45,6.67,14,14,0,0,1-8.72,3.55c-2.11.2-4.11.3-6,.32a52.25,52.25,0,0,1-5.4-.22c-1.72-.16-3.47-.39-5.24-.68s-3.58-.67-5.43-1.12Zm13.59,11.45,1.94-.2a9.79,9.79,0,0,0,1.76-.34q1.65-.44,1.8-1.56c.13-1.39-.72-2.24-2.53-2.53-.91-.16-1.66-.27-2.24-.32a4.86,4.86,0,0,0-1.32,0Zm2.09,15.09a25.42,25.42,0,0,1,4.19-.29c2.07-.1,3.07-1,3-2.73q-.15-3-3.51-3.21c-1.1-.1-2-.16-2.73-.17a8.76,8.76,0,0,0-1.6.07Z" transform="translate(-64.05 -202.16)" style="fill:#d86600"/><path d="M449,325.41q-.58,8.58-6.62,12.81a21.9,21.9,0,0,1-13,4.18,20.5,20.5,0,0,1-12.62-4.28q-5.64-4.19-5.5-12.71a18.22,18.22,0,0,1,2.1-8.32,23.85,23.85,0,0,1,5.25-6.48,22.69,22.69,0,0,1,7-4.14,19.13,19.13,0,0,1,7.54-1.36,17.92,17.92,0,0,1,4.58,1,16.8,16.8,0,0,1,5.5,3.21,18,18,0,0,1,4.38,6.19A21.94,21.94,0,0,1,449,325.41Zm-13.68-4.33a1,1,0,0,0,.34-.24,1.35,1.35,0,0,0,.29-.3,3.62,3.62,0,0,0,1.22-2.67,5.18,5.18,0,0,0-.83-2.59l-.25-.21-.29-.27-.22-.22a2.75,2.75,0,0,0-.26-.22,6.62,6.62,0,0,0-2.54-1,4.5,4.5,0,0,0-2.92.43,5.39,5.39,0,0,0-1.07.59c-.49.32-.76.52-.83.58a4,4,0,0,0-1.26,2.88,4.87,4.87,0,0,0,1,2.72c.06.07.12.13.17.2l.17.19a1.06,1.06,0,0,1,.2.12l.19.17a5.28,5.28,0,0,0,6.91-.24Z" transform="translate(-64.05 -202.16)" style="fill:#d86600"/><path d="M454.55,307.2l27-2.09,1.32,11.05-7.75,5.8a10.13,10.13,0,0,1,6.62,2.43c1.89,1.56,2.86,3.88,2.93,7a8.24,8.24,0,0,1-3.8,7.5,21.63,21.63,0,0,1-9.06,3.21,40.73,40.73,0,0,1-10.76.05,35.19,35.19,0,0,1-8.66-1.94l3-11.2a10.64,10.64,0,0,0,3.31,2,16.63,16.63,0,0,0,5.06,1.37,7.62,7.62,0,0,0,2.43,0,7.42,7.42,0,0,0,2.15-.69c1.36-.61,2-2,2-4.18a2.1,2.1,0,0,0-1.31-1.8,16.12,16.12,0,0,0-3.12-1.22,17.61,17.61,0,0,0-1.78-.39q-.9-.15-1.77-.24a10.55,10.55,0,0,0-2.83-.1l-.14-3,16.31-7.6L456.25,317Z" transform="translate(-64.05 -202.16)" style="fill:#d86600"/><path d="M514.73,306l8.18,7.89L513,324.44,523,335l-10.52,7.26-11.05-12.61.14,11.88-12.27.87-1.85-36.76,14.12-.53.1,18.16Z" transform="translate(-64.05 -202.16)" style="fill:#d86600"/><path d="M557.33,305.74l3.12,32.53L549.3,340.9l-.83-17.73-9.59,19.23-13-3.35.73-32.14h11.15l-1.66,16.21,9.59-17,11.64-1Z" transform="translate(-64.05 -202.16)" style="fill:#d86600"/><path d="M189.63,364l7.06-.19L197,374,205.74,363l10.67,5.8-13.1,13.53,10,11.49-8.76,6.53-7.79-11.49-.25,10.85-6.38.2-.24-10.47-7.06,9.2-11.2-5.79,11.44-12.12-9.15-13,9.35-3.51,6.82,10.42Z" transform="translate(-64.05 -202.16)" style="fill:#d86600"/><path d="M249.61,364.17l3.12,32.52-11.15,2.63-.83-17.72-9.59,19.23-13-3.36.73-32.13H230l-1.66,16.21,9.6-17,11.63-1Z" transform="translate(-64.05 -202.16)" style="fill:#d86600"/><path d="M255.55,365.19q2.64-.58,5.29-1t5.42-.65c3.7-.3,8.09.6,13.15,2.67q5.16,2.21,5.6,6.58c.32,2.89-.91,5.14-3.7,6.77,4.41.51,7.6,1.83,9.54,3.94a9,9,0,0,1,2.53,6.82,10.39,10.39,0,0,1-3.45,6.67,14,14,0,0,1-8.72,3.55c-2.11.2-4.1.3-6,.32s-3.68-.06-5.4-.22-3.47-.39-5.24-.68-3.57-.67-5.42-1.12Zm13.59,11.44,1.94-.19a10.55,10.55,0,0,0,1.76-.34q1.65-.44,1.8-1.56c.13-1.4-.72-2.24-2.53-2.53-.91-.16-1.66-.27-2.24-.32a4.49,4.49,0,0,0-1.32,0Zm2.09,15.1a25.42,25.42,0,0,1,4.19-.29q3.12-.15,3-2.73-.15-3-3.51-3.21c-1.1-.1-2-.16-2.72-.18a8.64,8.64,0,0,0-1.61.08Z" transform="translate(-64.05 -202.16)" style="fill:#d86600"/><path d="M334.48,383.84q-.59,8.57-6.62,12.8a21.85,21.85,0,0,1-13,4.19,20.51,20.51,0,0,1-12.61-4.28q-5.65-4.19-5.51-12.71a18.39,18.39,0,0,1,2.1-8.33A23.65,23.65,0,0,1,304.1,369a22.15,22.15,0,0,1,7-4.14,19,19,0,0,1,7.54-1.36,17.83,17.83,0,0,1,4.58,1,16.8,16.8,0,0,1,5.5,3.21,18.18,18.18,0,0,1,4.39,6.19A22,22,0,0,1,334.48,383.84Zm-13.68-4.33c.19-.1.31-.18.34-.25a1.14,1.14,0,0,0,.29-.29,3.62,3.62,0,0,0,1.22-2.68,5.11,5.11,0,0,0-.83-2.58l-.24-.22-.3-.27-.22-.21a1.78,1.78,0,0,0-.26-.22,6.75,6.75,0,0,0-2.53-1,4.53,4.53,0,0,0-2.93.44,5.39,5.39,0,0,0-1.07.59,9.61,9.61,0,0,0-.82.58,3.93,3.93,0,0,0-1.27,2.87,4.87,4.87,0,0,0,1,2.73l.17.19c.05.07.11.13.17.2a1.06,1.06,0,0,1,.2.12l.19.17a5.29,5.29,0,0,0,6.92-.24Z" transform="translate(-64.05 -202.16)" style="fill:#d86600"/><path d="M338.18,365.43l33.55-1.89.58,16.84-12.81-.68,3.85,21.13-16.46-1.75,2.83-19-11.83.34Z" transform="translate(-64.05 -202.16)" style="fill:#d86600"/><path d="M375.18,365.05l11.35-.69v12.57l8.32-.15V364.27l12.95-.73-1.7,35-11.25,1.27V386.52l-8.32.19v13.15l-9.84,1Z" transform="translate(-64.05 -202.16)" style="fill:#d86600"/><path d="M422.31,376.05a25.62,25.62,0,0,1,11,4.53,8.59,8.59,0,0,1,2,1.9,7.73,7.73,0,0,1,1.12,2.07,8.45,8.45,0,0,1,.47,2.36c0,.84.07,1.77.07,2.77v2a10.49,10.49,0,0,1-.17,1.9,5.73,5.73,0,0,1-.61,1.68,4,4,0,0,1-1.32,1.37,25.51,25.51,0,0,1-8.17,3.5c-1.6.39-3.18.71-4.75.95a40.2,40.2,0,0,1-4.8.46c-1.62.1-3.06.15-4.31.15s-2.31,0-3.19-.1l2.49-35.93,10.56-1.27-.44,11.74Zm-2,16.65c2.69.1,4.66-.29,5.89-1.17a3.3,3.3,0,0,0,1.56-3,4.61,4.61,0,0,0-.59-1.7,6.85,6.85,0,0,0-1.46-1.75,11.07,11.07,0,0,0-4.77-2.49Zm18.94,8.23,12.36-.44.69-35.93-14-1Z" transform="translate(-64.05 -202.16)" style="fill:#d86600"/><path d="M465.65,364.17l6.81,10.42,8.77-11,10.66,5.74-13.1,13.59,10,11.49-8.76,6.47-7.79-11.44-7.06,9.2L454,392.8l11.44-12.12-9.15-13Z" transform="translate(-64.05 -202.16)" style="fill:#d86600"/></svg>