<svg id="Слой_1" data-name="Слой 1" xmlns="http://www.w3.org/2000/svg" viewBox="0 0 495.87 104.54"><title>santa_short</title><rect x="10.31" y="1.23" width="485.56" height="103.32" rx="12" ry="12" style="fill:#3a301f"/><rect width="485.56" height="103.32" rx="12" ry="12" style="fill:#fff"/><path d="M168.26,317.83q-8.7-1.47-12.63,1.92t-3.48,7.14q.45,3.8,5,5.8t13-2.23l4.64,9.37a22.18,22.18,0,0,1-10,3,32.35,32.35,0,0,1-11.29-1.07,24,24,0,0,1-9.37-5,11.81,11.81,0,0,1-4.11-8.79,15,15,0,0,1,2.9-9.91,22.1,22.1,0,0,1,7.86-6.65,24.86,24.86,0,0,1,10.17-2.63,18.4,18.4,0,0,1,9.73,2Z" transform="translate(-86.46 -275.59)" style="fill:#d86600"/><path d="M201.91,308.73l10.44,30.34-11.06,3.84-2.19-6.7h-8.57l-2,6.56-10.89-5.08,11.12-28.12Zm-3.66,20.48-3.26-7.9-3.34,7.76Z" transform="translate(-86.46 -275.59)" style="fill:#d86600"/><path d="M215.12,310.11l10.4-.63V321l7.63-.14V309.39l11.87-.66-1.57,32.08L233.15,342V329.79l-7.63.18v12l-9,.9Z" transform="translate(-86.46 -275.59)" style="fill:#d86600"/><path d="M247.83,310.47l30.74-1.74.54,15.44-11.74-.63,3.53,19.37-15.08-1.61,2.58-17.4-10.84.31Z" transform="translate(-86.46 -275.59)" style="fill:#d86600"/><path d="M306,308.73l10.44,30.34-11.07,3.84-2.19-6.7h-8.56l-2,6.56-10.89-5.08,11.11-28.12Zm-3.66,20.48-3.26-7.9-3.35,7.76Z" transform="translate(-86.46 -275.59)" style="fill:#d86600"/><path d="M368.4,309.53l7.5,7.23-9.11,9.68,9.15,9.68-9.64,6.65-10.13-11.55.14,10.88-11.25.81-1.69-33.69,12.94-.49.09,16.64Z" transform="translate(-86.46 -275.59)" style="fill:#d86600"/><path d="M378.62,342.91l7.18-33.07L399,308.73l11.92,27.8-11.16,1.34-5.13-14.51-2.46,18.52Z" transform="translate(-86.46 -275.59)" style="fill:#d86600"/><path d="M437.83,308.73l10.45,30.34-11.07,3.84-2.19-6.7h-8.57l-2,6.56-10.89-5.08,11.11-28.12Zm-3.66,20.48-3.25-7.9-3.35,7.76Z" transform="translate(-86.46 -275.59)" style="fill:#d86600"/><path d="M451,318.5l7.63-5.8,6.25,8.3,4.95-12.27,10.45,1.74L463,342.91l-7.67-5.58,6.29-10.22Z" transform="translate(-86.46 -275.59)" style="fill:#d86600"/><path d="M510.93,317.83q-8.7-1.47-12.63,1.92t-3.48,7.14c.29,2.53,2,4.46,5,5.8s7.41.59,13-2.23l4.64,9.37a22.14,22.14,0,0,1-9.95,3,32.35,32.35,0,0,1-11.29-1.07,24.11,24.11,0,0,1-9.37-5,11.81,11.81,0,0,1-4.11-8.79,15,15,0,0,1,2.9-9.91,22.18,22.18,0,0,1,7.86-6.65,24.86,24.86,0,0,1,10.17-2.63,18.4,18.4,0,0,1,9.73,2Z" transform="translate(-86.46 -275.59)" style="fill:#d86600"/></svg>