<svg id="50af2b2a-3140-4a45-8c7e-fe44707159a1" data-name="не фанерные объекты наведение мышкой" xmlns="http://www.w3.org/2000/svg" viewBox="0 0 495.86719 104.54484">
    <rect x="10.30974" y="1.22877" width="485.55745" height="103.31607" rx="12" ry="12" style="fill:#3a301f"/>
    <rect width="485.55745" height="103.31607" rx="12" ry="12" style="fill:#fff"/>
    <path d="M922.15967,1804.96812q-8.70117-1.47216-12.62891,1.91993-3.92724,3.3457-3.48047,7.13867.44532,3.79395,5.043,5.80176,4.59522,2.00829,13.03028-2.23145l4.64062,9.37109a22.054,22.054,0,0,1-9.95117,2.99024,32.39013,32.39013,0,0,1-11.29-1.07129,24.077,24.077,0,0,1-9.37109-4.998,11.80535,11.80535,0,0,1-4.10547-8.791,14.98818,14.98818,0,0,1,2.90039-9.90625,22.05563,22.05563,0,0,1,7.85449-6.64942,24.79766,24.79766,0,0,1,10.17383-2.63281,18.44061,18.44061,0,0,1,9.72851,2.00781Z" transform="translate(-784.06641 -1762.72756)" style="fill:#d86600"/><path d="M931.52979,1797.24937l10.39746-.625v11.5127l7.63086-.13379v-11.46875l11.87011-.66894-1.5625,32.085-10.30761,1.16015v-12.18359l-7.63086.17969v12.04785l-9.01368.89258Z" transform="translate(-784.06641 -1762.72756)" style="fill:#d86600"/>
    <path d="M988.02393,1795.86559l.26757,9.63867-12.49511-.17871.08984,3.57031,6.38086-.35742.04492,5.89062h-5.80078l.13379,4.10547,12.04785-.71484.13379,11.55859-22.93652.66895-1.91895-34.1377Z" transform="translate(-784.06641 -1762.72756)" style="fill:#d86600"/>
    <path d="M1002.70459,1817.4193l1.02637,12.62793-10.57617-.89258-2.05274-33.28906,23.29395,1.07128.04492,9.54883-12.98633-.89258Z" transform="translate(-784.06641 -1762.72756)" style="fill:#d86600"/>
    <path d="M1051.21045,1814.474q-.53613,7.85449-6.06934,11.73536a20.08187,20.08187,0,0,1-11.91406,3.83789,18.77895,18.77895,0,0,1-11.55762-3.92676q-5.17676-3.8379-5.043-11.64649a16.75779,16.75779,0,0,1,1.91895-7.63086,21.77285,21.77285,0,0,1,4.81934-5.93554,20.53755,20.53755,0,0,1,6.42578-3.793,17.52732,17.52732,0,0,1,6.917-1.249,16.77726,16.77726,0,0,1,4.19434.93652,15.4634,15.4634,0,0,1,5.043,2.94531,16.71925,16.71925,0,0,1,4.01563,5.668A20.10482,20.10482,0,0,1,1051.21045,1814.474Zm-12.53906-3.97265a.722.722,0,0,0,.31152-.22266,1.13967,1.13967,0,0,0,.26855-.26758,3.31426,3.31426,0,0,0,1.11524-2.4541,4.642,4.642,0,0,0-.75879-2.36523c-.05957-.05957-.13379-.126-.22266-.2002-.08984-.07422-.17871-.15625-.26855-.24609-.05957-.0586-.126-.126-.2002-.20117a1.67357,1.67357,0,0,0-.24511-.2002,6.1102,6.1102,0,0,0-2.32129-.89258,4.115,4.115,0,0,0-2.67676.40137,4.89041,4.89041,0,0,0-.98242.53516,8.69409,8.69409,0,0,0-.75781.53613,3.62845,3.62845,0,0,0-1.16016,2.63281,4.51909,4.51909,0,0,0,.93652,2.499,1.80262,1.80262,0,0,1,.15625.17773,1.71021,1.71021,0,0,0,.15625.17969,1.1591,1.1591,0,0,1,.17871.11133,1.79018,1.79018,0,0,1,.17871.15625,4.86121,4.86121,0,0,0,2.9004,1.07031,4.8107,4.8107,0,0,0,3.43554-1.29395Z" transform="translate(-784.06641 -1762.72756)" style="fill:#d86600"/>
    <path d="M1054.33252,1797.38219q2.40966-.53468,4.8418-.91407,2.43163-.37938,4.97558-.60253,5.0874-.40284,12.04883,2.4541,4.72851,2.00829,5.13184,6.02441.4453,3.97119-3.39161,6.20215,6.0674.71484,8.7461,3.61523a8.26045,8.26045,0,0,1,2.32031,6.24707,9.53958,9.53958,0,0,1-3.168,6.11329,12.81113,12.81113,0,0,1-7.98828,3.25781q-2.90039.26807-5.48828.29a47.92422,47.92422,0,0,1-4.95313-.20117q-2.36571-.22266-4.79687-.625-2.43311-.40137-4.97559-1.0254Zm12.45019,10.48633q.9375-.0879,1.78516-.17774a8.99866,8.99866,0,0,0,1.60645-.3125q1.51611-.40137,1.65136-1.42773.17726-1.91895-2.32031-2.32032-1.251-.22265-2.05273-.291a4.35308,4.35308,0,0,0-1.20508.02344Zm1.91895,13.834a23.21566,23.21566,0,0,1,3.83789-.26758q2.855-.13476,2.72168-2.499-.13331-2.72167-3.21289-2.94531-1.51758-.13331-2.499-.15625a7.92839,7.92839,0,0,0-1.47266.06738Z" transform="translate(-784.06641 -1762.72756)" style="fill:#d86600"/>
    <path d="M1120.91162,1796.44566l2.85645,29.8086-10.21973,2.40918-.75781-16.24219-8.791,17.626-11.915-3.07911.66992-29.45117h10.21875l-1.51757,14.85938,8.791-15.61914,10.665-.8916Z" transform="translate(-784.06641 -1762.72756)" style="fill:#d86600"/>
    <path d="M1151.38916,1796.6693l7.49707,7.22851-9.10352,9.6836,9.14747,9.68359-9.63868,6.64844-10.1289-11.55762.13379,10.8877-11.24512.80371-1.69629-33.69043,12.94141-.49121.08886,16.64453Z" transform="translate(-784.06641 -1762.72756)" style="fill:#d86600"/>
</svg>