<svg id="Слой_1" data-name="Слой 1" xmlns="http://www.w3.org/2000/svg" viewBox="0 0 495.87 168.04"><title>socks_short</title><rect x="10.31" y="1.98" width="485.56" height="166.07" rx="12" ry="12" style="fill:#3a301f"/><rect width="485.56" height="166.07" rx="12" ry="12" style="fill:#fff"/><path d="M239.09,290.11c-5.8-1-10-.35-12.63,1.92s-3.78,4.61-3.48,7.14,2,4.46,5,5.8,7.41.59,13-2.23l4.64,9.37a22.1,22.1,0,0,1-9.95,3A32.61,32.61,0,0,1,224.45,314a24.24,24.24,0,0,1-9.37-5,11.76,11.76,0,0,1-4.1-8.79,15,15,0,0,1,2.9-9.91,22,22,0,0,1,7.85-6.65,24.71,24.71,0,0,1,10.17-2.63,18.38,18.38,0,0,1,9.73,2Z" transform="translate(-86.72 -243.87)" style="fill:#d86600"/><path d="M248.46,315.19l7.18-33.07L268.85,281l11.92,27.8-11.16,1.34-5.13-14.5L262,314.16Z" transform="translate(-86.72 -243.87)" style="fill:#d86600"/><path d="M307.67,281l10.45,30.35-11.07,3.84-2.19-6.7H296.3l-2,6.56L283.4,310l11.11-28.11ZM304,301.49l-3.26-7.9-3.35,7.76Z" transform="translate(-86.72 -243.87)" style="fill:#d86600"/><path d="M320.93,316l-1-6.07,32.44.22-1,5.85Zm18.52-37.62,11.91-.67-1.61,32.09L339.45,311l.71-25.35-8.83.58.53,24.86-9.06.89-1.34-32.84Z" transform="translate(-86.72 -243.87)" style="fill:#d86600"/><path d="M378.36,281.81l7.5,7.23-9.11,9.68,9.15,9.68-9.64,6.65-10.13-11.56.14,10.89-11.25.81-1.7-33.69,12.95-.5.08,16.65Z" transform="translate(-86.72 -243.87)" style="fill:#d86600"/><path d="M417.4,281.58l2.86,29.81L410,313.8l-.76-16.24-8.79,17.63-11.91-3.08.67-29.45h10.22L398,297.51l8.79-15.61,10.66-.9Z" transform="translate(-86.72 -243.87)" style="fill:#d86600"/><path d="M446.9,281l.27,9.64-12.5-.18.09,3.57,6.38-.35.05,5.89h-5.8l.13,4.1,12.05-.71.13,11.56-22.93.67-1.92-34.14Z" transform="translate(-86.72 -243.87)" style="fill:#d86600"/><path d="M190.25,335.22l11.87-.67-1.56,32.09-10.31,1.16.67-25.35-8.84.58.54,24.81-9,.89-1.38-32.79Z" transform="translate(-86.72 -243.87)" style="fill:#d86600"/><path d="M239.25,353.16q-.54,7.86-6.07,11.74a20.07,20.07,0,0,1-11.92,3.83,18.78,18.78,0,0,1-11.56-3.92q-5.17-3.84-5-11.65a16.74,16.74,0,0,1,1.92-7.63,21.75,21.75,0,0,1,4.82-5.93,20.37,20.37,0,0,1,6.43-3.8,17.49,17.49,0,0,1,6.91-1.25,17.12,17.12,0,0,1,4.2.94,15.73,15.73,0,0,1,5,2.94,16.84,16.84,0,0,1,4,5.67A20.24,20.24,0,0,1,239.25,353.16Zm-12.54-4A.81.81,0,0,0,227,349a1.15,1.15,0,0,0,.27-.27,3.33,3.33,0,0,0,1.11-2.46,4.58,4.58,0,0,0-.76-2.36,2.3,2.3,0,0,0-.22-.2l-.27-.25-.2-.2a2.31,2.31,0,0,0-.24-.2,6.25,6.25,0,0,0-2.33-.89,4.06,4.06,0,0,0-2.67.4,4.51,4.51,0,0,0-1,.54,7.21,7.21,0,0,0-.76.53,3.61,3.61,0,0,0-1.16,2.63,4.53,4.53,0,0,0,.93,2.5,1.29,1.29,0,0,1,.16.18l.16.18.18.11.17.16a4.92,4.92,0,0,0,2.9,1.07,4.79,4.79,0,0,0,3.44-1.3Z" transform="translate(-86.72 -243.87)" style="fill:#d86600"/><path d="M258.83,335l6.47-.17.27,9.37,8-10.13,9.78,5.31-12,12.4,9.2,10.53-8,6-7.14-10.53-.22,10-5.85.18-.22-9.59-6.47,8.43-10.26-5.31,10.48-11.11-8.39-11.91,8.57-3.22,6.25,9.55Z" transform="translate(-86.72 -243.87)" style="fill:#d86600"/><path d="M309,334.55l.26,9.64L296.81,344l.09,3.57,6.38-.35,0,5.89h-5.8l.14,4.1,12-.71.14,11.56-22.94.66L285,334.6Z" transform="translate(-86.72 -243.87)" style="fill:#d86600"/><path d="M312.11,368.73l7.19-33.06,13.21-1.12,11.91,27.8-11.15,1.34-5.14-14.5-2.45,18.52Z" transform="translate(-86.72 -243.87)" style="fill:#d86600"/><path d="M371.33,334.55l10.44,30.35-11.07,3.83L368.52,362H360l-2,6.56-10.89-5.09,11.11-28.11ZM367.67,355l-3.26-7.89-3.35,7.76Z" transform="translate(-86.72 -243.87)" style="fill:#d86600"/><path d="M384.54,335.94l10.39-.63v11.51l7.64-.13V335.22l11.87-.67-1.57,32.09-10.3,1.16V355.61l-7.64.18v12l-9,.89Z" transform="translate(-86.72 -243.87)" style="fill:#d86600"/><path d="M445.8,335.13l2.86,29.81-10.22,2.41-.76-16.24-8.79,17.62L417,365.66l.67-29.46h10.22l-1.52,14.86,8.79-15.62,10.66-.89Z" transform="translate(-86.72 -243.87)" style="fill:#d86600"/><path d="M474.28,355.53l-2.24,0-10,13.16-10.8-8.07,12.54-7.86a17,17,0,0,1-5.09-5,6.29,6.29,0,0,1-.67-6c.6-1.49,2-2.77,4.29-3.84a32.4,32.4,0,0,1,7.45-2.41c1.43-.27,2.85-.48,4.26-.65s2.86-.27,4.35-.33A38.24,38.24,0,0,1,486,335l-1.61,31.51-10.58,1.34Zm.71-15.31q-3.75.13-5.27,1.25a2.53,2.53,0,0,0-1.34,2.5,4.73,4.73,0,0,0,2,2.68,10.14,10.14,0,0,0,4.55,1.69Z" transform="translate(-86.72 -243.87)" style="fill:#d86600"/></svg>