<svg id="Слой_1" data-name="Слой 1" xmlns="http://www.w3.org/2000/svg" viewBox="0 0 541.08 148.31"><title>window_short</title><rect x="11.25" y="1.74" width="529.83" height="146.57" rx="12" ry="12" style="fill:#3a301f"/><rect width="529.83" height="146.57" rx="12" ry="12" style="fill:#fff"/><path d="M155.06,329.24q-.59,8.56-6.62,12.8a21.92,21.92,0,0,1-13,4.19A20.51,20.51,0,0,1,122.83,342q-5.65-4.18-5.51-12.71a18.39,18.39,0,0,1,2.1-8.33,23.65,23.65,0,0,1,5.26-6.47,22.15,22.15,0,0,1,7-4.14,19.18,19.18,0,0,1,7.54-1.37,18.36,18.36,0,0,1,4.58,1,16.8,16.8,0,0,1,5.5,3.21,18.23,18.23,0,0,1,4.39,6.18A22,22,0,0,1,155.06,329.24Zm-13.68-4.33c.19-.1.31-.18.34-.25a1.13,1.13,0,0,0,.29-.29,3.62,3.62,0,0,0,1.22-2.68,5,5,0,0,0-.83-2.58l-.24-.22a3.65,3.65,0,0,1-.3-.27l-.22-.21a1.32,1.32,0,0,0-.26-.22,6.59,6.59,0,0,0-2.53-1,4.53,4.53,0,0,0-2.93.44,6,6,0,0,0-1.07.58,8.61,8.61,0,0,0-.82.59,3.93,3.93,0,0,0-1.27,2.87,5,5,0,0,0,1,2.73,1.45,1.45,0,0,1,.17.19c.05.07.11.13.17.2a1.06,1.06,0,0,1,.2.12l.19.17a5.38,5.38,0,0,0,3.17,1.17,5.25,5.25,0,0,0,3.75-1.41Z" transform="translate(-64.32 -253.28)" style="fill:#d86600"/><path d="M158.76,310.83l33.55-1.9.58,16.85-12.8-.68,3.84,21.13-16.46-1.75,2.83-19-11.83.34Z" transform="translate(-64.32 -253.28)" style="fill:#d86600"/><path d="M195.81,347.11l-1.12-6.62,35.4.24L229,347.11ZM216,306.06l13-.73-1.75,35L216,341.61,216.8,314l-9.64.63.58,27.12-9.88,1-1.46-35.84Z" transform="translate(-64.32 -253.28)" style="fill:#d86600"/><path d="M257.4,308.93l.3,10.52-13.64-.19.1,3.89,7-.39,0,6.43h-6.33l.15,4.48,13.14-.78.15,12.61-25,.73L231.16,309Z" transform="translate(-64.32 -253.28)" style="fill:#d86600"/><path d="M260.76,346.23l7.84-36.08L283,308.93l13,30.34-12.17,1.46-5.6-15.82-2.68,20.2Z" transform="translate(-64.32 -253.28)" style="fill:#d86600"/><path d="M326.2,309.81l8.18,7.89-9.93,10.56,10,10.57-10.52,7.26-11.05-12.62.15,11.88-12.27.88-1.85-36.76,14.12-.54.09,18.17Z" transform="translate(-64.32 -253.28)" style="fill:#d86600"/><path d="M363.84,308.93,375.23,342l-12.07,4.19-2.39-7.3h-9.35l-2.19,7.16-11.88-5.56,12.12-30.67Zm-4,22.35-3.56-8.61-3.65,8.47Z" transform="translate(-64.32 -253.28)" style="fill:#d86600"/><path d="M435.27,318.87q-9.5-1.61-13.78,2.09t-3.8,7.79c.32,2.76,2.16,4.87,5.5,6.33s8.08.65,14.22-2.43l5.06,10.22a23.92,23.92,0,0,1-10.85,3.26A35.27,35.27,0,0,1,419.3,345a26.4,26.4,0,0,1-10.23-5.46,12.87,12.87,0,0,1-4.48-9.59,16.33,16.33,0,0,1,3.17-10.81,24,24,0,0,1,8.57-7.25,27.08,27.08,0,0,1,11.1-2.88A20.17,20.17,0,0,1,438,311.17Z" transform="translate(-64.32 -253.28)" style="fill:#d86600"/><path d="M445.78,310.83l33.55-1.9.59,16.85-12.81-.68L471,346.23l-16.46-1.75,2.82-19-11.83.34Z" transform="translate(-64.32 -253.28)" style="fill:#d86600"/><path d="M509,308.93l.29,10.52-13.63-.19.1,3.89,7-.39.05,6.43h-6.33l.15,4.48,13.14-.78.15,12.61-25,.73L482.79,309Z" transform="translate(-64.32 -253.28)" style="fill:#d86600"/><path d="M512.39,310.44l11.34-.68v12.56l8.33-.14V309.67l13-.74-1.7,35-11.25,1.27V331.92l-8.33.19v13.15l-9.83,1Z" transform="translate(-64.32 -253.28)" style="fill:#d86600"/></svg>