<svg xmlns="http://www.w3.org/2000/svg" viewBox="0 0 4697.0099 2643.10612">
    <polygon points="4697.01 0 0 0 0.009 2643.106 4697.009 2643 4697.01 0" style="fill:#225d78"/>
    <path d="M0,2174.32617V2643H0V2176.2225l.10294.03812A17.26235,17.26235,0,0,0,0,2174.32617m4697.00049-154.76849c-3.791.09637-9.9043.24689-18.07276.44324h18.07276v-.44324m-303.43994-1553.952-.00147.79615q0,.66393.00537,1.32641-.00439-.66174-.00488-1.32641,0-.39844.001-.79615M1838.30994,449.56494l.16821.08936c23.17822,12.238,52.88354,16.3313,78.72632,16.3313a193.35754,193.35754,0,0,1-78.89453-16.42066M3233.62158,213.18481a80.14907,80.14907,0,0,0,4.51514,12.67676c-2.92432-7.38672-4.06836-12.23462-4.51514-12.67676" transform="translate(0.00941 -0.00049)" style="fill:#cee8f7"/>
    <path d="M636.95514,568.999A208.05172,208.05172,0,0,1,601.4,585.39844a177.25668,177.25668,0,0,1-53.97009,58.39245c-.12231.0835-.24457.16822-.368.25281q70.91574-12.79614,150.31763-25.85437c-.52442-.27283-1.04529-.548-1.56739-.82544A190.38413,190.38413,0,0,1,636.95514,568.999" transform="translate(0.00941 -0.00049)" style="fill:#1f566f"/>
    <path d="M1182.44141,450.07056c-36.92163,34.31689-84.02124,54.33105-135.34095,55.97143q-3.7586.13549-7.522.13623a206.17307,206.17307,0,0,1-25.14654-1.53686,200.62211,200.62211,0,0,1-42.1388,69.88647q-1.33336,1.43226-2.69031,2.83618,150.6699-20.58508,322.17682-39.24267-3.75329-1.20117-7.43957-2.54566c-41.98-15.31665-77.45288-44.561-101.89868-85.50512" transform="translate(0.00941 -0.00049)" style="fill:#1f566f"/>
    <path d="M0,618.943l-.00941.0188V783.69763L0,783.75525V764.41382H0s126.254-36.92041,361.17133-84.7384c-33.17881-5.41956-63.43564-16.78284-89.102-33.81141-39.00983,34.899-95.22228,52.30982-157.20459,52.30982q-5.39887,0-10.846-.17639c-35.65161-1.10059-69.02209-7.95813-98.41586-20.32691A102.161,102.161,0,0,1,0,690.66016V618.943" transform="translate(0.00941 -0.00049)" style="fill:#1f566f"/>
    <path d="M4393.56641,468.08325l-.002-.2727.002.2727M2734.97046,199.271c-38.39136,68.08154-103.5813,114.1499-177.78076,120.55835q-8.85571.84485-17.72119.84423a186.44375,186.44375,0,0,1-76.10889-16.23974q-2.95605.09521-5.91211.09521a183.57811,183.57811,0,0,1-63.64722-11.38794q-.71448,2.20459-1.46631,4.38819c-31.52685,91.60888-109.15014,154.18506-199.79248,161.65039-.09057.00708-.18115.01538-.2705.02246-.18579.01636-.37281.033-.5586.04809q-8.65282.73572-17.32593.73389a205.07778,205.07778,0,0,1-44.80688-4.9563,219.26824,219.26824,0,0,1-59.199,13.00025q-8.77845.709-17.38965.70532a196.27552,196.27552,0,0,1-70.46009-12.76709A215.70747,215.70747,0,0,1,1933.531,465.353q-8.23315.63318-16.32654.63257h0q8.08337,0,16.32654-.63257a215.70747,215.70747,0,0,0,48.99987-9.38672A196.27552,196.27552,0,0,0,2052.991,468.7334q8.60376,0,17.38965-.70532a219.26824,219.26824,0,0,0,59.199-13.00025,205.07778,205.07778,0,0,0,44.80688,4.9563,205.07778,205.07778,0,0,1-44.80688-4.9563,219.26824,219.26824,0,0,1-59.199,13.00025q-8.77845.709-17.38965.70532a196.27552,196.27552,0,0,1-70.46009-12.76709A215.70747,215.70747,0,0,1,1933.531,465.353q-8.23315.63318-16.32654.63257c-25.84278,0-55.5481-4.09327-78.72632-16.3313l-.16821-.08936h0a186.89043,186.89043,0,0,1-20.27747-10.53686q-1.23633-.74232-2.46216-1.50147a218.99935,218.99935,0,0,1-97.35168,51.47388h-98.58411a189.72259,189.72259,0,0,1-78.3136-40.33618c-.22571.3396-.44909.67358-.676,1.0122a222.07068,222.07068,0,0,1-70.66248,67.19019q-3.61047,2.15-7.29956,4.15771c255.1936-23.67089,539.78089-41.83886,850.3169-49.63476q153.3435-3.85,298.94213-3.75562c866.47071,0,1524.11231,94.90137,1852.58838,154.73889a206.18447,206.18447,0,0,1-70.96386-154.28967l-.002-.2727v-.08228h0q-.00585-.66174-.00537-1.32641l.00147-.79615h0a218.03326,218.03326,0,0,1,1.61914-25.76733,200.08379,200.08379,0,0,1-21.65039-30.98364c-57.01953-9.86182-105.47022-41.88111-135.80909-88.12354a226.24934,226.24934,0,0,1-68.98,15.36817c-4.6831.29052-9.34521.43627-13.957.43627-75.66577,0-140.73462-38.6853-176.06274-100.3208-31.69141,80.3667-95.70923,150.16138-191.66748,150.16138q-4.58752,0-9.27393-.21411c-121.77881-5.60523-166.77954-88.60571-176.11206-147.438-19.77417,32.02881-133.33618,78.72168-202.12207,78.72168q-2.04931,0-4.04468-.0564c-111.98046-3.14306-146.63964-64.42114-157.36352-91.52783h0a80.14907,80.14907,0,0,1-4.51514-12.67676,216.6879,216.6879,0,0,1-94.30151,31.33155q-9.02015.8042-17.86939.79956a187.2208,187.2208,0,0,1-100.92041-29.09741,211.47383,211.47383,0,0,1-82.45971,24.94433q-8.85937.79358-17.55762.78906a184.59791,184.59791,0,0,1-85.61328-20.79711q-6.17688.41784-12.34863.41723a183.12669,183.12669,0,0,1-87.58057-22.301h0c-38.39136,68.08154-103.5813,114.1499-177.78076,120.55835q-8.85571.84485-17.72119.84423a186.44375,186.44375,0,0,1-76.10889-16.23974q-2.95605.09521-5.91211.09521a183.57811,183.57811,0,0,1-63.64722-11.38794q-.71448,2.20459-1.46631,4.38819.74964-2.18335,1.46631-4.38819a183.57811,183.57811,0,0,0,63.64722,11.38794q2.95422,0,5.91211-.09521a186.44375,186.44375,0,0,0,76.10889,16.23974q8.85058,0,17.72119-.84423c74.19946-6.40845,139.3894-52.47681,177.78076-120.55835h0a183.12669,183.12669,0,0,0,87.58057,22.301q6.16588,0,12.34863-.41723a184.59791,184.59791,0,0,0,85.61328,20.79711q8.69019,0,17.55762-.78906a211.47383,211.47383,0,0,0,82.45971-24.94433,187.2208,187.2208,0,0,0,100.92041,29.09741q8.8418,0,17.86939-.79956a216.6879,216.6879,0,0,0,94.30151-31.33155h0a216.6879,216.6879,0,0,1-94.30151,31.33155q-9.02015.8042-17.86939.79956a187.2208,187.2208,0,0,1-100.92041-29.09741,211.47383,211.47383,0,0,1-82.45971,24.94433q-8.85937.79358-17.55762.78906a184.59791,184.59791,0,0,1-85.61328-20.79711q-6.17688.41784-12.34863.41723a183.12669,183.12669,0,0,1-87.58057-22.301" transform="translate(0.00941 -0.00049)" style="fill:#1f566f"/>
    <path d="M-.00941,1993.20581v.91834l.00151.00018c-.00049-.5586-.001-.885-.00151-.91852h0m2519.35926-889.8241c-211.80371,0-433.65747,5.44764-664.73559,17.60938C543.68127,1189.98621,0,1447.68555,0,1447.68555H0s-.00235.05993-.00941.17871V1993.0976L0,1992.87183c234.77977-29.57367,260.19565-55.922,780.66925-211.91425,467.04083-139.97729,977.49628-189.37335,1509.82123-189.36981q91.35095.00165,183.593,1.88013c598.47094,11.99829,1060.44726,97.49517,1220.93969,124.49261,160.491,26.99854,185.99024,41.99762,287.98658,62.99707,59.1521,12.17822,138.9707,15.77985,214.32959,15.77985,54.58007,0,106.8291-1.89081,147.15087-3.78156,95.99366-4.49878,352.51026-15.56817,352.51026-15.56817V1340.894l-.02832-8.4143c-421.31592-109.96265-1187.83252-229.098-2177.62232-229.098" transform="translate(0.00941 -0.00049)" style="fill:#153e51"/>
    <path d="M2290.49048,1591.58777c-532.32495-.00354-1042.7804,49.39252-1509.82123,189.36981C260.19565,1936.94983,234.77977,1963.29816,0,1992.87183l-.00941.22577v.10821h0c.00051.03351.001.35992.00151.91852.00405,4.63269.00689,25.23907-.00151,27.26526,2.71386-.03864,22.57347-.05249,51.50794-.05249,36.13037,0,86.40519.02154,135.05279.04309,48.3935.02136,95.18586.04266,124.8711.04266,11.19111,0,19.95136-.003,25.449-.01019,4.18869-.02136,6.63116-.03821,7.00384-.04877,50.1565-2.57727,98.42212-7.1604,148.511-9.8941q.77893-.04248,1.55924-.08448.74692-.04009,1.49316-.07977c74.37454-3.939,148.76553-7.63592,223.18478-10.652,67.744-2.74554,135.56549-5.26306,203.37647-5.26306,68.40478,0,511.55951-6.085,747.94086-8.76239h0c326.16638-78.04083,689.379-149.23822,975.05871-149.23822,632.00025,0,1038.00049,57.9997,1038.00049,57.9997,23.34888,3.97552,281.90063,42.52563,304.137,46.99853l286.12525,71.69129c6.91308,1.933,13.9834,3.9132,21.13623,5.92151h384.52929c8.16846-.19635,14.28174-.34687,18.07276-.44324v-242.17h0s-256.5166,11.06939-352.51026,15.56817c-40.32177,1.89075-92.5708,3.78156-147.15087,3.78156-75.35889,0-155.17749-3.60163-214.32959-15.77985-101.99634-20.99945-127.49561-35.99853-287.98658-62.99707-160.49243-26.99744-622.46875-112.49432-1220.93969-124.49261q-92.15882-1.84845-183.593-1.88013" transform="translate(0.00941 -0.00049)" style="fill:#24637f"/>
    <path d="M4697.00049,2020.00092H4294.39844c123.31054,34.61218,280.43408,79.84344,402.60205,114.759v-114.759M1669.9408,1986.62811c-236.38135,2.67743-679.53608,8.76239-747.94086,8.76239-67.811,0-135.63251,2.51752-203.37647,5.26306-74.41925,3.01606-148.81024,6.713-223.18478,10.652q-.74748.03964-1.49316.07977-.77985.04194-1.55924.08448c-50.0889,2.7337-98.35452,7.31683-148.511,9.8941-.16607.00855-.33422.01721-.50036.0257-.19788.01025-2.4744.01776-6.50348.02307-5.49765.0072-14.2579.01019-25.449.01019-29.68524,0-76.4776-.0213-124.8711-.04266-48.6476-.02155-98.92242-.04309-135.05279-.04309-28.93447,0-48.79408.01385-51.50794.05249h0v152.91864l.0034.00384-.0034-.00384c88.19113-18.996,188.03308-21.12091,281.22657-21.12079,26.86331,0,53.18262.17667,78.50083.17667l.03409.00115c12.47219.06,342.0509,32.52622,491.74774,32.52622,82.10455,0,423.04193-104.65723,818.441-199.26337" transform="translate(0.00941 -0.00049)" style="fill:#afdde8"/>
    <path d="M4697.00049,2643H0c16.27113.07995,543.64813.10661,1239.437.10661,1391.70508,0,3457.56348-.10661,3457.56348-.10661M1759.165,2327.91h0l-.16577.09055-.29517-.05881c.15173-.01059.30567-.02115.46094-.03174m-1399.413-174.54477-.03409-.00115.03409.00115m2285.24743-315.97537c-285.67969,0-648.89233,71.19739-975.05871,149.23822h0c-395.399,94.60614-736.33643,199.26337-818.441,199.26337-149.69684,0-479.27555-32.46625-491.74774-32.52622l-.03409-.00115c-25.31821,0-51.63752-.17664-78.50083-.17667-93.19349-.00012-193.03544,2.12479-281.22657,21.12079l.0034.00384.006.0141a17.26235,17.26235,0,0,1,.10294,1.93445C.91472,2206.0336,0,2567.57592,0,2643H4697.00049s-1.34522-501.76828,0-504.65851v-3.5816h0c-122.168-34.91553-279.29151-80.14679-402.60205-114.759h0c-7.15283-2.00831-14.22315-3.98847-21.13623-5.92151L3987.137,1942.38812c-22.23633-4.4729-280.78808-43.023-304.137-46.99853,0,0-406.00024-57.9997-1038.00049-57.9997" transform="translate(0.00941 -0.00049)" style="fill:#a9d2e6"/>
    <path d="M1759.165,2327.91c-.15527.01059-.30921.02115-.46094.03174l.29517.05881.16577-.09055" transform="translate(0.00941 -0.00049)" style="fill:#88643f"/>
    <path d="M4697.00049.00049H-.00941L0,618.943v71.71717a102.161,102.161,0,0,0,5.6029-12.98963c29.39377,12.36878,62.76425,19.22632,98.41586,20.32691q5.45357.17816,10.846.17639c61.98231,0,118.19476-17.41077,157.20459-52.30982,25.66635,17.02857,55.92318,28.39185,89.102,33.81141q1.22584.201,2.45871.39038a288.51636,288.51636,0,0,0,41.12869,3.27587c1.16174.01172,2.30581.02,3.464.02,52.40625,0,100.93454-13.313,138.83908-39.318.12347-.08459.24573-.16931.368-.25281A177.25668,177.25668,0,0,0,601.4,585.39844,208.05172,208.05172,0,0,0,636.95514,568.999a190.38413,190.38413,0,0,0,58.85693,48.36487c.5221.27747,1.043.55261,1.56739.82544,31.19873,16.24536,67.45941,24.67859,106.45275,24.67859,1.6615,0,3.3371-.01526,5.00678-.0459,63.13464-1.02771,120.56763-23.92248,160.76385-65.458q1.3581-1.404,2.69031-2.83618a200.62211,200.62211,0,0,0,42.1388-69.88647,206.17307,206.17307,0,0,0,25.14654,1.53686q3.76044,0,7.522-.13623c51.31971-1.64038,98.41932-21.65454,135.34095-55.97143,24.4458,40.94409,59.9187,70.18847,101.89868,85.50512q3.68628,1.34547,7.43957,2.54566a208.6743,208.6743,0,0,0,63.77784,9.74194q5.972,0,12.03234-.31763a221.3244,221.3244,0,0,0,95.093-26.52124q3.69141-2.00867,7.29956-4.15771a222.07068,222.07068,0,0,0,70.66248-67.19019c.22693-.33862.45031-.6726.676-1.0122a189.72259,189.72259,0,0,0,78.3136,40.33618h98.58411a218.99935,218.99935,0,0,0,97.35168-51.47388q1.22589.75843,2.46216,1.50147a186.89043,186.89043,0,0,0,20.27747,10.53686,193.35754,193.35754,0,0,0,78.89453,16.42066q8.08337,0,16.32654-.63257a215.70747,215.70747,0,0,0,48.99987-9.38672A196.27552,196.27552,0,0,0,2052.991,468.7334q8.60376,0,17.38965-.70532a219.26824,219.26824,0,0,0,59.199-13.00025,205.07778,205.07778,0,0,0,44.80688,4.9563q8.66529,0,17.32593-.73389c.18579-.01513.37281-.03173.5586-.04809.08935-.00708.17993-.01538.2705-.02246,90.64234-7.46533,168.26563-70.04151,199.79248-161.65039q.74964-2.18335,1.46631-4.38819a183.57811,183.57811,0,0,0,63.64722,11.38794q2.95422,0,5.91211-.09521a186.44375,186.44375,0,0,0,76.10889,16.23974q8.85058,0,17.72119-.84423c74.19946-6.40845,139.3894-52.47681,177.78076-120.55835a183.12669,183.12669,0,0,0,87.58057,22.301q6.16588,0,12.34863-.41723a184.59791,184.59791,0,0,0,85.61328,20.79711q8.69019,0,17.55762-.78906a211.47383,211.47383,0,0,0,82.45971-24.94433,187.2208,187.2208,0,0,0,100.92041,29.09741q8.8418,0,17.86939-.79956a216.6879,216.6879,0,0,0,94.30151-31.33155c.44678.44214,1.59082,5.29,4.51514,12.67676,10.72388,27.10669,45.38306,88.38477,157.36352,91.52783q1.99476.0564,4.04468.0564c68.78589,0,182.3479-46.69287,202.12207-78.72168,9.33252,58.83228,54.33325,141.83276,176.11206,147.438q4.68457.21533,9.27393.21411c95.95825,0,159.97607-69.79468,191.66748-150.16138,35.32812,61.6355,100.397,100.3208,176.06274,100.3208,4.61182,0,9.27393-.14575,13.957-.43627a226.24934,226.24934,0,0,0,68.98-15.36817c30.33887,46.24243,78.78956,78.26172,135.80909,88.12354a200.08379,200.08379,0,0,0,21.65039,30.98364h0a218.03326,218.03326,0,0,0-1.61914,25.76733h0q-.00074.39771-.001.79615,0,.66393.00488,1.32641v.08228l.002.2727a206.18447,206.18447,0,0,0,70.96386,154.28967,212.55445,212.55445,0,0,0,22.66065,17.27088,219.00444,219.00444,0,0,0,121.26953,36.01965c.97363,0,1.96484-.00708,2.93945-.01892.1709-.00342.34473-.00586.52246-.00586,12.68848.00122,45.898,8.7013,85.07813,19.652V.00049" transform="translate(0.00941 -0.00049)" style="fill:#153e51"/>
</svg>