<svg xmlns="http://www.w3.org/2000/svg" viewBox="0 0 4697.01 2643.11"><title>background</title><g id="Слой_2" data-name="Слой 2"><g id="Фон"><g id="задний_фон" data-name="задний фон"><path d="M0,2174.33V2643H0V2176.22l.1,0a16.17,16.17,0,0,0-.1-1.93m4697-154.77-18.07.44H4697v-.44M4393.57,465.61v0M1838.32,449.56l.17.09c23.18,12.24,52.88,16.34,78.72,16.34a193.34,193.34,0,0,1-78.89-16.43M3233.63,213.18a79.88,79.88,0,0,0,4.52,12.68c-2.93-7.39-4.07-12.23-4.52-12.68" style="fill:#cee8f7"/><path d="M637,569a208.46,208.46,0,0,1-35.55,16.4,177.27,177.27,0,0,1-54,58.39l-.37.25Q618,631.25,697.39,618.19c-.53-.27-1-.55-1.57-.83A190.48,190.48,0,0,1,637,569" style="fill:#1f566f"/><path d="M1182.45,450.07c-36.92,34.32-84,54.33-135.34,56q-3.77.13-7.52.14a205.31,205.31,0,0,1-25.15-1.54,200.53,200.53,0,0,1-42.14,69.89c-.89,1-1.78,1.9-2.69,2.83q150.67-20.58,322.18-39.24-3.75-1.2-7.44-2.54c-42-15.32-77.45-44.57-101.9-85.51" style="fill:#1f566f"/><path d="M0,618.94V764.41H0s126.25-36.92,361.17-84.74c-33.18-5.41-63.43-16.78-89.1-33.81-39,34.9-95.22,52.31-157.21,52.31-3.6,0-7.21,0-10.84-.17-35.65-1.1-69-8-98.42-20.33a100.66,100.66,0,0,1-5.6,13V618.94" style="fill:#1f566f"/><path d="M4393.58,468.08v0M2735,199.27c-38.39,68.08-103.58,114.15-177.78,120.56-5.9.56-11.82.84-17.72.84a186.35,186.35,0,0,1-76.11-16.24q-3,.1-5.91.1a183.51,183.51,0,0,1-63.65-11.39c-.48,1.47-1,2.93-1.47,4.39-31.52,91.61-109.15,154.18-199.79,161.65l-.27,0-.56.05q-8.66.74-17.32.73a205.52,205.52,0,0,1-44.81-5,219.34,219.34,0,0,1-59.2,13q-8.78.71-17.39.7A196.43,196.43,0,0,1,1982.54,456a215.79,215.79,0,0,1-49,9.38q-8.24.63-16.33.64h0q8.08,0,16.33-.64a215.79,215.79,0,0,0,49-9.38A196.43,196.43,0,0,0,2053,468.73q8.61,0,17.39-.7a219.34,219.34,0,0,0,59.2-13,205.52,205.52,0,0,0,44.81,5,205.52,205.52,0,0,1-44.81-5,219.34,219.34,0,0,1-59.2,13q-8.78.71-17.39.7A196.43,196.43,0,0,1,1982.54,456a215.79,215.79,0,0,1-49,9.38q-8.24.63-16.33.64c-25.84,0-55.54-4.1-78.72-16.34l-.17-.09h0A186.37,186.37,0,0,1,1818,439l-2.46-1.5A219,219,0,0,1,1718.23,489h-98.59a189.7,189.7,0,0,1-78.31-40.34l-.68,1A222.12,222.12,0,0,1,1470,516.87q-3.62,2.14-7.3,4.15c255.2-23.67,539.78-41.83,850.32-49.63q153.34-3.86,298.94-3.76c866.47,0,1524.11,94.9,1852.59,154.74a206.16,206.16,0,0,1-71-154.29v-.35h0v-2.12h0a217.57,217.57,0,0,1,1.62-25.77,199.65,199.65,0,0,1-21.65-31c-57-9.86-105.47-41.88-135.81-88.12a226.15,226.15,0,0,1-69,15.37c-4.68.29-9.35.44-14,.44-75.66,0-140.73-38.69-176.06-100.33C3947,316.58,3883,386.38,3787.06,386.38q-4.59,0-9.27-.22c-121.78-5.6-166.78-88.6-176.11-147.44-19.78,32-133.34,78.73-202.13,78.73-1.36,0-2.71,0-4-.06-112-3.14-146.64-64.42-157.36-91.53h0a79.88,79.88,0,0,1-4.52-12.68,216.66,216.66,0,0,1-94.3,31.34c-6,.53-12,.8-17.87.8a187.18,187.18,0,0,1-100.92-29.1,211.54,211.54,0,0,1-82.46,24.94q-8.86.79-17.56.79a184.49,184.49,0,0,1-85.61-20.8q-6.18.42-12.35.42a183.07,183.07,0,0,1-87.58-22.3h0c-38.39,68.08-103.58,114.15-177.78,120.56-5.9.56-11.82.84-17.72.84a186.35,186.35,0,0,1-76.11-16.24q-3,.1-5.91.1a183.51,183.51,0,0,1-63.65-11.39c-.48,1.47-1,2.93-1.47,4.39.5-1.46,1-2.92,1.47-4.39a183.51,183.51,0,0,0,63.65,11.39q3,0,5.91-.1a186.35,186.35,0,0,0,76.11,16.24c5.9,0,11.82-.28,17.72-.84,74.2-6.41,139.39-52.48,177.78-120.56h0a183.07,183.07,0,0,0,87.58,22.3q6.17,0,12.35-.42a184.49,184.49,0,0,0,85.61,20.8q8.7,0,17.56-.79a211.54,211.54,0,0,0,82.46-24.94,187.18,187.18,0,0,0,100.92,29.1c5.89,0,11.86-.27,17.87-.8a216.66,216.66,0,0,0,94.3-31.34h0a216.66,216.66,0,0,1-94.3,31.34c-6,.53-12,.8-17.87.8a187.18,187.18,0,0,1-100.92-29.1,211.54,211.54,0,0,1-82.46,24.94q-8.86.79-17.56.79a184.49,184.49,0,0,1-85.61-20.8q-6.18.42-12.35.42a183.07,183.07,0,0,1-87.58-22.3" style="fill:#1f566f"/><path d="M2612,467.63q-145.71,0-298.94,3.76c-310.54,7.8-595.12,26-850.32,49.63h0a221.27,221.27,0,0,1-95.09,26.53q-6.06.32-12,.31a208.6,208.6,0,0,1-63.78-9.74h0q-171.37,18.4-322.18,39.24h0C929.42,618.9,872,641.79,808.85,642.82c-1.67,0-3.35,0-5,0-39,0-75.25-8.44-106.45-24.68h0Q618,631.19,547.07,644h0c-37.9,26-86.43,39.32-138.84,39.32l-3.46,0a288.64,288.64,0,0,1-41.13-3.27l-2.46-.4h0C126.26,727.49,0,764.41,0,764.41H0v683.28H0S543.69,1190,1854.62,1121c231.08-12.16,452.94-17.61,664.74-17.61,989.79,0,1756.31,119.14,2177.62,229.1l0,8.41V695.29c-39.18-10.95-72.39-19.65-85.08-19.65h-.52c-1,0-2,0-2.94,0a219,219,0,0,1-121.27-36,211.21,211.21,0,0,1-22.66-17.27h0C4136.06,562.53,3478.42,467.63,2612,467.63" style="fill:#225d78"/><path d="M0,1993.21v.91H0v-.91H0m2519.36-889.83c-211.8,0-433.66,5.45-664.74,17.61C543.69,1190,0,1447.69,0,1447.69H0s0,0,0,.17v545C234.79,1963.3,260.21,1937,780.68,1781c467-140,977.49-189.38,1509.82-189.37q91.35,0,183.59,1.88C3072.56,1605.47,3534.54,1691,3695,1718s186,42,288,63c59.15,12.18,139,15.78,214.33,15.78,54.58,0,106.83-1.89,147.15-3.78,96-4.5,352.51-15.57,352.51-15.57v-436.5l0-8.41c-421.31-110-1187.83-229.1-2177.62-229.1" style="fill:#153e51"/><path d="M2290.5,1591.59c-532.33,0-1042.78,49.39-1509.82,189.37C260.21,1937,234.79,1963.3,0,1992.87v.34H0v.91c0,4.64,0,25.24,0,27.27,2.71,0,22.57-.05,51.51-.05,36.13,0,86.4,0,135.05,0l124.87,0h25.45l7-.05c50.16-2.57,98.43-7.16,148.52-9.89l1.55-.09,1.5-.07c74.37-3.94,148.76-7.64,223.18-10.66,67.75-2.74,135.57-5.26,203.38-5.26,68.4,0,511.56-6.08,747.94-8.76h0c326.17-78,689.38-149.24,975.06-149.24,632,0,1038,58,1038,58,23.35,4,281.9,42.52,304.14,47l286.12,71.69,21.14,5.92h384.53l18.07-.44V1777.39h0s-256.52,11.07-352.51,15.57c-40.32,1.89-92.57,3.78-147.15,3.78-75.36,0-155.18-3.6-214.33-15.78-102-21-127.5-36-288-63s-622.47-112.49-1220.94-124.49q-92.16-1.85-183.59-1.88" style="fill:#24637f"/><path d="M4697,2020h-402.6c123.31,34.61,280.43,79.84,402.6,114.76V2020M1670,1986.63c-236.38,2.68-679.54,8.76-747.94,8.76-67.81,0-135.63,2.52-203.38,5.26-74.42,3-148.81,6.72-223.18,10.66l-1.5.07-1.55.09c-50.09,2.73-98.36,7.32-148.52,9.89l-.5,0c-.19,0-2.47,0-6.5,0H311.43l-124.87,0c-48.65,0-98.92,0-135,0-28.94,0-48.8,0-51.51.05H0v152.92H0c88.19-19,188-21.12,281.23-21.12,26.86,0,53.18.17,78.5.17h0c12.47.06,342,32.53,491.75,32.53,82.1,0,423-104.66,818.44-199.26" style="fill:#afdde8"/><path d="M4697,2643H0c16.27.08,543.65.11,1239.44.11,1391.7,0,3457.56-.11,3457.56-.11M1759.17,2327.91h0l-.16.09-.3-.06.46,0M359.76,2153.36h0m2285.25-316c-285.68,0-648.89,71.2-975.06,149.24h0c-395.4,94.6-736.34,199.26-818.44,199.26-149.7,0-479.28-32.47-491.75-32.53h0c-25.32,0-51.64-.17-78.5-.17-93.2,0-193,2.12-281.23,21.12H0v0a16.17,16.17,0,0,1,.1,1.93C.92,2206,0,2567.58,0,2643H4697s-1.35-501.77,0-504.66v-3.58h0c-122.17-34.92-279.29-80.15-402.6-114.76h0l-21.14-5.92-286.12-71.69c-22.24-4.48-280.79-43-304.14-47,0,0-406-58-1038-58" style="fill:#a9d2e6"/><path d="M1759.17,2327.91l-.46,0,.3.06.16-.09" style="fill:#88643f"/><path d="M4697,0H0V690.66a100.66,100.66,0,0,0,5.6-13C35,690,68.38,696.9,104,698c3.63.12,7.24.17,10.84.17,62,0,118.2-17.41,157.21-52.31,25.67,17,55.92,28.4,89.1,33.81l2.46.4a288.64,288.64,0,0,0,41.13,3.27l3.46,0c52.41,0,100.94-13.31,138.84-39.32l.37-.25a177.27,177.27,0,0,0,54-58.39A208.46,208.46,0,0,0,637,569a190.48,190.48,0,0,0,58.86,48.36c.52.28,1,.56,1.57.83,31.2,16.24,67.46,24.68,106.45,24.68,1.66,0,3.34,0,5,0,63.13-1,120.57-23.92,160.76-65.46.91-.93,1.8-1.88,2.69-2.83a200.53,200.53,0,0,0,42.14-69.89,205.31,205.31,0,0,0,25.15,1.54q3.75,0,7.52-.14c51.32-1.64,98.42-21.65,135.34-56,24.45,40.94,59.92,70.19,101.9,85.51q3.69,1.33,7.44,2.54a208.6,208.6,0,0,0,63.78,9.74q6,0,12-.31A221.27,221.27,0,0,0,1462.69,521q3.69-2,7.3-4.15a222.12,222.12,0,0,0,70.66-67.19l.68-1A189.7,189.7,0,0,0,1619.64,489h98.59a219,219,0,0,0,97.35-51.47L1818,439a186.37,186.37,0,0,0,20.28,10.53A193.34,193.34,0,0,0,1917.21,466q8.08,0,16.33-.64a215.79,215.79,0,0,0,49-9.38A196.43,196.43,0,0,0,2053,468.73q8.61,0,17.39-.7a219.34,219.34,0,0,0,59.2-13,205.52,205.52,0,0,0,44.81,5q8.66,0,17.32-.73l.56-.05.27,0c90.64-7.47,168.27-70,199.79-161.65.5-1.46,1-2.92,1.47-4.39a183.51,183.51,0,0,0,63.65,11.39q3,0,5.91-.1a186.35,186.35,0,0,0,76.11,16.24c5.9,0,11.82-.28,17.72-.84,74.2-6.41,139.39-52.48,177.78-120.56a183.07,183.07,0,0,0,87.58,22.3q6.17,0,12.35-.42a184.49,184.49,0,0,0,85.61,20.8q8.7,0,17.56-.79a211.54,211.54,0,0,0,82.46-24.94,187.18,187.18,0,0,0,100.92,29.1c5.89,0,11.86-.27,17.87-.8a216.66,216.66,0,0,0,94.3-31.34c.45.45,1.59,5.29,4.52,12.68,10.72,27.11,45.38,88.39,157.36,91.53,1.33,0,2.68.06,4,.06,68.79,0,182.35-46.7,202.13-78.73,9.33,58.84,54.33,141.84,176.11,147.44q4.68.22,9.27.22c96,0,160-69.8,191.67-150.17,35.33,61.64,100.4,100.33,176.06,100.33,4.61,0,9.28-.15,14-.44a226.15,226.15,0,0,0,69-15.37c30.34,46.24,78.79,78.26,135.81,88.12a199.65,199.65,0,0,0,21.65,31h0a217.57,217.57,0,0,0-1.62,25.77h0v2.47a206.16,206.16,0,0,0,71,154.29,211.21,211.21,0,0,0,22.66,17.27,219,219,0,0,0,121.27,36c1,0,2,0,2.94,0h.52c12.69,0,45.9,8.7,85.08,19.65V0" style="fill:#153e51"/></g><g id="елки_на_фоне" data-name="елки на фоне"><path d="M4450.51,1701l-4.4,15.45a5.11,5.11,0,0,0-.61,1.54l-24.64,43.15a4.95,4.95,0,0,0,5.21,7.36l-12,20.82-2.44,4.22a5,5,0,0,0,4.28,7.45,5.19,5.19,0,0,0,1.49-.23l-13.88,24a4.9,4.9,0,0,0-.54,3.61,5,5,0,0,0,4.82,3.84,4.9,4.9,0,0,0,1.13-.13l-15.84,27.39a5,5,0,0,0,1.83,6.79,4.91,4.91,0,0,0,2.48.67h.36l-15.09,26.1a5,5,0,0,0,4.3,7.46,5,5,0,0,0,2.09-.46l-13.34,23.09a4.94,4.94,0,0,0,4.27,7.44h0l-12.42,21.48a5,5,0,0,0,7.83,6l-15.94,27.58a5,5,0,0,0,7.13,6.57l-12.93,22.36A4.95,4.95,0,0,0,4358,2022a4.86,4.86,0,0,0,1.71-.3H4541l-.05-.17a4.92,4.92,0,0,0,4.62-.18h0a4.82,4.82,0,0,0,1.5-1.33,5,5,0,0,0,.31-5.45l-12.92-22.36a5,5,0,0,0,2.83.88,5,5,0,0,0,4.3-7.45L4525.62,1958a5,5,0,0,0,7.83-6L4521,1930.58h0a4.94,4.94,0,0,0,4.27-7.44L4512,1900.05a4.94,4.94,0,0,0,2.1.46,5,5,0,0,0,4.3-7.46L4503.3,1867h.33a5,5,0,0,0,2.49-.66,5,5,0,0,0,1.84-6.8l-15.83-27.39a5.25,5.25,0,0,0,1.11.13,5,5,0,0,0,4.3-7.45l-13.89-24a5,5,0,0,0,1.49.23,4.91,4.91,0,0,0,2.46-.66,5,5,0,0,0,1.83-6.79l-4.37-7.56L4475,1768.51a4.7,4.7,0,0,0,.92.09,5,5,0,0,0,4.29-7.45l-24.67-43.2a5.33,5.33,0,0,0-.65-1.6l-4.33-15.34" style="fill:#4a7e55"/><path d="M275.29,2138.9l-14.06-24.31a5.4,5.4,0,0,0,7.76-7.14l-17.33-30a5.39,5.39,0,0,0,3.85,1.61,5.39,5.39,0,0,0,4.66-8.12l-13.5-23.36h.05a5.29,5.29,0,0,0,2.72-.74,5.37,5.37,0,0,0,1.92-7.35L240.08,2020l-3.23-5.59a5.43,5.43,0,0,0,5-.22,5.39,5.39,0,0,0,2-7.38l-16.41-28.39h.39a5.41,5.41,0,0,0,4.69-8.11l-10.69-18.48-6.53-11.29a5.55,5.55,0,0,0,1.21.14,5.4,5.4,0,0,0,4.67-8.1L206,1906.48a5.44,5.44,0,0,0,1.6.24,5.39,5.39,0,0,0,4.67-8.1l-15.73-27.23a5,5,0,0,0,1,.1,5.33,5.33,0,0,0,2.66-.71h0a5.41,5.41,0,0,0,2-7.38l-26.82-47a5.81,5.81,0,0,0-.71-1.75L170,1798l-4.78,16.8a5.5,5.5,0,0,0-.66,1.67l-26.79,46.92h0a5.4,5.4,0,0,0,2,7.37,5.33,5.33,0,0,0,2.66.71,5,5,0,0,0,1-.1l-15.74,27.23a5.4,5.4,0,0,0,4.68,8.1,5.22,5.22,0,0,0,1.6-.24l-15.09,26.11a5.4,5.4,0,0,0,4.66,8.1,5.71,5.71,0,0,0,1.22-.14l-17.22,29.77a5.4,5.4,0,0,0,4.68,8.11h.39L96.2,2006.81a5.4,5.4,0,0,0,7,7.6L99.93,2020l-11.28,19.51a5.37,5.37,0,0,0,4.63,8.09h.06L79.84,2071a5.4,5.4,0,0,0,8.51,6.51l-17.33,30a5.4,5.4,0,0,0,7.75,7.14l-14,24.31a5.39,5.39,0,0,0,4.66,8.09,5.49,5.49,0,0,0,1.86-.33h197.1l0-.18a5.43,5.43,0,0,0,5-.2h0A5.4,5.4,0,0,0,275.29,2138.9Z" style="fill:#4e893e"/><path d="M4101.51,1568l-6.08,21.37a6.78,6.78,0,0,0-.91,2.29l-34.22,59.9-.25.61a7.12,7.12,0,0,0,1.92,8.23,6.78,6.78,0,0,0,4.26,1.51,7.18,7.18,0,0,0,1.31-.13l-20.12,34.8a6.9,6.9,0,0,0,8,10L4036.15,1740a6.89,6.89,0,0,0,7.52,10.18l-19.78,34.19-2.23,3.86a6.93,6.93,0,0,0,6,10.37l.5,0-21,36.27a6.91,6.91,0,0,0,8.89,9.72l-18.55,32.08a6.94,6.94,0,0,0,.53,7.76,6.72,6.72,0,0,0,5.4,2.58h.06l-17.26,29.85a6.9,6.9,0,0,0,10.88,8.31l-10,17.25L3975,1963.45a6.9,6.9,0,0,0,9.91,9.13l-18,31.06a6.89,6.89,0,0,0,8.33,9.93l265.92-2.07a8.38,8.38,0,0,0,7.21-12.55l-22.4-39.09-20.09-34.72a6.9,6.9,0,0,0,10.88-8.31L4199.51,1887h0a6.87,6.87,0,0,0,6-10.34L4187,1844.56a6.9,6.9,0,0,0,8.89-9.72l-21-36.27.49,0a6.92,6.92,0,0,0,6-10.37l-22-38a6.76,6.76,0,0,0,1.55.17,6.89,6.89,0,0,0,6-10.35l-19.29-33.36a6.83,6.83,0,0,0,2,.31,6.91,6.91,0,0,0,4.49-1.66,7.08,7.08,0,0,0,1.36-8.91l-20-34.58a7.18,7.18,0,0,0,1.31.13,6.78,6.78,0,0,0,3.39-.91h0a6.9,6.9,0,0,0,2.51-9.43l-34.24-60a6.88,6.88,0,0,0-1-2.38l-6-21.23" style="fill:#4e893e"/></g></g></g></svg>