<svg xmlns="http://www.w3.org/2000/svg" viewBox="0 0 348.00024 119.00122">
    <path d="M4008.71924,1434h-.01a64.0807,64.0807,0,0,0-55.56738,32.16272q-1.04078-.04174-2.09253-.04248a51.66387,51.66387,0,0,0-33.00464,11.90088,52.21269,52.21269,0,0,0-4.84351,4.56677,14.96166,14.96166,0,0,0-8.25488-2.46741h-.01025a15.03588,15.03588,0,0,0-14.927,13.29285,31.97558,31.97558,0,0,0-7.72876-.94263h-.01a31.91982,31.91982,0,0,0-31.62964,36.2489h-.50146a12.14081,12.14081,0,0,0,0,24.28162h323.7207a12.14252,12.14252,0,0,0,2.90235-23.93237,17.31552,17.31552,0,0,0-20.50977-21.371,31.90581,31.90581,0,0,0-27.69922-16.04859h-.00342a31.92241,31.92241,0,0,0-13.31884,2.91q-1.38795.63684-2.68408,1.387a46.04732,46.04732,0,0,0-27.0564-23.47388,22.23364,22.23364,0,0,0-22.22193-21.60156h-.00878a22.15207,22.15207,0,0,0-9.17139,1.9751A63.83093,63.83093,0,0,0,4008.71924,1434" transform="translate(-3837.99927 -1434)" />
</svg>