<svg id="badd32df-4482-4863-b2cf-6a062b0bf488" data-name="облака" xmlns="http://www.w3.org/2000/svg" viewBox="0 0 5012.23202 548.29653">
    <path d="M4368.04538,647.006A244.70575,244.70575,0,0,0,4155.50008,770c-2.67647-.10472-5.33887-.17543-8.02669-.17543l-.23394-.0002a196.99989,196.99989,0,0,0-144.4227,63.023,57.43379,57.43379,0,0,0-88.7043,41.33888A121.99052,121.99052,0,0,0,3763.735,1009.08464h-1.90977a46.4359,46.4359,0,0,0,0,92.8718H4999.04834a46.4368,46.4368,0,0,0,11.14179-91.51658,66.06805,66.06805,0,0,0-78.366-81.59137c-.09905-.17544-.1981-.35087-.29994-.5263A122.00207,122.00207,0,0,0,4764.74243,883.84a176.02032,176.02032,0,0,0-103.38834-89.70886,84.93283,84.93283,0,0,0-120.02191-74.96515,245.00085,245.00085,0,0,0-173.2868-72.16" transform="translate(-33.25087 -553.65991)" style="fill:#a4cfe3"/>
    <path d="M3591.16992,784.54712a41.97243,41.97243,0,0,0-49.78515-51.83447c-.063-.11145-.126-.2229-.19068-.33435A77.507,77.507,0,0,0,3435.23877,704.119a111.82477,111.82477,0,0,0-65.68213-56.99146,53.95717,53.95717,0,0,0-76.249-47.62487,155.47444,155.47444,0,0,0-245.1167,32.29455c-1.7002-.06653-3.3916-.11145-5.09912-.11145l-.14868-.00012a125.15278,125.15278,0,0,0-91.75074,40.03808,36.48753,36.48753,0,0,0-56.35351,26.26233,77.49969,77.49969,0,0,0-95.53369,85.70008h-1.21338a29.50043,29.50043,0,0,0,0,59.00085h786a29.501,29.501,0,0,0,7.07812-58.13989Z" transform="translate(-33.25087 -553.65991)" style="fill:#80aabd"/>
    <path d="M855.82851,949.04623a41.97244,41.97244,0,0,0-49.78516-51.83447c-.063-.11145-.126-.2229-.19067-.33436a77.50706,77.50706,0,0,0-105.95533-28.25927,111.82478,111.82478,0,0,0-65.68212-56.99146,53.95718,53.95718,0,0,0-76.249-47.62488,155.47445,155.47445,0,0,0-245.1167,32.29456c-1.70019-.06653-3.3916-.11145-5.09912-.11145l-.14868-.00012A125.15274,125.15274,0,0,0,215.851,836.22286a36.48754,36.48754,0,0,0-56.35352,26.26233,77.49967,77.49967,0,0,0-95.53369,85.70008H62.75038a29.50043,29.50043,0,0,0,0,59.00085h786a29.501,29.501,0,0,0,7.07813-58.13989Z" transform="translate(-33.25087 -553.65991)" style="fill:#3e8aac"/>
</svg>