<svg id="065940be-7430-436d-8d4b-2dfe9eb1f09f" data-name="облака" xmlns="http://www.w3.org/2000/svg" viewBox="0 0 4387.78416 234.25135">
    <path d="M4008.71924,1434h-.01a64.0807,64.0807,0,0,0-55.56738,32.16272q-1.04078-.04174-2.09253-.04248a51.66387,51.66387,0,0,0-33.00464,11.90088,52.21269,52.21269,0,0,0-4.84351,4.56677,14.96166,14.96166,0,0,0-8.25488-2.46741h-.01025a15.03588,15.03588,0,0,0-14.927,13.29285,31.97558,31.97558,0,0,0-7.72876-.94263h-.01a31.91982,31.91982,0,0,0-31.62964,36.2489h-.50146a12.14081,12.14081,0,0,0,0,24.28162h323.7207a12.14252,12.14252,0,0,0,2.90235-23.93237,17.31552,17.31552,0,0,0-20.50977-21.371,31.90581,31.90581,0,0,0-27.69922-16.04859h-.00342a31.92241,31.92241,0,0,0-13.31884,2.91q-1.38795.63684-2.68408,1.387a46.04732,46.04732,0,0,0-27.0564-23.47388,22.23364,22.23364,0,0,0-22.22193-21.60156h-.00878a22.15207,22.15207,0,0,0-9.17139,1.9751A63.83093,63.83093,0,0,0,4008.71924,1434" transform="translate(201.78465 -1434)" style="fill:#3e8aac"/>
    <path d="M132.22839,1644.64326a17.04316,17.04316,0,0,0-20.21559-21.04772c-.02558-.04526-.05116-.09051-.07743-.13577a31.47224,31.47224,0,0,0-43.02385-11.47486,45.40714,45.40714,0,0,0-26.67066-23.14176,21.90965,21.90965,0,0,0-30.96141-19.33839A63.12563,63.12563,0,0,0-2.05,1559.2787a62.85772,62.85772,0,0,0-31.37243-8.3887,63.12562,63.12562,0,0,0-54.82933,31.72817c-.69038-.027-1.37719-.04525-2.07054-.04525l-.06037-.00005a50.8191,50.8191,0,0,0-37.256,16.25773,14.83038,14.83038,0,0,0-6.46081-2.35307,14.96012,14.96012,0,0,0-1.72059-.09948,14.82086,14.82086,0,0,0-14.70131,13.11654,31.47345,31.47345,0,0,0-7.61366-.93475,31.46818,31.46818,0,0,0-4.26409.29027,31.46938,31.46938,0,0,0-26.91433,35.44355h-.4927a11.97809,11.97809,0,0,0-11.97847,11.97847,11.97825,11.97825,0,0,0,11.97847,11.97922H129.35427a11.97907,11.97907,0,0,0,2.87412-23.60809Z" transform="translate(201.78465 -1434)" style="fill:#3e8aac"/>
</svg>