<svg xmlns="http://www.w3.org/2000/svg" viewBox="0 0 519.75 328.26316">
    <rect width="519.75" height="328.26316" rx="20.90355" ry="20.90355" style="fill:#95bb2c"/>
    <path d="M225.56848,114.40181H123.71154a14.5208,14.5208,0,0,0-14.53136,14.516v18.92112a14.51966,14.51966,0,0,0,14.53136,14.51467H225.56848a14.52022,14.52022,0,0,0,14.532-14.51467V128.9178a14.52136,14.52136,0,0,0-14.532-14.516" transform="translate(-99.75 -106.11842)" style="fill:#95bb2c"/>
    <path d="M215.366,147.95628h-7.63254V144.152a5.23875,5.23875,0,0,1,1.69648-3.93111,5.89942,5.89942,0,0,1,8.17134,0,5.36047,5.36047,0,0,1,1.67179,3.95916V153.224h-3.18736v-9.20085a2.785,2.785,0,0,0-.76912-1.97823,2.309,2.309,0,0,0-1.7499-.82189,2.37878,2.37878,0,0,0-1.8494.79585,2.6196,2.6196,0,0,0-.77178,1.92817v1.36066H215.366v2.64854" transform="translate(-99.75 -106.11842)" style="fill:#fff"/>
    <path d="M196.57018,144.17473v2.64589h-5.1923a1.87019,1.87019,0,0,0-1.3867.54214,1.89571,1.89571,0,0,0-.53812,1.36066,1.72937,1.72937,0,0,0,.56481,1.33662,1.89559,1.89559,0,0,0,1.41209.56551h5.14022v2.62118h-5.47272a5.15362,5.15362,0,0,1-3.44506-1.23314,3.97752,3.97752,0,0,1-1.59367-3.21273,3.81322,3.81322,0,0,1,.64427-2.08173,3.11071,3.11071,0,0,1,1.66912-1.31058,2.43391,2.43391,0,0,1-1.31058-1.13166,3.55844,3.55844,0,0,1-.54014-1.90146,3.10061,3.10061,0,0,1,1.20911-2.44025,4.08136,4.08136,0,0,1,2.6993-1.02684h6.14037v2.64787h-5.34654a1.32232,1.32232,0,0,0-.95072.35587,1.25,1.25,0,0,0-.35853.926,1.271,1.271,0,0,0,.35853.95206,1.24393,1.24393,0,0,0,.95072.38456h5.34654" transform="translate(-99.75 -106.11842)" style="fill:#fff"/>
    <path d="M164.41094,138.81527a2.68631,2.68631,0,0,0-.51275,1.55563,3.54642,3.54642,0,0,0,1.09961,2.65123,4.52257,4.52257,0,0,0,2.76206,1.08892l.26571.00135a2.06008,2.06008,0,0,1,1.39.46133,1.785,1.785,0,0,1,.61691,1.46282v-.0761a1.78505,1.78505,0,0,1-.61691,1.46415,2.06416,2.06416,0,0,1-1.39.46267h-4.51595v2.64789h5.95674A3.62215,3.62215,0,0,0,172.2678,149.25a4.3048,4.3048,0,0,0,1.141-2.98106v-.54012a4.29683,4.29683,0,0,0-1.141-2.9797,3.61346,3.61346,0,0,0-2.80144-1.28524l-.29843-.00266a1.6686,1.6686,0,0,1-1.2859-.462,2.0129,2.0129,0,0,1-.40926-1.36,2.29365,2.29365,0,0,1,.022-.41326,1.34037,1.34037,0,0,1,.18293-.41062h-3.26679" transform="translate(-99.75 -106.11842)" style="fill:#fff"/>
    <path d="M176.5212,141.45654l2.62652,4.544L180.222,147.87a2.322,2.322,0,0,0,1.50754-.77582,2.61594,2.61594,0,0,0,.76912-1.92482v-3.7081h-4.42182v-2.6459h7.63387v6.147a5.233,5.233,0,0,1-1.69516,3.93178,5.64,5.64,0,0,1-4.09467,1.64575l-1.84938.002-2.6232-4.54132-2.6225-4.544h3.69543" transform="translate(-99.75 -106.11842)" style="fill:#fff"/>
    <polygon points="97.673 32.697 97.673 35.338 103.426 35.338 97.258 42.026 97.258 44.423 107.395 44.423 107.395 41.766 101.074 41.766 107.153 35.226 107.153 32.697 97.673 32.697" style="fill:#fff"/>
    <path d="M143.02665,149.42332c-7.99977-.39925-13.20407-6.34265-11.561-13.94313,1.52024-7.16653,8.5579-12.77611,16.06225-13.10993H129.96478v28.52389h28.5179v-9.00923c-3.28216,5.1843-9.47593,7.81882-15.456,7.5384" transform="translate(-99.75 -106.11842)" style="fill:#fff"/>
    <path d="M151.09585,122.46965a6.79971,6.79971,0,1,0,6.82668,6.802,6.80429,6.80429,0,0,0-6.82668-6.802" transform="translate(-99.75 -106.11842)" style="fill:#fff"/>
    <path d="M249.48584,190.76758l7.33936-.41406-.96582,19.83789-6.37354.71777.41357-15.67188-5.46289.3584.33106,15.34082-5.57373.55176-.85547-20.2793Z" transform="translate(-99.75 -106.11842)" style="fill:#fff"/>
    <path d="M279.78125,201.85938a9.08483,9.08483,0,0,1-3.75244,7.25683,12.42729,12.42729,0,0,1-7.36719,2.37207,11.60886,11.60886,0,0,1-7.146-2.42773q-3.20141-2.373-3.11816-7.20117a10.359,10.359,0,0,1,1.18652-4.71876,13.47464,13.47464,0,0,1,2.98-3.66992,12.694,12.694,0,0,1,3.97315-2.34472,10.81954,10.81954,0,0,1,4.27685-.77246,10.36936,10.36936,0,0,1,2.59375.5791,9.55032,9.55032,0,0,1,3.11768,1.82129,10.33875,10.33875,0,0,1,2.4834,3.5039A12.43937,12.43937,0,0,1,279.78125,201.85938Zm-7.75342-2.45606a.4561.4561,0,0,0,.19336-.1377.71614.71614,0,0,0,.16553-.166,2.0507,2.0507,0,0,0,.68994-1.51758,2.86871,2.86871,0,0,0-.46924-1.46191c-.03711-.03711-.083-.07813-.13818-.124s-.11035-.09668-.16553-.15234c-.03711-.03613-.07812-.07813-.124-.124a1.01313,1.01313,0,0,0-.15186-.124,3.75823,3.75823,0,0,0-1.43457-.55175,2.551,2.551,0,0,0-1.65576.248,2.97844,2.97844,0,0,0-.60693.33106,5.66549,5.66549,0,0,0-.46875.33105,2.24354,2.24354,0,0,0-.71778,1.62793,2.80045,2.80045,0,0,0,.57959,1.5459,1.08548,1.08548,0,0,1,.09668.11035.97766.97766,0,0,0,.09668.11035.78016.78016,0,0,1,.11035.06836,1.1424,1.1424,0,0,1,.11036.09668,2.99428,2.99428,0,0,0,3.918-.13769Z" transform="translate(-99.75 -106.11842)" style="fill:#fff"/>
    <path d="M282.9541,191.54l15.28613-1.18652.74463,6.26269-4.38672,3.28418a5.76083,5.76083,0,0,1,3.75245,1.37891,4.97581,4.97581,0,0,1,1.65527,3.94629,4.65949,4.65949,0,0,1-2.15186,4.249,12.3587,12.3587,0,0,1-5.13232,1.82129,23.30376,23.30376,0,0,1-6.09766.02734,20.01443,20.01443,0,0,1-4.91162-1.10351l1.68311-6.34668a6.06553,6.06553,0,0,0,1.87646,1.13183,9.46975,9.46975,0,0,0,2.86963.77246,4.35511,4.35511,0,0,0,1.3794,0,4.23828,4.23828,0,0,0,1.21386-.38672q1.15942-.52295,1.15918-2.373a1.19426,1.19426,0,0,0-.74511-1.02051,9.046,9.046,0,0,0-1.76612-.68945,9.269,9.269,0,0,0-1.00683-.22071q-.51123-.08349-1.00733-.13867a6.17245,6.17245,0,0,0-1.6001-.05469l-.083-1.71093,9.24365-4.30469-11.00928,2.208Z" transform="translate(-99.75 -106.11842)" style="fill:#fff"/>
    <path d="M301.606,211.98535l-.63477-3.75293,20.05957.13867-.63476,3.61426Zm11.45068-23.25976,7.3667-.41407-.99316,19.83887-6.37354.7168.44141-15.67188-5.46338.3584.33105,15.36914-5.60107.55176L301.937,189.167Z" transform="translate(-99.75 -106.11842)" style="fill:#fff"/>
    <path d="M328.78369,204.83887l.27588,6.64941-6.01514-.7168-1.40722-20.36328q.772-.05419,1.82129-.05468,1.0481,0,2.42773.083a26.11328,26.11328,0,0,1,5.4082.79981,14.69423,14.69423,0,0,1,4.66309,1.98633,4.15085,4.15085,0,0,1,1.98682,3.58691,6.29405,6.29405,0,0,1-2.92481,5.49121,14.20994,14.20994,0,0,1-6.23584,2.56543Zm-.77246-3.66992a6.30876,6.30876,0,0,0,2.73145-1.40723,3.17649,3.17649,0,0,0,1.13134-1.959,1.83726,1.83726,0,0,0-.8833-1.71,5.49765,5.49765,0,0,0-3.33838-.66211Z" transform="translate(-99.75 -106.11842)" style="fill:#fff"/>
    <path d="M354.416,190.35352l6.457,18.76269-6.84375,2.37207-1.35157-4.13867h-5.29736l-1.2417,4.05664-6.73242-3.14551,6.87061-17.38281Zm-2.26172,12.66406-2.01563-4.88379-2.06836,4.80176Z" transform="translate(-99.75 -106.11842)" style="fill:#fff"/>
    <path d="M362.584,191.291q1.48976-.33106,2.99317-.56543,1.50439-.23437,3.07715-.37207a16.638,16.638,0,0,1,7.44922,1.51757q2.92381,1.24072,3.17285,3.72461a3.7134,3.7134,0,0,1-2.09668,3.835q3.75146.4424,5.4082,2.23536a5.10894,5.10894,0,0,1,1.43457,3.86328,5.89729,5.89729,0,0,1-1.959,3.77929,7.91461,7.91461,0,0,1-4.93848,2.01465q-1.79443.16553-3.39453.17969a29.76782,29.76782,0,0,1-3.0625-.125q-1.46339-.1377-2.96582-.38574-1.50439-.249-3.07715-.63477Zm7.69727,6.48437q.58008-.05419,1.10449-.11035a5.48632,5.48632,0,0,0,.99317-.19336q.9375-.24756,1.0205-.88281.10988-1.18506-1.43457-1.43457-.77343-.1377-1.26953-.17969a2.72185,2.72185,0,0,0-.74511.01367Zm1.18652,8.55371a14.40074,14.40074,0,0,1,2.37305-.166q1.76514-.082,1.68359-1.54493-.08349-1.6831-1.9873-1.82128-.9375-.082-1.54492-.09668a4.89118,4.89118,0,0,0-.91016.042Z" transform="translate(-99.75 -106.11842)" style="fill:#fff"/>
    <path d="M385.92676,211.48828l4.44238-20.44531,8.167-.68945,7.36719,17.18945-6.89844.82812-3.17285-8.96777-1.51758,11.45117Z" transform="translate(-99.75 -106.11842)" style="fill:#fff"/>
    <path d="M421.76758,203.32129l-1.37988.02734-6.18067,8.13965-6.67676-4.99414,7.75293-4.85547a10.50855,10.50855,0,0,1-3.1455-3.09082,3.88351,3.88351,0,0,1-.41407-3.69726,4.8931,4.8931,0,0,1,2.64942-2.37305,20.21147,20.21147,0,0,1,4.60742-1.48926q1.32421-.249,2.63476-.40039,1.311-.15088,2.69043-.207a23.33015,23.33015,0,0,1,4.69043.2207l-.99316,19.47949-6.53906.82813Zm.4414-9.46387a6.093,6.093,0,0,0-3.25586.77246,1.55043,1.55043,0,0,0-.82812,1.54492,2.886,2.886,0,0,0,1.21387,1.65625,6.25241,6.25241,0,0,0,2.81445,1.04786Z" transform="translate(-99.75 -106.11842)" style="fill:#fff"/>
    <path d="M445.58008,190.35352l.165,5.96-7.72559-.11036.05469,2.207,3.94629-.22071.02734,3.6416h-3.58691l.083,2.53907,7.44921-.44141.083,7.14649-14.18164.41308L430.708,190.38086Z" transform="translate(-99.75 -106.11842)" style="fill:#fff"/>
    <path d="M456.58789,192.28516l3.31152,8.4707,2.125-8.80274,6.78711-1.5996,3.69727,18.873-6.45606,2.26172-1.13183-11.80859-3.08985,11.11914-3.50488.02734-3.61426-10.34668-.41406,10.67774-6.81445-1.04785L449.55273,190.96Z" transform="translate(-99.75 -106.11842)" style="fill:#fff"/>
    <path d="M476.81348,206.19141a2.19864,2.19864,0,0,1,2.40039,2.01367,6.32442,6.32442,0,0,1-.63477,2.59375,4.49983,4.49983,0,0,1-2.64844,2.59375l-.38671-.05567a3.74678,3.74678,0,0,0,.96582-1.54492,4.3966,4.3966,0,0,0-.02735-1.29687,2.59026,2.59026,0,0,1-1.49023-.7168,2.00612,2.00612,0,0,1-.5791-1.43555,1.939,1.939,0,0,1,.68945-1.51757A2.49679,2.49679,0,0,1,476.81348,206.19141Z" transform="translate(-99.75 -106.11842)" style="fill:#fff"/>
    <path d="M146.70654,224.40137q1.48976-.33106,2.99366-.56543,1.50366-.23437,3.07666-.37207a16.6398,16.6398,0,0,1,7.4497,1.51758q2.92456,1.24071,3.17334,3.7246a3.71378,3.71378,0,0,1-2.09717,3.835q3.75221.44238,5.40821,2.23535a5.109,5.109,0,0,1,1.43457,3.86328,5.89728,5.89728,0,0,1-1.959,3.7793,7.91483,7.91483,0,0,1-4.939,2.01464q-1.7937.16554-3.39356.17969a29.76569,29.76569,0,0,1-3.063-.125q-1.46265-.1377-2.96631-.38574-1.50366-.249-3.07617-.63477Zm7.69825,6.48437q.57935-.05419,1.10351-.11035a5.467,5.467,0,0,0,.99365-.19336q.9375-.24756,1.02051-.88281.1106-1.18506-1.43457-1.43457-.77271-.1377-1.269-.17969a2.72111,2.72111,0,0,0-.74512.01367Zm1.18652,8.55371a14.38184,14.38184,0,0,1,2.37305-.166q1.76513-.082,1.6831-1.54492-.08275-1.68311-1.98682-1.82129-.93822-.082-1.54492-.09668a4.89163,4.89163,0,0,0-.91064.042Z" transform="translate(-99.75 -106.11842)" style="fill:#fff"/>
    <path d="M176.69922,230.55469a14.57815,14.57815,0,0,1,6.23584,2.5664,5.09475,5.09475,0,0,1,1.15869,1.07618,4.4328,4.4328,0,0,1,.63477,1.17187,4.80228,4.80228,0,0,1,.26171,1.33887q.04176.71776.04151,1.57226v1.11817a5.7637,5.7637,0,0,1-.09668,1.07519,3.1,3.1,0,0,1-.34473.95215,2.27779,2.27779,0,0,1-.74512.77246,14.36147,14.36147,0,0,1-4.63525,1.98731q-1.35205.331-2.69043.53808a24.19239,24.19239,0,0,1-2.71777.26172q-1.37988.082-2.4419.083-1.062,0-1.80713-.05566L170.96,224.65039l5.98731-.71777-.24805,6.64941Zm-1.13135,9.43652a5.51169,5.51169,0,0,0,3.33838-.66211,1.87827,1.87827,0,0,0,.8833-1.71094,2.64042,2.64042,0,0,0-.33105-.96582,3.97167,3.97167,0,0,0-.82813-.99316,6.322,6.322,0,0,0-2.7041-1.40723Zm10.7334,4.66309,7.0083-.24805.38623-20.36328-7.91894-.55176Z" transform="translate(-99.75 -106.11842)" style="fill:#fff"/>
    <path d="M216.76172,236.791l.63476,7.80761-6.53906-.55175-1.26953-20.583,14.40332.66211.02734,5.90429-8.02929-.55175Z" transform="translate(-99.75 -106.11842)" style="fill:#fff"/>
    <path d="M246.75391,234.96973a9.08483,9.08483,0,0,1-3.75245,7.25683,12.42726,12.42726,0,0,1-7.36718,2.37207,11.60886,11.60886,0,0,1-7.146-2.42773q-3.20142-2.373-3.11816-7.20117a10.359,10.359,0,0,1,1.18652-4.71875,13.47453,13.47453,0,0,1,2.98-3.66993,12.69406,12.69406,0,0,1,3.97315-2.34472,10.81971,10.81971,0,0,1,4.27685-.77246,10.3699,10.3699,0,0,1,2.59375.5791,9.55052,9.55052,0,0,1,3.11768,1.82129,10.33875,10.33875,0,0,1,2.4834,3.5039A12.43951,12.43951,0,0,1,246.75391,234.96973Zm-7.75342-2.45606a.45618.45618,0,0,0,.19336-.13769.71635.71635,0,0,0,.16553-.166,2.05068,2.05068,0,0,0,.68994-1.51758,2.8689,2.8689,0,0,0-.46924-1.46191c-.03711-.03711-.083-.07813-.13819-.124s-.11035-.09668-.16552-.15235c-.03711-.03613-.07813-.07812-.124-.124a1.013,1.013,0,0,0-.15185-.124,3.75823,3.75823,0,0,0-1.43457-.55175,2.551,2.551,0,0,0-1.65576.248,2.979,2.979,0,0,0-.60694.33106,5.66549,5.66549,0,0,0-.46875.33105,2.24357,2.24357,0,0,0-.71777,1.62793,2.80042,2.80042,0,0,0,.57959,1.5459,1.08548,1.08548,0,0,1,.09668.11035.97579.97579,0,0,0,.09668.11035.78016.78016,0,0,1,.11035.06836,1.14233,1.14233,0,0,1,.11035.09668,2.99429,2.99429,0,0,0,3.918-.13769Z" transform="translate(-99.75 -106.11842)" style="fill:#fff"/>
    <path d="M248.85059,224.54l19.01074-1.07617.33154,9.54687L260.936,232.624l2.17968,11.97461-9.32617-.99316,1.60059-10.76074-6.70508.19336Z" transform="translate(-99.75 -106.11842)" style="fill:#fff"/>
    <path d="M291.2041,234.96973a9.08482,9.08482,0,0,1-3.75244,7.25683,12.42729,12.42729,0,0,1-7.36719,2.37207,11.60883,11.60883,0,0,1-7.146-2.42773q-3.20142-2.373-3.11817-7.20117a10.35885,10.35885,0,0,1,1.18653-4.71875,13.47435,13.47435,0,0,1,2.98-3.66993,12.694,12.694,0,0,1,3.97314-2.34472,10.81973,10.81973,0,0,1,4.27686-.77246,10.37,10.37,0,0,1,2.59375.5791,9.55038,9.55038,0,0,1,3.11767,1.82129,10.33861,10.33861,0,0,1,2.4834,3.5039A12.43923,12.43923,0,0,1,291.2041,234.96973Zm-7.75342-2.45606a.456.456,0,0,0,.19336-.13769.71615.71615,0,0,0,.16553-.166,2.05068,2.05068,0,0,0,.68994-1.51758,2.86871,2.86871,0,0,0-.46924-1.46191c-.03711-.03711-.083-.07813-.13818-.124s-.11035-.09668-.16553-.15235c-.03711-.03613-.07812-.07812-.124-.124a1.01313,1.01313,0,0,0-.15186-.124,3.75816,3.75816,0,0,0-1.43457-.55175,2.551,2.551,0,0,0-1.65576.248,2.97893,2.97893,0,0,0-.60693.33106,5.66549,5.66549,0,0,0-.46875.33105,2.24354,2.24354,0,0,0-.71778,1.62793,2.80057,2.80057,0,0,0,.57959,1.5459,1.08425,1.08425,0,0,1,.09668.11035.97679.97679,0,0,0,.09668.11035.78024.78024,0,0,1,.11036.06836,1.14233,1.14233,0,0,1,.11035.09668,2.99429,2.99429,0,0,0,3.918-.13769Z" transform="translate(-99.75 -106.11842)" style="fill:#fff"/>
    <path d="M293.13477,224.40137q1.48974-.33106,2.99365-.56543,1.50366-.23437,3.07666-.37207a16.63981,16.63981,0,0,1,7.44971,1.51758q2.92455,1.24071,3.17333,3.7246a3.71379,3.71379,0,0,1-2.09716,3.835q3.75219.44238,5.4082,2.23535a5.10894,5.10894,0,0,1,1.43457,3.86328,5.89731,5.89731,0,0,1-1.959,3.7793,7.91488,7.91488,0,0,1-4.939,2.01464q-1.7937.16554-3.39355.17969a29.76589,29.76589,0,0,1-3.063-.125q-1.46265-.1377-2.96631-.38574-1.50366-.249-3.07617-.63477Zm7.69824,6.48437q.57935-.05419,1.10351-.11035a5.46715,5.46715,0,0,0,.99366-.19336q.9375-.24756,1.0205-.88281.1106-1.18506-1.43457-1.43457-.77269-.1377-1.269-.17969a2.72113,2.72113,0,0,0-.74512.01367Zm1.18652,8.55371a14.38184,14.38184,0,0,1,2.37305-.166q1.76514-.082,1.6831-1.54492-.08275-1.68311-1.98681-1.82129-.93824-.082-1.54492-.09668a4.89169,4.89169,0,0,0-.91065.042Z" transform="translate(-99.75 -106.11842)" style="fill:#fff"/>
    <path d="M323.12744,230.55469a14.57815,14.57815,0,0,1,6.23584,2.5664,5.09475,5.09475,0,0,1,1.15869,1.07618,4.43252,4.43252,0,0,1,.63477,1.17187,4.80264,4.80264,0,0,1,.26172,1.33887q.04174.71776.0415,1.57226v1.11817a5.7637,5.7637,0,0,1-.09668,1.07519,3.1,3.1,0,0,1-.34473.95215,2.27776,2.27776,0,0,1-.74511.77246,14.36153,14.36153,0,0,1-4.63526,1.98731q-1.352.331-2.69043.53808a24.19239,24.19239,0,0,1-2.71777.26172q-1.37988.082-2.44189.083-1.062,0-1.80713-.05566l1.40722-20.36231,5.98731-.71777-.24805,6.64941Zm-1.13135,9.43652a5.51169,5.51169,0,0,0,3.33838-.66211,1.87825,1.87825,0,0,0,.8833-1.71094,2.64042,2.64042,0,0,0-.331-.96582,3.97167,3.97167,0,0,0-.82813-.99316,6.32192,6.32192,0,0,0-2.7041-1.40723Zm10.7334,4.66309,7.0083-.24805L340.124,224.043l-7.91894-.55176Z" transform="translate(-99.75 -106.11842)" style="fill:#fff"/>
    <path d="M371.49512,223.96l4.63574,4.46973L370.502,234.418l5.65625,5.9873-5.96,4.11133-6.26269-7.14648.082,6.73242-6.95313.49609-1.04785-20.83105,8.001-.30371.05566,10.292Z" transform="translate(-99.75 -106.11842)" style="fill:#fff"/>
    <path d="M403.8877,223.87793l7.33984-.41406-.96582,19.83789-6.374.71777.41406-15.67187-5.46289.35839.33105,15.34083-5.57422.55175-.85449-20.27929Z" transform="translate(-99.75 -106.11842)" style="fill:#fff"/>
    <path d="M419.94531,237.94922l.27637,6.64941-6.01465-.71679-1.40723-20.36329q.772-.0542,1.82032-.05468,1.04883,0,2.42871.083a26.12227,26.12227,0,0,1,5.4082.7998,14.69866,14.69866,0,0,1,4.66211,1.98633,4.14919,4.14919,0,0,1,1.98731,3.58691,6.29514,6.29514,0,0,1-2.92481,5.49121,14.21166,14.21166,0,0,1-6.23633,2.56543Zm-.77246-3.66992a6.306,6.306,0,0,0,2.73145-1.40723,3.17749,3.17749,0,0,0,1.13183-1.959,1.83774,1.83774,0,0,0-.88281-1.71,5.49927,5.49927,0,0,0-3.33887-.6621Z" transform="translate(-99.75 -106.11842)" style="fill:#fff"/>
    <path d="M445.5791,223.46387l6.45606,18.76269-6.84278,2.37207L443.84082,240.46H438.543l-1.24121,4.05664-6.73242-3.14551,6.87011-17.38281Zm-2.26269,12.66406-2.01465-4.88379-2.06934,4.80176Z" transform="translate(-99.75 -106.11842)" style="fill:#fff"/>
    <path d="M454.9873,224.65039l15.28614-1.18652.74511,6.26269-4.38769,3.28418a5.76207,5.76207,0,0,1,3.75293,1.37891,4.97578,4.97578,0,0,1,1.65527,3.94629,4.65788,4.65788,0,0,1-2.15234,4.249,12.35659,12.35659,0,0,1-5.13184,1.82129,23.3031,23.3031,0,0,1-6.09765.02734,20.00971,20.00971,0,0,1-4.91114-1.10351l1.68262-6.34668a6.062,6.062,0,0,0,1.876,1.13183,9.48068,9.48068,0,0,0,2.87011.77247,4.35891,4.35891,0,0,0,1.37989,0,4.2389,4.2389,0,0,0,1.21386-.38672q1.1587-.523,1.15821-2.37305a1.19391,1.19391,0,0,0-.74414-1.02051,9.07654,9.07654,0,0,0-1.7666-.68945,9.29278,9.29278,0,0,0-1.00684-.2207c-.34082-.05567-.67578-.10157-1.00684-.13868a6.17552,6.17552,0,0,0-1.60058-.05468l-.083-1.71094,9.24316-4.30469-11.00879,2.208Z" transform="translate(-99.75 -106.11842)" style="fill:#fff"/>
    <path d="M473.63965,245.0957l-.63477-3.75293,20.05957.13868-.63476,3.61425Zm11.45019-23.25976,7.36719-.41406-.99316,19.83886-6.374.7168.44141-15.67188-5.46289.3584.33105,15.36914-5.60058.55176-.82813-20.30762Z" transform="translate(-99.75 -106.11842)" style="fill:#fff"/>
    <path d="M493.6709,224.31934l6.42871-.38672v7.11914l4.71777-.083v-7.09082l7.33985-.41406-.96582,19.83789-6.374.71777V236.4873l-4.71777.11036v7.44922l-5.57422.55175Z" transform="translate(-99.75 -106.11842)" style="fill:#fff"/>
    <path d="M531.55469,223.82227l1.76562,18.43164-6.31836,1.49023-.46875-10.04394-5.43652,10.89843-7.36621-1.90332.41308-18.21093h6.31934l-.93848,9.18847,5.43555-9.65723,6.59473-.55175Z" transform="translate(-99.75 -106.11842)" style="fill:#fff"/>
    <path d="M550.39941,223.96l4.63575,4.46973-5.62891,5.98828,5.65624,5.9873-5.96,4.11133-6.2627-7.14648.082,6.73242-6.95313.49609-1.04785-20.83105,8.001-.30371.05566,10.292Z" transform="translate(-99.75 -106.11842)" style="fill:#fff"/>
    <path d="M556.71777,229.50586l4.71778-3.58691,3.86328,5.13281,3.0625-7.58789,6.45605,1.07617L564.1123,244.59863l-4.74609-3.44824,3.89063-6.31934Z" transform="translate(-99.75 -106.11842)" style="fill:#fff"/>
    <path d="M585.49609,216.64844l-2.23535,20.88672-5.1875.52441-.91015-18.01758Zm-4.58007,22.625a4.33194,4.33194,0,0,1,2.51074.49707,1.84892,1.84892,0,0,1,1.04785,1.65527,2.30314,2.30314,0,0,1-1.04785,1.84863,4.96735,4.96735,0,0,1-2.51074.96582,4.4459,4.4459,0,0,1-2.56641-.49609,1.89046,1.89046,0,0,1-1.04883-1.65625,2.33355,2.33355,0,0,1,1.04883-1.82031A5.01746,5.01746,0,0,1,580.916,239.27344Z" transform="translate(-99.75 -106.11842)" style="fill:#fff"/>
    <path d="M211.58154,284.07812a5.31614,5.31614,0,0,1-2.1958,4.2461,7.26145,7.26145,0,0,1-4.31054,1.38769A6.7926,6.7926,0,0,1,200.894,288.292a4.79328,4.79328,0,0,1-1.8247-4.21387,6.06164,6.06164,0,0,1,.69433-2.76074,7.884,7.884,0,0,1,1.74365-2.14746,7.43162,7.43162,0,0,1,2.32471-1.37207,6.34916,6.34916,0,0,1,2.50244-.45215,6.07927,6.07927,0,0,1,1.51758.33887,5.607,5.607,0,0,1,1.82422,1.06543,6.054,6.054,0,0,1,1.45312,2.05078A7.2833,7.2833,0,0,1,211.58154,284.07812Zm-4.53662-1.43652a.27742.27742,0,0,0,.11279-.08105.423.423,0,0,0,.09717-.09668,1.20236,1.20236,0,0,0,.40332-.88867,1.68094,1.68094,0,0,0-.27441-.85547c-.02149-.02149-.04834-.04493-.08057-.07227s-.06494-.05664-.09717-.08887l-.07226-.07226a.58006.58006,0,0,0-.08887-.07324,2.2115,2.2115,0,0,0-.83984-.32227,1.48521,1.48521,0,0,0-.96826.14453,1.74215,1.74215,0,0,0-.35547.19434,3.19517,3.19517,0,0,0-.27442.19336,1.31479,1.31479,0,0,0-.41992.95215,1.636,1.636,0,0,0,.33936.90429.66968.66968,0,0,1,.05664.06446.45781.45781,0,0,0,.05615.06445.50911.50911,0,0,1,.06494.041.65336.65336,0,0,1,.06445.05664,1.76267,1.76267,0,0,0,1.04932.38672,1.741,1.741,0,0,0,1.24317-.46777Z" transform="translate(-99.75 -106.11842)" style="fill:#fff"/>
    <path d="M222.88184,280.63965q-3.148-.53321-4.56885.69336a2.93343,2.93343,0,0,0-1.25928,2.584,2.66263,2.66263,0,0,0,1.82471,2.09863q1.6626.72657,4.71387-.80761l1.67919,3.39062a7.97429,7.97429,0,0,1-3.60009,1.08106,11.71106,11.71106,0,0,1-4.08448-.38672,8.71947,8.71947,0,0,1-3.39062-1.80859,4.27122,4.27122,0,0,1-1.48535-3.18067,5.42208,5.42208,0,0,1,1.0498-3.584,7.97037,7.97037,0,0,1,2.84131-2.40528,8.96179,8.96179,0,0,1,3.68066-.95215,6.66779,6.66779,0,0,1,3.51954.72657Z" transform="translate(-99.75 -106.11842)" style="fill:#fff"/>
    <path d="M226.36914,277.97559l11.12305-.62989.19385,5.58594-4.24561-.22559,1.27539,7.00586-5.457-.58105.93652-6.2959-3.92334.11328Z" transform="translate(-99.75 -106.11842)" style="fill:#fff"/>
    <path d="M247.4209,277.3457l3.77783,10.97852-4.00391,1.38769-.791-2.42089H243.3042l-.72656,2.373-3.93946-1.84082,4.02-10.1709Zm-1.32373,7.41016-1.17871-2.85742-1.21094,2.80957Z" transform="translate(-99.75 -106.11842)" style="fill:#fff"/>
    <path d="M252.19971,289.71191l2.59961-11.96289,4.77832-.40332,4.31054,10.05762-4.03613.48438-1.85644-5.2461-.8877,6.69922Z" transform="translate(-99.75 -106.11842)" style="fill:#fff"/>
    <path d="M277.35254,284.07812a5.31617,5.31617,0,0,1-2.1958,4.2461,7.26148,7.26148,0,0,1-4.31055,1.38769A6.79258,6.79258,0,0,1,266.665,288.292a4.79331,4.79331,0,0,1-1.82471-4.21387,6.06165,6.06165,0,0,1,.69434-2.76074,7.88382,7.88382,0,0,1,1.74365-2.14746,7.43151,7.43151,0,0,1,2.32471-1.37207,6.3491,6.3491,0,0,1,2.50244-.45215,6.07927,6.07927,0,0,1,1.51758.33887,5.6071,5.6071,0,0,1,1.82422,1.06543,6.054,6.054,0,0,1,1.45312,2.05078A7.2833,7.2833,0,0,1,277.35254,284.07812Zm-4.53662-1.43652a.27749.27749,0,0,0,.11279-.08105.423.423,0,0,0,.09717-.09668,1.20239,1.20239,0,0,0,.40332-.88867,1.68094,1.68094,0,0,0-.27441-.85547c-.02149-.02149-.04834-.04493-.08057-.07227s-.06494-.05664-.09717-.08887l-.07226-.07226a.581.581,0,0,0-.08887-.07324,2.21154,2.21154,0,0,0-.83985-.32227,1.48522,1.48522,0,0,0-.96826.14453,1.74215,1.74215,0,0,0-.35547.19434,3.19412,3.19412,0,0,0-.27441.19336,1.31475,1.31475,0,0,0-.41992.95215,1.63586,1.63586,0,0,0,.33935.90429.66831.66831,0,0,1,.05664.06446.4579.4579,0,0,0,.05616.06445.50981.50981,0,0,1,.06494.041.65451.65451,0,0,1,.06445.05664,1.76267,1.76267,0,0,0,1.04932.38672,1.741,1.741,0,0,0,1.24316-.46777Z" transform="translate(-99.75 -106.11842)" style="fill:#fff"/>
    <path d="M288.65283,280.63965q-3.14795-.53321-4.56885.69336a2.93344,2.93344,0,0,0-1.25927,2.584,2.66264,2.66264,0,0,0,1.8247,2.09863q1.6626.72657,4.71387-.80761l1.6792,3.39062a7.97429,7.97429,0,0,1-3.6001,1.08106,11.711,11.711,0,0,1-4.08447-.38672,8.7194,8.7194,0,0,1-3.39062-1.80859,4.27123,4.27123,0,0,1-1.48536-3.18067,5.422,5.422,0,0,1,1.04981-3.584,7.97028,7.97028,0,0,1,2.84131-2.40528,8.96179,8.96179,0,0,1,3.68066-.95215,6.66773,6.66773,0,0,1,3.51953.72657Z" transform="translate(-99.75 -106.11842)" style="fill:#fff"/>
    <path d="M295.90186,281.38184a8.41349,8.41349,0,0,1,3.64843,1.50195,2.98843,2.98843,0,0,1,.67823.62891,2.60852,2.60852,0,0,1,.37109.68652,2.812,2.812,0,0,1,.15332.7832q.02417.419.02441.91992v.65332a3.38435,3.38435,0,0,1-.05664.62989,1.841,1.841,0,0,1-.20166.55761,1.33658,1.33658,0,0,1-.436.45118,8.62429,8.62429,0,0,1-2.7124,1.16308,17.90472,17.90472,0,0,1-3.16407.48438,19.07908,19.07908,0,0,1-2.50244,0l.83936-11.915,3.50342-.41992-.145,3.8916Zm-.66211,5.52148a3.2188,3.2188,0,0,0,1.95361-.3877,1.07776,1.07776,0,0,0,.5166-1.001,1.95078,1.95078,0,0,0-.67822-1.12988,3.70939,3.70939,0,0,0-1.582-.83985Z" transform="translate(-99.75 -106.11842)" style="fill:#fff"/>
    <path d="M317.69629,277.58789l4.29443-.24219-.56494,11.60742-3.72949.41993.24219-9.16993-3.19678.21.19385,8.97656-3.26123.32226-.50049-11.86523Z" transform="translate(-99.75 -106.11842)" style="fill:#fff"/>
    <path d="M331.6123,277.3457l.09668,3.48731-4.5205-.06446.03222,1.291,2.3086-.12891.01611,2.13086h-2.09863l.04834,1.48536,4.35937-.25782.04834,4.18067-8.29834.24218-.69433-12.34961Z" transform="translate(-99.75 -106.11842)" style="fill:#fff"/>
    <path d="M336.90723,285.82129l.16113,3.89062-3.519-.41894-.82373-11.915q.45191-.03222,1.06591-.03223.613,0,1.42041.04883a15.3313,15.3313,0,0,1,3.16455.46777,8.61158,8.61158,0,0,1,2.728,1.16211,2.431,2.431,0,0,1,1.1626,2.09961,3.6806,3.6806,0,0,1-1.71143,3.21192,8.31824,8.31824,0,0,1-3.64843,1.502Zm-.45215-2.14649a3.70337,3.70337,0,0,0,1.59814-.82421,1.85425,1.85425,0,0,0,.66211-1.14551,1.07561,1.07561,0,0,0-.5166-1.001,3.218,3.218,0,0,0-1.95361-.38769Z" transform="translate(-99.75 -106.11842)" style="fill:#fff"/>
    <path d="M351.82422,277.3457l.09668,3.48731-4.52-.06446.03223,1.291,2.30908-.12891.01562,2.13086h-2.09863l.04834,1.48536,4.35889-.25782.04882,4.18067-8.29834.24218-.69433-12.34961Z" transform="translate(-99.75 -106.11842)" style="fill:#fff"/>
    <path d="M363.36719,277.55566l1.0332,10.78418-3.69727.87207-.27441-5.87695-3.17969,6.37695-4.31054-1.11328.24218-10.65527H356.877l-.54883,5.376,3.18067-5.65039,3.8584-.32325Zm-6.86133-3.64843,5.36035-.16114-.32324,2.06641-5.03711.48438Z" transform="translate(-99.75 -106.11842)" style="fill:#fff"/>
    <path d="M366.74219,277.97559l11.123-.62989.19434,5.58594-4.24609-.22559,1.27539,7.00586-5.457-.58105.93652-6.2959-3.92285.11328Z" transform="translate(-99.75 -106.11842)" style="fill:#fff"/>
    <path d="M389.44043,277.55566l1.0332,10.78418-3.69726.87207L386.502,283.335l-3.17968,6.37695-4.31055-1.11328.24219-10.65527h3.69629l-.54883,5.376L385.582,277.669l3.8584-.32325Z" transform="translate(-99.75 -106.11842)" style="fill:#fff"/>
    <path d="M406.666,277.58789l4.29394-.24219-.56543,11.60742-3.72851.41993.24121-9.16993-3.19629.21.19433,8.97656-3.26172.32226-.5-11.86523Z" transform="translate(-99.75 -106.11842)" style="fill:#fff"/>
    <path d="M424.39258,284.07812a5.31386,5.31386,0,0,1-2.19629,4.2461,7.25939,7.25939,0,0,1-4.31055,1.38769,6.79018,6.79018,0,0,1-4.18066-1.41992,4.793,4.793,0,0,1-1.82422-4.21387,6.06152,6.06152,0,0,1,.69434-2.76074,7.85512,7.85512,0,0,1,1.74316-2.14746,7.42277,7.42277,0,0,1,2.32519-1.37207,6.34391,6.34391,0,0,1,2.502-.45215,6.07024,6.07024,0,0,1,1.51758.33887A5.607,5.607,0,0,1,422.4873,278.75a6.054,6.054,0,0,1,1.45313,2.05078A7.27,7.27,0,0,1,424.39258,284.07812Zm-4.53711-1.43652a.28043.28043,0,0,0,.11328-.08105.4103.4103,0,0,0,.09668-.09668,1.19992,1.19992,0,0,0,.4043-.88867,1.69019,1.69019,0,0,0-.27442-.85547c-.02246-.02149-.04883-.04493-.08105-.07227s-.06446-.05664-.09668-.08887c-.02246-.02148-.0459-.04589-.07324-.07226a.53693.53693,0,0,0-.08887-.07324,2.20391,2.20391,0,0,0-.83887-.32227,1.48579,1.48579,0,0,0-.96875.14453,1.7289,1.7289,0,0,0-.35547.19434,3.19412,3.19412,0,0,0-.27441.19336,1.31289,1.31289,0,0,0-.41992.95215,1.639,1.639,0,0,0,.33886.90429.5568.5568,0,0,1,.05664.06446.49637.49637,0,0,0,.05665.06445.47354.47354,0,0,1,.06445.041.55864.55864,0,0,1,.06445.05664,1.76532,1.76532,0,0,0,1.04981.38672,1.74023,1.74023,0,0,0,1.24316-.46777Z" transform="translate(-99.75 -106.11842)" style="fill:#fff"/>
    <path d="M444.42676,280.63965q-3.148-.53321-4.56934.69336a2.92945,2.92945,0,0,0-1.25879,2.584,2.662,2.662,0,0,0,1.82422,2.09863q1.6626.72657,4.71387-.80761l1.67871,3.39062a7.97414,7.97414,0,0,1-3.59961,1.08106,11.716,11.716,0,0,1-4.085-.38672,8.71537,8.71537,0,0,1-3.38965-1.80859,4.27126,4.27126,0,0,1-1.48535-3.18067,5.42145,5.42145,0,0,1,1.04883-3.584,7.9844,7.9844,0,0,1,2.84179-2.40528,8.95983,8.95983,0,0,1,3.68067-.95215,6.66674,6.66674,0,0,1,3.51953.72657Z" transform="translate(-99.75 -106.11842)" style="fill:#fff"/>
    <path d="M457.98828,280.63965q-3.14794-.53321-4.56933.69336a2.92943,2.92943,0,0,0-1.25879,2.584,2.662,2.662,0,0,0,1.82422,2.09863q1.66258.72657,4.71386-.80761l1.67871,3.39062a7.9741,7.9741,0,0,1-3.59961,1.08106,11.71607,11.71607,0,0,1-4.085-.38672,8.71544,8.71544,0,0,1-3.38965-1.80859,4.27126,4.27126,0,0,1-1.48535-3.18067,5.42151,5.42151,0,0,1,1.04883-3.584,7.98443,7.98443,0,0,1,2.8418-2.40528,8.95979,8.95979,0,0,1,3.68066-.95215,6.66672,6.66672,0,0,1,3.51953.72657Z" transform="translate(-99.75 -106.11842)" style="fill:#fff"/>
    <path d="M465.26855,281.49512a8.531,8.531,0,0,1,3.64844,1.501,2.98849,2.98849,0,0,1,.67774.62989,2.59791,2.59791,0,0,1,.37207.68652,2.83023,2.83023,0,0,1,.15332.78223q.02343.4204.02343.92089v.65333a3.4358,3.4358,0,0,1-.05566.62988,1.82717,1.82717,0,0,1-.20215.55664,1.32887,1.32887,0,0,1-.43554.45215,8.3993,8.3993,0,0,1-2.7129,1.16211q-.791.19482-1.57421.31543a14.20677,14.20677,0,0,1-1.58985.15332q-.80712.04833-1.42871.04785c-.41406,0-.7666-.00977-1.05762-.03223l.82325-11.91406,3.5039-.41992-.14551,3.89062Zm-.6621,5.52148a3.22333,3.22333,0,0,0,1.95312-.38769,1.0985,1.0985,0,0,0,.5166-1.001,1.54637,1.54637,0,0,0-.19336-.56543,2.33371,2.33371,0,0,0-.48437-.58105,3.70007,3.70007,0,0,0-1.582-.82325Zm6.28027,2.72754,4.10058-.14453.22559-11.915-4.63281-.32227Z" transform="translate(-99.75 -106.11842)" style="fill:#fff"/>
    <path d="M475.77832,289.71191,478.377,277.749l4.7793-.40332,4.31055,10.05762-4.03614.48438-1.85644-5.2461-.88867,6.69922Z" transform="translate(-99.75 -106.11842)" style="fill:#fff"/>
    <path d="M497.47656,277.63672l2.71192,2.61523-3.293,3.50293,3.30957,3.50391-3.48731,2.40527-3.665-4.18164.04883,3.93946-4.06836.29-.61328-12.18847,4.68164-.17774.03223,6.02149Z" transform="translate(-99.75 -106.11842)" style="fill:#fff"/>
    <path d="M509.874,277.3457l.09668,3.48731-4.51953-.06446.03223,1.291,2.30859-.12891.01563,2.13086H505.709l.04883,1.48536,4.3584-.25782.04883,4.18067-8.29785.24218-.69434-12.34961Z" transform="translate(-99.75 -106.11842)" style="fill:#fff"/>
    <path d="M263.94434,296.92871l1.0332,10.78418-3.69678.87207-.27441-5.877-3.18067,6.377-4.31054-1.11328.24218-10.65527h3.69727l-.54883,5.376,3.18018-5.65039,3.8584-.32324Z" transform="translate(-99.75 -106.11842)" style="fill:#fff"/>
    <path d="M275.374,297.41309l8.94385-.69434.436,3.665-2.5669,1.9209a3.36861,3.36861,0,0,1,2.1958.80761,2.90915,2.90915,0,0,1,.96826,2.3086,2.726,2.726,0,0,1-1.25927,2.48633,7.239,7.239,0,0,1-3.00244,1.06543,13.61387,13.61387,0,0,1-3.56788.01562,11.68034,11.68034,0,0,1-2.874-.64551l.98486-3.71289a3.55506,3.55506,0,0,0,1.09815.66114,5.51583,5.51583,0,0,0,1.67871.45214,2.53488,2.53488,0,0,0,1.51758-.22558,1.35827,1.35827,0,0,0,.67822-1.38867.698.698,0,0,0-.436-.59668,5.316,5.316,0,0,0-1.03321-.4043,5.48583,5.48583,0,0,0-.58935-.12891c-.19922-.03222-.39551-.05859-.58936-.081a3.62818,3.62818,0,0,0-.936-.03223l-.04834-1.001,5.4082-2.51856-6.4419,1.292Z" transform="translate(-99.75 -106.11842)" style="fill:#fff"/>
    <path d="M295.05371,296.71875l3.77783,10.97852-4.0039,1.38769-.791-2.4209H290.937l-.72656,2.373-3.93945-1.84082,4.02-10.1709ZM293.73,304.12891l-1.17871-2.85743-1.21094,2.80957Z" transform="translate(-99.75 -106.11842)" style="fill:#fff"/>
    <path d="M303.69092,300.75488a8.4136,8.4136,0,0,1,3.64844,1.502,2.98857,2.98857,0,0,1,.67822.6289,2.60829,2.60829,0,0,1,.37109.68653,2.81192,2.81192,0,0,1,.15332.7832q.02418.41895.02442.91992v.65332a3.385,3.385,0,0,1-.05664.62988,1.84135,1.84135,0,0,1-.20166.55762,1.33659,1.33659,0,0,1-.436.45117,8.62431,8.62431,0,0,1-2.7124,1.16309,17.9038,17.9038,0,0,1-3.16406.48437,19.07924,19.07924,0,0,1-2.50245,0l.83936-11.915,7.37793-.82324v2.63184l-4.06836-.08106.04883,1.74414Zm-.66211,5.52149a3.21886,3.21886,0,0,0,1.95361-.3877,1.07775,1.07775,0,0,0,.5166-1.001,1.95078,1.95078,0,0,0-.67822-1.12989,3.70938,3.70938,0,0,0-1.582-.83984Z" transform="translate(-99.75 -106.11842)" style="fill:#fff"/>
    <path d="M314.41064,305.19434l.16114,3.89062-3.519-.41894-.82373-11.915q.4519-.03224,1.06592-.03223.613,0,1.42041.04883a15.3313,15.3313,0,0,1,3.16455.46777,8.61158,8.61158,0,0,1,2.728,1.16211,2.431,2.431,0,0,1,1.1626,2.09961,3.68058,3.68058,0,0,1-1.71143,3.21191,8.31813,8.31813,0,0,1-3.64844,1.502Zm-.45214-2.14649a3.70328,3.70328,0,0,0,1.59814-.82422,1.85427,1.85427,0,0,0,.66211-1.14551,1.07561,1.07561,0,0,0-.5166-1.001,3.218,3.218,0,0,0-1.95361-.3877Z" transform="translate(-99.75 -106.11842)" style="fill:#fff"/>
    <path d="M329.40869,296.71875l3.77783,10.97852-4.0039,1.38769-.791-2.4209H325.292l-.72656,2.373-3.93945-1.84082,4.02-10.1709Zm-1.32373,7.41016-1.17871-2.85743-1.21094,2.80957Z" transform="translate(-99.75 -106.11842)" style="fill:#fff"/>
    <path d="M334.28418,297.34863l11.12305-.62988.19384,5.58594-4.2456-.22559,1.27539,7.00586-5.457-.58105.93652-6.2959-3.92334.11328Z" transform="translate(-99.75 -106.11842)" style="fill:#fff"/>
    <path d="M350.41211,300.75488a8.4136,8.4136,0,0,1,3.64844,1.502,2.96462,2.96462,0,0,1,.67773.6289,2.56665,2.56665,0,0,1,.3711.68653,2.795,2.795,0,0,1,.15429.7832q.02344.41895.02344.91992v.65332a3.34384,3.34384,0,0,1-.05664.62988,1.81467,1.81467,0,0,1-.20117.55762,1.329,1.329,0,0,1-.43653.45117,8.61657,8.61657,0,0,1-2.71191,1.16309,17.9038,17.9038,0,0,1-3.16406.48437,19.07907,19.07907,0,0,1-2.50244,0l.83935-11.915,3.50391-.41992-.14551,3.8916Zm-.66211,5.52149a3.21629,3.21629,0,0,0,1.95312-.3877,1.07682,1.07682,0,0,0,.51661-1.001,1.94453,1.94453,0,0,0-.67774-1.12989,3.70938,3.70938,0,0,0-1.582-.83984Z" transform="translate(-99.75 -106.11842)" style="fill:#fff"/>
    <path d="M372.207,296.96094l4.294-.24219-.56543,11.60742-3.72852.41992.24121-9.16992-3.19629.21.19434,8.97657-3.26172.32226-.5-11.86523Z" transform="translate(-99.75 -106.11842)" style="fill:#fff"/>
    <path d="M389.93262,303.45117a5.31389,5.31389,0,0,1-2.19629,4.2461,7.25939,7.25939,0,0,1-4.31055,1.38769,6.79024,6.79024,0,0,1-4.18066-1.41992,4.793,4.793,0,0,1-1.82422-4.21387,6.06161,6.06161,0,0,1,.69433-2.76074,7.85519,7.85519,0,0,1,1.74317-2.14746,7.42277,7.42277,0,0,1,2.32519-1.37207,6.34371,6.34371,0,0,1,2.502-.45215,6.06973,6.06973,0,0,1,1.51757.33887,5.60689,5.60689,0,0,1,1.82422,1.06543,6.05392,6.05392,0,0,1,1.45313,2.05078A7.27,7.27,0,0,1,389.93262,303.45117Zm-4.53711-1.43652a.28032.28032,0,0,0,.11328-.08106.41012.41012,0,0,0,.09668-.09668,1.19991,1.19991,0,0,0,.4043-.88867,1.69023,1.69023,0,0,0-.27442-.85547c-.02246-.02148-.04883-.04492-.08105-.07226s-.06446-.05664-.09668-.08887c-.02246-.02148-.0459-.0459-.07324-.07226a.5379.5379,0,0,0-.08887-.07325,2.20406,2.20406,0,0,0-.83887-.32226,1.48579,1.48579,0,0,0-.96875.14453,1.7294,1.7294,0,0,0-.35547.19433,3.19917,3.19917,0,0,0-.27441.19336,1.31289,1.31289,0,0,0-.41992.95215,1.639,1.639,0,0,0,.33886.9043.55674.55674,0,0,1,.05664.06445.4971.4971,0,0,0,.05664.06446.472.472,0,0,1,.06446.041.55864.55864,0,0,1,.06445.05664,1.76532,1.76532,0,0,0,1.04981.38672,1.74029,1.74029,0,0,0,1.24316-.46777Z" transform="translate(-99.75 -106.11842)" style="fill:#fff"/>
    <path d="M391.07812,309.376l-.37109-2.19532,11.73731.08008-.37207,2.11524Zm6.7002-13.60938,4.31055-.24219-.58106,11.60743-3.72949.41992.25781-9.16992-3.19629.21.19336,8.99218-3.27636.32325-.48438-11.88282Z" transform="translate(-99.75 -106.11842)" style="fill:#fff"/>
    <path d="M411.582,296.71875l3.77735,10.97852-4.00391,1.38769-.791-2.4209h-3.09961l-.72656,2.373-3.93848-1.84082,4.01954-10.1709Zm-1.32422,7.41016-1.17773-2.85743-1.21094,2.80957Z" transform="translate(-99.75 -106.11842)" style="fill:#fff"/>
    <path d="M420.541,305.19434l.1621,3.89062-3.51953-.41894-.82324-11.915q.45117-.03224,1.06543-.03223c.40918,0,.88184.0166,1.4209.04883a15.322,15.322,0,0,1,3.16406.46777,8.61442,8.61442,0,0,1,2.72852,1.16211,2.43158,2.43158,0,0,1,1.16211,2.09961,3.6812,3.6812,0,0,1-1.71094,3.21191,8.32418,8.32418,0,0,1-3.64941,1.502Zm-.45118-2.14649a3.70126,3.70126,0,0,0,1.59765-.82422,1.85424,1.85424,0,0,0,.66212-1.14551,1.07466,1.07466,0,0,0-.5166-1.001,3.21808,3.21808,0,0,0-1.95313-.3877Z" transform="translate(-99.75 -106.11842)" style="fill:#fff"/>
    <path d="M439.26953,303.45117a5.31389,5.31389,0,0,1-2.19629,4.2461,7.25934,7.25934,0,0,1-4.31054,1.38769A6.79027,6.79027,0,0,1,428.582,307.665a4.793,4.793,0,0,1-1.82422-4.21387,6.06161,6.06161,0,0,1,.69434-2.76074,7.85515,7.85515,0,0,1,1.74316-2.14746,7.42293,7.42293,0,0,1,2.3252-1.37207,6.34366,6.34366,0,0,1,2.502-.45215,6.0697,6.0697,0,0,1,1.51758.33887,5.6071,5.6071,0,0,1,1.82422,1.06543,6.05391,6.05391,0,0,1,1.45312,2.05078A7.26971,7.26971,0,0,1,439.26953,303.45117Zm-4.53711-1.43652a.28024.28024,0,0,0,.11328-.08106.40993.40993,0,0,0,.09668-.09668,1.19991,1.19991,0,0,0,.4043-.88867,1.69031,1.69031,0,0,0-.27441-.85547c-.02247-.02148-.04883-.04492-.08106-.07226s-.06445-.05664-.09668-.08887c-.02246-.02148-.0459-.0459-.07324-.07226a.53749.53749,0,0,0-.08887-.07325,2.204,2.204,0,0,0-.83887-.32226,1.48579,1.48579,0,0,0-.96875.14453,1.72929,1.72929,0,0,0-.35546.19433,3.20023,3.20023,0,0,0-.27442.19336,1.31292,1.31292,0,0,0-.41992.95215,1.639,1.639,0,0,0,.33887.9043.55864.55864,0,0,1,.05664.06445.4956.4956,0,0,0,.05664.06446.472.472,0,0,1,.06445.041.55781.55781,0,0,1,.06445.05664,1.76532,1.76532,0,0,0,1.04981.38672,1.74028,1.74028,0,0,0,1.24316-.46777Z" transform="translate(-99.75 -106.11842)" style="fill:#fff"/>
    <path d="M449.45605,297.00977,452.168,299.625l-3.293,3.50293,3.30957,3.50391-3.4873,2.40527-3.665-4.18164.04882,3.93945-4.06835.29-.61329-12.18848,4.68164-.17773.03223,6.02148Z" transform="translate(-99.75 -106.11842)" style="fill:#fff"/>
    <path d="M454.55762,305.98535a1.28682,1.28682,0,0,1,1.40429,1.17871,3.69074,3.69074,0,0,1-.37109,1.51758,2.63268,2.63268,0,0,1-1.5498,1.51758l-.22657-.03223a2.1838,2.1838,0,0,0,.56543-.90429,2.59426,2.59426,0,0,0-.01562-.75879,1.51064,1.51064,0,0,1-.87207-.41993,1.1716,1.1716,0,0,1-.33887-.83886,1.13065,1.13065,0,0,1,.40332-.8877A1.457,1.457,0,0,1,454.55762,305.98535Z" transform="translate(-99.75 -106.11842)" style="fill:#fff"/>
    <path d="M159.87988,316.334l4.29444-.24218-.56494,11.60742-3.7295.41992.24219-9.16992-3.19678.21.19385,8.97656-3.26123.32227-.50049-11.86524Z" transform="translate(-99.75 -106.11842)" style="fill:#fff"/>
    <path d="M169.27588,324.56738l.16113,3.89063-3.519-.41895-.82373-11.915q.4519-.03222,1.06592-.03222.613,0,1.42041.04882a15.33084,15.33084,0,0,1,3.16455.46778,8.61162,8.61162,0,0,1,2.728,1.16211,2.431,2.431,0,0,1,1.1626,2.09961,3.68057,3.68057,0,0,1-1.71142,3.21191,8.31809,8.31809,0,0,1-3.64844,1.502Zm-.45215-2.14648a3.70342,3.70342,0,0,0,1.59815-.82422,1.85428,1.85428,0,0,0,.6621-1.14551,1.0756,1.0756,0,0,0-.5166-1.001,3.21792,3.21792,0,0,0-1.95361-.3877Z" transform="translate(-99.75 -106.11842)" style="fill:#fff"/>
    <path d="M185.91992,316.30176l1.0332,10.78418-3.69677.87207-.27442-5.877-3.18066,6.377-4.31055-1.11328.24219-10.65528h3.69727l-.54883,5.376,3.18017-5.65039,3.8584-.32324Z" transform="translate(-99.75 -106.11842)" style="fill:#fff"/>
    <path d="M192.0874,323.88965l.3711,4.56836-3.82618-.32227-.74267-12.04394,8.42724.38769.01661,3.45508-4.69825-.32324Z" transform="translate(-99.75 -106.11842)" style="fill:#fff"/>
    <path d="M209.63623,322.82422a5.31613,5.31613,0,0,1-2.1958,4.24609,7.2614,7.2614,0,0,1-4.31055,1.3877,6.79264,6.79264,0,0,1-4.18115-1.41992,4.79332,4.79332,0,0,1-1.82471-4.21387,6.06161,6.06161,0,0,1,.69434-2.76074A7.88367,7.88367,0,0,1,199.562,317.916a7.43151,7.43151,0,0,1,2.32471-1.37207,6.349,6.349,0,0,1,2.50244-.45215,6.07873,6.07873,0,0,1,1.51758.33886,5.6071,5.6071,0,0,1,1.82422,1.06543,6.054,6.054,0,0,1,1.45312,2.05079A7.28327,7.28327,0,0,1,209.63623,322.82422Zm-4.53662-1.43652a.27758.27758,0,0,0,.11279-.08106.42285.42285,0,0,0,.09717-.09668,1.20239,1.20239,0,0,0,.40332-.88867,1.681,1.681,0,0,0-.27441-.85547c-.02149-.02148-.04834-.04492-.08057-.07227s-.06494-.05664-.09717-.08886l-.07226-.07227a.58113.58113,0,0,0-.08887-.07324,2.21172,2.21172,0,0,0-.83984-.32227,1.48518,1.48518,0,0,0-.96827.14454,1.74227,1.74227,0,0,0-.35546.19433,3.1977,3.1977,0,0,0-.27442.19336,1.31481,1.31481,0,0,0-.41992.95215,1.63592,1.63592,0,0,0,.33935.9043.66857.66857,0,0,1,.05665.06445.45717.45717,0,0,0,.05615.06445.50922.50922,0,0,1,.06494.041.65076.65076,0,0,1,.06445.05664,1.76274,1.76274,0,0,0,1.04932.38672,1.741,1.741,0,0,0,1.24316-.46778Z" transform="translate(-99.75 -106.11842)" style="fill:#fff"/>
    <path d="M210.86279,316.72168l11.12305-.62988.19385,5.58593-4.24561-.22558,1.27539,7.00586-5.457-.58106.93652-6.2959-3.92334.11329Z" transform="translate(-99.75 -106.11842)" style="fill:#fff"/>
    <path d="M235.644,322.82422a5.31613,5.31613,0,0,1-2.1958,4.24609,7.26139,7.26139,0,0,1-4.31054,1.3877,6.79267,6.79267,0,0,1-4.18116-1.41992,4.79329,4.79329,0,0,1-1.8247-4.21387,6.06161,6.06161,0,0,1,.69433-2.76074,7.88386,7.88386,0,0,1,1.74365-2.14746,7.43162,7.43162,0,0,1,2.32471-1.37207,6.349,6.349,0,0,1,2.50244-.45215,6.07873,6.07873,0,0,1,1.51758.33886,5.607,5.607,0,0,1,1.82422,1.06543,6.054,6.054,0,0,1,1.45312,2.05079A7.28327,7.28327,0,0,1,235.644,322.82422Zm-4.53662-1.43652a.2775.2775,0,0,0,.11279-.08106.42285.42285,0,0,0,.09717-.09668,1.20236,1.20236,0,0,0,.40332-.88867,1.681,1.681,0,0,0-.27441-.85547c-.02149-.02148-.04834-.04492-.08057-.07227s-.06494-.05664-.09717-.08886l-.07226-.07227a.58065.58065,0,0,0-.08887-.07324,2.21166,2.21166,0,0,0-.83984-.32227,1.48516,1.48516,0,0,0-.96826.14454,1.74266,1.74266,0,0,0-.35547.19433,3.1977,3.1977,0,0,0-.27442.19336,1.31481,1.31481,0,0,0-.41992.95215,1.636,1.636,0,0,0,.33936.9043.66841.66841,0,0,1,.05664.06445.45781.45781,0,0,0,.05615.06445.50922.50922,0,0,1,.06494.041.65076.65076,0,0,1,.06445.05664,1.76274,1.76274,0,0,0,1.04932.38672,1.74106,1.74106,0,0,0,1.24317-.46778Z" transform="translate(-99.75 -106.11842)" style="fill:#fff"/>
    <path d="M236.77344,316.64062q.87231-.19335,1.75195-.33105.87965-.13623,1.79981-.21777a9.74177,9.74177,0,0,1,4.35888.88769,2.65928,2.65928,0,0,1,1.85694,2.17969,2.17429,2.17429,0,0,1-1.22706,2.24414,4.9728,4.9728,0,0,1,3.16407,1.30762,2.99112,2.99112,0,0,1,.83984,2.26074,3.452,3.452,0,0,1-1.14648,2.21094,4.62931,4.62931,0,0,1-2.88965,1.17871q-1.04957.09667-1.98584.10547a17.37151,17.37151,0,0,1-1.792-.07325q-.8562-.08057-1.73536-.22558-.88037-.145-1.80029-.37109Zm4.50439,3.79395q.33912-.03222.646-.06445a3.198,3.198,0,0,0,.58105-.11328q.54859-.145.59717-.51661.06445-.69286-.83935-.83886-.4519-.08056-.74268-.10547a1.63612,1.63612,0,0,0-.436.00781Zm.69434,5.00488a8.42027,8.42027,0,0,1,1.38818-.09668q1.03345-.04833.98486-.90429-.04833-.98437-1.1621-1.06543-.54933-.04834-.9043-.05664a2.90856,2.90856,0,0,0-.53272.02441Z" transform="translate(-99.75 -106.11842)" style="fill:#fff"/>
    <path d="M250.43164,328.458l2.59961-11.96289,4.77832-.40332,4.31055,10.05761-4.03614.48438-1.85644-5.24609-.8877,6.69921Z" transform="translate(-99.75 -106.11842)" style="fill:#fff"/>
    <path d="M271.77441,316.0918l.09668,3.4873-4.5205-.06445.03222,1.291,2.3086-.1289.01611,2.13086h-2.09863l.04834,1.48535,4.35937-.25781.04834,4.18066-8.29834.24219-.69433-12.34961Z" transform="translate(-99.75 -106.11842)" style="fill:#fff"/>
    <path d="M272.8877,316.59277l3.76171-.22656v4.165l2.76075-.04785V316.334l4.29443-.24218-.56494,11.60742-3.72949.41992v-4.40723l-2.76075.06446v4.35937l-3.26123.32227Z" transform="translate(-99.75 -106.11842)" style="fill:#fff"/>
    <path d="M284.62451,316.59277l3.76172-.22656v4.165l2.76074-.04785V316.334l4.29444-.24218-.565,11.60742-3.72949.41992v-4.40723l-2.76074.06446v4.35937l-3.26123.32227Z" transform="translate(-99.75 -106.11842)" style="fill:#fff"/>
    <path d="M300.252,320.24121a8.531,8.531,0,0,1,3.64844,1.501,3.01272,3.01272,0,0,1,.67822.62988,2.60842,2.60842,0,0,1,.3711.68652,2.81279,2.81279,0,0,1,.15332.78223q.02417.4204.02441.9209v.65332a3.39192,3.39192,0,0,1-.05664.62988,1.81338,1.81338,0,0,1-.20166.55664,1.33054,1.33054,0,0,1-.436.45215,8.39164,8.39164,0,0,1-2.71241,1.16211q-.791.19482-1.57373.31543a14.23276,14.23276,0,0,1-1.59033.15332q-.80714.04834-1.42871.04785c-.41455,0-.76709-.00976-1.05762-.03222l.82324-11.91407,3.50342-.41992-.145,3.89063Zm-.66211,5.52149a3.226,3.226,0,0,0,1.95362-.3877,1.09949,1.09949,0,0,0,.5166-1.001,1.557,1.557,0,0,0-.19385-.56543,2.33389,2.33389,0,0,0-.48437-.58105,3.69993,3.69993,0,0,0-1.582-.82324Zm6.28028,2.72753,4.10058-.14453.22608-11.915-4.6333-.32226Z" transform="translate(-99.75 -106.11842)" style="fill:#fff"/>
    <path d="M321.19092,316.30176l1.0332,10.78418-3.69678.87207-.27441-5.877-3.18066,6.377-4.31055-1.11328.24219-10.65528h3.69726l-.54883,5.376,3.18018-5.65039,3.8584-.32324Zm-6.86133-3.64844,5.35986-.16113-.32275,2.0664-5.03711.48438Z" transform="translate(-99.75 -106.11842)" style="fill:#fff"/>
    <path d="M343.37305,319.38574q-3.148-.53321-4.56885.69336a2.93343,2.93343,0,0,0-1.25928,2.584,2.66265,2.66265,0,0,0,1.82471,2.09863q1.6626.72655,4.71387-.80762l1.6792,3.39063a7.97421,7.97421,0,0,1-3.6001,1.081,11.71082,11.71082,0,0,1-4.08448-.38672,8.71954,8.71954,0,0,1-3.39062-1.80859,4.27122,4.27122,0,0,1-1.48535-3.18067,5.4221,5.4221,0,0,1,1.0498-3.584,7.97024,7.97024,0,0,1,2.84131-2.40527,8.96148,8.96148,0,0,1,3.68067-.95215,6.66777,6.66777,0,0,1,3.51953.72656Z" transform="translate(-99.75 -106.11842)" style="fill:#fff"/>
    <path d="M353.28613,316.334l4.29395-.24218-.56543,11.60742-3.72852.41992.24121-9.16992-3.19629.21.19434,8.97656-3.26172.32227-.50049-11.86524Z" transform="translate(-99.75 -106.11842)" style="fill:#fff"/>
    <path d="M367.20117,316.0918l.09668,3.4873-4.51953-.06445.03223,1.291,2.30859-.1289.01563,2.13086h-2.09864l.04883,1.48535,4.3584-.25781.04883,4.18066-8.29785.24219L358.5,316.1084Z" transform="translate(-99.75 -106.11842)" style="fill:#fff"/>
    <path d="M374.49805,328.749h-6.15039l.46777-12.65722,3.26172.32324-.19434,8.97558,3.19629.21-.24121-9.16993,3.72852.41993.43652,11.65625Zm9.10547-2.61523-.17774,3.00293-8.8789.08008.08105-4.03614Z" transform="translate(-99.75 -106.11842)" style="fill:#fff"/>
    <path d="M390.48145,316.30176l1.0332,10.78418-3.69727.87207-.27441-5.877-3.17969,6.377-4.31055-1.11328.24219-10.65528h3.69629l-.54883,5.376,3.18067-5.65039,3.8584-.32324Z" transform="translate(-99.75 -106.11842)" style="fill:#fff"/>
    <path d="M401.2334,316.0918l3.77734,10.97851-4.0039,1.3877-.791-2.4209h-3.09961l-.72656,2.37305-3.93848-1.84082,4.01953-10.1709Zm-1.32422,7.41015-1.17773-2.85742-1.21094,2.80957Z" transform="translate(-99.75 -106.11842)" style="fill:#fff"/>
    <path d="M406.01172,328.458l2.59863-11.96289,4.7793-.40332,4.31055,10.05761-4.03614.48438-1.85644-5.24609-.88867,6.69921Z" transform="translate(-99.75 -106.11842)" style="fill:#fff"/>
    <path d="M422.51074,320.12793a8.41365,8.41365,0,0,1,3.64844,1.502,2.96443,2.96443,0,0,1,.67773.62891,2.56659,2.56659,0,0,1,.3711.68652,2.7951,2.7951,0,0,1,.15429.78321q.02344.41894.02344.91992v.65332a3.34309,3.34309,0,0,1-.05664.62988,1.81467,1.81467,0,0,1-.20117.55762,1.32928,1.32928,0,0,1-.43652.45117,8.61662,8.61662,0,0,1-2.71192,1.16309,17.90366,17.90366,0,0,1-3.16406.48437,19.07148,19.07148,0,0,1-2.50195,0l.83886-11.915,3.50391-.41992-.14551,3.8916Zm-.66211,5.52148a3.21633,3.21633,0,0,0,1.95313-.38769,1.07683,1.07683,0,0,0,.5166-1.001,1.94451,1.94451,0,0,0-.67774-1.12988,3.70932,3.70932,0,0,0-1.582-.83984Z" transform="translate(-99.75 -106.11842)" style="fill:#fff"/>
    <path d="M429.0498,316.59277l3.76172-.22656v4.165l2.76075-.04785V316.334l4.29394-.24218-.56543,11.60742-3.72851.41992v-4.40723l-2.76075.06446v4.35937l-3.26172.32227Z" transform="translate(-99.75 -106.11842)" style="fill:#fff"/>
    <path d="M453.29785,322.82422a5.31383,5.31383,0,0,1-2.19629,4.24609,7.25928,7.25928,0,0,1-4.31054,1.3877,6.79027,6.79027,0,0,1-4.18067-1.41992,4.793,4.793,0,0,1-1.82422-4.21387,6.06161,6.06161,0,0,1,.69434-2.76074,7.85515,7.85515,0,0,1,1.74316-2.14746,7.42293,7.42293,0,0,1,2.3252-1.37207,6.34366,6.34366,0,0,1,2.50195-.45215,6.06961,6.06961,0,0,1,1.51758.33886,5.6071,5.6071,0,0,1,1.82422,1.06543,6.054,6.054,0,0,1,1.45312,2.05079A7.26968,7.26968,0,0,1,453.29785,322.82422Zm-4.53711-1.43652a.28044.28044,0,0,0,.11328-.08106.41011.41011,0,0,0,.09668-.09668,1.19992,1.19992,0,0,0,.4043-.88867,1.69031,1.69031,0,0,0-.27441-.85547c-.02247-.02148-.04883-.04492-.08106-.07227s-.06445-.05664-.09668-.08886c-.02246-.02149-.0459-.0459-.07324-.07227a.53743.53743,0,0,0-.08887-.07324,2.204,2.204,0,0,0-.83886-.32227,1.48577,1.48577,0,0,0-.96876.14454,1.72929,1.72929,0,0,0-.35546.19433,3.1977,3.1977,0,0,0-.27442.19336,1.31291,1.31291,0,0,0-.41992.95215,1.63905,1.63905,0,0,0,.33887.9043.55781.55781,0,0,1,.05664.06445.49553.49553,0,0,0,.05664.06445.473.473,0,0,1,.06445.041.5568.5568,0,0,1,.06446.05664,1.76533,1.76533,0,0,0,1.0498.38672,1.74029,1.74029,0,0,0,1.24316-.46778Z" transform="translate(-99.75 -106.11842)" style="fill:#fff"/>
    <path d="M463.17773,328.749l-.37109-2.19531,11.73731.08008-.37207,2.11523Zm6.7002-13.60937,4.31055-.24219-.58106,11.60742-3.72949.41992.25781-9.16992-3.19629.21.19336,8.99219-3.27636.32324-.48438-11.88281Z" transform="translate(-99.75 -106.11842)" style="fill:#fff"/>
    <path d="M474.89844,328.458l2.59863-11.96289,4.7793-.40332,4.31054,10.05761-4.03613.48438-1.85644-5.24609-.88868,6.69921Z" transform="translate(-99.75 -106.11842)" style="fill:#fff"/>
    <path d="M495.86914,323.67969l-.80762.0166-3.61621,4.76172-3.90625-2.92188,4.53614-2.84082a6.14937,6.14937,0,0,1-1.84082-1.80859,2.27178,2.27178,0,0,1-.24122-2.16309A2.85934,2.85934,0,0,1,491.543,317.335a11.82825,11.82825,0,0,1,2.69531-.87207q.7749-.145,1.542-.2334.76613-.08936,1.57422-.12109a13.65586,13.65586,0,0,1,2.74414.1289l-.58105,11.39747-3.82617.48437Zm.25879-5.53711a3.55131,3.55131,0,0,0-1.90527.45215.90626.90626,0,0,0-.48438.90332,1.6844,1.6844,0,0,0,.71.96875,3.65365,3.65365,0,0,0,1.64649.61328Z" transform="translate(-99.75 -106.11842)" style="fill:#fff"/>
    <path d="M509.834,316.64062q.87159-.19335,1.751-.33105.88038-.13623,1.80078-.21777a9.7411,9.7411,0,0,1,4.3584.88769,2.65867,2.65867,0,0,1,1.85645,2.17969,2.17322,2.17322,0,0,1-1.22657,2.24414,4.9716,4.9716,0,0,1,3.16407,1.30762,2.99112,2.99112,0,0,1,.83984,2.26074,3.452,3.452,0,0,1-1.14648,2.21094,4.62816,4.62816,0,0,1-2.88965,1.17871q-1.0503.09667-1.98535.10547a17.39658,17.39658,0,0,1-1.793-.07325q-.85548-.08057-1.73536-.22558-.87889-.145-1.7998-.37109Zm4.50391,3.79395c.22559-.02148.44141-.043.64551-.06445a3.17347,3.17347,0,0,0,.58105-.11328q.54932-.145.59766-.51661.06445-.69286-.83984-.83886c-.30079-.05371-.54883-.08887-.74219-.10547a1.63228,1.63228,0,0,0-.43555.00781Zm.69434,5.00488a8.41272,8.41272,0,0,1,1.38867-.09668q1.03272-.04833.98437-.90429-.04833-.98437-1.16211-1.06543-.54931-.04834-.90429-.05664a2.91715,2.91715,0,0,0-.53321.02441Z" transform="translate(-99.75 -106.11842)" style="fill:#fff"/>
    <path d="M532.27441,316.0918l3.77735,10.97851-4.00391,1.3877-.791-2.4209h-3.09961l-.72657,2.37305-3.93847-1.84082,4.01953-10.1709ZM530.9502,323.502l-1.17774-2.85742-1.21094,2.80957Z" transform="translate(-99.75 -106.11842)" style="fill:#fff"/>
    <path d="M547.22363,319.38574q-3.14794-.53321-4.56933.69336a2.92945,2.92945,0,0,0-1.25879,2.584,2.662,2.662,0,0,0,1.82422,2.09863q1.66259.72655,4.71386-.80762l1.67871,3.39063a7.974,7.974,0,0,1-3.5996,1.081,11.71587,11.71587,0,0,1-4.085-.38672,8.7154,8.7154,0,0,1-3.38964-1.80859,4.27123,4.27123,0,0,1-1.48536-3.18067,5.42152,5.42152,0,0,1,1.04883-3.584,7.9843,7.9843,0,0,1,2.8418-2.40527,8.95943,8.95943,0,0,1,3.68066-.95215,6.66674,6.66674,0,0,1,3.51953.72656Z" transform="translate(-99.75 -106.11842)" style="fill:#fff"/>
    <path d="M555.958,312.10449l-1.30762,12.22071-3.03516.30664-.5332-10.542Zm-2.68067,13.23828a2.53722,2.53722,0,0,1,1.46973.29,1.08238,1.08238,0,0,1,.61328.96875,1.34741,1.34741,0,0,1-.61328,1.082,2.91735,2.91735,0,0,1-1.46973.56543,2.60657,2.60657,0,0,1-1.501-.291,1.10386,1.10386,0,0,1-.61328-.96875,1.36541,1.36541,0,0,1,.61328-1.06543A2.93741,2.93741,0,0,1,553.27734,325.34277Z" transform="translate(-99.75 -106.11842)" style="fill:#fff"/>
</svg>