<svg xmlns="http://www.w3.org/2000/svg" viewBox="0 0 4696.99951 504.65887">
    <path d="M1759.16541,2327.9101h0l-.166.09063-.29541-.05884c.15185-.01059.306-.02117.46143-.03179m-670.97474-14.12031c.00013-3.94836,0-19.89987,0-19.89987s12.04894-.35954-117.907-4.75491c-145.93182-4.93637-289.896-9.87372-381.44684-9.87378q-12.60068,0-23.83734.12851c-57.32962.6669-129.78155.88925-200.88833.88925-87.42194,0-172.811-.33587-225.65191-.59482q.7693.8319,1.53713,1.66874c16.5446,18.02993,32.71255,37.84295,60.00284,67.3471,33.98132,36.7366,105.23123,44.17972,178.89038,76.518,8.46,3.71451,16.96475,7.76326,25.4342,12.21454,37.53809,19.73535,74.64426,47.51289,106.753,90.51447h0c42.77326,7.63144,85.54535,16.9318,127.9231,28.05294,34.96295,9.17563,66.38672,16.0844,94.90924,21.17478,7.27838,5.07742,17.52264,5.81185,26.75006,6.06136q7.56144.21009,15.124.41783a677.38509,677.38509,0,0,0,87.66028,5.939c20.41919,0,39.067-1.0322,56.62494-2.63405q37.66764.55965,75.33283.59672,45.87332,0,91.7409-1.12047c33.49756,1.67718,74.52539.39546,108.03589,2.07382,25.0481,1.26052,50.14807,2.51635,75.21631,2.51635,15.397,0,30.78235-.47432,46.137-1.71131,12.21106-.97806,24.58093-2.50576,36.307-5.89895,13.428.15065,27.07727.22716,40.85364.22716,34.75805,0,70.35534-.48374,105.47949-1.47827q17.5221-.4961,34.82873-1.16284c24.9552-.96276,49.59729-1.34292,73.77222-1.34292,36.77771,0,72.47742.88155,106.56946,1.94081q1.13689.03531,2.2727.07062,11.68013.36722,23.09668.74973c41.58814,1.38058,80.45972,2.76116,115.55909,2.76116,34.12023,0,64.67541-1.3029,90.72985-5.181,137.86744-20.52038,305.80127-67.28589,479.34839-86.022,24.8833-2.68465,49.8667-4.79378,74.91138-6.16728q31.34363-1.71956,62.73926-1.809c.58032-.00118,1.16284-.00235,1.74316-.00235q36.746,0,74.99024,2.00084c54.55932,2.77528,111.22436,8.26582,169.36279,15.36291,158.949,19.4011,329.00049,50.81428,497.9043,71.63831,77.84912,9.59815,137.23754,12.9266,184.52563,12.9266a874.19748,874.19748,0,0,0,123.23657-8.49768c31.79322-4.25,57.37329-8.49886,85.96656-8.49886q3.1106,0,6.272.06944c12.75244.28012,21.9104.35662,28.71557.35662,4.063,0,7.28663-.02707,9.93848-.05532,2.655-.02707,4.73706-.05413,6.50733-.05413,13.45971,0,9.0603,1.57948,103.83886,16.75291a209.7239,209.7239,0,0,0,33.15991,2.49634c58.34327,0,124.90406-20.53215,193.94483-41.06429,69.03955-20.53216,140.55908-41.06548,208.81006-41.06548,31.666,0,62.63574,4.42186,92.32226,15.31231h0c37.17578-18.49247,70.95215-39.14819,98.333-61.87891,32.48193-26.97014,63.87256-64.84957,92.42822-105.83149,9.15284-13.13525,18.01075-26.58307,26.52344-40.09814-20.59766.83295-44.65283,1.37729-72.34521,1.37729-25.41846,0-53.89795-.45856-85.585-1.5737-178.59278-6.28382-420.1106-32.26332-626.09229-34.78438-75.05095-.919-172.69252-7.90925-249.14215-8.42473-47.32365-.31909-113.74725.01072-158.819,1.45813-89.94313,2.88838-141.74391,7.82626-206.53932,9.46686q-11.29358.28591-23.61987.28143c-79.90527,0-159.70142,8.86228-297.82984,18.195-45.56226,3.07842-151.89331,9.11524-340.883,13.6524C2147.56851,2324.95633,1090.03259,2313.78979,1088.19067,2313.78979Z" transform="translate(0 -2138.34113)" style="fill:#cee8f7"/>
    <path d="M2564.74243,2485.99881c-.58032,0-1.16284.00117-1.74316.00235q-31.37365.04239-62.73926,1.809c-25.04468,1.3735-50.02808,3.48263-74.91138,6.16728-173.54712,18.7361-341.481,65.50161-479.34839,86.022-26.05444,3.8781-56.60962,5.181-90.72985,5.181-35.09937,0-73.97095-1.38058-115.55909-2.76116q-11.41534-.37958-23.09668-.74973-1.13525-.0353-2.2727-.07062c-34.092-1.05926-69.79175-1.94081-106.56946-1.94081-24.17493,0-48.817.38016-73.77222,1.34292q-17.289.66733-34.82873,1.16284c-35.12415.99453-70.72144,1.47827-105.47949,1.47827-13.77637,0-27.42566-.07651-40.85364-.22716-11.72608,3.39319-24.09595,4.92089-36.307,5.89895-15.35461,1.237-30.74,1.71131-46.137,1.71131-25.06824,0-50.16821-1.25583-75.21631-2.51635-33.5105-1.67836-74.53833-.39664-108.03589-2.07382q-45.8593,1.18462-91.7409,1.12047-37.66407,0-75.33283-.59672c-17.55792,1.60185-36.20575,2.63405-56.62494,2.63405a677.38509,677.38509,0,0,1-87.66028-5.939q-7.55969-.20834-15.124-.41783c-9.22742-.24951-19.47168-.98394-26.75006-6.06136-28.52252-5.09038-59.94629-11.99915-94.90924-21.17478-42.37775-11.12114-85.14984-20.4215-127.9231-28.05294,18.19355,24.36434,34.78638,53.62486,48.92408,89.05384,68.22393,0,114.60577,10.16427,150.55731,25.99915H3910.25415a627.06252,627.06252,0,0,1,73.74609-8.001c76.84522-3.751,261.98658-42.54609,400.23755-111.31966-29.68652-10.89045-60.65625-15.31231-92.32226-15.31231-68.251,0-139.77051,20.53332-208.81006,41.06548-69.04077,20.53214-135.60156,41.06429-193.94483,41.06429a209.7239,209.7239,0,0,1-33.15991-2.49634c-94.77856-15.17343-90.37915-16.75291-103.83886-16.75291-1.77027,0-3.8523.02706-6.50733.05413-2.65185.02825-5.87549.05532-9.93848.05532-6.80517,0-15.96313-.0765-28.71557-.35662q-3.16516-.07062-6.272-.06944c-28.59327,0-54.17334,4.24884-85.96656,8.49886a874.19748,874.19748,0,0,1-123.23657,8.49768c-47.28809,0-106.67651-3.32845-184.52563-12.9266-168.90381-20.824-338.95533-52.23721-497.9043-71.63831-58.13843-7.09709-114.80347-12.58763-169.36279-15.36291q-38.20606-1.942-74.99024-2.00084" transform="translate(0 -2138.34113)" style="fill:#a9d2e6"/>
    <path d="M0,2176.2229V2643H710.55823c-35.95154-15.83488-82.33338-25.99915-150.55731-25.99915-14.1377-35.429-30.73053-64.6895-48.92408-89.05384h0c-32.10876-43.00158-69.21493-70.77912-106.753-90.51447-8.46945-4.45128-16.97418-8.5-25.4342-12.21454-73.65915-32.33827-144.90906-39.78139-178.89038-76.518-27.29029-29.50415-43.45824-49.31717-60.00284-67.3471q-.7677-.83665-1.53713-1.66874c-22.383-24.20471-46.10139-45.609-99.45819-83.68353q-1.44768-1.03281-2.95065-2.03616h0Q30.56151,2190.29765,24.35868,2187A196.31,196.31,0,0,0,0,2176.2229" transform="translate(0 -2138.34113)" style="fill:#76a1b7"/>
    <path d="M4696.99951,2138.34113c-17.64892,37.95694-52.02344,108.54428-95.477,177.52966h0c-8.51269,13.51507-17.3706,26.96289-26.52344,40.09814-28.55566,40.98192-59.94629,78.86135-92.42822,105.83149-27.38086,22.73072-61.15723,43.38644-98.333,61.87891h0c-138.251,68.77357-323.39233,107.56868-400.23755,111.31966a627.06252,627.06252,0,0,0-73.74609,8.001h786.74536V2138.34113" transform="translate(0 -2138.34113)" style="fill:#77aac0"/>
    <path d="M673.00037,2406.00061c-13.66956-9.91107-19.34046-16.50049-4.0011-20.99951,13.48791-3.95325,41.59295-6.25226,30.11432-6.25226-2.16907,0-5.75177.08209-11.11365.25061-69.82507,2.20007-72.10059,48.35114-2.99988,50.00116q.63565.01493,1.32849.01483c15.69611,0,52.38031-5.64465,52.67194-9.01459C739.53253,2413.83026,691.29468,2419.26031,673.00037,2406.00061Z" transform="translate(0 -2138.34113)" style="fill:#fff"/>
    <path d="M1267.49939,2343.99976c-19.05286,0-34.5,4.25274-34.5,9.50128,0,5.24493,15.44714,9.49945,34.5,9.49945,19.05469,0,34.5-4.25452,34.5-9.49945C1301.99939,2348.2525,1286.55408,2343.99976,1267.49939,2343.99976Z" transform="translate(0 -2138.34113)" style="fill:#fff"/>
    <ellipse cx="1989.49966" cy="360.15924" rx="34.50003" ry="9.49945" style="fill:#fff"/>
    <path d="M3359.49976,2432.99994c-4.908,0-9.69654.14374-14.30689.41638-5.26807-2.632-15.47-4.41571-27.19238-4.41571-17.12232,0-31.00049,3.80518-31.00049,8.50006,0,2.58374,4.20679,4.899,10.84521,6.45825-3.7561,2.30335-5.84472,4.85584-5.84472,7.542,0,10.21667,30.22046,18.49926,67.49927,18.49926s67.501-8.28259,67.501-18.49926C3427.00073,2441.28253,3396.77856,2432.99994,3359.49976,2432.99994Z" transform="translate(0 -2138.34113)" style="fill:#fff"/>
    <ellipse cx="4064.00024" cy="291.15918" rx="31.00049" ry="8.50006" style="fill:#fff"/>
    <path d="M1931.97986,2438.99976c-12.13989,0-21.979,3.35943-21.979,7.50073,0,4.13946,9.83912,7.50067,21.979,7.50067s4.88-3.36121,4.88-7.50067C1936.85986,2442.35919,1944.11975,2438.99976,1931.97986,2438.99976Z" transform="translate(0 -2138.34113)" style="fill:#fff"/>
    <path d="M3536.98071,2303.00018c-12.14013,0-21.98095,3.35944-21.98095,7.50074,0,4.13946,9.84082,7.4989,21.98095,7.4989,12.1399,0-8.98022-5.85962-8.98022-9.99915C3528.00049,2303.85938,3549.12061,2303.00018,3536.98071,2303.00018Z" transform="translate(0 -2138.34113)" style="fill:#fff"/>
    <path d="M3092.981,2352.00018c-12.1416,0-21.98072,3.35938-21.98072,7.50067,0,4.13953,9.83912,7.49891,21.98072,7.49891,12.13989,0-8.98169-5.85962-8.98169-9.99915C3083.99927,2352.85931,3105.12085,2352.00018,3092.981,2352.00018Z" transform="translate(0 -2138.34113)" style="fill:#fff"/>
    <path d="M2285.98,2372.00024c-12.13989,0-21.97925,3.35944-21.97925,7.50074,0,4.13946,9.83936,7.4989,21.97925,7.4989s-8.98-5.85968-8.98-9.99915C2277,2372.85944,2298.11987,2372.00024,2285.98,2372.00024Z" transform="translate(0 -2138.34113)" style="fill:#fff"/>
    <path d="M584.9798,2476c-12.1399,0-21.97907,3.35944-21.97907,7.50073,0,4.13953,9.84094,7.4989,21.97907,7.4989s-8.98-5.85962-8.98-9.99914C575.99982,2476.85919,597.11792,2476,584.9798,2476Z" transform="translate(0 -2138.34113)" style="fill:#fff"/>
    <path d="M3659.981,2512.00092c-12.1416,0-21.98072,3.35943-21.98072,7.4989s9.83912,7.50073,21.98072,7.50073c12.14013,0-8.98169-5.85968-8.98169-10.001C3650.99927,2512.86011,3672.12109,2512.00092,3659.981,2512.00092Z" transform="translate(0 -2138.34113)" style="fill:#fff"/>
    <path d="M4283.99951,2463.001c0-4.1413,21.11963-5.00049,8.98194-5.00049-12.14209,0-21.981,3.35937-21.981,7.50067,0,4.13953,9.83887,7.499,21.981,7.499C4305.11914,2473.00012,4283.99951,2467.14044,4283.99951,2463.001Z" transform="translate(0 -2138.34113)" style="fill:#fff"/>
</svg>