<svg xmlns="http://www.w3.org/2000/svg" viewBox="0 0 510.17286 171.0011">
    <path d="M2071.8811,738.6123l-.00024.00184,5.04272.01879-5.04248-.02063m7.12305-13.76879-.12427,13.79675,1.14868.00439,6.05-13.7738-7.07446-.02734m56.8064-14.20313-.12085,13.40186-6.99878-.02808-.00025.02808-39.82177-.15943-.24854.56568,54.2395.20849,6.1399-13.96606-13.18921-.05054m16.65625-.67285-.48682,1.108,24.74829.09583.01-1.13477-3.85742-.01538-.00024.02795-20.41382-.08166m-135.97754-1.07837a29.13233,29.13233,0,0,1-4.6897,5.62488,30.0106,30.0106,0,0,1-21.3689,8.93872c-.22021,0-.43969-.00244-.6604-.00733l-2.57177-.00647.0913.614,9.90015.02344.106.00012a42.2261,42.2261,0,0,0,19.01367-4.70886,21.80725,21.80725,0,0,1-.54834-5.321,21.22029,21.22029,0,0,1,.728-5.15747m8.05127-15.60632-1.15113,2.62048a23.71054,23.71054,0,0,1-3.52612,5.6189c-.05322.17859-.1084.35717-.16528.53454a16.84822,16.84822,0,0,1,8.62182-6.54712,13.0609,13.0609,0,0,1-3.77929-2.2268m54.762-2.39795-.11328,12.53894-6.999-.02808-.00025.02808-21.99585-.08814a9.94522,9.94522,0,0,0-6.2832,2.9137,10.57864,10.57864,0,0,0-2.96045,7.445,9.53391,9.53391,0,0,0,2.96924,7.33715,9.99012,9.99012,0,0,0,7.26855,3.1366c.09058,0,.18091-.00122.27173-.00366l3.65234.01453a5.503,5.503,0,0,1-2.78222-2.41407c-1.2312-1.90527-1.18091-4.197.05932-7.03515a17.1621,17.1621,0,0,1,6.03028-7.14124,14.98464,14.98464,0,0,1,8.6709-2.81836l12.75219.04944,12.68872-13.88318-13.229-.05151m-125.12769-1.1565a23.6961,23.6961,0,0,1,.6399,2.86328c1.21386,1.57874,1.31372,3.7876.27124,6.61524l-.00464.694a24.062,24.062,0,0,1-6.26026,16.31177,19.3361,19.3361,0,0,1-14.87133,6.98047c-.06958,0-.13965-.00037-.20923-.0011l-5.82178-.0232q-.483.02418-.97.0243c-.06958,0-.13965-.00037-.20923-.0011l-17.08935-.06824-.25953.59131,31.86841.12219.08985.00024c5.88232,0,11.95044-2.2854,17.87011-6.69384a38.74572,38.74572,0,0,0,6.78833-6.07654l-6.98584-12.59351-4.84668-8.74524m178.37623-5.63318-22.00342,15.90638-8.60645,9.343,14.84693.05982,15.28588-10.99231.0857-9.37854a29.13271,29.13271,0,0,1,.39136-4.93836m-232.14014-5.58227-5.8313,1.023a121.60286,121.60286,0,0,1-19.46973,16.23535l-.25879,29.1571-7.001-.028-.00025.028-138.56115-.554-.23877.54321,152.60974.58594,19.91748-45.34119a19.63283,19.63283,0,0,1-1.16626-1.64941m271.12256-2.30542a44.52606,44.52606,0,0,0-10.76392,14.86792l-1.92261,4.37427,17.18995.06921.84814-1.93274.04517-5.07934a15.39259,15.39259,0,0,0-4.02076-10.85291,12.20072,12.20072,0,0,0-1.376-1.44641m-191.33277-.00769,2.45557,16.60217,3.1936,5.75073,4.48511,8.11988a12.38139,12.38139,0,0,0,2.30566-2.07141,14.53556,14.53556,0,0,0,4.20972-10.53308l.15747-17.8042-16.80713-.06409m183.148-1.11743a12.69013,12.69013,0,0,0-2.73925,2.34692,14.66475,14.66475,0,0,0-1.1128,1.26257l3.313-2.38244.53906-1.227m-113.34887-.55811a7.322,7.322,0,0,0-5.009,11.39551l5.009-11.39551m29.45459-.4718-.00464.5188-6.999-.02808-.00024.02808-16.541-.06629a24.23971,24.23971,0,0,0-4.541,6.79957,16.84473,16.84473,0,0,0-1.70386,7.46435,6.555,6.555,0,0,0,.76148.04456q.12231,0,.24487-.00464l17.52856.07043-.03051-.0614c-.76929-1.36255-.60914-2.98913.28051-5.01135a11.25418,11.25418,0,0,1,4.06031-4.86023,10.51484,10.51484,0,0,1,5.91015-1.85315l26.67066.10217,2.76953-3.03015-28.40576-.11267m55.48559-11.16113-.10034,10.73987-2.90283,3.15112,2.83667.011a29.14338,29.14338,0,0,1,6.66626-9.2644,30.06518,30.06518,0,0,1,5.82177-4.59082l-12.32153-.04675m-113.58789-.44373-.06543,7.34485a20.20872,20.20872,0,0,1,3.86426-4.291,21.66757,21.66757,0,0,1,4.31177-3.02246l-8.1106-.03137m-80.082-.30737a23.59641,23.59641,0,0,0-6.33081,8.16211,25.60047,25.60047,0,0,0-1.16724,3.17688l.40894.00464.09472-.00025a19.094,19.094,0,0,1,14.78174,7.01062l-3.86718-6.978,7.01635.02807-.01538-.02807,2.54346.01013c-.64453-1.73328-.30322-3.99012,1.01367-6.99317a16.24387,16.24387,0,0,1,1.08032-2.17126,12.64952,12.64952,0,0,1,1.91968-2.15515l-17.47827-.06653m263.30249-.24658a41.07865,41.07865,0,0,0-15.4231,3.06958,30.61812,30.61812,0,0,1,8.82886,10.86755q.38488-.02088.771-.02637c3.59131.01258,6.08984,1.51343,7.46118,4.35877,1.49,2.85608,1.33008,6.36291-.45117,10.41076l-4.85718,11.05323-.332,37.36926.99951.004,20.88086-47.53687c3.56958-8.11718,3.61987-15.147.19946-20.84668-3.49975-5.8291-9.53-8.69055-17.92944-8.7229l-.148-.00036m-296.947-85.93726c-12.70557,0-26.69043,6.38721-37.4375,16.07385a37.7418,37.7418,0,0,1-14.4353,45.67762c3.88183,5.99658,11.0083,9.68969,20.60815,9.72753l.14526.00025c20.05835,0,43.44532-15.93286,52.08277-35.58948,8.6709-19.73767-.74951-35.81225-20.81958-35.88952h.00171l-.14551-.00025m-50.93213-.715a36.81171,36.81171,0,0,1,5.519,4.61352,114.38158,114.38158,0,0,1,26.69824-4.48779l-32.21728-.12573m-61.76367-.241-52.2323,118.86084c11.14673,13.1322,28.44519,21.52368,49.3833,22.67834V716.538c.43725.02808.86755.0531,1.30041.07557.23731-.00794.4773-.01685.7146-.02649-35.38891-5.74646-45.94275-35.48-21.4165-72.64759A139.27017,139.27017,0,0,1,1794.73,618.27966a37.92482,37.92482,0,0,1,14.81213-43.22216l-14.61242-.057" transform="translate(-1714.99939 -567.99939)" style="fill:#bbd9e9"/>
    <path d="M1901.94019,708.55725l-.00025.02869,17.21069.07019q.23988.01062.479.0105.42993,0,.85644-.03357l-18.54589-.07581m142.03466-5.25232a9.95,9.95,0,0,0-7.06518,2.94446,10.59537,10.59537,0,0,0-2.96021,7.445,9.54075,9.54075,0,0,0,2.97119,7.33715,9.9896,9.9896,0,0,0,7.26831,3.1366c.09058,0,.18091-.00122.272-.00366l27.54931.10962-.12915,14.33825,5.04248.02063,1.9563.00806v-.00073l.12427-13.79675.00513-.56946-23.897-.09509-3.65234-.01453c-.09082.00244-.18115.00366-.27173.00366a9.99012,9.99012,0,0,1-7.26855-3.1366,9.53391,9.53391,0,0,1-2.96924-7.33715,10.57864,10.57864,0,0,1,2.96045-7.445,9.94522,9.94522,0,0,1,6.2832-2.9137l-5.834-.02331c-.12842-.005-.25708-.00745-.38526-.00745m-168.6853-27.74682-7.01172,1.38647-.42773,47.95581,7.001.028.25879-29.1571.17969-20.21313m168.50073-1.10181a7.32156,7.32156,0,0,0-5.19995,12.22436,6.54856,6.54856,0,0,0,4.83643,2.13282q.12231,0,.24487-.00464l28.64941.115h-.0017l-.12915,14.47192,6.999.02808.11328-12.53894.01782-1.96106-11.12085-.04456-17.52856-.07043q-.12269.00457-.24487.00464a6.5488,6.5488,0,0,1-4.83472-2.13282,7.32193,7.32193,0,0,1,4.40845-12.15637q.17943-.02508.36157-.04162l-6.57105-.02637m-91.59912-.94006.01538.02807,12.78418.051,13.86011,24.95739,5.66895,10.267a12.38909,12.38909,0,0,0,5.81518-2.14709l-4.48511-8.11988-3.1936-5.75073L1971.99,673.59534l-17.25537-.069-2.54346-.01013m210.96948-.41456a12.70092,12.70092,0,0,0-9.55029,4.32764,14.64257,14.64257,0,0,0-4.2312,10.5509l-.05933,7.45936,23.69019.09533-.12915,14.48633,3.85742.01538.1294-14.5144-.83081-.0033-17.18995-.06921-2.52612-.01013.05933-7.45936a14.63948,14.63948,0,0,1,4.22925-10.5509,12.70058,12.70058,0,0,1,6.12841-3.85766,12.20748,12.20748,0,0,0-3.168-.46338q-.20471-.0066-.40918-.0066m-116.49072-13.17224q-.50976-.00018-1.01684.02381l26.92675.10742-.12915,14.48254,6.999.02808.00464-.5188-2.42408-.00964.11646-13.992-30.47681-.12146m37.48023-.356-.00025.028,43.81983.17517-.1294,13.85462-32.90014,35.71337,33.87988.1366-.12915,14.533,6.99878.02808.12085-13.40186.00659-.73938-3.84815-.01538.00391-.41992-15.18481-.06128-14.84693-.05982,8.60645-9.343,21.38916-23.21924,2.90283-3.15112.10034-10.73987.029-3.11475-50.81884-.20312m-103.689-.41516-.00024.028,33.91968.13562-.3,33.68579a29.14053,29.14053,0,0,1-9.28028,21.50635,30.013,30.013,0,0,1-20.25927,8.91821l2.65747.00671,2.57177.00647c.22071.00489.44019.00733.6604.00733a30.0106,30.0106,0,0,0,21.3689-8.93872,29.13233,29.13233,0,0,0,4.6897-5.62488,21.20781,21.20781,0,0,1,2.82178-6.23291q.1875-.30432.387-.59949c.05688-.17737.11206-.356.16528-.53454a29.13526,29.13526,0,0,0,1.21655-8.51453l.03687-4.135a19.779,19.779,0,0,1-2.56592-10.02527,16.44138,16.44138,0,0,1,2.73584-9.05493l.06543-7.34485.02783-3.12573-40.9187-.16357m-73.251-.293-.01978.028,10.52954.04211a7.5064,7.5064,0,0,0-.99951,2.24683,13.2471,13.2471,0,0,0-.14014,2.26294c-.01977,3.23.63989,5.63318,2.12989,7.46118,1.501,1.70032,3.83032,2.547,6.86987,2.55957l1.59961.01795.095-.00025a19.0967,19.0967,0,0,1,14.8562,7.1001,23.7334,23.7334,0,0,1,5.96924,16.35669l-.01978,2.96045a24.04475,24.04475,0,0,1-6.2605,16.31177,19.33276,19.33276,0,0,1-13.90112,6.95617l5.82178.0232c.06958.00073.13965.0011.20923.0011a19.3361,19.3361,0,0,0,14.87133-6.98047,24.062,24.062,0,0,0,6.26026-16.31177l.00464-.694.01513-2.26648a23.68394,23.68394,0,0,0-.92627-7.212l-5.11743-9.23413a19.094,19.094,0,0,0-14.78174-7.01062l-.09472.00025-.40894-.00464-1.19092-.01331c-3.04126-.01257-5.3706-.85925-6.86987-2.55957-1.49-1.828-2.15137-4.2312-2.12988-7.46118a13.24609,13.24609,0,0,1,.14014-2.26294,7.46336,7.46336,0,0,1,.99951-2.24683l-17.51074-.07006m262.6018-.26612a30.02778,30.02778,0,0,0-3.17065.16785,30.50313,30.50313,0,0,1,27.36987,30.37964c0,.097,0,.19421-.00171.29126l-.43848,49.53381,6.999.02869v-.004l.332-37.36926.1084-12.18921c0-.097.00171-.19422.00171-.29126a30.49694,30.49694,0,0,0-30.46289-30.53845c-.24634-.006-.49146-.009-.73731-.009m-333.32226-89.59887q-1.77393,0-3.50586.17053c18.54541,1.80115,33.08545,17.82483,32.91577,37.25232-.1687,19.28784-14.82837,35.13867-33.27124,36.93652q1.65417.1615,3.35107.1698l.146.00037a36.02745,36.02745,0,0,0,19.6272-5.822,37.7418,37.7418,0,0,0,14.4353-45.67762,37.23356,37.23356,0,0,0-7.97559-12.17529,36.81171,36.81171,0,0,0-5.519-4.61352,35.74343,35.74343,0,0,0-20.0542-6.239v-.00183c-.04907-.00024-.10034-.00024-.14941-.00024m-113.11072-1.001-.00025.02844,87.14185.35266c-40.241,1.67347-78.22986,32.25867-86.73,71.49854q-.68592,3.113-1.09985,6.1543l-.1554,17.626c3.76538,29.72107,28.27783,50.99072,62.54431,52.88037V716.538q2.514.13056,5.03247.13037,1.63549,0,3.26892-.0548c-.43286-.02247-.86316-.04749-1.30041-.07557v.00171c-20.93811-1.15466-38.23657-9.54614-49.3833-22.67834-11.67053-13.749-16.598-32.69495-11.90747-53.9823,8.50012-39.23987,46.49072-69.82507,86.73-71.49854l-94.14087-.3811" transform="translate(-1714.99939 -567.99939)" style="fill:#a6bd60"/>
    <path d="M2039.67065,659.92944a21.69245,21.69245,0,0,0-14.51977,5.572,20.20872,20.20872,0,0,0-3.86426,4.291,16.44138,16.44138,0,0,0-2.73584,9.05493,19.779,19.779,0,0,0,2.56592,10.02527q.11463.20288.23437.40344a13.06161,13.06161,0,0,0,6.96875,6.23352,16.84822,16.84822,0,0,0-8.62182,6.54712q-.19922.29517-.387.59949a21.22568,21.22568,0,0,0-3.54981,11.39038,21.8237,21.8237,0,0,0,8.37964,17.63477,27.098,27.098,0,0,0,17.99927,6.84228c.13623,0,.27343-.001.40991-.00305l29.33057.12036.00024-.02685.00024-.00184.12915-14.33825-27.54931-.10962c-.09107.00244-.1814.00366-.272.00366a9.9896,9.9896,0,0,1-7.26831-3.1366,9.54075,9.54075,0,0,1-2.97119-7.33715,10.59537,10.59537,0,0,1,2.96021-7.445,9.95,9.95,0,0,1,7.06518-2.94446c.12818,0,.25684.00244.38526.00745l5.834.02331,21.99585.08814.00025-.02808.12915-14.47192h.0017l-28.64941-.115q-.12269.00457-.24487.00464a6.54856,6.54856,0,0,1-4.83643-2.13282,7.32156,7.32156,0,0,1,5.19995-12.22436l6.57105.02637,5.54809.02233,16.541.06629.00024-.02808.12915-14.48254-26.92675-.10742-5.98243-.02381m37.48023-.356-.00415.47741-.11646,13.992,2.42408.00964,28.40576.11267-2.76953,3.03015-12.55909,13.74109-12.68872,13.88318-5.363,5.86768-.11866,13.13745,14.50782.0581,39.82177.15943.00025-.02808.12915-14.533-33.87988-.1366,32.90014-35.71337.1294-13.85462-43.81983-.17517-6.999-.028m-103.69067-.41516-.1294,14.49987,23.69922.09534-.02222,2.51038-.15747,17.8042a14.53556,14.53556,0,0,1-4.20972,10.53308,12.39047,12.39047,0,0,1-8.12084,4.2185l-5.66895-10.267-13.86011-24.95739-12.78418-.051-7.01635-.02807,3.86718,6.978,5.11743,9.23413,4.84668,8.74524,6.98584,12.59351,6.85254,12.35315,9.91114.02514c.2207.00489.44018.00733.66064.00733q.55591,0,1.10938-.02051a30.013,30.013,0,0,0,20.25927-8.91821,29.14053,29.14053,0,0,0,9.28028-21.50635l.3-33.68579-33.91968-.13562-7.00073-.028m-43.469,39.38061.00879-.40137q-.00183.20251-.00879.40137m-29.78027-39.67358a15.04593,15.04593,0,0,0-2.82007,8.509,19.57668,19.57668,0,0,0,5.759,14.55383,23.87757,23.87757,0,0,0,14.7605,6.025l1.41992.01257q.20617-.0077.41138-.00769a10.86237,10.86237,0,0,1,7.01929,2.57092c2.16821,1.83765,3.25732,4.51734,3.23,8.01917a9.78257,9.78257,0,0,1-3.37012,7.60229,10.97744,10.97744,0,0,1-6.13477,2.48255q-.42627.03332-.85644.03357-.23915,0-.479-.0105l-17.21069-.07019-6.999-.02869-.13111,14.5072,14.84034.05933,17.08935.06824c.06958.00073.13965.0011.20923.0011q.48669,0,.97-.0243a19.33276,19.33276,0,0,0,13.90112-6.95617,24.04475,24.04475,0,0,0,6.2605-16.31177l.01978-2.96045a23.7334,23.7334,0,0,0-5.96924-16.35669,19.0967,19.0967,0,0,0-14.8562-7.1001l-.095.00025-1.59961-.01795c-3.03955-.01257-5.3689-.85925-6.86987-2.55957-1.49-1.828-2.14966-4.2312-2.12989-7.46118a13.2471,13.2471,0,0,1,.14014-2.26294,7.5064,7.5064,0,0,1,.99951-2.24683l-10.52954-.04211-6.97949-.028m262.6018-.26612a30.05117,30.05117,0,0,0-21.373,8.92969,29.15278,29.15278,0,0,0-9.28,21.50464l-.0857,9.37854-.10107,11.05359-.00391.41992,3.84815.01538,16.64966.06653,20.41382.08166.00024-.02795.12915-14.48633-23.69019-.09533.05933-7.45936a14.64257,14.64257,0,0,1,4.2312-10.5509,12.70092,12.70092,0,0,1,9.55029-4.32764q.20436,0,.40918.0066a12.21358,12.21358,0,0,1,9.3396,4.54565,15.39259,15.39259,0,0,1,4.02076,10.85291l-.04517,5.07934-.01733,1.936-.1294,14.5144-.01,1.13477-.24731,27.759,17.08984.07007.00024-.02869.43848-49.53381c.00171-.097.00171-.19422.00171-.29126a30.50313,30.50313,0,0,0-27.36987-30.37964,30.86,30.86,0,0,0-3.09131-.15881c-.24634-.006-.49146-.009-.73731-.009m-333.322-89.59887a35.85344,35.85344,0,0,0-19.94861,6.05713A37.92482,37.92482,0,0,0,1794.73,618.27966a36.36007,36.36007,0,0,0,34.25049,25.24988l.146.00037q1.77027,0,3.502-.17017c18.44287-1.79785,33.10254-17.64868,33.27124-36.93652.16968-19.42749-14.37036-35.45117-32.91577-37.25232q-1.65125-.16041-3.344-.16846v-.00183c-.04907-.00024-.1001-.00024-.14917-.00024m-113.11084-1.001-1.38049,156.31787,14.28931.05713,138.56115.554.00025-.028.42773-47.95581.01245-1.38647c-16.17895,25.68359-45.06958,39.84216-74.19458,41.02893-.2373.00964-.47729.01855-.7146.02649q-1.63585.05474-3.26892.0548-2.52081,0-5.03247-.13037v.00171c-34.26648-1.88965-58.77893-23.1593-62.54431-52.88037a67.42609,67.42609,0,0,1,.1554-17.626q.41565-3.0423,1.09985-6.1543c8.50012-39.23987,46.489-69.82507,86.73-71.49854l-87.14185-.35266-6.9989-.02844" transform="translate(-1714.99939 -567.99939)" style="fill:#76893d"/>
</svg>