<svg xmlns="http://www.w3.org/2000/svg" viewBox="0 0 741.65079 741.65079">
    <g>
        <circle cx="370.82539" cy="370.82539" r="370.82539" style="fill:#ffd968"/>
        <path d="M3700.32322,631.84419a38.02044,38.02044,0,0,1,21.54072,69.35905,38.01638,38.01638,0,0,0-47.40341-59.19376A37.74657,37.74657,0,0,1,3700.32322,631.84419Z" transform="translate(-3069.31498 -161.89)" style="fill:#c6a448"/>
        <path d="M3734.03462,523.1379a34.35485,34.35485,0,0,1-8.644,22.8546,34.5044,34.5044,0,0,0-55.7016-40.24623,34.52924,34.52924,0,0,1,64.34555,17.39163Z" transform="translate(-3069.31498 -161.89)" style="fill:#c6a448"/>
        <path d="M3730.19671,528.46257a27.5108,27.5108,0,0,1-30.7033,29.21655,32.07771,32.07771,0,1,1-3.80334-63.75777A34.522,34.522,0,0,1,3730.19671,528.46257Z" transform="translate(-3069.31498 -161.89)" style="fill:#dfb54a"/>
        <path d="M3696.00125,635.30177a38.02054,38.02054,0,0,1,25.86269,65.90147,37.53283,37.53283,0,0,1-21.54072,6.7077,38.02053,38.02053,0,0,1-25.86269-65.90146A37.53289,37.53289,0,0,1,3696.00125,635.30177Z" transform="translate(-3069.31498 -161.89)" style="fill:#dfb54a"/>
        <path d="M3674.97917,328.71821a16.13588,16.13588,0,0,1,16.11232,16.14689,15.82634,15.82634,0,0,1-4.39113,10.99511,15.541,15.541,0,0,0,1.21015-6.08534,16.13588,16.13588,0,0,0-16.14689-16.11232,15.91563,15.91563,0,0,0-11.7212,5.11721A16.0725,16.0725,0,0,1,3674.97917,328.71821Z" transform="translate(-3069.31498 -161.89)" style="fill:#c6a448"/>
        <path d="M3687.91051,349.77487a15.541,15.541,0,0,1-1.21015,6.08534,15.91563,15.91563,0,0,1-11.72119,5.11721,16.13588,16.13588,0,0,1-16.1469-16.11232,15.541,15.541,0,0,1,1.21015-6.08534,15.91563,15.91563,0,0,1,11.7212-5.11721A16.13588,16.13588,0,0,1,3687.91051,349.77487Z" transform="translate(-3069.31498 -161.89)" style="fill:#dfb54a"/>
        <path d="M3536.29566,234.188a28.59192,28.59192,0,0,1,20.78,48.23323,28.57226,28.57226,0,0,0-46.88478-31.25652A28.54762,28.54762,0,0,1,3536.29566,234.188Z" transform="translate(-3069.31498 -161.89)" style="fill:#c6a448"/>
        <path d="M3559.56517,270.76918a28.50668,28.50668,0,0,1-2.48946,11.652,28.5921,28.5921,0,0,1-49.37424-19.639,28.22362,28.22362,0,0,1,2.48946-11.61747,28.56932,28.56932,0,0,1,49.37424,19.60448Z" transform="translate(-3069.31498 -161.89)" style="fill:#dfb54a"/>
        <path d="M3522.49991,560.61806a22.77231,22.77231,0,0,1,16.631,38.37913,22.58584,22.58584,0,0,0,1.93625-9.19716,22.7961,22.7961,0,0,0-39.38183-15.66284A22.75832,22.75832,0,0,1,3522.49991,560.61806Z" transform="translate(-3069.31498 -161.89)" style="fill:#c6a448"/>
        <path d="M3541.06712,589.8a22.58584,22.58584,0,0,1-1.93625,9.19716,22.79751,22.79751,0,0,1-39.4164-15.59368,22.49348,22.49348,0,0,1,1.97082-9.26632A22.7961,22.7961,0,0,1,3541.06712,589.8Z" transform="translate(-3069.31498 -161.89)" style="fill:#dfb54a"/>
        <path d="M3465.00037,767.20843a34.22259,34.22259,0,0,1,19.4316,62.37473,34.227,34.227,0,0,0-42.77026-53.21215A34.2316,34.2316,0,0,1,3465.00037,767.20843Z" transform="translate(-3069.31498 -161.89)" style="fill:#c6a448"/>
        <path d="M3461.0933,770.32025a28.6898,28.6898,0,1,1-19.43159,6.05076A34.21951,34.21951,0,0,1,3461.0933,770.32025Z" transform="translate(-3069.31498 -161.89)" style="fill:#dfb54a"/>
        <path d="M3466.5217,872.42257A361.27433,361.27433,0,0,0,3689.88133,795.526a361.42563,361.42563,0,0,1-248.46165,98.50644c-200.263,0-362.59636-162.33335-362.59636-362.63093,0-116.00179,54.49145-219.27968,139.23673-285.69978a361.53932,361.53932,0,0,0-114.16928,264.12449C3103.89077,710.08922,3266.22413,872.42257,3466.5217,872.42257Z" transform="translate(-3069.31498 -161.89)" style="fill:#dfb54a"/>
        <path d="M3479.90254,403.7131a47.23007,47.23007,0,0,1-11.75577,31.32567,47.62578,47.62578,0,0,0-77.1386-55.183,47.66244,47.66244,0,0,1,88.89437,23.85729Z" transform="translate(-3069.31498 -161.89)" style="fill:#c6a448"/>
        <path d="M3474.61244,411.04317a47.45753,47.45753,0,0,1-6.46567,23.9956,47.64549,47.64549,0,0,1-77.1386-55.183,47.60351,47.60351,0,0,1,83.60427,31.18736Z" transform="translate(-3069.31498 -161.89)" style="fill:#dfb54a"/>
        <path d="M3430.632,581.74387a36.78518,36.78518,0,0,1-9.26631,24.47966,36.531,36.531,0,0,0,5.15179-18.80923,36.97454,36.97454,0,0,0-64.795-24.37594,36.99265,36.99265,0,0,1,68.90956,18.70551Z" transform="translate(-3069.31498 -161.89)" style="fill:#c6a448"/>
        <path d="M3426.51751,587.4143A29.47491,29.47491,0,0,1,3393.63593,618.74a34.2314,34.2314,0,1,1,32.88158-31.32567Z" transform="translate(-3069.31498 -161.89)" style="fill:#dfb54a"/>
        <path d="M3362.656,211.0222a16.10633,16.10633,0,0,1,16.11232,16.11232,15.91067,15.91067,0,0,1-4.39113,11.02968,15.4166,15.4166,0,0,0,1.21015-6.08534,16.14322,16.14322,0,0,0-16.14689-16.14689,15.91563,15.91563,0,0,0-11.7212,5.11721A16.09362,16.09362,0,0,1,3362.656,211.0222Z" transform="translate(-3069.31498 -161.89)" style="fill:#c6a448"/>
        <path d="M3375.58736,232.07886a15.4166,15.4166,0,0,1-1.21015,6.08534,15.88575,15.88575,0,0,1-11.72119,5.08264,16.11375,16.11375,0,0,1-16.1469-16.11232,15.541,15.541,0,0,1,1.21015-6.08534,15.91563,15.91563,0,0,1,11.7212-5.11721A16.14322,16.14322,0,0,1,3375.58736,232.07886Z" transform="translate(-3069.31498 -161.89)" style="fill:#dfb54a"/>
        <path d="M3239.28958,601.27919a67.82114,67.82114,0,0,1,48.02578,115.656,67.77184,67.77184,0,0,0-101.82571-89.13639A67.71183,67.71183,0,0,1,3239.28958,601.27919Z" transform="translate(-3069.31498 -161.89)" style="fill:#c6a448"/>
        <path d="M3301.66432,675.23682a67.486,67.486,0,0,1-14.349,41.6984q0,.05187-.10373.10373a67.74567,67.74567,0,1,1,14.45269-41.80213Z" transform="translate(-3069.31498 -161.89)" style="fill:#dfb54a"/>
        <path d="M3292.32885,442.74918a34.39791,34.39791,0,0,1-8.57479,22.78544,34.52135,34.52135,0,0,0-55.83991-40.10792,34.54757,34.54757,0,0,1,64.4147,17.32248Z" transform="translate(-3069.31498 -161.89)" style="fill:#c6a448"/>
        <path d="M3288.49094,448.07385a34.38454,34.38454,0,0,1-4.73688,17.46077,34.5378,34.5378,0,0,1-55.83991-40.10792,34.51024,34.51024,0,0,1,60.57679,22.64715Z" transform="translate(-3069.31498 -161.89)" style="fill:#dfb54a"/>
        <path d="M3229.47006,301.43791a19.63669,19.63669,0,0,1,14.17607,33.22733,18.73038,18.73038,0,0,0,1.798-8.09073A19.61621,19.61621,0,0,0,3211.5598,313.09,19.56459,19.56459,0,0,1,3229.47006,301.43791Z" transform="translate(-3069.31498 -161.89)" style="fill:#c6a448"/>
        <path d="M3245.44408,326.57451a18.73038,18.73038,0,0,1-1.798,8.09073A19.63683,19.63683,0,0,1,3209.831,321.077a19.25414,19.25414,0,0,1,1.72879-7.987,19.61621,19.61621,0,0,1,33.88428,13.48456Z" transform="translate(-3069.31498 -161.89)" style="fill:#dfb54a"/>
        <path d="M3161.909,609.16247a13.61534,13.61534,0,0,1-.17288,2.07455,13.94158,13.94158,0,0,1-25.48236-7.81413,13.61544,13.61544,0,0,1,.17288-2.07455,13.94158,13.94158,0,0,1,25.48236,7.81413Z" transform="translate(-3069.31498 -161.89)" style="fill:#dfb54a"/>
        <path d="M3161.73608,611.237a13.61534,13.61534,0,0,0,.17288-2.07455,13.94158,13.94158,0,0,0-25.48236-7.81413,13.94318,13.94318,0,0,1,27.72978,2.07455A13.7612,13.7612,0,0,1,3161.73608,611.237Z" transform="translate(-3069.31498 -161.89)" style="fill:#c6a448"/>
        <path d="M3146.48815,379.82123a19.61437,19.61437,0,0,1,14.24523,33.12361,19.41439,19.41439,0,0,0,1.72879-8.02158,19.6162,19.6162,0,0,0-33.88428-13.45A19.56461,19.56461,0,0,1,3146.48815,379.82123Z" transform="translate(-3069.31498 -161.89)" style="fill:#c6a448"/>
        <path d="M3162.46217,404.92326a19.41439,19.41439,0,0,1-1.72879,8.02158,19.6391,19.6391,0,0,1-33.88428-13.48456,19.25437,19.25437,0,0,1,1.72879-7.987,19.6162,19.6162,0,0,1,33.88428,13.45Z" transform="translate(-3069.31498 -161.89)" style="fill:#dfb54a"/>
    </g>
</svg>