<svg xmlns="http://www.w3.org/2000/svg" viewBox="0 0 741.65079 741.65079">
    <g>
        <path d="M3810.96577,532.71539a369.23817,369.23817,0,0,1-58.91716,200.67791,367.03355,367.03355,0,0,1-62.16728,62.1327,361.53934,361.53934,0,0,0,114.16928-264.12449c0-200.263-162.33336-362.59635-362.63093-362.59635a361.27433,361.27433,0,0,0-223.35963,76.89657,361.575,361.575,0,0,1,67.11161-49.92745A369.08085,369.08085,0,0,1,3440.14037,161.89C3644.9328,161.89,3810.96577,327.923,3810.96577,532.71539Z" transform="translate(-3069.31498 -161.89)" style="fill:#ffd968"/>
        <path d="M3689.88133,795.526a367.03355,367.03355,0,0,0,62.16728-62.1327c-66.03976,102.34435-181.03886,170.14749-311.90824,170.14749-204.79243,0-370.82539-166.033-370.82539-370.8254,0-149.47116,88.44488-278.30056,215.85668-336.94111a361.575,361.575,0,0,0-67.11161,49.92745c-84.74528,66.4201-139.23673,169.698-139.23673,285.69978,0,200.29758,162.33336,362.63093,362.59636,362.63093A361.42563,361.42563,0,0,0,3689.88133,795.526Z" transform="translate(-3069.31498 -161.89)" style="fill:#ffd968"/>
        <path d="M3700.32322,631.84419a38.02044,38.02044,0,0,1,21.54072,69.35905,38.01638,38.01638,0,0,0-47.40341-59.19376A37.74657,37.74657,0,0,1,3700.32322,631.84419Z" transform="translate(-3069.31498 -161.89)" style="fill:#c6a448"/>
        <path d="M3734.03462,523.1379a34.35485,34.35485,0,0,1-8.644,22.8546,34.5044,34.5044,0,0,0-55.7016-40.24623,34.52924,34.52924,0,0,1,64.34555,17.39163Z" transform="translate(-3069.31498 -161.89)" style="fill:#c6a448"/>
        <path d="M3730.19671,528.46257a27.5108,27.5108,0,0,1-30.7033,29.21655,32.07771,32.07771,0,1,1-3.80334-63.75777A34.522,34.522,0,0,1,3730.19671,528.46257Z" transform="translate(-3069.31498 -161.89)" style="fill:#dfb54a"/>
        <path d="M3699.49341,557.67912a34.44342,34.44342,0,0,0,25.89726-11.68662,34.50978,34.50978,0,1,1-55.7016-40.24623,34.48865,34.48865,0,0,0,29.80434,51.93285Z" transform="translate(-3069.31498 -161.89)" style="fill:#ffd968"/>
        <path d="M3696.00125,635.30177a38.02054,38.02054,0,0,1,25.86269,65.90147,37.53283,37.53283,0,0,1-21.54072,6.7077,38.02053,38.02053,0,0,1-25.86269-65.90146A37.53289,37.53289,0,0,1,3696.00125,635.30177Z" transform="translate(-3069.31498 -161.89)" style="fill:#dfb54a"/>
        <path d="M3441.41968,168.80516c200.29757,0,362.63093,162.33335,362.63093,362.59635A361.53934,361.53934,0,0,1,3689.88133,795.526a361.27433,361.27433,0,0,1-223.35963,76.89657c-200.29757,0-362.63093-162.33335-362.63093-362.59635a361.53932,361.53932,0,0,1,114.16928-264.12449A361.27433,361.27433,0,0,1,3441.41968,168.80516ZM3738.3566,669.87757a45.39169,45.39169,0,1,0-16.49266,31.32567A38.01185,38.01185,0,0,0,3738.3566,669.87757ZM3725.39067,545.9925a34.51489,34.51489,0,1,0-29.7006,16.97671A34.41092,34.41092,0,0,0,3725.39067,545.9925Zm-34.29918-201.1274a16.11457,16.11457,0,0,0-31.04907-6.08534,15.82636,15.82636,0,0,0-4.39112,10.99511,16.11456,16.11456,0,0,0,31.04906,6.08534A15.82634,15.82634,0,0,0,3691.09149,344.8651Zm-126.20165-82.08293a28.5802,28.5802,0,0,0-54.69891-11.61747,28.57959,28.57959,0,1,0,46.88478,31.25652A28.49275,28.49275,0,0,0,3564.88984,262.78217Zm-19.5699,320.62134a22.80549,22.80549,0,0,0-43.63465-9.26632,22.80238,22.80238,0,1,0,37.44558,24.86A22.71023,22.71023,0,0,0,3545.31994,583.40351Zm-46.12411,218.035a40.73491,40.73491,0,1,0-14.76386,28.14469A34.21214,34.21214,0,0,0,3499.19583,801.43847Zm-31.04906-366.3997a47.6406,47.6406,0,1,0-77.1386-55.183,47.62627,47.62627,0,1,0,77.1386,55.183Zm-46.78105,171.18476A36.96546,36.96546,0,1,0,3389.556,624.4104,36.78518,36.78518,0,0,0,3421.36572,606.22353Zm-42.59738-379.089a16.123,16.123,0,0,0-31.04907-6.08534,15.91071,15.91071,0,0,0-4.39112,11.02968,16.123,16.123,0,0,0,31.04906,6.08534A15.91067,15.91067,0,0,0,3378.76834,227.13452Zm-71.7102,441.94781a78.46357,78.46357,0,1,0-19.84651,47.95662q.10374-.05186.10373-.10373A67.585,67.585,0,0,0,3307.05814,669.08233Zm-23.30408-203.54771a34.53624,34.53624,0,1,0-55.83991-40.10792,34.52187,34.52187,0,1,0,55.83991,40.10792Zm-34.645-144.45766a19.62007,19.62007,0,0,0-37.54931-7.987,19.6099,19.6099,0,1,0,32.08633,21.57529A19.51291,19.51291,0,0,0,3249.10911,321.077Zm-87.373,290.16006a13.7612,13.7612,0,0,0,2.4203-7.81413,13.94318,13.94318,0,0,0-27.72978-2.07455,13.76118,13.76118,0,0,0-2.42031,7.81413,13.94318,13.94318,0,0,0,27.72979,2.07455Zm4.39112-211.77674a19.62007,19.62007,0,0,0-37.54931-7.987,19.61169,19.61169,0,1,0,32.15549,21.47157A19.636,19.636,0,0,0,3166.1272,399.46028Z" transform="translate(-3069.31498 -161.89)" style="fill:#ffd968"/>
        <path d="M3700.32322,707.91094a37.53283,37.53283,0,0,0,21.54072-6.7077,38.01983,38.01983,0,1,1-47.40341-59.19376,38.02053,38.02053,0,0,0,25.86269,65.90146Z" transform="translate(-3069.31498 -161.89)" style="fill:#ffd968"/>
        <path d="M3674.97917,328.71821a16.13588,16.13588,0,0,1,16.11232,16.14689,15.82634,15.82634,0,0,1-4.39113,10.99511,15.541,15.541,0,0,0,1.21015-6.08534,16.13588,16.13588,0,0,0-16.14689-16.11232,15.91563,15.91563,0,0,0-11.7212,5.11721A16.0725,16.0725,0,0,1,3674.97917,328.71821Z" transform="translate(-3069.31498 -161.89)" style="fill:#c6a448"/>
        <path d="M3687.91051,349.77487a15.541,15.541,0,0,1-1.21015,6.08534,15.91563,15.91563,0,0,1-11.72119,5.11721,16.13588,16.13588,0,0,1-16.1469-16.11232,15.541,15.541,0,0,1,1.21015-6.08534,15.91563,15.91563,0,0,1,11.7212-5.11721A16.13588,16.13588,0,0,1,3687.91051,349.77487Z" transform="translate(-3069.31498 -161.89)" style="fill:#dfb54a"/>
        <path d="M3674.97917,360.97742a15.91563,15.91563,0,0,0,11.72119-5.11721,16.11456,16.11456,0,0,1-31.04906-6.08534,15.82636,15.82636,0,0,1,4.39112-10.99511,15.541,15.541,0,0,0-1.21015,6.08534A16.13588,16.13588,0,0,0,3674.97917,360.97742Z" transform="translate(-3069.31498 -161.89)" style="fill:#ffd968"/>
        <path d="M3536.29566,234.188a28.59192,28.59192,0,0,1,20.78,48.23323,28.57226,28.57226,0,0,0-46.88478-31.25652A28.54762,28.54762,0,0,1,3536.29566,234.188Z" transform="translate(-3069.31498 -161.89)" style="fill:#c6a448"/>
        <path d="M3559.56517,270.76918a28.50668,28.50668,0,0,1-2.48946,11.652,28.5921,28.5921,0,0,1-49.37424-19.639,28.22362,28.22362,0,0,1,2.48946-11.61747,28.56932,28.56932,0,0,1,49.37424,19.60448Z" transform="translate(-3069.31498 -161.89)" style="fill:#dfb54a"/>
        <path d="M3536.29566,291.37635a28.57317,28.57317,0,0,0,20.78-8.95513,28.58341,28.58341,0,1,1-46.88478-31.25652,28.22362,28.22362,0,0,0-2.48946,11.61747A28.627,28.627,0,0,0,3536.29566,291.37635Z" transform="translate(-3069.31498 -161.89)" style="fill:#ffd968"/>
        <path d="M3522.49991,560.61806a22.77231,22.77231,0,0,1,16.631,38.37913,22.58584,22.58584,0,0,0,1.93625-9.19716,22.7961,22.7961,0,0,0-39.38183-15.66284A22.75832,22.75832,0,0,1,3522.49991,560.61806Z" transform="translate(-3069.31498 -161.89)" style="fill:#c6a448"/>
        <path d="M3541.06712,589.8a22.58584,22.58584,0,0,1-1.93625,9.19716,22.79751,22.79751,0,0,1-39.4164-15.59368,22.49348,22.49348,0,0,1,1.97082-9.26632A22.7961,22.7961,0,0,1,3541.06712,589.8Z" transform="translate(-3069.31498 -161.89)" style="fill:#dfb54a"/>
        <path d="M3522.49991,606.189a22.72233,22.72233,0,0,0,16.631-7.19177,22.80449,22.80449,0,1,1-37.44558-24.86,22.49348,22.49348,0,0,0-1.97082,9.26632A22.78348,22.78348,0,0,0,3522.49991,606.189Z" transform="translate(-3069.31498 -161.89)" style="fill:#ffd968"/>
        <path d="M3465.00037,767.20843a34.22259,34.22259,0,0,1,19.4316,62.37473,34.227,34.227,0,0,0-42.77026-53.21215A34.2316,34.2316,0,0,1,3465.00037,767.20843Z" transform="translate(-3069.31498 -161.89)" style="fill:#c6a448"/>
        <path d="M3461.0933,770.32025a28.6898,28.6898,0,1,1-19.43159,6.05076A34.21951,34.21951,0,0,1,3461.0933,770.32025Z" transform="translate(-3069.31498 -161.89)" style="fill:#dfb54a"/>
        <path d="M3466.5217,872.42257A361.27433,361.27433,0,0,0,3689.88133,795.526a361.42563,361.42563,0,0,1-248.46165,98.50644c-200.263,0-362.59636-162.33335-362.59636-362.63093,0-116.00179,54.49145-219.27968,139.23673-285.69978a361.53932,361.53932,0,0,0-114.16928,264.12449C3103.89077,710.08922,3266.22413,872.42257,3466.5217,872.42257Z" transform="translate(-3069.31498 -161.89)" style="fill:#dfb54a"/>
        <path d="M3479.90254,403.7131a47.23007,47.23007,0,0,1-11.75577,31.32567,47.62578,47.62578,0,0,0-77.1386-55.183,47.66244,47.66244,0,0,1,88.89437,23.85729Z" transform="translate(-3069.31498 -161.89)" style="fill:#c6a448"/>
        <path d="M3474.61244,411.04317a47.45753,47.45753,0,0,1-6.46567,23.9956,47.64549,47.64549,0,0,1-77.1386-55.183,47.60351,47.60351,0,0,1,83.60427,31.18736Z" transform="translate(-3069.31498 -161.89)" style="fill:#dfb54a"/>
        <path d="M3432.25709,451.35855a47.45462,47.45462,0,0,0,35.88968-16.31978,47.63091,47.63091,0,1,1-77.1386-55.183,47.65463,47.65463,0,0,0,41.24892,71.50274Z" transform="translate(-3069.31498 -161.89)" style="fill:#ffd968"/>
        <path d="M3465.00037,835.63393a34.15424,34.15424,0,0,0,19.4316-6.05077,34.22433,34.22433,0,1,1-42.77026-53.21215,34.22506,34.22506,0,0,0,23.33866,59.26292Z" transform="translate(-3069.31498 -161.89)" style="fill:#ffd968"/>
        <path d="M3430.632,581.74387a36.78518,36.78518,0,0,1-9.26631,24.47966,36.531,36.531,0,0,0,5.15179-18.80923,36.97454,36.97454,0,0,0-64.795-24.37594,36.99265,36.99265,0,0,1,68.90956,18.70551Z" transform="translate(-3069.31498 -161.89)" style="fill:#c6a448"/>
        <path d="M3426.51751,587.4143A29.47491,29.47491,0,0,1,3393.63593,618.74a34.2314,34.2314,0,1,1,32.88158-31.32567Z" transform="translate(-3069.31498 -161.89)" style="fill:#dfb54a"/>
        <path d="M3393.63593,618.74a36.79694,36.79694,0,0,0,27.72979-12.51644,36.97682,36.97682,0,1,1-59.64325-43.18517A36.98882,36.98882,0,0,0,3393.63593,618.74Z" transform="translate(-3069.31498 -161.89)" style="fill:#ffd968"/>
        <path d="M3362.656,211.0222a16.10633,16.10633,0,0,1,16.11232,16.11232,15.91067,15.91067,0,0,1-4.39113,11.02968,15.4166,15.4166,0,0,0,1.21015-6.08534,16.14322,16.14322,0,0,0-16.14689-16.14689,15.91563,15.91563,0,0,0-11.7212,5.11721A16.09362,16.09362,0,0,1,3362.656,211.0222Z" transform="translate(-3069.31498 -161.89)" style="fill:#c6a448"/>
        <path d="M3375.58736,232.07886a15.4166,15.4166,0,0,1-1.21015,6.08534,15.88575,15.88575,0,0,1-11.72119,5.08264,16.11375,16.11375,0,0,1-16.1469-16.11232,15.541,15.541,0,0,1,1.21015-6.08534,15.91563,15.91563,0,0,1,11.7212-5.11721A16.14322,16.14322,0,0,1,3375.58736,232.07886Z" transform="translate(-3069.31498 -161.89)" style="fill:#dfb54a"/>
        <path d="M3362.656,243.24684a15.88575,15.88575,0,0,0,11.72119-5.08264,16.123,16.123,0,0,1-31.04906-6.08534,15.91071,15.91071,0,0,1,4.39112-11.02968,15.541,15.541,0,0,0-1.21015,6.08534A16.11375,16.11375,0,0,0,3362.656,243.24684Z" transform="translate(-3069.31498 -161.89)" style="fill:#ffd968"/>
        <path d="M3239.28958,601.27919a67.82114,67.82114,0,0,1,48.02578,115.656,67.77184,67.77184,0,0,0-101.82571-89.13639A67.71183,67.71183,0,0,1,3239.28958,601.27919Z" transform="translate(-3069.31498 -161.89)" style="fill:#c6a448"/>
        <path d="M3301.66432,675.23682a67.486,67.486,0,0,1-14.349,41.6984q0,.05187-.10373.10373a67.74567,67.74567,0,1,1,14.45269-41.80213Z" transform="translate(-3069.31498 -161.89)" style="fill:#dfb54a"/>
        <path d="M3292.32885,442.74918a34.39791,34.39791,0,0,1-8.57479,22.78544,34.52135,34.52135,0,0,0-55.83991-40.10792,34.54757,34.54757,0,0,1,64.4147,17.32248Z" transform="translate(-3069.31498 -161.89)" style="fill:#c6a448"/>
        <path d="M3288.49094,448.07385a34.38454,34.38454,0,0,1-4.73688,17.46077,34.5378,34.5378,0,0,1-55.83991-40.10792,34.51024,34.51024,0,0,1,60.57679,22.64715Z" transform="translate(-3069.31498 -161.89)" style="fill:#dfb54a"/>
        <path d="M3287.21163,717.039a67.7649,67.7649,0,1,1-101.722-89.24012,67.805,67.805,0,0,0,101.722,89.24012Z" transform="translate(-3069.31498 -161.89)" style="fill:#ffd968"/>
        <path d="M3257.78763,477.29039a34.41211,34.41211,0,0,0,25.96643-11.75577,34.52426,34.52426,0,1,1-55.83991-40.10792,34.16819,34.16819,0,0,0-4.66773,17.32248A34.5515,34.5515,0,0,0,3257.78763,477.29039Z" transform="translate(-3069.31498 -161.89)" style="fill:#ffd968"/>
        <path d="M3229.47006,301.43791a19.63669,19.63669,0,0,1,14.17607,33.22733,18.73038,18.73038,0,0,0,1.798-8.09073A19.61621,19.61621,0,0,0,3211.5598,313.09,19.56459,19.56459,0,0,1,3229.47006,301.43791Z" transform="translate(-3069.31498 -161.89)" style="fill:#c6a448"/>
        <path d="M3245.44408,326.57451a18.73038,18.73038,0,0,1-1.798,8.09073A19.63683,19.63683,0,0,1,3209.831,321.077a19.25414,19.25414,0,0,1,1.72879-7.987,19.61621,19.61621,0,0,1,33.88428,13.48456Z" transform="translate(-3069.31498 -161.89)" style="fill:#dfb54a"/>
        <path d="M3229.47006,340.716a19.54389,19.54389,0,0,0,14.17607-6.05077A19.60853,19.60853,0,1,1,3211.5598,313.09a19.25414,19.25414,0,0,0-1.72879,7.987A19.64781,19.64781,0,0,0,3229.47006,340.716Z" transform="translate(-3069.31498 -161.89)" style="fill:#ffd968"/>
        <path d="M3161.909,609.16247a13.61534,13.61534,0,0,1-.17288,2.07455,13.94158,13.94158,0,0,1-25.48236-7.81413,13.61544,13.61544,0,0,1,.17288-2.07455,13.94158,13.94158,0,0,1,25.48236,7.81413Z" transform="translate(-3069.31498 -161.89)" style="fill:#dfb54a"/>
        <path d="M3161.73608,611.237a13.61534,13.61534,0,0,0,.17288-2.07455,13.94158,13.94158,0,0,0-25.48236-7.81413,13.94318,13.94318,0,0,1,27.72978,2.07455A13.7612,13.7612,0,0,1,3161.73608,611.237Z" transform="translate(-3069.31498 -161.89)" style="fill:#c6a448"/>
        <path d="M3146.48815,379.82123a19.61437,19.61437,0,0,1,14.24523,33.12361,19.41439,19.41439,0,0,0,1.72879-8.02158,19.6162,19.6162,0,0,0-33.88428-13.45A19.56461,19.56461,0,0,1,3146.48815,379.82123Z" transform="translate(-3069.31498 -161.89)" style="fill:#c6a448"/>
        <path d="M3150.22234,617.35694a13.87518,13.87518,0,0,0,11.51374-6.11992,13.94318,13.94318,0,0,1-27.72979-2.07455,13.76118,13.76118,0,0,1,2.42031-7.81413,13.61544,13.61544,0,0,0-.17288,2.07455A13.94459,13.94459,0,0,0,3150.22234,617.35694Z" transform="translate(-3069.31498 -161.89)" style="fill:#ffd968"/>
        <path d="M3162.46217,404.92326a19.41439,19.41439,0,0,1-1.72879,8.02158,19.6391,19.6391,0,0,1-33.88428-13.48456,19.25437,19.25437,0,0,1,1.72879-7.987,19.6162,19.6162,0,0,1,33.88428,13.45Z" transform="translate(-3069.31498 -161.89)" style="fill:#dfb54a"/>
        <path d="M3146.48815,419.06476a19.5682,19.5682,0,0,0,14.24523-6.11992,19.61853,19.61853,0,1,1-32.15549-21.47157,19.25437,19.25437,0,0,0-1.72879,7.987A19.64047,19.64047,0,0,0,3146.48815,419.06476Z" transform="translate(-3069.31498 -161.89)" style="fill:#ffd968"/>
    </g>
</svg>