<svg id="e9599749-c8d6-4042-ae42-850dda12d97f" data-name="ДОМ" xmlns="http://www.w3.org/2000/svg" viewBox="0 0 357.87292 306.80981"><title>roof</title><path d="M1505.58252,738.13l-276.25476,306.80982h21.403l.02967-.02075,54.42492-35.38928,9.65857-6.28,3.21167-2.08875,22.73926-14.78613,3.21948-2.09375,20.56946-13.37488,3.2196-2.09363,23.789-15.46863,3.26794-2.12524,22.68286-14.74963.40491-.2627L1417.95,936l2.82654-1.63342,17.2887-11.2417,3.267-2.12439,6.80933-4.42822,21.85925-14.5719,21.47119-13.97437h0a2.01046,2.01046,0,0,1,1.45862-1.05676l.22022-.03552,39.85022-25.933.43652.10852,16.02844-10.423,3.21765-2.09168,22.68384-14.74963,3.267-2.12524,8.56628-5.57007-.05127-.05628L1505.58252,738.13" transform="translate(-1229.32776 -738.13)" style="fill:#583c31"/></svg>