<svg xmlns="http://www.w3.org/2000/svg" viewBox="0 0 1379.98569 360.01941">
    <path d="M2519.44946,687.56262c-.43457,0-1.07885-.21167-2.9895-.5365,4.33008-2.79858,7.5188-4.75781,10.61035-6.87158,16.31885-11.16565,29.64868-25.538,42.09058-40.62036,7.96973-9.654,17.65991-14.3291,29.769-15.14343q.50208-.03369.978-.0343c3.075,0,5.31372,1.108,6.59277,4.2871,1.31055,3.239,2.98926,6.33777,4.13965,9.62708a8.58125,8.58125,0,0,1,.07007,4.89087c-1.07764,3.79565-4.16748,5.71362-8.0354,5.71362a12.5366,12.5366,0,0,1-1.35449-.07507,6.89925,6.89925,0,0,1-4.80078-2.50562c-.8899-1.15576-2.00953-3.62548-1.08936-5.01489a1.61,1.61,0,0,1,.19946-.25525,1.712,1.712,0,0,1,1.31641-.56921,5.20921,5.20921,0,0,1,.76318.07678,5.24823,5.24823,0,0,0,.78443.07764,2.08367,2.08367,0,0,0,.7561-.13159c1.15942-.444,1.59961-2.2594,1.3894-3.36121-.49023-2.5907-2.09814-3.58655-3.97436-3.58667a9.107,9.107,0,0,0-7.49512,4.93286c-.72973,1.78308-.61108,3.69922-.97949,5.54517a10.27437,10.27437,0,0,1-3.90064,5.9082c-1.8208,1.35339-4.3496,1.22583-6.47973,2.04907-3.88062,1.50086-8.14942,4.32105-9.56055,8.44434-1.33911,3.93274.08106,8.99975,3.99048,10.75952a6.20748,6.20748,0,0,0,4.91943.0719c.96-.49439,2.88135-1.38953,3.47095-2.3457a3.06167,3.06167,0,0,0,.1294-2.62427,2.29085,2.29085,0,0,0-2.26905-1.618,5.98509,5.98509,0,0,0-2.771.87207c-.33081-2.69971,3.49072-4.59058,5.66015-4.80994.0835-.0083.17261-.01245.2666-.01245,1.64771,0,4.76807,1.25976,5.0232,2.962.39013,2.66919.55908,6.63624-1.01,8.0597a24.14018,24.14018,0,0,1-10.91065,5.57214c-18.3103,3.71167-36.71972,6.90039-55.10034,10.2489a1.10312,1.10312,0,0,1-.19922.01709m81.37671-15.52673a11.68471,11.68471,0,0,1-1.59595-.092c3.95972-3.7135,7.03882-6.72962,10.25977-9.58936,10.22925-9.10046,14.02905-20.35241,11.76074-33.817-1.01025-6.007-.53027-6.34852,5.63843-7.17713,2.46973-.33252,4.91968-.93115,7.3606-1.48474a19.58385,19.58385,0,0,1,4.167-.60083c3.23266,0,4.47119,1.8075,5.79248,6.64746,1.46142,5.37256,1.34106,10.213-3.89868,13.29028-2.29151,1.34266-4.39112,2.27552-5.261,5.00049a11.70434,11.70434,0,0,0,.29126,7.09265,6.92049,6.92049,0,0,0,5.08838,4.499,16.46548,16.46548,0,0,0,2.99756.301,6.87156,6.87156,0,0,0,3.70337-.869,3.545,3.545,0,0,0,1.17016-4.63745,2.14477,2.14477,0,0,0-2.19018-1.04626c-.17871,0-.3584.00549-.53662.011-.17456.005-.34742.01014-.51563.01014-.79175,0-1.48291-.1128-1.77783-.87476-.78-2.02209,3.08984-3.34326,4.54028-3.55176a4.7714,4.7714,0,0,1,.69019-.0509c2.30029,0,3.95215,1.73047,5.62964,3.19824,2.87939,2.53076,5.60986,5.13709,8.41015,7.78833-3.09448,4.04114-49.33862,15.95264-61.72412,15.95264m111.5752-22.46179c-20.70362,0-55.106-17.60157-59.56079-33.07947,4.45947-1.07666,8.89917-2.24133,13.38916-3.20484,4.12744-.88854,8.32519-2.318,12.44506-2.31811q.408,0,.8147.01929c4.61035.22278,9.83008,1.20776,13.50049,3.72778,4.04053,2.7771,7.31006,7.30664,9.67017,11.7373,3.88061,7.28858,9.26953,12.98829,15.49023,18.129,1.20972.99927,2.43018,1.98255,3.87012,3.15088a22.10813,22.10813,0,0,1-9.61914,1.83814m390.62695-96.36341c.04761-.01733.09473-.03466.14233-.05224.07666,1.17114.16431,2.21655.24122,3.18676.11425,1.4419.20459,2.71778.19921,3.99219-.01757,2.75171-.959,4.18384-3.27465,4.18384a8.448,8.448,0,0,1-1.82642-.22949v-.002c-3.07007-.68652-6.3396-.43481-9.46-.93457-1.70044-.26953-3.26953-1.24194-4.8999-1.8999.07006-.45654.14917-.91479.23022-1.37329,5.92774-2.18286,11.84717-4.36792,18.648-6.87134m667.01831,10.4314a1.93734,1.93734,0,0,1-.23682-.01367c-4.75952-.57886-9.45092-1.72193-14.16015-2.65308-.05933-.35766-.10962-.71533-.169-1.07471,5.36011-2.43383,10.69849-4.91259,16.08887-7.26538v-.00366a3.455,3.455,0,0,1,2.23071.23926c.19947,2.87939.60034,5.83618.08985,8.62231-.16114.917-2.47388,2.14893-3.84351,2.14893m-324.26636-4.32935v-.00366l-1.29052-.77637c.74072-2.47338.94018-6.61816,2.34033-7.06762a7.62567,7.62567,0,0,1,2.34936-.33057c2.22852,0,4.67676.678,6.9812.90405.09888.61109.21021,1.22413.31983,1.83326q-5.35437,2.72863-10.7002,5.44091m-767.24-1.16113a14.87689,14.87689,0,0,0-3.7998-9.86792c-1.49-1.6897-3.30176-2.5039-4.98071-3.584a12.68568,12.68568,0,0,1-1.47022-1.07862,5.64109,5.64109,0,0,1,1.04956-.0957c1.822,0,3.51538.80151,5.49146.94043q3.71667.36987,7.45556.36987.56727,0,1.13428-.00854c.93311-.0398,1.95044-.21753,2.8894-.21753.07764,0,.15455.001.231.00366.73877.0271.719-.03955.8501.75318a7.57009,7.57009,0,0,1-.31983,2.98022,21.14393,21.14393,0,0,1-.77124,2.85254c-1.08911,2.57373-4.9895,6.30005-7.75952,6.95239m760.67554-20.1499a.514.514,0,0,1-.05542-.00293c-5.509-.595-10.98047-1.53516-16.47-2.36719-.10962-.489-.23-.97973-.34155-1.4685,5.64038-2.5398,11.261-5.13355,16.97143-7.50977a.22022.22022,0,0,1,.08325-.01465,3.46537,3.46537,0,0,1,2.04688,1.95947,24.84738,24.84738,0,0,1,.08984,6.93628v-.00171c-.13672.936-1.57641,2.469-2.32446,2.469M3044.6521,501.63452c1.87524,0,5.10254-1.58862,6.40918-2.15307,1.37866-.60035,2.57934-1.553,3.97949-2.10132,1.03882-.39893,2.41919-.48877,3.30908-1.25269a15.135,15.135,0,0,0-3.15991,4.22388v-.00171c-1.28882,2.34033-2.43017,4.84961-4.43066,6.6001-1.01245.88818-3.18506,2.71264-4.56543,2.71264a1.02975,1.02975,0,0,1-.91333-.46386c-.63086-.94922-.71-3.3003-.97949-4.38941a10.71242,10.71242,0,0,1-.48-3.32886,1.94663,1.94663,0,0,0,.83106.1543m54.04175,37.748c-3.0459,0-3.58838-1.71558-3.39405-6.4563.17066-3.97046-.62915-7.9751-.55908-11.95654.15821-8.77149.52857-17.48.57886-26.25147,0-.67578-.30029-2.32593.31982-2.85083a2.14962,2.14962,0,0,1,1.4104-.3977,21.99813,21.99813,0,0,1,2.95923.43554q.48048.06227.96192.11841h0c1.93457.22754,3.88037.39649,5.81982.60767q7.66516.83057,15.32861,1.64282c10.21119,1.075,20.44043,2.094,30.67139,2.98022,2.87207.24927,5.76026.31348,8.65381.31348,1.55054,0,3.1023-.01855,4.65454-.03662,1.55518-.01855,3.11133-.03687,4.666-.03687q1.30847,0,2.61523.02076c1.91968.03222,3.83032.40063,7.22949.77636-2.52,3.99024-3.87011,7.16822-6.10058,9.49048v-.00171c-8.66919,8.99976-17.05957,18.32666-30.61939,20.426-3.08081.47632-5.86157,3.92749-8.4497,6.36108-5.69971,5.35474-11.17115,10.95533-16.80079,16.38916-.67041.6416-1.75952.84839-3.61987,1.7002a37.22834,37.22834,0,0,1,.03052-5.02735c.96631-6.22583-1.77832-9.99829-6.8938-9.99853a13.34424,13.34424,0,0,0-3.33545.46143c-.9707.25146-1.89087.717-2.86157.90039q-.163.03075-.32105.05932a17.15886,17.15886,0,0,1-2.94433.33057m595.73852-44.78223c3.00586-2.5581,6.43311-3.531,11.47608-3.531.16186,0,.32593.001.49121.00293h0a81.1527,81.1527,0,0,1,8.25049.62817c4.45947.51929,8.92968.94531,14.55029,1.53662a54.57633,54.57633,0,0,1-5.62524,10.96411h0a21.15135,21.15135,0,0,1-4.35645,4.53858,18.87213,18.87213,0,0,1-2.05933,1.36108v-.009c-11.70849,6.6792-23.69018,12.91089-35.56958,19.30078a17.631,17.631,0,0,1-3.24072.69922c2.61157-8.17115,4.97168-15.61792,7.3606-23.05762a5.64126,5.64126,0,0,1,.541-.834c2.99488-5.53467,5.41016-9.24122,8.18164-11.59986M3578.919,497.52588a77.8466,77.8466,0,0,1-32.23047-6.82666v-.002a89.008,89.008,0,0,1,12.04956-.76709,220.12062,220.12062,0,0,1,22.8872,1.59228,220.22072,220.22072,0,0,0,22.86744,1.59131q1.79736,0,3.59643-.06177a104.8505,104.8505,0,0,1-29.17016,4.47388m-141.7754,15.32275c-1.28076,0-2.34838-.1853-2.7229-.758-.41162-.63648.28028-2.761.34864-3.489a28.51,28.51,0,0,0,0-4.98413,46.161,46.161,0,0,0-2.30982-11.82715,65.28542,65.28542,0,0,1-2.18921-6.49951,10.25932,10.25932,0,0,1,6.2605-.07568,61.58058,61.58058,0,0,0,8.62061.8269q9.17762.73865,18.33911,1.51709,6.8833.58229,13.75952,1.1792a49.86814,49.86814,0,0,0,5.85059.523c1.2749-.04492,2.45849-.34277,3.71875-.34277a6.93028,6.93028,0,0,1,.92041.05883,12.32908,12.32908,0,0,0-5.46949,4.42872c-1.20971,1.77587-1.93945,3.49975-3.40088,5.08691.70093.74951,2.7107,1.36426,3.72071,1.83691a9.16105,9.16105,0,0,0,5.75.98316,16.72391,16.72391,0,0,0,6.14013-2.42285c.10059,4.04419-3.2102,8.34716-5.53076,11.39038v-.002a60.72986,60.72986,0,0,1-9.0896,9.53,80.02609,80.02609,0,0,1-22.91015,13.12134,6.56483,6.56483,0,0,1-2.29151.51734c-1.65966,0-2.51635-1.17383-2.3584-3.81031.12037-1.83154.01978-3.67553.01978-5.51269,0-3.31446.97949-9.65943-2.78979-11.45679a7.77066,7.77066,0,0,0-3.33228-.605c-1.03272,0-2.07031.10254-2.99634.16626-1.01855.07056-3.85351.61987-6.05762.61987m205.56226-23.68823c-.15185,0-.30347-.00171-.45654-.00513v-.00561c-11.99951-.26782-23.99024-.67383-35.97925-1.02808l-.14917-.86987c14.80908-1.21509,29.62891-2.42847,45.0293-3.69019-1.87818,4.63941-5.00342,5.59888-8.44434,5.59888m-649.28052-11.08105q6.99024-2.68689,13.98511-5.36719c.35059.365.69922.72973,1.03882,1.09277-.65039,1.60376-1.29443,3.21167-1.9751,4.79395-2.74927,6.39258-6.09766,12.3728-12.904,16.00073-14.74072,7.85669-29.58032,15.52808-44.1792,23.62183-13.25073,7.34448-27.52051,9.64331-42.39063,10.60131a133.77938,133.77938,0,0,0-16.87988,2.25415c-4.65893.89869-10.13037,1.45581-14.331,3.83374-1.729.97974-3.03931,2.50025-4.68946,3.51954a2.65357,2.65357,0,0,1-1.41333.43994c-1.699,0-3.03979-1.88745-5.01611-2.33985a11.15037,11.15037,0,0,0-2.4873-.27295c-4.802-.00024-9.70508,2.82593-13.46314,5.25-2.43921,1.57447-6.61987,4.47217-6.7583,7.77564a11.295,11.295,0,0,1,2.97095-.41406c3.61059,0,6.32226,1.91552,9.98681,3.34765,2.17115.84839,4.99146,1.17359,6.94165,2.43189-2.86157,1.27807-5.97119,1.47754-8.94043,2.2251-4.74,1.18823-9.58032,1.8999-14.44067,2.65136q-15.61341,2.41846-31.25024,4.65723c-13.68921,1.9519-27.37867,3.97754-41.12891,5.43725-8.28979.88062-16.69116.74585-25.04028,1.05494-.09888.00366-.19654.00561-.292.00561-3.00683,0-4.23779-1.79712-4.24829-4.67358-.03051-5.687-.05029-11.376.02173-17.0647.0376-3.489,2.148-5.00049,5.40845-5.38354,11.10083-1.294,22.26123-2.24659,33.27051-4.05665,12.14892-2.00048,24.17016-4.76855,36.22925-7.25463,11.42993-2.35621,22.90112-4.53492,34.25-7.2417q19.9812-4.76148,39.75048-10.34424c15.54956-4.42188,31.05957-9.043,46.42969-14.04883,12.70068-4.134,25.209-8.856,37.73-13.49878,7.96-2.95,15.88819-5.9873,23.81494-9.03393M3431.09888,480.7c.80175-4.08545,1.01025-8.66724,2.53076-12.69336,3.15991.92017,6.72974.7854,10.001,1.52783q5.65392,1.2887,11.32934,2.54322,11.34009,2.51037,22.71948,4.88183c11.57007,2.40869,23.19068,4.5835,34.78955,6.86084l-.05932,2.157c-3.88989,0-7.78516.02637-11.68091.02637-2.53272,0-5.06543-.01123-7.59839-.04785-4.68066-.07007-9.38989-.08813-14.03979-.59326q-12.87159-1.3938-25.71973-2.92261-6.42223-.76831-12.84082-1.59082a47.0431,47.0431,0,0,0-5.98779-.54394,13.31735,13.31735,0,0,0-3.44336.39477m-60.509,9.87158c.49976-3.52465.73-7.09277,1.36084-10.60132.46-2.59912,2.18921-5.55053,2.27906-8.10449,1.98071-.73706,3.7998-.595,5.88134-.70117a70.89014,70.89014,0,0,0,7.75953-1.00659c3.2893-.53565,7.20043-.97583,10.08886-2.69238-1.79907,1.08007-2.36889,4.73437-3.37011,6.44921v-.00366c-1.0586,1.83155-2.91016,3.04126-4.28858,4.59961a15.50846,15.50846,0,0,1-2.67114,2.3833c-1.63916,1.16846-3.28027,2.40137-4.86914,3.64722a23.72148,23.72148,0,0,1-3.88965,2.75171,61.92164,61.92164,0,0,1-8.281,3.27856M3044.6499,480.20361a14.89785,14.89785,0,0,1,.59131-2.89184c1.3103-3.93262,4.13941-9.10742,8.16919-10.84033a14.865,14.865,0,0,1,3.03052-.92017,20.90294,20.90294,0,0,1,8.79858.25342c2.6709.67041,2.30957,1.14843,2.21973,3.85718v-.00171a53.71437,53.71437,0,0,1-1.38159,11.49926,22.57318,22.57318,0,0,1-2.127,5.4812c-1.16113,2.05616-2.4104,4.19874-4.36059,5.46045a30.62122,30.62122,0,0,1-5.75,2.38721c-1.81006.7063-3.33081,1.87647-5.18921,2.44092a8.81263,8.81263,0,0,1-2.49585.44482c-2.03125,0-2.80664-1.2854-2.51367-3.73608.38818-3.27856,1.2583-6.85718,1.03882-10.1106a14.91023,14.91023,0,0,1-.03028-3.32373m64.43531-21.73706c1,0,1.999-.04907,2.99536-.0979,1.00586-.05053,2.01-.09985,3.01342-.09985.35572,0,.71119.0061,1.0669.02075,2.66919.11328,5.37793.53027,8.05957.76563q8.54956.75768,17.09912,1.43261c26.0603,2.04492,52.16528,3.45533,78.2981,3.83765h0q2.52612.037,5.05273.061,1.07556.01026,2.15234.01783,3.20325.02269,6.4065.02246,16.55529,0,33.11108-.60108,7.65674-.2893,15.30933-.72461h0q.41345-.02343.82641-.04736h0q2.35218-.13659,4.70386-.28662c1.62036-.10327,17.69312-1.63086,20.13159-1.63086.19605,0,.30347.00977.30884.031.10962.49975.23.99218.3396,1.48828-3.65942,1.4021-7.22021,3.15088-10.9895,4.15747v-.00171c-5.80029,1.551-11.57007,3.24243-17.3811,4.76684q-2.27674.59839-4.56348,1.158h0q-2.08227.50683-4.17578.96656-.2157.04724-.4314.09277c-2.28491.48193-4.55908.81372-6.79785,1.33618-1.13965.26587-2.18042.97046-3.31079,1.2959a22.99012,22.99012,0,0,1-3.74951.78369,14.363,14.363,0,0,1-1.5166.07691c-2.46534,0-4.90943-.552-7.334-.78321-1.47119-.14111-2.94629-.26733-4.42236-.394a123.05556,123.05556,0,0,1-14.97754-1.91211q-.75256-.1593-1.5-.33667h0c-4.86255-1.14868-9.56983-2.78955-14.4397-3.864a16.49959,16.49959,0,0,0-3.57519-.39283c-5.68653,0-10.44092,2.92261-15.9646,4.554a6.9768,6.9768,0,0,1-1.99048.27246,18.69326,18.69326,0,0,1-4.34009-.71289,18.82284,18.82284,0,0,0-4.39771-.71533c-.11791,0-.23535.00244-.353.00708a15.37294,15.37294,0,0,0-8.60962,2.71606c-.791.58057-4.65015,3.38623-4.31934,4.5708.09888.37744,1.08936.67237,1.33911.95093,1.62134,1.81348,2.24146,4.15015,4.24024,5.79126,1.57471,1.28662,5.13476,3.11646,7.88769,3.11646a3.8552,3.8552,0,0,0,2.31275-.64673,1.39325,1.39325,0,0,1-.37036.86279c-1.04908,1.218-4.06446,1.78857-5.53345,1.78857l-.04761-.00024c-17.05932-.18872-34.12964-.26416-51.16943-.95605a165.05142,165.05142,0,0,1-16.77-1.75977,35.4641,35.4641,0,0,0-6.20459-.5481q-.53211,0-1.06421.01612-.26771.00989-.53491.01a14.16907,14.16907,0,0,1-1.7605-.10987h0a14.13879,14.13879,0,0,1-3.426-.87451c1.2483-.87622,2.37232-2.03174,3.66529-2.87842h0a7.03345,7.03345,0,0,1,2.02539-.94458,9.00661,9.00661,0,0,1,2.34228-.27026c1.50293,0,3.03931.23731,4.4773.2395q.48011.01758.96.01758a26.40254,26.40254,0,0,0,7.48071-1.08325c2.20923-.76221,2.82031-1.86572,4.33008-3.63818.89868-1.04786,2.37085-2.22144,2.991-3.49952.70825-1.47583.719-3.26782,1.47924-4.792.69922-1.438,2.32959-2.98559,1.90894-4.77051-.53931-2.2915-4.74878-1.86035-6.76025-2.2-5.09912-.87524-10.75928-2.48218-14.83057-5.68359.43237.02222.86475.03149,1.29688.03149m287.7998-7.05493c1.92749-.30786,4.04443-1.59619,5.99414-2.01391-.27734,1.32031-.47607,3.12988-.77759,5.00146h0c-.47949,2.97974-1.21924,6.11694-2.95019,7.69019v-.00367c-2.165,1.96949-10.7024,4.94263-16.7356,4.94263-4.33594,0-7.37793-1.53467-5.835-6.08032,1.65015-4.86035,4.0603-8.41919,10.10889-8.635,3.22094-.11133,6.47973-.67578,9.63965-.84107a5.35314,5.35314,0,0,0,.55566-.0603h0m337.56982,23.79492a8.22233,8.22233,0,0,1-2.84594-.50805c-5.10816-1.864-8.84864-7.54566-10.19849-12.55152-1.34985-5.00415,1.1394-13.4646-3.60034-17.12622-1.89087-1.46118-5.43018-1.0227-4.29956-4.03149.82861-2.2002,2.89941-3.62183,3.95971-5.65113,1.8982-3.6184-4.29028-5.55786-3.22094-8.76074.49072-1.46484,3.3811-3.50683,4.46118-4.64453a58.57081,58.57081,0,0,1,5.66919-5.281c1.75073-1.40918,4.15942-2.00049,6.23-2.94605-.19043,2.66919-1.07129,5.22168-.26074,6,1.0791,1.023,3.18457,1.24194,4.96557,1.24194q.25269,0,.49512-.00537a19.765,19.765,0,0,0,5.32056-1.33911,10.72022,10.72022,0,0,1,3.23-.52807,6.914,6.914,0,0,1,5.32934,2.25732,16.78891,16.78891,0,0,1,3.12036,7.3208,12.99871,12.99871,0,0,1,.26954,3.49976v-.00367a16.39218,16.39218,0,0,0-4.019-5.26464,26.63,26.63,0,0,1-4.38037-4.65723c-.58325-.80274-.41186-1.17407-.66675-1.17407a3.40087,3.40087,0,0,0-.773.24292c-3.31079,1.199-4.24926,8.09936-3.69018,10.81176a9.83,9.83,0,0,0,6.46,7.07471c.239,5.53418-3.44922,10.31372-5.24121,15.24219-1.5188,4.16479-1.5979,8.63306-2.04907,12.99-.21949,2.0708-.14038,6.97412-2.59009,7.61938a8.25046,8.25046,0,0,1-1.67481.17212m-663.4624-29.65039a5.67655,5.67655,0,0,1-2.62182-.56592c-4.20069-2.38867-8.52173-4.84228-12.0105-8.10107-4.731-4.42163-9.87891-9.03931-12.72949-14.64551-2.64039-5.17285-.08082-12.00854-2.16065-17.89868-.14917-.41724.90064-1.25464,2.02051-2.71606,2.83984,3.28222,4.87988,6.40063,7.6499,8.6438,2.689,2.19116,6.12012,3.48364,8.7605,4.9143-.42944,1.21314-1.08008,3.05737-1.73071,4.8999,2.14062.6272,4.2705,1.675,6.42944,1.75611q.1095.004.21924.0039c1.84326,0,3.75293-.84887,5.56128-1.4851a9.89157,9.89157,0,0,1,3.27588-.59327c3.91577,0,6.93676,2.75049,7.71753,7.50831a15.55449,15.55449,0,0,1,.19726,2.4353q-.41016-.17542-.80908-.35987a28.11384,28.11384,0,0,0-6.1416-2.491v-.00171a6.10235,6.10235,0,0,0-1.13819-.09985,44.797,44.797,0,0,0-4.91186.69287c.26953,1.855.17065,3.86987.90039,5.52368,1.06958,2.42285,3.03955,4.46289,4.01929,6.90918.60034,1.501.7207,4.09277-.16919,5.02563a3.446,3.446,0,0,1-2.32813.645m336.5979-19.37427c-.92944-1.34252-2.11035-1.64648-3.37036-2.58105-1.75073-1.29956-2.76074-3.82861-4.36059-5.55957-2.16944-2.35645-5.759-4.5188-7.19874-7.34253-1.66088-3.27319-.35034-7.41431-2.07055-10.68579-.92041-1.7561-1.6897-2.18189-.49976-4.15381a19.00248,19.00248,0,0,1,4.61035-4.53857c1.68555,3.0459,3.44629,4.43383,6.31055,4.43383a19.624,19.624,0,0,0,5.87793-1.20727,15.90554,15.90554,0,0,1,4.856-.92407,6.66881,6.66881,0,0,1,4.365,1.438,10.524,10.524,0,0,1,2.60986,3.92553,13.13206,13.13206,0,0,1,1.1001,2.2666,10.25465,10.25465,0,0,1-.23023,1.92871v-.00366a.89925.89925,0,0,1-.12939.42432,16.21765,16.21765,0,0,0-10.88135-4.1936,23.34447,23.34447,0,0,0-8.3584,1.7312c2.2002,2.32934,2.67993,6.291,6.02857,7.64428,2.21094.89893,4.27075,2.08326,6.65063,2.44092.17969.0271-1.72925,7.56543-1.95923,8.25562-.8413,2.4895-2.25048,4.38232-3.35034,6.70092m-30.49-80.20166h-2.02026c-.54126,3.895-.88989,7.82959-1.6897,11.669-.47095,2.2146-1.45044,5.91528-2.59009,6.07007a12.02017,12.02017,0,0,1-1.62475.106c-2.3645,0-5.03565-.62671-6.4961-2.00586-3.07006-2.88306-5.00048-6.97583-7.48095-10.499-.96875-1.375-2.1587-2.59179-3.24976-3.88061-.53931.39917-1.08935.7998-1.63916,1.199,1.47925,8.53247,4.75049,16.07813,12.79053,20.79444-1.28174,1.10546-2.34033,2.01855-3.47095,3a9.87453,9.87453,0,0,0,8.72852,4.25756,29.93808,29.93808,0,0,0,3.32153-.22241,10.80364,10.80364,0,0,1,1.189-.06714,7.02772,7.02772,0,0,1,7.12232,4.98145,14.61485,14.61485,0,0,1,.53931,5.46411c-.0188.35693-.96729,5.21484-1.45411,5.21484a.08977.08977,0,0,1-.0664-.03442c-2.04029-2.28638-1.56934-5.83814-3.62915-8.16943-.88819-1.0066-4.949-3.46558-7.16407-3.46558a2.18452,2.18452,0,0,0-.56494.06665,1.28248,1.28248,0,0,0-.46191.21753c-1.84961,1.45581-1.429,5.94775-1.21875,7.96435a13.15617,13.15617,0,0,0,5.8291,9.40064,23.62961,23.62961,0,0,0-6.12012,4.8584,17.88744,17.88744,0,0,0-3.72973,7.27783c-.49976,1.77954-1.27075,3.47266-1.749,5.26123-.43139,1.64819-.43139,3.221-1.012,4.81885a59.44317,59.44317,0,0,1-4.97876,9.91113,115.99231,115.99231,0,0,1-13.17895,17.48535c-4.06665,4.57886-8.14331,7.75537-14.477,7.75537q-.405,0-.82276-.01733-.92907-.03918-1.86059-.03784c-4.86255-.00025-9.76246.72973-14.6399,1.10913-8.04248.62573-16.07544,1.541-24.116,2.11011h0q-.89649.06372-1.792.12085h0c-2.83984.18164-5.68115.31445-8.52368.36987q-11.96009.23217-23.93066.21362c-9.1377,0-18.27344-.0769-27.41187-.17407q-3.0011-.03186-6.0039-.06616h0q-1.7472-.01979-3.49317-.0398c-16.89966-.19238-33.83862-.26611-50.70947-1.31567-14.48-.90064-28.83984-3.55176-43.32007-4.57642a75.50507,75.50507,0,0,1-11.17993-1.72192,4.20719,4.20719,0,0,0-.875-.0752c-.37451,0-.782.02662-1.19385.05371-.41089.02613-.82666.05249-1.21948.05249-.05908,0-.11768-.00048-.17554-.00195h0a2.68507,2.68507,0,0,1-1.51684-.37231c-.69922-.51221-.77832-1.94678-1.199-2.67652a19.16419,19.16419,0,0,0-1.88012-2.84155,33.91307,33.91307,0,0,0-5.2-4.49194c-.93994-.74781-2.12085-1.63013-2.1892-2.88477-.1709-2.84717,1.33911-5.26123,1.61938-7.96631a2.77825,2.77825,0,0,0-.78-2.574,11.75021,11.75021,0,0,0-3.03223-1.221,1.22891,1.22891,0,0,0-.2124-.02319c-.0896,0-.145.01953-.156.06323a28.05226,28.05226,0,0,1,.84106-3.19214c.59277-1.46,1.24707-2.90454,1.89966-4.34936a51.09829,51.09829,0,0,0,3.57007-9.563,4.38846,4.38846,0,0,0,.08838-1.02124c-.041-2.51148-1.58619-6.32178-2.648-6.44531a6.53259,6.53259,0,0,0-.76514-.04615c-3.10352,0-4.96631,2.40845-5.09448,6.31568-.11157,3.41162-1.35181,6.78882-2.3313,11.29883-.73316-.60425-1.38233-1.13062-1.96753-1.603-1.64258-1.3252-2.78052-2.22217-3.8418-3.19629-5.3313-4.8711-7.0603-11.552-9.17968-18.07324a55.69075,55.69075,0,0,0-3.24073-6.76l-2.25024.84277c.70093,3.7478,1.72,7.47388,1.98974,11.2522.17066,2.28076-.10083,5.9602-1.42895,6.67187a10.71347,10.71347,0,0,1-7.9502.17627c-7.36059-2.79492-12.15966-10.92114-11.9602-18.80664a16.492,16.492,0,0,0-.5896-4.95019,3.23773,3.23773,0,0,0-1.93457-1.67163.23441.23441,0,0,0-.09644.01806c-2.82006,1.31568-6.82837,1.47217-6.51928,6.21362a28.93239,28.93239,0,0,1-.3003,6.51221,17.04664,17.04664,0,0,1-1.70019,3.95069,21.76532,21.76532,0,0,1-4.199-2.08667c-4.46923-3.57154-6.70263-8.33667-8.48755-13.34644-.8955-2.51367-1.67846-5.0896-2.57373-7.60645a23.50759,23.50759,0,0,0-1.43188-2.635q-.45264-.71959-.957-1.40551l-1.68042.60034q.15307,1.21582.29687,2.4331c.3191,2.67554.62256,5.354,1.00269,8.02076q.12012.84411.25146,1.686c.728,4.75415-.33056,5.811-5.21069,5.989-.15674.00561-.31226.00854-.46509.00854-5.959,0-9.13794-4.20093-12.75512-7.94067a56.63261,56.63261,0,0,0-4.79-4.02808c-.44947.47827-.8899.958-1.33033,1.43628,3.15113,7.46655,7.63013,13.77734,16.09986,16.82568-2.79566,4.04615-1.19531,5.82935,2.64551,5.82935.10058,0,.20214-.00122.3059-.00366,2.76783-.06665,5.509-1.06055,8.29859-1.28345.99878-.08032,2.1394-.20874,3.21679-.20874a5.23171,5.23171,0,0,1,3.105.73535c2.41918,1.81909,5.15844,4.27075,3.65771,8.48023a60.3753,60.3753,0,0,0-7.28857-2.57911,8.7003,8.7003,0,0,0-1.81055-.18823,3.68794,3.68794,0,0,0-2.62915.75073c-.791.89869-.74072,3.19947-.1709,4.50611,1.1792,2.73755,3.08984,5.15332,4.41089,7.84594.658,1.34253,1.43994,3.44751.85937,4.44678-5.34033,9.12744-5.98925,19.33862-7.18994,29.42041-.70093,5.86328-3.469,9.83032-9.17041,11.9585-8.48071,3.16553-16.79223,6.82544-25.28052,9.97876q-.40429.15015-.80932.29883c-18.46875,6.77636-36.959,13.52392-55.58032,19.894-10.88892,3.72607-22.02051,6.74951-33.06934,9.99023-9.27124,2.71949-18.52979,5.49488-27.88892,7.8855-10.36059,2.6438-20.791,5.02368-31.24145,7.2561-13.04932,2.78614-26.1294,5.39063-39.23071,7.907-8.01856,1.54028-16.09986,2.80395-24.15943,4.12695-10.34057,1.70044-20.67944,3.43115-31.05981,4.86206a2.94061,2.94061,0,0,1-.39478.02515c-1.49145,0-3.70874-.94434-4.17431-1.99707-4.69117-10.51319-14.19068-15.07862-23.58057-19.991a111.81616,111.81616,0,0,1-14.44946-8.89917c-3.21924-2.36353-4.06055-5.86865-1.731-9.38086,2.32031,1.59448,4.251,3.63623,6.59106,4.39307a12.61629,12.61629,0,0,0,3.877.62451c5.55859,0,10.325-3.904,11.75171-9.88135,1.70044-7.136-4.11963-17.0686-10.53833-18.32861a20.93963,20.93963,0,0,0-4.03687-.39746,24.21854,24.21854,0,0,0-13.134,4.24951c-5.85962,3.74219-10.80078,9.01953-12.8606,15.77417-2.22,7.33179-.19067,15.26221,2.09937,22.36206,1.06054,3.28735,2.91015,6.07178,4.08008,9.21533a14.5053,14.5053,0,0,1-5.01954.83106,43.77482,43.77482,0,0,1-7.70971-.991,52.94091,52.94091,0,0,0-5.44092-.85547,10.80465,10.80465,0,0,1-5.30078-1.6106c-1.61939-1.1665-2.27905-3.93823-3.02857-5.72119-.81958-1.95215-.2893-3.54272-.68115-5.60083-.53589-2.75439-2.94726-9.36767-6.8125-9.36792a3.682,3.682,0,0,0-1.206.21c-.20118-1.1936,1.58911-2.53808-.10059-3.5913a.97152.97152,0,0,0-.523-.13282,3.85693,3.85693,0,0,0-1.2312.3,3.77811,3.77811,0,0,1-1.04517.30078c-.22094,0-.35546-.10937-.34985-.42138a1.83525,1.83525,0,0,0,1.42017-2.89917c-1.40039-2.03638-5.18042-.009-6.02149-2.48047-.21924-.6272.1294-1.28516-.18872-1.90894a5.4494,5.4494,0,0,0-1.66089-1.3894,4.19582,4.19582,0,0,1-1.77954-3.73853c.2085-1.36963,1.40918-2.11743,1.52075-3.55a4.09119,4.09119,0,0,0-1.39135-3.77807,6.83407,6.83407,0,0,0-7.59937-.95825,29.79075,29.79075,0,0,1-2.87964,1.46313,39.92512,39.92512,0,0,1-7.93017,1.51343c-3.28028.38476-7.50977,1.22583-10.1897,3.293-1.3103.99951-2.2002,2.30078-3.88965,2.75732a5.12837,5.12837,0,0,1-1.35132.15967c-.36645,0-.73242-.02515-1.09863-.05-.36938-.0249-.73828-.05029-1.10693-.05029a6.00847,6.00847,0,0,0-.73365.04126c-2.53076.30932-5.04,2.10473-7.0603,3.57324-1.35058.98462-4.07422,3.69849-6.26465,3.69849a2.32712,2.32712,0,0,1-2.04492-1.22339c-.82153-1.29956-.08984-2.96753-1.06055-4.32984a4.98921,4.98921,0,0,0-4.75952-1.89453c-4.26.48169-8.24121,4.60132-5.96045,8.73.97095,1.76,2.55371,3.24878,4.56934,3.24878a4.41816,4.41816,0,0,0,1.22021-.17676c1.26758-.36181,1.82251-1.21338,3.16968-1.21338q.14832,0,.3103.01441a7.96857,7.96857,0,0,1,4.24,1.86572c3.28931,2.69263,6.25171,9.41138,10.84034,9.886a4.22436,4.22436,0,0,0,.43139.021,12.248,12.248,0,0,0,1.89991-.21337,12.28481,12.28481,0,0,1,1.93066-.21436,3.20734,3.20734,0,0,1,1.44873.29346c1.45947.73681,1.56006,2.5271,2.50024,3.699a1.98928,1.98928,0,0,0,1.605.92212,4.44285,4.44285,0,0,0,1.2168-.24609,4.81654,4.81654,0,0,1,1.35938-.2461,2.76219,2.76219,0,0,1,.31762.01783c-1.68945,1.012-3.13818,1.96264-3.99023,3.82666-.82861,1.8479-.88965,4.66259.66138,6.16333a10.134,10.134,0,0,0,4.81909,2.44091c.95068.19434,2.55053-.03222,2.21972,1.03174a11.85346,11.85346,0,0,1-1.33911,1.8999,8.12993,8.12993,0,0,0-.99926,3.19043c-.302,2.05811-.33082,4.145-.69019,6.19947a3.32243,3.32243,0,0,1-2.92993,2.89038,7.812,7.812,0,0,1-1.17188.08374c-2.16406,0-4.49975-.75659-6.56958-1.09229a48.28155,48.28155,0,0,1-5.85962-1.2185c-4.75073-1.38233-5.6997-3.87354-6.35937-8.49121-.45117-3.10059-1.08032-6.10035-1.78125-9.15967-1.35889-5.928-3.5896-10.75781-8.39941-14.62036a22.35826,22.35826,0,0,0-13.07007-4.49512,14.3506,14.3506,0,0,0-2.93091.2854c-2.48926-2.77344.10083-8.97266,1.562-11.676a19.41811,19.41811,0,0,1,4.729-5.4248c.6399-.52832,2.82935-1.44336,3.15113-2.2.71875-1.69849-.98145-2.27735-2.50025-3.28565-.95092-.62548-1.70044-1.508-2.90112-1.70044a4.22,4.22,0,0,0-.64307-.05932c-.92041,0-.76123.52075-1.69726.84473-.82251.2854-1.04932.634-1.44556.634-.28247,0-.65112-.17725-1.38354-.68067-1.1001-.75854-1.32105-1.68774-2.67115-2.06543-1.43774-.39892-2.80932-.03588-4.2688-.65234-3.09155,5.155.48,12.9812-.01977,18.76709-.92041-1.11084-1.13062-2.5415-1.78125-3.86279-1.35889-2.75537-2.98926-5.61157-4.56006-8.28247-1.34985-2.30982-2.09936-3.44043-1.5603-6.10059a16.88148,16.88148,0,0,0,.78027-3.81592,16.64645,16.64645,0,0,0-1.26245-5.97705c-2.00977-5.0039-6.12476-9.4375-10.19629-12.36035-4.72021-3.39014-9.66138-2.21094-15.06079-2.78442-4.551-.48169-11.23926.48169-14.54126-3.3-1.41992-1.616-2.51831-3.54273-3.93823-5.13892-3.15088-3.51562-7.34058-5.75171-11.491-7.90869-6.469-3.363-13.1897-6.57666-20.51953-7.54907a15.54077,15.54077,0,0,0-2.05444-.13574c-4.96851,0-9.08667,2.334-13.99683,3.33691,1.41113,4.04053,2.17139,4.92847.10083,8.78931-.94922,1.77783-1.56934,2.40161-.3291,4.1018.87915,1.199,1.86938.21216,1.58008,2.67456a6.53815,6.53815,0,0,0,1.07837.09082c4.82739,0,7.74194-5.56738,11.75171-7.53222a17.46337,17.46337,0,0,1,7.10571-1.36255,13.29434,13.29434,0,0,1,4.85449.7749,6.37328,6.37328,0,0,0,.50855-2.85425,2.9677,2.9677,0,0,1,1.271,0c.19434.93042-.09131,3.42945.74341,3.42945.28418,0,.69824-.2898,1.30566-1.03,2.46949,1.61767-3.62915,6.40967-4.71826,7.59424a33.66828,33.66828,0,0,0-9.26294,21.30444q-.10765,1.51611-.10718,3.09033c0,1.981.96875,5.06348.43848,6.93286-.37915,1.38037-2.27905,2.25928-3.55884,3.06275a37.18852,37.18852,0,0,1-5.61157,3.0288c-7.249,2.98731-14.52881,4.77564-21.07861,9.4275-6.74048,4.792-12.33032,11.66528-13.33154,20.10791-.8108,6.83569,1.0603,17.38305,6.79956,21.8999a15.7977,15.7977,0,0,0,7.38037,3,8.54151,8.54151,0,0,0,1.29223.09985c2.50147,0,4.4253-1.14331,6.82862-2.07349,7.79-3.02319,10.24-12.10034,2.89013-17.42065-2.62964-1.90723-7.51147-3.33081-8.09008-6.97949-.65064-4.00464,3.08984-6.21387,6.5498-6.68482a12.7286,12.7286,0,0,1,1.71167-.11914c5.66577,0,8.97681,4.10035,12.6875,7.7063,14.76074,14.33618,26.75146,30.66065,32.08984,50.66968,3.94165,14.748,8.12964,29.10425,16.44995,42.11035,7.13062,11.14417,15.45093,20.51782,28.7107,24.3374a59.7614,59.7614,0,0,1,9.3501,3.58765c4.1809,2.01318,5.14965,5.02564,2.78979,9.06982-2.75024,4.73633-6.27856,9.09156-11.00952,11.8722-2.86182,1.68152-6.30493,4.23083-9.74194,4.23083a6.46439,6.46439,0,0,1-3.958-1.346,13.74981,13.74981,0,0,1-4.56909-7.38574c-.42066-2.13171-.83033-7.26343,1.44873-8.55578a2.14812,2.14812,0,0,1,1.0708-.25562,4.33142,4.33142,0,0,1,2.77929,1.13818c1.1792,1.16468.72974,2.30787.69019,3.75306-.06812,2.80322,1.34741,3.93689,3.2561,3.93689a7.46421,7.46421,0,0,0,2.9541-.71228c5.80933-2.58472,6.05005-9.78345,1.84058-14.19983a15.64612,15.64612,0,0,0-22.12109-.40259l-.239.2373c-6.67041,6.6001-5.6206,13.74671-1.08032,21.14856a12.64839,12.64839,0,0,1,1.09839,10.33c-1.10913,4.05139-4.01929,5.95129-7.20776,8.19983-3.59131,2.53625-7.30127,4.92322-11.12085,7.11072a108.50147,108.50147,0,0,1-24.15039,10.31,26.79184,26.79184,0,0,1-12.28907.62915c-3.11132-.58776-7.50073-1.57812-9.62158-4.1a6.692,6.692,0,0,1,.4314-9.45447,6.81546,6.81546,0,0,1,.67944-.54468,4.58949,4.58949,0,0,1,2.58618-.83752c2.187,0,3.95679,1.77637,2.95337,4.61035-.90039,2.53442-5.04907,3.052-1.45947,5.92981a7.19892,7.19892,0,0,0,4.59277,1.49133c5.13916,0,11.14624-4.13769,12.3877-8.33776a12.20135,12.20135,0,0,0-5.05982-13.905,18.135,18.135,0,0,0-10.082-3.10669,25.11659,25.11659,0,0,0-9.27832,2.00659c-4.62109,1.84424-7.75952,3.9292-10.18066,8.26648a26.32,26.32,0,0,0-3.31079,10.62646c-.30908,4.34619,1.87109,6.9668,4.12158,10.41077,4.09766,6.26782,11.5896,8.90063,18.8833,8.90063a30.41177,30.41177,0,0,0,5.92676-.58215c9.64844-1.925,19.38891-3.4043,29.09863-5.04175q26.93994-4.54852,53.87988-9.0393c15.01221-2.4751,30.04956-4.75611,45.06177-7.27247,13.81885-2.31872,27.58911-4.934,41.40942-7.24194,15.65943-2.6134,31.37085-4.94287,47.03-7.55456,15.97925-2.66382,31.989-5.19458,47.86939-8.40125a310.22311,310.22311,0,0,0,35.86059-8.96741c17.21045-5.67627,25.87061-20.25354,23.21949-37.96008-1.58008-10.53479-5.76978-20.072-15.52808-25.70166a29.5538,29.5538,0,0,0-14.80713-4.10718c-12.635-.00073-24.105,8.72339-28.01343,22.80237-4.16992,14.98706,6.2085,22.23975,16.67847,23.10071q.52625.04322,1.02881.04309c4.79761,0,7.91821-2.91418,8.86084-7.40723.63086-3.025.46-7.60852-1.37866-9.45984a6.40076,6.40076,0,0,0-4.65406-2.00549c-2.4038,0-4.91674,1.26-7.1372,3.05151a18.53864,18.53864,0,0,1-2.12989,1.20618,30.90767,30.90767,0,0,1-.34887-4.8208c.73-7.84936,6.99023-14.615,14.189-15.47412a19.35777,19.35777,0,0,1,2.29346-.13513c8.26318,0,16.44189,5.14953,18.7583,12.15466,4.33887,13.12305-1.87109,26.61463-14.84155,32.23877a41.79149,41.79149,0,0,1-16.50366,3.71692c-9.82373,0-18.07373-4.44214-22.76661-13.09058-3.78-6.98486-6.17968-14.7102-9.37915-22.02392-1.66088-3.7854-.80175-6.09156,2.84888-8.16944,8.58106-4.88,15.67017-11.30774,20.35059-20.26257a8.16134,8.16134,0,0,1,5.43017-3.62183c8.09033-1.06762,16.27027-1.59252,24.41089-2.30786,5.33838-.469,10.70923-.72436,16.0188-1.41992q16.60034-2.17309,33.16089-4.73633c10.72-1.64648,21.39868-3.54638,32.10962-5.23584,5.34009-.843,10.71972-1.45947,16.12109-2.18383.54834,14.52148-14.15112,35.92529-23.05029,39.64782-8.47144,3.5481-12.1416,9.60547-15.24951,17.05762a17.15888,17.15888,0,0,1-2.49121,4.31934q-5.43018,6.511-10.94092,12.95227c-1.69873,1.9862-3.37915,4.00109-5.05811,5.99267-1.43066,1.70032-3.15088,2.1012-5.23047,2.955-.23022,1.95386-1.43969,9.76013.30005,11.18542a1.56878,1.56878,0,0,0,1.01441.29932,10.34287,10.34287,0,0,0,4.54516-1.7804,38.32612,38.32612,0,0,0,3.83936-3.60559c1.63013-1.54223,2.90991-3.42053,4.52051-4.98974,2.12988-2.085,4.02075-4.5044,5.98-6.7511,3.95092-4.53137,7.85131-9.1167,11.741-13.70007,2.65894-3.12586,5.38721-4.668,9.00074-4.668a18.68093,18.68093,0,0,1,5.14868.83215,8.57092,8.57092,0,0,1-1.11084,2.17493c-3.8501,4.019-7.65894,8.0885-11.53955,12.08239-1.64991,1.70032-3.49048,4.33362-5.46949,5.599-1.52075.97962-3.83032.62012-5.19116,2.00952-.78.79456-1.65893,3.42237-1.99878,4.48279a2.63444,2.63444,0,0,0-.17065,2.17859c.20141,1.01367,1.01025,6.194,2.35107,6.66126a.52614.52614,0,0,0,.17261.02514c1.01074,0,3.88208-1.89868,4.56714-2.37622a20.34172,20.34172,0,0,0,4.50976-4.82788,31.68862,31.68862,0,0,1,3.92041-3.85913,126.56828,126.56828,0,0,1,9.519-8.66541c6.63989-5.27734,14.25024-9.19934,22.75024-10.26342a20.21907,20.21907,0,0,0,8.71948-2.95313c2.53077-1.677,5.5-2.57214,8.02-4.26172,2.74121-1.82446,5.10108-4.18444,7.83155-6.0736,1.729-1.19886,3.84814-3.95972,5.96924-4.15748-2.25928,3.33069-5.39063,5.97107-8.16944,8.79847-1.41089,1.43432-2.44092,2.23242-4.37134,2.44812-4.8208.53381-6.949,4.85485-8.85962,8.68347-2.46948,4.94836-4.79,9.99914-7.96069,14.552a83.97208,83.97208,0,0,1-7.44873,9.01953,41.51884,41.51884,0,0,1-3.38086,3.70813c-1.26,1.05151-2.89941,1.03174-4.20972,1.93762-.95971.65613-2.43017,3.60035-3.12939,4.66077-.93091,1.42725-.69019,1.90894-.42041,3.49426a81.37467,81.37467,0,0,1,.69019,8.385,8.10944,8.10944,0,0,0,1.06713.07312c6.63477,0,7.52637-9.01074,11.87256-12.3927,6.81958-5.29883,12.3501-12.92541,17.78931-19.61011a11.92324,11.92324,0,0,1,10.1001-4.68322,33.91214,33.91214,0,0,1,4.98047.43945,52.74513,52.74513,0,0,1-4.08033,5.70874c-2.92968,3.06641-5.9082,6.08972-8.89917,9.10754-1.52954,1.553-3.01074,3.19947-4.61035,4.67518-1.61938,1.49194-2.93872,1.24926-5.0293,1.79382-1.731.453-1.52954,1.22412-2.45,3.05383-1.45044,2.89929-1.16992,4.89441-.4707,8.16577.29761,1.426.57568,2.44287,1.78735,2.44287a3.39173,3.39173,0,0,0,.88355-.13671c1.23852-.33619,1.57983-1.11805,2.4895-1.88013,1.03882-.86817,2.3689-1.31934,3.44019-2.15332,1.93945-1.51343,3.23-3.47083,5.29882-4.91956a36.26325,36.26325,0,0,0,6.16163-5.99084c7.06933-8.13526,16.238-11.84876,26.38818-14.08484,11.581-2.55225,21.53149-7.835,29.04126-17.3938,7.33008-9.33765,14.85034-18.54956,22.689-27.46484a12.48767,12.48767,0,0,1,8.07056-3.94361c.115-.00024.23071-.00049.3457-.00049a119.03089,119.03089,0,0,1,18.16431,1.39356,121.84375,121.84375,0,0,0,15.70117,1.05249c18.21338,0,35.449-4.52,51.44947-15.11743a13.13893,13.13893,0,0,1,5.00781-1.77857l.03222-.00439c3.16358-.52564,6.33985-.9541,9.51783-1.36328h0c1.58349-.20386,3.16748-.40308,4.75024-.60694,1.85132-.23706,3.70093-.36108,5.55225-.5354.24975.46363.50854.92554.75854,1.38941-3.21045,3.04468-6.35937,6.16333-9.65063,9.12012l-.07642.06982h0a35.277,35.277,0,0,1-6.67285,4.7959c-.70728.38135-1.42822.82568-2.16211,1.27417a18.00669,18.00669,0,0,1-4.97729,2.38c-.70264-1.34826-1.66041-3.11023-3.2688-3.11023l-.051.00049c-1.54053.03418-4.26,2.17139-5.48047,3.054-1.70044,1.2456-4.58887,3.48889-5.38867,5.5271-1.06055,2.72131,1.92871,3.08264,3.83936,3.53015,2.22876.52307,4.02978,2.09948,6.33056,2.254.50171.03332,1.01148.04992,1.52588.04992a25.3356,25.3356,0,0,0,2.781-.15588,26.69217,26.69217,0,0,0,6.83838-1.69055,20.68459,20.68459,0,0,0,6.46411-3.9607,4.76,4.76,0,0,1,2.48193-.93042h0c.40845-.06176.81714-.105,1.19751-.14624,15.79956-1.6914,21.9917-7.43054,24.1001-19.97839l.00146-.00977c.22144-1.3142.62085-2.59277.84864-3.91064,1.19165-6.86084,5.05078-11.62939,10.94091-15.2998a134.78033,134.78033,0,0,0,17.10987-12.22779,13.7201,13.7201,0,0,1,9.36474-3.63305,25.5588,25.5588,0,0,1,7.20581,1.24414c-.5913,1.0874-.79077,2.03466-1.36059,2.40673-7.0315,4.57984-14.05054,9.23169-21.17017,13.67676-2.06885,1.29419-2.64941.52295-4.59961,1.03711-.62011.16187-.61133.61475-1.13965.85376-1.17016.51953-2.25048,1.34277-3.56079,1.375-.65966,1.82446-1.75976,4.71118-1.72021,6.66846.04541,1.94238,1.00439,2.29736,2.58911,2.29736.4873,0,1.03394-.03345,1.63135-.06494,5.36889-.282,7.93921-2.75,12.37011-5.31323,3.86988-2.22876,7.709-4.48267,11.74073-6.406,7.21142-3.44751,14.91748-5.74365,22.90039-5.74365q1.57251,0,3.15893.12134,1.66664.12853,3.31055.12842a42.7713,42.7713,0,0,0,26.25-9.19825q14.96923-11.413,30.17017-22.522c1.72363-1.25561,4.16748-2.86352,6.00219-2.86352a2.59925,2.59925,0,0,1,.65723.07934,125.05775,125.05775,0,0,1,13.86914,4.89258c1.27979.49975,5.09033,1.31567,2.90088,3.10425a5.2443,5.2443,0,0,1-3.08472.65625c-.61352,0-1.23926-.03174-1.81689-.06324-.58667-.03295-1.12354-.06469-1.54737-.06469-.05932,0-.11621.00049-.17089.00195a14.06833,14.06833,0,0,0-7.38037,2.1748c-1.38038.81421-3.99024,1.323-4.96094,2.68531,1.11084,1.19165,1.36084,2.98926,1.8999,4.48462a12.80535,12.80535,0,0,0,4.27979,5.80029,9.9196,9.9196,0,0,0,5.63476,2.06519,5.53724,5.53724,0,0,0,2.19678-.42945c-.36133.15454-1.31934,8.02027-1.6106,9.03223a64.019,64.019,0,0,1-3.62011,9.48315,82.33913,82.33913,0,0,1-10.89063,16.79,34.25745,34.25745,0,0,1-13.85815,10.3208,10.75392,10.75392,0,0,0-5.36182,4.80994q-1.38282,3.1734-2.93335,6.26733-1.35645,2.70668-2.83862,5.34729-1.85706,3.30817-3.90723,6.50537a67.74628,67.74628,0,0,1-6.25146,8.05787c-1.99878,2.18383-5.34913,4.04248-6.76929,6.58044-.38428.69287.06616,1.517-.83911,1.517a2.582,2.582,0,0,1-.47119-.05213c.08081.37757-.14014.91321-.0503,1.29065-.229-.01806-.49536-.02807-.78613-.02807-1.85449,0-4.70508.40674-5.2334,1.73376-1.07861,2.72681,2.46069,6.64881,2.37964,9.52832a15.31744,15.31744,0,0,0,4.5603-2.15881c1.02979-.65247,2.05078-.96521,3.0105-1.5116,1.15039-.65063,1.86939-2.09936,2.73047-3.04492,7.43945-8.16931,14.57007-16.619,21.90894-24.86926,3.81225-4.269,8.91137-3.913,13.71728-6.264.07471-.03662.14893-.07361.22363-.11157a69.14677,69.14677,0,0,0,8.814-5.733c1.4812-1.06164,2.97046-2.10986,4.51587-3.06713a41.18626,41.18626,0,0,0-3.24292,3.23108,38.28236,38.28236,0,0,1-6.36255,6.05395q-.40173.27521-.8252.53259c-1.1394.69019-2.47851,1.1-3.24975,2.18384a10.39707,10.39707,0,0,0-.69019,1.7561c-3.83032,8.67444-12.12915,13.08533-18.66992,19.38-.96118.933-1.55518,2.55749-2.95312,2.55749a2.24248,2.24248,0,0,1-.70655-.12377,5.254,5.254,0,0,0-.19043.7926c-.62939.22644-1.15991.78235-1.75757.78235a.95862.95862,0,0,1-.35083-.0669c-.23022,3.566.48877,7.02258.65772,10.51856,4.79028-.21924,8.822-4.29407,12.01245-7.47913,3.86792-3.86267,7.56885-8.00037,11.5376-11.84692a33.25212,33.25212,0,0,1,16.9104-8.99976,93.76475,93.76475,0,0,0,10.92871-2.967,65.10815,65.10815,0,0,0,9.31909-3.9856,49.25458,49.25458,0,0,0,16.47388-13.80957c6.27832-8.2467,13.13916-16.05651,19.50049-24.24572,2.95361-3.80567,6.11352-5.96875,10.73584-5.96875a17.31838,17.31838,0,0,1,2.50219.19189,248.55216,248.55216,0,0,0,27.43067,2.35645q2.07129.07178,4.12695.07226.95983,0,1.917-.01611.783-.01319,1.563-.03736h0c16.85889-.52246,32.74439-4.91845,47.03345-14.91064q.1571-.10986.31445-.21289a12.508,12.508,0,0,1,7.14917-1.96631,29.39842,29.39842,0,0,1,3.06836.18555c1.895.1997,3.80835.50439,5.72754.62573a17.91067,17.91067,0,0,1-2.96021,1.76294c-1.34936.66553-2.7102,1.24463-3.95092,2.019a16.85067,16.85067,0,0,0-7.76856,9.26929c-.46,1.1665-.36133.99219-1.481,1.54053-.489.2373-1.51.24072-1.79931.87524-.39014.84668,1.03882,1.4541.05029,2.48218a1.54838,1.54838,0,0,1-1.09424.57422c-1.44287,0-2.48364-3.00708-3.6167-3.51465a2.16854,2.16854,0,0,0-.88964-.22c-.73414,0-1.27466.52637-2.29908,1.15454a34.01481,34.01481,0,0,0-6.20117,4.81177c-2.34936,2.39233,1.46118,4.71118,3.20117,5.88476a10.55688,10.55688,0,0,0,5.69239,1.66553q.26769,0,.53588-.01367.62586.02271,1.25123.02246a34.80881,34.80881,0,0,0,17.3396-4.62378c1.98339-1.16992,3.72338-2.50146,5.80639-2.50146q.115,0,.23145.00561a6.46159,6.46159,0,0,1,3.36279,1.27344,3.55212,3.55212,0,0,0,2.00342.48633c.21484,0,.43652-.01026.6626-.02881a23.19293,23.19293,0,0,0,4.53442-1.02,62.04767,62.04767,0,0,0,9.70972-4.03174,53.0705,53.0705,0,0,1,24.19946-5.69727,64.59558,64.59558,0,0,1,9.57983.73829,71.18215,71.18215,0,0,0,10.50464.87719,36.42472,36.42472,0,0,0,18.61572-4.61059c11.14942-6.39356,22.52-12.40039,33.80079-18.5586a13.59954,13.59954,0,0,1,6.55322-1.87011,12.66207,12.66207,0,0,1,6.23559,1.76953c5.69068,3.16528,11.5503,5.99975,17.40992,8.8435,2.34033,1.134,4.64111,2.41919,7.02075,3.44019,2.229.95264,4.61938,1.22754,6.51929,2.83984a6.98654,6.98654,0,0,0-3.10181-.68554c-4.52832,0-9.62305,3.688-11.52735,7.25878l.06275-.00024c3.31641,0,4.88428,2.26489,6.13647,4.812,1.34986,2.75366,4.08033,3.71533,7.04956,3.782.084.00171.166.00269.24561.00269,2.05615,0,2.72925-.60327,4.12573-1.86133,1.81909,4.69312-.81055,12.10034-2.44092,16.50049a50.42611,50.42611,0,0,1-9.0393,15.33032c-4.08008,4.76685-8.12964,10.21851-13.43042,13.10877-5.85962,3.18676-10.24,6.55346-12.19019,12.93432a15.36866,15.36866,0,0,1-2.52,4.889c-5.29883,6.6936-10.34057,13.80078-16.64966,19.52014-.88964.80884-2.20019,1.4524-2.62963,2.37451-.26954.56434.05029,1.14136-.3003,1.71827a3.74672,3.74672,0,0,1-1.36963,1.08386c-2.40136,1.43078-2.87939,2.16955-2.66015,5.36352.22119,3.07727.17968,6.40076.65967,9.40967q.15161.0077.29956.00769c2.72729,0,4.47143-1.957,6.43188-3.87219a13.57466,13.57466,0,0,0,3.4187-5.52173c.62012-1.73279,2.5398-2.67639,3.81055-3.88965,2.13891-2.04736,4.021-4.499,5.9602-6.73681,3.97974-4.56555,7.88916-9.18128,11.80933-13.78638,2.79468-3.27356,5.5813-4.8656,9.292-4.8656a19.81144,19.81144,0,0,1,5.58716.93823,32.66647,32.66647,0,0,1-2.94971,4.04785c-3.88965,3.93457-7.98047,7.72351-11.75879,11.76416-1.34082,1.43445-1.70019,2.601-3.65063,3.28394-1.54028.54639-2.69971.58423-2.93872,2.53259-.18164,1.40918.45825,1.33374-.93115,2.0365-.73877.37927-1.41993.15454-2.05078.8772-.99927,1.1449-.53931,3.43127-.53931,4.80627,0,1.29956-.63989,5.43372.19971,6.52478a1.259,1.259,0,0,0,1.05615.47864c2.06958,0,5.68139-3.27881,6.62427-4.37915,1.3894-1.614,2.28076-3.59839,3.65942-5.19995,1.24023-1.43433,2.98022-2.44446,4.3894-3.76026,3.541-3.30187,7.0315-6.64868,10.72-9.77441a27.69082,27.69082,0,0,1,8.62037-4.61047c6.76025-2.37256,13.70019-4.19886,20.5-6.47083,11.26074-3.75476,18.11987-12.85522,25.39062-21.36609,6.0896-7.12329,11.791-14.579,17.99951-21.589,1.55762-1.762,4.36206-3.49658,6.58081-3.49658.04688,0,.09326.00073.13965.0022,13.34058.45483,26.65967,1.71313,40.00928,2.20019q1.24548.04542,2.48047.04529c14.72094,0,28.20678-4.79162,40.67968-12.59509,8.33106-5.21606,17.92041-3.84473,26.88965-5.67627a5.91075,5.91075,0,0,1,1.03174,1.3877c.02857.03759-8.93164,8.35815-9.771,9.0913a18.92844,18.92844,0,0,1-4.79,2.99463c-1.62134.771-2.5813,2.45-4.11988,3.33423a2.45246,2.45246,0,0,1-1.20825.38477c-1.52441,0-2.01343-2.24829-4.03125-2.59912a3.359,3.359,0,0,0-.57422-.04786c-1.92041,0-4.15844,1.47535-5.55688,2.48877-1.729,1.25818-6.30005,4.783-6.51026,6.96143-.39013,4.01367,7.30127,6.34851,10.19141,6.38086a25.85119,25.85119,0,0,0,14.63843-4.66968,13.87909,13.87909,0,0,1,7.321-2.11743c6.699-.14014,18.40918-6.87524,20.34864-13.25439,3.74047-12.24756,7.83154-24.55469,9.7207-37.14576,1.28808-8.59326-1.34546-12.59375-7.89429-12.594a24.50236,24.50236,0,0,0-5.0852.616,18.83408,18.83408,0,0,0-1.93042.5122,7.25024,7.25024,0,0,1-2.18946.40332c-2.23755,0-3.08081-1.70556-3.01049-4.604.08984-3.832.11157-7.666.19043-11.5.21948-10.12842.33081-20.26074.76953-30.37842.17968-4.04614,2.40136-6.87524,6.769-7.40918,4.29224-.523,8.581-1.12866,12.88232-1.50805.719-.06275,1.429-.10962,2.148-.15821a22.67265,22.67265,0,0,0,7.61182-1.356q.427-.1864.8396-.4126a9.36467,9.36467,0,0,0,3.28931-3.07007,11.91091,11.91091,0,0,0,1.01928-2.25025,2.059,2.059,0,0,1,.23169-.39917q.21827-.22814.45142-.44067a9.26392,9.26392,0,0,1,1.10693-.866,5.76213,5.76213,0,0,0,1.45972-6.75488,3.43506,3.43506,0,0,0-1.52979-1.64111,2.92,2.92,0,0,0-1.26269-.25757,6.98954,6.98954,0,0,0-1.364.16479c-.30322.061-.60522.13062-.90161.19361a4.19184,4.19184,0,0,1-3.39184-.52661c-.96363-.595-1.92212-1.20606-2.90186-1.781q-.43506-.25561-.87622-.5c-7.84033-4.312-15.36084-8.90625-20.48193-16.55273a15.31149,15.31149,0,0,0-3.10938-3.21021c-4.15942-3.35937-6.67944-7.01367-3.5105-12.5227.58057-1.0066.34156-3.6919-.3-3.99024-4.5691-2.17676-1.63941-4.801-.85938-7.45776.969-3.2461,1.82983-6.52271,2.7395-9.78345a7.79146,7.79146,0,0,0,.36109-1.19873c.05029-.51782.05029-1.06226.09887-1.58887.16016-1.51367.28052-3.05224.29126-4.5747.01978-3.05-.2102-6.00879-.42968-9.04639-.343-4.79932-.44776-9.55469-1.22071-14.2832-.15429-.94385-.335-1.88672-.5498-2.82837-.34717-1.54639-.94116-3.34864-2.582-3.72315a2.79928,2.79928,0,0,0-.33863-.05517q-.29223-.0293-.54-.02954c-1.31054,0-1.71557.63061-1.59887,2.16137.12939,1.5188.69018,2.94776.78,4.47925.10962,1.729.30005,3.44922.4602,5.17481.0791.89868.21924,1.81543.2085,2.71582a8.3613,8.3613,0,0,1-.32007,1.56933,54.01192,54.01192,0,0,0-.39893,5.41748c-.12939,1.84058-.26074,3.68457-.30029,5.53052a12.64934,12.64934,0,0,1-.28027,1.94482c-.21948,1.29956-.19971,2.62085-.33985,3.92749-.17065,1.5835-.5393,3.106-.84106,4.66089-.489,2.51807-.11865,5.18726-2.60815,6.80689a.45489.45489,0,0,1-.24854.06177c-.70166,0-2.12817-.99341-3.03174-1.62574a21.94491,21.94491,0,0,1-6.8518-8.21606,15.16347,15.16347,0,0,1-1.80835-4.77026c-.24976-2.01856-1.32105-3.93458-1.66089-5.97657-.03955-.2605-.0791-.523-.10962-.78369-.17969-1.60156-.35034-3.16162-.67945-4.73633a12.6343,12.6343,0,0,1-.28027-3.93261c.1084-1.15918,1.68286-7.2024-.85425-7.20288-.02832,0-.05664.00073-.08593.00219-1.13941.05933-1.63916,1.625-2.02027,2.45532-.88061,1.95557-1.81006,3.55909-1.95019,5.76441a37.69081,37.69081,0,0,0,.311,5.53442,21.31053,21.31053,0,0,0,.99024,4.53662,11.38483,11.38483,0,0,1,.63818,2.11206c.05029.52124-.07007,1.06592-.07007,1.59961.01074,1.57813.03052,5.20728-1.72925,6.01441a11.0699,11.0699,0,0,1-4.34521.91113,5.4938,5.4938,0,0,1-2.91455-.67944,27.08612,27.08612,0,0,1-6.72071-5.856,32.53117,32.53117,0,0,1-3.69018-6.28564,48.54114,48.54114,0,0,0-2.09033-4.41285c-.33472-.57348-.73731-2.18676-1.58936-2.18676l-.03906.00122a2.53318,2.53318,0,0,0-1.14136.82129,3.89127,3.89127,0,0,0-.50879,2.1499,11.31565,11.31565,0,0,0,.46021,4.26172c.49975,1.75781,1.03882,3.50146,1.68945,5.21606.5896,1.56934,1.54956,2.73047,1.72022,4.49.33081,3.417-1.50074,6.59131-2.90992,9.56787a4.81535,4.81535,0,0,1-3.42968,2.2666l-.0398.00147c-.76855,0-1.83154-1.64868-2.46045-2.71558a24.94823,24.94823,0,0,1-3.05-9.81421c-.1997-1.70556-.16015-3.4187-.311-5.12085a8.4737,8.4737,0,0,1-.24976-1.50073c.04126-.5376.24976-1.04443.31079-1.57641.26074-2.43726.44043-4.88013.69019-7.31739.23926-2.37451,1.59985-4.32641,2.11914-6.60547.14941-.658.47095-2.25952-.28931-2.7395a.76014.76014,0,0,0-.41186-.1145c-.865-.00024-1.98218,1.22925-2.41895,1.66748a11.96355,11.96355,0,0,0-2.61889,4.50635,28.87053,28.87053,0,0,0-1.29053,4.18628c-.55005,2.59009-.37036,5.23755-.76953,7.83862a4.29588,4.29588,0,0,1-.99024,1.925c-.56982.7998-1.06054,1.87109-2.09057,2.16211a4.74946,4.74946,0,0,1-1.259.15381,9.115,9.115,0,0,1-6.16064-2.53882,24.38875,24.38875,0,0,1-2.69971-4.05859c-.35058-.61841-.85034-1.09107-1.20972-1.71851a16.888,16.888,0,0,1-.98144-2.13892c-.84839-2.157-2.08862-4.18432-2.80933-6.38086-.3291-.97778-.72973-1.88183-1.09106-2.84008-.32886-.8628-.489-1.76319-.84839-2.617a2.89256,2.89256,0,0,0-2.28687-1.96093,1.83087,1.83087,0,0,0-1.27392.57861,2.04336,2.04336,0,0,0-.37036,1.7688c.05932.54468.12964,1.09448.21045,1.64453a18.3998,18.3998,0,0,0,.48,2.35107c1.0603,3.68848,2.23047,7.49366,3.63965,11.05957a23.86873,23.86873,0,0,0,2.66015,5.28638c.63989.88794,1.1792,1.83887,1.84961,2.70874.14917.19946,1.9502,2.2,1.93945,2.21265-3.26953,4.78125-2.88842,5.90649,2.78077,7.8584a22.36162,22.36162,0,0,0,5.30053,1.41284c2.80933.23193,6.4187.63989,7.89966,3.42578,1.72022,3.24438.53931,8.45874-.90039,11.52344-.08984-6.18311-6.3396-9.82837-11.2395-12.04273-1.66065,3.33594-3.0105,6.77979-2.42993,10.55445.35718,2.27539,1.7334,7.72973,4.84033,7.72973l.05933-.00073a13.22751,13.22751,0,0,0-3.17969,2.84717,25.34931,25.34931,0,0,1-2.14966,2.65112c-2.45,2.42847-4.18994,5.75732-6.24976,8.50024-2.65112,3.5337-4.781,7.41626-7.551,10.8816-4.62842,5.80029-10.09985,10.95532-15.4292,16.15722-1.021.99927-3.10962,1.12525-4.7417,1.24561-5.8291.43506-11.67969.62012-17.51953,1.0354-12.15967.86084-24.29956,1.88354-36.45923,2.69971-12.27661.82592-24.59375,2.33911-36.85156,2.33911q-2.34156,0-4.67822-.07788c-13.09986-.44947-26.14917-3.124-39.16089-5.22876q-28.42273-4.60254-56.73975-9.84815c-5.71924-1.06054-11.36865-2.44092-16.98926-3.93823-3.27368-.875-6.96948-2.55518-10.50439-2.55542a10.10675,10.10675,0,0,0-1.30469.082c1.48828-1.69849,2.26831-3.55518,4.12866-4.91406,2.9314-2.13941,5.82324-2.47193,9.3916-2.47193l.178.00025q.71412.01281,1.42847.01269a82.04723,82.04723,0,0,0,9.05225-.50146c2.39965-.30567,3.44946-1.801,5.37988-3.10962,1.70923-1.16113,3.12036-2.18555,3.72949-4.32275.23023-.79981.12964-1.6482.33081-2.46436.26953-1.0498,1.11987-1.70044,1.38941-2.68726.90063-3.23706-1.61036-3.71508-3.83033-4.73071-.79907-.36523-1.57568-.76025-2.33618-1.17749h0q-.15673-.08605-.312-.17309c-3.17944-1.7793-6.08618-3.93018-9.17163-5.85718a43.23715,43.23715,0,0,0-6-3.28394c-2.64942-1.1001-3.76025-1.59961-5.57031-3.90039a55.15848,55.15848,0,0,0-4.29029-4.95923c-1.36963-1.34985-3.12939-2.281-4.45044-3.62353-2.74829-2.813-1.38964-5.76074-1.4685-9.2334-.03955-1.62134.15991-4.44507-.46021-4.6626-3.9707-1.37866-2.34033-3.49975-1.40014-5.91357a103.5167,103.5167,0,0,0,4.479-13.16089c.48193-2.0166-.53-4.39282-.87891-6.7583-5.30957.53735-8.07934,2.01489-7.22924,7.59961.37939,2.5144-1.16114,5.3186-1.89991,8.33471-11.65966-4.66894-12.66772-15.93945-16.68676-25.0227a31.8969,31.8969,0,0,0-1.46363-2.92407l-2.09961.8396q.007,1.70031.127,3.397.071,1.00378.18237,2.00415c.44019,2.78979,1.15918,5.53442,1.66968,8.31494.55005,2.97656-1.15918,4.64649-3.78,4.7688-.11841.00537-.23755.00806-.35645.00806-2.0852,0-4.20288-.801-6.303-1.21607.5896-1.75244.83936-3.72778,1.82984-5.21435a17.16227,17.16227,0,0,0,2.845-6.77613,13.12,13.12,0,0,0,.02392-4.02636,14.67642,14.67642,0,0,0-.39916-1.855c-.4585-.019-.866-.03614-1.23755-.03614-2.95923,0-3.65577,1.073-9.90137,10.68946-4.98071-3.05738-9.84082-5.80933-10.12134-12.82837-.2102-5.28809-1.1394-10.54737-1.74878-15.81739" transform="translate(-2424.99902 -345.98022)" style="fill:#02263c" />
</svg>