<svg xmlns="http://www.w3.org/2000/svg" viewBox="0 0 1030.21 650.39"><title>boat</title><g id="Слой_2" data-name="Слой 2"><g id="корабль"><rect x="769.16" y="406.78" width="9.34" height="57.28" style="fill:#fff"/><rect x="570.25" y="490.89" width="251.75" height="38.83" style="fill:#fff"/><path d="M620.42,523.44H593.49l2.14,4.75h27.24l-2.45-4.75m-4.06-7.88H589.94l2.53,5.6v-.85h26.34l-2.45-4.75m-4-7.84h-25.9l2.12,4.72h26.22l-2.44-4.72m-4.88-9.47H582.15l2.83,6.28h25.7l-3.24-6.28m-26-50.47h-336v48.87h336v-1.59H605.8l-24.37-47.28" style="fill:#a6882e"/><polyline points="598.78 326.37 510.46 326.37 497.84 326.37 461.81 326.37 454.72 326.37 272.28 326.37 258.08 351.6 614.56 351.6 598.78 326.37" style="fill:#be452d"/><polyline points="403.18 365.78 363.78 365.78 363.78 408.37 403.18 408.37 403.18 365.78" style="fill:#6e8e9a"/><polyline points="542 361.03 491.53 361.03 491.53 392.59 542 392.59 542 361.03" style="fill:#6e8e9a"/><polyline points="597.22 361.03 546.75 361.03 546.75 392.59 597.22 392.59 597.22 361.03" style="fill:#6e8e9a"/><polyline points="485.22 365.78 456.81 365.78 456.81 438.31 485.22 438.31 485.22 365.78" style="fill:#b78423"/><polyline points="357.45 365.79 314.65 365.79 325.36 408.36 357.45 408.36 357.45 365.79" style="fill:#6e8e9a"/><polyline points="306.98 365.79 292.78 365.79 303.82 408.36 318.02 408.36 306.98 365.79" style="fill:#6e8e9a"/><polyline points="288.05 365.79 273.85 365.79 284.89 408.36 299.09 408.36 288.05 365.79" style="fill:#6e8e9a"/><polygon points="521.5 48.87 521.5 42.59 510.46 42.59 510.46 0 497.84 0 497.84 42.59 486.78 42.59 486.78 48.87 497.84 48.87 497.84 70.97 486.78 70.97 486.78 77.25 497.84 77.25 497.84 99.34 486.78 99.34 486.78 105.62 497.84 105.62 497.84 197.09 469.46 197.09 469.46 271.19 483.02 271.19 454.72 326.37 461.81 326.37 490.11 271.19 497.84 271.19 497.84 326.37 510.46 326.37 510.46 105.62 521.5 105.62 521.5 99.34 510.46 99.34 510.46 77.25 521.5 77.25 521.5 70.97 510.46 70.97 510.46 48.87 521.5 48.87" style="fill:#ffd775"/><path d="M799.12,528.19H595.63l-2.14-4.75h-1v-2.28l-2.53-5.6h-2.19v-3.12h.79l-2.12-4.72h-1.83v-3.19H585l-2.83-6.28h-.72v-1.6H1a371,371,0,0,0,1.55,70.26c4.35,34.4,15.55,70.81,42.7,82.09.49.21,1,.4,1.5.59,17.8.33,163.73.44,350.47.44,87.53,0,410.91-3.06,598.46.36,11.09.2,29.34-42,34.55-60.74V528.19Z" style="fill:#c73c23"/><polygon points="620.42 523.44 622.87 528.19 652.43 528.19 652.43 523.44 620.42 523.44" style="fill:#c5ab52"/><rect x="658.72" y="507.72" width="96.22" height="4.72" style="fill:#c5ab52"/><polygon points="652.43 515.56 616.36 515.56 618.81 520.31 652.43 520.31 652.43 515.56" style="fill:#c5ab52"/><polygon points="652.43 498.25 607.44 498.25 610.68 504.53 652.43 504.53 652.43 498.25" style="fill:#c5ab52"/><polygon points="652.43 507.72 612.32 507.72 614.76 512.44 652.43 512.44 652.43 507.72" style="fill:#c5ab52"/><rect x="658.72" y="523.44" width="140.4" height="4.75" style="fill:#c5ab52"/><rect x="761.27" y="498.25" width="37.84" height="6.28" style="fill:#c5ab52"/><rect x="761.27" y="507.72" width="37.84" height="4.72" style="fill:#c5ab52"/><path d="M778.62,463.54v0h-9.46v0H693.42V408.36H614.56V351.6H258.08l23.66,56.76h-41v14.19l4.73,17.34L219,494.28l-1.16,2.37h27.63V447.78h336l24.37,47.28H799.12V463.54ZM284.89,408.36l-11-42.57h14.2l11,42.57Zm18.93,0-11-42.57H307l11,42.57Zm53.63,0H325.36l-10.71-42.57h42.8Zm45.73,0h-39.4V365.78h39.4Zm82,29.94H456.81V365.78h28.41ZM542,392.59H491.53V361H542Zm55.22,0H546.75V361h50.47Z" style="fill:#c5ab52"/><rect x="658.72" y="498.25" width="96.22" height="6.28" style="fill:#c5ab52"/><path d="M658.72,520.31h82c1.35-.14,2.67-.23,3.94-.28.7,0,1.39,0,2.07,0a44.94,44.94,0,0,1,5.51.32h2.72v-4.75H658.72Z" style="fill:#c5ab52"/><rect x="761.27" y="515.56" width="37.84" height="4.75" style="fill:#c5ab52"/><polygon points="1003.66 446.19 799.12 446.19 799.12 463.54 799.12 495.06 817.66 495.06 817.66 498.25 799.12 498.25 799.12 504.53 817.66 504.53 817.66 507.72 799.12 507.72 799.12 512.44 817.66 512.44 817.66 515.56 799.12 515.56 799.12 520.31 817.66 520.31 817.66 523.44 799.12 523.44 799.12 528.19 817.66 528.19 817.66 529.72 1004.33 529.72 1003.66 446.19" style="fill:#be452d"/></g></g></svg>