<svg xmlns="http://www.w3.org/2000/svg" viewBox="0 0 4428 1515.09998">
    <path d="M219.5,1136l-1.5,23.4a7.48614,7.48614,0,0,0-5,3.8l-25-4.3,24.1,7.3v.5h0a7.47921,7.47921,0,0,0,2,5L200,1196l16.6-22.5a6.83855,6.83855,0,0,0,2.9.6h0a6.71,6.71,0,0,0,2.8-.6L239,1196l-14-24.2a7.0955,7.0955,0,0,0,2-5.1v-.5l24.1-7.3-24.9,4.3a7.67285,7.67285,0,0,0-5.1-3.8l-1.6-23.4" transform="translate(-43 -162.99999)" style="fill:#fff"/>
    <path d="M2213.5,630l-1.5,23.4a7.48634,7.48634,0,0,0-5,3.8l-24.8999-4.3,24.1001,7.3v.5h0a7.2872,7.2872,0,0,0,2,5L2194,690l16.6001-22.4a6.83815,6.83815,0,0,0,2.8999.6h0a6.71163,6.71163,0,0,0,2.8-.6L2233,690l-14-24.2a7.0952,7.0952,0,0,0,2-5.1v-.5l24.1001-7.3-24.8999,4.3a7.67255,7.67255,0,0,0-5.1001-3.8L2213.5,630" transform="translate(-43 -162.99999)" style="fill:#fff"/>
    <path d="M2881.5,163l-1.5,23.4a7.48624,7.48624,0,0,0-5,3.8l-25-4.3,24.1001,7.3v.5h0a7.28726,7.28726,0,0,0,2,5L2862,223l16.6001-22.4a7.17238,7.17238,0,0,0,2.8999.6h0a6.71087,6.71087,0,0,0,2.8-.6L2901,223l-14-24.2a7.09532,7.09532,0,0,0,2-5.1v-.5l24.1001-7.3-24.8999,4.3a7.67268,7.67268,0,0,0-5.1001-3.8L2881.5,163" transform="translate(-43 -162.99999)" style="fill:#fff"/>
    <path d="M4439.5,1602l-1.5,23.4a7.48569,7.48569,0,0,0-5,3.8l-25-4.3,24.1001,7.3v.5h0a7.73388,7.73388,0,0,0,2,5.1L4420,1662l16.6001-22.5a6.83749,6.83749,0,0,0,2.8999.6h0a6.70871,6.70871,0,0,0,2.7998-.6l16.6001,22.4-14-24.2a7.09633,7.09633,0,0,0,2-5.1v-.5L4471,1624.8l-24.8999,4.3a7.67263,7.67263,0,0,0-5.1001-3.8l-1.5-23.3" transform="translate(-43 -162.99999)" style="fill:#fff"/>
    <path d="M817,1643l-.9,13.69995a4.6045,4.6045,0,0,0-2.9,2.19995l-14.3-2.5,13.8,4.30005v.4a4.40743,4.40743,0,0,0,1.1,2.80005l-8,14.19995,9.5-13.1a4.7119,4.7119,0,0,0,1.7.4h.1a3.1933,3.1933,0,0,0,1.4-.30005l9.5,13-7.9-14a4.62588,4.62588,0,0,0,1.3-3.19995v-.2l13.5-4.19995-14.1,2.5a4.44156,4.44156,0,0,0-3.1-2.19995L817,1643" transform="translate(-43 -162.99999)" style="fill:#fff"/>
    <path d="M1189,546v.5l-2,30.8a9.7147,9.7147,0,0,0-6.5,5l-32.5-5.7,31.4,9.7v.9a9.72161,9.72161,0,0,0,2.6,6.4L1163.7,626l21.69995-30a10.57068,10.57068,0,0,0,4,.8H1189.7a11.3359,11.3359,0,0,0,3.19995-.6l21.5,29.8-18.1-32a9.94984,9.94984,0,0,0,3-7.4v-.5L1230.1,576.6l-31.9,5.6a9.82791,9.82791,0,0,0-7.1-5l-2-30.7L1189,546" transform="translate(-43 -162.99999)" style="fill:#fff"/>
    <path d="M67,505l-1.2,18.4a5.93,5.93,0,0,0-3.8,2.9L43,523l18.4,5.7v.6a6.125,6.125,0,0,0,1.5,3.7l-10.7,19,12.7-17.6a5.93215,5.93215,0,0,0,2.3.5h.2a3.66087,3.66087,0,0,0,1.8-.4L81.8,552,71.2,533.2a6.28032,6.28032,0,0,0,1.8-4.4v-.3l18-5.6-18.7,3.3a5.99122,5.99122,0,0,0-4.2-3L67,505" transform="translate(-43 -162.99999)" style="fill:#fff"/>
    <path d="M3763,1298l-1.2,18.4a5.69279,5.69279,0,0,0-3.8,2.9l-19-3.4,18.3999,5.69995v.6a5.58252,5.58252,0,0,0,1.5,3.69995l-10.69995,19,12.69995-17.6a5.93092,5.93092,0,0,0,2.30005.5h.19995a3.66082,3.66082,0,0,0,1.80005-.4l12.6001,17.5-10.6001-18.8a6.27981,6.27981,0,0,0,1.8-4.4v-.3l18-5.6-18.7,3.30005a6.01716,6.01716,0,0,0-4.1001-3L3763,1298" transform="translate(-43 -162.99999)" style="fill:#fff"/>
</svg>