<svg id="cbb5dd28-a66f-446e-afe0-ec9e99349c0a" data-name="не фанерные объекты наведение мышкой" xmlns="http://www.w3.org/2000/svg" viewBox="0 0 495.86719 249.54484"><title>attic-boxes</title><rect x="10.30974" y="2.93303" width="485.55745" height="246.61181" rx="12" ry="12" style="fill:#3a301f"/><rect width="485.55745" height="246.61181" rx="12" ry="12" style="fill:#fff"/><path d="M1355.17578,637.80211q-8.70117-1.47363-12.6289,1.91894-3.92726,3.3457-3.48047,7.13965.44531,3.79248,5.043,5.80078,4.5952,2.00831,13.03027-2.23144l4.64062,9.37109a22.02969,22.02969,0,0,1-9.95117,2.99024,32.36682,32.36682,0,0,1-11.29-1.07129,24.07715,24.07715,0,0,1-9.37109-4.99805,11.80535,11.80535,0,0,1-4.10547-8.791,14.98824,14.98824,0,0,1,2.90039-9.90625,22.043,22.043,0,0,1,7.85449-6.64844,24.76714,24.76714,0,0,1,10.17383-2.63281,18.42183,18.42183,0,0,1,9.72852,2.00781Z" transform="translate(-1253.11676 -579.22756)" style="fill:#d86600"/><path d="M1382.57422,629.36754l11.87012-.66895-1.5625,32.085-10.30762,1.16016.66894-25.34668-8.835.58008.53516,24.81055-9.01367.89257-1.38379-32.79785Z" transform="translate(-1253.11676 -579.22756)" style="fill:#d86600"/><path d="M1408.54492,652.12633l.44629,10.7539-9.72754-1.16015-2.27637-32.93262q1.24952-.08788,2.94532-.08887,1.69629,0,3.92676.13379a42.32243,42.32243,0,0,1,8.74609,1.294,23.76606,23.76606,0,0,1,7.542,3.21289,6.71425,6.71425,0,0,1,3.21289,5.80176,10.17721,10.17721,0,0,1-4.73047,8.87988,22.97555,22.97555,0,0,1-10.085,4.14941Zm-1.249-5.93555a10.21309,10.21309,0,0,0,4.418-2.27539,5.13928,5.13928,0,0,0,1.8291-3.168,2.97554,2.97554,0,0,0-1.42774-2.7666q-1.69628-1.20556-5.39941-1.07129Z" transform="translate(-1253.11676 -579.22756)" style="fill:#d86600"/><path d="M1448.751,649.67223l-2.23145.04394-9.99609,13.16406-10.79883-8.07714,12.54-7.85352a16.97311,16.97311,0,0,1-5.08789-4.99805,6.27732,6.27732,0,0,1-.66895-5.97949q.8921-2.231,4.28418-3.83691a32.70959,32.70959,0,0,1,7.45215-2.41016q2.14161-.40137,4.26074-.64746,2.11964-.24464,4.35157-.334a37.72586,37.72586,0,0,1,7.58593.35644l-1.60644,31.50488-10.57617,1.33887Zm.71386-15.30664q-3.74853.13476-5.26562,1.25a2.50575,2.50575,0,0,0-1.33887,2.499,4.66825,4.66825,0,0,0,1.96387,2.67676,10.09871,10.09871,0,0,0,4.55176,1.69629Z" transform="translate(-1253.11676 -579.22756)" style="fill:#d86600"/><path d="M1463.47656,630.43883l30.7461-1.74024.53613,15.43946-11.73633-.624,3.52539,19.36621-15.083-1.60644,2.58789-17.40332-10.84375.3125Z" transform="translate(-1253.11676 -579.22756)" style="fill:#d86600"/><path d="M1521.666,628.69859l10.44238,30.34375-11.06641,3.83789-2.1875-6.69335h-8.56738l-2.00781,6.55957-10.88868-5.08692,11.11133-28.11328Zm-3.65918,20.48243-3.25684-7.89844-3.34766,7.76465Z" transform="translate(-1253.11676 -579.22756)" style="fill:#d86600"/><path d="M1534.874,630.08238l10.39746-.625v11.5127l7.63086-.13379V629.36754l11.87012-.66895-1.5625,32.085-10.30762,1.16016V649.76109l-7.63086.17871v12.04786l-9.01367.89257Z" transform="translate(-1253.11676 -579.22756)" style="fill:#d86600"/><path d="M1567.31543,630.08238l10.39746-.625v11.5127l7.63086-.13379V629.36754l11.87012-.66895-1.5625,32.085-10.30762,1.16016V649.76109l-7.63086.17871v12.04786l-9.01367.89257Z" transform="translate(-1253.11676 -579.22756)" style="fill:#d86600"/><path d="M1610.51074,640.16734a23.56814,23.56814,0,0,1,10.085,4.14942,8.26627,8.26627,0,0,1,1.874,1.74023,7.15666,7.15666,0,0,1,1.02636,1.89649,7.80921,7.80921,0,0,1,.42383,2.165q.06738,1.16014.06738,2.543v1.80762a9.39317,9.39317,0,0,1-.15625,1.74024,5.00117,5.00117,0,0,1-.55859,1.53906,3.69151,3.69151,0,0,1-1.2041,1.25,23.24421,23.24421,0,0,1-7.49707,3.21289q-2.187.53466-4.35059.87012a39.05907,39.05907,0,0,1-4.3955.42382q-2.23244.13331-3.94922.13379-1.71827,0-2.92286-.08886l2.2754-32.93262,9.68359-1.16016-.40137,10.75391Zm-1.83008,15.26075q3.70313.13476,5.39942-1.07032a3.03969,3.03969,0,0,0,1.42871-2.76757,4.28261,4.28261,0,0,0-.53613-1.56153,6.40565,6.40565,0,0,0-1.33887-1.60644,10.20747,10.20747,0,0,0-4.37305-2.27539Zm17.35938,7.542,11.334-.40235.625-32.93164-12.80761-.89257Z" transform="translate(-1253.11676 -579.22756)" style="fill:#d86600"/><path d="M1663.61328,628.69859l.26758,9.63868-12.49512-.17872.08985,3.57032,6.38086-.35742.04492,5.89062h-5.80078l.13379,4.10547,12.04785-.71387.13379,11.55762-22.93653.66894-1.91894-34.13671Z" transform="translate(-1253.11676 -579.22756)" style="fill:#d86600"/><path d="M1329.8291,683.765q2.40967-.53613,4.8418-.915,2.43163-.37939,4.97558-.60254,5.08741-.40137,12.04883,2.4541,4.72852,2.00831,5.13184,6.02442.4453,3.97266-3.3916,6.20312,6.06738.71338,8.74609,3.61426a8.26045,8.26045,0,0,1,2.32031,6.24707,9.53954,9.53954,0,0,1-3.168,6.11328,12.80022,12.80022,0,0,1-7.98828,3.25781q-2.90039.26808-5.48828.29a47.91843,47.91843,0,0,1-4.95312-.20117q-2.36572-.22266-4.79688-.624-2.43311-.40137-4.97558-1.02637Zm12.4502,10.48633q.9375-.08936,1.78515-.17871a8.99937,8.99937,0,0,0,1.60645-.3125q1.51611-.40137,1.65137-1.42774.17724-1.91748-2.32032-2.32031-1.251-.22266-2.05273-.29a4.32324,4.32324,0,0,0-1.20508.02246Zm1.91894,13.833a23.32716,23.32716,0,0,1,3.83789-.26758q2.855-.13331,2.72168-2.499-.13329-2.72168-3.21289-2.94531-1.51758-.13331-2.499-.15625a7.92839,7.92839,0,0,0-1.47266.06738Z" transform="translate(-1253.11676 -579.22756)" style="fill:#d86600"/><path d="M1409.75,682.91637l11.87012-.66895-1.5625,32.085L1409.75,715.49254l.66895-25.34668-8.835.58008.53516,24.81054-9.01367.89258-1.38379-32.79785Z" transform="translate(-1253.11676 -579.22756)" style="fill:#d86600"/><path d="M1435.71973,705.67516l.44629,10.7539-9.72754-1.16015-2.27637-32.93262q1.24952-.08788,2.94531-.08887,1.69629,0,3.92676.13379a42.32233,42.32233,0,0,1,8.74609,1.29395,23.76589,23.76589,0,0,1,7.542,3.21289,6.71424,6.71424,0,0,1,3.21289,5.80175,10.17723,10.17723,0,0,1-4.73047,8.87989,22.9756,22.9756,0,0,1-10.085,4.14941Zm-1.249-5.93555a10.21308,10.21308,0,0,0,4.418-2.27539,5.13924,5.13924,0,0,0,1.8291-3.168,2.97553,2.97553,0,0,0-1.42773-2.7666q-1.69629-1.20556-5.39942-1.07129Z" transform="translate(-1253.11676 -579.22756)" style="fill:#d86600"/><path d="M1487.48438,700.85582q-.53615,7.85449-6.06934,11.73535a20.08178,20.08178,0,0,1-11.91406,3.83789,18.77888,18.77888,0,0,1-11.55762-3.92676q-5.17676-3.83641-5.043-11.64648a16.7608,16.7608,0,0,1,1.91895-7.63086,21.78314,21.78314,0,0,1,4.81933-5.93457,20.52148,20.52148,0,0,1,6.42578-3.79394,17.545,17.545,0,0,1,6.917-1.249,16.742,16.742,0,0,1,4.19433.9375,15.443,15.443,0,0,1,5.043,2.94434,16.729,16.729,0,0,1,4.01563,5.668A20.105,20.105,0,0,1,1487.48438,700.85582Zm-12.53907-3.97168a.72965.72965,0,0,0,.31153-.22363,1.14,1.14,0,0,0,.26855-.26758,3.3143,3.3143,0,0,0,1.11523-2.4541,4.645,4.645,0,0,0-.75878-2.36524c-.05957-.05859-.13379-.126-.22266-.20019-.08984-.07422-.17871-.15625-.26856-.2461-.05957-.05859-.126-.126-.20019-.20019a1.67989,1.67989,0,0,0-.24512-.20117,6.11,6.11,0,0,0-2.32129-.89258,4.11493,4.11493,0,0,0-2.67675.40137,4.83955,4.83955,0,0,0-.98243.53613,8.56433,8.56433,0,0,0-.75781.53516,3.62846,3.62846,0,0,0-1.16015,2.63281,4.51628,4.51628,0,0,0,.93652,2.499,1.70362,1.70362,0,0,1,.15625.17871,1.70362,1.70362,0,0,0,.15625.17871,1.16111,1.16111,0,0,1,.17871.11133,1.7937,1.7937,0,0,1,.17871.15625,4.861,4.861,0,0,0,2.90039,1.07031,4.80645,4.80645,0,0,0,3.43555-1.29394Z" transform="translate(-1253.11676 -579.22756)" style="fill:#d86600"/><path d="M1508.63477,715.49254l-16.64454.93652-1.38378-32.79785,10.39746-.625.26757,26.81836,7.49707-.66894-.13378-26.23926,11.87011-.66895-.26758,25.61426,7.4961,2.18652.66992-28.69336,5.5332-.22265,4.64063-.22364-.44629,34.67286Z" transform="translate(-1253.11676 -579.22756)" style="fill:#d86600"/><path d="M1547.72461,716.42906l7.18457-33.0664,13.209-1.11524,11.91407,27.80078-11.15528,1.33887-5.13183-14.50293-2.4541,18.51856Z" transform="translate(-1253.11676 -579.22756)" style="fill:#d86600"/><path d="M1617.249,700.85582q-.53613,7.85449-6.06933,11.73535a20.08178,20.08178,0,0,1-11.91407,3.83789,18.77888,18.77888,0,0,1-11.55761-3.92676q-5.17676-3.83641-5.043-11.64648a16.76092,16.76092,0,0,1,1.91894-7.63086,21.78336,21.78336,0,0,1,4.81934-5.93457,20.52137,20.52137,0,0,1,6.42578-3.79394,17.5449,17.5449,0,0,1,6.917-1.249,16.74194,16.74194,0,0,1,4.19434.9375,15.443,15.443,0,0,1,5.043,2.94434,16.729,16.729,0,0,1,4.01562,5.668A20.10468,20.10468,0,0,1,1617.249,700.85582ZM1604.71,696.88414a.72952.72952,0,0,0,.31152-.22363,1.14011,1.14011,0,0,0,.26856-.26758,3.3143,3.3143,0,0,0,1.11523-2.4541,4.645,4.645,0,0,0-.75879-2.36524c-.05957-.05859-.13378-.126-.22265-.20019-.08985-.07422-.17871-.15625-.26856-.2461-.05957-.05859-.126-.126-.20019-.20019a1.67989,1.67989,0,0,0-.24512-.20117,6.11,6.11,0,0,0-2.32129-.89258,4.115,4.115,0,0,0-2.67676.40137,4.83971,4.83971,0,0,0-.98242.53613,8.56433,8.56433,0,0,0-.75781.53516,3.62848,3.62848,0,0,0-1.16016,2.63281,4.51637,4.51637,0,0,0,.93653,2.499,1.70362,1.70362,0,0,1,.15625.17871,1.70362,1.70362,0,0,0,.15625.17871,1.16111,1.16111,0,0,1,.17871.11133,1.7937,1.7937,0,0,1,.17871.15625,4.861,4.861,0,0,0,2.90039,1.07031,4.80645,4.80645,0,0,0,3.43555-1.29394Z" transform="translate(-1253.11676 -579.22756)" style="fill:#d86600"/><path d="M1635.09766,685.37145l5.35449,13.69921,3.43555-14.23535,10.97753-2.58789,5.9795,30.52246-10.44141,3.65918-1.83008-19.09863-4.99707,17.9834-5.668.04492-5.8457-16.73437-.66895,17.26953-11.02246-1.69532,3.34668-30.96972Z" transform="translate(-1253.11676 -579.22756)" style="fill:#d86600"/><path d="M1313.52051,757.349l1.02637,12.62891-10.57618-.89258-2.05273-33.28906,23.29394,1.07031.04493,9.54981-12.98633-.89258Z" transform="translate(-1253.11676 -579.22756)" style="fill:#d86600"/><path d="M1362.02637,754.40367q-.53613,7.85449-6.06934,11.73633a20.09514,20.09514,0,0,1-11.91406,3.83789,18.77888,18.77888,0,0,1-11.55762-3.92676q-5.17675-3.83789-5.043-11.64746a16.764,16.764,0,0,1,1.91895-7.63086,21.78314,21.78314,0,0,1,4.81933-5.93457,20.51923,20.51923,0,0,1,6.42579-3.793,17.51018,17.51018,0,0,1,6.917-1.249,16.7772,16.7772,0,0,1,4.19433.93652,15.44616,15.44616,0,0,1,5.043,2.94532,16.71488,16.71488,0,0,1,4.01563,5.667A20.107,20.107,0,0,1,1362.02637,754.40367ZM1349.4873,750.432a.73876.73876,0,0,0,.31153-.22265,1.15828,1.15828,0,0,0,.26855-.26758,3.31584,3.31584,0,0,0,1.11524-2.4541,4.64222,4.64222,0,0,0-.75879-2.36524c-.05957-.05957-.13379-.126-.22266-.20117-.08984-.07422-.17871-.15625-.26855-.24512-.05957-.05957-.126-.126-.2002-.20117a1.67306,1.67306,0,0,0-.24512-.20019,6.0941,6.0941,0,0,0-2.32128-.89258,4.115,4.115,0,0,0-2.67676.40136,4.84282,4.84282,0,0,0-.98242.53516,8.4662,8.4662,0,0,0-.75782.53613,3.62528,3.62528,0,0,0-1.16015,2.63282,4.516,4.516,0,0,0,.93652,2.498,1.9282,1.9282,0,0,1,.15625.17871,1.61092,1.61092,0,0,0,.15625.17872,1.334,1.334,0,0,1,.17871.11132,2.085,2.085,0,0,1,.17871.15625,4.8405,4.8405,0,0,0,6.33594-.22265Z" transform="translate(-1253.11676 -579.22756)" style="fill:#d86600"/><path d="M1365.19336,770.78063l-1.02637-6.06836,32.44141.22265-1.02637,5.84571Zm18.51855-37.61719,11.915-.66992-1.60644,32.085-10.3086,1.16015.71387-25.34668-8.835.58008.53516,24.85547-9.0586.89258-1.33886-32.84278Z" transform="translate(-1253.11676 -579.22756)" style="fill:#d86600"/><path d="M1397.58984,745.56871l7.63086-5.80176,6.24707,8.30078,4.95313-12.27148,10.44238,1.74023-17.31445,32.44141-7.67481-5.57812,6.292-10.21875Z" transform="translate(-1253.11676 -579.22756)" style="fill:#d86600"/><path d="M1471.53125,736.4652l11.87012-.66895-1.5625,32.084-10.30762,1.16016.66895-25.3457-8.835.58008.53516,24.81054-9.01367.89258-1.38379-32.79883Z" transform="translate(-1253.11676 -579.22756)" style="fill:#d86600"/><path d="M1520.52734,754.40367q-.53613,7.85449-6.06933,11.73633a20.09516,20.09516,0,0,1-11.91406,3.83789,18.77888,18.77888,0,0,1-11.55762-3.92676q-5.17676-3.83789-5.043-11.64746a16.76407,16.76407,0,0,1,1.91894-7.63086,21.78336,21.78336,0,0,1,4.81934-5.93457,20.51907,20.51907,0,0,1,6.42578-3.793,17.51024,17.51024,0,0,1,6.917-1.249,16.77716,16.77716,0,0,1,4.19434.93652,15.44637,15.44637,0,0,1,5.043,2.94532,16.71486,16.71486,0,0,1,4.01562,5.667A20.10681,20.10681,0,0,1,1520.52734,754.40367Zm-12.53906-3.97168a.73863.73863,0,0,0,.31152-.22265,1.15834,1.15834,0,0,0,.26856-.26758,3.31586,3.31586,0,0,0,1.11523-2.4541,4.642,4.642,0,0,0-.75879-2.36524c-.05957-.05957-.13378-.126-.22265-.20117-.08985-.07422-.17871-.15625-.26856-.24512-.05957-.05957-.126-.126-.20019-.20117a1.67359,1.67359,0,0,0-.24512-.20019,6.09421,6.09421,0,0,0-2.32129-.89258,4.115,4.115,0,0,0-2.67676.40136,4.84282,4.84282,0,0,0-.98242.53516,8.46351,8.46351,0,0,0-.75781.53613,3.62529,3.62529,0,0,0-1.16016,2.63282,4.51609,4.51609,0,0,0,.93653,2.498,1.9282,1.9282,0,0,1,.15625.17871,1.61092,1.61092,0,0,0,.15625.17872,1.334,1.334,0,0,1,.17871.11132,2.088,2.088,0,0,1,.17871.15625,4.8405,4.8405,0,0,0,6.33594-.22265Z" transform="translate(-1253.11676 -579.22756)" style="fill:#d86600"/><path d="M1523.69531,770.78063l-1.02636-6.06836,32.4414.22265-1.02637,5.84571Zm18.51856-37.61719,11.915-.66992-1.60645,32.085-10.30859,1.16015.71386-25.34668-8.835.58008.53516,24.85547-9.05859.89258-1.33887-32.84278Z" transform="translate(-1253.11676 -579.22756)" style="fill:#d86600"/><path d="M1580.36621,735.79625,1590.80859,766.14l-11.0664,3.83789-2.1875-6.69336h-8.56739l-2.00781,6.55957-10.88867-5.08789,11.11133-28.1123ZM1576.707,756.2777l-3.25683-7.89844-3.34766,7.76465Z" transform="translate(-1253.11676 -579.22756)" style="fill:#d86600"/><path d="M1605.13281,759.223l.44629,10.75488-9.72754-1.16016-2.27636-32.93261q1.2495-.08935,2.94531-.08887,1.69629,0,3.92676.13379a42.32308,42.32308,0,0,1,8.74609,1.29394,23.76607,23.76607,0,0,1,7.542,3.2129,6.71381,6.71381,0,0,1,3.21289,5.80078,10.1761,10.1761,0,0,1-4.73047,8.87988,22.97743,22.97743,0,0,1-10.085,4.15039Zm-1.249-5.93457a10.2143,10.2143,0,0,0,4.418-2.27637,5.13437,5.13437,0,0,0,1.8291-3.168,2.97644,2.97644,0,0,0-1.42774-2.7666q-1.69628-1.20409-5.39941-1.07129Z" transform="translate(-1253.11676 -579.22756)" style="fill:#d86600"/><path d="M1647.34668,736.599l7.49707,7.2295-9.10352,9.68261,9.14747,9.6836-9.63868,6.64941-10.1289-11.55762.13379,10.8877-11.24512.80371-1.69629-33.69141,12.94141-.49023.08886,16.64453Z" transform="translate(-1253.11676 -579.22756)" style="fill:#d86600"/><path d="M1686.39258,736.37633l2.85644,29.80859-10.21972,2.40918-.75782-16.24316-8.791,17.62695-11.915-3.0791.66992-29.45215h10.21875l-1.51758,14.86035,8.791-15.61914,10.665-.8916Z" transform="translate(-1253.11676 -579.22756)" style="fill:#d86600"/></svg>