<svg id="Слой_1" data-name="Слой 1" xmlns="http://www.w3.org/2000/svg" viewBox="0 0 541.08 148.31"><title>bedroom_floor_short</title><rect x="11.25" y="1.74" width="529.83" height="146.57" rx="12" ry="12" style="fill:#3a301f"/><rect width="529.83" height="146.57" rx="12" ry="12" style="fill:#fff"/><path d="M247.39,302.1q-.58,8.56-6.62,12.81a21.9,21.9,0,0,1-13,4.18,20.45,20.45,0,0,1-12.61-4.28q-5.66-4.19-5.51-12.71a18.39,18.39,0,0,1,2.1-8.33A23.65,23.65,0,0,1,217,287.3a22.15,22.15,0,0,1,7-4.14,19,19,0,0,1,7.54-1.36,17.83,17.83,0,0,1,4.58,1,16.8,16.8,0,0,1,5.5,3.21,18.18,18.18,0,0,1,4.39,6.19A22,22,0,0,1,247.39,302.1Zm-13.68-4.33c.19-.1.31-.18.34-.25a1.14,1.14,0,0,0,.29-.29,3.62,3.62,0,0,0,1.22-2.68,5.11,5.11,0,0,0-.83-2.58l-.24-.22-.3-.26-.21-.22a2.61,2.61,0,0,0-.27-.22,6.75,6.75,0,0,0-2.53-1,4.53,4.53,0,0,0-2.93.44,5.39,5.39,0,0,0-1.07.59,9.61,9.61,0,0,0-.82.58,3.93,3.93,0,0,0-1.27,2.87,5,5,0,0,0,1,2.73l.17.19c.05.07.11.13.17.2a1.06,1.06,0,0,1,.2.12l.19.17a5.29,5.29,0,0,0,6.92-.24Z" transform="translate(-64 -253.8)" style="fill:#d86600"/><path d="M281.47,291.73q-9.5-1.61-13.78,2.09t-3.79,7.79q.48,4.14,5.5,6.33t14.21-2.43l5.07,10.22A24.05,24.05,0,0,1,277.82,319a35.55,35.55,0,0,1-12.32-1.17,26.29,26.29,0,0,1-10.22-5.46,12.87,12.87,0,0,1-4.48-9.59A16.32,16.32,0,0,1,254,292a24,24,0,0,1,8.57-7.25,27,27,0,0,1,11.1-2.87A20,20,0,0,1,284.25,284Z" transform="translate(-64 -253.8)" style="fill:#d86600"/><path d="M291.7,283.31l11.34-.69v12.57l8.33-.15V282.53l12.95-.73-1.71,35-11.24,1.27V304.78L303,305v13.15l-9.83,1Z" transform="translate(-64 -253.8)" style="fill:#d86600"/><path d="M364.83,302.1q-.58,8.56-6.62,12.81a21.9,21.9,0,0,1-13,4.18,20.45,20.45,0,0,1-12.61-4.28q-5.66-4.19-5.51-12.71a18.39,18.39,0,0,1,2.1-8.33,23.65,23.65,0,0,1,5.26-6.47,22.15,22.15,0,0,1,7-4.14A19,19,0,0,1,349,281.8a17.92,17.92,0,0,1,4.58,1,16.8,16.8,0,0,1,5.5,3.21,18,18,0,0,1,4.38,6.19A21.81,21.81,0,0,1,364.83,302.1Zm-13.68-4.33a.88.88,0,0,0,.34-.25,1.14,1.14,0,0,0,.29-.29,3.62,3.62,0,0,0,1.22-2.68,5.11,5.11,0,0,0-.83-2.58l-.24-.22-.3-.26-.22-.22a1.78,1.78,0,0,0-.26-.22,6.73,6.73,0,0,0-2.54-1,4.51,4.51,0,0,0-2.92.44,5.39,5.39,0,0,0-1.07.59c-.48.32-.76.52-.83.58a4,4,0,0,0-1.26,2.87,4.87,4.87,0,0,0,1,2.73l.17.19c0,.07.11.13.17.2a1.06,1.06,0,0,1,.2.12l.19.17a5.29,5.29,0,0,0,6.92-.24Z" transform="translate(-64 -253.8)" style="fill:#d86600"/><path d="M368.24,283.45q2.63-.58,5.28-1t5.43-.65c3.7-.3,8.08.6,13.14,2.67q5.16,2.19,5.6,6.58c.33,2.89-.91,5.14-3.7,6.77q6.63.78,9.55,3.94a9,9,0,0,1,2.53,6.82,10.45,10.45,0,0,1-3.46,6.67,14,14,0,0,1-8.71,3.55c-2.11.2-4.11.3-6,.32s-3.69-.06-5.41-.22-3.46-.39-5.23-.68-3.58-.67-5.43-1.12Zm13.58,11.44,1.95-.19a10.63,10.63,0,0,0,1.75-.34q1.65-.44,1.8-1.56c.13-1.4-.71-2.24-2.53-2.53-.91-.16-1.66-.27-2.24-.32a4.42,4.42,0,0,0-1.31,0Zm2.09,15.1a25.52,25.52,0,0,1,4.19-.29q3.12-.15,3-2.73c-.1-2-1.26-3.05-3.5-3.21-1.11-.1-2-.16-2.73-.17a8,8,0,0,0-1.61.07Z" transform="translate(-64 -253.8)" style="fill:#d86600"/><path d="M435.91,281.8l11.4,33.11-12.08,4.18-2.38-7.3H423.5L421.31,319l-11.88-5.55,12.12-30.68Zm-4,22.34-3.55-8.61L424.72,304Z" transform="translate(-64 -253.8)" style="fill:#d86600"/><path d="M222.7,341l13-.74-1.7,35L222.7,376.5l.73-27.66-9.64.64.59,27.07-9.84,1L203,341.73Z" transform="translate(-64 -253.8)" style="fill:#d86600"/><path d="M264.92,340.22l11.39,33.11-12.07,4.19-2.39-7.3H252.5l-2.19,7.16-11.88-5.56,12.12-30.67Zm-4,22.35L257.37,354l-3.65,8.47Z" transform="translate(-64 -253.8)" style="fill:#d86600"/><path d="M291.94,365.79l.49,11.73-10.62-1.26-2.48-35.94c.91-.06,2-.1,3.21-.1s2.66,0,4.29.15a46.21,46.21,0,0,1,9.54,1.41,25.94,25.94,0,0,1,8.23,3.51,7.31,7.31,0,0,1,3.5,6.33,11.09,11.09,0,0,1-5.16,9.69,25.14,25.14,0,0,1-11,4.53Zm-1.36-6.48a11.25,11.25,0,0,0,4.82-2.48,5.58,5.58,0,0,0,2-3.46,3.24,3.24,0,0,0-1.56-3q-1.84-1.31-5.89-1.17Z" transform="translate(-64 -253.8)" style="fill:#d86600"/><path d="M338,341.1l8.18,7.89-9.93,10.56,10,10.57-10.52,7.26-11-12.62.15,11.88-12.27.88-1.85-36.76,14.12-.54.09,18.17Z" transform="translate(-64 -253.8)" style="fill:#d86600"/><path d="M375.39,340.22l.3,10.52-13.64-.19.1,3.89,7-.39.05,6.43h-6.33L363,365l13.14-.78.15,12.61-25,.73-2.09-37.25Z" transform="translate(-64 -253.8)" style="fill:#d86600"/><path d="M379,342.12l33.55-1.9.59,16.85-12.81-.68,3.85,21.13-16.46-1.75,2.82-19-11.83.34Z" transform="translate(-64 -253.8)" style="fill:#d86600"/><path d="M442.54,340.22l11.39,33.11-12.08,4.19-2.38-7.3h-9.35l-2.19,7.16-11.88-5.56,12.12-30.67Zm-4,22.35L435,354l-3.65,8.47Z" transform="translate(-64 -253.8)" style="fill:#d86600"/></svg>