<svg id="Слой_1" data-name="Слой 1" xmlns="http://www.w3.org/2000/svg" viewBox="0 0 541.08 251"><title>chest_short</title><rect x="11.25" y="2.95" width="529.83" height="248.05" rx="12" ry="12" style="fill:#3a301f"/><rect width="529.83" height="248.05" rx="12" ry="12" style="fill:#fff"/><path d="M185.58,259a25.28,25.28,0,0,1,11,4.53,8.59,8.59,0,0,1,2,1.9,7.52,7.52,0,0,1,1.12,2.06,8.52,8.52,0,0,1,.47,2.37c.05.84.07,1.77.07,2.77v2a10.49,10.49,0,0,1-.17,1.9,5.73,5.73,0,0,1-.61,1.68,4,4,0,0,1-1.31,1.37A26.26,26.26,0,0,1,190,283a53.59,53.59,0,0,1-9.55,1.46,58.13,58.13,0,0,1-7.54,0l2.53-35.93,22.25-2.48V254l-12.27-.24.14,5.26Zm-2,16.65c2.69.1,4.66-.29,5.89-1.17a3.24,3.24,0,0,0,1.56-3,5.86,5.86,0,0,0-2-3.41,11.2,11.2,0,0,0-4.77-2.53Z" transform="translate(-64.19 -202.25)" style="fill:#d86600"/><path d="M243,267.08q-.58,8.57-6.62,12.8a21.92,21.92,0,0,1-13,4.19,20.51,20.51,0,0,1-12.61-4.28q-5.66-4.19-5.51-12.71a18.39,18.39,0,0,1,2.1-8.33,23.65,23.65,0,0,1,5.26-6.47,22.15,22.15,0,0,1,7-4.14,19,19,0,0,1,7.54-1.36,17.83,17.83,0,0,1,4.58,1,16.8,16.8,0,0,1,5.5,3.21,18.18,18.18,0,0,1,4.39,6.19A22,22,0,0,1,243,267.08Zm-13.68-4.33c.19-.1.31-.18.34-.25a1.14,1.14,0,0,0,.29-.29,3.62,3.62,0,0,0,1.22-2.68,5.11,5.11,0,0,0-.83-2.58l-.24-.22-.3-.27-.22-.21a1.38,1.38,0,0,0-.26-.22,6.75,6.75,0,0,0-2.53-1,4.53,4.53,0,0,0-2.93.44,5.39,5.39,0,0,0-1.07.59,9.61,9.61,0,0,0-.82.58,3.93,3.93,0,0,0-1.27,2.87,5,5,0,0,0,1,2.73,1.45,1.45,0,0,1,.17.19c0,.07.11.13.17.2a1.06,1.06,0,0,1,.2.12l.19.17a5.32,5.32,0,0,0,3.17,1.17,5.25,5.25,0,0,0,3.75-1.41Z" transform="translate(-64.19 -202.25)" style="fill:#d86600"/><path d="M273.76,247.65l8.18,7.89L272,266.11l10,10.56-10.52,7.26-11.05-12.61.15,11.88-12.27.87-1.85-36.76,14.12-.53.09,18.16Z" transform="translate(-64.19 -202.25)" style="fill:#d86600"/><path d="M315.59,256.71q-9.49-1.6-13.78,2.09t-3.8,7.79c.32,2.76,2.16,4.87,5.5,6.33s8.08.65,14.22-2.43l5.06,10.22A23.93,23.93,0,0,1,311.93,284a35.23,35.23,0,0,1-12.31-1.16,26.4,26.4,0,0,1-10.23-5.46,12.87,12.87,0,0,1-4.48-9.59A16.33,16.33,0,0,1,288.08,257a24,24,0,0,1,8.57-7.25,27.08,27.08,0,0,1,11.1-2.88,20.08,20.08,0,0,1,10.61,2.2Z" transform="translate(-64.19 -202.25)" style="fill:#d86600"/><path d="M352.2,285l-1.12-6.62,35.4.24L385.36,285Zm20.21-41,13-.73-1.76,35-11.24,1.27.78-27.66-9.65.63.59,27.12-9.88,1-1.47-35.84Z" transform="translate(-64.19 -202.25)" style="fill:#d86600"/><path d="M387.55,284.07,395.39,248l14.41-1.21,13,30.33-12.17,1.46L405,262.75,402.35,283Z" transform="translate(-64.19 -202.25)" style="fill:#d86600"/><path d="M450.8,269.66l-2.44,0-10.9,14.36-11.79-8.81,13.68-8.57a18.62,18.62,0,0,1-5.55-5.45,6.89,6.89,0,0,1-.73-6.53q1-2.43,4.68-4.19a35.58,35.58,0,0,1,8.13-2.62c1.56-.3,3.11-.53,4.65-.71s3.12-.3,4.75-.37a41.78,41.78,0,0,1,8.27.39l-1.75,34.38-11.54,1.46Zm.78-16.7q-4.09.15-5.75,1.36a2.74,2.74,0,0,0-1.46,2.73,5.07,5.07,0,0,0,2.14,2.92,11,11,0,0,0,5,1.85Z" transform="translate(-64.19 -202.25)" style="fill:#d86600"/><path d="M134.87,308.61l5.85,14.95L144.47,308l12-2.83L163,338.51l-11.4,4-2-20.84-5.46,19.62-6.18.05-6.38-18.26-.73,18.85-12-1.85,3.65-33.79Z" transform="translate(-64.19 -202.25)" style="fill:#d86600"/><path d="M166.33,315.87l8.32-6.33,6.82,9,5.41-13.39,11.39,1.9-18.89,35.4L171,336.41l6.87-11.15Z" transform="translate(-64.19 -202.25)" style="fill:#d86600"/><path d="M203.19,307.3l27-2.1,1.31,11.06-7.74,5.79a10.09,10.09,0,0,1,6.62,2.44c1.89,1.55,2.86,3.87,2.93,7a8.25,8.25,0,0,1-3.8,7.5,21.91,21.91,0,0,1-9.06,3.21,41.16,41.16,0,0,1-10.76,0,35.34,35.34,0,0,1-8.67-1.95l3-11.2a10.82,10.82,0,0,0,3.32,2,16.62,16.62,0,0,0,5.06,1.36,7.62,7.62,0,0,0,2.43,0,7.73,7.73,0,0,0,2.15-.68c1.36-.62,2-2,2-4.19a2.12,2.12,0,0,0-1.31-1.8,16.79,16.79,0,0,0-3.12-1.22,17.61,17.61,0,0,0-1.78-.39L211,323.9a11.47,11.47,0,0,0-2.83-.1l-.14-3,16.31-7.59-19.43,3.89Z" transform="translate(-64.19 -202.25)" style="fill:#d86600"/><path d="M247.79,317.72a25.64,25.64,0,0,1,11,4.53,8.78,8.78,0,0,1,2,1.89,7.73,7.73,0,0,1,1.12,2.07,8.52,8.52,0,0,1,.47,2.37c0,.84.07,1.76.07,2.77v2a10.49,10.49,0,0,1-.17,1.9,5.73,5.73,0,0,1-.61,1.68,4,4,0,0,1-1.31,1.36,25.45,25.45,0,0,1-8.18,3.51c-1.6.39-3.18.71-4.75,1a42.39,42.39,0,0,1-4.8.46c-1.62.1-3.06.15-4.31.15s-2.31,0-3.19-.1l2.49-35.93L248.22,306l-.43,11.74Zm-2,16.65c2.69.1,4.66-.29,5.89-1.17a3.32,3.32,0,0,0,1.56-3,4.61,4.61,0,0,0-.59-1.7,6.88,6.88,0,0,0-1.46-1.76,11.17,11.17,0,0,0-4.77-2.48Zm18.94,8.23,12.37-.44.68-35.93-14-1Z" transform="translate(-64.19 -202.25)" style="fill:#d86600"/><path d="M306.8,306.08,315,314,305,324.53l10,10.57-10.52,7.25-11.05-12.61.14,11.88-12.27.88-1.85-36.76,14.12-.54.1,18.17Z" transform="translate(-64.19 -202.25)" style="fill:#d86600"/><path d="M344.43,305.2l11.4,33.11-12.08,4.19-2.38-7.3H332l-2.19,7.15L318,336.8l12.12-30.67Zm-4,22.35-3.55-8.62-3.65,8.48Z" transform="translate(-64.19 -202.25)" style="fill:#d86600"/><path d="M358.85,342.5l7.84-36.08,14.41-1.22,13,30.34L381.93,337l-5.6-15.83-2.68,20.21Z" transform="translate(-64.19 -202.25)" style="fill:#d86600"/><path d="M408.61,317.38a25.39,25.39,0,0,1,11,4.52,9.08,9.08,0,0,1,2.05,1.9,8,8,0,0,1,1.12,2.07,8.52,8.52,0,0,1,.46,2.36c.05.85.07,1.77.07,2.78v2a10.49,10.49,0,0,1-.17,1.9,5.46,5.46,0,0,1-.61,1.68,4,4,0,0,1-1.31,1.36,26,26,0,0,1-8.18,3.51,54.37,54.37,0,0,1-9.55,1.46,58.13,58.13,0,0,1-7.54,0L398.48,307,409,305.69l-.43,11.74Zm-2,16.65c2.69.1,4.66-.29,5.89-1.17a3.24,3.24,0,0,0,1.56-3,5.86,5.86,0,0,0-2.05-3.41,11.2,11.2,0,0,0-4.77-2.53Z" transform="translate(-64.19 -202.25)" style="fill:#d86600"/><path d="M428.33,306.71l11.34-.68v12.56l8.33-.14V305.93L461,305.2l-1.71,35L448,341.48V328.19l-8.33.19v13.15l-9.83,1Z" transform="translate(-64.19 -202.25)" style="fill:#d86600"/><path d="M475.46,317.72a25.59,25.59,0,0,1,11,4.53,9.06,9.06,0,0,1,2.05,1.89,8,8,0,0,1,1.12,2.07,8.52,8.52,0,0,1,.46,2.37c.05.84.07,1.76.07,2.77v2a10.49,10.49,0,0,1-.17,1.9,5.46,5.46,0,0,1-.61,1.68,4,4,0,0,1-1.31,1.36,25.36,25.36,0,0,1-8.18,3.51c-1.59.39-3.18.71-4.75,1a42,42,0,0,1-4.8.46c-1.62.1-3,.15-4.3.15s-2.32,0-3.19-.1l2.48-35.93L475.9,306l-.44,11.74Zm-2,16.65q4.05.15,5.89-1.17a3.3,3.3,0,0,0,1.56-3,4.58,4.58,0,0,0-.58-1.7,7.32,7.32,0,0,0-1.46-1.76,11.27,11.27,0,0,0-4.78-2.48Zm18.94,8.23,12.37-.44.68-35.93-14-1Z" transform="translate(-64.19 -202.25)" style="fill:#d86600"/><path d="M518.79,305.84l6.82,10.42,8.76-11.06L545,311l-13.1,13.58L542,336l-8.77,6.48-7.79-11.44-7.06,9.2-11.2-5.79,11.45-12.13-9.16-13Z" transform="translate(-64.19 -202.25)" style="fill:#d86600"/><path d="M140.3,364.26l3.12,32.53-11.15,2.63-.83-17.72-9.59,19.23-13-3.36.73-32.14h11.15l-1.65,16.22,9.59-17,11.63-1Z" transform="translate(-64.19 -202.25)" style="fill:#d86600"/><path d="M146.24,365.14l11.35-.68V377l8.32-.14V364.36l13-.73-1.71,35-11.25,1.27v-13.3l-8.32.2V400l-9.84,1Z" transform="translate(-64.19 -202.25)" style="fill:#d86600"/><path d="M212.32,373.56q-9.49-1.6-13.78,2.1t-3.8,7.79c.32,2.76,2.16,4.87,5.5,6.33s8.08.65,14.22-2.44l5.06,10.23a24,24,0,0,1-10.86,3.26,35.08,35.08,0,0,1-12.32-1.17,26.21,26.21,0,0,1-10.22-5.45,12.87,12.87,0,0,1-4.48-9.59,16.33,16.33,0,0,1,3.17-10.81,24,24,0,0,1,8.57-7.26,26.91,26.91,0,0,1,11.1-2.87,20.19,20.19,0,0,1,10.61,2.19Z" transform="translate(-64.19 -202.25)" style="fill:#d86600"/><path d="M222.83,365.53l33.55-1.9.58,16.85-12.8-.68L248,400.93l-16.45-1.75,2.82-19-11.83.34Z" transform="translate(-64.19 -202.25)" style="fill:#d86600"/><path d="M272.45,389.19l.48,11.74-10.61-1.27-2.48-35.93c.9-.07,2-.1,3.21-.1s2.66.05,4.28.15a46.2,46.2,0,0,1,9.55,1.41,26.15,26.15,0,0,1,8.23,3.5,7.36,7.36,0,0,1,3.5,6.33,11.07,11.07,0,0,1-5.16,9.69,25,25,0,0,1-11,4.53Zm-1.37-6.47a11.1,11.1,0,0,0,4.82-2.49,5.58,5.58,0,0,0,2-3.45,3.24,3.24,0,0,0-1.56-3c-1.23-.88-3.2-1.27-5.89-1.17Z" transform="translate(-64.19 -202.25)" style="fill:#d86600"/><path d="M291.19,374.29l8.33-6.32,6.81,9,5.41-13.39,11.39,1.9-18.89,35.4-8.37-6.09,6.86-11.15Z" transform="translate(-64.19 -202.25)" style="fill:#d86600"/><path d="M341.93,367,347.77,382l3.75-15.53,12-2.83,6.52,33.3-11.39,4-2-20.84-5.45,19.62-6.18.05-6.38-18.26-.73,18.84-12-1.85,3.65-33.79Z" transform="translate(-64.19 -202.25)" style="fill:#d86600"/><path d="M399.62,363.63l.3,10.52-13.64-.2.1,3.9,7-.39.05,6.43h-6.33l.15,4.48,13.14-.78.15,12.61-25,.73-2.09-37.25Z" transform="translate(-64.19 -202.25)" style="fill:#d86600"/><path d="M403,365.14l11.35-.68V377l8.32-.14V364.36l13-.73-1.71,35-11.25,1.27v-13.3l-8.32.2V400l-9.84,1Z" transform="translate(-64.19 -202.25)" style="fill:#d86600"/><path d="M438.67,365.53l33.55-1.9.58,16.85L460,379.8l3.85,21.13-16.46-1.75,2.82-19-11.83.34Z" transform="translate(-64.19 -202.25)" style="fill:#d86600"/><path d="M513.41,383.93q-.58,8.58-6.62,12.81a22,22,0,0,1-13,4.19,20.48,20.48,0,0,1-12.61-4.29q-5.65-4.18-5.5-12.71a18.21,18.21,0,0,1,2.09-8.32,23.88,23.88,0,0,1,5.26-6.48,22.53,22.53,0,0,1,7-4.14,19.18,19.18,0,0,1,7.55-1.36,18.76,18.76,0,0,1,4.57,1,16.8,16.8,0,0,1,5.51,3.22,18.35,18.35,0,0,1,4.38,6.18A22,22,0,0,1,513.41,383.93Zm-13.68-4.33a.91.91,0,0,0,.34-.24,1.32,1.32,0,0,0,.29-.29,3.64,3.64,0,0,0,1.22-2.68,5,5,0,0,0-.83-2.58,1.79,1.79,0,0,0-.24-.22,2.44,2.44,0,0,1-.29-.27c-.07-.06-.14-.14-.22-.22a2,2,0,0,0-.27-.22,6.74,6.74,0,0,0-2.53-1,4.44,4.44,0,0,0-2.92.44,4.89,4.89,0,0,0-1.07.58c-.49.33-.77.52-.83.58a4,4,0,0,0-1.27,2.88,5,5,0,0,0,1,2.72,1,1,0,0,1,.17.2,1.54,1.54,0,0,0,.17.19l.2.13a1.45,1.45,0,0,1,.19.17A5.38,5.38,0,0,0,496,381a5.3,5.3,0,0,0,3.75-1.42Z" transform="translate(-64.19 -202.25)" style="fill:#d86600"/><path d="M516.82,365.29c1.75-.39,3.51-.73,5.28-1s3.58-.5,5.43-.66q5.55-.44,13.15,2.68,5.16,2.19,5.6,6.57t-3.7,6.77q6.61.78,9.54,3.94a9,9,0,0,1,2.53,6.82,10.38,10.38,0,0,1-3.46,6.67,14,14,0,0,1-8.71,3.56c-2.11.19-4.11.3-6,.31a49.89,49.89,0,0,1-5.41-.22c-1.72-.16-3.46-.39-5.23-.68s-3.58-.66-5.43-1.12Zm13.58,11.44,2-.2a8.75,8.75,0,0,0,1.75-.34c1.11-.29,1.71-.81,1.81-1.55.13-1.4-.72-2.24-2.54-2.54-.91-.16-1.65-.26-2.24-.31a4.89,4.89,0,0,0-1.31,0Zm2.1,15.09a25.27,25.27,0,0,1,4.18-.29q3.12-.15,3-2.73-.14-3-3.5-3.21c-1.11-.1-2-.15-2.73-.17a8.71,8.71,0,0,0-1.6.07Z" transform="translate(-64.19 -202.25)" style="fill:#d86600"/></svg>