<svg id="Слой_1" data-name="Слой 1" xmlns="http://www.w3.org/2000/svg" viewBox="0 0 495.87 104.54"><title>deer_short</title><rect x="10.31" y="1.23" width="485.56" height="103.32" rx="12" ry="12" style="fill:#3a301f"/><rect width="485.56" height="103.32" rx="12" ry="12" style="fill:#fff"/><path d="M223,331.66l.45,10.75-9.73-1.16-2.27-32.93q1.25-.09,2.94-.09c1.13,0,2.44,0,3.93.13a41.88,41.88,0,0,1,8.74,1.3,23.61,23.61,0,0,1,7.55,3.21,6.71,6.71,0,0,1,3.21,5.8,10.18,10.18,0,0,1-4.73,8.88A22.94,22.94,0,0,1,223,331.7Zm-1.24-5.94a10.15,10.15,0,0,0,4.41-2.27,5.17,5.17,0,0,0,1.83-3.17,3,3,0,0,0-1.43-2.77q-1.69-1.2-5.39-1.07Z" transform="translate(-87.07 -275.09)" style="fill:#d86600"/><path d="M240.17,318l7.63-5.8,6.25,8.3L259,308.23,269.45,310l-17.32,32.44-7.67-5.58,6.29-10.22Z" transform="translate(-87.07 -275.09)" style="fill:#d86600"/><path d="M272,343.21l-1-6.07,32.45.23-1,5.84Zm18.52-37.61,11.91-.67L300.82,337l-10.31,1.16.71-25.34-8.83.58.53,24.85-9.05.89-1.34-32.84Z" transform="translate(-87.07 -275.09)" style="fill:#d86600"/><path d="M339,326.84q-.54,7.85-6.07,11.73A20.08,20.08,0,0,1,321,342.41a18.77,18.77,0,0,1-11.56-3.93c-3.45-2.55-5.13-6.44-5-11.64a16.74,16.74,0,0,1,1.92-7.63,21.73,21.73,0,0,1,4.81-5.94,20.65,20.65,0,0,1,6.43-3.79,17.56,17.56,0,0,1,6.92-1.25,16.51,16.51,0,0,1,4.19.94,15.31,15.31,0,0,1,5,2.94,16.82,16.82,0,0,1,4,5.67A20.1,20.1,0,0,1,339,326.84Zm-12.54-4a.72.72,0,0,0,.31-.23,1.15,1.15,0,0,0,.27-.27,3.32,3.32,0,0,0,1.12-2.45,4.67,4.67,0,0,0-.76-2.36l-.22-.21-.27-.24-.2-.2a1.57,1.57,0,0,0-.25-.2,6,6,0,0,0-2.32-.9,4.17,4.17,0,0,0-2.68.41,4.59,4.59,0,0,0-1,.53,8.29,8.29,0,0,0-.76.54,3.63,3.63,0,0,0-1.16,2.63,4.5,4.5,0,0,0,.94,2.5l.16.18a1.19,1.19,0,0,0,.15.18.87.87,0,0,1,.18.11l.18.15a4.77,4.77,0,0,0,2.9,1.07,4.82,4.82,0,0,0,3.44-1.29Z" transform="translate(-87.07 -275.09)" style="fill:#d86600"/><path d="M342.09,342.41l7.19-33.07,13.21-1.11L374.4,336l-11.15,1.34-5.14-14.5-2.45,18.51Z" transform="translate(-87.07 -275.09)" style="fill:#d86600"/><path d="M387.7,319.38a23.31,23.31,0,0,1,10.08,4.15,8.44,8.44,0,0,1,1.88,1.74,7.15,7.15,0,0,1,1,1.9,7.89,7.89,0,0,1,.43,2.17c0,.77.06,1.62.06,2.54v1.81a9.72,9.72,0,0,1-.15,1.74,5.17,5.17,0,0,1-.56,1.54,3.84,3.84,0,0,1-1.2,1.25,24.18,24.18,0,0,1-7.5,3.21,50,50,0,0,1-8.75,1.34,52.09,52.09,0,0,1-6.91,0l2.32-32.93,9.68-1.17-.4,10.76Zm-1.83,15.27q3.7.14,5.4-1.07a3,3,0,0,0,1.43-2.77,5.44,5.44,0,0,0-1.88-3.13,10.3,10.3,0,0,0-4.37-2.32Z" transform="translate(-87.07 -275.09)" style="fill:#d86600"/><path d="M415.81,309.7a42.56,42.56,0,0,1,8.7-1.29,7.69,7.69,0,0,0,1.05-.14c.28-.06.6-.11.94-.15a9.8,9.8,0,0,1,1.18-.09c.45,0,1,0,1.79,0a39.78,39.78,0,0,1,4.39.42q2.16.34,4.35.87a23.27,23.27,0,0,1,7.5,3.22,6.69,6.69,0,0,1,3.26,5.8,10.18,10.18,0,0,1-4.73,8.88,16.11,16.11,0,0,1-2.81,1.54c-1.07.46-2.19.88-3.35,1.25s-2.31.69-3.44,1-2.14.46-3,.58l-.4,11.29-9.24-.09-.8-10.89-1.34-.13a20.3,20.3,0,0,1-5.18-1.41,26.42,26.42,0,0,1-4.91-2.74,10.41,10.41,0,0,1-4.73-8.88,6.91,6.91,0,0,1,3.26-5.81A24.11,24.11,0,0,1,415.81,309.7ZM414.72,316a9,9,0,0,0-3.24,4c.39.36.83.78,1.32,1.27a8.9,8.9,0,0,0,1.74,1.34,7.42,7.42,0,0,0,2.25.87,6,6,0,0,0,2.86-.18l.22-8.16A8.39,8.39,0,0,0,414.72,316Zm18.72,9c.44-.12.93-.27,1.45-.44a15.54,15.54,0,0,0,1.52-.61c.49-.22,1-.45,1.4-.69a4.27,4.27,0,0,0,1.07-.76,6.33,6.33,0,0,0,1.34-1.6,4.26,4.26,0,0,0,.54-1.57,3,3,0,0,0-1.43-2.76,3.61,3.61,0,0,0-1.12-.45,14.51,14.51,0,0,0-1.58-.29,17.7,17.7,0,0,0-1.85-.13c-.66,0-1.3,0-1.92,0Z" transform="translate(-87.07 -275.09)" style="fill:#d86600"/></svg>