<svg id="Слой_1" data-name="Слой 1" xmlns="http://www.w3.org/2000/svg" viewBox="0 0 541.08 148.31"><title>gorka_short</title><rect x="11.25" y="1.74" width="529.83" height="146.57" rx="12" ry="12" style="fill:#3a301f"/><rect width="529.83" height="146.57" rx="12" ry="12" style="fill:#fff"/><path d="M201.34,320.35l-1.11-6.63,35.39.25-1.12,6.38Zm20.21-41.05,13-.73-1.75,35-11.25,1.26.78-27.65-9.64.63.58,27.12-9.88,1-1.46-35.84Z" transform="translate(-63.79 -253.52)" style="fill:#d86600"/><path d="M262.94,282.17l.29,10.52-13.63-.19.09,3.89,7-.39,0,6.43h-6.33l.14,4.48,13.15-.78.14,12.61-25,.73-2.1-37.25Z" transform="translate(-63.79 -253.52)" style="fill:#d86600"/><path d="M266.59,284.07l33.55-1.9.58,16.85-12.8-.68,3.84,21.13-16.46-1.75,2.83-19-11.83.34Z" transform="translate(-63.79 -253.52)" style="fill:#d86600"/><path d="M334.27,292.11q-9.5-1.62-13.78,2.09t-3.8,7.79c.32,2.76,2.16,4.87,5.5,6.33s8.08.65,14.22-2.43l5.06,10.22a24,24,0,0,1-10.85,3.26,35,35,0,0,1-12.32-1.17,26.25,26.25,0,0,1-10.23-5.45,12.87,12.87,0,0,1-4.48-9.59,16.33,16.33,0,0,1,3.17-10.81,24.18,24.18,0,0,1,8.57-7.26,27.07,27.07,0,0,1,11.1-2.87A20.17,20.17,0,0,1,337,284.41Z" transform="translate(-63.79 -253.52)" style="fill:#d86600"/><path d="M371.81,283.05l8.18,7.89-9.94,10.56,10,10.57-10.52,7.25-11-12.61.14,11.88-12.27.88-1.85-36.76,14.12-.54.1,18.16Z" transform="translate(-63.79 -253.52)" style="fill:#d86600"/><path d="M409.44,282.17l11.4,33.11-12.08,4.19-2.38-7.3H397l-2.19,7.15L383,313.77l12.12-30.67Zm-4,22.35-3.55-8.62-3.65,8.48Z" transform="translate(-63.79 -253.52)" style="fill:#d86600"/><path d="M449,305.06l-2.43.05-10.91,14.36-11.78-8.81,13.68-8.57a18.53,18.53,0,0,1-5.55-5.46,6.81,6.81,0,0,1-.73-6.52c.65-1.62,2.2-3,4.67-4.19a36.07,36.07,0,0,1,8.13-2.63c1.56-.29,3.11-.52,4.65-.7s3.13-.3,4.75-.37a41.1,41.1,0,0,1,8.28.39L460,317l-11.54,1.46Zm.78-16.7c-2.73.09-4.64.55-5.75,1.36a2.75,2.75,0,0,0-1.46,2.73,5.12,5.12,0,0,0,2.15,2.92,11,11,0,0,0,5,1.85Z" transform="translate(-63.79 -253.52)" style="fill:#d86600"/><path d="M186.37,341.33l12.95-.73-1.7,35-11.25,1.27.73-27.66-9.64.63.59,27.07-9.84,1-1.51-35.79Z" transform="translate(-63.79 -253.52)" style="fill:#d86600"/><path d="M202.1,377.9l7.84-36.08,14.41-1.22,13,30.33-12.17,1.47-5.6-15.83-2.68,20.21Z" transform="translate(-63.79 -253.52)" style="fill:#d86600"/><path d="M278,360.9q-.58,8.58-6.62,12.81a22,22,0,0,1-13,4.19,20.46,20.46,0,0,1-12.61-4.29q-5.65-4.19-5.51-12.71a18.34,18.34,0,0,1,2.1-8.32,23.51,23.51,0,0,1,5.26-6.48,22.53,22.53,0,0,1,7-4.14,19.13,19.13,0,0,1,7.54-1.36,18.82,18.82,0,0,1,4.58,1,16.66,16.66,0,0,1,5.5,3.22,18,18,0,0,1,4.38,6.18A22,22,0,0,1,278,360.9Zm-13.68-4.33a1,1,0,0,0,.34-.24,1.58,1.58,0,0,0,.29-.29,3.64,3.64,0,0,0,1.22-2.68,5.11,5.11,0,0,0-.83-2.58l-.24-.22a3.65,3.65,0,0,1-.3-.27l-.22-.22a2.75,2.75,0,0,0-.26-.22,6.72,6.72,0,0,0-2.54-1,4.44,4.44,0,0,0-2.92.44,5.41,5.41,0,0,0-1.07.58c-.49.33-.76.52-.83.58a4,4,0,0,0-1.26,2.88,4.87,4.87,0,0,0,1,2.72,1.51,1.51,0,0,1,.17.2,1.54,1.54,0,0,0,.17.19l.2.13a1,1,0,0,1,.19.17,5.31,5.31,0,0,0,3.17,1.16,5.25,5.25,0,0,0,3.75-1.41Z" transform="translate(-63.79 -253.52)" style="fill:#d86600"/><path d="M301,376.88l-18.16,1-1.51-35.79,11.34-.68.29,29.26,8.18-.73L301,341.33,314,340.6l-.29,27.95,8.18,2.38.73-31.3,6-.25,5.07-.24.73,32.53a3.76,3.76,0,0,0,1.17,1.07,12.25,12.25,0,0,0,1.92,1c.73.31,1.53.61,2.41.91s1.77.55,2.68.77c.16.07.27.32.34.76a12.34,12.34,0,0,1,.1,1.65c0,.67,0,1.38-.08,2.12s-.1,1.44-.14,2.07-.13,1.39-.22,2.27l-18.5-1.12-.74-6.19Z" transform="translate(-63.79 -253.52)" style="fill:#d86600"/><path d="M370.18,340.6l11.39,33.11-12.08,4.19-2.38-7.31h-9.35l-2.19,7.16-11.88-5.55,12.12-30.67Zm-4,22.35-3.55-8.62L359,362.8Z" transform="translate(-63.79 -253.52)" style="fill:#d86600"/><path d="M384.64,378.77l-1.12-6.62,35.39.25-1.12,6.37Zm20.2-41,13-.73-1.75,35-11.25,1.26.78-27.65-9.64.63.59,27.12-9.89,1-1.46-35.83Z" transform="translate(-63.79 -253.52)" style="fill:#d86600"/><path d="M447.3,341.48l8.18,7.89-9.93,10.56,10,10.57L445,377.75,434,365.14l.15,11.88-12.28.88L420,341.14l14.12-.54.09,18.16Z" transform="translate(-63.79 -253.52)" style="fill:#d86600"/><path d="M484.94,340.6l11.39,33.11-12.07,4.19-2.39-7.31h-9.35l-2.19,7.16-11.88-5.55,12.12-30.67Zm-4,22.35-3.55-8.62-3.65,8.47Z" transform="translate(-63.79 -253.52)" style="fill:#d86600"/></svg>