<svg id="Слой_1" data-name="Слой 1" xmlns="http://www.w3.org/2000/svg" viewBox="0 0 541.08 148.31"><title>molbert_short</title><rect x="11.25" y="1.74" width="529.83" height="146.57" rx="12" ry="12" style="fill:#3a301f"/><rect width="529.83" height="146.57" rx="12" ry="12" style="fill:#fff"/><path d="M203.69,282.85l12.95-.73-1.7,35-11.25,1.26.73-27.65-9.64.63.59,27.07-9.84,1L184,283.63Z" transform="translate(-64.16 -253.46)" style="fill:#d86600"/><path d="M245.66,282.12l.3,10.52-13.64-.2.1,3.9,7-.39.05,6.42H233.1l.15,4.48,13.14-.78.15,12.61-25,.74-2.09-37.25Z" transform="translate(-64.16 -253.46)" style="fill:#d86600"/><path d="M268.74,305.25l-18.55-2.19L250,283.82l10.42-.73-.54,13,9.16,1.22-.3-14.17,11.25,1.27,1.7,35-12.95-.74Z" transform="translate(-64.16 -253.46)" style="fill:#d86600"/><path d="M310.91,282.12l11.39,33.11-12.07,4.19-2.39-7.31h-9.35l-2.19,7.16-11.88-5.55L296.54,283Zm-4,22.35-3.55-8.62-3.65,8.47Z" transform="translate(-64.16 -253.46)" style="fill:#d86600"/><path d="M325.61,284l33.55-1.9.58,16.85-12.8-.69,3.84,21.14-16.45-1.76,2.82-19-11.83.34Z" transform="translate(-64.16 -253.46)" style="fill:#d86600"/><path d="M362.62,283.63,374,283v12.56l8.33-.15V282.85l12.95-.73-1.71,35-11.24,1.26V305.1l-8.33.2v13.14l-9.84,1Z" transform="translate(-64.16 -253.46)" style="fill:#d86600"/><path d="M409.75,294.63a25.84,25.84,0,0,1,11,4.53,9.08,9.08,0,0,1,2.05,1.9,8,8,0,0,1,1.12,2.07,8.52,8.52,0,0,1,.46,2.36c.05.84.07,1.77.07,2.78v2a10.57,10.57,0,0,1-.17,1.9,5.46,5.46,0,0,1-.61,1.68,4,4,0,0,1-1.31,1.36,25.13,25.13,0,0,1-8.18,3.5c-1.59.39-3.18.71-4.75.95a42,42,0,0,1-4.8.47c-1.62.09-3.06.14-4.3.14s-2.32,0-3.19-.09l2.48-35.94L410.19,283l-.44,11.73Zm-2,16.65c2.69.1,4.66-.29,5.89-1.16a3.31,3.31,0,0,0,1.56-3,4.88,4.88,0,0,0-.58-1.71,7.29,7.29,0,0,0-1.46-1.75,11.16,11.16,0,0,0-4.78-2.48Zm18.94,8.23,12.37-.44.68-35.93-14-1Z" transform="translate(-64.16 -253.46)" style="fill:#d86600"/><path d="M472.9,282.75,476,315.28l-11.15,2.63L464,300.18l-9.6,19.24-13-3.36.73-32.14h11.15l-1.65,16.21,9.59-17,11.64-1Zm-20.7-11,16.17-.49-1,6.23L452.2,279Z" transform="translate(-64.16 -253.46)" style="fill:#d86600"/><path d="M241.35,376.82l-18.16,1-1.51-35.78,11.35-.69.29,29.27,8.18-.73-.15-28.63,13-.73-.3,27.94,8.18,2.39.73-31.31,6-.24,5.07-.24-.49,37.83Z" transform="translate(-64.16 -253.46)" style="fill:#d86600"/><path d="M284.3,342.45l33.55-1.9.58,16.84-12.81-.68,3.85,21.13L293,376.09l2.83-19-11.83.34Z" transform="translate(-64.16 -253.46)" style="fill:#d86600"/><path d="M347.79,340.55l11.39,33.11-12.07,4.18-2.39-7.3h-9.35l-2.19,7.16-11.88-5.55,12.13-30.68Zm-4,22.35-3.56-8.62-3.65,8.47Z" transform="translate(-64.16 -253.46)" style="fill:#d86600"/><path d="M378.27,344l5.84,14.94,3.75-15.53,12-2.82,6.52,33.3-11.39,4L393,357l-5.45,19.63-6.18.05L375,358.42l-.73,18.84-12-1.85,3.65-33.79Z" transform="translate(-64.16 -253.46)" style="fill:#d86600"/><path d="M429.39,341.28l13-.73-1.71,35-11.25,1.26.73-27.65-9.64.63.59,27.07-9.84,1-1.51-35.78Z" transform="translate(-64.16 -253.46)" style="fill:#d86600"/></svg>